<svg width="263" height="77" viewBox="0 0 263 77" fill="none" xmlns="http://www.w3.org/2000/svg">
<path d="M169.006 68.913C169.556 67.8049 170.353 66.1999 171.659 64.7307C172.719 63.5374 173.534 62.0407 173.548 60.4473C173.563 58.8538 172.614 57.1954 171.085 56.7186C169.396 56.1928 167.638 57.1607 166.136 58.0925C164.422 59.1529 162.71 60.2147 160.996 61.2751C160.18 61.7807 159.35 62.2993 158.735 63.0361C158.122 63.7729 157.754 64.7784 158.014 65.7C158.305 66.7301 159.274 67.399 160.176 67.9826C161.344 68.7367 161.306 68.6688 162.473 69.4244C163.523 70.1033 165.231 70.7896 166.48 70.6841C167.728 70.5786 168.811 69.6931 169.004 68.9158L169.006 68.913Z" fill="#F3EFA3"/>
<path d="M216.325 58.4549C216.758 60.1625 218.066 61.9307 219.716 62.1084C221.366 62.2861 223.005 61.4973 224.199 60.3517C225.393 59.2061 226.206 57.7311 226.947 56.2547C227.494 55.1625 228.056 54.0054 229.067 53.3134C229.767 52.8352 230.624 52.6228 231.319 52.1389C232.773 51.1262 233.168 48.887 232.147 47.4423C231.126 45.9977 228.875 45.609 227.426 46.6261C225.224 48.1704 225.462 51.7387 223.392 53.4535C222.485 54.2033 221.284 54.4676 220.141 54.7551C218.999 55.0426 217.802 55.4153 217.029 56.2995C216.255 57.1836 216.171 57.7051 216.326 58.4549" fill="#96DFD8"/>
<path d="M45.6987 15.1501H48.8762V55.9746H70.5305V58.6183H45.7002V15.1501H45.6987Z" fill="black"/>
<path d="M115.847 36.3041C115.847 51.3314 105.085 59.3926 93.6747 59.3926C81.2276 59.3926 71.9565 50.1699 71.9565 37.4642C71.9565 23.792 81.6807 14.3757 94.1293 14.3757C106.578 14.3757 115.847 23.792 115.847 36.3041ZM75.2633 37.3356C75.2633 47.5897 82.3299 56.8124 93.8054 56.8124C105.281 56.8124 112.542 48.1055 112.542 36.5613C112.542 27.145 106.383 16.9559 94 16.9559C81.6168 16.9559 75.2633 26.6293 75.2633 37.3356Z" fill="black"/>
<path d="M164.408 38.11C163.954 31.6611 163.371 23.2763 163.371 18.6332H163.241C161.491 23.2763 159.482 28.3066 156.693 34.8856L146.58 58.6198H144.181L134.715 35.2092C131.992 28.4366 129.982 23.2778 128.556 18.6347H128.427C128.232 23.665 127.909 31.5975 127.325 38.7572L125.769 58.6212H122.657L126.159 15.1531H129.789L140.292 41.0788C142.496 46.4962 144.181 51.0108 145.478 54.9446H145.607C146.775 51.2679 148.524 46.8834 150.989 41.1424L162.01 15.1516H165.77L168.882 58.6198H165.77L164.409 38.11H164.408Z" fill="black"/>
<path d="M219.45 36.3041C219.45 51.3314 208.687 59.3926 197.277 59.3926C184.83 59.3926 175.559 50.1699 175.559 37.4642C175.559 23.792 185.283 14.3757 197.732 14.3757C210.18 14.3757 219.45 23.792 219.45 36.3041ZM178.864 37.3356C178.864 47.5897 185.931 56.8124 197.407 56.8124C208.882 56.8124 216.143 48.1055 216.143 36.5613C216.143 27.145 209.984 16.9559 197.601 16.9559C185.218 16.9559 178.864 26.6293 178.864 37.3356Z" fill="black"/>
<path d="M196.134 14.6573C198.001 15.1601 199.125 18.9219 201.713 19.9823C203.772 20.826 206.257 19.3929 207.119 17.3502C207.982 15.3074 207.539 12.9281 206.607 10.9157C205.201 7.88191 202.699 5.36677 199.663 3.93656C198.277 3.28358 196.627 2.85885 195.227 3.48438C193.751 4.14459 192.99 5.75393 192.394 7.24915C191.923 8.42943 191.471 9.64294 191.406 10.9113C191.339 12.1798 191.712 13.5291 192.664 14.3756C193.615 15.2222 195.294 14.4291 196.134 14.6559" fill="#B2E1F1"/>
<path d="M47.1498 72.8641C45.3621 74.1137 41.6734 73.9779 38.4306 72.2689C35.1878 70.5598 33.0413 66.9699 33.0791 63.3192C33.098 61.5611 33.827 59.5545 35.5131 59.0272C36.7184 58.6516 38.0036 59.1543 39.164 59.6498C40.85 60.3693 42.5346 61.0887 44.2207 61.8081C45.9604 62.5507 47.7336 63.3135 49.1423 64.5718C50.551 65.8286 51.5574 67.6893 51.2974 69.5544C51.0375 71.4194 48.2361 72.1027 47.1484 72.8641" fill="#DEDAF4"/>
<path d="M107.041 18.8887C103.547 16.8633 99.5099 15.6585 95.4771 15.3493C94.2136 15.2525 92.9139 15.2395 91.7347 14.7772C90.5554 14.315 89.4982 13.2676 89.4779 12.0064C89.4488 10.2743 91.2569 9.10987 92.9124 8.57535C99.5462 6.43437 107.448 9.13443 111.357 14.8798C111.995 15.8159 112.545 16.8633 112.605 17.993C112.664 19.1228 112.123 20.3449 111.083 20.8014C109.602 21.4515 108.299 19.9029 107.041 18.8887Z" fill="#F6BEC7"/>
</svg>
