<svg width="1821" height="991" viewBox="0 0 1821 991" fill="none" xmlns="http://www.w3.org/2000/svg">
<g id="Group 1578">
<g id="body shape">
<g id="14">
<mask id="path-1-inside-1_199_97" fill="white">
<path d="M1291.5 57.4017C1295.65 59.7956 1299.1 63.5972 1301.25 67.8807C1304.93 75.2619 1305.35 83.8119 1304.8 92.0212C1304.25 100.172 1302.82 108.265 1300.53 116.115C1299.39 120.018 1297.72 124.235 1294.04 126.063C1289.39 128.37 1283.94 125.85 1278.9 124.555C1272.21 122.839 1264.96 123.453 1258.63 126.176C1256.97 126.895 1255.03 126.031 1254.5 124.313C1253.75 121.849 1253.6 119.145 1253.48 116.547C1252.68 99.3121 1251.88 82.0767 1251.09 64.8413C1250.96 62.0408 1250.84 59.1651 1251.75 56.5077C1252.66 53.8522 1254.84 51.4263 1257.66 51.0537C1261.74 50.5135 1265.08 54.2004 1269.04 55.3352C1273.1 56.5002 1277.4 54.8742 1281.63 54.765C1285.13 54.6747 1288.5 55.6684 1291.5 57.3979V57.4017Z"/>
</mask>
<path d="M1291.5 57.4017C1295.65 59.7956 1299.1 63.5972 1301.25 67.8807C1304.93 75.2619 1305.35 83.8119 1304.8 92.0212C1304.25 100.172 1302.82 108.265 1300.53 116.115C1299.39 120.018 1297.72 124.235 1294.04 126.063C1289.39 128.37 1283.94 125.85 1278.9 124.555C1272.21 122.839 1264.96 123.453 1258.63 126.176C1256.97 126.895 1255.03 126.031 1254.5 124.313C1253.75 121.849 1253.6 119.145 1253.48 116.547C1252.68 99.3121 1251.88 82.0767 1251.09 64.8413C1250.96 62.0408 1250.84 59.1651 1251.75 56.5077C1252.66 53.8522 1254.84 51.4263 1257.66 51.0537C1261.74 50.5135 1265.08 54.2004 1269.04 55.3352C1273.1 56.5002 1277.4 54.8742 1281.63 54.765C1285.13 54.6747 1288.5 55.6684 1291.5 57.3979V57.4017Z" fill="#85D4BE" stroke="black" stroke-width="2" mask="url(#path-1-inside-1_199_97)"/>
</g>
<g id="13">
<mask id="path-2-inside-2_199_97" fill="white">
<path d="M1684.85 246.901C1684.88 246.897 1684.91 246.893 1684.95 246.886C1691.81 245.921 1696.25 239.33 1699.71 233.321C1703.62 226.523 1707.53 219.356 1707.96 211.524C1708.31 205.094 1706.25 198.717 1703.14 193.075C1700.04 187.434 1695.91 182.428 1691.82 177.458C1690.13 175.41 1688.24 173.261 1686.06 171.806C1684.07 170.478 1681.39 170.822 1679.8 172.612C1672.71 180.588 1666.68 189.51 1661.93 199.071C1660 202.97 1658.25 207.082 1658.03 211.428C1657.67 218.249 1661.07 224.635 1664.38 230.612C1666.63 234.697 1668.94 238.849 1672.31 242.08C1675.65 245.286 1680.26 247.504 1684.85 246.901H1684.85Z"/>
</mask>
<path d="M1684.85 246.901C1684.88 246.897 1684.91 246.893 1684.95 246.886C1691.81 245.921 1696.25 239.33 1699.71 233.321C1703.62 226.523 1707.53 219.356 1707.96 211.524C1708.31 205.094 1706.25 198.717 1703.14 193.075C1700.04 187.434 1695.91 182.428 1691.82 177.458C1690.13 175.41 1688.24 173.261 1686.06 171.806C1684.07 170.478 1681.39 170.822 1679.8 172.612C1672.71 180.588 1666.68 189.51 1661.93 199.071C1660 202.97 1658.25 207.082 1658.03 211.428C1657.67 218.249 1661.07 224.635 1664.38 230.612C1666.63 234.697 1668.94 238.849 1672.31 242.08C1675.65 245.286 1680.26 247.504 1684.85 246.901H1684.85Z" fill="#FBF6A4" stroke="black" stroke-width="2" mask="url(#path-2-inside-2_199_97)"/>
</g>
<g id="12">
<mask id="path-3-inside-3_199_97" fill="white">
<path d="M1727.99 789.667C1728.13 789.655 1728.26 789.643 1728.39 789.63C1733.57 789.147 1739.8 787.884 1741.54 782.929C1742.26 780.881 1741.99 778.627 1741.68 776.473C1738.97 757.679 1733.73 739.256 1726.16 721.873C1725.34 720.001 1724.44 718.06 1722.37 717.214C1721.48 716.848 1720.46 716.961 1719.64 717.476C1718.95 717.91 1718.45 718.605 1718.26 719.405C1714.08 737.278 1710.79 755.361 1708.39 773.567C1707.97 776.81 1707.6 780.251 1708.93 783.232C1710.44 786.592 1713.91 788.715 1717.47 789.511C1720.91 790.278 1724.48 789.992 1727.99 789.667H1727.99Z"/>
</mask>
<path d="M1727.99 789.667C1728.13 789.655 1728.26 789.643 1728.39 789.63C1733.57 789.147 1739.8 787.884 1741.54 782.929C1742.26 780.881 1741.99 778.627 1741.68 776.473C1738.97 757.679 1733.73 739.256 1726.16 721.873C1725.34 720.001 1724.44 718.06 1722.37 717.214C1721.48 716.848 1720.46 716.961 1719.64 717.476C1718.95 717.91 1718.45 718.605 1718.26 719.405C1714.08 737.278 1710.79 755.361 1708.39 773.567C1707.97 776.81 1707.6 780.251 1708.93 783.232C1710.44 786.592 1713.91 788.715 1717.47 789.511C1720.91 790.278 1724.48 789.992 1727.99 789.667H1727.99Z" fill="#FFADAD" stroke="black" stroke-width="2" mask="url(#path-3-inside-3_199_97)"/>
</g>
<g id="11">
<g id="11_2">
<mask id="path-4-inside-4_199_97" fill="white">
<path d="M1455.91 450.614C1453.24 451.987 1450.48 453.001 1447.52 452.726C1443.79 452.38 1440.62 450.021 1437.15 448.616C1433.68 447.211 1428.98 447.117 1426.93 450.215C1425.34 452.62 1426.1 455.793 1426.91 458.551C1430.83 471.921 1434.74 485.291 1438.66 498.661C1439.88 502.822 1441.13 507.048 1443.49 510.698C1445.77 514.223 1449.27 517.199 1453.41 517.954C1453.8 518.025 1454.2 518.015 1454.58 517.919C1461.64 516.144 1467.86 511.366 1472 505.378C1476.82 498.411 1479.07 489.953 1479.75 481.536C1480.42 473.12 1479.62 464.663 1478.82 456.258C1478.5 452.905 1478.02 449.225 1475.51 446.95C1471.8 443.586 1465.81 445.105 1461.41 447.523C1459.6 448.518 1457.78 449.651 1455.91 450.61L1455.91 450.614Z"/>
</mask>
<path d="M1455.91 450.614C1453.24 451.987 1450.48 453.001 1447.52 452.726C1443.79 452.38 1440.62 450.021 1437.15 448.616C1433.68 447.211 1428.98 447.117 1426.93 450.215C1425.34 452.62 1426.1 455.793 1426.91 458.551C1430.83 471.921 1434.74 485.291 1438.66 498.661C1439.88 502.822 1441.13 507.048 1443.49 510.698C1445.77 514.223 1449.27 517.199 1453.41 517.954C1453.8 518.025 1454.2 518.015 1454.58 517.919C1461.64 516.144 1467.86 511.366 1472 505.378C1476.82 498.411 1479.07 489.953 1479.75 481.536C1480.42 473.12 1479.62 464.663 1478.82 456.258C1478.5 452.905 1478.02 449.225 1475.51 446.95C1471.8 443.586 1465.81 445.105 1461.41 447.523C1459.6 448.518 1457.78 449.651 1455.91 450.61L1455.91 450.614Z" fill="#B2E1F1" stroke="black" stroke-width="2" mask="url(#path-4-inside-4_199_97)"/>
</g>
</g>
<g id="10">
<mask id="path-5-inside-5_199_97" fill="white">
<path d="M1441.82 901.534C1441.25 912.269 1443.41 923.159 1448.27 932.762C1449.91 936.005 1451.91 939.558 1450.91 943.051C1450.16 945.659 1447.83 947.582 1445.28 948.539C1442.74 949.5 1439.96 949.646 1437.24 949.784C1429.82 950.16 1422.4 950.534 1414.98 950.91C1410.89 951.118 1406.37 951.186 1403.24 948.548C1400.23 946.007 1399.47 941.548 1400.34 937.715C1401.21 933.881 1403.43 930.511 1405.61 927.235C1410.9 919.297 1414.09 912.341 1419.06 904.551C1419.83 903.342 1419.83 901.796 1419.06 900.591C1413.48 891.923 1408.34 882.974 1403.67 873.789C1402.12 870.737 1400.59 867.563 1400.34 864.152C1400.1 860.741 1401.42 856.999 1404.4 855.304C1406.47 854.13 1408.97 854.093 1411.35 854.084C1419.72 854.055 1428.1 854.029 1436.48 854.001C1440.96 853.985 1445.94 854.167 1449.12 857.309C1451.97 860.122 1452.48 864.611 1451.62 868.51C1450.76 872.409 1448.74 875.939 1447.1 879.58C1443.98 886.486 1442.22 893.972 1441.82 901.531L1441.82 901.534Z"/>
</mask>
<path d="M1441.82 901.534C1441.25 912.269 1443.41 923.159 1448.27 932.762C1449.91 936.005 1451.91 939.558 1450.91 943.051C1450.16 945.659 1447.83 947.582 1445.28 948.539C1442.74 949.5 1439.96 949.646 1437.24 949.784C1429.82 950.16 1422.4 950.534 1414.98 950.91C1410.89 951.118 1406.37 951.186 1403.24 948.548C1400.23 946.007 1399.47 941.548 1400.34 937.715C1401.21 933.881 1403.43 930.511 1405.61 927.235C1410.9 919.297 1414.09 912.341 1419.06 904.551C1419.83 903.342 1419.83 901.796 1419.06 900.591C1413.48 891.923 1408.34 882.974 1403.67 873.789C1402.12 870.737 1400.59 867.563 1400.34 864.152C1400.1 860.741 1401.42 856.999 1404.4 855.304C1406.47 854.13 1408.97 854.093 1411.35 854.084C1419.72 854.055 1428.1 854.029 1436.48 854.001C1440.96 853.985 1445.94 854.167 1449.12 857.309C1451.97 860.122 1452.48 864.611 1451.62 868.51C1450.76 872.409 1448.74 875.939 1447.1 879.58C1443.98 886.486 1442.22 893.972 1441.82 901.531L1441.82 901.534Z" fill="#96DFD8" stroke="black" stroke-width="2" mask="url(#path-5-inside-5_199_97)"/>
</g>
<g id="9">
<mask id="path-6-inside-6_199_97" fill="white">
<path d="M1148.04 298.002C1146.97 298.43 1141.27 297.374 1135.32 299.474C1129.54 301.762 1123.5 307.208 1125.6 324.935C1127.5 337.22 1118.15 342.919 1118.01 351.1C1117.89 354.929 1118.62 365.269 1123.12 373.005C1125.3 376.842 1128.24 379.893 1131.9 381.443C1135.58 383.066 1139.99 383.192 1145.4 382.837C1155.2 381.823 1163.87 384.497 1171.21 380.87C1178.32 377.677 1184.1 368.183 1182.82 352.849C1182.41 348.062 1180.76 343.508 1178.21 339.689C1176.21 336.623 1173.95 331.929 1174.58 324.834C1175.14 318.769 1175.9 309.744 1172.43 303.923C1170.74 301.058 1168.1 299.165 1164.17 298.502C1160.24 297.747 1155.03 298.22 1148.04 298L1148.04 298.002Z"/>
</mask>
<path d="M1148.04 298.002C1146.97 298.43 1141.27 297.374 1135.32 299.474C1129.54 301.762 1123.5 307.208 1125.6 324.935C1127.5 337.22 1118.15 342.919 1118.01 351.1C1117.89 354.929 1118.62 365.269 1123.12 373.005C1125.3 376.842 1128.24 379.893 1131.9 381.443C1135.58 383.066 1139.99 383.192 1145.4 382.837C1155.2 381.823 1163.87 384.497 1171.21 380.87C1178.32 377.677 1184.1 368.183 1182.82 352.849C1182.41 348.062 1180.76 343.508 1178.21 339.689C1176.21 336.623 1173.95 331.929 1174.58 324.834C1175.14 318.769 1175.9 309.744 1172.43 303.923C1170.74 301.058 1168.1 299.165 1164.17 298.502C1160.24 297.747 1155.03 298.22 1148.04 298L1148.04 298.002Z" fill="#FED7D8" stroke="black" stroke-width="2" mask="url(#path-6-inside-6_199_97)"/>
</g>
<g id="8">
<mask id="path-7-inside-7_199_97" fill="white">
<path d="M1059.62 707.039C1054.54 706.769 1049.56 707.875 1045.83 711.341C1041.66 715.207 1039.93 721.329 1040 727.158C1040.07 732.986 1041.73 738.651 1043.37 744.222C1048.19 760.567 1053.01 776.91 1057.82 793.256C1058.07 794.099 1058.33 794.95 1058.63 795.78C1060.15 799.997 1064.66 802.091 1068.67 800.43C1069.41 800.12 1069.88 799.34 1069.81 798.506C1068.51 781.851 1072.12 764.801 1080.05 750.292C1083.71 743.582 1088.45 736.747 1087.97 729.033C1087.33 718.93 1077.92 711.883 1068.69 708.829C1065.8 707.873 1062.69 707.204 1059.62 707.041L1059.62 707.039Z"/>
</mask>
<path d="M1059.62 707.039C1054.54 706.769 1049.56 707.875 1045.83 711.341C1041.66 715.207 1039.93 721.329 1040 727.158C1040.07 732.986 1041.73 738.651 1043.37 744.222C1048.19 760.567 1053.01 776.91 1057.82 793.256C1058.07 794.099 1058.33 794.95 1058.63 795.78C1060.15 799.997 1064.66 802.091 1068.67 800.43C1069.41 800.12 1069.88 799.34 1069.81 798.506C1068.51 781.851 1072.12 764.801 1080.05 750.292C1083.71 743.582 1088.45 736.747 1087.97 729.033C1087.33 718.93 1077.92 711.883 1068.69 708.829C1065.8 707.873 1062.69 707.204 1059.62 707.041L1059.62 707.039Z" fill="#CDDAFD" stroke="black" stroke-width="2" mask="url(#path-7-inside-7_199_97)"/>
</g>
<g id="7">
<mask id="path-8-inside-8_199_97" fill="white">
<path d="M107.932 887.874C106.525 879.731 105.117 871.586 103.709 863.443C102.865 858.55 101.982 853.552 99.5494 849.216C97.1169 844.88 92.7978 841.255 87.8032 841.013C82.1372 840.737 76.9104 845.042 75.0091 850.345C73.1079 855.649 74.0721 861.631 76.4105 866.76C78.0649 870.388 80.3552 873.672 82.8169 876.831C85.1344 879.804 86.3036 883.501 86.0839 887.254C85.6405 894.849 85.1992 902.442 84.7558 910.037C84.5006 914.406 84.2915 919.01 86.268 922.923C88.5813 927.506 93.8834 930.368 99.0328 929.962C104.182 929.555 108.903 925.987 110.817 921.227C112.774 916.357 111.91 910.875 111.017 905.707C109.99 899.762 108.961 893.819 107.934 887.874H107.932Z"/>
</mask>
<path d="M107.932 887.874C106.525 879.731 105.117 871.586 103.709 863.443C102.865 858.55 101.982 853.552 99.5494 849.216C97.1169 844.88 92.7978 841.255 87.8032 841.013C82.1372 840.737 76.9104 845.042 75.0091 850.345C73.1079 855.649 74.0721 861.631 76.4105 866.76C78.0649 870.388 80.3552 873.672 82.8169 876.831C85.1344 879.804 86.3036 883.501 86.0839 887.254C85.6405 894.849 85.1992 902.442 84.7558 910.037C84.5006 914.406 84.2915 919.01 86.268 922.923C88.5813 927.506 93.8834 930.368 99.0328 929.962C104.182 929.555 108.903 925.987 110.817 921.227C112.774 916.357 111.91 910.875 111.017 905.707C109.99 899.762 108.961 893.819 107.934 887.874H107.932Z" fill="#FED7D8" stroke="black" stroke-width="2" mask="url(#path-8-inside-8_199_97)"/>
</g>
<g id="6">
<mask id="path-9-inside-9_199_97" fill="white">
<path d="M641.695 886.479C640.462 886.721 635.967 887.133 629.953 889.382C624.089 892.007 616.708 896.467 613.107 913.521C609.794 930.957 614.453 944.517 619.99 951.181C625.773 958.271 632.433 958.464 638.791 959C645.125 958.55 652.458 958.794 658.998 953.017C665.316 947.653 670.845 936.267 668.415 922.109C666.194 908.824 662.79 898.236 658.547 892.407C654.232 886.402 649.075 885.156 641.697 886.479H641.695Z"/>
</mask>
<path d="M641.695 886.479C640.462 886.721 635.967 887.133 629.953 889.382C624.089 892.007 616.708 896.467 613.107 913.521C609.794 930.957 614.453 944.517 619.99 951.181C625.773 958.271 632.433 958.464 638.791 959C645.125 958.55 652.458 958.794 658.998 953.017C665.316 947.653 670.845 936.267 668.415 922.109C666.194 908.824 662.79 898.236 658.547 892.407C654.232 886.402 649.075 885.156 641.697 886.479H641.695Z" fill="#DAF1DD" stroke="black" stroke-width="2" mask="url(#path-9-inside-9_199_97)"/>
</g>
<g id="5">
<mask id="path-10-inside-10_199_97" fill="white">
<path d="M593.312 694.595C592.307 694.573 591.331 694.426 590.405 694.137C585.196 692.511 582.27 686.604 581.929 680.076C581.588 673.547 583.476 666.474 585.925 659.729C589.08 651.043 593.368 642.341 599.597 635.647C603.726 631.21 608.831 627.796 613.819 626.45C614.502 626.267 615.155 625.992 615.781 625.663C619.463 623.731 623.027 625.952 625.126 628.917C629.726 635.415 630.504 645.421 628.104 655.092C625.704 664.763 620.364 674.059 613.848 681.788C610.54 685.713 606.852 689.332 602.765 691.751C599.69 693.57 596.361 694.662 593.31 694.596L593.312 694.595Z"/>
</mask>
<path d="M593.312 694.595C592.307 694.573 591.331 694.426 590.405 694.137C585.196 692.511 582.27 686.604 581.929 680.076C581.588 673.547 583.476 666.474 585.925 659.729C589.08 651.043 593.368 642.341 599.597 635.647C603.726 631.21 608.831 627.796 613.819 626.45C614.502 626.267 615.155 625.992 615.781 625.663C619.463 623.731 623.027 625.952 625.126 628.917C629.726 635.415 630.504 645.421 628.104 655.092C625.704 664.763 620.364 674.059 613.848 681.788C610.54 685.713 606.852 689.332 602.765 691.751C599.69 693.57 596.361 694.662 593.31 694.596L593.312 694.595Z" fill="#F3EFA3" stroke="black" stroke-width="2" mask="url(#path-10-inside-10_199_97)"/>
</g>
<g id="4">
<mask id="path-11-inside-11_199_97" fill="white">
<path d="M285.925 584.582C285.871 583.413 285.826 582.245 285.783 581.077C285.576 575.589 285.369 570.099 285.162 564.611C284.97 559.482 284.779 554.306 285.661 549.252C286.543 544.198 288.594 539.204 292.282 535.67C295.626 532.466 300.306 530.632 304.897 531.062C309.488 531.493 313.869 534.298 315.92 538.464C318.215 543.123 317.481 548.631 317.079 553.818C316.676 559.004 315.729 565.195 319.291 568.958L319.853 569.55C326.42 575.643 330.903 584.257 330.999 593.25C331.096 602.447 326.146 611.805 317.967 615.866C312.135 618.761 304.891 618.764 299.227 615.546C293.641 612.374 289.986 606.471 288.134 600.278C286.617 595.203 286.17 589.891 285.924 584.58L285.925 584.582Z"/>
</mask>
<path d="M285.925 584.582C285.871 583.413 285.826 582.245 285.783 581.077C285.576 575.589 285.369 570.099 285.162 564.611C284.97 559.482 284.779 554.306 285.661 549.252C286.543 544.198 288.594 539.204 292.282 535.67C295.626 532.466 300.306 530.632 304.897 531.062C309.488 531.493 313.869 534.298 315.92 538.464C318.215 543.123 317.481 548.631 317.079 553.818C316.676 559.004 315.729 565.195 319.291 568.958L319.853 569.55C326.42 575.643 330.903 584.257 330.999 593.25C331.096 602.447 326.146 611.805 317.967 615.866C312.135 618.761 304.891 618.764 299.227 615.546C293.641 612.374 289.986 606.471 288.134 600.278C286.617 595.203 286.17 589.891 285.924 584.58L285.925 584.582Z" fill="#FADBBC" stroke="black" stroke-width="2" mask="url(#path-11-inside-11_199_97)"/>
</g>
<g id="3">
<g id="3_2">
<mask id="path-12-inside-12_199_97" fill="white">
<path d="M751.086 398.316C752.282 398.73 753.45 399.215 754.587 399.769C758.397 401.629 762.801 404.298 766.528 402.278C768.585 401.162 769.718 398.823 769.946 396.518C770.175 394.214 769.636 391.911 769.076 389.662C764.013 369.38 756.82 349.615 747.647 330.786C746.959 329.372 745.804 327.791 744.478 327.182C743.503 326.733 742.337 327.146 741.825 328.081C732.573 344.965 725.298 363.025 721.653 381.875C721.139 384.53 720.742 387.263 721.204 389.927C721.665 392.591 723.11 395.21 725.514 396.512C728.823 398.304 732.879 397.233 736.626 396.772C741.481 396.175 746.473 396.719 751.088 398.316H751.086Z"/>
</mask>
<path d="M751.086 398.316C752.282 398.73 753.45 399.215 754.587 399.769C758.397 401.629 762.801 404.298 766.528 402.278C768.585 401.162 769.718 398.823 769.946 396.518C770.175 394.214 769.636 391.911 769.076 389.662C764.013 369.38 756.82 349.615 747.647 330.786C746.959 329.372 745.804 327.791 744.478 327.182C743.503 326.733 742.337 327.146 741.825 328.081C732.573 344.965 725.298 363.025 721.653 381.875C721.139 384.53 720.742 387.263 721.204 389.927C721.665 392.591 723.11 395.21 725.514 396.512C728.823 398.304 732.879 397.233 736.626 396.772C741.481 396.175 746.473 396.719 751.088 398.316H751.086Z" fill="#97C7EB" stroke="black" stroke-width="2" mask="url(#path-12-inside-12_199_97)"/>
</g>
</g>
<g id="2">
<mask id="path-13-inside-13_199_97" fill="white">
<path d="M467.892 116.832C465.579 118.435 463.61 120.526 462.438 123.097C460.587 127.16 460.918 131.864 461.289 136.331C462.611 152.305 463.933 168.279 465.256 184.253C465.419 186.211 465.75 188.462 467.394 189.478C468.714 190.295 470.397 189.99 471.907 189.657C477.632 188.397 483.106 187.292 488.724 186.099C491.708 185.465 494.148 183.276 495.149 180.333C501.582 161.432 502.76 140.68 498.438 121.155C497.753 118.058 496.792 114.766 494.337 112.818C491.063 110.222 486.414 110.927 482.352 111.762C478.478 112.558 474.564 113.367 470.975 115.057C469.909 115.56 468.869 116.15 467.89 116.828L467.892 116.832Z"/>
</mask>
<path d="M467.892 116.832C465.579 118.435 463.61 120.526 462.438 123.097C460.587 127.16 460.918 131.864 461.289 136.331C462.611 152.305 463.933 168.279 465.256 184.253C465.419 186.211 465.75 188.462 467.394 189.478C468.714 190.295 470.397 189.99 471.907 189.657C477.632 188.397 483.106 187.292 488.724 186.099C491.708 185.465 494.148 183.276 495.149 180.333C501.582 161.432 502.76 140.68 498.438 121.155C497.753 118.058 496.792 114.766 494.337 112.818C491.063 110.222 486.414 110.927 482.352 111.762C478.478 112.558 474.564 113.367 470.975 115.057C469.909 115.56 468.869 116.15 467.89 116.828L467.892 116.832Z" fill="#DEDAF4" stroke="black" stroke-width="2" mask="url(#path-13-inside-13_199_97)"/>
</g>
<g id="1">
<mask id="path-14-inside-14_199_97" fill="white">
<path d="M91.9931 345.435C90.6322 343.78 89.0283 342.31 86.9561 342.043C83.4899 341.598 80.6908 344.673 78.57 347.447C73.7473 353.753 68.7369 360.534 68.0763 368.439C67.6964 372.974 68.801 377.486 69.9276 381.895C73.3674 395.356 76.1068 407.653 80.0568 420.879C80.5671 422.584 82.4869 423.496 84.0908 422.721C84.1549 422.69 84.2167 422.657 84.2786 422.624C85.4517 421.969 86.2646 420.835 87.0379 419.738C93.0756 411.175 99.1133 402.614 105.149 394.05C108.624 389.123 112.251 383.702 111.986 377.68C111.748 372.259 108.388 367.539 105.16 363.175C101.146 357.747 97.1317 352.319 93.1176 346.891C92.7597 346.406 92.3863 345.914 91.9931 345.435Z"/>
</mask>
<path d="M91.9931 345.435C90.6322 343.78 89.0283 342.31 86.9561 342.043C83.4899 341.598 80.6908 344.673 78.57 347.447C73.7473 353.753 68.7369 360.534 68.0763 368.439C67.6964 372.974 68.801 377.486 69.9276 381.895C73.3674 395.356 76.1068 407.653 80.0568 420.879C80.5671 422.584 82.4869 423.496 84.0908 422.721C84.1549 422.69 84.2167 422.657 84.2786 422.624C85.4517 421.969 86.2646 420.835 87.0379 419.738C93.0756 411.175 99.1133 402.614 105.149 394.05C108.624 389.123 112.251 383.702 111.986 377.68C111.748 372.259 108.388 367.539 105.16 363.175C101.146 357.747 97.1317 352.319 93.1176 346.891C92.7597 346.406 92.3863 345.914 91.9931 345.435Z" fill="#AEE6CB" stroke="black" stroke-width="2" mask="url(#path-14-inside-14_199_97)"/>
</g>
</g>
</g>
</svg>
