<svg width="320" height="320" viewBox="0 0 320 320" fill="none" xmlns="http://www.w3.org/2000/svg">
<mask id="path-1-inside-1_29_94" fill="white">
<path fill-rule="evenodd" clip-rule="evenodd" d="M160 320C248.366 320 320 248.366 320 160C320 71.6344 248.366 0 160 0C117.721 0 79.2724 16.3984 50.6671 43.1818L26.4303 31.5448C24.6901 30.7092 22.8931 32.5801 23.798 34.2852L36.5156 58.2501C13.703 85.9039 0 121.352 0 160C0 248.366 71.6344 320 160 320Z"/>
</mask>
<path fill-rule="evenodd" clip-rule="evenodd" d="M160 320C248.366 320 320 248.366 320 160C320 71.6344 248.366 0 160 0C117.721 0 79.2724 16.3984 50.6671 43.1818L26.4303 31.5448C24.6901 30.7092 22.8931 32.5801 23.798 34.2852L36.5156 58.2501C13.703 85.9039 0 121.352 0 160C0 248.366 71.6344 320 160 320Z" fill="white"/>
<path d="M50.6671 43.1818L50.2343 44.0833L50.8511 44.3794L51.3506 43.9118L50.6671 43.1818ZM26.4303 31.5448L26.8631 30.6433L26.4303 31.5448ZM23.798 34.2852L24.6813 33.8165L23.798 34.2852ZM36.5156 58.2501L37.287 58.8864L37.712 58.3713L37.399 57.7813L36.5156 58.2501ZM319 160C319 247.813 247.813 319 160 319V321C248.918 321 321 248.918 321 160H319ZM160 1C247.813 1 319 72.1867 319 160H321C321 71.0822 248.918 -1 160 -1V1ZM51.3506 43.9118C79.778 17.295 117.985 1 160 1V-1C117.457 -1 78.7669 15.5018 49.9836 42.4518L51.3506 43.9118ZM25.9975 32.4462L50.2343 44.0833L51.0999 42.2803L26.8631 30.6433L25.9975 32.4462ZM24.6813 33.8165C24.2289 32.9639 25.1274 32.0285 25.9975 32.4462L26.8631 30.6433C24.2528 29.39 21.5573 32.1963 22.9146 34.754L24.6813 33.8165ZM37.399 57.7813L24.6813 33.8165L22.9146 34.754L35.6323 58.7188L37.399 57.7813ZM1 160C1 121.592 14.6168 86.3677 37.287 58.8864L35.7442 57.6137C12.7893 85.4401 -1 121.111 -1 160H1ZM160 319C72.1867 319 1 247.813 1 160H-1C-1 248.918 71.0822 321 160 321V319Z" fill="black" mask="url(#path-1-inside-1_29_94)"/>
<path d="M59.92 80.7H76.48V82.42H59.92V80.7ZM67.12 76.28H69.2V81.14H67.12V76.28ZM61.76 67.82H74.54V76.6H61.76V67.82ZM72.5 69.5H63.82V74.92H72.5V69.5ZM78.3184 75.52H94.8384V77.2H78.3184V75.52ZM80.3584 72.06H92.9784V73.76H80.3584V72.06ZM80.3584 67.12H92.8184V68.78H82.4584V72.64H80.3584V67.12ZM80.3584 82.58H93.1184V84.28H80.3584V82.58ZM80.3584 78.88H82.4384V83.02H80.3584V78.88ZM103.169 78.32H115.709V84.44H103.169V78.32ZM113.669 80H105.229V82.76H113.669V80ZM103.269 67.04H115.609V73.28H103.269V67.04ZM113.549 68.68H105.329V71.62H113.549V68.68ZM101.189 75.1H117.709V76.78H101.189V75.1ZM108.409 72.9H110.489V75.76H108.409V72.9ZM119.588 75.86H136.108V77.54H119.588V75.86ZM121.668 82.6H134.268V84.3H121.668V82.6ZM121.668 78.98H123.768V83.12H121.668V78.98ZM127.848 66.96C131.788 66.96 134.368 68.36 134.368 70.66C134.368 72.96 131.788 74.36 127.848 74.36C123.908 74.36 121.348 72.96 121.348 70.66C121.348 68.36 123.908 66.96 127.848 66.96ZM127.848 68.64C125.168 68.64 123.508 69.38 123.508 70.66C123.508 71.96 125.168 72.68 127.848 72.68C130.548 72.68 132.208 71.96 132.208 70.66C132.208 69.38 130.548 68.64 127.848 68.64ZM147.358 67.72C150.078 67.72 152.038 70.22 152.038 74.16C152.038 78.1 150.078 80.62 147.358 80.62C144.638 80.62 142.678 78.1 142.678 74.16C142.678 70.22 144.638 67.72 147.358 67.72ZM147.358 69.62C145.778 69.62 144.678 71.32 144.678 74.16C144.678 77.02 145.778 78.74 147.358 78.74C148.938 78.74 150.038 77.02 150.038 74.16C150.038 71.32 148.938 69.62 147.358 69.62ZM154.558 66.38H156.658V84.66H154.558V66.38ZM156.178 73.5H159.498V75.24H156.178V73.5ZM160.877 75.72H177.437V77.4H160.877V75.72ZM162.957 66.78H175.357V71.36H165.057V73.58H162.977V69.84H173.297V68.4H162.957V66.78ZM162.977 72.8H175.737V74.42H162.977V72.8ZM163.037 78.8H175.417V84.44H163.037V78.8ZM173.357 80.46H165.097V82.76H173.357V80.46ZM191.455 66.38H193.555V76.14H191.455V66.38ZM192.975 70.5H196.135V72.22H192.975V70.5ZM180.055 73.92H181.515C185.375 73.92 187.415 73.8 189.755 73.32L189.975 75C187.575 75.52 185.455 75.62 181.515 75.62H180.055V73.92ZM180.055 67.54H188.135V69.22H182.135V75.06H180.055V67.54ZM181.855 77.08H183.935V79.08H191.475V77.08H193.555V84.4H181.855V77.08ZM183.935 80.72V82.7H191.475V80.72H183.935ZM199.693 77.34H201.773V79.2H209.993V77.34H212.073V84.44H199.693V77.34ZM201.773 80.78V82.78H209.993V80.78H201.773ZM197.673 74.56H214.193V76.22H197.673V74.56ZM204.873 66.58H206.673V67.28C206.673 70.46 203.493 72.9 199.313 73.48L198.553 71.84C202.213 71.38 204.873 69.38 204.873 67.28V66.58ZM205.213 66.58H207.013V67.28C207.013 69.36 209.693 71.38 213.313 71.84L212.553 73.48C208.393 72.9 205.213 70.42 205.213 67.28V66.58ZM229.092 66.38H231.172V84.66H229.092V66.38ZM217.152 68.14H219.232V79.48H217.152V68.14ZM217.152 78.24H218.712C221.432 78.24 224.352 78.04 227.412 77.42L227.652 79.18C224.492 79.84 221.552 80.04 218.712 80.04H217.152V78.24ZM246.55 66.36H248.65V84.68H246.55V66.36ZM248.17 73.38H251.49V75.12H248.17V73.38ZM235.23 78.46H236.71C239.95 78.46 242.35 78.34 245.05 77.84L245.27 79.6C242.47 80.1 240.03 80.2 236.71 80.2H235.23V78.46ZM235.23 68.1H243.73V69.8H237.31V79.26H235.23V68.1ZM254.949 83.28C254.069 83.28 253.409 82.6 253.409 81.66C253.409 80.7 254.069 80.04 254.949 80.04C255.809 80.04 256.489 80.7 256.489 81.66C256.489 82.6 255.809 83.28 254.949 83.28Z" fill="black"/>
<path d="M82.3429 120.456H97.1029V121.68H82.3429V120.456ZM88.9309 121.212H90.4069V127.404H88.9309V121.212ZM89.6869 111.78C93.0889 111.78 95.3749 113.166 95.3749 115.344C95.3749 117.522 93.0889 118.908 89.6869 118.908C86.3029 118.908 83.9989 117.522 83.9989 115.344C83.9989 113.166 86.3029 111.78 89.6869 111.78ZM89.6869 112.986C87.2029 112.986 85.5109 113.904 85.5109 115.344C85.5109 116.784 87.2029 117.702 89.6869 117.702C92.1709 117.702 93.8449 116.784 93.8449 115.344C93.8449 113.904 92.1709 112.986 89.6869 112.986ZM110.764 111.114H112.258V127.422H110.764V111.114ZM99.8555 122.256H101.206C103.924 122.256 106.354 122.148 109.234 121.68L109.396 122.904C106.444 123.39 103.996 123.498 101.206 123.498H99.8555V122.256ZM99.8195 112.644H107.344V118.458H101.35V122.724H99.8555V117.234H105.832V113.868H99.8195V112.644ZM117.458 116.01H128.51V117.234H117.458V116.01ZM115.46 119.412H130.22V120.636H115.46V119.412ZM117.458 111.726H118.934V116.622H117.458V111.726ZM117.35 125.784H128.6V127.008H117.35V125.784ZM117.35 122.256H118.826V126.108H117.35V122.256ZM136.062 124.092H150.804V125.334H136.062V124.092ZM142.65 119.88H144.144V124.434H142.65V119.88ZM137.772 112.482H149.004V120.15H137.772V112.482ZM147.564 113.688H139.23V118.944H147.564V113.688ZM154.637 117.18H165.509V118.404H154.637V117.18ZM152.603 120.51H167.363V121.752H152.603V120.51ZM159.191 121.194H160.667V127.35H159.191V121.194ZM154.637 112.086H165.293V113.31H156.149V117.774H154.637V112.086ZM185.103 111.114H186.579V127.422H185.103V111.114ZM181.593 117.054H185.535V118.278H181.593V117.054ZM177.327 113.454H178.533V115.884C178.533 119.394 176.517 122.868 173.943 124.2L173.061 123.012C175.401 121.86 177.327 118.782 177.327 115.884V113.454ZM177.633 113.454H178.821V115.884C178.821 118.602 180.711 121.572 183.069 122.688L182.187 123.858C179.613 122.58 177.633 119.232 177.633 115.884V113.454ZM173.655 112.788H182.511V114.03H173.655V112.788ZM190.393 112.752H197.863V123.282H190.393V112.752ZM196.405 113.958H191.851V122.076H196.405V113.958ZM200.761 111.132H202.273V127.404H200.761V111.132ZM201.913 117.63H204.937V118.89H201.913V117.63ZM217.32 111.114H218.832V127.422H217.32V111.114ZM218.472 117.54H221.496V118.8H218.472V117.54ZM207.006 122.112H208.284C211.29 122.112 213.396 122.004 215.826 121.554L215.988 122.814C213.486 123.282 211.344 123.372 208.284 123.372H207.006V122.112ZM207.006 112.698H214.566V113.922H208.482V122.67H207.006V112.698ZM228.154 112.302C230.692 112.302 232.51 113.868 232.51 116.136C232.51 118.422 230.692 119.988 228.154 119.988C225.616 119.988 223.78 118.422 223.78 116.136C223.78 113.868 225.616 112.302 228.154 112.302ZM228.154 113.598C226.462 113.598 225.238 114.624 225.238 116.136C225.238 117.648 226.462 118.692 228.154 118.692C229.828 118.692 231.052 117.648 231.052 116.136C231.052 114.624 229.828 113.598 228.154 113.598ZM234.634 111.114H236.128V127.422H234.634V111.114ZM223.168 123.858L222.952 122.616C225.922 122.616 230.026 122.598 233.572 122.04L233.698 123.138C230.044 123.84 226.066 123.858 223.168 123.858ZM110.811 137.132H112.251V153.404H110.811V137.132ZM108.237 143.576H111.351V144.8H108.237V143.576ZM107.211 137.474H108.633V152.594H107.211V137.474ZM99.0033 139.004H105.213V149.048H99.0033V139.004ZM103.809 140.192H100.407V147.86H103.809V140.192ZM115.652 145.196H116.822C120.026 145.196 121.61 145.142 123.554 144.8L123.716 146.006C121.7 146.366 120.08 146.42 116.822 146.42H115.652V145.196ZM115.616 138.104H122.636V142.73H117.128V145.934H115.652V141.56H121.16V139.328H115.616V138.104ZM126.866 137.15H128.36V147.14H126.866V137.15ZM123.716 139.544H127.208V140.768H123.716V139.544ZM123.716 142.91H127.208V144.134H123.716V142.91ZM117.47 148.022H128.36V153.44H126.866V149.246H117.47V148.022ZM138.889 137.402C142.471 137.402 144.613 138.41 144.613 140.228C144.613 142.046 142.471 143.054 138.889 143.054C135.289 143.054 133.165 142.046 133.165 140.228C133.165 138.41 135.289 137.402 138.889 137.402ZM138.889 138.536C136.225 138.536 134.695 139.148 134.695 140.228C134.695 141.308 136.225 141.92 138.889 141.92C141.535 141.92 143.065 141.308 143.065 140.228C143.065 139.148 141.535 138.536 138.889 138.536ZM131.527 144.134H146.233V145.34H131.527V144.134ZM133.309 146.726H144.361V150.398H134.821V152.378H133.345V149.318H142.885V147.878H133.309V146.726ZM133.345 152.054H144.847V153.224H133.345V152.054ZM163.127 137.114H164.639V153.404H163.127V137.114ZM164.225 143.72H167.231V144.962H164.225V143.72ZM158.969 138.878H160.427C160.427 143.504 158.303 147.68 153.047 150.326L152.219 149.174C156.719 146.888 158.969 143.414 158.969 139.112V138.878ZM152.975 138.878H159.743V140.102H152.975V138.878ZM173.007 138.536H174.249V139.778C174.249 142.64 172.377 145.052 169.641 145.988L168.885 144.8C171.333 144.008 173.007 141.992 173.007 139.778V138.536ZM173.295 138.536H174.537V139.778C174.537 141.884 176.247 143.774 178.641 144.53L177.903 145.7C175.203 144.818 173.295 142.532 173.295 139.778V138.536ZM169.299 138.194H178.209V139.4H169.299V138.194ZM180.513 137.132H182.025V145.934H180.513V137.132ZM171.531 146.744H173.007V148.67H180.549V146.744H182.025V153.188H171.531V146.744ZM173.007 149.876V151.964H180.549V149.876H173.007ZM197.072 137.132H198.566V153.404H197.072V137.132ZM186.272 138.716H187.748V148.796H186.272V138.716ZM186.272 147.914H187.604C190.07 147.914 192.644 147.734 195.398 147.158L195.578 148.436C192.752 149.012 190.178 149.21 187.604 149.21H186.272V147.914ZM212.802 137.114H214.314V153.422H212.802V137.114ZM213.954 143.54H216.978V144.8H213.954V143.54ZM202.488 148.112H203.766C206.772 148.112 208.878 148.004 211.308 147.554L211.47 148.814C208.968 149.282 206.826 149.372 203.766 149.372H202.488V148.112ZM202.488 138.698H210.048V139.922H203.964V148.67H202.488V138.698ZM219.947 152.252C219.299 152.252 218.777 151.73 218.777 150.992C218.777 150.236 219.299 149.732 219.947 149.732C220.613 149.732 221.153 150.236 221.153 150.992C221.153 151.73 220.613 152.252 219.947 152.252ZM105.544 185.558H108.622V186.782H105.544V185.558ZM102.232 183.29H103.384V184.136C103.384 187.376 102.034 190.652 99.6575 192.074L98.7755 190.94C100.972 189.662 102.232 186.8 102.232 184.136V183.29ZM102.502 183.29H103.654V184.136C103.654 186.728 104.95 189.41 107.146 190.598L106.3 191.714C103.906 190.382 102.502 187.304 102.502 184.136V183.29ZM99.2255 182.12H106.66V183.362H99.2255V182.12ZM102.232 179.708H103.672V183.074H102.232V179.708ZM111.286 179.132H112.726V195.404H111.286V179.132ZM108.028 179.51H109.432V194.576H108.028V179.51ZM124.622 183.038H127.934V184.262H124.622V183.038ZM124.604 186.206H127.916V187.43H124.604V186.206ZM115.496 180.914H124.604V182.12H115.496V180.914ZM120.104 182.966C122.282 182.966 123.776 184.154 123.776 185.972C123.776 187.79 122.282 188.996 120.104 188.996C117.926 188.996 116.414 187.79 116.414 185.972C116.414 184.154 117.926 182.966 120.104 182.966ZM120.104 184.118C118.736 184.118 117.818 184.838 117.818 185.972C117.818 187.106 118.736 187.844 120.104 187.844C121.454 187.844 122.39 187.106 122.39 185.972C122.39 184.838 121.454 184.118 120.104 184.118ZM119.366 178.988H120.86V181.76H119.366V178.988ZM127.358 179.132H128.852V189.644H127.358V179.132ZM123.524 189.806C126.89 189.806 128.942 190.832 128.942 192.596C128.942 194.36 126.89 195.368 123.524 195.368C120.14 195.368 118.106 194.36 118.106 192.596C118.106 190.832 120.14 189.806 123.524 189.806ZM123.524 190.994C121.13 190.994 119.654 191.552 119.654 192.596C119.654 193.622 121.13 194.216 123.524 194.216C125.918 194.216 127.394 193.622 127.394 192.596C127.394 191.552 125.918 190.994 123.524 190.994ZM136.044 187.718H150.786V188.942H136.044V187.718ZM142.776 188.33H144.27V192.074H142.776V188.33ZM137.916 193.82H149.148V195.044H137.916V193.82ZM137.916 190.634H139.392V194.288H137.916V190.634ZM138.006 179.636H139.482V181.706H147.348V179.636H148.842V186.152H138.006V179.636ZM139.482 182.876V184.946H147.348V182.876H139.482ZM160.973 182.534H164.825V183.776H160.973V182.534ZM156.671 179.96H157.895V181.652C157.895 184.784 156.149 187.358 153.413 188.402L152.639 187.214C155.087 186.314 156.671 184.136 156.671 181.652V179.96ZM156.941 179.96H158.147V181.724C158.147 183.956 159.767 186.044 162.107 186.872L161.315 188.042C158.705 187.052 156.941 184.586 156.941 181.724V179.96ZM155.141 189.644H165.995V195.404H164.501V190.85H155.141V189.644ZM164.501 179.132H165.995V188.744H164.501V179.132ZM176.523 179.402C180.105 179.402 182.247 180.41 182.247 182.228C182.247 184.046 180.105 185.054 176.523 185.054C172.923 185.054 170.799 184.046 170.799 182.228C170.799 180.41 172.923 179.402 176.523 179.402ZM176.523 180.536C173.859 180.536 172.329 181.148 172.329 182.228C172.329 183.308 173.859 183.92 176.523 183.92C179.169 183.92 180.699 183.308 180.699 182.228C180.699 181.148 179.169 180.536 176.523 180.536ZM169.161 186.134H183.867V187.34H169.161V186.134ZM170.943 188.726H181.995V192.398H172.455V194.378H170.979V191.318H180.519V189.878H170.943V188.726ZM170.979 194.054H182.481V195.224H170.979V194.054ZM189.745 187.754H204.451V188.96H189.745V187.754ZM196.351 185.648H197.827V188.258H196.351V185.648ZM191.689 184.982H202.723V186.152H191.689V184.982ZM191.689 179.6H202.651V180.77H193.165V185.612H191.689V179.6ZM192.733 182.264H202.219V183.416H192.733V182.264ZM197.089 190.166C200.635 190.166 202.669 191.066 202.669 192.776C202.669 194.468 200.635 195.368 197.089 195.368C193.543 195.368 191.509 194.468 191.509 192.776C191.509 191.066 193.543 190.166 197.089 190.166ZM197.089 191.3C194.479 191.3 193.021 191.822 193.021 192.776C193.021 193.748 194.479 194.252 197.089 194.252C199.699 194.252 201.157 193.748 201.157 192.776C201.157 191.822 199.699 191.3 197.089 191.3ZM206.286 181.904H214.35V183.128H206.286V181.904ZM210.318 184.208C212.352 184.208 213.828 185.738 213.828 187.934C213.828 190.112 212.352 191.642 210.318 191.642C208.302 191.642 206.826 190.112 206.826 187.934C206.826 185.738 208.302 184.208 210.318 184.208ZM210.318 185.486C209.076 185.486 208.176 186.494 208.176 187.934C208.176 189.374 209.076 190.382 210.318 190.382C211.578 190.382 212.496 189.374 212.496 187.934C212.496 186.494 211.578 185.486 210.318 185.486ZM218.652 179.132H220.092V195.404H218.652V179.132ZM216.06 185.972H219.138V187.214H216.06V185.972ZM215.178 179.492H216.582V194.612H215.178V179.492ZM209.598 179.6H211.074V182.66H209.598V179.6ZM74.4395 205.132H75.9335V214.798H74.4395V205.132ZM75.5015 209.362H78.3275V210.604H75.5015V209.362ZM70.7315 215.14C74.0255 215.14 76.0775 216.31 76.0775 218.272C76.0775 220.234 74.0255 221.386 70.7315 221.386C67.4375 221.386 65.3855 220.234 65.3855 218.272C65.3855 216.31 67.4375 215.14 70.7315 215.14ZM70.7315 216.364C68.3195 216.364 66.8435 217.048 66.8435 218.272C66.8435 219.46 68.3195 220.162 70.7315 220.162C73.1435 220.162 74.6195 219.46 74.6195 218.272C74.6195 217.048 73.1435 216.364 70.7315 216.364ZM64.0175 212.296H65.2775C68.6435 212.296 70.5335 212.188 72.7115 211.738L72.8915 212.962C70.6415 213.412 68.7155 213.52 65.2775 213.52H64.0175V212.296ZM64.0175 206.374H71.1995V207.598H65.4935V213.088H64.0175V206.374ZM91.6821 205.15H93.1941V217.066H91.6821V205.15ZM82.7361 219.82H93.6801V221.044H82.7361V219.82ZM82.7361 215.968H84.2121V220.396H82.7361V215.968ZM84.0861 206.032H85.3281V207.688C85.3281 210.856 83.5281 213.628 80.7921 214.744L80.0181 213.538C82.4661 212.584 84.0861 210.208 84.0861 207.688V206.032ZM84.3561 206.032H85.5801V207.688C85.5801 210.136 87.2181 212.35 89.6481 213.232L88.8561 214.438C86.1561 213.394 84.3561 210.784 84.3561 207.688V206.032ZM101.689 206.302C104.227 206.302 106.045 207.868 106.045 210.136C106.045 212.422 104.227 213.988 101.689 213.988C99.1506 213.988 97.3146 212.422 97.3146 210.136C97.3146 207.868 99.1506 206.302 101.689 206.302ZM101.689 207.598C99.9966 207.598 98.7726 208.624 98.7726 210.136C98.7726 211.648 99.9966 212.692 101.689 212.692C103.363 212.692 104.587 211.648 104.587 210.136C104.587 208.624 103.363 207.598 101.689 207.598ZM108.169 205.114H109.663V221.422H108.169V205.114ZM96.7026 217.858L96.4866 216.616C99.4566 216.616 103.561 216.598 107.107 216.04L107.233 217.138C103.579 217.84 99.6006 217.858 96.7026 217.858ZM129.383 205.132H130.823V221.404H129.383V205.132ZM126.809 211.576H129.923V212.8H126.809V211.576ZM125.783 205.474H127.205V220.594H125.783V205.474ZM117.575 207.004H123.785V217.048H117.575V207.004ZM122.381 208.192H118.979V215.86H122.381V208.192ZM134.223 213.196H135.393C138.597 213.196 140.181 213.142 142.125 212.8L142.287 214.006C140.271 214.366 138.651 214.42 135.393 214.42H134.223V213.196ZM134.187 206.104H141.207V210.73H135.699V213.934H134.223V209.56H139.731V207.328H134.187V206.104ZM145.437 205.15H146.931V215.14H145.437V205.15ZM142.287 207.544H145.779V208.768H142.287V207.544ZM142.287 210.91H145.779V212.134H142.287V210.91ZM136.041 216.022H146.931V221.44H145.437V217.246H136.041V216.022ZM157.46 205.402C161.042 205.402 163.184 206.41 163.184 208.228C163.184 210.046 161.042 211.054 157.46 211.054C153.86 211.054 151.736 210.046 151.736 208.228C151.736 206.41 153.86 205.402 157.46 205.402ZM157.46 206.536C154.796 206.536 153.266 207.148 153.266 208.228C153.266 209.308 154.796 209.92 157.46 209.92C160.106 209.92 161.636 209.308 161.636 208.228C161.636 207.148 160.106 206.536 157.46 206.536ZM150.098 212.134H164.804V213.34H150.098V212.134ZM151.88 214.726H162.932V218.398H153.392V220.378H151.916V217.318H161.456V215.878H151.88V214.726ZM151.916 220.054H163.418V221.224H151.916V220.054ZM181.824 205.132H183.318V213.412H181.824V205.132ZM182.67 208.624H185.712V209.866H182.67V208.624ZM172.986 214.186H183.318V218.182H174.498V220.612H173.022V217.048H181.86V215.374H172.986V214.186ZM173.022 219.982H183.912V221.188H173.022V219.982ZM175.182 205.708C177.63 205.708 179.394 207.202 179.394 209.326C179.394 211.468 177.63 212.962 175.182 212.962C172.77 212.962 170.988 211.468 170.988 209.326C170.988 207.202 172.77 205.708 175.182 205.708ZM175.182 206.932C173.616 206.932 172.446 207.922 172.446 209.326C172.446 210.748 173.616 211.738 175.182 211.738C176.784 211.738 177.954 210.748 177.954 209.326C177.954 207.922 176.784 206.932 175.182 206.932ZM191.578 206.374C193.972 206.374 195.664 208.588 195.664 212.044C195.664 215.518 193.972 217.732 191.578 217.732C189.184 217.732 187.492 215.518 187.492 212.044C187.492 208.588 189.184 206.374 191.578 206.374ZM191.578 207.724C189.994 207.724 188.914 209.416 188.914 212.044C188.914 214.69 189.994 216.418 191.578 216.418C193.144 216.418 194.242 214.69 194.242 212.044C194.242 209.416 193.144 207.724 191.578 207.724ZM198.256 205.132H199.768V221.404H198.256V205.132ZM199.408 211.63H202.432V212.89H199.408V211.63ZM203.817 218.092H218.559V219.334H203.817V218.092ZM210.405 214.204H211.899V218.452H210.405V214.204ZM205.545 206.284H207.021V209.182H215.319V206.284H216.795V214.6H205.545V206.284ZM207.021 210.388V213.376H215.319V210.388H207.021ZM226.784 210.946H229.898V212.188H226.784V210.946ZM223.742 206.662H224.912V209.758C224.912 213.16 223.49 216.454 221.114 217.912L220.178 216.778C222.41 215.464 223.742 212.548 223.742 209.758V206.662ZM224.03 206.662H225.182V209.704C225.182 212.314 226.406 215.086 228.548 216.382L227.684 217.552C225.344 216.112 224.03 212.872 224.03 209.704V206.662ZM232.76 205.132H234.2V221.404H232.76V205.132ZM229.466 205.474H230.87V220.594H229.466V205.474ZM240.534 213.502H242.01V218.38H240.534V213.502ZM246.546 213.502H248.04V218.38H246.546V213.502ZM236.934 218.092H251.676V219.334H236.934V218.092ZM244.278 206.158C247.716 206.158 250.182 207.796 250.182 210.352C250.182 212.89 247.716 214.528 244.278 214.528C240.822 214.528 238.356 212.89 238.356 210.352C238.356 207.796 240.822 206.158 244.278 206.158ZM244.278 207.346C241.668 207.346 239.796 208.534 239.796 210.352C239.796 212.152 241.668 213.34 244.278 213.34C246.888 213.34 248.742 212.152 248.742 210.352C248.742 208.534 246.888 207.346 244.278 207.346ZM255.077 220.252C254.429 220.252 253.907 219.73 253.907 218.992C253.907 218.236 254.429 217.732 255.077 217.732C255.743 217.732 256.283 218.236 256.283 218.992C256.283 219.73 255.743 220.252 255.077 220.252Z" fill="black"/>
<path d="M115.827 259.414H118.707V260.962H115.827V259.414ZM112.263 257.416H113.703V258.082C113.703 261.412 112.497 264.778 109.995 266.254L108.915 264.832C111.183 263.5 112.263 260.692 112.263 258.082V257.416ZM112.623 257.416H114.063V258.082C114.063 260.638 115.161 263.248 117.429 264.472L116.385 265.876C113.865 264.508 112.623 261.34 112.623 258.082V257.416ZM109.437 255.958H116.871V257.488H109.437V255.958ZM112.263 253.618H114.063V257.164H112.263V253.618ZM121.353 253.042H123.153V269.494H121.353V253.042ZM118.041 253.366H119.805V268.684H118.041V253.366ZM134.941 256.84H138.145V258.37H134.941V256.84ZM134.923 260.08H138.109V261.592H134.923V260.08ZM125.707 254.698H134.851V256.21H125.707V254.698ZM130.351 256.93C132.583 256.93 134.131 258.154 134.131 259.99C134.131 261.826 132.583 263.05 130.351 263.05C128.137 263.05 126.571 261.826 126.571 259.99C126.571 258.154 128.137 256.93 130.351 256.93ZM130.351 258.352C129.145 258.352 128.335 258.964 128.335 259.99C128.335 261.016 129.145 261.628 130.351 261.628C131.557 261.628 132.385 261.016 132.385 259.99C132.385 258.964 131.557 258.352 130.351 258.352ZM129.433 252.898H131.305V255.742H129.433V252.898ZM137.425 253.042H139.315V263.608H137.425V253.042ZM133.843 263.788C137.281 263.788 139.387 264.85 139.387 266.632C139.387 268.432 137.281 269.476 133.843 269.476C130.405 269.476 128.299 268.432 128.299 266.632C128.299 264.85 130.405 263.788 133.843 263.788ZM133.843 265.246C131.593 265.246 130.279 265.714 130.279 266.632C130.279 267.55 131.593 268.036 133.843 268.036C136.093 268.036 137.407 267.55 137.407 266.632C137.407 265.714 136.093 265.246 133.843 265.246ZM146.273 261.61H161.177V263.122H146.273V261.61ZM152.933 262.402H154.805V266.038H152.933V262.402ZM148.091 267.64H159.521V269.17H148.091V267.64ZM148.091 264.67H149.963V268.252H148.091V264.67ZM148.217 253.564H150.071V255.472H157.361V253.564H159.233V260.224H148.217V253.564ZM150.071 256.912V258.73H157.361V256.912H150.071ZM171.255 256.318H174.909V257.866H171.255V256.318ZM166.791 253.888H168.339V255.526C168.339 258.73 166.719 261.43 163.803 262.492L162.795 260.998C165.405 260.098 166.791 257.902 166.791 255.526V253.888ZM167.151 253.888H168.681V255.634C168.681 257.794 170.085 259.846 172.533 260.692L171.543 262.168C168.753 261.16 167.151 258.586 167.151 255.634V253.888ZM165.387 263.626H176.475V269.494H174.585V265.138H165.387V263.626ZM174.585 253.042H176.475V262.798H174.585V253.042ZM190.28 253.042H192.152V269.494H190.28V253.042ZM191.72 259.648H194.708V261.214H191.72V259.648ZM179.318 255.58H188.966V257.092H179.318V255.58ZM184.196 258.28C186.536 258.28 188.264 259.864 188.264 262.114C188.264 264.382 186.536 265.966 184.196 265.966C181.838 265.966 180.11 264.382 180.11 262.114C180.11 259.864 181.838 258.28 184.196 258.28ZM184.196 259.828C182.864 259.828 181.91 260.728 181.91 262.114C181.91 263.5 182.864 264.418 184.196 264.418C185.51 264.418 186.464 263.5 186.464 262.114C186.464 260.728 185.51 259.828 184.196 259.828ZM183.224 253.276H185.114V256.21H183.224V253.276ZM207.649 253.042H209.539V269.494H207.649V253.042ZM202.825 254.788H204.679C204.679 259.666 202.735 263.806 197.083 266.56L196.093 265.048C200.827 262.762 202.825 259.504 202.825 255.112V254.788ZM196.903 254.788H203.671V256.3H196.903V254.788Z" fill="black"/>
<path d="M106 274H214" stroke="black"/>
</svg>
