<svg width="320" height="320" viewBox="0 0 320 320" fill="none" xmlns="http://www.w3.org/2000/svg">
<mask id="path-1-inside-1_29_138" fill="white">
<path fill-rule="evenodd" clip-rule="evenodd" d="M160 320C71.6344 320 0 248.366 0 160C0 71.6344 71.6344 0 160 0C202.279 0 240.728 16.3984 269.333 43.1819L293.57 31.5448C295.31 30.7093 297.107 32.5801 296.202 34.2853L283.484 58.2502C306.297 85.904 320 121.352 320 160C320 248.366 248.366 320 160 320Z"/>
</mask>
<path fill-rule="evenodd" clip-rule="evenodd" d="M160 320C71.6344 320 0 248.366 0 160C0 71.6344 71.6344 0 160 0C202.279 0 240.728 16.3984 269.333 43.1819L293.57 31.5448C295.31 30.7093 297.107 32.5801 296.202 34.2853L283.484 58.2502C306.297 85.904 320 121.352 320 160C320 248.366 248.366 320 160 320Z" fill="white"/>
<path d="M269.333 43.1819L269.766 44.0833L269.149 44.3795L268.649 43.9118L269.333 43.1819ZM293.57 31.5448L293.137 30.6433L293.57 31.5448ZM296.202 34.2853L295.319 33.8165L296.202 34.2853ZM283.484 58.2502L282.713 58.8866L282.288 58.3714L282.601 57.7814L283.484 58.2502ZM1 160C1 247.813 72.1867 319 160 319V321C71.0822 321 -1 248.918 -1 160H1ZM160 1C72.1867 1 1 72.1867 1 160H-1C-1 71.0822 71.0822 -1 160 -1V1ZM268.649 43.9118C240.222 17.295 202.015 1 160 1V-1C202.543 -1 241.233 15.5018 270.016 42.4519L268.649 43.9118ZM294.003 32.4463L269.766 44.0833L268.9 42.2804L293.137 30.6433L294.003 32.4463ZM295.319 33.8165C295.771 32.9639 294.873 32.0285 294.003 32.4463L293.137 30.6433C295.747 29.39 298.443 32.1963 297.086 34.754L295.319 33.8165ZM282.601 57.7814L295.319 33.8165L297.086 34.754L284.368 58.719L282.601 57.7814ZM319 160C319 121.592 305.383 86.3678 282.713 58.8866L284.256 57.6139C307.211 85.4402 321 121.111 321 160H319ZM160 319C247.813 319 319 247.813 319 160H321C321 248.918 248.918 321 160 321V319Z" fill="black" mask="url(#path-1-inside-1_29_138)"/>
<path d="M124.127 67V52.28H126.467V65.04H132.707V67H124.127ZM140.177 67.28C136.377 67.28 133.757 64.34 133.757 59.58C133.757 54.84 136.377 52.02 140.177 52.02C143.957 52.02 146.577 54.84 146.577 59.58C146.577 64.34 143.957 67.28 140.177 67.28ZM140.177 65.24C142.617 65.24 144.197 63.02 144.197 59.58C144.197 56.14 142.617 54.04 140.177 54.04C137.717 54.04 136.157 56.14 136.157 59.58C136.157 63.02 137.717 65.24 140.177 65.24ZM149.635 67V52.28H152.315L154.995 59.74C155.355 60.7 155.655 61.7 155.995 62.7H156.075C156.435 61.7 156.715 60.7 157.035 59.74L159.695 52.28H162.375V67H160.235V59.74C160.235 58.4 160.415 56.52 160.535 55.18H160.455L159.255 58.58L156.695 65.6H155.255L152.695 58.58L151.515 55.18H151.435C151.555 56.52 151.735 58.4 151.735 59.74V67H149.635ZM171.856 67.28C168.056 67.28 165.436 64.34 165.436 59.58C165.436 54.84 168.056 52.02 171.856 52.02C175.636 52.02 178.256 54.84 178.256 59.58C178.256 64.34 175.636 67.28 171.856 67.28ZM171.856 65.24C174.296 65.24 175.876 63.02 175.876 59.58C175.876 56.14 174.296 54.04 171.856 54.04C169.396 54.04 167.836 56.14 167.836 59.58C167.836 63.02 169.396 65.24 171.856 65.24ZM182.455 55.62H194.975V57.3H182.455V55.62ZM180.295 59.5H196.855V61.2H180.295V59.5ZM182.455 51.04H184.535V56.46H182.455V51.04ZM182.315 66.54H195.075V68.24H182.315V66.54ZM182.315 62.86H184.395V67H182.315V62.86ZM78.0821 96V81.28H80.4221V96H78.0821ZM88.7462 96V81.28H91.0862V94.04H97.3262V96H88.7462ZM104.796 96.28C100.996 96.28 98.3759 93.34 98.3759 88.58C98.3759 83.84 100.996 81.02 104.796 81.02C108.576 81.02 111.196 83.84 111.196 88.58C111.196 93.34 108.576 96.28 104.796 96.28ZM104.796 94.24C107.236 94.24 108.816 92.02 108.816 88.58C108.816 85.14 107.236 83.04 104.796 83.04C102.336 83.04 100.776 85.14 100.776 88.58C100.776 92.02 102.336 94.24 104.796 94.24ZM116.581 96L111.981 81.28H114.441L116.621 88.9C117.101 90.6 117.461 92.02 117.961 93.72H118.061C118.581 92.02 118.921 90.6 119.401 88.9L121.561 81.28H123.941L119.341 96H116.581ZM125.816 96V81.28H134.536V83.24H128.156V87.32H133.536V89.3H128.156V94.04H134.756V96H125.816ZM142.301 96V81.28H144.981L147.661 88.74C148.021 89.7 148.321 90.7 148.661 91.7H148.741C149.101 90.7 149.381 89.7 149.701 88.74L152.361 81.28H155.041V96H152.901V88.74C152.901 87.4 153.081 85.52 153.201 84.18H153.121L151.921 87.58L149.361 94.6H147.921L145.361 87.58L144.181 84.18H144.101C144.221 85.52 144.401 87.4 144.401 88.74V96H142.301ZM161.342 96V90.44L156.902 81.28H159.382L161.102 85.2C161.562 86.28 161.982 87.32 162.462 88.44H162.542C163.042 87.32 163.502 86.28 163.962 85.2L165.662 81.28H168.082L163.662 90.44V96H161.342ZM174.449 96V81.28H179.029C182.029 81.28 184.209 82.24 184.209 84.9C184.209 86.32 183.449 87.64 182.129 88.1V88.18C183.809 88.54 185.009 89.7 185.009 91.68C185.009 94.6 182.649 96 179.389 96H174.449ZM176.789 87.42H178.769C181.009 87.42 181.929 86.58 181.929 85.22C181.929 83.68 180.889 83.1 178.829 83.1H176.789V87.42ZM176.789 94.18H179.129C181.409 94.18 182.729 93.36 182.729 91.58C182.729 89.92 181.469 89.18 179.129 89.18H176.789V94.18ZM193.409 96.28C189.609 96.28 186.989 93.34 186.989 88.58C186.989 83.84 189.609 81.02 193.409 81.02C197.189 81.02 199.809 83.84 199.809 88.58C199.809 93.34 197.189 96.28 193.409 96.28ZM193.409 94.24C195.849 94.24 197.429 92.02 197.429 88.58C197.429 85.14 195.849 83.04 193.409 83.04C190.949 83.04 189.389 85.14 189.389 88.58C189.389 92.02 190.949 94.24 193.409 94.24ZM202.867 96V81.28H206.707C211.227 81.28 213.787 83.78 213.787 88.58C213.787 93.38 211.227 96 206.827 96H202.867ZM205.207 94.1H206.527C209.687 94.1 211.407 92.24 211.407 88.58C211.407 84.92 209.687 83.16 206.527 83.16H205.207V94.1ZM218.745 96V90.44L214.305 81.28H216.785L218.505 85.2C218.965 86.28 219.385 87.32 219.865 88.44H219.945C220.445 87.32 220.905 86.28 221.365 85.2L223.065 81.28H225.485L221.065 90.44V96H218.745ZM232.259 80.66C235.119 80.66 237.199 82.46 237.199 85.04C237.199 87.64 235.119 89.44 232.259 89.44C229.399 89.44 227.279 87.64 227.279 85.04C227.279 82.46 229.399 80.66 232.259 80.66ZM232.259 82.46C230.579 82.46 229.339 83.46 229.339 85.04C229.339 86.62 230.579 87.64 232.259 87.64C233.919 87.64 235.159 86.62 235.159 85.04C235.159 83.46 233.919 82.46 232.259 82.46ZM239.299 79.36H241.399V97.68H239.299V79.36ZM226.699 93.82L226.439 92.1C229.719 92.1 234.259 92.06 238.199 91.48L238.359 93C234.319 93.78 229.919 93.82 226.699 93.82ZM125.565 110.98H128.725V112.72H125.565V110.98ZM125.565 114.92H128.725V116.64H125.565V114.92ZM124.105 108.38H126.205V119.2H124.105V108.38ZM114.185 120.02H126.205V126.66H124.105V121.7H114.185V120.02ZM117.025 109.42C119.805 109.42 121.885 111.24 121.885 113.82C121.885 116.4 119.805 118.2 117.025 118.2C114.245 118.2 112.185 116.4 112.185 113.82C112.185 111.24 114.245 109.42 117.025 109.42ZM117.025 111.2C115.405 111.2 114.225 112.22 114.225 113.82C114.225 115.42 115.405 116.44 117.025 116.44C118.645 116.44 119.845 115.42 119.845 113.82C119.845 112.22 118.645 111.2 117.025 111.2ZM134.664 111.12H136.324V113.68C136.324 117.62 134.264 121.66 131.184 123.18L129.984 121.52C132.784 120.18 134.664 116.74 134.664 113.68V111.12ZM135.084 111.12H136.744V113.68C136.744 116.52 138.524 119.76 141.324 121.06L140.144 122.72C137.064 121.24 135.084 117.42 135.084 113.68V111.12ZM130.664 110.2H140.604V111.94H130.664V110.2ZM142.404 108.38H144.504V126.66H142.404V108.38ZM144.024 115.58H147.344V117.32H144.024V115.58ZM161.702 108.38H163.802V118.2H161.702V108.38ZM151.862 119.06H153.922V121.04H161.722V119.06H163.802V126.44H151.862V119.06ZM153.922 122.68V124.76H161.722V122.68H153.922ZM153.942 109.2C156.742 109.2 158.782 110.94 158.782 113.46C158.782 115.96 156.742 117.72 153.942 117.72C151.142 117.72 149.082 115.96 149.082 113.46C149.082 110.94 151.142 109.2 153.942 109.2ZM153.942 110.94C152.302 110.94 151.122 111.94 151.122 113.46C151.122 114.98 152.302 115.98 153.942 115.98C155.582 115.98 156.742 114.98 156.742 113.46C156.742 111.94 155.582 110.94 153.942 110.94ZM180.141 108.38H182.221V126.66H180.141V108.38ZM168.201 110.14H170.281V121.48H168.201V110.14ZM168.201 120.24H169.761C172.481 120.24 175.401 120.04 178.461 119.42L178.701 121.18C175.541 121.84 172.601 122.04 169.761 122.04H168.201V120.24ZM197.599 108.36H199.699V126.68H197.599V108.36ZM199.219 115.38H202.539V117.12H199.219V115.38ZM186.279 120.46H187.759C190.999 120.46 193.399 120.34 196.099 119.84L196.319 121.6C193.519 122.1 191.079 122.2 187.759 122.2H186.279V120.46ZM186.279 110.1H194.779V111.8H188.359V121.26H186.279V110.1ZM205.998 125.28C205.118 125.28 204.458 124.6 204.458 123.66C204.458 122.7 205.118 122.04 205.998 122.04C206.858 122.04 207.538 122.7 207.538 123.66C207.538 124.6 206.858 125.28 205.998 125.28ZM74.1754 171.558H77.2534V172.782H74.1754V171.558ZM70.8634 169.29H72.0154V170.136C72.0154 173.376 70.6654 176.652 68.2894 178.074L67.4074 176.94C69.6034 175.662 70.8634 172.8 70.8634 170.136V169.29ZM71.1334 169.29H72.2854V170.136C72.2854 172.728 73.5814 175.41 75.7774 176.598L74.9314 177.714C72.5374 176.382 71.1334 173.304 71.1334 170.136V169.29ZM67.8574 168.12H75.2914V169.362H67.8574V168.12ZM70.8634 165.708H72.3034V169.074H70.8634V165.708ZM79.9174 165.132H81.3574V181.404H79.9174V165.132ZM76.6594 165.51H78.0634V180.576H76.6594V165.51ZM93.254 169.038H96.566V170.262H93.254V169.038ZM93.236 172.206H96.548V173.43H93.236V172.206ZM84.128 166.914H93.236V168.12H84.128V166.914ZM88.736 168.966C90.914 168.966 92.408 170.154 92.408 171.972C92.408 173.79 90.914 174.996 88.736 174.996C86.558 174.996 85.046 173.79 85.046 171.972C85.046 170.154 86.558 168.966 88.736 168.966ZM88.736 170.118C87.368 170.118 86.45 170.838 86.45 171.972C86.45 173.106 87.368 173.844 88.736 173.844C90.086 173.844 91.022 173.106 91.022 171.972C91.022 170.838 90.086 170.118 88.736 170.118ZM87.998 164.988H89.492V167.76H87.998V164.988ZM95.99 165.132H97.484V175.644H95.99V165.132ZM92.156 175.806C95.522 175.806 97.574 176.832 97.574 178.596C97.574 180.36 95.522 181.368 92.156 181.368C88.772 181.368 86.738 180.36 86.738 178.596C86.738 176.832 88.772 175.806 92.156 175.806ZM92.156 176.994C89.762 176.994 88.286 177.552 88.286 178.596C88.286 179.622 89.762 180.216 92.156 180.216C94.55 180.216 96.026 179.622 96.026 178.596C96.026 177.552 94.55 176.994 92.156 176.994ZM104.676 173.718H119.418V174.942H104.676V173.718ZM111.408 174.33H112.902V178.074H111.408V174.33ZM106.548 179.82H117.78V181.044H106.548V179.82ZM106.548 176.634H108.024V180.288H106.548V176.634ZM106.638 165.636H108.114V167.706H115.98V165.636H117.474V172.152H106.638V165.636ZM108.114 168.876V170.946H115.98V168.876H108.114ZM129.605 168.534H133.457V169.776H129.605V168.534ZM125.303 165.96H126.527V167.652C126.527 170.784 124.781 173.358 122.045 174.402L121.271 173.214C123.719 172.314 125.303 170.136 125.303 167.652V165.96ZM125.573 165.96H126.779V167.724C126.779 169.956 128.399 172.044 130.739 172.872L129.947 174.042C127.337 173.052 125.573 170.586 125.573 167.724V165.96ZM123.773 175.644H134.627V181.404H133.133V176.85H123.773V175.644ZM133.133 165.132H134.627V174.744H133.133V165.132ZM138.243 183.42L137.865 182.466C138.981 181.962 139.665 181.062 139.665 179.964L139.485 178.488L140.277 179.676C140.061 179.946 139.773 180.036 139.449 180.036C138.819 180.036 138.261 179.622 138.261 178.884C138.261 178.164 138.819 177.732 139.485 177.732C140.349 177.732 140.871 178.47 140.871 179.658C140.871 181.404 139.881 182.754 138.243 183.42ZM148.592 166.716H158.924V167.94H148.592V166.716ZM146.828 177.966H161.534V179.19H146.828V177.966ZM158.312 166.716H159.77V168.264C159.77 170.244 159.77 172.476 159.104 175.806L157.61 175.626C158.312 172.476 158.312 170.19 158.312 168.264V166.716ZM158.636 170.622V171.756L148.376 172.332L148.142 171.036L158.636 170.622ZM152.552 173.754H154.046V178.416H152.552V173.754ZM175.213 165.132H176.707V181.44H175.213V165.132ZM164.449 176.13H165.763C168.985 176.13 171.073 176.022 173.485 175.572L173.647 176.832C171.163 177.3 169.039 177.39 165.763 177.39H164.449V176.13ZM164.449 166.68H172.135V167.922H165.925V176.598H164.449V166.68ZM192.323 170.316H196.139V171.54H192.323V170.316ZM190.829 166.428H192.359C192.359 170.676 190.217 173.808 184.997 175.572L184.403 174.366C189.047 172.854 190.829 170.262 190.829 166.968V166.428ZM185.141 166.428H191.711V167.652H185.141V166.428ZM190.811 169.524V170.586L184.583 171.054L184.331 169.83L190.811 169.524ZM195.869 165.132H197.363V177.228H195.869V165.132ZM187.157 179.82H197.849V181.044H187.157V179.82ZM187.157 176.022H188.651V180.522H187.157V176.022ZM208.899 168.066H213.057V169.308H208.899V168.066ZM212.427 165.132H213.921V173.52H212.427V165.132ZM203.445 174.366H213.921V178.254H204.957V180.72H203.499V177.138H212.445V175.554H203.445V174.366ZM203.499 180H214.533V181.188H203.499V180ZM204.597 165.636H205.821V167.166C205.821 170.172 204.021 172.602 201.303 173.574L200.529 172.386C202.977 171.558 204.597 169.524 204.597 167.166V165.636ZM204.849 165.636H206.055V167.166C206.055 169.29 207.693 171.252 210.051 172.026L209.277 173.196C206.649 172.26 204.849 169.92 204.849 167.166V165.636ZM218.042 172.854H219.356C222.866 172.854 224.792 172.782 227.078 172.404L227.24 173.592C224.882 174.006 222.902 174.06 219.356 174.06H218.042V172.854ZM218.042 166.32H225.782V167.526H219.518V173.466H218.042V166.32ZM219.032 169.542H225.332V170.73H219.032V169.542ZM228.932 165.15H230.444V175.212H228.932V165.15ZM225.062 175.446C228.446 175.446 230.516 176.526 230.516 178.398C230.516 180.288 228.446 181.368 225.062 181.368C221.66 181.368 219.59 180.288 219.59 178.398C219.59 176.526 221.66 175.446 225.062 175.446ZM225.062 176.634C222.578 176.634 221.084 177.282 221.084 178.398C221.084 179.55 222.578 180.198 225.062 180.198C227.528 180.198 229.022 179.55 229.022 178.398C229.022 177.282 227.528 176.634 225.062 176.634ZM237.69 172.872H252.396V174.114H237.69V172.872ZM239.544 170.118H250.686V171.324H239.544V170.118ZM239.544 165.78H250.56V167.004H241.02V170.694H239.544V165.78ZM245.016 175.518C248.49 175.518 250.596 176.58 250.596 178.452C250.596 180.324 248.49 181.368 245.016 181.368C241.542 181.368 239.436 180.324 239.436 178.452C239.436 176.58 241.542 175.518 245.016 175.518ZM245.016 176.67C242.478 176.67 240.948 177.318 240.948 178.452C240.948 179.568 242.478 180.198 245.016 180.198C247.572 180.198 249.084 179.568 249.084 178.452C249.084 177.318 247.572 176.67 245.016 176.67ZM93.3589 191.114H94.8709V207.422H93.3589V191.114ZM94.5109 197.54H97.5349V198.8H94.5109V197.54ZM83.0449 202.112H84.3229C87.3289 202.112 89.4349 202.004 91.8649 201.554L92.0269 202.814C89.5249 203.282 87.3829 203.372 84.3229 203.372H83.0449V202.112ZM83.0449 192.698H90.6049V193.922H84.5209V202.67H83.0449V192.698ZM111.088 193.562H113.914V194.804H111.088V193.562ZM111.088 197.018H113.914V198.26H111.088V197.018ZM103.456 192.086C105.904 192.086 107.704 193.67 107.704 195.938C107.704 198.188 105.904 199.754 103.456 199.754C101.008 199.754 99.2075 198.188 99.2075 195.938C99.2075 193.67 101.008 192.086 103.456 192.086ZM103.456 193.346C101.836 193.346 100.666 194.408 100.666 195.938C100.666 197.468 101.836 198.512 103.456 198.512C105.076 198.512 106.246 197.468 106.246 195.938C106.246 194.408 105.076 193.346 103.456 193.346ZM110.044 191.132H111.538V200.762H110.044V191.132ZM106.354 201.284C109.666 201.284 111.7 202.418 111.7 204.326C111.7 206.252 109.666 207.368 106.354 207.368C103.042 207.368 101.008 206.252 101.008 204.326C101.008 202.418 103.042 201.284 106.354 201.284ZM106.354 202.49C103.942 202.49 102.466 203.156 102.466 204.326C102.466 205.496 103.942 206.18 106.354 206.18C108.766 206.18 110.242 205.496 110.242 204.326C110.242 203.156 108.766 202.49 106.354 202.49ZM126.602 191.15H128.096V203.354H126.602V191.15ZM127.628 196.478H130.508V197.738H127.628V196.478ZM115.514 193.112H125.126V194.318H115.514V193.112ZM120.32 195.218C122.624 195.218 124.208 196.424 124.208 198.26C124.208 200.078 122.624 201.284 120.32 201.284C117.998 201.284 116.414 200.078 116.414 198.26C116.414 196.424 117.998 195.218 120.32 195.218ZM120.32 196.388C118.844 196.388 117.836 197.126 117.836 198.26C117.836 199.376 118.844 200.114 120.32 200.114C121.778 200.114 122.786 199.376 122.786 198.26C122.786 197.126 121.778 196.388 120.32 196.388ZM119.564 191.132H121.058V193.742H119.564V191.132ZM117.962 205.82H128.834V207.044H117.962V205.82ZM117.962 202.382H119.456V206.342H117.962V202.382ZM137.79 191.906H148.266V193.13H137.79V191.906ZM147.456 191.906H148.932V193.292C148.932 194.786 148.932 196.46 148.482 198.674L147.006 198.566C147.456 196.37 147.456 194.768 147.456 193.292V191.906ZM147.888 194.876V195.992L137.61 196.478L137.394 195.2L147.888 194.876ZM136.062 199.754H150.75V200.978H136.062V199.754ZM142.02 197.414H143.514V200.528H142.02V197.414ZM137.934 205.928H149.292V207.152H137.934V205.928ZM137.934 202.364H139.428V206.432H137.934V202.364ZM159.605 195.758H162.377V196.964H159.605V195.758ZM164.897 191.132H166.319V203.336H164.897V191.132ZM161.765 191.456H163.169V202.922H161.765V191.456ZM155.771 205.82H166.823V207.044H155.771V205.82ZM155.771 202.004H157.265V206.558H155.771V202.004ZM153.359 199.43H154.385C156.923 199.43 158.435 199.358 160.235 198.998L160.379 200.204C158.507 200.582 156.977 200.636 154.385 200.636H153.359V199.43ZM153.359 192.482H159.497V193.706H154.799V199.88H153.359V192.482ZM154.349 195.902H158.849V197.09H154.349V195.902ZM169.179 204.092H183.921V205.334H169.179V204.092ZM175.785 194.588H177.099V194.948C177.099 198.386 174.129 200.69 170.637 201.392L170.043 200.168C173.157 199.61 175.785 197.576 175.785 194.948V194.588ZM175.983 194.588H177.279V194.948C177.279 197.576 179.907 199.61 183.021 200.168L182.427 201.392C178.935 200.69 175.983 198.386 175.983 194.948V194.588ZM170.529 193.724H182.517V194.948H170.529V193.724ZM175.785 191.51H177.279V194.174H175.785V191.51ZM185.72 198.692H200.48V199.826H185.72V198.692ZM187.466 201.14H198.626V204.614H188.996V206.522H187.52V203.588H197.168V202.202H187.466V201.14ZM187.52 206.126H199.148V207.206H187.52V206.126ZM187.592 191.6H198.572V194.984H189.104V196.748H187.628V193.976H197.114V192.662H187.592V191.6ZM187.628 196.388H198.878V197.468H187.628V196.388ZM206.304 199.754H221.01V200.96H206.304V199.754ZM212.91 197.648H214.386V200.258H212.91V197.648ZM208.248 196.982H219.282V198.152H208.248V196.982ZM208.248 191.6H219.21V192.77H209.724V197.612H208.248V191.6ZM209.292 194.264H218.778V195.416H209.292V194.264ZM213.648 202.166C217.194 202.166 219.228 203.066 219.228 204.776C219.228 206.468 217.194 207.368 213.648 207.368C210.102 207.368 208.068 206.468 208.068 204.776C208.068 203.066 210.102 202.166 213.648 202.166ZM213.648 203.3C211.038 203.3 209.58 203.822 209.58 204.776C209.58 205.748 211.038 206.252 213.648 206.252C216.258 206.252 217.716 205.748 217.716 204.776C217.716 203.822 216.258 203.3 213.648 203.3ZM222.844 193.904H230.908V195.128H222.844V193.904ZM226.876 196.208C228.91 196.208 230.386 197.738 230.386 199.934C230.386 202.112 228.91 203.642 226.876 203.642C224.86 203.642 223.384 202.112 223.384 199.934C223.384 197.738 224.86 196.208 226.876 196.208ZM226.876 197.486C225.634 197.486 224.734 198.494 224.734 199.934C224.734 201.374 225.634 202.382 226.876 202.382C228.136 202.382 229.054 201.374 229.054 199.934C229.054 198.494 228.136 197.486 226.876 197.486ZM235.21 191.132H236.65V207.404H235.21V191.132ZM232.618 197.972H235.696V199.214H232.618V197.972ZM231.736 191.492H233.14V206.612H231.736V191.492ZM226.156 191.6H227.632V194.66H226.156V191.6ZM74.4395 243.132H75.9335V252.798H74.4395V243.132ZM75.5015 247.362H78.3275V248.604H75.5015V247.362ZM70.7315 253.14C74.0255 253.14 76.0775 254.31 76.0775 256.272C76.0775 258.234 74.0255 259.386 70.7315 259.386C67.4375 259.386 65.3855 258.234 65.3855 256.272C65.3855 254.31 67.4375 253.14 70.7315 253.14ZM70.7315 254.364C68.3195 254.364 66.8435 255.048 66.8435 256.272C66.8435 257.46 68.3195 258.162 70.7315 258.162C73.1435 258.162 74.6195 257.46 74.6195 256.272C74.6195 255.048 73.1435 254.364 70.7315 254.364ZM64.0175 250.296H65.2775C68.6435 250.296 70.5335 250.188 72.7115 249.738L72.8915 250.962C70.6415 251.412 68.7155 251.52 65.2775 251.52H64.0175V250.296ZM64.0175 244.374H71.1995V245.598H65.4935V251.088H64.0175V244.374ZM91.6821 243.15H93.1941V255.066H91.6821V243.15ZM82.7361 257.82H93.6801V259.044H82.7361V257.82ZM82.7361 253.968H84.2121V258.396H82.7361V253.968ZM84.0861 244.032H85.3281V245.688C85.3281 248.856 83.5281 251.628 80.7921 252.744L80.0181 251.538C82.4661 250.584 84.0861 248.208 84.0861 245.688V244.032ZM84.3561 244.032H85.5801V245.688C85.5801 248.136 87.2181 250.35 89.6481 251.232L88.8561 252.438C86.1561 251.394 84.3561 248.784 84.3561 245.688V244.032ZM101.689 244.302C104.227 244.302 106.045 245.868 106.045 248.136C106.045 250.422 104.227 251.988 101.689 251.988C99.1506 251.988 97.3146 250.422 97.3146 248.136C97.3146 245.868 99.1506 244.302 101.689 244.302ZM101.689 245.598C99.9966 245.598 98.7726 246.624 98.7726 248.136C98.7726 249.648 99.9966 250.692 101.689 250.692C103.363 250.692 104.587 249.648 104.587 248.136C104.587 246.624 103.363 245.598 101.689 245.598ZM108.169 243.114H109.663V259.422H108.169V243.114ZM96.7026 255.858L96.4866 254.616C99.4566 254.616 103.561 254.598 107.107 254.04L107.233 255.138C103.579 255.84 99.6006 255.858 96.7026 255.858ZM129.383 243.132H130.823V259.404H129.383V243.132ZM126.809 249.576H129.923V250.8H126.809V249.576ZM125.783 243.474H127.205V258.594H125.783V243.474ZM117.575 245.004H123.785V255.048H117.575V245.004ZM122.381 246.192H118.979V253.86H122.381V246.192ZM134.223 251.196H135.393C138.597 251.196 140.181 251.142 142.125 250.8L142.287 252.006C140.271 252.366 138.651 252.42 135.393 252.42H134.223V251.196ZM134.187 244.104H141.207V248.73H135.699V251.934H134.223V247.56H139.731V245.328H134.187V244.104ZM145.437 243.15H146.931V253.14H145.437V243.15ZM142.287 245.544H145.779V246.768H142.287V245.544ZM142.287 248.91H145.779V250.134H142.287V248.91ZM136.041 254.022H146.931V259.44H145.437V255.246H136.041V254.022ZM157.46 243.402C161.042 243.402 163.184 244.41 163.184 246.228C163.184 248.046 161.042 249.054 157.46 249.054C153.86 249.054 151.736 248.046 151.736 246.228C151.736 244.41 153.86 243.402 157.46 243.402ZM157.46 244.536C154.796 244.536 153.266 245.148 153.266 246.228C153.266 247.308 154.796 247.92 157.46 247.92C160.106 247.92 161.636 247.308 161.636 246.228C161.636 245.148 160.106 244.536 157.46 244.536ZM150.098 250.134H164.804V251.34H150.098V250.134ZM151.88 252.726H162.932V256.398H153.392V258.378H151.916V255.318H161.456V253.878H151.88V252.726ZM151.916 258.054H163.418V259.224H151.916V258.054ZM174.75 245.814H175.974V246.516C175.974 249.288 174.138 251.538 171.402 252.402L170.7 251.232C173.112 250.494 174.75 248.64 174.75 246.516V245.814ZM175.02 245.814H176.244V246.516C176.244 248.46 177.828 250.224 180.222 250.926L179.52 252.078C176.802 251.268 175.02 249.108 175.02 246.516V245.814ZM171.15 245.022H179.826V246.228H171.15V245.022ZM174.75 243.06H176.244V245.526H174.75V243.06ZM181.824 243.132H183.318V252.582H181.824V243.132ZM182.904 247.146H185.73V248.388H182.904V247.146ZM177.486 253.932H178.764V254.364C178.764 256.92 176.064 258.81 172.878 259.35L172.302 258.198C175.11 257.766 177.486 256.182 177.486 254.364V253.932ZM177.774 253.932H179.052V254.364C179.052 256.146 181.464 257.766 184.218 258.216L183.66 259.368C180.474 258.828 177.774 256.866 177.774 254.364V253.932ZM172.932 253.464H183.606V254.67H172.932V253.464ZM191.578 244.374C193.972 244.374 195.664 246.588 195.664 250.044C195.664 253.518 193.972 255.732 191.578 255.732C189.184 255.732 187.492 253.518 187.492 250.044C187.492 246.588 189.184 244.374 191.578 244.374ZM191.578 245.724C189.994 245.724 188.914 247.416 188.914 250.044C188.914 252.69 189.994 254.418 191.578 254.418C193.144 254.418 194.242 252.69 194.242 250.044C194.242 247.416 193.144 245.724 191.578 245.724ZM198.256 243.132H199.768V259.404H198.256V243.132ZM199.408 249.63H202.432V250.89H199.408V249.63ZM203.817 256.092H218.559V257.334H203.817V256.092ZM210.405 252.204H211.899V256.452H210.405V252.204ZM205.545 244.284H207.021V247.182H215.319V244.284H216.795V252.6H205.545V244.284ZM207.021 248.388V251.376H215.319V248.388H207.021ZM226.784 248.946H229.898V250.188H226.784V248.946ZM223.742 244.662H224.912V247.758C224.912 251.16 223.49 254.454 221.114 255.912L220.178 254.778C222.41 253.464 223.742 250.548 223.742 247.758V244.662ZM224.03 244.662H225.182V247.704C225.182 250.314 226.406 253.086 228.548 254.382L227.684 255.552C225.344 254.112 224.03 250.872 224.03 247.704V244.662ZM232.76 243.132H234.2V259.404H232.76V243.132ZM229.466 243.474H230.87V258.594H229.466V243.474ZM240.534 251.502H242.01V256.38H240.534V251.502ZM246.546 251.502H248.04V256.38H246.546V251.502ZM236.934 256.092H251.676V257.334H236.934V256.092ZM244.278 244.158C247.716 244.158 250.182 245.796 250.182 248.352C250.182 250.89 247.716 252.528 244.278 252.528C240.822 252.528 238.356 250.89 238.356 248.352C238.356 245.796 240.822 244.158 244.278 244.158ZM244.278 245.346C241.668 245.346 239.796 246.534 239.796 248.352C239.796 250.152 241.668 251.34 244.278 251.34C246.888 251.34 248.742 250.152 248.742 248.352C248.742 246.534 246.888 245.346 244.278 245.346ZM255.077 258.252C254.429 258.252 253.907 257.73 253.907 256.992C253.907 256.236 254.429 255.732 255.077 255.732C255.743 255.732 256.283 256.236 256.283 256.992C256.283 257.73 255.743 258.252 255.077 258.252Z" fill="black"/>
</svg>
