<svg width="130" height="130" viewBox="0 0 130 130" fill="none" xmlns="http://www.w3.org/2000/svg">
<mask id="mask0_325_379" style="mask-type:alpha" maskUnits="userSpaceOnUse" x="0" y="0" width="130" height="130">
<circle cx="65" cy="65" r="64.5" fill="#EFEFEF" stroke="black"/>
</mask>
<g mask="url(#mask0_325_379)">
<mask id="path-2-inside-1_325_379" fill="white">
<path d="M214.43 325.5C214.09 322.91 214.07 321.35 214.07 320.2V320.02C214.07 319.36 214.07 318.83 214 318.32C213.56 314.65 211.66 313.5 210.62 306.61C208.65 293.6 207.34 283.92 205.5 270.38C205.5 270.32 205.49 270.26 205.48 270.2C205.11 267.44 204.71 264.55 204.28 261.4C202.76 250.18 197.66 236.07 192.28 220.55C192.27 220.49 192.24 220.43 192.22 220.37C191.91 219.48 191.61 218.59 191.3 217.69C190.75 216.09 189.58 203.91 189.13 197.51C188.58 189.52 183.33 116.21 179.73 105.15C177.05 96.91 174.45 93.59 171.97 92.5V92.48C171.97 92.48 169.94 91.42 168.72 90.93C168.57 90.87 168.42 90.82 168.26 90.76L125.36 71.66C125.33 71.59 125.3 71.53 125.27 71.46C123.93 68.22 123.39 59.21 123.17 53.05C126.22 50.23 128.57 46.59 130.06 40.56C130.32 39.48 130.64 38.2 130.94 36.82C134.28 38 135.15 32.86 135.76 31.37C136.44 29.74 137.36 29.58 138.26 25.97C138.87 23.57 137.82 21.99 138.25 20.44C138.54 19.4 138.67 16.46 137.35 15.45C137.21 15.34 137.03 15.28 136.83 15.23C138.81 7.71 140.07 -4.58 135.95 -13.99C134.16 -18.06 131.97 -21.33 129.65 -23.94C124.17 -30.62 115.13 -35 104.89 -35C94.6502 -35 85.6202 -30.62 80.1302 -23.94C77.8102 -21.34 75.6202 -18.06 73.8302 -13.99C69.7102 -4.58 70.9702 7.71 72.9502 15.23C72.7602 15.28 72.5802 15.34 72.4302 15.45C71.1102 16.46 71.2402 19.4 71.5302 20.44C71.9602 21.99 70.9102 23.57 71.5202 25.97C72.4202 29.58 73.3302 29.74 74.0202 31.37C74.6302 32.86 75.5102 37.99 78.8402 36.82C79.1402 38.2 79.4502 39.48 79.7202 40.56C81.2102 46.6 83.5602 50.23 86.6102 53.05C86.3902 59.21 85.8502 68.22 84.5102 71.46C84.4802 71.53 84.4502 71.59 84.4202 71.66L41.5302 90.76C41.3802 90.82 41.2202 90.87 41.0702 90.93C39.8502 91.42 37.8202 92.48 37.8202 92.48V92.5C35.3402 93.59 32.7302 96.9 30.0602 105.15C26.4602 116.21 21.2202 189.52 20.6602 197.51C20.2002 203.92 19.0402 216.1 18.4902 217.69C18.1802 218.59 17.8802 219.48 17.5702 220.37C17.5502 220.43 17.5202 220.49 17.5102 220.55C12.1302 236.07 7.0302 250.18 5.51019 261.4C5.08019 264.54 4.68019 267.44 4.31019 270.2C4.30019 270.26 4.29019 270.32 4.29019 270.38C2.44019 283.92 1.13019 293.6 -0.829805 306.61C-1.86981 313.5 -3.7698 314.65 -4.20981 318.32C-4.27981 318.84 -4.27981 319.36 -4.27981 320.02V320.2C-4.27981 321.35 -4.2998 322.91 -4.6398 325.5C-5.8298 334.38 -6.7298 336.14 -7.5398 339.3C-9.3898 346.48 -10.1198 350.23 -9.93981 355.16C-9.69981 361.7 -8.23981 364.82 -5.50981 367.99C-4.11981 369.62 -2.73981 371.66 -0.569805 373.85C2.51019 376.97 2.95019 377.13 4.21019 375.37C5.85019 373.08 3.75019 369.96 4.51019 364.31C5.5302 356.57 7.20019 354.39 7.74019 344.91C7.82019 343.48 8.6302 351.25 11.3502 354.09C13.5102 356.35 17.1502 356.19 16.5602 355.06C11.0602 344.38 15.8902 337.54 13.5002 329.37C12.7302 326.73 10.6002 322.53 10.7002 320.55C10.7002 320.44 10.7202 320.32 10.7402 320.2C10.7502 320.14 10.7502 320.08 10.7602 320.02C11.1602 315.5 13.6802 309.89 17.1902 302.88C21.9902 293.3 24.7502 287.4 31.5102 270.37C31.5302 270.31 31.5602 270.25 31.5802 270.19C32.0202 269.09 32.4802 267.92 32.9602 266.72C41.4602 245.13 42.8702 226.04 43.2102 223.76C43.3502 222.76 43.5602 221.67 43.7902 220.54C43.8002 220.48 43.8102 220.42 43.8302 220.36C46.0502 209.66 51.8002 193.05 55.5202 178.98C56.1102 176.76 57.5502 170.2 58.1402 167.46C62.4802 182.94 71.9202 212.42 69.0202 220.54C67.7102 227.24 64.4202 234.39 60.3402 243.42C53.0702 259.51 51.4102 268.48 51.4102 268.48C51.2402 269.03 51.0502 269.61 50.8702 270.18C50.8502 270.24 50.8302 270.3 50.8102 270.36H50.8002C47.2602 281.27 41.8402 295.69 41.6002 319.84C41.6002 319.96 41.5902 320.07 41.5902 320.19C41.5502 325.33 41.7502 330.88 42.2502 336.94C43.4902 351.96 52.6202 384.05 56.0402 399.38C63.6202 433.45 67.9102 453.88 68.4702 465.88C69.1902 481.4 67.5202 486.24 66.0502 495.64C63.1702 513.89 65.2702 529.67 68.6902 544.14C75.0302 570.88 81.6602 582.77 82.3302 596.8C82.5002 600.3 80.4202 601.77 81.5602 606.2C82.1602 608.52 83.1702 610.72 81.6302 615.86C76.4702 633.24 69.7602 637.78 70.5502 644.13C71.4302 651.16 90.0602 650.73 97.3502 649.15C103.35 647.84 103.28 637.08 101.54 624.74C101.19 622.24 101.01 619.46 101.16 615.19C101.22 613.08 101.68 610.62 101.9 607.65C102.13 604.91 101.49 602.02 101.16 599.73C100.9 598 100.63 596.61 100.58 595.88C98.9702 569.02 99.4802 562.58 102.14 537.33C104.83 511.81 101.05 507.23 101.53 491.63C101.81 482.38 104.03 472.93 104.61 462.91C105.35 450.36 104.33 438.49 103.28 429.56C100.39 404.88 100.41 400.89 99.4802 381.38C98.4602 360.19 103.81 349.8 100.76 331.52C101.47 331.84 103.2 331.99 104.92 331.98C106.64 331.99 108.36 331.85 109.07 331.52C106.02 349.8 111.37 360.19 110.35 381.38C109.41 400.89 109.44 404.88 106.55 429.56C105.51 438.49 104.47 450.36 105.22 462.91C105.82 472.93 108.03 482.37 108.3 491.63C108.78 507.23 105 511.8 107.69 537.33C110.37 562.58 110.86 569.02 109.25 595.88C109.2 596.61 108.94 598 108.69 599.73C108.34 602.02 107.72 604.91 107.93 607.65C108.17 610.61 108.61 613.07 108.69 615.19C108.82 619.46 108.64 622.25 108.29 624.74C106.56 637.08 106.48 647.84 112.48 649.15C119.78 650.73 138.4 651.17 139.28 644.13C140.07 637.78 133.36 633.23 128.2 615.86C126.68 610.72 127.68 608.52 128.27 606.2C129.41 601.77 127.35 600.31 127.5 596.8C128.18 582.77 134.82 570.88 141.14 544.14C144.56 529.67 146.66 513.89 143.79 495.64C142.3 486.24 140.63 481.4 141.35 465.88C141.91 453.88 146.2 433.44 153.79 399.38C157.2 384.06 166.34 351.97 167.58 336.94C168.07 330.88 168.26 325.32 168.23 320.19C168.23 320.07 168.22 319.96 168.22 319.84C167.98 295.7 162.57 281.27 159.02 270.36C159 270.3 158.98 270.24 158.96 270.18C158.78 269.6 158.59 269.03 158.42 268.48C158.42 268.48 158.01 266.24 156.68 261.99C155.36 257.74 153.13 251.48 149.49 243.43C145.41 234.39 142.11 227.24 140.81 220.55H140.8C137.91 212.44 147.35 182.95 151.7 167.47C152.29 170.21 153.73 176.77 154.32 178.99C158.04 193.05 163.79 209.66 166.01 220.37C166.02 220.43 166.03 220.49 166.05 220.55C166.28 221.68 166.48 222.77 166.63 223.77C166.97 226.05 168.38 245.14 176.88 266.73C177.36 267.93 177.82 269.09 178.26 270.2L178.33 270.38C185.09 287.41 187.85 293.31 192.65 302.89C196.17 309.9 198.69 315.5 199.08 320.03C199.09 320.09 199.09 320.15 199.1 320.21C199.11 320.33 199.14 320.45 199.14 320.56C199.25 322.54 197.11 326.74 196.34 329.38C193.95 337.55 198.78 344.39 193.28 355.07C192.69 356.2 196.33 356.35 198.49 354.1C201.21 351.26 202.02 343.49 202.1 344.92C202.64 354.4 204.31 356.58 205.33 364.32C206.09 369.97 203.99 373.09 205.63 375.38C206.89 377.13 207.32 376.98 210.41 373.86C212.58 371.68 213.96 369.64 215.35 368C218.07 364.83 219.54 361.71 219.78 355.17C219.96 350.24 219.23 346.48 217.38 339.31C216.56 336.15 215.66 334.39 214.48 325.51L214.43 325.5Z"/>
</mask>
<path d="M214.43 325.5C214.09 322.91 214.07 321.35 214.07 320.2V320.02C214.07 319.36 214.07 318.83 214 318.32C213.56 314.65 211.66 313.5 210.62 306.61C208.65 293.6 207.34 283.92 205.5 270.38C205.5 270.32 205.49 270.26 205.48 270.2C205.11 267.44 204.71 264.55 204.28 261.4C202.76 250.18 197.66 236.07 192.28 220.55C192.27 220.49 192.24 220.43 192.22 220.37C191.91 219.48 191.61 218.59 191.3 217.69C190.75 216.09 189.58 203.91 189.13 197.51C188.58 189.52 183.33 116.21 179.73 105.15C177.05 96.91 174.45 93.59 171.97 92.5V92.48C171.97 92.48 169.94 91.42 168.72 90.93C168.57 90.87 168.42 90.82 168.26 90.76L125.36 71.66C125.33 71.59 125.3 71.53 125.27 71.46C123.93 68.22 123.39 59.21 123.17 53.05C126.22 50.23 128.57 46.59 130.06 40.56C130.32 39.48 130.64 38.2 130.94 36.82C134.28 38 135.15 32.86 135.76 31.37C136.44 29.74 137.36 29.58 138.26 25.97C138.87 23.57 137.82 21.99 138.25 20.44C138.54 19.4 138.67 16.46 137.35 15.45C137.21 15.34 137.03 15.28 136.83 15.23C138.81 7.71 140.07 -4.58 135.95 -13.99C134.16 -18.06 131.97 -21.33 129.65 -23.94C124.17 -30.62 115.13 -35 104.89 -35C94.6502 -35 85.6202 -30.62 80.1302 -23.94C77.8102 -21.34 75.6202 -18.06 73.8302 -13.99C69.7102 -4.58 70.9702 7.71 72.9502 15.23C72.7602 15.28 72.5802 15.34 72.4302 15.45C71.1102 16.46 71.2402 19.4 71.5302 20.44C71.9602 21.99 70.9102 23.57 71.5202 25.97C72.4202 29.58 73.3302 29.74 74.0202 31.37C74.6302 32.86 75.5102 37.99 78.8402 36.82C79.1402 38.2 79.4502 39.48 79.7202 40.56C81.2102 46.6 83.5602 50.23 86.6102 53.05C86.3902 59.21 85.8502 68.22 84.5102 71.46C84.4802 71.53 84.4502 71.59 84.4202 71.66L41.5302 90.76C41.3802 90.82 41.2202 90.87 41.0702 90.93C39.8502 91.42 37.8202 92.48 37.8202 92.48V92.5C35.3402 93.59 32.7302 96.9 30.0602 105.15C26.4602 116.21 21.2202 189.52 20.6602 197.51C20.2002 203.92 19.0402 216.1 18.4902 217.69C18.1802 218.59 17.8802 219.48 17.5702 220.37C17.5502 220.43 17.5202 220.49 17.5102 220.55C12.1302 236.07 7.0302 250.18 5.51019 261.4C5.08019 264.54 4.68019 267.44 4.31019 270.2C4.30019 270.26 4.29019 270.32 4.29019 270.38C2.44019 283.92 1.13019 293.6 -0.829805 306.61C-1.86981 313.5 -3.7698 314.65 -4.20981 318.32C-4.27981 318.84 -4.27981 319.36 -4.27981 320.02V320.2C-4.27981 321.35 -4.2998 322.91 -4.6398 325.5C-5.8298 334.38 -6.7298 336.14 -7.5398 339.3C-9.3898 346.48 -10.1198 350.23 -9.93981 355.16C-9.69981 361.7 -8.23981 364.82 -5.50981 367.99C-4.11981 369.62 -2.73981 371.66 -0.569805 373.85C2.51019 376.97 2.95019 377.13 4.21019 375.37C5.85019 373.08 3.75019 369.96 4.51019 364.31C5.5302 356.57 7.20019 354.39 7.74019 344.91C7.82019 343.48 8.6302 351.25 11.3502 354.09C13.5102 356.35 17.1502 356.19 16.5602 355.06C11.0602 344.38 15.8902 337.54 13.5002 329.37C12.7302 326.73 10.6002 322.53 10.7002 320.55C10.7002 320.44 10.7202 320.32 10.7402 320.2C10.7502 320.14 10.7502 320.08 10.7602 320.02C11.1602 315.5 13.6802 309.89 17.1902 302.88C21.9902 293.3 24.7502 287.4 31.5102 270.37C31.5302 270.31 31.5602 270.25 31.5802 270.19C32.0202 269.09 32.4802 267.92 32.9602 266.72C41.4602 245.13 42.8702 226.04 43.2102 223.76C43.3502 222.76 43.5602 221.67 43.7902 220.54C43.8002 220.48 43.8102 220.42 43.8302 220.36C46.0502 209.66 51.8002 193.05 55.5202 178.98C56.1102 176.76 57.5502 170.2 58.1402 167.46C62.4802 182.94 71.9202 212.42 69.0202 220.54C67.7102 227.24 64.4202 234.39 60.3402 243.42C53.0702 259.51 51.4102 268.48 51.4102 268.48C51.2402 269.03 51.0502 269.61 50.8702 270.18C50.8502 270.24 50.8302 270.3 50.8102 270.36H50.8002C47.2602 281.27 41.8402 295.69 41.6002 319.84C41.6002 319.96 41.5902 320.07 41.5902 320.19C41.5502 325.33 41.7502 330.88 42.2502 336.94C43.4902 351.96 52.6202 384.05 56.0402 399.38C63.6202 433.45 67.9102 453.88 68.4702 465.88C69.1902 481.4 67.5202 486.24 66.0502 495.64C63.1702 513.89 65.2702 529.67 68.6902 544.14C75.0302 570.88 81.6602 582.77 82.3302 596.8C82.5002 600.3 80.4202 601.77 81.5602 606.2C82.1602 608.52 83.1702 610.72 81.6302 615.86C76.4702 633.24 69.7602 637.78 70.5502 644.13C71.4302 651.16 90.0602 650.73 97.3502 649.15C103.35 647.84 103.28 637.08 101.54 624.74C101.19 622.24 101.01 619.46 101.16 615.19C101.22 613.08 101.68 610.62 101.9 607.65C102.13 604.91 101.49 602.02 101.16 599.73C100.9 598 100.63 596.61 100.58 595.88C98.9702 569.02 99.4802 562.58 102.14 537.33C104.83 511.81 101.05 507.23 101.53 491.63C101.81 482.38 104.03 472.93 104.61 462.91C105.35 450.36 104.33 438.49 103.28 429.56C100.39 404.88 100.41 400.89 99.4802 381.38C98.4602 360.19 103.81 349.8 100.76 331.52C101.47 331.84 103.2 331.99 104.92 331.98C106.64 331.99 108.36 331.85 109.07 331.52C106.02 349.8 111.37 360.19 110.35 381.38C109.41 400.89 109.44 404.88 106.55 429.56C105.51 438.49 104.47 450.36 105.22 462.91C105.82 472.93 108.03 482.37 108.3 491.63C108.78 507.23 105 511.8 107.69 537.33C110.37 562.58 110.86 569.02 109.25 595.88C109.2 596.61 108.94 598 108.69 599.73C108.34 602.02 107.72 604.91 107.93 607.65C108.17 610.61 108.61 613.07 108.69 615.19C108.82 619.46 108.64 622.25 108.29 624.74C106.56 637.08 106.48 647.84 112.48 649.15C119.78 650.73 138.4 651.17 139.28 644.13C140.07 637.78 133.36 633.23 128.2 615.86C126.68 610.72 127.68 608.52 128.27 606.2C129.41 601.77 127.35 600.31 127.5 596.8C128.18 582.77 134.82 570.88 141.14 544.14C144.56 529.67 146.66 513.89 143.79 495.64C142.3 486.24 140.63 481.4 141.35 465.88C141.91 453.88 146.2 433.44 153.79 399.38C157.2 384.06 166.34 351.97 167.58 336.94C168.07 330.88 168.26 325.32 168.23 320.19C168.23 320.07 168.22 319.96 168.22 319.84C167.98 295.7 162.57 281.27 159.02 270.36C159 270.3 158.98 270.24 158.96 270.18C158.78 269.6 158.59 269.03 158.42 268.48C158.42 268.48 158.01 266.24 156.68 261.99C155.36 257.74 153.13 251.48 149.49 243.43C145.41 234.39 142.11 227.24 140.81 220.55H140.8C137.91 212.44 147.35 182.95 151.7 167.47C152.29 170.21 153.73 176.77 154.32 178.99C158.04 193.05 163.79 209.66 166.01 220.37C166.02 220.43 166.03 220.49 166.05 220.55C166.28 221.68 166.48 222.77 166.63 223.77C166.97 226.05 168.38 245.14 176.88 266.73C177.36 267.93 177.82 269.09 178.26 270.2L178.33 270.38C185.09 287.41 187.85 293.31 192.65 302.89C196.17 309.9 198.69 315.5 199.08 320.03C199.09 320.09 199.09 320.15 199.1 320.21C199.11 320.33 199.14 320.45 199.14 320.56C199.25 322.54 197.11 326.74 196.34 329.38C193.95 337.55 198.78 344.39 193.28 355.07C192.69 356.2 196.33 356.35 198.49 354.1C201.21 351.26 202.02 343.49 202.1 344.92C202.64 354.4 204.31 356.58 205.33 364.32C206.09 369.97 203.99 373.09 205.63 375.38C206.89 377.13 207.32 376.98 210.41 373.86C212.58 371.68 213.96 369.64 215.35 368C218.07 364.83 219.54 361.71 219.78 355.17C219.96 350.24 219.23 346.48 217.38 339.31C216.56 336.15 215.66 334.39 214.48 325.51L214.43 325.5Z" fill="#EFEFEF" stroke="black" stroke-width="2" mask="url(#path-2-inside-1_325_379)"/>
</g>
<circle cx="65" cy="65" r="64.5" stroke="black"/>
</svg>
