<svg ref={shapesRef} width="1674" height="908" viewBox="0 0 1674 908" fill="none" xmlns="http://www.w3.org/2000/svg">
<g id="body shape">
<g className='el shapes' id="14">

<path d="M1223.5 6.40169C1227.65 8.7956 1231.1 12.5972 1233.25 16.8807C1236.93 24.2619 1237.35 32.8119 1236.8 41.0212C1236.25 49.1721 1234.82 57.2648 1232.53 65.1146C1231.39 69.0179 1229.72 73.2354 1226.04 75.0629C1221.39 77.3702 1215.94 74.8502 1210.9 73.5554C1204.21 71.839 1196.96 72.4525 1190.63 75.1758C1188.97 75.8947 1187.03 75.0309 1186.5 73.3126C1185.75 70.8491 1185.6 68.1446 1185.48 65.5475C1184.68 48.3121 1183.88 31.0767 1183.09 13.8413C1182.96 11.0408 1182.84 8.16513 1183.75 5.50773C1184.66 2.85223 1186.84 0.426322 1189.66 0.0536847C1193.74 -0.486451 1197.08 3.2004 1201.04 4.33525C1205.1 5.50021 1209.4 3.87416 1213.63 3.765C1217.13 3.67466 1220.5 4.66836 1223.5 6.39792V6.40169Z" fill="#DAF1DD" stroke="black" stroke-width="2" mask="url(#path-1-inside-1_451_360)"/>
</g>
<g className='el shapes' id="13">

<path d="M1616.85 195.901C1616.88 195.897 1616.91 195.893 1616.95 195.886C1623.81 194.921 1628.25 188.33 1631.71 182.321C1635.62 175.523 1639.53 168.356 1639.96 160.524C1640.31 154.094 1638.25 147.717 1635.14 142.075C1632.04 136.434 1627.91 131.428 1623.82 126.458C1622.13 124.41 1620.24 122.261 1618.06 120.806C1616.07 119.478 1613.39 119.822 1611.8 121.612C1604.71 129.588 1598.68 138.51 1593.93 148.071C1592 151.97 1590.25 156.082 1590.03 160.428C1589.67 167.249 1593.07 173.635 1596.38 179.612C1598.63 183.697 1600.94 187.849 1604.31 191.08C1607.65 194.286 1612.26 196.504 1616.85 195.901H1616.85Z" fill="#CDDAFD" stroke="black" stroke-width="2" mask="url(#path-2-inside-2_451_360)"/>
</g>
<g className='el shapes' id="12">

<path d="M1659.99 738.667C1660.13 738.655 1660.26 738.643 1660.39 738.63C1665.57 738.147 1671.8 736.884 1673.54 731.929C1674.26 729.881 1673.99 727.627 1673.68 725.473C1670.97 706.679 1665.73 688.256 1658.16 670.873C1657.34 669.001 1656.44 667.06 1654.37 666.214C1653.48 665.848 1652.46 665.961 1651.64 666.476C1650.95 666.91 1650.45 667.605 1650.26 668.405C1646.08 686.278 1642.79 704.361 1640.39 722.567C1639.97 725.81 1639.6 729.251 1640.93 732.232C1642.44 735.592 1645.91 737.715 1649.47 738.511C1652.91 739.278 1656.48 738.992 1659.99 738.667H1659.99Z" fill="#F3EFA3" stroke="black" stroke-width="2" mask="url(#path-3-inside-3_451_360)"/>
</g>
<g className='el shapes hoverEvent' id="11" onMouseOver={()=>handleMouseOver(11)} onMouseOut={()=>handleMouseOut(11)}>
<g className='el shapes' id="11_2">

<path d="M1387.91 399.614C1385.24 400.987 1382.48 402.001 1379.52 401.726C1375.79 401.38 1372.62 399.021 1369.15 397.616C1365.68 396.211 1360.98 396.117 1358.93 399.215C1357.34 401.62 1358.1 404.793 1358.91 407.551C1362.83 420.921 1366.74 434.291 1370.66 447.661C1371.88 451.822 1373.13 456.048 1375.49 459.698C1377.77 463.223 1381.27 466.199 1385.41 466.954C1385.8 467.025 1386.2 467.015 1386.58 466.919C1393.64 465.144 1399.86 460.366 1404 454.378C1408.82 447.411 1411.07 438.953 1411.75 430.536C1412.42 422.12 1411.62 413.663 1410.82 405.258C1410.5 401.905 1410.02 398.225 1407.51 395.95C1403.8 392.586 1397.81 394.105 1393.41 396.523C1391.6 397.518 1389.78 398.651 1387.91 399.61L1387.91 399.614Z" fill="#B2E1F1" stroke="black" stroke-width="2" mask="url(#path-4-inside-4_451_360)"/>
{nameImg&&<image className='textBox' x="1050" y="440" width="320" height="320" xlinkHref={textBox11} />}
</g>
</g>
<g className='el shapes' id="10">

<path d="M1373.82 850.534C1373.25 861.269 1375.41 872.159 1380.27 881.762C1381.91 885.005 1383.91 888.558 1382.91 892.051C1382.16 894.659 1379.83 896.582 1377.28 897.539C1374.74 898.5 1371.96 898.646 1369.24 898.784C1361.82 899.16 1354.4 899.534 1346.98 899.91C1342.89 900.118 1338.37 900.186 1335.24 897.548C1332.23 895.007 1331.47 890.548 1332.34 886.715C1333.21 882.881 1335.43 879.511 1337.61 876.235C1342.9 868.297 1346.09 861.341 1351.06 853.551C1351.83 852.342 1351.83 850.796 1351.06 849.591C1345.48 840.923 1340.34 831.974 1335.67 822.789C1334.12 819.737 1332.59 816.563 1332.34 813.152C1332.1 809.741 1333.42 805.999 1336.4 804.304C1338.47 803.13 1340.97 803.093 1343.35 803.084C1351.72 803.055 1360.1 803.029 1368.48 803.001C1372.96 802.985 1377.94 803.167 1381.12 806.309C1383.97 809.122 1384.48 813.611 1383.62 817.51C1382.76 821.409 1380.74 824.939 1379.1 828.58C1375.98 835.486 1374.22 842.972 1373.82 850.531L1373.82 850.534Z" fill="#DAF1DD" stroke="black" stroke-width="2" mask="url(#path-5-inside-5_451_360)"/>
</g>
<g className='el shapes' id="9">

<path d="M1080.04 247.002C1078.97 247.43 1073.27 246.374 1067.32 248.474C1061.54 250.762 1055.5 256.208 1057.6 273.935C1059.5 286.22 1050.15 291.919 1050.01 300.1C1049.89 303.929 1050.62 314.269 1055.12 322.005C1057.3 325.842 1060.24 328.893 1063.9 330.443C1067.58 332.066 1071.99 332.192 1077.4 331.837C1087.2 330.823 1095.87 333.497 1103.21 329.87C1110.32 326.677 1116.1 317.183 1114.82 301.849C1114.41 297.062 1112.76 292.508 1110.21 288.689C1108.21 285.623 1105.95 280.929 1106.58 273.834C1107.14 267.769 1107.9 258.744 1104.43 252.923C1102.74 250.058 1100.1 248.165 1096.17 247.502C1092.24 246.747 1087.03 247.22 1080.04 247L1080.04 247.002Z" fill="#FED7D8" stroke="black" stroke-width="2" mask="url(#path-6-inside-6_451_360)"/>
</g>
<g className='el shapes' id="8">

<path d="M991.618 656.039C986.544 655.769 981.564 656.875 977.828 660.341C973.659 664.207 971.93 670.329 972.002 676.158C972.075 681.986 973.732 687.651 975.372 693.222C980.19 709.567 985.006 725.91 989.825 742.256C990.074 743.099 990.327 743.95 990.626 744.78C992.151 748.997 996.664 751.091 1000.67 749.43C1001.41 749.12 1001.88 748.34 1001.81 747.506C1000.51 730.851 1004.12 713.801 1012.05 699.292C1015.71 692.582 1020.45 685.747 1019.97 678.033C1019.33 667.93 1009.92 660.883 1000.69 657.829C997.802 656.873 994.692 656.204 991.616 656.041L991.618 656.039Z" fill="#CDDAFD" stroke="black" stroke-width="2" mask="url(#path-7-inside-7_451_360)"/>
</g>
<g className='el shapes' id="7">

<path d="M39.9324 836.874C38.5247 828.731 37.1171 820.586 35.7095 812.443C34.8645 807.55 33.9819 802.552 31.5494 798.216C29.1169 793.88 24.7978 790.255 19.8032 790.013C14.1372 789.737 8.91036 794.042 7.00914 799.345C5.10791 804.649 6.07212 810.631 8.41048 815.76C10.0649 819.388 12.3552 822.672 14.8169 825.831C17.1344 828.804 18.3036 832.501 18.0839 836.254C17.6405 843.849 17.1992 851.442 16.7558 859.037C16.5006 863.406 16.2915 868.01 18.268 871.923C20.5813 876.506 25.8834 879.368 31.0328 878.962C36.1822 878.555 40.9028 874.987 42.8166 870.227C44.7743 865.357 43.9105 859.875 43.0174 854.707C41.9904 848.762 40.9614 842.819 39.9344 836.874H39.9324Z" fill="#CDDAFD" stroke="black" stroke-width="2" mask="url(#path-8-inside-8_451_360)"/>
</g>
<g className='el shapes' id="6">

<path d="M573.695 835.479C572.462 835.721 567.967 836.133 561.953 838.382C556.089 841.007 548.708 845.467 545.107 862.521C541.794 879.957 546.453 893.517 551.99 900.181C557.773 907.271 564.433 907.464 570.791 908C577.125 907.55 584.458 907.794 590.998 902.017C597.316 896.653 602.845 885.267 600.415 871.109C598.194 857.824 594.79 847.236 590.547 841.407C586.232 835.402 581.075 834.156 573.697 835.479H573.695Z" fill="#DAF1DD" stroke="black" stroke-width="2" mask="url(#path-9-inside-9_451_360)"/>
</g>
<g className='el shapes' id="5">

<path d="M525.312 643.595C524.307 643.573 523.331 643.426 522.405 643.137C517.196 641.511 514.27 635.604 513.929 629.076C513.588 622.547 515.476 615.474 517.925 608.729C521.08 600.043 525.368 591.341 531.597 584.647C535.726 580.21 540.831 576.796 545.819 575.45C546.502 575.267 547.155 574.992 547.781 574.663C551.463 572.731 555.027 574.952 557.126 577.917C561.726 584.415 562.504 594.421 560.104 604.092C557.704 613.763 552.364 623.059 545.848 630.788C542.54 634.713 538.852 638.332 534.765 640.751C531.69 642.57 528.361 643.662 525.31 643.596L525.312 643.595Z" fill="#F3EFA3" stroke="black" stroke-width="2" mask="url(#path-10-inside-10_451_360)"/>
</g>
<g>

<path className='el shapes hoverEvent' id="4" onMouseOver={()=>handleMouseOver(4)} onMouseOut={()=>handleMouseOut(4)} d="M217.925 533.582C217.871 532.413 217.826 531.245 217.783 530.077C217.576 524.589 217.369 519.099 217.162 513.611C216.97 508.482 216.779 503.306 217.661 498.252C218.543 493.198 220.594 488.204 224.282 484.67C227.626 481.466 232.306 479.632 236.897 480.062C241.488 480.493 245.869 483.298 247.92 487.464C250.215 492.123 249.481 497.631 249.079 502.818C248.676 508.004 247.729 514.195 251.291 517.958L251.853 518.55C258.42 524.643 262.903 533.257 262.999 542.25C263.096 551.447 258.146 560.805 249.967 564.866C244.135 567.761 236.891 567.764 231.227 564.546C225.641 561.374 221.986 555.471 220.134 549.278C218.617 544.203 218.17 538.891 217.924 533.58L217.925 533.582Z" fill="#FED7D8" stroke="black" stroke-width="2" mask="url(#path-11-inside-11_451_360)"/>
</g>
<g className='el shapes hoverEvent' id="3" onMouseOver={()=>handleMouseOver(3)} onMouseOut={()=>handleMouseOut(3)}>
<g id="3_2">

<path d="M683.086 347.316C684.282 347.73 685.45 348.215 686.587 348.769C690.397 350.63 694.801 353.298 698.528 351.278C700.585 350.162 701.718 347.823 701.946 345.518C702.175 343.214 701.636 340.911 701.076 338.662C696.013 318.38 688.82 298.615 679.647 279.786C678.959 278.372 677.804 276.791 676.478 276.182C675.503 275.733 674.337 276.146 673.825 277.081C664.573 293.965 657.298 312.025 653.653 330.875C653.139 333.53 652.742 336.263 653.204 338.927C653.665 341.591 655.11 344.21 657.514 345.512C660.823 347.304 664.879 346.233 668.626 345.772C673.481 345.175 678.473 345.719 683.088 347.316H683.086Z" fill="#B2E1F1" stroke="black" stroke-width="2" mask="url(#path-12-inside-12_451_360)"
onClick={()=>{navigate('/avatar/0')}}/>
</g>
</g>
<g className='el shapes' id="2">

<path d="M399.892 65.832C397.579 67.4346 395.61 69.5256 394.438 72.0968C392.587 76.1605 392.918 80.8643 393.289 85.3311C394.611 101.305 395.933 117.279 397.256 133.253C397.419 135.211 397.75 137.462 399.394 138.478C400.714 139.295 402.397 138.99 403.907 138.657C409.632 137.397 415.106 136.292 420.724 135.099C423.708 134.465 426.148 132.276 427.149 129.333C433.582 110.432 434.76 89.6795 430.438 70.1555C429.753 67.0584 428.792 63.7659 426.337 61.8183C423.063 59.2221 418.414 59.9268 414.352 60.7624C410.478 61.5585 406.564 62.367 402.975 64.0569C401.909 64.5599 400.869 65.1502 399.89 65.8279L399.892 65.832Z" fill="#CDDAFD" stroke="black" stroke-width="2" mask="url(#path-13-inside-13_451_360)"/>
</g>
<g className='el shapes' id="1">

<path d="M23.9931 294.435C22.6322 292.78 21.0283 291.31 18.9561 291.043C15.4899 290.598 12.6908 293.673 10.57 296.447C5.74734 302.753 0.73689 309.534 0.076341 317.439C-0.303641 321.974 0.800958 326.486 1.92765 330.895C5.36736 344.356 8.10676 356.653 12.0568 369.879C12.5671 371.584 14.4869 372.496 16.0908 371.721C16.1549 371.69 16.2167 371.657 16.2786 371.624C17.4517 370.969 18.2646 369.835 19.0379 368.738C25.0756 360.175 31.1133 351.614 37.1488 343.05C40.6239 338.123 44.2514 332.702 43.9863 326.68C43.7477 321.259 40.3875 316.539 37.1599 312.175C33.1458 306.747 29.1317 301.319 25.1176 295.891C24.7597 295.406 24.3863 294.914 23.9931 294.435Z" fill="#DAF1DD" stroke="black" stroke-width="2" mask="url(#path-14-inside-14_451_360)"/>
</g>
</g>
</svg>
