<svg width="123" height="87" viewBox="0 0 123 87" fill="none" xmlns="http://www.w3.org/2000/svg">
<path d="M110.935 1.59892C109.372 12.409 108.728 23.3281 109.105 34.2446C109.484 45.1839 110.841 56.108 113.15 66.8118C114.433 72.7614 116.021 78.6452 117.902 84.4352C118.259 85.5345 119.46 86.3576 120.636 85.9802C121.741 85.6256 122.571 84.4377 122.189 83.26C118.88 73.0603 116.482 62.5743 115.034 51.9542C115.084 52.3214 114.97 51.4704 114.962 51.4045C114.922 51.1006 114.883 50.7967 114.845 50.4927C114.759 49.8089 114.677 49.125 114.601 48.4411C114.446 47.0709 114.305 45.7006 114.181 44.3278C113.944 41.6987 113.763 39.062 113.639 36.4254C113.392 31.1115 113.376 25.7875 113.598 20.4711C113.723 17.4494 113.926 14.4328 114.204 11.4212C114.341 9.93447 114.496 8.45023 114.672 6.96852C114.761 6.20867 114.855 5.44882 114.955 4.68897C114.975 4.537 114.995 4.38503 115.016 4.23306C114.975 4.54207 115.028 4.13935 115.044 4.02537C115.102 3.60745 115.161 3.19207 115.222 2.77415C115.387 1.63438 114.939 0.342631 113.669 0.0538882C112.618 -0.184198 111.113 0.373025 110.935 1.59892Z" fill="black"/>
<path d="M11.3483 1.59892C12.9112 12.409 13.5553 23.3281 13.1785 34.2446C12.7992 45.1839 11.4424 56.108 9.13362 66.8118C7.85066 72.7614 6.26225 78.6452 4.38109 84.4352C4.02471 85.5345 2.82321 86.3576 1.64717 85.9802C0.542394 85.6256 -0.287482 84.4377 0.0943518 83.26C3.40357 73.0603 5.80151 62.5743 7.24994 51.9542C7.19902 52.3214 7.31355 51.4704 7.32119 51.4045C7.36192 51.1006 7.40012 50.7967 7.4383 50.4927C7.52485 49.8089 7.6063 49.125 7.68267 48.4411C7.83795 47.0709 7.97796 45.7006 8.10269 44.3278C8.33943 41.6987 8.52016 39.062 8.64489 36.4254C8.89181 31.1115 8.90706 25.7875 8.6856 20.4711C8.56087 17.4494 8.35725 14.4328 8.07979 11.4212C7.94233 9.93447 7.78703 8.45023 7.61138 6.96852C7.52229 6.20867 7.42811 5.44882 7.32883 4.68897C7.30847 4.537 7.2881 4.38503 7.26774 4.23306C7.30847 4.54207 7.25502 4.13935 7.23974 4.02537C7.18119 3.60745 7.12266 3.19207 7.06157 2.77415C6.89611 1.63438 7.34412 0.342631 8.61435 0.0538882C9.66566 -0.184198 11.1701 0.373025 11.3483 1.59892Z" fill="black"/>
</svg>
