<svg xmlns="http://www.w3.org/2000/svg" width="117" height="202" viewBox="0 0 117 202" fill="none">
<g clip-path="url(#clip0_451_547)">
<path d="M79.4093 0.449892C76.9293 3.04989 74.3593 5.77989 73.1893 9.24989C72.2493 12.0099 72.4693 15.3499 74.1893 17.7799C78.7393 24.1899 86.3993 18.0299 91.3993 15.8499C98.1893 12.8999 106.199 16.1199 110.329 21.9699C114.949 28.4999 115.209 37.0599 113.349 44.5899C111.489 52.1199 107.999 58.6099 104.619 65.2599C101.729 70.9399 98.7293 76.5799 95.5693 82.1199C92.4093 87.6599 89.0993 93.1499 85.4193 98.3599C82.6493 102.28 79.5893 106.53 75.6293 109.35C73.4693 110.89 71.1293 111.45 68.9393 109.59C66.6193 107.62 65.2493 104.55 64.1593 101.78C62.0393 96.3999 59.8093 91.0699 57.7093 85.6799C55.4993 79.9799 53.3793 74.2099 51.8893 68.2799C50.8593 64.1599 49.6193 59.0999 51.0393 54.9199C52.1193 51.7399 55.6193 50.4399 58.1093 52.9999C61.1193 56.0999 61.9793 61.3199 62.6393 65.3999C64.6593 77.7299 64.3093 90.7299 60.5093 102.66C55.3293 118.93 45.5193 133.22 40.0093 149.36C35.4193 162.81 34.1793 178.4 41.6093 191.12C43.2693 193.97 45.3593 196.55 47.8193 198.75C48.4193 199.29 49.2993 198.4 48.6993 197.87C37.1993 187.56 35.7293 170.57 39.2293 156.38C43.4293 139.35 53.5493 124.64 59.7993 108.39C62.6793 100.92 64.6193 93.1699 64.9393 85.1399C65.1593 79.6199 64.9693 74.0599 64.3293 68.5799C63.7693 63.7999 62.9893 58.6299 60.6093 54.3699C59.0593 51.5999 55.9893 49.1399 52.7293 50.8899C49.4693 52.6399 49.0593 57.0899 49.2793 60.4199C49.6293 65.9699 51.3193 71.4399 53.0893 76.6799C55.1293 82.7299 57.5193 88.6499 59.9193 94.5599C60.9793 97.1699 62.0193 99.7799 63.0593 102.39C64.0993 105 65.4793 107.99 67.6193 110.08C69.5093 111.92 71.9693 112.67 74.4393 111.53C76.1793 110.72 77.6993 109.4 79.0693 108.07C83.0293 104.21 86.2493 99.5499 89.2693 94.9399C96.3493 84.1299 102.399 72.6399 108.139 61.0699C111.819 53.6499 115.349 45.8099 115.689 37.4099C115.979 30.2099 113.819 22.4299 108.069 17.7099C105.469 15.5699 102.319 14.0899 98.9793 13.6299C95.6393 13.1699 92.4293 13.9199 89.3793 15.4599C86.3293 16.9999 82.5293 19.9499 78.7793 19.3099C75.0293 18.6699 73.4093 14.4199 74.0493 10.9599C74.7693 7.09989 77.7093 4.07989 80.3093 1.34989C80.8693 0.769893 79.9793 -0.120108 79.4293 0.469892L79.4093 0.449892Z" fill="#231815"/>
<path d="M44.9907 0.589908C45.9807 8.04991 41.8107 14.9799 36.5107 19.8899C30.6507 25.3199 23.3707 28.8499 17.0607 33.6699C11.7807 37.6999 6.8807 42.9699 5.1107 49.5299C3.1107 56.9399 6.0107 64.3899 9.8207 70.6899C13.8807 77.3899 19.1407 83.4799 21.4407 91.0899C23.7407 98.6999 23.1807 107.04 21.2607 114.76C17.3707 130.41 7.9307 143.88 2.9607 159.13C-1.0393 171.41 -1.8493 186.37 5.9907 197.39C6.9107 198.68 7.9307 199.88 9.0407 201C9.6107 201.57 10.4907 200.69 9.9207 200.12C0.160699 190.3 -0.249301 174.88 3.3207 162.27C7.6607 146.93 17.0307 133.6 21.5807 118.33C23.7407 111.08 24.8907 103.38 23.7707 95.8399C22.6507 88.2999 18.6507 81.7199 14.3507 75.3599C10.0507 68.9999 5.3807 61.8699 5.7007 53.8399C5.9907 46.5099 10.8607 40.3899 16.2807 35.8799C22.2307 30.9399 29.2707 27.4999 35.2707 22.6099C40.5807 18.2899 45.2407 12.3899 46.2207 5.42991C46.4507 3.81991 46.4507 2.19991 46.2407 0.589908C46.1407 -0.200092 44.8807 -0.210092 44.9907 0.589908Z" fill="#231815"/>
<path d="M109.139 55.8399C100.419 73.4399 91.4491 91.5099 88.9491 111.23C87.7791 120.43 88.0391 129.89 90.3991 138.89C92.8691 148.32 98.0091 156.28 103.429 164.26C109.509 173.22 115.859 183.09 115.429 194.37C115.399 195.17 116.649 195.17 116.679 194.37C117.439 174.55 99.4491 160.98 93.1491 143.53C86.5591 125.27 89.7591 105.26 96.2491 87.4699C100.139 76.8099 105.189 66.6299 110.219 56.4699C110.579 55.7499 109.499 55.1199 109.139 55.8399Z" fill="#231815"/>
</g>
<defs>
<clipPath id="clip0_451_547">
<rect width="116.7" height="201.2" fill="white"/>
</clipPath>
</defs>
</svg>