<svg width="320" height="320" viewBox="0 0 320 320" fill="none" xmlns="http://www.w3.org/2000/svg">
<mask id="path-1-inside-1_189_12" fill="white">
<path fill-rule="evenodd" clip-rule="evenodd" d="M160 320C248.366 320 320 248.366 320 160C320 71.6344 248.366 0 160 0C117.721 0 79.2724 16.3984 50.6671 43.1818L26.4303 31.5448C24.6901 30.7092 22.8931 32.5801 23.798 34.2852L36.5156 58.2501C13.703 85.9039 0 121.352 0 160C0 248.366 71.6344 320 160 320Z"/>
</mask>
<path fill-rule="evenodd" clip-rule="evenodd" d="M160 320C248.366 320 320 248.366 320 160C320 71.6344 248.366 0 160 0C117.721 0 79.2724 16.3984 50.6671 43.1818L26.4303 31.5448C24.6901 30.7092 22.8931 32.5801 23.798 34.2852L36.5156 58.2501C13.703 85.9039 0 121.352 0 160C0 248.366 71.6344 320 160 320Z" fill="white"/>
<path d="M50.6671 43.1818L50.2343 44.0833L50.8511 44.3794L51.3506 43.9118L50.6671 43.1818ZM26.4303 31.5448L26.8631 30.6433L26.8631 30.6433L26.4303 31.5448ZM23.798 34.2852L24.6813 33.8165L24.6813 33.8165L23.798 34.2852ZM36.5156 58.2501L37.287 58.8864L37.712 58.3713L37.399 57.7813L36.5156 58.2501ZM319 160C319 247.813 247.813 319 160 319V321C248.918 321 321 248.918 321 160H319ZM160 1C247.813 1 319 72.1867 319 160H321C321 71.0822 248.918 -1 160 -1V1ZM51.3506 43.9118C79.778 17.295 117.985 1 160 1V-1C117.457 -1 78.7669 15.5018 49.9836 42.4518L51.3506 43.9118ZM25.9975 32.4462L50.2343 44.0833L51.0999 42.2803L26.8631 30.6433L25.9975 32.4462ZM24.6813 33.8165C24.2289 32.9639 25.1274 32.0285 25.9975 32.4462L26.8631 30.6433C24.2528 29.39 21.5573 32.1963 22.9146 34.754L24.6813 33.8165ZM37.399 57.7813L24.6813 33.8165L22.9146 34.754L35.6323 58.7188L37.399 57.7813ZM1 160C1 121.592 14.6168 86.3677 37.287 58.8864L35.7442 57.6137C12.7893 85.4401 -1 121.111 -1 160H1ZM160 319C72.1867 319 1 247.813 1 160H-1C-1 248.918 71.0822 321 160 321V319Z" fill="black" mask="url(#path-1-inside-1_189_12)"/>
<path d="M60.92 83V68.28H63.26V81.04H69.5V83H60.92ZM76.9697 83.28C73.1697 83.28 70.5497 80.34 70.5497 75.58C70.5497 70.84 73.1697 68.02 76.9697 68.02C80.7497 68.02 83.3697 70.84 83.3697 75.58C83.3697 80.34 80.7497 83.28 76.9697 83.28ZM76.9697 81.24C79.4097 81.24 80.9897 79.02 80.9897 75.58C80.9897 72.14 79.4097 70.04 76.9697 70.04C74.5097 70.04 72.9497 72.14 72.9497 75.58C72.9497 79.02 74.5097 81.24 76.9697 81.24ZM86.4278 83V68.28H89.1078L91.7878 75.74C92.1478 76.7 92.4478 77.7 92.7878 78.7H92.8678C93.2278 77.7 93.5078 76.7 93.8278 75.74L96.4878 68.28H99.1678V83H97.0278V75.74C97.0278 74.4 97.2078 72.52 97.3278 71.18H97.2478L96.0478 74.58L93.4878 81.6H92.0478L89.4878 74.58L88.3078 71.18H88.2278C88.3478 72.52 88.5278 74.4 88.5278 75.74V83H86.4278ZM108.649 83.28C104.849 83.28 102.229 80.34 102.229 75.58C102.229 70.84 104.849 68.02 108.649 68.02C112.429 68.02 115.049 70.84 115.049 75.58C115.049 80.34 112.429 83.28 108.649 83.28ZM108.649 81.24C111.089 81.24 112.669 79.02 112.669 75.58C112.669 72.14 111.089 70.04 108.649 70.04C106.189 70.04 104.629 72.14 104.629 75.58C104.629 79.02 106.189 81.24 108.649 81.24ZM123.008 67.66C125.868 67.66 127.947 69.46 127.947 72.04C127.947 74.64 125.868 76.44 123.008 76.44C120.148 76.44 118.028 74.64 118.028 72.04C118.028 69.46 120.148 67.66 123.008 67.66ZM123.008 69.46C121.327 69.46 120.088 70.46 120.088 72.04C120.088 73.62 121.327 74.64 123.008 74.64C124.668 74.64 125.908 73.62 125.908 72.04C125.908 70.46 124.668 69.46 123.008 69.46ZM130.048 66.36H132.148V84.68H130.048V66.36ZM117.448 80.82L117.188 79.1C120.468 79.1 125.008 79.06 128.948 78.48L129.108 80C125.068 80.78 120.668 80.82 117.448 80.82ZM154.691 66.38H156.691V84.66H154.691V66.38ZM148.311 72.8H151.611V74.52H148.311V72.8ZM151.011 66.74H152.971V83.76H151.011V66.74ZM144.611 69.28H146.211V71.4C146.211 75.44 144.851 79.36 142.071 81.12L140.811 79.56C143.411 77.96 144.611 74.66 144.611 71.4V69.28ZM145.071 69.28H146.651V71.4C146.651 74.52 147.811 77.64 150.371 79.14L149.131 80.68C146.351 79.02 145.071 75.32 145.071 71.4V69.28ZM141.391 68.38H149.651V70.08H141.391V68.38ZM163.81 68.26H165.53V69.58C165.53 72.98 163.67 75.92 160.43 77.02L159.33 75.4C162.21 74.42 163.81 72.06 163.81 69.58V68.26ZM164.21 68.26H165.91V69.58C165.91 71.88 167.45 74.12 170.25 75.04L169.19 76.68C165.99 75.6 164.21 72.78 164.21 69.58V68.26ZM159.93 67.56H169.75V69.26H159.93V67.56ZM171.67 66.38H173.77V77.38H171.67V66.38ZM173.19 71.02H176.35V72.76H173.19V71.02ZM161.75 78.28H173.77V84.66H171.67V79.98H161.75V78.28ZM182.228 69.12H183.888V71.68C183.888 75.62 181.828 79.66 178.748 81.18L177.548 79.52C180.348 78.18 182.228 74.74 182.228 71.68V69.12ZM182.648 69.12H184.308V71.68C184.308 74.52 186.088 77.76 188.888 79.06L187.708 80.72C184.628 79.24 182.648 75.42 182.648 71.68V69.12ZM178.228 68.2H188.168V69.94H178.228V68.2ZM189.968 66.38H192.068V84.66H189.968V66.38ZM191.588 73.58H194.908V75.32H191.588V73.58ZM209.267 66.38H211.367V76.2H209.267V66.38ZM199.427 77.06H201.487V79.04H209.287V77.06H211.367V84.44H199.427V77.06ZM201.487 80.68V82.76H209.287V80.68H201.487ZM201.507 67.2C204.307 67.2 206.347 68.94 206.347 71.46C206.347 73.96 204.307 75.72 201.507 75.72C198.707 75.72 196.647 73.96 196.647 71.46C196.647 68.94 198.707 67.2 201.507 67.2ZM201.507 68.94C199.867 68.94 198.687 69.94 198.687 71.46C198.687 72.98 199.867 73.98 201.507 73.98C203.147 73.98 204.307 72.98 204.307 71.46C204.307 69.94 203.147 68.94 201.507 68.94ZM227.705 66.38H229.785V84.66H227.705V66.38ZM215.765 68.14H217.845V79.48H215.765V68.14ZM215.765 78.24H217.325C220.045 78.24 222.965 78.04 226.025 77.42L226.265 79.18C223.105 79.84 220.165 80.04 217.325 80.04H215.765V78.24ZM245.164 66.36H247.264V84.68H245.164V66.36ZM246.784 73.38H250.104V75.12H246.784V73.38ZM233.844 78.46H235.324C238.564 78.46 240.964 78.34 243.664 77.84L243.884 79.6C241.084 80.1 238.644 80.2 235.324 80.2H233.844V78.46ZM233.844 68.1H242.344V69.8H235.924V79.26H233.844V68.1ZM253.562 83.28C252.682 83.28 252.022 82.6 252.022 81.66C252.022 80.7 252.682 80.04 253.562 80.04C254.422 80.04 255.102 80.7 255.102 81.66C255.102 82.6 254.422 83.28 253.562 83.28Z" fill="black"/>
<path d="M65.8492 191.361C85.0131 191.361 100.549 176.711 100.549 158.64C100.549 140.569 85.0131 125.919 65.8492 125.919C46.6854 125.919 31.15 140.569 31.15 158.64C31.15 176.711 46.6854 191.361 65.8492 191.361Z" fill="#FCF6E6"/>
<path d="M88.3771 180.532C93.0273 180.532 96.797 176.775 96.797 172.141C96.797 167.507 93.0273 163.75 88.3771 163.75C83.7269 163.75 79.9572 167.507 79.9572 172.141C79.9572 176.775 83.7269 180.532 88.3771 180.532Z" fill="#FED5DA"/>
<path d="M42.6023 180.532C47.2525 180.532 51.0222 176.775 51.0222 172.141C51.0222 167.507 47.2525 163.75 42.6023 163.75C37.9521 163.75 34.1824 167.507 34.1824 172.141C34.1824 176.775 37.9521 180.532 42.6023 180.532Z" fill="#FED5DA"/>
<path d="M57.1821 164.068C59.027 164.068 60.5226 162.121 60.5226 159.719C60.5226 157.318 59.027 155.371 57.1821 155.371C55.3372 155.371 53.8416 157.318 53.8416 159.719C53.8416 162.121 55.3372 164.068 57.1821 164.068Z" fill="black"/>
<path d="M75.1185 164.068C76.9634 164.068 78.459 162.121 78.459 159.719C78.459 157.318 76.9634 155.371 75.1185 155.371C73.2736 155.371 71.778 157.318 71.778 159.719C71.778 162.121 73.2736 164.068 75.1185 164.068Z" fill="black"/>
<path d="M58.1451 160.049C58.76 160.049 59.2586 159.553 59.2586 158.94C59.2586 158.327 58.76 157.83 58.1451 157.83C57.5301 157.83 57.0316 158.327 57.0316 158.94C57.0316 159.553 57.5301 160.049 58.1451 160.049Z" fill="white"/>
<path d="M76.2622 160.049C76.8772 160.049 77.3757 159.553 77.3757 158.94C77.3757 158.327 76.8772 157.83 76.2622 157.83C75.6472 157.83 75.1487 158.327 75.1487 158.94C75.1487 159.553 75.6472 160.049 76.2622 160.049Z" fill="white"/>
<path d="M53.2113 171.109C46.9263 171.109 41.8132 166.013 41.8132 159.749C41.8132 153.486 46.9263 148.39 53.2113 148.39C59.4963 148.39 64.6094 153.486 64.6094 159.749C64.6094 166.013 59.4963 171.109 53.2113 171.109ZM53.2113 149.891C47.7563 149.891 43.318 154.313 43.318 159.75C43.318 165.187 47.7557 169.61 53.2113 169.61C58.6669 169.61 63.1047 165.187 63.1047 159.75C63.1047 154.313 58.6669 149.891 53.2113 149.891Z" fill="black"/>
<path d="M78.4874 171.109C72.2024 171.109 67.0893 166.013 67.0893 159.749C67.0893 153.486 72.2024 148.39 78.4874 148.39C84.7724 148.39 89.8855 153.486 89.8855 159.749C89.8855 166.013 84.7724 171.109 78.4874 171.109ZM78.4874 149.891C73.0324 149.891 68.594 154.313 68.594 159.75C68.594 165.187 73.0318 169.61 78.4874 169.61C83.943 169.61 88.3807 165.187 88.3807 159.75C88.3807 154.313 83.943 149.891 78.4874 149.891Z" fill="black"/>
<path d="M67.8422 159H63.8571V160.499H67.8422V159Z" fill="black"/>
<path d="M59.6258 171.626C59.5511 172.024 59.5511 172.398 59.6203 172.796C59.6787 173.134 59.8087 173.465 59.9761 173.763C60.3179 174.374 60.8717 174.879 61.5163 175.157C61.7035 175.237 61.8913 175.312 62.0881 175.364C62.2849 175.416 62.4998 175.447 62.7087 175.472C63.077 175.515 63.4442 175.488 63.8089 175.426C64.5113 175.307 65.1831 174.947 65.6766 174.436C66.237 173.857 66.5879 173.087 66.6023 172.278C66.1888 172.334 65.7747 172.39 65.3612 172.446C65.676 173.7 66.6962 174.73 67.9452 175.073C68.597 175.252 69.3157 175.256 69.9669 175.07C70.2817 174.979 70.5959 174.845 70.8662 174.659C71.1767 174.447 71.4235 174.202 71.6486 173.903C71.8515 173.634 72.0025 173.313 72.088 172.99C72.1897 172.606 72.1933 172.222 72.1229 171.834C72.0964 171.687 71.9574 171.531 71.8322 171.458C71.6968 171.378 71.497 171.345 71.3453 171.394C71.1936 171.443 71.0449 171.538 70.9673 171.684C70.8836 171.841 70.8722 171.994 70.9035 172.169C70.9083 172.197 70.9131 172.225 70.9173 172.253L70.8945 172.086C70.9155 172.248 70.9155 172.41 70.8951 172.571L70.9179 172.404C70.8926 172.588 70.8427 172.766 70.7711 172.938L70.8349 172.787C70.7572 172.969 70.6567 173.137 70.5363 173.293L70.635 173.165C70.5104 173.324 70.3678 173.466 70.2089 173.589L70.3371 173.491C70.1704 173.619 69.9886 173.723 69.796 173.806L69.9471 173.742C69.7087 173.843 69.4589 173.908 69.2031 173.943L69.3711 173.92C69.0876 173.956 68.8017 173.955 68.5182 173.917L68.6861 173.94C68.4207 173.903 68.1618 173.834 67.9139 173.731L68.0649 173.795C67.8212 173.692 67.5937 173.558 67.3842 173.397L67.5124 173.496C67.3035 173.333 67.1164 173.146 66.9544 172.936L67.0532 173.064C66.8955 172.858 66.7636 172.633 66.6613 172.395L66.7251 172.545C66.6655 172.404 66.6168 172.258 66.5795 172.11C66.503 171.805 66.1876 171.618 65.8861 171.659C65.5845 171.699 65.3438 171.961 65.3384 172.277C65.3366 172.369 65.3299 172.46 65.3173 172.552L65.3402 172.385C65.3101 172.597 65.2517 172.802 65.1686 173L65.2324 172.85C65.1403 173.063 65.0218 173.263 64.8797 173.447L64.9784 173.319C64.8316 173.506 64.663 173.673 64.4752 173.819L64.6034 173.721C64.4096 173.868 64.1996 173.991 63.9751 174.086L64.1261 174.022C63.8794 174.124 63.6211 174.192 63.3563 174.228L63.5242 174.205C63.2335 174.242 62.9404 174.241 62.6503 174.203L62.8182 174.226C62.5383 174.187 62.2645 174.114 62.0039 174.004L62.1549 174.068C61.9346 173.974 61.7282 173.855 61.538 173.709L61.6662 173.808C61.488 173.669 61.3285 173.509 61.1895 173.331L61.2882 173.459C61.1486 173.278 61.033 173.081 60.9427 172.871L61.0065 173.022C60.9192 172.814 60.8584 172.598 60.8271 172.376L60.85 172.543C60.8223 172.336 60.8211 172.128 60.8476 171.921L60.8247 172.088C60.8308 172.045 60.8374 172.003 60.8458 171.96C60.8777 171.791 60.8717 171.628 60.782 171.475C60.7056 171.344 60.5551 171.219 60.404 171.185C60.2421 171.149 60.0609 171.156 59.9171 171.249C59.7853 171.333 59.6565 171.466 59.6264 171.626H59.6258Z" fill="#F08384"/>
<path d="M57.6517 126.365C59.9425 125.344 61.7909 123.362 62.6293 121.04C62.8484 122.79 63.0669 124.539 63.286 126.289C68.6062 122.012 76.3032 121.092 82.8217 123.262C89.3403 125.432 94.661 130.415 97.9353 136.341C101.21 142.266 102.558 149.075 102.677 155.81C102.739 159.346 101.55 163.276 98.9062 165.688C98.5697 156.93 94.091 148.481 86.3013 144.152C87.4389 147.004 89.8284 149.354 92.7374 150.482C86.6799 151.975 79.7683 148.834 77.0279 143.343C77.1916 143.852 77.3553 144.361 77.519 144.87C76.2894 146.374 75.0597 147.878 73.83 149.382C73.3653 146.561 72.9007 143.741 72.436 140.921C70.4474 143.384 68.4587 145.847 66.4694 148.31C65.1206 146.826 63.7711 145.344 62.4223 143.86C62.5878 144.95 62.7533 146.04 62.9189 147.13C58.9686 146.802 55.1953 144.789 52.7757 141.718C51.0615 145.222 48.1459 148.153 44.6104 149.924C44.36 147.391 44.109 144.858 43.8586 142.325C41.3511 146.093 40.2954 150.763 40.9455 155.215C39.6875 152.819 38.4289 150.425 37.171 148.03C33.8304 152.888 31.9176 158.674 31.7184 164.526C28.5693 160.318 28.6325 158.658 27.8614 153.497C27.0904 148.337 28.5518 141.908 31.7316 137.722C36.1273 131.937 45.2376 125.961 52.1389 128.486C51.3534 126.343 50.8719 127.131 50.0864 124.987C53.507 126.968 53.7056 125.89 57.6511 126.364L57.6517 126.365Z" fill="#827A36" fill-opacity="0.1"/>
<path d="M57.7841 124.569C60.1357 123.501 62.0329 121.429 62.893 119C63.1175 120.83 63.342 122.659 63.5665 124.488C69.0269 120.016 76.9274 119.053 83.618 121.323C90.3087 123.593 95.7697 128.804 99.1307 134.999C102.492 141.196 103.876 148.315 103.998 155.358C104.061 159.055 102.841 163.165 100.127 165.687C99.7819 156.529 95.1853 147.695 87.1897 143.168C88.3574 146.15 90.8101 148.607 93.7961 149.787C87.5791 151.348 80.4846 148.064 77.6719 142.322C77.8399 142.854 78.0078 143.387 78.1763 143.919C76.9141 145.492 75.652 147.064 74.3898 148.637C73.9131 145.688 73.4358 142.739 72.9591 139.79C70.9181 142.365 68.8764 144.941 66.8354 147.516C65.4504 145.965 64.0661 144.414 62.6811 142.863C62.8508 144.003 63.0206 145.143 63.1903 146.282C59.136 145.94 55.2628 143.834 52.7793 140.622C51.02 144.287 48.0274 147.351 44.3985 149.204C44.1415 146.555 43.8839 143.906 43.6269 141.258C41.0532 145.198 39.9698 150.082 40.6367 154.736C39.3456 152.232 38.054 149.728 36.7629 147.223C33.3339 152.304 31.3711 158.355 31.1665 164.474C27.9343 160.074 27.9993 158.337 27.2078 152.942C26.4163 147.546 27.9168 140.823 31.1803 136.446C35.6915 130.397 45.0426 124.148 52.1263 126.789C51.3203 124.547 50.8256 125.371 50.0196 123.13C53.5305 125.201 53.7345 124.074 57.7841 124.569V124.569Z" fill="#FFF3AD"/>
<path d="M235.107 186.65C230.803 188.024 225.454 187.855 220.761 187.3L220.687 186.65C219.105 178.279 217.3 171.668 216.429 164.066C215.558 156.464 215.897 148.604 218.52 141.414C221.143 134.224 226.221 127.745 233.128 124.406C238.321 121.895 244.215 121.258 249.984 121.06C256.395 120.84 262.95 121.14 268.959 123.376C280.709 127.748 288.852 139.277 291.299 151.536C293.746 163.795 291.128 176.614 286.279 188.141L286.141 188.39C285.466 189.238 284.219 189.008 283.137 188.915C279.067 188.564 275.058 187.518 271.338 185.836L235.107 186.65Z" fill="#1A1A1A"/>
<path d="M254.115 189.372C272.05 189.372 286.588 175.662 286.588 158.75C286.588 141.838 272.05 128.128 254.115 128.128C236.18 128.128 221.641 141.838 221.641 158.75C221.641 175.662 236.18 189.372 254.115 189.372Z" fill="#FCF6E6"/>
<path d="M275.05 177.161C279.401 177.161 282.929 173.645 282.929 169.308C282.929 164.971 279.401 161.455 275.05 161.455C270.698 161.455 267.17 164.971 267.17 169.308C267.17 173.645 270.698 177.161 275.05 177.161Z" fill="#FED5DA"/>
<path d="M232.611 177.161C236.963 177.161 240.491 173.645 240.491 169.308C240.491 164.971 236.963 161.455 232.611 161.455C228.259 161.455 224.731 164.971 224.731 169.308C224.731 173.645 228.259 177.161 232.611 177.161Z" fill="#FED5DA"/>
<path d="M259.109 165.988C259.109 167.463 259.447 178.987 254.113 178.987C249.083 178.987 249.117 167.463 249.117 165.988C249.117 164.513 251.354 163.318 254.113 163.318C256.872 163.318 259.109 164.513 259.109 165.988Z" fill="#F08384"/>
<path d="M243.952 159.452C245.679 159.452 247.078 157.63 247.078 155.382C247.078 153.134 245.679 151.312 243.952 151.312C242.225 151.312 240.826 153.134 240.826 155.382C240.826 157.63 242.225 159.452 243.952 159.452Z" fill="black"/>
<path d="M244.853 155.691C245.429 155.691 245.895 155.226 245.895 154.652C245.895 154.079 245.429 153.614 244.853 153.614C244.278 153.614 243.811 154.079 243.811 154.652C243.811 155.226 244.278 155.691 244.853 155.691Z" fill="white"/>
<path d="M262.484 159.452C264.211 159.452 265.61 157.63 265.61 155.382C265.61 153.134 264.211 151.312 262.484 151.312C260.758 151.312 259.358 153.134 259.358 155.382C259.358 157.63 260.758 159.452 262.484 159.452Z" fill="black"/>
<path d="M263.554 155.691C264.13 155.691 264.596 155.226 264.596 154.652C264.596 154.079 264.13 153.614 263.554 153.614C262.979 153.614 262.512 154.079 262.512 154.652C262.512 155.226 262.979 155.691 263.554 155.691Z" fill="white"/>
<path d="M253.632 140.817C254.805 138.098 258.199 136.812 261.113 137.378C264.028 137.944 266.458 139.994 268.249 142.354C270.04 144.715 271.314 147.416 272.848 149.951C275.714 154.685 279.515 158.854 283.97 162.15C285.153 163.025 286.439 163.862 287.899 164.067L288.458 144.331L267.577 126.557H240.884L225.309 140.551L219.77 160.901L221.271 161.836C227.309 159.498 232.355 154.726 235.014 148.84C236.367 145.847 237.185 142.492 239.449 140.107C241.217 138.245 243.79 137.169 246.363 137.216C248.935 137.263 251.467 138.433 253.165 140.359" fill="#1A1A1A"/>
<path d="M263.961 152.328C264.7 152.374 265.453 152.167 266.065 151.752C265.716 152.369 265.175 152.876 264.536 153.185" fill="black"/>
<path d="M245.26 152.328C245.999 152.374 246.752 152.167 247.364 151.752C247.015 152.369 246.474 152.876 245.835 153.185" fill="black"/>
<path d="M284.686 157.701C284.984 156.723 286.155 156.173 287.158 156.391C288.16 156.609 288.944 157.456 289.291 158.418C289.637 159.38 289.598 160.442 289.407 161.446C288.912 164.044 287.394 166.433 285.248 167.989" fill="#FCF6E6"/>
<path d="M253.632 139.986C254.806 137.268 258.199 135.982 261.113 136.548C264.028 137.113 266.458 139.164 268.249 141.524C270.04 143.885 271.314 146.586 272.848 149.12C275.714 153.854 278.961 158.722 280.312 160.182C280.858 160.771 284.689 166.056 284.819 165.739C286.565 161.473 287.128 153.839 287.128 153.839C287.277 148.381 283.123 141.747 279.315 137.822L267.578 125.727H240.884L225.31 139.721L219.771 160.07L221.272 161.006C227.309 158.668 232.356 153.896 235.015 148.01C236.367 145.017 237.186 141.662 239.45 139.277C241.218 137.414 243.791 136.338 246.364 136.385C248.936 136.433 251.468 137.602 253.166 139.528" fill="#1A1A1A"/>
<path d="M171.991 128.7C173.085 124.618 177.702 122.083 181.911 122.592C186.12 123.101 189.725 126.143 191.742 129.86C193.758 133.577 194.377 137.895 194.452 142.12C194.528 146.345 194.095 150.566 194.163 154.791C194.319 164.41 197.136 173.973 202.221 182.15C192.547 177.087 184.447 169.085 179.281 159.489C174.116 149.893 171.906 138.743 173.022 127.91" fill="#150400"/>
<path d="M172.058 127.928C173.185 128.596 174.27 129.33 175.31 130.127L174.951 129.85C177.172 131.56 179.169 133.547 180.891 135.756L180.614 135.398C181.677 136.769 182.63 138.22 183.463 139.741C183.909 140.554 185.102 140.882 185.891 140.376C186.718 139.844 187.004 138.826 186.528 137.956C184.196 133.7 180.95 130.022 177.101 127.072C176.061 126.276 174.976 125.542 173.848 124.874C173.05 124.401 171.866 124.669 171.421 125.508C170.968 126.361 171.205 127.423 172.057 127.928L172.058 127.928Z" fill="#FBF6A4"/>
<path d="M153.282 188.089C171.216 188.089 185.755 174.379 185.755 157.467C185.755 140.555 171.216 126.844 153.282 126.844C135.347 126.844 120.808 140.555 120.808 157.467C120.808 174.379 135.347 188.089 153.282 188.089Z" fill="#FCF6E6"/>
<path d="M173.207 178.882C177.194 178.882 180.426 175.661 180.426 171.688C180.426 167.715 177.194 164.494 173.207 164.494C169.22 164.494 165.988 167.715 165.988 171.688C165.988 175.661 169.22 178.882 173.207 178.882Z" fill="#FED5DA"/>
<path d="M133.314 178.882C137.301 178.882 140.533 175.661 140.533 171.688C140.533 167.715 137.301 164.494 133.314 164.494C129.327 164.494 126.094 167.715 126.094 171.688C126.094 175.661 129.327 178.882 133.314 178.882Z" fill="#FED5DA"/>
<path d="M145.335 178.054C146.241 178.726 147.231 179.261 148.277 179.683C149.325 180.107 150.42 180.38 151.54 180.529C152.611 180.671 153.697 180.679 154.77 180.543C155.842 180.408 156.975 180.143 158.021 179.731C159.067 179.32 160.055 178.8 160.963 178.143C161.106 178.039 161.245 177.932 161.386 177.824C161.497 177.739 161.559 177.54 161.559 177.408C161.559 177.263 161.495 177.091 161.386 176.991C161.276 176.892 161.125 176.812 160.968 176.818L160.811 176.84C160.71 176.868 160.624 176.918 160.55 176.991L160.529 177.007L160.649 176.915C159.792 177.572 158.851 178.116 157.856 178.536L157.998 178.477C157.178 178.821 156.325 179.082 155.452 179.252C155.204 179.3 154.955 179.34 154.704 179.374L154.861 179.353C153.759 179.499 152.642 179.497 151.541 179.35L151.698 179.371C150.824 179.253 149.964 179.045 149.133 178.752C148.898 178.669 148.664 178.579 148.434 178.482L148.575 178.542C147.638 178.147 146.749 177.643 145.932 177.037C145.817 176.952 145.609 176.942 145.477 176.978C145.345 177.014 145.191 177.121 145.123 177.249C145.05 177.386 145.014 177.551 145.063 177.703L145.123 177.844C145.175 177.933 145.246 178.003 145.335 178.056L145.335 178.054Z" fill="#F08384"/>
<path d="M143.119 168.89C144.846 168.89 146.245 167.068 146.245 164.82C146.245 162.573 144.846 160.751 143.119 160.751C141.392 160.751 139.993 162.573 139.993 164.82C139.993 167.068 141.392 168.89 143.119 168.89Z" fill="black"/>
<path d="M144.02 165.129C144.596 165.129 145.062 164.664 145.062 164.091C145.062 163.517 144.596 163.052 144.02 163.052C143.445 163.052 142.978 163.517 142.978 164.091C142.978 164.664 143.445 165.129 144.02 165.129Z" fill="white"/>
<path d="M161.651 168.89C163.378 168.89 164.777 167.068 164.777 164.82C164.777 162.573 163.378 160.751 161.651 160.751C159.925 160.751 158.525 162.573 158.525 164.82C158.525 167.068 159.925 168.89 161.651 168.89Z" fill="black"/>
<path d="M162.721 165.129C163.297 165.129 163.763 164.664 163.763 164.091C163.763 163.517 163.297 163.052 162.721 163.052C162.146 163.052 161.679 163.517 161.679 164.091C161.679 164.664 162.146 165.129 162.721 165.129Z" fill="white"/>
<path d="M158.586 159.645C158.766 159.518 158.952 159.402 159.145 159.296C159.238 159.245 159.333 159.196 159.428 159.15C159.474 159.127 159.52 159.105 159.567 159.085C159.59 159.074 159.614 159.064 159.637 159.053C159.651 159.047 159.664 159.041 159.678 159.036C159.735 159.01 159.629 159.056 159.668 159.04C160.069 158.876 160.483 158.749 160.909 158.667C161.017 158.647 161.126 158.628 161.234 158.613C161.245 158.611 161.256 158.61 161.267 158.608C161.177 158.623 161.222 158.614 161.243 158.612C161.268 158.609 161.294 158.606 161.319 158.603C161.374 158.597 161.429 158.591 161.484 158.586C161.703 158.566 161.924 158.558 162.144 158.561C162.364 158.564 162.577 158.576 162.792 158.601C162.817 158.603 162.843 158.606 162.868 158.61C162.883 158.611 162.898 158.614 162.912 158.615C162.914 158.615 162.838 158.605 162.877 158.611C162.935 158.619 162.993 158.628 163.051 158.638C163.156 158.655 163.26 158.675 163.364 158.698C163.604 158.751 163.841 158.818 164.072 158.899C164.127 158.918 164.183 158.938 164.237 158.959C164.268 158.971 164.299 158.983 164.33 158.995C164.34 158.999 164.35 159.004 164.36 159.008C164.406 159.026 164.381 159.017 164.35 159.003C164.464 159.055 164.578 159.104 164.69 159.16C164.848 159.238 165.063 159.207 165.152 159.039C165.234 158.886 165.2 158.662 165.031 158.578C164.188 158.158 163.263 157.928 162.321 157.892C161.411 157.857 160.481 158.005 159.632 158.334C159.142 158.523 158.675 158.763 158.245 159.065C158.101 159.166 158.02 159.364 158.124 159.526C158.217 159.668 158.432 159.755 158.587 159.646L158.586 159.645Z" fill="black"/>
<path d="M139.941 159.645C140.121 159.518 140.308 159.402 140.5 159.296C140.593 159.245 140.688 159.196 140.783 159.15C140.829 159.127 140.875 159.105 140.922 159.085C140.945 159.074 140.969 159.064 140.993 159.053C141.006 159.047 141.02 159.041 141.033 159.036C141.09 159.01 140.984 159.056 141.023 159.04C141.424 158.876 141.838 158.749 142.264 158.667C142.372 158.647 142.481 158.628 142.589 158.613C142.6 158.611 142.611 158.61 142.622 158.608C142.533 158.623 142.578 158.614 142.598 158.612C142.623 158.609 142.649 158.606 142.674 158.603C142.729 158.597 142.784 158.591 142.839 158.586C143.059 158.566 143.279 158.558 143.499 158.561C143.719 158.564 143.932 158.576 144.147 158.601C144.172 158.603 144.198 158.606 144.224 158.61C144.238 158.611 144.253 158.614 144.267 158.615C144.269 158.615 144.194 158.605 144.232 158.611C144.29 158.619 144.348 158.628 144.406 158.638C144.511 158.655 144.615 158.675 144.719 158.698C144.959 158.751 145.196 158.818 145.427 158.899C145.482 158.918 145.538 158.938 145.592 158.959C145.623 158.971 145.654 158.983 145.685 158.995C145.695 158.999 145.705 159.004 145.715 159.008C145.761 159.026 145.736 159.017 145.706 159.003C145.819 159.055 145.934 159.104 146.045 159.16C146.203 159.238 146.419 159.207 146.508 159.039C146.589 158.886 146.555 158.662 146.387 158.578C145.543 158.158 144.618 157.928 143.676 157.892C142.766 157.857 141.836 158.005 140.987 158.334C140.497 158.523 140.03 158.763 139.601 159.065C139.456 159.166 139.375 159.364 139.48 159.526C139.572 159.668 139.788 159.755 139.942 159.646L139.941 159.645Z" fill="black"/>
<path d="M183.342 156.437C183.64 155.459 184.811 154.909 185.813 155.127C186.815 155.345 187.6 156.192 187.946 157.154C188.293 158.116 188.253 159.178 188.062 160.182C187.568 162.779 186.049 165.169 183.904 166.725" fill="#FCF6E6"/>
<path d="M122.865 156.437C122.567 155.459 121.396 154.909 120.394 155.127C119.391 155.345 118.607 156.192 118.26 157.154C117.915 158.116 117.953 159.178 118.144 160.182C118.639 162.779 120.158 165.169 122.303 166.725" fill="#FCF6E6"/>
<path d="M119.519 151.797C119.448 154.54 121.409 156.962 124.104 157.829C126.799 158.695 129.852 158.07 132.246 156.593C134.64 155.116 136.435 152.868 137.788 150.456C137.86 153.712 140.761 156.681 144.122 156.938C147.483 157.195 150.831 154.703 151.432 151.499C153.494 154.587 157.312 156.501 161.114 156.35C164.915 156.199 168.558 153.989 170.35 150.747C171.873 152.737 173.438 154.766 175.561 156.151C177.684 157.536 180.509 158.176 182.841 157.151C185.432 156.013 186.694 153.176 187.056 150.448L187.085 150.081C187.138 141.271 181.959 132.785 174.39 127.784C166.821 122.783 157.136 121.125 148.044 122.424C140.569 123.491 133.308 126.55 127.924 131.632C122.539 136.713 119.179 143.89 119.501 151.125L119.52 151.795L119.519 151.797Z" fill="#150400"/>
<path d="M42.6554 225.144H47.6474V232.212H42.6554V225.144ZM46.6754 225.948H43.6274V231.408H46.6754V225.948ZM49.9154 224.076H50.9114V234.948H49.9154V224.076ZM60.9544 224.088H61.9504V234.96H60.9544V224.088ZM53.7784 231.42H54.6544C56.8024 231.42 58.1944 231.348 59.8024 231.048L59.9104 231.888C58.2544 232.2 56.8384 232.26 54.6544 232.26H53.7784V231.42ZM53.7784 225.12H58.9024V225.948H54.7624V231.732H53.7784V225.12ZM67.0135 224.916C68.5855 224.916 69.7135 226.392 69.7135 228.696C69.7135 231.012 68.5855 232.488 67.0135 232.488C65.4295 232.488 64.3135 231.012 64.3135 228.696C64.3135 226.392 65.4295 224.916 67.0135 224.916ZM67.0135 225.816C65.9695 225.816 65.2615 226.944 65.2615 228.696C65.2615 230.46 65.9695 231.612 67.0135 231.612C68.0575 231.612 68.7655 230.46 68.7655 228.696C68.7655 226.944 68.0575 225.816 67.0135 225.816ZM72.0655 224.076H73.0495V234.948H72.0655V224.076ZM69.3895 228.216H72.4975V229.032H69.3895V228.216ZM78.3001 234V233.088H80.2561V226.536H78.6841V225.828C79.4761 225.696 80.0401 225.492 80.5081 225.204H81.3481V233.088H83.1241V234H78.3001ZM87.5124 234.168C85.8204 234.168 84.5604 232.716 84.5604 229.812C84.5604 226.368 86.1084 225.048 87.8124 225.048C88.7244 225.048 89.3964 225.432 89.8764 225.948L89.2644 226.62C88.9284 226.212 88.3884 225.96 87.8604 225.96C86.6244 225.96 85.5924 226.932 85.5924 229.812C85.5924 232.068 86.2764 233.304 87.5124 233.304C88.3524 233.304 89.0004 232.5 89.0004 231.312C89.0004 230.112 88.4724 229.356 87.4164 229.356C86.8524 229.356 86.1444 229.692 85.5564 230.568L85.5204 229.692C86.0604 228.984 86.8764 228.552 87.5844 228.552C89.0724 228.552 90.0324 229.464 90.0324 231.312C90.0324 233.016 88.8684 234.168 87.5124 234.168ZM55.4534 244.76H58.4774V245.576H55.4534V244.76ZM52.8374 242.024H53.6534V243.956C53.6534 246.392 52.3694 248.72 50.6534 249.644L50.0174 248.852C51.6134 248.06 52.8374 245.972 52.8374 243.956V242.024ZM53.0294 242.024H53.8334V243.956C53.8334 245.936 55.0574 247.904 56.6294 248.648L56.0414 249.452C54.2894 248.564 53.0294 246.332 53.0294 243.956V242.024ZM57.9854 241.076H58.9694V251.948H57.9854V241.076ZM63.7445 242.252H64.5605V243.128C64.5605 245.12 63.3605 246.788 61.5365 247.448L61.0325 246.656C62.6645 246.08 63.7445 244.676 63.7445 243.128V242.252ZM63.9245 242.252H64.7405V243.116C64.7405 244.532 65.7725 245.804 67.3685 246.332L66.8885 247.112C65.0765 246.512 63.9245 244.964 63.9245 243.116V242.252ZM61.3325 241.892H67.1285V242.708H61.3325V241.892ZM68.4965 241.088H69.4925V247.628H68.4965V241.088ZM69.2165 243.836H71.1005V244.676H69.2165V243.836ZM66.0365 247.916C68.2445 247.916 69.6005 248.648 69.6005 249.908C69.6005 251.18 68.2445 251.912 66.0365 251.912C63.8285 251.912 62.4725 251.18 62.4725 249.908C62.4725 248.648 63.8285 247.916 66.0365 247.916ZM66.0365 248.72C64.4285 248.72 63.4445 249.152 63.4445 249.908C63.4445 250.676 64.4285 251.132 66.0365 251.132C67.6445 251.132 68.6285 250.676 68.6285 249.908C68.6285 249.152 67.6445 248.72 66.0365 248.72ZM72.5995 242.672H81.4075V243.488H72.5995V242.672ZM72.1195 249.848H81.9475V250.676H72.1195V249.848ZM76.5235 248.132H77.5075V250.172H76.5235V248.132ZM77.0035 244.22C79.1995 244.22 80.5555 244.976 80.5555 246.284C80.5555 247.592 79.1995 248.348 77.0035 248.348C74.8195 248.348 73.4635 247.592 73.4635 246.284C73.4635 244.976 74.8195 244.22 77.0035 244.22ZM77.0035 245C75.4315 245 74.4595 245.48 74.4595 246.284C74.4595 247.088 75.4315 247.556 77.0035 247.556C78.5875 247.556 79.5475 247.088 79.5475 246.284C79.5475 245.48 78.5875 245 77.0035 245ZM76.5235 241.268H77.5075V243.176H76.5235V241.268Z" fill="black"/>
<path d="M47.3296 202.178H48.7156V204.11H50.9556V202.178H52.3276V208.254H47.3296V202.178ZM48.7156 205.244V207.078H50.9556V205.244H48.7156ZM56.2616 201.38H57.6476V209.066H56.2616V201.38ZM54.4276 204.6H56.6676V205.804H54.4276V204.6ZM53.5316 201.604H54.9036V208.996H53.5316V201.604ZM48.9816 209.752H57.6476V214.162H56.1916V210.928H48.9816V209.752ZM64.9965 204.936H67.0825V206.126H64.9965V204.936ZM62.7005 202.332C64.3805 202.332 65.6125 203.634 65.6125 205.496C65.6125 207.358 64.3805 208.66 62.7005 208.66C61.0065 208.66 59.7885 207.358 59.7885 205.496C59.7885 203.634 61.0065 202.332 62.7005 202.332ZM62.7005 203.592C61.7765 203.592 61.1045 204.348 61.1045 205.496C61.1045 206.644 61.7765 207.4 62.7005 207.4C63.6105 207.4 64.2965 206.644 64.2965 205.496C64.2965 204.348 63.6105 203.592 62.7005 203.592ZM69.1405 201.366H70.5265V210.914H69.1405V201.366ZM66.6625 201.604H68.0485V210.536H66.6625V201.604ZM62.0705 212.72H70.8905V213.91H62.0705V212.72ZM62.0705 209.696H63.5405V213.308H62.0705V209.696ZM73.9975 207.4H82.8735V208.576H73.9975V207.4ZM72.5835 211.306H84.1755V212.51H72.5835V211.306ZM73.9975 202.486H82.7615V203.69H75.4535V207.904H73.9975V202.486Z" fill="black"/>
<path d="M141.826 211.376H153.418V212.594H141.826V211.376ZM142.778 202.57H152.382V203.76H142.778V202.57ZM142.82 207.918H152.354V209.108H142.82V207.918ZM144.654 203.662H146.124V208.044H144.654V203.662ZM149.05 203.662H150.506V208.044H149.05V203.662ZM154.691 208.562H166.283V209.752H154.691V208.562ZM156.189 212.944H165.121V214.12H156.189V212.944ZM156.189 210.508H157.645V213.294H156.189V210.508ZM159.759 206.756H161.215V209.08H159.759V206.756ZM156.147 201.716H164.827V205.062H157.617V206.602H156.161V203.998H163.385V202.85H156.147V201.716ZM156.161 206.238H165.093V207.372H156.161V206.238ZM169.011 208.128H177.887V209.29H169.011V208.128ZM167.583 211.39H179.175V212.594H167.583V211.39ZM169.011 202.388H177.761V203.578H170.495V208.464H169.011V202.388ZM170.033 205.23H177.481V206.378H170.033V205.23Z" fill="black"/>
<path d="M244.884 201.366H246.354V214.19H244.884V201.366ZM236.624 209.836H237.688C240.292 209.836 241.874 209.766 243.694 209.43L243.834 210.648C241.986 210.998 240.334 211.068 237.688 211.068H236.624V209.836ZM236.624 202.542H242.714V203.746H238.08V210.298H236.624V202.542ZM251.729 203.284H252.891V205.076C252.891 207.834 251.449 210.662 249.293 211.726L248.453 210.564C250.413 209.626 251.729 207.218 251.729 205.076V203.284ZM252.023 203.284H253.185V205.076C253.185 207.064 254.431 209.332 256.391 210.242L255.565 211.404C253.409 210.368 252.023 207.694 252.023 205.076V203.284ZM248.929 202.64H255.887V203.858H248.929V202.64ZM257.147 201.366H258.617V214.162H257.147V201.366ZM258.281 206.406H260.605V207.624H258.281V206.406ZM270.655 201.38H272.125V210.648H270.655V201.38ZM263.767 212.72H272.489V213.91H263.767V212.72ZM263.767 209.71H265.237V213.168H263.767V209.71ZM265.223 202.234C267.155 202.234 268.611 203.55 268.611 205.426C268.611 207.274 267.155 208.618 265.223 208.618C263.291 208.618 261.821 207.274 261.821 205.426C261.821 203.55 263.291 202.234 265.223 202.234ZM265.223 203.494C264.103 203.494 263.249 204.25 263.249 205.426C263.249 206.574 264.103 207.33 265.223 207.33C266.343 207.33 267.183 206.574 267.183 205.426C267.183 204.25 266.343 203.494 265.223 203.494Z" fill="black"/>
<path d="M136.655 225.144H141.647V232.212H136.655V225.144ZM140.675 225.948H137.627V231.408H140.675V225.948ZM143.915 224.076H144.911V234.948H143.915V224.076ZM154.954 224.088H155.95V234.96H154.954V224.088ZM147.778 231.42H148.654C150.802 231.42 152.194 231.348 153.802 231.048L153.91 231.888C152.254 232.2 150.838 232.26 148.654 232.26H147.778V231.42ZM147.778 225.12H152.902V225.948H148.762V231.732H147.778V225.12ZM161.013 224.916C162.585 224.916 163.713 226.392 163.713 228.696C163.713 231.012 162.585 232.488 161.013 232.488C159.429 232.488 158.313 231.012 158.313 228.696C158.313 226.392 159.429 224.916 161.013 224.916ZM161.013 225.816C159.969 225.816 159.261 226.944 159.261 228.696C159.261 230.46 159.969 231.612 161.013 231.612C162.057 231.612 162.765 230.46 162.765 228.696C162.765 226.944 162.057 225.816 161.013 225.816ZM166.065 224.076H167.049V234.948H166.065V224.076ZM163.389 228.216H166.497V229.032H163.389V228.216ZM171.772 234V233.364C174.532 230.952 175.792 229.188 175.792 227.688C175.792 226.68 175.276 225.936 174.184 225.936C173.464 225.936 172.84 226.38 172.348 226.956L171.712 226.344C172.432 225.564 173.2 225.048 174.316 225.048C175.888 225.048 176.872 226.068 176.872 227.64C176.872 229.404 175.492 231.192 173.416 233.148C173.884 233.1 174.412 233.064 174.856 233.064H177.292V234H171.772ZM181.236 234.168C179.556 234.168 178.488 232.644 178.488 229.572C178.488 226.524 179.556 225.048 181.236 225.048C182.892 225.048 183.96 226.524 183.96 229.572C183.96 232.644 182.892 234.168 181.236 234.168ZM181.236 233.28C182.232 233.28 182.904 232.164 182.904 229.572C182.904 227.016 182.232 225.924 181.236 225.924C180.228 225.924 179.544 227.016 179.544 229.572C179.544 232.164 180.228 233.28 181.236 233.28ZM148.937 241.352C151.229 241.352 152.741 242.192 152.741 243.524C152.741 244.868 151.229 245.696 148.937 245.696C146.633 245.696 145.133 244.868 145.133 243.524C145.133 242.192 146.633 241.352 148.937 241.352ZM148.937 242.168C147.281 242.168 146.189 242.696 146.189 243.524C146.189 244.364 147.281 244.88 148.937 244.88C150.593 244.88 151.685 244.364 151.685 243.524C151.685 242.696 150.593 242.168 148.937 242.168ZM144.041 246.512H153.845V247.328H144.041V246.512ZM145.229 250.88H152.837V251.696H145.229V250.88ZM145.229 248.66H146.225V251.288H145.229V248.66ZM147.461 246.86H148.445V249.572H147.461V246.86ZM150.353 246.86H151.349V249.584H150.353V246.86ZM163.336 241.088H164.296V251.936H163.336V241.088ZM161.344 241.316H162.28V251.396H161.344V241.316ZM159.844 244.76H161.776V245.564H159.844V244.76ZM159.76 247.244H161.704V248.048H159.76V247.244ZM155.056 242.948H160.396V243.752H155.056V242.948ZM157.708 244.496C159.028 244.496 159.988 245.516 159.988 247.004C159.988 248.48 159.028 249.512 157.708 249.512C156.4 249.512 155.44 248.48 155.44 247.004C155.44 245.516 156.4 244.496 157.708 244.496ZM157.708 245.336C156.904 245.336 156.316 246.02 156.316 247.004C156.316 247.976 156.904 248.66 157.708 248.66C158.524 248.66 159.1 247.976 159.1 247.004C159.1 246.02 158.524 245.336 157.708 245.336ZM157.228 241.364H158.212V243.404H157.228V241.364ZM169.192 246.548H170.188V248.96H169.192V246.548ZM174.004 241.088H175V249.344H174.004V241.088ZM167.596 250.88H175.264V251.696H167.596V250.88ZM167.596 248.54H168.592V251.108H167.596V248.54ZM166.192 246.92L166.06 246.104C168.064 246.104 170.752 246.08 173.056 245.78L173.128 246.512C170.788 246.884 168.16 246.92 166.192 246.92ZM171.796 247.496H174.256V248.228H171.796V247.496ZM169.588 241.532C171.172 241.532 172.252 242.276 172.252 243.416C172.252 244.568 171.172 245.312 169.588 245.312C167.992 245.312 166.912 244.568 166.912 243.416C166.912 242.276 167.992 241.532 169.588 241.532ZM169.588 242.276C168.568 242.276 167.86 242.72 167.86 243.416C167.86 244.112 168.568 244.556 169.588 244.556C170.596 244.556 171.304 244.112 171.304 243.416C171.304 242.72 170.596 242.276 169.588 242.276Z" fill="black"/>
<path d="M230.655 225.144H235.647V232.212H230.655V225.144ZM234.675 225.948H231.627V231.408H234.675V225.948ZM237.915 224.076H238.911V234.948H237.915V224.076ZM248.954 224.088H249.95V234.96H248.954V224.088ZM241.778 231.42H242.654C244.802 231.42 246.194 231.348 247.802 231.048L247.91 231.888C246.254 232.2 244.838 232.26 242.654 232.26H241.778V231.42ZM241.778 225.12H246.902V225.948H242.762V231.732H241.778V225.12ZM255.013 224.916C256.585 224.916 257.713 226.392 257.713 228.696C257.713 231.012 256.585 232.488 255.013 232.488C253.429 232.488 252.313 231.012 252.313 228.696C252.313 226.392 253.429 224.916 255.013 224.916ZM255.013 225.816C253.969 225.816 253.261 226.944 253.261 228.696C253.261 230.46 253.969 231.612 255.013 231.612C256.057 231.612 256.765 230.46 256.765 228.696C256.765 226.944 256.057 225.816 255.013 225.816ZM260.065 224.076H261.049V234.948H260.065V224.076ZM257.389 228.216H260.497V229.032H257.389V228.216ZM265.772 234V233.364C268.532 230.952 269.792 229.188 269.792 227.688C269.792 226.68 269.276 225.936 268.184 225.936C267.464 225.936 266.84 226.38 266.348 226.956L265.712 226.344C266.432 225.564 267.2 225.048 268.316 225.048C269.888 225.048 270.872 226.068 270.872 227.64C270.872 229.404 269.492 231.192 267.416 233.148C267.884 233.1 268.412 233.064 268.856 233.064H271.292V234H265.772ZM275.236 234.168C273.556 234.168 272.488 232.644 272.488 229.572C272.488 226.524 273.556 225.048 275.236 225.048C276.892 225.048 277.96 226.524 277.96 229.572C277.96 232.644 276.892 234.168 275.236 234.168ZM275.236 233.28C276.232 233.28 276.904 232.164 276.904 229.572C276.904 227.016 276.232 225.924 275.236 225.924C274.228 225.924 273.544 227.016 273.544 229.572C273.544 232.164 274.228 233.28 275.236 233.28ZM242.673 241.784H243.717C243.717 244.544 241.737 246.488 238.545 247.34L238.161 246.548C240.981 245.804 242.673 244.232 242.673 242.228V241.784ZM238.725 241.784H243.249V242.588H238.725V241.784ZM245.925 241.088H246.933V247.208H245.925V241.088ZM239.913 247.736H246.933V251.792H239.913V247.736ZM245.949 248.54H240.897V250.976H245.949V248.54ZM257 241.1H257.996V249.368H257V241.1ZM255.164 243.968H257.42V244.784H255.164V243.968ZM255.164 246.26H257.42V247.064H255.164V246.26ZM249.092 242.408H255.164V243.212H249.092V242.408ZM252.164 243.812C253.604 243.812 254.612 244.64 254.612 245.888C254.612 247.124 253.604 247.964 252.164 247.964C250.712 247.964 249.704 247.124 249.704 245.888C249.704 244.64 250.712 243.812 252.164 243.812ZM252.164 244.592C251.264 244.592 250.652 245.12 250.652 245.888C250.652 246.656 251.264 247.172 252.164 247.172C253.064 247.172 253.676 246.656 253.676 245.888C253.676 245.12 253.064 244.592 252.164 244.592ZM251.672 241.076H252.668V242.924H251.672V241.076ZM251.024 250.88H258.26V251.696H251.024V250.88ZM251.024 248.66H252.02V251.276H251.024V248.66ZM262.988 242.636H263.792V244.4C263.792 246.692 262.412 248.996 260.684 249.848L260.108 249.056C261.68 248.312 262.988 246.272 262.988 244.4V242.636ZM263.18 242.636H263.984V244.4C263.984 246.236 265.292 248.108 266.888 248.792L266.324 249.584C264.572 248.768 263.18 246.656 263.18 244.4V242.636ZM260.468 242.192H266.528V243.032H260.468V242.192ZM267.992 241.088H268.988V251.936H267.992V241.088Z" fill="black"/>
</svg>
