<svg width="130" height="130" viewBox="0 0 130 130" fill="none" xmlns="http://www.w3.org/2000/svg">
<mask id="mask0_325_378" style="mask-type:alpha" maskUnits="userSpaceOnUse" x="0" y="0" width="130" height="130">
<circle cx="65" cy="65" r="64.5" fill="#D9D9D9" stroke="black"/>
</mask>
<g mask="url(#mask0_325_378)">
<mask id="path-2-inside-1_325_378" fill="white">
<path d="M215.747 355.16C215.507 361.7 214.046 364.82 211.316 367.99C209.926 369.62 208.546 371.66 206.376 373.85C203.296 376.97 202.857 377.13 201.597 375.37C199.957 373.08 202.057 369.96 201.297 364.31C200.277 356.57 198.606 354.39 198.066 344.91C197.986 343.48 197.176 351.25 194.456 354.09C192.296 356.35 188.657 356.19 189.247 355.06C194.747 344.38 189.917 337.54 192.307 329.37C193.077 326.73 195.207 322.53 195.107 320.55C195.107 320.44 195.086 320.32 195.066 320.2C195.056 320.14 195.057 320.08 195.047 320.02C194.647 315.5 192.127 309.89 188.617 302.88C183.817 293.3 181.056 287.4 174.296 270.37L174.227 270.19C173.787 269.09 173.327 267.92 172.847 266.72C164.347 245.13 162.937 226.04 162.597 223.76C162.457 222.76 162.246 221.67 162.016 220.54C162.007 220.48 161.997 220.42 161.977 220.36C159.757 209.66 154.007 193.05 150.287 178.98C149.697 176.76 148.257 170.2 147.667 167.46C143.327 182.94 133.876 212.42 136.766 220.54H136.777C138.077 227.24 141.376 234.39 145.456 243.42C149.096 251.47 151.326 257.74 152.646 261.98C153.977 266.23 154.387 268.47 154.387 268.47C154.557 269.02 154.747 269.6 154.926 270.17C154.947 270.23 154.966 270.29 154.986 270.35C158.536 281.26 163.947 295.68 164.187 319.83C164.187 319.95 164.197 320.06 164.197 320.18C164.237 325.32 164.036 330.87 163.546 336.93C162.306 351.95 153.167 384.04 149.757 399.37C142.157 433.44 137.877 453.87 137.317 465.87C136.597 481.39 138.267 486.23 139.757 495.63C142.627 513.88 140.527 529.66 137.107 544.13C130.787 570.87 124.146 582.76 123.467 596.79C123.307 600.29 125.376 601.76 124.236 606.19C123.646 608.51 122.637 610.71 124.167 615.85C129.327 633.23 136.036 637.77 135.247 644.12C134.367 651.15 115.747 650.72 108.447 649.14C102.447 647.83 102.527 637.07 104.257 624.73C104.607 622.23 104.787 619.45 104.657 615.18C104.587 613.07 104.136 610.61 103.896 607.64C103.676 604.9 104.307 602.01 104.657 599.72C104.907 597.99 105.177 596.6 105.217 595.87C106.827 569.01 106.337 562.57 103.657 537.32C100.967 511.8 104.746 507.22 104.266 491.62C103.986 482.37 101.787 472.92 101.187 462.9C100.447 450.35 101.476 438.48 102.516 429.55C105.406 404.87 105.387 400.88 106.317 381.37C107.337 360.18 101.987 349.79 105.037 331.51C104.327 331.83 102.597 331.98 100.887 331.97C99.1565 331.98 97.4265 331.84 96.7265 331.51C99.7765 349.79 94.4265 360.18 95.4465 381.37C96.3865 400.88 96.3565 404.87 99.2465 429.55C100.307 438.48 101.326 450.35 100.576 462.9C99.9865 472.92 97.7665 482.36 97.4965 491.62C97.0165 507.22 100.797 511.79 98.1065 537.32C95.4465 562.57 94.9365 569.01 96.5465 595.87C96.5965 596.6 96.8565 597.99 97.1265 599.72C97.4665 602.01 98.0965 604.9 97.8665 607.64C97.6365 610.6 97.1865 613.06 97.1265 615.18C96.9865 619.45 97.1665 622.24 97.5065 624.73C99.2465 637.07 99.3165 647.83 93.3165 649.14C86.0365 650.72 67.3965 651.16 66.5165 644.12C65.7265 637.77 72.4365 633.22 77.5965 615.85C79.1365 610.71 78.1265 608.51 77.5265 606.19C76.3865 601.76 78.4665 600.3 78.2965 596.79C77.6265 582.76 70.9865 570.87 64.6565 544.13C61.2365 529.66 59.1365 513.88 62.0165 495.63C63.4965 486.23 65.1565 481.39 64.4365 465.87C63.8765 453.87 59.5865 433.43 52.0065 399.37C48.5865 384.05 39.4565 351.96 38.2165 336.93C37.7165 330.87 37.5165 325.31 37.5565 320.18C37.5565 320.06 37.5665 319.95 37.5665 319.83C37.8065 295.69 43.2265 281.26 46.7665 270.35H46.7765C46.7965 270.29 46.8165 270.23 46.8365 270.17C47.0165 269.59 47.2065 269.02 47.3765 268.47C47.3765 268.47 49.0365 259.51 56.3065 243.41C60.3865 234.37 63.6765 227.22 64.9865 220.53C67.8765 212.42 58.4465 182.93 54.1065 167.45C53.5165 170.19 52.0765 176.75 51.4865 178.97C47.7665 193.03 42.0165 209.64 39.7965 220.35C39.7865 220.41 39.7765 220.47 39.7565 220.53C39.5265 221.66 39.3265 222.75 39.1765 223.75C38.8365 226.03 37.4265 245.12 28.9265 266.71C28.4465 267.91 27.9865 269.07 27.5465 270.18C27.5265 270.24 27.4965 270.3 27.4765 270.36C20.7165 287.39 17.9565 293.29 13.1565 302.87C9.63651 309.88 7.11652 315.48 6.72652 320.01C6.71652 320.07 6.7165 320.13 6.7065 320.19C6.6965 320.31 6.66652 320.43 6.66652 320.54C6.55652 322.52 8.69651 326.72 9.46651 329.36C11.8565 337.53 7.0265 344.37 12.5265 355.05C13.1165 356.18 9.47651 356.33 7.31651 354.08C4.59651 351.24 3.7865 343.47 3.7065 344.9C3.1665 354.38 1.49652 356.56 0.476516 364.3C-0.283484 369.95 1.8165 373.07 0.176497 375.36C-1.0835 377.11 -1.5135 376.96 -4.6035 373.84C-6.7735 371.66 -8.1535 369.62 -9.5435 367.98C-12.2635 364.81 -13.7335 361.69 -13.9735 355.15C-14.1535 350.22 -13.4235 346.46 -11.5735 339.29C-10.7535 336.13 -9.85351 334.37 -8.67351 325.49C-8.33351 322.9 -8.31349 321.34 -8.31349 320.19V320.01C-8.31349 319.35 -8.31349 318.82 -8.24349 318.31C-7.80349 314.64 -5.90348 313.49 -4.86348 306.6C-2.89348 293.59 -1.58349 283.91 0.256515 270.37C0.256515 270.31 0.266503 270.25 0.276504 270.19C0.646503 267.43 1.04652 264.54 1.47652 261.39C2.99652 250.17 8.09652 236.06 13.4765 220.54C13.4865 220.48 13.5165 220.42 13.5365 220.36C13.8465 219.47 14.1465 218.58 14.4565 217.68C15.0065 216.08 16.1765 203.9 16.6265 197.5C17.1765 189.51 22.4265 116.2 26.0265 105.14C28.7065 96.9 31.3065 93.58 33.7865 92.49V92.47C33.7865 92.47 35.8165 91.41 37.0365 90.92C40.4465 89.56 44.6565 88.81 49.1365 88.03C53.5265 87.23 61.3165 86.34 65.6365 84.67C72.0365 82.21 77.3165 79.14 80.4765 71.46C81.8165 68.22 82.3565 59.21 82.5765 53.05C79.5265 50.23 77.1765 46.59 75.6865 40.56C75.4265 39.48 75.1065 38.2 74.8065 36.82C71.4665 38 70.5965 32.86 69.9865 31.37C69.3065 29.74 68.3865 29.58 67.4865 25.97C66.8765 23.57 67.9265 21.99 67.4965 20.44C67.2065 19.4 67.0765 16.46 68.3965 15.45C68.5365 15.34 68.7165 15.28 68.9165 15.23C66.9365 7.71 65.6765 -4.58 69.7965 -13.99C71.5865 -18.06 73.7765 -21.33 76.0965 -23.94C81.5765 -30.62 90.6165 -35 100.857 -35C111.097 -35 120.126 -30.62 125.617 -23.94C127.937 -21.34 130.127 -18.06 131.917 -13.99C136.037 -4.58 134.776 7.71 132.796 15.23C132.986 15.28 133.167 15.34 133.317 15.45C134.637 16.46 134.507 19.4 134.217 20.44C133.787 21.99 134.837 23.57 134.227 25.97C133.327 29.58 132.417 29.74 131.727 31.37C131.117 32.86 130.237 37.99 126.907 36.82C126.607 38.2 126.297 39.48 126.027 40.56C124.536 46.6 122.187 50.23 119.137 53.05C119.357 59.21 119.896 68.22 121.236 71.46C124.406 79.14 129.686 82.21 136.076 84.67C140.396 86.34 148.186 87.23 152.576 88.03C157.056 88.81 161.266 89.57 164.676 90.92C165.896 91.41 167.926 92.47 167.926 92.47V92.49C170.406 93.58 173.016 96.89 175.686 105.14C179.286 116.2 184.527 189.51 185.087 197.5C185.547 203.91 186.706 216.09 187.256 217.68C187.566 218.58 187.867 219.47 188.177 220.36C188.197 220.42 188.227 220.48 188.237 220.54C193.617 236.06 198.717 250.17 200.237 261.39C200.667 264.53 201.066 267.43 201.436 270.19C201.446 270.25 201.456 270.31 201.456 270.37C203.307 283.91 204.616 293.59 206.576 306.6C207.616 313.49 209.516 314.64 209.956 318.31C210.027 318.83 210.027 319.35 210.027 320.01V320.19C210.027 321.34 210.046 322.9 210.386 325.49C211.576 334.37 212.477 336.13 213.287 339.29C215.137 346.47 215.866 350.22 215.686 355.15L215.747 355.16Z"/>
</mask>
<path d="M215.747 355.16C215.507 361.7 214.046 364.82 211.316 367.99C209.926 369.62 208.546 371.66 206.376 373.85C203.296 376.97 202.857 377.13 201.597 375.37C199.957 373.08 202.057 369.96 201.297 364.31C200.277 356.57 198.606 354.39 198.066 344.91C197.986 343.48 197.176 351.25 194.456 354.09C192.296 356.35 188.657 356.19 189.247 355.06C194.747 344.38 189.917 337.54 192.307 329.37C193.077 326.73 195.207 322.53 195.107 320.55C195.107 320.44 195.086 320.32 195.066 320.2C195.056 320.14 195.057 320.08 195.047 320.02C194.647 315.5 192.127 309.89 188.617 302.88C183.817 293.3 181.056 287.4 174.296 270.37L174.227 270.19C173.787 269.09 173.327 267.92 172.847 266.72C164.347 245.13 162.937 226.04 162.597 223.76C162.457 222.76 162.246 221.67 162.016 220.54C162.007 220.48 161.997 220.42 161.977 220.36C159.757 209.66 154.007 193.05 150.287 178.98C149.697 176.76 148.257 170.2 147.667 167.46C143.327 182.94 133.876 212.42 136.766 220.54H136.777C138.077 227.24 141.376 234.39 145.456 243.42C149.096 251.47 151.326 257.74 152.646 261.98C153.977 266.23 154.387 268.47 154.387 268.47C154.557 269.02 154.747 269.6 154.926 270.17C154.947 270.23 154.966 270.29 154.986 270.35C158.536 281.26 163.947 295.68 164.187 319.83C164.187 319.95 164.197 320.06 164.197 320.18C164.237 325.32 164.036 330.87 163.546 336.93C162.306 351.95 153.167 384.04 149.757 399.37C142.157 433.44 137.877 453.87 137.317 465.87C136.597 481.39 138.267 486.23 139.757 495.63C142.627 513.88 140.527 529.66 137.107 544.13C130.787 570.87 124.146 582.76 123.467 596.79C123.307 600.29 125.376 601.76 124.236 606.19C123.646 608.51 122.637 610.71 124.167 615.85C129.327 633.23 136.036 637.77 135.247 644.12C134.367 651.15 115.747 650.72 108.447 649.14C102.447 647.83 102.527 637.07 104.257 624.73C104.607 622.23 104.787 619.45 104.657 615.18C104.587 613.07 104.136 610.61 103.896 607.64C103.676 604.9 104.307 602.01 104.657 599.72C104.907 597.99 105.177 596.6 105.217 595.87C106.827 569.01 106.337 562.57 103.657 537.32C100.967 511.8 104.746 507.22 104.266 491.62C103.986 482.37 101.787 472.92 101.187 462.9C100.447 450.35 101.476 438.48 102.516 429.55C105.406 404.87 105.387 400.88 106.317 381.37C107.337 360.18 101.987 349.79 105.037 331.51C104.327 331.83 102.597 331.98 100.887 331.97C99.1565 331.98 97.4265 331.84 96.7265 331.51C99.7765 349.79 94.4265 360.18 95.4465 381.37C96.3865 400.88 96.3565 404.87 99.2465 429.55C100.307 438.48 101.326 450.35 100.576 462.9C99.9865 472.92 97.7665 482.36 97.4965 491.62C97.0165 507.22 100.797 511.79 98.1065 537.32C95.4465 562.57 94.9365 569.01 96.5465 595.87C96.5965 596.6 96.8565 597.99 97.1265 599.72C97.4665 602.01 98.0965 604.9 97.8665 607.64C97.6365 610.6 97.1865 613.06 97.1265 615.18C96.9865 619.45 97.1665 622.24 97.5065 624.73C99.2465 637.07 99.3165 647.83 93.3165 649.14C86.0365 650.72 67.3965 651.16 66.5165 644.12C65.7265 637.77 72.4365 633.22 77.5965 615.85C79.1365 610.71 78.1265 608.51 77.5265 606.19C76.3865 601.76 78.4665 600.3 78.2965 596.79C77.6265 582.76 70.9865 570.87 64.6565 544.13C61.2365 529.66 59.1365 513.88 62.0165 495.63C63.4965 486.23 65.1565 481.39 64.4365 465.87C63.8765 453.87 59.5865 433.43 52.0065 399.37C48.5865 384.05 39.4565 351.96 38.2165 336.93C37.7165 330.87 37.5165 325.31 37.5565 320.18C37.5565 320.06 37.5665 319.95 37.5665 319.83C37.8065 295.69 43.2265 281.26 46.7665 270.35H46.7765C46.7965 270.29 46.8165 270.23 46.8365 270.17C47.0165 269.59 47.2065 269.02 47.3765 268.47C47.3765 268.47 49.0365 259.51 56.3065 243.41C60.3865 234.37 63.6765 227.22 64.9865 220.53C67.8765 212.42 58.4465 182.93 54.1065 167.45C53.5165 170.19 52.0765 176.75 51.4865 178.97C47.7665 193.03 42.0165 209.64 39.7965 220.35C39.7865 220.41 39.7765 220.47 39.7565 220.53C39.5265 221.66 39.3265 222.75 39.1765 223.75C38.8365 226.03 37.4265 245.12 28.9265 266.71C28.4465 267.91 27.9865 269.07 27.5465 270.18C27.5265 270.24 27.4965 270.3 27.4765 270.36C20.7165 287.39 17.9565 293.29 13.1565 302.87C9.63651 309.88 7.11652 315.48 6.72652 320.01C6.71652 320.07 6.7165 320.13 6.7065 320.19C6.6965 320.31 6.66652 320.43 6.66652 320.54C6.55652 322.52 8.69651 326.72 9.46651 329.36C11.8565 337.53 7.0265 344.37 12.5265 355.05C13.1165 356.18 9.47651 356.33 7.31651 354.08C4.59651 351.24 3.7865 343.47 3.7065 344.9C3.1665 354.38 1.49652 356.56 0.476516 364.3C-0.283484 369.95 1.8165 373.07 0.176497 375.36C-1.0835 377.11 -1.5135 376.96 -4.6035 373.84C-6.7735 371.66 -8.1535 369.62 -9.5435 367.98C-12.2635 364.81 -13.7335 361.69 -13.9735 355.15C-14.1535 350.22 -13.4235 346.46 -11.5735 339.29C-10.7535 336.13 -9.85351 334.37 -8.67351 325.49C-8.33351 322.9 -8.31349 321.34 -8.31349 320.19V320.01C-8.31349 319.35 -8.31349 318.82 -8.24349 318.31C-7.80349 314.64 -5.90348 313.49 -4.86348 306.6C-2.89348 293.59 -1.58349 283.91 0.256515 270.37C0.256515 270.31 0.266503 270.25 0.276504 270.19C0.646503 267.43 1.04652 264.54 1.47652 261.39C2.99652 250.17 8.09652 236.06 13.4765 220.54C13.4865 220.48 13.5165 220.42 13.5365 220.36C13.8465 219.47 14.1465 218.58 14.4565 217.68C15.0065 216.08 16.1765 203.9 16.6265 197.5C17.1765 189.51 22.4265 116.2 26.0265 105.14C28.7065 96.9 31.3065 93.58 33.7865 92.49V92.47C33.7865 92.47 35.8165 91.41 37.0365 90.92C40.4465 89.56 44.6565 88.81 49.1365 88.03C53.5265 87.23 61.3165 86.34 65.6365 84.67C72.0365 82.21 77.3165 79.14 80.4765 71.46C81.8165 68.22 82.3565 59.21 82.5765 53.05C79.5265 50.23 77.1765 46.59 75.6865 40.56C75.4265 39.48 75.1065 38.2 74.8065 36.82C71.4665 38 70.5965 32.86 69.9865 31.37C69.3065 29.74 68.3865 29.58 67.4865 25.97C66.8765 23.57 67.9265 21.99 67.4965 20.44C67.2065 19.4 67.0765 16.46 68.3965 15.45C68.5365 15.34 68.7165 15.28 68.9165 15.23C66.9365 7.71 65.6765 -4.58 69.7965 -13.99C71.5865 -18.06 73.7765 -21.33 76.0965 -23.94C81.5765 -30.62 90.6165 -35 100.857 -35C111.097 -35 120.126 -30.62 125.617 -23.94C127.937 -21.34 130.127 -18.06 131.917 -13.99C136.037 -4.58 134.776 7.71 132.796 15.23C132.986 15.28 133.167 15.34 133.317 15.45C134.637 16.46 134.507 19.4 134.217 20.44C133.787 21.99 134.837 23.57 134.227 25.97C133.327 29.58 132.417 29.74 131.727 31.37C131.117 32.86 130.237 37.99 126.907 36.82C126.607 38.2 126.297 39.48 126.027 40.56C124.536 46.6 122.187 50.23 119.137 53.05C119.357 59.21 119.896 68.22 121.236 71.46C124.406 79.14 129.686 82.21 136.076 84.67C140.396 86.34 148.186 87.23 152.576 88.03C157.056 88.81 161.266 89.57 164.676 90.92C165.896 91.41 167.926 92.47 167.926 92.47V92.49C170.406 93.58 173.016 96.89 175.686 105.14C179.286 116.2 184.527 189.51 185.087 197.5C185.547 203.91 186.706 216.09 187.256 217.68C187.566 218.58 187.867 219.47 188.177 220.36C188.197 220.42 188.227 220.48 188.237 220.54C193.617 236.06 198.717 250.17 200.237 261.39C200.667 264.53 201.066 267.43 201.436 270.19C201.446 270.25 201.456 270.31 201.456 270.37C203.307 283.91 204.616 293.59 206.576 306.6C207.616 313.49 209.516 314.64 209.956 318.31C210.027 318.83 210.027 319.35 210.027 320.01V320.19C210.027 321.34 210.046 322.9 210.386 325.49C211.576 334.37 212.477 336.13 213.287 339.29C215.137 346.47 215.866 350.22 215.686 355.15L215.747 355.16Z" fill="#EFEFEF" stroke="black" stroke-width="2" mask="url(#path-2-inside-1_325_378)"/>
</g>
<circle cx="65" cy="65" r="64.5" stroke="black"/>
</svg>
