<svg width="132" height="86" viewBox="0 0 132 86" fill="none" xmlns="http://www.w3.org/2000/svg">
<path d="M7.30691 1.08171C4.01296 6.46651 4.22679 13.0316 5.71594 18.9508C7.24582 25.0347 10.2979 30.5993 12.0187 36.6224C12.2173 37.3215 12.4006 38.0256 12.5584 38.7348C12.6449 39.1223 12.7239 39.5149 12.7977 39.905C12.8308 40.0823 12.8613 40.2621 12.8919 40.4394C12.9148 40.5812 12.9377 40.7256 12.958 40.8674C12.9937 41.1081 12.9988 41.1537 12.9784 41.0042C12.9402 40.6902 13.0217 41.3968 13.0166 41.3563C13.0395 41.5716 13.0599 41.7894 13.0777 42.0047C13.1057 42.3669 13.1286 42.7291 13.1388 43.0913C13.1642 43.8207 13.1515 44.5527 13.1057 45.2822C13.0853 45.6013 13.0573 45.923 13.0217 46.2421C13.0064 46.3865 12.9886 46.5309 12.9708 46.6752C13.0395 46.0901 12.9708 46.6752 12.9529 46.7766C12.8537 47.4072 12.7315 48.0328 12.5864 48.6534C12.2962 49.9021 11.9195 51.128 11.4816 52.3336C11.2805 52.8857 11.0692 53.4354 10.8452 53.9774C10.8121 54.0559 10.578 54.6081 10.7943 54.104C10.7485 54.2129 10.7001 54.3219 10.6543 54.4308C10.5118 54.7575 10.3667 55.0817 10.219 55.4059C9.67173 56.6039 9.08371 57.7817 8.48041 58.9544C7.29418 61.2568 6.04177 63.5262 4.87081 65.8361C2.16998 71.1627 -0.161747 76.8641 0.0088048 82.9378C0.041897 84.0928 1.00666 85.2047 2.23107 85.149C3.40712 85.0958 4.48898 84.1764 4.45334 82.9378C4.43552 82.297 4.44062 81.6537 4.4788 81.0128C4.49662 80.7241 4.51953 80.4354 4.54753 80.1492C4.55771 80.0352 4.57044 79.9187 4.58317 79.8047C4.5959 79.6907 4.61117 79.5767 4.62389 79.4628C4.58316 79.7642 4.58062 79.7895 4.61626 79.5387C4.81481 78.3432 5.06682 77.168 5.40538 76.0029C5.7643 74.7745 6.19959 73.5688 6.68325 72.3835C6.72652 72.2746 6.77234 72.1657 6.81816 72.0568C7.04472 71.5071 6.62979 72.4797 6.87162 71.9352C6.99126 71.6642 7.10836 71.3931 7.23054 71.1247C7.50037 70.5294 7.78039 69.9393 8.06803 69.3517C10.387 64.5976 13.1184 60.0562 15.1294 55.1552C16.0814 52.8351 16.8477 50.4314 17.2346 47.9518C17.7259 44.8187 17.6444 41.7413 17.0615 38.6208C15.9058 32.4331 12.8842 26.8381 10.9191 20.9062C10.4049 19.3561 9.96701 17.7781 9.63609 16.1774C9.55463 15.7772 9.47827 15.377 9.41209 14.9743C9.37899 14.7742 9.34844 14.5741 9.3179 14.3715C9.23389 13.8371 9.34081 14.6476 9.2899 14.1562C9.20589 13.3558 9.13207 12.5605 9.11171 11.7551C9.09134 10.9648 9.10916 10.1746 9.1728 9.38687C9.18808 9.19184 9.21099 8.99681 9.2288 8.80178C9.27972 8.26482 9.16771 9.10066 9.25426 8.61689C9.32553 8.2015 9.39935 7.78865 9.49354 7.3758C9.66918 6.61848 9.89574 5.87636 10.1808 5.15197C10.2216 5.05066 10.4023 4.65807 10.2216 5.05066C10.3183 4.84296 10.4125 4.63527 10.5169 4.43011C10.7103 4.04512 10.9216 3.67279 11.1482 3.30553C11.754 2.3152 11.4002 0.830957 10.3514 0.281332C9.26953 -0.286022 7.95603 0.017917 7.312 1.07411L7.30691 1.08171Z" fill="black"/>
<path d="M124.25 1.08171C127.544 6.46651 127.33 13.0316 125.841 18.9508C124.311 25.0347 121.259 30.5993 119.538 36.6224C119.339 37.3215 119.156 38.0256 118.998 38.7348C118.912 39.1223 118.833 39.5149 118.759 39.905C118.726 40.0823 118.695 40.2621 118.665 40.4394C118.642 40.5812 118.619 40.7256 118.599 40.8674C118.563 41.1081 118.558 41.1537 118.578 41.0042C118.616 40.6902 118.535 41.3968 118.54 41.3563C118.517 41.5716 118.497 41.7894 118.479 42.0047C118.451 42.3669 118.428 42.7291 118.418 43.0913C118.392 43.8207 118.405 44.5527 118.451 45.2822C118.471 45.6013 118.499 45.923 118.535 46.2421C118.55 46.3865 118.568 46.5309 118.586 46.6752C118.517 46.0901 118.586 46.6752 118.604 46.7766C118.703 47.4072 118.825 48.0328 118.97 48.6534C119.26 49.9021 119.637 51.128 120.075 52.3336C120.276 52.8857 120.487 53.4354 120.711 53.9774C120.745 54.0559 120.979 54.6081 120.762 54.104C120.808 54.2129 120.857 54.3219 120.902 54.4308C121.045 54.7575 121.19 55.0817 121.338 55.4059C121.885 56.6039 122.473 57.7817 123.076 58.9544C124.262 61.2568 125.515 63.5262 126.686 65.8361C129.387 71.1627 131.718 76.8641 131.548 82.9378C131.515 84.0928 130.55 85.2047 129.326 85.149C128.15 85.0958 127.068 84.1764 127.103 82.9378C127.121 82.297 127.116 81.6537 127.078 81.0128C127.06 80.7241 127.037 80.4354 127.009 80.1492C126.999 80.0352 126.986 79.9187 126.973 79.8047C126.961 79.6907 126.945 79.5767 126.933 79.4628C126.973 79.7642 126.976 79.7895 126.94 79.5387C126.742 78.3432 126.49 77.168 126.151 76.0029C125.792 74.7745 125.357 73.5688 124.873 72.3835C124.83 72.2746 124.784 72.1657 124.738 72.0568C124.512 71.5071 124.927 72.4797 124.685 71.9352C124.565 71.6642 124.448 71.3931 124.326 71.1247C124.056 70.5294 123.776 69.9393 123.489 69.3517C121.17 64.5976 118.438 60.0562 116.427 55.1552C115.475 52.8351 114.709 50.4314 114.322 47.9518C113.831 44.8187 113.912 41.7413 114.495 38.6208C115.651 32.4331 118.672 26.8381 120.638 20.9062C121.152 19.3561 121.59 17.7781 121.921 16.1774C122.002 15.7772 122.078 15.377 122.145 14.9743C122.178 14.7742 122.208 14.5741 122.239 14.3715C122.323 13.8371 122.216 14.6476 122.267 14.1562C122.351 13.3558 122.425 12.5605 122.445 11.7551C122.465 10.9648 122.447 10.1746 122.384 9.38687C122.369 9.19184 122.346 8.99681 122.328 8.80178C122.277 8.26482 122.389 9.10066 122.302 8.61689C122.231 8.2015 122.157 7.78865 122.063 7.3758C121.887 6.61848 121.661 5.87636 121.376 5.15197C121.335 5.05066 121.154 4.65807 121.335 5.05066C121.238 4.84296 121.144 4.63527 121.04 4.43011C120.846 4.04512 120.635 3.67279 120.408 3.30553C119.803 2.3152 120.156 0.830957 121.205 0.281332C122.287 -0.286022 123.601 0.017917 124.245 1.07411L124.25 1.08171Z" fill="black"/>
</svg>
