<svg xmlns="http://www.w3.org/2000/svg" width="108" height="199" viewBox="0 0 108 199" fill="none">
<g clip-path="url(#clip0_451_539)">
<path d="M42.7896 0.959947C43.1996 8.58995 40.2296 16.2099 34.8196 21.6099C31.8996 24.5199 28.3796 26.4399 24.6296 28.0799C20.8796 29.7199 16.8796 31.2099 13.6096 33.8299C10.8896 36.0099 8.49964 39.0099 7.89964 42.5199C7.29964 46.0299 8.53964 49.2299 10.5696 51.9799C12.7396 54.9199 15.5296 57.2999 17.9596 60.0099C20.3896 62.7199 22.5596 65.8699 24.2896 69.1699C31.0896 82.1599 31.8296 98.4499 25.4996 111.77C21.9696 119.2 16.4996 125.45 11.6096 131.99C7.00964 138.14 3.01964 144.68 1.23964 152.23C-1.99036 165.91 1.28964 181.02 10.0496 192.03C11.1796 193.45 12.3996 194.79 13.6996 196.05C14.2796 196.61 15.1596 195.73 14.5796 195.17C4.15964 185.04 -0.540361 169.68 1.85964 155.4C3.13964 147.76 6.60964 141.05 11.0796 134.8C15.8296 128.16 21.3596 122.04 25.3096 114.85C32.1796 102.33 32.7996 86.9299 27.6796 73.6699C25.0996 66.9999 21.1296 61.3499 16.1196 56.2899C13.4996 53.6499 10.5696 50.8499 9.43964 47.1999C8.20964 43.2699 9.77964 39.3999 12.5196 36.5099C18.2196 30.5199 27.1296 29.5399 33.4996 24.4699C39.0896 20.0099 42.8396 13.3099 43.8296 6.22995C44.0796 4.47995 44.1496 2.70995 44.0496 0.949947C44.0096 0.149947 42.7596 0.139947 42.7996 0.949947L42.7896 0.959947Z" fill="#231815"/>
<path d="M71.3995 0.189883C68.9195 2.78988 66.3495 5.51988 65.1795 8.98988C64.2395 11.7499 64.4595 15.0899 66.1795 17.5199C70.7295 23.9299 78.3895 17.7699 83.3895 15.5899C90.1795 12.6399 98.1895 15.8599 102.32 21.7099C106.94 28.2399 107.2 36.7999 105.34 44.3299C103.54 51.6199 99.9895 58.3499 96.6095 64.9999C93.7195 70.6799 90.7195 76.3199 87.5595 81.8599C84.3995 87.3999 81.0895 92.8899 77.4095 98.0999C74.6395 102.02 71.5795 106.27 67.6195 109.09C65.4595 110.63 63.1195 111.19 60.9295 109.33C58.6095 107.36 57.2395 104.29 56.1495 101.52C54.0295 96.1399 51.7995 90.8099 49.6995 85.4199C47.4895 79.7199 45.3695 73.9499 43.8795 68.0199C42.8495 63.8999 41.6095 58.8399 43.0295 54.6599C44.1095 51.4799 47.6095 50.1799 50.0995 52.7399C53.1095 55.8399 53.9695 61.0599 54.6295 65.1399C56.6495 77.4699 56.2995 90.4699 52.4995 102.4C47.3195 118.67 37.5095 132.96 31.9995 149.1C27.4095 162.55 26.1695 178.14 33.5995 190.86C35.2595 193.71 37.3495 196.29 39.8095 198.49C40.4095 199.03 41.2895 198.14 40.6895 197.61C29.1895 187.3 27.7195 170.31 31.2195 156.12C35.4195 139.09 45.5395 124.38 51.7895 108.13C54.6695 100.66 56.6095 92.9099 56.9295 84.8799C57.1495 79.3599 56.9595 73.7999 56.3195 68.3199C55.7595 63.5399 54.9795 58.3699 52.5995 54.1099C51.0495 51.3399 47.9795 48.8799 44.7195 50.6299C41.4595 52.3799 41.0495 56.8299 41.2695 60.1599C41.6195 65.7099 43.3095 71.1799 45.0795 76.4199C47.1195 82.4699 49.5095 88.3899 51.9095 94.2999C52.9695 96.9099 54.0095 99.5199 55.0495 102.13C56.0895 104.74 57.4695 107.73 59.6095 109.82C61.4995 111.66 63.9595 112.41 66.4295 111.27C68.1695 110.46 69.6895 109.14 71.0595 107.81C75.0195 103.95 78.2395 99.2899 81.2595 94.6799C88.3395 83.8699 94.3895 72.3799 100.13 60.8099C103.81 53.3899 107.34 45.5499 107.68 37.1499C107.97 29.9499 105.81 22.1699 100.06 17.4499C97.4595 15.3099 94.3095 13.8299 90.9695 13.3699C87.6295 12.9099 84.4195 13.6599 81.3695 15.1999C78.3195 16.7399 74.5195 19.6899 70.7695 19.0499C67.0195 18.4099 65.3995 14.1599 66.0395 10.6999C66.7595 6.83988 69.6995 3.81988 72.2995 1.08988C72.8595 0.509883 71.9695 -0.380117 71.4195 0.209883L71.3995 0.189883Z" fill="#231815"/>
<path d="M100.96 56.42C96.4297 65.68 91.3897 74.68 86.9497 83.98C82.7997 92.67 78.9697 101.83 78.4997 111.57C78.0297 121.31 81.1697 130.14 85.6197 138.46C90.0697 146.78 95.7297 154.53 99.7697 163.12C104.33 172.83 107.13 184.2 102.92 194.52C102.62 195.26 103.82 195.59 104.13 194.85C111.56 176.65 98.8897 158.55 89.9797 143.57C85.0497 135.28 80.5497 126.43 79.8197 116.64C79.0697 106.56 82.4097 96.91 86.5197 87.86C91.2797 77.38 96.9897 67.38 102.05 57.05C102.4 56.33 101.32 55.7 100.97 56.42H100.96Z" fill="#231815"/>
</g>
<defs>
<clipPath id="clip0_451_539">
<rect width="107.68" height="198.66" fill="white"/>
</clipPath>
</defs>
</svg>
