<svg width="155" height="77" viewBox="0 0 155 77" fill="none" xmlns="http://www.w3.org/2000/svg">
<path d="M20.01 12.59H22.62V3.84001H20.54V2.91002C21.58 2.72002 22.33 2.45002 22.97 2.08002H24.09V12.6H26.44V13.82H20.01V12.6V12.59Z" fill="black"/>
<path d="M28.19 12.94C31.87 9.72001 33.57 7.39001 33.57 5.37001C33.57 4.03001 32.87 3.05001 31.41 3.05001C30.45 3.05001 29.62 3.64001 28.98 4.41001L28.13 3.58001C29.09 2.54001 30.1 1.85001 31.59 1.85001C33.69 1.85001 35 3.23001 35 5.32001C35 7.66001 33.16 10.04 30.41 12.65C31.02 12.6 31.74 12.54 32.33 12.54H35.58V13.8H28.2V12.94H28.19Z" fill="black"/>
<path d="M36.8099 12.46L37.5299 11.5C38.1999 12.17 39.0499 12.8 40.4099 12.8C41.7699 12.8 42.9099 11.74 42.9099 10.03C42.9099 8.32001 41.9499 7.36002 40.4799 7.36002C39.6999 7.36002 39.1999 7.60002 38.5299 8.05002L37.7499 7.57001L38.1199 2.08002H43.8299V3.33002H39.3999L39.1099 6.72002C39.6199 6.43002 40.1499 6.26002 40.8499 6.26002C42.7999 6.26002 44.3899 7.41001 44.3899 9.99001C44.3899 12.57 42.5299 14.02 40.5499 14.02C38.7199 14.02 37.5999 13.25 36.8199 12.47L36.8099 12.46Z" fill="black"/>
<path d="M46.0299 7.90001C46.0299 3.82001 47.4499 1.85001 49.6999 1.85001C51.9499 1.85001 53.3499 3.84001 53.3499 7.90001C53.3499 11.96 51.9299 14.01 49.6999 14.01C47.4699 14.01 46.0299 11.98 46.0299 7.90001ZM51.9199 7.90001C51.9199 4.47001 51.0199 3.03001 49.6899 3.03001C48.3599 3.03001 47.4499 4.47001 47.4499 7.90001C47.4499 11.33 48.3499 12.85 49.6899 12.85C51.0299 12.85 51.9199 11.36 51.9199 7.90001Z" fill="black"/>
<path d="M62.2999 2.17001C62.2999 6.25001 60.4299 9.95 55.7899 12.27L55.0699 11.24C58.7399 9.40001 60.6999 6.65001 61.0099 3.25001H55.7399V2.16001H62.2999V2.17001ZM68.3199 7.55001H66.0199V14.99H64.7099V0.630005H66.0199V6.46001H68.3199V7.55001Z" fill="black"/>
<path d="M74.8099 5.02002C74.8099 7.45002 76.5399 9.93003 78.6499 10.83L77.9099 11.89C76.2499 11.12 74.8399 9.47002 74.1499 7.50002C73.4899 9.60002 72.0799 11.41 70.4499 12.24L69.6799 11.18C71.7399 10.2 73.4899 7.50002 73.4899 5.02002V3.19003H70.1599V2.10002H78.1799V3.19003H74.7999V5.02002H74.8099ZM81.4399 0.650024V14.99H80.1299V0.650024H81.4399Z" fill="black"/>
<path d="M101.89 9.89H98.4999V15H97.1699V9.89H93.5699V15H92.2399V9.89H88.8999V8.82H101.9V9.89H101.89ZM90.3499 4.34C90.3499 2.42 92.3799 1.22 95.3599 1.22C98.3399 1.22 100.39 2.42 100.39 4.34C100.39 6.26 98.3599 7.48 95.3599 7.48C92.3599 7.48 90.3499 6.26 90.3499 4.34ZM91.6899 4.34C91.6899 5.6 93.1799 6.42 95.3599 6.42C97.5399 6.42 99.0399 5.6 99.0399 4.34C99.0399 3.08 97.5499 2.27 95.3599 2.27C93.1699 2.27 91.6899 3.07 91.6899 4.34Z" fill="black"/>
<path d="M111.68 3.28001H103.64V2.22001H107.07V0.51001H108.38V2.22001H111.68V3.28001ZM107.71 9.35001C105.79 9.35001 104.46 8.29001 104.46 6.68001C104.46 5.07001 105.79 4.02 107.71 4.02C109.63 4.02 110.96 5.08001 110.96 6.68001C110.96 8.28001 109.62 9.35001 107.71 9.35001ZM107.71 8.34C108.91 8.34 109.73 7.68001 109.73 6.68001C109.73 5.68001 108.91 5.03001 107.71 5.03001C106.51 5.03001 105.69 5.69001 105.69 6.68001C105.69 7.67001 106.51 8.34 107.71 8.34ZM115.5 12.53C115.5 14.08 113.69 14.98 110.73 14.98C107.77 14.98 105.94 14.08 105.94 12.53C105.94 10.98 107.75 10.08 110.73 10.08C113.71 10.08 115.5 10.96 115.5 12.53ZM114.14 12.53C114.14 11.6 112.84 11.09 110.73 11.09C108.62 11.09 107.3 11.6 107.3 12.53C107.3 13.46 108.61 13.97 110.73 13.97C112.85 13.97 114.14 13.44 114.14 12.53ZM114.11 5.15001H111.69V4.09H114.11V0.630005H115.44V9.90001H114.11V7.95H111.68V6.88H114.11V5.15001Z" fill="black"/>
<path d="M129.97 8.41V9.95C132.64 10.08 134.21 10.96 134.21 12.45C134.21 14.08 132.37 14.98 129.31 14.98C126.25 14.98 124.38 14.08 124.38 12.45C124.38 10.96 125.96 10.08 128.64 9.95V8.41H122.81V7.35H135.79V8.41H129.96H129.97ZM123.55 5.45C126.06 5.16 128.35 3.93 128.46 2.34H124.01V1.28H134.62V2.34H130.15C130.26 3.92 132.55 5.16 135.06 5.45L134.6 6.49C132.25 6.2 130.1 5.15 129.3 3.56C128.52 5.14 126.35 6.2 124 6.49L123.54 5.45H123.55ZM129.3 10.94C127.04 10.94 125.71 11.48 125.71 12.44C125.71 13.4 127.04 13.96 129.3 13.96C131.56 13.96 132.88 13.4 132.88 12.44C132.88 11.48 131.54 10.94 129.3 10.94Z" fill="black"/>
<path d="M2.13995 33.13C4.57995 33.11 7.17995 32.91 9.91995 32.35L10.16 34.05C7.09995 34.65 4.29996 34.85 1.57996 34.85H0.0799561V23.05H2.13995V33.13ZM16.18 30.03H13.44V39.35H11.38V21.29H13.44V28.33H16.18V30.03Z" fill="black"/>
<path d="M17.9399 33.85C21.1799 33.85 25.6799 33.83 29.5599 33.25L29.6999 34.75C25.7199 35.51 21.3999 35.55 18.1999 35.55L17.9399 33.85ZM28.5999 26.89C28.5999 29.45 26.4999 31.23 23.6799 31.23C20.8599 31.23 18.7799 29.45 18.7799 26.89C18.7799 24.33 20.8599 22.55 23.6799 22.55C26.4999 22.55 28.5999 24.33 28.5999 26.89ZM20.7999 26.89C20.7999 28.45 22.0199 29.47 23.6799 29.47C25.3399 29.47 26.5799 28.45 26.5799 26.89C26.5799 25.33 25.3599 24.31 23.6799 24.31C21.9999 24.31 20.7999 25.31 20.7999 26.89ZM32.7199 21.27V39.37H30.6399V21.27H32.7199Z" fill="black"/>
<path d="M47.2899 26.81C47.2899 29.63 48.5099 32.51 50.9899 33.85L49.8499 35.39C48.1499 34.47 46.9899 32.81 46.3299 30.85C45.6899 32.97 44.5499 34.79 42.8299 35.79L41.6499 34.23C44.1299 32.77 45.3299 29.69 45.3299 26.81V26.17H42.2099V24.47H45.3299V21.91H47.2899V24.47H50.3899V26.17H47.2899V26.81ZM51.6699 21.65H53.6099V38.47H51.6699V29.97H49.2299V28.29H51.6699V21.65ZM57.2699 21.29V39.35H55.3099V21.29H57.2699Z" fill="black"/>
<path d="M70.3299 24.75H60.3099V23.11H64.3699V21.13H66.4299V23.11H70.3299V24.75ZM65.4099 32.29C62.9499 32.29 61.2499 30.93 61.2499 28.91C61.2499 26.89 62.9499 25.55 65.4099 25.55C67.8699 25.55 69.5499 26.91 69.5499 28.91C69.5499 30.91 67.8499 32.29 65.4099 32.29ZM75.3299 36.21C75.3299 38.19 72.9899 39.35 69.2499 39.35C65.5099 39.35 63.1499 38.19 63.1499 36.21C63.1499 34.23 65.4699 33.09 69.2499 33.09C73.0299 33.09 75.3299 34.25 75.3299 36.21ZM65.4099 30.73C66.7299 30.73 67.6299 30.05 67.6299 28.91C67.6299 27.77 66.7299 27.11 65.4099 27.11C64.0899 27.11 63.1699 27.81 63.1699 28.91C63.1699 30.01 64.0699 30.73 65.4099 30.73ZM73.1499 36.21C73.1499 35.19 71.6899 34.67 69.2499 34.67C66.8099 34.67 65.3099 35.19 65.3099 36.21C65.3099 37.23 66.7699 37.77 69.2499 37.77C71.7299 37.77 73.1499 37.23 73.1499 36.21ZM73.1699 30.69H70.4099V29.03H73.1699V27.13H70.4499V25.45H73.1699V21.29H75.2299V32.89H73.1699V30.69Z" fill="black"/>
<path d="M89.24 29.99C86.5 29.99 84.48 28.31 84.48 25.93C84.48 23.55 86.5 21.87 89.24 21.87C91.98 21.87 93.96 23.55 93.96 25.93C93.96 28.31 91.96 29.99 89.24 29.99ZM89.24 28.33C90.82 28.33 91.96 27.37 91.96 25.93C91.96 24.49 90.82 23.55 89.24 23.55C87.66 23.55 86.48 24.49 86.48 25.93C86.48 27.37 87.64 28.33 89.24 28.33ZM88.76 37.49H98.96V39.13H86.74V34.35H96.32V32.81H86.7V31.19H98.36V35.85H88.76V37.49ZM100.9 24.99V26.69H98.36V30.41H96.3V21.27H98.36V24.99H100.9Z" fill="black"/>
<path d="M112.11 28.99C112.11 32.89 110.17 35.35 107.47 35.35C104.77 35.35 102.83 32.89 102.83 28.99C102.83 25.09 104.77 22.61 107.47 22.61C110.17 22.61 112.11 25.09 112.11 28.99ZM110.13 28.99C110.13 26.17 109.03 24.47 107.47 24.47C105.91 24.47 104.81 26.17 104.81 28.99C104.81 31.81 105.89 33.51 107.47 33.51C109.05 33.51 110.13 31.81 110.13 28.99ZM119.47 30.05H116.65V39.37H114.59V21.29H116.65V28.35H119.47V30.05Z" fill="black"/>
<path d="M137.43 35.45V37.15H121.07V35.45H128.19V31.81H122.91V22.49H124.95V25.53H133.51V22.49H135.55V31.81H130.25V35.45H137.43ZM124.95 30.15H133.51V27.19H124.95V30.15Z" fill="black"/>
<path d="M149.05 23.18C149.05 28.56 146.89 33.12 140.69 36.12L139.59 34.48C144.33 32.2 146.57 29.02 146.93 24.86H140.49V23.18H149.05ZM154.37 21.28V39.34H152.31V21.28H154.37Z" fill="black"/>
<path d="M95.7199 67.71H45.4399V69.71H95.7199V67.71Z" fill="black"/>
<path d="M109.85 68.71L89.95 76.84L94.67 68.71L89.95 60.58L109.85 68.71Z" fill="black"/>
</svg>
