<svg width="782" height="42" viewBox="0 0 782 42" fill="none" xmlns="http://www.w3.org/2000/svg">
<circle cx="170" cy="8" r="5.5" fill="#B2E1F1" stroke="black"/>
<circle cx="318" cy="8" r="5.5" fill="#B2E1F1" stroke="black"/>
<circle cx="24" cy="8" r="5.5" fill="#B2E1F1" stroke="black"/>
<circle cx="612" cy="8" r="5.5" stroke="black"/>
<circle cx="758" cy="8" r="5.5" stroke="black"/>
<path d="M331 8H455" stroke="black"/>
<path d="M477 8H601" stroke="black"/>
<path d="M181 8H305" stroke="black"/>
<path d="M35 8H159" stroke="black"/>
<path d="M623 8H747" stroke="black"/>
<path d="M307.937 21.888C310.033 21.888 311.537 23.856 311.537 26.928C311.537 30.016 310.033 31.984 307.937 31.984C305.825 31.984 304.337 30.016 304.337 26.928C304.337 23.856 305.825 21.888 307.937 21.888ZM307.937 23.088C306.545 23.088 305.601 24.592 305.601 26.928C305.601 29.28 306.545 30.816 307.937 30.816C309.329 30.816 310.273 29.28 310.273 26.928C310.273 24.592 309.329 23.088 307.937 23.088ZM314.673 20.768H315.985V35.264H314.673V20.768ZM311.105 26.288H315.249V27.376H311.105V26.288ZM329.984 20.768H331.264V35.232H329.984V20.768ZM327.776 26.624H330.512V27.712H327.776V26.624ZM321.248 22.528H322.368C322.368 25.584 321.936 28.928 319.856 31.664L318.816 31.04C320.784 28.56 321.248 25.616 321.248 22.624V22.528ZM319.12 22.528H321.872V23.616H319.12V22.528ZM324.608 22.528H325.76C325.76 25.568 325.536 29.584 323.28 32.688L322.208 32.08C324.4 29.232 324.608 25.552 324.608 22.64V22.528ZM322.848 22.528H325.28V23.616H322.848V22.528ZM326.976 21.088H328.224V34.528H326.976V21.088Z" fill="black"/>
<path d="M452.065 23.088H460.593V24.192H452.065V23.088ZM456.337 25.376C458.289 25.376 459.729 26.752 459.729 28.704C459.729 30.64 458.289 32.032 456.337 32.032C454.401 32.032 452.945 30.64 452.945 28.704C452.945 26.752 454.401 25.376 456.337 25.376ZM456.337 26.496C455.105 26.496 454.177 27.408 454.177 28.704C454.177 29.984 455.105 30.896 456.337 30.896C457.585 30.896 458.513 29.984 458.513 28.704C458.513 27.408 457.585 26.496 456.337 26.496ZM455.681 20.96H457.009V23.616H455.681V20.96ZM462.673 20.784H463.985V35.248H462.673V20.784ZM460.305 26.832H463.649V27.936H460.305V26.832ZM477.328 20.768H478.656V35.264H477.328V20.768ZM467.632 30.672H468.832C471.248 30.672 473.408 30.576 475.968 30.16L476.112 31.248C473.488 31.68 471.312 31.776 468.832 31.776H467.632V30.672ZM467.6 22.128H474.288V27.296H468.96V31.088H467.632V26.208H472.944V23.216H467.6V22.128Z" fill="black"/>
<path d="M165.105 21.376H174.833V26.304H165.105V21.376ZM173.521 22.448H166.401V25.232H173.521V22.448ZM163.425 28.112H176.497V29.184H163.425V28.112ZM169.313 26.016H170.625V28.512H169.313V26.016ZM164.881 30.672H174.881V35.248H173.553V31.76H164.881V30.672Z" fill="black"/>
<path d="M13.7133 21.6H14.8173V23.088C14.8173 25.888 13.2333 28.176 10.7533 29.104L10.0653 28.016C12.2733 27.232 13.7133 25.296 13.7133 23.088V21.6ZM13.9533 21.6H15.0413V23.04C15.0413 25.088 16.4493 26.896 18.5613 27.632L17.8413 28.672C15.5053 27.792 13.9533 25.664 13.9533 23.04V21.6ZM20.6413 20.784H21.9693V29.344H20.6413V20.784ZM17.2173 29.76C20.1933 29.76 22.0333 30.768 22.0333 32.496C22.0333 34.224 20.1933 35.216 17.2173 35.216C14.2253 35.216 12.3853 34.224 12.3853 32.496C12.3853 30.768 14.2253 29.76 17.2173 29.76ZM17.2173 30.816C15.0413 30.816 13.7133 31.44 13.7133 32.496C13.7133 33.552 15.0413 34.176 17.2173 34.176C19.3933 34.176 20.7213 33.552 20.7213 32.496C20.7213 31.44 19.3933 30.816 17.2173 30.816ZM17.5052 23.84H20.9293V24.944H17.5052V23.84ZM31.616 22.832H35.696V23.872H31.616V22.832ZM31.616 25.472H35.696V26.512H31.616V25.472ZM35.36 20.784H36.688V28.32H35.36V20.784ZM27.376 29.04H36.688V32.464H28.704V34.688H27.408V31.472H35.376V30.096H27.376V29.04ZM27.408 34H37.216V35.056H27.408V34ZM25.504 21.44H26.816V23.52H30.736V21.44H32.032V27.76H25.504V21.44ZM26.816 24.56V26.688H30.736V24.56H26.816Z" fill="black"/>
<path d="M599.633 21.36H608.945V22.432H599.633V21.36ZM598.081 26.544H611.137V27.616H598.081V26.544ZM603.441 24.048H604.753V27.04H603.441V24.048ZM608.177 21.36H609.489V22.304C609.489 23.232 609.489 24.32 609.201 25.728L607.889 25.616C608.177 24.224 608.177 23.2 608.177 22.304V21.36ZM599.617 28.928H609.537V32.416H600.977V34.384H599.649V31.44H608.225V30H599.617V28.928ZM599.649 34.016H609.905V35.088H599.649V34.016ZM622.688 20.8H624.016V31.408H622.688V20.8ZM623.6 25.168H626.16V26.272H623.6V25.168ZM615.008 33.84H624.672V34.928H615.008V33.84ZM615.008 30.384H616.336V34.096H615.008V30.384ZM613.392 21.824H614.704V24.24H618.784V21.824H620.08V28.992H613.392V21.824ZM614.704 25.28V27.92H618.784V25.28H614.704Z" fill="black"/>
<path d="M753.857 20.768H755.201V35.264H753.857V20.768ZM754.881 26.48H757.569V27.6H754.881V26.48ZM744.689 30.544H745.825C748.497 30.544 750.369 30.448 752.529 30.048L752.673 31.168C750.449 31.584 748.545 31.664 745.825 31.664H744.689V30.544ZM744.689 22.176H751.409V23.264H746.001V31.04H744.689V22.176ZM769.328 20.768H770.656V35.264H769.328V20.768ZM759.632 30.672H760.832C763.248 30.672 765.408 30.576 767.968 30.16L768.112 31.248C765.488 31.68 763.312 31.776 760.832 31.776H759.632V30.672ZM759.6 22.128H766.288V27.296H760.96V31.088H759.632V26.208H764.944V23.216H759.6V22.128Z" fill="black"/>
<circle cx="466" cy="8" r="7.5" fill="#97C7EB" stroke="black"/>
</svg>
