<svg width="782" height="42" viewBox="0 0 782 42" fill="none" xmlns="http://www.w3.org/2000/svg">
<circle cx="170" cy="8" r="5.5" fill="black" stroke="black"/>
<circle cx="318" cy="8" r="5.5" fill="black" stroke="black"/>
<circle cx="466" cy="8" r="5.5" fill="black" stroke="black"/>
<circle cx="612" cy="8" r="5.5" fill="black" stroke="black"/>
<circle cx="24" cy="8" r="5.5" fill="black" stroke="black"/>
<path d="M331 8H455" stroke="black"/>
<path d="M477 8H601" stroke="black"/>
<path d="M181 8H305" stroke="black"/>
<path d="M35 8H159" stroke="black"/>
<path d="M623 8H747" stroke="black"/>
<path d="M302.578 21.024H303.714V21.664C303.714 24.224 300.93 26.064 297.97 26.544L297.474 25.488C300.066 25.136 302.578 23.536 302.578 21.664V21.024ZM302.786 21.024H303.922V21.664C303.922 23.504 306.466 25.136 309.026 25.488L308.53 26.544C305.586 26.064 302.786 24.176 302.786 21.664V21.024ZM296.706 27.68H309.778V28.768H296.706V27.68ZM303.234 30.096C306.338 30.096 308.194 31.024 308.194 32.656C308.194 34.32 306.338 35.232 303.234 35.232C300.13 35.232 298.274 34.32 298.274 32.656C298.274 31.024 300.13 30.096 303.234 30.096ZM303.234 31.12C300.978 31.12 299.618 31.696 299.618 32.656C299.618 33.648 300.978 34.208 303.234 34.208C305.506 34.208 306.85 33.648 306.85 32.656C306.85 31.696 305.506 31.12 303.234 31.12ZM311.441 32.304H324.545V33.408H311.441V32.304ZM317.297 28.56H318.625V32.608H317.297V28.56ZM312.961 21.984H322.945V28.8H312.961V21.984ZM321.665 23.056H314.257V27.728H321.665V23.056ZM327.823 21.632H337.055V22.72H327.823V21.632ZM326.159 27.424H339.263V28.528H326.159V27.424ZM336.271 21.632H337.567V22.768C337.567 24.096 337.567 25.68 337.103 27.888L335.807 27.744C336.271 25.6 336.271 24.064 336.271 22.768V21.632ZM327.871 33.824H337.999V34.928H327.871V33.824ZM327.871 30.128H329.199V33.984H327.871V30.128Z" fill="black"/>
<path d="M453.633 21.36H462.945V22.432H453.633V21.36ZM452.081 26.544H465.137V27.616H452.081V26.544ZM457.441 24.048H458.753V27.04H457.441V24.048ZM462.177 21.36H463.489V22.304C463.489 23.232 463.489 24.32 463.201 25.728L461.889 25.616C462.177 24.224 462.177 23.2 462.177 22.304V21.36ZM453.617 28.928H463.537V32.416H454.977V34.384H453.649V31.44H462.225V30H453.617V28.928ZM453.649 34.016H463.905V35.088H453.649V34.016ZM476.688 20.8H478.016V31.408H476.688V20.8ZM477.6 25.168H480.16V26.272H477.6V25.168ZM469.008 33.84H478.672V34.928H469.008V33.84ZM469.008 30.384H470.336V34.096H469.008V30.384ZM467.392 21.824H468.704V24.24H472.784V21.824H474.08V28.992H467.392V21.824ZM468.704 25.28V27.92H472.784V25.28H468.704Z" fill="black"/>
<path d="M159.937 21.888C162.033 21.888 163.537 23.856 163.537 26.928C163.537 30.016 162.033 31.984 159.937 31.984C157.825 31.984 156.337 30.016 156.337 26.928C156.337 23.856 157.825 21.888 159.937 21.888ZM159.937 23.088C158.545 23.088 157.601 24.592 157.601 26.928C157.601 29.28 158.545 30.816 159.937 30.816C161.329 30.816 162.273 29.28 162.273 26.928C162.273 24.592 161.329 23.088 159.937 23.088ZM166.673 20.768H167.985V35.264H166.673V20.768ZM163.105 26.288H167.249V27.376H163.105V26.288ZM181.984 20.768H183.264V35.232H181.984V20.768ZM179.776 26.624H182.512V27.712H179.776V26.624ZM173.248 22.528H174.368C174.368 25.584 173.936 28.928 171.856 31.664L170.816 31.04C172.784 28.56 173.248 25.616 173.248 22.624V22.528ZM171.12 22.528H173.872V23.616H171.12V22.528ZM176.608 22.528H177.76C177.76 25.568 177.536 29.584 175.28 32.688L174.208 32.08C176.4 29.232 176.608 25.552 176.608 22.64V22.528ZM174.848 22.528H177.28V23.616H174.848V22.528ZM178.976 21.088H180.224V34.528H178.976V21.088Z" fill="black"/>
<path d="M13.7133 21.6H14.8173V23.088C14.8173 25.888 13.2333 28.176 10.7533 29.104L10.0653 28.016C12.2733 27.232 13.7133 25.296 13.7133 23.088V21.6ZM13.9533 21.6H15.0413V23.04C15.0413 25.088 16.4493 26.896 18.5613 27.632L17.8413 28.672C15.5053 27.792 13.9533 25.664 13.9533 23.04V21.6ZM20.6413 20.784H21.9693V29.344H20.6413V20.784ZM17.2173 29.76C20.1933 29.76 22.0333 30.768 22.0333 32.496C22.0333 34.224 20.1933 35.216 17.2173 35.216C14.2253 35.216 12.3853 34.224 12.3853 32.496C12.3853 30.768 14.2253 29.76 17.2173 29.76ZM17.2173 30.816C15.0413 30.816 13.7133 31.44 13.7133 32.496C13.7133 33.552 15.0413 34.176 17.2173 34.176C19.3933 34.176 20.7213 33.552 20.7213 32.496C20.7213 31.44 19.3933 30.816 17.2173 30.816ZM17.5052 23.84H20.9293V24.944H17.5052V23.84ZM31.616 22.832H35.696V23.872H31.616V22.832ZM31.616 25.472H35.696V26.512H31.616V25.472ZM35.36 20.784H36.688V28.32H35.36V20.784ZM27.376 29.04H36.688V32.464H28.704V34.688H27.408V31.472H35.376V30.096H27.376V29.04ZM27.408 34H37.216V35.056H27.408V34ZM25.504 21.44H26.816V23.52H30.736V21.44H32.032V27.76H25.504V21.44ZM26.816 24.56V26.688H30.736V24.56H26.816Z" fill="black"/>
<path d="M601.714 20.784H602.994V35.248H601.714V20.784ZM599.266 26.576H602.05V27.68H599.266V26.576ZM598.434 21.104H599.682V34.512H598.434V21.104ZM591.234 30.576H592.178C594.29 30.576 595.73 30.496 597.41 30.144L597.538 31.248C595.81 31.616 594.354 31.68 592.178 31.68H591.234V30.576ZM591.234 22.544H596.61V23.632H592.546V31.072H591.234V22.544ZM609.585 28.432H610.913V31.504H609.585V28.432ZM606.593 27.728H614.113V28.816H606.593V27.728ZM606.593 22.096H614.065V23.168H607.921V28.144H606.593V22.096ZM607.537 24.88H613.761V25.936H607.537V24.88ZM615.889 20.768H617.217V35.264H615.889V20.768ZM605.697 32.352L605.505 31.232C608.145 31.232 611.793 31.216 614.945 30.736L615.057 31.728C611.809 32.336 608.273 32.352 605.697 32.352ZM621.711 21.36H631.023V22.432H621.711V21.36ZM620.159 26.544H633.215V27.616H620.159V26.544ZM625.519 24.048H626.831V27.04H625.519V24.048ZM630.255 21.36H631.567V22.304C631.567 23.232 631.567 24.32 631.279 25.728L629.967 25.616C630.255 24.224 630.255 23.2 630.255 22.304V21.36ZM621.695 28.928H631.615V32.416H623.055V34.384H621.727V31.44H630.303V30H621.695V28.928ZM621.727 34.016H631.983V35.088H621.727V34.016Z" fill="black"/>
<path d="M744.065 23.088H752.593V24.192H744.065V23.088ZM748.337 25.376C750.289 25.376 751.729 26.752 751.729 28.704C751.729 30.64 750.289 32.032 748.337 32.032C746.401 32.032 744.945 30.64 744.945 28.704C744.945 26.752 746.401 25.376 748.337 25.376ZM748.337 26.496C747.105 26.496 746.177 27.408 746.177 28.704C746.177 29.984 747.105 30.896 748.337 30.896C749.585 30.896 750.513 29.984 750.513 28.704C750.513 27.408 749.585 26.496 748.337 26.496ZM747.681 20.96H749.009V23.616H747.681V20.96ZM754.673 20.784H755.985V35.248H754.673V20.784ZM752.305 26.832H755.649V27.936H752.305V26.832ZM769.328 20.768H770.656V35.264H769.328V20.768ZM759.632 30.672H760.832C763.248 30.672 765.408 30.576 767.968 30.16L768.112 31.248C765.488 31.68 763.312 31.776 760.832 31.776H759.632V30.672ZM759.6 22.128H766.288V27.296H760.96V31.088H759.632V26.208H764.944V23.216H759.6V22.128Z" fill="black"/>
<circle cx="758" cy="8" r="7.5" fill="#97C7EB" stroke="black"/>
</svg>
