<svg width="781" height="42" viewBox="0 0 781 42" fill="none" xmlns="http://www.w3.org/2000/svg">
<circle cx="174" cy="8" r="7.5" fill="#97C7EB" stroke="black"/>
<circle cx="465" cy="8" r="5.5" stroke="black"/>
<circle cx="611" cy="8" r="5.5" stroke="black"/>
<circle cx="757" cy="8" r="5.5" stroke="black"/>
<circle cx="320" cy="8" r="5.5" stroke="black"/>
<path d="M476 8H600" stroke="black"/>
<path d="M331 8H455" stroke="black"/>
<path d="M39 8H163" stroke="black"/>
<path d="M622 8H746" stroke="black"/>
<path d="M185 8H309" stroke="black"/>
<path d="M309.937 21.888C312.033 21.888 313.537 23.856 313.537 26.928C313.537 30.016 312.033 31.984 309.937 31.984C307.825 31.984 306.337 30.016 306.337 26.928C306.337 23.856 307.825 21.888 309.937 21.888ZM309.937 23.088C308.545 23.088 307.601 24.592 307.601 26.928C307.601 29.28 308.545 30.816 309.937 30.816C311.329 30.816 312.273 29.28 312.273 26.928C312.273 24.592 311.329 23.088 309.937 23.088ZM316.673 20.768H317.985V35.264H316.673V20.768ZM313.105 26.288H317.249V27.376H313.105V26.288ZM331.984 20.768H333.264V35.232H331.984V20.768ZM329.776 26.624H332.512V27.712H329.776V26.624ZM323.248 22.528H324.368C324.368 25.584 323.936 28.928 321.856 31.664L320.816 31.04C322.784 28.56 323.248 25.616 323.248 22.624V22.528ZM321.12 22.528H323.872V23.616H321.12V22.528ZM326.608 22.528H327.76C327.76 25.568 327.536 29.584 325.28 32.688L324.208 32.08C326.4 29.232 326.608 25.552 326.608 22.64V22.528ZM324.848 22.528H327.28V23.616H324.848V22.528ZM328.976 21.088H330.224V34.528H328.976V21.088Z" fill="black"/>
<path d="M451.065 23.088H459.593V24.192H451.065V23.088ZM455.337 25.376C457.289 25.376 458.729 26.752 458.729 28.704C458.729 30.64 457.289 32.032 455.337 32.032C453.401 32.032 451.945 30.64 451.945 28.704C451.945 26.752 453.401 25.376 455.337 25.376ZM455.337 26.496C454.105 26.496 453.177 27.408 453.177 28.704C453.177 29.984 454.105 30.896 455.337 30.896C456.585 30.896 457.513 29.984 457.513 28.704C457.513 27.408 456.585 26.496 455.337 26.496ZM454.681 20.96H456.009V23.616H454.681V20.96ZM461.673 20.784H462.985V35.248H461.673V20.784ZM459.305 26.832H462.649V27.936H459.305V26.832ZM476.328 20.768H477.656V35.264H476.328V20.768ZM466.632 30.672H467.832C470.248 30.672 472.408 30.576 474.968 30.16L475.112 31.248C472.488 31.68 470.312 31.776 467.832 31.776H466.632V30.672ZM466.6 22.128H473.288V27.296H467.96V31.088H466.632V26.208H471.944V23.216H466.6V22.128Z" fill="black"/>
<path d="M169.105 21.376H178.833V26.304H169.105V21.376ZM177.521 22.448H170.401V25.232H177.521V22.448ZM167.425 28.112H180.497V29.184H167.425V28.112ZM173.313 26.016H174.625V28.512H173.313V26.016ZM168.881 30.672H178.881V35.248H177.553V31.76H168.881V30.672Z" fill="black"/>
<path d="M13.7133 21.6H14.8173V23.088C14.8173 25.888 13.2333 28.176 10.7533 29.104L10.0653 28.016C12.2733 27.232 13.7133 25.296 13.7133 23.088V21.6ZM13.9533 21.6H15.0413V23.04C15.0413 25.088 16.4493 26.896 18.5613 27.632L17.8413 28.672C15.5053 27.792 13.9533 25.664 13.9533 23.04V21.6ZM20.6413 20.784H21.9693V29.344H20.6413V20.784ZM17.2173 29.76C20.1933 29.76 22.0333 30.768 22.0333 32.496C22.0333 34.224 20.1933 35.216 17.2173 35.216C14.2253 35.216 12.3853 34.224 12.3853 32.496C12.3853 30.768 14.2253 29.76 17.2173 29.76ZM17.2173 30.816C15.0413 30.816 13.7133 31.44 13.7133 32.496C13.7133 33.552 15.0413 34.176 17.2173 34.176C19.3933 34.176 20.7213 33.552 20.7213 32.496C20.7213 31.44 19.3933 30.816 17.2173 30.816ZM17.5052 23.84H20.9293V24.944H17.5052V23.84ZM31.616 22.832H35.696V23.872H31.616V22.832ZM31.616 25.472H35.696V26.512H31.616V25.472ZM35.36 20.784H36.688V28.32H35.36V20.784ZM27.376 29.04H36.688V32.464H28.704V34.688H27.408V31.472H35.376V30.096H27.376V29.04ZM27.408 34H37.216V35.056H27.408V34ZM25.504 21.44H26.816V23.52H30.736V21.44H32.032V27.76H25.504V21.44ZM26.816 24.56V26.688H30.736V24.56H26.816Z" fill="black"/>
<path d="M598.633 21.36H607.945V22.432H598.633V21.36ZM597.081 26.544H610.137V27.616H597.081V26.544ZM602.441 24.048H603.753V27.04H602.441V24.048ZM607.177 21.36H608.489V22.304C608.489 23.232 608.489 24.32 608.201 25.728L606.889 25.616C607.177 24.224 607.177 23.2 607.177 22.304V21.36ZM598.617 28.928H608.537V32.416H599.977V34.384H598.649V31.44H607.225V30H598.617V28.928ZM598.649 34.016H608.905V35.088H598.649V34.016ZM621.688 20.8H623.016V31.408H621.688V20.8ZM622.6 25.168H625.16V26.272H622.6V25.168ZM614.008 33.84H623.672V34.928H614.008V33.84ZM614.008 30.384H615.336V34.096H614.008V30.384ZM612.392 21.824H613.704V24.24H617.784V21.824H619.08V28.992H612.392V21.824ZM613.704 25.28V27.92H617.784V25.28H613.704Z" fill="black"/>
<path d="M752.857 20.768H754.201V35.264H752.857V20.768ZM753.881 26.48H756.569V27.6H753.881V26.48ZM743.689 30.544H744.825C747.497 30.544 749.369 30.448 751.529 30.048L751.673 31.168C749.449 31.584 747.545 31.664 744.825 31.664H743.689V30.544ZM743.689 22.176H750.409V23.264H745.001V31.04H743.689V22.176ZM768.328 20.768H769.656V35.264H768.328V20.768ZM758.632 30.672H759.832C762.248 30.672 764.408 30.576 766.968 30.16L767.112 31.248C764.488 31.68 762.312 31.776 759.832 31.776H758.632V30.672ZM758.6 22.128H765.288V27.296H759.96V31.088H758.632V26.208H763.944V23.216H758.6V22.128Z" fill="black"/>
<circle cx="24" cy="8" r="5.5" fill="#B2E1F1" stroke="black"/>
</svg>
