<?xml version="1.0" encoding="UTF-8"?>
<svg id="_레이어_2" data-name="레이어 2" xmlns="http://www.w3.org/2000/svg" viewBox="0 0 169.71 571.93">
  <defs>
    <style>
      .cls-1 {
        fill: #f3a9aa;
        stroke: #231815;
        stroke-miterlimit: 10;
      }
    </style>
  </defs>
  <g id="_레이어_1-2" data-name="레이어 1">
    <path class="cls-1" d="m37.99,105.58c-.9.41-2.38,1.3-2.38,1.3v.02c-1.84.91-3.74,3.66-5.71,10.54-2.64,9.21-6.49,70.3-6.9,76.97-.33,5.34-1.19,15.48-1.6,16.82-.22.75-.45,1.49-.67,2.23-3.94,13-7.73,24.8-8.86,34.19-.32,2.61-.61,5.03-.88,7.33-1.36,11.36-2.33,19.44-3.78,30.33-.77,5.75-2.17,6.71-2.49,9.76-.04.44-.04.88-.04,1.43,0,.97,0,2.29-.28,4.57-.86,7.39-1.52,8.86-2.12,11.5-1.36,5.98-1.9,9.1-1.76,13.22.17,5.44,1.25,8.05,3.24,10.69,1.03,1.36,2.04,3.05,3.63,4.88,2.27,2.6,2.59,2.72,3.51,1.26,1.21-1.9-.33-4.5.22-9.21.75-6.46,1.98-8.27,2.37-16.17.06-1.19.65,5.28,2.65,7.65,1.59,1.88,4.26,1.75,3.83.8-4.04-8.89-.5-14.59-2.25-21.4-.56-2.2-2.13-5.7-2.05-7.35,0-.14.03-.3.04-.44.29-3.77,2.14-8.44,4.72-14.28,3.54-8.01,5.57-12.93,10.57-27.24.33-.93.66-1.89,1.01-2.9,6.25-17.98,7.28-33.89,7.53-35.8.11-.86.27-1.82.45-2.82,1.63-8.92,5.85-22.77,8.58-34.49.43-1.85,1.49-7.31,1.92-9.59.13.51.24,1.04.36,1.56.21,6.79-1.14,21.95-2.74,37.4-.18,1.7-.39,3.41-.64,5.12,0,0,0,0,0,0-.95,6.65-2.33,13.36-3.67,19.89-1.46,7.12-2.34,13.07-2.76,16.91-.58,2.06-.78,3.14-.78,3.14-.15.5-.32,1.01-.49,1.54,0,.01,0,.03-.01.04,0,0,0,0,0,0-2.96,9.13-7.51,21.19-7.68,41.44,0,.09,0,.18,0,.27-.03,4.22.14,8.79.54,13.76,1.03,12.52,8.65,39.26,11.49,52.03,6.32,28.39,9.9,45.41,10.36,55.42.6,12.92-.79,16.97-2.02,24.79-2.4,15.21-.65,28.37,2.2,40.42,5.28,22.28,10.8,32.19,11.37,43.89.14,2.92-1.59,4.14-.64,7.83.5,1.92,1.34,3.76.06,8.04-4.3,14.48-9.89,18.28-9.23,23.57.73,5.86,16.26,5.49,22.33,4.17,5-1.09,4.94-10.06,3.49-20.34-.29-2.08-.44-4.4-.33-7.96.06-1.76.43-3.81.63-6.28.18-2.28-.34-4.69-.63-6.6-.22-1.44-.44-2.6-.48-3.21-1.34-22.38-.92-27.75,1.3-48.79,2.24-21.26-.91-25.08-.51-38.08.23-7.71,2.08-15.58,2.57-23.92.62-10.47-.23-20.35-1.11-27.79-2.41-20.57-2.39-23.89-3.17-40.15-.85-17.66,3.61-26.31,1.07-41.54.59.27,2.03.36,3.47.38,1.43.02,2.87-.11,3.46-.38-2.54,15.23,1.92,23.89,1.07,41.54-.78,16.26-.76,19.58-3.17,40.15-.87,7.44-1.73,17.33-1.11,27.79.5,8.34,2.34,16.22,2.57,23.92.4,13-2.75,16.82-.51,38.08,2.22,21.04,2.64,26.41,1.3,48.79-.04.61-.26,1.77-.47,3.21-.29,1.91-.81,4.32-.63,6.6.2,2.47.57,4.52.63,6.28.11,3.56-.04,5.88-.33,7.96-1.44,10.28-1.51,19.25,3.49,20.34,6.08,1.32,21.6,1.69,22.33-4.17.66-5.29-4.93-9.08-9.23-23.57-1.27-4.28-.43-6.12.06-8.04.95-3.69-.78-4.91-.64-7.83.56-11.7,6.09-21.6,11.37-43.89,2.85-12.05,4.6-25.21,2.21-40.42-1.24-7.83-2.62-11.87-2.02-24.79.47-10.01,4.04-27.03,10.36-55.42,2.84-12.77,10.46-39.51,11.49-52.03.41-5.05.57-9.69.54-13.96,0-.1,0-.2,0-.31-.2-20.12-4.72-32.12-7.67-41.21,0-.01,0-.02,0-.04-.17-.52-.34-1.04-.5-1.54,0,0-.21-1.15-.83-3.33-.42-3.75-1.27-9.46-2.65-16.26-1.35-6.65-2.75-13.53-3.72-20.36,0,0,0,0,0,0-.24-1.65-.44-3.29-.61-4.93-1.61-15.64-2.94-31.06-2.67-37.98.11-.28.22-.54.34-.78.45,2.37,1.44,7.44,1.85,9.21,2.73,11.72,6.95,25.57,8.58,34.49.18,1,.34,1.96.45,2.82.25,1.91,1.28,17.82,7.53,35.8.35,1.01.68,1.97,1,2.9,4.98,14.32,7.04,19.23,10.57,27.24,2.59,5.84,4.45,10.51,4.73,14.28.01.14.04.3.04.44.08,1.65-1.49,5.15-2.05,7.35-1.75,6.81,1.78,12.51-2.25,21.4-.43.95,2.24,1.08,3.83-.8,2-2.37,2.59-8.84,2.65-7.65.39,7.9,1.62,9.71,2.37,16.17.55,4.71-.99,7.31.22,9.21.92,1.46,1.24,1.34,3.51-1.26,1.59-1.83,2.6-3.52,3.63-4.88,1.99-2.64,3.07-5.25,3.24-10.69.14-4.12-.4-7.24-1.76-13.22-.6-2.64-1.26-4.11-2.12-11.5-.27-2.28-.27-3.6-.28-4.57,0-.55,0-.99-.04-1.43-.31-3.05-1.73-4.01-2.49-9.76-1.45-10.89-2.42-18.97-3.78-30.33-.27-2.3-.56-4.72-.88-7.33-1.13-9.39-4.92-21.19-8.86-34.19-.22-.74-.45-1.48-.67-2.23-.4-1.34-1.27-11.48-1.6-16.82-.41-6.67-4.26-67.76-6.9-76.97-1.97-6.88-3.87-9.63-5.71-10.54v-.02s-1.48-.89-2.38-1.3c-1.82-.83-3.97-1.38-6.28-1.87-.23-.05-.46-.1-.7-.15-.3-.06-.59-.12-.89-.18-.58-.12-1.16-.24-1.75-.37-.72-.19-4.62-1.51-7.89-2.78-5.33-2.05-9.73-4.61-12.38-11.01-1.11-2.7-1.56-10.21-1.75-15.34,2.54-2.35,4.51-5.38,5.74-10.41.22-.9.48-1.98.74-3.12,2.78.98,3.5-3.3,4.02-4.54.57-1.37,1.31-1.5,2.07-4.5.51-2.01-.36-3.32,0-4.61.24-.87.36-3.32-.75-4.16-.12-.09-.26-.14-.42-.19,1.65-6.26,2.7-16.5-.74-24.34-1.48-3.39-3.32-6.13-5.25-8.29-4.57-5.58-12.1-9.22-20.63-9.22s-16.06,3.64-20.63,9.22c-1.93,2.16-3.77,4.9-5.25,8.29-3.44,7.84-2.38,18.08-.74,24.34-.16.05-.3.1-.42.19-1.11.84-.99,3.29-.75,4.16.35,1.29-.52,2.6,0,4.61.75,3,1.5,3.13,2.07,4.5.51,1.24,1.24,5.52,4.02,4.54.26,1.14.52,2.22.74,3.12,1.23,5.03,3.2,8.06,5.74,10.41-.18,5.13-.64,12.64-1.75,15.34-2.64,6.4-7.05,8.96-12.38,11.01-3.34,1.29-4.49,2.07-7.9,2.78-.57.12-1.13.24-1.68.36-.51.1-1.01.21-1.5.31-2.36.5-4.56,1.06-6.42,1.9Z"/>
  </g>
</svg>