<?xml version="1.0" encoding="UTF-8"?>
<svg id="_레이어_2" data-name="레이어 2" xmlns="http://www.w3.org/2000/svg" viewBox="0 0 169.72 571.93">
  <defs>
    <style>
      .cls-1 {
        fill: #f3a9aa;
        stroke: #231815;
        stroke-miterlimit: 10;
      }
    </style>
  </defs>
  <g id="_레이어_1-2" data-name="레이어 1">
    <path class="cls-1" d="m38,105.58c-.9.41-2.39,1.3-2.39,1.3v.02c-1.84.91-3.74,3.66-5.71,10.54-2.64,9.21-6.49,70.31-6.9,76.97-.33,5.34-1.19,15.48-1.6,16.82-.22.75-.45,1.48-.67,2.23-3.96,12.99-7.73,24.8-8.86,34.19-.31,2.61-.6,5.03-.88,7.33-1.36,11.36-2.32,19.44-3.78,30.33-.77,5.74-2.16,6.7-2.49,9.76-.05.43-.04.88-.05,1.43,0,.97,0,2.29-.28,4.57-.86,7.39-1.52,8.86-2.12,11.5-1.36,5.98-1.9,9.1-1.76,13.22.17,5.45,1.25,8.06,3.24,10.7,1.03,1.36,2.04,3.05,3.64,4.88,2.26,2.59,2.58,2.72,3.51,1.26,1.21-1.91-.33-4.5.22-9.21.76-6.46,1.98-8.28,2.38-16.17.06-1.2.65,5.27,2.65,7.64,1.58,1.88,4.26,1.75,3.83.81-4.04-8.9-.5-14.6-2.25-21.41-.57-2.2-2.13-5.7-2.05-7.34,0-.15.03-.3.04-.44.29-3.77,2.14-8.44,4.72-14.28,3.54-8.01,5.57-12.93,10.57-27.24.32-.93.66-1.89,1.01-2.9,6.24-17.98,7.28-33.89,7.53-35.8.11-.86.27-1.82.45-2.82,1.63-8.92,5.84-22.77,8.58-34.48.43-1.85,1.49-7.31,1.92-9.6.13.52.25,1.04.37,1.56,1.12,8.68.73,23.21-.3,37.46-.12,1.68-.32,3.36-.6,5.06,0,0,0,0,0,0-1,6.29-2.85,12.74-4.85,19.61-2.08,7.14-3.28,12.94-3.92,16.68-.69,2.39-.92,3.65-.92,3.65-.15.49-.31.99-.48,1.5-.01.03-.02.05-.03.07,0,0,0,0,0,0-2.96,9.11-7.55,21.16-7.67,41.37,0,.09,0,.18,0,.28-.03,4.24.13,8.83.55,13.83,1.03,12.52,8.64,39.26,11.49,52.03,6.32,28.39,9.89,45.42,10.36,55.42.6,12.93-.79,16.97-2.02,24.8-2.4,15.21-.65,28.36,2.2,40.42,5.28,22.28,10.81,32.19,11.37,43.88.14,2.92-1.59,4.14-.64,7.83.5,1.93,1.34,3.77.06,8.05-4.3,14.48-9.89,18.27-9.23,23.56.73,5.86,16.26,5.5,22.33,4.18,5-1.09,4.94-10.06,3.49-20.34-.29-2.08-.44-4.4-.32-7.96.05-1.76.43-3.81.62-6.28.19-2.28-.34-4.69-.62-6.6-.22-1.44-.44-2.6-.48-3.21-1.34-22.38-.92-27.75,1.3-48.79,2.24-21.27-.91-25.08-.51-38.08.23-7.71,2.08-15.58,2.57-23.93.62-10.46-.23-20.35-1.11-27.79-2.41-20.57-2.39-23.89-3.17-40.15-.85-17.66,3.61-26.32,1.07-41.55.59.27,2.03.36,3.47.38s2.87-.11,3.46-.38c-2.54,15.23,1.92,23.89,1.07,41.55-.78,16.26-.76,19.58-3.17,40.15-.87,7.44-1.73,17.33-1.11,27.79.5,8.35,2.34,16.22,2.57,23.93.4,13-2.75,16.81-.51,38.08,2.23,21.04,2.64,26.41,1.3,48.79-.04.61-.26,1.77-.47,3.21-.29,1.91-.81,4.32-.63,6.6.2,2.47.57,4.52.63,6.28.11,3.56-.04,5.88-.33,7.96-1.44,10.28-1.51,19.25,3.49,20.34,6.08,1.32,21.6,1.68,22.33-4.18.66-5.29-4.93-9.08-9.23-23.56-1.27-4.28-.43-6.12.06-8.05.95-3.69-.77-4.91-.64-7.83.57-11.69,6.1-21.6,11.37-43.88,2.85-12.06,4.6-25.21,2.21-40.42-1.24-7.83-2.63-11.87-2.03-24.8.47-10,4.04-27.03,10.37-55.42,2.84-12.77,10.46-39.51,11.49-52.03.41-5.05.57-9.68.54-13.96,0-.1,0-.2,0-.3-.15-20.12-4.72-32.13-7.67-41.22-.01-.02-.01-.05-.02-.07-.17-.51-.33-1.01-.48-1.5,0,0-.25-1.39-1.04-4.02-.65-3.68-1.81-9.23-3.77-16-2.01-6.95-3.88-13.52-4.89-19.93,0,0,0,0,0,0-.27-1.66-.46-3.29-.58-4.93-1.04-14.54-1.37-29.45-.13-38.37.1-.04.21-.04.33,0,.47,2.46,1.38,7.14,1.77,8.82,2.74,11.72,6.95,25.57,8.58,34.48.18,1,.34,1.96.46,2.82.25,1.9,1.28,17.82,7.52,35.8.35,1.01.69,1.97,1.01,2.9,5.01,14.31,7.03,19.23,10.57,27.24,2.59,5.84,4.45,10.51,4.73,14.28.01.14.04.3.04.44.07,1.65-1.5,5.15-2.06,7.34-1.75,6.81,1.78,12.51-2.25,21.41-.43.94,2.24,1.07,3.83-.81,2-2.37,2.59-8.84,2.65-7.64.4,7.89,1.62,9.71,2.38,16.17.55,4.71-.99,7.3.22,9.21.92,1.46,1.24,1.33,3.51-1.26,1.59-1.83,2.6-3.52,3.63-4.88,1.99-2.64,3.07-5.25,3.24-10.7.14-4.11-.4-7.24-1.76-13.22-.6-2.64-1.26-4.11-2.12-11.5-.27-2.28-.27-3.59-.27-4.57,0-.55,0-.99-.05-1.43-.32-3.06-1.72-4.02-2.49-9.76-1.45-10.89-2.42-18.97-3.78-30.33-.28-2.29-.57-4.71-.88-7.33-1.13-9.39-4.9-21.2-8.86-34.19-.22-.74-.45-1.48-.67-2.23-.41-1.34-1.26-11.48-1.59-16.82-.41-6.67-4.26-67.76-6.9-76.97-1.97-6.88-3.88-9.63-5.71-10.54v-.02s-1.48-.89-2.39-1.3c-1.82-.83-3.97-1.38-6.28-1.87-.23-.05-.47-.1-.7-.15-.3-.06-.6-.12-.9-.19-.57-.12-1.15-.25-1.73-.39-1.37-.37-4.87-1.58-7.89-2.75-5.33-2.05-9.73-4.61-12.38-11.01-1.11-2.7-1.56-10.21-1.75-15.34,2.54-2.35,4.51-5.38,5.74-10.41.22-.9.48-1.98.74-3.12,2.78.98,3.5-3.3,4.02-4.54.57-1.36,1.31-1.5,2.07-4.5.51-2.01-.36-3.32,0-4.61.24-.87.36-3.32-.75-4.16-.12-.09-.26-.14-.42-.19,1.65-6.26,2.7-16.5-.74-24.34-1.48-3.39-3.32-6.13-5.25-8.29-4.57-5.58-12.1-9.22-20.63-9.22s-16.06,3.64-20.63,9.22c-1.93,2.16-3.77,4.9-5.25,8.29-3.44,7.84-2.38,18.08-.74,24.34-.15.05-.3.09-.42.19-1.11.84-.99,3.29-.75,4.16.35,1.29-.52,2.6,0,4.61.76,3,1.5,3.14,2.07,4.5.52,1.24,1.24,5.52,4.02,4.54.26,1.15.52,2.22.74,3.12,1.23,5.03,3.2,8.06,5.74,10.41-.18,5.13-.64,12.64-1.75,15.34-2.64,6.4-7.04,8.96-12.38,11.01-3.08,1.19-4.75,2.04-7.91,2.76-.56.13-1.12.26-1.68.38-.51.11-1,.21-1.5.31-2.36.51-4.55,1.05-6.41,1.9Z"/>
  </g>
</svg>