<?xml version="1.0" encoding="UTF-8"?>
<svg id="_레이어_2" data-name="레이어 2" xmlns="http://www.w3.org/2000/svg" viewBox="0 0 169.71 571.93">
  <defs>
    <style>
      .cls-1 {
        fill: #f3a9aa;
        stroke: #231815;
        stroke-miterlimit: 10;
      }
    </style>
  </defs>
  <g id="_레이어_1-2" data-name="레이어 1">
    <path class="cls-1" d="m167.43,312.57c-.6-2.64-1.26-4.11-2.12-11.5-.27-2.28-.27-3.6-.28-4.57,0-.55,0-.99-.04-1.43-.33-3.05-1.73-4.01-2.49-9.76-1.45-10.89-2.42-18.97-3.78-30.33-.27-2.3-.56-4.72-.88-7.33-1.13-9.39-4.89-21.2-8.86-34.19-.22-.74-.45-1.48-.67-2.23-.41-1.34-1.27-11.48-1.6-16.82-.41-6.67-4.26-67.76-6.9-76.97-1.97-6.88-3.87-9.63-5.71-10.54v-.02s-1.48-.89-2.38-1.3c-2.69-1.21-6.06-1.84-9.62-2.55-.07-.01-4.37-1.44-7.89-2.8-5.33-2.05-9.73-4.61-12.38-11.01-1.11-2.7-1.56-10.21-1.75-15.34,2.54-2.35,4.51-5.38,5.74-10.41.22-.9.48-1.98.74-3.12,2.78.98,3.5-3.3,4.02-4.54.56-1.37,1.32-1.5,2.07-4.5.51-2.01-.36-3.32,0-4.61.24-.87.36-3.32-.75-4.16-.12-.09-.26-.14-.42-.19,1.65-6.26,2.7-16.5-.74-24.34-1.48-3.39-3.32-6.13-5.25-8.29-4.57-5.58-12.1-9.22-20.63-9.22s-16.06,3.64-20.63,9.22c-1.93,2.16-3.77,4.9-5.25,8.29-3.44,7.84-2.38,18.08-.74,24.34-.16.05-.3.1-.42.19-1.11.84-.99,3.29-.75,4.16.35,1.29-.52,2.6,0,4.61.75,3,1.51,3.13,2.07,4.5.52,1.24,1.24,5.52,4.02,4.54.26,1.14.52,2.22.74,3.12,1.23,5.03,3.2,8.06,5.74,10.41-.18,5.13-.64,12.64-1.75,15.34-2.64,6.4-7.05,8.96-12.38,11.01-3.59,1.39-4.22,2.13-7.88,2.8-3.56.71-6.93,1.34-9.62,2.55-.9.41-2.38,1.3-2.38,1.3v.02c-1.84.91-3.74,3.66-5.71,10.54-2.64,9.21-6.49,70.3-6.9,76.97-.33,5.34-1.19,15.48-1.6,16.82-.22.75-.45,1.49-.67,2.23-3.97,12.99-7.73,24.8-8.86,34.19-.32,2.61-.61,5.03-.88,7.33-1.36,11.36-2.33,19.44-3.78,30.33-.77,5.75-2.16,6.71-2.49,9.76-.04.44-.04.88-.04,1.43,0,.97,0,2.29-.28,4.57-.86,7.39-1.52,8.86-2.12,11.5-1.36,5.98-1.9,9.1-1.76,13.22.17,5.44,1.25,8.05,3.24,10.69,1.03,1.36,2.04,3.05,3.63,4.88,2.27,2.6,2.59,2.72,3.51,1.26,1.21-1.9-.33-4.5.22-9.21.75-6.46,1.98-8.27,2.37-16.17.06-1.19.65,5.28,2.65,7.65,1.59,1.88,4.26,1.75,3.83.8-4.04-8.89-.5-14.59-2.25-21.4-.56-2.2-2.13-5.7-2.05-7.35,0-.14.03-.3.04-.44.29-3.77,2.14-8.44,4.72-14.28,3.54-8.01,5.57-12.93,10.57-27.24.33-.93.66-1.89,1.01-2.9,6.25-17.98,7.28-33.89,7.53-35.8.11-.86.27-1.82.45-2.82,1.63-8.92,5.85-22.77,8.58-34.49.43-1.85,1.49-7.31,1.92-9.59.13.51.24,1.04.36,1.55-.78,5.41-3.46,24.09-5.86,42.53-1.95,15.05-3.71,29.94-4.09,37.31-.46,1.72-.63,2.63-.63,2.63-.16.52-.33,1.04-.51,1.58h0c-2.97,9.14-7.53,21.22-7.68,41.52-.03,4.28.13,8.91.54,13.96,1.03,12.52,8.65,39.26,11.49,52.03,6.32,28.39,9.9,45.41,10.36,55.42.6,12.92-.79,16.97-2.02,24.79-2.4,15.21-.65,28.37,2.21,40.42,5.27,22.28,10.8,32.19,11.36,43.89.14,2.92-1.59,4.14-.64,7.83.5,1.92,1.34,3.76.06,8.04-4.3,14.48-9.9,18.28-9.23,23.57.73,5.86,16.26,5.49,22.33,4.17,5-1.09,4.94-10.06,3.49-20.34-.29-2.08-.44-4.4-.33-7.96.06-1.76.43-3.81.63-6.28.18-2.28-.35-4.69-.63-6.6-.22-1.45-.44-2.61-.47-3.21-1.34-22.39-.92-27.75,1.3-48.8,2.25-21.26-.9-25.08-.51-38.08.24-7.7,2.08-15.58,2.57-23.92.62-10.47-.23-20.35-1.11-27.79-2.41-20.57-2.4-23.89-3.17-40.16-.84-17.66,3.61-26.31,1.07-41.54.59.26,2.03.38,3.47.38,1.43,0,2.88-.11,3.47-.38-2.54,15.23,1.92,23.88,1.07,41.54-.78,16.26-.77,19.59-3.17,40.16-.87,7.44-1.73,17.32-1.11,27.79.49,8.34,2.34,16.22,2.57,23.92.39,13-2.75,16.82-.51,38.08,2.22,21.04,2.64,26.41,1.3,48.8-.04.61-.26,1.77-.47,3.21-.28,1.91-.81,4.32-.63,6.6.2,2.47.57,4.52.63,6.28.11,3.56-.04,5.88-.33,7.96-1.44,10.28-1.51,19.25,3.49,20.34,6.08,1.32,21.6,1.69,22.33-4.17.66-5.29-4.93-9.08-9.23-23.57-1.27-4.28-.43-6.12.06-8.04.95-3.69-.78-4.92-.64-7.83.56-11.7,6.09-21.61,11.36-43.89,2.85-12.05,4.61-25.21,2.21-40.42-1.24-7.82-2.62-11.87-2.02-24.79.46-10.01,4.04-27.04,10.36-55.42,2.84-12.77,10.46-39.51,11.49-52.03.42-5.06.57-9.69.54-13.96-.15-20.3-4.71-32.38-7.68-41.52h0c-.18-.54-.35-1.06-.51-1.58,0,0-.17-.91-.63-2.63-.38-7.37-2.14-22.26-4.09-37.31-2.4-18.44-5.08-37.12-5.86-42.53.12-.51.23-1.04.36-1.55.43,2.28,1.49,7.74,1.92,9.59,2.73,11.72,6.95,25.57,8.58,34.49.18,1,.34,1.96.45,2.82.25,1.91,1.28,17.82,7.53,35.8.35,1.01.68,1.97,1,2.9,5.01,14.31,7.04,19.23,10.57,27.24,2.59,5.84,4.44,10.51,4.73,14.28,0,.14.04.3.04.44.08,1.65-1.49,5.15-2.05,7.35-1.75,6.81,1.78,12.51-2.25,21.4-.43.95,2.24,1.08,3.83-.8,2-2.37,2.59-8.84,2.65-7.65.39,7.9,1.62,9.71,2.37,16.17.55,4.71-.99,7.31.22,9.21.92,1.46,1.24,1.34,3.51-1.26,1.59-1.83,2.6-3.52,3.63-4.88,1.99-2.64,3.07-5.25,3.24-10.69.14-4.12-.4-7.24-1.76-13.22Z"/>
  </g>
</svg>