<?xml version="1.0" encoding="UTF-8"?>
<svg id="_레이어_2" data-name="레이어 2" xmlns="http://www.w3.org/2000/svg" viewBox="0 0 169.27 571.61">
  <defs>
    <style>
      .cls-1 {
        fill: #f3a9aa;
        stroke: #231815;
        stroke-miterlimit: 10;
      }
    </style>
  </defs>
  <g id="_레이어_1-2" data-name="레이어 1">
    <path class="cls-1" d="m37.88,105.44c-.79.34-2.01,1.06-2.12,1.1-.07.03-.16.09-.25.14-.49.25-.97.57-1.28.89,0,0,0,0,0,0-1.54,1.31-3.14,4.14-4.77,9.85-2.64,9.22-6.49,70.31-6.9,76.98-.32,5.22-1.14,15.02-1.56,16.67-.05.21-.11.41-.17.59-.04.14-.08.28-.13.41-.14.46-.28.91-.42,1.37-3.99,12.98-7.73,24.8-8.86,34.19-.31,2.62-.6,5.04-.88,7.33-1.36,11.36-2.32,19.45-3.78,30.34-.7,5.29-1.87,6.45-2.34,9.15-.09.51-.17,1.03-.18,1.69-.02.74,0,1.75-.2,3.46-.05.43-.08.85-.13,1.28-.52,4.96-1.07,6.34-1.54,8.7-.03.14-.06.28-.08.42-.07.35-.14.68-.2,1.01-1.04,5.43-1.49,8.01-1.58,11.46-.15,5.58.68,8.22,1.99,11.33.98,2.32,1.83,4.31,3.54,6.33,1.91,2.26,2.42,2.75,3.42,2.02.14-.11.24-.24.35-.35.87-.89.05-2.63.75-6.01.02-.12.06-.23.09-.35.03-.13.06-.25.08-.38,0,0,0-.02,0-.02,0,0,0-.02,0-.03.59-3.15.69-5.4,1.18-8.66.31-2.06.58-4.11.82-6.78.13-1.42.83,2.73,2.26,3.89,1.34,1.09,3.2.99,2.91.1-.02-.06-.03-.11-.05-.16-.95-2.25-1.2-2.75-.78-3.97.25-.73.86-1.77,1.01-2.98.01-.1.02-.21,0-.32-.23-3-.21-5.77-.76-8.68-.52-2.78-1.29-6.4-1.6-8.7-.06-.43-.22-.97-.33-1.45-.04-.95.02-1.92.2-2.85.02-.1.04-.21.06-.32,0-.03.01-.06.02-.09.64-3.07,2.05-6.66,3.89-10.89.57-1.3,1.11-2.55,1.65-3.79,2.86-6.58,4.94-11.87,9.33-24.4.3-.85.61-1.74.93-2.67.1-.29.2-.57.3-.86.61-1.77,1.16-3.53,1.67-5.25,4.57-15.45,5.42-28.22,5.63-29.91.11-.86.27-1.8.45-2.8,0-.04.01-.07.02-.11.41-2.25.99-4.81,1.66-7.56,1.93-7.89,4.66-17.42,6.68-25.91.21-.9.51-2.28.81-3.75.36-1.76.75-3.81,1.01-5.11.5,1.02.95,1.94,1.4,3.15.01.03.03.06.04.1.11.52.22,1.05.33,1.57,1.38,8.93,1.7,20.16,1.28,31.07-.06,1.63-.24,3.27-.55,4.93,0,0,0,0,0,0-.36,2-.88,4.04-1.5,6.16-1.21,4.11-2.8,8.47-4.57,13.27-2.6,7.02-4.89,12.88-6.5,17.02-1.36,2.64-2.36,4.51-2.86,5.47-.27.52-.47.89-.55,1.07-.07.16-.12.31-.17.43-3.15,9.01-7.87,20.92-7.97,40.61,0,.1-.01.2-.01.3v.29c-.02,4.19.15,8.72.58,13.66,1.1,12.52,9.23,39.26,12.26,52.03,6.75,28.39,10.57,45.42,11.06,55.42.65,12.93-.83,16.97-2.15,24.8-2.56,15.21-.69,28.36,2.35,40.42,5.63,22.28,11.53,32.19,12.13,43.88.15,2.92-1.69,4.14-.68,7.83.53,1.93,1.43,3.77.07,8.05-4.59,14.48-10.56,18.27-9.86,23.56.79,5.86,17.35,5.5,23.84,4.18,5.34-1.09,5.27-10.06,3.73-20.34-.31-2.08-.47-4.4-.35-7.96.06-1.76.46-3.81.67-6.28.19-2.28-.37-4.69-.67-6.6-.23-1.44-.47-2.6-.51-3.21-1.43-22.38-.99-27.75,1.39-48.79,2.39-21.27-.97-25.08-.55-38.08.25-7.71,2.22-15.58,2.75-23.93.66-10.46-.25-20.35-1.18-27.79-2.58-20.57-2.56-23.89-3.39-40.15-.9-17.66,3.85-26.32,1.14-41.55.63.27,2.17.37,3.7.38,1.53,0,3.07-.11,3.7-.38-2.71,15.23,2.04,23.89,1.14,41.55-.83,16.26-.81,19.58-3.39,40.15-.93,7.44-1.84,17.33-1.18,27.79.53,8.35,2.5,16.22,2.75,23.93.42,13-2.94,16.81-.55,38.08,2.37,21.04,2.82,26.41,1.39,48.79-.04.61-.28,1.77-.51,3.21-.3,1.91-.86,4.32-.67,6.6.21,2.47.61,4.52.67,6.28.12,3.56-.04,5.88-.35,7.96-1.54,10.28-1.61,19.25,3.73,20.34,6.48,1.32,23.05,1.68,23.84-4.18.7-5.29-5.27-9.08-9.86-23.56-1.36-4.28-.46-6.12.07-8.05,1.01-3.69-.83-4.91-.68-7.83.6-11.69,6.5-21.6,12.13-43.88,3.04-12.06,4.91-25.21,2.35-40.42-1.32-7.83-2.8-11.87-2.16-24.8.5-10,4.32-27.03,11.07-55.42,3.03-12.77,11.16-39.51,12.26-52.03.43-4.94.6-9.47.58-13.66v-.29c0-.1,0-.2-.01-.3-.1-19.92-5-31.86-8.08-40.93-.02-.06-.1-.22-.22-.45-.56-1.08-2.17-4.03-4.41-8.48-1.45-3.71-3.2-8.42-5.23-13.82-2.65-7.07-4.96-13.04-5.97-18.76,0,0,0,0,0,0-.3-1.66-.48-3.29-.54-4.93-.5-13.44.19-27.84,2.41-38.76.09.19.19.45.31.77.49,2.55,1.33,6.85,1.7,8.44,2.74,11.72,6.97,25.57,8.58,34.48.18.97.33,1.88.44,2.73.01.1.03.23.05.38.03.27.07.67.12,1.18.46,4.68,1.96,18.73,7.37,34.34.32.92.63,1.79.92,2.63.12.34.24.68.35,1,.89,2.55,1.69,4.79,2.42,6.81,2.54,7.04,4.24,11.29,6.26,15.95.52,1.2,1.06,2.43,1.64,3.74.55,1.24,1.06,2.42,1.53,3.56,1.76,4.22,2.97,7.75,3.19,10.73,0,.13.04.27.05.41,0,.03,0,.05,0,.08,0,.14,0,.29-.03.46-.19,1.78-1.53,4.84-2.04,6.83-1.75,6.81,1.79,12.51-2.25,21.41-.08.18-.05.33.06.44.48.48,2.48.28,3.77-1.25,1.96-2.32,2.57-8.6,2.64-7.67,0,.03,0,.06,0,.1.36,7.05,1.38,9.24,2.14,14.3.08.56.16,1.15.24,1.79.33,2.79-.08,4.84-.22,6.45-.09,1.1-.06,1.99.43,2.76.28.44.51.74.74.86.55.3,1.18-.31,2.77-2.12,1.6-1.83,2.61-3.52,3.63-4.88,1.85-2.44,2.9-4.85,3.19-9.5.02-.38.04-.78.06-1.2.01-.41.02-.81.02-1.2,0-1.74-.13-3.37-.41-5.2-.29-1.92-.74-4.07-1.37-6.82-.4-1.76-.83-3-1.33-5.85-.25-1.41-.51-3.2-.8-5.65-.25-2.08-.27-3.36-.27-4.31,0-.09,0-.17,0-.25,0-.34,0-.64-.01-.91,0-.18-.02-.35-.04-.52-.33-3.06-1.72-4.02-2.49-9.76-.89-6.7-1.6-12.34-2.33-18.33-.46-3.75-.92-7.64-1.44-12.01-.04-.33-.08-.66-.12-.99-.23-1.91-.47-3.92-.73-6.06-.04-.36-.09-.71-.14-1.08-1.24-9.26-4.87-20.78-8.76-33.39-.09-.31-.19-.61-.28-.92-.13-.43-.26-.87-.4-1.3-.15-.5-.36-2.22-.59-4.45-.38-3.77-.8-9.01-1-12.37-.4-6.5-4.07-64.68-6.69-76.14-.1-.42-.2-.8-.29-1.13-1.65-5.65-3.25-8.42-4.81-9.67,0,0,0,0,0,0-.08-.08-.2-.17-.34-.27-.24-.18-.5-.34-.76-.47,0,0,0,0,0,0-.1-.06-.61-.36-1.17-.65-.42-.22-.88-.45-1.26-.61-.09-.04-.17-.07-.26-.11-.38-.16-.77-.3-1.17-.44-.08-.03-.17-.06-.26-.09-1.4-.46-2.93-.82-4.53-1.16-.22-.05-.44-.09-.67-.14-.3-.05-.59-.12-.89-.2-1.71-.41-3.46-.95-5.19-1.54-.72-.25-1.44-.51-2.15-.77-.69-.26-1.38-.52-2.06-.78-5.33-2.05-9.73-4.61-12.38-11.01-1.11-2.7-1.56-10.21-1.75-15.34,2.54-2.35,4.51-5.38,5.74-10.41.22-.9.48-1.97.74-3.12.18.06.34.1.5.12,2.37.33,3.03-3.5,3.52-4.66.57-1.36,1.31-1.49,2.07-4.5.5-2-.36-3.32,0-4.61.24-.87.36-3.32-.75-4.16-.1-.08-.23-.13-.36-.16,0-.05-.01-.1-.02-.15,1.63-6.28,2.64-16.43-.78-24.21-.75-1.71-1.59-3.25-2.48-4.64-.82-1.27-1.68-2.4-2.57-3.41-.03-.03-.05-.06-.08-.1,0,0-.01-.01-.02-.02-.23-.27-.46-.54-.7-.81-.49-.55-1.01-1.08-1.56-1.58-4.5-4.17-10.88-6.82-17.99-6.93-.14,0-.27,0-.4,0-.24,0-.48,0-.71,0-.27,0-.54.01-.81.03,0,0,0,0,0,0,0,0,0,0,0,0-7.75.36-14.56,3.77-18.89,8.83-.4.44-.79.9-1.18,1.39-1.53,1.89-2.97,4.15-4.19,6.84-.24.54-.47,1.09-.68,1.65-2.77,7.48-1.84,16.75-.35,22.7-.1.07-.21.14-.29.25-.18.23-.3.53-.38.86-.01.04-.02.09-.03.13-.08.13-.15.26-.21.41-.34.88-.32,2.03-.2,2.68.1.56.07,1.1.04,1.62-.05.86-.27,1.81-.05,3,.11.61.24,1.13.4,1.59.27.79.55,1.28.8,1.7s.48.79.7,1.25c.11.24.23.53.36.87.07.19.15.39.22.61.53,1.52,1.38,3.94,3.41,3.45.13.25.26.48.4.68.18.78.36,1.52.52,2.17.08.33.16.65.25.96,1.21,4.48,3.04,7.3,5.37,9.51.05.32.1.65.16.99-.19,4.93-.64,11.56-1.63,14.27-.14.37-.28.72-.43,1.05-2.62,5.72-6.76,8.17-11.74,10.11-.39.15-.77.3-1.17.45-.02,0-.04.01-.05.02-2.73,1.04-5.58,2.06-8.36,2.71-.43.1-.86.19-1.28.28-.07.01-.14.03-.2.04-.09.02-.18.04-.27.06-.94.2-1.86.41-2.73.64-.02,0-.05.01-.07.02-.51.14-1.02.28-1.5.44-.15.05-.3.1-.44.15-.33.11-.65.23-.96.35-.14.06-.29.11-.43.18Z"/>
  </g>
</svg>