<?xml version="1.0" encoding="UTF-8"?>
<svg id="_레이어_2" data-name="레이어 2" xmlns="http://www.w3.org/2000/svg" viewBox="0 0 169.17 571.6">
  <defs>
    <style>
      .cls-1 {
        fill: #f3a9aa;
        stroke: #231815;
        stroke-miterlimit: 10;
      }
    </style>
  </defs>
  <g id="_레이어_1-2" data-name="레이어 1">
    <path class="cls-1" d="m38.42,105.18c-.56.22-1.26.57-1.57.71-.22.1-.49.24-.75.39-.64.34-1.25.72-1.35.82,0,0,0,0,0,0-1.73,1.04-3.54,3.83-5.4,10.31-2.64,9.22-6.49,70.31-6.9,76.98-.31,4.97-1.06,14.1-1.5,16.37-.05.24-.1.46-.14.6s-.08.28-.13.42c-.17.55-.34,1.11-.51,1.66-3.99,12.98-7.73,24.8-8.86,34.19-.31,2.62-.6,5.04-.88,7.33-1.36,11.36-2.32,19.45-3.78,30.34-.58,4.4-1.5,5.92-2.05,7.92-.19.68-.39,1.34-.44,2.2-.01.29-.01.66-.07,1.27-.04.39-.04.79-.07,1.26-.13,2.26-.36,3.53-.66,5.66-.02.14-.04.28-.06.43-.05.36-.1.69-.15,1.02-.89,6.14-1.43,7.98-1.86,10.79-.9,5.86-.98,8.83-.51,12.59.55,4.41,1.43,6.82,3.34,9.24,1.24,1.57,2.01,2.73,3.25,3.53.15.1.29.18.44.28,1.77,1.23,1.62.86,2.44-.94.05-.11.12-.22.18-.34.06-.12.11-.24.15-.36,0,0,0-.01,0-.02,0,0,0-.02,0-.02.77-2.28-.1-4.75.4-8.77.33-2.59.68-4.58,1.05-6.78.31-1.86.78-1.81,1.47-3.61.43,0,1.12-.54,1.06-1.32,0-.07,0-.11,0-.14-.23-.89.14,2.78,1.49,3.87,1.04.84,2.68.57,2.91-.25.03-.1.03-.2-.01-.32-1.05-3.15-1.38-5.95-1.6-8.64-.32-3.96.17-7.77-.69-11.42-.23-.99-.73-2.3-1.09-3.48-.25-1.06-.41-2.07-.32-2.85,0-.11.02-.22.04-.33,0-.03,0-.07.01-.1.36-2.97,1.6-6.46,3.35-10.6.53-1.25,1.07-2.51,1.65-3.82,3.31-7.53,5.36-12.58,10.16-26.29.25-.72.52-1.47.78-2.24.1-.29.2-.57.3-.87.61-1.77,1.17-3.52,1.68-5.23,4.69-15.65,5.55-28.64,5.77-30.36.11-.84.26-1.76.44-2.73,0-.04.01-.08.02-.13.42-2.24.98-4.8,1.66-7.55,1.79-7.34,4.28-16.09,6.24-24.12.28-1.14.59-2.42.87-3.73.22-1.01.5-2.42.75-3.66.47-1.14,1.01-2.62,1.31-3.26.01-.03.03-.07.04-.09.12.51.23,1.04.35,1.56.05,5.84-1.1,18.02-2.48,31.18-.17,1.63-.37,3.27-.62,4.93,0,0,0,0,0,0-.31,2.07-.67,4.17-1.06,6.29-.83,4.58-1.76,9.23-2.71,13.85-1.45,7.05-2.67,13.31-3.49,17.97-1.21,2.38-2.19,4.24-2.86,5.52-.58,1.11-1.01,1.89-1.21,2.31-.1.21-.17.36-.2.44-3.12,9.05-7.94,20.98-8.04,40.82,0,.1-.01.2-.01.3v.29c-.02,4.19.15,8.72.58,13.66,1.1,12.52,9.23,39.26,12.26,52.03,6.75,28.39,10.57,45.42,11.06,55.42.65,12.93-.83,16.97-2.15,24.8-2.56,15.21-.69,28.36,2.35,40.42,5.63,22.28,11.53,32.19,12.13,43.88.15,2.92-1.69,4.14-.68,7.83.53,1.93,1.43,3.77.07,8.05-4.59,14.48-10.56,18.27-9.86,23.56.79,5.86,17.35,5.5,23.84,4.18,5.34-1.09,5.27-10.06,3.73-20.34-.31-2.08-.47-4.4-.35-7.96.06-1.76.46-3.81.67-6.28.19-2.28-.37-4.69-.67-6.6-.23-1.44-.47-2.6-.51-3.21-1.43-22.38-.99-27.75,1.39-48.79,2.39-21.27-.97-25.08-.55-38.08.25-7.71,2.22-15.58,2.75-23.93.66-10.46-.25-20.35-1.18-27.79-2.58-20.57-2.56-23.89-3.39-40.15-.9-17.66,3.85-26.32,1.14-41.55.63.27,2.17.37,3.7.38,1.53,0,3.07-.11,3.7-.38-2.71,15.23,2.04,23.89,1.14,41.55-.83,16.26-.81,19.58-3.39,40.15-.93,7.44-1.84,17.33-1.18,27.79.53,8.35,2.5,16.22,2.75,23.93.42,13-2.94,16.81-.55,38.08,2.37,21.04,2.82,26.41,1.39,48.79-.04.61-.28,1.77-.51,3.21-.3,1.91-.86,4.32-.67,6.6.21,2.47.61,4.52.67,6.28.12,3.56-.04,5.88-.35,7.96-1.54,10.28-1.61,19.25,3.73,20.34,6.48,1.32,23.05,1.68,23.84-4.18.7-5.29-5.27-9.08-9.86-23.56-1.36-4.28-.46-6.12.07-8.05,1.01-3.69-.83-4.91-.68-7.83.6-11.69,6.5-21.6,12.13-43.88,3.04-12.06,4.91-25.21,2.35-40.42-1.32-7.83-2.8-11.87-2.16-24.8.5-10,4.32-27.03,11.07-55.42,3.03-12.77,11.16-39.51,12.26-52.03.43-4.94.6-9.47.58-13.66v-.29c0-.1,0-.2-.01-.3-.1-19.92-5-31.86-8.08-40.93-.02-.06-.1-.22-.22-.45-.56-1.08-2.16-4.03-4.4-8.47-.71-3.94-1.61-8.91-2.77-14.45-1.27-6.08-2.6-12.14-3.46-18.13,0,0,0,0,0,0-.24-1.65-.44-3.29-.61-4.93-1.61-15.64-2.94-31.06-2.67-37.99.11-.27.22-.54.34-.77.46,2.39,1.43,7.44,1.84,9.2,2.74,11.72,6.97,25.57,8.58,34.48.16.89.3,1.73.41,2.52.02.12.04.27.06.4.03.24.07.65.12,1.21.44,4.5,1.91,18.7,7.39,34.5.25.73.5,1.43.74,2.12.12.35.24.69.36,1.03.89,2.55,1.69,4.79,2.42,6.81,2.56,7.1,4.26,11.4,6.24,16,.58,1.34,1.17,2.71,1.82,4.18.55,1.23,1.05,2.41,1.53,3.54,1.76,4.23,2.98,7.76,3.19,10.74,0,.11.03.24.04.36,0,.03,0,.07,0,.1,0,.14-.01.31-.03.48-.18,1.77-1.52,4.84-2.03,6.85-1.75,6.81,1.79,12.51-2.25,21.41-.08.18-.04.34.08.45.5.47,2.48.26,3.76-1.25,1.89-2.24,2.52-8.11,2.63-7.75,0,.02.01.06.01.12.36,7.07,1.38,9.27,2.13,14.32.08.57.17,1.17.24,1.83.33,2.79-.08,4.84-.22,6.44-.09,1.1-.06,1.99.43,2.77.29.45.52.75.76.87.55.28,1.18-.34,2.75-2.13,1.59-1.83,2.6-3.52,3.63-4.88,1.84-2.44,2.9-4.86,3.19-9.51.02-.38.04-.78.06-1.19.01-.41.02-.81.02-1.2,0-1.74-.13-3.37-.41-5.21-.29-1.91-.74-4.06-1.36-6.8-.4-1.76-.83-3.01-1.33-5.87-.25-1.4-.51-3.19-.79-5.63-.25-2.07-.27-3.35-.28-4.3,0-.09,0-.19,0-.27,0-.33,0-.62-.01-.89,0-.18-.01-.36-.03-.54-.31-3.05-1.73-4.01-2.49-9.76-.9-6.73-1.61-12.39-2.34-18.41-.45-3.72-.91-7.59-1.43-11.93-.04-.33-.08-.66-.12-1-.21-1.74-.43-3.57-.66-5.49-.04-.37-.09-.73-.13-1.11-1.17-9.35-4.87-21.07-8.83-33.92-.1-.31-.19-.62-.28-.93-.13-.43-.26-.86-.39-1.29-.15-.5-.37-2.24-.6-4.49-.38-3.77-.79-8.99-1-12.33-.41-6.61-4.2-66.73-6.83-76.7-.11-.41-.22-.79-.32-1.14-1.78-5.9-3.51-8.5-5.18-9.49,0,0,0,0,0,0-.03-.03-.17-.11-.35-.23-.22-.14-.5-.3-.79-.46,0,0,0,0,0,0-.31-.17-.77-.43-1.2-.64s-.88-.39-1.31-.56c-.09-.03-.18-.07-.27-.1-.38-.14-.78-.27-1.18-.4-.09-.03-.17-.06-.26-.08-1.37-.41-2.84-.74-4.37-1.06-.19-.04-.38-.08-.58-.12-.29-.06-.58-.13-.88-.21-1.71-.43-3.44-.98-5.15-1.58-.69-.24-1.41-.5-2.13-.77-.56-.21-1.13-.42-1.68-.64-5.33-2.05-9.73-4.61-12.38-11.01-1.11-2.7-1.56-10.21-1.75-15.34,2.54-2.35,4.51-5.38,5.74-10.41.22-.9.48-1.97.74-3.12.17.06.34.1.5.12,2.37.33,3.03-3.5,3.52-4.66.57-1.36,1.31-1.49,2.07-4.5.5-2-.36-3.32,0-4.61.24-.87.36-3.32-.75-4.16-.07-.06-.16-.09-.25-.13-.05-.04-.1-.07-.16-.1,1.64-6.27,2.68-16.48-.75-24.3-.74-1.7-1.58-3.24-2.47-4.62-.7-1.09-1.43-2.07-2.19-2.97-.03-.03-.05-.07-.08-.1,0,0-.01-.01-.02-.02-.23-.28-.46-.55-.7-.81-.47-.56-.99-1.1-1.52-1.62-4.32-4.21-10.5-6.97-17.44-7.31-.13,0-.26-.02-.39-.02-.24,0-.49,0-.73-.01-.28,0-.55-.01-.83,0h0s0,0,0,0c-7.79.13-14.71,3.29-19.23,8.18-.42.44-.82.9-1.21,1.38-1.58,1.83-3.1,4.06-4.39,6.73-.26.53-.5,1.07-.73,1.63-3.03,7.3-2.3,16.54-.87,22.73-.01.13-.02.25-.03.39,0,.31,0,.63.04.96,0,.04,0,.09.01.13-.13.08-.25.15-.35.26-.55.62-.7,1.71-.67,2.57.02.63.06,1.23.12,1.64.13.9-.17,1.82-.13,2.99.02.53.08,1.06.24,1.61.21.76.43,1.31.64,1.75.24.52.46.9.69,1.28.16.27.32.53.47.83.09.18.19.38.27.61.48,1.23,1.17,4.31,3.18,4.27.23.1.49.15.77.13.18.77.35,1.5.51,2.17.08.33.16.65.24.96,1.14,4.51,2.89,7.39,5.12,9.62.18.28.36.55.55.82-.17,4.68-.57,11.19-1.48,14.27-.12.4-.24.75-.38,1.06-2.5,5.86-6.53,8.43-11.4,10.4-.38.16-.77.31-1.16.46-.02,0-.04.01-.05.02-2.7,1.04-5.54,2.07-8.32,2.77-.43.11-.85.21-1.27.3-.07.02-.14.03-.2.04-.09.02-.17.04-.26.05-.93.19-1.85.39-2.72.61-.02,0-.05.01-.07.02-.51.13-1,.26-1.49.4-.15.04-.3.09-.44.14-.33.1-.66.21-.97.33-.15.05-.3.11-.44.16Z"/>
  </g>
</svg>