<?xml version="1.0" encoding="UTF-8"?>
<svg id="_레이어_2" data-name="레이어 2" xmlns="http://www.w3.org/2000/svg" viewBox="0 0 169.72 571.92">
  <defs>
    <style>
      .cls-1 {
        fill: #f3a9aa;
        stroke: #231815;
        stroke-miterlimit: 10;
      }
    </style>
  </defs>
  <g id="_레이어_1-2" data-name="레이어 1">
    <path class="cls-1" d="m168.51,317.64c-.27-1.48-.63-3.12-1.07-5.08-.3-1.31-.61-2.33-.96-3.94-.35-1.62-.73-3.84-1.16-7.55-.27-2.28-.27-3.6-.28-4.57h0v-.02c0-.54,0-.98-.04-1.41-.2-1.85-.8-2.94-1.4-4.79-.02-.06-.04-.11-.06-.17,0,0,0,0,0-.01-.37-1.17-.74-2.65-1.03-4.79-.03-.26-.07-.51-.1-.77-1.04-7.86-1.84-14.3-2.73-21.69-.3-2.49-.61-5.08-.94-7.88-.02-.14-.03-.28-.05-.42-.24-2.01-.49-4.13-.77-6.38-.02-.18-.04-.35-.06-.53-.55-4.61-1.75-9.8-3.28-15.43-.03-.11-.06-.21-.08-.31-.03-.09-.05-.19-.08-.28-.8-2.91-1.7-5.94-2.64-9.07-.89-2.96-1.83-5.99-2.78-9.1-.07-.23-.14-.46-.21-.69-.15-.51-.31-1.01-.46-1.52-.26-.86-.71-5.32-1.08-9.83-.21-2.53-.4-5.07-.52-7-.41-6.67-4.26-67.76-6.9-76.98-1.97-6.87-3.88-9.63-5.71-10.54h0s-.44-.27-.98-.57c-.46-.26-.99-.55-1.4-.73-.41-.19-.85-.35-1.29-.52-.15-.06-.31-.11-.47-.16-.3-.1-.62-.2-.93-.3-.17-.05-.33-.1-.5-.15-.46-.13-.93-.25-1.42-.37-.07-.02-.14-.03-.22-.05-.81-.19-1.65-.37-2.5-.55-.19-.04-.38-.08-.57-.12-2.11-.48-4.25-1.18-6.36-1.93-.48-.17-.96-.35-1.45-.53-.6-.23-1.21-.45-1.8-.68-1.33-.51-2.61-1.06-3.81-1.68-3.41-1.78-6.25-4.25-8.23-8.57-.11-.25-.23-.5-.34-.76-.17-.41-.32-.94-.46-1.55-.78-3.39-1.13-9.44-1.29-13.79,2.54-2.35,4.51-5.38,5.74-10.41.07-.3.15-.63.24-.97.13-.55.27-1.13.41-1.75.03-.13.06-.26.09-.4,2.78.98,3.5-3.3,4.02-4.54.06-.16.13-.29.2-.42.49-.92,1.1-1.35,1.71-3.48.05-.19.11-.38.16-.6.51-2.01-.36-3.32-.01-4.61.06-.22.11-.54.14-.9.08-1.1-.06-2.63-.89-3.26-.05-.04-.11-.06-.16-.09-.01,0-.02-.01-.04-.02,0,0,0,0,0,0-.07-.03-.14-.05-.22-.08.09-.34.18-.7.26-1.06,1.19-5.06,1.92-12.2.48-18.66-.35-1.6-.84-3.15-1.49-4.62-.63-1.44-1.33-2.76-2.06-3.97-.75-1.22-1.54-2.34-2.35-3.34-.28-.34-.55-.67-.83-.99-.59-.72-1.22-1.4-1.91-2.05-2.44-2.32-5.45-4.18-8.84-5.43-3.04-1.12-6.37-1.74-9.88-1.74s-6.65.59-9.61,1.65c-3.59,1.28-6.77,3.24-9.3,5.71-.61.59-1.19,1.21-1.72,1.86-.24.26-.47.54-.7.82-.94,1.14-1.85,2.42-2.7,3.85-.66,1.11-1.28,2.32-1.85,3.62-1.51,3.43-2.15,7.32-2.26,11.14-.08,2.72.11,5.4.46,7.85.28,1.97.65,3.79,1.06,5.36-.08.02-.15.05-.22.08,0,0,0,0,0,0-.01,0-.02.01-.04.02-.06.03-.11.05-.16.09-.69.52-.91,1.68-.91,2.68,0,.6.07,1.15.16,1.48.35,1.29-.52,2.6-.01,4.61.08.31.16.59.24.85.59,1.93,1.18,2.35,1.65,3.25.06.12.13.25.19.4.52,1.24,1.24,5.52,4.02,4.54.05.23.1.45.16.68.09.37.17.73.25,1.07.12.49.23.95.33,1.37,1.23,5.03,3.2,8.06,5.74,10.41-.18,5.13-.64,12.64-1.75,15.34-.96,2.34-2.17,4.16-3.56,5.64-.04.04-.07.08-.11.12-.12.12-.24.23-.35.34-.13.13-.25.26-.39.38-.05.05-.1.09-.16.13-.46.41-.93.79-1.42,1.14-.15.11-.31.21-.47.32-.12.08-.24.16-.36.24-1.69,1.09-3.56,1.93-5.57,2.7-3.11,1.2-6.41,2.41-9.61,3.14-.25.05-.49.11-.73.16-.73.15-1.44.31-2.13.47-.17.04-.34.08-.5.12-.43.1-.85.21-1.26.33-.25.07-.48.14-.72.21-.23.07-.45.14-.68.21-.22.07-.43.15-.64.22-.33.12-.66.25-.98.39-.08.03-.16.06-.24.1-.9.41-2.39,1.3-2.39,1.3h0c-1.83.92-3.74,3.68-5.71,10.55-2.64,9.22-6.49,70.31-6.9,76.98-.33,5.34-1.19,15.48-1.59,16.82-.23.74-.45,1.48-.68,2.22-3.96,12.99-7.73,24.8-8.86,34.19-.31,2.62-.6,5.04-.88,7.33-1.36,11.36-2.32,19.45-3.78,30.34-.76,5.74-2.15,6.7-2.48,9.76-.05.43-.05.87-.05,1.43,0,.97-.01,2.29-.27,4.56-.87,7.4-1.53,8.87-2.13,11.5-1.36,5.98-1.89,9.11-1.76,13.22.18,5.45,1.25,8.06,3.24,10.7.92,1.22,1.86,2.71,3.19,4.33.15.19.29.37.45.56,2.27,2.6,2.59,2.72,3.51,1.26,1.21-1.9-.33-4.5.22-9.21.75-6.46,1.98-8.27,2.37-16.17.06-1.19.65,5.28,2.65,7.65,1.49,1.76,3.93,1.76,3.88.97,0-.05-.02-.11-.04-.17-1.77-3.89-2.08-7.17-2.03-10.19.04-2.17.27-4.2.3-6.25.02-1.63-.08-3.27-.52-4.97-.14-.53-.33-1.14-.55-1.78,0-.02-.01-.04-.02-.06-.02-.06-.04-.12-.06-.18-.66-1.95-1.48-4.12-1.42-5.32,0-.14.03-.3.04-.44.29-3.77,2.14-8.44,4.72-14.28,3.54-8.01,5.57-12.93,10.57-27.24.33-.93.66-1.89,1.01-2.9,6.25-17.98,7.28-33.89,7.53-35.8.11-.86.27-1.82.45-2.82,1.63-8.92,5.85-22.77,8.58-34.49.43-1.85,1.49-7.31,1.92-9.59.13.51.24,1.04.36,1.55-.78,5.41-3.46,24.09-5.86,42.53-1.95,15.05-3.71,29.94-4.09,37.31-.29,1.07-.46,1.82-.55,2.24-.21.65-.4,1.26-.55,1.8,0,.05-.03.1-.04.15-2.95,9.09-7.47,21.09-7.67,41.22,0,.1-.01.2-.01.3-.03,4.28.13,8.91.55,13.96,1.03,12.52,8.64,39.26,11.49,52.03,6.32,28.39,9.89,45.42,10.36,55.42.6,12.93-.79,16.97-2.02,24.8-2.4,15.21-.65,28.36,2.2,40.42,5.28,22.28,10.81,32.19,11.37,43.88.14,2.92-1.59,4.14-.64,7.83.5,1.93,1.34,3.77.06,8.05-4.3,14.48-9.89,18.27-9.23,23.56.73,5.86,16.26,5.5,22.33,4.18,5-1.09,4.94-10.06,3.49-20.34-.29-2.08-.44-4.4-.32-7.96.05-1.76.43-3.81.62-6.28.19-2.28-.34-4.69-.62-6.6-.22-1.44-.44-2.6-.48-3.21-1.34-22.38-.92-27.75,1.3-48.79,2.24-21.27-.91-25.08-.51-38.08.23-7.71,2.08-15.58,2.57-23.92.62-10.47-.23-20.36-1.11-27.8-2.41-20.57-2.39-23.89-3.17-40.15-.85-17.66,3.61-26.32,1.07-41.55.59.27,2.03.39,3.46.38,1.44.01,2.88-.11,3.47-.38-2.54,15.23,1.92,23.89,1.07,41.55-.78,16.26-.76,19.58-3.17,40.15-.88,7.44-1.73,17.33-1.11,27.8.49,8.34,2.34,16.21,2.57,23.92.4,13-2.75,16.81-.51,38.08,2.22,21.04,2.64,26.41,1.3,48.79-.04.61-.26,1.77-.48,3.21-.28,1.91-.81,4.32-.62,6.6.19,2.47.57,4.52.62,6.28.12,3.56-.03,5.88-.32,7.96-1.45,10.28-1.51,19.25,3.49,20.34,6.07,1.32,21.6,1.68,22.33-4.18.66-5.29-4.93-9.08-9.23-23.56-1.28-4.28-.44-6.12.06-8.05.95-3.69-.78-4.91-.64-7.83.56-11.69,6.09-21.6,11.37-43.88,2.85-12.06,4.6-25.21,2.2-40.42-1.23-7.83-2.62-11.87-2.02-24.8.47-10,4.04-27.03,10.36-55.42,2.85-12.77,10.46-39.51,11.49-52.03.42-5.05.58-9.68.55-13.96,0-.1-.01-.2-.01-.3-.2-20.13-4.72-32.13-7.67-41.22,0-.05-.03-.1-.04-.15-.15-.54-.34-1.15-.55-1.8-.09-.42-.26-1.17-.55-2.24-.38-7.37-2.14-22.26-4.09-37.31-2.4-18.44-5.08-37.12-5.86-42.53.12-.5.23-1.03.36-1.53.44,2.31,1.49,7.73,1.91,9.57,2.74,11.72,6.95,25.57,8.58,34.48.09.48.17.95.25,1.41.08.5.15.98.21,1.43,0,.04.01.1.02.15.27,2.47,1.4,18.07,7.5,35.64.25.73.5,1.42.73,2.1.09.27.19.54.28.8,1.75,5.01,3.14,8.85,4.35,12.1,1.58,4.22,2.87,7.41,4.29,10.72.61,1.42,1.24,2.86,1.92,4.42.45,1.01.87,1.98,1.27,2.92,1.9,4.5,3.21,8.23,3.45,11.35.02.13.04.28.05.42,0,0,0,.02,0,.02,0,0,0,0,0,.01.06,1.65-1.49,5.13-2.06,7.32-1.75,6.81,1.79,12.51-2.25,21.41-.08.18-.05.33.07.44.47.49,2.48.29,3.77-1.24,1.84-2.18,2.49-7.83,2.62-7.78,0,.02.01.06.02.13.39,7.75,1.58,9.65,2.34,15.84.01.11.03.22.04.33.1.88.13,1.69.12,2.43-.05,3.22-.89,5.22.09,6.77.22.35.41.6.6.76.59.51,1.19-.03,2.92-2.02,1.59-1.83,2.6-3.52,3.63-4.88,1.99-2.64,3.07-5.25,3.24-10.69.09-2.78-.12-5.1-.69-8.16Z"/>
  </g>
</svg>