<?xml version="1.0" encoding="UTF-8"?>
<svg id="_레이어_2" data-name="레이어 2" xmlns="http://www.w3.org/2000/svg" viewBox="0 0 170.48 571.62">
  <defs>
    <style>
      .cls-1 {
        fill: #f3a9aa;
        stroke: #231815;
        stroke-miterlimit: 10;
      }
    </style>
  </defs>
  <g id="_레이어_1-2" data-name="레이어 1">
    <path class="cls-1" d="m166.08,301.07c-.27-2.28-.27-3.6-.28-4.57,0-.55,0-.99-.04-1.43-.33-3.05-1.73-4.01-2.49-9.76-1.45-10.89-2.42-18.97-3.78-30.33-.27-2.3-.56-4.72-.88-7.33-1.13-9.39-4.89-21.2-8.86-34.19-.22-.74-.45-1.48-.67-2.23-.41-1.34-1.27-11.48-1.6-16.82-.41-6.67-4.26-67.76-6.9-76.97-1.97-6.88-3.87-9.63-5.71-10.54v-.02s-1.48-.89-2.38-1.3c-2.69-1.21-6.06-1.84-9.62-2.55-.07-.01-4.37-1.44-7.89-2.8-5.33-2.05-9.73-4.61-12.38-11.01-1.11-2.7-1.56-10.21-1.75-15.34,2.54-2.35,4.51-5.38,5.74-10.41.21-.87.46-1.9.71-2.99.14,0,.28,0,.41-.03,2.46.47,3.15-3.45,3.64-4.63.56-1.37,1.32-1.5,2.07-4.5.51-2.01-.36-3.32-.01-4.61.24-.87.36-3.32-.75-4.16-.12-.09-.26-.14-.42-.19,1.65-6.26,2.7-16.5-.74-24.34-1.48-3.39-3.32-6.13-5.25-8.29-4.57-5.58-12.1-9.22-20.63-9.22-.11,0-.21,0-.32,0-.15,0-.29-.01-.44-.01-8.53,0-16.06,3.65-20.63,9.22-1.93,2.17-3.77,4.9-5.25,8.29-3.44,7.84-2.38,18.08-.74,24.35-.15.04-.3.09-.42.18-1.11.84-.99,3.29-.75,4.16.36,1.29-.52,2.61-.01,4.61.75,3.01,1.51,3.14,2.07,4.5.49,1.18,1.17,5.1,3.63,4.64.13.03.27.04.42.04.25,1.1.5,2.12.71,2.99,1.23,5.03,3.2,8.06,5.74,10.41-.18,5.13-.64,12.64-1.75,15.34-2.64,6.4-7.04,8.96-12.38,11.01-3.11,1.2-6.41,2.41-9.61,3.14-.51.11-1,.21-1.49.32-2.36.49-4.54,1.05-6.4,1.89-.9.41-2.39,1.3-2.39,1.3h0c-1.83.92-3.74,3.68-5.71,10.55-2.64,9.22-6.49,70.31-6.9,76.98-.33,5.34-1.19,15.48-1.59,16.82-.23.74-.45,1.48-.68,2.22-3.96,12.99-7.73,24.8-8.86,34.19-.31,2.62-.6,5.04-.88,7.33-1.36,11.36-2.32,19.45-3.78,30.34-.76,5.74-2.15,6.7-2.48,9.76-.05.43-.05.87-.05,1.43,0,.97,0,2.29-.27,4.56-.87,7.4-1.53,8.87-2.13,11.5-1.36,5.98-1.89,9.11-1.76,13.22.18,5.45,1.25,8.06,3.24,10.7,1.03,1.36,2.04,3.05,3.64,4.88,1.65,1.89,2.27,2.47,2.84,2.07.59.33.91,0,1.43-.81,1.21-1.9-.33-4.5.22-9.21.66-5.72,1.71-7.81,2.21-13.7.4,1.77,1.05,3.98,2.05,5.17,1.01,1.21,2.47,1.58,3.28,1.45.89.13,1.54-.13,1.31-.64-4.04-8.89-.5-14.59-2.25-21.4-.56-2.2-2.13-5.7-2.05-7.35,0-.14.03-.3.04-.44.29-3.77,2.14-8.44,4.72-14.28,3.54-8.01,5.57-12.93,10.57-27.24.33-.93.66-1.89,1.01-2.9,6.25-17.98,7.28-33.89,7.53-35.8.11-.86.27-1.82.45-2.82,1.63-8.92,5.85-22.77,8.58-34.49.34-1.47,1.08-5.22,1.59-7.84.14.57.28,1.15.41,1.74-1.02,7.1-3.41,23.94-5.58,40.59-1.09,8.4-2.12,16.76-2.88,23.78-4.51,10.23-5.62,15.85-5.62,15.85-.15.47-.32.95-.49,1.43-.02.05-.03.1-.05.14-.03.1-.07.2-.1.3-3.15,9.06-7.88,21.02-8.08,40.93,0,.1-.01.19-.01.29v.3c-.02,4.2.15,8.73.58,13.67,1.1,12.52,9.23,39.26,12.26,52.03,6.75,28.38,10.57,45.41,11.06,55.42.65,12.92-.83,16.97-2.15,24.79-2.56,15.21-.69,28.37,2.35,40.42,5.63,22.28,11.53,32.19,12.13,43.89.15,2.91-1.69,4.13-.68,7.83.53,1.92,1.43,3.76.07,8.04-4.59,14.48-10.56,18.28-9.86,23.57.79,5.86,17.35,5.49,23.84,4.17,5.34-1.09,5.27-10.06,3.73-20.34-.31-2.07-.47-4.4-.35-7.96.06-1.75.46-3.8.67-6.28.19-2.28-.37-4.69-.67-6.59-.23-1.45-.47-2.61-.51-3.21-1.43-22.39-.99-27.76,1.39-48.8,2.39-21.26-.97-25.08-.55-38.08.25-7.7,2.22-15.58,2.75-23.92.66-10.47-.25-20.35-1.18-27.79-2.58-20.57-2.56-23.89-3.39-40.16-.9-17.66,3.85-26.31,1.14-41.54.63.26,2.17.36,3.7.37,1.53.02,3.07-.11,3.7-.37-2.71,15.23,2.04,23.88,1.14,41.54-.83,16.27-.81,19.59-3.39,40.16-.93,7.44-1.84,17.32-1.18,27.79.53,8.34,2.5,16.22,2.75,23.92.42,13-2.94,16.82-.55,38.08,2.37,21.04,2.82,26.41,1.39,48.8-.04.6-.28,1.76-.51,3.21-.3,1.9-.86,4.31-.67,6.59.21,2.48.61,4.53.67,6.28.12,3.56-.04,5.89-.35,7.96-1.54,10.28-1.61,19.25,3.73,20.34,6.48,1.32,23.05,1.69,23.84-4.17.7-5.29-5.27-9.09-9.86-23.57-1.36-4.28-.46-6.12.07-8.04,1.01-3.7-.83-4.92-.68-7.83.6-11.7,6.5-21.61,12.13-43.89,3.04-12.05,4.91-25.21,2.35-40.42-1.32-7.82-2.8-11.87-2.16-24.79.5-10.01,4.32-27.04,11.07-55.42,3.03-12.77,11.16-39.51,12.26-52.03.43-4.94.6-9.47.58-13.67v-.3c0-.1-.01-.19-.01-.29-.2-19.91-4.94-31.87-8.08-40.93h-.01c-.04-.1-.07-.2-.11-.3-.02-.04-.03-.09-.05-.14-.16-.48-.33-.96-.48-1.43,0,0-.37-1.87-1.54-5.41-.51-1.53-1.18-3.39-2.03-5.54-.77-7.84-2.04-18.22-3.39-28.68-2.14-16.46-4.51-33.11-5.55-40.34.44,2.27.93,4.73,1.19,5.85,2.74,11.72,6.95,25.57,8.58,34.48.19,1.01.35,1.96.46,2.83.24,1.9,1.28,17.82,7.52,35.8.35,1.01.69,1.97,1.01,2.89,5.01,14.32,7.03,19.24,10.57,27.24,2.58,5.85,4.43,10.51,4.72,14.29.02.14.04.29.05.44.07,1.64-1.49,5.14-2.06,7.34-1.75,6.81,1.79,12.51-2.25,21.41-.22.49.39.75,1.25.64.79.17,2.3-.2,3.35-1.44,1-1.18,1.64-3.39,2.05-5.15.51,5.86,1.54,7.95,2.21,13.67.55,4.71-.99,7.3.21,9.21.52.81.85,1.13,1.42.81.57.41,1.19-.16,2.86-2.07,1.59-1.83,2.6-3.52,3.63-4.88,1.99-2.64,3.07-5.25,3.24-10.69.14-4.12-.4-7.24-1.76-13.22-.6-2.64-1.26-4.11-2.12-11.5Z"/>
  </g>
</svg>