<?xml version="1.0" encoding="UTF-8"?>
<svg id="_레이어_2" data-name="레이어 2" xmlns="http://www.w3.org/2000/svg" viewBox="0 0 169.72 572.07">
  <defs>
    <style>
      .cls-1 {
        fill: #f3a9aa;
        stroke: #231815;
        stroke-miterlimit: 10;
      }
    </style>
  </defs>
  <g id="_레이어_1-2" data-name="레이어 1">
    <path class="cls-1" d="m127.54,232.18c-.2-.27-.4-.54-.6-.81-.65-5.61-1.42-11.74-2.22-17.91-2.4-18.44-5.08-37.12-5.86-42.53.12-.51.23-1.04.36-1.54.06.33.14.72.22,1.16.18.94.4,2.08.63,3.25.41,2.07.83,4.17,1.06,5.18.75,3.22,1.62,6.6,2.51,10,.5,1.92,1.01,3.84,1.52,5.75,1.85,6.98,3.62,13.66,4.55,18.74.03.17.06.33.09.5.14.82.27,1.62.37,2.34.2,1.51.89,11.78,4.25,24.9.11.41.21.82.32,1.24-1.94-2.91-4.3-6.29-7.21-10.24Zm-92.25,8.99c3.37-13.12,4.06-23.38,4.25-24.9.09-.72.22-1.52.37-2.34.03-.17.06-.32.09-.49.81-4.42,2.25-10.06,3.84-16.05.84-3.18,1.72-6.45,2.56-9.69.77-2.97,1.52-5.91,2.18-8.74.24-1.03.67-3.16,1.08-5.25.22-1.14.44-2.25.62-3.17.08-.43.16-.83.22-1.16.13.51.24,1.04.36,1.54-.78,5.41-3.46,24.09-5.86,42.53-.8,6.17-1.56,12.3-2.22,17.91-.2.27-.4.54-.6.81-2.91,3.94-5.27,7.32-7.21,10.24.11-.42.22-.83.32-1.24Zm133.91,84.6c.13-4.11-.4-7.24-1.76-13.22-.51-2.25-1.07-3.66-1.76-8.63-.12-.84-.24-1.78-.36-2.85-.08-.66-.13-1.22-.17-1.74-.1-1.27-.1-2.15-.1-2.84,0-.41,0-.75-.03-1.08,0-.12,0-.24-.02-.35-.1-.88-.28-1.59-.52-2.29-.57-1.72-1.43-3.39-1.97-7.47-1.46-10.89-2.42-18.98-3.78-30.34-.08-.64-.16-1.29-.24-1.96-.12-1.02-.25-2.07-.38-3.15-.09-.73-.17-1.46-.26-2.22-1.13-9.39-4.9-21.2-8.86-34.19-.16-.5-.31-1.01-.46-1.51-.07-.23-.14-.47-.21-.7-.08-.25-.17-.8-.27-1.57-.44-3.37-1.06-10.9-1.33-15.25-.41-6.67-4.26-67.76-6.9-76.98-1.97-6.87-3.88-9.63-5.71-10.54h0s-1.49-.9-2.39-1.31c-.02-.01-.05-.02-.07-.03-.38-.17-.77-.32-1.18-.47-.18-.07-.37-.13-.56-.19-.26-.09-.53-.17-.8-.25-.2-.06-.41-.12-.61-.18-.44-.12-.88-.24-1.34-.35-.12-.03-.24-.06-.36-.08-.75-.18-1.53-.35-2.32-.51-.22-.05-.43-.09-.65-.14-2.2-.5-4.45-1.24-6.66-2.04-.31-.11-.63-.23-.95-.34-.67-.25-1.34-.5-2-.76-5.34-2.05-9.74-4.61-12.38-11.01-1.11-2.7-1.57-10.21-1.75-15.34,2.54-2.35,4.51-5.38,5.74-10.41.22-.9.48-1.97.74-3.12.69.24,1.26.16,1.73-.12,1.4-.85,1.9-3.49,2.29-4.42.56-1.36,1.32-1.49,2.07-4.5.51-2-.37-3.32-.01-4.61.24-.87.36-3.32-.75-4.16-.07-.06-.16-.09-.25-.13-.05-.02-.11-.04-.16-.06,1.64-6.27,2.7-16.51-.74-24.34-1.48-3.39-3.32-6.12-5.25-8.29-4.57-5.57-12.1-9.22-20.63-9.22-2.48,0-4.86.32-7.12.89-5.53,1.4-10.27,4.37-13.51,8.33-1.93,2.16-3.77,4.9-5.25,8.29-3.44,7.84-2.38,18.08-.74,24.34-.16.05-.3.1-.42.19-1.11.84-.99,3.29-.75,4.16.35,1.29-.52,2.6-.01,4.61.75,3,1.51,3.13,2.07,4.5.52,1.24,1.24,5.52,4.02,4.54.26,1.14.52,2.22.74,3.12,1.23,5.03,3.2,8.06,5.74,10.41-.18,5.13-.64,12.64-1.75,15.34-2.38,5.78-6.21,8.42-10.85,10.39-.5.21-1.01.42-1.52.62-3.11,1.2-6.41,2.41-9.61,3.14-.22.05-.44.09-.65.14-.79.16-1.56.33-2.32.51-.12.03-.24.05-.36.08-.46.11-.9.23-1.34.35-.21.06-.41.12-.61.18-.27.08-.54.17-.81.26-.19.06-.37.13-.55.19-.41.15-.8.3-1.18.47-.02.01-.05.02-.07.03-.9.41-2.39,1.3-2.39,1.3h0c-1.83.92-3.74,3.68-5.71,10.55-2.64,9.22-6.49,70.31-6.9,76.98-.27,4.35-.89,11.89-1.33,15.25-.1.77-.19,1.32-.27,1.57-.07.24-.14.47-.21.7-.15.5-.31,1.01-.46,1.51-3.96,12.99-7.73,24.8-8.86,34.19-.09.76-.18,1.5-.26,2.22-.13,1.08-.26,2.13-.38,3.15-.08.66-.16,1.32-.24,1.96-1.36,11.36-2.32,19.45-3.78,30.34-.37,2.78-.88,4.43-1.35,5.75-.02.05-.03.1-.05.15,0,0,0,0,0,0-.48,1.34-.91,2.34-1.08,3.87-.01.11-.01.23-.02.35-.02.33-.03.67-.03,1.08,0,.69,0,1.57-.1,2.84-.04.51-.09,1.08-.17,1.74-.12,1.06-.24,1.98-.36,2.81-.7,5.01-1.25,6.42-1.77,8.67-1.36,5.98-1.89,9.11-1.76,13.22.04,1.26.13,2.37.27,3.36.16,1.13.37,2.11.65,2.99,0,.02.01.04.02.06.02.05.03.1.05.14.54,1.59,1.28,2.87,2.25,4.15.66.87,1.33,1.89,2.13,2.98.45.61.93,1.24,1.5,1.9,2.04,2.33,2.5,2.66,3.24,1.65.09-.12.17-.25.27-.4.14-.22.24-.46.31-.7,0-.02.01-.03.02-.05.01-.05.02-.11.04-.16.42-1.82-.62-4.3-.15-8.3.59-5.06,1.47-7.28,2.01-11.79.15-1.25.28-2.67.37-4.39,0-.07,0-.11.02-.13.13-.16.77,5.58,2.63,7.78,1.36,1.61,3.51,1.74,3.83,1.15.06-.1.07-.22,0-.35-4.04-8.9-.5-14.6-2.25-21.41-.46-1.79-1.58-4.44-1.94-6.25-.08-.41-.13-.79-.12-1.09,0-.07.01-.15.02-.23,0-.07.01-.14.02-.21.21-2.69,1.21-5.84,2.7-9.53-.31,2.92-.52,6.02-.56,9.37v.3c-.04,4.27.16,8.91.69,13.96,1.3,12.52,10.98,39.26,14.59,52.03,8.02,28.39,12.56,45.41,13.15,55.42.77,12.92-.99,16.97-2.56,24.79-3.05,15.22-.83,28.37,2.8,40.42,6.69,22.29,13.71,32.19,14.43,43.89.17,2.92-2.02,4.14-.81,7.83.63,1.92,1.69,3.76.08,8.04-5.46,14.49-12.57,18.28-11.73,23.57.93,5.86,20.64,5.5,28.36,4.17,6.35-1.08,6.26-10.06,4.43-20.33-.37-2.08-.56-4.4-.42-7.96.08-1.76.55-3.81.8-6.28.23-2.28-.44-4.69-.8-6.6-.27-1.44-.55-2.6-.6-3.21-1.7-22.38-1.17-27.75,1.65-48.79,2.85-21.27-1.15-25.08-.65-38.09.3-7.7,2.64-15.58,3.27-23.92.78-10.46-.3-20.35-1.41-27.79-3.06-20.57-3.04-23.89-4.03-40.16-1.07-17.65,4.59-26.31,1.36-41.54.75.27,2.58.36,4.4.38,1.82,0,3.65-.11,4.4-.38-3.23,15.23,2.43,23.89,1.36,41.54-.99,16.27-.97,19.59-4.03,40.16-1.11,7.44-2.19,17.33-1.4,27.79.62,8.34,2.96,16.22,3.26,23.92.5,13.01-3.5,16.82-.65,38.09,2.82,21.04,3.36,26.41,1.65,48.79-.05.61-.33,1.77-.6,3.21-.36,1.91-1.03,4.32-.8,6.6.25,2.47.73,4.52.8,6.28.14,3.56-.05,5.88-.42,7.96-1.83,10.27-1.91,19.25,4.44,20.33,7.71,1.33,27.42,1.69,28.35-4.17.84-5.29-6.26-9.08-11.72-23.57-1.62-4.28-.55-6.12.08-8.04,1.21-3.69-.99-4.91-.81-7.83.71-11.7,7.73-21.6,14.43-43.89,3.62-12.05,5.84-25.2,2.8-40.42-1.57-7.82-3.33-11.87-2.57-24.79.59-10.01,5.13-27.03,13.16-55.42,3.61-12.77,13.28-39.51,14.58-52.03.53-5.05.73-9.69.69-13.96v-.3c-.04-3.34-.25-6.43-.56-9.35.27.67.52,1.33.76,1.96,1.06,2.85,1.77,5.36,1.93,7.55,0,.07.02.14.02.21,0,.08.02.16.02.23.01.3-.04.68-.12,1.09-.36,1.81-1.47,4.45-1.94,6.25-1.75,6.81,1.79,12.51-2.25,21.41-.06.14-.05.26,0,.35.32.59,2.47.46,3.83-1.15,1.86-2.2,2.5-7.94,2.63-7.78,0,.02.01.06.02.13.09,1.77.22,3.22.38,4.49.54,4.44,1.41,6.66,2,11.68.47,4.03-.58,6.52-.14,8.34,0,.04.02.08.03.12,0,.02.02.05.02.07.07.24.17.46.31.68.1.15.19.28.27.4.74,1.01,1.21.68,3.24-1.65.57-.65,1.04-1.28,1.49-1.89.81-1.1,1.48-2.12,2.14-3,.96-1.27,1.7-2.54,2.23-4.11.32-.94.57-2,.74-3.23.14-.99.23-2.1.27-3.36Z"/>
  </g>
</svg>