<?xml version="1.0" encoding="UTF-8"?>
<svg id="_레이어_2" data-name="레이어 2" xmlns="http://www.w3.org/2000/svg" viewBox="0 0 169.39 572.07">
  <defs>
    <style>
      .cls-1 {
        fill: #f3a9aa;
        stroke: #231815;
        stroke-miterlimit: 10;
      }
    </style>
  </defs>
  <g id="_레이어_1-2" data-name="레이어 1">
    <path class="cls-1" d="m118.9,169.38c.06.33.14.72.22,1.15.18.94.4,2.08.63,3.24.41,2.07.83,4.19,1.07,5.2.75,3.22,1.62,6.6,2.51,9.99.5,1.92,1.02,3.85,1.52,5.75,1.86,6.98,3.61,13.66,4.55,18.74.03.17.06.34.09.51.15.82.27,1.6.36,2.32.19,1.51.88,11.78,4.25,24.9.11.41.21.82.32,1.24-1.94-2.91-4.3-6.29-7.21-10.24-.2-.28-.41-.55-.61-.83-2.4-5.63-4.7-11.57-5.92-17.1-.12-.53-.23-1.05-.32-1.56,0-.04-.12-.07-.13-.11,0,0,0,0,0,0,0-.04.11-.07.11-.11-3.39-15.07-2.99-32.51-1.82-41.52.13-.53.25-1.06.38-1.58Zm-68.72,0c.13.52.25,1.06.38,1.6,1.18,8.95,1.62,26.07-1.75,40.93-.01.09.27.18.25.27,0,0,0,0,0,0-.01.09-.31.18-.32.27-.12.68-.27,1.37-.43,2.07-1.32,5.6-3.71,11.6-6.15,17.27-.19.26-.38.52-.58.78-2.78,3.78-5.06,7.04-6.93,9.86.11-.42.22-.83.32-1.24,3.37-13.12,4.06-23.39,4.25-24.9.09-.72.22-1.5.37-2.32.03-.17.06-.34.09-.51.82-4.42,2.25-10.06,3.84-16.05.84-3.18,1.72-6.45,2.57-9.7.77-2.97,1.52-5.91,2.18-8.73.24-1.03.67-3.17,1.08-5.26.22-1.14.44-2.27.62-3.19.08-.43.16-.82.22-1.14Zm-11.87-64.05c-.65.27-1.6.8-1.79.89-.01,0-.02.01-.04.02-.77.37-1.85,1.09-2.18,1.53,0,0,0,0,0,0-1.41,1.21-2.86,3.67-4.35,8.45-.21.67-.43,1.48-.64,2.42-2.67,11.84-6.24,69.32-6.64,75.77-.27,4.36-.89,11.9-1.33,15.26-.1.76-.19,1.31-.26,1.56-.07.24-.14.47-.21.7-.15.51-.31,1.01-.46,1.52-3.99,12.98-7.73,24.8-8.86,34.19-.09.76-.18,1.5-.26,2.22-.13,1.08-.26,2.13-.38,3.15-.08.66-.16,1.31-.24,1.95-1.36,11.36-2.32,19.45-3.78,30.34-.56,4.26-1.56,5.56-1.92,7.75-.04.24-.04.48-.05.79,0,0,0,0,0,0-.24,1.15-.47,2.31-.67,4.21-.01.11-.02.23-.03.34-.03.35-.05.7-.08,1.08-.06.88-.13,1.78-.25,2.82-.06.57-.14,1.14-.23,1.72-.29,1.86-.58,2.93-.82,4.2-.8,4.3-1.29,6.3-1.68,8.61-.28,1.68-.49,3.18-.58,4.69-.26,4.34.16,6.87,1.24,9.61.52,1.32,1.07,2.72,1.96,4.12,1.18,1.87,1.48,2.41,2.08,2.12,0,0,.01,0,.02.01.02,0,.03.02.05.03.57.26.82.17,1.2-.14.26-.21.5-.52,1.05-.83.26-.15.57-.18.91-.2,1.14.4,1.51-.07,2.01-1.21.06-.13.12-.27.18-.42.09-.23.17-.46.23-.7,0-.01,0-.03.01-.04.01-.05.02-.09.03-.14.43-2.02.07-4.47.44-8.41.29-3.13,1.06-1,2.33-2.07.87.31,2.29-.46,2.1-1.79,0-.06-.02-.11-.03-.14-.57-1.51-.48-.15.36.03.63.14,1.69-.56,1.93-1.53.03-.11.04-.23.01-.36-.69-3.23-.79-6.13-1.17-9.03-.33-2.5-.92-5.53-.88-7.64,0-.15.01-.3.02-.45.03-1.21.07-2.47.08-3.8,0-1.79-.2-4.08.05-6.05-.06-.03-.1-.05-.11-.02,0,0,0,0,0-.01,0,0,0,0,0,0-.01-.1.42-.36,1.14-.81,0,.05-.01.25-.02.29-.16,2.8-.22,5.77-.14,8.93,0,.05,0,.24,0,.29.05,1.61.13,3.27.24,4.98.17,2.6.54,5.53,1.09,8.69,2.11,12.15,9.16,32.28,12.79,44.39.72,2.4,1.38,4.65,1.95,6.7,6.82,24.24,10.91,39.75,11.94,49.55.19,1.86.31,3.55.37,5.08.35,9.77-.9,14.06-2.19,20.17-.29,1.36-.56,2.74-.81,4.19-2.37,13.76-.47,25.82,2.74,36.93.27.95.55,1.88.84,2.8,6.42,20.88,13.02,30.65,13.95,41.8.04.48.04.94.01,1.39-.12,2.32-1.64,3.63-.91,6.58.09.35.2.71.33,1.1.57,1.7,1.29,3.5.04,7.09-.09.27-.19.54-.3.82-5.44,14.17-12.41,17.93-11.58,23.18.93,5.86,20.64,5.5,28.36,4.17,6.35-1.08,6.26-10.06,4.43-20.33-.37-2.08-.57-4.4-.42-7.96.07-1.76.55-3.81.8-6.28.23-2.28-.44-4.69-.8-6.6-.27-1.44-.55-2.6-.6-3.21-1.77-22.37-1.17-27.75,1.65-48.79,2.85-21.27-1.15-25.08-.65-38.09.3-7.7,2.64-15.58,3.27-23.92.78-10.46-.3-20.35-1.41-27.79-3.06-20.57-3.04-23.89-4.03-40.16-1.07-17.65,4.59-26.31,1.36-41.54.75.27,2.58.37,4.4.38s3.65-.11,4.4-.38c-3.23,15.23,2.43,23.89,1.36,41.54-.99,16.27-.97,19.59-4.03,40.16-1.11,7.44-2.19,17.33-1.4,27.79.62,8.34,2.96,16.22,3.26,23.92.5,13.01-3.5,16.82-.65,38.09,2.82,21.04,3.42,26.41,1.65,48.79-.05.61-.33,1.77-.6,3.21-.36,1.91-1.03,4.32-.8,6.6.25,2.47.73,4.52.8,6.28.14,3.56-.05,5.88-.42,7.96-1.83,10.27-1.91,19.25,4.44,20.33,7.71,1.33,27.42,1.69,28.35-4.17.84-5.29-6.26-9.08-11.72-23.57-1.62-4.28-.55-6.12.08-8.04,1.21-3.69-.99-4.91-.81-7.83.71-11.7,7.73-21.6,14.43-43.89,3.62-12.05,5.84-25.2,2.8-40.42-1.57-7.82-3.33-11.87-2.57-24.79.59-10.01,5.13-27.03,13.16-55.42,3.61-12.77,13.28-39.51,14.58-52.03.53-5.05.73-9.69.69-13.96v-.3c-.04-3.34-.25-6.43-.56-9.35.27.67.53,1.33.76,1.97,1.06,2.85,1.76,5.35,1.93,7.55.01.1.03.21.04.32,0,.07.01.15.01.22,0,.3-.05.67-.13,1.07-.38,1.81-1.47,4.4-1.92,6.16-1.75,6.81,1.79,12.51-2.25,21.41-.06.13-.05.24,0,.34.29.6,2.47.49,3.84-1.14,1.93-2.29,2.54-8.39,2.64-7.71,0,.03,0,.06.01.11.09,1.77.22,3.22.38,4.5.54,4.4,1.41,6.63,1.99,11.62.47,4.04-.59,6.53-.14,8.36,0,.04.02.08.03.12,0,.02.02.05.02.07.07.23.17.45.3.66.09.15.18.28.27.39.75,1.01,1.21.68,3.25-1.65.57-.65,1.05-1.28,1.5-1.89.81-1.1,1.47-2.12,2.14-2.99.95-1.27,1.7-2.53,2.23-4.1.32-.94.56-1.98.73-3.21.14-1,.23-2.12.27-3.39.13-4.11-.4-7.24-1.76-13.22-.51-2.25-1.07-3.65-1.76-8.62-.12-.85-.24-1.79-.37-2.87-.08-.66-.13-1.23-.17-1.74-.1-1.26-.1-2.14-.1-2.83,0-.42,0-.76-.02-1.09,0-.11-.01-.23-.02-.34-.09-.88-.28-1.58-.51-2.27-.57-1.73-1.43-3.39-1.97-7.49-1.46-10.89-2.42-18.98-3.78-30.34-.08-.64-.16-1.29-.24-1.95-.12-1.02-.25-2.06-.38-3.14-.09-.73-.18-1.48-.27-2.25-1.13-9.39-4.87-21.21-8.86-34.19-.19-.62-.38-1.24-.57-1.87-.06-.18-.11-.41-.17-.68-.07-.32-.15-.85-.24-1.53-.43-3.48-1.03-10.73-1.29-14.95-.4-6.56-4.14-65.81-6.77-76.45-.1-.39-.19-.75-.29-1.07-1.73-5.83-3.41-8.53-5.03-9.64,0,0,0,0,0,0-.17-.16-.6-.42-1.07-.67,0,0,0,0,0,0-.21-.12-.74-.42-1.25-.68-.02-.01-.05-.02-.07-.03-.38-.19-.77-.37-1.14-.52-.17-.07-.35-.14-.53-.21-.26-.1-.53-.19-.8-.28-.2-.07-.39-.13-.6-.19-.43-.13-.88-.26-1.34-.38-.12-.03-.24-.06-.35-.09-.83-.21-1.69-.4-2.58-.58-.35-.08-.71-.15-1.07-.23-2.21-.49-4.45-1.24-6.66-2.03-.32-.11-.63-.23-.95-.35-.67-.25-1.34-.5-2-.76-5.34-2.05-9.74-4.61-12.38-11.01-1.11-2.7-1.57-10.21-1.75-15.34,2.54-2.35,4.51-5.38,5.74-10.41.22-.9.48-1.97.74-3.12.7.24,1.26.16,1.73-.12,1.4-.85,1.9-3.49,2.29-4.42.56-1.36,1.31-1.49,2.07-4.5.5-2-.37-3.32-.01-4.61.24-.87.36-3.32-.75-4.16-.1-.07-.22-.12-.34-.15-.02-.03-.04-.06-.07-.1,1.63-6.28,2.67-16.47-.76-24.28-1.48-3.39-3.32-6.12-5.25-8.29-4.57-5.57-12.1-9.22-20.63-9.22-2.49,0-4.89.32-7.16.89-5.51,1.4-10.23,4.38-13.47,8.33-1.93,2.16-3.77,4.9-5.25,8.29-3.44,7.84-2.38,18.08-.74,24.34-.16.05-.3.09-.42.18-1.11.84-.99,3.29-.75,4.16.35,1.29-.52,2.6-.01,4.61.76,3,1.5,3.14,2.07,4.5.52,1.24,1.24,5.52,4.02,4.54.26,1.15.52,2.22.74,3.12,1.23,5.03,3.2,8.06,5.74,10.41-.18,5.13-.64,12.64-1.75,15.34-2.43,5.9-6.36,8.53-11.14,10.51-.31.13-.62.25-.93.38-.21.08-.41.16-.62.24-2.86,1.1-5.86,2.2-8.8,2.9-.34.08-.68.16-1.01.23-.15.03-.29.06-.44.1-.08.02-.16.03-.23.05-.81.17-1.6.34-2.36.53-.12.03-.25.06-.37.09-.47.12-.93.25-1.37.39-.21.06-.41.13-.62.2-.27.09-.54.18-.8.28-.18.07-.37.14-.54.21Z"/>
  </g>
</svg>