<?xml version="1.0" encoding="UTF-8"?>
<svg id="_레이어_2" data-name="레이어 2" xmlns="http://www.w3.org/2000/svg" viewBox="0 0 169.41 572.07">
  <defs>
    <style>
      .cls-1 {
        fill: #f3a9aa;
        stroke: #231815;
        stroke-miterlimit: 10;
      }
    </style>
  </defs>
  <g id="_레이어_1-2" data-name="레이어 1">
    <path class="cls-1" d="m118.92,169.38c.06.33.14.72.22,1.15.18.94.4,2.08.63,3.24.41,2.07.83,4.18,1.07,5.19.75,3.22,1.62,6.6,2.51,10,.5,1.92,1.02,3.84,1.52,5.75,1.86,6.98,3.61,13.66,4.55,18.74.03.17.06.34.09.5.15.82.27,1.61.37,2.33.2,1.51.88,11.78,4.25,24.9.11.41.21.82.32,1.24-1.94-2.91-4.3-6.29-7.21-10.24-.2-.27-.4-.55-.6-.82-1.52-5.62-3.05-11.65-4.07-17.5-.09-.52-.18-1.03-.26-1.54,0-.05-.07-.11-.08-.16,0,0,0,0,0,0,0-.06.05-.11.04-.17-2.86-16.43-3.92-33.93-3.71-41.04.12-.52.24-1.05.37-1.56Zm-68.73,0c.13.52.25,1.05.37,1.57.22,7.03-.77,24.05-3.6,40.18-.02.13.11.27.09.4,0,0,0,0,0,0-.02.13-.18.27-.2.4-.1.68-.22,1.36-.35,2.05-1.07,5.88-2.64,11.95-4.18,17.59-.2.27-.39.53-.59.8-2.84,3.86-5.17,7.18-7.07,10.05.11-.42.22-.83.32-1.24,3.37-13.12,4.06-23.39,4.25-24.9.09-.72.22-1.51.37-2.33.03-.17.06-.33.09-.5.82-4.42,2.25-10.06,3.84-16.05.84-3.18,1.72-6.45,2.56-9.7.77-2.97,1.52-5.91,2.18-8.73.24-1.03.67-3.17,1.08-5.26.22-1.14.44-2.26.62-3.18.08-.43.16-.82.22-1.15Zm-11.56-64.18c-.53.21-1.2.55-1.48.68-.02,0-.04.02-.05.02-.84.39-2.12,1.19-2.28,1.41,0,0,0,0,0,0-1.5,1-3.06,3.34-4.66,8.29-.23.71-.46,1.51-.69,2.42-2.67,10.53-6.36,69.81-6.77,76.38-.27,4.35-.89,11.89-1.33,15.26-.1.76-.19,1.31-.27,1.56s-.14.47-.21.7c-.15.51-.31,1.01-.46,1.52-3.99,12.98-7.73,24.8-8.86,34.19-.09.76-.18,1.5-.26,2.22-.13,1.08-.26,2.13-.38,3.15-.08.66-.16,1.32-.24,1.96-1.36,11.36-2.32,19.45-3.78,30.34-.47,3.52-1.26,4.98-1.63,6.75-.03.14-.04.29-.05.47,0,0,0,0,0,0-.36,1.25-.7,2.33-.88,4.04-.01.11-.01.23-.02.34-.02.34-.04.68-.05,1.08-.03.79-.07,1.67-.18,2.83-.05.54-.11,1.11-.2,1.73-.2,1.46-.41,2.45-.59,3.51-.77,4.65-1.28,6.36-1.72,8.64-.35,1.73-.62,3.25-.79,4.69-.45,3.79-.36,6.25.24,9.07.27,1.29.59,2.55,1.11,3.74.66,1.5.92,2.26,1.37,2.56,0,.01.01.02.02.03.02.03.03.06.05.09.55.92,1.05,1.52,1.73,2,.46.33.96.68,1.59,1.08.37.23.77.51,1.21.85,1.66,1.28,2,1.29,2.63.22.07-.12.15-.26.23-.41.12-.22.2-.46.27-.7,0-.02.01-.03.01-.04.01-.05.02-.1.03-.15.43-1.92-.27-4.38.15-8.35s1.26-4.14,2.17-6.93c.51-.47,1.29-1.57,1.23-3.09,0-.07,0-.11,0-.14-.22-.83.15,2.82,1.49,3.91,1.01.82,2.59.58,2.88-.19.04-.11.05-.22,0-.36-1.12-3.33-1.39-6.25-1.6-9.07-.2-2.65-.3-5.45-.29-7.8,0-.15,0-.3,0-.45,0-1.25-.05-2.52-.22-3.86-.23-1.79-.89-4.26-.94-6.15-.07-.22-.12-.42-.12-.55,0-.04,0-.08.01-.12,0-.04,0-.07.01-.11.1-1.39.81-3.1,1.92-5.17,0,.07-.02.22-.02.29-.23,2.82-.35,5.8-.34,9,0,.02,0,.27,0,.3.02,1.62.06,3.29.15,5.02.13,2.71.41,5.65.86,8.79,1.6,11.37,8.68,31.82,12.67,44.82.75,2.46,1.43,4.74,2,6.75,6.8,24.13,11,39.83,12.27,49.91.23,1.88.39,3.57.46,5.11.49,10.09-.65,14.56-1.92,20.36-.3,1.35-.59,2.73-.87,4.21-2.59,13.89-.8,26.06,2.36,37.25.27.95.55,1.89.83,2.82,6.42,21.13,13.08,31.01,14.13,42.14.04.48.06.94.07,1.4.02,2.46-1.6,3.74-1,6.63.07.35.17.72.3,1.12.58,1.74,1.42,3.5.21,7.14-.09.27-.19.55-.3.84-5.45,14.33-12.49,18.11-11.65,23.37.93,5.86,20.64,5.5,28.36,4.17,6.35-1.08,6.26-10.06,4.43-20.33-.37-2.08-.57-4.4-.42-7.96.07-1.76.55-3.81.8-6.28.23-2.28-.44-4.69-.8-6.6-.27-1.44-.55-2.6-.6-3.21-1.77-22.37-1.17-27.75,1.65-48.79,2.85-21.27-1.15-25.08-.65-38.09.3-7.7,2.64-15.58,3.27-23.92.78-10.46-.3-20.35-1.41-27.79-3.06-20.57-3.04-23.89-4.03-40.16-1.07-17.65,4.59-26.31,1.36-41.54.75.27,2.58.37,4.4.38s3.65-.11,4.4-.38c-3.23,15.23,2.43,23.89,1.36,41.54-.99,16.27-.97,19.59-4.03,40.16-1.11,7.44-2.19,17.33-1.4,27.79.62,8.34,2.96,16.22,3.26,23.92.5,13.01-3.5,16.82-.65,38.09,2.82,21.04,3.42,26.41,1.65,48.79-.05.61-.33,1.77-.6,3.21-.36,1.91-1.03,4.32-.8,6.6.25,2.47.73,4.52.8,6.28.14,3.56-.05,5.88-.42,7.96-1.83,10.27-1.91,19.25,4.44,20.33,7.71,1.33,27.42,1.69,28.35-4.17.84-5.29-6.26-9.08-11.72-23.57-1.62-4.28-.55-6.12.08-8.04,1.21-3.69-.99-4.91-.81-7.83.71-11.7,7.73-21.6,14.43-43.89,3.62-12.05,5.84-25.2,2.8-40.42-1.57-7.82-3.33-11.87-2.57-24.79.59-10.01,5.13-27.03,13.16-55.42,3.61-12.77,13.28-39.51,14.58-52.03.53-5.05.73-9.69.69-13.96v-.3c-.04-3.34-.25-6.43-.56-9.35.27.67.53,1.33.76,1.96,1.06,2.85,1.76,5.35,1.93,7.55.01.09.02.18.03.27,0,.08.02.15.02.23,0,.3-.05.68-.13,1.08-.37,1.81-1.47,4.43-1.93,6.21-1.75,6.81,1.79,12.51-2.25,21.41-.06.13-.05.25,0,.35.31.6,2.47.47,3.84-1.15,1.89-2.25,2.52-8.17,2.63-7.75,0,.02.01.06.01.12.09,1.77.22,3.22.38,4.5.54,4.42,1.41,6.64,1.99,11.65.47,4.04-.58,6.52-.14,8.35,0,.04.02.08.03.12,0,.02.02.05.02.07.07.23.17.46.3.67.09.15.18.28.27.39.75,1.01,1.21.68,3.24-1.65.57-.65,1.05-1.28,1.5-1.89.81-1.1,1.48-2.12,2.14-2.99.96-1.27,1.7-2.53,2.23-4.1.32-.94.57-1.99.74-3.22.14-1,.23-2.11.27-3.38.13-4.11-.4-7.24-1.76-13.22-.51-2.25-1.07-3.66-1.76-8.63-.12-.85-.24-1.79-.36-2.86-.08-.66-.13-1.23-.17-1.74-.1-1.27-.1-2.14-.1-2.83,0-.41,0-.76-.03-1.08,0-.11,0-.23-.02-.34-.09-.88-.28-1.59-.51-2.28-.57-1.73-1.43-3.39-1.97-7.48-1.46-10.89-2.42-18.98-3.78-30.34-.08-.64-.16-1.29-.24-1.95-.12-1.02-.25-2.07-.38-3.15-.09-.73-.18-1.47-.27-2.23-1.13-9.39-4.87-21.21-8.86-34.19-.17-.56-.35-1.13-.52-1.69-.06-.21-.13-.44-.19-.69-.07-.28-.16-.83-.25-1.55-.44-3.42-1.04-10.81-1.31-15.1-.41-6.62-4.2-66.78-6.83-76.72-.1-.38-.2-.74-.31-1.08-1.79-5.96-3.54-8.56-5.21-9.55,0,0,0,0,0,0-.09-.08-.55-.36-1.09-.65,0,0,0,0,0,0-.32-.18-.82-.46-1.26-.67-.02-.01-.05-.02-.07-.03-.38-.18-.77-.35-1.16-.49-.18-.07-.36-.13-.55-.2-.26-.09-.53-.18-.8-.27-.2-.06-.4-.13-.61-.19-.44-.13-.88-.25-1.34-.36-.12-.03-.24-.06-.36-.09-.79-.19-1.61-.37-2.45-.55-.29-.06-.57-.12-.86-.19-2.21-.49-4.45-1.24-6.66-2.04-.31-.11-.63-.23-.95-.35-.67-.25-1.34-.5-2-.76-5.34-2.05-9.74-4.61-12.38-11.01-1.11-2.7-1.57-10.21-1.75-15.34,2.54-2.35,4.51-5.38,5.74-10.41.22-.9.48-1.97.74-3.12.69.24,1.26.16,1.73-.12,1.4-.85,1.91-3.49,2.29-4.42.56-1.36,1.31-1.49,2.07-4.5.5-2-.37-3.32-.01-4.61.24-.87.36-3.32-.75-4.16-.09-.06-.19-.11-.3-.14-.04-.03-.07-.05-.11-.08,1.63-6.27,2.68-16.49-.75-24.31-1.48-3.39-3.32-6.12-5.25-8.29-4.57-5.57-12.1-9.22-20.63-9.22-2.48,0-4.88.32-7.14.89-5.52,1.4-10.25,4.38-13.49,8.33-1.93,2.16-3.77,4.9-5.25,8.29-3.44,7.84-2.38,18.08-.74,24.34-.16.05-.3.1-.42.19-1.11.84-.99,3.29-.75,4.16.35,1.29-.52,2.6-.01,4.61.75,3,1.5,3.14,2.07,4.5.51,1.24,1.24,5.52,4.02,4.54.26,1.14.52,2.22.74,3.12,1.23,5.03,3.2,8.06,5.74,10.41-.18,5.13-.64,12.64-1.75,15.34-2.41,5.84-6.29,8.48-10.99,10.45-.3.13-.61.25-.92.38-.2.08-.41.16-.62.24-2.82,1.09-5.8,2.18-8.71,2.9-.34.08-.67.16-1,.23-.15.03-.29.06-.44.09-.08.02-.15.03-.23.05-.8.17-1.58.34-2.34.52-.12.03-.24.06-.36.09-.46.12-.91.24-1.36.37-.21.06-.41.13-.61.19-.27.09-.54.18-.8.27-.19.07-.37.13-.55.2Z"/>
  </g>
</svg>