<?xml version="1.0" encoding="UTF-8"?>
<svg id="_레이어_2" data-name="레이어 2" xmlns="http://www.w3.org/2000/svg" viewBox="0 0 168.82 571.92">
  <defs>
    <style>
      .cls-1 {
        fill: #f3a9aa;
        stroke: #231815;
        stroke-miterlimit: 10;
      }
    </style>
  </defs>
  <g id="_레이어_1-2" data-name="레이어 1">
    <path class="cls-1" d="m37.41,105.45c-.78.34-1.99,1.05-2.09,1.09,0,0-.01.01-.02.01-.71.34-1.57.98-2.07,1.64,0,0,0,0,0,0-1.31,1.41-2.66,4.01-4.05,8.62-.19.63-.39,1.44-.58,2.41-2.64,13.16-6.11,68.82-6.5,75.17-.27,4.36-.89,11.91-1.33,15.27-.1.76-.19,1.3-.26,1.55s-.14.47-.21.7c-.15.51-.31,1.01-.46,1.52-3.99,12.98-7.73,24.8-8.86,34.19-.09.76-.18,1.5-.26,2.22-.13,1.08-.26,2.13-.38,3.15-.08.66-.16,1.31-.24,1.95-1.36,11.36-2.32,19.45-3.78,30.34-.66,5-1.85,6.13-2.2,8.76-.04.33-.05.68-.05,1.11,0,.73,0,1.72-.2,3.42-.26,1.5-.5,2.73-.66,3.93-.02.11-.03.23-.04.34-.42,2.98-.85,4.05-1.17,5.67-.18.9-.31,1.8-.48,2.75-.1.57-.2,1.13-.3,1.7-.51,2.81-.71,4.88-.7,7.32.03,5.34.78,7.57,1.99,10.19.73,1.59,1.28,3.4,2.41,5.21,1.59,2.57,1.87,3.28,2.51,2.7,1.06-.98-.4-2.81.23-6.07.1-.54.29-1,.48-1.44,0,0,0-.02.01-.03,0-.02.02-.05.03-.07.36-.82.84-1.49,1.22-2.28.66-1.41.97-3.04,1.33-5.72.13-.25.29.67.73,1.91.71,1.99,1.52,3.86,2.44,4.71,1.36,1.24,3.16,1.28,2.94.51-.06-.22-.08-.45-.14-.67,0-.02,0-.04-.01-.05-.02-.06-.03-.12-.05-.18-.72-2.57-1.29-5.05-1.26-7.79.05-4.72,1.11-8.22.33-12.62-.35-1.97-1.54-4.94-1.45-6.6,0-.13.03-.25.04-.36.16-1.67.83-2.08,2.07-3.63.92-1.16,2.15-2.84,3.08-4.85.04-.1.08-.19.09-.3,1-6.76,3.2-11.45,5.04-19.28.53-2.26.98-4.99,1.75-7.85.21-.79.46-1.61.73-2.44.01-.06.03-.12.05-.18.01-.05.03-.11.04-.16,1.15-4.02,2.45-8.13,3.7-12.31.12-.41.24-.82.36-1.22.22-.74.42-1.47.62-2.18.51-1.85.98-3.6,1.38-5.3,1.66-7.13,2.52-12.61,3.19-15.56.18-.78.3-1.65.49-2.55.07-.33.15-.67.23-1.01.03-.12.06-.25.09-.37.1-.43.21-.87.32-1.32.81-3.21,1.72-6.71,2.65-10.31,2.21-8.53,4.07-16.89,5.27-22.52.12-.55.26-1.3.43-2.16.03-.15.06-.3.09-.46.46-2.34,1.05-5.31,1.45-7.19.62,1.17,1.21,2.43,1.76,3.76.58,1.41,1.1,2.9,1.53,4.42.36,1.31.7,2.65.82,4.01.09.98.14,1.68.15,2.38.01.46,0,.92-.04,1.43-.01.17-.02.35-.04.55-.01.49-.04.98-.06,1.47-.4,2.68-1.06,5.62-1.89,8.66-1.02,3.74-3.77,17.68-4.4,21.32-.27,1.54-1.27,5.33-2.34,9.32-1.43,5.33-3,11.02-3.14,12.11-1.67,6.71-3.71,13.96-5.01,22.03-.18.84-.32,1.59-.43,2.24-.15.69-.27,1.28-.33,1.72-.89,4.75-1.73,10.15-2.14,16.47-.28,4.3-.35,9.01-.15,14.23.09,2.54.38,5.51.83,8.79.53,3.95,1.24,8.32,2.14,12.89,2.09,10.51,5.43,23.05,7.44,31.68,1.45,6.29,2.78,12.07,3.86,17.03,4.05,18.58,6.52,31.13,7.19,39.54.43,5.41.48,9.4.31,12.7-.24,4.89-.85,8.37-1.48,12.66-.53,3.66-.95,7.03-1.23,10.59-.83,11.23.5,21.33,2.59,30.75.55,2.46,1.12,4.8,1.69,7.04,4.7,18.18,9.27,27.44,9.99,37.81.09,1.29-.13,2.31-.31,3.37-.25,1.42-.63,2.68-.3,4.64.14.81.35,1.64.53,2.67.25,1.39.39,3.01-.29,5.58-.18.67-.37,1.34-.59,2.02-4.22,13.27-9.41,16.98-8.77,22.08.73,5.86,16.26,5.5,22.33,4.18,5-1.09,4.94-10.07,3.49-20.34-.29-2.08-.43-4.4-.32-7.96.05-1.76.42-3.81.62-6.28.18-2.28-.33-4.69-.62-6.6-.22-1.44-.44-2.6-.48-3.21-1.4-22.38-.92-27.75,1.3-48.79,2.24-21.27-.91-25.08-.51-38.08.23-7.71,2.08-15.58,2.57-23.93.62-10.46-.23-20.35-1.11-27.79-2.41-20.57-2.39-23.89-3.17-40.15-.85-17.66,3.61-26.32,1.07-41.55.59.27,2.03.36,3.47.38s2.87-.11,3.46-.38c-2.54,15.23,1.92,23.89,1.07,41.55-.78,16.26-.76,19.58-3.17,40.15-.87,7.44-1.73,17.33-1.11,27.79.5,8.35,2.34,16.22,2.57,23.93.4,13-2.75,16.81-.51,38.08,2.23,21.04,2.7,26.41,1.3,48.79-.04.61-.26,1.77-.47,3.21-.28,1.91-.81,4.32-.63,6.6.2,2.47.57,4.52.63,6.28.11,3.56-.04,5.88-.33,7.96-1.44,10.27-1.51,19.25,3.49,20.34,6.08,1.32,21.6,1.68,22.33-4.18.66-5.29-4.93-9.08-9.23-23.56-1.27-4.29-.43-6.12.06-8.05.95-3.69-.78-4.91-.64-7.83.54-11.69,6.1-21.6,11.37-43.88,2.85-12.06,4.6-25.21,2.21-40.42-1.24-7.83-2.63-11.87-2.03-24.8.47-10.01,4.04-27.03,10.37-55.42,2.84-12.77,10.46-39.51,11.49-52.03.41-5.05.57-9.68.54-13.96-.16-20.31-4.71-32.38-7.68-41.52,0,0-.22-.75-.58-1.93-.17-.57-.38-1.33-.64-2.22-1.36-5.32-3.75-14.25-4.17-16.76s-2.68-14.35-4.23-20.6c-4.08-14.26-3.39-32.65-1.19-43.69.09.19.19.45.31.77.07.36.15.76.23,1.18.2,1.01.42,2.15.63,3.24.33,1.65.64,3.2.83,4.02.75,3.22,1.62,6.6,2.51,9.99.5,1.92,1.02,3.85,1.52,5.75,1.86,6.98,3.61,13.66,4.55,18.74.03.18.06.35.1.52.15.82.27,1.59.36,2.31.19,1.5.88,11.77,4.25,24.88.89,3.48,1.97,7.15,3.28,10.92.13.37.26.74.38,1.1.21.62.42,1.21.63,1.8,5.01,14.32,7.03,19.24,10.57,27.24,1.08,2.45,2.03,4.68,2.79,6.73,1.06,2.86,1.76,5.35,1.93,7.55.02.12.03.25.04.38,0,.07,0,.14,0,.22,0,.3-.06.67-.14,1.06-.39,1.8-1.46,4.37-1.92,6.12-1.75,6.81,1.79,12.51-2.25,21.41-.06.12-.06.23-.02.33.27.61,2.47.5,3.85-1.13,1.96-2.33,2.57-8.62,2.64-7.68,0,.03,0,.06,0,.1.09,1.77.22,3.23.38,4.5.55,4.39,1.41,6.61,1.99,11.6.47,4.05-.6,6.53-.14,8.36,0,.04.02.08.03.12,0,.02.01.05.02.07.07.23.17.45.3.66.09.15.18.28.26.39.75,1.02,1.21.68,3.25-1.65.57-.65,1.06-1.28,1.51-1.89.81-1.1,1.47-2.11,2.13-2.99.95-1.26,1.7-2.52,2.23-4.09.32-.93.56-1.98.73-3.2.14-1.01.23-2.13.28-3.41.13-4.11-.4-7.24-1.76-13.22-.51-2.25-1.07-3.65-1.76-8.62-.12-.85-.24-1.8-.37-2.88-.08-.66-.13-1.23-.17-1.74-.1-1.26-.1-2.13-.1-2.82,0-.42,0-.77-.02-1.1,0-.11-.01-.22-.03-.33-.09-.87-.28-1.57-.5-2.27-.57-1.73-1.43-3.39-1.98-7.5-1.46-10.89-2.42-18.98-3.78-30.34-.08-.64-.16-1.28-.24-1.94-.12-1.01-.25-2.06-.38-3.13-.09-.74-.18-1.49-.27-2.26-1.13-9.39-4.87-21.21-8.86-34.19-.21-.68-.42-1.36-.63-2.04-.05-.16-.1-.39-.15-.67-.07-.35-.14-.87-.22-1.52-.43-3.54-1.01-10.64-1.27-14.81-.4-6.51-4.08-64.83-6.7-76.19-.09-.4-.18-.75-.28-1.06-1.67-5.71-3.29-8.49-4.85-9.73,0,0,0,0,0,0-.26-.23-.64-.48-1.05-.69,0,0,0,0,0,0-.11-.06-.65-.38-1.24-.69-.02-.01-.05-.02-.07-.04-.38-.2-.78-.39-1.12-.54-.17-.07-.34-.14-.52-.21-.26-.1-.52-.2-.79-.29-.19-.07-.39-.13-.59-.2-.43-.14-.88-.27-1.34-.39-.12-.03-.23-.06-.35-.09-.87-.23-1.78-.42-2.71-.62-.42-.09-.84-.18-1.28-.28-2.21-.49-4.45-1.23-6.66-2.03-.32-.11-.63-.23-.95-.35-.67-.25-1.34-.5-2-.76-5.34-2.05-9.74-4.61-12.38-11.01-1.11-2.7-1.57-10.21-1.75-15.34,2.54-2.35,4.51-5.38,5.74-10.41.22-.9.48-1.97.74-3.12.7.25,1.26.16,1.73-.12,1.4-.85,1.9-3.49,2.29-4.42.56-1.36,1.31-1.49,2.07-4.5.5-2-.37-3.32-.01-4.61.24-.87.36-3.32-.75-4.16-.11-.08-.24-.13-.38-.17,0-.04,0-.08-.02-.11,1.63-6.28,2.66-16.45-.77-24.25-1.48-3.39-3.32-6.12-5.25-8.29-4.57-5.57-12.1-9.22-20.63-9.22-2.5,0-4.91.31-7.18.9-5.5,1.41-10.22,4.38-13.45,8.32-1.93,2.17-3.77,4.9-5.25,8.29-3.44,7.84-2.38,18.08-.74,24.35-.15.04-.3.09-.42.18-1.11.84-.99,3.29-.75,4.16.36,1.29-.52,2.61-.01,4.61.76,3.01,1.51,3.14,2.07,4.5.52,1.24,1.24,5.52,4.02,4.54.26,1.15.52,2.22.74,3.12,1.23,5.03,3.2,8.06,5.74,10.41-.18,5.13-.64,12.64-1.75,15.34-2.46,5.95-6.44,8.58-11.28,10.57-.31.13-.63.25-.94.38-.21.08-.42.16-.63.24-2.89,1.11-5.93,2.22-8.89,2.9-.35.08-.69.15-1.03.23-.15.03-.3.07-.44.1-.08.02-.16.03-.24.05-.82.17-1.61.35-2.38.55-.13.03-.25.06-.38.1-.48.13-.94.26-1.39.4-.21.07-.42.14-.62.21-.27.09-.54.19-.8.29-.18.07-.36.14-.54.22Z"/>
  </g>
</svg>