<?xml version="1.0" encoding="UTF-8"?>
<svg id="_레이어_2" data-name="레이어 2" xmlns="http://www.w3.org/2000/svg" viewBox="0 0 169.27 571.62">
  <defs>
    <style>
      .cls-1 {
        fill: #f3a9aa;
        stroke: #231815;
        stroke-miterlimit: 10;
      }
    </style>
  </defs>
  <g id="_레이어_1-2" data-name="레이어 1">
    <path class="cls-1" d="m166.99,312.55c-.52-2.29-1.09-3.7-1.8-8.89-.11-.78-.21-1.63-.33-2.6-.06-.52-.11-.99-.14-1.42-.12-1.44-.13-2.4-.13-3.15,0-.42,0-.77-.03-1.1,0-.11,0-.22-.02-.33-.09-.83-.26-1.51-.47-2.17-.57-1.77-1.46-3.41-2.01-7.59-1.46-10.89-2.42-18.98-3.78-30.34-.09-.71-.17-1.43-.26-2.17-.11-.88-.21-1.79-.33-2.72-.1-.8-.19-1.61-.29-2.45-1.13-9.39-4.87-21.21-8.86-34.19-.18-.57-.35-1.15-.53-1.72-.06-.2-.12-.41-.18-.65-.07-.27-.15-.77-.24-1.44-.44-3.36-1.06-10.88-1.32-15.23-.41-6.62-4.2-66.78-6.83-76.72-.1-.38-.2-.74-.31-1.08-1.79-5.96-3.54-8.56-5.21-9.55,0,0,0,0,0,0-.09-.08-.55-.36-1.08-.65,0,0,0,0,0,0-.32-.18-.82-.46-1.26-.67-.03-.01-.05-.02-.08-.04-.38-.18-.77-.34-1.15-.49-.18-.07-.36-.13-.55-.2-.26-.09-.53-.18-.8-.27-.2-.06-.4-.13-.61-.19-.43-.13-.88-.25-1.33-.36-.12-.03-.24-.06-.36-.09-.79-.19-1.61-.37-2.44-.54-.29-.06-.57-.12-.87-.19-2.21-.49-4.47-1.24-6.68-2.04-.3-.11-.61-.22-.91-.33-.68-.25-1.35-.51-2.02-.76-5.34-2.05-9.74-4.61-12.38-11.01-1.11-2.7-1.57-10.21-1.75-15.34,2.54-2.35,4.51-5.38,5.74-10.41.22-.9.48-1.97.74-3.12.69.24,1.26.16,1.73-.12,1.4-.85,1.91-3.49,2.29-4.42.56-1.36,1.31-1.49,2.07-4.5.5-2-.37-3.32,0-4.61.24-.87.36-3.32-.75-4.16-.09-.06-.19-.11-.3-.14-.04-.03-.07-.05-.11-.08,1.63-6.27,2.68-16.49-.75-24.31-1.48-3.39-3.32-6.12-5.25-8.29-4.53-5.52-11.97-9.15-20.41-9.21-8.44.06-15.88,3.69-20.41,9.21-1.93,2.17-3.77,4.9-5.25,8.29-3.43,7.82-2.38,18.04-.75,24.31-.04.02-.08.05-.11.08-.11.03-.21.08-.3.14-1.11.84-.99,3.29-.75,4.16.36,1.29-.51,2.61,0,4.61.76,3.01,1.51,3.14,2.07,4.5.39.93.89,3.57,2.29,4.42.47.28,1.03.37,1.73.12.26,1.15.52,2.22.74,3.12,1.23,5.03,3.2,8.06,5.74,10.41-.18,5.13-.64,12.64-1.75,15.34-2.64,6.4-7.04,8.96-12.38,11.01-.66.26-1.34.51-2.02.76-.31.11-.61.22-.91.33-2.21.8-4.47,1.55-6.68,2.04-.3.07-.58.13-.87.19-.83.18-1.65.35-2.44.54-.12.03-.24.06-.36.09-.45.11-.9.23-1.33.36-.21.06-.41.12-.61.19-.27.09-.54.17-.8.27-.18.07-.37.13-.55.2-.38.15-.77.31-1.15.49-.03.01-.05.02-.08.04-.44.21-.94.49-1.26.67,0,0,0,0,0,0-.53.29-1,.58-1.08.65,0,0,0,0,0,0-1.68.99-3.42,3.59-5.21,9.55-.1.34-.2.69-.31,1.08-2.64,9.93-6.43,70.1-6.83,76.72-.27,4.35-.89,11.87-1.32,15.23-.09.67-.17,1.17-.24,1.44-.06.24-.12.45-.18.65-.17.57-.35,1.15-.53,1.72-4,12.98-7.73,24.8-8.86,34.19-.1.84-.2,1.65-.29,2.45-.11.93-.22,1.83-.33,2.72-.09.73-.18,1.46-.26,2.17-1.36,11.36-2.32,19.45-3.78,30.34-.55,4.18-1.44,5.82-2.01,7.59-.21.66-.39,1.34-.47,2.17-.01.11-.01.22-.02.33-.02.33-.03.68-.03,1.1,0,.75,0,1.71-.13,3.15-.04.43-.08.9-.14,1.42-.11.96-.22,1.82-.33,2.6-.71,5.19-1.28,6.61-1.8,8.89-1.36,5.98-1.89,9.11-1.76,13.22.04,1.37.15,2.56.31,3.62.14.94.33,1.76.56,2.52.54,1.79,1.33,3.17,2.38,4.56.68.9,1.37,1.96,2.22,3.1.43.58.88,1.17,1.42,1.78,2.06,2.35,2.51,2.67,3.27,1.62.08-.11.16-.23.25-.37.13-.21.22-.42.3-.65.01-.03.02-.06.03-.1,0-.03.01-.06.02-.09.46-1.83-.61-4.32-.14-8.38.61-5.21,1.52-7.4,2.06-12.19.13-1.15.24-2.44.32-3.96,0-.06,0-.1.01-.12.11-.42.74,5.5,2.63,7.75,1.38,1.64,3.59,1.75,3.85,1.12.04-.09.04-.2-.02-.32-4.06-8.89-.5-14.6-2.25-21.41-.45-1.75-1.52-4.3-1.91-6.1-.09-.44-.16-.85-.15-1.18,0-.08,0-.16.02-.24,0-.09.02-.18.03-.26.17-2.19.87-4.68,1.92-7.52.77-2.06,1.71-4.3,2.8-6.76,3.53-8.01,5.59-12.92,10.57-27.24.21-.61.43-1.24.65-1.89.12-.33.23-.67.35-1.01,1.16-3.33,2.14-6.59,2.96-9.7.01-.04.02-.08.03-.12,0-.02,0-.03.01-.05,3.56-13.62,4.32-24.38,4.52-25.93.09-.73.22-1.54.37-2.37.03-.15.05-.3.08-.46.76-4.08,2.04-9.21,3.48-14.69,1.07-4.05,2.21-8.29,3.28-12.45.64-2.49,1.26-4.96,1.82-7.34.21-.9.57-2.66.92-4.48.26-1.32.53-2.68.74-3.77.07-.35.13-.67.18-.96.13.23.23.5.34.77.21,7.28-1.35,25.3-4.3,42.91,0,0,0,0,0,0-.99,5.84-2.03,11.95-3.04,17.47-.61,3.43-1.16,6.6-1.64,9.49-1.89,5.1-3.45,9.48-5.16,14.54-3.09,9.13-7.93,21.13-8.09,41.22v.3c-.02,4.2.15,8.73.58,13.67,1.1,12.52,9.23,39.25,12.26,52.03,6.75,28.38,10.57,45.41,11.06,55.42.65,12.92-.83,16.97-2.15,24.79-2.56,15.21-.69,28.37,2.35,40.42,5.63,22.28,11.53,32.19,12.13,43.89.15,2.91-1.69,4.13-.68,7.83.53,1.92,1.43,3.76.07,8.04-4.59,14.48-10.56,18.28-9.86,23.57.79,5.86,17.35,5.49,23.84,4.17,5.34-1.09,5.27-10.06,3.73-20.34-.31-2.07-.47-4.4-.35-7.96.06-1.75.46-3.8.67-6.28.19-2.28-.37-4.69-.67-6.59-.23-1.45-.47-2.61-.51-3.21-1.43-22.39-.99-27.76,1.39-48.8,2.39-21.26-.97-25.08-.55-38.08.25-7.7,2.22-15.58,2.75-23.92.02-.28.03-.57.05-.85.02.28.03.56.05.85.53,8.34,2.5,16.22,2.75,23.92.42,13-2.94,16.82-.55,38.08,2.38,21.04,2.82,26.41,1.39,48.8-.04.6-.28,1.76-.51,3.21-.3,1.9-.86,4.31-.67,6.59.21,2.48.61,4.53.67,6.28.12,3.56-.04,5.89-.35,7.96-1.54,10.28-1.61,19.25,3.73,20.34,6.49,1.32,23.05,1.69,23.84-4.17.7-5.29-5.27-9.09-9.86-23.57-1.36-4.28-.46-6.12.07-8.04,1.01-3.7-.83-4.92-.68-7.83.6-11.7,6.5-21.61,12.13-43.89,3.04-12.05,4.91-25.21,2.35-40.42-1.32-7.82-2.8-11.87-2.15-24.79.49-10.01,4.31-27.04,11.06-55.42,3.03-12.78,11.16-39.51,12.26-52.03.43-4.94.6-9.47.58-13.67v-.3c-.16-20.09-5-32.09-8.09-41.22-1.72-5.07-3.27-9.45-5.16-14.54-.48-2.89-1.03-6.06-1.64-9.49-1-5.52-2.05-11.63-3.04-17.47,0,0,0,0,0,0-2.96-17.62-4.52-35.63-4.3-42.91.11-.28.22-.54.34-.77.05.28.12.61.18.96.21,1.09.47,2.45.74,3.77.36,1.82.72,3.58.92,4.48.56,2.38,1.17,4.84,1.82,7.34,1.07,4.16,2.22,8.4,3.28,12.45,1.44,5.48,2.72,10.61,3.48,14.69.03.16.05.31.08.46.15.84.28,1.64.37,2.37.2,1.55.96,12.31,4.52,25.93,0,.02,0,.03.01.05.01.04.02.08.03.12.82,3.12,1.8,6.37,2.96,9.7.12.35.24.68.35,1.01.22.64.44,1.28.65,1.89,4.98,14.32,7.04,19.23,10.57,27.24,1.09,2.46,2.04,4.7,2.8,6.76,1.05,2.84,1.75,5.33,1.92,7.52.01.08.02.17.03.26,0,.08.02.16.02.24,0,.33-.05.74-.15,1.18-.39,1.8-1.46,4.36-1.91,6.1-1.75,6.81,1.81,12.52-2.25,21.41-.06.12-.05.23-.02.32.26.62,2.46.52,3.85-1.12,1.9-2.25,2.52-8.17,2.63-7.75,0,.02.01.06.01.12.08,1.52.19,2.82.32,3.96.54,4.79,1.45,6.98,2.06,12.19.47,4.06-.6,6.55-.14,8.38,0,.03.01.06.02.09,0,.03.02.06.03.1.07.22.17.44.3.65.09.14.17.26.25.37.76,1.05,1.21.73,3.27-1.62.53-.61.99-1.21,1.42-1.78.85-1.14,1.53-2.2,2.22-3.1,1.05-1.39,1.84-2.77,2.38-4.56.23-.76.42-1.59.56-2.52.16-1.06.26-2.25.31-3.62.13-4.11-.4-7.24-1.76-13.22Zm-77.74,34.62c-.83,16.27-.81,19.59-3.39,40.16-.49,3.93-.97,8.54-1.23,13.56-.25-5.02-.73-9.63-1.23-13.56-2.58-20.57-2.56-23.89-3.39-40.16-.9-17.66,3.85-26.31,1.14-41.54.6.25,2.02.34,3.48.37,1.45-.03,2.88-.12,3.48-.37-2.71,15.23,2.04,23.88,1.14,41.54Z"/>
  </g>
</svg>