<?xml version="1.0" encoding="UTF-8"?>
<svg id="_레이어_2" data-name="레이어 2" xmlns="http://www.w3.org/2000/svg" viewBox="0 0 169.38 571.92">
  <defs>
    <style>
      .cls-1 {
        fill: #f3a9aa;
        stroke: #231815;
        stroke-miterlimit: 10;
      }
    </style>
  </defs>
  <g id="_레이어_1-2" data-name="레이어 1">
    <path class="cls-1" d="m118.88,169.38c.05.27.11.59.18.94.2,1.06.47,2.41.73,3.76.39,1.97.78,3.92,1.01,4.89.56,2.38,1.17,4.84,1.82,7.34,1.07,4.17,2.22,8.41,3.29,12.46,1.44,5.48,2.72,10.6,3.48,14.68.03.16.06.31.08.47.15.84.28,1.63.37,2.37.2,1.55.92,12.31,4.52,25.92,0,.02,0,.03.01.05.01.04.02.08.03.12.83,3.11,1.8,6.37,2.96,9.71.03.1.07.19.1.29-5.18-10.52-6.52-11.79-10.75-19.96-2.27-6.67-4.21-12.91-5.26-18.95-3.42-16.5-4.02-33.52-2.93-42.54.12-.51.24-1.03.36-1.54Zm-68.72,0c.13.51.24,1.03.36,1.54,1.09,9.02.49,26.04-2.93,42.54-1.05,6.05-2.99,12.28-5.26,18.95-4.24,8.16-5.57,9.44-10.74,19.92.03-.08.06-.16.09-.25,1.16-3.33,2.13-6.59,2.96-9.7,0-.04.02-.07.03-.11,0-.02.01-.04.02-.07,3.6-13.61,4.32-24.37,4.52-25.92.1-.8.25-1.68.42-2.61.03-.15.05-.29.08-.43.76-4.08,2.04-9.18,3.48-14.62,1.03-3.9,2.12-7.96,3.16-11.97.68-2.61,1.32-5.2,1.91-7.68.23-.97.62-2.93,1.01-4.9.27-1.35.53-2.7.73-3.76.07-.35.13-.66.18-.93Zm-11.87-64.05c-.65.27-1.59.8-1.78.88-.01,0-.03.02-.04.02-.77.37-1.85,1.09-2.18,1.53,0,0,0,0,0,0-1.41,1.21-2.86,3.67-4.35,8.45-.21.67-.43,1.48-.64,2.42-2.67,11.84-6.24,69.32-6.64,75.77-.27,4.41-.91,12.09-1.34,15.39-.09.69-.18,1.2-.25,1.43-.07.22-.13.44-.2.66-.16.52-.32,1.04-.48,1.56-3.99,12.98-7.73,24.8-8.86,34.19-.1.83-.19,1.64-.29,2.44-.11.93-.22,1.84-.33,2.73-.09.74-.18,1.46-.26,2.17-1.36,11.36-2.32,19.45-3.78,30.34-.58,4.4-1.45,5.76-1.99,7.95-.2.83-.47,1.53-.52,2.52-.02.54-.02,1.25-.14,2.45-.04.36-.06.72-.08,1.1-.07.98-.14,1.98-.28,3.15-.06.47-.12.94-.19,1.42-.29,1.9-.59,2.94-.83,4.21-.83,4.45-1.32,6.48-1.71,8.84-.26,1.58-.46,3.02-.55,4.45-.28,4.4.15,6.95,1.22,9.73.52,1.37,1.06,2.82,1.97,4.24,1.15,1.79,1.45,2.23,2.03,1.88.66.29.83.19,1.3-.14.26-.19.58-.37,1.11-.62.26-.12.54-.17.86-.2,1.15.4,1.51-.09,2.02-1.25.05-.12.11-.25.17-.38.09-.21.16-.43.21-.65,0-.03.02-.06.02-.09,0-.03.01-.05.02-.08.46-2.04.09-4.51.46-8.51.3-3.21,1.09-1.07,2.36-2.29.85.37,2.26-.35,2.07-1.57,0-.06-.02-.11-.03-.14-.57-1.52-.48-.17.36.02.63.14,1.73-.57,1.94-1.56.02-.1.03-.21,0-.33-.69-3.2-.79-6.08-1.17-8.97-.34-2.5-.93-5.53-.88-7.63,0-.15.01-.3.02-.44.03-1.25.08-2.54.09-3.91.01-1.77-.12-4.02.06-6,.04-.4.07-.78.15-1.13.01-.07.04-.15.05-.23.02-.06.03-.12.05-.18.26-1.06.59-2.18,1-3.36,1.06-3.01,2.29-5.92,3.68-9.24.05,0,.1,0,.15,0,.11-.02.21,0,.32.04.14-.02.27,0,.41.03.12.02.25.02.38.03-.74,3.78-1.31,7.96-1.6,12.61-.2,3.3-.27,6.84-.15,10.65.04,1.17.09,2.36.16,3.58.17,2.97.57,6.36,1.2,10.05,2.04,11.97,8.39,31.25,11.79,43.19.8,2.81,1.53,5.42,2.15,7.78,6.3,23.63,10.1,38.88,11.12,48.62.22,2.19.36,4.13.41,5.87.28,9.29-.83,13.58-2.01,19.45-.32,1.58-.62,3.17-.89,4.85-2.15,13.52-.39,25.41,2.58,36.38.3,1.1.6,2.19.92,3.25,6.04,20.65,12.23,30.4,13.13,41.47.05.56.04,1.08,0,1.59-.14,2.24-1.48,3.55-.85,6.39.09.4.2.82.35,1.26.52,1.68,1.16,3.45.03,6.95-.1.31-.21.63-.33.95-5.15,14.11-11.72,17.87-10.93,23.1.88,5.86,19.55,5.5,26.85,4.18,6.01-1.09,5.93-10.07,4.2-20.34-.35-2.08-.52-4.4-.39-7.96.06-1.76.51-3.81.75-6.28.22-2.28-.41-4.69-.75-6.6-.26-1.44-.53-2.6-.57-3.21-1.54-22.39-1.12-27.75,1.55-48.79,2.7-21.27-1.08-25.08-.61-38.08.29-7.71,2.5-15.58,3.09-23.93.75-10.46-.28-20.35-1.33-27.79-2.89-20.57-2.88-23.89-3.81-40.15-1.02-17.66,4.34-26.32,1.28-41.55.71.27,2.45.37,4.17.38,1.72,0,3.46-.11,4.17-.38-3.06,15.23,2.3,23.89,1.29,41.55-.94,16.26-.92,19.58-3.82,40.15-1.05,7.44-2.08,17.33-1.33,27.79.59,8.35,2.81,16.22,3.09,23.93.47,13-3.31,16.81-.61,38.08,2.67,21.04,3.28,26.42,1.56,48.79-.05.61-.31,1.77-.57,3.21-.34,1.91-.98,4.32-.76,6.6.24,2.47.69,4.52.76,6.28.13,3.56-.05,5.88-.4,7.96-1.73,10.27-1.81,19.25,4.2,20.34,7.31,1.32,25.97,1.68,26.85-4.18.79-5.29-5.93-9.08-11.1-23.56-1.53-4.29-.53-6.12.07-8.05,1.14-3.69-.93-4.91-.76-7.83.67-11.69,7.32-21.6,13.66-43.88,3.43-12.06,5.54-25.21,2.65-40.42-1.48-7.83-3.15-11.87-2.43-24.8.56-10.01,4.86-27.03,12.46-55.42,3.42-12.77,12.58-39.51,13.81-52.03.5-5.05.69-9.68.66-13.96-.09-9.51-1.34-17.2-3.01-23.64,1.28,3.19,2.5,6.02,3.98,9.37,1.09,2.46,2.04,4.7,2.8,6.76,1.05,2.84,1.75,5.33,1.92,7.52.01.1.03.21.04.32,0,.08.01.16.01.23,0,.33-.06.73-.16,1.17-.4,1.8-1.45,4.33-1.9,6.06-1.75,6.81,1.79,12.51-2.25,21.41-.05.12-.06.22-.02.31.25.63,2.46.53,3.85-1.12,1.93-2.29,2.54-8.39,2.64-7.71,0,.03,0,.06.01.11.08,1.52.19,2.82.32,3.96.54,4.77,1.45,6.96,2.06,12.16.47,4.06-.61,6.55-.14,8.38,0,.03.01.06.02.09,0,.03.02.06.03.1.07.22.17.44.29.64.09.14.17.26.25.36.76,1.05,1.21.73,3.27-1.62.54-.61,1-1.21,1.42-1.78.85-1.14,1.53-2.19,2.21-3.1,1.05-1.39,1.83-2.77,2.38-4.55.23-.76.42-1.58.56-2.51.16-1.06.26-2.26.31-3.64.13-4.11-.4-7.24-1.76-13.22-.52-2.29-1.09-3.7-1.8-8.89-.11-.78-.22-1.64-.33-2.6-.06-.53-.11-1-.14-1.43-.12-1.43-.13-2.39-.13-3.14,0-.42,0-.78-.03-1.11,0-.11-.01-.21-.02-.32-.09-.83-.26-1.51-.47-2.16-.57-1.77-1.46-3.41-2.01-7.6-1.46-10.89-2.42-18.98-3.78-30.34-.09-.71-.17-1.43-.26-2.16-.11-.88-.21-1.79-.33-2.71-.1-.8-.19-1.62-.29-2.46-1.13-9.39-4.87-21.21-8.86-34.19-.19-.63-.39-1.26-.58-1.89-.05-.17-.11-.39-.16-.64-.07-.3-.14-.8-.22-1.43-.43-3.43-1.04-10.8-1.31-15.08-.4-6.56-4.14-65.81-6.77-76.45-.1-.39-.19-.75-.29-1.07-1.73-5.83-3.41-8.53-5.03-9.64,0,0,0,0,0,0-.17-.16-.6-.42-1.07-.67,0,0,0,0,0,0-.21-.12-.74-.42-1.25-.68-.03-.01-.05-.02-.08-.04-.38-.19-.77-.37-1.13-.51-.17-.07-.35-.14-.53-.21-.26-.1-.53-.19-.79-.28-.2-.07-.4-.13-.6-.19-.43-.13-.88-.26-1.33-.38-.12-.03-.24-.06-.36-.09-.83-.21-1.69-.39-2.57-.58-.36-.08-.71-.15-1.07-.23-2.21-.49-4.47-1.24-6.68-2.04-.3-.11-.61-.22-.91-.33-.68-.25-1.35-.51-2.02-.76-5.34-2.05-9.74-4.61-12.38-11.01-1.11-2.7-1.57-10.21-1.75-15.34,2.54-2.35,4.51-5.38,5.74-10.41.22-.9.48-1.97.74-3.12.69.24,1.26.16,1.73-.12,1.4-.85,1.91-3.49,2.29-4.42.56-1.36,1.31-1.49,2.07-4.5.5-2-.37-3.32-.01-4.61.24-.87.36-3.32-.75-4.16-.1-.07-.22-.12-.34-.15-.02-.03-.04-.06-.06-.09,1.63-6.28,2.67-16.47-.76-24.28-1.48-3.39-3.32-6.12-5.25-8.29-4.57-5.57-12.1-9.22-20.63-9.22-2.54,0-4.99.33-7.31.93-5.45,1.42-10.12,4.38-13.33,8.29-1.93,2.16-3.77,4.9-5.25,8.29-3.44,7.84-2.38,18.08-.74,24.34-.15.04-.3.09-.41.18,0,0,0,0,0,0,0,0,0,0,0,0,0,0,0,0,0,0-1.1.84-.98,3.29-.74,4.16.35,1.29-.52,2.6-.01,4.61.76,3,1.5,3.14,2.07,4.5.52,1.24,1.24,5.52,4.02,4.54.26,1.15.52,2.22.74,3.12,1.23,5.03,3.2,8.06,5.74,10.41-.18,5.13-.64,12.64-1.75,15.34-2.4,5.82-6.27,8.46-10.96,10.44-.36.15-.73.3-1.11.45-.21.08-.42.16-.63.24-2.86,1.1-5.86,2.2-8.8,2.9-.34.08-.68.16-1.01.23-.15.03-.29.06-.44.1-.08.02-.16.03-.24.05-.81.17-1.59.34-2.35.53-.13.03-.25.06-.38.09-.47.12-.92.25-1.37.38-.21.06-.42.13-.62.2-.27.09-.54.18-.8.28-.19.07-.37.14-.55.21Z"/>
  </g>
</svg>