<?xml version="1.0" encoding="UTF-8"?>
<svg id="_레이어_2" data-name="레이어 2" xmlns="http://www.w3.org/2000/svg" viewBox="0 0 169.5 571.92">
  <defs>
    <style>
      .cls-1 {
        fill: #f3a9aa;
        stroke: #231815;
        stroke-miterlimit: 10;
      }
    </style>
  </defs>
  <g id="_레이어_1-2" data-name="레이어 1">
    <path class="cls-1" d="m119,169.37c.05.27.11.59.18.93.2,1.05.46,2.41.73,3.76.39,1.97.78,3.93,1.01,4.9.56,2.38,1.17,4.84,1.82,7.33,1.07,4.17,2.22,8.42,3.29,12.47,1.44,5.48,2.72,10.6,3.48,14.68.03.16.06.32.09.47.15.83.28,1.63.37,2.36.2,1.54.92,12.31,4.52,25.92,0,.02,0,.03.01.05.01.04.02.08.03.12.83,3.12,1.81,6.38,2.96,9.71.03.1.07.19.1.29-5.19-10.53-6.52-11.79-10.76-19.98-3.07-7.06-5.56-13.15-6.71-18.94-3.93-15.53-3.49-31.71-1.47-42.54.12-.51.24-1.03.37-1.53Zm-68.72,0c.13.51.25,1.02.37,1.53,2.02,10.83,2.46,27.01-1.47,42.54-1.15,5.79-3.65,11.88-6.71,18.94-4.25,8.18-5.58,9.45-10.75,19.94.03-.08.06-.16.09-.25,1.16-3.33,2.13-6.59,2.96-9.71,0-.03.02-.07.03-.1,0-.02.01-.05.02-.07,3.6-13.61,4.32-24.37,4.51-25.91.11-.84.26-1.75.44-2.72.03-.14.05-.28.08-.43.76-4.08,2.05-9.16,3.47-14.58,1.02-3.89,2.12-7.95,3.15-11.94.67-2.6,1.32-5.17,1.89-7.64.23-.97.62-2.93,1.01-4.91.27-1.35.53-2.71.73-3.76.07-.34.13-.65.18-.92Zm-12.19-63.92c-.78.34-1.99,1.05-2.08,1.09,0,0-.01.01-.02.02-.71.34-1.57.98-2.07,1.64,0,0,0,0,0,0-1.31,1.41-2.66,4.01-4.05,8.62-.19.63-.39,1.44-.58,2.41-2.64,13.16-6.11,68.82-6.5,75.17-.27,4.41-.91,12.1-1.34,15.39-.09.69-.18,1.19-.25,1.43s-.14.44-.2.66c-.16.52-.32,1.04-.48,1.56-3.99,12.98-7.73,24.8-8.86,34.19-.1.83-.19,1.64-.29,2.44-.11.93-.22,1.84-.33,2.73-.09.74-.18,1.46-.26,2.17-1.36,11.36-2.32,19.45-3.78,30.34-.67,5.07-1.74,6.24-2.23,8.86-.12.63-.26,1.2-.28,1.98s-.02,1.77-.21,3.5c-.04.37-.07.74-.11,1.11-.11,1.09-.22,2.11-.36,3.14-.07.5-.14.97-.21,1.42-.39,2.37-.76,3.51-1.08,5.02-.85,4.08-1.34,6.41-1.66,8.81-.2,1.53-.33,2.95-.35,4.45-.06,4.93.69,7.51,2.23,10.22.77,1.37,1.55,2.94,2.81,4.56,1.7,2.19,1.89,2.35,2.77,1.57.63-.57.62-1.25.75-2.51.07-.69.19-1.49.56-2.47.17-.45.31-.89.58-1.2.59-.69,1.01-1.47,1.4-2.68.04-.13.08-.26.12-.39.07-.21.12-.43.17-.65,0-.03.01-.05.02-.08,0-.02.01-.05.02-.07.46-2.15.45-4.6.76-8.59.17-2.21.87,2.1,2.5,2.68,1.22,1.12,3.26.7,2.95-.38-.02-.06-.03-.11-.05-.15-.93-2.19-1.19-2.67-.78-3.87.25-.71.84-1.73.99-2.91.01-.11.02-.22.01-.33-.25-3.11-.17-5.97-.75-8.95-.46-2.35-1.54-5.61-1.47-7.49,0-.15.02-.3.04-.44.06-1.22.21-2.5.4-3.86.25-1.77.55-3.86,1.05-5.92.09-.37.18-.75.29-1.1.02-.07.05-.14.07-.22.02-.06.04-.12.06-.18.34-1.04.74-2.13,1.19-3.27,1.27-3.18,2.49-6.04,3.83-9.29-.04.26-.09.53-.12.8-.06.48-.13,1-.18,1.55s-.09,1.15-.11,1.76c-.02.49-.03.99-.03,1.51-.61,3.78-1.05,7.93-1.22,12.54-.12,3.29-.1,6.79.1,10.55.06,1.16.14,2.34.23,3.54.22,2.83.73,6.21,1.48,9.91,2.58,12.79,8.87,31.74,11.92,42.72.75,2.73,1.46,5.31,2.1,7.71,6.31,23.74,10.01,38.79,10.77,48.19.17,2.17.27,4.1.29,5.83.14,8.94-1.1,13.03-2.31,19.23-.31,1.6-.59,3.19-.82,4.81-1.91,13.37-.02,25.14,2.99,36.01.31,1.1.61,2.17.93,3.22,6.04,20.36,12.16,29.98,12.92,41.07.04.57,0,1.08-.06,1.58-.27,2.09-1.52,3.43-.74,6.33.11.4.23.81.37,1.24.51,1.63,1.03,3.45-.15,6.9-.11.31-.22.62-.33.93-5.13,13.92-11.63,17.67-10.85,22.88.88,5.86,19.55,5.5,26.85,4.18,6.01-1.09,5.93-10.07,4.2-20.34-.35-2.08-.52-4.4-.39-7.96.06-1.76.51-3.81.75-6.28.22-2.28-.41-4.69-.75-6.6-.26-1.44-.53-2.6-.57-3.21-1.54-22.39-1.12-27.75,1.55-48.79,2.7-21.27-1.08-25.08-.61-38.08.29-7.71,2.5-15.58,3.09-23.93.75-10.46-.28-20.35-1.33-27.79-2.89-20.57-2.88-23.89-3.81-40.15-1.02-17.66,4.34-26.32,1.28-41.55.71.27,2.45.37,4.17.38,1.72,0,3.46-.11,4.17-.38-3.06,15.23,2.3,23.89,1.29,41.55-.94,16.26-.92,19.58-3.82,40.15-1.05,7.44-2.08,17.33-1.33,27.79.59,8.35,2.81,16.22,3.09,23.93.47,13-3.31,16.81-.61,38.08,2.67,21.04,3.28,26.42,1.56,48.79-.05.61-.31,1.77-.57,3.21-.34,1.91-.98,4.32-.76,6.6.24,2.47.69,4.52.76,6.28.13,3.56-.05,5.88-.4,7.96-1.73,10.27-1.81,19.25,4.2,20.34,7.31,1.32,25.97,1.68,26.85-4.18.79-5.29-5.93-9.08-11.1-23.56-1.53-4.29-.53-6.12.07-8.05,1.14-3.69-.93-4.91-.76-7.83.67-11.69,7.32-21.6,13.66-43.88,3.43-12.06,5.54-25.21,2.65-40.42-1.48-7.83-3.15-11.87-2.43-24.8.56-10.01,4.86-27.03,12.46-55.42,3.42-12.77,12.58-39.51,13.81-52.03.5-5.05.69-9.68.66-13.96-.09-9.51-1.34-17.2-3.02-23.65,1.28,3.2,2.5,6.02,3.99,9.38,1.09,2.46,2.04,4.7,2.8,6.76,1.05,2.84,1.75,5.33,1.92,7.52.02.12.03.25.04.38,0,.07,0,.15,0,.23,0,.33-.07.73-.17,1.16-.41,1.8-1.45,4.3-1.89,6.01-1.75,6.81,1.79,12.51-2.25,21.41-.05.11-.06.22-.03.3.23.64,2.46.54,3.86-1.11,1.97-2.33,2.57-8.62,2.64-7.68,0,.03,0,.06,0,.1.08,1.52.19,2.82.32,3.97.54,4.75,1.45,6.94,2.06,12.13.48,4.07-.61,6.56-.14,8.39,0,.03.01.06.02.09,0,.03.02.06.03.1.07.22.17.43.29.63.09.14.17.26.24.36.76,1.05,1.21.73,3.27-1.62.54-.61,1-1.21,1.43-1.79.85-1.14,1.53-2.19,2.21-3.1,1.04-1.38,1.83-2.76,2.38-4.54.23-.75.41-1.58.55-2.5.16-1.07.26-2.27.31-3.65.13-4.11-.4-7.24-1.76-13.22-.52-2.29-1.09-3.7-1.8-8.89-.11-.78-.22-1.64-.33-2.61-.06-.53-.11-1.01-.14-1.44-.12-1.43-.13-2.38-.13-3.12,0-.43,0-.78-.02-1.12,0-.1-.01-.21-.02-.31-.09-.83-.26-1.5-.47-2.16-.57-1.77-1.46-3.42-2.01-7.6-1.46-10.89-2.42-18.98-3.78-30.34-.09-.7-.17-1.42-.26-2.15-.11-.88-.21-1.78-.32-2.71-.1-.8-.19-1.63-.29-2.47-1.13-9.39-4.87-21.21-8.86-34.19-.21-.69-.42-1.37-.63-2.05-.05-.15-.09-.37-.15-.63-.06-.33-.13-.82-.21-1.42-.43-3.49-1.03-10.71-1.29-14.93-.4-6.51-4.08-64.83-6.7-76.19-.09-.4-.18-.75-.28-1.06-1.67-5.71-3.29-8.49-4.85-9.73,0,0,0,0,0,0-.26-.23-.64-.48-1.05-.69,0,0,0,0,0,0-.11-.06-.65-.38-1.24-.69-.03-.01-.05-.03-.08-.04-.38-.2-.77-.39-1.11-.54-.17-.07-.34-.14-.52-.21-.26-.1-.52-.2-.79-.29-.19-.07-.39-.13-.59-.2-.43-.14-.88-.27-1.33-.39-.12-.03-.24-.06-.36-.09-.87-.23-1.77-.42-2.7-.62-.42-.09-.84-.18-1.28-.28-2.21-.49-4.47-1.24-6.68-2.04-.3-.11-.61-.22-.91-.33-.68-.25-1.35-.51-2.01-.76-5.34-2.05-9.74-4.61-12.38-11.01-1.11-2.7-1.57-10.21-1.75-15.34,2.54-2.35,4.51-5.38,5.74-10.41.22-.9.48-1.97.74-3.12.7.24,1.26.16,1.73-.12,1.4-.85,1.9-3.49,2.29-4.42.56-1.36,1.31-1.49,2.07-4.5.5-2-.37-3.32-.01-4.61.24-.87.36-3.32-.75-4.16-.11-.08-.24-.13-.38-.17,0-.04,0-.07-.02-.11,1.63-6.28,2.66-16.45-.77-24.25-1.48-3.39-3.32-6.12-5.25-8.29-4.57-5.57-12.1-9.22-20.63-9.22-2.55,0-5.01.33-7.33.93-5.44,1.42-10.1,4.38-13.31,8.29-1.93,2.17-3.77,4.9-5.25,8.29-3.44,7.84-2.38,18.08-.74,24.35-.15.04-.3.09-.42.18,0,0,0,0,0,0,0,0,0,0,0,0,0,0,0,0,0,0-1.1.85-.98,3.29-.74,4.15.36,1.29-.52,2.61-.01,4.61.76,3.01,1.51,3.14,2.07,4.5.52,1.24,1.24,5.52,4.02,4.54.26,1.15.52,2.22.74,3.12,1.23,5.03,3.2,8.06,5.74,10.41-.18,5.13-.64,12.64-1.75,15.34-2.43,5.88-6.34,8.52-11.1,10.5-.37.15-.74.3-1.12.45-.21.08-.42.16-.63.24-2.89,1.11-5.92,2.22-8.89,2.9-.35.08-.69.15-1.03.23-.15.03-.3.07-.44.1-.08.02-.16.03-.24.05-.81.17-1.61.35-2.37.55-.13.03-.26.07-.39.1-.47.13-.94.26-1.39.4-.21.07-.42.14-.62.21-.27.09-.53.19-.79.29-.18.07-.37.14-.54.22Z"/>
  </g>
</svg>