<?xml version="1.0" encoding="UTF-8"?>
<svg id="_레이어_2" data-name="레이어 2" xmlns="http://www.w3.org/2000/svg" viewBox="0 0 169.72 571.92">
  <defs>
    <style>
      .cls-1 {
        fill: #f3a9aa;
        stroke: #231815;
        stroke-miterlimit: 10;
      }
    </style>
  </defs>
  <g id="_레이어_1-2" data-name="레이어 1">
    <path class="cls-1" d="m127.07,232.44c-.68-5.89-1.49-12.42-2.34-18.98-2.4-18.44-5.08-37.12-5.86-42.53.12-.51.23-1.04.36-1.54.05.28.11.6.18.95.2,1.06.47,2.42.73,3.77.39,1.96.78,3.9,1,4.86.56,2.38,1.17,4.84,1.82,7.34,1.07,4.16,2.22,8.4,3.28,12.45,1.44,5.48,2.73,10.61,3.48,14.69.03.16.05.3.08.45.15.84.28,1.65.37,2.38.2,1.55.92,12.32,4.52,25.93,0,.02,0,.03.01.05.01.04.02.08.03.12.83,3.11,1.8,6.37,2.96,9.7.03.1.07.19.1.29-5.17-10.5-6.51-11.79-10.73-19.92Zm-95.13,19.88c.03-.08.06-.16.09-.25,1.16-3.33,2.13-6.59,2.96-9.7.01-.04.02-.08.03-.12,0-.02,0-.03.01-.05,3.6-13.61,4.32-24.38,4.52-25.93.09-.73.23-1.54.38-2.38.03-.15.05-.29.08-.45.75-4.09,2.04-9.21,3.48-14.69,1.03-3.91,2.13-8,3.17-12.02.68-2.64,1.34-5.25,1.93-7.76.22-.97.62-2.92,1.01-4.89.27-1.34.53-2.69.73-3.74.07-.35.13-.67.18-.95.13.51.24,1.04.36,1.54-.78,5.41-3.46,24.09-5.86,42.53-.85,6.56-1.66,13.09-2.34,18.99-4.22,8.12-5.56,9.41-10.72,19.88Zm133.71,51.33c-.1-.77-.21-1.63-.32-2.59-.06-.52-.11-.98-.14-1.41-.12-1.45-.13-2.41-.13-3.17,0-.42,0-.76-.03-1.09,0-.11,0-.22-.02-.33-.09-.84-.26-1.51-.48-2.18-.57-1.76-1.45-3.41-2.01-7.58-1.46-10.89-2.42-18.98-3.78-30.34-.09-.71-.17-1.44-.26-2.17-.11-.89-.21-1.79-.33-2.72-.09-.79-.19-1.6-.29-2.43-1.13-9.39-4.9-21.2-8.86-34.19-.16-.52-.32-1.04-.48-1.56-.07-.22-.13-.44-.2-.66-.07-.23-.16-.75-.25-1.45-.44-3.3-1.07-10.97-1.34-15.38-.41-6.67-4.26-67.76-6.9-76.98-1.97-6.87-3.88-9.63-5.71-10.54h0s-1.49-.9-2.39-1.31c-.03-.01-.05-.02-.08-.03-.38-.17-.77-.32-1.17-.47-.18-.07-.37-.13-.56-.19-.26-.09-.53-.17-.8-.25-.2-.06-.41-.12-.62-.18-.44-.12-.88-.24-1.33-.35-.12-.03-.24-.06-.36-.08-.75-.18-1.52-.34-2.31-.51-.22-.05-.43-.09-.66-.14-2.21-.5-4.47-1.24-6.68-2.05-.3-.11-.6-.22-.91-.33-.68-.25-1.35-.51-2.02-.76-5.34-2.05-9.74-4.61-12.38-11.01-1.11-2.7-1.57-10.21-1.75-15.34,2.54-2.35,4.51-5.38,5.74-10.41.22-.9.48-1.97.74-3.12.69.24,1.26.16,1.72-.12,1.4-.85,1.91-3.49,2.3-4.42.56-1.36,1.32-1.49,2.07-4.5.51-2-.37-3.32-.01-4.61.24-.87.36-3.32-.75-4.16-.08-.06-.17-.09-.26-.13-.05-.02-.1-.04-.16-.06,1.64-6.27,2.7-16.51-.74-24.34-1.48-3.39-3.32-6.12-5.25-8.29-4.57-5.57-12.1-9.22-20.63-9.22-2.53,0-4.96.33-7.27.92-5.47,1.41-10.15,4.37-13.37,8.3-1.93,2.16-3.77,4.9-5.25,8.29-3.44,7.84-2.38,18.08-.74,24.34-.16.05-.29.1-.41.18,0,0,0,0,0,0h0s0,0,0,0c-1.11.84-.99,3.29-.75,4.16.35,1.29-.52,2.6,0,4.61.75,3,1.51,3.13,2.07,4.5.52,1.24,1.24,5.52,4.02,4.54.26,1.14.52,2.22.74,3.12,1.23,5.03,3.2,8.06,5.74,10.41-.18,5.13-.64,12.64-1.75,15.34-2.35,5.71-6.12,8.36-10.68,10.32-.55.24-1.12.47-1.7.69-3.11,1.2-6.41,2.41-9.61,3.14-.22.05-.44.09-.66.14-.79.16-1.56.33-2.31.51-.12.03-.24.06-.36.08-.45.11-.9.23-1.33.35-.21.06-.41.12-.62.18-.27.08-.54.17-.8.25-.19.06-.38.13-.56.19-.4.15-.79.3-1.17.47-.03.01-.06.02-.08.03-.9.41-2.39,1.3-2.39,1.3h0c-1.83.92-3.74,3.68-5.71,10.55-2.64,9.22-6.49,70.31-6.9,76.98-.27,4.41-.91,12.08-1.34,15.38-.09.7-.18,1.21-.25,1.45-.06.22-.13.44-.2.66-.16.52-.32,1.04-.48,1.56-3.96,12.99-7.73,24.8-8.86,34.19-.1.83-.19,1.64-.29,2.43-.11.93-.22,1.84-.33,2.72-.09.74-.18,1.46-.26,2.17-1.36,11.36-2.32,19.45-3.78,30.34-.41,3.06-.99,4.76-1.5,6.15-.45,1.22-.83,2.19-.99,3.61-.01.11-.01.22-.02.33-.02.33-.03.68-.03,1.09,0,.75,0,1.72-.13,3.17-.04.43-.08.89-.14,1.41-.11.96-.22,1.81-.32,2.59-.71,5.2-1.28,6.61-1.8,8.9-1.36,5.98-1.89,9.11-1.76,13.22.05,1.36.15,2.55.3,3.6.14.93.32,1.75.55,2.5.54,1.81,1.34,3.2,2.39,4.6.68.9,1.37,1.95,2.21,3.08.43.58.89,1.18,1.43,1.8,2.06,2.36,2.51,2.67,3.27,1.62.08-.11.16-.23.25-.37.13-.21.22-.43.3-.65.01-.03.02-.06.03-.1,0-.03.01-.06.02-.09.46-1.83-.61-4.31-.13-8.37.61-5.22,1.52-7.4,2.06-12.21.13-1.15.24-2.44.31-3.96,0-.07,0-.11.02-.13.13-.17.77,5.58,2.63,7.78,1.38,1.63,3.58,1.75,3.85,1.13.04-.09.05-.2-.01-.33-4.04-8.9-.5-14.6-2.25-21.41-.46-1.76-1.53-4.34-1.92-6.15-.09-.45-.15-.86-.14-1.19,0-.08.01-.16.02-.24,0-.07.01-.14.02-.2.26-3.42,1.81-7.57,4.01-12.66.23-.53.46-1.06.7-1.61.46-1.04.89-2.03,1.31-2.99.51-1.17.99-2.3,1.47-3.44.4-.95.8-1.92,1.2-2.92-1.66,6.44-2.91,14.11-3,23.6-.04,4.28.15,8.91.65,13.96,1.24,12.52,10.39,39.26,13.81,52.03,7.6,28.39,11.9,45.41,12.46,55.42.72,12.93-.94,16.97-2.43,24.8-2.89,15.21-.78,28.36,2.65,40.42,6.34,22.28,12.99,32.19,13.66,43.88.17,2.92-1.91,4.14-.76,7.83.59,1.93,1.6,3.76.07,8.05-5.17,14.48-11.89,18.27-11.1,23.56.88,5.86,19.55,5.5,26.85,4.18,6.01-1.09,5.93-10.07,4.2-20.34-.35-2.08-.53-4.4-.39-7.96.06-1.76.51-3.81.75-6.28.22-2.28-.41-4.69-.75-6.6-.26-1.44-.53-2.6-.57-3.21-1.62-22.38-1.12-27.75,1.55-48.79,2.7-21.27-1.08-25.08-.61-38.08.29-7.71,2.5-15.58,3.09-23.93.75-10.46-.28-20.35-1.33-27.79-2.89-20.57-2.88-23.89-3.81-40.15-1.02-17.66,4.34-26.32,1.28-41.55.71.27,2.45.37,4.17.38,1.72.01,3.46-.11,4.17-.38-3.06,15.23,2.3,23.89,1.29,41.55-.94,16.26-.92,19.58-3.82,40.15-1.05,7.44-2.08,17.33-1.33,27.79.59,8.35,2.81,16.22,3.09,23.93.47,13-3.31,16.81-.61,38.08,2.67,21.04,3.17,26.41,1.56,48.79-.05.61-.31,1.77-.57,3.21-.34,1.91-.98,4.32-.76,6.6.24,2.47.69,4.52.76,6.28.13,3.56-.05,5.88-.4,7.96-1.73,10.27-1.81,19.25,4.2,20.34,7.31,1.32,25.97,1.68,26.85-4.18.79-5.29-5.93-9.08-11.1-23.56-1.53-4.29-.52-6.12.07-8.05,1.15-3.69-.93-4.91-.76-7.83.67-11.69,7.32-21.6,13.66-43.88,3.43-12.06,5.54-25.21,2.65-40.42-1.48-7.83-3.15-11.87-2.43-24.8.56-10.01,4.86-27.03,12.46-55.42,3.42-12.77,12.58-39.51,13.81-52.03.5-5.05.69-9.68.66-13.96-.09-9.51-1.34-17.19-3.01-23.63,1.28,3.19,2.5,6.01,3.98,9.37,1.09,2.46,2.04,4.69,2.8,6.76,1.05,2.84,1.75,5.33,1.92,7.52,0,.06.01.13.02.2.01.08.02.17.02.24.02.33-.05.74-.14,1.19-.38,1.81-1.46,4.39-1.92,6.15-1.75,6.81,1.79,12.51-2.25,21.41-.06.13-.06.24-.01.33.27.62,2.46.5,3.85-1.13,1.86-2.2,2.5-7.95,2.63-7.78,0,.02.01.06.02.13.08,1.52.19,2.81.31,3.96.54,4.81,1.45,7,2.06,12.21.47,4.05-.6,6.54-.13,8.37,0,.03.01.06.02.09,0,.03.02.06.03.1.07.23.17.44.3.65.09.14.17.26.25.37.75,1.05,1.21.73,3.27-1.62.53-.61.99-1.21,1.41-1.78.85-1.14,1.54-2.2,2.22-3.1,1.05-1.39,1.84-2.77,2.38-4.56.23-.76.42-1.59.56-2.53.16-1.05.26-2.24.3-3.6.13-4.11-.4-7.24-1.76-13.22-.52-2.29-1.09-3.7-1.8-8.9Z"/>
  </g>
</svg>