<?xml version="1.0" encoding="UTF-8"?>
<svg id="_레이어_2" data-name="레이어 2" xmlns="http://www.w3.org/2000/svg" viewBox="0 0 169.72 571.6">
  <defs>
    <style>
      .cls-1 {
        fill: #f3a9aa;
        stroke: #231815;
        stroke-miterlimit: 10;
      }
    </style>
  </defs>
  <g id="_레이어_1-2" data-name="레이어 1">
    <path class="cls-1" d="m167.44,312.56c-.5-2.21-1.05-3.61-1.73-8.38-.13-.91-.26-1.93-.4-3.11-.08-.69-.14-1.29-.18-1.82-.09-1.22-.1-2.07-.1-2.75,0-.41,0-.75-.03-1.08,0-.12,0-.24-.02-.35-.11-1-.33-1.78-.61-2.58-.57-1.63-1.36-3.33-1.87-7.18-1.46-10.89-2.42-18.98-3.78-30.34-.07-.58-.14-1.17-.22-1.77-.14-1.18-.28-2.38-.44-3.64-.08-.63-.15-1.27-.23-1.93-1.13-9.39-4.9-21.2-8.86-34.19-.14-.46-.29-.93-.43-1.39-.08-.28-.17-.55-.25-.83-.08-.27-.18-.91-.3-1.78-.44-3.46-1.04-10.77-1.3-15.04-.41-6.67-4.26-67.76-6.9-76.98-1.97-6.87-3.88-9.63-5.71-10.54h0s-.39-.24-.88-.52c-.48-.27-1.06-.59-1.5-.79-.42-.19-.86-.36-1.31-.52-.13-.05-.27-.09-.4-.14-.34-.12-.69-.23-1.04-.33-.13-.04-.26-.08-.39-.12-.49-.14-1-.27-1.52-.39,0,0,0,0,0,0-.91-.22-1.85-.42-2.82-.62-.14-.03-.27-.06-.41-.09-1.59-.36-3.2-.84-4.8-1.38-.16-.06-.33-.12-.5-.18-.2-.07-.4-.14-.59-.21-.67-.24-1.36-.49-2.06-.75-.55-.21-1.11-.41-1.65-.62-1.08-.41-2.12-.85-3.11-1.34-2.87-1.4-5.37-3.2-7.33-6.07-.72-1.05-1.37-2.24-1.94-3.61-1.11-2.7-1.57-10.21-1.75-15.34,2.54-2.35,4.51-5.38,5.74-10.41.22-.9.48-1.97.74-3.12.17.06.34.1.5.12,2.37.33,3.04-3.5,3.52-4.66.56-1.36,1.32-1.49,2.07-4.5.51-2-.37-3.32-.01-4.61.24-.87.36-3.32-.75-4.16-.05-.04-.11-.07-.17-.09-.08-.04-.16-.07-.25-.09,1.64-6.27,2.7-16.51-.74-24.34-1.48-3.39-3.32-6.12-5.25-8.29-1.13-1.38-2.45-2.64-3.91-3.76-3.28-2.5-7.32-4.28-11.79-5.04-.08-.01-.17-.03-.25-.05-.22-.03-.44-.06-.66-.09-.29-.04-.58-.09-.88-.12-.04,0-.09,0-.13-.01-.99-.1-1.99-.16-3.01-.16h0c-8.53,0-16.06,3.64-20.63,9.22-1.93,2.16-3.77,4.9-5.25,8.29-3.44,7.84-2.38,18.08-.74,24.34-.16.05-.3.1-.42.19-1.11.84-.99,3.29-.75,4.16.35,1.29-.52,2.6-.01,4.61.75,3,1.51,3.13,2.07,4.5.46,1.09,1.06,4.5,3.07,4.68.29.03.6-.01.95-.14.26,1.14.52,2.22.74,3.12,1.23,5.03,3.2,8.06,5.74,10.41-.18,5.13-.64,12.64-1.75,15.34-2.64,6.4-7.05,8.96-12.38,11.01-.04.01-.07.03-.11.04-3.08,1.19-6.34,2.38-9.5,3.1-.14.03-.27.06-.41.09-.96.2-1.91.4-2.82.62,0,0,0,0,0,0-.52.12-1.02.26-1.52.39-.13.04-.26.08-.39.12-.36.11-.7.22-1.05.33-.14.05-.27.09-.4.14-.45.16-.89.33-1.31.52-.44.2-1.03.52-1.5.79-.5.28-.88.51-.88.51h0c-1.83.92-3.74,3.68-5.71,10.55-2.64,9.22-6.49,70.31-6.9,76.98-.26,4.26-.86,11.58-1.3,15.04-.11.87-.21,1.51-.3,1.78-.08.28-.17.55-.25.83-.14.46-.28.93-.43,1.39-3.96,12.99-7.73,24.8-8.86,34.19-.08.65-.15,1.3-.23,1.93-.15,1.25-.3,2.46-.44,3.64-.07.6-.14,1.19-.21,1.77-1.36,11.36-2.32,19.45-3.78,30.34-.26,1.97-.6,3.38-.94,4.5-.66,2.15-1.33,3.26-1.55,5.26-.01.12-.01.24-.02.36-.02.32-.03.66-.03,1.07,0,.68,0,1.53-.1,2.75-.04.53-.1,1.13-.18,1.82-.14,1.18-.27,2.2-.4,3.11-.68,4.77-1.22,6.17-1.73,8.38-1.36,5.98-1.89,9.11-1.76,13.22.18,5.45,1.25,8.06,3.24,10.7.8,1.06,1.61,2.33,2.68,3.7.3.39.61.78.96,1.18,1.86,2.13,2.41,2.59,3.06,1.89.14-.15.29-.36.46-.63.2-.32.32-.66.39-1.03.35-1.81-.63-4.27-.18-8.18.56-4.85,1.4-7.08,1.94-11.22.18-1.38.33-2.97.43-4.95,0-.07,0-.11.02-.13.13-.15.77,5.58,2.63,7.78,1.29,1.53,3.3,1.73,3.77,1.24.11-.11.14-.26.06-.44-4.04-8.9-.5-14.6-2.25-21.41-.45-1.72-1.48-4.22-1.89-6.02-.11-.5-.18-.96-.17-1.32,0-.07.01-.15.02-.23,0-.07.01-.15.02-.21.29-3.78,2.14-8.44,4.72-14.29.13-.28.24-.55.36-.83.11-.25.22-.51.33-.76.18-.4.35-.8.52-1.19.12-.28.24-.55.36-.82.2-.47.41-.94.6-1.4.16-.39.33-.77.49-1.16.09-.21.18-.43.27-.64.25-.6.5-1.22.76-1.84.02-.05.04-.09.06-.14,0,0,0,0,0,0,.12-.29.24-.58.36-.88-.12.3-.24.6-.36.89-1.55,6.25-2.69,13.67-2.77,22.72-.04,4.28.15,8.91.65,13.97,1.24,12.52,10.39,39.26,13.81,52.03,7.6,28.38,11.9,45.41,12.46,55.42.72,12.92-.94,16.97-2.43,24.79-2.89,15.21-.78,28.37,2.65,40.42,6.34,22.28,12.99,32.19,13.66,43.89.17,2.91-1.91,4.14-.76,7.83.59,1.92,1.6,3.76.07,8.04-5.17,14.48-11.89,18.28-11.1,23.57.88,5.86,19.55,5.49,26.85,4.17,6.01-1.09,5.93-10.06,4.2-20.34-.35-2.07-.53-4.4-.39-7.96.06-1.75.51-3.8.75-6.28.22-2.28-.41-4.68-.75-6.59-.26-1.45-.53-2.61-.57-3.21-1.62-22.39-1.12-27.76,1.55-48.8,2.7-21.26-1.08-25.08-.61-38.08.29-7.7,2.5-15.58,3.09-23.92.75-10.47-.28-20.35-1.33-27.79-2.89-20.57-2.88-23.89-3.81-40.16-1.02-17.66,4.34-26.31,1.28-41.54.71.26,2.45.36,4.17.37h0c1.72,0,3.46-.11,4.17-.37-3.06,15.23,2.3,23.88,1.28,41.54-.93,16.27-.92,19.59-3.81,40.16-1.05,7.44-2.08,17.32-1.33,27.79.59,8.34,2.8,16.22,3.09,23.92.47,13-3.31,16.82-.61,38.08,2.67,21.04,3.17,26.41,1.55,48.8-.04.6-.31,1.76-.57,3.21-.34,1.91-.97,4.31-.75,6.59.24,2.48.69,4.53.75,6.28.14,3.56-.04,5.89-.39,7.96-1.73,10.28-1.81,19.25,4.2,20.34,7.3,1.32,25.97,1.69,26.85-4.17.79-5.29-5.93-9.09-11.1-23.57-1.53-4.28-.52-6.12.07-8.04,1.15-3.69-.93-4.92-.76-7.83.67-11.7,7.32-21.61,13.66-43.89,3.43-12.05,5.54-25.21,2.65-40.42-1.49-7.82-3.15-11.87-2.43-24.79.56-10.01,4.86-27.04,12.46-55.42,3.42-12.77,12.57-39.51,13.81-52.03.5-5.06.69-9.69.65-13.97-.08-9.05-1.22-16.46-2.77-22.71,1.19,2.95,2.35,5.62,3.74,8.77.89,2,1.68,3.86,2.36,5.6,1.3,3.33,2.17,6.2,2.36,8.68,0,.07.02.14.02.21,0,.08.02.15.02.23.02.36-.05.82-.17,1.32-.4,1.8-1.44,4.3-1.89,6.02-1.75,6.81,1.79,12.51-2.25,21.41-.08.18-.05.32.06.44.47.49,2.48.29,3.77-1.24,1.86-2.2,2.5-7.93,2.63-7.78,0,.02.01.06.02.13.1,1.97.25,3.57.43,4.95.55,4.15,1.38,6.38,1.94,11.22.46,3.92-.53,6.37-.18,8.18.07.36.19.71.39,1.03.17.26.31.47.46.63.65.71,1.2.25,3.06-1.89.34-.4.65-.78.94-1.16,1.08-1.38,1.88-2.65,2.69-3.72,1.99-2.64,3.06-5.25,3.24-10.7.13-4.11-.4-7.24-1.76-13.22Zm-134.8-62.31c-.2.61-.41,1.22-.62,1.83-.35,1.01-.69,1.97-1.01,2.89-.59,1.67-1.13,3.22-1.64,4.65.51-1.44,1.05-2.97,1.64-4.64.33-.93.66-1.89,1.01-2.9.21-.6.41-1.2.61-1.8,0-.01,0-.02.01-.03.72-2.18,1.36-4.31,1.94-6.39.02-.07.04-.14.06-.21.12-.44.24-.88.36-1.31.08-.3.16-.6.23-.9.05-.2.11-.4.16-.6.1-.39.19-.78.29-1.16.03-.1.05-.21.08-.31.1-.42.2-.84.3-1.25.02-.07.03-.14.05-.2.1-.44.2-.87.3-1.3,0-.04.02-.08.03-.12.1-.44.19-.88.29-1.32,0-.03.01-.05.02-.08.1-.45.19-.9.28-1.34,0,0,0,0,0,0,1.91-9.42,2.39-16.26,2.55-17.47.09-.69.21-1.46.35-2.25.04-.2.07-.38.1-.58,1.63-8.91,5.84-22.76,8.58-34.48.27-1.18.8-3.84,1.26-6.2.1-.5.19-.98.28-1.44.15-.76.28-1.43.38-1.95.13.51.24,1.04.36,1.54-.78,5.41-3.46,24.09-5.86,42.53-.57,4.39-1.12,8.77-1.63,12.95-.84,2.03-1.73,4.13-2.73,6.32-2.54,5.59-5.89,12.91-8,17.52Zm104.44,0c-2.1-4.61-5.46-11.92-8-17.52-1-2.19-1.89-4.29-2.73-6.32-.51-4.18-1.06-8.56-1.63-12.95-2.4-18.44-5.08-37.12-5.86-42.53.12-.51.23-1.04.36-1.54.1.52.23,1.19.38,1.95.09.46.18.94.28,1.44.46,2.36.99,5.01,1.26,6.2,2.74,11.72,6.95,25.57,8.58,34.48.04.2.07.39.1.59.14.79.26,1.55.35,2.24.16,1.21.63,8.05,2.55,17.47,0,0,0,0,0,0,.09.44.18.89.28,1.34,0,.03.01.05.02.08.09.43.19.87.29,1.32,0,.04.02.08.03.12.1.43.19.86.3,1.3.02.07.03.14.05.2.1.41.2.83.3,1.25.03.1.05.21.08.31.09.39.19.77.29,1.16.05.2.1.4.16.6.08.3.15.59.23.9.12.43.23.87.36,1.31.02.07.04.14.06.21.58,2.08,1.22,4.22,1.94,6.39,0,.01,0,.02.01.03.2.6.4,1.2.61,1.8.16.45.31.89.46,1.32-.15-.43-.3-.87-.46-1.32-.21-.61-.42-1.22-.62-1.83Z"/>
  </g>
</svg>