<?xml version="1.0" encoding="UTF-8"?>
<svg id="_레이어_2" data-name="레이어 2" xmlns="http://www.w3.org/2000/svg" viewBox="0 0 169.72 571.95">
  <defs>
    <style>
      .cls-1 {
        fill: #f3a9aa;
        stroke: #231815;
        stroke-miterlimit: 10;
      }
    </style>
  </defs>
  <g id="_레이어_1-2" data-name="레이어 1">
    <path class="cls-1" d="m168.95,320.77c-.27-2.28-.77-4.78-1.55-8.22-.52-2.29-1.09-3.7-1.8-8.89-.09-.7-.19-1.47-.29-2.32-.05-.42-.09-.81-.12-1.17,0-.08-.02-.16-.02-.24-.03-.33-.05-.63-.06-.91,0-.04,0-.09,0-.13-.03-.56-.04-1.03-.05-1.43,0-.02,0-.04,0-.07,0-.2,0-.39,0-.56,0-.23,0-.44,0-.64,0-.09,0-.18,0-.26,0-.07,0-.15,0-.22,0-.1-.01-.21-.02-.31,0-.07-.02-.13-.03-.2,0-.05,0-.1-.01-.15-.09-.83-.26-1.51-.47-2.16-.57-1.77-1.46-3.41-2.01-7.6-.91-6.75-1.62-12.43-2.35-18.47-.44-3.6-.88-7.33-1.38-11.52-.09-.7-.17-1.42-.26-2.15-.11-.88-.21-1.78-.32-2.71-.1-.8-.19-1.63-.29-2.47,0-.02,0-.04,0-.06-.01-.1-.02-.19-.03-.29-1.13-9.39-4.87-21.21-8.86-34.19-.19-.63-.39-1.26-.58-1.89-.05-.17-.11-.39-.16-.64-.07-.3-.14-.8-.22-1.43,0-.01,0-.03,0-.04-.07-.59-.15-1.27-.22-2.02,0-.02,0-.04,0-.06-.03-.26-.05-.53-.08-.81,0-.05-.01-.1-.01-.15-.03-.28-.05-.56-.08-.84,0-.04,0-.08-.01-.12-.09-.91-.17-1.87-.25-2.84,0-.05,0-.09-.01-.14-.03-.3-.05-.61-.08-.92,0-.06-.01-.13-.02-.19-.11-1.31-.21-2.61-.29-3.82,0-.06,0-.13-.01-.19-.02-.27-.04-.53-.06-.79,0-.07-.01-.15-.01-.22-.02-.26-.03-.51-.05-.75,0-.01,0-.02,0-.04-.02-.27-.03-.54-.05-.79-.16-2.6-.84-13.47-1.77-26.32,0-.04,0-.08,0-.13-.03-.45-.07-.9-.1-1.36,0-.07-.01-.15-.02-.22-.07-.98-.15-1.98-.22-2.98,0-.05,0-.11-.01-.16-.03-.39-.06-.79-.09-1.18-.01-.17-.03-.34-.04-.51-.03-.35-.05-.71-.08-1.06-.01-.17-.03-.35-.04-.52-.03-.37-.06-.75-.09-1.12-.01-.15-.02-.31-.04-.46-.02-.31-.05-.63-.07-.94-.02-.26-.04-.52-.06-.78-.01-.18-.03-.35-.04-.53-.03-.36-.06-.72-.08-1.08-.01-.13-.02-.27-.03-.4-.03-.41-.07-.83-.1-1.24,0-.04,0-.08-.01-.13-.04-.47-.08-.94-.11-1.42,0-.1-.02-.19-.02-.29-.83-10.17-1.73-19.97-2.59-26.66-.41-3.24-.81-5.79-1.19-7.32-.1-.39-.19-.75-.29-1.07-1.73-5.83-3.41-8.53-5.03-9.64,0,0,0,0,0,0-.17-.16-.6-.42-1.07-.67,0,0,0,0,0,0-.21-.12-.74-.42-1.25-.68-.03-.01-.05-.02-.08-.04-.38-.19-.77-.37-1.13-.51-.17-.07-.35-.14-.53-.21-.26-.1-.52-.19-.79-.28-.2-.07-.4-.13-.6-.19-.43-.13-.88-.26-1.33-.38-.12-.03-.24-.06-.36-.09-.83-.21-1.69-.39-2.57-.58-.35-.08-.71-.15-1.07-.23-2.21-.49-4.47-1.24-6.68-2.04-.3-.11-.61-.22-.91-.33-.68-.25-1.35-.51-2.02-.76-5.34-2.05-9.74-4.61-12.38-11.01-.41-1-.73-2.67-.99-4.63-.4-3.26-.61-7.24-.72-10.35,2.54-2.35,4.51-5.38,5.74-10.41.22-.9.48-1.97.74-3.12.7.25,1.26.16,1.73-.12,0,0,.02-.02.03-.02.14-.09.27-.2.4-.33.04-.04.08-.08.12-.12.11-.13.22-.26.32-.41.02-.04.05-.07.07-.11.09-.14.17-.29.25-.45.04-.07.07-.14.1-.21.06-.13.12-.26.17-.39.06-.14.11-.28.16-.42.03-.07.06-.15.08-.22.25-.71.43-1.36.58-1.74.28-.68.61-1.05.96-1.62.33-.54.68-1.26,1.03-2.58.03-.1.05-.19.08-.3.03-.1.03-.2.05-.3.14-.72.1-1.35.03-1.93-.04-.43-.1-.83-.16-1.2-.02-.24-.04-.47-.02-.69.01-.16.04-.33.08-.49.14-.49.23-1.49.09-2.42-.08-.83-.32-1.67-.88-2.09-.09-.06-.19-.1-.3-.14.05-.21.1-.42.15-.63.02-.1.05-.2.07-.3.07-.32.14-.64.21-.98.02-.11.05-.22.07-.33.07-.33.13-.67.19-1.02.02-.12.05-.24.07-.36.06-.34.11-.7.16-1.05.02-.13.04-.26.06-.39.05-.36.09-.72.14-1.08.02-.14.04-.27.05-.41.04-.36.07-.73.1-1.09.01-.15.03-.3.04-.45.03-.36.05-.72.07-1.08,0-.17.02-.33.03-.5.02-.36.02-.72.03-1.08,0-.18.01-.35.01-.52,0-.36,0-.73-.01-1.1,0-.18,0-.35,0-.53-.01-.36-.03-.72-.05-1.08-.01-.19-.02-.37-.03-.56-.03-.35-.06-.71-.1-1.06-.02-.19-.03-.38-.05-.57,0-.07-.02-.14-.03-.2-.31-2.77-.95-5.5-2.04-7.99-1.48-3.39-3.32-6.12-5.25-8.29-4.52-5.5-11.92-9.13-20.33-9.21-5.43.06-10.44,1.6-14.53,4.16-2.47,1.46-4.63,3.3-6.36,5.4-1.93,2.17-3.77,4.9-5.25,8.29-3.44,7.83-2.38,18.06-.74,24.33,0,0-.02.02-.03.03-.14.04-.28.09-.39.17-1.11.84-.99,3.29-.75,4.16.36,1.29-.52,2.61-.01,4.61.75,3.01,1.51,3.14,2.07,4.5.48,1.15,1.14,4.9,3.45,4.67.19.02.39.02.6-.02.25,1.11.5,2.14.72,3.02,1.23,5.03,3.2,8.06,5.74,10.41-.18,5.13-.64,12.64-1.75,15.34-1.62,3.92-3.9,6.4-6.65,8.21-1.59.97-3.32,1.74-5.17,2.45-.66.26-1.34.51-2.02.76-.31.11-.61.22-.91.33-2.21.8-4.47,1.55-6.68,2.04-.37.08-.72.15-1.07.23-.88.19-1.74.37-2.57.58-.12.03-.24.06-.36.09-.46.12-.9.24-1.33.38-.2.06-.4.13-.6.19-.27.09-.53.18-.79.28-.18.07-.36.14-.53.21-.36.15-.75.33-1.13.51-.03.01-.05.02-.08.04-.51.26-1.04.56-1.25.68,0,0,0,0,0,0-.33.18-.64.36-.85.51-.16.09-.26.15-.26.15h0c-1.83.92-3.74,3.68-5.71,10.55-2.64,9.22-6.49,70.31-6.9,76.98-.33,5.34-1.19,15.48-1.59,16.82-.23.74-.45,1.48-.68,2.22-3.96,12.99-7.73,24.8-8.86,34.19-.31,2.62-.6,5.04-.88,7.33-1.36,11.36-2.32,19.45-3.78,30.34-.76,5.74-2.15,6.7-2.48,9.76-.05.43-.05.87-.05,1.43,0,.97-.01,2.29-.27,4.56-.87,7.4-1.53,8.87-2.13,11.5-1.36,5.98-1.89,9.11-1.76,13.22.18,5.45,1.25,8.06,3.24,10.7,1.03,1.36,2.04,3.05,3.64,4.88,1.53,1.76,2.17,2.38,2.72,2.14.37.12.65-.06.98-.52.08-.11.16-.23.24-.36.13-.2.22-.41.29-.63.01-.03.02-.06.03-.1,0-.03.02-.06.02-.09,0-.01,0-.02,0-.03.02-.05.05-.09.07-.14.01-.03.02-.06.03-.1,0-.03.01-.06.02-.09.47-1.83-.61-4.32-.14-8.38.61-5.2,1.52-7.39,2.06-12.16.07-.61.13-1.26.19-1.97.38,1.84,1.06,4.57,2.22,5.94.97,1.16,2.37,1.55,3.19,1.46.57.04,1.01-.09,1.1-.35.02-.06.02-.13,0-.21.05-.04.1-.08.12-.13.04-.09.03-.19-.02-.31-4.04-8.9-.5-14.6-2.25-21.41-.45-1.73-1.5-4.26-1.9-6.06-.1-.44-.16-.84-.16-1.17,0-.08,0-.16.01-.23,0-.11.02-.22.04-.32.16-2.11.83-4.52,1.82-7.23.76-2.04,1.7-4.27,2.78-6.7,1-2.26,1.88-4.28,2.74-6.33-1.25,5.72-2.13,12.37-2.2,20.28-.04,4.28.15,8.91.65,13.97,1.24,12.52,10.39,39.26,13.81,52.03,7.6,28.38,11.9,45.41,12.46,55.42.72,12.92-.94,16.97-2.43,24.79-2.89,15.21-.78,28.37,2.65,40.42,6.34,22.28,12.99,32.19,13.66,43.89.17,2.91-1.91,4.14-.76,7.83.59,1.92,1.6,3.76.07,8.04-5.17,14.48-11.89,18.28-11.1,23.57.88,5.86,19.55,5.49,26.85,4.17,6.01-1.09,5.93-10.06,4.2-20.34-.35-2.07-.53-4.4-.39-7.96.06-1.75.51-3.8.75-6.28.22-2.28-.41-4.68-.75-6.59-.26-1.45-.53-2.61-.57-3.21-1.62-22.39-1.12-27.76,1.55-48.8,2.7-21.26-1.08-25.08-.61-38.08.29-7.7,2.5-15.58,3.09-23.92.75-10.47-.28-20.35-1.33-27.79-2.89-20.57-2.88-23.89-3.81-40.16-1.02-17.66,4.34-26.31,1.28-41.54.71.26,2.45.36,4.17.37h0c1.72,0,3.46-.11,4.17-.37-3.06,15.23,2.3,23.88,1.28,41.54-.93,16.27-.92,19.59-3.81,40.16-1.05,7.44-2.08,17.32-1.33,27.79.59,8.34,2.8,16.22,3.09,23.92.47,13-3.31,16.82-.61,38.08,2.67,21.04,3.17,26.41,1.55,48.8-.04.6-.31,1.76-.57,3.21-.34,1.91-.97,4.31-.75,6.59.24,2.48.69,4.53.75,6.28.14,3.56-.04,5.89-.39,7.96-1.73,10.28-1.81,19.25,4.2,20.34,7.3,1.32,25.97,1.69,26.85-4.17.79-5.29-5.93-9.09-11.1-23.57-1.53-4.28-.52-6.12.07-8.04,1.15-3.69-.93-4.92-.76-7.83.67-11.7,7.32-21.61,13.66-43.89,3.43-12.05,5.54-25.21,2.65-40.42-1.49-7.82-3.15-11.87-2.43-24.79.56-10.01,4.86-27.04,12.46-55.42,3.42-12.77,12.57-39.51,13.81-52.03.5-5.06.69-9.69.65-13.97-.08-9.05-1.22-16.46-2.77-22.72,1.2,2.95,2.35,5.62,3.74,8.77.47,1.06.9,2.07,1.32,3.05.09.21.18.43.27.64.15.36.29.72.44,1.07.1.25.2.5.3.75.13.33.25.65.37.97.08.2.15.4.22.6.18.48.34.95.49,1.42.07.2.13.41.2.61.14.43.26.84.37,1.25.06.2.11.41.16.6.1.41.19.81.27,1.21.03.17.08.35.11.52.09.5.15.98.19,1.45,0,.04.01.08.01.12,0,.08.01.16.01.23,0,.33-.06.73-.16,1.17-.4,1.8-1.45,4.33-1.9,6.06-1.75,6.81,1.79,12.51-2.25,21.41-.05.12-.06.22-.02.31,0,.02.04.04.06.06-.04.1-.04.18-.02.26,0,0,0,.02,0,.02,0,0,0,0,0,0,.03.07.08.13.16.18.01,0,.02.02.04.03.07.04.16.08.27.1.03,0,.07.01.1.02.1.02.22.03.34.03.05,0,.1,0,.15,0,.1,0,.2-.02.31-.04.08-.01.15-.03.24-.05.11-.03.23-.06.35-.1.07-.02.13-.04.2-.07.15-.06.29-.13.44-.21.06-.03.13-.07.19-.11.15-.09.3-.19.45-.31.05-.04.1-.08.15-.13.14-.12.27-.25.39-.39.02-.03.05-.05.07-.07,1.83-2.16,2.47-7.74,2.62-7.76.08,1.44.18,2.68.31,3.78.01.12.03.23.04.34,0,.01,0,.03,0,.04.03.3.07.59.11.87.01.09.02.17.04.25.03.23.06.46.1.67.02.11.03.22.05.33.03.19.06.38.09.56.02.1.04.21.05.31.03.2.07.39.11.59.01.07.03.14.04.21.11.55.21,1.09.32,1.62,0,.03.01.05.02.08.06.29.12.59.18.88.03.16.06.31.1.47.02.11.05.23.07.34.04.21.08.43.13.65.02.11.04.22.06.33.04.21.08.42.12.63.02.12.04.25.06.37.03.17.06.34.08.51.02.15.05.29.07.45.02.16.05.33.07.49.02.17.05.33.07.51.02.15.04.31.06.47,0,.06.02.13.02.19.44,3.75-.43,6.15-.2,7.94,0,.02,0,.05,0,.07,0,.01,0,.02,0,.03.02.23.05.45.1.66,0,.01,0,.03,0,.04,0,.02,0,.04.01.06,0,0,0,0,0,.01,0,0,0,.01,0,.02,0,.03.02.06.03.1,0,.02.02.03.02.05.07.2.15.39.27.58,0,0,0,0,0,0,0,.01.01.02.02.03.07.11.13.2.2.29,0,.01.02.03.03.04,0,0,.01.01.02.02.08.11.16.21.24.29.01.01.03.03.04.04.08.07.15.13.23.17.01,0,.02,0,.03.01.08.03.15.04.23.04.01,0,.02,0,.04,0,.08,0,.18-.04.27-.09.02-.01.05-.02.07-.03.09-.05.2-.12.3-.21.04-.03.07-.06.11-.09.11-.09.22-.2.35-.32.06-.06.12-.12.18-.18.09-.1.19-.2.29-.31.25-.27.53-.58.86-.96.37-.42.69-.83,1.01-1.23.08-.1.15-.19.22-.29.07-.09.14-.18.2-.26.2-.27.39-.53.57-.79.07-.09.13-.18.19-.27.26-.37.5-.72.74-1.06.21-.3.42-.59.63-.87.03-.03.05-.07.08-.11,0-.01.02-.02.03-.04.24-.32.47-.65.69-.98.02-.03.04-.06.05-.08.21-.32.4-.65.59-.99.02-.03.03-.07.05-.1.18-.34.34-.68.49-1.04.02-.04.03-.08.05-.12.15-.36.28-.74.41-1.13,0-.02.02-.04.02-.06,0-.03.02-.07.03-.1.1-.33.19-.68.27-1.05.01-.05.02-.1.03-.15.08-.36.15-.74.21-1.14,0-.03.01-.05.01-.08,0-.01,0-.03,0-.04.01-.08.02-.16.03-.24.03-.19.05-.38.08-.58,0-.06.01-.12.02-.18.02-.23.05-.45.07-.69,0,0,0,0,0,0,.05-.6.09-1.23.11-1.91.06-1.87-.02-3.53-.25-5.35ZM34.11,247.38c.52-1.71,1-3.38,1.43-5.02.01-.04.02-.08.03-.12,0-.02,0-.03.01-.05,3.6-13.61,4.32-24.38,4.52-25.92.09-.73.22-1.53.37-2.37.03-.16.06-.31.08-.47.76-4.08,2.04-9.21,3.48-14.68,1.07-4.05,2.21-8.29,3.29-12.46.64-2.49,1.26-4.96,1.82-7.34.19-.83.52-2.42.85-4.09.26-1.29.52-2.64.74-3.77.02-.08.03-.15.04-.23.34,1.5.63,3.09.87,4.74.31,9.73-1.02,24.06-4.14,37.83,0,0,0,0,0,0-.19,1.42-.8,3.99-1.57,7-1.56,3.86-3.22,8.08-5.3,12.64-2.01,4.42-4.52,9.92-6.53,14.31Zm103.59,5.04c-.21-.61-.42-1.22-.62-1.83-2.1-4.61-5.46-11.92-8-17.52-1.44-3.16-2.67-6.13-3.81-8.95-1.21-4.52-2.28-8.7-2.55-10.68,0,0,0,0,0,0-3.54-15.61-4.78-31.96-3.93-41.49.1-.63.21-1.24.33-1.83,0,0,0,0,0,0,.09.19.19.45.31.76.41,2.14,1.03,5.33,1.45,7.31,0,.02,0,.04.01.06.02.12.05.23.07.34.01.06.02.11.03.16.02.08.04.17.05.24.01.06.03.12.04.18.01.05.02.11.04.16.25,1.09.52,2.2.8,3.32.05.2.1.39.15.59.27,1.1.55,2.2.84,3.31.01.04.02.08.03.12.03.13.07.27.1.4.21.8.41,1.59.62,2.39.06.24.13.49.19.73.22.84.44,1.68.67,2.52.27,1.03.54,2.05.81,3.07.04.15.08.29.12.44.21.79.42,1.58.62,2.36.08.29.15.57.22.85.1.4.21.79.31,1.18.07.27.14.53.21.8.14.55.28,1.09.42,1.63.02.07.03.13.05.2.97,3.83,1.81,7.37,2.37,10.36.01.07.03.14.04.21.06.32.11.62.16.93.04.23.08.47.12.69.04.24.07.47.1.71.02.12.03.24.05.36.08.75.24,2.61.58,5.34.02.13.03.25.05.38.04.29.07.59.11.9.02.16.04.31.06.47.05.4.11.81.17,1.24.02.17.05.35.08.53.06.45.13.9.2,1.37.02.16.05.32.08.48.06.39.12.78.19,1.18.03.19.06.38.09.57.08.5.18,1.02.27,1.55.04.21.08.43.12.64.1.54.2,1.09.31,1.66.04.19.08.38.11.57.09.48.19.96.3,1.45.04.19.08.38.12.58.13.6.26,1.22.4,1.84.05.22.1.44.15.66.15.64.3,1.29.46,1.94.05.19.09.37.14.56.15.59.3,1.19.46,1.79.03.12.06.24.09.36,0,.02,0,.03.01.05.01.04.02.08.03.12.02.09.05.18.07.26.15.57.31,1.15.47,1.73.07.24.13.47.2.71.18.64.37,1.29.57,1.94.05.16.1.32.15.48.17.57.35,1.14.54,1.71.07.23.15.46.22.69.04.12.08.24.12.36,0,.01.01.02.02.04.2.6.39,1.19.6,1.79.02.07.05.14.07.21-.02-.07-.05-.14-.07-.21Z"/>
  </g>
</svg>