<?xml version="1.0" encoding="UTF-8"?>
<svg id="_레이어_2" data-name="레이어 2" xmlns="http://www.w3.org/2000/svg" viewBox="0 0 169.72 572.07">
  <defs>
    <style>
      .cls-1 {
        fill: #f3a9aa;
        stroke: #231815;
        stroke-miterlimit: 10;
      }
    </style>
  </defs>
  <g id="_레이어_1-2" data-name="레이어 1">
    <path class="cls-1" d="m119.22,169.38c.43,2.29,1.49,7.74,1.92,9.6,1.37,5.86,3.11,12.26,4.71,18.3,1.6,6.04,3.06,11.73,3.87,16.18.18,1,.35,1.96.45,2.83.19,1.47.85,11.28,4.01,23.93-1.57-2.69-3.17-5.38-4.6-7.76-1.14-1.9-2.22-3.78-3.22-5.63-1.48-4.42-2.72-8.85-3.52-13.05-.04-.22-.08-.44-.12-.66h0c-1.8-7.64-2.94-15.48-3.49-22.67-.08-.99-.14-1.98-.21-2.94-.45-6.77-.57-12.62-.18-16.56.12-.52.24-1.05.37-1.56Zm-68.73,0c.13.51.25,1.04.36,1.56.38,3.93.26,9.77-.18,16.53-.06.99-.13,1.99-.21,3.01-.55,7.2-1.69,15.03-3.49,22.68h0c-.04.2-.07.4-.11.6-.8,4.2-2.03,8.62-3.5,13.04-1,1.86-2.09,3.76-3.23,5.67-1.43,2.39-3.04,5.09-4.61,7.79,3.16-12.67,3.83-22.49,4.02-23.96.11-.87.27-1.82.45-2.83.81-4.46,2.28-10.15,3.88-16.19,1.6-6.04,3.34-12.43,4.7-18.29.43-1.85,1.49-7.31,1.92-9.6Zm-12.5-63.8c-.9.41-2.38,1.3-2.38,1.3v.02c-1.83.91-3.74,3.66-5.71,10.54-2.64,9.22-6.49,70.31-6.9,76.97-.33,5.34-1.19,15.48-1.59,16.82-.22.75-.45,1.48-.68,2.23-3.96,12.99-7.73,24.8-8.86,34.19-.31,2.61-.6,5.03-.88,7.33-1.36,11.36-2.33,19.44-3.78,30.33-.76,5.75-2.16,6.7-2.48,9.76-.05.43-.04.88-.04,1.43,0,.97-.01,2.29-.28,4.57-.86,7.39-1.53,8.86-2.12,11.5-1.36,5.98-1.9,9.1-1.76,13.22.18,5.44,1.25,8.06,3.24,10.69,1.03,1.36,2.04,3.05,3.63,4.88,2.27,2.59,2.59,2.72,3.51,1.26,1.21-1.91-.33-4.5.21-9.21.75-6.46,1.98-8.28,2.38-16.17.06-1.2.65,5.27,2.65,7.64,1.59,1.88,4.26,1.75,3.83.81-4.04-8.9-.5-14.6-2.25-21.41-.56-2.2-2.13-5.7-2.06-7.34,0-.15.03-.3.05-.44.21-2.69,1.21-5.84,2.7-9.54-.32,2.96-.52,6.12-.56,9.52v.15c-.04,4.28.16,8.91.69,13.97,1.31,12.52,10.98,39.25,14.59,52.02,8.02,28.39,12.56,45.42,13.15,55.43.77,12.92-.99,16.96-2.56,24.79-3.05,15.21-.82,28.37,2.8,40.42,6.69,22.28,13.71,32.19,14.43,43.89.17,2.91-2.02,4.13-.81,7.83.63,1.92,1.69,3.76.08,8.04-5.46,14.48-12.57,18.28-11.73,23.57.93,5.86,20.64,5.49,28.36,4.17,6.35-1.09,6.26-10.06,4.43-20.34-.37-2.08-.57-4.4-.42-7.96.07-1.75.55-3.8.8-6.28.23-2.28-.44-4.69-.8-6.59-.28-1.45-.55-2.61-.6-3.22-1.77-22.37-1.17-27.75,1.65-48.79,2.85-21.26-1.15-25.08-.65-38.08.3-7.71,2.64-15.58,3.27-23.92.79-10.47-.3-20.35-1.41-27.79-3.06-20.58-3.04-23.9-4.03-40.16-1.07-17.66,4.59-26.31,1.36-41.54.75.26,2.58.35,4.4.37,1.82.02,3.65-.11,4.4-.37-3.23,15.23,2.43,23.88,1.36,41.54-.99,16.26-.97,19.58-4.03,40.16-1.11,7.44-2.19,17.32-1.4,27.79.62,8.34,2.96,16.21,3.26,23.92.5,13-3.5,16.82-.64,38.08,2.82,21.04,3.41,26.41,1.64,48.79-.05.61-.33,1.77-.6,3.22-.36,1.9-1.03,4.31-.8,6.59.25,2.48.73,4.53.8,6.28.14,3.56-.05,5.88-.42,7.96-1.83,10.28-1.91,19.25,4.44,20.34,7.71,1.32,27.42,1.69,28.35-4.17.84-5.29-6.26-9.09-11.72-23.57-1.62-4.28-.55-6.12.08-8.04,1.21-3.7-.99-4.92-.81-7.83.71-11.7,7.73-21.61,14.43-43.89,3.62-12.05,5.84-25.21,2.8-40.42-1.57-7.83-3.33-11.87-2.57-24.79.59-10.01,5.13-27.04,13.16-55.43,3.61-12.77,13.28-39.5,14.59-52.02.52-5.06.72-9.69.68-13.97v-.15c-.04-3.4-.24-6.54-.56-9.5,1.49,3.69,2.49,6.83,2.7,9.52.02.14.04.3.05.44.07,1.64-1.49,5.14-2.06,7.34-1.75,6.81,1.79,12.51-2.25,21.41-.43.94,2.24,1.07,3.83-.81,2-2.37,2.59-8.84,2.65-7.64.39,7.89,1.62,9.71,2.37,16.17.55,4.71-.99,7.3.22,9.21.93,1.46,1.24,1.33,3.51-1.26,1.59-1.83,2.6-3.52,3.63-4.88,1.99-2.64,3.07-5.25,3.24-10.69.13-4.12-.4-7.24-1.76-13.22-.6-2.64-1.26-4.11-2.12-11.5-.26-2.28-.27-3.59-.28-4.57,0-.55,0-.99-.04-1.43-.32-3.06-1.73-4.02-2.48-9.76-1.45-10.89-2.42-18.97-3.78-30.33-.27-2.29-.56-4.71-.88-7.33-1.13-9.39-4.89-21.2-8.86-34.19-.22-.74-.45-1.48-.68-2.23-.41-1.34-1.26-11.48-1.59-16.82-.41-6.67-4.26-67.76-6.9-76.97-1.97-6.88-3.88-9.63-5.71-10.54v-.02s-1.48-.89-2.38-1.3c-1.86-.84-4.04-1.39-6.4-1.89-.49-.1-.98-.21-1.48-.31-.57-.12-1.15-.25-1.73-.39-1.36-.37-4.86-1.58-7.9-2.76-5.33-2.05-9.74-4.61-12.38-11.01-1.11-2.7-1.57-10.21-1.75-15.34,2.54-2.35,4.51-5.38,5.74-10.41.22-.9.48-1.98.74-3.12,2.78.98,3.5-3.3,4.02-4.54.57-1.36,1.31-1.5,2.07-4.5.51-2.01-.36-3.32-.01-4.61.24-.87.36-3.32-.75-4.16-.12-.09-.26-.14-.42-.18,1.65-6.26,2.7-16.51-.74-24.34-1.48-3.39-3.32-6.13-5.25-8.29-4.57-5.57-12.1-9.22-20.63-9.22s-16.06,3.65-20.63,9.22c-1.93,2.16-3.77,4.9-5.25,8.29-3.44,7.84-2.38,18.08-.74,24.34-.16.05-.3.09-.42.18-1.11.84-.99,3.29-.75,4.16.35,1.29-.52,2.6-.01,4.61.76,3,1.5,3.14,2.07,4.5.52,1.24,1.24,5.52,4.02,4.54.26,1.15.52,2.22.74,3.12,1.23,5.03,3.2,8.06,5.74,10.41-.18,5.13-.64,12.64-1.75,15.34-2.64,6.4-7.05,8.96-12.38,11.01-3.08,1.19-4.75,2.04-7.91,2.76-.56.13-1.12.26-1.68.38-.51.11-1,.21-1.5.31-2.36.51-4.55,1.05-6.41,1.9Z"/>
  </g>
</svg>