<?xml version="1.0" encoding="UTF-8"?>
<svg id="_레이어_2" data-name="레이어 2" xmlns="http://www.w3.org/2000/svg" viewBox="0 0 169.72 572.22">
  <defs>
    <style>
      .cls-1 {
        fill: #f3a9aa;
        stroke: #231815;
        stroke-miterlimit: 10;
      }
    </style>
  </defs>
  <g id="_레이어_1-2" data-name="레이어 1">
    <path class="cls-1" d="m119.22,169.38c.43,2.29,1.49,7.74,1.92,9.6,1.37,5.86,3.11,12.25,4.7,18.29,1.6,6.04,3.06,11.73,3.88,16.19.18,1,.35,1.96.45,2.83.16,1.23.65,8.31,2.66,18.02-.29-.38-.59-.77-.89-1.15-.06-.07-.12-.15-.18-.22-2.2-2.79-4.36-5.88-6.19-8.94-1.2-3.43-2.19-6.88-2.75-10.06h0c-.07-.31-.15-.63-.22-.94-1.69-7.47-2.77-15.11-3.32-22.16-.1-1.25-.18-2.47-.25-3.67-.43-6.66-.55-12.4-.18-16.25.12-.51.23-1.03.36-1.53Zm-68.73,0c.13.51.24,1.02.36,1.53.37,3.85.24,9.59-.18,16.24-.08,1.2-.15,2.43-.25,3.68-.55,7.05-1.64,14.7-3.33,22.17-.07.31-.14.62-.21.93h0c-.56,3.18-1.55,6.62-2.74,10.05-1.83,3.06-3.99,6.15-6.18,8.94-.06.07-.12.15-.18.22-.3.39-.6.78-.9,1.16,2.01-9.72,2.5-16.81,2.66-18.04.11-.87.27-1.82.45-2.83.81-4.46,2.28-10.15,3.88-16.19,1.6-6.04,3.34-12.43,4.7-18.29.43-1.85,1.49-7.31,1.92-9.6Zm-12.5-63.8c-.9.41-2.38,1.3-2.38,1.3v.02c-1.83.91-3.74,3.66-5.71,10.54-2.64,9.22-6.49,70.31-6.9,76.97-.33,5.34-1.19,15.48-1.59,16.82-.22.75-.45,1.48-.68,2.23-3.96,12.99-7.73,24.8-8.86,34.19-.31,2.61-.6,5.03-.88,7.33-1.36,11.36-2.33,19.44-3.78,30.33-.76,5.75-2.16,6.7-2.48,9.76-.05.43-.04.88-.04,1.43,0,.97-.01,2.29-.28,4.57-.86,7.39-1.53,8.86-2.12,11.5-1.36,5.98-1.9,9.1-1.76,13.22.18,5.44,1.25,8.06,3.24,10.69,1.03,1.36,2.04,3.05,3.63,4.88,2.27,2.59,2.59,2.72,3.51,1.26,1.21-1.91-.33-4.5.21-9.21.75-6.46,1.98-8.28,2.38-16.17.06-1.2.65,5.27,2.65,7.64.72.85,1.66,1.29,2.44,1.43,3.71,12.72,9.22,27.8,11.8,36.46,8.45,28.39,13.23,45.42,13.85,55.42.81,12.93-1.05,16.97-2.7,24.8-3.21,15.21-.86,28.36,2.95,40.42,7.05,22.28,14.45,32.19,15.2,43.88.18,2.92-2.13,4.14-.86,7.83.67,1.93,1.79,3.77.09,8.05-5.75,14.48-13.23,18.27-12.35,23.56.98,5.86,21.74,5.5,29.86,4.18,6.69-1.09,6.6-10.06,4.67-20.34-.39-2.08-.59-4.4-.44-7.96.08-1.76.57-3.81.84-6.28.25-2.28-.46-4.69-.84-6.6-.29-1.44-.58-2.6-.63-3.21-1.8-22.38-1.24-27.75,1.73-48.79,3-21.27-1.21-25.08-.68-38.08.32-7.71,2.78-15.58,3.44-23.92.83-10.47-.31-20.36-1.48-27.8-3.22-20.57-3.2-23.89-4.25-40.15-1.12-17.66,4.84-26.32,1.44-41.55.78.27,2.72.36,4.63.38s3.85-.11,4.63-.38c-3.39,15.23,2.57,23.89,1.44,41.55-1.04,16.26-1.03,19.58-4.25,40.15-1.16,7.44-2.31,17.33-1.48,27.8.66,8.34,3.13,16.21,3.44,23.92.53,13-3.68,16.81-.68,38.08,2.97,21.04,3.53,26.41,1.73,48.79-.05.61-.34,1.77-.63,3.21-.38,1.91-1.08,4.32-.84,6.6.26,2.47.76,4.52.84,6.28.15,3.56-.05,5.88-.44,7.96-1.93,10.28-2.02,19.25,4.67,20.34,8.12,1.32,28.88,1.68,29.86-4.18.88-5.29-6.6-9.08-12.35-23.56-1.7-4.28-.57-6.12.09-8.05,1.27-3.69-1.04-4.91-.85-7.83.75-11.69,8.14-21.6,15.19-43.88,3.82-12.06,6.16-25.21,2.95-40.42-1.65-7.83-3.51-11.87-2.7-24.8.62-10,5.4-27.03,13.85-55.42,2.58-8.66,8.09-23.74,11.8-36.46.78-.14,1.72-.57,2.44-1.43,2-2.37,2.59-8.84,2.65-7.64.39,7.89,1.62,9.71,2.37,16.17.55,4.71-.99,7.3.22,9.21.93,1.46,1.24,1.33,3.51-1.26,1.59-1.83,2.6-3.52,3.63-4.88,1.99-2.64,3.07-5.25,3.24-10.69.13-4.12-.4-7.24-1.76-13.22-.6-2.64-1.26-4.11-2.12-11.5-.26-2.28-.27-3.59-.28-4.57,0-.55,0-.99-.04-1.43-.32-3.06-1.73-4.02-2.48-9.76-1.45-10.89-2.42-18.97-3.78-30.33-.27-2.29-.56-4.71-.88-7.33-1.13-9.39-4.89-21.2-8.86-34.19-.22-.74-.45-1.48-.68-2.23-.41-1.34-1.26-11.48-1.59-16.82-.41-6.67-4.26-67.76-6.9-76.97-1.97-6.88-3.88-9.63-5.71-10.54v-.02s-1.48-.89-2.38-1.3c-1.86-.84-4.04-1.39-6.4-1.89-.49-.1-.98-.21-1.48-.31-.57-.12-1.15-.25-1.73-.39-1.36-.37-4.86-1.58-7.9-2.76-5.33-2.05-9.74-4.61-12.38-11.01-1.11-2.7-1.57-10.21-1.75-15.34,2.54-2.35,4.51-5.38,5.74-10.41.22-.9.48-1.98.74-3.12,2.78.98,3.5-3.3,4.02-4.54.57-1.36,1.31-1.5,2.07-4.5.51-2.01-.36-3.32-.01-4.61.24-.87.36-3.32-.75-4.16-.12-.09-.26-.14-.42-.18,1.65-6.26,2.7-16.51-.74-24.34-1.48-3.39-3.32-6.13-5.25-8.29-4.57-5.57-12.1-9.22-20.63-9.22s-16.06,3.65-20.63,9.22c-1.93,2.16-3.77,4.9-5.25,8.29-3.44,7.84-2.38,18.08-.74,24.34-.16.05-.3.09-.42.18-1.11.84-.99,3.29-.75,4.16.35,1.29-.52,2.6-.01,4.61.76,3,1.5,3.14,2.07,4.5.52,1.24,1.24,5.52,4.02,4.54.26,1.15.52,2.22.74,3.12,1.23,5.03,3.2,8.06,5.74,10.41-.18,5.13-.64,12.64-1.75,15.34-2.64,6.4-7.05,8.96-12.38,11.01-3.08,1.19-4.75,2.04-7.91,2.76-.56.13-1.12.26-1.68.38-.51.11-1,.21-1.5.31-2.36.51-4.55,1.05-6.41,1.9Z"/>
  </g>
</svg>