<?xml version="1.0" encoding="UTF-8"?>
<svg id="_레이어_2" data-name="레이어 2" xmlns="http://www.w3.org/2000/svg" viewBox="0 0 169.28 571.62">
  <defs>
    <style>
      .cls-1 {
        fill: none;
        stroke-width: 0px;
      }

      .cls-2 {
        fill: #f3a9aa;
        stroke: #231815;
        stroke-miterlimit: 10;
      }
    </style>
  </defs>
  <g id="_레이어_1-2" data-name="레이어 1">
    <g>
      <path class="cls-1" d="M89.26,347.18c.9-17.66-3.85-26.31-1.14-41.54-.6.25-2.03.35-3.48.37v95.02c.25-5.07.74-9.73,1.23-13.69,2.58-20.57,2.56-23.89,3.39-40.15Z"/>
      <path class="cls-2" d="M84.64,414.17v-13.14c-.2,4.16-.25,8.59,0,13.14Z"/>
      <path class="cls-2" d="M167,312.55c-.52-2.29-1.09-3.7-1.8-8.89-.11-.78-.22-1.64-.33-2.61-.06-.53-.11-1.01-.14-1.44-.12-1.43-.13-2.38-.13-3.12,0-.43,0-.78-.02-1.12,0-.1-.01-.21-.02-.31-.09-.83-.26-1.5-.47-2.16-.57-1.77-1.46-3.42-2.01-7.6-1.46-10.89-2.42-18.98-3.78-30.34-.09-.7-.17-1.42-.26-2.15-.11-.88-.21-1.78-.32-2.71-.1-.81-.19-1.63-.29-2.47-1.13-9.39-4.87-21.21-8.86-34.19-.21-.69-.42-1.37-.63-2.05-.05-.15-.09-.37-.15-.63-.06-.33-.13-.82-.21-1.42-.43-3.49-1.03-10.71-1.29-14.93-.4-6.51-4.08-64.83-6.7-76.19-.09-.4-.18-.75-.28-1.06-1.67-5.71-3.29-8.49-4.85-9.73,0,0,0,0,0,0-.26-.23-.64-.48-1.05-.69,0,0,0,0,0,0-.11-.06-.65-.38-1.24-.69-.03-.01-.05-.03-.08-.04-.38-.2-.77-.39-1.11-.54-.17-.07-.34-.14-.52-.21-.26-.1-.52-.2-.79-.29-.19-.07-.39-.13-.59-.2-.43-.14-.88-.27-1.33-.39-.12-.03-.24-.06-.36-.09-.87-.23-1.77-.42-2.7-.62-.42-.09-.84-.18-1.28-.28-2.21-.49-4.47-1.24-6.68-2.04-.3-.11-.61-.22-.91-.33-.68-.25-1.35-.51-2.01-.76-5.34-2.05-9.74-4.61-12.38-11.01-1.11-2.7-1.57-10.21-1.75-15.34,2.54-2.35,4.51-5.38,5.74-10.41.22-.9.48-1.97.74-3.12.7.24,1.26.16,1.73-.12,1.4-.85,1.9-3.49,2.29-4.42.56-1.36,1.31-1.49,2.07-4.5.5-2-.37-3.32-.01-4.61.24-.87.36-3.32-.75-4.16-.11-.08-.24-.13-.38-.17,0-.04,0-.07-.02-.11,1.63-6.28,2.66-16.45-.77-24.25-1.48-3.39-3.32-6.12-5.25-8.29-4.53-5.52-11.97-9.15-20.41-9.21-8.44.06-15.88,3.69-20.41,9.21-1.93,2.17-3.77,4.9-5.25,8.29-3.42,7.8-2.39,17.97-.77,24.25,0,.04-.01.07-.02.11-.14.04-.27.09-.38.17-1.11.84-.99,3.29-.75,4.16.36,1.29-.51,2.61-.01,4.61.76,3.01,1.51,3.14,2.07,4.5.39.93.89,3.57,2.29,4.42.47.28,1.03.37,1.73.12.26,1.15.52,2.22.74,3.12,1.23,5.03,3.2,8.06,5.74,10.41-.18,5.13-.64,12.64-1.75,15.34-2.64,6.4-7.04,8.96-12.38,11.01-.66.26-1.34.51-2.01.76-.3.11-.61.22-.91.33-2.21.8-4.47,1.55-6.68,2.04-.44.1-.86.18-1.28.28-.93.2-1.84.4-2.7.62-.12.03-.24.06-.36.09-.46.12-.9.25-1.33.39-.2.06-.39.13-.59.2-.27.09-.53.19-.79.29-.18.07-.35.14-.52.21-.34.15-.73.34-1.11.54-.03.01-.05.03-.08.04-.58.31-1.13.63-1.24.69,0,0,0,0,0,0-.4.21-.79.46-1.05.69,0,0,0,0,0,0-1.57,1.24-3.19,4.02-4.85,9.73-.09.31-.18.67-.28,1.06-2.63,11.35-6.3,69.68-6.7,76.19-.26,4.22-.85,11.44-1.29,14.93-.08.6-.15,1.09-.21,1.42-.05.27-.1.48-.15.63-.21.69-.42,1.37-.63,2.05-3.99,12.98-7.73,24.8-8.86,34.19-.1.84-.2,1.67-.29,2.47-.11.92-.22,1.83-.32,2.71-.09.73-.18,1.45-.26,2.15-1.36,11.36-2.32,19.45-3.78,30.34-.55,4.19-1.44,5.83-2.01,7.6-.21.66-.38,1.33-.47,2.16-.01.1-.02.21-.02.31-.02.34-.02.69-.02,1.12,0,.74,0,1.7-.13,3.12-.04.43-.08.91-.14,1.44-.11.97-.22,1.83-.33,2.61-.71,5.19-1.28,6.6-1.8,8.89-1.32,5.81-1.86,8.93-1.77,12.88,0,.15,0,.31.01.46.04,1.14.12,2.16.24,3.08.12.92.29,1.75.49,2.5.49,1.82,1.22,3.21,2.2,4.58.13.19.27.37.41.56.56.75,1.12,1.59,1.78,2.5.41.57.86,1.17,1.38,1.79.17.2.34.4.51.59,1.51,1.72,2.09,2.22,2.68,1.88.1-.06.2-.14.31-.25.13-.15.26-.34.39-.56.02-.03.03-.06.05-.09.01-.03.03-.06.04-.08.93-1.75-.21-4.09.05-8.04.03-.42.07-.84.12-1.28.56-4.58,1.35-6.82,1.89-10.81.15-1.13.28-2.4.38-3.91,0-.06,0-.11.01-.16.03-.33.07-.54.13-.68.13-.31.59,3.82,1.94,6.32.28.52.61.96.96,1.29.79.75,1.74,1.03,2.34,1.07.09,0,.17-.03.24-.04.56-.12.97-.4.76-.89-3.46-7.99-.84-13.41-1.8-19.47-.1-.66-.25-1.34-.45-2.04-.34-1.21-.91-2.71-1.31-4.06-.12-.4-.23-.79-.3-1.15-.02-.08-.03-.15-.04-.23-.01-.06-.02-.12-.03-.18-.13-.67-.19-1.28-.14-1.79.01-.15.04-.3.06-.45.17-1.58.6-3.31,1.23-5.2.67-2.04,1.57-4.27,2.63-6.73.34-.78.68-1.58,1.04-2.38,1.46-3.31,2.67-6.13,3.97-9.39,1.54-5.45,3.39-10.29,5.24-15.16.37-.96.73-1.89,1.08-2.82.05-.14.32-.75.75-1.69,0-.01.01-.03.02-.04.08-.18.16-.37.24-.57.11-.26.22-.53.34-.81.21-.6.4-1.2.6-1.8.11-.34.22-.69.33-1.03.05-.15.1-.31.14-.46.13-.41.25-.82.37-1.22.02-.08.05-.17.07-.25.14-.47.28-.94.41-1.41,0,0,0-.02,0-.02,4.2-14.89,5.06-27.01,5.27-28.66.09-.73.22-1.52.37-2.36.03-.16.06-.31.09-.47.76-4.08,2.04-9.2,3.48-14.68,1.07-4.05,2.22-8.3,3.29-12.47.64-2.49,1.26-4.96,1.81-7.33.18-.77.47-2.18.77-3.71.25-1.26.51-2.6.74-3.77.07-.34.13-.67.19-.97.12-.32.22-.58.31-.77,2.2,11.03,2.56,29.09-4.15,43.64-.02.05-.03.11-.04.16-1.52,4.5-2.3,9.22-3.28,14.89-.29,1.56-.61,3.21-.96,4.98-2.84,14.05-2.94,12.07-5.54,21.53-3.17,9.1-7.93,21.13-8.09,41.22v.3c-.02,4.19.15,8.73.58,13.67,1.1,12.52,9.23,39.25,12.26,52.02,6.75,28.39,10.57,45.42,11.06,55.43.65,12.92-.83,16.96-2.15,24.79-2.56,15.21-.69,28.37,2.35,40.42,5.63,22.28,11.53,32.19,12.13,43.89.15,2.91-1.69,4.13-.68,7.83.53,1.92,1.43,3.76.07,8.04-4.59,14.48-10.56,18.28-9.86,23.57.79,5.86,17.35,5.49,23.84,4.17,5.34-1.09,5.27-10.06,3.73-20.34-.31-2.08-.47-4.4-.35-7.96.06-1.75.46-3.8.67-6.28.19-2.28-.37-4.69-.67-6.59-.23-1.45-.47-2.61-.51-3.22-1.43-22.38-.99-27.75,1.39-48.79,2.39-21.26-.97-25.08-.55-38.08.25-7.71,2.22-15.58,2.75-23.92.02-.32.03-.64.05-.96.02.32.03.64.05.96.53,8.34,2.5,16.21,2.75,23.92.42,13-2.94,16.82-.55,38.08,2.38,21.04,2.82,26.41,1.39,48.79-.04.61-.28,1.77-.51,3.22-.3,1.9-.86,4.31-.67,6.59.21,2.48.61,4.53.67,6.28.12,3.56-.04,5.88-.35,7.96-1.54,10.28-1.61,19.25,3.73,20.34,6.49,1.32,23.05,1.69,23.84-4.17.7-5.29-5.27-9.09-9.86-23.57-1.36-4.28-.46-6.12.07-8.04,1.01-3.7-.83-4.92-.68-7.83.6-11.7,6.5-21.61,12.13-43.89,3.04-12.05,4.91-25.21,2.35-40.42-1.32-7.83-2.8-11.87-2.15-24.79.49-10.01,4.31-27.04,11.06-55.43,3.03-12.77,11.16-39.5,12.26-52.02.43-4.94.6-9.48.58-13.67v-.3c-.16-20.09-4.92-32.12-8.09-41.22-2.6-9.46-2.7-7.48-5.54-21.53-.36-1.77-.67-3.42-.96-4.98-.98-5.67-1.76-10.39-3.28-14.89,0-.05-.02-.11-.04-.16-6.71-14.55-6.35-32.61-4.15-43.64.09.19.19.45.31.77.06.3.12.62.19.97.22,1.16.49,2.51.74,3.77.3,1.53.59,2.94.77,3.71.56,2.38,1.17,4.84,1.81,7.33,1.07,4.17,2.22,8.42,3.29,12.47,1.44,5.48,2.72,10.6,3.48,14.68.03.16.06.32.09.47.15.83.28,1.63.37,2.36.21,1.65,1.07,13.76,5.27,28.66,0,0,0,.02,0,.02.13.47.27.94.41,1.41.02.08.05.17.07.25.12.41.25.81.37,1.22.05.15.1.31.14.46.11.34.22.69.33,1.03.19.6.39,1.2.6,1.8.12.28.23.55.34.81.08.2.16.39.24.57,0,.02.01.03.02.04.42.94.69,1.55.75,1.69.35.93.71,1.87,1.08,2.82,1.85,4.87,3.7,9.71,5.24,15.16,1.3,3.26,2.51,6.09,3.97,9.39.35.8.7,1.6,1.04,2.38,1.06,2.46,1.96,4.69,2.63,6.73.63,1.9,1.05,3.62,1.23,5.2.02.14.05.29.06.45.05.51-.02,1.12-.14,1.79,0,.06-.02.12-.03.18-.01.08-.03.15-.04.23-.07.35-.18.74-.3,1.15-.41,1.35-.97,2.85-1.31,4.06-.2.7-.35,1.39-.45,2.04-.95,6.06,1.66,11.47-1.8,19.47-.21.5.19.77.76.89.07.01.14.05.24.04.61-.04,1.55-.32,2.34-1.07.35-.34.68-.78.96-1.29,1.34-2.49,1.81-6.63,1.94-6.32.06.15.1.35.13.68,0,.05,0,.1.01.16.1,1.51.23,2.78.38,3.91.53,3.99,1.33,6.23,1.89,10.81.05.44.09.86.12,1.28.25,3.95-.89,6.29.05,8.04.02.03.03.06.04.08.02.03.03.06.05.09.13.22.25.41.39.56.1.11.21.19.31.25.59.34,1.17-.16,2.68-1.88.17-.19.34-.39.51-.59.52-.62.97-1.22,1.38-1.79.66-.91,1.22-1.75,1.78-2.5.14-.19.28-.38.41-.56.98-1.36,1.71-2.76,2.2-4.58.2-.75.37-1.58.49-2.5.12-.92.2-1.94.24-3.08,0-.15.01-.31.01-.46.09-3.95-.45-7.07-1.77-12.88ZM89.26,347.18c-.83,16.26-.81,19.58-3.39,40.15-.5,3.97-.98,8.63-1.23,13.69-.25-5.07-.74-9.73-1.23-13.69-2.58-20.57-2.56-23.89-3.39-40.15-.9-17.66,3.85-26.31,1.14-41.54.6.25,2.03.35,3.48.37,1.46-.02,2.88-.12,3.48-.37-2.71,15.23,2.04,23.88,1.14,41.54Z"/>
    </g>
  </g>
</svg>