<?xml version="1.0" encoding="UTF-8"?>
<svg id="_레이어_2" data-name="레이어 2" xmlns="http://www.w3.org/2000/svg" viewBox="0 0 169.27 571.62">
  <defs>
    <style>
      .cls-1 {
        fill: #f3a9aa;
        stroke: #231815;
        stroke-miterlimit: 10;
      }
    </style>
  </defs>
  <g id="_레이어_1-2" data-name="레이어 1">
    <path class="cls-1" d="m38.49,105.21c-.53.21-1.19.55-1.48.68-.02,0-.04.02-.06.03-.84.39-2.12,1.19-2.28,1.41,0,0,0,0,0,0-1.5,1-3.06,3.34-4.66,8.29-.23.71-.46,1.51-.69,2.42-2.67,10.53-6.36,69.81-6.77,76.38-.27,4.41-.91,12.09-1.34,15.38-.09.7-.18,1.21-.25,1.44-.07.22-.13.44-.2.66-.16.52-.32,1.04-.48,1.56-3.99,12.98-7.73,24.8-8.86,34.19-.1.83-.19,1.64-.29,2.44-.11.93-.22,1.84-.33,2.72-.09.74-.18,1.46-.26,2.17-1.36,11.36-2.32,19.45-3.78,30.34-.49,3.73-1.21,5.27-1.74,7.05-.31,1.03-.68,1.85-.75,3.07-.02.32-.02.74-.08,1.39-.03.34-.04.7-.05,1.1-.03.87-.05,1.85-.21,3.16s-.35,1.97-.5,2.86c-.15.94-.26,1.8-.38,2.58-.77,5-1.25,6.76-1.65,9.34-.9,5.86-1.2,8.86-.51,12.59.26,1.37.58,2.69,1.14,3.92.62,1.36.89,1.99,1.29,2.19.71.88.92,1.28,1.84,1.15.55.32,1.09.85,1.79,1.4.34.26.76.49,1.17.81,1.71,1.32,2.17,1.41,2.65.18.19-.48.14-1.1.34-1.83.07-.24.18-.35.26-.41,0-.02.02-.04.03-.06,0-.02.01-.04.02-.06.4-1.01-.51-1.98.52-4.47.44-1.07,1.47-2.19,1.54-3.48.13-2.37.32-4.42.49-7.19.07-1.19.14-2.48.21-3.92,0-.06,0-.1.01-.13.13-1.04.78,2.4,1.91,3.19.92.64,2.12-.12,2.37-.99.03-.11.04-.23,0-.36-2.07-5.67-.98-10.37-.13-15.28.39-2.27.68-4.39.62-6.68-.21-1.84-.85-4.27-1.01-6.08-.04-.43-.06-.83-.02-1.16,0-.08.02-.16.04-.25.01-.07.02-.13.03-.2.54-3.56,2.05-7.53,4.01-12.13.19-.44.51-1.17.92-2.08.34-.8.65-1.58.97-2.34.02-.04.03-.08.05-.12.3-.74.6-1.48.88-2.2.02-.04.03-.08.05-.12,2.52-6.42,4.51-12.44,7.56-22.32.29-.95.57-1.92.85-2.89.06-.19.11-.38.16-.57,0-.01,0-.02.01-.03.13-.82.21-1.41.28-1.69.1-.42.2-.87.32-1.32.06-.23.13-.46.2-.68.1-.34.2-.68.29-1.01.04-.15.09-.3.13-.46.12-.4.23-.81.34-1.21.02-.08.04-.16.07-.24.13-.47.26-.94.39-1.4,0,0,0-.01,0-.02,3.53-13.36,5.21-25.23,5.86-28.94.12-.67.24-1.47.4-2.33.03-.15.05-.29.08-.44.43-2.29,1.01-4.99,1.6-7.47.54-1.17,1.12-2.41,1.7-3.68.92-2.03,1.86-4.13,2.66-6.18.53-1.37.95-2.73,1.39-3.99.12-.35.38-1.43.6-2.53.15-.72.28-1.45.36-1.95.03-.19.06-.36.08-.5.06.5.11,1.01.17,1.51-.44,2.19-1.15,5.61-2.05,9.79h0s-.02.09-.02.14c-1.21,5.87-2.2,13.16-3.46,21.48-.56,3.6-1.04,6.87-1.51,9.96-.77,5.01-1.41,9.1-2.29,14.33-.34,1.51-.72,3.11-1.1,4.82-2.68,11.84-3.17,11.97-5.45,21.09-1.46,4.87-3.2,10.53-4.45,17.6-.02.08-.03.23-.05.31-.73,4.26-1.28,9.03-1.5,14.42-.11,2.54-.1,5.31.02,8.28,0,.02,0,.27.01.29.17,4.08.5,8.54,1.13,13.33,1.18,9.01,4.93,22.77,7.87,33.99,1.69,6.45,3.26,12.41,4.34,16.98,4.43,18.75,7.45,32.16,8.87,41.71.78,5.23,1.16,9.36,1.22,12.72.12,5.9-.22,9.88-.74,13.71-.48,3.66-1.11,6.76-1.66,10.58-1.68,11.93-.67,22.6,1.4,32.47.51,2.43,1.07,4.79,1.67,7.09,5.05,19.45,10.2,29.23,11.43,39.58.14,1.19.14,2.31.12,3.44-.03,1.83-.73,3.06-.74,4.92,0,.79.09,1.66.36,2.74.38,1.52.9,3.08.3,5.87-.14.63-.32,1.3-.55,2.03-4.56,14.09-10.39,17.86-9.7,23.09.79,5.86,17.35,5.49,23.84,4.17,5.34-1.09,5.27-10.06,3.73-20.34-.31-2.08-.47-4.4-.35-7.96.06-1.75.46-3.8.67-6.28.19-2.28-.37-4.69-.67-6.59-.23-1.45-.47-2.61-.51-3.22-1.43-22.38-.99-27.75,1.39-48.79,2.39-21.26-.97-25.08-.55-38.08.25-7.71,2.22-15.58,2.75-23.92.66-10.47-.25-20.35-1.18-27.8-2.58-20.57-2.56-23.89-3.39-40.15-.9-17.66,3.85-26.31,1.14-41.54.63.26,2.17.36,3.7.37h0c1.53-.01,3.07-.11,3.7-.37-2.71,15.23,2.04,23.88,1.14,41.54-.83,16.26-.81,19.58-3.39,40.15-.93,7.45-1.84,17.33-1.18,27.8.53,8.34,2.5,16.21,2.75,23.92.42,13-2.94,16.82-.55,38.08,2.38,21.04,2.82,26.41,1.39,48.79-.04.61-.28,1.77-.51,3.22-.3,1.9-.86,4.31-.67,6.59.21,2.48.61,4.53.67,6.28.12,3.56-.04,5.88-.35,7.96-1.54,10.28-1.61,19.25,3.73,20.34,6.49,1.32,23.05,1.69,23.84-4.17.7-5.29-5.27-9.09-9.86-23.57-1.36-4.28-.46-6.12.07-8.04,1.01-3.7-.83-4.92-.68-7.83.6-11.7,6.5-21.61,12.13-43.89,3.04-12.05,4.91-25.21,2.35-40.42-1.32-7.83-2.8-11.87-2.15-24.79.49-10.01,4.31-27.04,11.06-55.43,3.03-12.77,11.16-39.5,12.26-52.02.43-4.94.6-9.48.58-13.67v-.3c-.16-20.09-4.92-32.12-8.09-41.22-2.6-9.46-2.7-7.48-5.54-21.53-.36-1.77-.67-3.41-.96-4.97-.71-5.09-1.39-10.05-2.34-14.97,0-.06-.02-.13-.03-.19-3.83-17.1-5.49-35.5-5.27-42.77.11-.28.22-.54.34-.77.05.28.12.61.18.96.21,1.09.47,2.45.74,3.77.36,1.82.72,3.58.92,4.47.56,2.38,1.17,4.84,1.82,7.34,1.07,4.16,2.22,8.4,3.28,12.45,1.44,5.48,2.72,10.61,3.48,14.69.03.16.05.3.08.46.15.84.28,1.64.37,2.37.21,1.65,1.16,13.74,5.27,28.66,0,0,0,.02,0,.02.13.47.27.95.42,1.42.02.08.05.17.07.25.12.41.25.82.38,1.23.05.15.1.31.14.46.11.34.22.69.33,1.03.11.35.23.71.35,1.07.1.27.2.55.3.82.07.19.14.38.21.57,0,.01.01.02.02.03.18.44.32.77.38.95.35.98.69,1.94,1.03,2.87,2.19,6.12,3.94,10.85,5.46,15.25,1.34,3.42,2.54,6.27,3.95,9.5.34.78.69,1.58,1.05,2.39,1.08,2.46,2.01,4.69,2.75,6.75.67,1.89,1.18,3.62,1.46,5.21.03.15.06.3.08.46.1.6.13,1.21.12,1.83,0,.06,0,.13,0,.19,0,.08,0,.16,0,.24-.01.34-.09.74-.19,1.17-.3,1.24-.86,2.76-1.29,4.1-.23.72-.43,1.41-.57,2.03-1.41,6.28,1.47,11.69-1.65,19.68-.2.52-.17.99-.2,1.38,0,.09,0,.17.07.23.32.31,1.44.24,2.47-.42.43-.27.84-.64,1.19-1.13,1.32-1.83,1.92-5.34,2.2-6.43.13-.5.2-.78.24-.64,0,.03.01.07.02.14.08,1.52.2,2.8.34,3.94.5,4.26,1.31,6.48,1.9,10.9.05.41.1.84.15,1.27.4,4.02-.69,6.46-.07,8.26.01.03.02.06.03.09.01.03.03.06.04.09.09.23.19.43.33.62.09.13.18.23.27.33.67.74,1.14.46,2.72-1.32.16-.19.34-.38.52-.59.53-.62.98-1.21,1.4-1.78.67-.91,1.24-1.76,1.79-2.52.14-.19.28-.38.42-.57,1.02-1.38,1.79-2.77,2.32-4.57.22-.76.4-1.59.54-2.52.13-.92.22-1.94.27-3.1,0-.16.01-.32.02-.49.12-4.06-.42-7.18-1.76-13.11-.52-2.29-1.09-3.7-1.8-8.89-.11-.78-.21-1.63-.33-2.6-.06-.52-.11-.99-.14-1.42-.12-1.44-.13-2.4-.13-3.15,0-.42,0-.77-.03-1.1,0-.11,0-.22-.02-.33-.09-.83-.26-1.51-.48-2.17-.57-1.77-1.46-3.41-2.01-7.59-1.46-10.89-2.42-18.98-3.78-30.34-.09-.71-.17-1.43-.26-2.17-.11-.88-.21-1.79-.33-2.72-.1-.8-.19-1.61-.29-2.45-1.13-9.39-4.87-21.21-8.86-34.19-.18-.57-.35-1.15-.53-1.72-.06-.2-.12-.41-.18-.65-.07-.27-.15-.77-.24-1.44-.44-3.36-1.06-10.88-1.32-15.23-.41-6.62-4.2-66.78-6.83-76.72-.1-.38-.2-.74-.31-1.08-1.79-5.96-3.54-8.56-5.21-9.55,0,0,0,0,0,0-.09-.08-.55-.36-1.08-.65,0,0,0,0,0,0-.32-.18-.82-.46-1.26-.67-.03-.01-.05-.02-.08-.03-.38-.18-.77-.34-1.15-.49-.18-.07-.36-.14-.55-.2-.26-.09-.53-.18-.8-.27-.2-.06-.4-.13-.61-.19-.44-.13-.88-.25-1.33-.36-.12-.03-.24-.06-.36-.09-.79-.19-1.61-.37-2.44-.54-.29-.06-.57-.12-.86-.19-2.22-.49-4.47-1.24-6.68-2.04-.3-.11-.61-.22-.91-.33-.68-.25-1.35-.51-2.02-.76-5.34-2.05-9.74-4.61-12.38-11.01-1.11-2.7-1.57-10.21-1.75-15.34,2.54-2.35,4.51-5.38,5.74-10.41.22-.9.48-1.97.74-3.12.69.24,1.26.16,1.73-.12,1.4-.85,1.91-3.49,2.29-4.42.56-1.36,1.31-1.49,2.07-4.5.5-2-.37-3.32-.01-4.61.24-.87.36-3.32-.75-4.16-.09-.07-.19-.11-.3-.14-.04-.03-.07-.05-.11-.08,1.63-6.27,2.68-16.49-.75-24.31-1.48-3.39-3.32-6.12-5.25-8.29-4.57-5.57-12.1-9.22-20.63-9.22-2.53,0-4.98.33-7.29.93-5.46,1.42-10.14,4.37-13.35,8.3-1.93,2.16-3.77,4.9-5.25,8.29-3.44,7.84-2.38,18.08-.74,24.34-.15.05-.29.1-.41.18,0,0,0,0,0,0,0,0,0,0,0,0,0,0,0,0,0,0-1.11.84-.99,3.29-.75,4.16.35,1.29-.52,2.6-.01,4.61.76,3,1.5,3.13,2.07,4.5.51,1.24,1.24,5.52,4.02,4.54.26,1.14.52,2.22.74,3.12,1.23,5.03,3.2,8.06,5.74,10.41-.18,5.13-.64,12.64-1.75,15.34-2.38,5.76-6.19,8.41-10.82,10.38-.36.15-.72.3-1.09.45-.21.08-.41.16-.62.24-2.82,1.09-5.8,2.18-8.71,2.9-.34.08-.67.16-1,.23-.15.03-.29.06-.44.09-.08.02-.15.03-.23.05-.8.17-1.57.34-2.33.52-.12.03-.25.06-.37.09-.46.12-.91.24-1.35.37-.21.06-.41.13-.62.19-.27.09-.54.17-.8.27-.19.07-.37.13-.55.2Z"/>
  </g>
</svg>