<?xml version="1.0" encoding="UTF-8"?>
<svg id="_레이어_2" data-name="레이어 2" xmlns="http://www.w3.org/2000/svg" viewBox="0 0 169.28 571.62">
  <defs>
    <style>
      .cls-1 {
        fill: #f3a9aa;
        stroke: #231815;
        stroke-miterlimit: 10;
      }
    </style>
  </defs>
  <g id="_레이어_1-2" data-name="레이어 1">
    <path class="cls-1" d="m37.88,105.46c-.78.34-1.99,1.05-2.08,1.09,0,0-.01.01-.02.02-.71.34-1.57.98-2.07,1.64,0,0,0,0,0,0-1.31,1.41-2.66,4.01-4.05,8.62-.19.63-.39,1.44-.58,2.41-2.64,13.16-6.11,68.82-6.5,75.17-.27,4.41-.91,12.1-1.34,15.39-.09.69-.18,1.19-.25,1.43s-.14.44-.2.66c-.16.52-.32,1.04-.48,1.56-3.99,12.98-7.73,24.8-8.86,34.19-.1.83-.19,1.64-.29,2.44-.11.93-.22,1.84-.33,2.73-.09.74-.18,1.46-.26,2.17-1.36,11.36-2.32,19.45-3.78,30.34-.67,5.07-1.74,6.24-2.23,8.86-.12.63-.26,1.2-.28,1.98s-.02,1.77-.21,3.5c-.04.37-.07.74-.11,1.11-.11,1.1-.21,2.12-.36,3.15-.43,3.02-.86,4.13-1.21,5.78-.19.92-.35,1.77-.5,2.56-.88,4.6-1.26,7.04-1.35,10.23-.14,5.58.39,8.36,1.99,11.33.75,1.38,1.55,2.94,2.81,4.56,1.7,2.19,1.96,2.43,2.77,1.57.98-1.04-.13-2.63.75-5.76.24-.84.64-1.42.96-1.97.24-.41.43-.8.67-1.16.72-.42,1.11-1.29,1.41-2.7.28-1.27.31-2.78.53-4.76.03-.28.1-.2.19.09,0,0,.01.01.02.02,0,0,0,0,.01.02.4.63.6,3.02,1.82,3.31,1.24.92,3.35.43,3.07-.62-.67-2.48-.99-4.65-1.1-6.96-.06-1.28-.06-2.55-.01-3.85,0-.05,0-.09,0-.13.12-2.78.67-3.83.48-6.01-.11-1.24-.74-3.84-.58-5.22.02-.14.03-.28.03-.41-.5-4.41,1.07-9.1,3.1-14.62,1.1-3,2.03-5.57,2.86-8.46.29-2,.48-4.1.81-5.94.07-.38.14-.75.23-1.1.02-.08.04-.16.07-.25.02-.07.04-.13.06-.2,1.09-3.84,2.53-7.47,4-11.05.1-.26.61-1.38,1.36-3.02.29-.78.56-1.56.83-2.32.01-.03.02-.07.04-.1.26-.73.5-1.46.74-2.18.01-.03.02-.07.03-.1,2.6-7.86,4.27-15.08,5.74-22.12.21-1.01.37-1.97.54-2.88.04-.19.07-.39.1-.57,0-.01,0-.03,0-.04.26-2.07.38-3.45.45-3.92.11-.72.24-1.5.41-2.33.05-.22.1-.43.15-.65.07-.32.15-.64.22-.97.03-.14.07-.29.1-.44.09-.38.18-.77.28-1.16.02-.07.03-.14.05-.21.11-.44.22-.89.33-1.35,0,0,0-.01,0-.02,2.49-10.22,5.36-21.7,7.02-29.51.12-.55.26-1.33.44-2.21.03-.14.05-.28.08-.42.46-2.34,1.05-5.31,1.45-7.19.52.99,1.02,2.04,1.47,3.14.72,1.73,1.29,3.59,1.63,5.51.21,1.17.35,2.36.31,3.56-.03.9-.1,1.56-.2,2.19-.09.53-.2,1.05-.37,1.63-.04.13-.08.26-.12.41-.06.48-.14.96-.22,1.43-.77,2.73-1.85,5.8-3.26,9h0s-.03.1-.03.15c-1.92,5.57-2.72,11.92-4.29,20.39-.77,4.1-1.34,7.06-1.84,9.48-1,4.79-1.63,6.86-3.12,12.96-.43,1.43-.92,2.92-1.39,4.52-2.19,7.47-3.64,11.76-5.27,20.2-1.02,4.94-1.95,10.59-2.4,17.26,0,.03-.01.28-.02.3-.26,4.21-.33,8.83-.11,13.92.09,2.3.37,4.97.78,7.9.01.06.02.2.04.26.54,3.86,1.28,8.15,2.22,12.64,2.25,10.73,5.96,23.69,8.15,32.51,1.49,6.03,2.85,11.59,3.97,16.38,4.41,18.92,7.09,31.65,7.81,40.14.44,5.18.5,9.06.34,12.27-.25,5.11-.91,8.66-1.62,13.07-.55,3.52-.99,6.78-1.28,10.21-.93,11.37.51,21.58,2.76,31.08.56,2.37,1.15,4.63,1.74,6.78,5.04,18.32,9.95,27.61,10.71,38.04.09,1.24-.12,2.24-.31,3.26-.27,1.45-.72,2.72-.35,4.74.14.79.36,1.59.56,2.58.28,1.4.44,3.04-.29,5.65-.18.65-.39,1.3-.61,1.95-4.51,13.31-10.06,17.03-9.39,22.14.79,5.86,17.35,5.49,23.84,4.17,5.34-1.09,5.27-10.06,3.73-20.34-.31-2.08-.47-4.4-.35-7.96.06-1.75.46-3.8.67-6.28.19-2.28-.37-4.69-.67-6.59-.23-1.45-.47-2.61-.51-3.22-1.43-22.38-.99-27.75,1.39-48.79,2.39-21.26-.97-25.08-.55-38.08.25-7.71,2.22-15.58,2.75-23.92.66-10.47-.25-20.35-1.18-27.8-2.58-20.57-2.56-23.89-3.39-40.15-.9-17.66,3.85-26.31,1.14-41.54.63.26,2.17.36,3.7.37h0c1.53-.01,3.07-.11,3.7-.37-2.71,15.23,2.04,23.88,1.14,41.54-.83,16.26-.81,19.58-3.39,40.15-.93,7.45-1.84,17.33-1.18,27.8.53,8.34,2.5,16.21,2.75,23.92.42,13-2.94,16.82-.55,38.08,2.38,21.04,2.82,26.41,1.39,48.79-.04.61-.28,1.77-.51,3.22-.3,1.9-.86,4.31-.67,6.59.21,2.48.61,4.53.67,6.28.12,3.56-.04,5.88-.35,7.96-1.54,10.28-1.61,19.25,3.73,20.34,6.49,1.32,23.05,1.69,23.84-4.17.7-5.29-5.27-9.09-9.86-23.57-1.36-4.28-.46-6.12.07-8.04,1.01-3.7-.83-4.92-.68-7.83.6-11.7,6.5-21.61,12.13-43.89,3.04-12.05,4.91-25.21,2.35-40.42-1.32-7.83-2.8-11.87-2.15-24.79.49-10.01,4.31-27.04,11.06-55.43,3.03-12.77,11.16-39.5,12.26-52.02.43-4.94.6-9.48.58-13.67v-.3c-.16-20.09-4.92-32.12-8.09-41.22-2.6-9.46-2.7-7.48-5.54-21.53-.36-1.77-.67-3.42-.96-4.98-.98-5.67-1.76-10.39-3.28-14.89,0-.05-.02-.11-.04-.16-6.71-14.55-6.35-32.61-4.15-43.64.09.19.19.45.31.77.06.3.12.62.19.97.22,1.16.49,2.51.74,3.77.3,1.53.59,2.94.77,3.71.56,2.38,1.17,4.84,1.82,7.33,1.07,4.17,2.22,8.42,3.29,12.47,1.44,5.48,2.72,10.6,3.48,14.68.03.16.06.32.09.47.15.83.28,1.63.37,2.36.21,1.65,1.07,13.76,5.27,28.66,0,0,0,.01,0,.02.13.47.27.94.41,1.41.02.08.05.17.07.25.12.41.25.81.37,1.22.05.15.1.31.14.46.11.34.22.69.33,1.03.19.6.39,1.2.6,1.8.12.28.23.55.34.81.08.2.16.39.24.57,0,.02.01.03.02.04.42.94.69,1.55.75,1.69.35.93.71,1.87,1.08,2.82,1.85,4.87,3.7,9.71,5.24,15.16,1.3,3.26,2.51,6.09,3.97,9.39.35.8.7,1.6,1.04,2.38,1.06,2.46,1.96,4.69,2.63,6.73.63,1.9,1.05,3.62,1.23,5.2.02.14.05.29.06.45.05.51-.02,1.12-.14,1.79,0,.06-.02.12-.03.18-.01.08-.03.15-.04.23-.07.35-.18.74-.3,1.15-.4,1.35-.97,2.85-1.31,4.06-.2.7-.35,1.39-.45,2.04-.95,6.06,1.66,11.47-1.79,19.47-.21.5.19.77.76.89.07.01.14.05.24.04.61-.04,1.55-.32,2.34-1.07.35-.34.68-.78.96-1.3,1.34-2.49,1.81-6.63,1.94-6.32.06.15.1.35.13.68,0,.05,0,.1.01.16.1,1.51.23,2.78.38,3.91.53,3.99,1.33,6.23,1.89,10.81.05.44.09.86.12,1.28.25,3.95-.89,6.29.05,8.04.02.03.03.06.04.08.02.03.03.06.05.09.13.23.25.41.39.56.1.11.21.19.31.25.59.34,1.17-.16,2.68-1.88.17-.19.34-.39.51-.59.52-.62.97-1.22,1.38-1.79.66-.91,1.22-1.75,1.78-2.5.14-.19.28-.38.41-.56.98-1.36,1.71-2.76,2.2-4.58.2-.75.37-1.58.49-2.5.12-.92.2-1.94.24-3.08,0-.15,0-.31.01-.46.09-3.95-.45-7.07-1.77-12.88-.52-2.29-1.09-3.7-1.8-8.89-.11-.78-.22-1.64-.33-2.61-.06-.53-.11-1.01-.14-1.44-.12-1.43-.13-2.38-.13-3.12,0-.43,0-.78-.02-1.12,0-.1-.01-.21-.02-.31-.09-.83-.26-1.5-.47-2.16-.57-1.77-1.46-3.42-2.01-7.6-1.46-10.89-2.42-18.98-3.78-30.34-.09-.7-.17-1.42-.26-2.15-.11-.88-.21-1.78-.32-2.71-.1-.8-.19-1.63-.29-2.47-1.13-9.39-4.87-21.21-8.86-34.19-.21-.69-.42-1.37-.63-2.05-.05-.15-.09-.37-.15-.63-.06-.33-.13-.82-.21-1.42-.43-3.49-1.03-10.71-1.29-14.93-.4-6.51-4.08-64.83-6.7-76.19-.09-.4-.18-.75-.28-1.06-1.67-5.71-3.29-8.49-4.85-9.73,0,0,0,0,0,0-.26-.23-.64-.48-1.05-.69,0,0,0,0,0,0-.11-.06-.65-.38-1.24-.69-.03-.01-.05-.03-.08-.04-.38-.2-.77-.39-1.11-.54-.17-.07-.34-.14-.52-.21-.26-.1-.52-.2-.79-.29-.19-.07-.39-.13-.59-.2-.43-.14-.88-.27-1.33-.39-.12-.03-.24-.06-.36-.09-.87-.23-1.77-.42-2.7-.62-.42-.09-.84-.18-1.28-.28-2.21-.49-4.47-1.24-6.68-2.04-.3-.11-.61-.22-.91-.33-.68-.25-1.35-.51-2.01-.76-5.34-2.05-9.74-4.61-12.38-11.01-1.11-2.7-1.57-10.21-1.75-15.34,2.54-2.35,4.51-5.38,5.74-10.41.22-.9.48-1.97.74-3.12.7.24,1.26.16,1.73-.12,1.4-.85,1.9-3.49,2.29-4.42.56-1.36,1.31-1.49,2.07-4.5.5-2-.37-3.32-.01-4.61.24-.87.36-3.32-.75-4.16-.11-.08-.24-.13-.38-.17,0-.04,0-.07-.02-.11,1.63-6.28,2.66-16.45-.77-24.25-1.48-3.39-3.32-6.12-5.25-8.29-4.57-5.57-12.1-9.22-20.63-9.22-2.55,0-5.01.33-7.33.93-5.44,1.42-10.1,4.38-13.31,8.29-1.93,2.17-3.77,4.9-5.25,8.29-3.44,7.84-2.38,18.08-.74,24.35-.15.04-.3.09-.42.18,0,0,0,0,0,0,0,0,0,0,0,0,0,0,0,0,0,0-1.1.85-.98,3.29-.74,4.15.36,1.29-.52,2.61-.01,4.61.76,3.01,1.51,3.14,2.07,4.5.52,1.24,1.24,5.52,4.02,4.54.26,1.15.52,2.22.74,3.12,1.23,5.03,3.2,8.06,5.74,10.41-.18,5.13-.64,12.64-1.75,15.34-2.43,5.88-6.34,8.52-11.1,10.5-.37.15-.74.3-1.12.45-.21.08-.42.16-.63.24-2.89,1.11-5.92,2.22-8.89,2.9-.35.08-.69.15-1.03.23-.15.03-.3.07-.44.1-.08.02-.16.03-.24.05-.81.17-1.61.35-2.37.55-.13.03-.26.07-.39.1-.47.13-.94.26-1.39.4-.21.07-.42.14-.62.21-.27.09-.53.19-.79.29-.18.07-.37.14-.54.22Z"/>
  </g>
</svg>