<?xml version="1.0" encoding="UTF-8"?>
<svg id="_레이어_2" data-name="레이어 2" xmlns="http://www.w3.org/2000/svg" viewBox="0 0 169.72 571.62">
  <defs>
    <style>
      .cls-1 {
        fill: #f3a9aa;
        stroke: #231815;
        stroke-miterlimit: 10;
      }
    </style>
  </defs>
  <g id="_레이어_1-2" data-name="레이어 1">
    <path class="cls-1" d="m169.2,325.78c.13-4.11-.4-7.24-1.76-13.22-.52-2.29-1.09-3.7-1.8-8.9-.11-.77-.21-1.63-.32-2.59-.06-.52-.11-.98-.14-1.41-.12-1.45-.13-2.41-.13-3.17,0-.42,0-.76-.03-1.09,0-.11,0-.22-.02-.33-.09-.84-.26-1.51-.48-2.18-.57-1.76-1.45-3.41-2.01-7.58-1.46-10.89-2.42-18.98-3.78-30.34-.09-.71-.17-1.44-.26-2.17-.11-.89-.21-1.79-.33-2.72-.09-.79-.19-1.6-.29-2.43-1.13-9.39-4.9-21.2-8.86-34.19-.16-.52-.32-1.04-.48-1.56-.07-.22-.13-.44-.2-.66-.07-.23-.16-.75-.25-1.45-.44-3.3-1.07-10.97-1.34-15.38-.41-6.67-4.26-67.76-6.9-76.98-1.97-6.87-3.88-9.63-5.71-10.54h0s-1.49-.9-2.39-1.31c-.03-.01-.05-.02-.08-.03-.38-.17-.77-.32-1.17-.47-.18-.07-.37-.13-.56-.19-.26-.09-.53-.17-.8-.25-.2-.06-.41-.12-.62-.18-.44-.12-.88-.24-1.33-.35-.12-.03-.24-.06-.36-.08-.75-.18-1.52-.34-2.31-.51-.22-.05-.43-.09-.66-.14-2.21-.5-4.47-1.24-6.68-2.05-.3-.11-.6-.22-.91-.33-.68-.25-1.35-.51-2.02-.76-5.34-2.05-9.74-4.61-12.38-11.01-1.11-2.7-1.57-10.21-1.75-15.34,2.54-2.35,4.51-5.38,5.74-10.41.22-.9.48-1.97.74-3.12.69.24,1.26.16,1.72-.12,1.4-.85,1.91-3.49,2.3-4.42.56-1.36,1.32-1.49,2.07-4.5.51-2-.37-3.32-.01-4.61.24-.87.36-3.32-.75-4.16-.08-.06-.17-.09-.26-.13-.05-.02-.1-.04-.16-.06,1.64-6.27,2.7-16.51-.74-24.34-1.48-3.39-3.32-6.12-5.25-8.29-4.57-5.57-12.1-9.22-20.63-9.22-2.53,0-4.96.33-7.27.92-5.47,1.41-10.15,4.37-13.37,8.3-1.93,2.16-3.77,4.9-5.25,8.29-3.44,7.84-2.38,18.08-.74,24.34-.16.05-.29.1-.41.18,0,0,0,0,0,0h0s0,0,0,0c-1.11.84-.99,3.29-.75,4.16.35,1.29-.52,2.6-.01,4.61.75,3,1.51,3.13,2.07,4.5.52,1.24,1.24,5.52,4.02,4.54.26,1.14.52,2.22.74,3.12,1.23,5.03,3.2,8.06,5.74,10.41-.18,5.13-.64,12.64-1.75,15.34-2.35,5.71-6.12,8.36-10.68,10.32-.55.24-1.12.47-1.7.69-3.11,1.2-6.41,2.41-9.61,3.14-.22.05-.44.09-.66.14-.79.16-1.56.33-2.31.51-.12.03-.24.06-.36.08-.45.11-.9.23-1.33.35-.21.06-.41.12-.62.18-.27.08-.54.17-.8.25-.19.06-.38.13-.56.19-.4.15-.79.3-1.17.47-.03.01-.05.02-.08.03-.9.41-2.39,1.3-2.39,1.3h0c-1.83.92-3.74,3.68-5.71,10.55-2.64,9.22-6.49,70.31-6.9,76.98-.27,4.41-.91,12.08-1.34,15.38-.09.7-.18,1.21-.25,1.45-.07.22-.13.44-.2.66-.16.52-.32,1.04-.48,1.56-3.96,12.99-7.73,24.8-8.86,34.19-.1.83-.19,1.64-.29,2.43-.11.93-.22,1.84-.33,2.72-.09.74-.18,1.46-.26,2.17-1.36,11.36-2.32,19.45-3.78,30.34-.41,3.06-.99,4.76-1.5,6.15-.45,1.22-.83,2.19-.99,3.61-.01.11-.01.22-.02.33-.02.33-.03.68-.03,1.09,0,.75,0,1.72-.13,3.17-.04.43-.08.89-.14,1.41-.11.96-.22,1.81-.32,2.59-.71,5.2-1.28,6.61-1.8,8.9-1.36,5.98-1.89,9.11-1.76,13.22.05,1.36.15,2.55.3,3.6.14.93.32,1.75.55,2.5.54,1.81,1.34,3.2,2.39,4.6.68.9,1.37,1.95,2.21,3.08.43.58.89,1.18,1.43,1.8,2.06,2.36,2.51,2.67,3.27,1.62.08-.11.16-.23.25-.37.13-.21.22-.43.3-.65.01-.03.02-.06.03-.1,0-.03.01-.06.02-.09.46-1.83-.61-4.31-.13-8.37.61-5.22,1.52-7.4,2.06-12.21.13-1.15.24-2.44.31-3.96,0-.07,0-.11.02-.13.13-.17.77,5.58,2.63,7.78,1.38,1.63,3.58,1.75,3.85,1.13.04-.09.05-.2-.01-.33-4.04-8.9-.5-14.6-2.25-21.41-.46-1.76-1.53-4.34-1.92-6.15-.09-.45-.15-.86-.14-1.19,0-.08.01-.16.02-.24,0-.07.01-.14.02-.2.26-3.42,1.81-7.57,4.01-12.66.23-.53.46-1.06.7-1.61.36-.81.7-1.59,1.03-2.36.02-.04.04-.08.05-.12.33-.75.64-1.48.95-2.21.02-.04.03-.08.05-.12,2.44-5.72,4.54-11.16,8.47-22.43.33-.93.66-1.89,1.01-2.9.07-.19.13-.38.2-.57,0-.01,0-.02.01-.03.07-.19.13-.38.19-.58.09-.27.18-.55.27-.82.08-.23.15-.47.23-.7.11-.35.22-.69.33-1.04.05-.16.1-.31.14-.47.13-.41.25-.83.38-1.24.03-.08.05-.17.08-.25.14-.48.28-.96.42-1.43,0,0,0-.02,0-.02,4.26-14.88,5.06-27,5.27-28.65.09-.73.23-1.54.38-2.38.03-.15.05-.29.08-.45.75-4.09,2.04-9.21,3.48-14.69,1.03-3.91,2.13-8,3.17-12.02.68-2.64,1.34-5.25,1.93-7.76.22-.97.62-2.92,1.01-4.89.27-1.34.53-2.69.73-3.74.07-.35.13-.67.18-.95.13.51.24,1.04.36,1.54-.78,5.41-3.46,24.09-5.86,42.53-.66,5.12-1.3,10.21-1.88,15.01-.29,1.56-.6,3.2-.96,4.96-2.84,14.05-2.94,12.07-5.54,21.53-3.17,9.1-7.93,21.13-8.09,41.22v.3c-.02,4.19.15,8.73.58,13.67,1.1,12.52,9.23,39.25,12.26,52.02,6.75,28.39,10.57,45.42,11.06,55.43.65,12.92-.83,16.96-2.15,24.79-2.56,15.21-.69,28.37,2.35,40.42,5.63,22.28,11.53,32.19,12.13,43.89.15,2.91-1.69,4.13-.68,7.83.53,1.92,1.43,3.76.07,8.04-4.59,14.48-10.56,18.28-9.86,23.57.79,5.86,17.35,5.49,23.84,4.17,5.34-1.09,5.27-10.06,3.73-20.34-.31-2.08-.47-4.4-.35-7.96.06-1.75.46-3.8.67-6.28.19-2.28-.37-4.69-.67-6.59-.23-1.45-.47-2.61-.51-3.22-1.43-22.38-.99-27.75,1.39-48.79,2.39-21.26-.97-25.08-.55-38.08.25-7.71,2.22-15.58,2.75-23.92.66-10.47-.25-20.35-1.18-27.8-2.58-20.57-2.56-23.89-3.39-40.15-.9-17.66,3.85-26.31,1.14-41.54.63.26,2.17.36,3.7.37,1.53-.01,3.07-.11,3.7-.37-2.71,15.23,2.04,23.88,1.14,41.54-.83,16.26-.81,19.58-3.39,40.15-.93,7.45-1.84,17.33-1.18,27.8.53,8.34,2.5,16.21,2.75,23.92.42,13-2.94,16.82-.55,38.08,2.38,21.04,2.82,26.41,1.39,48.79-.04.61-.28,1.77-.51,3.22-.3,1.9-.86,4.31-.67,6.59.21,2.48.61,4.53.67,6.28.12,3.56-.04,5.88-.35,7.96-1.54,10.28-1.61,19.25,3.73,20.34,6.49,1.32,23.05,1.69,23.84-4.17.7-5.29-5.27-9.09-9.86-23.57-1.36-4.28-.46-6.12.07-8.04,1.01-3.7-.83-4.92-.68-7.83.6-11.7,6.5-21.61,12.13-43.89,3.04-12.05,4.91-25.21,2.35-40.42-1.32-7.83-2.8-11.87-2.15-24.79.49-10.01,4.31-27.04,11.06-55.43,3.03-12.77,11.16-39.5,12.26-52.02.43-4.94.6-9.48.58-13.67v-.3c-.16-20.09-4.92-32.12-8.09-41.22-2.6-9.46-2.7-7.48-5.54-21.53-.36-1.76-.67-3.41-.96-4.96-.57-4.79-1.21-9.89-1.88-15.01-2.4-18.44-5.08-37.12-5.86-42.53.12-.51.23-1.04.36-1.54.05.28.11.6.18.95.2,1.06.47,2.42.73,3.77.39,1.96.78,3.9,1,4.86.56,2.38,1.17,4.84,1.82,7.34,1.07,4.16,2.22,8.4,3.28,12.45,1.44,5.48,2.73,10.61,3.48,14.69.03.16.05.3.08.45.15.84.28,1.65.37,2.38.22,1.65,1.02,13.78,5.27,28.65,0,0,0,.02,0,.02.14.47.28.95.42,1.43.03.08.05.17.08.25.12.41.25.82.38,1.24.05.16.1.31.14.47.11.34.22.69.33,1.04.08.23.15.47.23.7.09.27.18.55.27.82.06.19.13.38.19.58,0,.01,0,.02.01.03.07.19.13.38.2.57.35,1.01.68,1.97,1,2.9,5.01,14.31,7.04,19.23,10.57,27.24,1.09,2.46,2.04,4.69,2.8,6.76,1.05,2.84,1.75,5.33,1.92,7.52,0,.06.01.13.02.2.01.08.02.17.02.24.02.33-.05.74-.14,1.19-.38,1.81-1.46,4.39-1.92,6.15-1.75,6.81,1.79,12.51-2.25,21.41-.06.13-.06.24-.01.33.27.62,2.46.5,3.85-1.13,1.86-2.2,2.5-7.95,2.63-7.78,0,.02.01.06.02.13.08,1.52.19,2.81.31,3.96.54,4.81,1.46,7,2.06,12.21.47,4.05-.6,6.54-.13,8.37,0,.03.01.06.02.09,0,.03.02.06.03.1.07.23.17.44.3.65.09.14.17.26.25.37.75,1.05,1.21.73,3.27-1.62.53-.61.99-1.21,1.41-1.78.85-1.14,1.54-2.2,2.22-3.1,1.05-1.39,1.84-2.77,2.38-4.56.23-.76.42-1.59.56-2.53.16-1.05.26-2.24.3-3.6Z"/>
  </g>
</svg>