<?xml version="1.0" encoding="UTF-8"?>
<svg id="_레이어_2" data-name="레이어 2" xmlns="http://www.w3.org/2000/svg" viewBox="0 0 169.73 571.93">
  <defs>
    <style>
      .cls-1 {
        fill: #f3a9aa;
        stroke: #231815;
        stroke-miterlimit: 10;
      }
    </style>
  </defs>
  <g id="_레이어_1-2" data-name="레이어 1">
    <path class="cls-1" d="m167.45,312.56c-.6-2.63-1.26-4.1-2.13-11.5-.26-2.27-.27-3.59-.27-4.56,0-.56,0-1-.05-1.43-.04-.32-.08-.61-.14-.89-.29-1.45-.82-2.51-1.36-4.22-.36-1.15-.71-2.59-.98-4.65-1.46-10.89-2.42-18.98-3.78-30.34-.28-2.29-.57-4.71-.88-7.33-1.13-9.39-4.87-21.21-8.86-34.19-.23-.74-.45-1.48-.68-2.22-.08-.25-.17-.81-.27-1.59-.17-1.29-.36-3.17-.55-5.25-.31-3.39-.61-7.29-.77-9.98-.41-6.67-4.26-67.76-6.9-76.98-1.97-6.87-3.88-9.63-5.71-10.54h0s-1.49-.9-2.39-1.31c-.41-.19-.84-.35-1.28-.51-1.44-.53-3.04-.93-4.73-1.29-.13-.03-.26-.06-.39-.09-.49-.11-.98-.21-1.49-.32-.23-.05-.46-.12-.69-.18-2.23-.55-4.49-1.3-6.69-2.12-.75-.28-1.5-.56-2.23-.85-5.34-2.05-9.74-4.61-12.38-11.01-1.11-2.7-1.57-10.21-1.75-15.34,2.54-2.35,4.51-5.38,5.74-10.41.22-.9.48-1.97.74-3.12.17.06.33.1.48.12.11.02.22.01.32.01.03,0,.07,0,.11,0,0,0,0,0,0,0,.07,0,.14-.02.21-.04.06-.01.12-.02.18-.04.06-.02.12-.05.18-.07.06-.03.12-.05.18-.08.05-.03.1-.06.15-.1.06-.04.12-.08.18-.13.04-.04.08-.07.13-.11.06-.06.12-.12.18-.18.03-.04.06-.07.09-.11.07-.08.13-.17.2-.27.02-.02.03-.04.05-.07.74-1.14,1.1-2.79,1.39-3.48.31-.75.68-1.13,1.08-1.83,0,0,.01-.02.02-.03h0c.22-.4.46-.9.69-1.64.09-.29.19-.63.28-1,.5-2-.37-3.32-.01-4.61.24-.87.36-3.32-.75-4.16-.12-.09-.27-.14-.42-.18,1.64-6.27,2.7-16.51-.74-24.35-1.48-3.39-3.32-6.12-5.25-8.29-4.57-5.57-12.1-9.22-20.63-9.22-.54,0-1.08.01-1.61.04-1.04.06-2.06.17-3.06.33-.02,0-.04,0-.06.01-.48.08-.96.17-1.43.27-.04,0-.08.02-.12.03-.45.1-.9.21-1.34.33-.04.01-.09.03-.13.04-.44.12-.87.25-1.29.39-.04.01-.08.03-.12.04-.43.14-.85.3-1.27.46-.03.01-.06.03-.1.04-.43.17-.84.35-1.26.53-.02,0-.04.02-.06.03-.43.2-.85.4-1.26.62,0,0,0,0-.01,0-2.97,1.56-5.54,3.62-7.54,6.06-1.93,2.17-3.77,4.9-5.25,8.29-3.44,7.84-2.38,18.08-.74,24.35-.15.04-.3.09-.42.18-1.11.84-.99,3.29-.75,4.16.36,1.29-.52,2.61-.01,4.61.76,3.01,1.51,3.14,2.07,4.5.39.93.89,3.55,2.29,4.4.04.03.08.04.13.06.07.04.14.07.21.1.09.03.19.05.28.07.03,0,.06.02.09.02.27.04.57.01.9-.08.07.13.14.25.21.37.23.99.45,1.92.65,2.71,1.23,5.03,3.2,8.06,5.74,10.41-.18,5.13-.64,12.64-1.75,15.34-2.64,6.4-7.04,8.96-12.38,11.01-.23.09-.46.18-.69.27-.36.14-.73.28-1.1.42-.22.08-.44.16-.65.25-2.31.85-4.69,1.64-7.01,2.18-.04,0-.08.02-.12.03-.51.11-1,.21-1.5.32-.43.09-.84.19-1.25.28-.91.21-1.79.44-2.63.69-.9.27-1.75.56-2.54.92-.9.41-2.39,1.3-2.39,1.3h0c-1.83.92-3.74,3.68-5.71,10.55-2.64,9.22-6.49,70.31-6.9,76.98-.33,5.34-1.19,15.48-1.59,16.82-.23.74-.45,1.48-.68,2.22-3.96,12.99-7.73,24.8-8.86,34.19-.31,2.62-.6,5.04-.88,7.33-1.36,11.36-2.32,19.45-3.78,30.34-.76,5.74-2.15,6.7-2.48,9.76-.05.43-.05.87-.05,1.43,0,.97-.01,2.29-.27,4.56-.87,7.4-1.53,8.87-2.13,11.5-1.36,5.98-1.89,9.11-1.76,13.22.18,5.45,1.25,8.06,3.24,10.7,1.03,1.36,2.04,3.05,3.64,4.88.58.66,1.02,1.14,1.38,1.49.12.12.23.21.33.3,0,0,.01.01.02.02.83.69,1.18.42,1.79-.54.53-.85.52-1.84.4-3.08-.11-1.25-.36-2.77-.3-4.69,0,0,0-.02,0-.03.02-.45.05-.92.11-1.41.76-6.46,1.98-8.28,2.38-16.17,0,0,0,0,0-.01.1-.67.71,5.38,2.63,7.66.38.45.83.78,1.28,1.01.07.04.15.07.22.11.01,0,.02.01.03.02,1.34.6,2.62.35,2.32-.33-.16-.35-.28-.68-.42-1.02-.15-.37-.29-.74-.41-1.1-.05-.16-.11-.32-.16-.47-.11-.35-.22-.7-.31-1.04-.04-.16-.08-.31-.12-.47-.08-.33-.16-.66-.22-.99-.03-.15-.05-.3-.08-.46-.05-.32-.1-.64-.14-.95-.02-.15-.03-.29-.05-.44-.03-.31-.06-.62-.08-.93,0-.14-.01-.27-.02-.41-.01-.31-.03-.62-.03-.92,0-.12,0-.24,0-.36,0-.32,0-.64,0-.95,0-.08,0-.16,0-.24.06-1.95.25-3.81.28-5.66,0-.02,0-.04,0-.06,0-.38,0-.76,0-1.13,0-.03,0-.06,0-.09-.04-1.23-.18-2.46-.51-3.74-.14-.52-.33-1.12-.54-1.75-.64-1.89-1.45-4.04-1.5-5.33,0-.08-.02-.18-.01-.25,0-.15.03-.3.05-.44.29-3.78,2.14-8.44,4.72-14.29.15-.34.29-.66.43-.99.1-.23.2-.46.3-.68.16-.36.32-.73.47-1.09.23-.54.46-1.07.69-1.59.11-.25.22-.51.33-.76.24-.57.48-1.13.72-1.7.09-.21.17-.42.26-.63.2-.48.39-.96.59-1.45.06-.15.12-.3.19-.45,0,0,0,0,0-.01.2-.5.41-1.02.61-1.54-1.94,6.74-3.53,14.87-3.62,25.18-.04,4.27.15,8.91.65,13.96,1.24,12.52,10.39,39.26,13.81,52.03,7.6,28.39,11.9,45.41,12.46,55.42.72,12.92-.94,16.97-2.43,24.79-2.89,15.22-.78,28.37,2.65,40.42,6.34,22.29,12.99,32.19,13.66,43.89.17,2.92-1.91,4.14-.76,7.83.59,1.92,1.6,3.76.07,8.04-5.17,14.49-11.89,18.28-11.1,23.57.88,5.86,19.55,5.5,26.85,4.17,6.01-1.08,5.93-10.06,4.2-20.33-.35-2.08-.53-4.4-.39-7.96.06-1.76.51-3.81.75-6.28.22-2.28-.41-4.69-.75-6.6-.26-1.44-.53-2.6-.57-3.21-1.62-22.38-1.12-27.75,1.55-48.79,2.7-21.27-1.08-25.08-.61-38.09.29-7.7,2.5-15.58,3.09-23.92.75-10.46-.28-20.35-1.33-27.79-2.89-20.57-2.88-23.89-3.81-40.16-1.02-17.65,4.34-26.31,1.28-41.54.71.27,2.45.36,4.17.38h0c1.72-.02,3.46-.11,4.17-.38-3.06,15.23,2.3,23.89,1.28,41.54-.93,16.27-.92,19.59-3.81,40.16-1.05,7.44-2.08,17.33-1.33,27.79.59,8.34,2.8,16.22,3.09,23.92.47,13.01-3.31,16.82-.61,38.09,2.67,21.04,3.17,26.41,1.55,48.79-.04.61-.31,1.77-.57,3.21-.34,1.91-.97,4.32-.75,6.6.24,2.47.69,4.52.75,6.28.14,3.56-.04,5.88-.39,7.96-1.73,10.27-1.81,19.25,4.2,20.33,7.3,1.33,25.97,1.69,26.85-4.17.79-5.29-5.93-9.08-11.1-23.57-1.53-4.28-.52-6.12.07-8.04,1.15-3.69-.93-4.91-.76-7.83.67-11.7,7.32-21.6,13.66-43.89,3.43-12.05,5.54-25.2,2.65-40.42-1.49-7.82-3.15-11.87-2.43-24.79.56-10.01,4.86-27.03,12.46-55.42,3.42-12.77,12.57-39.51,13.81-52.03.5-5.05.69-9.69.65-13.96-.09-10.31-1.68-18.44-3.62-25.18.19.48.38.95.56,1.42.01.04.03.08.04.13,1.28,3.19,2.5,6.01,3.98,9.36,2.58,5.85,4.43,10.51,4.72,14.29.02.14.04.29.05.44.07,1.64-1.49,5.14-2.06,7.34-1.75,6.81,1.79,12.51-2.25,21.41-.11.23-.01.41.2.53,0,0,.01,0,.02.01.04.02.09.04.15.06.02,0,.04.01.06.02.05.01.1.02.15.03.04,0,.08,0,.13.01.04,0,.08,0,.13,0,.07,0,.15,0,.23,0,.02,0,.04,0,.06,0,.28-.03.59-.1.91-.21.01,0,.03,0,.04-.01.18-.07.37-.16.56-.26.03-.02.05-.03.08-.05.18-.1.36-.22.53-.36.03-.02.05-.05.08-.07.17-.15.34-.3.49-.49,0,0,.01,0,.02-.02.25-.29.47-.65.68-1.05,0-.01.01-.02.02-.04.1-.19.19-.38.28-.58.01-.03.03-.07.04-.1.08-.18.15-.37.22-.56.02-.05.03-.1.05-.15.06-.18.13-.36.18-.54.02-.06.04-.12.06-.18.05-.17.11-.35.15-.52.02-.07.04-.13.05-.2.05-.17.09-.34.13-.5.01-.06.03-.12.04-.17.04-.18.09-.35.12-.52,0-.04.02-.07.03-.11.36-1.58.52-2.76.57-2.42,0,.02,0,.05,0,.07.4,7.84,1.62,9.67,2.37,16.11.55,4.71-.99,7.3.21,9.21.23.36.42.61.61.76.06.05.12.09.17.12.02,0,.04.01.06.02.19.06.39.03.63-.12.02-.01.05-.03.07-.04.05-.03.1-.07.16-.11.03-.03.07-.06.11-.09.05-.04.09-.08.14-.12.05-.04.09-.08.14-.13.04-.04.09-.08.13-.13.06-.06.12-.12.18-.19.03-.03.07-.07.1-.1.29-.31.62-.68,1.02-1.13,1.6-1.83,2.61-3.52,3.64-4.88,1.99-2.64,3.06-5.25,3.24-10.7.13-4.11-.4-7.24-1.76-13.22ZM34.85,242.91c.23-.86.45-1.71.66-2.55,0-.01,0-.03.01-.04.21-.84.41-1.66.6-2.47v-.04c2.67-11.48,3.26-20.16,3.44-21.53.11-.87.27-1.82.46-2.83,1.65-8.91,5.84-22.76,8.58-34.48.43-1.84,1.47-7.25,1.91-9.56.05.26.09.53.14.79.04.25.08.49.12.73.72,5.12,1.14,9.28,1.32,12.79.04,4.69-.3,9.54-.98,14.12-1.08,4.73-2.85,8.87-4.68,15.6,0,0,0,0,0,0-.22.83-.45,1.83-.69,2.95-1.85,4.64-3.73,9.72-6.57,16.31-2.11,4.89-3.37,7.84-4.31,10.19Zm95.73-10.19c-2.87-6.66-4.76-11.77-6.63-16.44-.23-1.07-.45-2.03-.67-2.82,0,0,0,0,0,0-1.78-6.49-3.49-10.51-4.58-15.06-.7-4.61-1.07-9.52-1.06-14.26.19-3.83.66-8.43,1.5-14.22.1.22.22.57.36.96.49,2.55,1.28,6.58,1.63,8.11,2.74,11.72,6.95,25.57,8.58,34.48.19,1.01.35,1.96.46,2.83.2,1.57.94,12.65,4.69,26.56-.94-2.34-2.19-5.28-4.28-10.12Z"/>
  </g>
</svg>