<?xml version="1.0" encoding="UTF-8"?>
<svg id="_레이어_2" data-name="레이어 2" xmlns="http://www.w3.org/2000/svg" viewBox="0 0 169.41 572.06">
  <defs>
    <style>
      .cls-1 {
        fill: #f3a9aa;
        stroke: #231815;
        stroke-miterlimit: 10;
      }
    </style>
  </defs>
  <g id="_레이어_1-2" data-name="레이어 1">
    <path class="cls-1" d="m118.9,169.41s0,0,.01,0c.1.53.23,1.22.38,1.99.07.36.14.73.22,1.11.47,2.43,1.03,5.24,1.32,6.47,1.37,5.86,3.11,12.26,4.71,18.3,1.6,6.04,3.05,11.73,3.87,16.18.04.21.07.41.11.61.14.78.26,1.53.35,2.22.19,1.49.87,11.5,4.12,24.36-1.23-2.13-2.65-4.72-4.45-8.38-1.61-3.26-2.85-6.1-3.87-8.72-.89-3.43-1.57-6.71-2.19-10.01,0-.05-.02-.1-.03-.15,0,0,0,0,0,0-.81-3.66-2.26-7.06-3.14-12.1-.69-3.95-1.1-8.31-1.37-13.25-.34-6.07-.63-11.85-.32-16.73.09-.62.19-1.24.29-1.88Zm-68.71,0c.1.64.2,1.26.29,1.88.31,4.86.02,10.63-.32,16.69-.28,4.98-.68,9.37-1.38,13.34-.89,5.05-2.33,8.46-3.15,12.13,0,0,0,0,0,0-.01.05-.02.1-.03.15-.61,3.27-1.28,6.5-2.16,9.89-1.02,2.64-2.27,5.49-3.88,8.77-1.81,3.66-3.22,6.25-4.45,8.38,3.25-12.87,3.93-22.88,4.12-24.36.09-.69.21-1.44.35-2.22.04-.2.07-.4.11-.61.83-4.45,2.27-10.14,3.87-16.17,1.6-6.05,3.34-12.44,4.71-18.31.29-1.23.84-4.04,1.31-6.46.07-.39.15-.76.22-1.12.15-.77.28-1.46.38-1.99,0,0,0,0,.01,0Zm-11.84-64.1c-.68.28-1.65.82-1.87.92,0,0,0,0,0,0-.57.27-1.25.75-1.8,1.2-.17.14-.31.24-.36.31,0,0,0,0,0,0-1.41,1.2-2.87,3.68-4.37,8.49-.21.66-.42,1.46-.63,2.38-2.66,11.82-6.24,69.34-6.64,75.79-.26,4.26-.86,11.56-1.3,15.03-.11.88-.21,1.52-.29,1.79-.09.3-.18.59-.27.89-.13.44-.27.89-.41,1.33-4,12.98-7.73,24.8-8.86,34.19-.08.67-.16,1.32-.23,1.97-.15,1.25-.3,2.46-.44,3.64-.07.58-.14,1.16-.21,1.73-1.36,11.36-2.32,19.45-3.78,30.34-.23,1.71-.51,2.99-.8,4.04-.69,2.46-1.45,3.58-1.68,5.72-.03.27-.03.55-.03.89,0,.65-.04,1.48-.15,2.82-.07.83-.11,1.7-.22,2.71-.06.6-.13,1.21-.22,1.84-.35,2.45-.69,3.62-.96,5.08-.77,4.07-1.25,6.02-1.64,8.26-.31,1.81-.54,3.42-.64,5.03-.24,4.26.36,6.69,1.27,9.44.65,1.97,1.19,3.84,2.26,5.55,1.37,2.19,1.95,2.9,2.93,2.87.82-.03,1.09-.06,1.6-.35.04-.48.1-1.08.32-1.81.96.29,1.35-.05,1.75-.86.11-.23.24-.49.37-.8.15-.36.24-.72.31-1.1,0-.01,0-.03,0-.04,0,0,0-.02,0-.02.42-2.33.21-4.83.61-9.23.28-3.04,1.03-.91,2.3-1.81.88.25,2.33-.6,2.13-2.05,0-.06-.02-.11-.03-.15-.57-1.5-.49-.11.36.03.6.1,1.57-.55,1.9-1.44.05-.14.08-.28.04-.45-.69-3.22-.79-6.12-1.17-9.02-.33-2.5-.92-5.53-.88-7.64,0-.15.01-.3.02-.45.03-1.22.07-2.48.08-3.81.02-1.71-.12-3.87.09-5.82-.1-.05-.16-.07-.18-.03,0,0,0,0,0,0,0,0,0,0,0,0,0-.14.43-.45,1.16-.95,0,.02,0,.12,0,.15-.17,2.89-.23,5.95-.14,9.22,0,.02,0,.12,0,.15.05,1.57.12,3.18.24,4.84.17,2.63.54,5.61,1.11,8.83,2.12,12.13,9.13,32.18,12.76,44.27.73,2.44,1.4,4.73,1.99,6.81,6.8,24.17,10.89,39.66,11.92,49.45.2,1.9.32,3.61.37,5.16.35,9.72-.9,14.01-2.18,20.09-.29,1.39-.57,2.79-.83,4.26-2.36,13.74-.45,25.78,2.74,36.87.28.96.56,1.91.85,2.85,6.42,20.85,13.01,30.62,13.94,41.77.04.49.04.96.01,1.41-.13,2.31-1.64,3.62-.91,6.56.09.36.2.72.33,1.11.57,1.7,1.28,3.49.04,7.07-.09.27-.2.55-.3.83-5.44,14.16-12.41,17.93-11.58,23.17.93,5.86,20.64,5.49,28.36,4.17,6.35-1.08,6.26-10.06,4.43-20.34-.37-2.07-.57-4.4-.42-7.95.07-1.76.55-3.81.8-6.28.23-2.28-.44-4.69-.8-6.6-.28-1.45-.55-2.61-.6-3.21-1.78-22.38-1.17-27.75,1.65-48.8,2.85-21.26-1.15-25.08-.65-38.08.3-7.7,2.64-15.58,3.27-23.92.79-10.47-.3-20.35-1.41-27.79-3.06-20.57-3.04-23.89-4.03-40.16-1.07-17.65,4.59-26.31,1.36-41.54.75.26,2.58.37,4.4.38s3.65-.12,4.4-.38c-3.23,15.23,2.43,23.89,1.36,41.54-.99,16.27-.97,19.59-4.03,40.16-1.11,7.44-2.19,17.32-1.4,27.79.62,8.34,2.96,16.22,3.26,23.92.5,13-3.5,16.82-.64,38.08,2.82,21.05,3.43,26.42,1.64,48.8-.05.6-.33,1.76-.6,3.21-.36,1.91-1.03,4.32-.8,6.6.25,2.47.73,4.52.8,6.28.14,3.55-.05,5.88-.42,7.95-1.83,10.28-1.91,19.26,4.44,20.34,7.71,1.32,27.42,1.69,28.35-4.17.84-5.29-6.26-9.08-11.72-23.57-1.62-4.28-.55-6.12.08-8.04,1.21-3.69-.99-4.91-.81-7.83.71-11.7,7.73-21.61,14.43-43.89,3.62-12.05,5.84-25.2,2.8-40.42-1.57-7.82-3.33-11.87-2.57-24.79.59-10.01,5.13-27.04,13.16-55.42,3.61-12.77,13.28-39.51,14.59-52.03.52-5.05.72-9.69.68-13.96v-.15c-.04-3.4-.24-6.54-.56-9.5.04.11.09.22.13.33,1.41,3.55,2.37,6.59,2.57,9.19.01.1.03.22.04.33,0,.07.01.14.01.21,0,.41-.09.93-.23,1.51-.45,1.77-1.41,4.1-1.83,5.73-1.75,6.81,1.79,12.51-2.25,21.41-.08.17-.05.32.05.43.46.5,2.48.31,3.78-1.23,1.93-2.29,2.54-8.39,2.64-7.71,0,.03,0,.06.01.12.1,1.96.25,3.54.43,4.91.55,4.14,1.38,6.37,1.94,11.21.45,3.82-.48,6.25-.21,8.05,0,0,0,.02,0,.03,0,.02,0,.03,0,.05.07.39.19.75.41,1.09s.38.56.55.72c.61.56,1.19.04,2.96-1.98.23-.26.43-.51.63-.77,1.24-1.53,2.12-2.95,3-4.11,1.99-2.64,3.06-5.25,3.24-10.7.13-4.11-.4-7.24-1.76-13.22-.5-2.2-1.04-3.59-1.72-8.3-.13-.93-.27-1.98-.41-3.19-.08-.7-.14-1.31-.18-1.85-.09-1.2-.09-2.04-.09-2.71,0-.42,0-.76-.02-1.09,0-.11-.01-.23-.02-.34-.11-1.08-.37-1.9-.68-2.76-.56-1.57-1.32-3.29-1.81-7-1.46-10.89-2.42-18.98-3.78-30.34-.07-.56-.14-1.14-.21-1.72-.14-1.17-.28-2.37-.43-3.62-.08-.65-.16-1.31-.24-1.99-1.13-9.39-4.86-21.21-8.86-34.19-.18-.59-.36-1.18-.54-1.78-.07-.23-.14-.52-.22-.87-.08-.37-.17-.99-.26-1.78-.43-3.59-.99-10.51-1.25-14.61-.4-6.56-4.13-65.7-6.76-76.42-.1-.42-.21-.8-.31-1.14-1.71-5.77-3.38-8.45-4.99-9.57,0,0,0,0,0,0-.07-.06-.22-.17-.42-.29-.21-.14-.45-.28-.69-.41,0,0,0,0,0,0-.21-.12-.71-.41-1.21-.66-.42-.21-.87-.42-1.28-.58-.1-.04-.2-.08-.31-.12-.38-.15-.77-.28-1.17-.41-.09-.03-.18-.06-.27-.09-1.43-.45-2.97-.79-4.59-1.13-.1-.02-.19-.04-.29-.06-.39-.09-.78-.17-1.18-.27-1.2-.29-2.41-.65-3.62-1.04-1.08-.35-2.23-.76-3.37-1.19-.51-.19-1.02-.38-1.52-.57-.37-.14-.74-.29-1.11-.43-3.95-1.57-7.36-3.51-9.88-7.21-.62-.91-1.18-1.92-1.69-3.07-.13-.3-.26-.63-.38-1-.97-2.9-1.39-9.58-1.57-14.42.1-.24.19-.48.28-.72,2.34-2.26,4.17-5.16,5.36-9.79.05-.21.11-.43.16-.65.18-.74.39-1.59.59-2.49.13-.06.26-.14.37-.24,2.39.54,3.13-3,3.63-4.37.06-.17.12-.32.18-.45.54-1.14,1.23-1.44,1.91-4.08.04-.14.07-.28.1-.42.38-1.79-.32-3.03-.09-4.22.02-.11.04-.22.07-.34.21-.96.27-3.2-.79-4-.02-.02-.05-.03-.07-.04-.1-.06-.22-.1-.35-.14,1.64-6.27,2.7-16.51-.74-24.35-1.48-3.39-3.32-6.12-5.25-8.29-.66-.8-1.38-1.56-2.15-2.27-4.61-4.27-11.18-6.95-18.49-6.95-8.53,0-16.06,3.65-20.63,9.22-1.93,2.16-3.77,4.9-5.25,8.29-3.44,7.84-2.38,18.08-.74,24.34-.16.05-.3.09-.42.18-1.11.84-.99,3.29-.75,4.16.35,1.29-.52,2.6-.01,4.61.29,1.17.59,1.9.87,2.44.27.52.53.86.77,1.23.15.24.3.5.43.82.42,1.02.99,4.08,2.71,4.61.38.12.81.11,1.31-.07.26,1.14.52,2.22.74,3.12,1.23,5.03,3.2,8.06,5.74,10.41-.18,5.13-.64,12.64-1.75,15.34-2.59,6.27-6.87,8.85-12.06,10.88-.22.09-.44.17-.66.26-.06.02-.12.05-.18.07-2.79,1.07-5.71,2.13-8.56,2.81-.36.09-.72.17-1.08.25-.1.02-.2.04-.3.06-.03,0-.05.01-.08.02-1.59.33-3.1.68-4.5,1.11-.09.03-.19.06-.28.09-.41.13-.8.27-1.19.42-.11.04-.22.08-.32.13Z"/>
  </g>
</svg>