<?xml version="1.0" encoding="UTF-8"?>
<svg id="_레이어_2" data-name="레이어 2" xmlns="http://www.w3.org/2000/svg" viewBox="0 0 169.53 572.06">
  <defs>
    <style>
      .cls-1 {
        fill: #f3a9aa;
        stroke: #231815;
        stroke-miterlimit: 10;
      }
    </style>
  </defs>
  <g id="_레이어_1-2" data-name="레이어 1">
    <path class="cls-1" d="m119.02,169.39s0,.01.01.02c.1.53.23,1.22.38,1.99.07.36.14.73.22,1.11.47,2.42,1.03,5.23,1.31,6.46,1.37,5.86,3.11,12.26,4.71,18.31,1.6,6.04,3.04,11.72,3.87,16.17.04.21.08.42.11.62.14.78.26,1.52.35,2.21.19,1.48.87,11.5,4.12,24.37-1.23-2.13-2.65-4.72-4.46-8.38-1.61-3.27-2.87-6.13-3.88-8.77-1.13-3.48-1.93-6.69-2.64-9.94,0-.05-.02-.1-.04-.15,0,0,0,0,0,0-.95-3.4-2.81-6.41-3.89-11.96-.7-3.6-1.08-7.91-1.16-13.32-.08-5.32.01-10.99.69-16.84.09-.62.19-1.25.3-1.9Zm-68.71,0c.1.64.2,1.27.3,1.89.67,5.82.76,11.47.69,16.78-.08,5.45-.45,9.79-1.16,13.41-1.08,5.55-2.94,8.56-3.89,11.97,0,0,0,0,0,0-.02.05-.03.1-.04.15-.7,3.21-1.5,6.38-2.6,9.83-1.02,2.66-2.28,5.54-3.91,8.84-1.81,3.66-3.23,6.25-4.46,8.38,3.25-12.87,3.93-22.88,4.12-24.37.09-.69.21-1.43.35-2.21.04-.2.07-.41.11-.62.83-4.45,2.27-10.13,3.87-16.16,1.6-6.05,3.34-12.45,4.71-18.31.28-1.22.84-4.03,1.31-6.45.07-.39.15-.76.22-1.12.15-.77.28-1.46.38-1.99,0,0,0-.02.01-.02Zm-12.17-63.94c-.79.34-2.02,1.06-2.13,1.11,0,0,0,0,0,0-.56.27-1.16.74-1.72,1.28-.13.13-.25.24-.33.34,0,0,0,0,0,0-1.32,1.41-2.68,4.01-4.07,8.65-.19.63-.38,1.42-.57,2.38-2.64,13.12-6.12,68.85-6.51,75.2-.26,4.26-.86,11.58-1.3,15.04-.11.88-.21,1.51-.29,1.78-.09.3-.18.59-.27.89-.13.44-.27.89-.41,1.33-3.99,12.98-7.73,24.8-8.86,34.19-.08.67-.16,1.32-.23,1.97-.15,1.25-.3,2.46-.44,3.64-.07.58-.14,1.16-.21,1.73-1.36,11.36-2.32,19.45-3.78,30.34-.23,1.71-.51,3-.8,4.04-.69,2.46-1.44,3.57-1.68,5.72-.04.35-.04.71-.04,1.16,0,.81-.02,1.88-.21,3.69-.09.92-.17,1.8-.28,2.7-.08.64-.16,1.24-.25,1.83-.46,3.07-.88,4.31-1.24,6.03-.78,3.75-1.27,5.97-1.59,8.23-.26,1.75-.41,3.34-.42,5.02-.04,4.85.84,7.34,2.26,10.07.85,1.65,1.61,3.45,2.95,5.22,1.81,2.39,2.26,2.81,3.22,2.06.79-.62.86-1.36.91-2.58.03-.86-.05-1.88.16-3.11.56-.57.85-1.34,1.15-2.29.08-.26.17-.54.27-.84.11-.37.2-.73.27-1.1,0-.01,0-.03,0-.04,0,0,0-.02,0-.02.5-2.59.66-5.13,1.02-9.83.16-2.12.96,1.95,2.47,2.91,1.37.88,3.3.57,2.98-.62-.02-.06-.03-.11-.05-.15-.92-2.18-1.17-2.65-.78-3.85.23-.7.74-1.67.96-2.77.03-.14.05-.3.04-.46-.25-3.12-.16-6-.75-8.99-.46-2.35-1.54-5.62-1.47-7.49,0-.15.02-.3.04-.44.06-1.18.19-2.43.38-3.75.24-1.75.53-3.8,1.06-5.83-.07.22-.13.45-.16.73,0,.03,0,.06,0,.1,0,.03,0,.06,0,.09-.11,1.13.04,2.25.39,3.34,0,.01,0,.14,0,.15-.1,2.87-.09,5.91.06,9.14,0,.04,0,.11,0,.14.08,1.55.18,3.15.32,4.79.21,2.52.68,5.48,1.34,8.72,2.66,12.91,9.61,32.64,12.88,43.85.69,2.38,1.34,4.64,1.94,6.76,6.82,24.28,10.8,39.59,11.59,49.08.15,1.88.25,3.58.28,5.13.21,9.4-1.15,13.51-2.46,19.89-.29,1.4-.55,2.8-.77,4.23-2.13,13.6-.11,25.53,3.13,36.54.28.96.57,1.9.86,2.83,6.42,20.59,12.94,30.25,13.75,41.43.03.5.01.96-.04,1.4-.26,2.17-1.68,3.51-.81,6.5.1.35.22.71.35,1.09.56,1.66,1.15,3.49-.12,7.02-.1.27-.2.55-.31.82-5.43,13.99-12.33,17.75-11.5,22.97.93,5.86,20.64,5.49,28.36,4.17,6.35-1.08,6.26-10.06,4.43-20.34-.37-2.07-.57-4.4-.42-7.95.07-1.76.55-3.81.8-6.28.23-2.28-.44-4.69-.8-6.6-.28-1.45-.55-2.61-.6-3.21-1.78-22.38-1.17-27.75,1.65-48.8,2.85-21.26-1.15-25.08-.65-38.08.3-7.7,2.64-15.58,3.27-23.92.79-10.47-.3-20.35-1.41-27.79-3.06-20.57-3.04-23.89-4.03-40.16-1.07-17.65,4.59-26.31,1.36-41.54.75.26,2.58.37,4.4.38,1.82.02,3.65-.12,4.4-.38-3.23,15.23,2.43,23.89,1.36,41.54-.99,16.27-.97,19.59-4.03,40.16-1.11,7.44-2.19,17.32-1.4,27.79.62,8.34,2.96,16.22,3.26,23.92.5,13-3.5,16.82-.64,38.08,2.82,21.05,3.43,26.42,1.64,48.8-.05.6-.33,1.76-.6,3.21-.36,1.91-1.03,4.32-.8,6.6.25,2.47.73,4.52.8,6.28.14,3.55-.05,5.88-.42,7.95-1.83,10.28-1.91,19.26,4.44,20.34,7.71,1.32,27.42,1.69,28.35-4.17.84-5.29-6.26-9.08-11.72-23.57-1.62-4.28-.55-6.12.08-8.04,1.21-3.69-.99-4.91-.81-7.83.71-11.7,7.73-21.61,14.43-43.89,3.62-12.05,5.84-25.2,2.8-40.42-1.57-7.82-3.33-11.87-2.57-24.79.59-10.01,5.13-27.04,13.16-55.42,3.61-12.77,13.28-39.51,14.59-52.03.52-5.05.72-9.69.68-13.96v-.15c-.04-3.4-.24-6.54-.56-9.5.04.11.08.21.13.32,1.41,3.55,2.37,6.59,2.57,9.2.02.12.03.25.04.38,0,.07,0,.14,0,.21,0,.42-.1.93-.24,1.51-.45,1.76-1.4,4.07-1.82,5.68-1.75,6.81,1.79,12.51-2.25,21.41-.08.17-.05.31.04.42.45.5,2.49.32,3.79-1.23,1.96-2.33,2.57-8.61,2.64-7.68,0,.03,0,.06,0,.11.1,1.96.25,3.54.44,4.91.55,4.12,1.37,6.35,1.94,11.18.45,3.83-.49,6.26-.21,8.06,0,0,0,.02,0,.03,0,.02,0,.03,0,.05.07.39.19.74.4,1.08s.38.56.55.72c.61.57,1.19.05,2.96-1.98.23-.26.43-.51.64-.77,1.24-1.53,2.12-2.95,3-4.11,1.99-2.64,3.06-5.25,3.24-10.7.13-4.11-.4-7.24-1.76-13.22-.5-2.2-1.04-3.59-1.72-8.3-.13-.93-.27-1.98-.41-3.2-.08-.7-.14-1.32-.18-1.86-.09-1.2-.09-2.04-.09-2.71,0-.42,0-.77-.02-1.1,0-.11-.01-.22-.03-.33-.12-1.08-.36-1.89-.67-2.75-.56-1.58-1.32-3.29-1.81-7.01-1.46-10.89-2.42-18.98-3.78-30.34-.07-.56-.14-1.13-.21-1.71-.14-1.17-.28-2.37-.43-3.61-.08-.66-.16-1.32-.24-2.01-1.13-9.39-4.87-21.21-8.86-34.19-.21-.67-.41-1.33-.61-2-.06-.2-.12-.49-.19-.87-.07-.41-.16-1.02-.24-1.77-.43-3.64-.98-10.39-1.22-14.41-.4-6.5-4.07-64.66-6.69-76.13-.1-.43-.2-.81-.29-1.14-1.65-5.64-3.25-8.41-4.8-9.67,0,0,0,0,0,0-.1-.09-.25-.2-.41-.32-.22-.16-.45-.3-.69-.42,0,0,0,0,0,0-.1-.06-.63-.36-1.19-.66-.42-.22-.87-.44-1.25-.61-.1-.04-.2-.08-.3-.12-.38-.15-.76-.3-1.16-.43-.09-.03-.17-.06-.26-.09-1.43-.47-3-.82-4.64-1.18-.1-.02-.19-.04-.29-.06-.39-.09-.79-.17-1.19-.26-1.2-.28-2.42-.63-3.63-1.02-1.11-.36-2.26-.76-3.39-1.18-.51-.19-1.02-.38-1.53-.57-.36-.14-.71-.28-1.07-.41-4-1.56-7.45-3.45-10.01-7.09-.64-.9-1.22-1.91-1.74-3.05-.14-.31-.28-.65-.41-1-1.01-2.72-1.45-9.49-1.64-14.45.04-.27.08-.53.13-.79,2.38-2.25,4.25-5.14,5.47-9.77.06-.21.11-.43.16-.65.18-.74.39-1.59.6-2.5.09-.13.17-.27.26-.42,2.44.71,3.23-2.74,3.74-4.22.06-.18.12-.33.18-.46.54-1.22,1.24-1.46,1.94-4.08.04-.14.07-.27.1-.42.42-1.8-.27-3.05-.09-4.24.02-.11.04-.23.07-.35.23-.91.31-3.26-.77-4.08-.02-.02-.05-.03-.07-.05-.1-.06-.22-.1-.35-.14,1.64-6.27,2.7-16.51-.74-24.35-1.48-3.39-3.32-6.12-5.25-8.29-.66-.8-1.38-1.56-2.15-2.27-4.61-4.27-11.18-6.95-18.48-6.95-8.53,0-16.06,3.65-20.63,9.22-1.93,2.17-3.77,4.9-5.25,8.29-3.44,7.84-2.38,18.08-.74,24.35-.15.04-.3.09-.42.18-1.11.84-.99,3.29-.75,4.16.36,1.29-.52,2.61-.01,4.61.3,1.18.59,1.92.87,2.46.27.52.53.86.77,1.24.15.24.29.49.42.8.42,1.02.99,4.11,2.73,4.61.37.11.8.1,1.29-.07.26,1.15.52,2.22.74,3.12,1.23,5.03,3.2,8.06,5.74,10.41-.18,5.13-.64,12.64-1.75,15.34-2.61,6.33-6.95,8.91-12.22,10.95-.22.09-.44.17-.66.26-.06.02-.12.05-.19.07-2.82,1.08-5.77,2.15-8.66,2.81-.37.09-.73.16-1.09.24-.1.02-.2.04-.3.07-.03,0-.05.01-.08.02-1.61.34-3.14.69-4.55,1.15-.1.03-.19.06-.29.09-.41.14-.81.28-1.19.44-.11.04-.22.09-.32.13Z"/>
  </g>
</svg>