<?xml version="1.0" encoding="UTF-8"?>
<svg id="_레이어_2" data-name="레이어 2" xmlns="http://www.w3.org/2000/svg" viewBox="0 0 169.72 572.07">
  <defs>
    <style>
      .cls-1 {
        fill: #f3a9aa;
        stroke: #231815;
        stroke-miterlimit: 10;
      }
    </style>
  </defs>
  <g id="_레이어_1-2" data-name="레이어 1">
    <path class="cls-1" d="m126.01,223.63c-.41-3.32-.84-6.74-1.29-10.17-1.17-9.02-2.41-18.09-3.47-25.64-1.05-7.55-1.92-13.58-2.34-16.51.09-.61.18-1.22.29-1.86,0-.02.01-.05.02-.07.1.52.23,1.21.38,1.98.07.36.14.73.22,1.11.47,2.43,1.03,5.26,1.32,6.49,1.37,5.86,3.11,12.25,4.71,18.29s3.06,11.73,3.87,16.19c.04.2.07.4.11.59.14.78.26,1.55.35,2.23.2,1.49.86,11.5,4.12,24.36-1.23-2.13-2.65-4.72-4.45-8.37-1.59-3.22-2.82-6.04-3.83-8.64Zm-86.47-7.35c.09-.69.21-1.45.35-2.24.04-.2.07-.39.1-.59.81-4.46,2.27-10.15,3.87-16.19,1.6-6.04,3.34-12.43,4.71-18.29.29-1.23.85-4.06,1.32-6.49.07-.38.15-.76.22-1.11.15-.77.28-1.46.38-1.98,0,.02.01.05.02.07.1.64.19,1.24.29,1.86-.42,2.93-1.29,8.96-2.34,16.51-1.05,7.55-2.29,16.62-3.47,25.64-.44,3.43-.88,6.84-1.29,10.17-1.01,2.6-2.24,5.41-3.83,8.64-1.8,3.66-3.22,6.25-4.45,8.37,3.25-12.86,3.92-22.87,4.12-24.36Zm127.9,96.28c-.5-2.2-1.05-3.6-1.72-8.32-.13-.92-.27-1.96-.41-3.17-.08-.71-.14-1.31-.18-1.85-.09-1.2-.1-2.05-.1-2.72,0-.41,0-.75-.03-1.08,0-.12,0-.24-.02-.35-.12-1.09-.37-1.91-.69-2.78-.56-1.57-1.31-3.28-1.8-6.98-1.46-10.89-2.42-18.98-3.78-30.34-.07-.57-.14-1.14-.21-1.73-.14-1.18-.28-2.38-.44-3.64-.08-.64-.15-1.3-.23-1.96-1.13-9.39-4.9-21.2-8.86-34.19-.14-.44-.27-.89-.41-1.33-.09-.3-.18-.59-.27-.89-.08-.27-.19-.92-.3-1.81-.44-3.47-1.03-10.75-1.3-15.01-.41-6.67-4.26-67.76-6.9-76.98-1.97-6.87-3.88-9.63-5.71-10.54h0s-.18-.11-.43-.26c-.51-.29-1.35-.78-1.95-1.05-.43-.19-.88-.37-1.34-.53-.11-.04-.22-.08-.32-.11-.38-.13-.77-.26-1.17-.37-.09-.03-.18-.06-.27-.08-1.41-.4-2.92-.73-4.49-1.05-.1-.02-.19-.04-.29-.06-1.57-.36-3.17-.84-4.76-1.37-1.01-.35-2.18-.77-3.34-1.2-.5-.19-1.01-.38-1.51-.57-.4-.15-.8-.31-1.19-.47-3.86-1.6-7.18-3.62-9.6-7.44-.58-.92-1.12-1.94-1.59-3.09-1.11-2.7-1.57-10.21-1.75-15.34,2.54-2.35,4.51-5.38,5.74-10.41.22-.9.48-1.97.74-3.12,2.78.98,3.5-3.3,4.02-4.54.56-1.36,1.32-1.49,2.07-4.5.51-2-.37-3.32-.01-4.61.24-.87.36-3.32-.75-4.16-.02-.02-.05-.03-.08-.04-.1-.06-.21-.11-.34-.15,1.64-6.27,2.7-16.5-.74-24.34-1.48-3.39-3.32-6.12-5.25-8.29-.65-.8-1.38-1.55-2.15-2.26-4.61-4.28-11.18-6.96-18.49-6.96-8.53,0-16.06,3.64-20.63,9.22-1.93,2.16-3.77,4.9-5.25,8.29-3.44,7.84-2.38,18.08-.74,24.34-.16.05-.3.1-.42.19-1.11.84-.99,3.29-.75,4.16.35,1.29-.52,2.6-.01,4.61.29,1.15.58,1.88.86,2.42.27.52.52.86.76,1.23.16.25.31.52.45.86.42,1.01.98,4.02,2.66,4.59.39.13.84.13,1.36-.05.26,1.14.52,2.22.74,3.12,1.23,5.03,3.2,8.06,5.74,10.41-.18,5.13-.64,12.64-1.75,15.34-2.64,6.4-7.05,8.96-12.38,11.01-.06.02-.12.05-.18.07-3.06,1.18-6.29,2.35-9.42,3.07-.1.02-.19.04-.29.06-1.57.32-3.08.65-4.49,1.05-.09.03-.18.05-.27.08-.4.12-.79.24-1.17.37-.11.04-.22.07-.32.11-.46.17-.91.34-1.34.53-.6.27-1.45.75-1.95,1.05-.26.15-.43.25-.43.25h0c-1.83.92-3.74,3.68-5.71,10.55-2.64,9.22-6.49,70.31-6.9,76.98-.26,4.25-.86,11.53-1.3,15.01-.11.89-.22,1.54-.3,1.81-.09.3-.18.59-.27.89-.13.44-.27.89-.41,1.33-3.96,12.99-7.73,24.8-8.86,34.19-.08.67-.16,1.32-.23,1.96-.15,1.25-.3,2.46-.44,3.64-.07.58-.14,1.16-.21,1.73-1.36,11.36-2.32,19.45-3.78,30.34-.23,1.71-.51,2.99-.8,4.03-.7,2.47-1.45,3.58-1.68,5.73-.01.12-.01.24-.02.35-.02.33-.03.67-.03,1.08,0,.67,0,1.52-.1,2.72-.04.54-.1,1.14-.18,1.85-.14,1.21-.28,2.25-.41,3.17-.67,4.72-1.22,6.12-1.72,8.32-1.36,5.98-1.89,9.11-1.76,13.22.18,5.45,1.25,8.06,3.24,10.7.88,1.16,1.76,2.57,2.99,4.09.21.26.41.52.64.79,1.76,2.01,2.34,2.53,2.95,1.99.18-.16.36-.4.57-.73.22-.34.34-.71.41-1.11,0-.02,0-.03.01-.05,0,0,0-.02,0-.03.27-1.79-.65-4.22-.21-8.03.56-4.86,1.4-7.09,1.95-11.27.18-1.37.33-2.95.43-4.9,0-.07,0-.12.02-.13.13-.15.77,5.58,2.63,7.78,1.29,1.53,3.3,1.73,3.77,1.24.11-.11.14-.26.06-.44-4.04-8.9-.5-14.6-2.25-21.41-.43-1.65-1.41-4.03-1.85-5.81-.14-.59-.23-1.12-.21-1.53,0-.07.01-.15.02-.22,0-.07.01-.15.02-.22.21-2.69,1.21-5.84,2.7-9.53-.32,2.96-.52,6.11-.56,9.51v.15c-.04,4.27.16,8.91.69,13.96,1.31,12.52,10.98,39.26,14.59,52.03,8.02,28.38,12.56,45.41,13.15,55.42.77,12.92-.99,16.97-2.56,24.79-3.05,15.22-.82,28.37,2.8,40.42,6.69,22.28,13.71,32.19,14.43,43.89.17,2.92-2.02,4.14-.81,7.83.63,1.92,1.69,3.76.08,8.04-5.46,14.49-12.57,18.28-11.73,23.57.93,5.86,20.64,5.49,28.36,4.17,6.35-1.08,6.26-10.06,4.43-20.34-.37-2.07-.56-4.4-.42-7.95.08-1.76.55-3.81.8-6.28.23-2.28-.43-4.69-.8-6.6-.27-1.45-.55-2.61-.6-3.21-1.7-22.39-1.17-27.75,1.65-48.8,2.85-21.26-1.15-25.08-.65-38.08.3-7.7,2.64-15.58,3.27-23.92.79-10.47-.3-20.35-1.41-27.79-3.06-20.57-3.04-23.89-4.03-40.16-1.07-17.65,4.59-26.31,1.36-41.54.75.26,2.58.36,4.4.38,1.82,0,3.65-.12,4.4-.38-3.23,15.23,2.43,23.89,1.36,41.54-.99,16.27-.97,19.59-4.03,40.16-1.11,7.44-2.19,17.32-1.4,27.79.62,8.34,2.96,16.22,3.26,23.92.5,13-3.5,16.82-.64,38.08,2.82,21.05,3.35,26.41,1.64,48.8-.05.6-.33,1.76-.6,3.21-.36,1.91-1.03,4.32-.8,6.6.25,2.47.73,4.52.8,6.28.14,3.55-.05,5.88-.42,7.95-1.83,10.28-1.91,19.26,4.44,20.34,7.71,1.32,27.42,1.69,28.35-4.17.84-5.29-6.26-9.08-11.72-23.57-1.62-4.28-.55-6.12.08-8.04,1.21-3.69-.99-4.91-.81-7.83.71-11.7,7.73-21.61,14.43-43.89,3.62-12.05,5.84-25.2,2.8-40.42-1.57-7.82-3.33-11.87-2.57-24.79.59-10.01,5.13-27.04,13.16-55.42,3.61-12.77,13.28-39.51,14.59-52.03.52-5.05.72-9.69.68-13.96v-.15c-.04-3.4-.24-6.54-.56-9.5.05.12.09.23.14.34,1.41,3.54,2.36,6.57,2.56,9.17,0,.07.02.14.02.22,0,.08.02.15.02.22.02.41-.06.94-.21,1.53-.44,1.78-1.42,4.16-1.85,5.81-1.75,6.81,1.79,12.51-2.25,21.41-.08.18-.05.33.06.44.47.49,2.48.29,3.77-1.24,1.86-2.2,2.5-7.94,2.63-7.78,0,.02.01.06.02.13.1,1.95.25,3.53.43,4.9.55,4.17,1.38,6.4,1.95,11.27.44,3.81-.48,6.24-.21,8.03,0,0,0,.02,0,.03,0,.02,0,.03.01.05.07.4.19.76.41,1.11.21.33.39.58.57.73.6.54,1.19.02,2.95-1.99.23-.26.42-.51.63-.77,1.24-1.53,2.13-2.94,3.01-4.11,1.99-2.64,3.06-5.25,3.24-10.7.13-4.11-.4-7.24-1.76-13.22Z"/>
  </g>
</svg>