<?xml version="1.0" encoding="UTF-8"?>
<svg id="_레이어_2" data-name="레이어 2" xmlns="http://www.w3.org/2000/svg" viewBox="0 0 169.72 572.21">
  <defs>
    <style>
      .cls-1 {
        fill: #f3a9aa;
        stroke: #231815;
        stroke-miterlimit: 10;
      }
    </style>
  </defs>
  <g id="_레이어_1-2" data-name="레이어 1">
    <path class="cls-1" d="m119.22,169.39s0,.02.01.02c.05.27.11.59.18.94.2,1.06.47,2.41.73,3.76.39,1.96.78,3.9,1,4.86.56,2.38,1.17,4.85,1.82,7.34.94,3.65,1.94,7.37,2.89,10.96.13.49.26.98.39,1.47,1.44,5.49,2.73,10.62,3.48,14.71.03.16.06.32.09.47.15.83.28,1.63.37,2.36.15,1.2.63,8.01,2.53,17.4-.38-.58-.77-1.17-1.18-1.8-2.49-3.79-4.39-7.13-5.83-10.26-1.04-2.76-1.81-5.41-2.39-8.06,0-.05-.02-.1-.04-.15,0,0,0,0,0,0-.95-3.4-2.81-6.41-3.89-11.96-.65-3.3-1.05-7.2-1.14-12.03,0-.43-.01-.87-.02-1.32-.1-5.32.01-10.99.69-16.83.09-.62.19-1.24.29-1.88Zm-68.71,0c.1.64.2,1.27.29,1.89.67,5.84.75,11.5.65,16.81-.1,5.43-.52,9.76-1.25,13.37-1.12,5.55-2.99,8.57-3.77,11.98,0,0,0,0,0,0-.02.05-.03.1-.03.15-.74,2.13-1.41,4.19-2.15,6.3-1.5,3.54-3.25,7.27-6.05,11.99-.44.74-.85,1.43-1.25,2.09,1.95-9.54,2.44-16.48,2.59-17.69.11-.84.26-1.75.44-2.72.03-.14.05-.29.08-.43.76-4.08,2.05-9.16,3.47-14.57.11-.41.22-.82.32-1.23.93-3.51,1.9-7.13,2.83-10.7.67-2.6,1.32-5.18,1.9-7.66.22-.97.62-2.91,1-4.88.26-1.34.52-2.69.73-3.74.07-.34.13-.66.18-.93,0-.01,0-.02.01-.03Zm-12.19-63.94c-.78.34-1.99,1.05-2.08,1.09,0,0-.01.01-.02.02-.71.34-1.57.98-2.07,1.64,0,0,0,0,0,0-1.31,1.41-2.66,4.01-4.05,8.62-.19.63-.39,1.44-.58,2.41-2.64,13.16-6.11,68.82-6.5,75.17-.27,4.41-.91,12.1-1.34,15.39-.09.69-.18,1.19-.25,1.43s-.14.44-.2.66c-.16.52-.32,1.04-.48,1.56-3.99,12.98-7.73,24.8-8.86,34.19-.1.83-.19,1.64-.29,2.44-.11.93-.22,1.84-.33,2.73-.09.74-.18,1.46-.26,2.17-1.36,11.36-2.32,19.45-3.78,30.34-.41,3.07-.99,4.77-1.5,6.16-.44,1.21-.82,2.18-.98,3.6-.04.35-.04.71-.04,1.16,0,.32,0,.67-.02,1.07-.02.83-.06,1.9-.23,3.41-.05.48-.11.94-.16,1.4-.12.97-.24,1.83-.35,2.59-.64,4.36-1.17,5.73-1.65,7.85-1.36,5.98-1.89,9.11-1.76,13.22.05,1.37.15,2.56.3,3.61.14.93.32,1.76.55,2.51.54,1.8,1.34,3.18,2.38,4.57.94,1.25,1.87,2.78,3.28,4.43,1.8,2.09,2.16,2.33,2.99,1.39,1.03-.22.96-1.12,1.03-2.72,0-.13.02-.27.03-.41.02-.22.02-.45.02-.68,0-.03,0-.06,0-.09,0-.03,0-.05,0-.08,0-1.06-.08-2.3.01-3.77.11-1.64.28-3.08.52-4.5.65-3.88,1.4-6.32,1.78-11.83.06-.82.11.41.72,1.65,0,.02.02.04.03.07.32,1.09.8,2.85,1.58,4.09.62.98,1.47,1.62,2.23,1.92.38.89.82,1.68,1.22,2.41,3.68,12.25,8.75,26.21,11.19,34.41,8.45,28.38,13.23,45.41,13.85,55.42.81,12.92-1.05,16.97-2.7,24.79-3.21,15.21-.86,28.37,2.95,40.42,7.05,22.28,14.45,32.19,15.2,43.89.18,2.91-2.14,4.14-.86,7.83.67,1.92,1.79,3.76.09,8.04-5.75,14.48-13.23,18.28-12.35,23.57.98,5.86,21.74,5.49,29.86,4.17,6.69-1.09,6.6-10.06,4.67-20.34-.39-2.07-.59-4.4-.44-7.96.08-1.75.57-3.8.84-6.28.24-2.28-.46-4.68-.84-6.59-.29-1.45-.58-2.61-.63-3.21-1.8-22.39-1.24-27.76,1.73-48.8,3-21.26-1.21-25.08-.68-38.08.32-7.7,2.78-15.58,3.44-23.92.83-10.47-.31-20.35-1.48-27.79-3.22-20.57-3.2-23.89-4.25-40.16-1.12-17.66,4.84-26.31,1.44-41.54.78.26,2.72.35,4.63.37s3.85-.11,4.63-.37c-3.39,15.23,2.57,23.88,1.44,41.54-1.04,16.27-1.03,19.59-4.25,40.16-1.16,7.44-2.31,17.32-1.48,27.79.66,8.34,3.13,16.22,3.44,23.92.53,13-3.68,16.82-.68,38.08,2.97,21.04,3.53,26.41,1.73,48.8-.05.6-.34,1.76-.63,3.21-.38,1.91-1.08,4.31-.84,6.59.26,2.48.76,4.53.84,6.28.15,3.56-.05,5.89-.44,7.96-1.93,10.28-2.02,19.25,4.67,20.34,8.12,1.32,28.88,1.69,29.86-4.17.88-5.29-6.6-9.09-12.35-23.57-1.7-4.28-.57-6.12.09-8.04,1.27-3.69-1.04-4.92-.85-7.83.75-11.7,8.14-21.61,15.19-43.89,3.82-12.05,6.16-25.21,2.95-40.42-1.65-7.82-3.51-11.87-2.7-24.79.62-10.01,5.4-27.04,13.85-55.42,2.58-8.66,8.09-23.75,11.81-36.46.78-.14,1.72-.57,2.44-1.43,1.97-2.33,2.57-8.62,2.64-7.68,0,.03,0,.06,0,.1.08,1.52.19,2.82.32,3.97.54,4.75,1.45,6.94,2.06,12.13.48,4.07-.61,6.56-.14,8.39,0,.03.01.06.02.09,0,.03.02.06.03.1.07.22.17.43.29.63.09.14.17.26.24.36.76,1.05,1.21.73,3.27-1.62.54-.61,1-1.21,1.43-1.79.85-1.14,1.53-2.19,2.21-3.1,1.04-1.38,1.83-2.76,2.38-4.54.23-.75.41-1.58.55-2.5.16-1.07.26-2.27.31-3.65.13-4.11-.4-7.24-1.76-13.22-.52-2.29-1.09-3.7-1.8-8.89-.11-.78-.22-1.64-.33-2.61-.06-.53-.11-1.01-.14-1.44-.12-1.43-.13-2.38-.13-3.12,0-.43,0-.78-.02-1.12,0-.1-.01-.21-.02-.31-.09-.83-.26-1.5-.47-2.16-.57-1.77-1.46-3.42-2.01-7.6-1.46-10.89-2.42-18.98-3.78-30.34-.09-.7-.17-1.42-.26-2.15-.11-.88-.21-1.78-.32-2.71-.1-.8-.19-1.63-.29-2.47-1.13-9.39-4.87-21.21-8.86-34.19-.21-.69-.42-1.37-.63-2.05-.05-.15-.09-.37-.15-.63-.06-.33-.13-.82-.21-1.42-.43-3.49-1.03-10.71-1.29-14.93-.4-6.51-4.08-64.83-6.7-76.19-.09-.4-.18-.75-.28-1.06-1.67-5.71-3.29-8.49-4.85-9.73,0,0,0,0,0,0-.26-.23-.64-.48-1.05-.69,0,0,0,0,0,0-.11-.06-.65-.38-1.24-.69-.03-.01-.05-.03-.08-.04-.38-.2-.77-.39-1.11-.54-.17-.07-.34-.14-.52-.21-.26-.1-.52-.2-.79-.29-.19-.07-.39-.13-.59-.2-.43-.14-.88-.27-1.33-.39-.12-.03-.24-.06-.36-.09-.87-.23-1.77-.42-2.7-.62-.42-.09-.84-.18-1.28-.28-2.21-.49-4.47-1.24-6.68-2.04-.3-.11-.61-.22-.91-.33-.68-.25-1.35-.51-2.01-.76-5.34-2.05-9.74-4.61-12.38-11.01-1.11-2.7-1.57-10.21-1.75-15.34,2.54-2.35,4.51-5.38,5.74-10.41.22-.9.48-1.97.74-3.12.7.24,1.26.16,1.73-.12,1.4-.85,1.9-3.49,2.29-4.42.56-1.36,1.31-1.49,2.07-4.5.5-2-.37-3.32-.01-4.61.24-.87.36-3.32-.75-4.16-.11-.08-.24-.13-.38-.17,0-.04,0-.07-.02-.11,1.63-6.28,2.66-16.45-.77-24.25-1.48-3.39-3.32-6.12-5.25-8.29-4.57-5.57-12.1-9.22-20.63-9.22-2.55,0-5.01.33-7.33.93-5.44,1.42-10.1,4.38-13.31,8.29-1.93,2.17-3.77,4.9-5.25,8.29-3.44,7.84-2.38,18.08-.74,24.35-.15.04-.3.09-.42.18,0,0,0,0,0,0,0,0,0,0,0,0,0,0,0,0,0,0-1.1.85-.98,3.29-.74,4.15.36,1.29-.52,2.61-.01,4.61.76,3.01,1.51,3.14,2.07,4.5.52,1.24,1.24,5.52,4.02,4.54.26,1.15.52,2.22.74,3.12,1.23,5.03,3.2,8.06,5.74,10.41-.18,5.13-.64,12.64-1.75,15.34-2.43,5.88-6.34,8.52-11.1,10.5-.37.15-.74.3-1.12.45-.21.08-.42.16-.63.24-2.89,1.11-5.92,2.22-8.89,2.9-.35.08-.69.15-1.03.23-.15.03-.3.07-.44.1-.08.02-.16.03-.24.05-.81.17-1.61.35-2.37.55-.13.03-.26.07-.39.1-.47.13-.94.26-1.39.4-.21.07-.42.14-.62.21-.27.09-.53.19-.79.29-.18.07-.37.14-.54.22Z"/>
  </g>
</svg>