<?xml version="1.0" encoding="UTF-8"?>
<svg id="_레이어_2" data-name="레이어 2" xmlns="http://www.w3.org/2000/svg" viewBox="0 0 169.04 571.6">
  <defs>
    <style>
      .cls-1 {
        fill: #f2a7a9;
        stroke: #221714;
        stroke-miterlimit: 10;
      }
    </style>
  </defs>
  <g id="_레이어_1-2" data-name="레이어 1">
    <path class="cls-1" d="m66.97,89.72c-.27.61-.56,1.18-.87,1.72l-25.15,12.89c-.39.1-.78.21-1.15.32-.15.05-.3.09-.44.14-.33.11-.65.22-.97.34-.15.05-.29.11-.43.17-.67.28-1.64.81-1.84.91-.15.07-.33.17-.5.26-.56.3-1.11.65-1.32.85,0,0,0,0,0,0-1.64,1.18-3.34,3.98-5.08,10.08-2.64,9.22-6.49,70.31-6.9,76.98-.31,5.1-1.1,14.56-1.53,16.52-.05.23-.1.43-.15.59-.04.14-.08.28-.12.41-.15.5-.31,1.01-.46,1.51-3.99,12.98-7.73,24.8-8.86,34.19-.31,2.62-.6,5.04-.88,7.33-1.36,11.36-2.32,19.45-3.78,30.34-.64,4.84-1.67,6.19-2.2,8.53-.13.6-.28,1.19-.31,1.95-.02.51-.01,1.2-.14,2.37-.04.41-.06.82-.1,1.27-.3,3.61-.72,4.94-1.1,7.18-.02.14-.05.28-.07.43-.06.35-.12.69-.17,1.02-.98,5.78-1.45,8-1.72,11.13-.5,5.72-.1,8.52.74,11.96.82,3.36,1.62,5.57,3.44,7.79,1.57,1.92,2.22,2.9,3.33,2.78.15-.02.28-.08.39-.04,1.27.47.79-.89,1.59-3.47.04-.11.09-.22.14-.35.05-.12.08-.24.12-.37,0,0,0-.01,0-.02,0,0,0-.02,0-.02.69-2.72.29-5.07.79-8.71.32-2.33.62-4.35.94-6.78.21-1.64.74.55,1.86.14.81.62,2.15.23,1.98-.61-.01-.06-.02-.11-.03-.15-.05-.13-.09-.24-.13-.33.12.12.28.23.49.28.64.13,1.76-.6,1.96-1.61.02-.1.02-.21,0-.32-.64-3.08-.81-5.86-1.18-8.66-.44-3.37-.55-7.09-1.15-10.06-.14-.71-.48-1.63-.71-2.47-.14-1.01-.2-2-.06-2.85.01-.1.03-.21.05-.32,0-.03.01-.07.02-.1.5-3.02,1.83-6.56,3.62-10.75.55-1.27,1.09-2.53,1.65-3.8,3.09-7.06,5.15-12.22,9.74-25.35.28-.79.56-1.61.86-2.46.1-.29.2-.57.3-.86.61-1.77,1.16-3.52,1.68-5.24,4.63-15.55,5.48-28.43,5.7-30.13.11-.85.26-1.78.44-2.76,0-.04.01-.08.02-.12.42-2.24.99-4.8,1.66-7.56,1.86-7.62,4.47-16.75,6.46-25.01.25-1.02.55-2.35.84-3.74.29-1.38.63-3.11.88-4.39.48-.06.99-.35,1.35-.05.01,0,.03,0,.04,0,.12.52.23,1.05.34,1.56.71,7.38.28,19.09-.6,31.12-.12,1.63-.31,3.27-.58,4.93h0c-.33,2.04-.78,4.11-1.28,6.23-1.03,4.34-2.28,8.85-3.64,13.56-2.03,7.03-3.78,13.09-4.99,17.49-1.28,2.51-2.28,4.37-2.86,5.5-.43.82-.74,1.39-.88,1.69-.09.18-.15.34-.18.44-3.15,9.02-7.91,20.95-8.01,40.72,0,.1-.01.2-.01.3v.29c-.02,4.19.15,8.72.58,13.66,1.1,12.52,9.23,39.26,12.26,52.03,6.75,28.39,10.57,45.42,11.06,55.42.65,12.93-.83,16.97-2.15,24.8-2.56,15.21-.69,28.36,2.35,40.42,5.63,22.28,11.53,32.19,12.13,43.88.15,2.92-1.69,4.14-.68,7.83.53,1.93,1.43,3.77.07,8.05-4.59,14.48-10.56,18.27-9.86,23.56.79,5.86,17.35,5.5,23.84,4.18,5.34-1.09,5.27-10.06,3.73-20.34-.31-2.08-.47-4.4-.35-7.96.06-1.76.46-3.81.67-6.28.19-2.28-.37-4.69-.67-6.6-.23-1.44-.47-2.6-.51-3.21-1.43-22.38-.99-27.75,1.39-48.79,2.39-21.27-.97-25.08-.55-38.08.25-7.71,2.22-15.58,2.75-23.93.66-10.46-.25-20.35-1.18-27.79-2.58-20.57-2.56-23.89-3.39-40.15-.9-17.66,3.85-26.32,1.14-41.55.63.27,2.17.37,3.7.38,1.53,0,3.07-.11,3.7-.38-2.71,15.23,2.04,23.89,1.14,41.55-.83,16.26-.81,19.58-3.39,40.15-.93,7.44-1.84,17.33-1.18,27.79.53,8.35,2.5,16.22,2.75,23.93.42,13-2.94,16.81-.55,38.08,2.37,21.04,2.82,26.41,1.39,48.79-.04.61-.28,1.77-.51,3.21-.3,1.91-.86,4.32-.67,6.6.21,2.47.61,4.52.67,6.28.12,3.56-.04,5.88-.35,7.96-1.54,10.28-1.61,19.25,3.73,20.34,6.48,1.32,23.05,1.68,23.84-4.18.7-5.29-5.27-9.08-9.86-23.56-1.36-4.28-.46-6.12.07-8.05,1.01-3.69-.83-4.91-.68-7.83.6-11.69,6.5-21.6,12.13-43.88,3.04-12.06,4.91-25.21,2.35-40.42-1.32-7.83-2.8-11.87-2.16-24.8.5-10,4.32-27.03,11.07-55.42,3.03-12.77,11.16-39.51,12.26-52.03.43-4.94.6-9.47.58-13.66v-.29c0-.1,0-.2-.01-.3-.1-19.92-5-31.86-8.08-40.93-.02-.06-.1-.22-.22-.45-.56-1.08-2.16-4.03-4.41-8.48-1.08-3.82-2.39-8.67-4-14.14-1.94-6.58-3.78-12.59-4.72-18.45,0,0,0,0,0,0-.27-1.65-.46-3.29-.58-4.93-1.04-14.54-1.37-29.45-.13-38.37.1-.04.21-.04.33,0,.48,2.47,1.38,7.14,1.77,8.82,2.74,11.72,6.97,25.57,8.58,34.48.17.93.32,1.81.43,2.62.02.11.03.25.05.39.03.25.07.66.12,1.19.45,4.59,1.93,18.72,7.38,34.42.29.82.56,1.61.83,2.37.12.34.24.68.35,1.02.89,2.55,1.69,4.79,2.42,6.81,2.55,7.07,4.25,11.34,6.25,15.97.55,1.27,1.11,2.57,1.73,3.96.55,1.24,1.06,2.42,1.53,3.55,1.76,4.22,2.97,7.76,3.19,10.74,0,.12.03.25.04.39,0,.03,0,.06,0,.09,0,.14,0,.3-.03.47-.19,1.77-1.52,4.84-2.03,6.84-1.75,6.81,1.79,12.51-2.25,21.41-.08.18-.05.33.07.44.49.47,2.48.27,3.76-1.25,1.92-2.28,2.54-8.36,2.64-7.71,0,.03,0,.06.01.11.36,7.06,1.38,9.25,2.14,14.31.08.57.16,1.16.24,1.81.33,2.79-.08,4.84-.22,6.44-.09,1.1-.06,1.99.43,2.77.28.45.51.74.75.87.55.28,1.18-.32,2.76-2.13,1.6-1.83,2.6-3.52,3.63-4.88,1.84-2.44,2.9-4.86,3.19-9.51.02-.38.04-.78.06-1.19.01-.41.02-.81.02-1.2,0-1.74-.13-3.37-.41-5.21-.29-1.92-.74-4.06-1.36-6.81-.4-1.76-.83-3.01-1.33-5.86-.25-1.4-.51-3.2-.79-5.64-.25-2.08-.27-3.36-.27-4.3,0-.09,0-.18,0-.26,0-.34,0-.63-.01-.9,0-.18-.02-.36-.03-.53-.32-3.06-1.72-4.02-2.49-9.76-.89-6.71-1.6-12.36-2.34-18.37-.45-3.74-.92-7.61-1.44-11.97-.04-.33-.08-.66-.12-.99-.22-1.83-.45-3.74-.69-5.78-.04-.36-.09-.72-.14-1.09-1.2-9.3-4.87-20.92-8.79-33.66-.09-.31-.19-.62-.28-.92-.13-.43-.26-.86-.39-1.3-.15-.5-.37-2.23-.59-4.47-.38-3.77-.79-9-1-12.35-.4-6.56-4.13-65.71-6.76-76.42-.1-.41-.21-.79-.31-1.14-1.72-5.77-3.38-8.46-4.99-9.58,0,0,0,0,0,0-.06-.05-.18-.14-.34-.25-.23-.16-.5-.32-.78-.47,0,0,0,0,0,0-.21-.11-.69-.39-1.18-.64-.42-.21-.88-.42-1.29-.59-.09-.04-.18-.07-.26-.1-.36-.14-.73-.27-1.11-.4l-26.82-13.74v.26c-.36-.66-.7-1.36-1.02-2.12-1.11-2.7-1.56-10.21-1.75-15.34,2.54-2.35,4.51-5.38,5.74-10.41.22-.9.48-1.97.74-3.12.18.06.34.1.5.12,2.37.33,3.03-3.5,3.52-4.67.57-1.36,1.31-1.49,2.07-4.5.5-2-.36-3.32,0-4.61.24-.87.36-3.32-.75-4.16-.09-.07-.19-.11-.31-.14-.03-.04-.06-.09-.09-.13,1.64-6.28,2.66-16.46-.76-24.26-.74-1.71-1.58-3.24-2.47-4.63-.76-1.18-1.56-2.24-2.38-3.19-.03-.03-.05-.07-.08-.1,0,0-.01-.02-.02-.02-.23-.27-.46-.55-.7-.81-.48-.56-1-1.09-1.54-1.6-4.41-4.19-10.69-6.89-17.71-7.12-.13,0-.26-.01-.4-.01-.24,0-.48,0-.72,0-.27,0-.55,0-.82,0h0c-7.77.23-14.63,3.53-19.06,8.5-.41.44-.81.9-1.19,1.38-1.56,1.86-3.04,4.1-4.29,6.78-.25.53-.48,1.08-.71,1.64-2.9,7.39-2.07,16.64-.61,22.71-.06.1-.12.2-.16.32-.09.27-.15.58-.17.91,0,.04,0,.09,0,.13-.11.1-.2.21-.28.34-.45.75-.51,1.87-.44,2.62.06.59.06,1.16.08,1.63.04.88-.22,1.81-.09,3,.06.57.16,1.09.32,1.6.24.78.49,1.29.72,1.73.25.48.47.85.69,1.27.13.25.28.53.42.85.08.19.17.39.25.61.51,1.37,1.28,4.13,3.3,3.86.18.17.37.31.58.41.18.77.36,1.51.52,2.17.08.33.16.65.24.96,1.17,4.49,2.96,7.34,5.24,9.56.12.3.23.6.35.9-.18,4.81-.6,11.38-1.56,14.27-.13.38-.26.74-.4,1.06Z"/>
  </g>
</svg>