<?xml version="1.0" encoding="UTF-8"?>
<svg id="_레이어_2" data-name="레이어 2" xmlns="http://www.w3.org/2000/svg" viewBox="0 0 169.73 571.77">
  <defs>
    <style>
      .cls-1 {
        fill: #f2a7a9;
        stroke: #221714;
        stroke-miterlimit: 10;
      }
    </style>
  </defs>
  <g id="_레이어_1-2" data-name="레이어 1">
    <path class="cls-1" d="m165.32,301.07c-.27-2.28-.27-3.6-.28-4.57,0-.55,0-.99-.04-1.43-.33-3.05-1.73-4.01-2.49-9.76-1.45-10.89-2.42-18.97-3.78-30.33-.27-2.3-.56-4.72-.88-7.33-1.13-9.39-4.89-21.2-8.86-34.19-.22-.74-.45-1.48-.67-2.23-.41-1.34-1.27-11.48-1.6-16.82-.41-6.67-4.26-67.76-6.9-76.97-1.53-5.36-3.02-8.2-4.48-9.63-.41-.41-.83-.71-1.23-.91h0s-.04-.04-.1-.07h.1l-.81-.41c-.49-.28-1.1-.62-1.57-.83-.06-.03-.14-.05-.2-.08l-29.01-14.87v.05c-.24-.47-.46-.95-.68-1.46-1.11-2.7-1.56-10.21-1.75-15.34,2.54-2.35,4.51-5.38,5.74-10.41.22-.9.48-1.98.74-3.12.35.12.66.16.95.14,2.01-.18,2.62-3.59,3.07-4.68.07-.18.15-.33.22-.47.34-.62.74-1.03,1.15-1.93.23-.5.47-1.16.7-2.1.51-2.01-.36-3.32-.01-4.61.24-.87.36-3.32-.75-4.16-.12-.09-.26-.14-.42-.19,1.65-6.26,2.7-16.5-.74-24.34-1.48-3.39-3.32-6.13-5.25-8.29-4.57-5.58-12.1-9.22-20.63-9.22h0c-1,0-1.99.05-2.96.15-.06,0-.12,0-.18.01-.28.03-.55.07-.82.11-.24.03-.48.06-.71.1-.06.01-.12.02-.19.04-4.82.81-9.15,2.81-12.56,5.62-1.18.97-2.26,2.04-3.2,3.19-1.93,2.17-3.77,4.9-5.25,8.29-3.44,7.84-2.38,18.07-.74,24.34-.1.03-.18.06-.26.1-.05.02-.11.05-.16.08-1.11.84-.99,3.29-.75,4.16.36,1.29-.52,2.61-.01,4.61.75,3.01,1.51,3.14,2.07,4.5.46,1.09,1.06,4.5,3.08,4.68.29.03.6-.01.95-.14.26,1.15.52,2.22.74,3.12,1.23,5.03,3.2,8.06,5.74,10.41-.18,5.13-.64,12.64-1.75,15.34-.21.51-.44,1-.67,1.46v-.05l-29.03,14.88s-.01,0-.02,0c-.05.02-.11.04-.16.06-.46.21-1.06.54-1.55.82l-.83.43h.09c-.06.03-.1.06-.1.06h0c-1.83.92-3.74,3.68-5.71,10.55-2.64,9.22-6.49,70.31-6.9,76.98-.33,5.34-1.19,15.48-1.59,16.82-.23.74-.45,1.48-.68,2.22-3.96,12.99-7.73,24.8-8.86,34.19-.31,2.62-.6,5.04-.88,7.33-1.36,11.36-2.32,19.45-3.78,30.34-.76,5.74-2.15,6.7-2.48,9.76-.05.43-.05.87-.05,1.43,0,.97-.01,2.29-.27,4.56-.87,7.4-1.53,8.87-2.13,11.5-1.36,5.98-1.89,9.11-1.76,13.22.18,5.45,1.25,8.06,3.24,10.7,1.03,1.36,2.04,3.05,3.64,4.88,1.14,1.3,1.78,1.98,2.26,2.15.48.17.79-.16,1.25-.89,1.21-1.9-.33-4.5.22-9.21.75-6.46,1.98-8.27,2.37-16.17,0-.07,0-.12.02-.13.11-.13.61,4.14,1.94,6.72.21.4.44.77.69,1.07,1.59,1.88,4.26,1.75,3.83.8-4.04-8.89-.5-14.59-2.25-21.4-.56-2.2-2.13-5.7-2.05-7.35,0-.14.03-.3.04-.44.29-3.77,2.14-8.44,4.72-14.28,3.54-8.01,5.57-12.93,10.57-27.24.33-.93.66-1.89,1.01-2.9,6.25-17.98,7.28-33.89,7.53-35.8.11-.86.27-1.82.45-2.82,1.63-8.92,5.85-22.77,8.58-34.49.43-1.85,1.49-7.3,1.92-9.58.13.51.24,1.04.36,1.56-.78,5.42-3.46,24.09-5.86,42.52-1.2,9.23-2.32,18.4-3.1,25.82-3.95,6.29-5.73,9.03-8.15,15.38l-.12.3c-3.35,9.07-8.43,21.07-8.65,41.08,0,.1-.01.19-.01.29v.15c-.03,4.23.15,8.82.61,13.81,1.17,12.52,9.82,39.26,13.04,52.03,7.18,28.39,11.23,45.41,11.76,55.42.68,12.93-.89,16.97-2.29,24.8-2.73,15.21-.74,28.36,2.5,40.42,5.98,22.28,12.26,32.19,12.9,43.88.15,2.92-1.81,4.14-.73,7.83.57,1.93,1.52,3.77.07,8.05-4.88,14.48-11.22,18.27-10.47,23.56.83,5.86,18.44,5.5,25.34,4.18,5.67-1.09,5.6-10.06,3.96-20.34-.33-2.08-.5-4.4-.37-7.96.06-1.76.49-3.81.71-6.28.21-2.28-.39-4.69-.71-6.6-.24-1.44-.5-2.6-.54-3.21-1.52-22.38-1.05-27.75,1.47-48.79,2.55-21.27-1.02-25.08-.57-38.08.26-7.71,2.35-15.58,2.91-23.93.71-10.46-.26-20.35-1.25-27.79-2.74-20.57-2.72-23.89-3.61-40.15-.95-17.66,4.11-26.32,1.22-41.55.67.27,2.31.37,3.93.38,1.63.01,3.27-.11,3.94-.38-2.89,15.23,2.17,23.89,1.21,41.55-.88,16.26-.87,19.58-3.6,40.15-.99,7.44-1.96,17.33-1.26,27.79.56,8.35,2.65,16.22,2.92,23.93.45,13-3.12,16.81-.58,38.08,2.53,21.04,3,26.41,1.48,48.79-.05.61-.3,1.77-.54,3.21-.32,1.91-.92,4.32-.72,6.6.23,2.47.65,4.52.72,6.28.13,3.56-.04,5.88-.37,7.96-1.64,10.28-1.72,19.25,3.96,20.34,6.89,1.32,24.51,1.68,25.34-4.18.75-5.29-5.6-9.08-10.48-23.56-1.44-4.28-.49-6.12.08-8.05,1.07-3.69-.89-4.91-.73-7.83.64-11.69,6.91-21.6,12.9-43.88,3.24-12.06,5.22-25.21,2.5-40.42-1.4-7.83-2.97-11.87-2.29-24.8.52-10.01,4.58-27.03,11.76-55.42,3.22-12.77,11.87-39.51,13.04-52.03.46-4.99.64-9.58.61-13.81v-.15c0-.1,0-.19,0-.29-.22-20.01-5.3-32.01-8.65-41.08-.04-.1-.08-.2-.12-.3-2.41-6.35-4.19-9.08-8.13-15.37-.78-7.42-1.9-16.59-3.1-25.83-2.4-18.44-5.08-37.12-5.86-42.53.12-.5.23-1.02.35-1.52.44,2.31,1.48,7.72,1.91,9.56,2.74,11.72,6.95,25.57,8.58,34.48.18,1.01.34,1.96.46,2.83.24,1.9,1.28,17.82,7.52,35.8.35,1.01.69,1.97,1.01,2.89,5,14.32,7.03,19.24,10.57,27.24,2.58,5.85,4.43,10.51,4.72,14.29.01.14.04.29.05.44.07,1.64-1.5,5.14-2.06,7.34-1.75,6.81,1.79,12.51-2.25,21.41-.11.24-.02.42.21.54.64.35,2.44.07,3.64-1.34,1.82-2.16,2.47-7.7,2.62-7.77,0,.02.01.06.02.12.4,7.89,1.62,9.71,2.38,16.17.55,4.71-.99,7.3.21,9.21.35.55.61.87.92.93.52.1,1.18-.55,2.6-2.19,1.59-1.83,2.6-3.52,3.63-4.88,1.99-2.64,3.07-5.25,3.24-10.69.14-4.12-.4-7.24-1.76-13.22-.6-2.64-1.26-4.11-2.12-11.5Z"/>
  </g>
</svg>