<?xml version="1.0" encoding="UTF-8"?>
<svg id="_레이어_2" data-name="레이어 2" xmlns="http://www.w3.org/2000/svg" viewBox="0 0 169.72 571.77">
  <defs>
    <style>
      .cls-1 {
        fill: #f2a7a9;
        stroke: #221714;
        stroke-miterlimit: 10;
      }
    </style>
  </defs>
  <g id="_레이어_1-2" data-name="레이어 1">
    <path class="cls-1" d="m3.76,336.48c1.03,1.36,2.04,3.05,3.64,4.88,1.98,2.27,2.29,2.46,3.2,1.48.31-.34.52-.77.66-1.39.4-1.79-.58-4.2-.13-8.05.76-6.46,1.98-8.28,2.38-16.17,0-.05,0-.08.01-.1.1-.55.64,5.15,2.47,7.48,1.21,1.54,3.24,1.53,3.04.87-.21-.7.18-1.87-.18-3.16-1.98-7.12.4-12.15-1.12-18.04-.57-2.2-2.13-5.7-2.06-7.34,0-.15.03-.3.05-.44.29-3.78,2.14-8.44,4.72-14.29,3.54-8,5.56-12.92,10.57-27.24.32-.92.66-1.88,1.01-2.89,6.24-17.98,7.28-33.9,7.52-35.8.11-.87.27-1.82.46-2.83,1.63-8.91,5.84-22.76,8.58-34.48.43-1.85,1.48-7.31,1.92-9.6.13.52.25,1.05.38,1.57,2.03,10.57,2.64,24.46,2.13,37.49-.06,1.66-.25,3.32-.55,5.01,0,0,0,0,0,0-1.04,5.94-3.67,12.04-7,18.92-.9,1.87-1.69,3.55-2.4,5.08-4.78,7.67-6.59,10.31-9.29,17.21-.04.1-.08.2-.12.3-3.47,9.02-8.54,21.07-8.65,41.08,0,.1-.01.19-.01.29v.15c-.03,4.23.15,8.82.61,13.81,1.17,12.52,9.82,39.26,13.04,52.03,7.18,28.39,11.23,45.41,11.76,55.42.68,12.93-.89,16.97-2.29,24.8-2.73,15.21-.74,28.36,2.5,40.42,5.98,22.28,12.26,32.19,12.9,43.88.15,2.92-1.81,4.14-.73,7.83.57,1.93,1.52,3.77.07,8.05-4.88,14.48-11.22,18.27-10.47,23.56.83,5.86,18.44,5.5,25.34,4.18,5.67-1.09,5.6-10.06,3.96-20.34-.33-2.08-.5-4.4-.37-7.96.06-1.76.49-3.81.71-6.28.21-2.28-.39-4.69-.71-6.6-.24-1.44-.5-2.6-.54-3.21-1.52-22.38-1.05-27.75,1.47-48.79,2.55-21.27-1.02-25.08-.57-38.08.26-7.71,2.35-15.58,2.91-23.93.71-10.46-.26-20.35-1.25-27.79-2.74-20.57-2.72-23.89-3.61-40.15-.95-17.66,4.11-26.32,1.22-41.55.67.27,2.31.37,3.93.38,1.63,0,3.27-.11,3.94-.38-2.89,15.23,2.17,23.89,1.21,41.55-.88,16.26-.87,19.58-3.6,40.15-.99,7.44-1.96,17.33-1.26,27.79.56,8.35,2.65,16.22,2.92,23.93.45,13-3.12,16.81-.58,38.08,2.53,21.04,3.16,26.42,1.48,48.79-.05.61-.3,1.77-.54,3.21-.32,1.91-.93,4.32-.72,6.6.22,2.47.65,4.52.72,6.28.13,3.56-.04,5.88-.37,7.96-1.64,10.28-1.72,19.25,3.96,20.34,6.89,1.32,24.51,1.68,25.34-4.18.75-5.29-5.6-9.08-10.48-23.56-1.44-4.28-.48-6.12.08-8.05,1.08-3.69-.89-4.91-.73-7.83.64-11.69,6.91-21.6,12.9-43.88,3.24-12.06,5.22-25.21,2.5-40.42-1.4-7.83-2.97-11.87-2.29-24.8.52-10.01,4.58-27.03,11.76-55.42,3.22-12.77,11.87-39.51,13.04-52.03.46-4.99.64-9.58.61-13.81v-.15c0-.1,0-.19,0-.29-.11-20.01-5.2-32.05-8.65-41.08-.04-.1-.08-.2-.12-.3-2.48-6.36-4.21-9.11-8.19-15.46-1-2.13-2.14-4.6-3.58-7.51-3.31-6.71-5.91-12.56-6.93-18.25,0,0,0,0,0,0-.3-1.66-.48-3.29-.54-4.93-.5-13.44.19-27.84,2.41-38.75.09.19.19.44.31.76.49,2.55,1.33,6.86,1.7,8.45,2.74,11.72,6.97,25.57,8.58,34.48.18,1.01.35,1.96.46,2.83.25,1.9,1.28,17.82,7.52,35.8.35,1.01.69,1.97,1.01,2.89,5,14.32,7.03,19.24,10.57,27.24,2.58,5.85,4.43,10.51,4.72,14.29.01.14.04.29.05.44.09,1.64-1.5,5.14-2.06,7.34-1.75,6.81,1.79,12.51-2.25,21.41-.1.23-.02.41.18.53.63.36,2.46.09,3.65-1.33,1.96-2.32,2.56-8.56,2.64-7.67,0,.03,0,.06,0,.1.4,7.83,1.62,9.66,2.38,16.1.55,4.71-1,7.3.21,9.21.34.54.6.85.9.92.52.12,1.17-.53,2.62-2.18,1.6-1.83,2.61-3.52,3.63-4.88,2-2.64,3.07-5.25,3.25-10.7.13-4.11-.4-7.24-1.76-13.22-.6-2.63-1.26-4.1-2.13-11.5-.27-2.27-.27-3.59-.27-4.56,0-.56,0-1-.05-1.43-.33-3.06-1.72-4.02-2.49-9.76-1.45-10.89-2.41-18.98-3.77-30.34-.28-2.29-.57-4.71-.88-7.33-1.13-9.39-4.9-21.2-8.86-34.19-.23-.74-.45-1.48-.68-2.22-.41-1.34-1.26-11.48-1.59-16.82-.4-6.49-4.06-64.56-6.69-76.1-.1-.44-.2-.84-.3-1.18-1.27-4.34-2.51-6.98-3.72-8.54-.35-.45-.71-.81-1.05-1.1,0,0,0,0,0-.01-.28-.26-.7-.54-1.14-.77,0,0,0,0,0,0-.1-.05-.57-.33-1.1-.62-.44-.23-.92-.47-1.32-.64-.04-.02-.09-.04-.13-.05-.44-.18-.89-.35-1.36-.51l-.1-.03c-.25-.08-.54-.15-.8-.23l-26.21-13.43c-.33-.61-.65-1.26-.94-1.97-1.11-2.7-1.56-10.21-1.75-15.34,2.54-2.35,4.51-5.38,5.74-10.41.22-.9.48-1.97.74-3.12.35.12.67.16.95.14,2-.18,2.61-3.59,3.07-4.68.07-.17.14-.32.22-.46.34-.62.73-1.02,1.14-1.9.23-.51.47-1.18.72-2.14.5-2-.36-3.32-.01-4.61.24-.87.36-3.32-.75-4.16-.12-.09-.26-.14-.42-.18,1.65-6.27,2.7-16.51-.74-24.35-1.48-3.39-3.32-6.12-5.25-8.29-4.57-5.57-12.1-9.22-20.63-9.22h0c-1.01,0-2.01.05-2.99.15-.06,0-.13.01-.19.02-.26.03-.53.06-.79.1-.23.03-.46.06-.69.1-.07.01-.13.02-.2.03-4.86.82-9.22,2.84-12.65,5.69-1.15.96-2.2,2-3.12,3.13-1.93,2.17-3.77,4.9-5.25,8.29-3.44,7.84-2.38,18.08-.74,24.35-.14.04-.27.08-.38.16-.05.03-.09.07-.14.1-1.01.91-.89,3.23-.65,4.08.36,1.29-.51,2.61-.01,4.61.76,3.01,1.51,3.14,2.07,4.5.46,1.1,1.08,4.59,3.15,4.68.27.01.55-.03.87-.14.26,1.15.52,2.22.74,3.12,1.23,5.03,3.2,8.06,5.74,10.41-.18,5.13-.64,12.64-1.75,15.34-.29.7-.6,1.35-.93,1.96l-26.14,13.39c-.17.05-.35.1-.53.15-.21.07-.42.14-.62.21-.27.09-.53.19-.78.29-.19.07-.38.15-.57.23-.77.34-1.98,1.04-2.06,1.08-.01,0-.03.02-.04.02-.71.34-1.57.98-2.07,1.64,0,0,0,0,0,0-1.31,1.41-2.66,4.01-4.05,8.62-.19.63-.39,1.44-.58,2.41-2.64,13.16-6.11,68.82-6.51,75.17-.33,5.34-1.18,15.48-1.59,16.82-.23.74-.45,1.48-.68,2.22-3.99,12.98-7.73,24.8-8.86,34.19-.31,2.62-.6,5.04-.88,7.33-1.36,11.36-2.32,19.45-3.78,30.34-.76,5.74-2.14,6.7-2.48,9.76-.05.43-.05.87-.05,1.43,0,.97-.01,2.29-.27,4.56-.87,7.4-1.53,8.87-2.13,11.5-1.36,5.98-1.89,9.11-1.76,13.22.18,5.45,1.25,8.06,3.24,10.7Z"/>
  </g>
</svg>