<?xml version="1.0" encoding="UTF-8"?>
<svg id="_레이어_2" data-name="레이어 2" xmlns="http://www.w3.org/2000/svg" viewBox="0 0 169.41 571.92">
  <defs>
    <style>
      .cls-1 {
        fill: #f2a7a9;
        stroke: #221714;
        stroke-miterlimit: 10;
      }
    </style>
  </defs>
  <g id="_레이어_1-2" data-name="레이어 1">
    <path class="cls-1" d="m158.11,341.59c.07.37.19.71.39,1.03.2.31.37.55.54.71.61.58,1.19.07,2.97-1.97.35-.41.67-.8.97-1.19.76-.98,1.39-1.91,1.97-2.74.23-.33.46-.65.68-.95,1.49-1.98,2.47-3.94,2.94-7.09.16-1.05.26-2.24.3-3.61.13-4.11-.4-7.24-1.76-13.22-.5-2.19-1.04-3.59-1.71-8.27-.13-.93-.27-1.99-.41-3.22-.21-1.8-.26-3-.27-3.91,0-.24,0-.46,0-.66,0-.41,0-.75-.02-1.07,0-.12,0-.24-.02-.36-.12-1.12-.39-1.97-.71-2.87-.38-1.04-.83-2.17-1.24-3.91-.2-.84-.38-1.81-.54-2.99-.67-5.04-1.24-9.47-1.79-13.91-.64-5.16-1.25-10.32-1.98-16.43-.07-.56-.14-1.13-.21-1.71-.14-1.2-.29-2.43-.44-3.7-.07-.63-.15-1.27-.23-1.92-1.13-9.39-4.86-21.21-8.86-34.19-.16-.53-.32-1.05-.48-1.58-.08-.25-.15-.53-.23-.84-.08-.33-.18-.98-.29-1.85-.43-3.55-1.01-10.61-1.27-14.76-.41-6.61-4.2-66.74-6.83-76.7-.11-.4-.21-.78-.32-1.13-1.79-5.92-3.52-8.51-5.19-9.5,0,0,0,0,0,0-.06-.06-.4-.27-.82-.51-.1-.06-.2-.11-.3-.17,0,0,0,0,0,0-.31-.17-.79-.44-1.22-.65-.42-.2-.86-.39-1.29-.55-.11-.04-.21-.08-.32-.12-.36-.13-.73-.26-1.12-.38,0,0-.02,0-.02,0l-26.56-13.61c-.31-.58-.61-1.2-.88-1.86-1.11-2.7-1.56-10.21-1.75-15.34,2.54-2.35,4.51-5.38,5.74-10.41.22-.9.48-1.97.74-3.12.35.12.66.16.95.14,2.01-.18,2.62-3.59,3.07-4.68.57-1.36,1.31-1.49,2.07-4.5.5-2-.36-3.32,0-4.61.24-.87.36-3.32-.75-4.16-.08-.06-.16-.1-.26-.13-.05-.04-.1-.07-.15-.1,1.64-6.27,2.68-16.48-.75-24.3-1.48-3.39-3.32-6.12-5.25-8.29-1-1.22-2.16-2.35-3.42-3.37-3.37-2.71-7.6-4.64-12.31-5.44-.08-.01-.17-.03-.25-.05-.22-.03-.44-.06-.65-.09-.29-.04-.58-.08-.88-.11-.04,0-.09,0-.13-.01-.98-.1-1.97-.15-2.98-.15h0c-8.53,0-16.06,3.64-20.63,9.22-1.93,2.16-3.77,4.9-5.25,8.29-3.44,7.84-2.38,18.08-.74,24.34-.16.05-.3.1-.42.19-1.11.84-.99,3.29-.75,4.16.35,1.29-.52,2.6-.01,4.61.75,3,1.5,3.14,2.07,4.5.45,1.09,1.07,4.53,3.1,4.68.28.02.58-.02.92-.14.26,1.14.52,2.22.74,3.12,1.23,5.03,3.2,8.06,5.74,10.41-.18,5.13-.64,12.64-1.75,15.34-.31.74-.64,1.43-.99,2.07l-25.74,13.19c-.1.03-.21.05-.32.08-.13.04-.26.08-.39.12-.36.11-.71.23-1.06.35-.13.05-.27.1-.4.15-.56.22-1.27.58-1.58.72-.34.16-.8.41-1.16.61-.42.23-.75.44-.82.49,0,0,0,0,0,0-1.77,1-3.62,3.79-5.52,10.42-2.64,9.22-6.49,70.31-6.9,76.98-.26,4.23-.86,11.48-1.29,14.97-.11.91-.22,1.58-.3,1.85-.09.29-.17.57-.26.85-.14.46-.28.91-.42,1.37-3.99,12.98-7.73,24.8-8.86,34.19-.08.65-.15,1.28-.23,1.91-.15,1.28-.3,2.51-.45,3.71-.07.58-.14,1.15-.21,1.71-1.36,11.36-2.32,19.45-3.78,30.34-.23,1.77-.53,3.09-.83,4.15,0,.02,0,.03-.01.05-.02.05-.03.1-.05.15-.67,2.25-1.37,3.36-1.59,5.41-.02.2-.02.4-.03.63-.01.48-.04,1.06-.09,1.94-.04.71-.05,1.53-.14,2.56-.05.62-.12,1.27-.22,2-.24,1.84-.49,2.96-.69,4.15-.74,4.37-1.23,6.04-1.67,8.26-.38,1.88-.68,3.5-.85,5.05-.42,3.66-.25,6.05.29,8.8.32,1.61.71,3.09,1.23,4.5.02.05.03.1.05.15.9,2.6,1.66,3.99,2.93,4.92.76.55,1.32,1.13,2.07,1.7.19-.04.39-.15.71-.34,1.44,1.22,1.9,1.26,2.44.45.12-.18.25-.4.38-.66.17-.33.28-.68.35-1.04.41-2.08-.21-4.57.23-8.76.41-3.92,1.2-3.98,2.11-6.47.5-.54,1.24-1.67,1.28-3.25.15.92.61,2.75,1.5,3.46.96.78,2.42.57,2.84-.1.08-.13.11-.27.05-.44-1.12-3.3-1.39-6.21-1.6-9-.2-2.65-.31-5.44-.29-7.78,0-.15,0-.3,0-.45,0-1.28-.04-2.59-.21-3.96-.22-1.73-.79-4.1-.92-5.97-.03-.47-.05-.9,0-1.26,0-.07.02-.14.03-.21.01-.07.02-.14.04-.21.17-1.08.45-2.23.82-3.44.93-3.05,2.31-6.35,3.96-10.16.83-1.58,1.52-2.79,2.26-4.1-.91,4.1-1.64,8.69-2,13.88,0,.1-.02.19-.02.28-.17,2.54-.27,5.21-.25,8.05,0,.1,0,.19,0,.29.02,1.91.07,3.9.18,5.95.13,2.44.37,5.08.74,7.88,1.51,11.51,8.41,32.51,12.19,45.55.64,2.2,1.21,4.24,1.7,6.06,6.56,24.54,10.57,40.4,11.73,50.49.19,1.66.31,3.18.38,4.57.48,10.4-.65,14.85-1.89,20.84-.25,1.21-.5,2.45-.73,3.77-2.5,14.03-.76,26.3,2.28,37.59.23.85.46,1.69.7,2.52,6.11,21.25,12.46,31.13,13.41,42.32.04.42.05.84.06,1.25.03,2.5-1.56,3.78-.93,6.76.07.32.15.65.27,1,.55,1.77,1.37,3.54.18,7.24-.08.24-.16.49-.25.75-5.16,14.33-11.82,18.11-11.04,23.38.88,5.86,19.55,5.5,26.85,4.18,6.01-1.09,5.93-10.06,4.2-20.34-.35-2.08-.52-4.4-.39-7.96.06-1.76.51-3.81.75-6.28.22-2.28-.41-4.69-.75-6.6-.26-1.44-.53-2.6-.57-3.21-1.54-22.39-1.12-27.75,1.55-48.79,2.7-21.27-1.08-25.08-.61-38.08.29-7.71,2.5-15.58,3.09-23.93.75-10.46-.28-20.35-1.33-27.79-2.89-20.57-2.88-23.89-3.81-40.15-1.02-17.66,4.34-26.32,1.28-41.55.71.27,2.45.37,4.17.38,1.72,0,3.46-.11,4.17-.38-3.06,15.23,2.3,23.89,1.29,41.55-.94,16.26-.92,19.58-3.82,40.15-1.05,7.44-2.08,17.33-1.33,27.79.59,8.35,2.81,16.22,3.09,23.93.47,13-3.31,16.81-.61,38.08,2.67,21.04,3.28,26.42,1.56,48.79-.05.61-.31,1.77-.57,3.21-.34,1.91-.98,4.32-.76,6.6.24,2.47.69,4.52.76,6.28.13,3.56-.05,5.88-.4,7.96-1.73,10.28-1.81,19.25,4.2,20.34,7.31,1.32,25.97,1.68,26.85-4.18.79-5.29-5.93-9.08-11.1-23.56-1.53-4.28-.53-6.12.07-8.05,1.14-3.69-.93-4.91-.76-7.83.67-11.69,7.32-21.6,13.66-43.88,3.43-12.06,5.54-25.21,2.65-40.42-1.48-7.83-3.15-11.87-2.43-24.8.56-10,4.86-27.03,12.46-55.42,3.42-12.77,12.58-39.51,13.81-52.03.5-5.05.68-9.68.66-13.96,0-.1,0-.19,0-.29-.06-9.9-1.5-17.83-3.29-24.43.48,1.22.95,2.37,1.42,3.51.94,2.27,1.9,4.46,2.99,6.95.88,1.98,1.66,3.82,2.34,5.54,1.31,3.36,2.2,6.25,2.39,8.75,0,.09.02.18.03.27,0,.07.02.15.02.21,0,.28-.04.61-.1.97-.35,1.81-1.49,4.5-1.95,6.32-1.75,6.81,1.79,12.51-2.25,21.41-.08.17-.05.32.05.43.47.49,2.48.3,3.78-1.23,1.89-2.24,2.52-8.16,2.63-7.75,0,.02.01.06.01.12.1,2,.26,3.61.44,5,.55,4.1,1.37,6.33,1.93,11.14.46,3.92-.53,6.37-.18,8.18ZM47.3,212.22c-.13,1.3-.28,2.61-.47,3.92,0,.03-.04.06-.05.09-.79,5.45-2.71,10.8-4.28,16.21-6.08,9.39-7.28,11.38-10.09,17.57,1.47-4.48,2.62-8.79,3.52-12.76,2.55-11.2,3.13-19.62,3.3-20.97.09-.68.21-1.43.35-2.21.04-.21.07-.41.11-.62,1.63-8.91,5.84-22.76,8.58-34.48.29-1.24.86-4.1,1.33-6.55.06-.3.11-.58.17-.86.16-.85.31-1.61.42-2.18.12.5.24,1.01.35,1.5.16,7.19-1.59,24.52-3.24,41.34Zm79.28,20.62c-1.67-6.35-3.74-12.84-4.69-19.39,0-.04.02-.09.02-.13-.24-1.65-.44-3.29-.61-4.92-1.6-15.48-2.96-30.67-2.75-37.47.12-.51.23-1.04.36-1.55.11.57.25,1.33.42,2.18.05.28.11.57.17.86.48,2.44,1.04,5.31,1.33,6.55,2.74,11.72,6.97,25.57,8.58,34.48.13.7.24,1.36.33,2,.04.28.09.57.12.83.18,1.35.75,9.77,3.3,20.98,1.04,4.57,2.41,9.61,4.22,14.82.07.2.13.39.2.58-3.72-8.34-4.39-9.58-11.01-19.82Z"/>
  </g>
</svg>