<?xml version="1.0" encoding="UTF-8"?>
<svg id="_레이어_2" data-name="레이어 2" xmlns="http://www.w3.org/2000/svg" viewBox="0 0 169.72 572.07">
  <defs>
    <style>
      .cls-1 {
        fill: #f2a7a9;
        stroke: #221714;
        stroke-miterlimit: 10;
      }
    </style>
  </defs>
  <g id="_레이어_1-2" data-name="레이어 1">
    <path class="cls-1" d="m158.81,342.62c.93,1.46,1.25,1.33,3.51-1.26,1.48-1.7,2.46-3.28,3.41-4.58.08-.1.16-.2.23-.3.2-.26.38-.52.56-.79,1.63-2.4,2.52-5,2.68-9.91.13-4.11-.4-7.24-1.76-13.22-.6-2.63-1.26-4.1-2.13-11.5-.03-.28-.06-.55-.09-.81-.04-.38-.07-.73-.09-1.06-.02-.21-.03-.42-.04-.61-.03-.49-.04-.91-.04-1.27,0-.3,0-.56,0-.81,0-.56,0-1-.05-1.43-.27-2.49-1.24-3.59-2-6.99-.06-.26-.12-.54-.17-.83-.11-.58-.21-1.22-.31-1.94-.27-2.04-.53-3.98-.78-5.87-.08-.63-.16-1.25-.24-1.87-.16-1.23-.31-2.44-.46-3.65-.76-6.03-1.45-11.85-2.3-18.95-.28-2.29-.57-4.71-.88-7.33-1.13-9.39-4.9-21.2-8.86-34.19-.23-.74-.45-1.48-.68-2.22-.4-1.34-1.26-11.48-1.59-16.82-.41-6.67-4.26-67.76-6.9-76.98-1.97-6.87-3.88-9.63-5.71-10.54h0s-1.49-.9-2.39-1.31c-.31-.14-.64-.28-.97-.4-.05-.02-.11-.04-.16-.06-.22-.08-.44-.16-.67-.24-.34-.12-.69-.22-1.05-.32l-26.1-13.37c-.33-.61-.65-1.26-.94-1.96-1.11-2.7-1.56-10.21-1.75-15.34,2.54-2.35,4.51-5.38,5.74-10.41.22-.9.48-1.98.74-3.12,2.78.98,3.5-3.3,4.02-4.54.07-.17.14-.32.22-.46.11-.21.23-.39.36-.58,0,0,0,0,0,0,.16-.24.33-.49.52-.81,0,0-.01,0,0-.01.09-.16.18-.33.27-.53.23-.51.47-1.16.7-2.1.51-2.01-.36-3.32,0-4.61.24-.87.36-3.32-.75-4.16-.06-.05-.13-.08-.19-.11-.08-.03-.15-.06-.23-.08,1.65-6.26,2.7-16.5-.74-24.34-1.48-3.39-3.32-6.13-5.25-8.29-4.57-5.58-12.1-9.22-20.63-9.22s-16.06,3.64-20.63,9.22c-1.93,2.16-3.77,4.9-5.25,8.29-3.44,7.84-2.38,18.08-.74,24.34-.08.02-.15.05-.22.08-.07.03-.14.06-.2.11-1.11.84-.99,3.29-.75,4.16.35,1.29-.52,2.6,0,4.61.75,3,1.51,3.13,2.07,4.5.52,1.24,1.24,5.52,4.02,4.54.26,1.14.52,2.22.74,3.12,1.23,5.03,3.2,8.06,5.74,10.41-.18,5.13-.64,12.64-1.75,15.34-.29.7-.6,1.35-.93,1.96l-26.1,13.37c-.21.06-.42.12-.63.18-.04.02-.09.03-.13.04-.3.1-.59.2-.88.31-.42.15-.82.31-1.21.49-.9.41-2.39,1.3-2.39,1.3h0c-1.83.92-3.74,3.68-5.71,10.55-2.64,9.22-6.49,70.31-6.9,76.98-.33,5.34-1.18,15.48-1.59,16.82-.23.74-.45,1.48-.68,2.22-3.96,12.99-7.73,24.8-8.86,34.19-.31,2.62-.6,5.04-.88,7.33-.85,7.1-1.54,12.92-2.3,18.95-.15,1.21-.3,2.42-.46,3.65-.08.62-.16,1.24-.24,1.87-.24,1.89-.5,3.83-.77,5.87-.1.72-.2,1.36-.32,1.94-.05.29-.11.57-.17.83-.76,3.4-1.73,4.5-2,6.99-.05.43-.05.87-.05,1.43,0,.25,0,.51,0,.81,0,.37,0,.78-.04,1.27,0,.19-.02.4-.04.61-.02.33-.05.68-.09,1.06-.03.26-.05.53-.09.81-.87,7.4-1.53,8.87-2.13,11.5-1.36,5.98-1.89,9.11-1.76,13.22.16,4.78,1,7.36,2.54,9.71.23.33.46.66.71.99.13.17.25.34.38.52.9,1.26,1.85,2.76,3.25,4.36,2.27,2.59,2.58,2.72,3.51,1.26,1.01-1.6.09-3.68.09-7.08,0-.32,0-.66.03-1.01v-.02c.02-.36.06-.72.1-1.1.24-2.02.52-3.58.8-5.02.08-.44.17-.86.26-1.27.03-.14.06-.28.09-.42.05-.28.11-.56.17-.84.44-2.25.85-4.67,1.05-8.62.06-1.2.65,5.27,2.65,7.64,1.58,1.88,4.26,1.75,3.83.81-4.04-8.9-.5-14.6-2.25-21.41-.07-.27-.15-.56-.25-.86-.23-.75-.53-1.59-.82-2.43-.11-.34-.22-.67-.33-1-.16-.49-.3-.96-.42-1.4-.16-.64-.26-1.21-.24-1.65,0-.15.04-.3.05-.44.03-.34.07-.68.12-1.03.05-.35.11-.71.18-1.08.08-.4.17-.8.28-1.22.09-.35.18-.7.29-1.06.1-.36.21-.73.34-1.1.01-.04.02-.08.04-.11.13-.41.27-.83.43-1.26.14-.43.31-.86.48-1.31,0-.01,0-.02,0-.03.17-.44.35-.88.53-1.33-.31,2.92-.52,6.03-.56,9.37v.29c-.04,4.28.16,8.91.69,13.96,1.31,12.52,10.98,39.26,14.59,52.03,8.02,28.39,12.56,45.42,13.15,55.42.77,12.93-.99,16.97-2.56,24.8-3.05,15.21-.82,28.36,2.8,40.42,6.69,22.28,13.71,32.19,14.43,43.88.17,2.92-2.02,4.14-.81,7.83.63,1.93,1.69,3.77.08,8.05-5.46,14.48-12.57,18.27-11.73,23.56.93,5.86,20.64,5.5,28.36,4.18,6.35-1.09,6.26-10.06,4.43-20.34-.37-2.08-.56-4.4-.42-7.96.08-1.76.55-3.81.8-6.28.23-2.28-.43-4.69-.8-6.6-.27-1.44-.55-2.6-.6-3.21-1.7-22.38-1.17-27.75,1.65-48.79,2.85-21.27-1.15-25.08-.65-38.08.3-7.71,2.64-15.58,3.27-23.93.79-10.46-.3-20.35-1.41-27.79-3.06-20.57-3.04-23.89-4.03-40.15-1.07-17.66,4.59-26.32,1.36-41.55.75.27,2.58.37,4.4.38,1.82.01,3.65-.11,4.4-.38-3.23,15.23,2.43,23.89,1.36,41.55-.99,16.26-.97,19.58-4.03,40.15-1.11,7.44-2.19,17.33-1.4,27.79.62,8.35,2.96,16.22,3.26,23.93.5,13-3.5,16.81-.64,38.08,2.82,21.04,3.35,26.41,1.64,48.79-.05.61-.33,1.77-.6,3.21-.36,1.91-1.03,4.32-.8,6.6.25,2.47.73,4.52.8,6.28.14,3.56-.05,5.88-.42,7.96-1.83,10.28-1.91,19.25,4.44,20.34,7.71,1.32,27.42,1.68,28.35-4.18.84-5.29-6.26-9.08-11.72-23.56-1.62-4.28-.55-6.12.08-8.05,1.21-3.69-.99-4.91-.81-7.83.71-11.69,7.73-21.6,14.43-43.88,3.62-12.06,5.84-25.21,2.8-40.42-1.57-7.83-3.33-11.87-2.57-24.8.59-10,5.13-27.03,13.16-55.42,3.61-12.77,13.28-39.51,14.59-52.03.52-5.05.72-9.68.68-13.96v-.29c-.04-3.34-.25-6.44-.56-9.36.18.45.35.89.53,1.32,0,.02,0,.03,0,.04.34.89.65,1.74.91,2.56.02.03.03.07.04.11.13.37.24.74.34,1.1.11.36.2.71.29,1.06.03.11.06.22.08.32.07.31.14.61.2.91.07.37.13.72.18,1.07.05.35.09.69.12,1.03.02.14.04.29.05.44.02.44-.08,1.01-.24,1.66-.11.44-.25.9-.42,1.39-.1.33-.21.67-.33,1.01-.29.83-.58,1.67-.82,2.42-.1.3-.18.59-.25.86-1.75,6.81,1.79,12.51-2.25,21.41-.43.94,2.25,1.07,3.83-.81,2-2.37,2.59-8.84,2.65-7.64.4,7.89,1.62,9.71,2.38,16.17.55,4.71-.99,7.3.21,9.21ZM48.13,208.3c-.17,1.63-.37,3.26-.61,4.91-.02.08-.03.16-.04.24-.7,4.81-1.61,9.65-2.58,14.44-1.18,1.39-2.33,2.81-3.36,4.23-2.64,3.65-4.59,6.37-6.14,8.65.14-.54.27-1.07.39-1.6.49-2.03.92-3.97,1.29-5.82.11-.56.22-1.11.32-1.65.32-1.68.59-3.27.82-4.74l.09-.57c.47-3.04.76-5.54.95-7.32.04-.39.08-.76.11-1.08,0-.04,0-.07,0-.11,0-.1.02-.2.03-.29,0-.15.03-.29.04-.42,0-.09.02-.17.02-.25.03-.29.05-.5.07-.64.12-.87.28-1.82.46-2.83,1.63-8.91,5.84-22.76,8.58-34.48.43-1.85,1.48-7.31,1.92-9.6.13.52.24,1.05.37,1.57.2,6.78-1.15,21.92-2.74,37.36Zm80.05,23.82c-.99-1.37-2.08-2.72-3.21-4.05-1-4.87-1.95-9.77-2.69-14.62-.08-.53-.18-1.07-.25-1.61-.25-1.65-.45-3.29-.62-4.92-1.53-14.76-2.82-29-2.66-35.51.16-.68.3-1.37.47-2.04.44,2.29,1.49,7.75,1.92,9.6,2.74,11.72,6.95,25.57,8.58,34.48.19,1.01.35,1.96.46,2.83.02.14.04.35.07.64,0,.08,0,.16.02.25,0,.13.03.27.04.42,0,.09.02.19.03.29,0,.04.01.07.01.11.03.32.07.69.11,1.08.19,1.78.48,4.28.95,7.32.03.19.06.38.09.57.23,1.47.5,3.06.82,4.74.1.54.21,1.09.32,1.65.37,1.85.8,3.79,1.29,5.82.12.53.25,1.06.39,1.6-1.55-2.28-3.5-5-6.14-8.65Z"/>
  </g>
</svg>