<?xml version="1.0" encoding="UTF-8"?>
<svg id="_레이어_2" data-name="레이어 2" xmlns="http://www.w3.org/2000/svg" viewBox="0 0 169.72 572.07">
  <defs>
    <style>
      .cls-1 {
        fill: #f2a7a9;
        stroke: #221714;
        stroke-miterlimit: 10;
      }
    </style>
  </defs>
  <g id="_레이어_1-2" data-name="레이어 1">
    <path class="cls-1" d="m167.44,312.56c-.6-2.63-1.26-4.1-2.13-11.5-.17-1.39-.23-2.43-.25-3.24-.02-.51-.02-.94-.02-1.32,0-.28,0-.52,0-.76,0-.24-.02-.46-.04-.67-.33-3.06-1.72-4.02-2.49-9.76-1.45-10.89-2.41-18.98-3.77-30.34-.28-2.29-.57-4.71-.88-7.33-1.13-9.39-4.9-21.2-8.86-34.19-.22-.71-.43-1.42-.65-2.14,0-.03-.02-.06-.03-.08,0,0,0-.01,0-.02-.4-1.4-1.26-11.48-1.58-16.8-.41-6.67-4.26-67.76-6.9-76.98-1.97-6.87-3.88-9.63-5.71-10.54h0s-1.49-.9-2.39-1.31c-.2-.09-.41-.16-.62-.25-.19-.08-.37-.15-.56-.22-.21-.08-.43-.15-.65-.23-.25-.08-.51-.17-.77-.24-.08-.02-.16-.05-.23-.07l-26.12-13.38c-.33-.61-.65-1.26-.94-1.97-1.11-2.7-1.56-10.21-1.75-15.34.32-.29.63-.6.93-.92,2.1-2.22,3.74-5.09,4.81-9.49.22-.9.48-1.97.74-3.12,2.78.98,3.5-3.3,4.02-4.54.57-1.36,1.32-1.49,2.07-4.5.13-.5.17-.96.16-1.38-.01-1.06-.31-1.92-.25-2.74,0-.06.02-.12.03-.18.01-.1.02-.21.05-.31.06-.2.1-.49.13-.82.09-.98-.01-2.33-.64-3.07-.08-.09-.15-.19-.25-.26-.12-.09-.26-.14-.42-.19,1.65-6.27,2.7-16.5-.74-24.34,0-.02-.02-.04-.03-.06-1.48-3.36-3.3-6.08-5.22-8.23-4.55-5.56-12.05-9.19-20.54-9.22-.03,0-.06,0-.08,0h0c-8.53,0-16.06,3.64-20.63,9.22-1.92,2.15-3.75,4.87-5.22,8.23,0,.02-.02.04-.03.06-.37.84-.68,1.72-.95,2.61-.05.15-.1.3-.14.45-.28.98-.5,1.98-.67,2.99-.01.06-.03.12-.04.19-.05.3-.09.61-.13.91-.03.24-.07.48-.1.72-.06.5-.1,1.01-.14,1.51,0,.04,0,.08-.01.12-.38,5.46.41,10.93,1.44,14.84-.16.05-.3.1-.42.19-.09.07-.17.17-.25.26-.62.75-.72,2.1-.64,3.07.03.33.08.62.13.82.31,1.13-.32,2.27-.14,3.89.03.23.07.47.13.72.74,2.95,1.48,3.14,2.04,4.42.01.03.02.05.03.08.21.51.47,1.54.88,2.5.15.35.32.69.52,1,.08.13.17.25.27.36.56.67,1.31,1.05,2.36.68.26,1.15.52,2.22.74,3.12.35,1.45.77,2.71,1.25,3.86,1.17,2.84,2.68,4.88,4.49,6.55-.18,5.13-.64,12.64-1.75,15.34-.29.7-.6,1.35-.93,1.96l-26.12,13.38c-.07.02-.15.04-.22.07-.25.08-.5.15-.74.23-.23.08-.47.16-.69.24-.19.07-.38.15-.56.23-.2.08-.42.16-.61.25-.9.41-2.39,1.3-2.39,1.3h0c-1.83.92-3.74,3.68-5.71,10.55-2.64,9.22-6.49,70.31-6.9,76.98-.32,5.25-1.16,15.11-1.57,16.72,0,.03-.02.07-.02.1,0,.03-.02.06-.03.08-.22.71-.43,1.42-.65,2.14-.57,1.88-1.14,3.74-1.7,5.57-1.85,6.05-3.57,11.78-4.89,17.07v.03c-.05.15-.08.29-.11.44-.98,3.97-1.74,7.69-2.15,11.08-.31,2.62-.6,5.04-.88,7.33-.28,2.36-.55,4.57-.8,6.7-.91,7.57-1.71,14.06-2.74,21.88-.08.58-.16,1.17-.24,1.77-.76,5.74-2.15,6.7-2.48,9.76-.03.23-.04.48-.04.74,0,.22,0,.44,0,.69,0,.32,0,.69-.01,1.11-.02.85-.08,1.93-.26,3.45-.87,7.4-1.53,8.87-2.13,11.5-1.28,5.61-1.82,8.71-1.78,12.46,0,.25,0,.51.02.77.17,5.45,1.25,8.05,3.24,10.69,1.03,1.36,2.04,3.06,3.64,4.88,2.02,2.33,2.49,2.67,3.23,1.67.09-.12.18-.25.28-.41,1.05-1.67,0-3.86.09-7.53.01-.52.05-1.08.12-1.67.03-.29.07-.57.11-.84.56-4.27,1.32-6.49,1.84-10.37,0,0,0,0,0-.01.02-.12.03-.25.04-.37.16-1.3.3-2.77.39-4.58.06-1.2.64,5.27,2.64,7.64,1.39,1.65,3.62,1.75,3.86,1.12.04-.09.04-.2-.02-.32-2.35-5.18-2.14-9.27-1.89-13.13.07-1.12.15-2.21.16-3.31.02-1.63-.08-3.27-.52-4.97-.57-2.19-2.11-5.66-2.06-7.31,0,0,0-.02,0-.03,0,0,0,0,0,0,.01-.15.03-.3.05-.43.02-.22.05-.44.07-.67.02-.16.04-.32.06-.48.04-.24.08-.48.13-.73.04-.2.08-.41.13-.62.05-.23.1-.47.16-.71.1-.4.21-.8.33-1.22.08-.26.16-.52.24-.78.07-.23.15-.46.22-.69.09-.28.19-.56.29-.85.08-.21.16-.44.24-.65.2-.55.42-1.12.65-1.7.06-.14.11-.28.17-.43-.31,2.92-.52,6.02-.56,9.37v.29c-.04,4.28.16,8.91.69,13.96,1.31,12.52,10.98,39.26,14.59,52.03,8.02,28.39,12.56,45.42,13.15,55.42.77,12.93-.99,16.97-2.56,24.8-3.05,15.21-.82,28.36,2.8,40.42,6.69,22.28,13.71,32.19,14.43,43.88.17,2.92-2.02,4.14-.81,7.83.63,1.93,1.69,3.77.08,8.05-5.46,14.48-12.57,18.27-11.73,23.56.93,5.86,20.64,5.5,28.36,4.18,6.35-1.09,6.26-10.06,4.43-20.34-.37-2.08-.56-4.4-.42-7.96.08-1.76.55-3.81.8-6.28.23-2.28-.43-4.69-.8-6.6-.27-1.44-.55-2.6-.6-3.21-1.7-22.38-1.17-27.75,1.65-48.79,2.85-21.27-1.15-25.08-.65-38.08.3-7.71,2.64-15.58,3.27-23.93.79-10.46-.3-20.35-1.41-27.79-3.06-20.57-3.04-23.89-4.03-40.15-1.07-17.66,4.59-26.32,1.36-41.55.75.27,2.58.37,4.4.38,1.82.01,3.65-.11,4.4-.38-3.23,15.23,2.43,23.89,1.36,41.55-.99,16.26-.97,19.58-4.03,40.15-1.11,7.44-2.19,17.33-1.4,27.79.62,8.35,2.96,16.22,3.26,23.93.5,13-3.5,16.81-.64,38.08,2.82,21.04,3.35,26.41,1.64,48.79-.05.61-.33,1.77-.6,3.21-.36,1.91-1.03,4.32-.8,6.6.25,2.47.73,4.52.8,6.28.14,3.56-.05,5.88-.42,7.96-1.83,10.28-1.91,19.25,4.44,20.34,7.71,1.32,27.42,1.68,28.35-4.18.84-5.29-6.26-9.08-11.72-23.56-1.62-4.28-.55-6.12.08-8.05,1.21-3.69-.99-4.91-.81-7.83.71-11.69,7.73-21.6,14.43-43.88,3.62-12.06,5.84-25.21,2.8-40.42-1.57-7.83-3.33-11.87-2.57-24.8.59-10,5.13-27.03,13.16-55.42,3.61-12.77,13.28-39.51,14.59-52.03.52-5.05.72-9.68.68-13.96v-.29c-.04-3.34-.25-6.44-.56-9.35.07.18.14.36.21.53.19.47.36.93.53,1.38.11.31.23.61.33.91.08.24.16.47.24.71.11.32.21.63.3.94.06.19.12.37.17.55.14.47.26.93.37,1.38.03.12.05.24.08.37.08.36.16.71.22,1.06.02.13.05.26.07.39.07.44.13.87.16,1.29,0,0,0,0,0,0,0,0,0,0,0,0,.01.15.04.3.04.43.03.63-.18,1.53-.48,2.52-.49,1.61-1.22,3.46-1.57,4.82-.33,1.28-.47,2.52-.51,3.75-.1,2.86.36,5.67.29,8.77-.06,2.66-.51,5.55-2.03,8.89-.03.06-.04.12-.04.17-.06.79,2.38.79,3.87-.97,2-2.37,2.59-8.84,2.65-7.64.4,7.89,1.62,9.71,2.37,16.17.55,4.7-.99,7.3.22,9.21.93,1.46,1.24,1.33,3.51-1.27.04-.05.08-.1.12-.15,1.52-1.77,2.52-3.41,3.51-4.73,1.56-2.07,2.56-4.12,3-7.52.12-.94.21-1.98.25-3.17,0-.26.01-.51.02-.77.04-3.75-.5-6.86-1.78-12.46Zm-116.88-104.19c-.08,1.2-.64,9.61-.93,14-2.61,3.13-5.68,6.4-8.09,9.75-2.64,3.65-4.59,6.37-6.14,8.65.18-.73.36-1.45.53-2.16.04-.16.07-.31.11-.47.16-.67.31-1.33.45-1.97.03-.16.07-.31.1-.46.11-.49.21-.97.31-1.45.05-.25.1-.5.15-.74.1-.52.21-1.03.3-1.54.06-.33.12-.65.18-.97.04-.22.08-.44.12-.66,1.25-6.95,1.68-12.02,1.85-13.68,0-.01,0-.03,0-.04,0-.08.02-.14.02-.2,0-.05.01-.1.02-.14.11-.87.27-1.83.46-2.83.87-4.78,2.49-10.98,4.22-17.5,1.5-5.65,3.09-11.55,4.36-16.99.22-.93.59-2.78.96-4.67.37-1.87.74-3.79.96-4.92.04.16.08.32.11.48.09.37.17.75.26,1.13,1.11,8.67.7,23.16-.31,37.38Zm77.62,23.75c-2.42-3.35-5.5-6.62-8.11-9.76,0,0-.01-.02-.02-.03-.33-4.59-.93-13.65-1.02-14.87-.98-13.56-1.39-27.17-.41-35.49.17-.74.33-1.48.51-2.21.03-.13.06-.25.09-.38.43,2.28,1.49,7.75,1.92,9.6,2.74,11.72,6.95,25.56,8.58,34.48.18,1,.34,1.96.45,2.83.18,1.39.79,10.32,3.56,22.07,0,.01,0,.03,0,.04.18.78.37,1.56.58,2.37-1.55-2.28-3.5-5-6.14-8.64Z"/>
  </g>
</svg>