<?xml version="1.0" encoding="UTF-8"?>
<svg id="_레이어_2" data-name="레이어 2" xmlns="http://www.w3.org/2000/svg" viewBox="0 0 169.72 571.92">
  <defs>
    <style>
      .cls-1 {
        fill: #f2a7a9;
        stroke: #221714;
        stroke-miterlimit: 10;
      }
    </style>
  </defs>
  <g id="_레이어_1-2" data-name="레이어 1">
    <path class="cls-1" d="m165.31,301.06c-.26-2.27-.27-3.59-.27-4.56,0-.56,0-1-.05-1.43-.33-3.06-1.72-4.02-2.48-9.76-1.46-10.89-2.42-18.98-3.78-30.34-.28-2.29-.57-4.71-.88-7.33-1.13-9.39-4.9-21.2-8.86-34.19-.23-.74-.45-1.48-.68-2.22-.4-1.34-1.26-11.48-1.59-16.82-.41-6.67-4.26-67.76-6.9-76.98-1.97-6.87-3.88-9.63-5.71-10.54h0s-1.49-.9-2.39-1.31c-.39-.18-.79-.34-1.21-.49-.29-.11-.58-.21-.88-.31-.04-.01-.09-.02-.13-.04-.21-.07-.42-.12-.63-.18l-26.1-13.37c-.05-.09-.1-.17-.15-.26-.28-.53-.54-1.1-.79-1.7-.62-1.52-1.04-4.56-1.32-7.84-.13-1.64-.24-3.34-.32-4.94-.03-.54-.05-1.06-.07-1.57,0-.34-.03-.67-.04-.99,2.54-2.35,4.51-5.38,5.74-10.41.22-.9.48-1.98.74-3.12,2.78.98,3.5-3.3,4.02-4.54.56-1.37,1.32-1.5,2.07-4.5.51-2.01-.36-3.32-.01-4.61.24-.87.36-3.32-.75-4.16-.06-.05-.13-.08-.2-.11-.07-.03-.14-.06-.22-.08,1.65-6.26,2.7-16.5-.74-24.34-1.48-3.39-3.32-6.13-5.25-8.29-4.57-5.58-12.1-9.22-20.63-9.22s-16.06,3.64-20.63,9.22c-1.93,2.16-3.77,4.9-5.25,8.29-3.44,7.84-2.38,18.08-.74,24.34-.08.02-.15.05-.22.08-.07.03-.14.06-.2.11-1.11.84-.99,3.29-.75,4.16.35,1.29-.52,2.6,0,4.61.75,3,1.51,3.13,2.07,4.5.52,1.24,1.24,5.52,4.02,4.54.26,1.14.52,2.22.74,3.12,1.23,5.03,3.2,8.06,5.74,10.41-.18,5.13-.64,12.64-1.75,15.34-.29.7-.6,1.35-.93,1.96l-26.1,13.37c-.21.06-.42.12-.63.18-.04.02-.09.03-.13.04-.3.1-.59.2-.88.31-.42.15-.82.31-1.21.49-.9.41-2.39,1.3-2.39,1.3h0c-1.83.92-3.74,3.68-5.71,10.55-2.64,9.22-6.49,70.31-6.9,76.98-.33,5.34-1.18,15.48-1.59,16.82-.23.74-.45,1.48-.68,2.22-3.96,12.99-7.73,24.8-8.86,34.19-.31,2.62-.6,5.04-.88,7.33-.85,7.1-1.54,12.92-2.3,18.95-.15,1.21-.3,2.42-.46,3.65-.08.62-.16,1.24-.24,1.87-.24,1.89-.5,3.83-.77,5.87-.1.72-.2,1.36-.32,1.94-.05.29-.11.57-.17.83-.76,3.4-1.73,4.5-2,6.99-.05.43-.05.87-.05,1.43,0,.25,0,.51-.01.81,0,.37,0,.78-.04,1.27,0,.19-.02.4-.04.61-.02.33-.05.68-.09,1.06-.03.26-.05.53-.09.81-.87,7.4-1.53,8.87-2.13,11.5-1.36,5.98-1.89,9.11-1.76,13.22.16,4.78,1,7.36,2.54,9.71.23.33.46.66.71.99.13.17.25.34.38.52.9,1.26,1.85,2.76,3.25,4.36,2.27,2.59,2.58,2.72,3.51,1.26,1.01-1.6.09-3.68.09-7.08,0-.32.01-.66.03-1.01v-.02c.02-.36.06-.72.1-1.1.07-.57.14-1.1.21-1.6.02-.17.05-.34.07-.5.03-.21.06-.42.1-.63.06-.41.14-.8.21-1.18.07-.38.14-.75.21-1.11.08-.44.17-.86.26-1.27.03-.14.06-.28.09-.42.05-.28.11-.56.17-.84.44-2.25.85-4.67,1.05-8.62.06-1.2.65,5.27,2.65,7.64,1.58,1.88,4.26,1.75,3.83.81-4.04-8.9-.5-14.6-2.25-21.41-.07-.27-.15-.56-.25-.86-.12-.37-.25-.77-.39-1.18-.14-.41-.28-.83-.43-1.25-.11-.34-.22-.67-.33-1-.16-.49-.3-.96-.42-1.4-.16-.64-.26-1.21-.24-1.65.01-.15.04-.3.05-.44.29-3.78,2.14-8.44,4.72-14.29,1.33-3,2.44-5.57,3.58-8.36.76-1.86,1.53-3.82,2.38-6.08.11-.28.22-.57.32-.86.33-.87.67-1.79,1.03-2.77.94-2.6,2.01-5.59,3.26-9.17.32-.92.66-1.88,1.01-2.89,6.24-17.98,7.28-33.9,7.52-35.8.12-.87.28-1.82.46-2.83,1.63-8.91,5.84-22.76,8.58-34.48.43-1.85,1.48-7.31,1.92-9.6.07.26.13.52.19.78.06.27.12.53.18.79.2,6.78-1.15,21.92-2.74,37.36-.17,1.63-.37,3.26-.61,4.91-.02.08-.03.16-.04.24-.96,6.57-2.31,13.2-3.64,19.67-1.5,7.27-2.39,13.33-2.81,17.21-.38,1.38-.6,2.31-.7,2.76v.03c-.04.19-.06.28-.06.28-.16.51-.33,1.03-.5,1.56h0c-2.95,9.1-7.47,21.1-7.67,41.22,0,.1,0,.2,0,.3-.03,4.28.13,8.91.55,13.96,1.03,12.52,8.64,39.26,11.49,52.03,6.32,28.39,9.89,45.42,10.36,55.42.6,12.93-.79,16.97-2.02,24.8-2.4,15.21-.65,28.36,2.2,40.42,5.28,22.28,10.81,32.19,11.37,43.88.14,2.92-1.59,4.14-.64,7.83.5,1.93,1.34,3.77.06,8.05-4.3,14.48-9.89,18.27-9.23,23.56.73,5.86,16.26,5.5,22.33,4.18,5-1.09,4.94-10.06,3.49-20.34-.29-2.08-.44-4.4-.32-7.96.05-1.76.43-3.81.62-6.28.19-2.28-.34-4.69-.62-6.6-.22-1.44-.44-2.6-.48-3.21-1.34-22.38-.92-27.75,1.3-48.79,2.24-21.27-.91-25.08-.51-38.08.23-7.71,2.08-15.58,2.57-23.92.62-10.47-.23-20.36-1.11-27.8-2.41-20.57-2.39-23.89-3.17-40.15-.85-17.66,3.61-26.32,1.07-41.55.59.27,2.03.39,3.46.38,1.44,0,2.88-.11,3.47-.38-2.54,15.23,1.92,23.89,1.07,41.55-.78,16.26-.76,19.58-3.17,40.15-.88,7.44-1.73,17.33-1.11,27.8.49,8.34,2.34,16.21,2.57,23.92.4,13-2.75,16.81-.51,38.08,2.22,21.04,2.64,26.41,1.3,48.79-.04.61-.26,1.77-.48,3.21-.28,1.91-.81,4.32-.62,6.6.19,2.47.57,4.52.62,6.28.12,3.56-.03,5.88-.32,7.96-1.45,10.28-1.51,19.25,3.49,20.34,6.07,1.32,21.6,1.68,22.33-4.18.66-5.29-4.93-9.08-9.23-23.56-1.28-4.28-.44-6.12.06-8.05.95-3.69-.78-4.91-.64-7.83.56-11.69,6.09-21.6,11.37-43.88,2.85-12.06,4.6-25.21,2.2-40.42-1.23-7.83-2.62-11.87-2.02-24.8.47-10,4.04-27.03,10.36-55.42,2.85-12.77,10.46-39.51,11.49-52.03.42-5.05.58-9.68.55-13.96,0-.1-.01-.2-.01-.3-.2-20.13-4.72-32.13-7.67-41.22,0-.05-.03-.1-.04-.15-.14-.51-.32-1.07-.52-1.67,0-.04-.02-.08-.03-.12-.01-.08-.04-.18-.06-.29-.1-.44-.26-1.1-.5-1.96-.38-4.07-1.37-10.84-3.09-19.06-1.27-6.06-2.51-12.2-3.44-18.26-.08-.53-.18-1.07-.25-1.61-.25-1.65-.45-3.29-.62-4.92-1.53-14.77-2.82-29.01-2.66-35.52.16-.68.31-1.36.47-2.03.44,2.29,1.49,7.75,1.92,9.6,2.74,11.72,6.95,25.57,8.58,34.48.19,1.01.35,1.96.46,2.83.24,1.9,1.28,17.82,7.52,35.8.35,1.01.69,1.97,1.01,2.89,5.01,14.32,7.03,19.24,10.57,27.24,2.58,5.85,4.43,10.51,4.72,14.29.02.14.04.29.05.44.08,1.64-1.49,5.14-2.06,7.34-1.75,6.81,1.79,12.51-2.25,21.41-.43.94,2.25,1.07,3.83-.81,2-2.37,2.59-8.84,2.65-7.64.4,7.89,1.62,9.71,2.38,16.17.55,4.71-.99,7.3.21,9.21.93,1.46,1.25,1.33,3.51-1.26,1.6-1.83,2.61-3.53,3.64-4.88,1.99-2.65,3.06-5.25,3.24-10.7.13-4.11-.4-7.24-1.76-13.22-.6-2.63-1.26-4.1-2.13-11.5Z"/>
  </g>
</svg>