<?xml version="1.0" encoding="UTF-8"?>
<svg id="_레이어_2" data-name="레이어 2" xmlns="http://www.w3.org/2000/svg" viewBox="0 0 169.72 571.92">
  <defs>
    <style>
      .cls-1 {
        fill: #f2a7a9;
        stroke: #221714;
        stroke-miterlimit: 10;
      }
    </style>
  </defs>
  <g id="_레이어_1-2" data-name="레이어 1">
    <path class="cls-1" d="m165.31,301.06c-.25-2.19-.27-3.49-.27-4.45v-.11c0-.28,0-.52,0-.76,0-.24-.02-.46-.04-.67-.33-3.06-1.72-4.02-2.48-9.76-1.46-10.89-2.42-18.98-3.78-30.34-.28-2.29-.57-4.71-.88-7.33-1.13-9.39-4.9-21.2-8.86-34.19-.22-.71-.43-1.42-.65-2.14,0-.03-.02-.06-.03-.08,0,0,0-.01,0-.02-.4-1.4-1.26-11.48-1.59-16.8-.41-6.67-4.26-67.76-6.9-76.98-1.97-6.87-3.88-9.63-5.71-10.54h0s-1.49-.9-2.39-1.31c-.2-.09-.42-.16-.62-.25-.18-.07-.36-.15-.55-.22-.23-.09-.47-.17-.71-.25-.23-.08-.46-.15-.69-.22-.08-.02-.17-.05-.25-.08l-26.12-13.38c-.33-.61-.65-1.26-.94-1.97-1.11-2.7-1.56-10.21-1.75-15.34,1.57-1.46,2.93-3.18,4.02-5.47,0-.02.02-.04.03-.06.03-.07.06-.14.09-.21.62-1.35,1.16-2.88,1.6-4.67.22-.9.48-1.97.74-3.12,1.87.66,2.8-1.06,3.38-2.63.03-.08.06-.17.09-.25.05-.14.09-.27.14-.41.17-.51.3-.97.42-1.26.01-.03.02-.05.03-.08.56-1.29,1.3-1.47,2.04-4.42.06-.25.11-.49.13-.72.18-1.62-.45-2.76-.14-3.89.05-.2.1-.49.13-.82.09-.98-.01-2.33-.64-3.07-.08-.09-.15-.19-.25-.26-.12-.09-.26-.14-.42-.19.11-.42.22-.86.32-1.31,1.43-6.22,2.12-15.45-.94-22.72-.04-.1-.08-.21-.12-.31,0-.02-.02-.04-.03-.06-1.47-3.36-3.3-6.08-5.22-8.23-4.55-5.56-12.05-9.19-20.55-9.22-.03,0-.06,0-.08,0-8.53,0-16.06,3.64-20.63,9.22-1.92,2.15-3.75,4.87-5.22,8.23,0,.02-.02.04-.03.06-.33.76-.61,1.54-.86,2.34-.12.37-.23.74-.33,1.12-.21.78-.38,1.57-.53,2.36-.02.14-.06.27-.08.41,0,.02,0,.04,0,.06-.08.52-.16,1.04-.22,1.56-.02.14-.02.28-.04.42-.04.41-.08.81-.11,1.22-.38,5.46.41,10.93,1.44,14.84-.16.05-.3.1-.42.19-.09.07-.17.17-.25.26-.62.75-.72,2.1-.64,3.07.03.33.08.62.13.82.31,1.13-.32,2.27-.14,3.89.03.23.07.47.13.72.75,3.01,1.51,3.14,2.07,4.5.52,1.24,1.24,5.52,4.02,4.54.26,1.15.52,2.22.74,3.12,1.23,5.02,3.19,8.04,5.72,10.39,0,0,.01.01.02.02-.06,1.6-.14,3.44-.26,5.29-.18,2.73-.45,5.48-.83,7.55-.19,1.02-.41,1.89-.66,2.5-.12.3-.25.57-.38.85-.18.39-.37.75-.56,1.11l-26.11,13.38c-.07.02-.15.04-.22.07-.25.08-.5.15-.74.23-.23.08-.47.16-.69.24-.19.07-.38.15-.56.23-.2.08-.42.16-.61.25-.9.41-2.39,1.3-2.39,1.3h0c-1.83.92-3.74,3.68-5.71,10.55-2.64,9.22-6.49,70.31-6.9,76.98-.32,5.25-1.16,15.11-1.57,16.72,0,.03-.02.07-.02.1,0,.03-.02.06-.03.08-.22.71-.43,1.42-.66,2.14-.56,1.83-1.11,3.63-1.65,5.41-1.93,6.32-3.73,12.31-5.08,17.79-.97,3.93-1.72,7.62-2.12,10.98-.31,2.62-.6,5.04-.88,7.33-.31,2.63-.61,5.07-.89,7.43-.88,7.26-1.66,13.58-2.66,21.15-.08.58-.16,1.17-.24,1.77-.76,5.74-2.15,6.7-2.48,9.76-.03.23-.04.47-.04.72,0,.22,0,.45,0,.71,0,.32,0,.69-.01,1.11-.02.85-.08,1.93-.26,3.45-.87,7.4-1.53,8.87-2.13,11.5-1.28,5.61-1.82,8.71-1.78,12.47,0,.25,0,.51.02.76.17,5.45,1.25,8.05,3.24,10.69,1.01,1.33,2,2.99,3.54,4.76.04.04.06.08.1.12.03.03.06.06.08.1,1.95,2.24,2.42,2.56,3.15,1.57.09-.12.18-.25.28-.41,1.05-1.67,0-3.86.09-7.53.01-.52.05-1.08.12-1.67.04-.32.08-.61.11-.91.56-4.19,1.3-6.4,1.81-10.19,0-.04.01-.08.02-.12.01-.08.02-.17.03-.25.17-1.32.31-2.83.4-4.69.06-1.2.64,5.27,2.64,7.64,1.38,1.63,3.56,1.75,3.84,1.14.05-.1.06-.21,0-.34-2.37-5.22-2.13-9.33-1.88-13.21.07-1.09.14-2.16.16-3.23.02-1.63-.08-3.27-.52-4.97-.57-2.19-2.11-5.65-2.06-7.31,0-.01,0-.02,0-.03h0c.01-.15.03-.3.05-.44.14-1.82.65-3.85,1.42-6.11.83-2.44,1.96-5.14,3.3-8.17,3.54-8.01,5.56-12.93,10.57-27.24.32-.92.66-1.89,1.01-2.89,1.56-4.5,2.79-8.86,3.77-12.91,2.78-11.5,3.49-20.44,3.71-22.59.01-.12.02-.22.03-.3.11-.87.27-1.83.46-2.83.95-5.2,2.78-12.06,4.67-19.21,1.36-5.12,2.76-10.39,3.91-15.28.22-.93.59-2.78.96-4.67.37-1.87.74-3.79.96-4.92.12.52.24,1.05.37,1.57,1.12,8.67.71,23.18-.31,37.42-.11,1.64-1.1,16.66-1.1,16.66-.75,2.54-1.55,5.26-2.4,8.17-2.55,8.78-6,17.16-7.25,21.61,0,.05-.03.1-.04.15-2.95,9.09-7.47,21.09-7.67,41.22,0,.1,0,.2,0,.3-.03,4.28.13,8.91.55,13.96,1.03,12.52,8.64,39.26,11.49,52.03,6.32,28.39,9.89,45.42,10.36,55.42.6,12.93-.79,16.97-2.02,24.8-2.4,15.21-.65,28.36,2.2,40.42,5.28,22.28,10.81,32.19,11.37,43.88.14,2.92-1.59,4.14-.64,7.83.5,1.93,1.34,3.77.06,8.05-4.3,14.48-9.89,18.27-9.23,23.56.73,5.86,16.26,5.5,22.33,4.18,5-1.09,4.94-10.06,3.49-20.34-.29-2.08-.44-4.4-.32-7.96.05-1.76.43-3.81.62-6.28.19-2.28-.34-4.69-.62-6.6-.22-1.44-.44-2.6-.48-3.21-1.34-22.38-.92-27.75,1.3-48.79,2.24-21.27-.91-25.08-.51-38.08.23-7.71,2.08-15.58,2.57-23.92.62-10.47-.23-20.36-1.11-27.8-2.41-20.57-2.39-23.89-3.17-40.15-.85-17.66,3.61-26.32,1.07-41.55.59.27,2.03.39,3.46.38,1.44.01,2.88-.11,3.47-.38-2.54,15.23,1.92,23.89,1.07,41.55-.78,16.26-.76,19.58-3.17,40.15-.88,7.44-1.73,17.33-1.11,27.8.49,8.34,2.34,16.21,2.57,23.92.4,13-2.75,16.81-.51,38.08,2.22,21.04,2.64,26.41,1.3,48.79-.04.61-.26,1.77-.48,3.21-.28,1.91-.81,4.32-.62,6.6.19,2.47.57,4.52.62,6.28.12,3.56-.03,5.88-.32,7.96-1.45,10.28-1.51,19.25,3.49,20.34,6.07,1.32,21.6,1.68,22.33-4.18.66-5.29-4.93-9.08-9.23-23.56-1.28-4.28-.44-6.12.06-8.05.95-3.69-.78-4.91-.64-7.83.56-11.69,6.09-21.6,11.37-43.88,2.85-12.06,4.6-25.21,2.2-40.42-1.23-7.83-2.62-11.87-2.02-24.8.47-10,4.04-27.03,10.36-55.42,2.85-12.77,10.46-39.51,11.49-52.03.42-5.05.58-9.68.55-13.96,0-.1,0-.2,0-.3-.2-20.13-4.72-32.13-7.67-41.22,0-.05-.03-.1-.04-.15-1.25-4.45-4.7-12.83-7.25-21.61-.85-2.93-1.66-5.67-2.42-8.22-.07-.36-1.1-15.89-1.22-17.52-.98-13.61-1.39-27.28-.4-35.59.19-.83.38-1.66.59-2.49.43,2.28,1.49,7.75,1.92,9.6,2.74,11.72,6.95,25.56,8.58,34.48.18,1,.34,1.96.45,2.83.25,1.9,1.29,17.81,7.53,35.8.35,1,.68,1.97,1.01,2.89,5,14.31,7.03,19.23,10.57,27.24,2.47,5.58,4.25,10.09,4.66,13.77.02.17.05.35.06.51,0,0,0,0,0,0,0,.15.04.3.04.43.07,1.41-1.06,4.16-1.75,6.31-.02.05-.04.11-.05.16,0,.02,0,.03-.01.05-.09.29-.17.57-.24.83-.33,1.28-.47,2.52-.51,3.75-.1,2.86.36,5.67.29,8.77-.06,2.66-.51,5.55-2.03,8.89-.03.06-.04.12-.04.17-.06.79,2.38.79,3.88-.97,2-2.37,2.59-8.84,2.65-7.64.4,7.89,1.62,9.71,2.37,16.17.55,4.7-.99,7.3.22,9.21.8,1.26,1.15,1.33,2.69-.35.24-.26.51-.57.82-.92,1.6-1.83,2.61-3.52,3.64-4.88,1.58-2.1,2.58-4.18,3.01-7.68,0-.08.02-.15.03-.24,0-.05,0-.1.01-.15.09-.8.15-1.67.18-2.63,0-.26.01-.51.02-.76.04-3.75-.5-6.86-1.78-12.47-.6-2.63-1.26-4.1-2.13-11.5Z"/>
  </g>
</svg>