<?xml version="1.0" encoding="UTF-8"?>
<svg id="_레이어_2" data-name="레이어 2" xmlns="http://www.w3.org/2000/svg" viewBox="0 0 169.72 571.92">
  <defs>
    <style>
      .cls-1 {
        fill: #f2a7a9;
        stroke: #221714;
        stroke-miterlimit: 10;
      }
    </style>
  </defs>
  <g id="_레이어_1-2" data-name="레이어 1">
    <path class="cls-1" d="m.52,325.79c.03.84.08,1.6.15,2.32.39,3.92,1.41,6.14,3.09,8.37,1.03,1.36,2.04,3.05,3.64,4.88.57.65,1.01,1.14,1.37,1.5,1.01.98,1.38.88,1.98,0,.05-.07.1-.15.16-.24,0-.01.01-.02.02-.03,1.17-1.9-.35-4.49.2-9.18.75-6.46,1.97-8.27,2.37-16.17.06-1.19.65,5.28,2.65,7.65,1.49,1.76,3.93,1.76,3.88.97,0-.04-.02-.09-.04-.14,0,0,0-.02,0-.03-.03-.07-.06-.14-.09-.22-1.68-3.79-1.99-7.01-1.94-9.98.04-2.17.27-4.2.3-6.24.02-1.63-.08-3.27-.52-4.97-.07-.27-.16-.56-.25-.86,0,0,0,0,0,0-.02-.08-.05-.16-.08-.24-.68-2.13-1.79-4.83-1.72-6.23,0-.14.03-.29.04-.43,0,0,0,0,0-.01.03-.39.09-.8.15-1.21.54-3.55,2.26-7.84,4.57-13.07,3.54-8.01,5.57-12.93,10.57-27.24.33-.93.66-1.89,1.01-2.9,6.25-17.98,7.28-33.89,7.53-35.8.11-.86.27-1.82.45-2.82,1.62-8.88,5.81-22.64,8.54-34.33.01-.05.03-.11.04-.16,0-.03.02-.07.02-.11.44-1.93,1.47-7.24,1.9-9.48.13.52.25,1.05.38,1.57,2.03,10.56,2.62,24.45,2.13,37.49-.06,1.62-.18,4.45-.47,6.13-1.5,5.18-3.34,11.28-5.48,18.63-2.55,8.78-6,17.16-7.25,21.61,0,.05-.03.1-.04.15-2.95,9.09-7.47,21.09-7.67,41.22,0,.1-.01.2-.01.3-.03,4.28.13,8.91.55,13.96,1.03,12.52,8.64,39.26,11.49,52.03,6.32,28.39,9.89,45.42,10.36,55.42.6,12.93-.79,16.97-2.02,24.8-2.4,15.21-.65,28.36,2.2,40.42,5.28,22.28,10.81,32.19,11.37,43.88.14,2.92-1.59,4.14-.64,7.83.5,1.93,1.34,3.77.06,8.05-4.3,14.48-9.89,18.27-9.23,23.56.73,5.86,16.26,5.5,22.33,4.18,5-1.09,4.94-10.06,3.49-20.34-.29-2.08-.44-4.4-.32-7.96.05-1.76.43-3.81.62-6.28.19-2.28-.34-4.69-.62-6.6-.22-1.44-.44-2.6-.48-3.21-1.34-22.38-.92-27.75,1.3-48.79,2.24-21.27-.91-25.08-.51-38.08.23-7.71,2.08-15.58,2.57-23.92.62-10.47-.23-20.36-1.11-27.8-2.41-20.57-2.39-23.89-3.17-40.15-.85-17.66,3.61-26.32,1.07-41.55.59.27,2.03.39,3.46.38,1.44.01,2.88-.11,3.47-.38-2.54,15.23,1.92,23.89,1.07,41.55-.78,16.26-.76,19.58-3.17,40.15-.88,7.44-1.73,17.33-1.11,27.8.49,8.34,2.34,16.21,2.57,23.92.4,13-2.75,16.81-.51,38.08,2.22,21.04,2.64,26.41,1.3,48.79-.04.61-.26,1.77-.48,3.21-.28,1.91-.81,4.32-.62,6.6.19,2.47.57,4.52.62,6.28.12,3.56-.03,5.88-.32,7.96-1.45,10.28-1.51,19.25,3.49,20.34,6.07,1.32,21.6,1.68,22.33-4.18.66-5.29-4.93-9.08-9.23-23.56-1.28-4.28-.44-6.12.06-8.05.95-3.69-.78-4.91-.64-7.83.56-11.69,6.09-21.6,11.37-43.88,2.85-12.06,4.6-25.21,2.2-40.42-1.23-7.83-2.62-11.87-2.02-24.8.47-10,4.04-27.03,10.36-55.42,2.85-12.77,10.46-39.51,11.49-52.03.42-5.05.58-9.68.55-13.96,0-.1-.01-.2-.01-.3-.2-20.13-4.72-32.13-7.67-41.22,0-.05-.03-.1-.04-.15-1.25-4.45-4.7-12.83-7.25-21.61-2.12-7.31-3.96-13.38-5.45-18.54-.03-.22-.5-5.05-.57-6.67-.47-12.44.04-25.54,1.88-35.65.22-.98.45-1.97.7-2.94.44,2.31,1.49,7.73,1.91,9.57,2.74,11.72,6.95,25.57,8.58,34.48.15.78.27,1.51.37,2.21.03.2.07.42.09.62,0,.02,0,.05,0,.07.23,1.93,1.13,14.98,5.85,30.6.51,1.69,1.06,3.4,1.66,5.14.35,1.01.69,1.97,1.01,2.9,1.39,3.98,2.55,7.22,3.58,10.02,2.14,5.83,3.71,9.69,5.57,13.97.45,1.05.92,2.12,1.42,3.25.39.88.76,1.72,1.11,2.55,1.99,4.67,3.37,8.52,3.61,11.73.02.14.04.28.05.43,0,0,0,0,0,0,0,.02,0,.04,0,.06.04,1.66-1.49,5.1-2.06,7.28-1.75,6.81,1.79,12.51-2.25,21.41-.11.24-.02.42.2.53.64.36,2.45.08,3.64-1.33,1.85-2.19,2.48-7.86,2.62-7.78,0,.02.01.06.02.13.4,7.85,1.61,9.7,2.37,16.09,0,.03,0,.05.01.08.1.88.13,1.69.12,2.44-.05,3.22-.89,5.22.09,6.77.29.46.52.76.77.88.53.26,1.15-.32,2.62-2,.04-.05.08-.09.12-.13,1.36-1.56,2.3-3,3.18-4.24.15-.21.31-.44.46-.64,1.99-2.64,3.07-5.25,3.24-10.69h0c.13-4.12-.4-7.25-1.76-13.23-.6-2.63-1.26-4.1-2.13-11.5-.26-2.27-.27-3.59-.27-4.56,0-.55,0-.99-.04-1.43-.13-1.12-.39-1.97-.72-2.87-.56-1.55-1.29-3.26-1.77-6.89-.02-.12-.03-.23-.05-.35-1.1-8.29-1.93-14.99-2.87-22.8-.27-2.28-.56-4.65-.86-7.19-.01-.11-.03-.22-.04-.33-.24-2.08-.51-4.25-.79-6.58-.02-.14-.03-.27-.05-.42-.44-3.66-1.29-7.69-2.38-12.01-1.28-5.05-2.91-10.49-4.66-16.22-.6-1.95-1.21-3.94-1.82-5.96-.23-.74-.45-1.48-.68-2.22-.4-1.34-1.26-11.48-1.59-16.82-.41-6.67-4.26-67.76-6.9-76.98-1.97-6.87-3.88-9.63-5.71-10.54h0s-.05-.04-.12-.08c-.35-.21-1.48-.87-2.24-1.22-.01,0-.02-.01-.03-.02,0,0,0,0,0,0-.41-.19-.85-.35-1.29-.52-.14-.05-.28-.1-.42-.15-.34-.12-.7-.23-1.06-.34-.02,0-.05-.01-.07-.02l-26.1-13.38c-.33-.61-.65-1.26-.94-1.96-1.11-2.7-1.56-10.21-1.75-15.34,1.27-1.17,2.4-2.52,3.36-4.2.96-1.68,1.76-3.7,2.38-6.21.22-.9.48-1.97.74-3.12.35.12.66.16.95.14,1.58-.14,2.29-2.28,2.74-3.71.04-.13.08-.26.12-.37.08-.23.14-.44.21-.59,0-.01.01-.02.02-.04.56-1.32,1.31-1.48,2.05-4.46.06-.25.11-.49.13-.72.18-1.61-.45-2.76-.14-3.89.24-.87.36-3.32-.75-4.16-.12-.09-.26-.14-.42-.19.11-.44.23-.9.33-1.37,1.31-5.73,1.98-13.96-.3-20.89-.23-.71-.48-1.4-.78-2.08-.19-.44-.39-.88-.6-1.3-1.35-2.76-2.93-5.05-4.58-6.91-.02-.03-.05-.05-.07-.08-.05-.06-.1-.11-.15-.17-4.56-5.46-11.97-9.01-20.36-9.05-.04,0-.08,0-.13,0-8.53,0-16.06,3.64-20.63,9.22-1.93,2.16-3.77,4.9-5.25,8.29-.21.49-.41.99-.59,1.5-1.47,4.12-1.84,8.75-1.63,13.07.18,3.65.77,7.08,1.48,9.78-.16.05-.3.1-.42.19-1.11.84-.99,3.29-.75,4.16.31,1.13-.32,2.27-.14,3.89.03.23.07.47.13.72.75,3.01,1.51,3.14,2.07,4.5.16.39.34,1.07.6,1.8.15.44.34.89.56,1.3.44.83,1.05,1.5,1.91,1.57.29.03.6-.01.95-.14.24,1.05.47,2.03.68,2.88.02.08.04.16.06.24.61,2.51,1.42,4.53,2.38,6.21.55.96,1.16,1.8,1.82,2.58.49.58,1,1.12,1.55,1.62-.02.69-.05,1.42-.09,2.17-.19,4.18-.57,9.14-1.27,11.95-.12.47-.25.89-.39,1.22-.11.27-.23.52-.34.77-.19.42-.39.81-.6,1.2l-26.09,13.37s-.02,0-.03,0c-.38.11-.75.23-1.11.35-.14.05-.27.09-.41.14-.44.16-.88.33-1.29.52-.4.18-.92.46-1.38.72-.21.12-.4.22-.56.32-.14.08-.25.15-.33.19-.05.03-.08.05-.1.06,0,0-.03.02-.03.02h0c-1.83.92-3.74,3.68-5.71,10.55-2.64,9.22-6.49,70.31-6.9,76.98-.33,5.3-1.18,15.34-1.58,16.78,0,0,0,.03,0,.04-.01.04-.02.08-.04.12-.22.7-.43,1.4-.64,2.1-3.96,12.99-7.73,24.8-8.86,34.19-.31,2.62-.6,5.04-.88,7.33-1.36,11.36-2.32,19.45-3.78,30.34-.75,5.69-2.12,6.69-2.47,9.68,0,.03,0,.05-.01.08,0,.01,0,.02,0,.03-.02.21-.04.41-.04.64,0,.23,0,.48,0,.76,0,.07,0,.15,0,.22,0,.95-.03,2.23-.27,4.34-.87,7.4-1.53,8.87-2.13,11.5-1.28,5.61-1.82,8.71-1.78,12.47,0,.25,0,.51.02.76Z"/>
  </g>
</svg>