<?xml version="1.0" encoding="UTF-8"?>
<svg id="_레이어_2" data-name="레이어 2" xmlns="http://www.w3.org/2000/svg" viewBox="0 0 169.72 571.64">
  <defs>
    <style>
      .cls-1 {
        fill: #f2a7a9;
        stroke: #221714;
        stroke-miterlimit: 10;
      }
    </style>
  </defs>
  <g id="_레이어_1-2" data-name="레이어 1">
    <path class="cls-1" d="m167.53,312.82c-.04-.17-.08-.34-.12-.51-.49-2.12-1.02-3.54-1.67-8.08-.13-.9-.26-1.91-.4-3.07,0-.08-.02-.16-.03-.23-.26-2.24-.27-3.55-.27-4.51,0-.55,0-.99-.04-1.43-.04-.39-.1-.74-.17-1.07-.5-2.33-1.65-3.69-2.32-8.74-.43-3.21-.82-6.17-1.18-9.05-.12-.91-.23-1.82-.34-2.72-.74-5.89-1.42-11.62-2.25-18.57-.05-.42-.1-.85-.16-1.28-.17-1.45-.35-2.95-.54-4.52-.06-.5-.12-1.01-.18-1.53-1.13-9.39-4.87-21.21-8.86-34.19-.23-.74-.45-1.48-.68-2.22-.02-.08-.05-.18-.07-.31-.13-.7-.3-2.08-.48-3.8-.01-.12-.02-.23-.04-.35,0-.06-.01-.12-.02-.18-.38-3.76-.78-8.88-.98-12.18-.41-6.67-4.26-67.76-6.9-76.98-1.97-6.87-3.88-9.63-5.71-10.54h0s-1.49-.9-2.39-1.31c-1.04-.47-2.18-.84-3.39-1.17l-25.45-13.04c-.2-.36-.39-.73-.58-1.13-.2-.43-.4-.9-.58-1.41-.46-1.29-.79-3.41-1.05-5.81-.23-2.27-.39-4.77-.5-7.02.15-.9.29-1.78.42-2.63,1.78-1.8,3.26-4,4.37-7.12.31-.86.6-1.82.88-2.86.15-.18.28-.4.42-.62.43-.72.81-1.8,1.12-2.95.72,0,1.28-.36,1.71-.81,1.03-1.09,1.54-2.88,2.02-4.28.49-1.44.79-1.93,1.39-3.95.07-.23.13-.5.19-.79.16-.75.15-1.47.04-2.1-.03-.17-.06-.33-.1-.49,0-.02,0-.04-.01-.05-.05-.19-.11-.37-.17-.54-.05-.13-.1-.25-.14-.37,0-.36.03-.71.12-1.06.13-.5.23-1.32.21-2.13-.02-.84-.16-1.7-.56-2.23-.08-.1-.19-.18-.29-.24,1.02-4.65,1.61-10.96.48-16.83-.52-2.72-1.34-5.31-2.52-7.63-.32-.62-.65-1.22-.99-1.8-1.36-2.37-2.95-4.37-4.65-6.03-3.56-3.73-8.56-6.42-14.28-7.43-2.13-.37-4.33-.51-6.56-.4-6.23.33-11.83,2.62-16.01,6.15-1.42,1.17-2.7,2.5-3.83,3.97-.92,1.13-1.81,2.39-2.64,3.81-.82,1.4-1.55,2.92-2.19,4.58-1.9,4.97-2.13,10.76-1.63,15.84.15,1.55.37,3.03.63,4.4-.02.14-.03.28-.04.42-.04,1.07.12,2.29.34,3.34-.1.14-.19.27-.27.39-.5.76-.77,2.13-.71,3.29.02.39.07.75.15,1.03.04.16.07.32.09.47.02.14.02.28.03.42,0,0,0,.01,0,.02.03.76-.05,1.46.03,2.23,0,.09.03.18.05.26.02.11.03.21.06.32.07.27.17.54.26.86.7,2.45,1.31,3.15,2.04,4.42.27.47.61,1.18,1.09,1.76.4,1.14.97,2.23,1.82,2.6.26.12.55.18.87.16.27,1.12.54,2.16.8,3.06.91,3.23,2.15,5.58,3.68,7.48.52.99,1.1,1.9,1.71,2.77-.17,4.2-.51,9.64-1.25,12.78-.21.88-.44,1.63-.7,2.21-.26.59-.54,1.14-.84,1.67l-25.4,13.02c-1.21.33-2.36.7-3.4,1.17-.9.41-2.39,1.3-2.39,1.3h0c-1.83.92-3.74,3.68-5.71,10.55-2.64,9.22-6.49,70.31-6.9,76.98-.33,5.34-1.18,15.48-1.59,16.82-.23.74-.45,1.48-.68,2.22-3.99,12.98-7.73,24.8-8.86,34.19-.31,2.62-.6,5.04-.88,7.33-1.36,11.36-2.32,19.45-3.78,30.34-.76,5.74-2.14,6.7-2.48,9.76-.05.43-.05.87-.05,1.43,0,.97-.01,2.29-.27,4.56-.87,7.4-1.53,8.87-2.13,11.5-1.36,5.98-1.89,9.11-1.76,13.22.05,1.38.15,2.57.31,3.63.47,3.16,1.45,5.13,2.94,7.11,1.03,1.36,2.04,3.05,3.63,4.88,2.27,2.6,2.59,2.72,3.51,1.26,1.21-1.9-.33-4.5.22-9.21.75-6.46,1.98-8.27,2.37-16.17.06-1.19.65,5.28,2.65,7.65,1.53,1.81,4.05,1.75,3.86.91,0-.06-.02-.13-.05-.2-1.26-2.78-1.77-5.25-1.94-7.54-.28-3.97.5-7.4.1-11-.17-1.47-.67-3.28-.9-4.65-.02-.14-.05-.29-.08-.43-.38-1.88-1.03-4.35-1.05-6.18,0-.24,0-.47.02-.67.01-.14.04-.29.06-.42.31-2.17,1.08-4.6,2.15-7.36.84-2.16,1.79-4.39,2.84-6.79,2.72-6.23,4.65-10.96,8.06-20.52.62-1.73,1.29-3.63,2.04-5.76.33-.94.66-1.91,1-2.91,6.03-17.67,7.04-33.19,7.28-35.07.11-.86.27-1.82.45-2.82,1.63-8.92,5.85-22.77,8.58-34.49.43-1.85,1.49-7.31,1.92-9.59.13.51.24,1.04.36,1.55.19,7.26-.98,25.61-3.9,42.53,0,0,0,0,0,0-1.09,7.48-2.66,15.01-4.18,21.99-4.75,9.31-7.61,16.01-8.55,18.07-.06.14-.11.25-.12.29-.6,1.52-1.13,2.91-1.61,4.13-.04.1-.08.2-.1.27-3.14,8.51-7.13,19.63-7.39,36.73,0,.1,0,.19-.01.29,0,.01,0,.14,0,.15-.02,1.2-.02,2.44,0,3.7,0,.09,0,.18,0,.27,0,.03,0,.11,0,.14.05,3.07.21,6.32.51,9.77.1,1.19.26,2.48.46,3.85,1.94,13.05,9.36,36.31,12.46,48.4.26,1.02.52,2.02.76,2.99,6.7,26.55,10.53,42.83,11.15,52.63.05.78.09,1.53.12,2.25.45,11.34-.97,15.44-2.28,22.63-.11.61-.22,1.22-.32,1.83-2.38,14.64-.41,27.37,2.73,39.05,5.98,22.28,12.26,32.19,12.9,43.89.15,2.91-1.82,4.13-.73,7.83.57,1.92,1.52,3.76.07,8.04-4.88,14.48-11.22,18.28-10.47,23.57.83,5.86,18.44,5.49,25.34,4.17,5.67-1.09,5.6-10.06,3.96-20.34-.33-2.08-.5-4.4-.37-7.96.06-1.75.49-3.8.71-6.28.21-2.28-.39-4.69-.71-6.59-.24-1.45-.5-2.61-.54-3.22-1.52-22.38-1.05-27.75,1.47-48.79,2.55-21.26-1.02-25.08-.57-38.08.26-7.71,2.35-15.58,2.91-23.92.71-10.47-.26-20.35-1.25-27.79-2.74-20.58-2.72-23.9-3.61-40.16-.95-17.66,4.11-26.31,1.22-41.54.67.26,2.31.35,3.93.37,1.63.01,3.27-.11,3.94-.37-2.89,15.23,2.17,23.88,1.21,41.54-.88,16.26-.87,19.58-3.6,40.16-.99,7.44-1.96,17.32-1.26,27.79.56,8.34,2.65,16.21,2.92,23.92.45,13-3.12,16.82-.58,38.08,2.53,21.04,3.16,26.42,1.48,48.79-.05.61-.3,1.77-.54,3.22-.32,1.9-.93,4.31-.72,6.59.22,2.48.65,4.53.72,6.28.13,3.56-.04,5.88-.37,7.96-1.64,10.28-1.72,19.25,3.96,20.34,6.89,1.32,24.51,1.69,25.34-4.17.75-5.29-5.6-9.09-10.48-23.57-1.44-4.28-.48-6.12.08-8.04,1.08-3.7-.89-4.92-.73-7.83.64-11.7,6.91-21.61,12.9-43.89,3.24-12.05,5.22-25.21,2.5-40.42-1.4-7.83-2.97-11.87-2.29-24.79.52-10.01,4.58-27.04,11.76-55.43,3.22-12.77,11.87-39.5,13.04-52.02.46-5,.64-9.58.61-13.82v-.15c0-.1,0-.19,0-.29-.1-20.02-5.3-32-8.65-41.08,0-.02-.05-.14-.12-.29-.64-1.41-3.47-8.21-8.43-18.02-.31-1.56-.63-3.19-1-4.86-1.37-6.1-2.85-12.22-3.76-18.3,0,0,0,0,0,0-2.96-17.04-4.02-35.62-3.81-42.91.11-.28.22-.54.34-.78.38,2.01,1.12,5.82,1.59,8.02.01.06.03.13.04.19,0,.03.01.06.02.09.07.33.14.63.2.9.03.15.07.29.1.42,2.6,11.08,6.48,23.97,8.23,32.78.1.49.17.96.25,1.41.04.22.08.47.12.72.01.08.03.16.04.25.14.85.27,1.74.38,2.61.03.22.06.57.11,1.01.12,1.22.32,3.06.63,5.38.02.18.05.36.07.54.02.12.03.25.05.37.89,6.28,2.58,15.53,5.9,25.6.3.92.62,1.84.93,2.75.35,1.01.68,1.96,1,2.89,4.43,12.71,6.52,17.85,9.55,24.78.33.76.67,1.54,1.02,2.33,1.97,4.48,3.47,8.25,4.1,11.45.03.15.06.31.09.46.15.8.2,1.63.17,2.45,0,.11,0,.23,0,.35,0,.03,0,.06,0,.09-.07,1.19-.75,3.01-1.29,4.67-.3.93-.57,1.83-.74,2.62-1.32,6.13,1.37,11.45-1.51,19.19-.24.65-.16,1.24-.2,1.7,0,.09,0,.16.05.22.22.28,1.13.29,2.06-.19.55-.28,1.11-.73,1.55-1.37,1.23-1.75,1.81-4.93,2.1-6.06.16-.61.26-.98.3-.81,0,.03,0,.04,0,.08.12,2.03.29,3.64.49,5.05.49,3.49,1.19,5.68,1.71,9.54.07.51.13,1.03.18,1.56.03.29.05.57.06.84.15,3.31-.64,5.45-.19,7.08.12.44.28.81.52,1.12.76,1,1.16.91,2.74-.84.23-.26.48-.55.75-.86,1.27-1.49,2.16-2.87,3.01-4.06.2-.28.39-.54.58-.8,1.83-2.49,2.85-5,3.08-9.94.01-.24.02-.49.03-.74.05-1.79-.03-3.4-.25-5.15-.26-2.12-.73-4.45-1.43-7.55Z"/>
  </g>
</svg>