<?xml version="1.0" encoding="UTF-8"?>
<svg id="_레이어_2" data-name="레이어 2" xmlns="http://www.w3.org/2000/svg" viewBox="0 0 169.72 571.63">
  <defs>
    <style>
      .cls-1 {
        fill: #f2a7a9;
        stroke: #221714;
        stroke-miterlimit: 10;
      }
    </style>
  </defs>
  <g id="_레이어_1-2" data-name="레이어 1">
    <path class="cls-1" d="m.83,329.29c.47,3.14,1.45,5.1,2.93,7.07,1.03,1.36,2.04,3.05,3.64,4.88,2.26,2.59,2.58,2.72,3.51,1.26,1.2-1.91-.34-4.5.21-9.21.76-6.46,1.98-8.28,2.38-16.17.06-1.2.65,5.27,2.65,7.64,1.56,1.86,4.19,1.75,3.84.84-.02-.06-.04-.13-.07-.19-1.25-2.8-1.75-5.28-1.91-7.58-.31-4.61.79-8.48-.15-12.75-.43-1.96-1.65-4.89-1.67-6.44,0-.15,0-.3,0-.44-.03-1.86.13-4.04.61-6.2.05-.22.1-.44.16-.65.03-.13.07-.26.11-.39.62-2.15,1.55-4.53,2.66-7.17.99-2.32,1.92-4.48,2.88-6.73,2.32-5.47,4.33-10.66,7.8-20.53.42-1.19.87-2.46,1.35-3.85.34-.97.66-1.94.99-2.92,5.59-17.06,6.56-31.78,6.79-33.6.11-.87.27-1.82.46-2.83,1.63-8.91,5.84-22.76,8.58-34.48.43-1.85,1.48-7.31,1.92-9.6.13.51.25,1.03.37,1.54,2.13,10.95,3.97,28.64.02,42.53,0,0,0,0,0,0-1.16,6.15-3.88,12.57-6.93,19.74-4.31,8.3-7.24,14.78-8.76,18.15-.05.11-.1.22-.13.29-.84,1.93-1.4,3.35-1.74,4.13-.06.14-.11.25-.12.28-3.12,8.46-7.5,19.45-8.15,36.84,0,.1,0,.19-.01.29,0,.04,0,.11,0,.15-.04,1.21-.07,2.46-.07,3.73,0,.1,0,.19,0,.28,0,.01,0,.14,0,.15,0,3.09.12,6.36.37,9.85.09,1.25.21,2.56.36,3.91,1.37,12.09,8.85,35.73,12.33,48.81.28,1.05.54,2.05.78,3,6.68,26.43,10.6,42.91,11.45,53,.07.78.12,1.53.15,2.24.57,11.68-.75,15.97-2.05,22.83-.11.6-.23,1.22-.34,1.86-2.61,15.02-.63,28.04,2.58,39.96,5.98,22.28,12.26,32.19,12.9,43.89.15,2.91-1.82,4.13-.73,7.83.57,1.92,1.52,3.76.07,8.04-4.88,14.48-11.22,18.28-10.47,23.57.83,5.86,18.44,5.49,25.34,4.17,5.67-1.09,5.6-10.06,3.96-20.34-.33-2.08-.5-4.4-.37-7.96.06-1.75.49-3.8.71-6.28.21-2.28-.39-4.69-.71-6.59-.24-1.45-.5-2.61-.54-3.22-1.52-22.38-1.05-27.75,1.47-48.79,2.55-21.26-1.02-25.08-.57-38.08.26-7.71,2.35-15.58,2.91-23.92.71-10.47-.26-20.35-1.25-27.79-2.74-20.58-2.72-23.9-3.61-40.16-.95-17.66,4.11-26.31,1.22-41.54.67.26,2.31.35,3.93.37,1.63.02,3.27-.11,3.94-.37-2.89,15.23,2.17,23.88,1.21,41.54-.88,16.26-.87,19.58-3.6,40.16-.99,7.44-1.96,17.32-1.26,27.79.56,8.34,2.65,16.21,2.92,23.92.45,13-3.12,16.82-.58,38.08,2.53,21.04,3.16,26.42,1.48,48.79-.05.61-.3,1.77-.54,3.22-.32,1.9-.93,4.31-.72,6.59.22,2.48.65,4.53.72,6.28.13,3.56-.04,5.88-.37,7.96-1.64,10.28-1.72,19.25,3.96,20.34,6.89,1.32,24.51,1.69,25.34-4.17.75-5.29-5.6-9.09-10.48-23.57-1.44-4.28-.48-6.12.08-8.04,1.08-3.7-.89-4.92-.73-7.83.64-11.7,6.91-21.61,12.9-43.89,3.24-12.05,5.22-25.21,2.5-40.42-1.4-7.83-2.97-11.87-2.29-24.79.52-10.01,4.58-27.04,11.76-55.43,3.22-12.77,11.87-39.5,13.04-52.02.46-5,.64-9.58.61-13.82v-.15c0-.1,0-.19,0-.29-.1-20.02-5.3-32-8.65-41.08,0-.02-.05-.14-.12-.29-.64-1.41-3.48-8.24-8.46-18.08-.59-1.48-1.2-3.03-1.88-4.62-2.95-6.9-5.68-12.83-6.79-18.51,0,0,0,0,0,0-4.08-14.26-1.9-32.65.3-43.68.09.19.19.45.31.77.47,2.43,1.22,6.3,1.61,8.04.01.06.03.13.04.19,0,.03.01.06.02.09.07.31.14.61.21.9.03.14.07.29.1.42,2.69,11.27,6.59,24.23,8.21,32.84.16.84.29,1.63.39,2.36.02.17.05.41.09.7,0,.07.02.15.03.23.09.69.19,1.57.3,2.58.03.28.07.61.11.98.16,1.39.37,3.19.68,5.32.02.17.05.35.08.52.02.12.04.24.05.36.99,6.5,2.79,15.59,6.11,25.34.33.98.67,1.93.98,2.84.35,1,.68,1.95,1,2.86,4.35,12.35,6.36,17.25,9.56,24.52.34.78.68,1.55,1.01,2.31,2.02,4.68,3.46,8.56,3.84,11.8.02.14.05.3.06.45.07.66-.05,1.51-.24,2.41-.02.11-.04.23-.07.34,0,.03-.01.06-.02.09-.34,1.42-1.02,3.17-1.42,4.57-.26.9-.43,1.79-.54,2.63-.76,5.86,1.59,11.18-1.71,18.92-.25.6.39.67,1.07.93.05.02.12.02.2.02.5-.05,1.26-.32,1.92-.92.45-.4.86-.96,1.2-1.64,1.23-2.46,1.67-6.2,1.79-5.93.08.2.13.46.17.87,0,.03,0,.05,0,.09.14,2.01.33,3.59.56,4.99.51,3.22,1.19,5.43,1.68,9.45.07.54.11,1.06.14,1.57.02.29.02.57.02.84.02,3.26-.81,5.32,0,6.9.24.46.46.78.7.96.63.47,1.18.05,2.73-1.71.25-.28.49-.57.73-.86,1.22-1.49,2.09-2.87,2.95-4.03.2-.26.38-.53.57-.79,1.7-2.43,2.63-5.01,2.81-9.93,0-.25.02-.49.02-.73.03-1.74-.06-3.34-.3-5.09-.28-2.09-.75-4.41-1.45-7.47-.04-.17-.08-.33-.12-.5-.48-2.01-1-3.5-1.64-7.99-.13-.89-.26-1.9-.39-3.06,0-.08-.02-.16-.03-.23-.24-2.17-.25-3.44-.25-4.39,0-.56,0-1-.05-1.43-.04-.38-.1-.73-.17-1.05-.49-2.33-1.65-3.68-2.31-8.72-.43-3.21-.82-6.18-1.18-9.05-.12-.91-.23-1.82-.34-2.72-.74-5.89-1.42-11.62-2.25-18.57-.05-.42-.1-.85-.16-1.28-.17-1.45-.35-2.95-.54-4.52-.06-.5-.12-1.01-.18-1.53-1.13-9.39-4.87-21.21-8.86-34.19-.23-.74-.45-1.48-.68-2.22-.02-.07-.04-.17-.07-.29-.13-.68-.3-2.06-.48-3.79-.01-.11-.02-.22-.03-.33,0-.06-.01-.12-.02-.17-.38-3.76-.79-8.92-.99-12.23-.41-6.67-4.26-67.76-6.9-76.98-1.97-6.87-3.88-9.63-5.71-10.54h0s-1.49-.9-2.39-1.31c-1.04-.47-2.2-.84-3.42-1.17l-25.41-13.02c-.32-.57-.62-1.17-.9-1.82-.18-.42-.35-.92-.5-1.5-.4-1.52-.7-3.73-.92-6.12-.22-2.46-.36-5.1-.45-7.36.54-.75,1.04-1.53,1.5-2.36,1.64-1.95,2.97-4.4,3.92-7.83.25-.89.52-1.92.79-3.03.29.02.55-.03.8-.12.89-.34,1.48-1.45,1.89-2.61.47-.59.81-1.3,1.08-1.76.73-1.26,1.38-1.96,2.05-4.43.49-1.81.02-2.86.46-4.39.06-.22.11-.5.16-.84.09-.7.07-1.51-.12-2.2-.05-.18-.11-.35-.18-.5,0-.02-.02-.04-.03-.05-.09-.19-.21-.36-.34-.51-.1-.1-.21-.18-.33-.24.06-.35.13-.71.22-1.08.15-.64.29-1.41.38-2.2.09-.83.15-1.68.08-2.45-.01-.14-.04-.26-.06-.39.8-5.35.87-11.96-1.13-17.61-.94-2.66-2.13-5.02-3.49-7.05-.38-.57-.78-1.11-1.18-1.62-1.47-2.03-3.25-3.8-5.23-5.27-3.99-3.06-9.15-5.03-14.83-5.36-2.17-.12-4.33,0-6.42.33-5.98.98-11.2,3.8-14.85,7.73-1.21,1.22-2.35,2.61-3.39,4.19-.8,1.19-1.57,2.5-2.26,3.93-.71,1.46-1.28,3.02-1.73,4.65-1.39,5.12-1.3,10.81-.63,15.59.22,1.53.5,2.97.8,4.26-.11.07-.21.15-.29.26-.55.75-.6,2.12-.49,3.19-.02.33,0,.62,0,.83.04.9-.37,2.04-.35,3.29,0,.4.05.81.16,1.22.04.16.08.32.11.46.03.14.06.28.09.41,0,0,0,.01,0,.02.21.9.37,1.53.6,2.09.03.08.07.16.11.24.05.1.09.19.13.28.17.32.36.61.5,1.03.49,1.38.97,3.16,1.99,4.26.43.47.99.84,1.73.83.31,1.15.69,2.22,1.1,2.95.15.27.3.51.46.72.28,1.07.6,2.05.92,2.93,1.09,2.97,2.51,5.1,4.23,6.85.15,1.01.31,2.05.48,3.1-.22,4.5-.64,9.82-1.49,12.31-.26.77-.56,1.47-.87,2.08-.12.23-.24.45-.36.67l-25.37,13c-1.23.33-2.39.71-3.43,1.18-.9.41-2.39,1.3-2.39,1.3h0c-1.83.92-3.74,3.68-5.71,10.55-2.64,9.22-6.49,70.31-6.9,76.98-.33,5.34-1.18,15.48-1.59,16.82-.23.74-.45,1.48-.68,2.22-3.99,12.98-7.73,24.8-8.86,34.19-.31,2.62-.6,5.04-.88,7.33-1.36,11.36-2.32,19.45-3.78,30.34-.76,5.74-2.14,6.7-2.48,9.76-.05.43-.05.87-.05,1.43,0,.97-.01,2.29-.27,4.56-.87,7.4-1.53,8.87-2.13,11.5-1.36,5.98-1.89,9.11-1.76,13.22.05,1.38.15,2.58.31,3.65Z"/>
  </g>
</svg>