<?xml version="1.0" encoding="UTF-8"?>
<svg id="_레이어_2" data-name="레이어 2" xmlns="http://www.w3.org/2000/svg" viewBox="0 0 169.41 571.92">
  <defs>
    <style>
      .cls-1 {
        fill: #f2a7a9;
        stroke: #221714;
        stroke-miterlimit: 10;
      }
    </style>
  </defs>
  <g id="_레이어_1-2" data-name="레이어 1">
    <path class="cls-1" d="m158.15,341.76s.02.08.03.12c0,.02.02.05.02.07.07.23.17.46.3.67.1.15.18.28.27.4.75,1.01,1.21.68,3.24-1.65.57-.65,1.05-1.28,1.5-1.89.81-1.1,1.48-2.12,2.14-2.99.96-1.27,1.7-2.53,2.23-4.1.32-.94.57-1.99.74-3.22.14-1,.23-2.11.27-3.38.13-4.11-.4-7.24-1.76-13.22-.51-2.25-1.07-3.66-1.76-8.63-.12-.85-.24-1.79-.36-2.86-.08-.66-.13-1.23-.17-1.74-.1-1.27-.1-2.14-.1-2.83,0-.41,0-.76-.03-1.08,0-.11,0-.23-.02-.34-.09-.88-.28-1.58-.51-2.28-.57-1.73-1.43-3.39-1.97-7.48-1.46-10.89-2.42-18.98-3.78-30.34-.08-.64-.16-1.29-.24-1.95-.12-1.02-.25-2.07-.38-3.15-.09-.73-.18-1.47-.27-2.23-1.13-9.39-4.87-21.21-8.86-34.19-.17-.56-.35-1.13-.52-1.69-.06-.21-.13-.44-.19-.69-.07-.28-.16-.83-.25-1.55-.44-3.42-1.04-10.81-1.31-15.1-.41-6.62-4.2-66.78-6.83-76.72-.1-.38-.2-.74-.31-1.08-1.79-5.96-3.54-8.56-5.21-9.55,0,0,0,0,0,0-.09-.08-.55-.36-1.09-.65,0,0,0,0,0,0-.32-.18-.82-.46-1.26-.67-.02-.01-.05-.02-.07-.03-.38-.18-.77-.35-1.16-.49-.18-.07-.36-.14-.55-.2-.26-.09-.53-.18-.8-.27-.06-.02-.11-.03-.17-.05l-26.55-13.6c-.31-.58-.61-1.2-.88-1.86-1.11-2.7-1.57-10.21-1.75-15.34,2.54-2.35,4.51-5.38,5.74-10.41.22-.9.48-1.97.74-3.12.69.24,1.26.16,1.73-.12,1.4-.85,1.91-3.49,2.29-4.42.56-1.36,1.31-1.49,2.07-4.5.5-2-.37-3.32-.01-4.61.24-.87.36-3.32-.75-4.16-.09-.06-.19-.11-.3-.14-.04-.03-.07-.05-.11-.08,1.63-6.27,2.68-16.49-.75-24.31-1.48-3.39-3.32-6.12-5.25-8.29-4.54-5.54-12.01-9.17-20.48-9.22-8.47.04-15.93,3.68-20.48,9.22-1.93,2.17-3.77,4.9-5.25,8.29-3.43,7.82-2.38,18.04-.75,24.31-.04.02-.08.05-.11.08-.11.03-.21.08-.3.14-1.11.84-.99,3.29-.75,4.16.36,1.29-.51,2.61-.01,4.61.76,3.01,1.51,3.14,2.07,4.5.39.93.89,3.57,2.29,4.42.47.28,1.03.37,1.73.12.26,1.15.52,2.22.74,3.12,1.23,5.03,3.2,8.06,5.74,10.41-.18,5.13-.64,12.64-1.75,15.34-.27.66-.57,1.28-.88,1.86l-26.55,13.6c-.06.02-.11.04-.17.05-.27.09-.54.17-.8.27-.18.06-.37.13-.55.2-.38.15-.78.32-1.16.49-.02.01-.05.02-.07.03-.44.21-.94.49-1.26.67,0,0,0,0,0,0-.53.29-1,.58-1.09.65,0,0,0,0,0,0-1.68.99-3.42,3.59-5.21,9.55-.1.34-.2.7-.31,1.08-2.64,9.93-6.43,70.1-6.83,76.72-.27,4.29-.87,11.68-1.31,15.1-.09.73-.18,1.27-.25,1.55-.06.25-.13.48-.19.69-.17.56-.34,1.13-.52,1.69-3.99,12.98-7.73,24.8-8.86,34.19-.09.76-.18,1.5-.27,2.23-.13,1.08-.26,2.13-.38,3.15-.08.66-.16,1.31-.24,1.95-1.36,11.36-2.32,19.45-3.78,30.34-.54,4.09-1.4,5.75-1.97,7.48-.23.7-.42,1.4-.51,2.28-.01.11-.01.23-.02.34-.02.33-.03.67-.03,1.08,0,.69,0,1.57-.1,2.83-.04.51-.09,1.08-.17,1.74-.12,1.07-.25,2.02-.36,2.86-.69,4.97-1.25,6.38-1.76,8.63-1.36,5.98-1.89,9.11-1.76,13.22.04,1.27.13,2.38.27,3.38.17,1.23.42,2.28.74,3.22.53,1.57,1.28,2.84,2.23,4.1.66.88,1.33,1.9,2.14,2.99.45.61.93,1.24,1.5,1.89,2.04,2.33,2.5,2.66,3.24,1.65.09-.12.17-.25.27-.4.14-.21.23-.44.3-.67,0-.02.02-.05.02-.07.01-.04.02-.08.03-.12.44-1.83-.61-4.31-.14-8.35.58-5.01,1.45-7.23,2-11.65.16-1.28.29-2.73.38-4.5,0-.06,0-.1.01-.12.11-.42.74,5.5,2.63,7.75,1.37,1.62,3.52,1.74,3.84,1.15.05-.1.06-.21,0-.35-4.04-8.9-.5-14.6-2.25-21.41-.46-1.78-1.56-4.4-1.93-6.21-.08-.4-.14-.78-.13-1.08,0-.07,0-.15.02-.23,0-.09.02-.18.03-.27.17-2.2.87-4.7,1.93-7.55.76-2.05,1.71-4.28,2.79-6.73,1.49-3.37,2.71-6.19,3.99-9.4-1.65,6.38-2.96,13.98-3.01,23.36,0,.1,0,.2,0,.3-.02,4.28.16,8.91.66,13.96,1.23,12.52,10.39,39.26,13.81,52.03,7.6,28.39,11.9,45.42,12.46,55.42.72,12.93-.95,16.97-2.43,24.8-2.89,15.21-.78,28.36,2.65,40.42,6.34,22.28,12.99,32.19,13.66,43.88.17,2.92-1.9,4.14-.76,7.83.6,1.93,1.6,3.77.07,8.05-5.17,14.48-11.89,18.27-11.1,23.56.88,5.86,19.54,5.5,26.85,4.18,6.01-1.09,5.93-10.06,4.2-20.34-.35-2.08-.53-4.4-.4-7.96.07-1.76.52-3.81.76-6.28.22-2.28-.42-4.69-.76-6.6-.26-1.44-.52-2.6-.57-3.21-1.72-22.37-1.11-27.75,1.56-48.79,2.7-21.27-1.08-25.08-.61-38.08.28-7.71,2.5-15.58,3.09-23.92.07-.92.11-1.83.15-2.73.04.91.09,1.82.15,2.73.59,8.34,2.81,16.21,3.09,23.92.47,13-3.31,16.81-.61,38.08,2.67,21.04,3.28,26.42,1.56,48.79-.05.61-.31,1.77-.57,3.21-.34,1.91-.98,4.32-.76,6.6.24,2.47.69,4.52.76,6.28.13,3.56-.05,5.88-.4,7.96-1.73,10.28-1.81,19.25,4.2,20.34,7.31,1.32,25.97,1.68,26.85-4.18.79-5.29-5.93-9.08-11.1-23.56-1.53-4.28-.52-6.12.07-8.05,1.14-3.69-.93-4.91-.76-7.83.67-11.69,7.32-21.6,13.66-43.88,3.43-12.06,5.54-25.21,2.65-40.42-1.48-7.83-3.15-11.87-2.43-24.8.56-10,4.86-27.03,12.46-55.42,3.42-12.77,12.58-39.51,13.81-52.03.5-5.05.68-9.68.66-13.96,0-.1,0-.2,0-.3-.06-9.38-1.36-16.98-3.01-23.36,1.29,3.2,2.51,6.03,3.99,9.4,1.08,2.44,2.03,4.67,2.79,6.73,1.06,2.85,1.76,5.35,1.93,7.55.01.08.02.18.03.27,0,.08.02.15.02.23,0,.3-.05.68-.13,1.08-.37,1.81-1.47,4.43-1.93,6.21-1.75,6.81,1.79,12.51-2.25,21.41-.06.13-.05.25,0,.35.31.6,2.47.47,3.84-1.15,1.89-2.25,2.52-8.17,2.63-7.75,0,.02.01.06.01.12.09,1.77.22,3.22.38,4.5.54,4.42,1.41,6.64,2,11.65.47,4.04-.58,6.52-.14,8.35ZM46.96,213.44s0,0,0,.01c-.12.6-.22,1.2-.31,1.81-.98,5.68-2.47,11.35-3.87,16.92-5.54,9.28-8.16,13.77-10.14,18.01,1.03-3.11,1.9-6.14,2.64-9.03,3.37-13.12,4.06-23.38,4.25-24.89.09-.72.22-1.51.37-2.33.03-.17.06-.33.09-.5.94-5.08,2.7-11.76,4.55-18.74.51-1.9,1.02-3.83,1.52-5.75.89-3.39,1.75-6.78,2.51-10,.24-1.02.66-3.12,1.07-5.19.23-1.16.45-2.3.63-3.24.08-.43.16-.83.22-1.15.13.51.24,1.03.36,1.54.19,7.25-.98,25.6-3.9,42.52Zm43.05,134.04c-.94,16.26-.92,19.58-3.82,40.15-.63,4.45-1.25,9.78-1.48,15.58-.24-5.8-.85-11.13-1.48-15.58-2.9-20.57-2.88-23.89-3.82-40.15-1.01-17.66,4.35-26.32,1.29-41.55.69.26,2.35.38,4.01.38,1.67,0,3.32-.12,4.01-.38-3.06,15.23,2.3,23.89,1.29,41.55Zm36.61-115.29c-1.4-5.57-2.88-11.24-3.87-16.92-.09-.61-.19-1.21-.31-1.81,0,0,0,0,0-.01-2.91-16.92-4.09-35.26-3.9-42.52.12-.51.23-1.04.36-1.54.06.33.14.72.22,1.15.18.94.4,2.08.63,3.24.41,2.07.83,4.18,1.07,5.19.75,3.22,1.62,6.6,2.51,10,.5,1.92,1.02,3.84,1.52,5.75,1.85,6.98,3.61,13.66,4.55,18.74.03.17.06.34.09.5.15.82.27,1.61.37,2.33.2,1.51.88,11.77,4.25,24.89.74,2.89,1.61,5.92,2.64,9.03-1.97-4.24-4.6-8.74-10.14-18.01Z"/>
  </g>
</svg>