<?xml version="1.0" encoding="UTF-8"?>
<svg id="_레이어_2" data-name="레이어 2" xmlns="http://www.w3.org/2000/svg" viewBox="0 0 169.51 571.92">
  <defs>
    <style>
      .cls-1 {
        fill: #f2a7a9;
        stroke: #221714;
        stroke-miterlimit: 10;
      }
    </style>
  </defs>
  <g id="_레이어_1-2" data-name="레이어 1">
    <path class="cls-1" d="m66.98,91.11l-26.41,13.53c-.12.04-.24.07-.36.1-.2.06-.39.13-.59.2-.27.09-.53.19-.79.29-.18.07-.35.14-.52.21-.34.15-.74.34-1.12.54-.02.01-.05.02-.07.04-.58.31-1.13.63-1.24.69,0,0,0,0,0,0-.4.21-.79.46-1.05.69,0,0,0,0,0,0-1.57,1.24-3.19,4.02-4.85,9.73-.09.31-.18.67-.28,1.06-2.63,11.36-6.3,69.68-6.7,76.19-.26,4.17-.84,11.27-1.27,14.81-.08.65-.15,1.17-.22,1.52-.05.29-.1.51-.15.67-.21.68-.42,1.36-.63,2.04-3.99,12.98-7.73,24.8-8.86,34.19-.09.77-.18,1.52-.27,2.26-.13,1.07-.25,2.12-.38,3.13-.08.66-.16,1.3-.24,1.94-1.36,11.36-2.32,19.45-3.78,30.34-.54,4.1-1.41,5.76-1.98,7.5-.23.69-.41,1.39-.5,2.27-.01.11-.02.22-.03.33-.02.33-.02.68-.02,1.1,0,.69,0,1.56-.1,2.82-.04.51-.09,1.08-.17,1.74-.13,1.08-.25,2.03-.37,2.88-.69,4.97-1.25,6.37-1.76,8.62-1.36,5.98-1.89,9.11-1.76,13.22.04,1.28.13,2.41.28,3.41.17,1.22.42,2.26.73,3.2.53,1.57,1.28,2.83,2.23,4.09.66.88,1.32,1.89,2.13,2.99.45.61.94,1.24,1.51,1.89,2.04,2.33,2.5,2.67,3.25,1.65.08-.11.17-.24.27-.39.13-.21.23-.43.3-.66,0-.02.02-.05.02-.07.01-.04.02-.08.03-.12.45-1.83-.62-4.31-.14-8.36.58-4.99,1.45-7.21,1.99-11.6.16-1.28.29-2.74.38-4.5,0-.04,0-.07,0-.1.08-.94.68,5.35,2.64,7.68,1.38,1.63,3.57,1.75,3.85,1.13.04-.09.04-.2-.02-.33-4.04-8.9-.5-14.6-2.25-21.41-.45-1.75-1.53-4.32-1.92-6.12-.08-.39-.14-.75-.14-1.06,0-.07,0-.15,0-.22,0-.13.03-.26.04-.38.17-2.2.87-4.7,1.93-7.55.76-2.05,1.71-4.29,2.79-6.73,1.49-3.37,2.71-6.19,4-9.4-1.65,6.38-2.96,13.98-3.01,23.37,0,.1,0,.2,0,.3-.02,4.28.16,8.91.66,13.96,1.23,12.52,10.39,39.26,13.81,52.03,7.6,28.39,11.9,45.42,12.46,55.42.72,12.93-.95,16.97-2.43,24.8-2.89,15.21-.78,28.36,2.65,40.42,6.34,22.28,12.99,32.19,13.66,43.88.17,2.92-1.9,4.14-.76,7.83.6,1.93,1.6,3.77.07,8.05-5.17,14.48-11.89,18.27-11.1,23.56.88,5.86,19.54,5.5,26.85,4.18,6.01-1.09,5.93-10.06,4.2-20.34-.35-2.08-.53-4.4-.4-7.96.07-1.76.52-3.81.76-6.28.22-2.28-.42-4.69-.76-6.6-.26-1.44-.52-2.6-.57-3.21-1.72-22.37-1.11-27.75,1.56-48.79,2.7-21.27-1.08-25.08-.61-38.08.28-7.71,2.5-15.58,3.09-23.92.09-1.32.16-2.64.2-3.94.04,1.3.11,2.61.2,3.94.59,8.34,2.81,16.21,3.09,23.92.47,13-3.31,16.81-.61,38.08,2.67,21.04,3.28,26.42,1.56,48.79-.05.61-.31,1.77-.57,3.21-.34,1.91-.98,4.32-.76,6.6.24,2.47.69,4.52.76,6.28.13,3.56-.05,5.88-.4,7.96-1.73,10.28-1.81,19.25,4.2,20.34,7.31,1.32,25.97,1.68,26.85-4.18.79-5.29-5.93-9.08-11.1-23.56-1.53-4.28-.52-6.12.07-8.05,1.14-3.69-.93-4.91-.76-7.83.67-11.69,7.32-21.6,13.66-43.88,3.43-12.06,5.54-25.21,2.65-40.42-1.48-7.83-3.15-11.87-2.43-24.8.56-10,4.86-27.03,12.46-55.42,3.42-12.77,12.58-39.51,13.81-52.03.5-5.05.68-9.68.66-13.96,0-.1,0-.2,0-.3-.06-9.39-1.36-16.99-3.01-23.37,1.29,3.21,2.51,6.03,4,9.4,1.08,2.45,2.03,4.68,2.79,6.73,1.06,2.85,1.76,5.35,1.93,7.55.02.12.03.25.04.38,0,.07,0,.14,0,.22,0,.3-.06.67-.14,1.06-.39,1.8-1.46,4.37-1.92,6.12-1.75,6.81,1.79,12.51-2.25,21.41-.06.12-.06.23-.02.33.27.61,2.47.5,3.85-1.13,1.96-2.33,2.57-8.62,2.64-7.68,0,.03,0,.06,0,.1.09,1.77.22,3.23.38,4.5.55,4.39,1.41,6.61,1.99,11.6.47,4.05-.6,6.53-.14,8.36,0,.04.02.08.03.12,0,.02.01.05.02.07.07.23.17.45.3.66.09.15.18.28.27.39.75,1.02,1.21.68,3.25-1.65.57-.65,1.06-1.28,1.51-1.89.81-1.1,1.47-2.11,2.13-2.99.95-1.26,1.7-2.52,2.23-4.09.32-.93.56-1.98.73-3.2.14-1.01.23-2.13.28-3.41.13-4.11-.4-7.24-1.76-13.22-.51-2.25-1.07-3.65-1.76-8.62-.12-.85-.24-1.8-.37-2.88-.08-.66-.13-1.23-.17-1.74-.1-1.26-.1-2.13-.1-2.82,0-.42,0-.77-.02-1.1,0-.11-.01-.22-.03-.33-.09-.87-.28-1.57-.5-2.27-.57-1.73-1.43-3.39-1.98-7.5-1.46-10.89-2.42-18.98-3.78-30.34-.08-.64-.16-1.28-.24-1.94-.12-1.02-.25-2.06-.38-3.13-.09-.74-.18-1.49-.27-2.26-1.13-9.39-4.87-21.21-8.86-34.19-.21-.68-.42-1.36-.63-2.04-.05-.16-.1-.39-.15-.67-.07-.35-.14-.87-.22-1.52-.43-3.54-1.01-10.64-1.27-14.81-.4-6.51-4.08-64.83-6.7-76.19-.09-.4-.18-.75-.28-1.06-1.67-5.71-3.29-8.49-4.85-9.73,0,0,0,0,0,0-.26-.23-.64-.48-1.05-.69,0,0,0,0,0,0-.11-.06-.65-.38-1.24-.69-.02-.01-.05-.02-.07-.04-.38-.2-.78-.39-1.12-.54-.17-.07-.34-.14-.52-.21-.26-.1-.52-.2-.79-.29-.19-.07-.39-.13-.59-.2-.12-.04-.24-.07-.36-.1l-26.41-13.53c-.32-.59-.62-1.22-.9-1.89-1.11-2.7-1.57-10.21-1.75-15.34,2.54-2.35,4.51-5.38,5.74-10.41.22-.9.48-1.97.74-3.12.7.25,1.26.16,1.73-.12,1.4-.85,1.9-3.49,2.29-4.42.56-1.36,1.31-1.49,2.07-4.5.5-2-.37-3.32-.01-4.61.24-.87.36-3.32-.75-4.16-.11-.08-.24-.13-.38-.17,0-.04,0-.08-.02-.11,1.63-6.28,2.66-16.45-.77-24.25-1.48-3.39-3.32-6.12-5.25-8.29-4.55-5.55-12.04-9.19-20.53-9.22-8.49.03-15.97,3.67-20.53,9.22-1.93,2.17-3.77,4.9-5.25,8.29-3.42,7.8-2.39,17.97-.77,24.25,0,.04-.01.08-.02.11-.14.04-.27.08-.38.17-1.11.84-.99,3.29-.75,4.16.36,1.29-.51,2.61-.01,4.61.76,3.01,1.51,3.14,2.07,4.5.39.93.89,3.57,2.29,4.42.47.28,1.03.37,1.73.12.26,1.15.52,2.22.74,3.12,1.23,5.03,3.2,8.06,5.74,10.41-.18,5.13-.64,12.64-1.75,15.34-.28.68-.58,1.3-.9,1.89Zm-16.08,122.33c-.2.6-.35,1.22-.45,1.85-1.42,5.16-4.43,10.42-7.39,16.44-5.73,9.59-8.4,14.15-10.41,18.47,1.03-3.11,1.9-6.14,2.64-9.04,3.37-13.12,4.06-23.38,4.25-24.89.09-.72.22-1.49.36-2.31.03-.17.06-.34.1-.52.94-5.08,2.7-11.76,4.55-18.74.51-1.9,1.02-3.83,1.52-5.75.89-3.39,1.75-6.77,2.51-9.99.24-1.02.66-3.14,1.07-5.22.23-1.16.45-2.3.63-3.23.08-.43.16-.82.22-1.14.13.5.25,1.02.37,1.54,2.13,10.95,3.96,28.64.02,42.53,0,0,.01,0,.01,0Zm85.96,36.76c-2-4.31-4.68-8.87-10.41-18.47-2.95-6.02-5.96-11.28-7.39-16.44-.1-.63-.26-1.25-.45-1.85,0,0,.01,0,.01,0-3.94-13.88-2.11-31.58.02-42.53.12-.52.25-1.03.37-1.54.06.32.14.71.22,1.14.18.94.4,2.08.63,3.23.41,2.08.83,4.2,1.07,5.22.75,3.22,1.62,6.6,2.51,9.99.5,1.92,1.02,3.85,1.52,5.75,1.86,6.98,3.61,13.66,4.55,18.74.03.18.06.35.1.52.15.82.27,1.59.36,2.31.19,1.5.88,11.77,4.25,24.89.74,2.89,1.61,5.93,2.64,9.04Zm-56.17,55.73c.7.26,2.38.38,4.06.38,1.68,0,3.37-.12,4.06-.38-3.06,15.23,2.3,23.89,1.29,41.55-.94,16.26-.92,19.58-3.82,40.15-.68,4.81-1.35,10.64-1.53,16.98-.19-6.35-.85-12.18-1.53-16.98-2.9-20.57-2.88-23.89-3.82-40.15-1.01-17.66,4.35-26.32,1.29-41.55Z"/>
  </g>
</svg>