<?xml version="1.0" encoding="UTF-8"?>
<svg id="_레이어_2" data-name="레이어 2" xmlns="http://www.w3.org/2000/svg" viewBox="0 0 169.51 572.07">
  <defs>
    <style>
      .cls-1 {
        fill: #f2a7a9;
        stroke: #221714;
        stroke-miterlimit: 10;
      }
    </style>
  </defs>
  <g id="_레이어_1-2" data-name="레이어 1">
    <path class="cls-1" d="m66.71,91.25l-25.87,13.26c-.26.07-.52.14-.77.22-.21.07-.42.14-.62.21-.27.09-.54.19-.8.29-.18.07-.36.14-.54.22-.78.34-1.99,1.05-2.09,1.09,0,0-.01.01-.02.02-.71.34-1.57.98-2.07,1.64,0,0,0,0,0,0-1.31,1.41-2.66,4-4.05,8.62-.19.63-.39,1.44-.58,2.42-2.64,13.16-6.11,68.82-6.5,75.17-.27,4.36-.89,11.91-1.33,15.27-.1.76-.19,1.3-.26,1.55-.07.23-.14.47-.21.7-.15.51-.31,1.01-.46,1.52-3.99,12.98-7.73,24.8-8.86,34.19-.09.76-.18,1.5-.26,2.22-.13,1.08-.26,2.13-.38,3.15-.08.66-.16,1.31-.24,1.95-1.36,11.36-2.32,19.45-3.78,30.34-.66,5-1.85,6.13-2.2,8.76-.04.33-.05.68-.05,1.11h0c-.12,1.06-.24,2.3-.47,4.39-.01.11-.02.22-.03.33-.04.37-.07.72-.11,1.08-.09.97-.2,1.88-.32,2.81-.08.6-.16,1.16-.25,1.71-.38,2.27-.74,3.4-1.05,4.9-.82,3.95-1.32,6.23-1.64,8.58-.23,1.62-.36,3.11-.38,4.68-.05,4.9.7,7.47,2.24,10.16.77,1.34,1.55,2.89,2.8,4.5,1.72,2.23,1.9,2.43,2.8,1.69,0,0,.01,0,.02-.01.02-.01.04-.02.05-.03.63-.43.59-1.17.68-2.29.06-.74.12-1.64.51-2.74.17-.48.33-.93.61-1.26.59-.67,1.01-1.44,1.39-2.64.04-.14.09-.28.13-.42.07-.23.13-.46.18-.69,0-.01,0-.03,0-.04,0-.04.02-.09.03-.13.44-2.12.43-4.55.74-8.46.17-2.17.85,2.13,2.49,2.78,1.22,1.1,3.28.64,2.96-.49-.02-.06-.03-.1-.05-.15-.92-2.18-1.19-2.66-.78-3.85.24-.71.81-1.71.98-2.87.02-.12.03-.23.02-.36-.25-3.13-.16-6-.75-9-.46-2.35-1.54-5.62-1.47-7.49,0-.15.02-.3.04-.44.06-1.18.2-2.42.38-3.74.24-1.78.49-3.9,1.04-5.95-.05.16-.09.33-.11.51,0,.03,0,.07,0,.1,0,.03,0,.06,0,.09-.12,1.2.02,2.38.36,3.55,0,.02,0,.27,0,.3-.09,2.79-.09,5.73.05,8.86,0,.07,0,.22.01.29.08,1.6.19,3.24.33,4.94.21,2.49.66,5.4,1.32,8.58,2.65,12.92,9.64,32.75,12.92,43.97.68,2.34,1.32,4.57,1.91,6.66,6.84,24.35,10.83,39.68,11.62,49.18.15,1.85.24,3.52.27,5.04.22,9.45-1.15,13.57-2.47,19.97-.29,1.38-.54,2.76-.76,4.16-2.14,13.62-.13,25.58,3.13,36.6.28.95.56,1.87.84,2.78,6.42,20.62,12.95,30.28,13.76,41.46.03.49.01.94-.04,1.38-.26,2.18-1.68,3.51-.81,6.52.1.35.22.7.35,1.07.57,1.66,1.16,3.49-.12,7.04-.1.27-.2.54-.3.81-5.43,14-12.33,17.76-11.5,22.98.93,5.86,20.64,5.5,28.36,4.17,6.35-1.08,6.26-10.06,4.43-20.33-.37-2.08-.57-4.4-.42-7.96.07-1.76.55-3.81.8-6.28.23-2.28-.44-4.69-.8-6.6-.27-1.44-.55-2.6-.6-3.21-1.77-22.37-1.17-27.75,1.65-48.79,2.85-21.27-1.15-25.08-.65-38.09.3-7.7,2.64-15.58,3.27-23.92.78-10.46-.3-20.35-1.41-27.79-3.06-20.57-3.04-23.89-4.03-40.16-1.07-17.65,4.59-26.31,1.36-41.54.75.27,2.58.37,4.4.38,1.82.02,3.65-.11,4.4-.38-3.23,15.23,2.43,23.89,1.36,41.54-.99,16.27-.97,19.59-4.03,40.16-1.11,7.44-2.19,17.33-1.4,27.79.62,8.34,2.96,16.22,3.26,23.92.5,13.01-3.5,16.82-.65,38.09,2.82,21.04,3.42,26.41,1.65,48.79-.05.61-.33,1.77-.6,3.21-.36,1.91-1.03,4.32-.8,6.6.25,2.47.73,4.52.8,6.28.14,3.56-.05,5.88-.42,7.96-1.83,10.27-1.91,19.25,4.44,20.33,7.71,1.33,27.42,1.69,28.35-4.17.84-5.29-6.26-9.08-11.72-23.57-1.62-4.28-.55-6.12.08-8.04,1.21-3.69-.99-4.91-.81-7.83.71-11.7,7.73-21.6,14.43-43.89,3.62-12.05,5.84-25.2,2.8-40.42-1.57-7.82-3.33-11.87-2.57-24.79.59-10.01,5.13-27.03,13.16-55.42,3.61-12.77,13.28-39.51,14.58-52.03.53-5.05.73-9.69.69-13.96v-.3c-.04-3.34-.25-6.44-.56-9.35.27.67.53,1.33.76,1.97,1.06,2.85,1.76,5.35,1.93,7.55.02.12.03.25.04.38,0,.07,0,.14,0,.22,0,.3-.06.67-.14,1.06-.39,1.8-1.46,4.37-1.92,6.12-1.75,6.81,1.79,12.51-2.25,21.41-.06.12-.06.23-.02.33.27.61,2.47.5,3.85-1.13,1.96-2.33,2.57-8.62,2.64-7.68,0,.03,0,.06,0,.1.09,1.77.22,3.23.38,4.5.55,4.39,1.41,6.61,1.99,11.6.47,4.05-.6,6.53-.14,8.36,0,.04.02.08.03.12,0,.02.01.05.02.07.07.23.17.45.3.66.09.15.18.28.27.39.75,1.02,1.21.68,3.25-1.65.57-.65,1.06-1.28,1.51-1.89.81-1.1,1.47-2.11,2.13-2.99.95-1.26,1.7-2.52,2.23-4.09.32-.93.56-1.98.73-3.2.14-1.01.23-2.13.28-3.41.13-4.11-.4-7.24-1.76-13.22-.51-2.25-1.07-3.65-1.76-8.62-.12-.85-.24-1.8-.37-2.88-.08-.65-.13-1.23-.17-1.74-.1-1.26-.1-2.13-.1-2.82,0-.42,0-.77-.02-1.1,0-.11-.01-.22-.03-.33-.09-.87-.28-1.57-.5-2.27-.57-1.73-1.43-3.39-1.98-7.5-1.46-10.89-2.42-18.98-3.78-30.34-.08-.64-.16-1.28-.24-1.94-.12-1.01-.25-2.06-.38-3.13-.09-.74-.18-1.49-.27-2.26-1.13-9.39-4.87-21.21-8.86-34.19-.21-.68-.42-1.36-.63-2.04-.05-.16-.1-.39-.15-.67-.07-.35-.14-.87-.22-1.52-.43-3.54-1.01-10.64-1.27-14.81-.4-6.51-4.08-64.83-6.7-76.19-.09-.4-.18-.75-.28-1.06-1.67-5.71-3.29-8.49-4.85-9.73,0,0,0,0,0,0-.26-.23-.64-.48-1.05-.69,0,0,0,0,0,0-.11-.06-.65-.38-1.24-.69-.02-.01-.05-.02-.07-.04-.38-.2-.78-.39-1.12-.54-.17-.07-.34-.14-.52-.21-.26-.1-.52-.2-.79-.29-.19-.07-.39-.13-.59-.2-.11-.04-.23-.07-.35-.1l-26.42-13.54c-.32-.59-.62-1.22-.9-1.89-1.11-2.7-1.57-10.21-1.75-15.34,2.54-2.35,4.51-5.38,5.74-10.41.22-.9.48-1.97.74-3.12.7.25,1.26.16,1.73-.12,1.4-.85,1.9-3.49,2.29-4.42.56-1.36,1.31-1.49,2.07-4.5.5-2-.37-3.32-.01-4.61.24-.87.36-3.32-.75-4.16-.11-.08-.24-.13-.38-.17,0-.04,0-.08-.02-.11,1.62-6.28,2.66-16.45-.77-24.25-1.48-3.39-3.32-6.12-5.25-8.29-4.57-5.57-12.1-9.22-20.63-9.22-2.5,0-4.91.31-7.18.9-5.5,1.41-10.22,4.38-13.45,8.32-1.93,2.17-3.77,4.9-5.25,8.29-3.44,7.84-2.38,18.08-.74,24.35-.15.04-.3.09-.42.18-1.11.84-.99,3.29-.75,4.16.36,1.29-.52,2.61-.01,4.61.76,3.01,1.51,3.14,2.07,4.5.52,1.24,1.24,5.52,4.02,4.54.26,1.15.52,2.22.74,3.12,1.23,5.03,3.2,8.06,5.74,10.41-.18,5.13-.64,12.64-1.75,15.34-.3.73-.62,1.4-.97,2.03Zm-15.5,121.55s0,0,0,0c0,.04-.45.09-.45.13-.13.68-.31,1.38-.52,2.09-1.55,5.32-4.78,11.25-8.11,16.95-.19.26-.38.51-.56.77-2.72,3.7-4.95,6.9-6.8,9.67.11-.41.22-.83.32-1.23,3.37-13.13,4.06-23.4,4.25-24.9.09-.72.22-1.5.36-2.31.03-.17.06-.34.09-.52.82-4.42,2.25-10.06,3.84-16.05.84-3.18,1.72-6.45,2.57-9.7.77-2.97,1.52-5.91,2.18-8.73.24-1.03.67-3.17,1.08-5.27.22-1.14.44-2.27.62-3.19.08-.43.16-.81.22-1.13.13.53.26,1.08.39,1.62,2.13,10.86,4.01,28.08.1,41.67,0,.04.42.09.42.13Zm83.34,29.61c-1.94-2.91-4.3-6.29-7.21-10.24-.2-.28-.41-.56-.61-.83-3.27-5.64-6.37-11.48-7.78-16.7-.14-.54-.27-1.06-.38-1.58,0-.02-.18-.04-.18-.05,0,0,0,0,0,0,0-.02.18-.04.17-.06-3.92-13.71-2.06-31.1.07-41.99.13-.53.25-1.07.38-1.59.06.32.14.71.22,1.14.18.94.4,2.08.63,3.24.41,2.08.83,4.2,1.07,5.22.75,3.22,1.62,6.6,2.51,9.99.5,1.92,1.02,3.85,1.52,5.75,1.85,6.98,3.61,13.66,4.55,18.74.03.18.06.35.1.52.15.82.27,1.59.36,2.31.19,1.5.88,11.78,4.25,24.9.1.41.21.82.32,1.23Z"/>
  </g>
</svg>