<?xml version="1.0" encoding="UTF-8"?>
<svg id="_레이어_2" data-name="레이어 2" xmlns="http://www.w3.org/2000/svg" viewBox="0 0 169.4 571.92">
  <defs>
    <style>
      .cls-1 {
        fill: #f2a7a9;
        stroke: #221714;
        stroke-miterlimit: 10;
      }
    </style>
  </defs>
  <g id="_레이어_1-2" data-name="레이어 1">
    <path class="cls-1" d="m158.14,341.79s.01.06.02.09c0,.03.02.06.03.1.07.22.17.44.3.65.09.14.17.26.25.37.76,1.05,1.21.73,3.27-1.62.53-.61.99-1.21,1.42-1.78.85-1.14,1.53-2.2,2.22-3.1,1.05-1.39,1.84-2.77,2.38-4.56.23-.76.42-1.59.56-2.52.16-1.06.26-2.25.31-3.62.13-4.11-.4-7.24-1.76-13.22-.52-2.29-1.09-3.7-1.8-8.9-.11-.78-.21-1.63-.33-2.6-.06-.52-.11-.99-.14-1.42-.12-1.44-.13-2.4-.13-3.15,0-.42,0-.77-.03-1.1,0-.11,0-.22-.02-.33-.08-.83-.26-1.51-.48-2.17-.57-1.77-1.46-3.41-2.01-7.59-1.46-10.89-2.42-18.98-3.78-30.34-.09-.71-.17-1.43-.26-2.17-.11-.88-.21-1.79-.33-2.72-.1-.8-.19-1.61-.29-2.45-1.13-9.39-4.87-21.21-8.86-34.19-.18-.57-.35-1.15-.53-1.72-.06-.2-.12-.41-.18-.65-.07-.27-.15-.77-.24-1.44-.44-3.36-1.06-10.88-1.32-15.23-.41-6.62-4.2-66.78-6.83-76.72-.1-.38-.2-.74-.3-1.08-1.79-5.96-3.54-8.56-5.21-9.55,0,0,0,0,0,0-.09-.08-.55-.36-1.08-.65,0,0,0,0,0,0-.32-.18-.82-.46-1.26-.67-.03-.01-.05-.02-.08-.03-.38-.18-.77-.34-1.15-.49-.18-.07-.36-.14-.55-.2-.26-.09-.53-.18-.8-.27-.04-.01-.09-.03-.14-.04l-26.59-13.62c-.31-.58-.6-1.19-.88-1.85-1.11-2.7-1.57-10.21-1.75-15.34,2.54-2.35,4.51-5.38,5.74-10.41.22-.9.48-1.97.74-3.12.69.24,1.26.16,1.73-.12,1.4-.85,1.91-3.49,2.29-4.42.56-1.36,1.31-1.49,2.07-4.5.5-2-.37-3.32-.01-4.61.24-.87.36-3.32-.75-4.16-.09-.07-.19-.11-.3-.14-.04-.03-.07-.05-.11-.08,1.63-6.27,2.68-16.49-.75-24.31-1.48-3.39-3.32-6.12-5.25-8.29-4.57-5.57-12.1-9.22-20.63-9.22-2.54,0-4.98.33-7.29.93-5.46,1.42-10.14,4.37-13.35,8.3-1.93,2.16-3.77,4.9-5.25,8.29-3.44,7.84-2.38,18.08-.74,24.34-.15.05-.29.1-.41.18,0,0,0,0,0,0h0s0,0,0,0c-1.11.84-.99,3.29-.75,4.16.35,1.29-.52,2.6,0,4.61.76,3,1.5,3.14,2.07,4.5.51,1.24,1.24,5.52,4.02,4.54.26,1.14.52,2.22.74,3.12,1.23,5.03,3.2,8.06,5.74,10.41-.18,5.13-.64,12.64-1.75,15.34-.31.74-.64,1.43-.99,2.07l-25.72,13.18c-.09.02-.18.05-.26.07-.21.06-.41.13-.62.19-.27.09-.54.17-.8.27-.19.07-.37.13-.55.2-.53.21-1.19.55-1.48.68-.02,0-.04.02-.06.03-.84.39-2.12,1.19-2.28,1.41,0,0,0,0,0,0-1.5,1-3.06,3.34-4.66,8.29-.23.71-.46,1.51-.69,2.42-2.67,10.53-6.36,69.81-6.77,76.38-.27,4.41-.91,12.09-1.34,15.38-.09.7-.18,1.21-.25,1.44-.07.22-.13.44-.2.66-.16.52-.32,1.04-.48,1.56-4,12.98-7.73,24.8-8.86,34.19-.1.83-.19,1.64-.29,2.44-.11.93-.22,1.84-.33,2.72-.09.74-.18,1.46-.26,2.17-1.36,11.36-2.32,19.45-3.78,30.34-.49,3.73-1.21,5.27-1.74,7.05-.31,1.03-.68,1.85-.75,3.07-.02.32-.02.74-.08,1.39-.03.34-.04.7-.05,1.1-.03.86-.07,1.85-.21,3.16-.05.45-.1.92-.17,1.41-.2,1.43-.41,2.38-.58,3.4-.8,4.82-1.3,6.54-1.75,8.87-.32,1.63-.58,3.08-.75,4.45-.47,3.88-.38,6.38.21,9.25.28,1.37.58,2.69,1.14,3.92.62,1.36.89,1.99,1.29,2.19.6,1.05,1.12,1.7,1.84,2.23.49.36.99.79,1.66,1.23.35.23.73.48,1.14.8,1.67,1.29,2.01,1.29,2.64.19.07-.12.14-.24.21-.38.11-.21.19-.43.26-.65,0-.03.02-.06.03-.09,0-.03.01-.06.02-.09.46-1.94-.26-4.41.17-8.44.45-4.22,1.31-4.24,2.21-7.25.46-.36,1.13-1.25,1.19-2.47.15.92.61,2.75,1.5,3.47,1.03.84,2.64.58,2.89-.22.03-.1.04-.21,0-.33-1.12-3.3-1.39-6.2-1.6-9-.2-2.65-.31-5.44-.29-7.78,0-.15,0-.3,0-.45,0-1.28-.04-2.59-.21-3.96-.22-1.77-.81-4.19-.93-6.07-.02-.42-.04-.82,0-1.16,0-.08.02-.16.04-.24.01-.06.02-.13.03-.19.17-1.08.44-2.23.82-3.44.87-2.83,2.09-5.8,3.53-9.19.14-.27.28-.53.43-.81.29-.53.56-1.01.81-1.48.33-.59.63-1.15.94-1.71.26-.47.52-.95.79-1.44-.86,3.78-1.56,7.98-1.97,12.68-.29,3.32-.44,6.89-.4,10.75.01,1.18.04,2.38.09,3.61.12,3.1.41,6.51.91,10.18,1.52,11.14,7.9,30.76,11.67,43.66.84,2.89,1.6,5.54,2.21,7.84,6.28,23.51,10.19,38.98,11.47,49.04.28,2.2.45,4.16.52,5.91.42,9.64-.57,14.12-1.71,19.67-.32,1.56-.65,3.15-.95,4.88-2.39,13.68-.76,25.69,2.17,36.75.29,1.11.6,2.2.91,3.28,6.04,20.94,12.3,30.82,13.33,41.86.05.55.07,1.08.07,1.61,0,2.39-1.44,3.67-.95,6.45.07.4.18.83.32,1.29.54,1.73,1.3,3.46.21,7.01-.1.31-.2.63-.32.97-5.16,14.29-11.8,18.07-11.02,23.33.88,5.86,19.55,5.5,26.85,4.18,6.01-1.09,5.93-10.07,4.2-20.34-.35-2.08-.52-4.4-.39-7.96.06-1.76.51-3.81.75-6.28.22-2.28-.41-4.69-.75-6.6-.26-1.44-.53-2.6-.57-3.21-1.54-22.39-1.12-27.75,1.55-48.79,2.7-21.27-1.08-25.08-.61-38.08.29-7.71,2.5-15.58,3.09-23.93.75-10.46-.28-20.35-1.33-27.79-2.89-20.57-2.88-23.89-3.81-40.15-1.02-17.66,4.34-26.32,1.28-41.55.71.27,2.45.37,4.17.38,1.72,0,3.46-.11,4.17-.38-3.06,15.23,2.3,23.89,1.29,41.55-.94,16.26-.92,19.58-3.82,40.15-1.05,7.44-2.08,17.33-1.33,27.79.59,8.35,2.81,16.22,3.09,23.93.47,13-3.31,16.81-.61,38.08,2.67,21.04,3.28,26.42,1.56,48.79-.05.61-.31,1.77-.57,3.21-.34,1.91-.98,4.32-.76,6.6.24,2.47.69,4.52.76,6.28.13,3.56-.05,5.88-.4,7.96-1.73,10.27-1.81,19.25,4.2,20.34,7.31,1.32,25.97,1.68,26.85-4.18.79-5.29-5.93-9.08-11.1-23.56-1.53-4.29-.53-6.12.07-8.05,1.14-3.69-.93-4.91-.76-7.83.67-11.69,7.32-21.6,13.66-43.88,3.43-12.06,5.54-25.21,2.65-40.42-1.48-7.83-3.15-11.87-2.43-24.8.56-10.01,4.86-27.03,12.46-55.42,3.42-12.77,12.58-39.51,13.81-52.03.5-5.05.69-9.68.66-13.96-.09-9.51-1.34-17.19-3.01-23.64,1.28,3.19,2.5,6.01,3.98,9.37,1.09,2.46,2.04,4.7,2.8,6.76,1.05,2.84,1.75,5.33,1.92,7.52.01.08.02.17.03.26,0,.08.02.16.02.24,0,.33-.05.74-.15,1.18-.39,1.8-1.46,4.36-1.91,6.1-1.75,6.81,1.79,12.51-2.25,21.41-.06.12-.06.23-.02.32.26.62,2.46.52,3.85-1.12,1.9-2.25,2.52-8.17,2.63-7.75,0,.02.01.06.01.12.08,1.52.19,2.82.32,3.96.54,4.79,1.45,6.98,2.06,12.19.47,4.06-.6,6.55-.14,8.38ZM46.14,213.46c-.95,6.3-2.33,12.69-3.8,18.97-4.23,8.14-5.56,9.43-10.73,19.9.03-.08.06-.16.09-.25,1.16-3.33,2.13-6.59,2.96-9.7.01-.04.02-.08.03-.11,0-.02.01-.04.02-.06,3.63-13.6,4.32-24.38,4.52-25.92.1-.77.24-1.61.4-2.5.03-.15.05-.29.08-.44.75-4.08,2.04-9.2,3.48-14.66,1.03-3.9,2.13-7.98,3.17-12,.68-2.63,1.33-5.22,1.92-7.72.23-.97.62-2.92,1.01-4.9.27-1.35.53-2.7.73-3.75.07-.35.13-.67.18-.94.13.51.24,1.03.36,1.54.15,7.22-1.49,25.06-4.4,42.53Zm80.59,18.97c-1.48-6.28-2.85-12.66-3.8-18.97-2.91-17.47-4.55-35.32-4.4-42.53.12-.51.23-1.03.36-1.54.05.27.11.59.18.95.2,1.06.47,2.42.73,3.77.39,1.97.78,3.91,1,4.87.56,2.38,1.17,4.84,1.82,7.34,1.07,4.16,2.22,8.4,3.28,12.45,1.44,5.48,2.72,10.61,3.48,14.69.03.16.05.3.08.46.15.84.28,1.64.37,2.37.2,1.55.96,12.31,4.52,25.93,0,.02,0,.03.01.05.01.04.02.08.03.12.83,3.11,1.8,6.37,2.96,9.7.03.1.07.19.1.29-5.18-10.51-6.52-11.79-10.74-19.94Z"/>
  </g>
</svg>