<?xml version="1.0" encoding="UTF-8"?>
<svg id="_레이어_2" data-name="레이어 2" xmlns="http://www.w3.org/2000/svg" viewBox="0 0 169.73 572.06">
  <defs>
    <style>
      .cls-1 {
        fill: #f2a7a9;
        stroke: #221714;
        stroke-miterlimit: 10;
      }
    </style>
  </defs>
  <g id="_레이어_1-2" data-name="레이어 1">
    <path class="cls-1" d="m167.44,312.56c-.27-1.2-.56-2.16-.87-3.55-.37-1.66-.78-3.92-1.24-7.92-.27-2.28-.27-3.6-.28-4.57,0-.55,0-.99-.04-1.43-.15-1.4-.53-2.36-.97-3.55-.4-1.08-.84-2.33-1.21-4.28-.11-.58-.22-1.22-.31-1.94-1.45-10.89-2.42-18.97-3.78-30.33-.27-2.3-.56-4.72-.88-7.33,0,0,0-.02,0-.02,0,0,0,0,0,0-1.13-9.39-4.9-21.2-8.86-34.19-.08-.27-.17-.55-.25-.82-.14-.46-.28-.92-.41-1.38-.41-1.34-1.27-11.48-1.6-16.82-.37-5.94-3.46-55.07-6-72.24-.31-2.12-.62-3.75-.91-4.76-1.97-6.87-3.88-9.63-5.71-10.54h0s-1.49-.9-2.39-1.31c-.47-.21-.95-.4-1.46-.58l-27.68-14.19c-.26-.51-.51-1.03-.74-1.59-.16-.38-.3-.88-.43-1.43-.79-3.37-1.15-9.5-1.31-13.89,2.54-2.35,4.51-5.38,5.74-10.41.22-.9.48-1.98.74-3.12,2.78.98,3.5-3.3,4.02-4.54.56-1.37,1.32-1.5,2.07-4.5.51-2.01-.36-3.32-.01-4.61.15-.54.25-1.71.04-2.71-.13-.6-.37-1.15-.79-1.47-.12-.09-.27-.14-.41-.18,1.34-5.09,2.28-12.81.74-19.73-.35-1.6-.84-3.15-1.49-4.62-1.48-3.39-3.32-6.12-5.25-8.29-4.57-5.57-12.1-9.22-20.63-9.22s-16.06,3.65-20.63,9.22c-1.93,2.17-3.77,4.9-5.25,8.29-3.44,7.84-2.38,18.08-.74,24.35-.15.04-.3.09-.42.18-1.11.84-.99,3.29-.75,4.16.02.07.02.14.03.21.02.1.04.19.05.29.08,1.14-.54,2.37-.09,4.11,0,0,0,0,0,.01,0,0,0,0,0,0,.75,3,1.51,3.13,2.07,4.5.52,1.24,1.24,5.52,4.02,4.54.22.98.44,1.89.64,2.7.03.14.07.29.1.42,1.23,5.03,3.2,8.06,5.73,10.41-.18,5.13-.64,12.63-1.75,15.33-.23.57-.48,1.09-.74,1.6l-27.66,14.18c-.51.18-1,.37-1.47.59-.9.41-2.39,1.3-2.39,1.3h0c-1.83.92-3.74,3.68-5.71,10.55-2.64,9.22-6.49,70.31-6.9,76.98-.33,5.34-1.19,15.48-1.59,16.82-.23.74-.45,1.48-.68,2.22-3.96,12.99-7.73,24.8-8.86,34.19-.31,2.62-.6,5.04-.88,7.33-1.36,11.36-2.32,19.45-3.78,30.34-.76,5.74-2.15,6.7-2.48,9.76-.05.43-.05.87-.05,1.43,0,.97-.01,2.29-.27,4.56-.87,7.4-1.53,8.87-2.13,11.5-1.36,5.98-1.89,9.11-1.76,13.22.18,5.45,1.25,8.06,3.24,10.7.52.68,1.03,1.45,1.61,2.27.58.83,1.24,1.71,2.04,2.63,2.27,2.6,2.59,2.72,3.51,1.26,1.21-1.9-.33-4.5.22-9.21.75-6.46,1.98-8.27,2.37-16.17.06-1.19.65,5.28,2.65,7.65,1.5,1.78,3.96,1.76,3.87.95,0-.05-.02-.11-.04-.17-.76-1.67-1.25-3.22-1.56-4.69-1.23-5.88.44-10.42-.42-15.43-.07-.42-.16-.85-.27-1.28-.28-1.09-.81-2.51-1.26-3.86-.45-1.36-.82-2.64-.78-3.47,0-.14.03-.3.04-.44.21-2.68,1.21-5.82,2.69-9.5-.31,2.95-.52,6.09-.56,9.47v.15c-.04,4.27.16,8.91.69,13.96,1.31,12.52,10.98,39.26,14.59,52.03,8.02,28.39,12.56,45.41,13.15,55.42.77,12.92-.99,16.97-2.56,24.79-3.05,15.22-.82,28.37,2.8,40.42,6.69,22.29,13.71,32.19,14.43,43.89.17,2.92-2.02,4.14-.81,7.83.63,1.92,1.69,3.76.08,8.04-5.46,14.49-12.57,18.28-11.73,23.57.93,5.86,20.64,5.49,28.36,4.17,6.35-1.08,6.26-10.06,4.43-20.33-.37-2.08-.56-4.4-.42-7.96.08-1.76.55-3.81.8-6.28.23-2.28-.43-4.69-.8-6.6-.27-1.44-.55-2.6-.6-3.21-1.7-22.39-1.17-27.75,1.65-48.8,2.85-21.26-1.15-25.07-.65-38.08.3-7.7,2.64-15.58,3.27-23.92.79-10.46-.3-20.35-1.41-27.79-3.06-20.57-3.04-23.89-4.03-40.16-1.07-17.65,4.59-26.31,1.36-41.54.75.27,2.58.36,4.4.38,1.82,0,3.65-.11,4.4-.38-3.23,15.23,2.43,23.89,1.36,41.54-.99,16.27-.97,19.59-4.03,40.16-1.11,7.44-2.19,17.33-1.4,27.79.62,8.34,2.96,16.22,3.26,23.92.5,13.01-3.5,16.82-.64,38.08,2.82,21.05,3.35,26.41,1.64,48.8-.05.61-.33,1.77-.6,3.21-.36,1.91-1.03,4.32-.8,6.6.25,2.47.73,4.52.8,6.28.14,3.56-.05,5.88-.42,7.96-1.83,10.27-1.91,19.25,4.44,20.33,7.71,1.32,27.42,1.69,28.35-4.17.84-5.29-6.26-9.08-11.72-23.57-1.62-4.28-.55-6.12.08-8.04,1.21-3.69-.99-4.91-.81-7.83.71-11.7,7.73-21.6,14.43-43.89,3.62-12.05,5.84-25.2,2.8-40.42-1.57-7.82-3.33-11.87-2.57-24.79.59-10.01,5.13-27.03,13.16-55.42,3.61-12.77,13.28-39.51,14.59-52.03.52-5.05.72-9.69.68-13.96v-.15c-.04-3.4-.24-6.54-.56-9.5,1.49,3.69,2.49,6.83,2.7,9.52.02.14.04.29.05.44.07,1.64-1.49,5.14-2.06,7.34-1.75,6.81,1.79,12.51-2.25,21.41-.06.13-.06.24-.01.33.24.64,2.46.53,3.85-1.11,1.83-2.17,2.48-7.78,2.62-7.78,0,.02.01.05.01.11.4,7.89,1.62,9.71,2.38,16.17.55,4.71-.99,7.3.21,9.21.06.09.11.17.16.25.81,1.21,1.22.97,3.36-1.49,1.59-1.83,2.6-3.52,3.63-4.88,1.99-2.64,3.07-5.25,3.24-10.69.1-3.07-.17-5.58-.88-9.13-.24-1.23-.54-2.58-.89-4.12Zm-122.44-99.08c-.73,5.66-1.44,11.31-2.06,16.53-.34.53-.67,1.05-1.03,1.6-2.51,3.87-4.5,6.46-6.65,9.7,3.4-13.18,4.09-23.5,4.29-25.02.11-.86.27-1.82.45-2.82,1.63-8.92,5.85-22.77,8.58-34.49.43-1.85,1.49-7.31,1.92-9.59.13.51.24,1.04.36,1.55-.78,5.41-3.46,24.09-5.86,42.53Zm82.8,18.13c-.35-.54-.67-1.05-1-1.57-.62-5.24-1.33-10.89-2.06-16.56-2.4-18.44-5.08-37.12-5.86-42.53.12-.5.23-1.03.36-1.53.44,2.32,1.48,7.71,1.91,9.55,2.74,11.72,6.95,25.57,8.58,34.48.19,1.01.35,1.96.46,2.83.19,1.51.89,11.86,4.29,25.06-2.15-3.25-4.15-5.84-6.67-9.73Z"/>
  </g>
</svg>