<?xml version="1.0" encoding="UTF-8"?>
<svg id="_레이어_2" data-name="레이어 2" xmlns="http://www.w3.org/2000/svg" viewBox="0 0 169.72 572.02">
  <defs>
    <style>
      .cls-1 {
        fill: #f2a7a9;
        stroke: #221714;
        stroke-miterlimit: 10;
      }
    </style>
  </defs>
  <g id="_레이어_1-2" data-name="레이어 1">
    <path class="cls-1" d="m167.55,312.99c-.05-.21-.1-.43-.15-.64-.27-1.18-.56-2.16-.88-3.6-.33-1.51-.69-3.53-1.1-6.84-.05-.39-.09-.79-.14-1.19-.15-1.39-.2-2.4-.23-3.19-.01-.56-.02-1.01-.03-1.42-.02-.55-.04-1-.1-1.44-.19-1.35-.59-2.32-1.04-3.58-.39-1.09-.81-2.39-1.15-4.36-.11-.6-.2-1.24-.3-1.93-1.42-10.65-2.38-18.66-3.72-29.85-.27-2.3-.56-4.72-.88-7.33,0,0,0-.02,0-.02,0,0,0,0,0,0-1.13-9.39-4.87-21.21-8.86-34.18-.08-.27-.17-.55-.25-.82-.14-.46-.28-.92-.42-1.38-.4-1.34-1.27-11.48-1.6-16.82-.37-5.94-3.46-55.07-6-72.24-.31-2.11-.62-3.75-.9-4.76-1.97-6.87-3.88-9.63-5.71-10.54h0s-1.49-.9-2.39-1.31c-.94-.42-1.96-.77-3.04-1.08l-25.87-13.26c-.34-.63-.67-1.3-.97-2.03-.16-.39-.3-.88-.44-1.45-.75-3.2-1.11-8.89-1.28-13.2.05-.28.1-.56.14-.84,2.25-2.13,4.03-4.83,5.24-9.04.15-.52.29-1.07.43-1.64.1-.41.21-.85.31-1.31.3-.36.57-.86.8-1.44,1.63.22,2.45-1.49,2.98-2.82.34-.87.62-1.61.87-2.18.33-.74.7-1.21,1.09-2.1.3-.69.49-1.47.68-2.59.1-.62.1-1.18.11-1.7.01-1.01-.22-2.04-.14-2.98.02-.31.02-.71-.05-1.12-.02-.12-.06-.24-.1-.36.02-.38.02-.77-.02-1.14-.06-.59-.21-1.15-.5-1.54-.08-.11-.18-.18-.29-.25,1.29-5.36,2.06-13.21.19-20.04-.43-1.58-.98-3.1-1.67-4.52-.8-1.67-1.68-3.16-2.62-4.5-.89-1.31-1.86-2.48-2.87-3.53-4.02-4.46-10.03-7.54-16.89-8.24-1.29-.13-2.6-.18-3.91-.13-7.16.23-13.55,3.03-17.96,7.36-.79.75-1.52,1.56-2.21,2.42-1.33,1.58-2.62,3.45-3.75,5.62-.45.87-.87,1.78-1.25,2.73-2.83,7.05-2.22,15.84-.89,21.94-.01.13-.03.26-.03.41-.01.56.04,1.16.12,1.75-.12.07-.24.14-.33.25-.43.5-.59,1.31-.62,2.01-.03.81,0,1.64.07,2.17.01.07.01.13.02.2.01.09.03.19.03.28.02.64-.13,1.32-.13,2.1,0,.65.05,1.3.25,1.98,0,0,0,0,0,.01,0,0,0,0,0,0,.42,1.42.81,2.1,1.18,2.77.3.55.61.99.88,1.7.44,1.1,1.05,3.56,2.59,4.01.38.35.83.55,1.38.5.12.51.23,1.01.35,1.47.1.42.2.83.3,1.21.03.14.07.28.1.41,1.12,4.32,2.8,7.13,4.93,9.32.22.35.45.69.69,1.02-.18,4.76-.59,11.36-1.52,14.37-.1.31-.2.58-.3.83-.28.65-.58,1.26-.89,1.83l-25.85,13.24c-1.09.31-2.12.66-3.06,1.08-.9.41-2.39,1.3-2.39,1.3h0c-1.83.92-3.74,3.68-5.71,10.55-2.64,9.22-6.49,70.31-6.9,76.98-.33,5.34-1.18,15.48-1.59,16.82-.23.74-.45,1.48-.68,2.22-3.99,12.98-7.73,24.8-8.86,34.19-.31,2.62-.6,5.04-.88,7.33-1.36,11.36-2.32,19.45-3.78,30.34-.76,5.74-2.14,6.7-2.48,9.76-.05.43-.05.87-.05,1.43,0,.97-.01,2.29-.27,4.56-.87,7.4-1.53,8.87-2.13,11.5-1.36,5.98-1.89,9.11-1.76,13.22.18,5.45,1.25,8.06,3.24,10.7.64.85,1.28,1.85,2.12,2.92,1,1.27,1.64,1.82,2.4,2.29,2.15,1.3,2.03,1.38,2.69-.21.5-1.19.27-2.6.18-4.53-.06-1.43-.07-2.94.16-4.67.6-4.59,1.41-6.89,1.91-11.61.12-1.16.21-1.68.54-2.37.1-.21.34,1.69,1.06,3.56.63,1.64,1.8,2.78,2.3,3.26.96.95,2.68.59,2.54-.36,0-.06-.02-.11-.04-.18-.66-1.68-1.05-3.25-1.3-4.74-.9-5.48.54-9.8-.37-14.59-.08-.41-.17-.84-.3-1.27-.38-1.35-1.05-3.07-1.37-4.42-.03-.15-.06-.29-.09-.43-.27-1.13-.45-2.22-.36-3.04,0-.14.04-.29.05-.42.22-1.87.81-3.95,1.65-6.28.23-.49.51-1,.82-1.54-.19,1.98-.34,4.05-.42,6.23,0,.04,0,.11,0,.15-.03,1-.05,2.02-.06,3.07,0,.01,0,.14,0,.15,0,3.39.13,7.02.47,10.89.08.98.19,1.98.32,3.02,1.55,12.74,10.94,38.75,14.49,51.29,8.02,28.39,12.56,45.41,13.15,55.42.77,12.92-.99,16.97-2.56,24.79-3.05,15.22-.82,28.37,2.8,40.42,6.69,22.29,13.71,32.19,14.43,43.89.17,2.92-2.02,4.14-.81,7.83.63,1.92,1.69,3.76.08,8.04-5.46,14.49-12.57,18.28-11.73,23.57.93,5.86,20.64,5.49,28.36,4.17,6.35-1.08,6.26-10.06,4.43-20.33-.37-2.08-.57-4.4-.42-7.96.07-1.76.55-3.81.8-6.28.23-2.28-.44-4.69-.8-6.6-.27-1.44-.55-2.6-.6-3.21-1.76-22.39-1.17-27.75,1.65-48.8,2.85-21.26-1.15-25.07-.65-38.08.3-7.7,2.64-15.58,3.27-23.92.79-10.46-.3-20.35-1.41-27.79-3.06-20.57-3.04-23.89-4.03-40.16-1.07-17.65,4.59-26.31,1.36-41.54.75.27,2.58.37,4.4.38,1.82.01,3.65-.11,4.4-.38-3.23,15.23,2.43,23.89,1.36,41.54-.99,16.27-.97,19.59-4.03,40.16-1.11,7.44-2.19,17.33-1.4,27.79.62,8.34,2.96,16.22,3.26,23.92.5,13.01-3.5,16.82-.64,38.08,2.82,21.05,3.42,26.42,1.64,48.8-.05.61-.33,1.77-.6,3.21-.36,1.91-1.03,4.32-.8,6.6.25,2.47.73,4.52.8,6.28.14,3.56-.05,5.88-.42,7.96-1.83,10.27-1.91,19.25,4.44,20.33,7.71,1.32,27.42,1.69,28.35-4.17.84-5.29-6.26-9.08-11.72-23.57-1.62-4.28-.55-6.12.08-8.04,1.21-3.69-.99-4.91-.81-7.83.71-11.7,7.73-21.6,14.43-43.89,3.62-12.05,5.84-25.2,2.8-40.42-1.57-7.82-3.33-11.87-2.57-24.79.59-10.01,5.13-27.03,13.16-55.42,3.61-12.77,13.28-39.51,14.59-52.03.52-5.05.72-9.69.68-13.96v-.15c-.04-3.4-.24-6.54-.56-9.5,1.49,3.69,2.49,6.83,2.7,9.52.02.14.04.29.05.44.09,1.64-1.49,5.14-2.06,7.34-1.75,6.81,1.79,12.51-2.25,21.41-.06.12-.06.23-.02.32.24.64,2.46.54,3.86-1.11,1.88-2.22,2.51-8.05,2.63-7.74,0,.03,0,.06.01.12.4,7.86,1.62,9.68,2.38,16.13.55,4.71-1,7.3.21,9.21.06.09.11.17.16.25.82,1.2,1.22.95,3.36-1.5,1.59-1.83,2.6-3.52,3.63-4.88,1.99-2.64,3.07-5.25,3.24-10.69.1-3.1-.18-5.63-.9-9.24-.21-1.07-.46-2.22-.76-3.52Zm-120.83-101.44c-.13.83-.27,1.67-.42,2.5-.96,5.43-2.17,10.9-3.6,16.3-.33.52-.66,1.03-1,1.55-2.41,3.69-4.35,6.22-6.43,9.37,3.4-13.18,4.09-23.52,4.29-25.03.11-.86.27-1.82.45-2.82,1.63-8.92,5.85-22.77,8.58-34.49.43-1.85,1.49-7.31,1.92-9.59.13.52.25,1.05.37,1.57.18,7.03-1.32,23.81-4.16,40.64,0,0,0,0,0,0Zm81.09,20.01c-.35-.54-.68-1.06-1.01-1.58-1.39-5.38-2.56-10.83-3.45-16.27-.06-.38-.12-.76-.18-1.14,0,0,0,0,0,0-2.88-17.19-4.45-34.54-4.29-41.67.12-.51.23-1.03.36-1.54.44,2.31,1.48,7.72,1.91,9.56,2.74,11.72,6.93,25.57,8.58,34.48.19,1.01.35,1.96.46,2.83.19,1.51.89,11.86,4.29,25.06-2.15-3.25-4.15-5.85-6.67-9.73Z"/>
  </g>
</svg>