<?xml version="1.0" encoding="UTF-8"?>
<svg id="_레이어_2" data-name="레이어 2" xmlns="http://www.w3.org/2000/svg" viewBox="0 0 169.72 571.62">
  <defs>
    <style>
      .cls-1 {
        fill: #f2a7a9;
        stroke: #221714;
        stroke-miterlimit: 10;
      }
    </style>
  </defs>
  <g id="_레이어_1-2" data-name="레이어 1">
    <path class="cls-1" d="m167.44,312.56c-.44-1.95-.92-3.27-1.49-6.83-.2-1.24-.41-2.75-.63-4.66-.24-2.05-.27-3.33-.28-4.27,0-.11,0-.21,0-.31,0-.33,0-.62-.01-.89,0-.18-.01-.36-.03-.53-.12-1.13-.39-1.97-.72-2.88-.56-1.54-1.29-3.26-1.77-6.89-.24-1.76-.46-3.44-.67-5.08-.42-3.24-.81-6.31-1.19-9.38-.62-4.98-1.21-9.99-1.92-15.88-.05-.38-.09-.78-.14-1.17-.18-1.54-.37-3.15-.58-4.82-.05-.44-.11-.89-.16-1.34-1.13-9.39-4.9-21.2-8.86-34.19-.13-.41-.25-.82-.38-1.23-.1-.33-.2-.65-.3-.99-.13-.44-.31-1.81-.51-3.65-.4-3.8-.86-9.58-1.09-13.18-.41-6.67-4.26-67.76-6.9-76.98-1.97-6.87-3.88-9.63-5.71-10.54h0s-.09-.06-.22-.14h.22l-31.59-16.19v.12c-.24-.47-.46-.95-.68-1.47-.47-1.14-.82-3.15-1.09-5.47-.28-2.51-.47-5.37-.59-7.93-.03-.67-.06-1.32-.08-1.94,1.9-1.76,3.49-3.91,4.68-6.99.4-1.03.75-2.16,1.06-3.42.22-.9.48-1.97.74-3.11,1.74.61,2.67-.83,3.25-2.3.35-.88.57-1.78.77-2.25.56-1.36,1.32-1.49,2.07-4.5.18-.71.18-1.33.13-1.89-.08-.94-.31-1.73-.18-2.49.01-.07.02-.15.04-.23.24-.87.36-3.32-.75-4.16-.09-.07-.2-.11-.32-.15-.03-.01-.07-.02-.1-.04.18-.69.35-1.44.52-2.23.74-3.57,1.22-7.98.93-12.4-.22-3.35-.87-6.71-2.19-9.72-1.48-3.39-3.32-6.12-5.25-8.29-4.57-5.57-12.1-9.22-20.63-9.22s-16.06,3.65-20.63,9.22c-.37.41-.73.85-1.09,1.31-.76.97-1.51,2.03-2.21,3.19-.05.08-.1.17-.15.25,0,0,0,.01-.01.02-.64,1.08-1.24,2.25-1.79,3.52-.43.98-.79,2-1.09,3.04-2.08,7.3-1.09,15.83.34,21.3-.05.02-.1.03-.15.05-.1.03-.19.07-.27.13-.28.21-.48.52-.62.89-.42,1.08-.31,2.63-.13,3.28.35,1.29-.52,2.6-.01,4.61.75,3,1.51,3.13,2.07,4.5.52,1.24,1.24,5.52,4.02,4.54.26,1.14.52,2.22.74,3.12,1.23,5.03,3.2,8.06,5.74,10.41-.17,4.81-.58,11.7-1.55,14.77-.06.2-.13.39-.2.56-.21.52-.44,1-.68,1.47v-.13l-31.59,16.19h.22c-.13.08-.22.13-.22.13h0c-1.83.92-3.74,3.68-5.71,10.55-2.64,9.22-6.49,70.31-6.9,76.98-.32,5.23-1.15,15.04-1.56,16.71,0,.04-.02.09-.03.12,0,0,0,.01,0,.02-.23.73-.44,1.46-.67,2.19-3.96,12.99-7.73,24.8-8.86,34.19-.31,2.62-.6,5.04-.88,7.33-1.36,11.36-2.32,19.45-3.78,30.34-.67,5.03-1.81,6.39-2.31,8.71-.07.33-.13.68-.17,1.06,0,.03,0,.07,0,.1-.04.4-.04.81-.04,1.32,0,.96-.01,2.26-.26,4.49,0,.03,0,.06-.01.09,0,.01,0,.02,0,.04-.87,7.35-1.53,8.82-2.12,11.45-1.36,5.98-1.89,9.11-1.76,13.22.18,5.45,1.25,8.06,3.24,10.7.74.97,1.47,2.12,2.41,3.36.37.5.77,1.01,1.23,1.53,2.27,2.6,2.59,2.72,3.51,1.26,1.21-1.9-.33-4.5.22-9.21.71-6.13,1.86-8.08,2.3-15.02.02-.37.05-.75.07-1.15,0-.07,0-.11.02-.13.12-.24.76,5.57,2.63,7.79,1.4,1.65,3.63,1.75,3.86,1.11.04-.09.03-.19-.02-.31-4.04-8.9-.5-14.6-2.25-21.41-.39-1.52-1.25-3.66-1.73-5.38-.21-.76-.35-1.45-.32-1.96,0-.12.02-.26.03-.38,0-.02,0-.04,0-.06.06-.84.22-1.74.43-2.67.74-3.25,2.29-7.07,4.29-11.6,3.54-8.01,5.57-12.93,10.57-27.24.33-.93.66-1.89,1.01-2.9,6.25-17.98,7.28-33.89,7.53-35.8.11-.86.27-1.82.45-2.82,1.6-8.76,5.7-22.28,8.43-33.86.05-.21.1-.42.15-.63.07-.29.15-.69.25-1.13.5-2.38,1.31-6.53,1.67-8.45.13.51.24,1.04.36,1.55-.78,5.41-3.46,24.09-5.86,42.53-1.16,8.97-2.25,17.86-3.03,25.16-3.88,11.34-5.15,15.75-5.35,16.34-3.17,9.11-7.93,21.14-8.09,41.23v.29c-.02,4.2.15,8.73.58,13.67,1.1,12.52,9.23,39.26,12.26,52.03,6.75,28.39,10.57,45.41,11.06,55.42.65,12.92-.83,16.97-2.15,24.79-2.56,15.22-.69,28.37,2.35,40.42,5.63,22.29,11.53,32.19,12.13,43.89.15,2.92-1.69,4.14-.68,7.83.53,1.92,1.43,3.76.07,8.04-4.59,14.49-10.56,18.28-9.86,23.57.79,5.86,17.35,5.49,23.84,4.17,5.34-1.08,5.27-10.06,3.73-20.33-.31-2.08-.47-4.4-.35-7.96.06-1.76.46-3.81.67-6.28.19-2.28-.37-4.69-.67-6.6-.23-1.44-.47-2.6-.51-3.21-1.43-22.38-.99-27.75,1.39-48.8,2.39-21.26-.97-25.07-.55-38.08.25-7.7,2.22-15.58,2.75-23.92.66-10.46-.25-20.35-1.18-27.79-2.58-20.57-2.56-23.89-3.39-40.16-.9-17.65,3.85-26.31,1.14-41.54.63.27,2.17.36,3.7.38,1.53,0,3.07-.11,3.7-.38-2.71,15.23,2.04,23.89,1.14,41.54-.83,16.27-.81,19.59-3.39,40.16-.93,7.44-1.84,17.33-1.18,27.79.53,8.34,2.5,16.22,2.75,23.92.42,13.01-2.94,16.82-.55,38.08,2.37,21.05,2.82,26.42,1.39,48.8-.04.61-.28,1.77-.51,3.21-.3,1.91-.86,4.32-.67,6.6.21,2.47.61,4.52.67,6.28.12,3.56-.04,5.88-.35,7.96-1.54,10.27-1.61,19.25,3.73,20.33,6.48,1.32,23.05,1.69,23.84-4.17.7-5.29-5.27-9.08-9.86-23.57-1.36-4.28-.46-6.12.07-8.04,1.01-3.69-.83-4.91-.68-7.83.6-11.7,6.5-21.6,12.13-43.89,3.04-12.05,4.91-25.2,2.35-40.42-1.32-7.82-2.8-11.87-2.16-24.79.5-10.01,4.32-27.03,11.07-55.42,3.03-12.77,11.16-39.51,12.26-52.03.43-4.94.6-9.47.58-13.67v-.29c-.16-20.09-4.93-32.12-8.09-41.23-.2-.58-1.47-4.99-5.34-16.31-.78-7.3-1.87-16.21-3.03-25.18-2.4-18.44-5.08-37.12-5.86-42.53.12-.51.23-1.03.36-1.54.44,2.3,1.49,7.73,1.92,9.57,2.74,11.72,6.95,25.57,8.58,34.48.06.31.11.59.16.89.12.68.22,1.34.3,1.95.04.29.09.91.18,1.8.5,5,2.05,18.75,7.34,33.99.18.51.35,1.01.52,1.5.16.48.33.95.48,1.41,5.01,14.31,7.04,19.23,10.57,27.24.82,1.86,1.56,3.58,2.21,5.21,1.38,3.49,2.32,6.49,2.51,9.06.01.1.02.21.04.31,0,.05.01.09.01.14,0,.14-.01.31-.03.47-.17,1.77-1.51,4.85-2.03,6.86-1.75,6.81,1.79,12.51-2.25,21.41-.08.17-.05.31.05.42.43.52,2.48.34,3.79-1.21,1.85-2.19,2.49-7.89,2.63-7.78,0,.02.01.06.02.13.33,6.53,1.22,8.91,1.95,13.19.15.9.3,1.87.43,2.99.27,2.27.04,4.05-.12,5.5-.18,1.55-.29,2.72.33,3.71.11.17.21.32.31.45.72.95,1.2.59,3.21-1.7,1.59-1.83,2.6-3.52,3.63-4.88,1.87-2.48,2.93-4.93,3.2-9.71.02-.32.03-.65.04-1,.01-.42.02-.83.02-1.23,0-1.44-.09-2.8-.28-4.26-.28-2.15-.77-4.53-1.49-7.73Z"/>
  </g>
</svg>