<?xml version="1.0" encoding="UTF-8"?>
<svg id="_레이어_2" data-name="레이어 2" xmlns="http://www.w3.org/2000/svg" viewBox="0 0 169.72 571.62">
  <defs>
    <style>
      .cls-1 {
        fill: #f2a7a9;
        stroke: #221714;
        stroke-miterlimit: 10;
      }
    </style>
  </defs>
  <g id="_레이어_1-2" data-name="레이어 1">
    <path class="cls-1" d="m165.31,301.06c-.26-2.27-.27-3.59-.27-4.56,0-.56,0-1-.05-1.43-.33-3.06-1.72-4.02-2.48-9.76-1.46-10.89-2.42-18.98-3.78-30.34-.28-2.29-.57-4.71-.88-7.33-1.13-9.39-4.9-21.2-8.86-34.19-.23-.74-.45-1.48-.68-2.22-.4-1.34-1.26-11.48-1.59-16.82-.41-6.67-4.26-67.76-6.9-76.98-1.97-6.87-3.88-9.63-5.71-10.54h0s-1.49-.9-2.39-1.31c-.88-.4-1.84-.73-2.85-1.02l-26.1-13.37c-.33-.61-.64-1.26-.93-1.96-1.11-2.7-1.57-10.21-1.75-15.34,2.54-2.35,4.51-5.38,5.74-10.41.22-.9.48-1.97.74-3.12,2.78.98,3.5-3.3,4.02-4.54.56-1.36,1.32-1.49,2.07-4.5.51-2-.37-3.32-.01-4.61.24-.87.36-3.32-.75-4.16-.12-.09-.27-.14-.42-.18,1.64-6.27,2.7-16.51-.74-24.35-1.48-3.39-3.32-6.12-5.25-8.29-4.57-5.57-12.1-9.22-20.63-9.22s-16.06,3.65-20.63,9.22c-1.93,2.17-3.77,4.9-5.25,8.29-3.44,7.84-2.38,18.08-.74,24.35-.15.04-.3.09-.42.18-1.11.84-.99,3.29-.75,4.16.36,1.29-.52,2.61-.01,4.61.75,3.01,1.51,3.14,2.07,4.5.52,1.24,1.24,5.52,4.02,4.54.26,1.15.52,2.22.74,3.12,1.23,5.03,3.2,8.06,5.74,10.41-.18,5.13-.64,12.64-1.75,15.34-.29.7-.6,1.35-.93,1.96l-26.1,13.37c-1.01.29-1.97.63-2.85,1.02-.9.41-2.39,1.3-2.39,1.3h0c-1.83.92-3.74,3.68-5.71,10.55-2.64,9.22-6.49,70.31-6.9,76.98-.33,5.34-1.19,15.48-1.59,16.82-.23.74-.45,1.48-.68,2.22-3.96,12.99-7.73,24.8-8.86,34.19-.31,2.62-.6,5.04-.88,7.33-1.36,11.36-2.32,19.45-3.78,30.34-.76,5.74-2.15,6.7-2.48,9.76-.05.43-.05.87-.05,1.43,0,.97-.01,2.29-.27,4.56-.87,7.4-1.53,8.87-2.13,11.5-1.36,5.98-1.89,9.11-1.76,13.22.18,5.45,1.25,8.06,3.24,10.7,1.03,1.36,2.04,3.05,3.64,4.88,2.26,2.59,2.58,2.72,3.51,1.26,1.2-1.91-.34-4.5.21-9.21.76-6.46,1.98-8.28,2.38-16.17.06-1.2.65,5.27,2.65,7.64,1.58,1.88,4.26,1.75,3.83.81-4.04-8.9-.5-14.6-2.25-21.41-.57-2.2-2.13-5.7-2.06-7.34.01-.15.03-.3.05-.44.29-3.78,2.14-8.44,4.72-14.29,3.54-8,5.56-12.92,10.57-27.24.32-.92.66-1.88,1.01-2.89,6.24-17.98,7.28-33.9,7.52-35.8.11-.87.27-1.82.46-2.83,1.63-8.91,5.84-22.76,8.58-34.48.43-1.85,1.48-7.31,1.92-9.6,3.19,12.91,3.54,29.22-1.61,44.07-1.87,5.7-2.77,13.18-5.47,20.97-5.03,14.5-6.58,19.9-6.8,20.55-3.17,9.11-7.93,21.14-8.09,41.23v.29c-.02,4.2.15,8.73.58,13.67,1.1,12.52,9.23,39.26,12.26,52.03,6.75,28.39,10.57,45.41,11.06,55.42.65,12.92-.83,16.97-2.15,24.79-2.56,15.22-.69,28.37,2.35,40.42,5.63,22.29,11.53,32.19,12.13,43.89.15,2.92-1.69,4.14-.68,7.83.53,1.92,1.43,3.76.07,8.04-4.59,14.49-10.56,18.28-9.86,23.57.79,5.86,17.35,5.49,23.84,4.17,5.34-1.08,5.27-10.06,3.73-20.33-.31-2.08-.47-4.4-.35-7.96.06-1.76.46-3.81.67-6.28.19-2.28-.37-4.69-.67-6.6-.23-1.44-.47-2.6-.51-3.21-1.43-22.38-.99-27.75,1.39-48.8,2.39-21.26-.97-25.07-.55-38.08.25-7.7,2.22-15.58,2.75-23.92.66-10.46-.25-20.35-1.18-27.79-2.58-20.57-2.56-23.89-3.39-40.16-.9-17.65,3.85-26.31,1.14-41.54.63.27,2.17.36,3.7.38,1.53,0,3.07-.11,3.7-.38-2.71,15.23,2.04,23.89,1.14,41.54-.83,16.27-.81,19.59-3.39,40.16-.93,7.44-1.84,17.33-1.18,27.79.53,8.34,2.5,16.22,2.75,23.92.42,13.01-2.94,16.82-.55,38.08,2.37,21.05,2.82,26.42,1.39,48.8-.04.61-.28,1.77-.51,3.21-.3,1.91-.86,4.32-.67,6.6.21,2.47.61,4.52.67,6.28.12,3.56-.04,5.88-.35,7.96-1.54,10.27-1.61,19.25,3.73,20.33,6.48,1.32,23.05,1.69,23.84-4.17.7-5.29-5.27-9.08-9.86-23.57-1.36-4.28-.46-6.12.07-8.04,1.01-3.69-.83-4.91-.68-7.83.6-11.7,6.5-21.6,12.13-43.89,3.04-12.05,4.91-25.2,2.35-40.42-1.32-7.82-2.8-11.87-2.16-24.79.5-10.01,4.32-27.03,11.07-55.42,3.03-12.77,11.16-39.51,12.26-52.03.43-4.94.6-9.47.58-13.67v-.29c-.16-20.09-4.93-32.12-8.09-41.23-.22-.65-1.77-6.05-6.8-20.55-2.7-7.79-4.16-15.39-5.47-20.97h0c-5.15-14.85-4.8-31.16-1.61-44.07.44,2.29,1.49,7.75,1.92,9.6,2.74,11.72,6.95,25.57,8.58,34.48.19,1.01.35,1.96.46,2.83.24,1.9,1.28,17.82,7.52,35.8.35,1.01.69,1.97,1.01,2.89,5.01,14.32,7.03,19.24,10.57,27.24,2.58,5.85,4.43,10.51,4.72,14.29.02.14.04.29.05.44.07,1.64-1.49,5.14-2.06,7.34-1.75,6.81,1.79,12.51-2.25,21.41-.43.94,2.25,1.07,3.83-.81,2-2.37,2.59-8.84,2.65-7.64.4,7.89,1.62,9.71,2.38,16.17.55,4.71-.99,7.3.21,9.21.93,1.46,1.25,1.33,3.51-1.26,1.6-1.83,2.61-3.52,3.64-4.88,1.99-2.64,3.06-5.25,3.24-10.7.13-4.11-.4-7.24-1.76-13.22-.6-2.63-1.26-4.1-2.13-11.5Z"/>
  </g>
</svg>