<?xml version="1.0" encoding="UTF-8"?>
<svg id="_레이어_2" data-name="레이어 2" xmlns="http://www.w3.org/2000/svg" viewBox="0 0 169.28 571.39">
  <defs>
    <style>
      .cls-1 {
        fill: #f2a7a9;
        stroke: #221714;
        stroke-miterlimit: 10;
      }
    </style>
  </defs>
  <g id="_레이어_1-2" data-name="레이어 1">
    <path class="cls-1" d="m66.72,90.45c-.08.17-.17.34-.26.5-.1.18-.2.35-.3.52l-24.32,12.46s-.04.01-.07.02c-.97.24-1.9.51-2.77.82-.15.05-.29.11-.44.16-.24.09-.48.19-.71.29-.22.09-.46.21-.7.33-.65.33-1.35.74-1.38.76,0,0,0,0,0,0-.71.34-1.57.98-2.06,1.63,0,0,0,0,0,0-1.31,1.41-2.67,4.01-4.05,8.63-.19.63-.39,1.44-.58,2.4-2.64,13.15-6.12,68.83-6.51,75.18-.33,5.31-1.17,15.37-1.58,16.79-.01.04-.02.08-.03.12,0,0,0,.01,0,.02-.22.7-.43,1.4-.65,2.11-3.99,12.98-7.73,24.8-8.86,34.19-.31,2.62-.6,5.04-.88,7.33-1.36,11.36-2.32,19.45-3.78,30.34-.74,5.56-2.06,6.62-2.44,9.5-.05.4-.07.82-.08,1.34,0,.74,0,1.73-.2,3.45-.05.44-.08.87-.13,1.31-.52,4.96-1.06,6.36-1.54,8.77,0,.04-.02.07-.02.11,0,.02,0,.03,0,.05-1.25,6.23-1.73,8.94-1.82,12.65-.14,5.58.68,8.22,1.99,11.33.98,2.32,1.83,4.31,3.54,6.34,1.86,2.2,2.3,2.56,3.23,1.78.35-.29.54-.61.66-1,.58-.64.15-2.33.68-5.21.63-3.41.74-5.72,1.26-9.07.34-2.17.63-4.3.89-7.15.13-1.44.86,2.63,2.25,3.76,1.38,1.12,3.17,1.14,2.89.32-.02-.06-.03-.11-.05-.15-.94-2.25-1.2-2.74-.78-3.96.25-.73.89-1.77,1.01-2.98.01-.1.02-.21,0-.32-.23-3.02-.21-5.8-.75-8.72-.52-2.77-1.28-6.39-1.6-8.69-.07-.5-.29-1.14-.39-1.67-.02-.66.02-1.32.12-1.95.02-.12.04-.24.06-.37,0-.02,0-.04,0-.05.15-.83.36-1.71.62-2.62.82-2.86,2.17-6.13,3.83-9.9,3.54-8,5.56-12.92,10.57-27.24.32-.92.66-1.88,1.01-2.89,6.24-17.98,7.28-33.9,7.52-35.8.11-.87.27-1.82.46-2.83,1.62-8.87,5.8-22.64,8.54-34.33.04-.18.09-.4.14-.62.07-.32.15-.7.24-1.13.5-2.42,1.23-6.2,1.58-8,.13.51.24,1.02.36,1.54,1.94,10.84,1.27,27.2-2.94,42.53-1.69,6.15-2.58,13.62-4.76,21.11-.36,1.23-.69,2.41-1,3.53-4.03,11.75-5.33,16.29-5.53,16.88-3.13,9.12-7.93,21.14-8.09,41.23v.29c-.02,4.2.15,8.73.58,13.67,1.1,12.52,9.23,39.26,12.26,52.03,6.75,28.39,10.57,45.41,11.06,55.42.65,12.92-.83,16.97-2.15,24.79-2.56,15.22-.69,28.37,2.35,40.42,5.63,22.29,11.53,32.19,12.13,43.89.15,2.92-1.69,4.14-.68,7.83.53,1.92,1.43,3.76.07,8.04-4.59,14.49-10.56,18.28-9.86,23.57.79,5.86,17.35,5.49,23.84,4.17,5.34-1.08,5.27-10.06,3.73-20.33-.31-2.08-.47-4.4-.35-7.96.06-1.76.46-3.81.67-6.28.19-2.28-.37-4.69-.67-6.6-.23-1.44-.47-2.6-.51-3.21-1.43-22.38-.99-27.75,1.39-48.8,2.39-21.26-.97-25.07-.55-38.08.25-7.7,2.22-15.58,2.75-23.92.66-10.46-.25-20.35-1.18-27.79-2.58-20.57-2.56-23.89-3.39-40.16-.9-17.65,3.85-26.31,1.14-41.54.63.27,2.17.37,3.7.38,1.53.01,3.07-.11,3.7-.38-2.71,15.23,2.04,23.89,1.14,41.54-.83,16.27-.81,19.59-3.39,40.16-.93,7.44-1.84,17.33-1.18,27.79.53,8.34,2.5,16.22,2.75,23.92.42,13.01-2.94,16.82-.55,38.08,2.37,21.05,2.82,26.42,1.39,48.8-.04.61-.28,1.77-.51,3.21-.3,1.91-.86,4.32-.67,6.6.21,2.47.61,4.52.67,6.28.12,3.56-.04,5.88-.35,7.96-1.54,10.27-1.61,19.25,3.73,20.33,6.48,1.32,23.05,1.69,23.84-4.17.7-5.29-5.27-9.08-9.86-23.57-1.36-4.28-.46-6.12.07-8.04,1.01-3.69-.83-4.91-.68-7.83.6-11.7,6.5-21.6,12.13-43.89,3.04-12.05,4.91-25.2,2.35-40.42-1.32-7.82-2.8-11.87-2.16-24.79.5-10.01,4.32-27.03,11.07-55.42,3.03-12.77,11.16-39.51,12.26-52.03.43-4.94.6-9.47.58-13.67v-.29c-.16-20.09-4.97-32.11-8.09-41.23-.2-.58-1.47-4.99-5.35-16.34-.37-1.33-.77-2.75-1.21-4.25-2.18-7.44-3.52-14.93-4.74-20.93h0c-4.46-15.75-4.87-32.65-2.67-43.69.09.19.19.45.31.77.49,2.55,1.33,6.85,1.7,8.44,2.74,11.72,6.93,25.57,8.58,34.48.15.83.28,1.62.38,2.34.05.4.13,1.05.22,1.91.05.45.11,1.04.18,1.76.63,5.78,2.32,18.57,7.19,32.61.31.89.61,1.73.89,2.54.17.48.33.95.49,1.41,4.74,13.51,6.75,18.38,10.2,26.18.82,1.86,1.56,3.59,2.21,5.22,1.39,3.5,2.31,6.49,2.51,9.07.02.13.04.27.05.41,0,.03,0,.07,0,.1,0,.14,0,.29-.03.44-.19,1.78-1.52,4.83-2.03,6.83-1.75,6.81,1.79,12.51-2.25,21.41-.07.16-.06.29.03.4.41.53,2.49.36,3.8-1.21,1.96-2.33,2.57-8.6,2.64-7.68,0,.03,0,.06,0,.1.33,6.5,1.23,8.86,1.96,13.16.15.88.29,1.84.42,2.94.27,2.29.04,4.08-.12,5.53-.18,1.54-.28,2.7.33,3.68.11.17.21.31.3.44.73.96,1.21.6,3.21-1.7,1.6-1.83,2.61-3.52,3.64-4.88,1.86-2.47,2.92-4.92,3.2-9.7.02-.32.03-.66.05-1,.01-.42.02-.82.02-1.22,0-1.43-.09-2.79-.28-4.25-.28-2.16-.77-4.54-1.5-7.75-.44-1.95-.92-3.26-1.49-6.81-.2-1.24-.41-2.76-.64-4.68-.24-2.07-.27-3.35-.27-4.29,0-.09,0-.18,0-.27,0-.35,0-.64-.01-.92,0-.17-.02-.34-.04-.5-.12-1.13-.39-1.97-.71-2.87-.56-1.55-1.29-3.26-1.77-6.89-.23-1.75-.46-3.43-.67-5.06-.42-3.23-.8-6.27-1.18-9.32-.62-5.01-1.22-10.04-1.93-15.97-.05-.38-.09-.77-.14-1.16-.22-1.85-.45-3.78-.7-5.84-.05-.42-.11-.85-.16-1.29-1.26-9.23-4.87-20.69-8.73-33.24-.2-.66-.4-1.31-.6-1.97-.07-.21-.14-.54-.21-.96-.13-.74-.28-2.03-.44-3.6-.38-3.77-.81-9.11-1.02-12.51-.4-6.51-4.08-64.91-6.71-76.21-.09-.38-.18-.73-.27-1.03-1.67-5.74-3.31-8.53-4.88-9.76,0,0,0,0,0,0-.25-.22-.62-.46-1.01-.67,0,0,0,0,0,0-.11-.06-.68-.4-1.27-.71-.08-.04-.16-.08-.23-.12-.32-.16-.63-.32-.92-.44-.23-.1-.47-.19-.71-.29-.21-.08-.42-.16-.63-.23-.55-.19-1.13-.36-1.73-.53l-25.43-13.03c-.28-.5-.54-1.02-.79-1.57-.31-.69-.59-1.61-.82-2.69-.35-1.6-.6-3.73-.79-5.98-.18-2.12-.29-4.31-.37-6.24.41-.57.81-1.17,1.18-1.8.33-.56.63-1.15.92-1.76,1.29-1.74,2.35-3.87,3.17-6.65.15-.51.31-1.07.47-1.67.12-.43.23-.88.35-1.34.81.09,1.41-.35,1.88-1.02.62-.88,1-2.2,1.29-3.2.12-.19.24-.35.34-.48.72-.9,1.4-1.39,2.05-3.42.07-.23.14-.47.22-.74.18-.68.23-1.28.24-1.79.01-1-.09-1.73.2-2.59.18-.55.34-1.62.23-2.66-.06-.57-.24-1.09-.54-1.43-.09-.1-.21-.17-.32-.23.14-.86.24-1.74.42-2.66.01-.07.03-.15.04-.22.28-1.34.5-3.18.32-4.67-.01-.11-.03-.21-.05-.32,0-.03-.01-.06-.02-.1.1-.8.18-1.62.23-2.46.29-4.31-.02-9.05-1.46-13.27-1.16-3.38-2.71-6.27-4.48-8.65-1.81-2.61-4.11-4.79-6.71-6.49-3.66-2.49-8.16-4.11-13.1-4.49-2.81-.21-5.58-.01-8.25.55-5.23,1.12-9.79,3.66-13.12,7.12-1.61,1.56-3.12,3.42-4.43,5.59-.41.69-.79,1.42-1.17,2.18-.54,1.08-1.04,2.21-1.45,3.39-.03.09-.06.18-.09.28,0,0,0,.02,0,.02-.38,1.17-.71,2.38-.97,3.62-.21,1-.36,2.02-.47,3.04-.53,5.06.04,10.2.9,14.13-.11.07-.22.16-.3.27-.78,1.04-.62,3.27-.36,4.27.11.42.13.84.12,1.28-.02.03-.03.07-.05.1-.03.07-.07.14-.09.21-.11.29-.2.62-.26.98-.11.6-.12,1.28.02,2,.09.44.18.82.28,1.13.57,1.8.84,2.31,1.31,3.7.48,1.4.98,3.22,2.04,4.3.43.44.97.77,1.68.77.3,1.14.66,2.21,1.06,2.96.18.33.35.64.56.88.29,1.08.61,2.07.95,2.96,1.07,2.83,2.44,4.89,4.09,6.59.16,1.14.34,2.32.52,3.51-.22,4.35-.63,9.38-1.44,11.82-.27.81-.58,1.55-.91,2.21Z"/>
  </g>
</svg>