<?xml version="1.0" encoding="UTF-8"?>
<svg id="_레이어_2" data-name="레이어 2" xmlns="http://www.w3.org/2000/svg" viewBox="0 0 169.28 571.94">
  <defs>
    <style>
      .cls-1 {
        fill: #f2a7a9;
        stroke: #221714;
        stroke-miterlimit: 10;
      }
    </style>
  </defs>
  <g id="_레이어_1-2" data-name="레이어 1">
    <path class="cls-1" d="m40.32,104.72s-.07.02-.1.03c-.2.06-.39.13-.59.2-.27.09-.53.19-.79.29-.18.07-.35.14-.52.21-.34.15-.73.34-1.11.54-.03.01-.05.03-.08.04-.58.31-1.13.63-1.24.69,0,0,0,0,0,0-.4.21-.79.46-1.05.69,0,0,0,0,0,0-1.57,1.24-3.19,4.02-4.85,9.73-.09.31-.18.67-.28,1.06-2.63,11.35-6.3,69.68-6.7,76.19-.26,4.22-.85,11.44-1.29,14.93-.08.6-.15,1.09-.21,1.42-.05.27-.1.48-.15.63-.21.69-.42,1.37-.63,2.05-3.99,12.98-7.73,24.8-8.86,34.19-.1.84-.2,1.67-.29,2.47-.11.92-.22,1.83-.33,2.71-.09.73-.18,1.45-.26,2.15-1.36,11.36-2.32,19.45-3.78,30.34-.55,4.19-1.44,5.83-2.01,7.6-.21.66-.38,1.33-.47,2.16-.01.1-.02.21-.02.31-.02.34-.02.69-.02,1.12,0,.74,0,1.7-.13,3.12-.04.43-.08.91-.15,1.44-.11.97-.22,1.83-.33,2.61-.71,5.19-1.28,6.6-1.8,8.89-1.36,5.98-1.89,9.11-1.76,13.22.05,1.38.15,2.59.31,3.65.14.93.33,1.75.55,2.5.54,1.78,1.33,3.16,2.38,4.54.68.9,1.36,1.96,2.21,3.1.43.58.89,1.17,1.43,1.79,2.05,2.35,2.51,2.67,3.27,1.62.08-.11.16-.23.25-.36.13-.2.22-.41.29-.63.01-.03.02-.06.03-.1,0-.03.02-.06.02-.09.47-1.83-.61-4.32-.14-8.39.61-5.19,1.52-7.38,2.06-12.13.13-1.15.24-2.44.32-3.97,0-.04,0-.07,0-.1.08-.94.68,5.35,2.65,7.68,1.39,1.65,3.63,1.75,3.86,1.11.03-.09.03-.19-.03-.3-4.04-8.9-.5-14.6-2.25-21.41-.44-1.72-1.49-4.22-1.89-6.01-.1-.43-.16-.83-.17-1.16,0-.08,0-.15,0-.23,0-.13.03-.26.04-.38.17-2.19.86-4.68,1.92-7.52.77-2.06,1.72-4.31,2.8-6.76,3.54-8,5.56-12.92,10.57-27.24.21-.6.43-1.23.65-1.86.12-.34.24-.68.36-1.03,1.16-3.33,2.14-6.6,2.96-9.71.01-.04.02-.08.03-.12,0-.02,0-.03.01-.05,3.6-13.61,4.32-24.38,4.52-25.92.09-.73.22-1.52.37-2.36.03-.16.06-.31.09-.47.76-4.08,2.04-9.2,3.48-14.68,1.07-4.05,2.21-8.3,3.29-12.47.64-2.49,1.26-4.96,1.81-7.33.18-.77.47-2.18.77-3.71.25-1.26.51-2.6.74-3.77.07-.34.13-.67.19-.97.12-.32.22-.58.31-.77,2.2,11.03,1.79,27.94-2.67,43.68,0,0,0,0,0,0-.13.92-1.27,4.59-2.67,8.93-.72,2.24-1.51,4.65-2.26,6.96-.55,1.44-1.08,2.86-1.59,4.22-5.36,14.38-7.57,21.04-7.77,21.57-3.47,9.08-8.49,21.18-8.66,41.38v.14c-.03,4.24.15,8.82.61,13.82,1.17,12.52,9.82,39.26,13.04,52.03,7.18,28.38,11.24,45.41,11.76,55.42.68,12.92-.89,16.97-2.29,24.79-2.72,15.22-.74,28.37,2.5,40.42,5.99,22.28,12.26,32.19,12.9,43.89.16,2.92-1.81,4.14-.73,7.83.56,1.92,1.52,3.76.08,8.04-4.88,14.49-11.23,18.28-10.48,23.57.83,5.86,18.45,5.49,25.34,4.17,5.68-1.08,5.6-10.06,3.96-20.34-.33-2.07-.5-4.4-.37-7.95.07-1.76.5-3.81.72-6.28.21-2.28-.4-4.69-.72-6.6-.24-1.45-.49-2.61-.54-3.21-1.69-22.38-1.05-27.75,1.48-48.8,2.54-21.26-1.03-25.08-.58-38.08.27-7.7,2.36-15.58,2.92-23.92.03-.39.05-.78.07-1.16.02.39.04.77.07,1.16.56,8.34,2.65,16.22,2.92,23.92.45,13-3.12,16.82-.58,38.08,2.53,21.05,3.17,26.42,1.48,48.8-.05.6-.3,1.76-.54,3.21-.32,1.91-.93,4.32-.72,6.6.22,2.47.65,4.52.72,6.28.13,3.55-.04,5.88-.37,7.95-1.64,10.28-1.72,19.26,3.96,20.34,6.89,1.32,24.51,1.69,25.34-4.17.75-5.29-5.6-9.08-10.48-23.57-1.44-4.28-.48-6.12.08-8.04,1.08-3.69-.89-4.91-.73-7.83.64-11.7,6.91-21.61,12.9-43.89,3.24-12.05,5.22-25.2,2.5-40.42-1.4-7.82-2.97-11.87-2.29-24.79.52-10.01,4.58-27.04,11.76-55.42,3.22-12.77,11.87-39.51,13.04-52.03.46-5,.64-9.58.61-13.82v-.14c-.17-20.2-5.19-32.3-8.66-41.38-.2-.53-2.41-7.19-7.77-21.57-.5-1.35-1.04-2.77-1.59-4.22-.75-2.32-1.54-4.73-2.26-6.96-1.4-4.34-2.54-8.01-2.67-8.93,0,0,0,0,0,0-4.46-15.75-4.87-32.65-2.67-43.68.09.19.19.45.31.77.06.3.12.62.19.97.22,1.16.49,2.51.74,3.77.3,1.53.59,2.94.77,3.71.56,2.38,1.17,4.84,1.81,7.33,1.07,4.17,2.22,8.41,3.29,12.47,1.44,5.48,2.72,10.6,3.48,14.68.03.16.06.32.09.47.15.83.28,1.63.37,2.36.2,1.54.92,12.31,4.51,25.92,0,.02,0,.03.01.05.01.04.02.08.03.12.83,3.12,1.81,6.38,2.96,9.71.12.35.24.69.36,1.03.22.64.44,1.26.65,1.86,5.01,14.32,7.03,19.24,10.57,27.24,1.09,2.46,2.04,4.7,2.8,6.76,1.05,2.84,1.75,5.33,1.92,7.52.02.12.03.25.04.38,0,.07,0,.15,0,.23,0,.33-.07.73-.17,1.16-.41,1.8-1.45,4.3-1.89,6.01-1.75,6.81,1.79,12.51-2.25,21.41-.05.11-.06.22-.03.3.23.64,2.46.54,3.86-1.11,1.96-2.33,2.57-8.62,2.64-7.68,0,.03,0,.06,0,.1.08,1.52.19,2.82.32,3.97.54,4.75,1.45,6.94,2.06,12.13.48,4.07-.61,6.56-.14,8.39,0,.03.01.06.02.09,0,.03.02.06.03.1.07.22.17.43.29.63.09.14.17.26.24.36.76,1.05,1.21.73,3.27-1.62.54-.61,1-1.21,1.43-1.79.85-1.14,1.53-2.19,2.21-3.1,1.04-1.38,1.83-2.76,2.38-4.54.23-.75.41-1.58.55-2.5.16-1.06.26-2.27.31-3.65.13-4.11-.4-7.24-1.76-13.22-.52-2.29-1.09-3.7-1.8-8.89-.11-.78-.22-1.64-.33-2.61-.06-.53-.11-1.01-.15-1.44-.12-1.43-.13-2.38-.13-3.12,0-.43,0-.78-.02-1.12,0-.1-.01-.21-.02-.31-.09-.83-.26-1.5-.47-2.16-.57-1.77-1.46-3.42-2.01-7.6-1.46-10.89-2.42-18.98-3.78-30.34-.09-.7-.17-1.42-.26-2.15-.11-.88-.21-1.78-.32-2.71-.1-.8-.19-1.63-.29-2.47-1.13-9.39-4.87-21.21-8.86-34.19-.21-.69-.42-1.37-.63-2.05-.05-.15-.09-.37-.15-.63-.06-.33-.13-.82-.21-1.42-.43-3.49-1.03-10.71-1.29-14.93-.4-6.51-4.08-64.83-6.71-76.19-.09-.4-.18-.75-.27-1.06-1.67-5.71-3.29-8.49-4.85-9.73,0,0,0,0,0,0-.26-.23-.64-.48-1.05-.69,0,0,0,0,0,0-.11-.06-.65-.38-1.24-.69-.03-.01-.05-.03-.08-.04-.38-.2-.77-.39-1.11-.54-.17-.07-.34-.14-.52-.21-.26-.1-.52-.2-.79-.29-.19-.07-.39-.13-.59-.2-.03-.01-.07-.02-.1-.03l-26.67-13.67v.05c-.32-.59-.62-1.21-.9-1.89-1.11-2.7-1.57-10.21-1.75-15.34,2.54-2.35,4.51-5.38,5.74-10.41.22-.9.48-1.97.74-3.12.7.25,1.26.16,1.73-.12,1.4-.85,1.9-3.49,2.29-4.42.56-1.36,1.31-1.49,2.07-4.5.5-2-.37-3.32-.01-4.61.24-.87.36-3.32-.75-4.16-.11-.08-.24-.13-.38-.17,0-.04,0-.07-.02-.11,1.63-6.28,2.66-16.45-.77-24.25-1.48-3.39-3.32-6.12-5.25-8.29-4.53-5.52-11.97-9.15-20.41-9.21-8.44.06-15.88,3.69-20.41,9.21-1.93,2.17-3.77,4.9-5.25,8.29-3.42,7.8-2.39,17.97-.77,24.25,0,.04-.01.07-.01.11-.14.04-.27.08-.38.17-1.11.84-.99,3.29-.75,4.16.36,1.29-.51,2.61-.01,4.61.76,3.01,1.51,3.14,2.07,4.5.39.93.89,3.57,2.29,4.42.47.28,1.03.37,1.73.12.26,1.15.52,2.22.74,3.12,1.23,5.03,3.2,8.06,5.74,10.41-.18,5.13-.64,12.64-1.75,15.34-.28.67-.58,1.3-.9,1.89v-.05l-26.67,13.67Zm40.61,201.24c.64.25,2.16.38,3.72.38,1.55,0,3.08-.13,3.72-.38-2.89,15.23,2.17,23.89,1.21,41.54-.88,16.27-.87,19.59-3.6,40.16-.54,4.03-1.06,8.78-1.33,13.95-.26-5.17-.79-9.92-1.33-13.95-2.73-20.57-2.72-23.89-3.6-40.16-.96-17.65,4.1-26.31,1.21-41.54Z"/>
  </g>
</svg>