<?xml version="1.0" encoding="UTF-8"?>
<svg id="_레이어_2" data-name="레이어 2" xmlns="http://www.w3.org/2000/svg" viewBox="0 0 169.72 571.95">
  <defs>
    <style>
      .cls-1 {
        fill: #f2a7a9;
        stroke: #221714;
        stroke-miterlimit: 10;
      }
    </style>
  </defs>
  <g id="_레이어_1-2" data-name="레이어 1">
    <path class="cls-1" d="m167.4,312.55c-.52-2.29-1.09-3.7-1.8-8.89-.09-.7-.19-1.47-.29-2.32-.05-.42-.09-.81-.12-1.17,0-.08-.02-.16-.02-.24-.03-.33-.05-.63-.06-.91,0-.04,0-.09,0-.13-.03-.56-.04-1.03-.05-1.43,0-.02,0-.04,0-.07,0-.2,0-.39,0-.56,0-.23,0-.44,0-.64,0-.09,0-.18,0-.26,0-.07,0-.15,0-.22,0-.1-.01-.21-.02-.31,0-.07-.02-.13-.03-.2,0-.05,0-.1-.01-.15-.09-.83-.26-1.51-.47-2.16-.57-1.77-1.46-3.41-2.01-7.6-.91-6.75-1.62-12.43-2.35-18.47-.44-3.6-.88-7.33-1.38-11.52-.09-.7-.17-1.42-.26-2.15-.11-.88-.21-1.78-.32-2.71-.1-.8-.19-1.63-.29-2.47,0-.02,0-.04,0-.06-.01-.1-.02-.19-.04-.29-1.13-9.39-4.87-21.21-8.86-34.19-.19-.63-.39-1.26-.58-1.89-.05-.17-.11-.39-.16-.64-.07-.3-.14-.8-.22-1.43,0-.01,0-.03,0-.04-.07-.59-.15-1.27-.22-2.02,0-.02,0-.04,0-.06-.03-.26-.05-.53-.08-.81,0-.05,0-.1-.01-.15-.03-.28-.05-.56-.08-.84,0-.04,0-.08-.01-.12-.08-.91-.17-1.87-.25-2.84,0-.05,0-.09-.01-.14-.03-.3-.05-.61-.08-.92,0-.06-.01-.13-.02-.19-.11-1.31-.21-2.61-.29-3.82,0-.06,0-.13-.01-.19-.02-.27-.04-.53-.06-.79,0-.07-.01-.15-.02-.22-.02-.26-.03-.51-.05-.75,0-.01,0-.02,0-.04-.02-.27-.03-.54-.05-.79-.16-2.6-.84-13.47-1.77-26.32,0-.04,0-.08,0-.13-.03-.45-.07-.9-.1-1.36,0-.07-.01-.15-.02-.22-.07-.98-.15-1.98-.22-2.98,0-.05,0-.11-.01-.16-.03-.39-.06-.79-.09-1.18-.01-.17-.03-.34-.04-.51-.03-.35-.05-.71-.08-1.06-.01-.17-.03-.35-.04-.52-.03-.37-.06-.75-.09-1.12-.01-.15-.02-.31-.04-.46-.02-.31-.05-.63-.07-.94-.02-.26-.04-.52-.06-.78-.01-.18-.03-.35-.04-.53-.03-.36-.06-.72-.08-1.08-.01-.13-.02-.27-.03-.4-.03-.41-.07-.83-.1-1.24,0-.04,0-.08-.01-.13-.04-.47-.08-.94-.11-1.42,0-.1-.02-.19-.02-.29-.83-10.17-1.73-19.97-2.59-26.66-.41-3.24-.81-5.79-1.19-7.32-.1-.39-.19-.75-.29-1.07-1.73-5.83-3.41-8.53-5.03-9.64,0,0,0,0,0,0-.17-.16-.6-.42-1.07-.67,0,0,0,0,0,0-.21-.12-.74-.42-1.25-.68-.03-.01-.05-.02-.08-.04-.38-.19-.77-.37-1.13-.51-.17-.07-.35-.14-.53-.21-.26-.1-.52-.19-.79-.28-.2-.07-.4-.13-.6-.19-.06-.02-.13-.03-.19-.05l-26.22-13.43c-.33-.61-.64-1.25-.92-1.94-.41-1-.73-2.67-.99-4.63-.4-3.26-.61-7.24-.72-10.35,2.54-2.35,4.51-5.38,5.74-10.41.21-.88.47-1.92.72-3.03.17.03.33.04.49.03.49.08.91-.02,1.26-.24,0,0,.02-.02.03-.02.14-.09.27-.2.4-.33.04-.04.08-.08.12-.12.11-.13.22-.26.32-.41.02-.04.05-.07.07-.11.09-.14.17-.29.25-.45.04-.07.07-.14.1-.21.06-.13.12-.26.17-.39.06-.14.11-.28.16-.42.03-.07.06-.15.08-.22.25-.71.43-1.36.58-1.74.28-.68.61-1.05.96-1.62.33-.54.68-1.26,1.03-2.58.03-.1.05-.19.08-.3.03-.1.03-.2.05-.3.14-.72.1-1.35.03-1.93-.04-.43-.1-.83-.16-1.2-.02-.24-.04-.47-.02-.69.01-.16.04-.33.08-.49.14-.49.23-1.49.09-2.42-.08-.83-.32-1.67-.88-2.09-.09-.06-.19-.1-.3-.14.05-.21.1-.42.15-.63.02-.1.05-.2.07-.3.07-.32.14-.64.21-.98.02-.11.05-.22.07-.33.07-.33.13-.67.19-1.02.02-.12.04-.24.07-.36.06-.34.11-.7.16-1.05.02-.13.04-.26.06-.39.05-.36.09-.72.14-1.08.02-.14.04-.27.05-.41.04-.36.07-.73.1-1.09.01-.15.03-.3.04-.45.03-.36.05-.72.07-1.08,0-.17.02-.33.03-.5.02-.36.02-.72.03-1.08,0-.18.01-.35.01-.52,0-.36,0-.73-.01-1.1,0-.18,0-.35,0-.53-.01-.36-.03-.72-.05-1.08-.01-.19-.02-.37-.03-.56-.03-.35-.06-.71-.1-1.06-.02-.19-.03-.38-.05-.57,0-.07-.02-.14-.03-.2-.31-2.77-.95-5.5-2.04-7.99-1.48-3.39-3.32-6.12-5.25-8.29-4.52-5.5-11.92-9.13-20.33-9.21-5.03.05-9.68,1.39-13.59,3.61-2.87,1.54-5.35,3.56-7.3,5.93-1.93,2.17-3.77,4.9-5.25,8.29-1.29,2.94-1.95,6.22-2.18,9.5-.04.53-.06,1.06-.08,1.59,0,0,0,.02,0,.03-.15,4.9.59,9.67,1.5,13.2-.04.02-.07.05-.11.07-.11.03-.21.08-.3.14-.7.52-.91,1.68-.91,2.69,0,.61.07,1.16.16,1.49.09.32.1.65.08.98,0,.04,0,.07-.01.11-.01.13-.03.26-.05.4-.01.09-.03.19-.04.28-.12.81-.28,1.72.01,2.84.75,3.01,1.51,3.14,2.07,4.5.48,1.15,1.14,4.9,3.45,4.67.19.02.39.02.6-.02.25,1.11.5,2.14.72,3.02,1.23,5.03,3.2,8.06,5.74,10.41-.04,1.28-.11,2.7-.19,4.16-.02.35-.04.71-.07,1.06,0,.01,0,.03,0,.04-.27,4.07-.72,8.2-1.49,10.05-.14.34-.29.67-.44,1-.03.06-.05.12-.08.18-.06.12-.12.23-.18.35l-27.33,14.01s-.08.03-.12.04c-.18.07-.36.14-.53.21-.36.15-.75.33-1.13.51-.03.01-.05.02-.08.04-.51.26-1.04.56-1.25.68,0,0,0,0,0,0-.22.12-.41.23-.59.34-.35.2-.63.37-.73.45-1.03.59-2.09,1.8-3.17,4.01-.04.08-.08.15-.11.23-.05.11-.1.22-.15.34-.07.15-.14.3-.21.47-.04.08-.07.17-.11.26-.08.2-.17.41-.26.63-.03.07-.05.14-.08.2-.1.25-.19.51-.29.77-.02.05-.04.1-.05.15-.11.3-.22.61-.32.94,0,.02-.02.05-.02.07-.16.48-.32.98-.48,1.52-.04.14-.08.3-.13.44-.04.13-.08.25-.11.39-.14.5-.29,1.17-.44,1.96,0,0,0,0,0,0-.04.22-.08.45-.12.68,0,.02,0,.04,0,.05-.04.23-.08.46-.12.7,0,.03-.01.06-.02.1-.04.23-.08.47-.11.72,0,.05-.01.09-.02.14-.04.24-.07.48-.11.74,0,.06-.02.12-.03.18-.03.24-.07.49-.1.74-.01.08-.02.17-.03.26-.03.24-.06.47-.1.72-.01.11-.03.22-.04.33-.03.23-.06.47-.09.71-.02.13-.03.26-.05.39-.03.23-.06.46-.08.69-.02.15-.04.31-.05.46-.03.23-.05.45-.08.69-.02.16-.04.33-.06.49-.03.23-.05.46-.08.69-.02.18-.04.36-.06.54-.03.23-.05.45-.08.68-.02.2-.04.41-.07.62-.02.21-.04.42-.07.63-.03.24-.05.48-.08.73-.02.19-.04.37-.06.56-.03.27-.06.55-.08.82-.02.17-.03.34-.05.52-.03.28-.06.57-.09.86-.02.18-.03.35-.05.53-.03.3-.06.61-.09.91-.02.16-.03.33-.05.49-.03.31-.06.62-.09.93-.02.17-.03.35-.05.52-.03.33-.06.66-.09,1-.01.15-.03.31-.04.46-.03.34-.06.68-.09,1.02-.01.16-.03.32-.04.49-.03.37-.07.74-.1,1.11-.01.12-.02.24-.03.36-.04.43-.08.85-.11,1.28,0,.07-.01.15-.02.22-.04.44-.08.88-.11,1.32,0,.09-.01.17-.02.26-.04.45-.08.9-.11,1.34,0,.07-.01.15-.02.22-.04.46-.08.92-.12,1.39,0,.06-.01.13-.02.19-.04.46-.08.91-.11,1.37,0,.08-.01.17-.02.25-1.58,19.24-2.89,40.15-3.12,43.9,0,.12-.02.26-.02.39-.01.18-.02.35-.03.53-.01.2-.03.41-.04.62,0,.11-.02.23-.02.34-.02.24-.03.49-.05.75,0,.08-.01.17-.02.25-.31,4.27-.78,9.65-1.13,12.35-.09.67-.17,1.17-.24,1.44-.06.24-.12.45-.18.65-.17.57-.35,1.15-.53,1.72-3.99,12.98-7.73,24.8-8.86,34.19-.1.84-.2,1.65-.29,2.45-.11.93-.22,1.83-.33,2.72-.09.73-.18,1.46-.26,2.17-1.36,11.36-2.32,19.45-3.78,30.34-.02.16-.04.32-.07.47-.02.12-.03.23-.05.34-.03.19-.06.37-.09.54-.01.07-.03.14-.04.22-.55,3.05-1.27,4.49-1.76,6.02-.21.66-.39,1.34-.48,2.17-.01.11-.01.22-.02.33,0,.02,0,.05,0,.07-.02.32-.03.65-.03,1.05,0,.22,0,.46,0,.72,0,.18,0,.36-.01.56,0,.02,0,.05,0,.07,0,.23-.02.48-.03.74,0,.03,0,.05,0,.08-.02.3-.04.61-.07.96-.04.43-.08.9-.14,1.42-.11.96-.22,1.82-.33,2.6-.71,5.19-1.28,6.61-1.8,8.89-1.02,4.49-1.57,7.37-1.73,10.27-.05.97-.06,1.94-.03,2.97.18,5.45,1.25,8.06,3.24,10.7,1.03,1.36,2.04,3.05,3.64,4.88,1.53,1.76,2.17,2.38,2.72,2.14.37.12.65-.06.98-.52.08-.11.16-.23.25-.36.13-.2.22-.41.29-.63.01-.03.02-.06.03-.1,0-.03.02-.06.02-.09,0-.01,0-.02,0-.03.02-.05.05-.09.07-.14.01-.03.02-.06.03-.1,0-.03.01-.06.02-.09.47-1.83-.61-4.32-.14-8.38.61-5.2,1.52-7.39,2.06-12.16.07-.61.13-1.26.19-1.96.09.43.2.91.32,1.41.01.05.02.1.04.15.05.2.11.4.16.61.02.06.03.13.05.19.07.24.14.48.22.72.04.11.08.22.12.33.05.13.09.26.14.39.05.12.1.24.15.36.05.11.09.22.14.32.06.12.11.24.17.35.05.1.1.19.16.29.06.11.12.22.19.32.06.09.12.17.18.25.06.08.12.18.18.25.17.2.35.37.54.53,0,0,0,0,.01,0,.9.74,1.96,1,2.63.92.57.04,1.01-.09,1.1-.35.02-.06.02-.13,0-.21.05-.04.1-.08.12-.13.04-.09.03-.19-.02-.31-4.04-8.9-.5-14.6-2.25-21.41-.45-1.73-1.5-4.26-1.9-6.06-.1-.44-.16-.84-.16-1.17,0-.08,0-.16.01-.23,0-.11.02-.22.04-.32.16-2.11.83-4.52,1.82-7.23.76-2.04,1.7-4.27,2.78-6.7,1-2.26,1.88-4.28,2.74-6.33-1.25,5.72-2.13,12.37-2.2,20.28-.04,4.28.15,8.91.65,13.97,1.24,12.52,10.39,39.26,13.81,52.03,7.6,28.38,11.9,45.41,12.46,55.42.72,12.92-.94,16.97-2.43,24.79-2.89,15.21-.78,28.37,2.65,40.42,6.34,22.28,12.99,32.19,13.66,43.89.17,2.91-1.91,4.14-.76,7.83.59,1.92,1.6,3.76.07,8.04-5.17,14.48-11.89,18.28-11.1,23.57.88,5.86,19.55,5.49,26.85,4.17,6.01-1.09,5.93-10.06,4.2-20.34-.35-2.07-.53-4.4-.39-7.96.06-1.75.51-3.8.75-6.28.22-2.28-.41-4.68-.75-6.59-.26-1.45-.53-2.61-.57-3.21-1.62-22.39-1.12-27.76,1.55-48.8,2.7-21.26-1.08-25.08-.61-38.08.29-7.7,2.5-15.58,3.09-23.92.75-10.47-.28-20.35-1.33-27.79-2.89-20.57-2.88-23.89-3.81-40.16-1.02-17.66,4.34-26.31,1.28-41.54.71.26,2.45.36,4.17.37h0c1.72,0,3.46-.11,4.17-.37-3.06,15.23,2.3,23.88,1.28,41.54-.93,16.27-.92,19.59-3.81,40.16-1.05,7.44-2.08,17.32-1.33,27.79.59,8.34,2.8,16.22,3.09,23.92.47,13-3.31,16.82-.61,38.08,2.67,21.04,3.17,26.41,1.55,48.8-.04.6-.31,1.76-.57,3.21-.34,1.91-.97,4.31-.75,6.59.24,2.48.69,4.53.75,6.28.14,3.56-.04,5.89-.39,7.96-1.73,10.28-1.81,19.25,4.2,20.34,7.3,1.32,25.97,1.69,26.85-4.17.79-5.29-5.93-9.09-11.1-23.57-1.53-4.28-.52-6.12.07-8.04,1.15-3.69-.93-4.92-.76-7.83.67-11.7,7.32-21.61,13.66-43.89,3.43-12.05,5.54-25.21,2.65-40.42-1.49-7.82-3.15-11.87-2.43-24.79.56-10.01,4.86-27.04,12.46-55.42,3.42-12.77,12.57-39.51,13.81-52.03.5-5.06.69-9.69.65-13.97-.07-7.88-.94-14.52-2.19-20.23.85,2.03,1.73,4.03,2.72,6.27,1.09,2.46,2.04,4.7,2.8,6.76,1.05,2.84,1.75,5.33,1.92,7.52.01.08.02.17.03.26,0,.08.02.16.02.24,0,.33-.05.74-.15,1.18-.39,1.8-1.46,4.36-1.91,6.1-1.75,6.81,1.79,12.51-2.25,21.41-.06.12-.06.23-.02.32.1.25.52.37,1.06.34.09.01.18.02.29.02.05,0,.1,0,.15,0,.1,0,.2-.02.31-.04.08-.01.15-.03.24-.05.11-.03.23-.06.35-.1.07-.02.13-.04.2-.07.15-.06.29-.13.44-.21.06-.03.13-.07.19-.11.15-.09.3-.19.45-.31.05-.04.1-.08.15-.13.14-.12.27-.25.39-.39.02-.03.05-.05.07-.07,1.23-1.45,1.92-4.44,2.29-6.25.07.94.14,1.79.23,2.57.54,4.79,1.45,6.98,2.06,12.19.47,4.06-.6,6.55-.14,8.38,0,.03.01.06.02.09,0,.03.02.06.03.1.07.22.17.44.3.65.09.14.17.26.25.37.32.45.6.63.96.52,0,0,0,0,.01.01.01,0,.02,0,.03.01.08.03.15.04.23.04.01,0,.02,0,.04,0,.08,0,.18-.04.27-.09.02-.01.05-.02.07-.03.09-.05.2-.12.3-.21.04-.03.07-.06.11-.09.11-.09.22-.2.35-.32.06-.06.12-.12.18-.18.09-.1.19-.2.29-.31.25-.27.53-.58.86-.96.37-.42.69-.83,1.01-1.23.08-.1.15-.19.22-.29.07-.09.14-.18.2-.26.2-.27.39-.53.57-.79.07-.09.13-.18.19-.27.26-.37.5-.72.74-1.06.21-.3.42-.59.63-.87.03-.03.05-.07.08-.11,0-.01.02-.02.03-.04.24-.32.47-.65.69-.98.02-.03.04-.06.05-.08.21-.32.4-.65.59-.99.02-.03.03-.07.05-.1.18-.34.34-.68.49-1.04.02-.04.03-.08.05-.12.15-.36.28-.74.41-1.13,0-.02.02-.04.02-.06,0-.03.02-.07.03-.1.1-.33.19-.68.27-1.05.01-.05.02-.1.03-.15.08-.36.15-.74.21-1.14,0-.03.01-.05.01-.08,0-.01,0-.03,0-.04.01-.08.02-.16.03-.24.03-.19.05-.38.08-.58,0-.06.01-.12.02-.18.02-.23.05-.45.07-.69,0,0,0,0,0,0,.05-.6.09-1.23.11-1.91.06-1.87-.02-3.53-.25-5.35-.27-2.28-.77-4.78-1.55-8.22Zm-121.43-98.78s0,0,0,.01c-.41,3.13-1.27,7.49-2.16,11.89-.97,2.36-2,4.82-3.18,7.41-2.01,4.42-4.52,9.92-6.53,14.31.52-1.71,1-3.38,1.43-5.02.01-.04.02-.08.03-.12,0-.02,0-.03.01-.05,3.6-13.61,4.32-24.38,4.52-25.92.09-.73.22-1.53.37-2.37.03-.16.06-.31.08-.47.76-4.08,2.04-9.21,3.48-14.68,1.07-4.05,2.21-8.29,3.29-12.46.64-2.49,1.26-4.96,1.82-7.34.19-.83.52-2.42.85-4.09.26-1.29.52-2.64.74-3.77.02-.08.03-.15.04-.23.21,7.29-1.71,25.36-4.8,42.89Zm83.11,19.31c-1.44-3.16-2.67-6.13-3.81-8.95-.17-.64-.34-1.27-.5-1.89-.62-3.17-1.17-6.15-1.47-8.45,0,0,0,0,0-.01-2.54-14.45-4.29-29.27-4.71-38.11.04-1.32.11-2.57.21-3.71.06-.37.13-.73.2-1.09.01.06.02.12.04.19.21,1.09.47,2.45.74,3.77.36,1.82.72,3.58.92,4.48.56,2.38,1.17,4.84,1.82,7.34,1.07,4.16,2.22,8.4,3.28,12.45,1.44,5.48,2.72,10.61,3.48,14.69.03.16.05.31.08.46.15.84.28,1.64.37,2.37.2,1.55.95,12.31,4.52,25.93,0,.02,0,.03.01.05.01.04.02.08.03.12.41,1.55.86,3.14,1.35,4.75-2.01-4.4-4.54-9.93-6.56-14.37Z"/>
  </g>
</svg>