<?xml version="1.0" encoding="UTF-8"?>
<svg id="_레이어_2" data-name="레이어 2" xmlns="http://www.w3.org/2000/svg" viewBox="0 0 169.72 571.6">
  <defs>
    <style>
      .cls-1 {
        fill: #f2a7a9;
        stroke: #221714;
        stroke-miterlimit: 10;
      }
    </style>
  </defs>
  <g id="_레이어_1-2" data-name="레이어 1">
    <path class="cls-1" d="m3.76,336.48c1.03,1.36,2.04,3.05,3.64,4.88,2.26,2.59,2.58,2.72,3.51,1.26,1.2-1.91-.34-4.5.21-9.21.76-6.46,1.98-8.28,2.38-16.17.06-1.2.65,5.27,2.65,7.64,1.58,1.88,4.26,1.75,3.83.81-4.04-8.9-.5-14.6-2.25-21.41-.57-2.2-2.13-5.7-2.06-7.34.01-.15.03-.3.05-.44.29-3.78,2.14-8.44,4.72-14.29,1.39-3.14,2.55-5.82,3.74-8.77,1.92-7.76,4.48-13.74,6.46-18.8.07-.19.85-1.89,1.99-4.39,5.69-17.22,6.67-32.14,6.9-33.97.11-.87.27-1.82.46-2.83,1.63-8.91,5.84-22.76,8.58-34.48.43-1.85,1.48-7.31,1.92-9.6,3.19,12.91,3.08,33.74-1.61,43.75-2.54,5.53-4.84,12.12-8.25,19.61-2.54,5.59-5.89,12.91-8,17.52-.2.61-.41,1.22-.62,1.83-.35,1.01-.69,1.97-1.01,2.89-3.04,8.69-4.98,13.92-6.83,18.47-1.55,6.25-2.69,13.67-2.77,22.72-.04,4.28.15,8.91.65,13.97,1.24,12.52,10.39,39.26,13.81,52.03,7.6,28.38,11.9,45.41,12.46,55.42.72,12.92-.94,16.97-2.43,24.79-2.89,15.21-.78,28.37,2.65,40.42,6.34,22.28,12.99,32.19,13.66,43.89.17,2.91-1.91,4.14-.76,7.83.59,1.92,1.6,3.76.07,8.04-5.17,14.48-11.89,18.28-11.1,23.57.88,5.86,19.55,5.49,26.85,4.17,6.01-1.09,5.93-10.06,4.2-20.34-.35-2.07-.53-4.4-.39-7.96.06-1.75.51-3.8.75-6.28.22-2.28-.41-4.68-.75-6.59-.26-1.45-.53-2.61-.57-3.21-1.62-22.39-1.12-27.76,1.55-48.8,2.7-21.26-1.08-25.08-.61-38.08.29-7.7,2.5-15.58,3.09-23.92.75-10.47-.28-20.35-1.33-27.79-2.89-20.57-2.88-23.89-3.81-40.16-1.02-17.66,4.34-26.31,1.28-41.54.71.26,2.45.36,4.17.37h0c1.72,0,3.46-.11,4.17-.37-3.06,15.23,2.3,23.88,1.28,41.54-.93,16.27-.92,19.59-3.81,40.16-1.05,7.44-2.08,17.32-1.33,27.79.59,8.34,2.8,16.22,3.09,23.92.47,13-3.31,16.82-.61,38.08,2.67,21.04,3.17,26.41,1.55,48.8-.04.6-.31,1.76-.57,3.21-.34,1.91-.97,4.31-.75,6.59.24,2.48.69,4.53.75,6.28.14,3.56-.04,5.89-.39,7.96-1.73,10.28-1.81,19.25,4.2,20.34,7.3,1.32,25.97,1.69,26.85-4.17.79-5.29-5.93-9.09-11.1-23.57-1.53-4.28-.52-6.12.07-8.04,1.15-3.69-.93-4.92-.76-7.83.67-11.7,7.32-21.61,13.66-43.89,3.43-12.05,5.54-25.21,2.65-40.42-1.49-7.82-3.15-11.87-2.43-24.79.56-10.01,4.86-27.04,12.46-55.42,3.42-12.77,12.57-39.51,13.81-52.03.5-5.06.69-9.69.65-13.97-.08-9.06-1.22-16.47-2.77-22.72-1.85-4.56-3.78-9.78-6.83-18.47-.32-.92-.66-1.88-1.01-2.89-.21-.61-.42-1.22-.62-1.83-2.1-4.61-5.46-11.92-8-17.52-3.41-7.49-5.71-14.08-8.25-19.61-4.69-10.01-4.8-30.84-1.61-43.75.44,2.29,1.49,7.75,1.92,9.6,2.74,11.72,6.95,25.57,8.58,34.48.19,1.01.35,1.96.46,2.83.23,1.84,1.21,16.75,6.9,33.97,1.14,2.5,1.92,4.21,1.99,4.39,1.98,5.06,4.54,11.03,6.46,18.8,1.2,2.95,2.35,5.62,3.74,8.77,2.58,5.85,4.43,10.51,4.72,14.29.02.14.04.29.05.44.07,1.64-1.49,5.14-2.06,7.34-1.75,6.81,1.79,12.51-2.25,21.41-.43.94,2.25,1.07,3.83-.81,2-2.37,2.59-8.84,2.65-7.64.4,7.89,1.62,9.71,2.38,16.17.55,4.71-.99,7.3.21,9.21.93,1.46,1.25,1.33,3.51-1.26,1.6-1.83,2.61-3.52,3.64-4.88,1.99-2.64,3.06-5.25,3.24-10.7.13-4.11-.4-7.24-1.76-13.22-.6-2.63-1.26-4.1-2.13-11.5-.26-2.27-.27-3.59-.27-4.56,0-.56,0-1-.05-1.43-.33-3.06-1.72-4.02-2.48-9.76-1.46-10.89-2.42-18.98-3.78-30.34-.28-2.29-.57-4.71-.88-7.33-1.13-9.39-4.9-21.2-8.86-34.19-.23-.74-.45-1.48-.68-2.22-.4-1.34-1.26-11.48-1.59-16.82-.41-6.67-4.26-67.76-6.9-76.98-1.97-6.87-3.88-9.63-5.71-10.54h0s-1.49-.9-2.39-1.31c-.88-.4-1.84-.73-2.85-1.02l-26.1-13.37c-.33-.61-.65-1.26-.93-1.96-1.11-2.7-1.57-10.21-1.75-15.34,2.54-2.35,4.51-5.38,5.74-10.41.22-.9.48-1.97.74-3.12,2.78.98,3.5-3.3,4.02-4.54.56-1.36,1.32-1.49,2.07-4.5.51-2-.37-3.32-.01-4.61.24-.87.36-3.32-.75-4.16-.12-.09-.27-.14-.42-.18,1.64-6.27,2.7-16.51-.74-24.35-1.48-3.39-3.32-6.12-5.25-8.29-4.57-5.57-12.1-9.22-20.63-9.22s-16.06,3.65-20.63,9.22c-1.93,2.17-3.77,4.9-5.25,8.29-3.44,7.84-2.38,18.08-.74,24.35-.15.04-.3.09-.42.18-1.11.84-.99,3.29-.75,4.16.36,1.29-.52,2.61-.01,4.61.75,3.01,1.51,3.14,2.07,4.5.52,1.24,1.24,5.52,4.02,4.54.26,1.15.52,2.22.74,3.12,1.23,5.03,3.2,8.06,5.74,10.41-.18,5.13-.64,12.64-1.75,15.34-.29.7-.6,1.35-.93,1.96l-26.1,13.37c-1.01.29-1.97.63-2.85,1.02-.9.41-2.39,1.3-2.39,1.3h0c-1.83.92-3.74,3.68-5.71,10.55-2.64,9.22-6.49,70.31-6.9,76.98-.33,5.34-1.19,15.48-1.59,16.82-.23.74-.45,1.48-.68,2.22-3.96,12.99-7.73,24.8-8.86,34.19-.31,2.62-.6,5.04-.88,7.33-1.36,11.36-2.32,19.45-3.78,30.34-.76,5.74-2.15,6.7-2.48,9.76-.05.43-.05.87-.05,1.43,0,.97-.01,2.29-.27,4.56-.87,7.4-1.53,8.87-2.13,11.5-1.36,5.98-1.89,9.11-1.76,13.22.18,5.45,1.25,8.06,3.24,10.7Z"/>
  </g>
</svg>