<?xml version="1.0" encoding="UTF-8"?>
<svg id="_레이어_2" data-name="레이어 2" xmlns="http://www.w3.org/2000/svg" viewBox="0 0 169.12 571.62">
  <defs>
    <style>
      .cls-1 {
        fill: #f2a7a9;
        stroke: #221714;
        stroke-miterlimit: 10;
      }
    </style>
  </defs>
  <g id="_레이어_1-2" data-name="레이어 1">
    <path class="cls-1" d="m66.23,91.4l-25.36,12.99c-.3.08-.59.16-.88.25-.21.06-.42.13-.62.2-.27.09-.54.18-.8.28-.19.07-.37.14-.55.21-.65.27-1.59.8-1.78.88-.01,0-.03.02-.04.02-.77.37-1.85,1.09-2.18,1.53,0,0,0,0,0,0-1.41,1.21-2.86,3.67-4.35,8.45-.21.67-.43,1.48-.64,2.42-2.67,11.84-6.24,69.32-6.64,75.77-.27,4.41-.91,12.09-1.34,15.39-.09.69-.18,1.2-.25,1.43-.07.22-.13.44-.2.66-.16.52-.32,1.04-.48,1.56-3.99,12.98-7.73,24.8-8.86,34.19-.1.83-.19,1.64-.29,2.44-.11.93-.22,1.84-.33,2.73-.09.74-.18,1.46-.26,2.17-1.36,11.36-2.32,19.45-3.78,30.34-.58,4.4-1.45,5.76-1.99,7.96-.2.83-.48,1.53-.52,2.52-.02.54-.02,1.25-.14,2.45-.04.36-.06.72-.08,1.1-.07.98-.13,1.99-.28,3.16-.28,2.16-.61,3.05-.85,4.32-.18.93-.31,1.79-.44,2.57-.83,4.8-1.25,6.9-1.5,9.78-.5,5.72-.44,8.62.74,11.96.49,1.38,1.06,2.82,1.97,4.24,1.15,1.79,1.45,2.23,2.03,1.88.87-.05.5-.65,1.3-2.31.42-.25.86-.31,1.38-.28.28-.09.58-.14.92-.17,1.17.5,1.65.06,2.03-1.26.25-.87.19-1.94.43-3.3.05-.26.14-.28.22-.16,0,0,.02-.01.02-.02,0,0,0-.01.02-.02.38-.17.2.57,1.17-.58.9-.04,2.42-.88,2.31-2.05-.25-2.43-.33-4.53-.31-7.08.01-1.24.04-2.52.1-3.89,0-.06,0-.1.01-.13.13-1.91.73-.7,1.2-1.41.41-.28.68-1.98.89-3.11.02-.12.04-.25.02-.39-1.28-5.04.03-9.74,1.48-14.95.74-2.64,1.35-4.98,1.74-7.57.04-1.92-.18-4.18-.1-6.01.02-.4.04-.79.11-1.13.01-.08.03-.16.05-.25.02-.07.03-.13.05-.2.81-3.7,2.29-7.5,4.01-11.59.15-.35.56-1.27,1.14-2.55.31-.79.61-1.57.9-2.33.01-.04.03-.07.04-.11.28-.74.55-1.47.81-2.19.01-.04.03-.07.04-.11,2.58-7.14,4.43-13.75,6.65-22.22.26-.98.47-1.94.7-2.88.05-.19.09-.38.13-.57,0-.01,0-.03,0-.04.19-1.44.3-2.43.36-2.8.1-.57.21-1.19.37-1.82.05-.22.12-.44.17-.67.09-.33.17-.66.26-.99.04-.15.08-.3.12-.45.1-.39.21-.79.31-1.19.02-.08.04-.15.06-.23.12-.46.24-.92.36-1.38,0,0,0-.01,0-.02,3-11.79,5.32-23.46,6.44-29.22.12-.61.25-1.4.42-2.27.03-.14.05-.28.08-.43.45-2.31,1.03-5.15,1.52-7.33.53-.09,1.07-.18,1.59-.27.82-.14,1.59-.23,2.14-.33.38-.07.67-.18.85-.21.04.24.11.11.17-.07,0,.39-.01.78-.02,1.17-.61,2.46-1.5,5.71-2.66,9.39-.01.05-.02.09-.03.14-1.57,5.72-2.46,12.54-3.87,20.93-.66,3.85-1.18,6.97-1.68,9.72-.87,4.9-1.52,7.98-2.71,13.64-.39,1.47-.82,3.01-1.25,4.67-2.47,9.65-3.41,11.86-5.36,20.65-1.24,4.91-2.57,10.56-3.43,17.43-.01.05-.02.25-.03.3-.49,4.24-.8,8.93-.8,14.17,0,2.42.13,5.14.4,8.09,0,.04.02.23.02.27.35,3.97.88,8.35,1.67,12.98,1.7,9.88,5.45,23.23,8.01,33.25,1.59,6.24,3.06,12,4.15,16.68,4.42,18.83,7.28,31.9,8.34,40.92.61,5.21.82,9.21.78,12.49-.07,5.5-.58,9.26-1.18,13.39-.52,3.59-1.05,6.77-1.47,10.4-1.31,11.65-.08,22.09,2.08,31.78.54,2.4,1.11,4.71,1.71,6.94,5.05,18.88,10.07,28.42,11.07,38.81.12,1.22,0,2.27-.1,3.35-.15,1.64-.72,2.89-.55,4.83.07.79.23,1.63.46,2.66.33,1.46.68,3.06,0,5.76-.16.64-.35,1.3-.58,1.99-4.54,13.7-10.23,17.45-9.54,22.62.79,5.86,17.35,5.49,23.84,4.17,5.34-1.09,5.27-10.06,3.73-20.34-.31-2.08-.47-4.4-.35-7.96.06-1.75.46-3.8.67-6.28.19-2.28-.37-4.69-.67-6.59-.23-1.45-.47-2.61-.51-3.22-1.43-22.38-.99-27.75,1.39-48.79,2.39-21.26-.97-25.08-.55-38.08.25-7.71,2.22-15.58,2.75-23.92.66-10.47-.25-20.35-1.18-27.8-2.58-20.57-2.56-23.89-3.39-40.15-.9-17.66,3.85-26.31,1.14-41.54.63.26,2.17.36,3.7.37,1.53-.01,3.07-.11,3.7-.37-2.71,15.23,2.04,23.88,1.14,41.54-.83,16.26-.81,19.58-3.39,40.15-.93,7.45-1.84,17.33-1.18,27.8.53,8.34,2.5,16.21,2.75,23.92.42,13-2.94,16.82-.55,38.08,2.38,21.04,2.82,26.41,1.39,48.79-.04.61-.28,1.77-.51,3.22-.3,1.9-.86,4.31-.67,6.59.21,2.48.61,4.53.67,6.28.12,3.56-.04,5.88-.35,7.96-1.54,10.28-1.61,19.25,3.73,20.34,6.49,1.32,23.05,1.69,23.84-4.17.7-5.29-5.27-9.09-9.86-23.57-1.36-4.28-.46-6.12.07-8.04,1.01-3.7-.83-4.92-.68-7.83.6-11.7,6.5-21.61,12.13-43.89,3.04-12.05,4.91-25.21,2.35-40.42-1.32-7.83-2.8-11.87-2.15-24.79.49-10.01,4.31-27.04,11.06-55.43,3.03-12.77,11.16-39.5,12.26-52.02.43-4.94.6-9.48.58-13.67v-.3c-.16-20.09-4.92-32.12-8.09-41.22-2.6-9.46-2.7-7.48-5.54-21.53-.36-1.77-.67-3.42-.96-4.98-.85-5.38-1.57-10.22-2.81-14.93,0-.06-.02-.12-.03-.18-5.27-15.83-5.92-34.05-4.71-43.2.1-.04.21-.04.33,0,.06.29.12.61.19.96.22,1.13.48,2.48.74,3.77.33,1.67.65,3.26.85,4.09.56,2.38,1.17,4.84,1.82,7.34,1.07,4.17,2.22,8.41,3.29,12.46,1.44,5.48,2.72,10.6,3.48,14.68.03.16.06.31.08.47.15.83.28,1.63.37,2.37.21,1.65,1.11,13.75,5.27,28.66,0,0,0,.02,0,.02.13.47.27.94.41,1.42.02.08.05.17.07.25.12.41.25.82.37,1.23.05.15.1.31.14.46.11.34.22.69.33,1.03.15.48.31.95.47,1.43.11.28.22.55.32.81.08.19.15.39.23.57,0,.01.01.03.02.04.3.69.51,1.16.56,1.32.35.96.7,1.9,1.05,2.85,2.02,5.5,3.82,10.28,5.35,15.2,1.32,3.34,2.53,6.18,3.96,9.44.35.79.7,1.59,1.04,2.39,1.07,2.46,1.98,4.69,2.69,6.74.65,1.89,1.12,3.62,1.35,5.21.03.15.05.3.07.45.07.55.06,1.17-.01,1.81,0,.06,0,.12-.01.19,0,.08,0,.16-.02.23-.04.35-.13.74-.25,1.16-.35,1.3-.91,2.8-1.3,4.08-.21.71-.39,1.4-.51,2.04-1.17,6.17,1.57,11.58-1.72,19.57-.21.51-.02.91.28,1.14.02.06.08.11.16.14.46.17,1.5-.04,2.41-.74.39-.3.76-.71,1.08-1.21,1.34-2.15,1.87-5.98,2.07-6.37.09-.18.15-.22.19.02,0,.04.01.09.01.15.09,1.51.22,2.79.36,3.93.52,4.13,1.32,6.35,1.89,10.85.05.42.1.85.13,1.28.33,3.98-.79,6.37-.01,8.15.01.03.02.06.04.09.01.03.03.06.05.09.11.23.22.42.36.59.1.12.2.21.29.29.63.53,1.15.15,2.7-1.6.17-.19.34-.39.51-.59.52-.62.97-1.21,1.39-1.79.66-.91,1.23-1.75,1.78-2.51.14-.19.28-.38.41-.57,1-1.37,1.75-2.76,2.26-4.57.21-.75.38-1.58.51-2.51.13-.92.21-1.94.26-3.09,0-.16.01-.32.02-.48.1-4-.43-7.12-1.77-12.99-.52-2.29-1.09-3.7-1.8-8.89-.11-.78-.22-1.64-.33-2.6-.06-.53-.11-1-.14-1.43-.12-1.43-.13-2.39-.13-3.14,0-.42,0-.78-.03-1.11,0-.11-.01-.21-.02-.32-.09-.83-.26-1.5-.47-2.16-.57-1.77-1.46-3.41-2.01-7.6-1.46-10.89-2.42-18.98-3.78-30.34-.09-.71-.17-1.43-.26-2.16-.11-.88-.21-1.79-.33-2.71-.1-.8-.19-1.62-.29-2.46-1.13-9.39-4.86-21.21-8.86-34.19-.19-.63-.39-1.26-.58-1.89-.05-.17-.11-.39-.16-.64-.07-.3-.14-.8-.22-1.43-.44-3.43-1.04-10.8-1.31-15.08-.4-6.56-4.14-65.81-6.77-76.45-.1-.39-.19-.75-.29-1.07-1.73-5.83-3.41-8.53-5.03-9.64,0,0,0,0,0,0-.17-.15-.6-.42-1.07-.67,0,0,0,0,0,0-.21-.12-.74-.42-1.25-.68-.03-.01-.05-.02-.08-.04-.38-.19-.77-.37-1.13-.51-.18-.07-.35-.14-.53-.21-.26-.1-.53-.19-.79-.28-.03,0-.06-.02-.09-.03l-26.86-13.76v.22c-.35-.64-.68-1.31-.98-2.05-1.11-2.7-1.57-10.21-1.75-15.34,2.54-2.35,4.51-5.38,5.74-10.41.22-.9.48-1.97.74-3.12.7.24,1.26.16,1.73-.12,1.4-.85,1.91-3.49,2.29-4.42.56-1.36,1.31-1.49,2.07-4.5.5-2-.37-3.32-.01-4.61.24-.87.36-3.32-.75-4.16-.1-.07-.22-.12-.34-.15-.02-.03-.04-.06-.06-.09,1.63-6.28,2.67-16.47-.76-24.28-1.48-3.39-3.32-6.12-5.25-8.29-4.57-5.57-12.1-9.22-20.63-9.22-2.54,0-4.99.33-7.31.93-5.45,1.42-10.12,4.38-13.33,8.29-1.93,2.17-3.77,4.9-5.25,8.29-3.44,7.84-2.38,18.08-.74,24.35-.15.04-.3.09-.41.18,0,0,0,0,0,0h0s0,0,0,0c-1.1.84-.98,3.29-.74,4.16.35,1.29-.52,2.6-.01,4.61.76,3,1.5,3.14,2.07,4.5.52,1.24,1.24,5.52,4.02,4.54.26,1.15.52,2.22.74,3.12,1.23,5.03,3.2,8.06,5.74,10.41-.18,5.13-.64,12.64-1.75,15.34-.32.78-.67,1.5-1.05,2.17Z"/>
  </g>
</svg>