<?xml version="1.0" encoding="UTF-8"?>
<svg id="_레이어_2" data-name="레이어 2" xmlns="http://www.w3.org/2000/svg" viewBox="0 0 169.75 571.93">
  <defs>
    <style>
      .cls-1 {
        fill: #f2a7a9;
        stroke: #221714;
        stroke-miterlimit: 10;
      }
    </style>
  </defs>
  <g id="_레이어_1-2" data-name="레이어 1">
    <path class="cls-1" d="m3.76,336.48c1.03,1.36,2.04,3.05,3.63,4.88.74.85,1.26,1.41,1.66,1.74.02.02.04.04.06.06,0,0,.01.01.02.02.83.69,1.18.42,1.79-.54.45-.71.51-1.52.44-2.5-.08-1.64-.57-3.75-.23-6.72.76-6.46,1.98-8.28,2.38-16.17,0,0,0-.01,0-.02.14-.19.77,5.48,2.61,7.66.19.23.4.42.62.58.01,0,.02.02.04.02.19.14.38.26.57.37.02.01.04.03.06.04.07.04.15.07.22.11.01,0,.02.01.03.02.03.01.06.02.09.03,0,0,.02,0,.03.01,1.29.53,2.5.28,2.2-.37-.08-.18-.15-.36-.22-.54-.2-.47-.38-.94-.54-1.39-.02-.06-.05-.12-.07-.18,0,0,0,0,0,0-.16-.46-.29-.91-.41-1.35-.01-.05-.03-.1-.04-.15,0,0,0,0,0,0-.12-.45-.22-.9-.31-1.34,0-.04-.02-.07-.02-.11-.09-.46-.16-.91-.22-1.36,0-.01,0-.02,0-.04-.21-1.72-.21-3.32-.14-4.88,0-.17.01-.35.02-.52.12-2.22.33-4.34.18-6.51,0-.09-.01-.18-.02-.27-.02-.22-.04-.44-.07-.66-.02-.15-.04-.3-.06-.46-.03-.2-.06-.4-.1-.6-.04-.21-.09-.42-.13-.63-.03-.14-.05-.28-.09-.42-.25-.98-.7-2.21-1.12-3.43-.46-1.35-.86-2.66-.92-3.58,0-.11-.02-.24-.02-.33,0-.15.03-.3.05-.44.29-3.78,2.14-8.44,4.72-14.29,1.48-3.35,2.7-6.16,3.98-9.34,0,0,0-.02,0-.03.2-.5.4-1,.61-1.53-1.94,6.74-3.53,14.87-3.62,25.18-.04,4.27.15,8.91.65,13.96,1.24,12.52,10.39,39.26,13.81,52.03,7.6,28.39,11.9,45.41,12.46,55.42.72,12.92-.94,16.97-2.43,24.79-2.89,15.22-.78,28.37,2.65,40.42,6.34,22.29,12.99,32.19,13.66,43.89.17,2.92-1.91,4.14-.76,7.83.59,1.92,1.6,3.76.07,8.04-5.17,14.49-11.89,18.28-11.1,23.57.88,5.86,19.55,5.5,26.85,4.17,6.01-1.08,5.93-10.06,4.2-20.33-.35-2.08-.53-4.4-.39-7.96.06-1.76.51-3.81.75-6.28.22-2.28-.41-4.69-.75-6.6-.26-1.44-.53-2.6-.57-3.21-1.62-22.38-1.12-27.75,1.55-48.79,2.7-21.27-1.08-25.08-.61-38.09.29-7.7,2.5-15.58,3.09-23.92.75-10.46-.28-20.35-1.33-27.79-2.89-20.57-2.88-23.89-3.81-40.16-1.02-17.65,4.34-26.31,1.28-41.54.71.27,2.45.36,4.17.38h0c1.72-.02,3.46-.11,4.17-.38-3.06,15.23,2.3,23.89,1.28,41.54-.93,16.27-.92,19.59-3.81,40.16-1.05,7.44-2.08,17.33-1.33,27.79.59,8.34,2.8,16.22,3.09,23.92.47,13.01-3.31,16.82-.61,38.09,2.67,21.04,3.17,26.41,1.55,48.79-.04.61-.31,1.77-.57,3.21-.34,1.91-.97,4.32-.75,6.6.24,2.47.69,4.52.75,6.28.14,3.56-.04,5.88-.39,7.96-1.73,10.27-1.81,19.25,4.2,20.33,7.3,1.33,25.97,1.69,26.85-4.17.79-5.29-5.93-9.08-11.1-23.57-1.53-4.28-.52-6.12.07-8.04,1.15-3.69-.93-4.91-.76-7.83.67-11.7,7.32-21.6,13.66-43.89,3.43-12.05,5.54-25.2,2.65-40.42-1.49-7.82-3.15-11.87-2.43-24.79.56-10.01,4.86-27.03,12.46-55.42,3.42-12.77,12.57-39.51,13.81-52.03.5-5.05.69-9.69.65-13.96-.09-10.31-1.68-18.44-3.62-25.18.16.4.31.79.47,1.18.04.11.07.23.11.34,1.28,3.2,2.5,6.02,3.99,9.38,2.58,5.85,4.43,10.51,4.72,14.28.02.14.04.3.05.44.07,1.65-1.49,5.15-2.05,7.34-1.75,6.81,1.78,12.51-2.25,21.41-.16.35.11.58.59.65,0,0,0,0,0,0,.04,0,.08,0,.13.01,0,0,0,0,.01,0,.03,0,.06,0,.1,0,0,0,.01,0,.02,0,.07,0,.15,0,.23,0,.02,0,.04,0,.06,0,.05,0,.11-.02.17-.03.06,0,.11-.01.17-.02,0,0,.02,0,.02,0,.18-.04.36-.08.55-.15.01,0,.03,0,.04-.01.18-.07.37-.16.56-.26,0,0,.01,0,.02-.01.01,0,.02-.01.04-.02,0,0,.02,0,.02-.01.18-.1.36-.22.53-.36,0,0,0,0,0,0,.02-.02.05-.04.07-.06,0,0,0,0,0,0,.16-.14.32-.29.46-.46.01-.02.03-.03.05-.05,1.85-2.19,2.49-7.92,2.62-7.67,0,.02,0,.04,0,.07.4,7.86,1.62,9.68,2.37,16.13.55,4.71-.99,7.31.21,9.21.32.51.57.82.86.9,0,0,0,0,0,0,0,0,0,0,0,0,.07.02.14.04.22.03.01,0,.02,0,.03,0,.02,0,.05-.01.08-.02.08-.02.17-.05.27-.11,0,0,.01,0,.02,0,.02-.01.05-.03.07-.04.05-.03.1-.07.16-.11,0,0,0,0,0,0,.02-.02.05-.04.07-.06,0,0,.02-.01.03-.02.05-.04.09-.08.14-.12,0,0,0,0,0,0,.04-.04.08-.07.12-.11,0,0,0,0,.01,0,.04-.04.09-.08.13-.13,0,0,0,0,0,0,.06-.06.11-.11.17-.18,0,0,0,0,0,0,.02-.02.04-.04.05-.06.3-.32.65-.7,1.07-1.18,1.6-1.83,2.61-3.52,3.64-4.88,1.99-2.64,3.06-5.25,3.24-10.7.13-4.11-.4-7.24-1.76-13.22-.6-2.63-1.26-4.1-2.13-11.5-.26-2.27-.27-3.59-.27-4.56,0-.56,0-1-.05-1.43-.34-3.06-1.72-4.02-2.48-9.76-1.46-10.89-2.42-18.98-3.78-30.34-.28-2.29-.57-4.71-.88-7.33-1.13-9.39-4.87-21.21-8.86-34.19-.23-.74-.45-1.48-.68-2.22-.41-1.34-1.26-11.48-1.59-16.82-.41-6.67-4.26-67.76-6.9-76.98-1.97-6.87-3.88-9.63-5.71-10.54h0s-1.49-.9-2.39-1.31c-.67-.3-1.39-.56-2.14-.79-.16-.05-.31-.1-.47-.15-.07-.02-.15-.04-.22-.06l-26.12-13.38c-.33-.62-.65-1.27-.94-1.97-1.11-2.7-1.57-10.21-1.75-15.34,2.54-2.35,4.51-5.38,5.74-10.41.22-.9.48-1.96.74-3.11.15.05.3.08.44.11.01,0,.03,0,.04.01.11.02.22.01.32.01.03,0,.07,0,.11,0,0,0,0,0,0,0,.07,0,.14-.02.21-.04.03,0,.07-.01.1-.02.02,0,.04,0,.06-.01,0,0,.01,0,.02,0,.06-.02.12-.05.18-.07.01,0,.03-.01.04-.02.04-.02.08-.04.12-.06,0,0,.01,0,.02,0,.05-.03.1-.06.15-.1,0,0,.01-.01.02-.02.05-.03.1-.07.14-.11,0,0,0,0,.01,0,.04-.04.08-.07.13-.11,0,0,0,0,0,0,.05-.05.11-.11.16-.17,0,0,0,0,0,0,.03-.04.06-.07.09-.11,0,0,0,0,0,0,.91-1.13,1.31-3.05,1.63-3.82,0-.01.01-.03.02-.04.07-.16.14-.3.21-.43.02-.03.03-.06.05-.09.06-.11.13-.22.2-.33.24-.38.51-.73.78-1.28,0,0,0-.01,0-.02.05-.1.1-.21.15-.33,0-.02.02-.04.03-.06.05-.12.1-.25.15-.38,0,0,0-.02,0-.03.15-.41.31-.9.46-1.51.5-2-.37-3.32-.01-4.61.24-.87.36-3.32-.75-4.16-.12-.09-.27-.14-.42-.18,1.64-6.27,2.7-16.51-.74-24.35-1.48-3.39-3.32-6.12-5.25-8.29-4.57-5.57-12.1-9.22-20.63-9.22-.54,0-1.08.01-1.61.04-7.88.42-14.77,3.95-19.06,9.18-1.93,2.16-3.77,4.9-5.25,8.29-3.44,7.84-2.38,18.08-.74,24.34-.16.04-.3.09-.42.18-1.11.84-.99,3.29-.75,4.16.35,1.29-.52,2.6-.01,4.61.76,3,1.5,3.14,2.07,4.5.39.93.89,3.56,2.3,4.4,0,0,0,0,0,0,0,0,.01,0,.02,0,.09.05.18.1.28.14.01,0,.03.01.04.02.04.02.08.02.12.03.06.02.11.03.17.04.03,0,.05.01.08.02.07.01.15,0,.23,0,.03,0,.06,0,.09,0,.14,0,.29-.03.45-.06.08.07.17.12.25.17.03.04.05.09.08.13.23,1,.46,1.95.65,2.75,1.23,5.03,3.2,8.06,5.74,10.41-.18,5.13-.64,12.64-1.75,15.34-.29.71-.61,1.36-.94,1.97l-26.07,13.36c-1.02.29-1.99.63-2.87,1.03-.9.41-2.39,1.3-2.39,1.3v.02c-1.83.91-3.74,3.67-5.71,10.54-2.64,9.21-6.49,70.3-6.9,76.97-.33,5.34-1.19,15.48-1.6,16.82-.23.75-.45,1.48-.67,2.23-3.97,12.99-7.73,24.8-8.86,34.19-.32,2.62-.61,5.04-.88,7.33-1.36,11.36-2.33,19.44-3.78,30.33-.77,5.75-2.16,6.7-2.49,9.76-.05.44-.04.88-.04,1.43,0,.97,0,2.29-.27,4.57-.86,7.39-1.52,8.87-2.12,11.5-1.36,5.98-1.9,9.1-1.76,13.22.17,5.45,1.25,8.06,3.24,10.7Zm131.08-93.73c-.93-2.33-2.18-5.25-4.25-10.03-2.55-5.89-4.31-10.58-5.98-14.82-.3-1.64-.57-3.14-.84-4.45,0,0,0,0,0,0-3.55-16.03-6.93-23.16-4.71-42.8.01-.07.02-.14.03-.21.08-.05.17-.04.27-.02.04.12.09.24.13.38.49,2.54,1.29,6.63,1.65,8.18,2.74,11.72,6.95,25.57,8.58,34.48.18,1,.34,1.96.45,2.82.2,1.57.94,12.6,4.67,26.47Zm-95.27-26.47c.11-.87.27-1.82.46-2.83,1.65-8.91,5.84-22.76,8.58-34.48.43-1.83,1.46-7.18,1.9-9.52.04.21.09.43.13.64,0,.04.01.07.02.11.04.25.08.49.12.73,0,.06.02.12.02.18,2.09,18.66-1.31,26.17-4.85,42.34,0,0,0,0,0,0-.28,1.37-.57,2.95-.88,4.66-1.64,4.18-3.39,8.81-5.89,14.6-2.11,4.88-3.37,7.83-4.31,10.18,3.76-13.94,4.51-25.05,4.7-26.62Z"/>
  </g>
</svg>