<?xml version="1.0" encoding="UTF-8"?>
<svg id="_레이어_2" data-name="레이어 2" xmlns="http://www.w3.org/2000/svg" viewBox="0 0 169.77 571.93">
  <defs>
    <style>
      .cls-1 {
        fill: #f2a7a9;
        stroke: #221714;
        stroke-miterlimit: 10;
      }
    </style>
  </defs>
  <g id="_레이어_1-2" data-name="레이어 1">
    <path class="cls-1" d="m165.36,301.06c-.26-2.27-.27-3.59-.27-4.56,0-.56,0-1-.05-1.43-.34-3.06-1.72-4.02-2.48-9.76-1.46-10.89-2.42-18.98-3.78-30.34-.28-2.29-.57-4.71-.88-7.33-1.13-9.39-4.87-21.21-8.86-34.19-.23-.74-.45-1.48-.68-2.22-.41-1.34-1.26-11.48-1.59-16.82-.41-6.67-4.26-67.76-6.9-76.98-1.97-6.87-3.88-9.63-5.71-10.54h0s-1.49-.9-2.39-1.31c-.38-.17-.77-.32-1.18-.47-.3-.11-.62-.22-.94-.32,0,0-.01,0-.02,0-.16-.05-.31-.1-.47-.15-.01,0-.02,0-.03,0-.07-.02-.14-.04-.21-.06l-26.09-13.37c-.33-.62-.65-1.27-.94-1.98-1.11-2.7-1.57-10.21-1.75-15.34,2.54-2.35,4.51-5.38,5.74-10.41.22-.9.48-1.96.74-3.1.19.06.37.1.55.11.09,0,.17.01.26,0,.03,0,.07,0,.11,0,0,0,0,0,0,0,.07,0,.14-.02.21-.04.03,0,.07-.01.1-.02.01,0,.02,0,.04,0,0,0,.01,0,.01,0,0,0,0,0,.01,0,0,0,.01,0,.02,0,.06-.02.12-.05.18-.07.01,0,.03-.01.04-.02,0,0,.02,0,.03-.01.03-.01.05-.02.08-.04,0,0,.01,0,.02,0,0,0,.01,0,.02,0,.05-.03.1-.06.15-.1,0,0,.01-.01.02-.02,0,0,.01,0,.02-.01.03-.02.07-.05.1-.08,0,0,.01,0,.02-.01,0,0,0,0,.01,0,.04-.04.08-.07.13-.11,0,0,0,0,0,0,0,0,.01-.01.02-.02.04-.04.07-.08.11-.12.01-.01.02-.02.03-.03,0,0,0,0,0,0,.03-.04.06-.07.09-.11,0,0,0,0,0,0,0,0,0-.01.01-.02.11-.13.21-.28.3-.43,0-.02.02-.03.03-.05.08-.14.16-.28.23-.42.02-.03.03-.06.05-.1.15-.32.28-.65.4-.97.02-.06.04-.12.06-.18.03-.09.06-.17.09-.25.19-.57.33-1.08.47-1.39,0-.01.01-.03.02-.04.07-.16.14-.3.21-.43.02-.03.03-.06.05-.09.06-.11.13-.22.2-.33.13-.21.28-.41.42-.64.04-.06.08-.13.12-.19.02-.03.04-.06.06-.1.06-.1.11-.21.17-.32,0-.01.01-.02.02-.03,0,0,0-.01,0-.02.01-.03.03-.06.04-.08.03-.06.06-.13.09-.2,0-.02.01-.03.02-.05,0-.02.02-.04.03-.06,0-.02.01-.03.02-.05.03-.08.07-.16.1-.25.01-.03.02-.06.04-.09,0,0,0-.02,0-.03,0,0,0-.02.01-.03.06-.17.13-.36.19-.57.02-.06.04-.14.06-.2.05-.17.1-.36.15-.56.01-.05.03-.09.04-.15.5-2-.37-3.32-.01-4.61.24-.87.36-3.32-.75-4.16-.12-.09-.27-.14-.42-.18,1.64-6.27,2.7-16.51-.74-24.35-1.48-3.39-3.32-6.12-5.25-8.29-4.57-5.57-12.1-9.22-20.63-9.22h0c-.05,0-.1,0-.15,0-.49,0-.97.01-1.46.04-.2.01-.4.03-.6.05-7.64.56-14.3,4.03-18.48,9.13-1.93,2.16-3.77,4.9-5.25,8.29-3.44,7.84-2.38,18.08-.74,24.34-.16.05-.3.1-.42.19-1.11.84-.99,3.29-.75,4.16.35,1.29-.52,2.6-.01,4.61.76,3,1.5,3.13,2.07,4.5.44,1.06,1.04,4.33,2.94,4.64,0,0,0,0,0,0,.03,0,.05.01.08.02.02,0,.05,0,.07,0,.06,0,.13,0,.19,0,.02,0,.04,0,.05,0,.04,0,.09-.01.13-.02.06,0,.11,0,.17-.02.07.02.15.02.23.03.05.04.11.08.17.11.02.03.03.05.05.08.24,1.02.47,1.99.67,2.8,1.23,5.03,3.2,8.06,5.74,10.41-.18,5.13-.64,12.64-1.75,15.34-.29.71-.61,1.36-.94,1.98l-26.04,13.34c-1.03.3-2.01.63-2.9,1.04-.9.41-2.38,1.3-2.38,1.3v.02c-1.84.91-3.74,3.66-5.71,10.54-2.64,9.21-6.49,70.3-6.9,76.97-.33,5.34-1.19,15.48-1.6,16.82-.22.75-.45,1.49-.67,2.23-3.94,13-7.73,24.8-8.86,34.19-.32,2.61-.61,5.03-.88,7.33-1.36,11.36-2.33,19.44-3.78,30.33-.77,5.75-2.17,6.71-2.49,9.76-.04.44-.04.88-.04,1.43,0,.97,0,2.29-.28,4.57-.86,7.39-1.52,8.86-2.12,11.5-1.36,5.98-1.9,9.1-1.76,13.22.17,5.44,1.25,8.05,3.24,10.69,1.03,1.36,2.04,3.05,3.63,4.88.89,1.02,1.46,1.63,1.9,1.91.73.54,1.08.26,1.66-.65.34-.54.45-1.15.46-1.84.03-.84-.13-1.83-.24-3,0-.05,0-.1-.01-.15-.03-.36-.06-.74-.08-1.14,0-.03,0-.06,0-.09-.02-.38-.02-.79-.01-1.2,0-.13,0-.26.01-.39.02-.41.04-.84.09-1.28,0-.04,0-.08.01-.12.76-6.46,1.98-8.28,2.38-16.17,0,0,0-.01,0-.02h0c.17.3.83,5.58,2.59,7.67.61.73,1.39,1.13,2.07,1.31,1.13.34,2.08.08,1.81-.5-.04-.08-.07-.17-.1-.25,0,0,0,0,0,0-.1-.23-.18-.46-.27-.69-.13-.33-.27-.67-.38-.99-.01-.04-.03-.07-.04-.11-.05-.16-.1-.31-.15-.46-.1-.33-.21-.65-.3-.97,0-.03-.02-.06-.03-.09-.04-.14-.07-.28-.1-.42-.08-.33-.16-.66-.22-.98,0-.02,0-.04-.01-.06-.03-.13-.04-.26-.06-.39-.06-.34-.12-.69-.16-1.02-.02-.15-.03-.29-.04-.43-.17-1.57-.16-3.05-.1-4.48,0-.17.01-.35.02-.52.03-.62.07-1.24.11-1.85.1-1.55.17-3.07.07-4.61,0-.02,0-.04,0-.05,0-.09-.01-.18-.02-.27,0-.01,0-.02,0-.04-.02-.18-.04-.36-.06-.54,0-.03,0-.05,0-.08-.02-.15-.04-.3-.06-.46,0-.02,0-.04-.01-.06-.02-.16-.05-.33-.08-.49,0-.01,0-.03,0-.04-.04-.21-.09-.42-.13-.63-.03-.14-.05-.28-.09-.42-.25-.98-.7-2.21-1.12-3.43-.46-1.35-.86-2.66-.92-3.58,0-.11-.02-.24-.02-.33,0-.15.03-.3.05-.44.29-3.78,2.14-8.44,4.72-14.29,1.48-3.35,2.7-6.16,3.98-9.34,0,0,0-.02,0-.03.2-.5.4-1,.61-1.53-1.94,6.74-3.53,14.87-3.62,25.18-.04,4.27.15,8.91.65,13.96,1.24,12.52,10.39,39.26,13.81,52.03,7.6,28.39,11.9,45.41,12.46,55.42.72,12.92-.94,16.97-2.43,24.79-2.89,15.22-.78,28.37,2.65,40.42,6.34,22.29,12.99,32.19,13.66,43.89.17,2.92-1.91,4.14-.76,7.83.59,1.92,1.6,3.76.07,8.04-5.17,14.49-11.89,18.28-11.1,23.57.88,5.86,19.55,5.5,26.85,4.17,6.01-1.08,5.93-10.06,4.2-20.33-.35-2.08-.53-4.4-.39-7.96.06-1.76.51-3.81.75-6.28.22-2.28-.41-4.69-.75-6.6-.26-1.44-.53-2.6-.57-3.21-1.62-22.38-1.12-27.75,1.55-48.79,2.7-21.27-1.08-25.08-.61-38.09.29-7.7,2.5-15.58,3.09-23.92.75-10.46-.28-20.35-1.33-27.79-2.89-20.57-2.88-23.89-3.81-40.16-1.02-17.65,4.34-26.31,1.28-41.54.71.27,2.45.36,4.17.38h0c1.72-.02,3.46-.11,4.17-.38-3.06,15.23,2.3,23.89,1.28,41.54-.93,16.27-.92,19.59-3.81,40.16-1.05,7.44-2.08,17.33-1.33,27.79.59,8.34,2.8,16.22,3.09,23.92.47,13.01-3.31,16.82-.61,38.09,2.67,21.04,3.17,26.41,1.55,48.79-.04.61-.31,1.77-.57,3.21-.34,1.91-.97,4.32-.75,6.6.24,2.47.69,4.52.75,6.28.14,3.56-.04,5.88-.39,7.96-1.73,10.27-1.81,19.25,4.2,20.33,7.3,1.33,25.97,1.69,26.85-4.17.79-5.29-5.93-9.08-11.1-23.57-1.53-4.28-.52-6.12.07-8.04,1.15-3.69-.93-4.91-.76-7.83.67-11.7,7.32-21.6,13.66-43.89,3.43-12.05,5.54-25.2,2.65-40.42-1.49-7.82-3.15-11.87-2.43-24.79.56-10.01,4.86-27.03,12.46-55.42,3.42-12.77,12.57-39.51,13.81-52.03.5-5.05.69-9.69.65-13.96-.09-10.31-1.68-18.44-3.62-25.18.06.15.12.3.18.44.13.36.26.71.38,1.07,1.29,3.2,2.51,6.03,3.99,9.39,2.59,5.84,4.44,10.51,4.73,14.28.01.14.04.3.04.44.08,1.65-1.49,5.15-2.05,7.35-1.75,6.81,1.78,12.51-2.25,21.4-.19.41.22.66.87.67h0c.07,0,.14,0,.21,0,.02,0,.04,0,.06,0,0,0,.02,0,.03,0,.05,0,.1-.02.16-.03.06,0,.11-.01.17-.02,0,0,0,0,0,0,0,0,0,0,.01,0,0,0,.02,0,.02,0,.18-.04.36-.08.55-.15.01,0,.03,0,.04-.01.18-.07.37-.16.56-.26,0,0,.01,0,.02-.01h0s0,0,0,0c0,0,.01,0,.02-.01h.02c.18-.12.36-.24.53-.38,0,0,0,0,0,0,0,0,0,0,0,0,.02-.01.03-.03.05-.04,0,0,.01,0,.02-.01,0,0,0,0,0,0,.16-.14.32-.29.46-.46.01-.02.03-.03.05-.05.2-.23.38-.51.55-.82.02-.04.05-.08.07-.12.07-.13.13-.26.2-.4.03-.05.05-.1.08-.16.06-.13.12-.27.17-.41.03-.06.05-.12.08-.18.05-.14.1-.28.16-.42.02-.07.05-.13.07-.2.05-.14.09-.29.14-.43.02-.07.04-.14.06-.2.04-.15.09-.29.13-.44.02-.07.04-.13.05-.2.04-.15.08-.3.12-.45.01-.06.03-.12.04-.18.04-.15.07-.3.11-.45.01-.05.02-.1.03-.14.04-.16.07-.31.1-.46,0-.03.01-.06.02-.08.21-.99.34-1.75.41-1.9,0,0,0,0,0,0,0-.01,0,0,.01,0,0,.01,0,.02,0,.04.39,7.88,1.62,9.7,2.37,16.15.55,4.71-.99,7.31.22,9.21.41.65.7.98,1.1.93,0,0,0,0,0,0,0,0,0,0,0,0,.01,0,.02,0,.03,0,.02,0,.05-.01.08-.02,0,0,0,0,0,0,.08-.02.17-.05.26-.11,0,0,0,0,0,0,0,0,.01,0,.02,0,.02-.01.05-.03.07-.04.05-.03.1-.07.16-.11,0,0,0,0,0,0,0,0,0,0,0,0,0,0,.02-.01.02-.02.01-.01.03-.02.04-.03,0,0,.02-.01.03-.02.05-.04.09-.08.14-.12,0,0,0,0,0,0,0,0,.01,0,.02-.01.02-.02.04-.04.06-.06.01-.01.03-.03.04-.04,0,0,0,0,.01,0,.04-.04.09-.08.13-.13,0,0,0,0,0,0,.01-.01.03-.03.04-.04.03-.03.06-.06.09-.09.02-.02.03-.03.05-.05,0,0,0,0,0,0,.02-.02.04-.04.05-.06.02-.02.04-.04.05-.06.11-.11.22-.24.34-.37.06-.06.12-.13.18-.2.05-.06.11-.13.17-.19.11-.12.2-.23.32-.36,1.6-1.83,2.61-3.52,3.64-4.88,1.99-2.64,3.06-5.25,3.24-10.7.13-4.11-.4-7.24-1.76-13.22-.6-2.63-1.26-4.1-2.13-11.5Zm-119.89-87.6s0,0,0,0c-.31,1.91-.62,3.97-.95,6.1-1.49,3.81-3.11,8.02-5.33,13.16-2.11,4.88-3.37,7.83-4.31,10.18.03-.1.05-.2.08-.3.19-.69.36-1.38.53-2.06.03-.1.05-.21.08-.31.18-.73.35-1.44.52-2.14.04-.17.08-.35.12-.52.16-.69.31-1.36.45-2.02.03-.15.06-.3.09-.44.13-.61.25-1.2.37-1.79.02-.1.04-.21.06-.32.12-.63.24-1.24.35-1.84.03-.18.07-.36.1-.54.1-.57.2-1.13.3-1.67.03-.18.06-.35.09-.53.07-.44.14-.87.21-1.29.03-.21.07-.42.1-.62.06-.41.12-.81.18-1.21.03-.21.06-.42.09-.63.06-.4.11-.79.16-1.16.03-.24.06-.47.09-.7.02-.19.05-.37.07-.55.06-.45.11-.87.16-1.27,0-.06.01-.12.02-.18.28-2.39.41-3.99.47-4.51.11-.87.27-1.82.46-2.83,1.65-8.91,5.84-22.76,8.58-34.48.42-1.82,1.44-7.11,1.89-9.47.06.26.11.51.16.77.04.22.07.45.11.67,0,.04.01.08.02.12.65,12.17-2.37,25.17-5.34,42.4Zm85.14,19.26c-2.29-5.29-3.94-9.61-5.47-13.51-.31-2.01-.61-3.95-.9-5.75,0,0,0,0,0,0-2.91-16.78-5.86-29.29-5.25-42.07.02-.19.04-.37.06-.55.04-.14.09-.28.13-.42.06-.01.12-.01.19,0,.03.08.06.18.09.27.49,2.56,1.31,6.73,1.67,8.29,2.73,11.72,6.95,25.57,8.58,34.49.18,1,.34,1.96.45,2.82.2,1.56.94,12.53,4.63,26.33-.93-2.3-2.16-5.2-4.19-9.9Z"/>
  </g>
</svg>