<?xml version="1.0" encoding="UTF-8"?>
<svg id="_레이어_2" data-name="레이어 2" xmlns="http://www.w3.org/2000/svg" viewBox="0 0 169.72 572.21">
  <defs>
    <style>
      .cls-1 {
        fill: #f2a7a9;
        stroke: #221714;
        stroke-miterlimit: 10;
      }
    </style>
  </defs>
  <g id="_레이어_1-2" data-name="레이어 1">
    <path class="cls-1" d="m3.76,336.48c1.03,1.36,2.04,3.05,3.64,4.88,2.26,2.59,2.58,2.72,3.51,1.26,1.2-1.91-.34-4.5.21-9.21.76-6.46,1.98-8.28,2.38-16.17.06-1.2.65,5.27,2.65,7.64.72.85,1.66,1.29,2.44,1.43,3.71,12.72,9.23,27.81,11.8,36.47,8.45,28.38,13.23,45.41,13.85,55.42.81,12.92-1.05,16.97-2.7,24.79-3.21,15.21-.86,28.37,2.95,40.42,7.05,22.28,14.45,32.19,15.2,43.89.18,2.91-2.13,4.14-.86,7.83.67,1.92,1.79,3.76.09,8.04-5.75,14.48-13.23,18.28-12.35,23.57.98,5.86,21.74,5.49,29.86,4.17,6.69-1.09,6.6-10.06,4.67-20.34-.39-2.07-.59-4.4-.44-7.96.08-1.75.58-3.8.84-6.28.25-2.28-.46-4.68-.84-6.59-.29-1.45-.58-2.61-.63-3.21-1.8-22.39-1.24-27.76,1.73-48.8,3-21.26-1.21-25.08-.68-38.08.32-7.7,2.78-15.58,3.44-23.92.83-10.47-.31-20.35-1.48-27.79-3.22-20.57-3.2-23.89-4.25-40.16-1.12-17.66,4.84-26.31,1.44-41.54.78.26,2.72.38,4.63.37,1.92.01,3.85-.11,4.63-.37-3.39,15.23,2.57,23.88,1.44,41.54-1.04,16.27-1.03,19.59-4.25,40.16-1.16,7.44-2.31,17.32-1.48,27.79.66,8.34,3.13,16.22,3.44,23.92.53,13-3.68,16.82-.68,38.08,2.97,21.04,3.53,26.41,1.73,48.8-.05.6-.34,1.76-.63,3.21-.38,1.91-1.08,4.31-.84,6.59.26,2.48.76,4.53.84,6.28.15,3.56-.05,5.89-.44,7.96-1.93,10.28-2.02,19.25,4.67,20.34,8.12,1.32,28.88,1.69,29.86-4.17.88-5.29-6.6-9.09-12.35-23.57-1.7-4.28-.57-6.12.09-8.04,1.27-3.69-1.04-4.92-.85-7.83.75-11.7,8.14-21.61,15.19-43.89,3.82-12.05,6.16-25.21,2.95-40.42-1.65-7.82-3.51-11.87-2.7-24.79.62-10.01,5.4-27.04,13.85-55.42,2.58-8.66,8.09-23.75,11.81-36.47.78-.14,1.72-.57,2.43-1.43,2-2.37,2.59-8.84,2.65-7.64.4,7.89,1.62,9.71,2.38,16.17.55,4.71-.99,7.3.21,9.21.93,1.46,1.25,1.33,3.51-1.26,1.6-1.83,2.61-3.52,3.64-4.88,1.99-2.64,3.06-5.25,3.24-10.7.13-4.11-.4-7.24-1.76-13.22-.6-2.63-1.26-4.1-2.13-11.5-.26-2.27-.27-3.59-.27-4.56,0-.56,0-1-.05-1.43-.33-3.06-1.72-4.02-2.48-9.76-1.46-10.89-2.42-18.98-3.78-30.34-.28-2.29-.57-4.71-.88-7.33-1.13-9.39-4.9-21.2-8.86-34.19-.23-.74-.45-1.48-.68-2.22-.4-1.34-1.26-11.48-1.59-16.82-.41-6.67-4.26-67.76-6.9-76.98-1.97-6.87-3.88-9.63-5.71-10.54h0s-1.49-.9-2.39-1.31c-.88-.4-1.84-.73-2.85-1.02l-26.1-13.37c-.33-.61-.64-1.26-.93-1.96-1.11-2.7-1.57-10.21-1.75-15.34,2.54-2.35,4.51-5.38,5.74-10.41.22-.9.48-1.97.74-3.12,2.78.98,3.5-3.3,4.02-4.54.56-1.36,1.32-1.49,2.07-4.5.51-2-.37-3.32-.01-4.61.24-.87.36-3.32-.75-4.16-.12-.09-.27-.14-.42-.18,1.64-6.27,2.7-16.51-.74-24.35-1.48-3.39-3.32-6.12-5.25-8.29-4.57-5.57-12.1-9.22-20.63-9.22s-16.06,3.65-20.63,9.22c-1.93,2.17-3.77,4.9-5.25,8.29-3.44,7.84-2.38,18.08-.74,24.35-.15.04-.3.09-.42.18-1.11.84-.99,3.29-.75,4.16.36,1.29-.52,2.61-.01,4.61.75,3.01,1.51,3.14,2.07,4.5.52,1.24,1.24,5.52,4.02,4.54.26,1.15.52,2.22.74,3.12,1.23,5.03,3.2,8.06,5.74,10.41-.18,5.13-.64,12.64-1.75,15.34-.29.7-.6,1.35-.93,1.96l-26.1,13.37c-1.01.29-1.97.63-2.85,1.02-.9.41-2.39,1.3-2.39,1.3h0c-1.83.92-3.74,3.68-5.71,10.55-2.64,9.22-6.49,70.31-6.9,76.98-.33,5.34-1.19,15.48-1.59,16.82-.23.74-.45,1.48-.68,2.22-3.96,12.99-7.73,24.8-8.86,34.19-.31,2.62-.6,5.04-.88,7.33-1.36,11.36-2.32,19.45-3.78,30.34-.76,5.74-2.15,6.7-2.48,9.76-.05.43-.05.87-.05,1.43,0,.97-.01,2.29-.27,4.56-.87,7.4-1.53,8.87-2.13,11.5-1.36,5.98-1.89,9.11-1.76,13.22.18,5.45,1.25,8.06,3.24,10.7Zm127.77-104.6c-4.71-7.17-7.3-12.72-8.68-18.29-.01-.05-.02-.1-.04-.15h0c-1.08-3.15-3.34-5.78-4.64-11.81-.65-3.02-1.07-6.89-.98-12.1s.68-11.77,2.03-20.16c.44,2.29,1.49,7.75,1.92,9.6,1.37,5.86,3.11,12.25,4.71,18.29,1.6,6.04,3.06,11.73,3.87,16.19.19,1.01.35,1.96.46,2.83.15,1.2.63,8.01,2.53,17.41-.38-.58-.77-1.17-1.18-1.8Zm-80.15-30.25c-1.36,6.04-3.61,8.66-4.47,11.81h0c-.02.05-.03.1-.04.15-2.42,5.72-4.19,10.75-8.67,18.29-.44.74-.85,1.43-1.25,2.09,1.96-9.54,2.44-16.48,2.59-17.7.11-.87.27-1.82.46-2.83.81-4.46,2.27-10.15,3.87-16.19,1.6-6.04,3.34-12.43,4.71-18.29.43-1.85,1.48-7.31,1.92-9.6,2.71,16.78,2.24,26.22.88,32.26Z"/>
  </g>
</svg>