<?xml version="1.0" encoding="UTF-8"?>
<svg id="_레이어_2" data-name="레이어 2" xmlns="http://www.w3.org/2000/svg" viewBox="0 0 169.72 572.21">
  <defs>
    <style>
      .cls-1 {
        fill: #f2a7a9;
        stroke: #221714;
        stroke-miterlimit: 10;
      }
    </style>
  </defs>
  <g id="_레이어_1-2" data-name="레이어 1">
    <path class="cls-1" d="m165.64,303.66c-.11-.77-.21-1.63-.32-2.59-.06-.52-.11-.98-.14-1.41-.12-1.45-.13-2.41-.13-3.17,0-.42,0-.76-.03-1.09,0-.11,0-.22-.02-.33-.09-.84-.26-1.51-.48-2.18-.57-1.76-1.45-3.41-2.01-7.58-1.46-10.89-2.42-18.98-3.78-30.34-.09-.71-.17-1.44-.26-2.17-.11-.89-.21-1.79-.33-2.72-.09-.79-.19-1.6-.29-2.43-1.13-9.39-4.9-21.2-8.86-34.19-.16-.52-.32-1.04-.48-1.56-.07-.22-.13-.44-.2-.66-.07-.23-.16-.75-.25-1.45-.44-3.3-1.07-10.97-1.34-15.38-.41-6.67-4.26-67.76-6.9-76.98-1.97-6.87-3.88-9.63-5.71-10.54h0s-1.49-.9-2.39-1.31c-.03-.01-.05-.02-.08-.03-.38-.17-.77-.32-1.17-.47-.05-.02-.1-.04-.15-.05l-27.73-14.21c-.26-.51-.51-1.03-.74-1.6-1.11-2.7-1.57-10.21-1.75-15.34,2.54-2.35,4.51-5.38,5.74-10.41.22-.9.48-1.97.74-3.12.69.24,1.26.16,1.72-.12,1.4-.85,1.91-3.49,2.3-4.42.56-1.36,1.32-1.49,2.07-4.5.51-2-.37-3.32-.01-4.61.24-.87.36-3.32-.75-4.16-.08-.06-.17-.09-.26-.13-.05-.02-.1-.04-.16-.06,1.64-6.27,2.7-16.51-.74-24.34-1.48-3.39-3.32-6.12-5.25-8.29-4.57-5.57-12.1-9.22-20.63-9.22-2.53,0-4.96.33-7.27.92-5.47,1.41-10.15,4.37-13.37,8.3-1.93,2.16-3.77,4.9-5.25,8.29-3.44,7.84-2.38,18.08-.74,24.34-.16.05-.29.1-.41.18,0,0,0,0,0,0h0s0,0,0,0c-1.11.84-.99,3.29-.75,4.16.35,1.29-.52,2.6-.01,4.61.75,3,1.51,3.13,2.07,4.5.52,1.24,1.24,5.52,4.02,4.54.26,1.14.52,2.22.74,3.12,1.23,5.03,3.2,8.06,5.74,10.41-.18,5.13-.64,12.64-1.75,15.34-.23.56-.48,1.09-.74,1.59l-27.73,14.21c-.05.02-.1.04-.15.05-.4.15-.79.3-1.17.47-.03.01-.05.02-.08.03-.9.41-2.39,1.3-2.39,1.3h0c-1.83.92-3.74,3.68-5.71,10.55-2.64,9.22-6.49,70.31-6.9,76.98-.27,4.41-.91,12.08-1.34,15.38-.09.7-.18,1.21-.25,1.45-.07.22-.13.44-.2.66-.16.52-.32,1.04-.48,1.56-3.96,12.99-7.73,24.8-8.86,34.19-.1.83-.19,1.64-.29,2.43-.11.93-.22,1.84-.33,2.72-.09.74-.18,1.46-.26,2.17-1.36,11.36-2.32,19.45-3.78,30.34-.41,3.06-.99,4.76-1.5,6.15-.45,1.22-.83,2.19-.99,3.61,0,.11-.01.22-.02.33-.02.33-.03.68-.03,1.09,0,.75,0,1.72-.13,3.17-.04.43-.08.89-.14,1.41-.11.96-.22,1.81-.32,2.59-.71,5.2-1.28,6.61-1.8,8.9-1.36,5.98-1.89,9.11-1.76,13.22.05,1.36.15,2.55.3,3.6.14.93.32,1.75.55,2.5.54,1.81,1.34,3.2,2.39,4.6.68.9,1.37,1.95,2.21,3.08.43.58.89,1.18,1.43,1.8,2.06,2.36,2.51,2.67,3.27,1.62.08-.11.16-.23.25-.37.13-.21.22-.43.3-.65.01-.03.02-.06.03-.1,0-.03.01-.06.02-.09.46-1.83-.61-4.31-.13-8.37.61-5.22,1.52-7.4,2.06-12.21.13-1.15.24-2.44.31-3.96,0-.07,0-.11.02-.13.13-.17.77,5.58,2.63,7.78.72.86,1.67,1.29,2.45,1.43,3.71,12.72,9.22,27.8,11.8,36.45,8.45,28.38,13.23,45.41,13.85,55.42.81,12.92-1.05,16.97-2.7,24.79-3.21,15.21-.86,28.37,2.95,40.42,7.05,22.28,14.45,32.19,15.2,43.89.18,2.91-2.13,4.14-.86,7.83.67,1.92,1.79,3.76.09,8.04-5.75,14.48-13.23,18.28-12.35,23.57.98,5.86,21.74,5.49,29.86,4.17,6.69-1.09,6.6-10.06,4.67-20.34-.39-2.07-.59-4.4-.44-7.96.08-1.75.58-3.8.84-6.28.25-2.28-.46-4.68-.84-6.59-.29-1.45-.58-2.61-.63-3.21-1.8-22.39-1.24-27.76,1.73-48.8,3-21.26-1.21-25.08-.68-38.08.32-7.7,2.78-15.58,3.44-23.92.83-10.47-.31-20.35-1.48-27.79-3.22-20.57-3.2-23.89-4.25-40.16-1.12-17.66,4.84-26.31,1.44-41.54.78.26,2.72.38,4.63.37,1.92.01,3.85-.11,4.63-.37-3.39,15.23,2.57,23.88,1.44,41.54-1.04,16.27-1.03,19.59-4.25,40.16-1.16,7.44-2.31,17.32-1.48,27.79.66,8.34,3.13,16.22,3.44,23.92.53,13-3.68,16.82-.68,38.08,2.97,21.04,3.53,26.41,1.73,48.8-.05.6-.34,1.76-.63,3.21-.38,1.91-1.08,4.31-.84,6.59.26,2.48.76,4.53.84,6.28.15,3.56-.05,5.89-.44,7.96-1.93,10.28-2.02,19.25,4.67,20.34,8.12,1.32,28.88,1.69,29.86-4.17.88-5.29-6.6-9.09-12.35-23.57-1.7-4.28-.57-6.12.09-8.04,1.27-3.69-1.04-4.92-.85-7.83.75-11.7,8.14-21.61,15.19-43.89,3.82-12.05,6.16-25.21,2.95-40.42-1.65-7.82-3.51-11.87-2.7-24.79.62-10.01,5.4-27.04,13.85-55.42,2.58-8.66,8.09-23.74,11.8-36.45.78-.14,1.72-.57,2.44-1.43,1.86-2.2,2.5-7.95,2.63-7.78,0,.02.01.06.02.13.08,1.52.19,2.81.31,3.96.54,4.81,1.45,7,2.06,12.21.47,4.05-.6,6.54-.13,8.37,0,.03.01.06.02.09,0,.03.02.06.03.1.07.23.17.44.3.65.09.14.17.26.25.37.75,1.05,1.21.73,3.27-1.62.53-.61.99-1.21,1.41-1.78.85-1.14,1.54-2.2,2.22-3.1,1.05-1.39,1.84-2.77,2.38-4.56.23-.76.42-1.59.56-2.53.16-1.05.26-2.24.3-3.6.13-4.11-.4-7.24-1.76-13.22-.52-2.29-1.09-3.7-1.8-8.9Zm-117.18-115.84c-1.05,7.55-2.29,16.62-3.47,25.64-.29,2.24-.58,4.48-.85,6.69-1.48,3.46-3.2,7.13-5.94,11.73-.44.73-.85,1.43-1.25,2.08,1.95-9.53,2.43-16.46,2.59-17.68.09-.73.23-1.54.38-2.38.03-.15.05-.29.08-.45.75-4.09,2.04-9.21,3.48-14.69,1.03-3.91,2.13-8,3.17-12.02.68-2.64,1.34-5.25,1.93-7.76.22-.97.62-2.92,1.01-4.89.27-1.34.53-2.69.73-3.74.07-.35.13-.67.18-.95,0,.03.01.05.02.08.1.63.19,1.24.28,1.85-.42,2.93-1.29,8.96-2.34,16.51Zm83.07,44.06c-2.45-3.73-4.31-7.01-5.75-10.1-.34-2.74-.7-5.53-1.06-8.32-1.17-9.02-2.41-18.09-3.47-25.64-1.05-7.55-1.92-13.58-2.34-16.51.09-.61.18-1.22.29-1.85,0-.03.01-.05.02-.08.05.28.11.6.18.95.2,1.06.47,2.42.73,3.77.39,1.96.78,3.9,1,4.86.56,2.38,1.17,4.84,1.82,7.34,1.07,4.16,2.22,8.4,3.28,12.45,1.44,5.48,2.73,10.61,3.48,14.69.03.16.05.3.08.45.15.84.28,1.65.37,2.38.16,1.21.63,8.01,2.53,17.4-.38-.57-.76-1.17-1.18-1.8Z"/>
  </g>
</svg>