<?xml version="1.0" encoding="UTF-8"?>
<svg id="_레이어_2" data-name="레이어 2" xmlns="http://www.w3.org/2000/svg" viewBox="0 0 169.72 572.21">
  <defs>
    <style>
      .cls-1 {
        fill: #f2a7a9;
        stroke: #221714;
        stroke-miterlimit: 10;
      }
    </style>
  </defs>
  <g id="_레이어_1-2" data-name="레이어 1">
    <path class="cls-1" d="m10.79,341.85c.05-.12.11-.24.18-.38.09-.21.16-.43.21-.66,0-.03.02-.06.02-.09,0-.03,0-.06.01-.09.18-1.03,0-2.24-.07-3.78-.06-1.39-.06-2.87.16-4.56.62-4.77,1.47-7.05,1.97-12.08.1-1.04.3-1.49.45-2.09.01-.04.01-.06.02-.06.16.29.49,2.38,1.21,4.27.46,1.2,1.1,2.27,1.81,2.92.61.87,1.39,1.42,2.04,1.75,3.7,12.56,9.07,27.27,11.6,35.77,8.45,28.38,13.23,45.41,13.85,55.42.81,12.92-1.05,16.97-2.7,24.79-3.21,15.21-.86,28.37,2.95,40.42,7.05,22.28,14.45,32.19,15.2,43.89.18,2.91-2.14,4.14-.86,7.83.67,1.92,1.79,3.76.09,8.04-5.75,14.48-13.23,18.28-12.35,23.57.98,5.86,21.74,5.49,29.86,4.17,6.69-1.09,6.6-10.06,4.67-20.34-.39-2.07-.59-4.4-.44-7.96.08-1.75.57-3.8.84-6.28.24-2.28-.46-4.68-.84-6.59-.29-1.45-.58-2.61-.63-3.21-1.8-22.39-1.24-27.76,1.73-48.8,3-21.26-1.21-25.08-.68-38.08.32-7.7,2.78-15.58,3.44-23.92.83-10.47-.31-20.35-1.48-27.79-3.22-20.57-3.2-23.89-4.25-40.16-1.12-17.66,4.84-26.31,1.44-41.54.78.26,2.72.35,4.63.37,1.92.02,3.85-.11,4.63-.37-3.39,15.23,2.57,23.88,1.44,41.54-1.04,16.27-1.03,19.59-4.25,40.16-1.16,7.44-2.31,17.32-1.48,27.79.66,8.34,3.13,16.22,3.44,23.92.53,13-3.68,16.82-.68,38.08,2.97,21.04,3.53,26.41,1.73,48.8-.05.6-.34,1.76-.63,3.21-.38,1.91-1.08,4.31-.84,6.59.26,2.48.76,4.53.84,6.28.15,3.56-.05,5.89-.44,7.96-1.93,10.28-2.02,19.25,4.67,20.34,8.12,1.32,28.88,1.69,29.86-4.17.88-5.29-6.6-9.09-12.35-23.57-1.7-4.28-.57-6.12.09-8.04,1.27-3.69-1.04-4.92-.85-7.83.75-11.7,8.14-21.61,15.19-43.89,3.82-12.05,6.16-25.21,2.95-40.42-1.65-7.82-3.51-11.87-2.7-24.79.62-10.01,5.4-27.04,13.85-55.42,2.58-8.66,8.09-23.74,11.8-36.46.78-.14,1.72-.57,2.44-1.43,1.9-2.25,2.52-8.17,2.63-7.75,0,.02.01.06.01.12.08,1.52.19,2.82.32,3.96.54,4.79,1.45,6.98,2.06,12.19.47,4.06-.6,6.55-.14,8.38,0,.03.01.06.02.09,0,.03.02.06.03.1.07.22.17.44.3.65.09.14.17.26.25.37.76,1.05,1.21.73,3.27-1.62.53-.61.99-1.21,1.42-1.78.85-1.14,1.53-2.2,2.22-3.1,1.05-1.39,1.84-2.77,2.38-4.56.23-.76.42-1.59.56-2.52.16-1.06.26-2.25.31-3.62.13-4.11-.4-7.24-1.76-13.22-.52-2.29-1.09-3.7-1.8-8.9-.11-.78-.21-1.63-.33-2.6-.06-.52-.11-.99-.14-1.42-.12-1.44-.13-2.4-.13-3.15,0-.42,0-.77-.03-1.1,0-.11,0-.22-.02-.33-.09-.83-.26-1.51-.48-2.17-.57-1.77-1.46-3.41-2.01-7.59-1.46-10.89-2.42-18.98-3.78-30.34-.09-.71-.17-1.43-.26-2.17-.11-.88-.21-1.79-.33-2.72-.1-.8-.19-1.61-.29-2.45-1.13-9.39-4.86-21.21-8.86-34.19-.18-.57-.35-1.15-.53-1.72-.06-.2-.12-.41-.18-.65-.07-.27-.15-.77-.24-1.44-.44-3.36-1.06-10.88-1.32-15.23-.41-6.62-4.2-66.78-6.83-76.72-.1-.38-.2-.74-.31-1.08-1.79-5.96-3.54-8.56-5.21-9.55,0,0,0,0,0,0-.09-.08-.55-.36-1.08-.65,0,0,0,0,0,0-.32-.18-.82-.46-1.26-.67-.03-.01-.05-.02-.08-.03-.38-.18-.77-.34-1.15-.49-.18-.07-.36-.14-.55-.2-.26-.09-.53-.18-.8-.27-.18-.06-.36-.11-.54-.17l-26.13-13.39c-.33-.61-.64-1.26-.93-1.96-1.11-2.7-1.57-10.21-1.75-15.34,2.54-2.35,4.51-5.38,5.74-10.41.22-.9.48-1.97.74-3.12.69.24,1.26.16,1.73-.12,1.4-.85,1.91-3.49,2.29-4.42.56-1.36,1.31-1.49,2.07-4.5.5-2-.37-3.32-.01-4.61.24-.87.36-3.32-.75-4.16-.09-.07-.19-.11-.3-.14-.04-.03-.07-.05-.11-.08,1.63-6.27,2.68-16.49-.75-24.31-1.48-3.39-3.32-6.12-5.25-8.29-4.57-5.57-12.1-9.22-20.63-9.22-2.53,0-4.98.33-7.29.93-5.46,1.42-10.14,4.37-13.35,8.3-1.93,2.16-3.77,4.9-5.25,8.29-3.44,7.84-2.38,18.08-.74,24.34-.15.05-.29.1-.41.18,0,0,0,0,0,0h0s0,0,0,0c-1.11.84-.99,3.29-.75,4.16.35,1.29-.52,2.6-.01,4.61.76,3,1.5,3.14,2.07,4.5.51,1.24,1.24,5.52,4.02,4.54.26,1.14.52,2.22.74,3.12,1.23,5.03,3.2,8.06,5.74,10.41-.18,5.13-.64,12.64-1.75,15.34-.29.7-.6,1.35-.93,1.96l-26.13,13.39c-.18.05-.36.11-.53.16-.27.09-.54.17-.8.27-.19.07-.37.13-.55.2-.53.21-1.19.55-1.47.68-.02,0-.04.02-.06.03-.84.39-2.12,1.19-2.28,1.41,0,0,0,0,0,0-1.5,1-3.06,3.34-4.66,8.29-.23.71-.46,1.51-.69,2.42-2.67,10.53-6.36,69.81-6.77,76.38-.27,4.41-.91,12.09-1.34,15.38-.09.7-.18,1.21-.25,1.44-.07.22-.13.44-.2.66-.16.52-.32,1.04-.48,1.56-3.99,12.98-7.73,24.8-8.86,34.19-.1.83-.19,1.64-.29,2.44-.11.93-.22,1.84-.33,2.72-.09.74-.18,1.46-.26,2.17-1.36,11.36-2.32,19.45-3.78,30.34-.41,3.07-.99,4.77-1.5,6.15-.44,1.21-.83,2.18-.98,3.61-.02.19-.02.38-.03.61-.01.33-.02.67-.02,1.09,0,.78-.03,1.78-.16,3.25-.04.44-.09.91-.15,1.41-.11.96-.23,1.82-.33,2.59-.69,4.92-1.24,6.32-1.75,8.55-1.36,5.98-1.89,9.11-1.76,13.22.05,1.37.15,2.55.3,3.61.14.93.32,1.75.55,2.5.54,1.8,1.34,3.2,2.39,4.59.77,1.01,1.52,2.24,2.57,3.53.88,1.09,1.31,1.56,1.95,1.66,1.71,1.5,1.97,1.39,2.52.17Zm120.74-109.97c-2.46-3.75-4.34-7.05-5.77-10.15-.57-2.75-1.07-5.49-1.5-8.24,0-.05-.02-.1-.03-.16h0c-.68-3.91-1.68-7.7-2.39-12.24-.6-3.86-1.08-7.83-1.46-11.88-.04-.44-.08-.87-.13-1.3-.7-6.81-1.27-12.71-1.33-16.61.09-.61.19-1.23.29-1.86,0-.02.01-.03.02-.05.05.27.11.59.18.95.2,1.06.47,2.42.73,3.77.39,1.96.78,3.9,1,4.86.56,2.38,1.17,4.84,1.82,7.34.94,3.66,1.94,7.38,2.89,10.97.13.49.26.98.39,1.47,1.44,5.48,2.72,10.61,3.48,14.7.03.16.05.3.08.46.15.84.28,1.64.37,2.37.16,1.21.63,8.01,2.53,17.4-.38-.57-.77-1.17-1.18-1.8Zm-82.07-43.97c-.44,4.49-.94,8.92-1.62,13.23-.72,4.56-1.74,8.38-2.36,12.32h0c0,.05-.02.1-.02.15-.44,2.17-.85,4.31-1.27,6.46-1.49,3.49-3.22,7.18-5.98,11.82-.44.73-.85,1.43-1.25,2.08,1.95-9.53,2.43-16.47,2.59-17.69.1-.77.24-1.61.4-2.5.03-.15.05-.29.08-.44.75-4.08,2.04-9.19,3.48-14.65.11-.41.21-.81.32-1.22.93-3.53,1.91-7.17,2.84-10.77.68-2.63,1.33-5.23,1.92-7.73.22-.97.62-2.92,1.01-4.89.26-1.34.53-2.69.73-3.74.07-.35.13-.67.18-.94,0,.01.01.03.02.04.1.64.19,1.25.29,1.86-.06,3.9-.67,9.79-1.34,16.61Z"/>
  </g>
</svg>