<?xml version="1.0" encoding="UTF-8"?>
<svg id="_레이어_2" data-name="레이어 2" xmlns="http://www.w3.org/2000/svg" viewBox="0 0 169.72 572.21">
  <defs>
    <style>
      .cls-1 {
        fill: #f2a7a9;
        stroke: #221714;
        stroke-miterlimit: 10;
      }
    </style>
  </defs>
  <g id="_레이어_1-2" data-name="레이어 1">
    <path class="cls-1" d="m.82,329.39c.14.93.32,1.75.55,2.51.54,1.8,1.34,3.19,2.39,4.58.86,1.13,1.69,2.51,2.92,3.98,1.33,1.6,1.73,1.95,2.47,1.53,1.37.64,1.45.13,1.77-1.27.03-.12.07-.25.1-.39.05-.22.09-.44.12-.67,0-.03.01-.06.01-.09,0-.03,0-.06,0-.08.09-1.04-.05-2.27-.03-3.77.02-1.52.11-2.98.34-4.53.64-4.33,1.43-6.69,1.87-11.96.08-.93.25-.58.58-.22,0-.01.02-.01.03,0,.24.69.64,2.62,1.4,4.18.53,1.09,1.29,1.95,2.02,2.42.49.88,1.1,1.55,1.63,2.08,3.69,12.4,8.91,26.74,11.39,35.09,8.45,28.38,13.23,45.41,13.85,55.42.81,12.92-1.05,16.97-2.7,24.79-3.21,15.21-.86,28.37,2.95,40.42,7.05,22.28,14.45,32.19,15.2,43.89.18,2.91-2.14,4.14-.86,7.83.67,1.92,1.79,3.76.09,8.04-5.75,14.48-13.23,18.28-12.35,23.57.98,5.86,21.74,5.49,29.86,4.17,6.69-1.09,6.6-10.06,4.67-20.34-.39-2.07-.59-4.4-.44-7.96.08-1.75.57-3.8.84-6.28.24-2.28-.46-4.68-.84-6.59-.29-1.45-.58-2.61-.63-3.21-1.8-22.39-1.24-27.76,1.73-48.8,3-21.26-1.21-25.08-.68-38.08.32-7.7,2.78-15.58,3.44-23.92.83-10.47-.31-20.35-1.48-27.79-3.22-20.57-3.2-23.89-4.25-40.16-1.12-17.66,4.84-26.31,1.44-41.54.78.26,2.72.35,4.63.37,1.92.02,3.85-.11,4.63-.37-3.39,15.23,2.57,23.88,1.44,41.54-1.04,16.27-1.03,19.59-4.25,40.16-1.16,7.44-2.31,17.32-1.48,27.79.66,8.34,3.13,16.22,3.44,23.92.53,13-3.68,16.82-.68,38.08,2.97,21.04,3.53,26.41,1.73,48.8-.05.6-.34,1.76-.63,3.21-.38,1.91-1.08,4.31-.84,6.59.26,2.48.76,4.53.84,6.28.15,3.56-.05,5.89-.44,7.96-1.93,10.28-2.02,19.25,4.67,20.34,8.12,1.32,28.88,1.69,29.86-4.17.88-5.29-6.6-9.09-12.35-23.57-1.7-4.28-.57-6.12.09-8.04,1.27-3.69-1.04-4.92-.85-7.83.75-11.7,8.14-21.61,15.19-43.89,3.82-12.05,6.16-25.21,2.95-40.42-1.65-7.82-3.51-11.87-2.7-24.79.62-10.01,5.4-27.04,13.85-55.42,2.58-8.66,8.09-23.74,11.8-36.46.78-.14,1.72-.57,2.44-1.43,1.93-2.29,2.55-8.39,2.64-7.71,0,.03,0,.06.01.11.08,1.52.19,2.82.32,3.96.54,4.77,1.45,6.96,2.06,12.16.47,4.06-.61,6.55-.14,8.38,0,.03.01.06.02.09,0,.03.02.06.03.1.07.22.17.44.29.64.09.14.17.26.25.36.76,1.05,1.21.73,3.27-1.62.54-.61,1-1.21,1.42-1.78.85-1.14,1.53-2.19,2.21-3.1,1.05-1.39,1.83-2.77,2.38-4.55.23-.76.42-1.58.56-2.51.16-1.06.26-2.26.31-3.64.13-4.11-.4-7.24-1.76-13.22-.52-2.29-1.09-3.7-1.8-8.89-.11-.78-.22-1.64-.33-2.6-.06-.53-.11-1-.14-1.43-.12-1.43-.13-2.39-.13-3.14,0-.42,0-.78-.03-1.11,0-.11-.01-.21-.02-.32-.09-.83-.26-1.5-.47-2.16-.57-1.77-1.46-3.41-2.01-7.6-1.46-10.89-2.42-18.98-3.78-30.34-.09-.71-.17-1.43-.26-2.16-.11-.88-.21-1.79-.33-2.71-.1-.8-.19-1.62-.29-2.46-1.13-9.39-4.86-21.21-8.86-34.19-.19-.63-.39-1.26-.58-1.89-.05-.17-.11-.39-.16-.64-.07-.3-.14-.8-.22-1.43-.43-3.43-1.04-10.8-1.31-15.08-.4-6.56-4.14-65.81-6.77-76.45-.1-.39-.19-.75-.29-1.07-1.73-5.83-3.41-8.53-5.03-9.64,0,0,0,0,0,0-.17-.15-.6-.42-1.07-.67,0,0,0,0,0,0-.21-.12-.74-.42-1.25-.68-.03-.01-.05-.02-.08-.04-.38-.19-.77-.37-1.13-.51-.18-.07-.35-.14-.53-.21-.26-.1-.53-.19-.79-.28-.2-.07-.4-.13-.6-.19-.08-.02-.17-.05-.25-.07l-26.14-13.4c-.33-.61-.64-1.26-.93-1.96-1.11-2.7-1.57-10.21-1.75-15.34,2.54-2.35,4.51-5.38,5.74-10.41.22-.9.48-1.97.74-3.12.7.24,1.26.16,1.73-.12,1.4-.85,1.91-3.49,2.29-4.42.56-1.36,1.31-1.49,2.07-4.5.5-2-.37-3.32-.01-4.61.24-.87.36-3.32-.75-4.16-.1-.07-.22-.12-.34-.15-.02-.03-.04-.06-.06-.09,1.63-6.28,2.67-16.47-.76-24.28-1.48-3.39-3.32-6.12-5.25-8.29-4.57-5.57-12.1-9.22-20.63-9.22-2.54,0-4.99.33-7.31.93-5.45,1.42-10.12,4.38-13.33,8.29-1.93,2.17-3.77,4.9-5.25,8.29-3.44,7.84-2.38,18.08-.74,24.35-.15.04-.3.09-.41.18,0,0,0,0,0,0h0s0,0,0,0c-1.1.84-.98,3.29-.74,4.16.35,1.29-.52,2.6-.01,4.61.76,3,1.5,3.14,2.07,4.5.52,1.24,1.24,5.52,4.02,4.54.26,1.15.52,2.22.74,3.12,1.23,5.03,3.2,8.06,5.74,10.41-.18,5.13-.64,12.64-1.75,15.34-.29.7-.6,1.35-.93,1.96l-26.14,13.4c-.07.02-.15.04-.22.06-.21.06-.42.13-.62.2-.27.09-.54.18-.8.28-.19.07-.37.14-.55.21-.65.27-1.59.8-1.78.88-.01,0-.03.02-.04.02-.77.37-1.85,1.09-2.18,1.53,0,0,0,0,0,0-1.41,1.21-2.86,3.67-4.35,8.45-.21.67-.43,1.48-.64,2.42-2.67,11.84-6.24,69.32-6.64,75.77-.27,4.41-.91,12.09-1.34,15.39-.09.69-.18,1.2-.25,1.43-.07.22-.13.44-.2.66-.16.52-.32,1.04-.48,1.56-3.99,12.98-7.73,24.8-8.86,34.19-.1.83-.19,1.64-.29,2.44-.11.93-.22,1.84-.33,2.73-.09.74-.18,1.46-.26,2.17-1.36,11.36-2.32,19.45-3.78,30.34-.41,3.07-.99,4.77-1.5,6.16-.44,1.21-.83,2.18-.98,3.6-.03.27-.03.55-.03.88,0,.32-.01.67-.02,1.08-.01.8-.05,1.84-.19,3.33-.05.46-.1.92-.16,1.41-.12.97-.23,1.82-.34,2.59-.67,4.64-1.2,6.02-1.7,8.2-1.36,5.98-1.89,9.11-1.76,13.22.05,1.37.15,2.55.3,3.61Zm130.71-97.51c-2.48-3.77-4.36-7.09-5.8-10.2-.81-2.75-1.44-5.45-1.94-8.15,0-.05-.02-.1-.03-.15h0c-.81-3.66-2.25-7.06-3.14-12.1-.63-3.58-1.06-7.52-1.3-11.95-.02-.43-.05-.87-.07-1.31-.38-6.07-.63-11.85-.32-16.72.09-.62.19-1.23.29-1.87,0,0,0,0,.01-.01.05.27.11.59.18.94.2,1.06.47,2.42.73,3.76.39,1.96.78,3.9,1,4.86.56,2.38,1.17,4.85,1.82,7.34.94,3.66,1.94,7.37,2.89,10.97.13.49.26.98.39,1.47,1.44,5.49,2.72,10.62,3.48,14.71.03.16.06.31.08.47.15.83.28,1.63.37,2.37.15,1.2.63,8.01,2.53,17.4-.38-.58-.77-1.17-1.18-1.8Zm-81.08-43.88c-.29,4.96-.72,9.34-1.43,13.3-.91,5.06-2.36,8.47-3.06,12.15h0c-.01.05-.02.1-.03.15-.59,2.15-1.13,4.25-1.71,6.38-1.5,3.51-3.23,7.22-6.01,11.9-.44.73-.85,1.43-1.25,2.09,1.95-9.54,2.44-16.47,2.59-17.69.1-.8.25-1.68.42-2.61.03-.15.05-.29.08-.44.76-4.08,2.04-9.17,3.47-14.61.11-.41.22-.81.32-1.23.93-3.52,1.91-7.15,2.83-10.74.68-2.62,1.33-5.2,1.91-7.69.22-.97.62-2.91,1.01-4.88.26-1.34.53-2.69.73-3.74.07-.35.13-.66.18-.93,0,0,.01,0,.02,0,.1.64.2,1.26.29,1.88.31,4.87.01,10.64-.35,16.71Z"/>
  </g>
</svg>