<?xml version="1.0" encoding="UTF-8"?>
<svg id="_레이어_2" data-name="레이어 2" xmlns="http://www.w3.org/2000/svg" viewBox="0 0 181.09 571.86">
  <defs>
    <style>
      .cls-1 {
        fill: #f3a9aa;
        stroke: #231815;
        stroke-miterlimit: 10;
      }
    </style>
  </defs>
  <g id="_레이어_1-2" data-name="레이어 1">
    <path class="cls-1" d="m40.52,105.36c2.58-1.09,5.73-1.71,9.08-2.33,3.67-.68,8-1.41,11.58-2.8,5.33-2.05,9.72-4.62,12.37-11.01,1.12-2.7,1.58-10.21,1.75-15.34-2.54-2.35-4.47-5.39-5.72-10.41-.22-.9-.49-1.97-.74-3.12-2.79.98-3.5-3.3-4.02-4.54-.58-1.36-1.33-1.49-2.08-4.5-.5-2,.36-3.32,0-4.61-.24-.87-.35-3.32.75-4.16.13-.09.27-.14.44-.18-1.65-6.27-2.71-16.51.73-24.35,1.48-3.39,3.31-6.12,5.25-8.29,4.56-5.57,12.1-9.22,20.62-9.22,0,0,0,0,.01,0,8.52,0,16.06,3.65,20.62,9.22,1.94,2.17,3.77,4.9,5.26,8.29,3.43,7.84,2.38,18.08.73,24.35.16.04.31.09.43.18,1.1.84.99,3.29.75,4.16-.36,1.29.51,2.61.01,4.61-.75,3.01-1.51,3.14-2.08,4.5-.52,1.24-1.24,5.52-4.02,4.54-.25,1.15-.52,2.22-.74,3.12-1.25,5.03-3.19,8.06-5.73,10.41.18,5.13.63,12.64,1.75,15.34,2.64,6.4,7.04,8.96,12.37,11.01,3.22,1.25,6.97,1.97,10.42,2.59.53.1,1.05.19,1.55.28,3.22.6,6.23,1.21,8.7,2.26.96.41,2.55,1.3,2.55,1.3h0c1.95.92,3.99,3.68,6.09,10.55,2.82,9.22,6.93,70.31,7.36,76.98.36,5.33,1.27,15.48,1.7,16.81.25.75.49,1.49.73,2.23.03.1.06.21.1.31,4.19,12.87,8.16,24.56,9.35,33.88.34,2.62.65,5.04.94,7.33.02.1.03.21.04.31,1.33,11.21,2.46,19.24,4,30.03.81,5.74,2.3,6.7,2.65,9.76.05.43.05.87.05,1.42,0,.24,0,.8.07,1.37.06,1.12.12,2.43.37,4.25.86,6.53,1.52,7.97,2.12,10.45,1.45,5.98,2.02,9.11,1.88,13.22-.19,5.45-1.34,8.05-3.46,10.69-1.1,1.36-2.18,3.06-3.88,4.88-2.42,2.6-2.76,2.73-3.74,1.27-1.29-1.91.35-4.5-.24-9.21-.8-6.46-2.09-8.28-2.53-16.17-.07-1.2-.69,5.27-2.83,7.64-1.69,1.88-4.55,1.75-4.09.81,4.31-8.9.54-14.6,2.4-21.41.61-2.2,2.28-5.7,2.2-7.34,0-.07-.01-.15-.03-.22,0-.1-.02-.2-.03-.29-.35-3.76-2.29-8.4-5.03-14.21-3.76-7.97-5.92-12.88-11.2-27.02-.11-.31-.23-.62-.35-.95-.35-.93-.71-1.89-1.07-2.89-6.43-17.68-7.52-33.2-7.78-35.08-.11-.8-.26-1.69-.44-2.6-.02-.1-.04-.2-.06-.3-1.75-8.92-6.23-22.72-9.14-34.41-.46-1.85-1.59-7.31-2.05-9.6-.13.51-.26,1.03-.4,1.55-2.24,10.99-3.85,29.25-3.21,42.76,1.02,5.63,3.19,11.94,5.98,19.33,4.61,12.17,5.93,19.75,6.03,21.14.11.47.24.96.36,1.43.02.05.02.11.04.16,0,0,0,0,0,0,.25.99.5,1.97.76,2.92,2.74,8.38,6.1,19.32,6.48,35.96,0,.1,0,.19,0,.29.01.66.02,1.33.03,2.01,0,.1,0,.19,0,.28,0,3.67-.12,7.59-.43,11.81-.05.68-.11,1.38-.17,2.1-1.17,12.69-8.63,38.91-11.44,51.52-6.32,28.39-9.89,45.42-10.36,55.42-.6,12.93.79,16.97,2.02,24.8,2.4,15.21.65,28.36-2.2,40.42-5.28,22.28-10.81,32.19-11.37,43.88-.14,2.92,1.59,4.14.64,7.83-.5,1.93-1.34,3.77-.06,8.05,4.3,14.48,9.89,18.27,9.23,23.56-.73,5.86-16.26,5.5-22.33,4.18-5-1.09-4.94-10.06-3.49-20.34.29-2.08.44-4.4.32-7.96-.05-1.76-.42-3.81-.62-6.28-.18-2.28.34-4.69.62-6.6.22-1.44.44-2.6.48-3.21,1.4-22.38.92-27.75-1.3-48.79-2.24-21.27.91-25.08.51-38.08-.23-7.71-2.08-15.58-2.57-23.93-.62-10.46.23-20.35,1.11-27.79,2.41-20.57,2.39-23.89,3.17-40.15.85-17.66-3.61-26.32-1.07-41.55-.58.27-2.02.38-3.46.38-1.44,0-2.88-.11-3.46-.38,2.54,15.23-1.92,23.89-1.07,41.55.77,16.26.75,19.58,3.17,40.15.87,7.44,1.73,17.33,1.1,27.79-.48,8.35-2.33,16.22-2.56,23.93-.4,13,2.75,16.81.5,38.08-2.21,21.04-2.7,26.41-1.29,48.79.04.61.26,1.77.48,3.21.29,1.91.81,4.32.62,6.6-.2,2.47-.57,4.52-.62,6.28-.11,3.56.02,5.88.31,7.96,1.46,10.28,1.52,19.25-3.48,20.34-6.08,1.32-21.6,1.68-22.33-4.18-.67-5.29,4.92-9.08,9.23-23.56,1.27-4.28.44-6.12-.06-8.05-.96-3.69.77-4.91.64-7.83-.56-11.69-6.1-21.6-11.37-43.88-2.86-12.06-4.61-25.21-2.21-40.42,1.23-7.83,2.62-11.87,2.02-24.8-.46-10-4.04-27.03-10.36-55.42-2.85-12.77-10.45-39.51-11.48-52.03-.43-5.05-.57-9.68-.56-13.96,0-.1.02-.19.02-.29.05-10.03,1.27-18.05,2.79-24.7.97-4.26,2.09-7.96,3.15-11.26.47-1.72.93-3.47,1.37-5.24.02-.05.03-.1.05-.14.12-.48.25-.96.36-1.43.11-1.49,1.4-9.06,6.04-21.15,2.77-7.21,4.93-13.28,5.93-18.76.64-13.87-1.16-32.89-3.5-43.92-.1.19-.21.45-.34.77-.52,2.54-1.42,6.84-1.82,8.44-1.46,5.87-3.31,12.26-5.02,18.31-1.7,6.03-3.24,11.72-4.12,16.17-.02.1-.04.2-.06.3-.17.89-.33,1.74-.44,2.52-.27,1.9-1.36,17.82-8.02,35.8-.38,1.01-.74,1.97-1.09,2.89-.04.11-.06.2-.1.3-5.39,14.04-7.42,18.99-11.17,26.94-2.77,5.85-4.73,10.51-5.04,14.28-.02.11-.03.23-.04.34,0,.05-.02.1-.02.15-.05,1.65,1.61,5.12,2.21,7.31,1.87,6.81-1.92,12.51,2.39,21.41.46.94-2.39,1.07-4.08-.81-2.15-2.37-2.77-8.84-2.83-7.64-.42,7.89-1.73,9.71-2.53,16.17-.6,4.71,1.05,7.3-.24,9.21-.98,1.46-1.32,1.33-3.74-1.27-1.7-1.82-2.79-3.52-3.89-4.88-2.12-2.63-3.27-5.24-3.46-10.69-.13-4.11.44-7.24,1.88-13.22.64-2.63,1.33-4.1,2.27-11.5.26-2.06.29-3.34.29-4.28,0-.02,0-.27,0-.29,0-.55,0-.99.06-1.42.38-3.05,1.84-4.02,2.65-9.76,1.54-10.82,2.57-18.87,4.01-30.11,0-.1.02-.2.04-.3.29-2.27.59-4.67.93-7.26,1.19-9.34,5.18-21.07,9.38-33.96.04-.1.06-.2.1-.3.22-.72.47-1.43.71-2.16.43-1.33,1.34-11.48,1.69-16.81.44-6.67,4.54-67.76,7.37-76.98,2.09-6.87,4.13-9.63,6.09-10.54h0s1.58-.9,2.54-1.31Z"/>
  </g>
</svg>