<?xml version="1.0" encoding="UTF-8"?>
<svg id="_레이어_2" data-name="레이어 2" xmlns="http://www.w3.org/2000/svg" viewBox="0 0 181.09 571.56">
  <defs>
    <style>
      .cls-1 {
        fill: #f3a9aa;
        stroke: #231815;
        stroke-miterlimit: 10;
      }
    </style>
  </defs>
  <g id="_레이어_1-2" data-name="레이어 1">
    <path class="cls-1" d="m40.52,105.36c2.57-1.09,5.72-1.71,9.09-2.33,3.66-.67,7.99-1.41,11.58-2.8,5.33-2.05,9.73-4.61,12.37-11.01,1.12-2.7,1.57-10.21,1.75-15.34-2.54-2.35-4.47-5.39-5.73-10.41-.23-.9-.49-1.97-.74-3.12-2.78.98-3.5-3.3-4.02-4.54-.57-1.36-1.33-1.49-2.08-4.5-.5-2,.37-3.32.01-4.61-.24-.87-.35-3.32.75-4.16.12-.09.27-.14.43-.18-1.65-6.27-2.7-16.51.73-24.35,1.49-3.39,3.32-6.12,5.26-8.29,4.56-5.57,12.1-9.22,20.62-9.22,0,0,0,0,.01,0,8.52,0,16.06,3.65,20.62,9.22,1.94,2.17,3.77,4.9,5.26,8.29,3.43,7.84,2.38,18.08.73,24.35.16.04.31.09.43.18,1.1.84.99,3.29.75,4.16-.36,1.29.51,2.61,0,4.61-.75,3.01-1.51,3.14-2.08,4.5-.52,1.24-1.24,5.52-4.02,4.54-.25,1.15-.52,2.22-.74,3.12-1.25,5.03-3.19,8.06-5.73,10.41.18,5.13.63,12.64,1.75,15.34,2.64,6.4,7.04,8.96,12.37,11.01,3.22,1.25,6.97,1.97,10.42,2.59.53.1,1.05.19,1.55.28,3.22.6,6.23,1.21,8.7,2.26.96.41,2.55,1.3,2.55,1.3h0c1.95.92,3.99,3.68,6.09,10.55,2.82,9.22,6.93,70.31,7.36,76.98.36,5.33,1.27,15.48,1.7,16.81.24.75.49,1.49.73,2.23.03.1.06.21.1.31,4.19,12.87,8.16,24.56,9.35,33.88.34,2.62.65,5.04.94,7.33.02.1.03.21.04.31,1.31,11.21,2.46,19.24,4,30.03.81,5.74,2.3,6.7,2.65,9.76.05.43.05.87.05,1.42,0,.24,0,.8.07,1.37.06,1.12.12,2.43.37,4.25.86,6.53,1.52,7.97,2.12,10.45,1.45,5.98,2.02,9.11,1.88,13.22-.19,5.45-1.34,8.05-3.46,10.69-1.1,1.36-2.18,3.06-3.88,4.88-2.42,2.6-2.76,2.73-3.74,1.27-1.29-1.91.35-4.5-.24-9.21-.8-6.46-2.09-8.28-2.53-16.17-.07-1.2-.69,5.27-2.83,7.64-1.69,1.88-4.55,1.75-4.09.81,4.31-8.9.54-14.6,2.4-21.41.61-2.2,2.28-5.7,2.2-7.34,0-.07-.02-.15-.03-.22,0-.1-.02-.2-.03-.29-.36-3.76-2.29-8.4-5.03-14.21-3.76-7.97-5.92-12.88-11.2-27.02-.11-.31-.23-.62-.35-.95-.35-.93-.71-1.89-1.07-2.89-6.43-17.68-7.52-33.2-7.78-35.08-.11-.8-.26-1.69-.44-2.6-.02-.1-.04-.2-.06-.3-1.75-8.92-6.23-22.72-9.14-34.41-.46-1.85-1.59-7.31-2.05-9.6-.13.51-.26,1.03-.4,1.55-2.24,10.99-3.85,29.25-3.21,42.76,1.06,5.93,3.4,12.11,6.08,19.32,2.5,6.7,4.61,12.29,6.15,16.17.47,1.11.84,1.95,1.12,2.49,0,.02.02.04.03.06.15.29.29.56.42.8.57,1.09.99,1.86,1.19,2.27.1.21.17.36.2.44,3.11,9.05,7.94,20.98,8.04,40.82,0,.1,0,.2,0,.3v.29c.02,4.19-.15,8.72-.58,13.66-1.1,12.52-9.23,39.26-12.26,52.03-6.75,28.39-10.57,45.42-11.07,55.42-.64,12.93.84,16.97,2.16,24.8,2.56,15.21.69,28.36-2.35,40.42-5.63,22.28-11.53,32.19-12.13,43.88-.15,2.92,1.69,4.14.68,7.83-.53,1.93-1.43,3.77-.07,8.05,4.59,14.48,10.56,18.27,9.86,23.56-.79,5.86-17.36,5.5-23.84,4.18-5.34-1.09-5.27-10.06-3.73-20.34.31-2.08.47-4.4.35-7.96-.06-1.76-.46-3.81-.67-6.28-.19-2.28.37-4.69.67-6.6.23-1.44.47-2.6.51-3.21,1.43-22.38.98-27.75-1.39-48.79-2.39-21.27.97-25.08.55-38.08-.25-7.71-2.22-15.58-2.75-23.93-.66-10.46.25-20.35,1.18-27.79,2.58-20.57,2.56-23.89,3.39-40.15.9-17.66-3.85-26.32-1.14-41.55-.63.27-2.17.39-3.7.38-1.53,0-3.07-.11-3.7-.38,2.71,15.23-2.04,23.89-1.14,41.55.83,16.26.81,19.58,3.39,40.15.93,7.44,1.84,17.33,1.18,27.79-.53,8.35-2.5,16.22-2.75,23.93-.42,13,2.94,16.81.55,38.08-2.38,21.04-2.82,26.41-1.39,48.79.04.61.28,1.77.51,3.21.3,1.91.86,4.32.67,6.6-.21,2.47-.61,4.52-.67,6.28-.12,3.56.04,5.88.35,7.96,1.54,10.28,1.61,19.25-3.73,20.34-6.49,1.32-23.05,1.68-23.84-4.18-.7-5.29,5.27-9.08,9.86-23.56,1.36-4.28.46-6.12-.07-8.05-1.01-3.69.83-4.91.68-7.83-.6-11.69-6.5-21.6-12.13-43.88-3.04-12.06-4.91-25.21-2.35-40.42,1.32-7.83,2.8-11.87,2.15-24.8-.49-10-4.31-27.03-11.06-55.42-3.03-12.77-11.16-39.51-12.26-52.03-.43-4.94-.6-9.47-.58-13.66v-.29c0-.1,0-.2,0-.3.1-19.92,4.99-31.86,8.08-40.93.02-.06.1-.22.22-.45.1-.19.24-.45.4-.76,0,0,0-.02.01-.03.24-.45.6-1.28,1.12-2.46,1.55-3.97,4.24-10.74,7.43-19.26,2.21-5.9,4.14-11.12,5.38-16.05.28-1.1.52-2.19.71-3.26,0,0,0,0,0,0,.61-12.53-.72-28.91-2.75-39.58-.13-.54-.26-1.07-.39-1.6-.23-.6-.49-1.09-.74-1.53-.35,1.72-.93,4.53-1.38,6.57-.26,1.18-.51,2.26-.7,3-1.26,4.99-2.78,10.33-4.25,15.49-1.68,5.95-3.29,11.66-4.3,16.31-.2.93-.38,1.81-.53,2.64-.02.09-.03.19-.05.29-.14.79-.28,1.64-.39,2.52-.35,2.77-1.56,17.08-7.37,33.48-.28.8-.57,1.58-.86,2.37-.37,1.01-.73,1.96-1.08,2.88-.04.11-.07.2-.11.31-4.77,12.42-6.86,17.59-10.07,24.46-.36.77-.72,1.55-1.1,2.34-2.21,4.73-3.87,8.67-4.5,11.98-.03.15-.06.31-.09.46-.1.59-.13,1.2-.13,1.81,0,.1,0,.19,0,.29,0,.05,0,.1,0,.15.09,1.31.96,3.45,1.59,5.27.25.72.47,1.42.61,2.04,1.5,6.27-1.56,11.68,1.76,19.66.22.52.22,1,.23,1.4.01.52-1.42.6-2.76-.2-.45-.27-.88-.64-1.24-1.11-1.4-1.83-2.05-5.34-2.35-6.43-.17-.63-.25-.94-.28-.49-.43,7.18-1.59,9.24-2.38,14.86-.06.41-.11.82-.15,1.25-.42,3.94.7,6.36.1,8.15-.12.36-.27.67-.48.95-.83,1.09-1.25.98-3.06-.93-.21-.22-.44-.46-.67-.72-1.4-1.53-2.38-2.97-3.31-4.18-.18-.23-.36-.46-.53-.68-1.97-2.5-3.07-5.02-3.31-10.01-.01-.22-.02-.45-.03-.67-.12-3.95.43-7.03,1.8-12.71.04-.15.07-.29.11-.44.63-2.57,1.33-4.1,2.25-11.4.26-2.06.28-3.34.29-4.28,0-.02,0-.27,0-.29,0-.55,0-.99.05-1.42.35-3.06,1.84-4.02,2.65-9.76,1.54-10.82,2.68-18.86,4.01-30.11.01-.1.02-.2.04-.3.29-2.27.59-4.67.93-7.26,1.19-9.34,5.18-21.07,9.38-33.96.04-.1.07-.2.1-.3.23-.72.47-1.43.71-2.16.44-1.33,1.34-11.48,1.7-16.81.43-6.67,4.54-67.76,7.36-76.98,2.1-6.87,4.14-9.63,6.09-10.54h0s1.59-.9,2.55-1.31Z"/>
  </g>
</svg>