<?xml version="1.0" encoding="UTF-8"?>
<svg id="_레이어_2" data-name="레이어 2" xmlns="http://www.w3.org/2000/svg" viewBox="0 0 181.09 572.09">
  <defs>
    <style>
      .cls-1 {
        fill: #f3a9aa;
        stroke: #231815;
        stroke-miterlimit: 10;
      }
    </style>
  </defs>
  <g id="_레이어_1-2" data-name="레이어 1">
    <path class="cls-1" d="m178.69,312.27c-.55-2.28-1.15-3.69-1.91-8.83-.01-.1-.03-.19-.04-.29-.01-.08-.02-.17-.04-.26-.05-.32-.09-.65-.14-1.01-.24-1.82-.31-3.13-.37-4.25-.06-.51-.07-1-.07-1.27v-.17c0-.55,0-.99-.05-1.42-.35-3.06-1.84-4.02-2.65-9.76-1.54-10.79-2.57-18.84-4-30.04,0-.1-.02-.2-.04-.3-.29-2.29-.6-4.71-.94-7.33-1.19-9.32-5.16-21.02-9.35-33.89-.04-.1-.07-.2-.1-.3-.24-.74-.48-1.48-.73-2.23-.43-1.33-1.34-11.48-1.7-16.81-.43-6.67-4.54-67.76-7.36-76.98-2.1-6.87-4.14-9.63-6.09-10.54h0s-1.59-.9-2.55-1.31c-2.47-1.05-5.47-1.66-8.69-2.26-3.04-.56-6.81-1.17-10.06-2.15-.65-.2-1.29-.41-1.91-.64,0,0,0,0-.01,0-5.33-2.05-9.73-4.61-12.37-11.01-1.12-2.7-1.57-10.21-1.75-15.34,2.54-2.35,4.5-5.38,5.73-10.41.23-.9.49-1.97.74-3.12.35.12.66.16.95.14,2.01-.18,2.62-3.59,3.07-4.68.57-1.36,1.33-1.49,2.08-4.5.5-2-.37-3.32,0-4.61.24-.87.35-3.32-.75-4.16-.06-.05-.13-.08-.2-.11-.07-.03-.15-.05-.23-.07,1.65-6.27,2.7-16.51-.73-24.35-.65-1.48-1.37-2.83-2.13-4.07-.8-1.29-1.64-2.46-2.52-3.51-.2-.24-.41-.48-.61-.71-.34-.41-.7-.81-1.07-1.2-3.37-3.57-8.04-6.2-13.38-7.36-1.98-.43-4.04-.66-6.17-.66h-.01c-8.52,0-16.06,3.65-20.62,9.22-1.94,2.17-3.77,4.9-5.26,8.29-3.22,7.35-2.49,16.81-1.03,23.13.1.42.2.83.3,1.22-.16.04-.31.09-.43.18-1.1.83-.99,3.29-.75,4.16.36,1.29-.51,2.61,0,4.61.28,1.13.56,1.85.84,2.39.35.68.68,1.05.97,1.57.09.16.19.34.27.55.46,1.09,1.06,4.5,3.07,4.68.29.03.6-.01.95-.14.04.16.07.32.11.47.2.9.41,1.74.59,2.48.01.05.03.11.04.16,0,.04.02.07.03.11,1.18,4.74,3.02,7.69,5.38,9.98.11.1.21.22.32.32-.18,5.13-.63,12.64-1.75,15.34-2.64,6.4-7.04,8.96-12.37,11.01-.01,0-.03,0-.04.01-3.58,1.38-8.29,2.12-11.94,2.79-3.22.6-6.22,1.21-8.69,2.26-.96.41-2.55,1.3-2.55,1.3h0c-1.95.92-3.99,3.68-6.09,10.55-2.82,9.22-6.93,70.31-7.36,76.98-.36,5.33-1.27,15.48-1.7,16.81-.25.75-.49,1.49-.73,2.23-.03.1-.06.2-.1.3-4.19,12.87-8.16,24.57-9.35,33.89-.34,2.62-.65,5.04-.94,7.33-.02.1-.03.2-.04.3-1.43,11.2-2.46,19.25-4,30.04-.81,5.74-2.3,6.7-2.65,9.76-.05.43-.05.87-.05,1.42v.02s0,.04,0,.06v.26c0,.94-.03,2.21-.29,4.23-.93,7.4-1.63,8.87-2.27,11.5-1.32,5.45-1.91,8.54-1.9,12.15,0,.1,0,.2,0,.3,0,.02,0,.03,0,.05,0,.21,0,.42.01.63,0,.23.02.45.03.67.24,4.99,1.34,7.51,3.31,10.01.17.22.35.45.53.68.94,1.21,1.91,2.65,3.31,4.18.24.26.46.5.67.72,1.43,1.5,1.99,1.87,2.57,1.44,0,0,0,0,0,0,.15-.12.31-.28.48-.51.12-.15.21-.32.3-.5.67-1.23.28-2.75.07-4.91-.1-1.06-.14-2.27,0-3.68.05-.43.1-.84.15-1.25.64-4.59,1.53-6.8,2.07-11.36.02-.2.04-.4.07-.61.02-.17.04-.33.05-.5.02-.21.04-.44.06-.66.02-.2.03-.39.05-.6.01-.18.03-.37.04-.56.01-.19.03-.38.04-.58.03-.44.11-.14.28.49.16.61.45,1.96.9,3.36.04.11.07.23.11.34.05.14.1.27.15.41.06.15.12.3.18.45.05.12.1.24.15.36.11.23.22.46.33.68.04.07.08.14.12.21.11.18.22.35.33.51.03.04.05.08.07.11.03.04.06.07.1.1.04.05.09.12.13.17.11.12.22.23.34.34.03.03.07.06.1.08.16.13.32.25.48.35.03.02.06.05.09.07.07.04.14.07.21.11.07.04.14.08.22.11.07.03.13.06.2.09.11.04.21.08.31.12.03,0,.05.02.08.03,1.26.39,2.35.12,2.05-.48-.53-1.08-.93-2.12-1.24-3.12-.02-.08-.04-.15-.07-.23-.12-.39-.22-.78-.31-1.16-.04-.16-.07-.31-.1-.47-.06-.28-.11-.56-.16-.84-.04-.23-.07-.45-.1-.68-.02-.18-.04-.37-.06-.55-.03-.3-.06-.6-.08-.89,0-.07,0-.14-.01-.21-.13-2.37.1-4.56.21-6.72.12-2.17.12-4.3-.49-6.56-.38-1.37-1.17-3.25-1.7-4.87,0,0,0-.02,0-.03-.02-.05-.03-.1-.04-.15-.19-.63-.32-1.21-.35-1.69,0-.05,0-.1,0-.15,0-.1,0-.2,0-.29,0-.61.03-1.22.13-1.81.03-.15.06-.31.09-.46.62-3.31,2.28-7.25,4.5-11.98.37-.8.74-1.57,1.1-2.34,1.13-2.43,2.13-4.64,3.15-7.04,1.64-3.78,3.35-8.04,5.73-14.32.38-.99.77-2.01,1.19-3.1.04-.1.07-.2.11-.31.34-.92.71-1.87,1.08-2.88.29-.78.58-1.57.86-2.37,1.96-5.55,3.4-10.85,4.46-15.56,1.79-7.93,2.51-14.19,2.81-17.09.04-.34.07-.62.1-.83.11-.88.25-1.73.39-2.52.02-.1.04-.2.05-.29.18-.96.39-1.99.63-3.07,1.05-4.69,2.66-10.4,4.33-16.34,1.41-4.97,2.86-10.09,4.08-14.88.22-.88.53-2.22.85-3.65.42-1.9.92-4.33,1.24-5.91.32.54.63,1.14.91,1.9.13.52.25,1.04.38,1.57,1.98,10.58,3.26,26.57,2.66,38.88,0,0,0,0,0,0-.24,1.31-.67,2.6-1.22,3.92-1.7,4.11-4.45,8.34-7.01,12.98-.75.92-1.48,1.85-2.16,2.79-8.68,12-9.96,14.04-13.87,22.84-.02.05-.04.1-.06.15-3.75,9.09-9.49,21.1-9.75,41.23v.29c-.04,4.28.16,8.91.69,13.96,1.31,12.52,10.98,39.26,14.59,52.03,8.02,28.39,12.56,45.42,13.15,55.42.77,12.93-.99,16.97-2.56,24.8-3.05,15.21-.82,28.36,2.8,40.42,6.69,22.28,13.71,32.19,14.43,43.88.17,2.92-2.02,4.14-.81,7.83.63,1.93,1.69,3.77.08,8.05-5.46,14.48-12.57,18.27-11.73,23.56.93,5.86,20.64,5.5,28.36,4.18,6.35-1.09,6.26-10.06,4.43-20.34-.37-2.08-.56-4.4-.42-7.96.08-1.76.55-3.81.8-6.28.23-2.28-.43-4.69-.8-6.6-.27-1.44-.55-2.6-.6-3.21-1.7-22.38-1.17-27.75,1.65-48.79,2.85-21.27-1.15-25.08-.65-38.08.3-7.71,2.64-15.58,3.27-23.93.79-10.46-.3-20.35-1.41-27.79-3.06-20.57-3.04-23.89-4.03-40.15-1.07-17.66,4.59-26.32,1.36-41.55.75.27,2.58.37,4.4.38,1.82.01,3.65-.11,4.4-.38-3.23,15.23,2.43,23.89,1.36,41.55-.99,16.26-.97,19.58-4.03,40.15-1.11,7.44-2.19,17.33-1.4,27.79.62,8.35,2.96,16.22,3.26,23.93.5,13-3.5,16.81-.64,38.08,2.82,21.04,3.35,26.41,1.64,48.79-.05.61-.33,1.77-.6,3.21-.36,1.91-1.03,4.32-.8,6.6.25,2.47.73,4.52.8,6.28.14,3.56-.05,5.88-.42,7.96-1.83,10.28-1.91,19.25,4.44,20.34,7.71,1.32,27.42,1.68,28.35-4.18.84-5.29-6.26-9.08-11.72-23.56-1.62-4.28-.55-6.12.08-8.05,1.21-3.69-.99-4.91-.81-7.83.71-11.69,7.73-21.6,14.43-43.88,3.62-12.06,5.84-25.21,2.8-40.42-1.57-7.83-3.33-11.87-2.57-24.8.59-10,5.13-27.03,13.16-55.42,3.61-12.77,13.28-39.51,14.59-52.03.52-5.05.72-9.68.68-13.96v-.29c-.25-20.13-6-32.14-9.75-41.23-.02-.05-.04-.1-.06-.15-3.91-8.8-5.19-10.84-13.87-22.84-1.1-1.52-2.33-3.02-3.6-4.51-2.92-5-5.81-9.55-6.64-14.17,0,0,0,0,0,0-.64-13.51.97-31.77,3.21-42.75.13-.52.26-1.04.4-1.55.46,2.29,1.59,7.75,2.05,9.6,2.91,11.69,7.39,25.49,9.14,34.41.02.1.04.2.06.3.18.92.33,1.8.44,2.6.26,1.88,1.34,17.4,7.78,35.08.36.99.72,1.95,1.07,2.89.12.33.24.64.35.95,5.28,14.14,7.44,19.05,11.2,27.01,2.74,5.81,4.68,10.45,5.03,14.21,0,.1.02.2.03.29,0,.07.02.14.02.21.04,1.66-1.59,5.1-2.2,7.28-.35,1.3-.5,2.55-.54,3.8-.1,2.85.38,5.65.31,8.74-.07,2.66-.55,5.54-2.16,8.87-.04.08-.05.15-.04.21-.12.81,2.53.84,4.13-.95,2.14-2.37,2.76-8.84,2.83-7.64.44,7.89,1.73,9.71,2.53,16.17.11.87.14,1.66.13,2.39-.04,1.97-.38,3.49-.4,4.72-.02.8.09,1.49.5,2.1.98,1.46,1.32,1.33,3.74-1.27,1.7-1.82,2.78-3.52,3.88-4.88,2.12-2.64,3.27-5.24,3.46-10.69,0-.28.01-.55.02-.82.05-3.76-.54-6.86-1.9-12.48Z"/>
  </g>
</svg>