<?xml version="1.0" encoding="UTF-8"?>
<svg id="_레이어_2" data-name="레이어 2" xmlns="http://www.w3.org/2000/svg" viewBox="0 0 181.09 571.71">
  <defs>
    <style>
      .cls-1 {
        fill: #f3a9aa;
        stroke: #231815;
        stroke-miterlimit: 10;
      }
    </style>
  </defs>
  <g id="_레이어_1-2" data-name="레이어 1">
    <path class="cls-1" d="m40.52,105.36c2.57-1.09,5.72-1.71,9.08-2.33,3.66-.67,8-1.41,11.59-2.8,5.33-2.05,9.73-4.61,12.37-11.01,1.12-2.7,1.57-10.21,1.75-15.34-2.54-2.35-4.47-5.39-5.73-10.41-.23-.9-.49-1.97-.74-3.12-2.78.98-3.5-3.3-4.02-4.54-.57-1.36-1.33-1.49-2.08-4.5-.5-2,.37-3.32,0-4.61-.24-.87-.35-3.33.75-4.16.12-.09.27-.14.43-.18-1.65-6.27-2.7-16.51.73-24.35,1.49-3.39,3.32-6.12,5.26-8.29,4.56-5.57,12.1-9.22,20.62-9.22,0,0,0,0,.01,0,8.52,0,16.06,3.65,20.62,9.22,1.94,2.17,3.77,4.9,5.26,8.29,3.43,7.84,2.38,18.08.73,24.35.16.04.31.09.43.18,1.1.84.99,3.29.75,4.16-.36,1.29.51,2.61,0,4.61-.75,3.01-1.51,3.14-2.08,4.5-.52,1.24-1.24,5.52-4.02,4.54-.25,1.15-.52,2.22-.74,3.12-1.25,5.03-3.19,8.06-5.73,10.41.18,5.13.63,12.64,1.75,15.34,2.64,6.4,7.04,8.96,12.37,11.01,3.22,1.25,6.97,1.97,10.42,2.59.53.1,1.05.19,1.55.28,3.22.6,6.23,1.21,8.7,2.26.96.41,2.55,1.3,2.55,1.3h0c1.95.92,3.99,3.68,6.09,10.55,2.82,9.22,6.93,70.31,7.36,76.98.36,5.33,1.27,15.48,1.7,16.81.24.75.49,1.49.73,2.23.03.1.06.21.1.31,4.19,12.87,8.16,24.56,9.35,33.88.34,2.62.65,5.04.94,7.33.02.1.03.21.04.31,1.33,11.21,2.46,19.24,4,30.03.81,5.74,2.3,6.7,2.65,9.76.05.43.05.87.05,1.42,0,.24,0,.8.07,1.37.06,1.12.12,2.43.37,4.25.86,6.53,1.52,7.97,2.12,10.45,1.45,5.98,2.02,9.11,1.88,13.22-.19,5.45-1.34,8.05-3.46,10.69-1.1,1.36-2.18,3.06-3.88,4.88-2.42,2.6-2.76,2.73-3.74,1.27-1.29-1.91.35-4.5-.24-9.21-.8-6.46-2.09-8.28-2.53-16.17-.07-1.2-.69,5.27-2.83,7.64-1.69,1.88-4.55,1.75-4.09.81,4.31-8.9.54-14.6,2.4-21.41.61-2.2,2.28-5.7,2.2-7.34,0-.07-.02-.15-.03-.22,0-.1-.02-.2-.03-.29-.36-3.76-2.29-8.4-5.03-14.21-3.76-7.97-5.92-12.88-11.2-27.02-.11-.31-.23-.62-.35-.95-.35-.93-.71-1.89-1.07-2.89-6.43-17.68-7.52-33.2-7.78-35.08-.11-.8-.26-1.69-.44-2.6-.02-.1-.04-.2-.06-.3-1.75-8.92-6.23-22.72-9.14-34.41-.46-1.85-1.59-7.31-2.05-9.6-.13.51-.26,1.03-.4,1.55-2.26,11.04-4.08,29.96-1.65,42.76,1.11,5.87,3.9,11.97,6.89,18.99,1.49,3.5,2.75,6.75,3.84,9.6,3.31,6.83,5.23,11.44,5.74,12.57.07.15.12.27.12.29,3.35,9.08,8.55,21.06,8.65,41.08,0,.1.01.19.01.29v.15c.03,4.24-.15,8.82-.61,13.82-1.17,12.52-9.82,39.25-13.04,52.02-7.18,28.39-11.24,45.42-11.76,55.43-.68,12.92.89,16.96,2.29,24.79,2.72,15.21.74,28.37-2.5,40.42-5.99,22.28-12.26,32.19-12.9,43.89-.16,2.91,1.81,4.13.73,7.83-.56,1.92-1.52,3.76-.08,8.04,4.88,14.48,11.23,18.28,10.48,23.57-.83,5.86-18.45,5.49-25.34,4.17-5.68-1.09-5.6-10.06-3.96-20.34.33-2.08.5-4.4.37-7.96-.07-1.75-.5-3.8-.72-6.28-.21-2.28.4-4.69.72-6.59.24-1.45.49-2.61.54-3.22,1.68-22.37,1.05-27.75-1.48-48.79-2.54-21.26,1.03-25.08.58-38.08-.27-7.71-2.36-15.58-2.92-23.92-.7-10.47.27-20.35,1.26-27.79,2.73-20.58,2.72-23.9,3.6-40.16.96-17.66-4.1-26.31-1.21-41.54-.67.26-2.31.39-3.94.37s-3.26-.11-3.93-.37c2.89,15.23-2.17,23.88-1.22,41.54.89,16.26.87,19.58,3.61,40.16.99,7.44,1.96,17.32,1.25,27.79-.56,8.34-2.65,16.21-2.91,23.92-.45,13,3.12,16.82.57,38.08-2.52,21.04-2.99,26.41-1.47,48.79.04.61.3,1.77.54,3.22.32,1.9.92,4.31.71,6.59-.22,2.48-.65,4.53-.71,6.28-.13,3.56.04,5.88.37,7.96,1.64,10.28,1.71,19.25-3.96,20.34-6.9,1.32-24.51,1.69-25.34-4.17-.75-5.29,5.59-9.09,10.47-23.57,1.45-4.28.5-6.12-.07-8.04-1.09-3.7.88-4.92.73-7.83-.64-11.7-6.92-21.61-12.9-43.89-3.24-12.05-5.23-25.21-2.5-40.42,1.4-7.83,2.97-11.87,2.29-24.79-.53-10.01-4.58-27.04-11.76-55.43-3.22-12.77-11.87-39.5-13.04-52.02-.46-5-.64-9.58-.61-13.82v-.15c0-.1,0-.19,0-.29.11-20.02,5.3-32,8.65-41.08,0-.02.05-.14.12-.29.46-1.02,2.06-4.85,4.79-10.59,1.3-3.49,2.89-7.68,4.88-12.29,2.95-6.84,5.72-12.67,6.8-18.27,2.52-13.13.4-32.89-1.94-43.92-.1.19-.21.46-.33.77-.52,2.54-1.42,6.84-1.81,8.44-1.46,5.87-3.32,12.26-5.02,18.31-1.7,6.03-3.25,11.72-4.13,16.17-.02.1-.04.2-.06.3-.17.89-.32,1.75-.43,2.52-.26,1.9-1.37,17.82-8.03,35.8-.37,1.01-.74,1.97-1.08,2.89-.04.11-.07.2-.11.3-5.38,14.04-7.42,18.99-11.17,26.94-2.76,5.85-4.71,10.51-5.04,14.28,0,.11-.03.23-.04.34,0,.05-.02.1-.02.15-.06,1.65,1.59,5.12,2.2,7.31,1.86,6.81-1.91,12.51,2.4,21.41.46.94-2.4,1.07-4.09-.81-2.14-2.37-2.76-8.84-2.83-7.64-.44,7.89-1.73,9.71-2.53,16.17-.59,4.71,1.05,7.3-.24,9.21-.98,1.46-1.32,1.33-3.74-1.27-1.7-1.82-2.78-3.52-3.88-4.88-2.12-2.64-3.27-5.24-3.46-10.69-.14-4.11.43-7.24,1.88-13.22.64-2.63,1.34-4.1,2.27-11.5.26-2.06.28-3.34.29-4.28,0-.02,0-.27,0-.29,0-.55,0-.99.05-1.42.35-3.06,1.84-4.02,2.65-9.76,1.54-10.82,2.7-18.86,4.01-30.11.01-.1.02-.2.04-.3.29-2.27.59-4.67.93-7.26,1.19-9.34,5.18-21.07,9.38-33.96.04-.1.07-.2.1-.3.23-.72.47-1.43.71-2.16.44-1.33,1.34-11.48,1.7-16.81.43-6.67,4.54-67.76,7.36-76.98,2.1-6.87,4.14-9.63,6.09-10.54h0s1.59-.9,2.55-1.31Z"/>
  </g>
</svg>