<?xml version="1.0" encoding="UTF-8"?>
<svg id="_레이어_2" data-name="레이어 2" xmlns="http://www.w3.org/2000/svg" viewBox="0 0 181.09 571.41">
  <defs>
    <style>
      .cls-1 {
        fill: #f3a9aa;
        stroke: #231815;
        stroke-miterlimit: 10;
      }
    </style>
  </defs>
  <g id="_레이어_1-2" data-name="레이어 1">
    <path class="cls-1" d="m40.52,105.51c2.77-1.18,6.22-1.79,9.88-2.48,3.66-.67,7.21-1.41,10.79-2.8,5.33-2.05,9.73-4.61,12.37-11.01,1.12-2.7,1.57-10.21,1.75-15.34-2.54-2.35-4.47-5.39-5.73-10.41-.23-.9-.49-1.98-.74-3.12-2.78.98-3.5-3.3-4.02-4.54-.57-1.37-1.33-1.5-2.08-4.5-.5-2.01.37-3.32,0-4.61-.24-.87-.35-3.33.75-4.16.12-.09.27-.14.43-.19-1.65-6.26-2.7-16.5.73-24.34,1.49-3.39,3.32-6.13,5.26-8.29,4.56-5.58,12.1-9.22,20.62-9.22,0,0,0,0,.01,0,8.52,0,16.06,3.64,20.62,9.22,1.94,2.16,3.77,4.9,5.26,8.29,3.43,7.84,2.38,18.08.73,24.34.16.05.31.1.42.19,1.11.84,1,3.29.76,4.16-.36,1.29.51,2.6,0,4.61-.75,3-1.51,3.13-2.08,4.5-.52,1.24-1.24,5.52-4.02,4.54-.25,1.14-.52,2.22-.74,3.12-1.23,5.03-3.19,8.06-5.73,10.41.18,5.13.63,12.64,1.74,15.34,2.65,6.4,7.05,8.96,12.38,11.01,3.47,1.34,6.81,2.08,10.4,2.73.52.1,1.04.19,1.55.29,3.23.6,6.24,1.22,8.71,2.26.97.41,2.55,1.3,2.55,1.3v.02c1.96.91,3.99,3.66,6.09,10.54,2.82,9.21,6.93,70.3,7.37,76.97.35,5.34,1.27,15.48,1.7,16.82.24.75.48,1.49.72,2.23.04.11.07.22.11.34,4.2,12.86,8.15,24.55,9.35,33.85.34,2.61.65,5.03.94,7.33.02.11.03.22.04.33,1.39,11.19,2.45,19.22,3.99,30.01.82,5.75,2.3,6.71,2.66,9.76.05.44.05.88.05,1.43,0,.73,0,1.79.22,3.5.16,1.5.31,2.85.52,4.22.71,4.78,1.29,6.16,1.82,8.34,1.45,5.98,2.02,9.1,1.88,13.22-.19,5.44-1.34,8.05-3.47,10.69-1.09,1.36-2.17,3.05-3.87,4.88-2.42,2.6-2.76,2.72-3.75,1.26-1.29-1.9.36-4.5-.23-9.21-.8-6.46-2.09-8.27-2.53-16.17-.07-1.19-.7,5.28-2.83,7.65-1.7,1.88-4.55,1.75-4.09.8,4.31-8.89.53-14.59,2.4-21.4.6-2.2,2.28-5.7,2.19-7.35,0-.12-.02-.25-.04-.37,0-.09-.02-.19-.03-.29-.36-3.73-2.32-8.34-5.02-14.07-3.77-8-5.98-12.9-11.26-27.17-.27-.72-.54-1.47-.83-2.25-.35-.96-.71-1.92-1.04-2.89-5.98-17.07-7.01-31.8-7.26-33.63-.12-.84-.28-1.78-.47-2.75-.02-.1-.04-.19-.06-.29-1.77-8.93-6.22-22.65-9.12-34.28-.46-1.85-1.58-7.31-2.05-9.59-.13.51-.25,1.03-.38,1.55-.18,7.29,1.46,26.13,4.11,42.61,0,0,0,0,0,0,.97,6.15,2.2,12.53,3.25,18.26,1.39,7.7,2.44,14.07,3.09,18.63.5,1.43.98,2.88,1.49,4.39,3.09,9.13,7.93,21.13,8.09,41.22v.3c.02,4.2-.15,8.73-.58,13.67-1.1,12.52-9.23,39.25-12.26,52.03-6.75,28.38-10.57,45.41-11.07,55.42-.64,12.92.84,16.97,2.16,24.79,2.56,15.21.69,28.37-2.35,40.42-5.63,22.28-11.53,32.19-12.13,43.89-.15,2.91,1.69,4.13.68,7.83-.53,1.92-1.43,3.76-.07,8.04,4.59,14.48,10.56,18.28,9.86,23.57-.79,5.86-17.36,5.49-23.84,4.17-5.34-1.09-5.27-10.06-3.73-20.34.31-2.07.47-4.4.35-7.96-.06-1.75-.46-3.8-.67-6.28-.19-2.28.37-4.69.67-6.59.23-1.45.47-2.61.51-3.21,1.43-22.39.98-27.76-1.39-48.8-2.39-21.26.97-25.08.55-38.08-.25-7.7-2.22-15.58-2.75-23.92-.66-10.47.25-20.35,1.18-27.79,2.58-20.57,2.56-23.89,3.39-40.16.9-17.66-3.85-26.31-1.14-41.54-.63.26-2.17.38-3.7.37s-3.07-.11-3.7-.37c2.71,15.23-2.04,23.88-1.14,41.54.83,16.27.81,19.59,3.39,40.16.93,7.44,1.84,17.32,1.18,27.79-.53,8.34-2.5,16.22-2.75,23.92-.42,13,2.94,16.82.55,38.08-2.38,21.04-2.82,26.41-1.39,48.8.04.6.28,1.76.51,3.21.3,1.9.86,4.31.67,6.59-.21,2.48-.61,4.53-.67,6.28-.12,3.56.04,5.89.35,7.96,1.54,10.28,1.61,19.25-3.73,20.34-6.49,1.32-23.05,1.69-23.84-4.17-.7-5.29,5.27-9.09,9.86-23.57,1.36-4.28.46-6.12-.07-8.04-1.01-3.7.83-4.92.68-7.83-.6-11.7-6.5-21.61-12.13-43.89-3.04-12.05-4.91-25.21-2.35-40.42,1.32-7.82,2.8-11.87,2.15-24.79-.49-10.01-4.31-27.04-11.06-55.42-3.03-12.78-11.16-39.51-12.26-52.03-.43-4.94-.6-9.47-.58-13.67v-.3c.16-20.09,5-32.09,8.09-41.22.46-1.35.89-2.65,1.33-3.93.72-4.98,1.84-12.03,3.43-20.54,1-5.35,2.17-11.2,3.07-16.82,0,0,0,0,0,0,2.69-16.58,4.24-35.7,4.02-42.98-.12-.28-.24-.54-.37-.78-.48,2.37-1.53,7.44-1.97,9.21-1.46,5.86-3.31,12.25-5.02,18.3-1.7,6.04-3.25,11.73-4.13,16.18-.02.11-.04.21-.06.31-.17.89-.32,1.74-.43,2.51-.26,1.91-1.37,17.82-8.03,35.8-.37,1.01-.73,1.97-1.08,2.9-.04.1-.07.19-.11.29-5.3,14.07-7.42,18.99-11.17,26.95-2.76,5.84-4.74,10.51-5.04,14.28-.01.13-.04.28-.05.41,0,.05,0,.09,0,.14-.01,1.68,1.6,5.09,2.2,7.25,1.86,6.81-1.91,12.51,2.4,21.4.46.95-2.4,1.08-4.09-.8-2.14-2.37-2.76-8.84-2.83-7.65-.44,7.9-1.73,9.71-2.53,16.17-.59,4.71,1.05,7.3-.24,9.21-.98,1.46-1.32,1.34-3.74-1.26-1.7-1.83-2.78-3.52-3.88-4.88-2.12-2.64-3.27-5.25-3.46-10.69-.14-4.12.43-7.24,1.88-13.22.64-2.64,1.34-4.11,2.27-11.5.26-2.07.28-3.35.29-4.3,0-.07,0-.21,0-.27,0-.55,0-.99.05-1.43.35-3.05,1.84-4.01,2.65-9.76,1.55-10.87,2.63-18.93,4.03-30.26.01-.1.02-.19.04-.29.28-2.23.58-4.59.91-7.12,1.2-9.37,5.21-21.16,9.43-34.12.03-.1.07-.2.1-.3.21-.67.44-1.33.66-2.01.44-1.34,1.34-11.48,1.7-16.82.43-6.67,4.54-67.76,7.36-76.97,2.1-6.88,4.14-9.63,6.09-10.54v-.02s1.59-.89,2.55-1.3Z"/>
  </g>
</svg>