<?xml version="1.0" encoding="UTF-8"?>
<svg id="_레이어_2" data-name="레이어 2" xmlns="http://www.w3.org/2000/svg" viewBox="0 0 181.09 571.79">
  <defs>
    <style>
      .cls-1 {
        fill: #f3a9aa;
        stroke: #231815;
        stroke-miterlimit: 10;
      }
    </style>
  </defs>
  <g id="_레이어_1-2" data-name="레이어 1">
    <path class="cls-1" d="m180.57,325.49c-.19,5.45-1.34,8.05-3.46,10.69-1.1,1.36-2.18,3.06-3.88,4.88-2.42,2.6-2.76,2.73-3.74,1.27-1.29-1.91.35-4.5-.24-9.21-.8-6.46-2.11-8.28-2.53-16.17-.07-1.2-.69,5.27-2.83,7.64-1.69,1.88-4.55,1.75-4.09.81,4.31-8.9.54-14.6,2.4-21.41.61-2.2,2.28-5.7,2.2-7.34,0-.05,0-.1-.02-.15,0-.1-.02-.2-.03-.3-.31-3.77-2.28-8.43-5.04-14.28-3.75-7.95-5.91-12.86-11.17-26.94-.04-.1-.07-.19-.11-.3-.35-.92-.71-1.88-1.08-2.89-6.66-17.98-7.77-33.9-8.03-35.8-.11-.78-.26-1.64-.43-2.53-.02-.1-.04-.2-.06-.3-1.74-8.92-6.23-22.76-9.15-34.48-.46-1.85-1.59-7.31-2.05-9.6-3.41,12.9-5.75,33.36-2.69,44.38,1.25,5.53,4.67,11.29,8.17,18.92,5.37,11.74,8.81,21.92,9.01,22.45.02.05.04.1.05.15,3.37,9.12,8.49,21.17,8.66,41.37v.15c.03,4.24-.15,8.82-.61,13.82-1.17,12.51-9.82,39.25-13.04,52.02-7.18,28.39-11.24,45.42-11.76,55.43-.68,12.92.89,16.96,2.29,24.79,2.72,15.21.74,28.37-2.5,40.42-5.99,22.28-12.26,32.19-12.9,43.89-.16,2.91,1.8,4.13.73,7.83-.57,1.92-1.52,3.76-.08,8.04,4.88,14.48,11.23,18.28,10.48,23.57-.83,5.86-18.45,5.49-25.34,4.17-5.68-1.09-5.6-10.06-3.96-20.34.33-2.08.5-4.4.37-7.96-.07-1.75-.49-3.8-.72-6.28-.2-2.28.4-4.69.72-6.59.24-1.45.49-2.61.54-3.22,1.52-22.38,1.05-27.75-1.48-48.79-2.54-21.26,1.03-25.08.58-38.08-.27-7.71-2.36-15.58-2.92-23.92-.7-10.47.27-20.35,1.26-27.8,2.73-20.57,2.72-23.89,3.6-40.15.96-17.66-4.1-26.31-1.21-41.54-.67.26-2.31.39-3.94.37-1.62-.01-3.26-.11-3.93-.37,2.89,15.23-2.17,23.88-1.22,41.54.89,16.26.87,19.58,3.61,40.15.99,7.45,1.96,17.33,1.25,27.8-.56,8.34-2.65,16.21-2.91,23.92-.45,13,3.12,16.82.57,38.08-2.52,21.04-2.99,26.41-1.47,48.79.04.61.3,1.77.54,3.22.32,1.9.92,4.31.71,6.59-.22,2.48-.65,4.53-.71,6.28-.13,3.56.04,5.88.37,7.96,1.64,10.28,1.71,19.25-3.96,20.34-6.9,1.32-24.51,1.69-25.34-4.17-.75-5.29,5.59-9.09,10.47-23.57,1.45-4.28.5-6.12-.07-8.04-1.08-3.7.88-4.92.73-7.83-.64-11.7-6.92-21.61-12.9-43.89-3.24-12.05-5.23-25.21-2.5-40.42,1.4-7.83,2.97-11.87,2.29-24.79-.53-10.01-4.58-27.04-11.76-55.43-3.22-12.77-11.87-39.51-13.04-52.02-.46-5-.64-9.58-.61-13.82v-.15c.17-20.2,5.29-32.25,8.66-41.37,0-.05.03-.1.05-.15.2-.53,3.63-10.71,9.01-22.45,3.49-7.63,6.92-13.39,8.17-18.92,3.07-11.02.72-31.48-2.68-44.38-.47,2.29-1.6,7.75-2.05,9.6-2.92,11.72-7.42,25.56-9.15,34.48-.02.1-.04.2-.06.3-.17.89-.32,1.75-.44,2.53-.25,1.9-1.36,17.82-8.02,35.8-.38,1.01-.73,1.97-1.08,2.89-.05.11-.07.2-.11.3-5.27,14.08-7.42,18.99-11.17,26.94-2.77,5.85-4.73,10.51-5.04,14.28-.02.1-.02.2-.04.3,0,.05-.02.1-.02.15-.07,1.64,1.6,5.14,2.21,7.34,1.85,6.81-1.92,12.51,2.4,21.41.45.94-2.4,1.07-4.09-.81-2.14-2.37-2.77-8.84-2.83-7.64-.42,7.89-1.73,9.71-2.53,16.17-.6,4.71,1.05,7.3-.24,9.21-.98,1.46-1.32,1.33-3.74-1.27-1.7-1.82-2.78-3.52-3.89-4.88-2.11-2.64-3.27-5.24-3.46-10.69-.13-4.11.44-7.24,1.88-13.22.65-2.63,1.35-4.1,2.27-11.5.27-2.05.29-3.33.29-4.27v-.3c0-.55,0-.99.06-1.42.35-3.06,1.84-4.02,2.65-9.76,1.54-10.79,2.56-18.84,4-30.04,0-.1.02-.2.04-.3.29-2.29.6-4.71.94-7.33,1.19-9.32,5.16-21.02,9.35-33.89.04-.1.07-.2.1-.3.24-.74.48-1.48.73-2.23.42-1.33,1.34-11.48,1.69-16.81.44-6.67,4.55-67.76,7.37-76.98,2.09-6.87,4.13-9.63,6.09-10.54h0s1.59-.9,2.54-1.31c2.48-1.05,5.48-1.66,8.69-2.26,3.67-.67,8.4-1.41,11.98-2.8,5.33-2.05,9.73-4.61,12.38-11.01,1.12-2.7,1.57-10.21,1.75-15.34-2.55-2.35-4.5-5.38-5.73-10.41-.23-.9-.49-1.97-.74-3.12-2.78.98-3.5-3.3-4.02-4.54-.58-1.36-1.33-1.49-2.08-4.5-.5-2,.37-3.32,0-4.61-.23-.87-.35-3.32.75-4.16.13-.09.27-.14.44-.18-1.65-6.27-2.71-16.51.73-24.35,1.48-3.39,3.31-6.12,5.25-8.29,4.56-5.57,12.1-9.22,20.63-9.22s16.06,3.65,20.62,9.22c1.94,2.17,3.77,4.9,5.26,8.29,3.43,7.84,2.38,18.08.73,24.35.16.04.31.09.43.18,1.1.84.99,3.29.75,4.16-.36,1.29.51,2.61.01,4.61-.75,3.01-1.51,3.14-2.08,4.5-.52,1.24-1.24,5.52-4.02,4.54-.25,1.15-.51,2.22-.74,3.12-1.23,5.03-3.19,8.06-5.73,10.41.18,5.13.63,12.64,1.75,15.34,2.64,6.4,7.04,8.96,12.37,11.01,3.59,1.39,8.32,2.13,11.98,2.8,3.22.6,6.22,1.21,8.69,2.26.96.41,2.55,1.3,2.55,1.3h0c1.95.92,3.99,3.68,6.09,10.55,2.82,9.22,6.93,70.31,7.36,76.98.36,5.33,1.27,15.48,1.7,16.81.25.75.49,1.49.73,2.23.03.1.06.2.1.3,4.19,12.87,8.16,24.57,9.35,33.89.34,2.62.65,5.04.94,7.33.02.1.03.2.04.3,1.43,11.2,2.46,19.25,4,30.04.81,5.74,2.3,6.7,2.65,9.76.05.43.05.87.05,1.42v.3c.01.94.03,2.22.29,4.27.93,7.4,1.63,8.87,2.27,11.5,1.45,5.98,2.02,9.11,1.88,13.22Z"/>
  </g>
</svg>