<?xml version="1.0" encoding="UTF-8"?>
<svg id="_레이어_2" data-name="레이어 2" xmlns="http://www.w3.org/2000/svg" viewBox="0 0 181.09 571.49">
  <defs>
    <style>
      .cls-1 {
        fill: #f3a9aa;
        stroke: #231815;
        stroke-miterlimit: 10;
      }
    </style>
  </defs>
  <g id="_레이어_1-2" data-name="레이어 1">
    <path class="cls-1" d="m40.52,105.43c2.67-1.13,5.97-1.75,9.48-2.41,3.66-.67,7.6-1.41,11.19-2.8,5.33-2.05,9.73-4.61,12.37-11.01,1.12-2.7,1.57-10.21,1.75-15.34-2.54-2.35-4.47-5.39-5.73-10.41-.23-.9-.49-1.97-.74-3.12-2.78.98-3.5-3.3-4.02-4.54-.57-1.36-1.33-1.49-2.08-4.5-.5-2,.37-3.32.01-4.61-.24-.87-.35-3.32.75-4.16.12-.09.27-.14.43-.19-1.65-6.26-2.7-16.51.73-24.34,1.49-3.39,3.32-6.12,5.26-8.29,4.56-5.58,12.1-9.22,20.62-9.22,0,0,0,0,.01,0,8.52,0,16.06,3.65,20.62,9.22,1.94,2.16,3.77,4.9,5.26,8.29,3.43,7.84,2.38,18.08.73,24.34.16.05.31.1.42.19,1.11.84.99,3.29.76,4.16-.36,1.29.51,2.6.01,4.61-.75,3.01-1.51,3.14-2.08,4.5-.52,1.24-1.24,5.52-4.02,4.54-.25,1.15-.52,2.22-.74,3.12-1.24,5.03-3.19,8.06-5.73,10.41.18,5.13.63,12.64,1.74,15.34,2.65,6.4,7.05,8.96,12.38,11.01,3.35,1.3,6.89,2.02,10.41,2.66.53.1,1.04.19,1.55.28,3.23.6,6.23,1.21,8.7,2.26.96.41,2.55,1.3,2.55,1.3v.02c1.95.91,3.99,3.67,6.09,10.54,2.82,9.21,6.93,70.31,7.36,76.97.36,5.34,1.27,15.48,1.7,16.82.24.75.49,1.49.73,2.23.03.11.07.22.11.32,4.19,12.86,8.15,24.55,9.35,33.87.34,2.61.65,5.03.94,7.33.02.11.03.21.04.32,1.36,11.2,2.46,19.23,3.99,30.02.81,5.74,2.3,6.7,2.65,9.76.05.44.05.88.05,1.42,0,.49,0,1.3.15,2.44.11,1.31.22,2.64.44,4.24.79,5.66,1.4,7.06,1.97,9.4,1.45,5.98,2.02,9.1,1.88,13.22-.19,5.44-1.34,8.05-3.46,10.69-1.1,1.36-2.17,3.06-3.88,4.88-2.42,2.6-2.76,2.72-3.75,1.26-1.29-1.9.36-4.5-.23-9.21-.8-6.46-2.09-8.28-2.53-16.17-.07-1.2-.69,5.27-2.83,7.64-1.7,1.88-4.55,1.75-4.09.81,4.31-8.9.54-14.6,2.4-21.41.6-2.2,2.28-5.7,2.2-7.34,0-.1-.02-.2-.03-.3,0-.1-.02-.19-.03-.29-.36-3.74-2.31-8.37-5.03-14.14-3.77-7.98-5.93-12.9-11.23-27.09-.19-.51-.38-1.04-.59-1.6-.35-.95-.71-1.91-1.06-2.89-6.21-17.37-7.26-32.5-7.52-34.35-.12-.82-.27-1.73-.46-2.68-.02-.1-.04-.19-.06-.29-1.76-8.92-6.22-22.69-9.13-34.34-.46-1.85-1.58-7.31-2.05-9.6-.13.51-.26,1.03-.39,1.55-1.2,9.14-1.05,27.75,2.96,42.68,1.46,6.44,2.42,14.05,4.14,21.2,1.58,6.57,2.64,11.69,3.27,15.16,1.03,3.19,1.46,4.69,1.57,5.01,3.13,9.12,7.93,21.14,8.09,41.23v.29c.02,4.2-.15,8.73-.58,13.67-1.1,12.52-9.23,39.26-12.26,52.03-6.75,28.39-10.57,45.41-11.07,55.42-.64,12.92.84,16.97,2.16,24.79,2.56,15.22.69,28.37-2.35,40.42-5.63,22.29-11.53,32.19-12.13,43.89-.15,2.92,1.69,4.14.68,7.83-.53,1.92-1.43,3.76-.07,8.04,4.59,14.49,10.56,18.28,9.86,23.57-.79,5.86-17.35,5.49-23.84,4.17-5.34-1.08-5.27-10.06-3.73-20.33.31-2.08.47-4.4.35-7.96-.06-1.76-.46-3.81-.67-6.28-.19-2.28.37-4.69.67-6.6.23-1.44.47-2.6.51-3.21,1.43-22.38.98-27.75-1.39-48.8-2.39-21.26.97-25.07.55-38.08-.25-7.7-2.22-15.58-2.75-23.92-.66-10.46.25-20.35,1.18-27.79,2.58-20.57,2.56-23.89,3.39-40.16.9-17.65-3.85-26.31-1.14-41.54-.63.27-2.17.39-3.7.38s-3.07-.11-3.7-.38c2.71,15.23-2.04,23.89-1.14,41.54.83,16.27.81,19.59,3.39,40.16.93,7.44,1.84,17.33,1.18,27.79-.53,8.34-2.5,16.22-2.75,23.92-.42,13.01,2.94,16.82.55,38.08-2.38,21.05-2.82,26.42-1.39,48.8.04.61.28,1.77.51,3.21.3,1.91.86,4.32.67,6.6-.21,2.47-.61,4.52-.67,6.28-.12,3.56.04,5.88.35,7.96,1.54,10.27,1.61,19.25-3.73,20.33-6.49,1.32-23.05,1.69-23.84-4.17-.7-5.29,5.27-9.08,9.86-23.57,1.36-4.28.46-6.12-.07-8.04-1.01-3.69.83-4.91.68-7.83-.6-11.7-6.5-21.6-12.13-43.89-3.04-12.05-4.91-25.2-2.35-40.42,1.32-7.82,2.8-11.87,2.15-24.79-.49-10.01-4.31-27.03-11.06-55.42-3.03-12.77-11.16-39.51-12.26-52.03-.43-4.94-.6-9.47-.58-13.67v-.29c.16-20.09,4.96-32.11,8.09-41.23.1-.3.48-1.6,1.35-4.31.63-3.59,1.77-9.18,3.58-16.57,1.7-6.97,2.63-14.32,4.05-20.48,4.14-15.17,4.06-34.3,2.78-43.46-.11-.04-.22-.04-.35,0-.5,2.46-1.48,7.14-1.89,8.82-1.46,5.86-3.31,12.26-5.02,18.31-1.7,6.04-3.25,11.72-4.13,16.18-.02.1-.04.21-.06.31-.17.89-.32,1.74-.43,2.52-.26,1.9-1.37,17.82-8.03,35.8-.37,1.01-.73,1.97-1.08,2.89-.04.1-.07.2-.11.29-5.34,14.05-7.42,18.99-11.17,26.95-2.76,5.84-4.73,10.51-5.04,14.28,0,.12-.03.25-.04.37,0,.05-.01.09-.01.14-.04,1.67,1.6,5.11,2.2,7.28,1.86,6.81-1.91,12.51,2.4,21.41.46.94-2.4,1.07-4.09-.81-2.14-2.37-2.76-8.84-2.83-7.64-.44,7.89-1.73,9.71-2.53,16.17-.59,4.71,1.05,7.3-.24,9.21-.98,1.46-1.32,1.33-3.74-1.26-1.7-1.82-2.78-3.52-3.88-4.88-2.12-2.64-3.27-5.24-3.46-10.69-.14-4.12.43-7.24,1.88-13.22.64-2.64,1.34-4.11,2.27-11.5.26-2.07.28-3.35.29-4.29,0-.05,0-.24,0-.28,0-.55,0-.99.05-1.42.35-3.06,1.84-4.02,2.65-9.76,1.54-10.84,2.66-18.89,4.02-30.19.01-.1.02-.19.04-.29.28-2.25.59-4.63.92-7.19,1.19-9.36,5.19-21.11,9.4-34.04.04-.1.07-.2.1-.3.22-.69.45-1.38.68-2.08.44-1.33,1.34-11.48,1.7-16.82.43-6.67,4.54-67.76,7.36-76.97,2.1-6.88,4.14-9.63,6.09-10.54v-.02s1.59-.89,2.55-1.3Z"/>
  </g>
</svg>