<?xml version="1.0" encoding="UTF-8"?>
<svg id="_레이어_2" data-name="레이어 2" xmlns="http://www.w3.org/2000/svg" viewBox="0 0 181.09 572.09">
  <defs>
    <style>
      .cls-1 {
        fill: #f3a9aa;
        stroke: #231815;
        stroke-miterlimit: 10;
      }
    </style>
  </defs>
  <g id="_레이어_1-2" data-name="레이어 1">
    <path class="cls-1" d="m180.57,325.49c-.19,5.45-1.34,8.05-3.46,10.69-1.1,1.36-2.18,3.06-3.88,4.88-2.42,2.6-2.76,2.73-3.74,1.27-1.29-1.91.35-4.5-.24-9.21-.8-6.46-2.11-8.28-2.53-16.17-.07-1.2-.69,5.27-2.83,7.64-1.69,1.88-4.55,1.75-4.09.81,4.31-8.9.54-14.6,2.4-21.41.61-2.2,2.28-5.7,2.2-7.34,0-.05-.01-.1-.02-.15-.01-.1-.02-.2-.03-.3-.31-3.77-2.28-8.43-5.04-14.28-3.75-7.95-5.91-12.86-11.17-26.94-.04-.1-.07-.19-.11-.3-.35-.92-.71-1.88-1.08-2.89-6.66-17.98-7.77-33.9-8.03-35.8-.11-.78-.26-1.64-.43-2.53-.02-.1-.04-.2-.06-.3-1.74-8.92-6.23-22.76-9.15-34.48-.46-1.85-1.59-7.31-2.05-9.6-3.41,12.9-6.42,32.49-.72,44.38,1.31,5.58,4.67,12.2,8.76,19.01,4.88,8.14,11.83,20.02,12.46,22.51.02.05.04.1.06.15,3.76,9.12,9.53,21.16,9.75,41.37v.15c.04,4.28-.16,8.91-.68,13.97-1.31,12.52-10.98,39.25-14.59,52.02-8.03,28.39-12.57,45.42-13.16,55.43-.76,12.92,1,16.96,2.57,24.79,3.04,15.21.82,28.37-2.8,40.42-6.7,22.28-13.72,32.19-14.43,43.89-.18,2.91,2.02,4.13.81,7.83-.63,1.92-1.7,3.76-.08,8.04,5.46,14.48,12.56,18.28,11.72,23.57-.93,5.86-20.64,5.49-28.35,4.17-6.35-1.09-6.27-10.06-4.44-20.34.37-2.08.56-4.4.42-7.96-.07-1.75-.55-3.8-.8-6.28-.23-2.28.44-4.69.8-6.59.27-1.45.55-2.61.6-3.22,1.71-22.38,1.18-27.75-1.64-48.79-2.86-21.26,1.14-25.08.64-38.08-.3-7.71-2.64-15.58-3.26-23.92-.79-10.47.29-20.35,1.4-27.79,3.06-20.58,3.04-23.9,4.03-40.16,1.07-17.66-4.59-26.31-1.36-41.54-.75.26-2.58.39-4.4.37-1.82-.01-3.65-.11-4.4-.37,3.23,15.23-2.43,23.88-1.36,41.54.99,16.26.97,19.58,4.03,40.16,1.11,7.44,2.2,17.32,1.41,27.79-.63,8.34-2.97,16.21-3.27,23.92-.5,13,3.5,16.82.65,38.08-2.82,21.04-3.35,26.41-1.65,48.79.05.61.33,1.77.6,3.22.37,1.9,1.03,4.31.8,6.59-.25,2.48-.72,4.53-.8,6.28-.14,3.56.05,5.88.42,7.96,1.83,10.28,1.92,19.25-4.43,20.34-7.72,1.32-27.43,1.69-28.36-4.17-.84-5.29,6.27-9.09,11.73-23.57,1.61-4.28.55-6.12-.08-8.04-1.21-3.7.98-4.92.81-7.83-.72-11.7-7.74-21.61-14.43-43.89-3.62-12.05-5.85-25.21-2.8-40.42,1.57-7.83,3.33-11.87,2.56-24.79-.59-10.01-5.13-27.04-13.15-55.43-3.61-12.77-13.28-39.5-14.59-52.02-.53-5.06-.73-9.69-.69-13.97v-.15c.23-20.21,5.99-32.25,9.75-41.37.02-.05.04-.1.06-.15.64-2.49,7.59-14.37,12.47-22.51,4.08-6.81,7.44-13.43,8.75-19.01,5.71-11.89,2.7-31.48-.71-44.38-.46,2.29-1.59,7.75-2.05,9.6-2.92,11.72-7.41,25.56-9.15,34.48-.02.1-.04.2-.06.3-.17.89-.32,1.75-.43,2.53-.26,1.9-1.37,17.82-8.03,35.8-.37,1.01-.73,1.97-1.08,2.89-.04.11-.07.2-.11.3-5.26,14.08-7.42,18.99-11.17,26.94-2.76,5.85-4.73,10.51-5.04,14.28-.01.1-.02.2-.03.3-.01.05-.02.1-.02.15-.08,1.64,1.59,5.14,2.2,7.34,1.86,6.81-1.91,12.51,2.4,21.41.46.94-2.4,1.07-4.09-.81-2.14-2.37-2.76-8.84-2.83-7.64-.42,7.89-1.73,9.71-2.53,16.17-.59,4.71,1.05,7.3-.24,9.21-.98,1.46-1.32,1.33-3.74-1.27-1.7-1.82-2.78-3.52-3.88-4.88-2.12-2.64-3.27-5.24-3.46-10.69-.14-4.11.43-7.24,1.88-13.22.64-2.63,1.34-4.1,2.27-11.5.26-2.05.28-3.33.29-4.27v-.3c0-.55,0-.99.05-1.42.35-3.06,1.84-4.02,2.65-9.76,1.54-10.79,2.57-18.84,4-30.04.01-.1.02-.2.04-.3.29-2.29.6-4.71.94-7.33,1.19-9.32,5.16-21.02,9.35-33.89.04-.1.07-.2.1-.3.24-.74.48-1.48.73-2.23.43-1.33,1.34-11.48,1.7-16.81.43-6.67,4.54-67.76,7.36-76.98,2.1-6.87,4.14-9.63,6.09-10.54h0s1.59-.9,2.55-1.31c2.47-1.05,5.47-1.66,8.69-2.26,3.66-.67,8.39-1.41,11.98-2.8,5.33-2.05,9.73-4.61,12.37-11.01,1.12-2.7,1.57-10.21,1.75-15.34-2.54-2.35-4.5-5.38-5.73-10.41-.23-.9-.49-1.97-.74-3.12-2.78.98-3.5-3.3-4.02-4.54-.57-1.36-1.33-1.49-2.08-4.5-.5-2,.37-3.32,0-4.61-.24-.87-.35-3.32.75-4.16.12-.09.27-.14.43-.18-1.65-6.27-2.7-16.51.73-24.35,1.49-3.39,3.32-6.12,5.26-8.29,4.56-5.57,12.1-9.22,20.62-9.22h.01c8.52,0,16.06,3.65,20.62,9.22,1.94,2.17,3.77,4.9,5.26,8.29,3.43,7.84,2.38,18.08.73,24.35.16.04.31.09.43.18,1.1.84.99,3.29.75,4.16-.36,1.29.51,2.61.01,4.61-.75,3.01-1.51,3.14-2.08,4.5-.52,1.24-1.24,5.52-4.02,4.54-.25,1.15-.51,2.22-.74,3.12-1.23,5.03-3.19,8.06-5.73,10.41.18,5.13.63,12.64,1.75,15.34,2.64,6.4,7.04,8.96,12.37,11.01,3.59,1.39,8.32,2.13,11.98,2.8,3.22.6,6.22,1.21,8.69,2.26.96.41,2.55,1.3,2.55,1.3h0c1.95.92,3.99,3.68,6.09,10.55,2.82,9.22,6.93,70.31,7.36,76.98.36,5.33,1.27,15.48,1.7,16.81.25.75.49,1.49.73,2.23.03.1.06.2.1.3,4.19,12.87,8.16,24.57,9.35,33.89.34,2.62.65,5.04.94,7.33.02.1.03.2.04.3,1.43,11.2,2.46,19.25,4,30.04.81,5.74,2.3,6.7,2.65,9.76.05.43.05.87.05,1.42v.3c.01.94.03,2.22.29,4.27.93,7.4,1.63,8.87,2.27,11.5,1.45,5.98,2.02,9.11,1.88,13.22Z"/>
  </g>
</svg>