<?xml version="1.0" encoding="UTF-8"?>
<svg id="_레이어_2" data-name="레이어 2" xmlns="http://www.w3.org/2000/svg" viewBox="0 0 181.09 571.78">
  <defs>
    <style>
      .cls-1 {
        fill: #f3a9aa;
        stroke: #231815;
        stroke-miterlimit: 10;
      }
    </style>
  </defs>
  <g id="_레이어_1-2" data-name="레이어 1">
    <path class="cls-1" d="m40.52,105.43c2.67-1.13,5.97-1.75,9.48-2.41,3.66-.67,7.6-1.41,11.19-2.8,5.33-2.05,9.73-4.61,12.37-11.01,1.12-2.7,1.57-10.21,1.75-15.34-2.54-2.35-4.47-5.39-5.73-10.41-.23-.9-.49-1.97-.74-3.12-2.78.98-3.5-3.3-4.02-4.54-.57-1.36-1.33-1.49-2.08-4.5-.5-2,.37-3.32.01-4.61-.24-.87-.35-3.33.75-4.16.12-.09.27-.14.43-.19-1.65-6.26-2.7-16.51.73-24.34,1.49-3.39,3.32-6.12,5.26-8.29,4.56-5.58,12.1-9.22,20.62-9.22,0,0,0,0,.01,0,8.52,0,16.06,3.65,20.62,9.22,1.94,2.16,3.77,4.9,5.26,8.29,3.43,7.84,2.38,18.08.73,24.34.16.05.31.1.43.19,1.1.84.99,3.29.76,4.16-.36,1.29.51,2.6.01,4.61-.75,3.01-1.51,3.14-2.08,4.5-.52,1.24-1.24,5.52-4.02,4.54-.25,1.15-.52,2.22-.74,3.12-1.24,5.03-3.19,8.06-5.73,10.41.18,5.13.63,12.64,1.74,15.34,2.65,6.4,7.05,8.96,12.38,11.01,3.35,1.3,6.89,2.02,10.41,2.66.53.1,1.04.19,1.55.28,3.23.6,6.23,1.21,8.7,2.26.96.41,2.55,1.3,2.55,1.3v.02c1.95.91,3.99,3.67,6.09,10.54,2.82,9.21,6.93,70.31,7.37,76.97.35,5.34,1.27,15.48,1.7,16.82.24.75.49,1.49.72,2.23.03.11.07.22.11.32,4.19,12.86,8.15,24.55,9.35,33.87.34,2.61.65,5.03.94,7.33.02.11.03.21.04.32,1.36,11.2,2.46,19.23,3.99,30.02.81,5.74,2.3,6.7,2.66,9.76.05.44.05.88.05,1.42,0,.49,0,1.3.14,2.44.11,1.31.22,2.64.44,4.24.79,5.66,1.4,7.06,1.97,9.4,1.45,5.98,2.02,9.1,1.88,13.22-.19,5.44-1.34,8.05-3.46,10.69-1.1,1.36-2.18,3.06-3.88,4.88-2.42,2.6-2.76,2.72-3.74,1.26-1.29-1.9.36-4.5-.23-9.21-.8-6.46-2.09-8.28-2.53-16.17-.07-1.2-.69,5.27-2.83,7.64-1.7,1.88-4.55,1.75-4.09.81,4.31-8.9.54-14.6,2.4-21.41.61-2.2,2.28-5.7,2.2-7.34,0-.1-.02-.2-.03-.3,0-.1-.02-.19-.03-.29-.36-3.74-2.31-8.37-5.03-14.14-3.77-7.98-5.93-12.9-11.23-27.09-.19-.51-.38-1.04-.59-1.6-.35-.95-.71-1.91-1.06-2.89-6.21-17.37-7.26-32.5-7.52-34.35-.11-.82-.27-1.73-.46-2.68-.02-.1-.04-.19-.06-.29-1.76-8.92-6.22-22.69-9.13-34.34-.46-1.85-1.58-7.31-2.05-9.6-.13.51-.26,1.03-.39,1.54-1.22,9.12-1.27,27.47,3.96,42.69.01.05.02.1.03.16,1.63,6.25,3.1,12.64,5.2,19.73,5.27,11.64,5.32,12.15,8.73,21.49s9.05,21.21,9.23,41.52c.04,4.27-.16,8.91-.66,13.96-1.23,12.52-10.39,39.26-13.81,52.03-7.6,28.39-11.9,45.41-12.46,55.42-.72,12.92.95,16.97,2.43,24.79,2.89,15.22.78,28.37-2.65,40.42-6.34,22.29-12.99,32.19-13.66,43.89-.17,2.92,1.9,4.14.76,7.83-.59,1.92-1.6,3.76-.07,8.04,5.17,14.49,11.89,18.28,11.1,23.57-.88,5.86-19.54,5.5-26.85,4.17-6.01-1.08-5.93-10.06-4.2-20.33.35-2.08.53-4.4.4-7.96-.07-1.76-.52-3.81-.76-6.28-.22-2.28.41-4.69.76-6.6.26-1.44.53-2.6.57-3.21,1.62-22.38,1.12-27.75-1.55-48.79-2.7-21.27,1.08-25.08.61-38.09-.28-7.7-2.5-15.58-3.09-23.92-.75-10.46.28-20.35,1.33-27.79,2.9-20.57,2.88-23.89,3.82-40.16,1.02-17.65-4.35-26.31-1.29-41.54-.71.27-2.45.39-4.17.38s-3.46-.11-4.17-.38c3.06,15.23-2.3,23.89-1.28,41.54.93,16.27.92,19.59,3.81,40.16,1.05,7.44,2.08,17.33,1.33,27.79-.59,8.34-2.8,16.22-3.09,23.92-.47,13.01,3.31,16.82.61,38.09-2.67,21.04-3.1,26.4-1.55,48.79.04.61.31,1.77.57,3.21.34,1.91.97,4.32.75,6.6-.24,2.47-.69,4.52-.75,6.28-.13,3.56.04,5.88.39,7.96,1.73,10.27,1.81,19.25-4.2,20.33-7.3,1.33-25.97,1.69-26.85-4.17-.79-5.29,5.93-9.08,11.1-23.57,1.53-4.28.52-6.12-.07-8.04-1.15-3.69.93-4.91.76-7.83-.67-11.7-7.32-21.6-13.66-43.89-3.43-12.05-5.54-25.2-2.65-40.42,1.49-7.82,3.15-11.87,2.43-24.79-.56-10.01-4.86-27.03-12.46-55.42-3.42-12.77-12.57-39.51-13.81-52.03-.5-5.05-.69-9.69-.65-13.96.18-20.31,5.87-32.31,9.23-41.52,3.41-9.34,3.46-9.85,8.74-21.5,2.09-7.11,3.57-13.53,5.2-19.8,0-.06.02-.12.03-.17,5.4-15.43,5.03-34.21,3.75-43.36-.11-.04-.22-.04-.35,0-.5,2.46-1.48,7.14-1.89,8.82-1.46,5.86-3.31,12.26-5.02,18.31-1.7,6.04-3.25,11.72-4.13,16.18-.02.1-.04.21-.06.31-.17.89-.32,1.74-.43,2.52-.26,1.9-1.37,17.82-8.03,35.8-.37,1.01-.73,1.97-1.08,2.89-.04.1-.07.2-.11.29-5.34,14.05-7.42,18.99-11.17,26.95-2.76,5.84-4.73,10.51-5.04,14.28-.01.12-.03.25-.04.37,0,.05-.01.09-.01.14-.03,1.67,1.6,5.11,2.2,7.28,1.86,6.81-1.91,12.51,2.4,21.41.46.94-2.4,1.07-4.09-.81-2.14-2.37-2.76-8.84-2.83-7.64-.44,7.89-1.73,9.71-2.53,16.17-.59,4.71,1.05,7.3-.24,9.21-.98,1.46-1.32,1.33-3.74-1.26-1.7-1.82-2.78-3.52-3.88-4.88-2.12-2.64-3.27-5.24-3.46-10.69-.14-4.12.43-7.24,1.88-13.22.64-2.64,1.34-4.11,2.27-11.5.26-2.07.28-3.35.29-4.29,0-.05,0-.24,0-.28,0-.55,0-.99.05-1.42.35-3.06,1.84-4.02,2.65-9.76,1.54-10.84,2.66-18.89,4.02-30.19.01-.1.02-.19.04-.29.28-2.25.59-4.63.92-7.19,1.2-9.36,5.19-21.11,9.4-34.04.04-.1.07-.2.1-.3.22-.69.45-1.38.68-2.08.44-1.33,1.34-11.48,1.7-16.82.43-6.67,4.54-67.76,7.36-76.97,2.1-6.88,4.14-9.63,6.09-10.54v-.02s1.59-.89,2.55-1.3Z"/>
  </g>
</svg>