<?xml version="1.0" encoding="UTF-8"?>
<svg id="_레이어_2" data-name="레이어 2" xmlns="http://www.w3.org/2000/svg" viewBox="0 0 181.09 572.08">
  <defs>
    <style>
      .cls-1 {
        fill: #f3a9aa;
        stroke: #231815;
        stroke-miterlimit: 10;
      }
    </style>
  </defs>
  <g id="_레이어_1-2" data-name="레이어 1">
    <path class="cls-1" d="m180.59,324.15s0-.03,0-.05c0-.02,0-.03,0-.05,0-.08,0-.15,0-.23,0-.08,0-.16,0-.24,0-.05,0-.1,0-.15,0-.07,0-.14,0-.2,0-.14-.02-.29-.02-.43,0-.03,0-.05,0-.08-.15-2.96-.74-5.87-1.85-10.46-.55-2.25-1.14-3.66-1.88-8.65-.06-.38-.11-.79-.17-1.22-.17-1.33-.27-2.48-.36-3.62,0-.06-.01-.11-.02-.17-.02-.34-.04-.67-.05-.98-.07-.57-.07-1.13-.07-1.37,0,0,0-.01,0-.02v-.05c0-.55,0-.99-.05-1.42-.35-3.06-1.84-4.02-2.65-9.76-1.54-10.79-2.57-18.84-4-30.04-.01-.1-.02-.2-.04-.3-.29-2.29-.6-4.71-.94-7.33-1.19-9.32-5.16-21.02-9.35-33.89-.04-.1-.07-.2-.1-.3-.24-.74-.48-1.48-.73-2.23-.43-1.33-1.34-11.48-1.7-16.81-.43-6.67-4.54-67.76-7.36-76.98-2.1-6.87-4.14-9.63-6.09-10.54h0s-1.59-.9-2.55-1.31c-2.47-1.05-5.47-1.66-8.69-2.26-3.04-.56-6.81-1.17-10.06-2.15-.65-.2-1.3-.41-1.92-.65-.53-.2-1.05-.41-1.56-.63-.08-.03-.15-.06-.23-.1-.49-.21-.96-.43-1.43-.66-.09-.04-.17-.09-.26-.13-.47-.23-.92-.48-1.37-.74-.07-.04-.13-.08-.2-.12-.46-.28-.92-.57-1.36-.88-.29-.21-.58-.43-.86-.66-.08-.06-.16-.13-.23-.2-.2-.17-.4-.34-.59-.52-.09-.09-.18-.18-.27-.26-.18-.17-.35-.34-.52-.52-.09-.1-.18-.2-.27-.3-.17-.19-.33-.38-.49-.57-.08-.1-.17-.21-.25-.31-.16-.21-.32-.43-.48-.65-.07-.1-.14-.2-.21-.31-.17-.25-.33-.51-.49-.78-.05-.09-.1-.17-.15-.26-.2-.34-.39-.7-.57-1.07,0-.02-.02-.03-.03-.05-.2-.41-.39-.84-.58-1.29-.09-.21-.17-.45-.25-.71,0,0,0,0,0-.01-.07-.25-.15-.53-.21-.82,0-.03-.01-.06-.02-.09-.07-.29-.13-.6-.19-.92,0-.02,0-.03,0-.05-.13-.7-.24-1.47-.34-2.29,0-.05-.01-.09-.02-.14-.04-.35-.08-.7-.12-1.06,0-.09-.02-.18-.03-.27-.03-.33-.07-.67-.1-1.01,0-.09-.02-.18-.02-.27-.04-.42-.07-.85-.1-1.28-.04-.5-.07-1-.1-1.5,0-.12-.01-.23-.02-.35-.06-.98-.11-1.95-.15-2.87,0-.13-.01-.26-.02-.39-.02-.38-.03-.75-.04-1.11,0-.06,0-.12,0-.18,0,0,0,0,0,0,2.46-2.28,4.37-5.21,5.6-9.97.04-.14.08-.26.11-.41,0,0,0-.01,0-.02,0,0,0-.01,0-.02.1-.41.22-.87.33-1.35.03-.11.05-.22.08-.33,0-.04.02-.07.03-.11,0-.01,0-.03.01-.04.07-.3.14-.62.22-.94,0-.01,0-.02,0-.04,0-.03.01-.05.02-.08.02-.07.03-.15.05-.22.18.06.35.1.51.12h0c.15.02.3.03.44.01,0,0,0,0,0,0s0,0,0,0c.18-.02.34-.06.5-.13h0s.09-.04.13-.06c0,0,0,0,0,0,.12-.06.23-.13.33-.2,0,0,0,0,0,0,.03-.03.07-.05.1-.08,0,0,0,0,0,0,.13-.11.25-.23.36-.37,0,0,0,0,0,0,.02-.03.04-.06.06-.09,0,0,0,0,0,0,.09-.12.18-.24.26-.37,0,0,0,0,0,0,.03-.05.06-.1.09-.15,0,0,0,0,0,0,.08-.14.15-.28.22-.42,0,0,0,0,0,0,0-.01.01-.02.02-.03.11-.23.21-.47.3-.71,0-.02.01-.03.02-.05,0,0,0,0,0,0,.13-.36.25-.71.35-1.03,0,0,0-.01,0-.02.05-.16.1-.31.14-.45.01-.04.03-.08.04-.12.05-.15.1-.28.14-.39.56-1.34,1.31-1.49,2.05-4.4,0-.03.02-.06.03-.1,0-.03,0-.06.02-.1.1-.43.14-.83.14-1.2,0-.61-.09-1.15-.16-1.66,0-.05-.02-.11-.02-.16-.02-.15-.04-.3-.05-.44,0-.05,0-.09,0-.14,0-.11,0-.22,0-.33,0-.05,0-.09,0-.14,0,0,0-.02,0-.03.01-.13.03-.27.07-.4,0,0,0,0,0,0,.02-.09.05-.2.07-.32,0,0,0,0,0,0,0-.06.02-.11.03-.17,0,0,0,0,0,0,0-.03,0-.06.01-.09,0,0,0,0,0,0,.02-.18.04-.38.04-.59,0,0,0,0,0,0,0,0,0,0,0,0h0s0,0,0,0c.01-.34,0-.69-.05-1.05,0,0,0,0,0,0-.01-.11-.03-.23-.05-.34,0,0,0,0,0-.01-.01-.05-.02-.1-.03-.15,0,0,0,0,0,0-.04-.18-.09-.35-.15-.51,0,0,0-.02-.01-.02-.06-.16-.14-.3-.22-.43,0,0,0,0,0-.01-.01-.02-.02-.04-.04-.06,0,0,0,0,0,0-.1-.14-.2-.26-.33-.36-.05-.04-.11-.07-.17-.09,0,0,0,0,0,0-.08-.04-.16-.07-.26-.09.68-2.57,1.25-5.82,1.45-9.29.29-4.88-.15-10.21-2.07-14.77-.04-.09-.07-.19-.11-.28-.1-.22-.2-.43-.3-.64,0,0,0,0,0,0-1.43-3.08-3.14-5.61-4.95-7.63,0,0,0,0,0,0,0,0,0,0,0,0,0,0,0,0,0,0,0,0,0,0,0,0-3.7-4.53-9.37-7.78-15.93-8.84,0,0,0,0,0,0,0,0,0,0,0,0,0,0,0,0,0,0,0,0,0,0,0,0-.65-.11-1.32-.18-1.99-.24,0,0,0,0,0,0-.13-.01-.26-.02-.39-.03,0,0,0,0,0,0-.67-.05-1.34-.09-2.03-.09,0,0,0,0,0,0h0s-.05,0-.07,0c-.02,0-.04,0-.06,0-.04,0-.07,0-.11,0h-.01c-.06,0-.12,0-.18,0-7,.04-13.32,2.54-17.86,6.55-.06.05-.11.1-.17.15-.36.32-.71.66-1.04,1-.09.09-.18.18-.27.27-.38.4-.75.81-1.1,1.24-1.82,2.03-3.55,4.58-4.99,7.7-.09.2-.18.39-.27.59-.19.44-.37.89-.53,1.35-.05.14-.09.27-.14.41-.12.34-.22.68-.32,1.02-.04.14-.09.28-.12.42-.13.45-.24.91-.35,1.37-.03.11-.05.23-.07.34-.08.36-.15.71-.21,1.07-.03.2-.07.4-.1.59-.04.29-.08.58-.12.86-.03.2-.05.41-.08.61-.05.43-.09.87-.12,1.3,0,0,0,0,0,0-.04.56-.07,1.13-.09,1.69,0,0,0,.01,0,.02-.02.56-.02,1.11-.02,1.66,0,.01,0,.02,0,.04h0c.04,4.32.71,8.45,1.54,11.58-.16.05-.31.1-.43.19,0,0,0,0-.01.01-.11.09-.21.19-.29.31-.58.78-.66,2.13-.57,3.08,0,.01,0,.02,0,.03.03.29.07.54.12.72.04.16.07.32.08.48,0,.06,0,.13,0,.2,0,.1,0,.19,0,.29,0,.08-.02.16-.03.25,0,.09-.02.18-.03.27-.02.12-.03.24-.05.36-.07.43-.13.88-.14,1.39h0c0,.43.03.88.16,1.38.75,3.01,1.51,3.14,2.08,4.5,0,.02.02.05.03.08.02.05.04.1.06.17.02.05.04.11.06.16.02.05.03.09.05.14.02.06.05.14.07.21.1.33.22.7.36,1.08,0,0,0,0,0,0,.03.09.07.18.1.27,0,0,0,0,0,0,.02.05.04.09.05.14h0s.03.06.04.09c.05.11.09.23.14.34h0c.06.13.12.26.19.38h0s.05.09.08.13c.05.08.09.17.14.24,0,0,0,0,0,0,.03.05.06.09.09.14,0,0,0,0,0,0,.05.07.1.14.15.21,0,0,0,0,0,0,.04.04.07.09.11.13,0,0,0,0,0,0,.05.06.11.12.17.17,0,0,0,0,0,0,.04.04.08.07.12.11,0,0,0,0,0,0,.06.05.13.1.19.14,0,0,0,0,0,0,.04.03.08.06.13.08h0c.07.04.15.08.23.11,0,0,0,0,0,0,.04.02.08.04.12.05h0c.12.04.25.07.39.08.29.03.6-.01.95-.14,0,.04.02.07.02.11.24,1.1.49,2.13.71,2.99,0,0,0,.01,0,.02,0,0,0,0,0,.01.15.63.32,1.21.5,1.78,0,0,0,0,0,0,.69,2.23,1.56,4.02,2.58,5.53.03.05.06.09.09.14.25.36.5.71.77,1.03.04.05.08.09.12.14.24.28.47.56.72.83,0,0,0,0,0,0,.28.3.58.59.88.87.02.02.05.05.07.07,0,.03,0,.06,0,.1-.02.58-.04,1.18-.07,1.8-.02.4-.04.81-.06,1.22-.04.85-.1,1.71-.15,2.58,0,.08-.01.17-.02.25-.06.88-.13,1.75-.21,2.6,0,.03,0,.06,0,.1-.04.44-.09.87-.14,1.3-.01.13-.03.25-.04.38-.05.43-.11.86-.17,1.26,0,.03,0,.06-.01.1-.05.33-.1.65-.16.96-.02.11-.04.21-.06.32-.04.21-.08.42-.13.62-.02.11-.05.22-.07.32-.04.19-.09.37-.14.54-.02.09-.05.18-.07.26-.07.23-.14.45-.22.63,0,0,0,.01,0,.02-1.32,3.2-3.08,5.44-5.18,7.14-.52.42-1.06.81-1.62,1.17,0,0-.01,0-.02.01-.37.24-.76.46-1.15.68-.1.06-.2.11-.3.17-.39.21-.79.42-1.19.61,0,0-.01,0-.02,0-.41.2-.83.38-1.26.56-.11.05-.22.09-.33.14-.42.18-.85.35-1.28.52,0,0,0,0-.01,0,0,0,0,0,0,0-3.59,1.39-8.32,2.13-11.97,2.8-3.22.6-6.22,1.21-8.69,2.26-.96.41-2.55,1.3-2.55,1.3h0c-1.95.92-3.99,3.68-6.09,10.55-2.82,9.22-6.93,70.31-7.36,76.98-.36,5.33-1.27,15.48-1.7,16.81-.25.75-.49,1.49-.73,2.23-.03.1-.06.2-.1.3-4.19,12.87-8.16,24.57-9.35,33.89-.34,2.62-.65,5.04-.94,7.33-.02.1-.03.2-.04.3-1.43,11.2-2.46,19.25-4,30.04-.81,5.74-2.3,6.7-2.65,9.76-.05.43-.05.87-.05,1.42v.2s0,.01,0,.02v.09c-.01.94-.03,2.21-.29,4.25-.93,7.4-1.63,8.87-2.27,11.5-1.11,4.58-1.69,7.5-1.85,10.46,0,.03,0,.05,0,.08,0,.14-.02.28-.02.42,0,.07,0,.14,0,.21,0,.05,0,.11,0,.17,0,.08,0,.17,0,.25,0,.07,0,.14,0,.2,0,.01,0,.03,0,.04,0,.02,0,.04,0,.05,0,.51,0,1.03.02,1.57.19,5.44,1.34,8.05,3.46,10.69,1.1,1.36,2.18,3.05,3.88,4.88,2.42,2.6,2.76,2.72,3.74,1.26.41-.61.52-1.29.5-2.08,0-.02,0-.03,0-.05,0-.02,0-.05,0-.07,0-.09-.01-.2-.02-.3,0-.05,0-.1,0-.15-.07-1.16-.34-2.56-.37-4.34,0-.25,0-.52.01-.79.02-.46.05-.93.12-1.44.8-6.46,2.09-8.27,2.53-16.17.07-1.19.69,5.28,2.83,7.65,1.61,1.8,4.29,1.76,4.12.92,0-.02,0-.04,0-.07,0-.02,0-.04,0-.06,0-.07,0-.14-.04-.21-1.64-3.38-2.11-6.29-2.16-8.98,0-.19,0-.37,0-.55,0-.02,0-.04,0-.06,0-.13,0-.26,0-.39.04-2.22.3-4.31.32-6.41,0,0,0,0,0-.01,0,0,0-.01,0-.02.03-1.64-.09-3.27-.55-4.98-.6-2.15-2.19-5.52-2.19-7.21.01-.12.03-.24.04-.36.31-3.77,2.28-8.44,5.04-14.28,3.75-7.95,5.87-12.88,11.17-26.95.04-.1.07-.19.11-.29.35-.93.71-1.89,1.08-2.9,6.66-17.98,7.77-33.89,8.03-35.8.11-.77.26-1.62.43-2.51.02-.1.04-.21.06-.31.88-4.46,2.43-10.15,4.13-16.18,1.71-6.05,3.56-12.44,5.02-18.3.41-1.65,1.36-6.21,1.87-8.73.02-.06.05-.12.07-.17.06-.02.12,0,.17,0,.06.12.12.23.17.36.02.16.04.33.06.49.17,7.54-1,26.22-3.53,42.61-.39,2.56-.96,5.11-1.59,7.66-1.54,3.15-3.21,6.57-4.95,10.75-5.13,12.28-6.17,12.92-10.72,23.11-.02.05-.04.09-.06.15-3.76,9.11-9.52,21.15-9.75,41.37v.15c-.04,4.27.16,8.91.69,13.96,1.31,12.52,10.98,39.26,14.59,52.03,8.02,28.38,12.56,45.41,13.15,55.42.77,12.92-.99,16.97-2.56,24.79-3.05,15.22-.82,28.37,2.8,40.42,6.69,22.28,13.71,32.19,14.43,43.89.17,2.92-2.02,4.14-.81,7.83.63,1.92,1.69,3.76.08,8.04-5.46,14.49-12.57,18.28-11.73,23.57.93,5.86,20.64,5.49,28.36,4.17,6.35-1.08,6.26-10.06,4.43-20.34-.37-2.07-.56-4.4-.42-7.95.08-1.76.55-3.81.8-6.28.23-2.28-.43-4.69-.8-6.6-.27-1.45-.55-2.61-.6-3.21-1.7-22.39-1.17-27.75,1.65-48.8,2.85-21.26-1.15-25.08-.65-38.08.3-7.7,2.64-15.58,3.27-23.92.79-10.47-.3-20.35-1.41-27.79-3.06-20.57-3.04-23.89-4.03-40.16-1.07-17.65,4.59-26.31,1.36-41.54.75.26,2.58.36,4.4.38,1.82-.02,3.65-.12,4.4-.38-3.23,15.23,2.43,23.89,1.36,41.54-.99,16.27-.97,19.59-4.03,40.16-1.11,7.44-2.2,17.32-1.41,27.79.63,8.34,2.97,16.22,3.27,23.92.5,13-3.5,16.82-.65,38.08,2.82,21.05,3.35,26.41,1.65,48.8-.05.6-.33,1.76-.6,3.21-.37,1.91-1.03,4.32-.8,6.6.25,2.47.72,4.52.8,6.28.14,3.55-.05,5.88-.42,7.95-1.83,10.28-1.92,19.26,4.43,20.34,7.72,1.32,27.43,1.69,28.36-4.17.84-5.29-6.27-9.08-11.73-23.57-1.61-4.28-.55-6.12.08-8.04,1.21-3.69-.98-4.91-.81-7.83.72-11.7,7.74-21.61,14.43-43.89,3.62-12.05,5.85-25.2,2.8-40.42-1.57-7.82-3.33-11.87-2.56-24.79.59-10.01,5.13-27.04,13.15-55.42,3.61-12.77,13.28-39.51,14.59-52.03.53-5.05.73-9.69.69-13.96v-.15c-.23-20.22-5.99-32.26-9.75-41.37-.02-.06-.04-.1-.06-.15-4.55-10.19-5.6-10.83-10.73-23.11-1.83-4.38-3.57-7.93-5.17-11.2-.53-2.39-1.01-4.79-1.38-7.2,0,0,0,0,0,0-2.49-16.56-3.82-35.32-3.62-42.61.13-.51.25-1.04.39-1.55.47,2.28,1.59,7.74,2.05,9.59,2.9,11.63,7.35,25.35,9.12,34.28.02.1.04.19.06.29.19.97.35,1.91.47,2.75.26,1.83,1.28,16.57,7.27,33.64.34.97.69,1.93,1.04,2.88.29.78.56,1.53.83,2.25,5.28,14.27,7.49,19.17,11.26,27.17,2.7,5.73,4.65,10.34,5.02,14.07,0,.1.02.19.03.28,0,.1.02.21.03.31-.02,1.69-1.59,5.04-2.19,7.18-.36,1.3-.5,2.56-.54,3.81,0,.02,0,.04,0,.06,0,.02,0,.04,0,.05-.06,1.62.07,3.23.18,4.88.03.51.06,1.02.09,1.54,0,.11,0,.23.01.34.02.58.04,1.17.03,1.77,0,.03,0,.07,0,.1,0,.32-.02.64-.04.96,0,0,0,.02,0,.03-.16,2.38-.7,4.95-2.12,7.87-.04.08-.05.15-.04.21,0,.02,0,.04,0,.06,0,.02,0,.04,0,.07-.16.83,2.5.87,4.13-.92,2.13-2.37,2.76-8.84,2.83-7.65.44,7.9,1.73,9.71,2.53,16.17.06.52.1,1,.12,1.47,0,.22.01.44.01.65,0,.04,0,.09,0,.13-.03,1.68-.27,3.02-.36,4.14,0,.07,0,.13-.01.2,0,.08-.01.17-.02.25,0,.02,0,.05,0,.08,0,.02,0,.04,0,.06,0,0,0,.01,0,.02,0,0,0,.02,0,.02-.03.84.07,1.55.5,2.19.99,1.46,1.33,1.34,3.75-1.26,1.7-1.83,2.78-3.52,3.87-4.88,2.13-2.64,3.28-5.25,3.47-10.69.02-.54.02-1.06.02-1.57Z"/>
  </g>
</svg>