<?xml version="1.0" encoding="UTF-8"?>
<svg id="_레이어_2" data-name="레이어 2" xmlns="http://www.w3.org/2000/svg" viewBox="0 0 181.09 572">
  <defs>
    <style>
      .cls-1 {
        fill: #f3a9aa;
        stroke: #231815;
        stroke-miterlimit: 10;
      }
    </style>
  </defs>
  <g id="_레이어_1-2" data-name="레이어 1">
    <path class="cls-1" d="m127.74,171.7c1.08,4.64,2.99,12.21,3.83,15.81,2.06,8.85,5.59,19.22,6.88,25.94.19.97.35,1.91.47,2.75.21,1.47.91,11.27,4.29,23.9-1.39-2.27-3.09-4.89-5.53-8.6-1.76-2.69-3-4.71-4.24-6.98-.45-3.54-.96-7.3-1.49-11.07-4.08-16.61-5.24-35.71-5.01-42.99.21.19.58,1.16.8,1.24Zm-73.87-2.4c.14.5.26,1.01.38,1.52-.03,3.15-.49,8.98-1.12,16.07-.19,2.1-.38,4.3-.6,6.56-.62,6.2-1.49,12.83-2.83,19.12-.31,1.44-.65,2.86-1.01,4.24-.01.05-.02.11-.03.16-.72,3.3-1.42,6.49-2.15,9.63-.68,1.13-1.4,2.29-2.19,3.51-1.2,1.84-2.29,3.51-3.33,5.1-1.23,1.88-2.24,3.47-3.11,4.91,3.17-11.87,3.99-21.23,4.25-23.54.02-.2.04-.36.06-.49.1-.73.24-1.53.41-2.37.02-.12.05-.23.07-.35.88-4.46,2.43-10.15,4.13-16.19,1.71-6.05,3.56-12.44,5.02-18.3.46-1.85,1.59-7.31,2.05-9.59Zm-13.34-63.8c-.96.41-2.55,1.3-2.55,1.3v.02c-1.95.91-3.99,3.66-6.09,10.54-2.82,9.21-6.93,70.3-7.36,76.97-.36,5.34-1.26,15.48-1.7,16.82-.25.75-.49,1.49-.73,2.23-.04.11-.07.22-.11.34-4.19,12.86-8.15,24.55-9.34,33.86-.34,2.61-.65,5.03-.94,7.33-.02.11-.03.22-.04.33-1.4,11.19-2.46,19.22-4,30.01-.81,5.75-2.3,6.71-2.65,9.76-.05.44-.05.88-.05,1.43,0,.73,0,1.79-.22,3.5-.16,1.49-.31,2.84-.52,4.22-.72,4.79-1.29,6.16-1.82,8.35-1.45,5.98-2.02,9.1-1.88,13.22.19,5.44,1.34,8.05,3.46,10.69,1.1,1.36,2.18,3.05,3.88,4.88,2.42,2.6,2.76,2.72,3.74,1.26,1.29-1.91-.35-4.5.24-9.21.8-6.46,2.09-8.27,2.53-16.17.07-1.19.69,5.28,2.83,7.65,1.69,1.88,4.55,1.75,4.09.8-4.31-8.89-.54-14.59-2.4-21.4-.61-2.2-2.28-5.7-2.2-7.35,0-.12.03-.25.04-.37,0-.1.02-.19.03-.29.33-3.35,1.93-7.4,4.21-12.34-.56,3.77-.95,7.87-.98,12.4,0,.1,0,.19-.01.29-.02,4.28.17,8.91.73,13.97,1.37,12.52,11.56,39.26,15.36,52.03,8.45,28.38,13.23,45.41,13.85,55.42.81,12.92-1.05,16.97-2.7,24.79-3.21,15.21-.86,28.37,2.95,40.42,7.05,22.28,14.45,32.19,15.2,43.89.18,2.91-2.14,4.14-.86,7.83.67,1.92,1.79,3.76.09,8.04-5.75,14.48-13.23,18.28-12.35,23.57.98,5.86,21.74,5.49,29.86,4.17,6.69-1.09,6.6-10.06,4.67-20.34-.39-2.07-.59-4.4-.44-7.96.08-1.75.57-3.8.84-6.28.24-2.28-.46-4.68-.84-6.59-.29-1.45-.58-2.61-.63-3.21-1.8-22.39-1.24-27.76,1.73-48.8,3-21.26-1.21-25.08-.68-38.08.32-7.7,2.78-15.58,3.44-23.92.83-10.47-.31-20.35-1.48-27.79-3.22-20.57-3.2-23.89-4.25-40.16-1.12-17.66,4.84-26.31,1.44-41.54.78.26,2.72.35,4.63.37s3.85-.11,4.63-.37c-3.39,15.23,2.57,23.88,1.44,41.54-1.04,16.27-1.03,19.59-4.25,40.16-1.16,7.44-2.31,17.32-1.48,27.79.66,8.34,3.13,16.22,3.44,23.92.53,13-3.68,16.82-.68,38.08,2.97,21.04,3.53,26.41,1.73,48.8-.05.6-.34,1.76-.63,3.21-.38,1.91-1.08,4.31-.84,6.59.26,2.48.76,4.53.84,6.28.15,3.56-.05,5.89-.44,7.96-1.93,10.28-2.02,19.25,4.67,20.34,8.12,1.32,28.88,1.69,29.86-4.17.88-5.29-6.6-9.09-12.35-23.57-1.7-4.28-.57-6.12.09-8.04,1.27-3.69-1.04-4.92-.85-7.83.75-11.7,8.14-21.61,15.19-43.89,3.82-12.05,6.16-25.21,2.95-40.42-1.65-7.82-3.51-11.87-2.7-24.79.62-10.01,5.4-27.04,13.85-55.42,3.8-12.77,13.99-39.51,15.37-52.03.55-5.06.74-9.69.72-13.97,0-.1,0-.19-.01-.29-.03-4.53-.42-8.62-.97-12.39,2.32,5.04,3.96,9.15,4.23,12.54.01.13.03.28.04.41,0,.05,0,.09,0,.14.02,1.68-1.6,5.09-2.2,7.25-1.87,6.81,1.91,12.51-2.4,21.4-.46.95,2.39,1.08,4.09-.8,2.13-2.37,2.76-8.84,2.83-7.65.44,7.9,1.73,9.71,2.53,16.17.59,4.71-1.06,7.31.23,9.21.99,1.46,1.33,1.34,3.75-1.26,1.7-1.83,2.78-3.52,3.87-4.88,2.13-2.64,3.28-5.25,3.47-10.69.14-4.12-.43-7.24-1.88-13.22-.64-2.64-1.35-4.11-2.27-11.5-.26-2.07-.29-3.35-.29-4.3,0-.07,0-.21,0-.27,0-.55,0-.99-.05-1.43-.36-3.05-1.84-4.01-2.66-9.76-1.55-10.87-2.62-18.93-4.02-30.26-.01-.1-.02-.19-.04-.29-.28-2.23-.58-4.59-.91-7.12-1.2-9.37-5.2-21.16-9.43-34.12-.03-.1-.07-.2-.1-.3-.21-.67-.43-1.33-.65-2.01-.43-1.34-1.35-11.48-1.7-16.82-.44-6.67-4.55-67.76-7.37-76.97-2.1-6.88-4.13-9.63-6.09-10.54v-.02s-1.58-.89-2.55-1.3c-2.46-1.04-5.47-1.66-8.69-2.26-.52-.1-1.04-.19-1.57-.29-3.59-.65-6.93-1.39-10.39-2.73-5.33-2.05-9.73-4.61-12.38-11.01-1.11-2.7-1.56-10.21-1.74-15.34,2.54-2.35,4.5-5.38,5.73-10.41.22-.9.49-1.98.74-3.12,2.78.98,3.5-3.3,4.02-4.54.57-1.37,1.33-1.5,2.08-4.5.5-2.01-.37-3.32-.01-4.61.24-.87.35-3.32-.76-4.16-.11-.09-.26-.14-.42-.19,1.65-6.26,2.7-16.5-.73-24.34-1.49-3.39-3.32-6.13-5.26-8.29-4.56-5.58-12.1-9.22-20.63-9.22,0,0,0,0-.01,0-8.52,0-16.05,3.64-20.61,9.22-1.94,2.16-3.77,4.9-5.26,8.29-3.43,7.84-2.38,18.08-.73,24.34-.16.05-.31.1-.43.19-1.1.83-.99,3.29-.75,4.16.36,1.29-.51,2.6-.01,4.61.75,3,1.51,3.13,2.08,4.5.52,1.24,1.24,5.52,4.02,4.54.25,1.14.51,2.22.74,3.12,1.26,5.02,3.19,8.06,5.73,10.41-.18,5.13-.63,12.64-1.75,15.34-2.64,6.4-7.04,8.96-12.37,11.01-3.47,1.34-6.82,2.08-10.41,2.73-.52.1-1.04.19-1.55.29-3.22.6-6.24,1.22-8.71,2.26Z"/>
  </g>
</svg>