<?xml version="1.0" encoding="UTF-8"?>
<svg id="_레이어_2" data-name="레이어 2" xmlns="http://www.w3.org/2000/svg" viewBox="0 0 181.09 571.86">
  <defs>
    <style>
      .cls-1 {
        fill: #f2a7a9;
        stroke: #221714;
        stroke-miterlimit: 10;
      }
    </style>
  </defs>
  <g id="_레이어_1-2" data-name="레이어 1">
    <path class="cls-1" d="m3.98,336.25c1.1,1.36,2.19,3.06,3.89,4.88,2.42,2.6,2.76,2.73,3.74,1.27,1.29-1.91-.36-4.5.24-9.21.8-6.46,2.11-8.28,2.53-16.17.06-1.2.68,5.27,2.83,7.64,1.69,1.88,4.54,1.75,4.08.81-4.31-8.9-.52-14.6-2.39-21.41-.6-2.19-2.26-5.65-2.21-7.31,0-.05.02-.1.02-.15.02-.11.02-.23.04-.34.31-3.77,2.27-8.43,5.04-14.28,3.75-7.95,5.78-12.91,11.17-26.94.04-.1.06-.19.1-.3.35-.93.71-1.88,1.09-2.89,6.66-17.98,7.75-33.9,8.02-35.8.11-.78.26-1.63.44-2.52.02-.1.04-.2.06-.3.88-4.45,2.42-10.14,4.12-16.17,1.71-6.05,3.56-12.44,5.02-18.31.4-1.59,1.29-5.89,1.82-8.44.13-.32.24-.58.34-.77,2.34,11.03,4.14,30.05,3.5,43.92-1,5.48-3.16,11.55-5.93,18.76-4.64,12.09-5.94,19.66-6.04,21.15-.11.47-.24.95-.36,1.43-.02.05-.03.1-.05.14-.44,1.77-.9,3.52-1.37,5.24-1.06,3.3-2.18,7-3.15,11.26-1.52,6.65-2.74,14.66-2.79,24.7,0,.1-.02.19-.02.29-.01,4.28.13,8.91.56,13.96,1.03,12.52,8.63,39.26,11.48,52.03,6.32,28.39,9.9,45.42,10.36,55.42.6,12.93-.79,16.97-2.02,24.8-2.4,15.21-.65,28.36,2.21,40.42,5.27,22.28,10.81,32.19,11.37,43.88.13,2.92-1.6,4.14-.64,7.83.5,1.93,1.33,3.77.06,8.05-4.31,14.48-9.9,18.27-9.23,23.56.73,5.86,16.25,5.5,22.33,4.18,5-1.09,4.94-10.06,3.48-20.34-.29-2.08-.42-4.4-.31-7.96.05-1.76.42-3.81.62-6.28.19-2.28-.33-4.69-.62-6.6-.22-1.44-.44-2.6-.48-3.21-1.41-22.38-.92-27.75,1.29-48.79,2.25-21.27-.9-25.08-.5-38.08.23-7.71,2.08-15.58,2.56-23.93.63-10.46-.23-20.35-1.1-27.79-2.42-20.57-2.4-23.89-3.17-40.15-.85-17.66,3.61-26.32,1.07-41.55.58.27,2.02.38,3.46.38,1.44,0,2.88-.11,3.46-.38-2.54,15.23,1.92,23.89,1.07,41.55-.78,16.26-.76,19.58-3.17,40.15-.88,7.44-1.73,17.33-1.11,27.79.49,8.35,2.34,16.22,2.57,23.93.4,13-2.75,16.81-.51,38.08,2.22,21.04,2.7,26.41,1.3,48.79-.04.61-.26,1.77-.48,3.21-.28,1.91-.81,4.32-.62,6.6.2,2.47.57,4.52.62,6.28.12,3.56-.03,5.88-.32,7.96-1.45,10.28-1.51,19.25,3.49,20.34,6.07,1.32,21.6,1.68,22.33-4.18.66-5.29-4.93-9.08-9.23-23.56-1.28-4.28-.44-6.12.06-8.05.95-3.69-.78-4.91-.64-7.83.56-11.69,6.09-21.6,11.37-43.88,2.85-12.06,4.6-25.21,2.2-40.42-1.23-7.83-2.62-11.87-2.02-24.8.47-10,4.04-27.03,10.36-55.42,2.81-12.6,10.27-38.83,11.44-51.52.07-.71.12-1.41.17-2.1.31-4.22.43-8.15.42-11.81,0-.1,0-.19,0-.28,0-.68-.01-1.35-.03-2.01,0-.1,0-.19,0-.29-.38-16.64-3.73-27.58-6.48-35.96-.26-.96-.51-1.93-.76-2.92,0,0,0,0,0,0-.02-.05-.02-.11-.04-.16-.12-.48-.25-.96-.36-1.43-.1-1.39-1.42-8.96-6.03-21.14-2.8-7.39-4.97-13.7-5.98-19.33-.64-13.51.97-31.77,3.21-42.76.13-.52.26-1.04.4-1.55.46,2.29,1.59,7.75,2.05,9.6,2.91,11.69,7.39,25.49,9.14,34.41.02.1.04.2.06.3.18.92.33,1.8.44,2.6.26,1.88,1.34,17.4,7.78,35.08.36,1,.72,1.95,1.07,2.89.12.33.24.64.35.95,5.28,14.14,7.44,19.05,11.2,27.01,2.74,5.81,4.68,10.45,5.03,14.21,0,.1.02.2.03.29.01.07.02.15.02.22.08,1.64-1.59,5.14-2.2,7.34-1.86,6.81,1.91,12.51-2.4,21.41-.46.94,2.4,1.07,4.09-.81,2.14-2.37,2.76-8.84,2.83-7.64.44,7.89,1.73,9.71,2.53,16.17.59,4.71-1.05,7.3.24,9.21.98,1.46,1.32,1.33,3.74-1.27,1.7-1.82,2.78-3.52,3.88-4.88,2.12-2.64,3.27-5.24,3.46-10.69.14-4.11-.43-7.24-1.88-13.22-.6-2.48-1.26-3.92-2.12-10.45-.24-1.82-.31-3.13-.37-4.25-.07-.57-.07-1.13-.07-1.37,0-.55,0-.99-.05-1.42-.35-3.06-1.84-4.02-2.65-9.76-1.54-10.79-2.67-18.82-4-30.03-.01-.1-.02-.21-.04-.31-.29-2.29-.6-4.71-.94-7.33-1.19-9.32-5.16-21.01-9.35-33.88-.04-.1-.07-.21-.1-.31-.23-.74-.48-1.48-.73-2.23-.43-1.33-1.34-11.48-1.7-16.81-.43-6.67-4.54-67.76-7.36-76.98-2.05-6.71-4.04-9.49-5.95-10.47h.16l-.89-.41c-.55-.3-1.37-.73-1.96-.98-.26-.11-.54-.19-.81-.29l-31.56-14.51v.11c-.23-.46-.46-.94-.67-1.45-1.12-2.7-1.57-10.21-1.75-15.34,2.54-2.35,4.48-5.38,5.73-10.41.22-.9.49-1.97.74-3.12,2.78.98,3.5-3.3,4.02-4.54.57-1.36,1.33-1.49,2.08-4.5.5-2-.37-3.32-.01-4.61.24-.87.35-3.32-.75-4.16-.12-.09-.27-.14-.43-.18,1.65-6.27,2.7-16.51-.73-24.35-1.49-3.39-3.32-6.12-5.26-8.29-4.56-5.57-12.1-9.22-20.62-9.22h-.01c-8.52,0-16.06,3.65-20.62,9.22-1.94,2.17-3.77,4.9-5.25,8.29-3.44,7.84-2.38,18.08-.73,24.35-.17.04-.31.09-.44.18-1.1.84-.99,3.29-.75,4.16.36,1.29-.5,2.61,0,4.61.75,3.01,1.5,3.14,2.08,4.5.52,1.24,1.23,5.52,4.02,4.54.25,1.15.52,2.22.74,3.12,1.25,5.02,3.18,8.06,5.72,10.41-.17,5.13-.63,12.64-1.75,15.34-.21.51-.43.98-.67,1.44v-.1l-31.57,14.51c-.27.1-.55.18-.8.29-.59.25-1.4.68-1.95.97l-.89.41h.16c-1.92.97-3.91,3.76-5.95,10.47-2.83,9.22-6.93,70.31-7.37,76.98-.35,5.33-1.26,15.48-1.69,16.81-.24.73-.48,1.44-.71,2.16-.04.1-.06.2-.1.3-4.2,12.9-8.19,24.63-9.38,33.96-.34,2.59-.64,4.99-.93,7.26-.02.1-.04.2-.04.3-1.45,11.24-2.47,19.3-4.01,30.11-.81,5.74-2.27,6.71-2.65,9.76-.05.43-.06.87-.06,1.42v.29c0,.94-.03,2.22-.29,4.28-.94,7.4-1.63,8.87-2.27,11.5-1.44,5.98-2.01,9.11-1.88,13.22.19,5.45,1.34,8.06,3.46,10.69Z"/>
  </g>
</svg>