<?xml version="1.0" encoding="UTF-8"?>
<svg id="_레이어_2" data-name="레이어 2" xmlns="http://www.w3.org/2000/svg" viewBox="0 0 181.09 571.34">
  <defs>
    <style>
      .cls-1 {
        fill: #f2a7a9;
        stroke: #221714;
        stroke-miterlimit: 10;
      }
    </style>
  </defs>
  <g id="_레이어_1-2" data-name="레이어 1">
    <path class="cls-1" d="m176.42,301.07c-.29-2.28-.29-3.6-.29-4.57,0-.55,0-.99-.05-1.43-.36-3.05-1.84-4.01-2.66-9.76-1.55-10.89-2.58-18.97-4.03-30.33-.29-2.3-.6-4.72-.94-7.33-1.21-9.39-5.22-21.2-9.46-34.19-.24-.74-.48-1.48-.72-2.23-.43-1.34-1.35-11.48-1.7-16.82-.44-6.67-4.55-67.76-7.37-76.97-2.1-6.88-4.13-9.63-6.09-10.54v-.02s-.18-.1-.45-.25h.75l-35.22-16.19v.24c-.23-.47-.46-.95-.68-1.46-1.11-2.7-1.56-10.21-1.74-15.34,2.54-2.35,4.5-5.38,5.73-10.41.22-.9.49-1.98.74-3.12,2.78.98,3.5-3.3,4.02-4.54.57-1.37,1.33-1.5,2.08-4.5.5-2.01-.37-3.32-.01-4.61.24-.87.35-3.32-.76-4.16-.11-.09-.26-.14-.42-.19,1.65-6.26,2.7-16.5-.73-24.34-1.49-3.39-3.32-6.13-5.26-8.29-4.56-5.58-12.1-9.22-20.63-9.22s-16.06,3.64-20.62,9.22c-1.94,2.16-3.77,4.9-5.26,8.29-3.43,7.84-2.38,18.08-.73,24.34-.16.05-.31.1-.43.19-1.1.84-.99,3.29-.75,4.16.36,1.29-.51,2.6-.01,4.61.75,3,1.51,3.13,2.08,4.5.52,1.24,1.24,5.52,4.02,4.54.25,1.14.51,2.22.74,3.12,1.23,5.03,3.19,8.06,5.73,10.41-.18,5.13-.63,12.64-1.75,15.34-.21.51-.44.99-.67,1.45v-.22l-35.22,16.19h.74c-.27.14-.45.25-.45.25v.02c-1.95.91-3.99,3.66-6.09,10.54-2.82,9.21-6.93,70.3-7.36,76.97-.36,5.34-1.27,15.48-1.7,16.82-.25.75-.49,1.49-.73,2.23-4.23,12.99-8.25,24.8-9.45,34.19-.34,2.61-.65,5.03-.94,7.33-1.46,11.36-2.49,19.44-4.04,30.33-.81,5.75-2.3,6.71-2.65,9.76-.05.44-.05.88-.05,1.43,0,.97-.01,2.29-.29,4.57-.93,7.39-1.63,8.86-2.27,11.5-1.45,5.98-2.02,9.1-1.88,13.22.19,5.44,1.34,8.05,3.46,10.69,1.1,1.36,2.18,3.05,3.88,4.88,2.42,2.6,2.76,2.72,3.74,1.26,1.29-1.9-.35-4.5.24-9.21.8-6.46,2.11-8.27,2.53-16.17.07-1.19.69,5.28,2.83,7.65,1.69,1.88,4.55,1.75,4.09.8-4.31-8.89-.54-14.59-2.4-21.4-.61-2.2-2.28-5.7-2.2-7.35,0-.14.04-.3.05-.44.31-3.77,2.28-8.44,5.04-14.28,3.78-8.01,5.94-12.93,11.28-27.24.35-.93.71-1.89,1.08-2.9,6.66-17.98,7.77-33.89,8.03-35.8.12-.86.29-1.82.49-2.82.87-4.46,2.43-10.15,4.13-16.19,1.71-6.05,3.56-12.44,5.02-18.3.46-1.85,1.59-7.31,2.05-9.59.14.51.26,1.04.39,1.55-.84,5.41-3.7,24.09-6.26,42.53-2.08,15.05-3.96,29.94-4.36,37.31-.5,1.72-.68,2.63-.68,2.63,0,.02-.01.03-.02.05-.17.31-.31.59-.41.78-.12.23-.2.39-.22.45-3.15,9.05-7.88,21.01-8.08,40.93,0,.1-.01.2-.01.3v.29c-.02,4.19.15,8.72.58,13.66,1.1,12.52,9.23,39.26,12.26,52.03,6.75,28.39,10.57,45.42,11.06,55.42.65,12.93-.83,16.97-2.15,24.8-2.56,15.21-.69,28.36,2.35,40.42,5.63,22.28,11.53,32.19,12.13,43.88.15,2.92-1.69,4.14-.68,7.83.53,1.93,1.43,3.77.07,8.05-4.59,14.48-10.56,18.27-9.86,23.56.79,5.86,17.35,5.5,23.84,4.18,5.34-1.09,5.27-10.06,3.73-20.34-.31-2.08-.47-4.4-.35-7.96.06-1.76.46-3.81.67-6.28.19-2.28-.37-4.69-.67-6.6-.23-1.44-.47-2.6-.51-3.21-1.43-22.38-.99-27.75,1.39-48.79,2.39-21.27-.97-25.08-.55-38.08.25-7.71,2.22-15.58,2.75-23.93.66-10.46-.25-20.35-1.18-27.79-2.58-20.57-2.56-23.89-3.39-40.15-.9-17.66,3.85-26.32,1.14-41.55.63.27,2.17.37,3.7.38,1.53.01,3.07-.11,3.7-.38-2.71,15.23,2.04,23.89,1.14,41.55-.83,16.26-.81,19.58-3.39,40.15-.93,7.44-1.84,17.33-1.18,27.79.53,8.35,2.5,16.22,2.75,23.93.42,13-2.94,16.81-.55,38.08,2.37,21.04,2.82,26.41,1.39,48.79-.04.61-.28,1.77-.51,3.21-.3,1.91-.86,4.32-.67,6.6.21,2.47.61,4.52.67,6.28.12,3.56-.04,5.88-.35,7.96-1.54,10.28-1.61,19.25,3.73,20.34,6.48,1.32,23.05,1.68,23.84-4.18.7-5.29-5.27-9.08-9.86-23.56-1.36-4.28-.46-6.12.07-8.05,1.01-3.69-.83-4.91-.68-7.83.6-11.69,6.5-21.6,12.13-43.88,3.04-12.06,4.91-25.21,2.35-40.42-1.32-7.83-2.8-11.87-2.16-24.8.5-10,4.32-27.03,11.07-55.42,3.03-12.77,11.16-39.51,12.26-52.03.43-4.94.6-9.47.58-13.66v-.29c0-.1-.01-.2-.01-.3-.2-19.92-4.94-31.88-8.08-40.93-.02-.06-.1-.22-.22-.45-.1-.2-.24-.47-.41-.78,0-.01-.01-.03-.01-.04,0,0-.19-.91-.68-2.63-.4-7.37-2.28-22.26-4.37-37.31-2.55-18.44-5.42-37.12-6.25-42.53.13-.51.25-1.04.38-1.55.47,2.28,1.59,7.74,2.05,9.59,2.92,11.72,7.42,25.57,9.16,34.49.19,1,.36,1.96.48,2.82.27,1.91,1.37,17.82,8.04,35.8.37,1.01.73,1.97,1.07,2.9,5.34,14.31,7.51,19.23,11.29,27.24,2.75,5.84,4.73,10.51,5.04,14.28,0,.14.04.3.04.44.09,1.65-1.59,5.15-2.19,7.35-1.87,6.81,1.91,12.51-2.4,21.4-.46.95,2.39,1.08,4.09-.8,2.13-2.37,2.76-8.84,2.83-7.65.42,7.9,1.73,9.71,2.53,16.17.59,4.71-1.06,7.31.23,9.21.99,1.46,1.33,1.34,3.75-1.26,1.7-1.83,2.78-3.52,3.87-4.88,2.13-2.64,3.28-5.25,3.47-10.69.14-4.12-.43-7.24-1.88-13.22-.64-2.64-1.35-4.11-2.27-11.5Z"/>
  </g>
</svg>