<?xml version="1.0" encoding="UTF-8"?>
<svg id="_레이어_2" data-name="레이어 2" xmlns="http://www.w3.org/2000/svg" viewBox="0 0 181.09 571.41">
  <defs>
    <style>
      .cls-1 {
        fill: #f2a7a9;
        stroke: #221714;
        stroke-miterlimit: 10;
      }
    </style>
  </defs>
  <g id="_레이어_1-2" data-name="레이어 1">
    <path class="cls-1" d="m.53,325.88c.2,4.98,1.21,7.56,3.07,10.02.17.22.34.45.52.67.95,1.19,1.9,2.62,3.26,4.16.22.25.44.49.66.73,1.8,1.92,2.37,2.33,3.07,1.68.21-.2.4-.48.61-.85.98-1.75-.22-4.09.05-8.02.03-.41.07-.83.12-1.25.76-5.89,1.95-7.9,2.42-14.73.03-.46.09-.69.16-.84.15-.3.64,3.83,2.07,6.33.29.51.64.95,1.02,1.29,1,.9,2.24,1.13,2.81,1.04.59-.09.99-.41.76-.91-3.69-7.98-.92-13.39-1.91-19.45-.11-.66-.26-1.35-.48-2.05-.48-1.58-1.35-3.65-1.73-5.22-.01-.05-.02-.09-.03-.14-.02-.09-.03-.18-.05-.28-.12-.66-.2-1.27-.15-1.78.01-.14.05-.3.06-.45.38-3.27,1.94-7.2,4.14-11.96.35-.77.72-1.55,1.09-2.33,3.4-7.22,5.5-12.11,10.09-24.2.04-.11.08-.21.12-.32.34-.91.7-1.86,1.07-2.85.33-.88.67-1.78,1.01-2.72,5.49-15.05,7.08-28.53,7.61-33.2.12-1.07.23-1.91.31-2.49.01-.1.03-.19.04-.26.13-.85.3-1.79.5-2.76.92-4.52,2.49-10.22,4.19-16.23,1.44-5.09,2.96-10.39,4.26-15.4.24-.91.49-1.93.74-2.97.35-1.5.95-4.33,1.41-6.53.25-.66.49-1.24.67-1.54.14.52.26,1.05.39,1.57.15,6.95-1.13,23.63-2.95,39.35,0,0,0,0,0,0-.17,1.09-.35,2.18-.54,3.27-.95,5.47-2.11,11.01-3.27,16.5-1.81,8.56-3.22,15.78-3.9,20.14-.51,1.54-.75,2.42-.83,2.57,0,.01,0,.03-.01.04-.17.31-.31.58-.41.78-.12.23-.2.39-.22.45-3.09,9.07-7.98,21.01-8.08,40.93,0,.1-.01.2-.01.3v.29c-.02,4.19.15,8.72.58,13.66,1.1,12.52,9.23,39.26,12.26,52.03,6.75,28.39,10.57,45.42,11.06,55.42.65,12.93-.83,16.97-2.15,24.8-2.56,15.21-.69,28.36,2.35,40.42,5.63,22.28,11.53,32.19,12.13,43.88.15,2.92-1.69,4.14-.68,7.83.53,1.93,1.43,3.77.07,8.05-4.59,14.48-10.56,18.27-9.86,23.56.79,5.86,17.35,5.5,23.84,4.18,5.34-1.09,5.27-10.06,3.73-20.34-.31-2.08-.47-4.4-.35-7.96.06-1.76.46-3.81.67-6.28.19-2.28-.37-4.69-.67-6.6-.23-1.44-.47-2.6-.51-3.21-1.43-22.38-.99-27.75,1.39-48.79,2.39-21.27-.97-25.08-.55-38.08.25-7.71,2.22-15.58,2.75-23.93.66-10.46-.25-20.35-1.18-27.79-2.58-20.57-2.56-23.89-3.39-40.15-.9-17.66,3.85-26.32,1.14-41.55.63.27,2.17.37,3.7.38,1.53.01,3.07-.11,3.7-.38-2.71,15.23,2.04,23.89,1.14,41.55-.83,16.26-.81,19.58-3.39,40.15-.93,7.44-1.84,17.33-1.18,27.79.53,8.35,2.5,16.22,2.75,23.93.42,13-2.94,16.81-.55,38.08,2.37,21.04,2.82,26.41,1.39,48.79-.04.61-.28,1.77-.51,3.21-.3,1.91-.86,4.32-.67,6.6.21,2.47.61,4.52.67,6.28.12,3.56-.04,5.88-.35,7.96-1.54,10.28-1.61,19.25,3.73,20.34,6.48,1.32,23.05,1.68,23.84-4.18.7-5.29-5.27-9.08-9.86-23.56-1.36-4.28-.46-6.12.07-8.05,1.01-3.69-.83-4.91-.68-7.83.6-11.69,6.5-21.6,12.13-43.88,3.04-12.06,4.91-25.21,2.35-40.42-1.32-7.83-2.8-11.87-2.16-24.8.5-10,4.32-27.03,11.07-55.42,3.03-12.77,11.16-39.51,12.26-52.03.43-4.94.6-9.47.58-13.66v-.29c0-.1,0-.2-.01-.3-.1-19.69-4.83-31.6-7.97-40.61-.04-.12-.1-.27-.17-.43-.08-.18-.27-.54-.54-1.06-.11-.21-.25-.48-.41-.79,0-.02-.01-.03-.02-.05-.1-.18-.34-1.07-.83-2.59-.66-3.93-1.75-9.89-3.2-16.89-1.36-6.52-2.79-13.19-3.79-19.81-1.91-16.8-3.29-35.34-3.1-42.61.13-.51.25-1.04.39-1.55.47,2.28,1.59,7.74,2.05,9.59,2.9,11.63,7.35,25.35,9.12,34.28.02.1.04.19.06.29.19.97.35,1.91.47,2.75.26,1.83,1.28,16.57,7.27,33.64.34.97.69,1.93,1.04,2.88.29.78.56,1.53.83,2.25,5.28,14.27,7.49,19.17,11.26,27.17,2.7,5.73,4.65,10.34,5.02,14.07,0,.1.02.19.03.28,0,.12.04.25.04.37.09,1.65-1.59,5.15-2.19,7.35-1.87,6.81,1.91,12.51-2.4,21.4-.46.95,2.39,1.08,4.09-.8,2.13-2.37,2.76-8.84,2.83-7.65.44,7.9,1.73,9.71,2.53,16.17.59,4.71-1.06,7.31.23,9.21.99,1.46,1.33,1.34,3.75-1.26,1.7-1.83,2.78-3.52,3.87-4.88,2.13-2.64,3.28-5.25,3.47-10.69.14-4.12-.43-7.24-1.88-13.22-.53-2.19-1.11-3.56-1.82-8.35-.21-1.37-.36-2.72-.52-4.21-.22-1.71-.22-2.78-.22-3.5,0-.55,0-.99-.05-1.43-.36-3.05-1.84-4.01-2.66-9.76-1.54-10.78-2.6-18.81-3.99-30.01-.01-.11-.03-.22-.04-.33-.29-2.3-.6-4.72-.94-7.33-1.2-9.31-5.15-21-9.35-33.86-.04-.11-.07-.22-.11-.34-.24-.74-.48-1.48-.72-2.23-.43-1.34-1.35-11.48-1.7-16.82-.44-6.67-4.55-67.76-7.37-76.97-2.1-6.88-4.13-9.63-6.09-10.54v-.02s-.13-.07-.33-.18h.63l-35.22-16.19v.24c-.23-.47-.46-.95-.67-1.46-1.11-2.7-1.56-10.21-1.74-15.34,2.54-2.35,4.5-5.38,5.73-10.41.22-.9.49-1.98.74-3.12,2.78.98,3.5-3.3,4.02-4.54.57-1.37,1.33-1.5,2.08-4.5.5-2.01-.37-3.32-.01-4.61.24-.87.35-3.32-.76-4.16-.11-.09-.26-.14-.42-.19,1.65-6.26,2.7-16.5-.73-24.34-1.49-3.39-3.32-6.13-5.26-8.29-4.56-5.58-12.1-9.22-20.62-9.22h-.01c-8.52,0-16.06,3.64-20.62,9.22-1.94,2.16-3.77,4.9-5.26,8.29-3.43,7.84-2.38,18.08-.73,24.34-.16.05-.31.1-.43.19-1.1.84-.99,3.29-.75,4.16.36,1.29-.51,2.6-.01,4.61.75,3,1.51,3.13,2.08,4.5.52,1.24,1.24,5.52,4.02,4.54.25,1.14.51,2.22.74,3.12,1.26,5.02,3.19,8.06,5.73,10.41-.18,5.13-.63,12.64-1.75,15.34-.21.51-.43.98-.67,1.45v-.23l-35.22,16.19h.62c-.2.11-.33.18-.33.18v.02c-1.95.91-3.99,3.66-6.09,10.54-2.82,9.21-6.93,70.3-7.36,76.97-.36,5.34-1.26,15.48-1.7,16.82-.22.68-.44,1.34-.66,2.01-.03.1-.06.2-.1.3-4.22,12.96-8.23,24.74-9.42,34.12-.33,2.53-.63,4.88-.91,7.12-.01.1-.02.19-.04.29-1.41,11.33-2.48,19.39-4.03,30.26-.81,5.75-2.3,6.71-2.65,9.76-.05.44-.05.88-.05,1.43,0,.06,0,.2,0,.27,0,.94-.03,2.23-.29,4.3-.89,7.11-1.58,8.74-2.2,11.2-.03.14-.07.27-.1.41-1.37,5.66-1.94,8.76-1.87,12.61,0,.22.01.44.02.67Z"/>
  </g>
</svg>