<?xml version="1.0" encoding="UTF-8"?>
<svg id="_레이어_2" data-name="레이어 2" xmlns="http://www.w3.org/2000/svg" viewBox="0 0 181.09 571.71">
  <defs>
    <style>
      .cls-1 {
        fill: #f2a7a9;
        stroke: #221714;
        stroke-miterlimit: 10;
      }
    </style>
  </defs>
  <g id="_레이어_1-2" data-name="레이어 1">
    <path class="cls-1" d="m.53,325.88c.2,4.98,1.22,7.56,3.07,10.02.17.22.34.45.52.67.95,1.19,1.9,2.62,3.26,4.16.22.25.44.49.66.73,1.8,1.92,2.37,2.33,3.07,1.68.21-.2.4-.48.61-.85.98-1.75-.22-4.09.05-8.02.03-.41.07-.83.12-1.25.76-5.89,1.95-7.9,2.42-14.73.03-.46.09-.69.16-.84.15-.3.64,3.83,2.07,6.33.3.51.64.95,1.02,1.29,1,.9,2.24,1.13,2.81,1.04.59-.09.99-.41.76-.91-3.69-7.98-.9-13.39-1.91-19.45-.11-.66-.27-1.35-.48-2.05-.48-1.58-1.35-3.65-1.73-5.22-.01-.05-.02-.09-.03-.14-.02-.09-.03-.18-.05-.28-.12-.66-.2-1.27-.15-1.78.01-.14.05-.3.06-.45.38-3.27,1.94-7.2,4.14-11.96.35-.77.72-1.55,1.09-2.33,3.4-7.22,5.5-12.11,10.09-24.2.04-.11.08-.21.12-.32.34-.91.7-1.86,1.07-2.85.33-.88.67-1.78,1.01-2.72,5.49-15.05,7.08-28.53,7.61-33.2.12-1.07.23-1.91.31-2.49.01-.1.03-.19.04-.26.14-.89.32-1.88.54-2.9.93-4.54,2.51-10.23,4.2-16.24,1.38-4.88,2.84-9.95,4.09-14.77.29-1.1.6-2.35.9-3.61.32-1.38.84-3.83,1.27-5.87.31-.79.6-1.51.82-1.86.14.51.26,1.04.39,1.56.14,6.87-1.11,23.13-2.91,38.6,0,0,0,0,0,0-.21,1.33-.48,2.67-.78,4.01-1.22,5.45-2.8,10.95-4.19,16.33-.69,2.68-1.26,5.13-1.75,7.37-.13.2-.25.39-.37.59-3.57,5.71-4.51,7.86-8.08,15.89-.02.05-.05.1-.07.15-3.59,9.08-9.1,21.11-9.22,41.23,0,.1,0,.19-.01.29-.02,4.28.15,8.91.65,13.96,1.24,12.52,10.39,39.26,13.81,52.03,7.6,28.39,11.9,45.42,12.46,55.42.72,12.93-.94,16.97-2.43,24.8-2.89,15.21-.78,28.36,2.65,40.42,6.34,22.28,12.99,32.19,13.66,43.88.17,2.92-1.9,4.14-.76,7.83.6,1.93,1.6,3.77.07,8.05-5.17,14.48-11.89,18.27-11.1,23.56.88,5.86,19.55,5.5,26.85,4.18,6.01-1.09,5.93-10.06,4.2-20.34-.35-2.08-.52-4.4-.39-7.96.06-1.76.51-3.81.75-6.28.22-2.28-.41-4.69-.75-6.6-.26-1.44-.53-2.6-.57-3.21-1.54-22.39-1.12-27.75,1.55-48.79,2.7-21.27-1.08-25.08-.61-38.08.29-7.71,2.5-15.58,3.09-23.93.75-10.46-.28-20.35-1.33-27.79-2.89-20.57-2.88-23.89-3.81-40.15-1.02-17.66,4.34-26.32,1.28-41.55.71.27,2.45.37,4.17.38s3.46-.11,4.17-.38c-3.06,15.23,2.3,23.89,1.29,41.55-.94,16.26-.92,19.58-3.82,40.15-1.05,7.44-2.08,17.33-1.33,27.79.59,8.35,2.81,16.22,3.09,23.93.47,13-3.31,16.81-.61,38.08,2.67,21.04,3.28,26.42,1.56,48.79-.05.61-.31,1.77-.57,3.21-.34,1.91-.98,4.32-.76,6.6.24,2.47.69,4.52.76,6.28.13,3.56-.05,5.88-.4,7.96-1.73,10.28-1.81,19.25,4.2,20.34,7.31,1.32,25.97,1.68,26.85-4.18.79-5.29-5.93-9.08-11.1-23.56-1.53-4.28-.53-6.12.07-8.05,1.14-3.69-.93-4.91-.76-7.83.67-11.69,7.32-21.6,13.66-43.88,3.43-12.06,5.54-25.21,2.65-40.42-1.48-7.83-3.15-11.87-2.43-24.8.55-9.78,4.67-26.28,11.96-53.56.22-.81.44-1.63.67-2.48,3.31-12.18,11.35-35.92,13.3-48.94.17-1.17.31-2.28.41-3.31.34-3.7.52-7.18.57-10.46,0-.09,0-.18,0-.27.01-1.12,0-2.21,0-3.29,0-.1,0-.19-.01-.29-.27-17.55-4.68-28.84-8.07-37.44-.02-.04-.03-.08-.05-.12,0,0,0,0,0,0-.54-1.33-1.05-2.56-1.52-3.73-.02-.05-.05-.1-.07-.15,0,0,0,0,0,0-3.21-7.19-4.25-9.47-7.66-14.92-.3-.47-.6-.96-.94-1.49-.24-1.08-.5-2.2-.79-3.37-1.67-6.61-3.89-13.46-4.93-20.38,0,0,0,0,0,0-1.91-16.8-3.29-35.34-3.1-42.6.13-.51.25-1.04.39-1.55.47,2.28,1.59,7.74,2.05,9.59,2.9,11.63,7.35,25.35,9.12,34.28.02.1.04.19.06.29.19.97.35,1.91.47,2.75.26,1.83,1.28,16.57,7.27,33.65.34.97.69,1.92,1.04,2.88.29.78.56,1.53.83,2.25,5.28,14.27,7.49,19.17,11.26,27.17,2.7,5.74,4.66,10.34,5.02,14.07,0,.1.02.19.03.28.01.12.04.25.04.37.09,1.65-1.59,5.15-2.19,7.35-1.87,6.81,1.91,12.51-2.4,21.4-.46.95,2.39,1.08,4.09-.8,2.13-2.37,2.76-8.84,2.83-7.65.44,7.9,1.73,9.71,2.53,16.17.59,4.71-1.06,7.31.23,9.21.99,1.46,1.33,1.34,3.75-1.26,1.7-1.83,2.78-3.52,3.87-4.88,2.13-2.64,3.28-5.25,3.47-10.69.14-4.12-.43-7.24-1.88-13.22-.53-2.19-1.11-3.56-1.82-8.36-.21-1.37-.36-2.72-.52-4.21-.22-1.71-.22-2.78-.22-3.5,0-.55,0-.99-.05-1.43-.36-3.05-1.84-4.01-2.66-9.76-1.54-10.78-2.59-18.81-3.99-30.01-.01-.11-.03-.22-.04-.33-.29-2.3-.6-4.72-.94-7.33-1.2-9.31-5.15-21-9.35-33.85-.04-.11-.07-.22-.11-.34-.24-.74-.48-1.48-.72-2.23-.43-1.34-1.35-11.48-1.7-16.82-.44-6.67-4.55-67.76-7.37-76.97-2.1-6.88-4.13-9.63-6.09-10.54v-.02s-.03-.01-.06-.03h.36l-35.22-16.19v.09c-.23-.47-.46-.95-.67-1.46-1.11-2.7-1.56-10.21-1.74-15.34,2.54-2.35,4.5-5.38,5.73-10.41.22-.9.49-1.98.74-3.12,2.78.98,3.5-3.3,4.02-4.54.57-1.37,1.33-1.5,2.08-4.5.5-2.01-.37-3.32,0-4.61.24-.87.35-3.32-.76-4.16-.11-.09-.26-.14-.42-.19,1.65-6.26,2.7-16.5-.73-24.34-1.49-3.39-3.32-6.13-5.26-8.29-4.56-5.58-12.09-9.22-20.62-9.22h-.01c-8.52,0-16.06,3.64-20.62,9.22-1.94,2.16-3.77,4.9-5.26,8.29-3.43,7.84-2.38,18.08-.73,24.34-.16.05-.31.1-.43.19-1.1.83-.99,3.29-.75,4.16.36,1.29-.51,2.6,0,4.61.75,3,1.51,3.13,2.08,4.5.52,1.24,1.24,5.52,4.02,4.54.25,1.14.51,2.22.74,3.12,1.26,5.02,3.19,8.06,5.73,10.41-.18,5.13-.63,12.64-1.75,15.34-.21.51-.43.98-.67,1.45v-.08l-35.22,16.19h.35s-.06.03-.06.03v.02c-1.95.91-3.99,3.66-6.09,10.54-2.82,9.21-6.93,70.3-7.36,76.97-.36,5.34-1.26,15.48-1.7,16.82-.22.68-.44,1.34-.66,2.01-.03.1-.06.2-.1.3-4.22,12.96-8.23,24.74-9.43,34.12-.33,2.53-.63,4.88-.91,7.12-.01.1-.02.19-.04.29-1.4,11.33-2.48,19.39-4.03,30.26-.81,5.75-2.3,6.71-2.65,9.76-.05.44-.05.88-.05,1.43v.27c0,.94-.03,2.23-.29,4.3-.89,7.11-1.58,8.74-2.2,11.2-.03.14-.07.27-.1.41-1.37,5.66-1.94,8.76-1.86,12.61,0,.22.01.44.02.67Z"/>
  </g>
</svg>