<?xml version="1.0" encoding="UTF-8"?>
<svg id="_레이어_2" data-name="레이어 2" xmlns="http://www.w3.org/2000/svg" viewBox="0 0 181.09 571.79">
  <defs>
    <style>
      .cls-1 {
        fill: #f2a7a9;
        stroke: #221714;
        stroke-miterlimit: 10;
      }
    </style>
  </defs>
  <g id="_레이어_1-2" data-name="레이어 1">
    <path class="cls-1" d="m.53,325.98c.22,4.99,1.28,7.54,3.19,10.02.17.22.35.45.53.68.94,1.2,1.9,2.63,3.29,4.17.23.25.45.49.67.73,1.81,1.91,2.3,2.17,3.06,1.3.21-.24.38-.53.55-.9.79-1.77-.37-4.15-.03-8.08.04-.42.08-.83.14-1.25.78-5.76,1.95-7.79,2.4-14.8.03-.45.09-.42.22-.17.21.4.78,4.22,2.21,6.38.33.5.72.9,1.13,1.2,1.17.85,2.49.91,2.78.62.28-.27.49-.64.27-1.15-3.5-7.98-.6-13.38-1.83-19.55-.13-.64-.31-1.33-.55-2.05-.55-1.7-1.43-3.81-1.66-5.25,0-.05,0-.1-.01-.14,0-.1-.02-.19-.02-.28-.06-.64-.08-1.25-.01-1.8.02-.15.05-.3.07-.45.5-3.29,2.11-7.22,4.32-11.97.36-.78.73-1.56,1.09-2.34,3.3-7.04,5.4-12.07,10.08-24.33.04-.1.08-.2.12-.31.34-.91.7-1.87,1.07-2.87.31-.83.62-1.68.93-2.54,5.64-15.73,7.04-29.62,7.49-33.34.12-.97.24-1.82.35-2.5.02-.1.03-.19.04-.28.16-.93.36-1.93.58-2.99.99-4.61,2.58-10.32,4.27-16.29,1.39-4.92,2.85-10.02,4.08-14.82.26-.99.56-2.28.87-3.63.37-1.64.88-4.08,1.25-5.89.31-.13.61-.19.86.02.13.51.25,1.04.38,1.56,1.06,8.72,1.07,24.85-.13,38.74,0,0,0,0,0,0-.22,1.32-.58,2.63-1,3.96-1.59,5.06-4.02,10.24-6.13,15.64-1.04,2.68-1.88,5.01-2.57,7.09,0,0,0,0,0,.01-3.92,6.21-4.78,8.2-8.49,16.54-.02.05-.05.1-.07.15-3.59,9.08-9.11,21.11-9.22,41.23,0,.1,0,.19-.01.29-.02,4.28.15,8.91.65,13.96,1.24,12.52,10.39,39.26,13.81,52.03,7.6,28.39,11.9,45.42,12.46,55.42.72,12.93-.94,16.97-2.43,24.8-2.89,15.21-.78,28.36,2.65,40.42,6.34,22.28,12.99,32.19,13.66,43.88.17,2.92-1.9,4.14-.76,7.83.6,1.93,1.6,3.77.07,8.05-5.17,14.48-11.89,18.27-11.1,23.56.88,5.86,19.55,5.5,26.85,4.18,6.01-1.09,5.93-10.06,4.2-20.34-.35-2.08-.52-4.4-.39-7.96.06-1.76.51-3.81.75-6.28.22-2.28-.41-4.69-.75-6.6-.26-1.44-.53-2.6-.57-3.21-1.54-22.39-1.12-27.75,1.55-48.79,2.7-21.27-1.08-25.08-.61-38.08.29-7.71,2.5-15.58,3.09-23.93.75-10.46-.28-20.35-1.33-27.79-2.89-20.57-2.88-23.89-3.81-40.15-1.02-17.66,4.34-26.32,1.28-41.55.71.27,2.45.37,4.17.38,1.72.01,3.46-.11,4.17-.38-3.06,15.23,2.3,23.89,1.29,41.55-.94,16.26-.92,19.58-3.82,40.15-1.05,7.44-2.08,17.33-1.33,27.79.59,8.35,2.81,16.22,3.09,23.93.47,13-3.31,16.81-.61,38.08,2.67,21.04,3.28,26.42,1.56,48.79-.05.61-.31,1.77-.57,3.21-.34,1.91-.98,4.32-.76,6.6.24,2.47.69,4.52.76,6.28.13,3.56-.05,5.88-.4,7.96-1.73,10.28-1.81,19.25,4.2,20.34,7.31,1.32,25.97,1.68,26.85-4.18.79-5.29-5.93-9.08-11.1-23.56-1.53-4.28-.53-6.12.07-8.05,1.14-3.69-.93-4.91-.76-7.83.67-11.69,7.32-21.6,13.66-43.88,3.43-12.06,5.54-25.21,2.65-40.42-1.48-7.83-3.15-11.87-2.43-24.8.55-9.85,4.74-26.53,12.13-54.18.21-.8.44-1.63.68-2.48,3.48-12.62,11.55-36.54,13.24-49.14.15-1.16.28-2.28.37-3.34.32-3.72.48-7.21.5-10.5,0-.09,0-.18,0-.28,0-1.12,0-2.23-.03-3.3,0-.1,0-.19-.01-.29-.44-17.69-5.03-28.93-8.42-37.5-.02-.04-.04-.09-.06-.13,0,0,0,0,0,0-.57-1.35-1.09-2.59-1.57-3.73-.02-.05-.05-.1-.07-.14,0,0,0,0,0,0-2.99-6.68-4.07-8.94-7.64-14.61-.35-.56-.72-1.14-1.13-1.78-.36-1.02-.74-2.11-1.18-3.25-2.61-6.78-6.04-13.16-7.1-19.64,0,0,0,0,0,0-1.28-15.15-1.16-33.55.06-42.68.13-.52.26-1.04.39-1.55.46,2.29,1.59,7.74,2.05,9.6,2.9,11.66,7.37,25.42,9.13,34.34.02.1.04.19.06.29.18.94.34,1.85.46,2.68.26,1.85,1.31,16.99,7.52,34.36.35.98.7,1.94,1.05,2.88.21.56.4,1.09.59,1.6,5.3,14.19,7.47,19.11,11.23,27.09,2.72,5.77,4.67,10.4,5.03,14.14,0,.1.02.19.03.29.01.09.03.2.03.3.08,1.65-1.59,5.15-2.2,7.34-1.87,6.81,1.91,12.51-2.4,21.41-.46.94,2.4,1.07,4.09-.81,2.13-2.37,2.76-8.84,2.83-7.64.44,7.89,1.73,9.71,2.53,16.17.59,4.71-1.05,7.31.24,9.21.99,1.46,1.33,1.33,3.75-1.26,1.7-1.82,2.78-3.52,3.88-4.88,2.12-2.64,3.27-5.24,3.46-10.69.14-4.12-.43-7.24-1.88-13.22-.57-2.34-1.19-3.74-1.97-9.41-.22-1.6-.33-2.92-.44-4.23-.15-1.14-.15-1.95-.15-2.44,0-.55,0-.99-.05-1.42-.35-3.06-1.84-4.02-2.65-9.76-1.54-10.79-2.63-18.82-3.99-30.02-.01-.11-.02-.21-.04-.32-.29-2.29-.6-4.71-.94-7.33-1.19-9.31-5.15-21.01-9.35-33.87-.04-.11-.07-.22-.11-.32-.24-.74-.48-1.48-.72-2.23-.43-1.33-1.35-11.48-1.7-16.82-.43-6.67-4.54-67.76-7.37-76.97-2.03-6.64-3.99-9.43-5.89-10.43h.1l-.48-.22c-.43-.24-1.59-.87-2.37-1.2-.37-.16-.77-.29-1.17-.42l-31.2-14.34h0c-.23-.46-.46-.94-.67-1.45-1.12-2.7-1.57-10.21-1.75-15.34,2.54-2.35,4.49-5.38,5.73-10.41.22-.9.49-1.97.74-3.12,2.78.98,3.5-3.3,4.02-4.54.57-1.36,1.33-1.49,2.08-4.5.5-2-.37-3.32-.01-4.61.24-.87.35-3.32-.76-4.16-.11-.09-.26-.14-.42-.19,1.65-6.26,2.7-16.51-.73-24.34-1.49-3.39-3.32-6.13-5.26-8.29-4.56-5.57-12.1-9.22-20.62-9.22h-.01c-8.52,0-16.06,3.64-20.62,9.22-1.94,2.16-3.77,4.9-5.26,8.29-3.43,7.84-2.38,18.08-.73,24.34-.16.05-.31.09-.43.19-1.1.83-.99,3.29-.75,4.16.36,1.29-.51,2.6,0,4.61.75,3.01,1.51,3.14,2.08,4.5.52,1.24,1.24,5.52,4.02,4.54.25,1.15.51,2.22.74,3.12,1.26,5.02,3.19,8.06,5.73,10.41-.18,5.13-.63,12.64-1.75,15.34-.21.51-.44.99-.67,1.45l-31.02,14.26c-.46.16-.92.32-1.35.51-.79.34-1.99.99-2.4,1.22l-.45.21h.09c-1.89,1-3.86,3.8-5.89,10.43-2.82,9.21-6.93,70.31-7.36,76.97-.36,5.34-1.26,15.48-1.7,16.82-.23.7-.46,1.39-.68,2.08-.03.1-.06.2-.1.3-4.21,12.93-8.2,24.68-9.4,34.04-.33,2.56-.64,4.94-.92,7.19-.02.1-.03.19-.04.29-1.35,11.29-2.48,19.34-4.02,30.19-.81,5.74-2.3,6.7-2.65,9.76-.05.44-.05.88-.05,1.42v.28c0,.94-.03,2.22-.29,4.29-.91,7.2-1.59,8.78-2.22,11.3-.04.14-.07.28-.1.43-1.37,5.67-1.93,8.76-1.83,12.66,0,.22.01.45.02.67Z"/>
  </g>
</svg>