<?xml version="1.0" encoding="UTF-8"?>
<svg id="_레이어_2" data-name="레이어 2" xmlns="http://www.w3.org/2000/svg" viewBox="0 0 181.09 572.09">
  <defs>
    <style>
      .cls-1 {
        fill: #f2a7a9;
        stroke: #221714;
        stroke-miterlimit: 10;
      }
    </style>
  </defs>
  <g id="_레이어_1-2" data-name="레이어 1">
    <path class="cls-1" d="m.5,324.78c0,.17,0,.35,0,.53,0,.22.01.45.02.67.22,4.99,1.28,7.54,3.19,10.02.17.22.35.45.53.68.94,1.2,1.9,2.63,3.29,4.17.23.25.45.49.67.73,1.81,1.91,2.3,2.17,3.06,1.3.21-.24.38-.53.55-.9,0-.02.01-.05.02-.07.54-1.22.15-2.72-.04-4.83,0-.09-.01-.17-.02-.26,0-.11-.02-.22-.02-.33-.04-.79-.05-1.65.03-2.6.04-.42.08-.83.14-1.25.78-5.76,1.95-7.79,2.4-14.8.03-.45.09-.42.22-.17.21.4.78,4.22,2.21,6.38.33.5.72.9,1.13,1.2.62.45,1.28.68,1.81.75,1.05.2,1.86-.07,1.6-.6-1.35-2.78-1.9-5.25-2.09-7.53-.17-2.18-.01-4.2.11-6.17.17-2.57.3-5.05-.42-7.71-.4-1.45-1.26-3.47-1.78-5.14-.09-.34-.17-.67-.22-.97,0-.05,0-.1,0-.14,0-.1-.02-.19-.02-.28-.06-.64-.08-1.25-.01-1.8.02-.15.05-.3.07-.45.5-3.29,2.11-7.22,4.32-11.97.36-.78.73-1.56,1.09-2.34,3.3-7.04,5.4-12.07,10.08-24.33.04-.1.08-.2.12-.31.34-.91.7-1.87,1.07-2.87.31-.83.62-1.68.93-2.54,2.9-8.09,4.68-15.69,5.79-21.68.01-.07.02-.13.04-.2.04-.22.08-.45.12-.67.64-3.57,1.04-6.55,1.3-8.71.11-.87.19-1.58.25-2.09.12-.97.24-1.82.35-2.5.02-.1.03-.19.04-.28.16-.93.36-1.93.58-2.99.99-4.61,2.58-10.32,4.27-16.29,1.39-4.92,2.85-10.02,4.08-14.82.26-.99.56-2.28.87-3.63.37-1.64.88-4.08,1.25-5.89.31-.13.61-.19.86.02.13.51.25,1.04.38,1.56,1.06,8.72,1.07,24.85-.13,38.74,0,0,0,0,0,0-.22,1.32-.58,2.63-1,3.96-1.59,5.06-4.02,10.24-6.13,15.64-.22.56-.42,1.1-.62,1.63-8.33,11.53-9.64,13.65-13.49,22.31-.02.05-.04.1-.06.15-3.75,9.09-9.49,21.1-9.75,41.23v.29c-.04,4.28.16,8.91.69,13.96,1.31,12.52,10.98,39.26,14.59,52.03,8.02,28.39,12.56,45.42,13.15,55.42.77,12.93-.99,16.97-2.56,24.8-3.05,15.21-.82,28.36,2.8,40.42,6.69,22.28,13.71,32.19,14.43,43.88.17,2.92-2.02,4.14-.81,7.83.63,1.93,1.69,3.77.08,8.05-5.46,14.48-12.57,18.27-11.73,23.56.93,5.86,20.64,5.5,28.36,4.18,6.35-1.09,6.26-10.06,4.43-20.34-.37-2.08-.56-4.4-.42-7.96.08-1.76.55-3.81.8-6.28.23-2.28-.43-4.69-.8-6.6-.27-1.44-.55-2.6-.6-3.21-1.7-22.38-1.17-27.75,1.65-48.79,2.85-21.27-1.15-25.08-.65-38.08.3-7.71,2.64-15.58,3.27-23.93.79-10.46-.3-20.35-1.41-27.79-3.06-20.57-3.04-23.89-4.03-40.15-1.07-17.66,4.59-26.32,1.36-41.55.75.27,2.58.37,4.4.38,1.82.01,3.65-.11,4.4-.38-3.23,15.23,2.43,23.89,1.36,41.55-.99,16.26-.97,19.58-4.03,40.15-1.11,7.44-2.19,17.33-1.4,27.79.62,8.35,2.96,16.22,3.26,23.93.5,13-3.5,16.81-.64,38.08,2.82,21.04,3.35,26.41,1.64,48.79-.05.61-.33,1.77-.6,3.21-.36,1.91-1.03,4.32-.8,6.6.25,2.47.73,4.52.8,6.28.14,3.56-.05,5.88-.42,7.96-1.83,10.28-1.91,19.25,4.44,20.34,7.71,1.32,27.42,1.68,28.35-4.18.84-5.29-6.26-9.08-11.72-23.56-1.62-4.28-.55-6.12.08-8.05,1.21-3.69-.99-4.91-.81-7.83.71-11.69,7.73-21.6,14.43-43.88,3.62-12.06,5.84-25.21,2.8-40.42-1.57-7.83-3.33-11.87-2.57-24.8.59-10,5.13-27.03,13.16-55.42,3.61-12.77,13.28-39.51,14.59-52.03.52-5.05.72-9.68.68-13.96v-.29c-.25-20.13-6-32.14-9.75-41.23-.02-.05-.04-.1-.06-.15-3.91-8.8-5.19-10.84-13.87-22.84-.25-.35-.52-.7-.79-1.05-2.47-6.04-5.34-11.79-6.29-17.62,0,0,0,0,0,0-1.28-15.15-1.16-33.55.06-42.68.13-.52.26-1.04.39-1.55.46,2.29,1.59,7.74,2.05,9.6,2.9,11.66,7.37,25.42,9.13,34.34.02.1.04.19.06.29.18.94.34,1.85.46,2.68.26,1.85,1.31,16.99,7.52,34.36.35.98.7,1.94,1.05,2.88.21.56.4,1.09.59,1.6,5.3,14.19,7.47,19.11,11.23,27.09,2.72,5.77,4.67,10.4,5.03,14.14,0,.1.02.19.03.29,0,.09.03.18.03.27,0,1.68-1.6,5.07-2.19,7.22-.36,1.32-.51,2.6-.54,3.86-.1,2.84.37,5.62.31,8.69-.07,2.65-.55,5.53-2.16,8.85-.05.1-.05.18-.03.26-.18.84,2.5.88,4.12-.92,2.13-2.37,2.76-8.84,2.83-7.64.44,7.89,1.73,9.71,2.53,16.17.11.85.14,1.62.13,2.34-.04,1.97-.38,3.48-.4,4.71-.03.82.08,1.53.5,2.15.99,1.46,1.33,1.33,3.75-1.26,1.7-1.82,2.78-3.52,3.88-4.88,2.12-2.64,3.28-5.24,3.46-10.69.01-.3.02-.59.02-.88.05-3.76-.54-6.87-1.9-12.49-.58-2.4-1.22-3.85-2.03-9.7-.18-1.4-.29-2.61-.39-3.79-.1-.78-.13-1.39-.14-1.86,0-.14,0-.28,0-.4v-.32c0-.55,0-.99-.05-1.42-.35-3.06-1.84-4.02-2.65-9.76-1.54-10.79-2.57-18.84-4-30.04,0-.1-.02-.2-.04-.3-.29-2.29-.6-4.71-.94-7.33-1.19-9.32-5.16-21.02-9.35-33.89-.04-.1-.07-.2-.1-.3-.24-.74-.48-1.48-.73-2.23-.43-1.33-1.34-11.48-1.7-16.81-.43-6.67-4.54-67.76-7.36-76.98-2.1-6.87-4.14-9.63-6.09-10.54h0s-1.59-.9-2.55-1.31c-.98-.42-2.06-.75-3.18-1.05l-29.09-13.37c-.27-.52-.53-1.06-.77-1.64-1.12-2.7-1.57-10.21-1.75-15.34,2.54-2.35,4.5-5.38,5.73-10.41.23-.9.49-1.97.74-3.12.35.12.66.16.95.14,2.01-.18,2.62-3.59,3.07-4.68.57-1.36,1.33-1.49,2.08-4.5.5-2-.37-3.32,0-4.61.24-.87.35-3.32-.75-4.16-.06-.05-.13-.08-.2-.11-.07-.03-.15-.05-.23-.08,1.65-6.27,2.7-16.51-.73-24.35-.55-1.24-1.14-2.39-1.76-3.46-.9-1.55-1.88-2.92-2.89-4.13-.2-.24-.4-.47-.6-.7-.38-.46-.78-.9-1.2-1.34-3.46-3.6-8.25-6.22-13.72-7.31-1.83-.37-3.74-.57-5.7-.57h-.01c-8.52,0-16.06,3.64-20.62,9.22-1.94,2.16-3.77,4.9-5.26,8.29-3,6.86-2.57,15.56-1.31,21.82.18.89.38,1.74.58,2.52-.16.04-.31.09-.43.18-1.1.83-.99,3.29-.75,4.16.36,1.29-.51,2.6,0,4.61.19.75.38,1.32.56,1.78.46,1.14.91,1.56,1.3,2.26.08.14.15.29.22.46.46,1.09,1.06,4.5,3.07,4.68.29.03.6-.01.95-.14.04.17.08.34.11.51.18.82.37,1.59.54,2.27.03.11.06.23.08.34.02.09.05.17.07.26,1.16,4.56,2.93,7.45,5.2,9.7.15.15.3.31.46.46-.18,5.13-.63,12.64-1.75,15.34-.24.58-.5,1.12-.77,1.65l-29.08,13.37c-1.13.3-2.21.64-3.19,1.06-.96.41-2.55,1.3-2.55,1.3h0c-1.95.92-3.99,3.68-6.09,10.55-2.82,9.22-6.93,70.31-7.36,76.98-.36,5.33-1.27,15.48-1.7,16.81-.25.75-.49,1.49-.73,2.23-.03.1-.06.2-.1.3-4.19,12.87-8.16,24.57-9.35,33.89-.34,2.62-.65,5.04-.94,7.33-.02.1-.03.2-.04.3-1.43,11.2-2.46,19.25-4,30.04-.81,5.74-2.3,6.7-2.65,9.76-.05.43-.05.87-.05,1.42h0c0,.06,0,.1,0,.15v.24c0,.93-.04,2.19-.29,4.18-.93,7.4-1.63,8.87-2.27,11.5-1.32,5.45-1.91,8.53-1.9,12.15,0,.09,0,.19,0,.28,0,.03,0,.06,0,.09Z"/>
  </g>
</svg>