<?xml version="1.0" encoding="UTF-8"?>
<svg id="_레이어_2" data-name="레이어 2" xmlns="http://www.w3.org/2000/svg" viewBox="0 0 181.09 571.79">
  <defs>
    <style>
      .cls-1 {
        fill: #f2a7a9;
        stroke: #221714;
        stroke-miterlimit: 10;
      }
    </style>
  </defs>
  <g id="_레이어_1-2" data-name="레이어 1">
    <path class="cls-1" d="m176.72,303.02c-.22-1.6-.33-2.93-.44-4.23-.15-1.14-.15-1.95-.15-2.44,0-.55,0-.99-.05-1.42-.35-3.06-1.84-4.02-2.65-9.76-1.54-10.79-2.64-18.82-3.99-30.02-.01-.11-.02-.21-.04-.32-.29-2.29-.6-4.71-.94-7.33-1.19-9.31-5.15-21.01-9.35-33.87-.04-.11-.07-.22-.11-.32-.24-.74-.48-1.48-.73-2.23-.43-1.33-1.34-11.48-1.7-16.82-.44-6.67-4.54-67.76-7.37-76.97-2.03-6.64-3.99-9.43-5.89-10.43h.1l-.48-.22c-.43-.24-1.6-.87-2.37-1.2-.37-.16-.77-.29-1.17-.43l-31.2-14.34h0c-.23-.46-.46-.94-.67-1.45-1.12-2.7-1.56-10.21-1.75-15.34,2.54-2.35,4.49-5.38,5.73-10.41.22-.9.49-1.97.74-3.12,2.78.98,3.5-3.3,4.02-4.54.57-1.36,1.33-1.49,2.08-4.5.5-2-.37-3.32,0-4.61.24-.87.35-3.32-.75-4.16-.12-.09-.27-.14-.43-.19,1.65-6.26,2.7-16.51-.73-24.34-1.49-3.39-3.32-6.13-5.26-8.29-4.56-5.57-12.1-9.22-20.62-9.22h-.01c-8.52,0-16.06,3.64-20.62,9.22-1.94,2.16-3.77,4.9-5.26,8.29-3.43,7.84-2.38,18.08-.73,24.34-.16.05-.31.09-.43.19-1.1.84-.99,3.29-.75,4.16.36,1.29-.51,2.6-.01,4.61.75,3.01,1.51,3.14,2.08,4.5.52,1.24,1.24,5.52,4.02,4.54.25,1.15.51,2.22.74,3.12,1.26,5.02,3.19,8.06,5.73,10.41-.18,5.13-.63,12.64-1.75,15.34-.21.51-.43.99-.67,1.45l-31.02,14.26c-.46.16-.92.32-1.35.51-.79.34-1.99.99-2.4,1.21l-.45.21h.09c-1.89,1-3.86,3.8-5.89,10.43-2.82,9.21-6.93,70.31-7.36,76.97-.36,5.34-1.26,15.48-1.7,16.82-.23.7-.46,1.39-.68,2.08-.03.1-.06.2-.1.3-4.21,12.93-8.21,24.68-9.4,34.04-.33,2.56-.64,4.94-.92,7.19-.02.1-.03.19-.04.29-1.37,11.29-2.48,19.34-4.02,30.19-.81,5.74-2.3,6.7-2.65,9.76-.05.44-.05.88-.05,1.42,0,.04,0,.24,0,.28,0,.94-.03,2.22-.29,4.29-.93,7.39-1.63,8.86-2.27,11.5-1.45,5.98-2.02,9.1-1.88,13.22.19,5.44,1.34,8.05,3.46,10.69,1.1,1.36,2.18,3.06,3.88,4.88,2.42,2.6,2.76,2.72,3.74,1.26,1.29-1.91-.35-4.5.24-9.21.8-6.46,2.09-8.28,2.53-16.17.07-1.2.69,5.27,2.83,7.64,1.69,1.88,4.55,1.75,4.09.81-4.31-8.9-.54-14.6-2.4-21.41-.6-2.17-2.24-5.61-2.2-7.28,0-.05,0-.1.01-.14,0-.12.03-.25.04-.37.31-3.77,2.28-8.43,5.04-14.28,3.75-7.95,5.83-12.89,11.17-26.95.04-.1.07-.19.11-.29.35-.93.71-1.88,1.08-2.89,6.66-17.98,7.77-33.9,8.03-35.8.11-.77.25-1.63.43-2.52.02-.1.04-.21.06-.31.88-4.46,2.43-10.14,4.13-16.18,1.71-6.05,3.56-12.44,5.02-18.31.42-1.68,1.39-6.36,1.89-8.82.13-.04.25-.04.35,0,1.28,9.16,1.78,28.56-.79,43.46-.94,5.44-2.51,11.92-3.95,19.17-1.7,8.57-3.74,16.95-4.57,22.11,0,.04-.02.09-.02.13-.34,1.92-.69,3.71-1.03,5.32-2.71,8.43-5.83,19.44-5.91,35.86,0,.1,0,.2-.01.3-.01,4.28.13,8.91.55,13.96,1.03,12.52,8.64,39.26,11.49,52.03,6.32,28.39,9.89,45.42,10.36,55.42.6,12.93-.79,16.97-2.02,24.8-2.4,15.21-.65,28.36,2.2,40.42,5.28,22.28,10.81,32.19,11.37,43.88.14,2.92-1.59,4.14-.64,7.83.5,1.93,1.34,3.77.06,8.05-4.3,14.48-9.89,18.27-9.23,23.56.73,5.86,16.26,5.5,22.33,4.18,5-1.09,4.94-10.06,3.49-20.34-.29-2.08-.43-4.4-.32-7.96.05-1.76.42-3.81.62-6.28.18-2.28-.33-4.69-.62-6.6-.22-1.44-.44-2.6-.48-3.21-1.4-22.38-.92-27.75,1.3-48.79,2.24-21.27-.91-25.08-.51-38.08.23-7.71,2.08-15.58,2.57-23.92.62-10.47-.23-20.36-1.11-27.8-2.41-20.57-2.39-23.89-3.17-40.15-.85-17.66,3.61-26.32,1.07-41.55.59.27,2.03.38,3.47.38,1.43,0,2.87-.11,3.46-.38-2.54,15.23,1.92,23.89,1.07,41.55-.78,16.26-.76,19.58-3.17,40.15-.87,7.44-1.73,17.33-1.11,27.8.5,8.34,2.34,16.21,2.57,23.92.4,13-2.75,16.81-.51,38.08,2.23,21.04,2.7,26.41,1.3,48.79-.04.61-.26,1.77-.47,3.21-.28,1.91-.81,4.32-.63,6.6.2,2.47.57,4.52.63,6.28.11,3.56-.04,5.88-.33,7.96-1.44,10.28-1.51,19.25,3.49,20.34,6.08,1.32,21.6,1.68,22.33-4.18.66-5.29-4.93-9.08-9.23-23.56-1.27-4.28-.43-6.12.06-8.05.95-3.69-.78-4.91-.64-7.83.54-11.69,6.1-21.6,11.37-43.88,2.85-12.06,4.6-25.21,2.21-40.42-1.24-7.83-2.63-11.87-2.03-24.8.47-10,4.04-27.03,10.37-55.42,2.84-12.77,10.46-39.51,11.49-52.03.41-5.05.55-9.68.54-13.96,0-.1,0-.2-.01-.3-.08-17.01-3.42-28.2-6.2-36.75-.23-1.09-.46-2.28-.68-3.54,0-.06-.02-.11-.03-.17-.81-4.98-2.87-13.38-4.55-22.09-1.48-7.53-3.06-14.37-4.03-20.05-2.52-14.67-2.21-33.52-.99-42.68.13-.52.26-1.04.39-1.55.47,2.29,1.59,7.74,2.05,9.6,2.9,11.66,7.37,25.42,9.13,34.34.02.1.04.19.06.29.18.94.34,1.85.46,2.68.26,1.85,1.31,16.98,7.52,34.36.35.98.7,1.94,1.05,2.89.21.56.4,1.09.59,1.6,5.3,14.19,7.46,19.11,11.23,27.09,2.72,5.77,4.66,10.4,5.03,14.14,0,.1.02.19.03.29,0,.09.03.2.03.3.09,1.65-1.59,5.15-2.19,7.34-1.86,6.81,1.91,12.51-2.4,21.41-.46.94,2.4,1.07,4.09-.81,2.14-2.37,2.76-8.84,2.83-7.64.44,7.89,1.73,9.71,2.53,16.17.59,4.71-1.06,7.31.23,9.21.98,1.46,1.32,1.33,3.75-1.26,1.7-1.82,2.78-3.52,3.88-4.88,2.12-2.64,3.27-5.24,3.46-10.69.14-4.12-.43-7.24-1.88-13.22-.57-2.34-1.19-3.74-1.97-9.4Z"/>
  </g>
</svg>