<?xml version="1.0" encoding="UTF-8"?>
<svg id="_레이어_2" data-name="레이어 2" xmlns="http://www.w3.org/2000/svg" viewBox="0 0 181.09 571.41">
  <defs>
    <style>
      .cls-1 {
        fill: #f2a7a9;
        stroke: #221714;
        stroke-miterlimit: 10;
      }
    </style>
  </defs>
  <g id="_레이어_1-2" data-name="레이어 1">
    <path class="cls-1" d="m176.87,304.15c-.21-1.38-.36-2.73-.52-4.22-.22-1.71-.22-2.78-.22-3.5,0-.55,0-.99-.05-1.43-.36-3.05-1.84-4.01-2.66-9.76-1.54-10.78-2.6-18.81-3.99-30.01-.01-.11-.03-.22-.04-.33-.29-2.3-.6-4.72-.94-7.33-1.2-9.31-5.15-21-9.35-33.86-.04-.11-.07-.22-.11-.34-.24-.74-.48-1.48-.72-2.23-.43-1.34-1.35-11.48-1.7-16.82-.44-6.67-4.55-67.76-7.37-76.97-2.1-6.88-4.13-9.63-6.09-10.54v-.02s-.13-.07-.33-.18h.63l-35.22-16.19v.24c-.23-.47-.46-.95-.67-1.46-1.11-2.7-1.56-10.21-1.74-15.34,2.54-2.35,4.5-5.38,5.73-10.41.22-.9.49-1.98.74-3.12,2.78.98,3.5-3.3,4.02-4.54.57-1.37,1.33-1.5,2.08-4.5.5-2.01-.37-3.32-.01-4.61.24-.87.35-3.32-.76-4.16-.11-.09-.26-.14-.42-.19,1.65-6.26,2.7-16.5-.73-24.34-1.49-3.39-3.32-6.13-5.26-8.29-4.56-5.58-12.1-9.22-20.62-9.22h-.01c-8.52,0-16.06,3.64-20.62,9.22-1.94,2.16-3.77,4.9-5.26,8.29-3.43,7.84-2.38,18.08-.73,24.34-.16.05-.31.1-.43.19-1.1.83-.99,3.29-.75,4.16.36,1.29-.51,2.6,0,4.61.75,3,1.51,3.13,2.08,4.5.52,1.24,1.24,5.52,4.02,4.54.25,1.14.52,2.22.74,3.12,1.26,5.02,3.19,8.06,5.73,10.41-.18,5.13-.63,12.64-1.75,15.34-.21.51-.43.99-.67,1.45v-.23l-35.22,16.19h.62c-.2.11-.33.18-.33.18v.02c-1.95.91-3.99,3.66-6.09,10.54-2.82,9.21-6.93,70.3-7.36,76.97-.36,5.34-1.26,15.48-1.7,16.82-.22.68-.44,1.34-.66,2.01-.03.1-.06.2-.1.3-4.22,12.96-8.23,24.74-9.42,34.12-.33,2.53-.63,4.88-.91,7.12-.01.1-.02.19-.04.29-1.41,11.33-2.48,19.39-4.03,30.26-.81,5.75-2.3,6.71-2.65,9.76-.05.44-.05.88-.05,1.43v.27c0,.94-.03,2.23-.29,4.3-.93,7.39-1.63,8.86-2.27,11.5-1.45,5.98-2.02,9.1-1.88,13.22.19,5.44,1.34,8.05,3.46,10.69,1.1,1.36,2.18,3.05,3.88,4.88,2.42,2.6,2.76,2.72,3.74,1.26,1.29-1.91-.35-4.5.24-9.21.8-6.46,2.09-8.27,2.53-16.17.07-1.19.69,5.28,2.83,7.65,1.69,1.88,4.55,1.75,4.09.8-4.31-8.89-.54-14.59-2.4-21.4-.6-2.16-2.21-5.56-2.2-7.25,0-.05,0-.09,0-.14,0-.13.03-.28.04-.41.3-3.77,2.28-8.44,5.04-14.28,3.75-7.95,5.87-12.88,11.17-26.95.04-.1.07-.19.11-.29.35-.93.71-1.89,1.08-2.9,6.66-17.98,7.77-33.89,8.03-35.8.11-.77.26-1.62.43-2.51.02-.1.04-.21.06-.31.88-4.46,2.43-10.15,4.13-16.18,1.71-6.05,3.56-12.44,5.02-18.3.44-1.76,1.49-6.84,1.97-9.21.14.23.25.5.37.78.22,7.28-.96,26.32-3.53,42.99-.9,5.85-2.28,11.76-3.64,17.72-1.83,8.02-2.86,14.7-3.31,18.89-.54,1.85-.73,2.82-.73,2.82-.15.47-.32.95-.49,1.43-.02.05-.03.1-.05.14-.03.1-.07.2-.1.3-3.15,9.06-7.98,21.02-8.08,40.93,0,.1-.01.19-.01.29v.3c-.02,4.2.15,8.73.58,13.67,1.1,12.52,9.23,39.26,12.26,52.03,6.75,28.38,10.57,45.41,11.06,55.42.65,12.92-.83,16.97-2.15,24.79-2.56,15.21-.69,28.37,2.35,40.42,5.63,22.28,11.53,32.19,12.13,43.89.15,2.91-1.69,4.13-.68,7.83.53,1.92,1.43,3.76.07,8.04-4.59,14.48-10.56,18.28-9.86,23.57.79,5.86,17.35,5.49,23.84,4.17,5.34-1.09,5.27-10.06,3.73-20.34-.31-2.07-.47-4.4-.35-7.96.06-1.75.46-3.8.67-6.28.19-2.28-.37-4.69-.67-6.59-.23-1.45-.47-2.61-.51-3.21-1.43-22.39-.99-27.76,1.39-48.8,2.39-21.26-.97-25.08-.55-38.08.25-7.7,2.22-15.58,2.75-23.92.66-10.47-.25-20.35-1.18-27.79-2.58-20.57-2.56-23.89-3.39-40.16-.9-17.66,3.85-26.31,1.14-41.54.63.26,2.17.35,3.7.37,1.53.01,3.07-.11,3.7-.37-2.71,15.23,2.04,23.88,1.14,41.54-.83,16.27-.81,19.59-3.39,40.16-.93,7.44-1.84,17.32-1.18,27.79.53,8.34,2.5,16.22,2.75,23.92.42,13-2.94,16.82-.55,38.08,2.37,21.04,2.82,26.41,1.39,48.8-.04.6-.28,1.76-.51,3.21-.3,1.9-.86,4.31-.67,6.59.21,2.48.61,4.53.67,6.28.12,3.56-.04,5.89-.35,7.96-1.54,10.28-1.61,19.25,3.73,20.34,6.48,1.32,23.05,1.69,23.84-4.17.7-5.29-5.27-9.09-9.86-23.57-1.36-4.28-.46-6.12.07-8.04,1.01-3.7-.83-4.92-.68-7.83.6-11.7,6.5-21.61,12.13-43.89,3.04-12.05,4.91-25.21,2.35-40.42-1.32-7.82-2.8-11.87-2.16-24.79.5-10.01,4.32-27.04,11.07-55.42,3.03-12.77,11.16-39.51,12.26-52.03.43-4.94.6-9.47.58-13.67v-.3c0-.1,0-.19-.01-.29-.1-19.91-4.94-31.87-8.08-40.93h-.01c-.04-.1-.07-.2-.11-.3-.02-.04-.03-.09-.05-.14-.16-.48-.33-.96-.48-1.43,0,0-.24-1.19-.93-3.44-.48-3.87-1.4-9.57-2.87-16.31-1.41-6.47-2.88-13.1-3.89-19.68-2.53-16.56-3.82-35.32-3.62-42.61.13-.51.25-1.04.39-1.55.47,2.28,1.59,7.74,2.05,9.59,2.9,11.63,7.35,25.35,9.12,34.28.02.1.04.19.06.29.19.97.35,1.91.47,2.75.26,1.83,1.28,16.57,7.27,33.64.34.97.69,1.93,1.04,2.89.29.78.56,1.53.83,2.25,5.28,14.27,7.49,19.17,11.26,27.17,2.7,5.73,4.65,10.34,5.02,14.07,0,.1.02.19.03.28,0,.12.03.25.03.37.09,1.65-1.59,5.15-2.19,7.35-1.87,6.81,1.91,12.51-2.4,21.4-.46.95,2.39,1.08,4.09-.8,2.13-2.37,2.76-8.84,2.83-7.65.44,7.9,1.73,9.71,2.53,16.17.59,4.71-1.06,7.31.23,9.21.99,1.46,1.33,1.34,3.75-1.26,1.7-1.83,2.78-3.52,3.87-4.88,2.13-2.64,3.28-5.25,3.47-10.69.14-4.12-.43-7.24-1.88-13.22-.53-2.19-1.11-3.56-1.82-8.35Z"/>
  </g>
</svg>