<?xml version="1.0" encoding="UTF-8"?>
<svg id="_레이어_2" data-name="레이어 2" xmlns="http://www.w3.org/2000/svg" viewBox="0 0 181.09 571.56">
  <defs>
    <style>
      .cls-1 {
        fill: #f2a7a9;
        stroke: #221714;
        stroke-miterlimit: 10;
      }
    </style>
  </defs>
  <g id="_레이어_1-2" data-name="레이어 1">
    <path class="cls-1" d="m176.87,304.14c-.21-1.38-.36-2.72-.52-4.22-.22-1.71-.22-2.78-.22-3.5,0-.55,0-.99-.05-1.43-.36-3.05-1.84-4.01-2.66-9.76-1.54-10.78-2.59-18.81-3.99-30.01-.01-.11-.03-.22-.04-.33-.29-2.3-.6-4.72-.94-7.33-1.2-9.31-5.15-21-9.35-33.85-.04-.11-.07-.22-.11-.34-.24-.74-.48-1.48-.72-2.23-.43-1.34-1.35-11.48-1.7-16.82-.44-6.67-4.55-67.76-7.37-76.97-2.1-6.88-4.13-9.63-6.09-10.54v-.02s-.08-.04-.19-.1h.49l-35.22-16.19v.16c-.23-.47-.46-.95-.67-1.46-1.11-2.7-1.56-10.21-1.74-15.34,2.54-2.35,4.5-5.38,5.73-10.41.22-.9.49-1.98.74-3.12,2.78.98,3.5-3.3,4.02-4.54.57-1.37,1.33-1.5,2.08-4.5.5-2.01-.37-3.32,0-4.61.24-.87.35-3.32-.76-4.16-.11-.09-.26-.14-.42-.19,1.65-6.26,2.7-16.5-.73-24.34-1.49-3.39-3.32-6.13-5.26-8.29-4.56-5.58-12.09-9.22-20.62-9.22h-.01c-8.52,0-16.06,3.64-20.62,9.22-1.94,2.16-3.77,4.9-5.26,8.29-3.43,7.84-2.38,18.08-.73,24.34-.16.05-.31.1-.43.19-1.1.83-.99,3.29-.75,4.16.36,1.29-.51,2.6,0,4.61.75,3,1.51,3.13,2.08,4.5.52,1.24,1.24,5.52,4.02,4.54.25,1.14.51,2.22.74,3.12,1.26,5.02,3.19,8.06,5.73,10.41-.18,5.13-.63,12.64-1.75,15.34-.21.51-.44.99-.67,1.45v-.15l-35.22,16.19h.48c-.11.06-.19.1-.19.1v.02c-1.95.91-3.99,3.66-6.09,10.54-2.82,9.21-6.93,70.3-7.36,76.97-.36,5.34-1.26,15.48-1.7,16.82-.22.68-.44,1.34-.66,2.01-.03.1-.06.2-.1.3-4.22,12.96-8.23,24.74-9.42,34.12-.33,2.53-.63,4.88-.91,7.12-.01.1-.02.19-.04.29-1.4,11.33-2.48,19.39-4.03,30.26-.81,5.75-2.3,6.71-2.65,9.76-.05.44-.05.88-.05,1.43,0,.06,0,.2,0,.27,0,.94-.03,2.23-.29,4.3-.93,7.39-1.63,8.86-2.27,11.5-1.45,5.98-2.02,9.1-1.88,13.22.19,5.44,1.34,8.05,3.46,10.69,1.1,1.36,2.18,3.05,3.88,4.88,2.42,2.6,2.76,2.72,3.74,1.26,1.29-1.91-.35-4.5.24-9.21.8-6.46,2.09-8.27,2.53-16.17.07-1.19.69,5.28,2.83,7.65,1.69,1.88,4.55,1.75,4.09.8-4.31-8.89-.54-14.59-2.4-21.4-.6-2.16-2.21-5.56-2.2-7.25,0-.05,0-.09,0-.14.01-.13.04-.28.05-.41.31-3.77,2.28-8.44,5.04-14.28,3.75-7.95,5.87-12.88,11.17-26.95.04-.1.07-.19.11-.29.35-.93.71-1.89,1.08-2.9,6.66-17.98,7.77-33.89,8.03-35.8.11-.77.26-1.62.43-2.51.02-.1.04-.21.06-.31.88-4.46,2.43-10.15,4.13-16.18,1.71-6.05,3.56-12.44,5.02-18.3.44-1.76,1.49-6.84,1.97-9.21.14.23.25.5.37.78.22,7.28-.95,26.32-3.52,42.99-.9,5.81-2.41,11.67-3.79,17.57-1.12,4.79-1.95,9.19-2.63,12.89-2.72,5.72-4.31,9.53-4.77,10.55-.07.15-.12.27-.12.29-3.35,9.08-8.54,21.06-8.65,41.08,0,.1,0,.19,0,.29v.15c-.03,4.24.15,8.82.61,13.82,1.17,12.52,9.82,39.25,13.04,52.02,7.18,28.39,11.23,45.42,11.76,55.43.68,12.92-.89,16.96-2.29,24.79-2.73,15.21-.74,28.37,2.5,40.42,5.98,22.28,12.26,32.19,12.9,43.89.15,2.91-1.82,4.13-.73,7.83.57,1.92,1.52,3.76.07,8.04-4.88,14.48-11.22,18.28-10.47,23.57.83,5.86,18.44,5.49,25.34,4.17,5.67-1.09,5.6-10.06,3.96-20.34-.33-2.08-.5-4.4-.37-7.96.06-1.75.49-3.8.71-6.28.21-2.28-.39-4.69-.71-6.59-.24-1.45-.5-2.61-.54-3.22-1.52-22.38-1.05-27.75,1.47-48.79,2.55-21.26-1.02-25.08-.57-38.08.26-7.71,2.35-15.58,2.91-23.92.71-10.47-.26-20.35-1.25-27.79-2.74-20.58-2.72-23.9-3.61-40.16-.95-17.66,4.11-26.31,1.22-41.54.67.26,2.31.36,3.93.37,1.63.02,3.27-.11,3.94-.37-2.89,15.23,2.17,23.88,1.21,41.54-.88,16.26-.87,19.58-3.6,40.16-.99,7.44-1.96,17.32-1.26,27.79.56,8.34,2.65,16.21,2.92,23.92.45,13-3.12,16.82-.58,38.08,2.53,21.04,3.16,26.42,1.48,48.79-.05.61-.3,1.77-.54,3.22-.32,1.9-.93,4.31-.72,6.59.22,2.48.65,4.53.72,6.28.13,3.56-.04,5.88-.37,7.96-1.64,10.28-1.72,19.25,3.96,20.34,6.89,1.32,24.51,1.69,25.34-4.17.75-5.29-5.6-9.09-10.48-23.57-1.44-4.28-.48-6.12.08-8.04,1.08-3.7-.89-4.92-.73-7.83.64-11.7,6.91-21.61,12.9-43.89,3.24-12.05,5.22-25.21,2.5-40.42-1.4-7.83-2.97-11.87-2.29-24.79.52-10.01,4.58-27.04,11.76-55.43,3.22-12.77,11.87-39.5,13.04-52.02.46-5,.64-9.58.61-13.82v-.15c0-.1,0-.19-.01-.29-.1-20.02-5.3-32-8.65-41.08,0-.02-.05-.14-.12-.29-.48-1.05-2.17-5.13-5.08-11.21-.57-2.98-1.22-6.39-2.05-10.08-1.45-6.46-3.05-13.11-4.06-19.72-2.53-16.56-3.82-35.32-3.62-42.61.13-.51.25-1.04.39-1.55.47,2.28,1.59,7.74,2.05,9.59,2.9,11.63,7.35,25.35,9.12,34.28.02.1.04.19.06.29.19.97.35,1.91.47,2.75.26,1.83,1.28,16.57,7.27,33.64.34.97.69,1.93,1.04,2.88.29.78.56,1.53.83,2.25,5.28,14.27,7.49,19.17,11.26,27.17,2.7,5.73,4.65,10.34,5.02,14.07,0,.1.02.19.03.28.01.12.04.25.04.37.09,1.65-1.59,5.15-2.19,7.35-1.87,6.81,1.91,12.51-2.4,21.4-.46.95,2.39,1.08,4.09-.8,2.13-2.37,2.76-8.84,2.83-7.65.44,7.9,1.73,9.71,2.53,16.17.59,4.71-1.06,7.31.23,9.21.99,1.46,1.33,1.34,3.75-1.26,1.7-1.83,2.78-3.52,3.87-4.88,2.13-2.64,3.28-5.25,3.47-10.69.14-4.12-.43-7.24-1.88-13.22-.53-2.19-1.11-3.56-1.82-8.35Z"/>
  </g>
</svg>