<?xml version="1.0" encoding="UTF-8"?>
<svg id="_레이어_2" data-name="레이어 2" xmlns="http://www.w3.org/2000/svg" viewBox="0 0 181.09 571.71">
  <defs>
    <style>
      .cls-1 {
        fill: #f2a7a9;
        stroke: #221714;
        stroke-miterlimit: 10;
      }
    </style>
  </defs>
  <g id="_레이어_1-2" data-name="레이어 1">
    <path class="cls-1" d="m3.98,336.25c1.1,1.36,2.19,3.06,3.89,4.88,2.42,2.6,2.76,2.73,3.74,1.27,1.29-1.91-.36-4.5.24-9.21.8-6.46,2.11-8.28,2.53-16.17.06-1.2.69,5.27,2.83,7.64,1.69,1.88,4.54,1.75,4.09.81-4.32-8.9-.53-14.6-2.4-21.41-.6-2.19-2.26-5.65-2.21-7.31,0-.05.02-.1.02-.15.02-.11.02-.23.04-.34.31-3.77,2.27-8.43,5.04-14.28,3.75-7.95,5.78-12.91,11.17-26.94.04-.1.06-.19.11-.3.35-.92.7-1.88,1.08-2.89,6.66-17.98,7.75-33.9,8.02-35.8.11-.78.26-1.63.44-2.52.02-.1.04-.2.06-.3.88-4.45,2.42-10.14,4.12-16.17,1.71-6.05,3.58-12.44,5.03-18.31.39-1.59,1.29-5.89,1.81-8.44.13-.32.24-.58.34-.77,2.34,11.03,3.39,31.04.44,43.92-1.15,5.7-4,11.54-6.72,18.7-1.21,3.19-2.25,6.27-3.17,9.06-3.11,7.57-4.99,13.15-5.14,13.53-.02.05-.04.1-.05.15-3.37,9.12-8.49,21.17-8.66,41.37v.15c-.03,4.24.15,8.82.61,13.82,1.17,12.51,9.82,39.25,13.04,52.02,7.18,28.39,11.23,45.42,11.76,55.43.68,12.92-.89,16.96-2.29,24.79-2.73,15.21-.74,28.37,2.5,40.42,5.98,22.28,12.26,32.19,12.9,43.89.15,2.91-1.82,4.13-.73,7.83.57,1.92,1.52,3.76.07,8.04-4.88,14.48-11.22,18.28-10.47,23.57.83,5.86,18.44,5.49,25.34,4.17,5.67-1.09,5.6-10.06,3.96-20.34-.33-2.08-.5-4.4-.37-7.96.06-1.75.49-3.8.71-6.28.21-2.28-.39-4.69-.71-6.59-.24-1.45-.5-2.61-.54-3.22-1.52-22.38-1.05-27.75,1.47-48.79,2.55-21.26-1.02-25.08-.57-38.08.26-7.71,2.35-15.58,2.91-23.92.71-10.47-.26-20.35-1.25-27.8-2.74-20.57-2.72-23.89-3.61-40.15-.95-17.66,4.11-26.31,1.22-41.54.67.26,2.31.36,3.93.37,1.63.02,3.27-.11,3.94-.37-2.89,15.23,2.17,23.88,1.21,41.54-.88,16.26-.87,19.58-3.6,40.15-.99,7.45-1.96,17.33-1.26,27.8.56,8.34,2.65,16.21,2.92,23.92.45,13-3.12,16.82-.58,38.08,2.53,21.04,3.16,26.42,1.48,48.79-.05.61-.3,1.77-.54,3.22-.32,1.9-.93,4.31-.72,6.59.22,2.48.65,4.53.72,6.28.13,3.56-.04,5.88-.37,7.96-1.64,10.28-1.72,19.25,3.96,20.34,6.89,1.32,24.51,1.69,25.34-4.17.75-5.29-5.6-9.09-10.48-23.57-1.44-4.28-.48-6.12.08-8.04,1.08-3.7-.89-4.92-.73-7.83.64-11.7,6.91-21.61,12.9-43.89,3.24-12.05,5.22-25.21,2.5-40.42-1.4-7.83-2.97-11.87-2.29-24.79.52-10.01,4.58-27.04,11.76-55.43,3.22-12.77,11.87-39.51,13.04-52.02.46-5,.64-9.58.61-13.82v-.15c-.17-20.2-5.29-32.25-8.66-41.37,0-.05-.03-.1-.05-.15-.16-.41-2.3-6.76-5.81-15.12-.74-2.18-1.54-4.51-2.44-6.9-2.75-7.3-5.61-13.36-6.79-19.27-2.84-12.55-2.03-31.7.16-42.76.13-.52.26-1.04.39-1.55.46,2.29,1.59,7.75,2.05,9.6,2.91,11.69,7.39,25.49,9.14,34.41.02.1.04.2.06.3.18.92.33,1.8.44,2.6.26,1.88,1.34,17.4,7.77,35.08.36,1,.72,1.95,1.07,2.89.12.33.23.64.35.95,5.28,14.14,7.44,19.05,11.2,27.02,2.74,5.81,4.68,10.45,5.03,14.21,0,.1.02.2.03.29.01.07.02.15.02.22.08,1.64-1.59,5.14-2.2,7.34-1.86,6.81,1.91,12.51-2.4,21.41-.46.94,2.4,1.07,4.09-.81,2.14-2.37,2.76-8.84,2.83-7.64.44,7.89,1.73,9.71,2.53,16.17.59,4.71-1.05,7.3.24,9.21.98,1.46,1.32,1.33,3.74-1.27,1.7-1.82,2.78-3.52,3.88-4.88,2.12-2.64,3.27-5.24,3.46-10.69.14-4.11-.43-7.24-1.88-13.22-.6-2.48-1.26-3.92-2.12-10.45-.24-1.83-.31-3.13-.37-4.25-.07-.57-.07-1.12-.07-1.37,0-.55,0-.99-.05-1.42-.35-3.06-1.84-4.02-2.65-9.76-1.54-10.79-2.67-18.82-4-30.03-.01-.1-.02-.21-.04-.31-.29-2.29-.6-4.71-.94-7.33-1.19-9.32-5.16-21.01-9.35-33.88-.04-.1-.07-.21-.1-.31-.23-.74-.48-1.48-.73-2.23-.43-1.33-1.34-11.48-1.7-16.81-.43-6.67-4.54-67.76-7.36-76.98-2.1-6.87-4.14-9.63-6.09-10.54h0s.3,0,.3,0l-2.19-1.01c-.23-.11-.46-.22-.66-.3,0,0-.02,0-.03-.01l-32.34-14.87v.19c-.23-.46-.46-.94-.67-1.45-1.12-2.7-1.57-10.21-1.75-15.34,2.54-2.35,4.48-5.38,5.73-10.41.22-.9.49-1.97.74-3.12,2.78.98,3.5-3.3,4.02-4.54.57-1.36,1.33-1.49,2.08-4.5.5-2-.37-3.32-.01-4.61.24-.87.35-3.32-.75-4.16-.12-.09-.27-.14-.43-.18,1.65-6.27,2.7-16.51-.73-24.35-1.49-3.39-3.32-6.12-5.26-8.29-4.56-5.57-12.1-9.22-20.62-9.22s-16.07,3.65-20.63,9.22c-1.94,2.17-3.77,4.9-5.25,8.29-3.44,7.84-2.38,18.08-.73,24.35-.17.04-.31.09-.44.18-1.1.84-.99,3.29-.75,4.16.36,1.29-.5,2.61,0,4.61.75,3.01,1.5,3.14,2.08,4.5.52,1.24,1.24,5.52,4.02,4.54.25,1.15.51,2.22.74,3.12,1.26,5.02,3.18,8.06,5.73,10.41-.18,5.13-.63,12.64-1.75,15.34-.21.51-.44.99-.67,1.46v-.19l-32.33,14.86s-.03.01-.05.02c-.21.09-.45.2-.7.32l-2.15.99h.3c-1.96.91-4,3.67-6.09,10.54-2.82,9.22-6.93,70.31-7.37,76.98-.35,5.33-1.26,15.48-1.69,16.81-.24.73-.48,1.44-.71,2.16-.03.1-.06.2-.1.3-4.2,12.9-8.18,24.63-9.38,33.96-.34,2.59-.64,4.99-.93,7.26-.02.1-.04.2-.04.3-1.45,11.24-2.47,19.3-4.01,30.11-.81,5.74-2.27,6.71-2.65,9.76-.05.43-.06.87-.06,1.42v.29c0,.94-.03,2.22-.29,4.28-.94,7.4-1.63,8.87-2.27,11.5-1.46,5.98-2.01,9.11-1.88,13.22.19,5.45,1.34,8.06,3.46,10.69Z"/>
  </g>
</svg>