<?xml version="1.0" encoding="UTF-8"?>
<svg id="_레이어_2" data-name="레이어 2" xmlns="http://www.w3.org/2000/svg" viewBox="0 0 181.09 571.64">
  <defs>
    <style>
      .cls-1 {
        fill: #f2a7a9;
        stroke: #221714;
        stroke-miterlimit: 10;
      }
    </style>
  </defs>
  <g id="_레이어_1-2" data-name="레이어 1">
    <path class="cls-1" d="m169.48,342.47c.98,1.46,1.33,1.33,3.75-1.26,1.7-1.82,2.78-3.52,3.88-4.88,2.12-2.64,3.27-5.24,3.46-10.69.14-4.12-.43-7.24-1.88-13.22-.57-2.34-1.19-3.74-1.97-9.4-.22-1.6-.33-2.93-.44-4.24-.15-1.14-.15-1.95-.15-2.44,0-.55,0-.99-.05-1.42-.36-3.06-1.84-4.02-2.66-9.76-1.54-10.79-2.63-18.82-3.99-30.02-.01-.11-.02-.21-.04-.32-.29-2.29-.6-4.71-.94-7.33-1.19-9.31-5.15-21.01-9.35-33.87-.04-.11-.07-.22-.11-.32-.24-.74-.48-1.48-.72-2.23-.43-1.34-1.35-11.48-1.7-16.82-.44-6.67-4.54-67.76-7.36-76.97-2.08-6.8-4.09-9.57-6.03-10.51h.24l-1.44-.66c-.47-.25-1-.51-1.41-.69-.12-.05-.26-.09-.39-.14l-31.98-14.7v.08c-.23-.46-.46-.94-.67-1.46-1.11-2.7-1.56-10.21-1.75-15.34,2.54-2.35,4.49-5.38,5.73-10.41.22-.9.49-1.97.74-3.12,2.78.98,3.5-3.3,4.02-4.54.57-1.36,1.33-1.49,2.08-4.5.5-2-.37-3.32-.01-4.61.24-.87.35-3.32-.75-4.16-.12-.09-.27-.14-.42-.19,1.65-6.26,2.7-16.51-.73-24.34-1.49-3.39-3.32-6.13-5.26-8.29-4.56-5.58-12.1-9.22-20.62-9.22s-16.06,3.64-20.62,9.22c-1.94,2.16-3.77,4.9-5.25,8.29-3.44,7.84-2.38,18.08-.73,24.34-.16.05-.31.1-.43.19-1.1.84-.99,3.29-.75,4.16.36,1.29-.51,2.6,0,4.61.75,3.01,1.51,3.14,2.08,4.5.52,1.24,1.24,5.52,4.02,4.54.25,1.15.51,2.22.74,3.12,1.26,5.02,3.19,8.06,5.73,10.41-.18,5.13-.63,12.64-1.75,15.34-.21.51-.44.99-.67,1.45v-.08l-31.79,14.61c-.2.08-.4.15-.58.23-.42.18-.96.45-1.43.7l-1.41.65h.24c-1.94.94-3.96,3.7-6.03,10.51-2.82,9.21-6.93,70.31-7.36,76.97-.35,5.34-1.26,15.48-1.7,16.82-.23.7-.46,1.39-.68,2.08-.03.1-.06.2-.1.3-4.21,12.93-8.21,24.68-9.4,34.04-.33,2.56-.64,4.94-.92,7.19-.02.1-.03.19-.04.29-1.45,11.28-2.48,19.34-4.02,30.19-.81,5.74-2.28,6.71-2.65,9.76-.05.44-.05.88-.05,1.42,0,.04,0,.24,0,.28,0,.94-.03,2.22-.29,4.29-.93,7.39-1.62,8.86-2.27,11.5-1.44,5.98-2.02,9.1-1.88,13.22.19,5.44,1.34,8.06,3.46,10.69,1.1,1.36,2.19,3.06,3.88,4.88,2.42,2.6,2.76,2.72,3.74,1.26,1.29-1.91-.35-4.5.24-9.21.8-6.46,2.11-8.28,2.53-16.17.06-1.19.69,5.27,2.83,7.64,1.69,1.88,4.54,1.75,4.09.81-4.31-8.9-.53-14.6-2.4-21.41-.6-2.17-2.24-5.61-2.21-7.28,0-.05.01-.1.01-.14.02-.12.03-.25.04-.37.31-3.77,2.28-8.43,5.04-14.28,3.75-7.95,5.82-12.89,11.17-26.95.04-.1.07-.19.11-.3.35-.92.71-1.88,1.08-2.89,6.66-17.98,7.76-33.9,8.03-35.8.11-.77.26-1.63.43-2.52.02-.1.04-.21.06-.31.88-4.45,2.42-10.14,4.13-16.18,1.71-6.05,3.56-12.44,5.02-18.31.41-1.68,1.39-6.36,1.89-8.82.13-.04.25-.04.35,0,1.28,9.16,1.02,28.73-1.79,43.46-1.05,5.87-3.28,11.82-5.28,18.48-.98,3.26-1.77,6.39-2.49,9.22-3.11,7.56-4.98,13.13-5.13,13.51-.02.05-.04.1-.05.15-3.37,9.12-8.49,21.17-8.66,41.37v.15c-.03,4.24.15,8.82.61,13.82,1.17,12.51,9.82,39.25,13.04,52.02,7.18,28.39,11.23,45.42,11.76,55.43.68,12.92-.89,16.96-2.29,24.79-2.73,15.21-.74,28.37,2.5,40.42,5.98,22.28,12.26,32.19,12.9,43.89.15,2.91-1.82,4.13-.73,7.83.57,1.92,1.52,3.76.07,8.04-4.88,14.48-11.22,18.28-10.47,23.57.83,5.86,18.44,5.49,25.34,4.17,5.67-1.09,5.6-10.06,3.96-20.34-.33-2.08-.5-4.4-.37-7.96.06-1.75.49-3.8.71-6.28.21-2.28-.39-4.69-.71-6.59-.24-1.45-.5-2.61-.54-3.22-1.52-22.38-1.05-27.75,1.47-48.79,2.55-21.26-1.02-25.08-.57-38.08.26-7.71,2.35-15.58,2.91-23.92.71-10.47-.26-20.35-1.25-27.8-2.74-20.57-2.72-23.89-3.61-40.15-.95-17.66,4.11-26.31,1.22-41.54.67.26,2.31.36,3.93.37,1.63.01,3.27-.11,3.94-.37-2.89,15.23,2.17,23.88,1.21,41.54-.88,16.26-.87,19.58-3.6,40.15-.99,7.45-1.96,17.33-1.26,27.8.56,8.34,2.65,16.21,2.92,23.92.45,13-3.12,16.82-.58,38.08,2.53,21.04,3.16,26.42,1.48,48.79-.05.61-.3,1.77-.54,3.22-.32,1.9-.93,4.31-.72,6.59.22,2.48.65,4.53.72,6.28.13,3.56-.04,5.88-.37,7.96-1.64,10.28-1.72,19.25,3.96,20.34,6.89,1.32,24.51,1.69,25.34-4.17.75-5.29-5.6-9.09-10.48-23.57-1.44-4.28-.48-6.12.08-8.04,1.08-3.7-.89-4.92-.73-7.83.64-11.7,6.91-21.61,12.9-43.89,3.24-12.05,5.22-25.21,2.5-40.42-1.4-7.83-2.97-11.87-2.29-24.79.52-10.01,4.58-27.04,11.76-55.43,3.22-12.77,11.87-39.51,13.04-52.02.46-5,.64-9.58.61-13.82v-.15c-.17-20.2-5.29-32.25-8.66-41.37-.01-.05-.03-.1-.05-.15-.16-.4-2.21-6.48-5.58-14.57-.58-2.21-1.19-4.58-1.91-7.03-2.05-6.95-4.3-13.32-5.42-19.62-2.75-14.51-3.16-33.51-1.98-42.68.13-.52.26-1.04.39-1.55.47,2.29,1.59,7.74,2.05,9.6,2.9,11.66,7.37,25.42,9.13,34.34.02.1.04.19.06.29.18.94.34,1.85.46,2.68.26,1.85,1.31,16.98,7.52,34.36.35.98.7,1.94,1.06,2.89.21.56.4,1.09.59,1.6,5.3,14.19,7.46,19.11,11.23,27.09,2.72,5.77,4.67,10.4,5.03,14.14,0,.1.02.19.03.29.01.09.03.2.03.3.09,1.65-1.59,5.15-2.19,7.34-1.87,6.81,1.91,12.51-2.4,21.41-.46.94,2.4,1.07,4.09-.81,2.14-2.37,2.76-8.84,2.83-7.64.44,7.89,1.73,9.71,2.53,16.17.59,4.71-1.06,7.31.23,9.21Z"/>
  </g>
</svg>