<?xml version="1.0" encoding="UTF-8"?>
<svg id="_레이어_2" data-name="레이어 2" xmlns="http://www.w3.org/2000/svg" viewBox="0 0 181.09 571.79">
  <defs>
    <style>
      .cls-1 {
        fill: #f2a7a9;
        stroke: #221714;
        stroke-miterlimit: 10;
      }
    </style>
  </defs>
  <g id="_레이어_1-2" data-name="레이어 1">
    <path class="cls-1" d="m3.98,336.18c1.11,1.36,2.19,3.06,3.89,4.88,2.42,2.6,2.76,2.73,3.74,1.27,1.29-1.91-.36-4.5.24-9.21.8-6.46,2.11-8.28,2.53-16.17.06-1.2.69,5.27,2.83,7.64,1.69,1.88,4.54,1.75,4.09.81-4.32-8.9-.55-14.6-2.4-21.41-.61-2.2-2.28-5.7-2.21-7.34,0-.05.02-.1.02-.15.02-.1.02-.2.04-.3.31-3.77,2.27-8.43,5.04-14.28,3.75-7.95,5.9-12.86,11.17-26.94.04-.1.06-.19.11-.3.35-.92.7-1.88,1.08-2.89,6.66-17.98,7.77-33.9,8.02-35.8.12-.78.27-1.64.44-2.53.02-.1.04-.2.06-.3,1.73-8.92,6.23-22.76,9.15-34.48.45-1.85,1.58-7.31,2.05-9.6,3.4,12.9,5.75,33.36,2.68,44.38-1.25,5.53-4.68,11.29-8.17,18.92-5.38,11.74-8.81,21.92-9.01,22.45-.02.05-.04.1-.05.15-3.37,9.12-8.49,21.17-8.66,41.37v.15c-.03,4.24.15,8.82.61,13.82,1.17,12.51,9.82,39.25,13.04,52.02,7.18,28.39,11.23,45.42,11.76,55.43.68,12.92-.89,16.96-2.29,24.79-2.73,15.21-.74,28.37,2.5,40.42,5.98,22.28,12.26,32.19,12.9,43.89.15,2.91-1.81,4.13-.73,7.83.57,1.92,1.52,3.76.07,8.04-4.88,14.48-11.22,18.28-10.47,23.57.83,5.86,18.44,5.49,25.34,4.17,5.67-1.09,5.6-10.06,3.96-20.34-.33-2.08-.5-4.4-.37-7.96.06-1.75.49-3.8.71-6.28.21-2.28-.39-4.69-.71-6.59-.24-1.45-.5-2.61-.54-3.22-1.52-22.38-1.05-27.75,1.47-48.79,2.55-21.26-1.02-25.08-.57-38.08.26-7.71,2.35-15.58,2.91-23.92.71-10.47-.26-20.35-1.25-27.8-2.74-20.57-2.72-23.89-3.61-40.15-.95-17.66,4.11-26.31,1.22-41.54.67.26,2.31.36,3.93.37,1.63.02,3.27-.11,3.94-.37-2.89,15.23,2.17,23.88,1.21,41.54-.88,16.26-.87,19.58-3.6,40.15-.99,7.45-1.96,17.33-1.26,27.8.56,8.34,2.65,16.21,2.92,23.92.45,13-3.12,16.82-.58,38.08,2.53,21.04,3,26.41,1.48,48.79-.05.61-.3,1.77-.54,3.22-.32,1.9-.92,4.31-.72,6.59.23,2.48.65,4.53.72,6.28.13,3.56-.04,5.88-.37,7.96-1.64,10.28-1.72,19.25,3.96,20.34,6.89,1.32,24.51,1.69,25.34-4.17.75-5.29-5.6-9.09-10.48-23.57-1.44-4.28-.49-6.12.08-8.04,1.07-3.7-.89-4.92-.73-7.83.64-11.7,6.91-21.61,12.9-43.89,3.24-12.05,5.22-25.21,2.5-40.42-1.4-7.83-2.97-11.87-2.29-24.79.52-10.01,4.58-27.04,11.76-55.43,3.22-12.77,11.87-39.51,13.04-52.02.46-5,.64-9.58.61-13.82v-.15c-.17-20.2-5.29-32.25-8.66-41.37,0-.05-.03-.1-.05-.15-.2-.53-3.64-10.71-9.01-22.45-3.5-7.63-6.92-13.39-8.17-18.92-3.06-11.02-.72-31.48,2.69-44.38.46,2.29,1.59,7.75,2.05,9.6,2.92,11.72,7.41,25.56,9.15,34.48.02.1.04.2.06.3.17.89.32,1.75.43,2.53.26,1.9,1.37,17.82,8.03,35.8.37,1.01.73,1.97,1.08,2.89.04.11.07.2.11.3,5.26,14.08,7.42,18.99,11.17,26.94,2.76,5.85,4.73,10.51,5.04,14.28,0,.1.02.2.03.3.01.05.02.1.02.15.08,1.64-1.59,5.14-2.2,7.34-1.86,6.81,1.91,12.51-2.4,21.41-.46.94,2.4,1.07,4.09-.81,2.14-2.37,2.76-8.84,2.83-7.64.42,7.89,1.73,9.71,2.53,16.17.59,4.71-1.05,7.3.24,9.21.98,1.46,1.32,1.33,3.74-1.27,1.7-1.82,2.78-3.52,3.88-4.88,2.12-2.64,3.27-5.24,3.46-10.69.14-4.11-.43-7.24-1.88-13.22-.64-2.63-1.34-4.1-2.27-11.5-.26-2.05-.28-3.33-.29-4.27v-.3c0-.55,0-.99-.05-1.42-.35-3.06-1.84-4.02-2.65-9.76-1.54-10.79-2.57-18.84-4-30.04-.01-.1-.02-.2-.04-.3-.29-2.29-.6-4.71-.94-7.33-1.19-9.32-5.16-21.02-9.35-33.89-.04-.1-.07-.2-.1-.3-.24-.74-.48-1.48-.73-2.23-.43-1.33-1.34-11.48-1.7-16.81-.43-6.67-4.54-67.76-7.36-76.98-2.02-6.61-3.98-9.41-5.86-10.42h.07l-.37-.17c-.32-.18-1.64-.9-2.48-1.26-.41-.17-.85-.32-1.28-.47l-31.09-14.29v.14c-.23-.46-.46-.94-.67-1.45-1.12-2.7-1.57-10.21-1.75-15.34,2.54-2.35,4.5-5.38,5.73-10.41.23-.9.49-1.97.74-3.12,2.78.98,3.5-3.3,4.02-4.54.57-1.36,1.33-1.49,2.08-4.5.5-2-.37-3.32-.01-4.61.24-.87.35-3.32-.75-4.16-.12-.09-.27-.14-.43-.18,1.65-6.27,2.7-16.51-.73-24.35-1.49-3.39-3.32-6.12-5.26-8.29-4.56-5.57-12.1-9.22-20.62-9.22s-16.07,3.65-20.63,9.22c-1.94,2.17-3.77,4.9-5.25,8.29-3.44,7.84-2.38,18.08-.73,24.35-.17.04-.31.09-.44.18-1.1.84-.98,3.29-.75,4.16.37,1.29-.5,2.61,0,4.61.75,3.01,1.5,3.14,2.08,4.5.52,1.24,1.24,5.52,4.02,4.54.25,1.15.51,2.22.74,3.12,1.23,5.03,3.18,8.06,5.73,10.41-.18,5.13-.63,12.64-1.75,15.34-.21.51-.44.99-.68,1.46v-.15l-31.1,14.29c-.43.15-.87.29-1.28.47-.81.35-2.06,1.04-2.43,1.24l-.41.19h.08c-1.89,1.02-3.85,3.82-5.86,10.42-2.82,9.22-6.93,70.31-7.37,76.98-.35,5.33-1.27,15.48-1.69,16.81-.25.75-.49,1.49-.73,2.23-.03.1-.06.2-.1.3-4.19,12.87-8.16,24.57-9.35,33.89-.34,2.62-.65,5.04-.94,7.33-.02.1-.04.2-.04.3-1.44,11.2-2.46,19.25-4,30.04-.81,5.74-2.3,6.7-2.65,9.76-.06.43-.06.87-.06,1.42v.3c0,.94-.02,2.22-.29,4.27-.92,7.4-1.62,8.87-2.27,11.5-1.44,5.98-2.01,9.11-1.88,13.22.19,5.45,1.35,8.05,3.46,10.69Z"/>
  </g>
</svg>