<?xml version="1.0" encoding="UTF-8"?>
<svg id="_레이어_2" data-name="레이어 2" xmlns="http://www.w3.org/2000/svg" viewBox="0 0 181.09 571.86">
  <defs>
    <style>
      .cls-1 {
        fill: #f2a7a9;
        stroke: #221714;
        stroke-miterlimit: 10;
      }
    </style>
  </defs>
  <g id="_레이어_1-2" data-name="레이어 1">
    <path class="cls-1" d="m3.98,336.25c1.1,1.36,2.18,3.06,3.88,4.88,2.42,2.6,2.76,2.73,3.74,1.27,1.29-1.91-.35-4.5.24-9.21.8-6.46,2.09-8.28,2.53-16.17.07-1.2.69,5.27,2.83,7.64,1.69,1.88,4.55,1.75,4.09.81-4.31-8.9-.54-14.6-2.4-21.41-.61-2.19-2.26-5.65-2.2-7.31,0-.05,0-.1.02-.15.01-.11.03-.23.04-.34.33-3.77,2.28-8.43,5.04-14.28,3.75-7.95,5.79-12.91,11.17-26.94.04-.1.07-.19.11-.3.34-.92.71-1.88,1.08-2.89,6.66-17.98,7.77-33.9,8.03-35.8.11-.78.26-1.63.43-2.52.02-.1.04-.2.06-.3.88-4.45,2.43-10.14,4.13-16.17,1.71-6.05,3.56-12.44,5.02-18.31.4-1.59,1.29-5.89,1.81-8.44.13-.32.24-.59.33-.77,2.35,11.03,3.4,31.04.45,43.92-1.15,5.7-3.69,11.68-6.72,18.7-1.16,2.69-2.05,4.78-2.88,6.7-2.26,3.97-4.17,7.12-8.48,16.05-3.57,9.14-9.05,21.21-9.23,41.52-.04,4.28.15,8.91.65,13.96,1.24,12.52,10.39,39.26,13.81,52.03,7.6,28.39,11.9,45.41,12.46,55.42.72,12.93-.94,16.97-2.43,24.8-2.89,15.21-.78,28.36,2.65,40.42,6.34,22.28,12.99,32.19,13.66,43.88.17,2.92-1.9,4.14-.76,7.83.6,1.93,1.6,3.76.07,8.05-5.17,14.48-11.89,18.27-11.1,23.56.88,5.86,19.55,5.5,26.85,4.18,6.01-1.09,5.93-10.07,4.2-20.34-.35-2.08-.52-4.4-.39-7.96.06-1.76.51-3.81.75-6.28.22-2.28-.41-4.69-.75-6.6-.26-1.44-.53-2.6-.57-3.21-1.54-22.39-1.12-27.75,1.55-48.79,2.7-21.27-1.08-25.08-.61-38.08.29-7.71,2.5-15.58,3.09-23.93.75-10.46-.28-20.35-1.33-27.79-2.89-20.57-2.88-23.89-3.81-40.15-1.02-17.66,4.34-26.32,1.28-41.55.71.27,2.45.37,4.17.38,1.72.01,3.46-.11,4.17-.38-3.06,15.23,2.3,23.89,1.29,41.55-.94,16.26-.92,19.58-3.82,40.15-1.05,7.44-2.08,17.33-1.33,27.79.59,8.35,2.81,16.22,3.09,23.93.47,13-3.31,16.81-.61,38.08,2.67,21.04,3.28,26.42,1.56,48.79-.05.61-.31,1.77-.57,3.21-.34,1.91-.98,4.32-.76,6.6.24,2.47.69,4.52.76,6.28.13,3.56-.05,5.88-.4,7.96-1.73,10.27-1.81,19.25,4.2,20.34,7.31,1.32,25.97,1.68,26.85-4.18.79-5.29-5.93-9.08-11.1-23.56-1.53-4.29-.53-6.12.07-8.05,1.14-3.69-.93-4.91-.76-7.83.67-11.69,7.32-21.6,13.66-43.88,3.43-12.06,5.54-25.21,2.65-40.42-1.48-7.83-3.15-11.87-2.43-24.8.56-10.01,4.86-27.03,12.46-55.42,3.42-12.77,12.58-39.51,13.81-52.03.5-5.05.69-9.68.66-13.96-.19-20.31-5.67-32.38-9.24-41.52-4.85-10.05-6.65-12.75-9.36-17.62-.57-1.34-1.18-2.82-1.91-4.54-3.05-7.16-5.61-13.36-6.8-19.28-2.85-12.55-2.03-31.7.16-42.76.13-.52.26-1.04.39-1.55.46,2.29,1.59,7.75,2.05,9.6,2.91,11.69,7.39,25.49,9.14,34.41.02.1.04.2.06.3.18.92.33,1.8.44,2.6.26,1.88,1.34,17.4,7.77,35.08.36,1,.72,1.95,1.07,2.89.12.33.24.64.35.95,5.28,14.14,7.44,19.05,11.2,27.02,2.74,5.81,4.68,10.45,5.03,14.21,0,.1.02.2.03.29.01.07.03.15.03.22.08,1.64-1.59,5.14-2.2,7.34-1.86,6.81,1.91,12.51-2.4,21.41-.46.94,2.4,1.07,4.09-.81,2.14-2.37,2.76-8.84,2.83-7.64.44,7.89,1.73,9.71,2.53,16.17.59,4.71-1.05,7.3.24,9.21.98,1.46,1.32,1.33,3.74-1.27,1.7-1.82,2.78-3.52,3.88-4.88,2.12-2.64,3.27-5.24,3.46-10.69.14-4.11-.43-7.24-1.88-13.22-.6-2.48-1.26-3.92-2.12-10.45-.24-1.83-.31-3.13-.37-4.25-.07-.57-.07-1.12-.07-1.37,0-.55,0-.99-.05-1.42-.35-3.06-1.84-4.02-2.65-9.76-1.54-10.79-2.68-18.82-4-30.03-.01-.1-.02-.21-.04-.31-.29-2.29-.6-4.71-.94-7.33-1.19-9.32-5.16-21.01-9.35-33.88-.04-.1-.07-.21-.1-.31-.23-.74-.48-1.48-.73-2.23-.43-1.33-1.34-11.48-1.7-16.81-.43-6.67-4.54-67.76-7.36-76.98-2.05-6.71-4.04-9.49-5.95-10.47h.16l-.88-.4c-.55-.3-1.38-.73-1.97-.98-.26-.11-.54-.2-.81-.3l-31.56-14.51v.11c-.23-.46-.46-.94-.67-1.45-1.12-2.7-1.57-10.21-1.75-15.34,2.54-2.35,4.48-5.38,5.73-10.41.22-.9.49-1.97.74-3.12,2.78.98,3.5-3.3,4.02-4.54.57-1.36,1.33-1.49,2.08-4.5.5-2-.37-3.32-.01-4.61.24-.87.35-3.32-.75-4.16-.12-.09-.27-.14-.43-.18,1.65-6.27,2.7-16.51-.73-24.35-1.49-3.39-3.32-6.12-5.26-8.29-4.56-5.57-12.1-9.22-20.62-9.22h-.01c-8.52,0-16.06,3.65-20.62,9.22-1.94,2.17-3.77,4.9-5.26,8.29-3.43,7.84-2.38,18.08-.73,24.35-.16.04-.31.09-.43.18-1.1.83-.99,3.29-.75,4.16.36,1.29-.51,2.61,0,4.61.75,3.01,1.51,3.14,2.08,4.5.52,1.24,1.24,5.52,4.02,4.54.25,1.15.51,2.22.74,3.12,1.26,5.02,3.19,8.06,5.73,10.41-.18,5.13-.63,12.64-1.75,15.34-.21.51-.44.99-.67,1.45v-.11l-31.57,14.51c-.26.1-.55.18-.8.29-.59.25-1.43.69-1.98.99l-.87.4h.16c-1.91.97-3.9,3.76-5.95,10.47-2.82,9.22-6.93,70.31-7.36,76.98-.36,5.33-1.26,15.48-1.7,16.81-.24.73-.48,1.44-.71,2.16-.03.1-.06.2-.1.3-4.2,12.9-8.18,24.63-9.38,33.97-.34,2.59-.64,4.99-.93,7.26-.02.1-.03.2-.04.3-1.31,11.26-2.47,19.3-4.01,30.11-.81,5.74-2.3,6.7-2.65,9.76-.05.43-.05.87-.05,1.42v.29c0,.94-.03,2.22-.29,4.28-.93,7.4-1.63,8.87-2.27,11.5-1.45,5.98-2.02,9.11-1.88,13.22.19,5.45,1.34,8.05,3.46,10.69Z"/>
  </g>
</svg>