<?xml version="1.0" encoding="UTF-8"?>
<svg id="_레이어_2" data-name="레이어 2" xmlns="http://www.w3.org/2000/svg" viewBox="0 0 181.09 572.08">
  <defs>
    <style>
      .cls-1 {
        fill: #f2a7a9;
        stroke: #221714;
        stroke-miterlimit: 10;
      }
    </style>
  </defs>
  <g id="_레이어_1-2" data-name="레이어 1">
    <path class="cls-1" d="m180.58,323.58s0-.1,0-.14c0-.07,0-.14,0-.2,0-.15-.02-.29-.02-.44,0-.02,0-.04,0-.07-.15-2.96-.74-5.87-1.85-10.46-.55-2.25-1.14-3.66-1.88-8.64-.06-.38-.11-.78-.17-1.2-.17-1.34-.27-2.5-.37-3.64,0-.06-.01-.11-.02-.17-.02-.34-.04-.67-.05-.97-.07-.57-.07-1.12-.07-1.37,0-.01,0-.02,0-.03v-.05c0-.55,0-.99-.05-1.42-.35-3.06-1.84-4.02-2.65-9.76-1.54-10.79-2.57-18.84-4-30.04-.01-.1-.02-.2-.04-.3-.29-2.29-.6-4.71-.94-7.33-1.19-9.32-5.16-21.02-9.35-33.89-.04-.1-.07-.2-.1-.3-.24-.74-.48-1.48-.73-2.23-.43-1.33-1.34-11.48-1.7-16.81-.43-6.67-4.54-67.76-7.36-76.98-2.1-6.87-4.14-9.63-6.09-10.54h0s-1.59-.9-2.55-1.31c-.91-.39-1.9-.7-2.94-.99l-29.37-13.5s0-.01-.01-.02c-.03-.06-.07-.13-.1-.19-.22-.44-.43-.89-.62-1.37-.09-.23-.18-.49-.27-.78,0-.02-.01-.04-.02-.05-.08-.29-.16-.6-.23-.93,0,0,0-.01,0-.02-.15-.69-.28-1.48-.4-2.33,0-.06-.02-.11-.02-.17-.06-.41-.11-.83-.16-1.26,0-.01,0-.02,0-.03-.05-.45-.1-.91-.14-1.38,0-.08-.01-.15-.02-.23-.03-.38-.07-.76-.1-1.15,0-.11-.02-.22-.03-.33-.04-.46-.07-.92-.1-1.38-.03-.42-.05-.84-.08-1.25,0-.15-.02-.31-.02-.46-.01-.26-.03-.52-.04-.77,0-.18-.02-.35-.03-.53-.01-.23-.02-.45-.03-.67,0-.18-.02-.36-.02-.54,0-.2-.01-.39-.02-.58,0-.16-.01-.32-.02-.48.07-.07.14-.14.21-.21.36-.34.7-.7,1.04-1.08.02-.02.03-.04.05-.06.25-.29.5-.58.74-.89.03-.04.07-.09.1-.14.22-.29.43-.59.64-.9.05-.08.1-.16.15-.24.19-.29.37-.59.54-.9.07-.12.13-.26.2-.38.15-.29.3-.58.45-.89.08-.18.16-.38.25-.57.12-.27.24-.54.35-.84.11-.29.21-.59.31-.9.08-.22.16-.44.23-.67.17-.55.33-1.13.48-1.74.22-.85.46-1.86.7-2.94.01-.06.03-.12.04-.18.35.12.66.16.95.14,0,0,0,0,0,0,0,0,0,0,0,0,.15-.01.29-.05.43-.1,0,0,0,0,0,0,.05-.02.09-.04.13-.06,0,0,0,0,0,0,.09-.04.18-.08.26-.13,0,0,0,0,0,0,.05-.03.09-.07.14-.1,0,0,0,0,0,0,.07-.05.14-.11.21-.18,0,0,0,0,0,0,.04-.04.09-.09.13-.13,0,0,0,0,0,0,.06-.07.12-.14.18-.21,0,0,0,0,0,0,.04-.05.08-.1.12-.16,0,0,0,0,0,0,.05-.08.11-.16.16-.24,0,0,0,0,0,0,.03-.06.07-.11.1-.17,0,0,0,0,0,0,.05-.09.1-.18.14-.28,0,0,0,0,0,0,.03-.06.06-.11.08-.17,0,0,0,0,0,0,.06-.13.12-.27.17-.4,0-.02.02-.04.03-.06h0c.06-.15.11-.3.17-.44,0,0,0-.01,0-.02.04-.11.08-.22.11-.33.2-.6.35-1.14.49-1.47,0,0,0-.01,0-.02.56-1.32,1.31-1.49,2.05-4.38,0-.03.02-.06.03-.1.02-.07.02-.14.04-.2.04-.18.07-.35.09-.52.02-.23.03-.45.03-.66,0,0,0,0,0,0,0-.53-.08-1-.15-1.45-.02-.11-.03-.23-.05-.34-.01-.09-.02-.18-.03-.27,0-.08-.02-.15-.02-.23,0-.1,0-.19,0-.28,0-.06,0-.13,0-.19,0-.1.03-.2.05-.29.01-.05.01-.1.03-.15,0,0,0-.01,0-.02.06-.22.11-.53.14-.9.01-.16.02-.34.02-.52h0s0-.09,0-.14c0,0,0,0,0,0,0-.14-.01-.28-.02-.43,0,0,0,0,0-.01,0-.04,0-.09-.01-.13,0,0,0,0,0,0,0-.03,0-.05-.01-.08-.04-.29-.1-.58-.18-.85-.02-.05-.03-.11-.05-.16,0,0,0,0,0,0-.01-.03-.02-.05-.03-.08,0,0,0,0,0-.01-.06-.14-.12-.26-.2-.38,0,0,0,0,0-.01-.01-.02-.03-.05-.04-.07,0,0,0,0,0,0-.1-.14-.2-.26-.33-.36-.05-.04-.11-.07-.17-.09,0,0,0,0,0,0-.08-.04-.16-.07-.25-.09,0-.03.02-.07.03-.11,0-.03.01-.06.02-.09.11-.44.22-.89.33-1.37,0,0,0-.01,0-.02.03-.14.06-.28.09-.43,0,0,0-.02,0-.02.12-.55.23-1.11.33-1.7,0,0,0,0,0,0,0,0,0-.01,0-.02,0,0,0,0,0,0,.11-.65.21-1.33.31-2.02,0,0,0,0,0,0,0-.06.01-.12.02-.17,0,0,0,0,0,0,.12-.96.22-1.95.29-2.96,0,0,0,0,0-.01.34-5.08-.09-10.68-2.16-15.41,0,0,0,0,0,0-.17-.39-.35-.78-.53-1.15-.46-.96-.95-1.86-1.47-2.7-.02-.03-.04-.06-.06-.1-.63-1.03-1.29-1.99-1.97-2.86,0,0-.01-.02-.02-.03-.34-.44-.69-.86-1.05-1.26,0,0,0,0,0,0-.05-.06-.11-.13-.16-.19,0,0,0,0,0,0,0,0,0,0,0,0-4.08-4.98-10.54-8.41-17.95-9.08,0,0,0,0,0,0-.14-.01-.28-.02-.43-.03h0c-.33-.03-.66-.05-.99-.06-.41-.02-.82-.03-1.23-.03h-.01c-.52,0-1.04.01-1.56.04,0,0,0,0,0,0-7.86.41-14.74,3.93-19.03,9.14-.01.01-.02.03-.04.04,0,0,0,0-.01.01-1.78,1.99-3.47,4.47-4.88,7.49-.12.26-.25.52-.36.78,0,0,0,.02-.01.03-.5,1.14-.89,2.34-1.21,3.56,0,0,0,0,0,0-.05.2-.1.4-.15.61h0c-.11.47-.21.95-.3,1.43h0c-.03.15-.06.29-.08.43,0,0,0,0,0,0-.11.64-.2,1.28-.27,1.92,0,0,0,0,0,0,0,.07-.01.14-.02.21,0,0,0,0,0,0-.06.57-.11,1.15-.14,1.72,0,0,0,0,0,0,0,.15-.02.3-.02.45h0c-.03.53-.04,1.06-.04,1.58,0,0,0,0,0,0,0,.12,0,.24,0,.36h0c0,1.33.06,2.64.17,3.92,0,0,0,0,0,0,0,0,0,0,0,0,0,0,0,.01,0,.02,0,0,0,0,0,0,.06.7.13,1.38.22,2.06,0,0,0,.01,0,.02,0,.06.02.13.02.19,0,0,0,0,0,0,.09.68.19,1.35.3,2,0,0,0,0,0,.01,0,.01,0,.02,0,.03,0,.01,0,.03,0,.04.1.57.21,1.11.32,1.64,0,0,0,.02,0,.03.03.15.06.29.09.44,0,.01,0,.02,0,.03.1.45.21.89.31,1.32,0,.04.02.08.03.11.01.04.02.08.03.12-.16.05-.31.1-.43.19,0,0,0,0,0,.01-.11.09-.21.19-.29.31-.71.94-.67,2.72-.49,3.61.01.08.03.16.05.23,0,0,0,0,0,.01.04.15.07.31.08.47,0,.07,0,.15,0,.23,0,0,0,.01,0,.02,0,.08,0,.16,0,.24,0,.08-.02.17-.03.25,0,.09-.02.18-.03.27-.02.16-.05.31-.07.47,0,.03,0,.05-.01.08,0,0,0,0,0,.01-.05.37-.1.75-.11,1.17h0c0,.43.03.88.16,1.38.75,3.01,1.51,3.14,2.08,4.5,0,0,0,.02.01.03.03.07.06.15.09.23,0,.02.02.05.03.08.17.51.38,1.26.68,1.99.02.05.04.09.06.14.05.13.11.25.17.37.03.05.05.11.08.16.07.13.14.25.21.37.02.04.04.07.06.11.1.15.2.29.31.41.03.03.06.06.09.09.09.09.17.18.27.25.04.03.09.07.13.1.09.07.19.12.29.17.04.02.09.05.13.06.15.06.3.1.47.12.29.03.6-.01.95-.14.06.26.12.52.17.78.19.85.39,1.65.57,2.34.77,3.14,1.82,5.49,3.12,7.39.06.09.13.18.2.27.19.26.38.53.57.77.21.26.43.51.65.75.06.07.12.14.18.2.28.3.57.59.86.87,0,0,.01.02.02.02.04.04.09.09.13.13-.02.62-.05,1.27-.08,1.95,0,.08,0,.16-.01.24-.01.25-.02.49-.04.74,0,.11-.01.22-.02.32-.01.23-.02.46-.04.7,0,.11-.01.22-.02.34-.02.29-.03.57-.05.86,0,.05,0,.11-.01.16-.02.34-.05.69-.07,1.03,0,.08-.01.16-.02.24-.02.26-.04.52-.06.78,0,.11-.02.22-.03.32-.02.23-.04.47-.06.7-.01.11-.02.22-.03.33-.02.25-.05.5-.08.75,0,.08-.02.15-.02.23-.04.32-.07.64-.11.95,0,.05-.01.1-.02.15-.03.25-.07.5-.1.75-.01.09-.03.18-.04.27-.03.2-.06.4-.09.59-.02.09-.03.18-.05.27-.03.19-.07.37-.1.55-.01.07-.03.15-.04.22,0,.04-.02.08-.03.12-.04.16-.07.33-.11.48-.02.09-.04.17-.07.26-.03.13-.07.25-.1.37-.02.07-.04.14-.06.2-.05.17-.11.33-.17.47,0,0,0,.02,0,.02-.23.56-.48,1.08-.74,1.59l-29.36,13.5c-1.03.29-2.03.6-2.94.99-.96.41-2.55,1.3-2.55,1.3h0c-1.95.92-3.99,3.68-6.09,10.55-2.82,9.22-6.93,70.31-7.36,76.98-.36,5.33-1.27,15.48-1.7,16.81-.25.75-.49,1.49-.73,2.23-.03.1-.06.2-.1.3-4.19,12.87-8.16,24.57-9.35,33.89-.34,2.62-.65,5.04-.94,7.33-.02.1-.03.2-.04.3-1.43,11.2-2.46,19.25-4,30.04-.81,5.74-2.3,6.7-2.65,9.76-.05.43-.05.87-.05,1.42v.3c0,.94-.03,2.22-.29,4.27-.93,7.4-1.63,8.87-2.27,11.5-1.11,4.58-1.69,7.5-1.85,10.45,0,.03,0,.06,0,.08,0,.14-.02.28-.02.42,0,.07,0,.14,0,.2,0,.05,0,.11,0,.16,0,.08,0,.16,0,.25,0,.07,0,.14,0,.21,0,.01,0,.03,0,.04,0,.02,0,.03,0,.05,0,.51,0,1.03.02,1.57.19,5.44,1.34,8.05,3.46,10.69,1.1,1.36,2.18,3.05,3.88,4.88,2.42,2.6,2.76,2.72,3.74,1.26.41-.61.52-1.29.5-2.08,0-.02,0-.03,0-.05,0-.02,0-.05,0-.07,0-.09-.01-.19-.02-.28,0-.06,0-.11-.01-.17-.07-1.16-.34-2.55-.37-4.33h0c0-.25,0-.52.01-.79.02-.46.05-.94.12-1.44.8-6.46,2.09-8.27,2.53-16.17.07-1.19.69,5.28,2.83,7.65,1.61,1.8,4.29,1.76,4.12.92,0-.02,0-.04,0-.07,0-.02,0-.04,0-.06,0-.07,0-.14-.04-.21-1.63-3.37-2.11-6.29-2.16-8.98,0-.22,0-.43,0-.65,0-.04,0-.08,0-.11,0-.08,0-.17,0-.25.04-2.23.3-4.32.32-6.42,0,0,0,0,0,0,0,0,0-.01,0-.02.03-1.64-.09-3.27-.55-4.98-.6-2.15-2.19-5.52-2.19-7.21.01-.12.03-.24.04-.36.31-3.77,2.28-8.44,5.04-14.28,3.75-7.95,5.87-12.88,11.17-26.95.04-.1.07-.19.11-.29.35-.93.71-1.89,1.08-2.9,6.66-17.98,7.77-33.89,8.03-35.8.11-.77.26-1.62.43-2.51.02-.1.04-.21.06-.31.88-4.46,2.43-10.15,4.13-16.18,1.71-6.05,3.56-12.44,5.02-18.3.41-1.65,1.36-6.21,1.87-8.73.02-.06.05-.12.07-.17.06-.02.12,0,.17,0,.06.12.12.23.17.36.02.15.04.29.06.44.18,7.51-1,26.23-3.53,42.66-.89,5.76-2.63,11.49-4.11,17.29-.34,1.33-.64,2.61-.91,3.86-3.92,5.7-6.85,9.19-12.26,20.37l-.06.15c-3.76,9.11-9.52,21.16-9.75,41.37v.15c-.04,4.27.16,8.91.69,13.96,1.31,12.52,10.98,39.26,14.59,52.03,8.02,28.39,12.56,45.41,13.15,55.42.77,12.92-.99,16.97-2.56,24.79-3.05,15.22-.82,28.37,2.8,40.42,6.69,22.29,13.71,32.19,14.43,43.89.17,2.92-2.02,4.14-.81,7.83.63,1.92,1.69,3.76.08,8.04-5.46,14.49-12.57,18.28-11.73,23.57.93,5.86,20.64,5.49,28.36,4.17,6.35-1.08,6.26-10.06,4.43-20.33-.37-2.08-.56-4.4-.42-7.96.08-1.76.55-3.81.8-6.28.23-2.28-.43-4.69-.8-6.6-.27-1.44-.55-2.6-.6-3.21-1.7-22.39-1.17-27.75,1.65-48.8,2.85-21.26-1.15-25.07-.65-38.08.3-7.7,2.64-15.58,3.27-23.92.79-10.46-.3-20.35-1.41-27.79-3.06-20.57-3.04-23.89-4.03-40.16-1.07-17.65,4.59-26.31,1.36-41.54.75.27,2.58.36,4.4.38,1.82.01,3.65-.11,4.4-.38-3.23,15.23,2.43,23.89,1.36,41.54-.99,16.27-.97,19.59-4.03,40.16-1.11,7.44-2.19,17.33-1.4,27.79.62,8.34,2.96,16.22,3.26,23.92.5,13.01-3.5,16.82-.64,38.08,2.82,21.05,3.35,26.41,1.64,48.8-.05.61-.33,1.77-.6,3.21-.36,1.91-1.03,4.32-.8,6.6.25,2.47.73,4.52.8,6.28.14,3.56-.05,5.88-.42,7.96-1.83,10.27-1.91,19.25,4.44,20.33,7.71,1.32,27.42,1.69,28.35-4.17.84-5.29-6.26-9.08-11.72-23.57-1.62-4.28-.55-6.12.08-8.04,1.21-3.69-.99-4.91-.81-7.83.71-11.7,7.73-21.6,14.43-43.89,3.62-12.05,5.84-25.2,2.8-40.42-1.57-7.82-3.33-11.87-2.57-24.79.59-10.01,5.13-27.03,13.16-55.42,3.61-12.77,13.28-39.51,14.59-52.03.52-5.05.72-9.69.68-13.96v-.15c-.22-20.21-5.99-32.26-9.75-41.37-.02-.05-.04-.1-.06-.15-5.58-11.57-8.53-14.91-12.67-20.97-.07-.29-.13-.57-.2-.86-1.56-6.43-3.38-13.04-4.41-19.68,0,0,0,0,0,0-2.49-16.56-3.82-35.32-3.62-42.61.13-.51.25-1.04.39-1.55.47,2.28,1.59,7.74,2.05,9.59,2.9,11.63,7.35,25.35,9.12,34.28.02.1.04.19.06.29.19.97.35,1.91.47,2.75.26,1.83,1.28,16.57,7.27,33.64.34.97.69,1.93,1.04,2.88.29.78.56,1.53.83,2.25,5.28,14.27,7.49,19.17,11.26,27.17,2.7,5.73,4.65,10.34,5.02,14.07,0,.1.02.19.03.28,0,.1.02.21.03.31-.02,1.69-1.59,5.04-2.19,7.18-.36,1.3-.5,2.56-.54,3.81,0,.02,0,.04,0,.06,0,.02,0,.04,0,.05-.06,1.62.07,3.23.18,4.88.03.5.06,1.01.09,1.52,0,.12,0,.24.01.35.02.59.04,1.18.03,1.78,0,.03,0,.06,0,.09,0,.32-.02.65-.04.97h0c-.16,2.4-.7,4.97-2.12,7.88-.04.08-.05.15-.04.21,0,.02,0,.04,0,.06,0,.02,0,.04,0,.07-.16.83,2.5.87,4.12-.92,2.13-2.37,2.76-8.84,2.83-7.65.44,7.9,1.73,9.71,2.53,16.17.06.52.1,1,.12,1.47,0,.23.01.45.01.67,0,.04,0,.08,0,.12-.03,1.68-.28,3.02-.36,4.15,0,.07,0,.13-.01.2,0,.08-.01.15-.01.23,0,.03,0,.05,0,.08,0,.02,0,.05,0,.07,0,0,0,.01,0,.02,0,0,0,.02,0,.03-.03.84.07,1.55.5,2.18.99,1.46,1.33,1.34,3.75-1.26,1.7-1.83,2.78-3.52,3.87-4.88,2.13-2.64,3.28-5.25,3.47-10.69.02-.54.02-1.06.02-1.57,0-.02,0-.03,0-.05,0-.01,0-.03,0-.04,0-.08,0-.15,0-.22,0-.08,0-.17,0-.25Z"/>
  </g>
</svg>