<?xml version="1.0" encoding="UTF-8"?>
<svg id="_레이어_2" data-name="레이어 2" xmlns="http://www.w3.org/2000/svg" viewBox="0 0 181.09 572.08">
  <defs>
    <style>
      .cls-1 {
        fill: #f2a7a9;
        stroke: #221714;
        stroke-miterlimit: 10;
      }
    </style>
  </defs>
  <g id="_레이어_1-2" data-name="레이어 1">
    <path class="cls-1" d="m180.57,323.58s0-.1,0-.14c0-.07,0-.14,0-.2,0-.15-.02-.29-.02-.44,0-.02,0-.04,0-.07-.15-2.96-.74-5.87-1.85-10.46-.55-2.25-1.14-3.66-1.88-8.64-.06-.38-.11-.78-.17-1.2-.17-1.34-.27-2.5-.37-3.64,0-.06-.01-.11-.02-.17-.02-.34-.04-.67-.05-.97-.07-.57-.07-1.12-.07-1.37,0-.01,0-.02,0-.03v-.05c0-.55,0-.99-.05-1.42-.35-3.06-1.84-4.02-2.65-9.76-1.54-10.79-2.57-18.84-4-30.04-.01-.1-.02-.2-.04-.3-.29-2.29-.6-4.71-.94-7.33-1.19-9.32-5.16-21.02-9.35-33.89-.04-.1-.07-.2-.1-.3-.24-.74-.48-1.48-.73-2.23-.43-1.33-1.34-11.48-1.7-16.81-.43-6.67-4.54-67.76-7.36-76.98-2.1-6.87-4.14-9.63-6.09-10.54h0s-1.59-.9-2.55-1.31c-.98-.42-2.06-.75-3.18-1.05l-29.09-13.37s-.03-.05-.04-.08c-.03-.06-.07-.13-.1-.19-.22-.44-.43-.89-.62-1.37-.09-.23-.18-.49-.27-.78,0-.02-.01-.04-.02-.05-.08-.29-.16-.6-.23-.93,0,0,0-.01,0-.02-.15-.69-.28-1.48-.4-2.33,0-.06-.02-.11-.02-.17-.06-.41-.11-.83-.16-1.26,0-.01,0-.02,0-.03-.05-.45-.1-.91-.14-1.38,0-.08-.01-.16-.02-.23-.03-.38-.07-.76-.1-1.15,0-.11-.02-.22-.03-.33-.04-.46-.07-.92-.1-1.38-.03-.42-.05-.84-.08-1.25,0-.15-.02-.31-.02-.46-.01-.26-.03-.52-.04-.77,0-.18-.02-.35-.03-.53-.01-.23-.02-.45-.03-.67,0-.18-.02-.36-.02-.54,0-.2-.01-.39-.02-.58,0-.16-.01-.32-.02-.48.07-.07.14-.14.21-.21,0,0,0,0,0,0,.36-.34.7-.7,1.03-1.07,0,0,0,0,0,0,.01-.02.03-.03.04-.05.25-.29.5-.59.74-.9,0,0,0,0,0,0,.03-.04.07-.09.1-.14,0,0,0,0,0,0,.22-.29.43-.59.64-.9,0,0,0,0,0,0,.05-.08.1-.16.15-.24h0c.19-.29.37-.59.54-.9,0,0,0,0,0,0,.07-.12.13-.26.2-.38,0,0,0,0,0,0,.15-.29.3-.57.44-.88,0,0,0,0,0,0,.05-.11.1-.22.14-.33.52-1.18.98-2.5,1.37-4.02.03-.12.07-.24.1-.36.22-.85.46-1.86.7-2.94.01-.06.03-.12.04-.18.35.12.66.16.95.14,0,0,0,0,0,0,0,0,0,0,0,0,.15-.01.3-.05.43-.1.05-.02.09-.04.13-.06,0,0,0,0,0,0,.11-.05.22-.11.33-.19.02-.02.05-.03.07-.05,0,0,0,0,0,0,.07-.05.14-.11.21-.18h0s0,0,0,0c.04-.04.09-.09.13-.13,0,0,0,0,0,0,.06-.07.12-.14.18-.21,0,0,0,0,0,0,.04-.05.08-.1.12-.16h0c.05-.08.11-.16.16-.24,0,0,0,0,0,0,0,0,0,0,0,0,.03-.05.06-.1.09-.15.05-.1.11-.2.16-.3,0,0,0,0,0,0,.03-.06.06-.11.08-.17,0,0,0,0,0,0,.07-.15.13-.29.19-.44,0,0,0-.01,0-.02h0c.06-.15.12-.31.17-.46,0,0,0,0,0,0,0-.03.02-.05.03-.08.19-.55.34-1.07.48-1.45.02-.05.04-.09.05-.14.02-.04.03-.09.05-.13,0-.01.01-.02.02-.04.42-.99.95-1.33,1.5-2.68,0-.02.02-.04.02-.06.04-.09.07-.18.11-.29.03-.07.05-.15.08-.23.02-.05.04-.1.05-.16.04-.12.08-.25.12-.38,0-.02.01-.04.02-.07.05-.16.09-.33.14-.5h0s.02-.06.03-.1c.2-.79.18-1.48.11-2.1-.01-.09-.02-.17-.03-.26-.02-.18-.05-.35-.07-.52-.01-.1-.03-.19-.04-.28-.01-.1-.02-.2-.03-.29,0-.07-.02-.14-.02-.22,0-.1,0-.2,0-.3,0-.06,0-.11,0-.17.01-.16.04-.31.08-.46h0s.02-.09.03-.13c.03-.14.06-.31.08-.51.01-.09.02-.17.03-.26.01-.16.02-.34.02-.52h0s0-.09,0-.14h0s0,0,0,0c0-.14-.01-.28-.02-.43,0,0,0,0,0-.01,0-.04,0-.08-.01-.13,0,0,0,0,0,0,0,0,0,0,0,0,0-.03,0-.05-.01-.08,0,0,0,0,0,0-.04-.29-.1-.57-.18-.84,0,0,0,0,0,0-.02-.05-.03-.11-.05-.16,0,0,0,0,0,0,0,0,0,0,0,0,0-.02-.02-.04-.03-.07,0,0,0,0,0,0,0,0,0,0,0-.01-.06-.14-.12-.26-.2-.38,0,0,0,0,0-.01,0,0,0,0,0-.01-.01-.02-.02-.04-.03-.05,0,0,0,0,0,0,0,0,0,0,0,0-.1-.14-.2-.26-.33-.36-.05-.04-.11-.07-.17-.09h0c-.08-.04-.16-.07-.25-.1,0-.03.02-.07.03-.11,0-.03.01-.06.02-.09,0-.02.01-.04.02-.06.11-.42.21-.85.31-1.3,0,0,0,0,0,0,0,0,0-.01,0-.02.03-.14.06-.28.09-.43,0,0,0-.02,0-.02,0,0,0-.01,0-.02.11-.54.22-1.09.32-1.67,0,0,0,0,0-.01,0,0,0,0,0,0,0,0,0-.01,0-.02,0,0,0,0,0,0,0,0,0,0,0,0,.11-.65.21-1.32.3-2.01,0,0,0,0,0,0,0,0,0,0,0,0,0-.06.01-.12.02-.17,0,0,0,0,0,0,.2-1.54.33-3.16.38-4.82,0-.04,0-.08,0-.13.01-.61.02-1.22,0-1.84,0-.03,0-.06,0-.09-.03-1.28-.11-2.57-.27-3.85-.01-.1-.03-.2-.04-.31-.07-.5-.14-1-.23-1.5-.03-.19-.07-.37-.11-.56-.08-.42-.17-.83-.27-1.24-.05-.2-.1-.41-.15-.61-.11-.41-.23-.82-.36-1.22-.06-.18-.11-.36-.17-.54-.2-.57-.41-1.13-.65-1.68-1.49-3.38-3.31-6.11-5.24-8.27,0,0-.01-.02-.02-.02,0,0,0,0,0,0-.03-.03-.06-.06-.09-.1-.24-.29-.49-.58-.75-.86-.13-.14-.26-.27-.39-.41-.17-.17-.33-.34-.5-.51-.16-.15-.32-.3-.48-.45-.15-.14-.31-.28-.47-.42-.18-.16-.36-.31-.55-.46-.15-.12-.3-.24-.45-.36-.2-.16-.4-.31-.61-.46-.14-.1-.28-.2-.42-.3-.22-.16-.45-.31-.68-.46-.12-.08-.25-.16-.38-.24-.26-.16-.51-.32-.78-.47-.09-.05-.18-.1-.27-.15-2.14-1.21-4.5-2.14-7.03-2.75-.03,0-.06-.01-.08-.02-.41-.1-.82-.18-1.24-.26-.04,0-.08-.01-.11-.02-.42-.08-.84-.15-1.26-.21-.03,0-.06,0-.09-.01-.44-.06-.88-.11-1.32-.15,0,0,0,0,0,0-.14-.01-.28-.02-.43-.03,0,0,0,0,0,0,0,0,0,0,0,0-.42-.03-.84-.05-1.26-.07-.32-.01-.64-.03-.96-.03h-.01c-.07,0-.14,0-.21,0-.66,0-1.31.04-1.96.08-.3.02-.6.04-.9.07-.24.02-.47.06-.71.09-.26.03-.52.06-.77.1-.24.04-.49.09-.73.13s-.49.09-.72.14c-.25.05-.49.11-.73.17-.23.05-.46.11-.69.17-.25.07-.49.14-.73.21-.22.06-.44.13-.65.2-.24.08-.49.16-.73.25-.21.07-.41.15-.61.22-.24.09-.48.19-.72.29-.2.08-.39.16-.59.25-.24.1-.47.21-.7.32-.19.09-.37.18-.56.27-.23.12-.46.24-.69.36-.18.1-.35.19-.53.29-.23.13-.45.26-.67.39-.17.1-.33.21-.49.31-.22.14-.44.28-.65.43-.16.11-.31.22-.46.33-.21.15-.42.31-.63.47-.15.11-.29.23-.43.34-.2.17-.41.33-.61.5-.13.12-.26.24-.39.35-.2.18-.4.36-.59.54-.11.11-.22.23-.33.34-.4.41-.79.83-1.16,1.26-.08.1-.17.19-.25.29-.01.01-.02.03-.04.04,0,0,0,0-.01.01,0,0,0,0,0,0-.43.48-.86,1-1.28,1.54-.01.02-.03.03-.04.05-.42.54-.83,1.12-1.23,1.72-.01.02-.03.04-.04.06-.4.61-.79,1.25-1.17,1.93l-.02.04c-.38.68-.75,1.4-1.1,2.14,0,0,0,0,0,0-.12.26-.25.52-.36.78,0,0,0,.02-.01.03,0,0,0,.02,0,.02-.24.55-.45,1.12-.65,1.69-.02.05-.03.09-.04.14-.19.56-.36,1.13-.51,1.7h0s0,0,0,0c-.05.2-.1.4-.15.61,0,0,0,0,0,0,0,0,0,0,0,0-.11.47-.21.94-.3,1.42,0,0,0,0,0,0h0c-.03.15-.06.29-.08.43,0,0,0,0,0,0,0,0,0,0,0,0-.11.63-.2,1.27-.27,1.91,0,0,0,0,0,0,0,0,0,0,0,0,0,.07-.01.14-.02.21,0,0,0,0,0,0h0c-.06.58-.11,1.15-.14,1.72h0s0,0,0,0c0,.15-.02.3-.02.45h0c-.03.53-.04,1.06-.04,1.58,0,0,0,0,0,0,0,.12,0,.24,0,.36h0c0,1.33.06,2.64.17,3.91,0,0,0,0,0,0,0,0,0,0,0,0,0,0,0,0,0,0,0,0,0,.01,0,.02,0,0,0,0,0,0,0,0,0,0,0,0,.06.7.13,1.38.22,2.05,0,0,0,.01,0,.02,0,.06.02.13.02.19,0,0,0,0,0,0,0,0,0,0,0,0,.09.68.19,1.35.3,1.99,0,0,0,0,0,0,0,0,0,0,0,.01,0,.01,0,.02,0,.03,0,.01,0,.03,0,.04,0,.02,0,.03,0,.04.1.54.2,1.07.31,1.57,0,0,0,.01,0,.02,0,0,0,.02,0,.03.03.15.06.29.09.44,0,.01,0,.02,0,.03,0,0,0,.01,0,.02.09.41.19.82.29,1.2,0,.03.01.06.02.09,0,.04.02.08.03.11,0,.04.02.08.03.12-.08.02-.16.05-.23.08-.07.03-.14.06-.2.11,0,0,0,0,0,.01-.11.09-.21.19-.29.31,0,0,0,0,0,0-.06.09-.12.18-.17.28-.03.05-.06.1-.08.15-.04.1-.08.2-.11.3-.02.07-.04.14-.06.21-.03.1-.05.2-.07.31-.02.08-.03.16-.04.25-.01.1-.03.2-.04.3,0,.07,0,.15-.01.22-.01.22-.01.43,0,.64,0,.05,0,.1,0,.15,0,.13.02.24.03.36,0,.03,0,.05,0,.08.02.13.03.24.05.34,0,0,0,0,0,0,.01.08.03.16.05.23,0,0,0,0,0,.01.04.15.07.31.08.47,0,.07,0,.15,0,.23h0c0,.09,0,.18,0,.26,0,.08-.01.15-.02.23-.01.1-.02.19-.03.29-.01.1-.03.2-.04.3-.07.44-.14.91-.15,1.44h0c0,.4.04.83.14,1.3,0,.03,0,.06.02.09,0,.02.01.05.02.07.74,2.93,1.49,3.08,2.05,4.41,0,0,0,.01,0,.02.03.08.07.17.1.27,0,0,0,0,0,0,0,.03.02.06.03.09.04.13.09.28.14.44.04.14.09.28.14.44,0,0,0,0,0,.01.11.34.24.7.38,1.07,0,0,0,0,0,0,.02.05.04.09.06.14,0,0,0,0,0,0,.05.12.11.24.16.36,0,0,0,0,0,0,.03.05.05.11.08.16,0,0,0,0,0,0,.06.13.13.25.21.36,0,0,0,0,0,0,.02.04.04.07.06.11,0,0,0,0,0,0,.1.15.2.28.31.41,0,0,0,0,0,0,.03.03.06.06.09.09,0,0,0,0,0,0,.08.09.17.17.26.25,0,0,0,0,0,0,.04.03.09.07.13.1,0,0,0,0,0,0,.09.06.19.12.29.17,0,0,0,0,0,0,.04.02.09.05.13.06h0c.15.06.3.1.47.11h0s0,0,.01,0c.28.02.59-.02.94-.14.05.23.1.45.15.66.1.42.19.82.28,1.21.02.1.05.19.07.29.07.3.15.6.22.88,0,.02.01.05.02.08.14.56.29,1.09.44,1.6.03.12.07.23.11.35.15.47.31.93.47,1.37.04.12.09.23.14.34.13.33.27.65.41.96.06.13.12.27.18.4.16.34.34.67.51.98.09.17.19.33.29.5.11.19.22.37.34.54.8,1.24,1.7,2.3,2.7,3.23,0,0,.01.01.02.02.04.04.09.09.13.13-.02.62-.05,1.27-.08,1.95,0,.08,0,.16-.01.24-.01.25-.02.49-.04.74,0,.11-.01.22-.02.32-.01.23-.02.46-.04.7,0,.11-.01.22-.02.34-.02.29-.03.57-.05.86,0,.05,0,.11-.01.16-.02.34-.05.69-.07,1.03,0,.08-.01.16-.02.24-.02.26-.04.52-.06.78,0,.11-.02.22-.03.32-.02.23-.04.47-.06.7-.01.11-.02.22-.03.33-.02.25-.05.5-.08.75,0,.08-.02.15-.02.23-.04.32-.07.64-.11.95,0,.05-.01.1-.02.15-.03.25-.07.5-.1.75-.01.09-.03.18-.04.27-.03.2-.06.4-.09.59-.02.09-.03.18-.05.27-.03.19-.07.37-.1.55-.01.07-.03.15-.04.22,0,.04-.02.08-.03.12-.04.16-.07.33-.11.48-.02.09-.04.17-.07.26-.03.13-.07.25-.1.37-.02.07-.04.14-.06.2,0,.02-.02.04-.02.06-.05.14-.1.28-.15.4,0,0,0,.02,0,.02-.24.58-.5,1.12-.77,1.65l-29.09,13.37c-1.12.3-2.2.64-3.18,1.05-.96.41-2.55,1.3-2.55,1.3h0c-1.95.92-3.99,3.68-6.09,10.55-2.82,9.22-6.93,70.31-7.36,76.98-.36,5.33-1.27,15.48-1.7,16.81-.25.75-.49,1.49-.73,2.23-.03.1-.06.2-.1.3-4.19,12.87-8.16,24.57-9.35,33.89-.34,2.62-.65,5.04-.94,7.33-.02.1-.03.2-.04.3-1.43,11.2-2.46,19.25-4,30.04-.81,5.74-2.3,6.7-2.65,9.76-.05.43-.05.87-.05,1.42v.3c0,.94-.03,2.22-.29,4.27-.93,7.4-1.63,8.87-2.27,11.5-1.11,4.58-1.69,7.5-1.85,10.45,0,.03,0,.06,0,.08,0,.14-.02.28-.02.42,0,.07,0,.14,0,.2,0,.05,0,.11,0,.16,0,.08,0,.16,0,.25,0,.07,0,.14,0,.21,0,.01,0,.03,0,.04,0,.02,0,.03,0,.05,0,.02,0,.03,0,.05,0,.52,0,1.05.02,1.59.19,5.44,1.34,8.05,3.46,10.69,1.1,1.36,2.18,3.05,3.88,4.88,2.42,2.6,2.76,2.72,3.74,1.26.42-.62.53-1.32.5-2.14,0,0,0-.01,0-.02,0-.02,0-.03,0-.05,0-.02,0-.05,0-.07,0-.09-.01-.19-.02-.28,0-.06,0-.11-.01-.17-.07-1.16-.34-2.54-.37-4.31,0-.03,0-.06,0-.09,0-.19,0-.39.01-.58,0-.09,0-.18.01-.27.01-.29.04-.61.07-.92.01-.1.02-.21.03-.31.8-6.46,2.11-8.27,2.53-16.17.07-1.19.69,5.28,2.83,7.65,1.62,1.8,4.29,1.76,4.12.92,0-.02,0-.04,0-.07,0-.02,0-.04,0-.07,0-.02,0-.04,0-.06,0-.07,0-.14-.04-.21-1.63-3.37-2.11-6.29-2.16-8.98,0-.11,0-.22,0-.33,0-.11,0-.21,0-.32,0-.04,0-.08,0-.11,0-.06,0-.11,0-.17,0-.29.02-.58.03-.87,0-.16.01-.33.02-.49.09-1.75.26-3.43.27-5.12,0,0,0,0,0-.01,0,0,0,0,0,0,0,0,0-.01,0-.02.03-1.64-.09-3.27-.55-4.98-.59-2.13-2.16-5.47-2.19-7.17.01-.11.03-.22.04-.32.31-3.77,2.28-8.44,5.04-14.28,2.54-5.38,4.35-9.38,6.89-15.77-2.65,7.55-4.98,17.03-5.12,29.75v.12c0,.06,0,.12,0,.18v.15c-.04,4.27.16,8.91.69,13.96,1.31,12.52,10.98,39.26,14.59,52.03,8.02,28.39,12.56,45.41,13.15,55.42.14,2.4.2,4.49.18,6.36-.09,7.98-1.48,11.84-2.74,18.13-.96,4.79-1.39,9.37-1.43,13.78-.12,9.72,1.72,18.6,4.23,26.95,6.69,22.29,13.71,32.19,14.43,43.89,0,.11,0,.21,0,.31-.1,1.9-1.16,3.11-1.17,5.09-.04.69.04,1.48.35,2.43.38,1.17.92,2.31.93,3.98-.04,1.02-.27,2.23-.84,3.76-5.18,13.74-11.84,17.86-11.79,22.76-.02.37,0,.73.06,1.11.93,5.86,20.64,5.49,28.36,4.17,4.01-.68,5.45-4.51,5.51-9.83.07-3.17-.37-6.89-1.07-10.81-.32-1.78-.5-3.75-.46-6.51,0-.37.02-.75.03-1.15.08-1.76.55-3.81.8-6.28.03-.33.04-.66.04-1,.06-2.07-.51-4.19-.84-5.9-.27-1.44-.55-2.6-.6-3.21-.74-9.68-1.05-16.18-.95-22.14.15-7.7,1.01-14.57,2.59-26.36.71-5.32,1-9.55,1.03-13.11.13-10.33-1.85-14.99-1.71-23.9,0-.35.02-.7.03-1.07.3-7.7,2.64-15.58,3.27-23.92.15-2,.23-3.99.26-5.93.14-8.34-.76-16.07-1.66-22.16-3.06-20.57-3.04-23.89-4.03-40.16-.13-2.13-.16-4.13-.12-6.03.24-9.78,2.34-16.82,2.47-24.92.07-3.18-.17-6.53-.94-10.27.78.26,2.56.34,4.34.36,1.78,0,3.57-.11,4.35-.37-.58,2.82-.86,5.43-.93,7.9-.35,9.97,2.65,17.88,2.46,30.25-.02.99-.06,2.01-.12,3.06-.99,16.27-.97,19.59-4.03,40.16-.77,5.16-1.52,11.51-1.65,18.4-.07,3.13,0,6.38.25,9.69.62,8.34,2.96,16.22,3.26,23.92.04,1.15.05,2.22.03,3.25-.16,6.85-1.53,11.36-1.69,19.17-.1,4.05.12,9,1.02,15.66,1.92,14.35,2.78,21.41,2.59,31.55-.1,4.66-.41,9.98-.94,16.95-.05.61-.33,1.77-.6,3.21-.32,1.68-.87,3.75-.84,5.78,0,.38,0,.75.04,1.13.25,2.47.73,4.52.8,6.28.03.89.05,1.7.05,2.45-.03,2.1-.2,3.72-.46,5.21-.59,3.31-.99,6.47-1.06,9.29-.2,6.09,1.12,10.6,5.5,11.34,7.71,1.32,27.42,1.69,28.35-4.17.05-.34.07-.67.07-.99.15-4.95-6.56-9.03-11.78-22.88-.61-1.6-.84-2.87-.85-3.92.04-1.59.56-2.69.93-3.82.26-.8.36-1.48.36-2.09.13-2.3-1.19-3.55-1.17-5.75.71-11.69,7.73-21.6,14.43-43.88,2.28-7.6,4-15.63,4.21-24.35.14-5.2-.26-10.64-1.4-16.37-1.37-6.81-2.88-10.77-2.74-20.22.02-1.31.08-2.72.17-4.27.59-10.01,5.13-27.03,13.16-55.42,3.61-12.77,13.28-39.51,14.59-52.03.4-3.85.6-7.46.66-10.86.02-1.16.03-2.3.02-3.41v-.15c-.14-12.59-2.43-22.01-5.05-29.53,2.49,6.26,4.3,10.23,6.81,15.55,2.75,5.84,4.73,10.51,5.04,14.28,0,.11.02.24.03.36-.04,1.71-1.59,5.01-2.18,7.14-.36,1.3-.5,2.56-.54,3.81,0,.02,0,.04,0,.06,0,.02,0,.04,0,.05,0,.02,0,.05,0,.07-.09,2.26.19,4.48.28,6.84.02.52.03,1.05.02,1.59,0,.04,0,.09,0,.13,0,.32-.02.64-.04.96,0,0,0,.01,0,.01-.16,2.38-.7,4.95-2.12,7.87-.04.08-.05.15-.04.21,0,.02,0,.04,0,.06,0,.02,0,.04,0,.07,0,.03,0,.05,0,.07-.17.84,2.5.88,4.12-.92,2.13-2.37,2.76-8.84,2.83-7.65.42,7.9,1.73,9.71,2.53,16.17.01.09.02.18.03.27.03.34.07.68.08,1,0,.08,0,.15.01.23,0,.18.01.36.01.54,0,.05,0,.1,0,.15-.03,1.68-.28,3.02-.36,4.14,0,.07,0,.13-.01.2,0,.08-.01.15-.01.23,0,.03,0,.05,0,.08,0,.02,0,.05,0,.07,0,0,0,.01,0,.02,0,0,0,.02,0,.03,0,.01,0,.02,0,.04-.04.86.06,1.58.5,2.22.99,1.46,1.33,1.34,3.75-1.26,1.7-1.83,2.78-3.52,3.87-4.88,2.13-2.64,3.28-5.25,3.47-10.69.02-.54.02-1.07.02-1.59,0-.02,0-.04,0-.05,0-.02,0-.03,0-.05,0-.01,0-.03,0-.04,0-.08,0-.15,0-.22,0-.08,0-.17,0-.25ZM47.99,213.46c-1.04,7.5-2.02,14.95-2.8,21.46-3.71,5.35-6.62,8.98-11.83,19.76-.02.05-.04.1-.06.15-.56,1.37-1.18,2.81-1.81,4.33.5-1.31,1.01-2.68,1.57-4.18.35-.93.71-1.89,1.08-2.9,6.66-17.98,7.77-33.89,8.03-35.8.12-.86.29-1.82.49-2.82.87-4.46,2.43-10.15,4.13-16.19,1.71-6.05,3.56-12.44,5.02-18.3.42-1.68,1.39-6.33,1.9-8.88.01-.03.03-.07.04-.1.06-.02.12,0,.17,0,.06.12.12.23.17.36.02.15.04.29.06.44,0,.2,0,.42.01.64-.93,5.99-3.7,24.12-6.18,42.02Zm99.81,41.37c-.02-.05-.04-.1-.06-.15-5.2-10.78-8.12-14.41-11.84-19.76-.78-6.51-1.77-13.96-2.81-21.45-2.55-18.44-5.42-37.12-6.25-42.53.13-.51.25-1.04.38-1.55.47,2.28,1.59,7.74,2.05,9.59,2.92,11.72,7.42,25.57,9.16,34.49.19,1,.36,1.96.48,2.82.27,1.91,1.37,17.82,8.04,35.8.37,1.01.73,1.97,1.07,2.9.52,1.39,1,2.66,1.46,3.89-.59-1.41-1.16-2.76-1.69-4.04Z"/>
  </g>
</svg>