<?xml version="1.0" encoding="UTF-8"?>
<svg id="_레이어_2" data-name="레이어 2" xmlns="http://www.w3.org/2000/svg" viewBox="0 0 181.09 572.09">
  <defs>
    <style>
      .cls-1 {
        fill: #f2a7a9;
        stroke: #221714;
        stroke-miterlimit: 10;
      }
    </style>
  </defs>
  <g id="_레이어_1-2" data-name="레이어 1">
    <path class="cls-1" d="m176.81,303.6c-.08-.53-.16-1.09-.24-1.71-.24-1.82-.31-3.13-.37-4.25-.07-.57-.07-1.12-.07-1.37h0v-.07c0-.55,0-.99-.05-1.42-.35-3.06-1.84-4.02-2.65-9.76-1.54-10.79-2.57-18.84-4-30.04,0-.1-.02-.2-.04-.3-.29-2.29-.6-4.71-.94-7.33-1.19-9.32-5.16-21.02-9.35-33.89-.04-.1-.07-.2-.1-.3-.24-.74-.48-1.48-.73-2.23-.43-1.33-1.34-11.48-1.7-16.81-.43-6.67-4.54-67.76-7.36-76.98-2.1-6.87-4.14-9.63-6.09-10.54h0s-1.59-.9-2.55-1.31c-.75-.32-1.56-.59-2.39-.84l-29.98-13.78h0c-.23-.46-.46-.94-.67-1.45-1.12-2.7-1.57-10.21-1.75-15.34,2.54-2.35,4.5-5.38,5.73-10.41.21-.83.45-1.81.68-2.85.02-.09.04-.18.06-.27.35.12.66.16.95.14,1.72-.15,2.41-2.68,2.86-4.09.08-.23.14-.44.21-.59.57-1.36,1.33-1.49,2.08-4.5.44-1.75-.17-2.98-.09-4.12h0s0-.05.01-.07c.01-.14.03-.28.07-.42.06-.22.11-.53.14-.9.08-1.1-.06-2.63-.89-3.26-.05-.04-.12-.07-.18-.1-.08-.03-.16-.06-.25-.08.92-3.52,1.66-8.28,1.52-13.17-.05-1.74-.21-3.49-.51-5.21-.36-2.07-.92-4.09-1.74-5.97-.19-.42-.38-.84-.57-1.24-1.37-2.82-2.99-5.15-4.69-7.05-3.7-4.53-9.38-7.78-15.94-8.85-1.47-.24-2.99-.36-4.54-.37-.04,0-.09,0-.13,0h-.01c-8.37,0-15.79,3.53-20.37,8.94-.08.1-.17.19-.25.28-.04.04-.08.09-.12.13-1.9,2.15-3.68,4.83-5.14,8.16-2.55,5.84-2.62,13-1.81,18.87.28,2.01.66,3.88,1.08,5.48-.14.04-.26.08-.37.15-.02.01-.04.02-.06.03-.02.02-.04.05-.07.07-.84.73-.92,2.45-.79,3.51.03.23.06.43.1.58.14.51.09,1.02.01,1.57-.1.68-.25,1.43-.15,2.32,0,.02,0,.03,0,.05.02.22.06.44.12.67.05.19.09.36.14.53.7,2.5,1.4,2.69,1.94,3.97.23.54.49,1.67.95,2.68.07.14.14.29.21.42.44.83,1.05,1.5,1.91,1.57.29.03.6-.01.95-.14.25,1.13.5,2.19.73,3.08,0,.01,0,.03,0,.04,0,0,0,.02,0,.03,1.22,4.96,3.15,7.97,5.64,10.3.03.03.05.05.08.08-.04,1.28-.11,2.71-.19,4.18-.06,1.1-.14,2.22-.23,3.32-.28,3.28-.7,6.32-1.33,7.84-.21.51-.44.99-.67,1.46l-29.98,13.78c-.84.25-1.65.52-2.39.84-.96.41-2.55,1.3-2.55,1.3h0c-1.95.92-3.99,3.68-6.09,10.55-2.82,9.22-6.93,70.31-7.36,76.98-.36,5.33-1.27,15.48-1.7,16.81-.25.75-.49,1.49-.73,2.23-.03.1-.06.2-.1.3-4.19,12.87-8.16,24.57-9.35,33.89-.34,2.62-.65,5.04-.94,7.33-.02.1-.03.2-.04.3-1.43,11.2-2.46,19.25-4,30.04-.81,5.74-2.3,6.7-2.65,9.76-.05.43-.05.87-.05,1.42v.3c-.01.94-.03,2.22-.29,4.27-.93,7.4-1.63,8.87-2.27,11.5-1.28,5.27-1.87,8.32-1.9,11.78,0,.49,0,.99.02,1.51.19,5.45,1.34,8.05,3.46,10.69,1.1,1.36,2.18,3.06,3.88,4.88,2.42,2.6,2.76,2.73,3.74,1.27.41-.6.52-1.27.51-2.06,0-1.24-.36-2.77-.4-4.78,0-.73.02-1.52.13-2.38.65-5.27,1.63-7.46,2.21-12.37,0-.02,0-.04,0-.06.13-1.09.23-2.31.31-3.74.07-1.2.69,5.27,2.83,7.64,1.6,1.78,4.25,1.76,4.13.95,0-.07,0-.14-.04-.21-1.87-3.86-2.22-7.12-2.17-10.14.04-2.18.29-4.24.32-6.29.03-1.64-.09-3.27-.55-4.98-.6-2.17-2.24-5.61-2.2-7.28,0-.03,0-.07.01-.1,0-.11.02-.23.03-.34.33-3.77,2.28-8.43,5.04-14.28,1.28-2.71,2.36-5.08,3.44-7.58,1.86-4.23,3.73-8.84,6.51-16.19.39-1.01.79-2.05,1.22-3.17.04-.1.07-.19.11-.3.34-.92.71-1.88,1.08-2.89,6.66-17.98,7.77-33.9,8.03-35.8.11-.78.26-1.63.43-2.52.02-.1.04-.2.06-.3.88-4.45,2.43-10.14,4.13-16.17,1.71-6.05,3.56-12.44,5.02-18.31.4-1.59,1.29-5.89,1.81-8.44.13-.32.24-.59.33-.77,1.97,9.28,3.77,24.71,2.8,37.2-.51,2.41-1.21,4.68-2.19,6.71-1.31,5.58-4.67,12.2-8.75,19.01-4.88,8.14-11.83,20.02-12.47,22.51-.02.05-.04.1-.06.15-3.76,9.12-9.52,21.16-9.75,41.37v.15c-.04,4.28.16,8.91.69,13.97,1.31,12.52,10.98,39.25,14.59,52.02,8.02,28.39,12.56,45.42,13.15,55.43.77,12.92-.99,16.96-2.56,24.79-3.05,15.21-.82,28.37,2.8,40.42,6.69,22.28,13.71,32.19,14.43,43.89.17,2.91-2.02,4.13-.81,7.83.63,1.92,1.69,3.76.08,8.04-5.46,14.48-12.57,18.28-11.73,23.57.93,5.86,20.64,5.49,28.36,4.17,6.35-1.09,6.26-10.06,4.43-20.34-.37-2.08-.56-4.4-.42-7.96.08-1.75.55-3.8.8-6.28.23-2.28-.43-4.69-.8-6.59-.27-1.45-.55-2.61-.6-3.22-1.7-22.38-1.17-27.75,1.65-48.79,2.85-21.26-1.15-25.08-.65-38.08.3-7.71,2.64-15.58,3.27-23.92.79-10.47-.3-20.35-1.41-27.79-3.06-20.58-3.04-23.9-4.03-40.16-1.07-17.66,4.59-26.31,1.36-41.54.75.26,2.58.36,4.4.37,1.82.02,3.65-.11,4.4-.37-3.23,15.23,2.43,23.88,1.36,41.54-.99,16.26-.97,19.58-4.03,40.16-1.11,7.44-2.19,17.32-1.4,27.79.62,8.34,2.96,16.21,3.26,23.92.5,13-3.5,16.82-.64,38.08,2.82,21.04,3.35,26.41,1.64,48.79-.05.61-.33,1.77-.6,3.22-.36,1.9-1.03,4.31-.8,6.59.25,2.48.73,4.53.8,6.28.14,3.56-.05,5.88-.42,7.96-1.83,10.28-1.91,19.25,4.44,20.34,7.71,1.32,27.42,1.69,28.35-4.17.84-5.29-6.26-9.09-11.72-23.57-1.62-4.28-.55-6.12.08-8.04,1.21-3.7-.99-4.92-.81-7.83.71-11.7,7.73-21.61,14.43-43.89,3.62-12.05,5.84-25.21,2.8-40.42-1.57-7.83-3.33-11.87-2.57-24.79.59-10.01,5.13-27.04,13.16-55.43,3.61-12.77,13.28-39.5,14.59-52.02.52-5.06.72-9.69.68-13.97v-.15c-.22-20.21-5.99-32.25-9.75-41.37-.02-.05-.04-.1-.06-.15-.63-2.49-7.58-14.37-12.46-22.51-4.09-6.81-7.45-13.43-8.76-19.01-.95-1.99-1.65-4.21-2.15-6.57-.96-12.1.58-26.91,2.47-36.19.13-.52.26-1.04.4-1.55.46,2.29,1.59,7.75,2.05,9.6,2.91,11.69,7.39,25.49,9.14,34.41.02.1.04.2.06.3.18.92.33,1.8.44,2.6.26,1.88,1.34,17.4,7.78,35.08.36,1,.72,1.95,1.07,2.89.12.33.23.64.35.95,5.28,14.14,7.44,19.05,11.2,27.01,2.74,5.81,4.68,10.46,5.03,14.21,0,.1.02.2.03.29,0,.07.02.14.02.21.04,1.66-1.59,5.1-2.2,7.28-.36,1.3-.5,2.56-.54,3.81-.1,2.84.38,5.63.31,8.72-.07,2.66-.55,5.55-2.16,8.88-.04.08-.05.15-.04.21-.12.81,2.53.83,4.13-.95,2.14-2.37,2.76-8.84,2.83-7.64.44,7.89,1.73,9.71,2.53,16.17.11.86.14,1.65.13,2.37-.03,1.99-.38,3.51-.4,4.75-.02.8.09,1.48.51,2.09.98,1.46,1.32,1.33,3.74-1.27,1.7-1.82,2.78-3.52,3.88-4.88,2.12-2.64,3.27-5.24,3.46-10.69.02-.52.02-1.02.02-1.51-.03-3.46-.62-6.52-1.9-11.78-.55-2.25-1.14-3.67-1.88-8.67Z"/>
  </g>
</svg>