<?xml version="1.0" encoding="UTF-8"?>
<svg id="_레이어_2" data-name="레이어 2" xmlns="http://www.w3.org/2000/svg" viewBox="0 0 181.09 572.16">
  <defs>
    <style>
      .cls-1 {
        fill: #f2a7a9;
        stroke: #221714;
        stroke-miterlimit: 10;
      }
    </style>
  </defs>
  <g id="_레이어_1-2" data-name="레이어 1">
    <path class="cls-1" d="m176.42,300.84c-.26-2.06-.28-3.34-.29-4.28v-.29c0-.55,0-.99-.05-1.42-.35-3.06-1.84-4.02-2.65-9.76-1.54-10.82-2.69-18.86-4.01-30.11-.01-.1-.02-.2-.04-.3-.29-2.27-.59-4.67-.93-7.26-1.2-9.34-5.18-21.06-9.38-33.96-.04-.1-.07-.2-.1-.3-.23-.72-.47-1.43-.7-2.16-.43-1.33-1.34-11.48-1.7-16.81-.43-6.67-4.54-67.76-7.36-76.98-2.1-6.87-4.14-9.63-6.09-10.54h0s-1.59-.9-2.55-1.31c-.69-.29-1.42-.54-2.18-.78l-30.16-13.87c-.24-.48-.48-.97-.7-1.5-1.12-2.7-1.57-10.21-1.75-15.34,2.54-2.35,4.48-5.38,5.73-10.41.22-.9.49-1.97.74-3.12,2.78.98,3.5-3.3,4.02-4.54.57-1.36,1.33-1.49,2.08-4.5.5-2-.37-3.32-.01-4.61.24-.87.35-3.32-.75-4.16-.12-.09-.27-.14-.43-.18,1.65-6.27,2.7-16.51-.73-24.35-1.49-3.39-3.32-6.12-5.26-8.29-4.56-5.57-12.1-9.22-20.62-9.22h-.01c-8.52,0-16.06,3.65-20.62,9.22-1.94,2.17-3.77,4.9-5.26,8.29-3.43,7.84-2.38,18.08-.73,24.35-.16.04-.31.09-.43.18-1.1.83-.99,3.29-.75,4.16.36,1.29-.51,2.61,0,4.61.75,3.01,1.51,3.14,2.08,4.5.52,1.24,1.24,5.52,4.02,4.54.25,1.15.51,2.22.74,3.12,1.26,5.02,3.19,8.06,5.73,10.41-.18,5.13-.63,12.64-1.75,15.34-.22.53-.45,1.02-.7,1.5l-30.16,13.86c-.76.23-1.5.48-2.18.78-.96.41-2.55,1.3-2.55,1.3h0c-1.95.92-3.99,3.68-6.09,10.55-2.82,9.22-6.93,70.31-7.36,76.98-.36,5.33-1.26,15.48-1.7,16.81-.25.75-.5,1.49-.73,2.23-.03.1-.06.21-.1.31-4.19,12.87-8.16,24.56-9.35,33.88-.34,2.62-.65,5.04-.94,7.33-.02.1-.03.21-.04.31-1.32,11.21-2.46,19.24-4,30.03-.81,5.74-2.3,6.7-2.65,9.76-.05.43-.05.87-.05,1.42,0,.24,0,.8-.07,1.37-.06,1.12-.12,2.43-.37,4.25-.86,6.53-1.52,7.97-2.12,10.45-1.45,5.98-2.02,9.11-1.88,13.22.19,5.45,1.34,8.05,3.46,10.69,1.1,1.36,2.18,3.06,3.88,4.88,2.42,2.6,2.76,2.73,3.74,1.27,1.29-1.91-.35-4.5.24-9.21.8-6.46,2.09-8.28,2.53-16.17.07-1.2.69,5.27,2.83,7.64,1.69,1.88,4.55,1.75,4.09.81-4.31-8.9-.54-14.6-2.4-21.41-.61-2.2-2.28-5.7-2.2-7.34,0-.07.02-.15.03-.22,0-.1.02-.2.03-.3.32-3.4,1.94-7.53,4.28-12.6-.6,3.88-1.01,8.13-1.04,12.82,0,.11,0,.2-.01.3-.02,4.28.17,8.91.73,13.96,1.37,12.52,11.56,39.26,15.36,52.03,8.45,28.39,13.23,45.42,13.85,55.42.81,12.93-1.05,16.97-2.7,24.8-3.21,15.21-.86,28.36,2.95,40.42,7.05,22.28,14.45,32.19,15.2,43.88.18,2.92-2.13,4.14-.86,7.83.67,1.93,1.79,3.77.09,8.05-5.75,14.48-13.23,18.27-12.35,23.56.98,5.86,21.74,5.5,29.86,4.18,6.69-1.09,6.6-10.06,4.67-20.34-.39-2.08-.59-4.4-.44-7.96.08-1.76.57-3.81.84-6.28.25-2.28-.46-4.69-.84-6.6-.29-1.44-.58-2.6-.63-3.21-1.8-22.38-1.24-27.75,1.73-48.79,3-21.27-1.21-25.08-.68-38.08.32-7.71,2.78-15.58,3.44-23.92.83-10.47-.31-20.36-1.48-27.8-3.22-20.57-3.2-23.89-4.25-40.15-1.12-17.66,4.84-26.32,1.44-41.55.78.27,2.72.36,4.63.38,1.92.02,3.85-.11,4.63-.38-3.39,15.23,2.57,23.89,1.44,41.55-1.04,16.26-1.03,19.58-4.25,40.15-1.16,7.44-2.31,17.33-1.48,27.8.66,8.34,3.13,16.21,3.44,23.92.53,13-3.68,16.81-.68,38.08,2.97,21.04,3.53,26.41,1.73,48.79-.05.61-.34,1.77-.63,3.21-.38,1.91-1.08,4.32-.84,6.6.26,2.47.76,4.52.84,6.28.15,3.56-.05,5.88-.44,7.96-1.93,10.28-2.02,19.25,4.67,20.34,8.12,1.32,28.88,1.68,29.86-4.18.88-5.29-6.6-9.08-12.35-23.56-1.7-4.28-.57-6.12.09-8.05,1.27-3.69-1.04-4.91-.85-7.83.75-11.69,8.14-21.6,15.19-43.88,3.82-12.06,6.16-25.21,2.95-40.42-1.65-7.83-3.51-11.87-2.7-24.8.62-10,5.4-27.03,13.85-55.42,3.8-12.77,13.99-39.51,15.37-52.03.55-5.05.74-9.68.72-13.96,0-.1,0-.19-.01-.3-.03-4.7-.44-8.96-1.04-12.85,2.36,5.11,4,9.27,4.3,12.7,0,.11.02.22.03.34,0,.05.02.1.02.15.06,1.65-1.59,5.12-2.2,7.31-1.86,6.81,1.91,12.51-2.4,21.41-.46.94,2.4,1.07,4.09-.81,2.14-2.37,2.76-8.84,2.83-7.64.44,7.89,1.73,9.71,2.53,16.17.59,4.71-1.05,7.3.24,9.21.98,1.46,1.32,1.33,3.74-1.27,1.7-1.82,2.78-3.52,3.88-4.88,2.12-2.64,3.27-5.24,3.46-10.69.14-4.11-.43-7.24-1.88-13.22-.64-2.63-1.34-4.1-2.27-11.5Zm-123.36-88.36c-.27,1.28-.69,2.65-1.19,4.08-1.8,5.08-4.75,10.79-7.76,15.68-.64.83-1.27,1.66-1.9,2.49-1.75,2.31-3.35,4.67-4.79,6.98,3.78-13.48,4.53-24.11,4.75-25.64.11-.78.26-1.63.43-2.52.02-.1.04-.2.06-.3.88-4.46,2.43-10.15,4.13-16.18,1.71-6.04,3.56-12.44,5.02-18.3.46-1.85,1.59-7.31,2.05-9.6.15.55.29,1.1.43,1.67,2.22,10.91,3.47,28.85-1.23,41.66Zm84.49,20.51c-.8-1.01-1.6-2.06-2.37-3.14-2.87-5.04-5.46-10.59-6.73-15.33-.13-.48-.25-.95-.34-1.41-4.73-13.05-3.5-31.4-1.28-42.37.13-.54.27-1.07.4-1.59.46,2.29,1.59,7.75,2.05,9.6,2.92,11.72,7.41,25.56,9.15,34.48.02.1.04.2.06.3.17.89.32,1.75.43,2.53.21,1.53.97,12.18,4.75,25.66-1.8-2.89-3.85-5.85-6.12-8.72Z"/>
  </g>
</svg>