<?xml version="1.0" encoding="UTF-8"?>
<svg id="_레이어_2" data-name="레이어 2" xmlns="http://www.w3.org/2000/svg" viewBox="0 0 181.09 571.64">
  <defs>
    <style>
      .cls-1 {
        fill: #f2a7a9;
        stroke: #221714;
        stroke-miterlimit: 10;
      }
    </style>
  </defs>
  <g id="_레이어_1-2" data-name="레이어 1">
    <path class="cls-1" d="m176.72,303.02c-.22-1.6-.33-2.93-.44-4.24-.15-1.14-.15-1.95-.15-2.44,0-.55,0-.99-.05-1.42-.36-3.06-1.84-4.02-2.66-9.76-1.54-10.79-2.64-18.82-3.99-30.02-.01-.11-.02-.21-.04-.32-.29-2.29-.6-4.71-.94-7.33-1.19-9.31-5.15-21.01-9.35-33.87-.04-.11-.07-.22-.11-.32-.24-.74-.48-1.48-.72-2.23-.43-1.33-1.35-11.48-1.7-16.82-.43-6.67-4.55-67.76-7.36-76.97-2.08-6.81-4.09-9.57-6.03-10.51h.24l-1.45-.67c-.47-.24-.99-.5-1.4-.68-.12-.05-.26-.09-.38-.14l-31.99-14.7v.08c-.23-.46-.46-.94-.67-1.45-1.11-2.7-1.56-10.21-1.74-15.34,2.54-2.35,4.49-5.38,5.73-10.41.22-.9.49-1.97.74-3.12,2.78.98,3.5-3.3,4.02-4.54.57-1.36,1.33-1.49,2.08-4.5.5-2-.37-3.32-.01-4.61.24-.87.35-3.32-.76-4.16-.11-.09-.27-.14-.43-.19,1.65-6.26,2.7-16.51-.73-24.34-1.49-3.39-3.32-6.13-5.26-8.29-4.56-5.57-12.1-9.22-20.62-9.22h-.01c-8.52,0-16.06,3.64-20.62,9.22-1.94,2.16-3.77,4.9-5.26,8.29-3.43,7.84-2.38,18.08-.73,24.34-.16.05-.31.09-.43.19-1.1.83-.99,3.29-.75,4.16.36,1.29-.51,2.6-.01,4.61.75,3.01,1.51,3.14,2.08,4.5.52,1.24,1.24,5.52,4.02,4.54.25,1.15.51,2.22.74,3.12,1.26,5.02,3.19,8.06,5.73,10.41-.18,5.13-.63,12.64-1.75,15.34-.21.51-.43.99-.67,1.45v-.07l-31.83,14.63c-.18.07-.37.14-.55.21-.42.18-.94.44-1.42.69l-1.43.66h.24c-1.93.94-3.95,3.7-6.03,10.51-2.82,9.21-6.93,70.31-7.36,76.97-.36,5.34-1.26,15.48-1.7,16.82-.23.7-.46,1.39-.68,2.08-.03.1-.06.2-.1.3-4.21,12.93-8.21,24.68-9.4,34.04-.33,2.56-.64,4.94-.92,7.19-.02.1-.03.19-.04.29-1.36,11.29-2.48,19.34-4.02,30.19-.81,5.74-2.3,6.7-2.65,9.76-.05.44-.05.88-.05,1.42v.28c0,.94-.03,2.22-.29,4.29-.93,7.39-1.63,8.86-2.27,11.5-1.45,5.98-2.02,9.1-1.88,13.22.19,5.44,1.34,8.05,3.46,10.69,1.1,1.36,2.18,3.06,3.88,4.88,2.42,2.6,2.76,2.72,3.74,1.26,1.29-1.91-.35-4.5.24-9.21.8-6.46,2.09-8.28,2.53-16.17.07-1.2.69,5.27,2.83,7.64,1.69,1.88,4.55,1.75,4.09.81-4.31-8.9-.54-14.6-2.4-21.41-.6-2.17-2.24-5.61-2.2-7.28,0-.05,0-.1.01-.14.01-.12.03-.25.04-.37.31-3.77,2.28-8.43,5.04-14.28,3.75-7.95,5.83-12.89,11.17-26.95.04-.1.07-.19.11-.29.35-.93.71-1.88,1.08-2.89,6.66-17.98,7.77-33.9,8.03-35.8.11-.77.26-1.63.43-2.52.02-.1.04-.21.06-.31.88-4.46,2.43-10.14,4.13-16.18,1.71-6.05,3.56-12.44,5.02-18.31.42-1.68,1.39-6.36,1.89-8.82.13-.04.24-.04.35,0,1.29,9.15,1.86,28.61-3.75,43.36-.01.06-.02.12-.03.17-1.14,6.02-2.09,11.89-3.88,18.9-.71,2.8-1.26,5.21-1.73,7.31-2.26,6.25-2.82,8.03-5.34,15.08-3.27,9.16-8.49,21.17-8.66,41.37v.15c-.03,4.23.15,8.82.61,13.81,1.17,12.52,9.82,39.26,13.04,52.03,7.18,28.39,11.23,45.42,11.76,55.42.68,12.93-.89,16.97-2.29,24.8-2.73,15.21-.74,28.36,2.5,40.42,5.98,22.28,12.26,32.19,12.9,43.88.15,2.92-1.81,4.14-.73,7.83.57,1.93,1.52,3.77.07,8.05-4.88,14.48-11.22,18.27-10.47,23.56.83,5.86,18.44,5.5,25.34,4.18,5.67-1.09,5.6-10.06,3.96-20.34-.33-2.08-.5-4.4-.37-7.96.06-1.76.49-3.81.71-6.28.21-2.28-.39-4.69-.71-6.6-.24-1.44-.5-2.6-.54-3.21-1.52-22.38-1.05-27.75,1.47-48.79,2.55-21.27-1.02-25.08-.57-38.08.26-7.71,2.35-15.58,2.91-23.92.71-10.47-.26-20.36-1.25-27.8-2.74-20.57-2.72-23.89-3.61-40.15-.95-17.66,4.11-26.32,1.22-41.55.67.27,2.31.37,3.93.38,1.63.01,3.27-.11,3.94-.38-2.89,15.23,2.17,23.89,1.21,41.55-.88,16.26-.87,19.58-3.6,40.15-.99,7.44-1.96,17.33-1.26,27.8.56,8.34,2.65,16.21,2.92,23.92.45,13-3.12,16.81-.58,38.08,2.53,21.04,3.16,26.42,1.48,48.79-.05.61-.3,1.77-.54,3.21-.32,1.91-.93,4.32-.72,6.6.22,2.47.65,4.52.72,6.28.13,3.56-.04,5.88-.37,7.96-1.64,10.28-1.72,19.25,3.96,20.34,6.89,1.32,24.51,1.68,25.34-4.18.75-5.29-5.6-9.08-10.48-23.56-1.44-4.28-.49-6.12.08-8.05,1.08-3.69-.89-4.91-.73-7.83.64-11.69,6.91-21.6,12.9-43.88,3.24-12.06,5.22-25.21,2.5-40.42-1.4-7.83-2.97-11.87-2.29-24.8.52-10,4.58-27.03,11.76-55.42,3.22-12.77,11.87-39.51,13.04-52.03.46-4.99.64-9.58.61-13.81v-.15c-.17-20.2-5.39-32.21-8.66-41.37-2.59-7.24-3.12-8.92-5.53-15.61-.41-1.84-.88-3.91-1.47-6.25-1.8-7.12-2.78-13.16-3.94-19.35,0-.05-.02-.11-.03-.16-5.44-14.56-5.19-33.51-3.96-42.69.13-.52.26-1.04.39-1.54.47,2.29,1.59,7.74,2.05,9.6,2.9,11.66,7.37,25.42,9.13,34.34.02.1.04.19.06.29.18.94.34,1.85.45,2.68.26,1.85,1.31,16.98,7.52,34.36.35.98.7,1.94,1.06,2.89.21.56.4,1.09.59,1.6,5.3,14.19,7.47,19.11,11.23,27.09,2.72,5.77,4.66,10.4,5.03,14.14,0,.1.02.19.03.29.01.09.03.2.03.3.09,1.65-1.59,5.15-2.19,7.34-1.86,6.81,1.91,12.51-2.4,21.41-.46.94,2.39,1.07,4.09-.81,2.14-2.37,2.76-8.84,2.83-7.64.44,7.89,1.73,9.71,2.53,16.17.59,4.71-1.06,7.31.23,9.21.99,1.46,1.33,1.33,3.75-1.26,1.7-1.82,2.78-3.52,3.88-4.88,2.12-2.64,3.27-5.24,3.46-10.69.14-4.12-.43-7.24-1.88-13.22-.57-2.33-1.19-3.74-1.97-9.4Z"/>
  </g>
</svg>