<?xml version="1.0" encoding="UTF-8"?>
<svg id="_레이어_2" data-name="레이어 2" xmlns="http://www.w3.org/2000/svg" viewBox="0 0 181.09 571.79">
  <defs>
    <style>
      .cls-1 {
        fill: #f2a7a9;
        stroke: #221714;
        stroke-miterlimit: 10;
      }
    </style>
  </defs>
  <g id="_레이어_1-2" data-name="레이어 1">
    <path class="cls-1" d="m3.98,336.18c1.1,1.36,2.18,3.06,3.88,4.88,2.42,2.6,2.76,2.73,3.74,1.27,1.29-1.91-.35-4.5.24-9.21.8-6.46,2.11-8.28,2.53-16.17.07-1.2.69,5.27,2.83,7.64,1.69,1.88,4.55,1.75,4.09.81-4.31-8.9-.54-14.6-2.4-21.41-.61-2.2-2.28-5.7-2.2-7.34,0-.05.01-.1.02-.15l.03-.3c.31-3.77,2.28-8.43,5.04-14.28,3.75-7.95,5.91-12.86,11.17-26.94.04-.1.07-.19.11-.3.35-.92.71-1.88,1.08-2.89,6.66-17.98,7.77-33.9,8.03-35.8.11-.78.26-1.64.43-2.53l.06-.3c1.74-8.92,6.23-22.76,9.15-34.48.46-1.85,1.59-7.31,2.05-9.6,3.41,12.9,7.39,33.26-1.27,44.38-.02.05-.03.1-.04.15-1.38,5.57-2.35,10.91-5.29,19.08-4.64,12.89-4.76,13.06-7.94,22.29-3.37,9.12-8.49,21.17-8.66,41.37v.15c-.03,4.23.15,8.82.61,13.81,1.17,12.52,9.82,39.26,13.04,52.03,7.18,28.39,11.23,45.42,11.76,55.42.68,12.93-.89,16.97-2.29,24.8-2.73,15.21-.74,28.36,2.5,40.42,5.98,22.28,12.26,32.19,12.9,43.88.15,2.92-1.81,4.14-.73,7.83.57,1.93,1.52,3.77.07,8.05-4.88,14.48-11.22,18.27-10.47,23.56.83,5.86,18.44,5.5,25.34,4.18,5.67-1.09,5.6-10.06,3.96-20.34-.33-2.08-.5-4.4-.37-7.96.06-1.76.49-3.81.71-6.28.21-2.28-.39-4.69-.71-6.6-.24-1.44-.5-2.6-.54-3.21-1.52-22.38-1.05-27.75,1.47-48.79,2.55-21.27-1.02-25.08-.57-38.08.26-7.71,2.35-15.58,2.91-23.92.71-10.47-.26-20.36-1.25-27.8-2.74-20.57-2.72-23.89-3.61-40.15-.95-17.66,4.11-26.32,1.22-41.55.67.27,2.31.37,3.93.38,1.63.01,3.27-.11,3.94-.38-2.89,15.23,2.17,23.89,1.21,41.55-.88,16.26-.87,19.58-3.6,40.15-.99,7.44-1.96,17.33-1.26,27.8.56,8.34,2.65,16.21,2.92,23.92.45,13-3.12,16.81-.58,38.08,2.53,21.04,3,26.41,1.48,48.79-.05.61-.3,1.77-.54,3.21-.32,1.91-.92,4.32-.72,6.6.23,2.47.65,4.52.72,6.28.13,3.56-.04,5.88-.37,7.96-1.64,10.28-1.72,19.25,3.96,20.34,6.89,1.32,24.51,1.68,25.34-4.18.75-5.29-5.6-9.08-10.48-23.56-1.44-4.28-.49-6.12.08-8.05,1.07-3.69-.89-4.91-.73-7.83.64-11.69,6.91-21.6,12.9-43.88,3.24-12.06,5.22-25.21,2.5-40.42-1.4-7.83-2.97-11.87-2.29-24.8.52-10,4.58-27.03,11.76-55.42,3.22-12.77,11.87-39.51,13.04-52.03.46-4.99.64-9.58.61-13.81v-.15c-.17-20.2-5.29-32.25-8.66-41.37-3.18-9.23-3.31-9.4-7.94-22.29-2.94-8.17-3.92-13.51-5.3-19.08-.01-.05-.02-.1-.04-.15-8.66-11.12-4.67-31.48-1.26-44.38.46,2.29,1.59,7.75,2.05,9.6,2.92,11.72,7.41,25.56,9.15,34.48l.06.3c.17.89.32,1.75.43,2.53.26,1.9,1.37,17.82,8.03,35.8.37,1.01.73,1.97,1.08,2.89.04.11.07.2.11.3,5.26,14.08,7.42,18.99,11.17,26.94,2.76,5.85,4.73,10.51,5.04,14.28l.03.3s.02.1.02.15c.08,1.64-1.59,5.14-2.2,7.34-1.86,6.81,1.91,12.51-2.4,21.41-.46.94,2.4,1.07,4.09-.81,2.14-2.37,2.76-8.84,2.83-7.64.42,7.89,1.73,9.71,2.53,16.17.59,4.71-1.05,7.3.24,9.21.98,1.46,1.32,1.33,3.74-1.27,1.7-1.82,2.78-3.52,3.88-4.88,2.12-2.64,3.27-5.24,3.46-10.69.14-4.11-.43-7.24-1.88-13.22-.64-2.63-1.34-4.1-2.27-11.5-.26-2.05-.28-3.33-.29-4.27v-.3c0-.55,0-.99-.05-1.42-.35-3.06-1.84-4.02-2.65-9.76-1.54-10.79-2.57-18.84-4-30.04-.01-.1-.02-.2-.04-.3-.29-2.29-.6-4.71-.94-7.33-1.19-9.32-5.16-21.02-9.35-33.89-.04-.1-.07-.2-.1-.3-.24-.74-.48-1.48-.73-2.23-.43-1.33-1.34-11.48-1.7-16.81-.43-6.67-4.54-67.76-7.36-76.98-2.02-6.61-3.98-9.41-5.87-10.42h.07l-.38-.17c-.33-.18-1.63-.9-2.47-1.25-.4-.17-.84-.32-1.27-.47l-31.1-14.3v.14c-.23-.46-.46-.94-.67-1.45-1.12-2.7-1.57-10.21-1.75-15.34,2.54-2.35,4.5-5.38,5.73-10.41.23-.9.49-1.97.74-3.12,2.78.98,3.5-3.3,4.02-4.54.57-1.36,1.33-1.49,2.08-4.5.5-2-.37-3.32-.01-4.61.24-.87.35-3.32-.75-4.16-.12-.09-.27-.14-.43-.18,1.65-6.27,2.7-16.51-.73-24.35-1.49-3.39-3.32-6.12-5.26-8.29-4.56-5.57-12.1-9.22-20.62-9.22h-.01c-8.52,0-16.06,3.65-20.62,9.22-1.94,2.17-3.77,4.9-5.26,8.29-3.43,7.84-2.38,18.08-.73,24.35-.16.04-.31.09-.43.18-1.1.84-.99,3.29-.75,4.16.36,1.29-.51,2.61-.01,4.61.75,3.01,1.51,3.14,2.08,4.5.52,1.24,1.24,5.52,4.02,4.54.25,1.15.51,2.22.74,3.12,1.23,5.03,3.19,8.06,5.73,10.41-.18,5.13-.63,12.64-1.75,15.34-.21.51-.43.99-.67,1.45v-.14l-31.1,14.3c-.43.15-.87.29-1.27.47-.83.35-2.13,1.07-2.47,1.25l-.38.17h.07c-1.88,1.01-3.85,3.81-5.87,10.42-2.82,9.22-6.93,70.31-7.36,76.98-.36,5.33-1.27,15.48-1.7,16.81-.25.75-.49,1.49-.73,2.23-.03.1-.06.2-.1.3-4.19,12.87-8.16,24.57-9.35,33.89-.34,2.62-.65,5.04-.94,7.33-.02.1-.03.2-.04.3-1.43,11.2-2.46,19.25-4,30.04-.81,5.74-2.3,6.7-2.65,9.76-.05.43-.05.87-.05,1.42v.3c-.01.94-.03,2.22-.29,4.27-.93,7.4-1.63,8.87-2.27,11.5-1.45,5.98-2.02,9.11-1.88,13.22.19,5.45,1.34,8.05,3.46,10.69Z"/>
  </g>
</svg>