<?xml version="1.0" encoding="UTF-8"?>
<svg id="_레이어_2" data-name="레이어 2" xmlns="http://www.w3.org/2000/svg" viewBox="0 0 181.09 572.08">
  <defs>
    <style>
      .cls-1 {
        fill: #f2a7a9;
        stroke: #221714;
        stroke-miterlimit: 10;
      }
    </style>
  </defs>
  <g id="_레이어_1-2" data-name="레이어 1">
    <path class="cls-1" d="m176.42,300.92c-.26-2.07-.28-3.35-.29-4.29v-.28c0-.55,0-.99-.05-1.42-.36-3.06-1.84-4.02-2.66-9.76-1.54-10.84-2.66-18.89-4.02-30.19-.01-.1-.02-.19-.04-.29-.28-2.25-.59-4.63-.92-7.19-1.2-9.36-5.19-21.11-9.41-34.04-.04-.1-.07-.2-.1-.3-.22-.69-.45-1.38-.68-2.08-.43-1.33-1.34-11.48-1.7-16.82-.44-6.67-4.55-67.76-7.37-76.97-2.1-6.88-4.13-9.63-6.09-10.54v-.02s-1.58-.89-2.55-1.3c-.73-.31-1.52-.57-2.34-.82l-29.93-13.76c-.27-.52-.53-1.06-.77-1.64-1.11-2.7-1.56-10.21-1.74-15.34,2.54-2.35,4.49-5.38,5.73-10.41.22-.9.49-1.97.74-3.12,2.78.98,3.5-3.3,4.02-4.54.57-1.36,1.33-1.49,2.08-4.5.5-2-.37-3.32-.01-4.61.24-.87.35-3.32-.76-4.16-.11-.09-.26-.14-.43-.19,1.65-6.26,2.7-16.51-.73-24.34-1.49-3.39-3.32-6.12-5.26-8.29-4.56-5.58-12.1-9.22-20.62-9.22h-.01c-8.52,0-16.06,3.65-20.61,9.22-1.94,2.16-3.77,4.9-5.26,8.29-3.43,7.84-2.38,18.08-.73,24.34-.16.05-.31.09-.43.19-1.1.84-.99,3.29-.75,4.16.36,1.29-.51,2.6-.01,4.61.75,3.01,1.51,3.14,2.08,4.5.52,1.24,1.24,5.52,4.02,4.54.25,1.15.51,2.22.74,3.12,1.26,5.02,3.19,8.06,5.73,10.41-.18,5.13-.63,12.64-1.75,15.34-.24.58-.5,1.12-.77,1.64l-29.92,13.75c-.82.25-1.62.51-2.35.82-.96.41-2.55,1.3-2.55,1.3v.02c-1.95.91-3.99,3.67-6.09,10.54-2.82,9.21-6.93,70.31-7.36,76.97-.36,5.34-1.26,15.48-1.7,16.82-.25.75-.49,1.49-.73,2.23-.03.11-.07.22-.11.32-4.19,12.86-8.15,24.55-9.34,33.87-.34,2.61-.65,5.03-.94,7.33-.02.11-.03.21-.04.32-1.36,11.2-2.46,19.23-4,30.02-.81,5.74-2.3,6.7-2.65,9.76-.05.44-.05.88-.05,1.42,0,.49,0,1.3-.15,2.44-.11,1.31-.22,2.63-.44,4.23-.79,5.66-1.4,7.07-1.97,9.4-1.45,5.98-2.02,9.1-1.88,13.22.19,5.44,1.34,8.05,3.46,10.69,1.1,1.36,2.18,3.06,3.88,4.88,2.42,2.6,2.76,2.72,3.74,1.26,1.29-1.91-.35-4.5.24-9.21.8-6.46,2.09-8.28,2.53-16.17.07-1.2.69,5.27,2.83,7.64,1.69,1.88,4.55,1.75,4.09.81-4.31-8.9-.54-14.6-2.4-21.41-.61-2.2-2.28-5.7-2.2-7.34,0-.1.03-.2.04-.3,0-.1.02-.19.03-.29.33-3.38,1.94-7.47,4.25-12.48-.58,3.82-.98,8.01-1.01,12.62,0,.1,0,.19-.01.29-.02,4.28.17,8.91.73,13.97,1.37,12.52,11.56,39.26,15.36,52.03,8.45,28.38,13.23,45.41,13.85,55.42.81,12.92-1.05,16.97-2.7,24.79-3.21,15.21-.86,28.37,2.95,40.42,7.05,22.28,14.45,32.19,15.2,43.89.18,2.91-2.14,4.14-.86,7.83.67,1.92,1.79,3.76.09,8.04-5.75,14.48-13.23,18.28-12.35,23.57.98,5.86,21.74,5.49,29.86,4.17,6.69-1.09,6.6-10.06,4.67-20.34-.39-2.07-.59-4.4-.44-7.96.08-1.75.57-3.8.84-6.28.24-2.28-.46-4.68-.84-6.59-.29-1.45-.58-2.61-.63-3.21-1.8-22.39-1.24-27.76,1.73-48.8,3-21.26-1.21-25.08-.68-38.08.32-7.7,2.78-15.58,3.44-23.92.83-10.47-.31-20.35-1.48-27.79-3.22-20.57-3.2-23.89-4.25-40.16-1.12-17.66,4.84-26.31,1.44-41.54.78.26,2.72.35,4.63.37,1.91.02,3.85-.11,4.63-.37-3.4,15.23,2.56,23.88,1.44,41.54-1.05,16.27-1.03,19.59-4.25,40.16-1.17,7.44-2.31,17.32-1.48,27.79.66,8.34,3.12,16.22,3.44,23.92.53,13-3.68,16.82-.68,38.08,2.97,21.04,3.53,26.41,1.73,48.8-.05.6-.34,1.76-.63,3.21-.38,1.91-1.09,4.31-.84,6.59.26,2.48.76,4.53.84,6.28.15,3.56-.05,5.89-.44,7.96-1.93,10.28-2.02,19.25,4.67,20.34,8.12,1.32,28.88,1.69,29.86-4.17.88-5.29-6.6-9.09-12.35-23.57-1.7-4.28-.58-6.12.09-8.04,1.27-3.69-1.04-4.92-.86-7.83.75-11.7,8.15-21.61,15.2-43.89,3.81-12.05,6.16-25.21,2.95-40.42-1.65-7.82-3.51-11.87-2.7-24.79.62-10.01,5.4-27.04,13.85-55.42,3.8-12.77,13.99-39.51,15.37-52.03.55-5.06.74-9.69.72-13.97,0-.1,0-.19-.01-.29-.03-4.61-.43-8.78-1-12.6,2.34,5.07,3.98,9.2,4.25,12.6.01.12.03.25.03.37,0,.05.01.09.01.14.04,1.67-1.6,5.11-2.2,7.28-1.86,6.81,1.91,12.51-2.4,21.41-.46.94,2.39,1.07,4.09-.81,2.14-2.37,2.76-8.84,2.83-7.64.44,7.89,1.73,9.71,2.53,16.17.59,4.71-1.06,7.31.23,9.21.98,1.46,1.33,1.33,3.74-1.26,1.7-1.82,2.78-3.52,3.88-4.88,2.12-2.64,3.28-5.24,3.47-10.69.14-4.12-.43-7.24-1.88-13.22-.64-2.64-1.34-4.11-2.27-11.5Zm-121.93-114.44c-.05,2.09-.11,4.26-.22,6.46-.34,6.29-1.12,12.83-2.87,18.73-.41,1.38-.88,2.72-1.41,4.02-.01.05-.02.11-.03.16-.98,3.16-1.93,6.16-2.97,9.18-.7,1.16-1.43,2.35-2.24,3.61-1.16,1.8-2.28,3.52-3.41,5.25-1.27,1.94-2.3,3.58-3.18,5.07,3-11.59,3.75-20.58,3.98-22.57.02-.18.04-.33.06-.46.1-.71.24-1.48.39-2.29.02-.11.04-.22.07-.34.88-4.46,2.43-10.15,4.13-16.19,1.71-6.05,3.56-12.44,5.02-18.3.46-1.85,1.59-7.31,2.05-9.6.13.49.25.99.38,1.49.36,3.6.41,9.24.25,15.77Zm83.64,44.93c-2.74-4.18-4.51-7.1-6.33-10.53-.31-2.38-.65-4.9-1-7.43-5.61-14.78-5.05-34.3-3.76-43.46.29.89.92,3.35,1.21,4.03,1.69,7,4.39,16.67,5.6,22.04,1.34,5.94,3.74,12.88,4.61,17.4.18.94.34,1.85.46,2.68.2,1.42.87,10.71,4,22.8-1.22-2.03-2.72-4.36-4.79-7.52Z"/>
  </g>
</svg>