<?xml version="1.0" encoding="UTF-8"?>
<svg id="_레이어_2" data-name="레이어 2" xmlns="http://www.w3.org/2000/svg" viewBox="0 0 181.09 572.23">
  <defs>
    <style>
      .cls-1 {
        fill: #f2a7a9;
        stroke: #221714;
        stroke-miterlimit: 10;
      }
    </style>
  </defs>
  <g id="_레이어_1-2" data-name="레이어 1">
    <path class="cls-1" d="m3.98,336.18c1.1,1.36,2.18,3.06,3.88,4.88,2.42,2.6,2.76,2.73,3.74,1.27,1.29-1.91-.35-4.5.24-9.21.8-6.46,2.11-8.28,2.53-16.17.07-1.2.69,5.27,2.83,7.64,1.69,1.88,4.55,1.75,4.09.81-4.31-8.9-.54-14.6-2.4-21.41-.61-2.2-2.28-5.7-2.2-7.34,0-.05.01-.1.02-.15.01-.1.02-.2.03-.3.28-3.44,1.95-7.62,4.33-12.77-.62,3.94-1.01,8.28-1.07,13.07,0,.1-.01.19-.01.29-.04,4.28.17,8.91.73,13.97,1.37,12.52,11.56,39.26,15.36,52.03,8.45,28.38,13.23,45.41,13.85,55.42.81,12.92-1.05,16.97-2.7,24.79-3.21,15.21-.86,28.37,2.95,40.42,7.05,22.28,14.45,32.19,15.2,43.89.18,2.91-2.13,4.14-.86,7.83.67,1.92,1.79,3.76.09,8.04-5.75,14.48-13.23,18.28-12.35,23.57.98,5.86,21.74,5.49,29.86,4.17,6.69-1.09,6.6-10.06,4.67-20.34-.39-2.07-.59-4.4-.44-7.96.08-1.75.58-3.8.84-6.28.25-2.28-.46-4.68-.84-6.59-.29-1.45-.58-2.61-.63-3.21-1.8-22.39-1.24-27.76,1.73-48.8,3-21.26-1.21-25.08-.68-38.08.32-7.7,2.78-15.58,3.44-23.92.83-10.47-.31-20.35-1.48-27.79-3.22-20.57-3.2-23.89-4.25-40.16-1.12-17.66,4.84-26.31,1.44-41.54.78.26,2.72.38,4.63.37,1.91,0,3.85-.11,4.63-.37-3.4,15.23,2.56,23.88,1.44,41.54-1.05,16.27-1.03,19.59-4.25,40.16-1.17,7.44-2.31,17.32-1.48,27.79.66,8.34,3.12,16.22,3.44,23.92.53,13-3.68,16.82-.68,38.08,2.97,21.04,3.53,26.41,1.73,48.8-.05.6-.34,1.76-.63,3.21-.38,1.91-1.09,4.31-.84,6.59.26,2.48.76,4.53.84,6.28.15,3.56-.05,5.89-.44,7.96-1.93,10.28-2.02,19.25,4.67,20.34,8.12,1.32,28.88,1.69,29.86-4.17.88-5.29-6.6-9.09-12.35-23.57-1.7-4.28-.58-6.12.09-8.04,1.27-3.69-1.04-4.92-.86-7.83.75-11.7,8.15-21.61,15.2-43.89,3.81-12.05,6.16-25.21,2.95-40.42-1.65-7.82-3.51-11.87-2.7-24.79.62-10.01,5.4-27.04,13.85-55.42,3.8-12.77,13.99-39.51,15.36-52.03.56-5.06.77-9.69.73-13.97,0-.1-.01-.19-.01-.29-.06-4.78-.45-9.1-1.06-13.03,2.37,5.13,4.03,9.3,4.31,12.73.01.1.02.2.03.3.01.05.02.1.02.15.08,1.64-1.59,5.14-2.2,7.34-1.86,6.81,1.91,12.51-2.4,21.41-.46.94,2.4,1.07,4.09-.81,2.14-2.37,2.76-8.84,2.83-7.64.42,7.89,1.73,9.71,2.53,16.17.59,4.71-1.05,7.3.24,9.21.98,1.46,1.32,1.33,3.74-1.27,1.7-1.82,2.78-3.52,3.88-4.88,2.12-2.64,3.27-5.24,3.46-10.69.14-4.11-.43-7.24-1.88-13.22-.64-2.63-1.34-4.1-2.27-11.5-.26-2.05-.28-3.33-.29-4.27v-.3c0-.55,0-.99-.05-1.42-.35-3.06-1.84-4.02-2.65-9.76-1.54-10.79-2.57-18.84-4-30.04-.01-.1-.02-.2-.04-.3-.29-2.29-.6-4.71-.94-7.33-1.19-9.32-5.16-21.02-9.35-33.89-.04-.1-.07-.2-.1-.3-.24-.74-.48-1.48-.73-2.23-.43-1.33-1.34-11.48-1.7-16.81-.43-6.67-4.54-67.76-7.36-76.98-2.1-6.87-4.14-9.63-6.09-10.54h0s-1.59-.9-2.55-1.31c-.87-.37-1.83-.67-2.81-.95l-29.5-13.56c-.25-.5-.5-1.01-.72-1.56-1.12-2.7-1.57-10.21-1.75-15.34,2.54-2.35,4.5-5.38,5.73-10.41.23-.9.49-1.97.74-3.12,2.78.98,3.5-3.3,4.02-4.54.57-1.36,1.33-1.49,2.08-4.5.5-2-.37-3.32-.01-4.61.24-.87.35-3.32-.75-4.16-.12-.09-.27-.14-.43-.18,1.65-6.27,2.7-16.51-.73-24.35-1.49-3.39-3.32-6.12-5.26-8.29-4.56-5.57-12.1-9.22-20.62-9.22h-.01c-8.52,0-16.06,3.65-20.62,9.22-1.94,2.17-3.77,4.9-5.26,8.29-3.43,7.84-2.38,18.08-.73,24.35-.16.04-.31.09-.43.18-1.1.84-.99,3.29-.75,4.16.36,1.29-.51,2.61-.01,4.61.75,3.01,1.51,3.14,2.08,4.5.52,1.24,1.24,5.52,4.02,4.54.25,1.15.51,2.22.74,3.12,1.23,5.03,3.19,8.06,5.73,10.41-.18,5.13-.63,12.64-1.75,15.34-.23.55-.47,1.06-.72,1.56l-29.5,13.56c-.99.28-1.94.58-2.81.95-.96.41-2.55,1.3-2.55,1.3h0c-1.95.92-3.99,3.68-6.09,10.55-2.82,9.22-6.93,70.31-7.36,76.98-.36,5.33-1.27,15.48-1.7,16.81-.25.75-.49,1.49-.73,2.23-.03.1-.06.2-.1.3-4.19,12.87-8.16,24.57-9.35,33.89-.34,2.62-.65,5.04-.94,7.33-.02.1-.03.2-.04.3-1.43,11.2-2.46,19.25-4,30.04-.81,5.74-2.3,6.7-2.65,9.76-.05.43-.05.87-.05,1.42v.3c-.01.94-.03,2.22-.29,4.27-.93,7.4-1.63,8.87-2.27,11.5-1.45,5.98-2.02,9.11-1.88,13.22.19,5.45,1.34,8.05,3.46,10.69Zm123.25-167.1c.46,2.29,1.59,7.75,2.05,9.6,2.92,11.72,7.41,25.56,9.15,34.48.02.1.04.2.06.3.17.89.32,1.75.43,2.53.18,1.33.78,9.58,3.43,20.59-.89-1.56-1.97-3.31-3.31-5.35-4.7-7.17-7.53-11.87-10.5-17.62-.01-.05-.02-.1-.04-.15-8.66-11.12-4.68-31.48-1.27-44.38Zm-85.06,46.91c.11-.78.26-1.64.43-2.53.02-.1.04-.2.06-.3.87-4.46,2.43-10.15,4.13-16.19,1.71-6.04,3.56-12.43,5.02-18.29.46-1.85,1.59-7.31,2.05-9.6,1.7,6.45,3.55,14.76,3.89,22.86.34,8.09-.83,15.96-5.15,21.52-.02.05-.03.1-.04.15-1.49,2.88-2.94,5.49-4.61,8.28-1.67,2.79-3.55,5.76-5.9,9.34-1.35,2.05-2.43,3.81-3.32,5.38,2.66-11.03,3.26-19.29,3.44-20.62Z"/>
  </g>
</svg>