<?xml version="1.0" encoding="UTF-8"?>
<svg id="_레이어_2" data-name="레이어 2" xmlns="http://www.w3.org/2000/svg" viewBox="0 0 192.34 572.08">
  <defs>
    <style>
      .cls-1 {
        fill: #f3a9aa;
        stroke: #231815;
        stroke-miterlimit: 10;
      }
    </style>
  </defs>
  <g id="_레이어_1-2" data-name="레이어 1">
    <path class="cls-1" d="m54,191.34c.04-.77-.25.05-.24-.88.05-2.9-.55-4.46-1.32-2.6-.13-.03-.26-.08-.39-.11-.6,2.45-1.51,6.39-1.98,8.39-.01.05-.02.1-.04.16-.23.97-.44,1.94-.66,2.86-.71,2.99-1.71,8.13-3.24,14.23-1.27,5.07-2.74,10.27-3.98,15.08-.23.89-.42,1.76-.63,2.58-.35,1.37-.82,3.74-1.59,6.79-.27,1.04-.56,2.11-.87,3.2-.01.05-.03.1-.04.15-2.51,8.24-4.73,15.33-7.8,22.52-.39.91-.77,1.79-1.16,2.66-.71,1.63-1.41,3.2-2.11,4.75-2.96,6.62-5,11.2-6.23,15.31-.02.05-.03.1-.05.15-.03.1-.06.2-.09.29-.44,1.39-.47,3.2-.59,5.03-.06.95-.13,1.86-.24,2.69-.56,4.05-1.62,7.56-1.84,10.92-.01.13-.03.27-.03.41-.09,1.85.86,4.67,1.5,6.95.43,1.5.8,2.99,1.1,4.54.28,1.45-1.42,2.42-2.34,2.61-1.2.25-1.05-1.31-.36,1.37.35,1.33-1.39,2.16-2.38,1.86-1.34.26-1.99-2-2.25-.2-.24,1.67-.42,3.2-.65,4.77-.63,4.36-.14,6.81-1.21,10.12-.65,2-.7,2.88-1.9,2.34-.3.28-.6.43-1.21.52-.86.14-1.4-.26-2.61-1.52-.26-.27-.52-.56-.8-.87-1.46-1.63-2.38-3.26-3.26-4.93-.74-1.42-1.36-2.9-1.7-4.83-.3-1.69-.4-3.44-.32-5.54.1-2.67.54-5.17,1.39-8.67.28-1.16.6-2.27.95-3.64.52-2.01,1.09-3.86,1.78-8.66.1-.74.19-1.46.27-2.18.12-1.07.15-1.89.17-2.56,0-.04,0-.15,0-.18.01-.6.02-1.08.04-1.52.03-.49.07-.91.14-1.31.49-2.64,1.9-3.83,2.71-9.16,1.65-10.87,2.73-18.94,4.28-30.26,0-.05.01-.1.02-.15.31-2.28.63-4.67.99-7.26,1.27-9.37,5.53-21.16,10.02-34.11.01-.05.03-.1.05-.15.25-.72.49-1.43.74-2.16.46-1.34,1.43-11.48,1.81-16.82.46-6.67,4.83-67.75,7.83-76.97,2.23-6.88,4.4-9.63,6.47-10.54v-.02s1.69-.89,2.71-1.3c2.94-1.18,6.62-1.78,10.5-2.48,3.66-.66,9.73-1.41,13.33-2.8,5.33-2.05,9.73-4.61,12.37-11.01,1.12-2.7,1.57-10.21,1.75-15.34-2.54-2.35-4.5-5.38-5.74-10.41-.22-.9-.48-1.97-.73-3.12-2.78.98-3.51-3.3-4.02-4.54-.57-1.37-1.32-1.5-2.08-4.5-.51-2.01.37-3.32.01-4.61-.24-.87-.35-3.32.75-4.16.12-.09.27-.14.43-.18-1.65-6.26-2.7-16.51.73-24.34,1.49-3.39,3.32-6.12,5.25-8.29,4.57-5.58,12.1-9.22,20.63-9.22s16.06,3.64,20.63,9.22c1.93,2.17,3.76,4.9,5.25,8.29,3.43,7.84,2.38,18.08.73,24.34.16.05.31.09.43.18,1.1.83.99,3.29.75,4.16-.36,1.29.52,2.6,0,4.61-.76,3-1.51,3.13-2.08,4.5-.51,1.24-1.24,5.52-4.02,4.54-.25,1.15-.51,2.22-.73,3.12-1.24,5.03-3.2,8.06-5.74,10.41.18,5.13.63,12.64,1.75,15.34,2.64,6.4,7.04,8.96,12.37,11.01,3.47,1.34,9.23,2.08,12.93,2.73.28.05.54.1.8.14,3.73.66,7.26,1.27,10.1,2.41,1.02.41,2.71,1.3,2.71,1.3v.02c2.07.91,4.24,3.66,6.47,10.54,3,9.22,7.37,70.3,7.83,76.97.38,5.34,1.35,15.48,1.81,16.82.26.75.51,1.49.77,2.23.02.05.04.11.05.16,4.48,12.93,8.72,24.68,9.99,34.03.36,2.61.69,5.03,1,7.33,0,.05.02.11.02.16,1.54,11.28,2.63,19.34,4.27,30.18.87,5.74,2.43,6.71,2.82,9.76.06.44.06.88.06,1.42,0,.49,0,1.22.15,2.36.12,1.35.24,2.71.48,4.38.83,5.61,1.49,7.01,2.09,9.33,1.54,5.98,2.15,9.1,2,13.22-.2,5.45-1.43,8.05-3.69,10.69-1.16,1.36-2.31,3.06-4.12,4.88-2.57,2.6-2.93,2.72-3.98,1.26-1.37-1.9.38-4.51-.25-9.21-.85-6.46-2.24-8.27-2.69-16.17-.07-1.19-.74,5.28-3.01,7.65-1.8,1.88-4.83,1.75-4.34.81,4.58-8.9.56-14.6,2.55-21.41.64-2.2,2.42-5.7,2.33-7.35,0-.11-.02-.25-.04-.37,0-.04,0-.09-.02-.13-.35-3.76-2.44-8.41-5.35-14.22-4.01-8-6.31-12.92-11.96-27.17-.2-.49-.4-.99-.6-1.53-.38-.94-.75-1.91-1.12-2.88-6.6-17.38-7.73-32.51-8-34.36-.12-.84-.3-1.78-.49-2.75,0-.05-.02-.09-.03-.14-.93-4.46-2.59-10.13-4.4-16.15-1.82-6.04-3.78-12.42-5.33-18.27-.49-1.85-1.69-7.31-2.18-9.59-.14.51-.28,1.03-.42,1.55-1.44,9.32-3.51,30.13-1,42.6,0,0,0,0,0,0,.97,5.71,2.49,12.32,4.29,19.63,1.55,6.29,2.35,11.8,3.02,15.96.46,2.81.72,4.66.72,5.48.07.49.15.98.23,1.45.01.06.02.11.03.17.15,1.03.32,1.99.51,2.87,2.82,8.62,6.3,19.94,6.39,37.33,0,.1,0,.19.01.29.01,4.28-.13,8.91-.54,13.96-1.03,12.52-8.65,39.26-11.49,52.03-6.33,28.39-9.9,45.42-10.37,55.42-.6,12.93.79,16.97,2.03,24.8,2.39,15.21.64,28.36-2.21,40.42-5.27,22.28-10.83,32.19-11.37,43.88-.14,2.92,1.59,4.14.64,7.83-.49,1.93-1.33,3.77-.06,8.05,4.3,14.48,9.89,18.27,9.23,23.56-.73,5.86-16.25,5.5-22.33,4.18-5-1.09-4.93-10.06-3.49-20.34.29-2.08.44-4.4.33-7.96-.06-1.76-.43-3.81-.63-6.28-.18-2.28.35-4.69.63-6.6.21-1.44.43-2.6.47-3.21,1.4-22.38.93-27.75-1.3-48.79-2.24-21.27.91-25.08.51-38.08-.23-7.71-2.07-15.58-2.57-23.93-.62-10.46.24-20.35,1.11-27.79,2.41-20.57,2.39-23.89,3.17-40.15.85-17.66-3.61-26.32-1.07-41.55-.59.27-2.03.38-3.46.38-1.44,0-2.88-.11-3.47-.38,2.54,15.23-1.92,23.89-1.07,41.55.78,16.26.76,19.58,3.17,40.15.88,7.44,1.73,17.33,1.11,27.79-.49,8.35-2.34,16.22-2.57,23.93-.4,13,2.75,16.81.51,38.08-2.22,21.04-2.7,26.41-1.3,48.79.04.61.26,1.77.48,3.21.29,1.91.8,4.32.62,6.6-.2,2.47-.57,4.52-.62,6.28-.11,3.56.03,5.88.32,7.96,1.45,10.28,1.51,19.25-3.49,20.34-6.07,1.32-21.6,1.68-22.33-4.18-.66-5.29,4.93-9.08,9.23-23.56,1.28-4.28.44-6.12-.06-8.05-.95-3.69.78-4.91.64-7.83-.56-11.69-6.09-21.6-11.37-43.88-2.85-12.06-4.6-25.21-2.2-40.42,1.16-7.36,2.45-11.36,2.09-22.66-.05-1.43-.14-2.99-.28-4.71-.79-9.33-3.74-23.83-8.64-46.03-.94-4.24-2.18-9.42-3.51-15.01-2.38-9.86-5.8-22.88-7.34-32.51-.72-4.47-1.17-8.72-1.53-12.63,0-.1-.01-.19-.02-.28-.42-4.62-.56-8.78-.43-12.32.18-5.76.7-10.79,1.38-15.26.02-.11.04-.22.06-.34.59-3.7,1.28-7.01,1.91-10.04,0,0,0,0,0,0,.01-.05.02-.11.03-.16.09-.45.19-.9.28-1.34.34-3.57,1.79-10.2,5.36-19.49,1.09-2.85,2.06-5.48,2.97-7.91,0,0,0,0,0,0,.86-2.91,1.47-6.26,1.79-9.91,1.18-8.72-2.83-28.98-3.83-40.91Z"/>
  </g>
</svg>