<?xml version="1.0" encoding="UTF-8"?>
<svg id="_레이어_2" data-name="레이어 2" xmlns="http://www.w3.org/2000/svg" viewBox="0 0 192.38 572.16">
  <defs>
    <style>
      .cls-1 {
        fill: #f3a9aa;
        stroke: #231815;
        stroke-miterlimit: 10;
      }
    </style>
  </defs>
  <g id="_레이어_1-2" data-name="레이어 1">
    <path class="cls-1" d="m52.48,202.4c.3-2.29.44-3.79.73-6.12,1.1-8.57,1.85-15.67,1.81-16.89-.14-.27-.26-.56-.4-.83-.55,2.36-1.6,7.06-2.08,8.99-.01.05-.03.11-.04.16-.25.99-.49,1.98-.74,2.96-1.04,3.97-2.33,9.13-3.85,14.66s-3.12,11-4.19,15.63c-.22.94-.4,1.86-.57,2.7-.22,1.04-.56,3.58-1.28,7.13-.21,1.06-.46,2.18-.73,3.36-.01.05-.02.1-.03.15-1.83,7.4-4,15.33-7.38,23.6-.39.96-.78,1.88-1.15,2.78-.73,1.76-1.42,3.41-2.1,4.98-2.98,7.02-4.99,11.55-6.67,15.83-.02.05-.04.1-.06.15-.04.1-.08.2-.11.29-.62,1.54-1.06,3.29-1.59,5.14-.28.96-.54,1.89-.82,2.76-1.38,4.3-2.66,7.93-2.9,11.18-.02.14-.03.29-.04.42-.1,1.75,1.27,4.91,1.92,7.15.46,1.61.72,3.17.85,4.77.14,1.71-.88,3.2-1.34,4.31-.69,1.69-.31,2.5.97,5.87.43,1.13-1.9,1.52-3.36.53-1.73-1.17-2.48-5.42-2.63-3.93-.19,1.87-.36,3.46-.58,4.96-.62,4.19-.82,6.53-1.69,10.57-.48,2.26-.35,3.65-.85,4.15-.07.81-.2,1.4-.82,1.89-.89.7-1.35.55-2.84-.94-.26-.26-.54-.56-.85-.89-1.63-1.73-2.66-3.4-3.69-4.91s-1.77-2.9-2.24-4.81c-.4-1.62-.6-3.44-.61-5.72,0-2.9.38-5.42,1.21-8.99.27-1.17.59-2.36.96-3.78.56-2.17,1.17-3.81,1.94-8.92.11-.72.21-1.47.3-2.24.13-1.09.19-1.95.22-2.65,0-.05,0-.14,0-.19.02-.63.02-1.13.04-1.57.02-.52.04-.95.1-1.37.44-2.84,1.92-3.92,2.76-9.46,1.65-10.88,2.74-18.95,4.29-30.3,0-.05.01-.1.02-.14.31-2.27.63-4.65.99-7.22,1.28-9.38,5.54-21.18,10.04-34.15.02-.05.03-.1.05-.15.25-.7.48-1.41.73-2.12.46-1.34,1.43-11.48,1.81-16.82.46-6.67,4.83-67.76,7.83-76.97,2.23-6.88,4.4-9.63,6.47-10.54v-.02s1.69-.89,2.71-1.3c2.99-1.2,6.75-1.81,10.71-2.51,3.66-.66,9.52-1.41,13.12-2.8,5.33-2.05,9.73-4.61,12.37-11.01,1.12-2.7,1.57-10.21,1.75-15.34-2.54-2.35-4.5-5.38-5.74-10.41-.22-.9-.48-1.98-.73-3.12-2.78.98-3.51-3.3-4.02-4.54-.57-1.37-1.32-1.5-2.08-4.5-.51-2.01.37-3.32,0-4.61-.24-.87-.35-3.33.75-4.16.12-.09.27-.14.43-.19-1.65-6.26-2.7-16.5.73-24.34,1.49-3.39,3.32-6.13,5.25-8.29,4.57-5.58,12.1-9.22,20.63-9.22s16.06,3.64,20.63,9.22c1.93,2.16,3.76,4.9,5.25,8.29,3.43,7.84,2.38,18.08.73,24.34.16.05.31.1.43.19,1.1.83.99,3.29.75,4.16-.36,1.29.52,2.6,0,4.61-.76,3-1.51,3.13-2.08,4.5-.51,1.24-1.24,5.52-4.02,4.54-.25,1.14-.51,2.22-.73,3.12-1.24,5.03-3.2,8.06-5.74,10.41.18,5.13.63,12.64,1.75,15.34,2.64,6.4,7.04,8.96,12.37,11.01,3.54,1.37,9.24,2.11,12.92,2.76.27.05.54.09.81.14,3.74.65,7.26,1.27,10.11,2.41,1.02.41,2.71,1.3,2.71,1.3v.02c2.07.91,4.24,3.66,6.47,10.54,3,9.21,7.37,70.3,7.83,76.97.38,5.34,1.35,15.48,1.81,16.82.26.75.51,1.49.77,2.23.02.06.04.11.06.17,4.48,12.92,8.72,24.67,9.99,34.02.36,2.61.69,5.03,1,7.33,0,.05.02.11.02.16,1.54,11.27,2.63,19.33,4.27,30.17.87,5.75,2.43,6.71,2.82,9.76.06.44.06.88.06,1.43,0,.73,0,1.76.23,3.47.17,1.55.34,2.93.57,4.35.76,4.71,1.36,6.08,1.92,8.25,1.54,5.98,2.15,9.1,2,13.22-.2,5.44-1.43,8.05-3.69,10.69-1.16,1.36-2.31,3.05-4.12,4.88-2.57,2.6-2.93,2.72-3.98,1.26-1.37-1.9.38-4.5-.25-9.21-.85-6.46-2.24-8.27-2.69-16.17-.07-1.19-.74,5.28-3.01,7.65-1.8,1.88-4.83,1.75-4.34.8,4.58-8.89.56-14.59,2.55-21.4.64-2.2,2.42-5.7,2.33-7.35,0-.13-.03-.27-.04-.4,0-.04,0-.08-.01-.12-.35-3.76-2.44-8.4-5.35-14.2-4.01-8-6.31-12.92-11.98-27.2-.28-.71-.57-1.44-.88-2.21-.38-.95-.74-1.92-1.1-2.88-6.36-17.08-7.46-31.81-7.72-33.64-.12-.85-.3-1.8-.5-2.78,0-.04-.02-.09-.03-.13-.93-4.45-2.58-10.11-4.39-16.11-1.82-6.04-3.79-12.43-5.34-18.29-.49-1.85-1.69-7.31-2.18-9.59-.14.51-.27,1.03-.42,1.55-.28,7.36.22,27.11,2.83,42.57,0,0,0,0,0,0,.92,5.77,1.85,12.7,2.82,19.91.82,6.08,1.16,11.71,1.54,16.2.21,2.42.35,4.29.36,5.52.04.5.08,1,.12,1.47,0,.06,0,.12.01.18.08,1.09.18,2.07.3,2.9,2.78,8.55,6.12,19.76,6.21,36.78,0,.1,0,.19.01.29.01,4.28-.13,8.91-.54,13.96-1.03,12.52-8.65,39.26-11.49,52.03-6.33,28.39-9.9,45.42-10.37,55.42-.6,12.93.79,16.97,2.03,24.8,2.39,15.21.64,28.36-2.21,40.42-5.27,22.28-10.83,32.19-11.37,43.88-.14,2.92,1.59,4.14.64,7.83-.49,1.93-1.33,3.77-.06,8.05,4.3,14.48,9.89,18.27,9.23,23.56-.73,5.86-16.25,5.5-22.33,4.18-5-1.09-4.93-10.06-3.49-20.34.29-2.08.44-4.4.33-7.96-.06-1.76-.43-3.81-.63-6.28-.18-2.28.35-4.69.63-6.6.21-1.44.43-2.6.47-3.21,1.4-22.38.93-27.75-1.3-48.79-2.24-21.27.91-25.08.51-38.08-.23-7.71-2.07-15.58-2.57-23.93-.62-10.46.24-20.35,1.11-27.79,2.41-20.57,2.39-23.89,3.17-40.15.85-17.66-3.61-26.32-1.07-41.55-.59.27-2.03.38-3.46.38s-2.88-.11-3.47-.38c2.54,15.23-1.92,23.89-1.07,41.55.78,16.26.76,19.58,3.17,40.15.88,7.44,1.73,17.33,1.11,27.79-.49,8.35-2.34,16.22-2.57,23.93-.4,13,2.75,16.81.51,38.08-2.22,21.04-2.7,26.41-1.3,48.79.04.61.26,1.77.48,3.21.29,1.91.8,4.32.62,6.6-.2,2.47-.57,4.52-.62,6.28-.11,3.56.03,5.88.32,7.96,1.45,10.28,1.51,19.25-3.49,20.34-6.07,1.32-21.6,1.68-22.33-4.18-.66-5.29,4.93-9.08,9.23-23.56,1.28-4.28.44-6.12-.06-8.05-.95-3.69.78-4.91.64-7.83-.56-11.69-6.09-21.6-11.37-43.88-2.85-12.06-4.6-25.21-2.2-40.42,1.12-7.13,2.37-11.1,2.12-21.59-.03-1.37-.1-2.86-.21-4.5-.59-8.81-3.32-22.61-7.99-43.9-.93-4.23-2.05-9.09-3.26-14.33-1.98-8.48-5.24-20.68-7.27-30.94-.83-4.19-1.48-8.24-2.02-11.97-.01-.09-.03-.18-.04-.28-.64-4.44-1.02-8.43-1.08-11.7-.12-5.41.07-10.23.42-14.61,0-.11.03-.21.03-.31.3-3.51.73-6.72,1.17-9.69,0,0,0,0,0,0,0-.05.01-.11.02-.16.06-.44.13-.87.2-1.3.51-5.35,1.9-11.61,4.32-18.8.93-2.75,1.77-5.29,2.59-7.63,0,0,0,0,0,0,.49-2.46.79-5.76.94-9.57.57-9.71-1.52-27.8-1.21-39.25Z"/>
  </g>
</svg>