<?xml version="1.0" encoding="UTF-8"?>
<svg id="_레이어_2" data-name="레이어 2" xmlns="http://www.w3.org/2000/svg" viewBox="0 0 192.46 572.01">
  <defs>
    <style>
      .cls-1 {
        fill: #f3a9aa;
        stroke: #231815;
        stroke-miterlimit: 10;
      }
    </style>
  </defs>
  <g id="_레이어_1-2" data-name="레이어 1">
    <path class="cls-1" d="m43.05,105.54c-1.02.41-2.71,1.3-2.71,1.3v.02c-2.07.91-4.24,3.66-6.47,10.54-3,9.21-7.37,70.3-7.83,76.97-.38,5.34-1.35,15.48-1.81,16.82-.26.75-.51,1.49-.77,2.23-.02.06-.04.11-.06.17-4.48,12.92-8.72,24.67-9.99,34.02-.36,2.61-.69,5.03-1,7.33,0,.05-.02.11-.02.16-1.54,11.27-2.63,19.33-4.27,30.17-.87,5.75-2.43,6.71-2.82,9.76-.06.44-.06.88-.06,1.43,0,.73,0,1.76-.22,3.47-.18,1.55-.35,2.93-.57,4.35-.76,4.71-1.36,6.08-1.92,8.25-1.54,5.98-2.15,9.1-2,13.22.2,5.44,1.43,8.05,3.69,10.69,1.16,1.36,2.31,3.05,4.12,4.88,2.57,2.6,2.93,2.72,3.98,1.26,1.37-1.9-.38-4.5.25-9.21.85-6.46,2.24-8.27,2.69-16.17.07-1.19.74,5.28,3.01,7.65,1.8,1.88,4.83,1.75,4.34.8-4.58-8.89-.56-14.59-2.55-21.4-.64-2.2-2.42-5.7-2.33-7.35,0-.13.03-.27.05-.4,0-.04,0-.08.01-.12.35-3.76,2.44-8.4,5.35-14.2,4.01-8,6.31-12.92,11.97-27.2.28-.7.58-1.45.88-2.21.38-.95.75-1.92,1.11-2.88,6.36-17.08,7.46-31.81,7.72-33.64.12-.85.3-1.8.5-2.78,0-.04.02-.09.03-.13.93-4.45,2.58-10.11,4.39-16.12,1.82-6.04,3.79-12.43,5.34-18.28.49-1.85,1.69-7.31,2.18-9.59.14.51.27,1.04.42,1.55.28,7.36-.22,27.11-2.83,42.57,0,0,0,.01,0,.02-1.04,6.61-2.58,13.26-4.23,19.65-1.87,7.27-2.99,12.79-3.67,16.69-.51,1.49-.76,2.37-.86,2.58-.19.51-.35,1.02-.55,1.56,0,0,0,0,0,0-.04.1-.08.19-.12.29-.43,1.09-.86,2.25-1.33,3.48-.04.09-.07.19-.11.28-3.22,8.59-7.33,19.87-7.58,37.38,0,.1,0,.19-.01.29,0,.01,0,.14,0,.15-.01,1-.02,2.03,0,3.07,0,.09,0,.18,0,.27,0,.03,0,.11,0,.14.04,3.25.21,6.7.53,10.38.09,1.02.22,2.11.38,3.26,1.86,13.21,9.7,37.59,12.73,49.6,7.18,28.39,11.23,45.41,11.76,55.42.68,12.93-.89,16.97-2.29,24.8-2.73,15.21-.74,28.36,2.5,40.42,5.98,22.28,12.26,32.19,12.9,43.88.15,2.92-1.81,4.14-.73,7.83.57,1.93,1.52,3.77.07,8.05-4.88,14.48-11.22,18.27-10.47,23.56.83,5.86,18.44,5.5,25.34,4.18,5.67-1.09,5.6-10.06,3.96-20.34-.33-2.08-.5-4.4-.37-7.96.06-1.76.49-3.81.71-6.28.21-2.28-.39-4.69-.71-6.6-.24-1.44-.5-2.6-.54-3.21-1.52-22.38-1.05-27.75,1.47-48.79,2.55-21.27-1.02-25.08-.57-38.08.26-7.71,2.35-15.58,2.91-23.93.71-10.46-.26-20.35-1.25-27.79-2.74-20.57-2.72-23.89-3.61-40.15-.95-17.66,4.11-26.32,1.22-41.55.67.27,2.31.37,3.93.38,1.63,0,3.27-.11,3.94-.38-2.89,15.23,2.17,23.89,1.21,41.55-.88,16.26-.87,19.58-3.6,40.15-.99,7.44-1.96,17.33-1.26,27.79.56,8.35,2.65,16.22,2.92,23.93.45,13-3.12,16.81-.58,38.08,2.53,21.04,3.16,26.42,1.48,48.79-.05.61-.3,1.77-.54,3.21-.32,1.91-.93,4.32-.72,6.6.22,2.47.65,4.52.72,6.28.13,3.56-.04,5.88-.37,7.96-1.64,10.28-1.72,19.25,3.96,20.34,6.89,1.32,24.51,1.68,25.34-4.18.75-5.29-5.6-9.08-10.48-23.56-1.44-4.28-.49-6.12.08-8.05,1.08-3.69-.89-4.91-.73-7.83.64-11.69,6.91-21.6,12.9-43.88,3.24-12.06,5.22-25.21,2.5-40.42-1.4-7.83-2.97-11.87-2.29-24.8.52-10.01,4.58-27.03,11.76-55.42,3.22-12.77,11.87-39.51,13.04-52.03.46-4.99.64-9.58.61-13.81v-.15c0-.1,0-.19,0-.29-.11-20.01-5.18-32.06-8.65-41.08-.04-.1-.08-.2-.12-.3,0,0,0,0,0,0-.19-.54-.34-1.05-.53-1.57-.09-.23-.32-1.12-.81-2.61-.81-4.85-2.13-11.42-4.51-20.54-1.36-5.21-2.58-10.52-3.59-15.78-.25-1.28-.48-2.54-.68-3.81-2.45-14.33-3.04-31.59-2.69-38.72.14-.52.27-1.04.42-1.55.25.35.58,1.11.92,1.95.44,1.99.97,4.35,1.31,5.71.33,1.32.68,2.62,1,3.77,2.97,10.71,6.99,22.66,8.78,30.86.23,1.04.43,2.03.58,2.94,0,.04.01.07.02.12.09.56.2,1.46.35,2.64.57,4.67,2.26,18.15,8.1,33.21.37.94.72,1.84,1.06,2.72.39.99.77,1.95,1.14,2.85.01.03.04.09.05.12,4.9,12.26,7.18,17.15,10.82,24.42.38.76.76,1.52,1.12,2.27,2.35,4.78,4.03,8.73,4.43,12.02.02.14.05.3.06.45.05.49-.01,1.09-.15,1.73,0,.05-.02.09-.02.14-.02.09-.03.18-.05.27-.39,1.58-1.34,3.68-1.85,5.28-.22.68-.38,1.35-.5,1.99-1.09,6.08,1.89,11.5-2.05,19.51-.23.47.14.78.72.9.61.12,2.01-.12,3.12-1.06.37-.32.71-.73,1.01-1.21,1.55-2.49,2.08-6.72,2.24-6.41.07.14.12.35.16.8.5,6.89,1.77,8.88,2.58,14.8.06.4.1.8.13,1.19.3,3.97-.99,6.33.06,8.08.2.33.38.59.58.78.76.74,1.35.35,3.34-1.65.21-.21.42-.43.63-.65,1.48-1.57,2.51-3.03,3.52-4.23.17-.2.34-.41.5-.61,2-2.47,3.1-5.05,3.3-10.08,0-.21.02-.41.02-.62.09-3.87-.52-6.97-1.98-12.65-.03-.13-.07-.26-.1-.38-.67-2.47-1.4-4.09-2.35-11.22-.29-2.25-.31-3.57-.31-4.53,0-.04,0-.12,0-.16,0-.48,0-.88-.05-1.27,0-.04,0-.08-.02-.12-.4-2.99-1.95-3.98-2.81-9.67-1.65-10.88-2.74-18.95-4.29-30.3,0-.05-.01-.1-.02-.14-.31-2.27-.63-4.65-.99-7.22-1.28-9.38-5.54-21.18-10.04-34.15-.02-.05-.03-.1-.05-.15-.25-.7-.48-1.41-.73-2.12-.46-1.34-1.44-11.48-1.81-16.82-.47-6.67-4.84-67.76-7.83-76.97-2.23-6.88-4.4-9.63-6.48-10.54v-.02s-1.68-.89-2.71-1.3c-2.99-1.19-6.74-1.8-10.71-2.51-3.66-.66-9.52-1.41-13.11-2.8-5.33-2.05-9.73-4.61-12.38-11.01-1.11-2.7-1.56-10.21-1.74-15.34,2.54-2.35,4.5-5.38,5.73-10.41.22-.9.49-1.98.74-3.12,2.78.98,3.5-3.3,4.02-4.54.57-1.37,1.33-1.5,2.08-4.5.5-2.01-.37-3.32-.01-4.61.24-.87.35-3.32-.76-4.16-.11-.09-.26-.14-.42-.19,1.65-6.26,2.7-16.5-.73-24.34-1.49-3.39-3.32-6.13-5.26-8.29-4.56-5.58-12.1-9.22-20.63-9.22s-16.06,3.64-20.63,9.22c-1.93,2.16-3.76,4.9-5.25,8.29-3.43,7.84-2.38,18.08-.73,24.34-.16.05-.31.1-.43.19-1.1.83-.99,3.29-.75,4.16.36,1.29-.52,2.6-.01,4.61.75,3,1.51,3.13,2.08,4.5.51,1.24,1.24,5.52,4.02,4.54.25,1.14.51,2.22.73,3.12,1.24,5.03,3.2,8.06,5.74,10.41-.18,5.13-.63,12.64-1.75,15.34-2.64,6.4-7.04,8.96-12.37,11.01-3.54,1.37-9.24,2.11-12.92,2.76-.27.05-.54.09-.8.14-3.74.65-7.26,1.27-10.11,2.41Z"/>
  </g>
</svg>