<?xml version="1.0" encoding="UTF-8"?>
<svg id="_레이어_2" data-name="레이어 2" xmlns="http://www.w3.org/2000/svg" viewBox="0 0 192.46 572.31">
  <defs>
    <style>
      .cls-1 {
        fill: #f3a9aa;
        stroke: #231815;
        stroke-miterlimit: 10;
      }
    </style>
  </defs>
  <g id="_레이어_1-2" data-name="레이어 1">
    <path class="cls-1" d="m43.05,105.54c2.99-1.2,6.75-1.81,10.71-2.51,3.66-.66,9.52-1.41,13.12-2.8,5.33-2.05,9.73-4.61,12.37-11.01,1.12-2.7,1.57-10.21,1.75-15.34-2.54-2.35-4.5-5.38-5.74-10.41-.22-.9-.48-1.98-.73-3.12-2.78.98-3.51-3.3-4.02-4.54-.57-1.37-1.32-1.5-2.08-4.5-.51-2.01.37-3.32,0-4.61-.24-.87-.35-3.33.75-4.16.12-.09.27-.14.43-.19-1.65-6.26-2.7-16.5.73-24.34,1.49-3.39,3.32-6.13,5.25-8.29,4.57-5.58,12.1-9.22,20.63-9.22s16.07,3.64,20.63,9.22c1.94,2.16,3.77,4.9,5.26,8.29,3.43,7.84,2.38,18.08.73,24.34.16.05.31.1.42.19,1.11.84,1,3.29.76,4.16-.36,1.29.51,2.6,0,4.61-.75,3-1.51,3.13-2.08,4.5-.52,1.24-1.24,5.52-4.02,4.54-.25,1.14-.52,2.22-.74,3.12-1.23,5.03-3.19,8.06-5.73,10.41.18,5.13.63,12.64,1.74,15.34,2.65,6.4,7.05,8.96,12.38,11.01,3.53,1.37,9.23,2.11,12.91,2.76.27.05.54.09.81.14,3.74.65,7.27,1.28,10.1,2.41,1.03.41,2.71,1.3,2.71,1.3v.02c2.08.91,4.25,3.66,6.48,10.54,2.99,9.21,7.36,70.3,7.83,76.97.37,5.34,1.35,15.48,1.81,16.82.26.75.51,1.49.77,2.23.02.06.04.11.06.17,4.48,12.92,8.72,24.67,9.99,34.02.36,2.61.69,5.03,1,7.33,0,.05.02.11.02.16,1.53,11.27,2.63,19.33,4.27,30.17.86,5.75,2.44,6.71,2.82,9.76.05.44.05.88.05,1.43,0,.73,0,1.76.23,3.47.17,1.54.34,2.93.57,4.35.75,4.72,1.36,6.09,1.93,8.26,1.54,5.98,2.14,9.1,1.99,13.22-.2,5.44-1.42,8.05-3.68,10.69-1.16,1.36-2.31,3.05-4.12,4.88-2.57,2.6-2.93,2.72-3.98,1.26-1.37-1.9.37-4.5-.25-9.21-.85-6.46-2.24-8.27-2.69-16.17-.07-1.19-.74,5.28-3.01,7.65-1.8,1.88-4.84,1.75-4.35.8,4.59-8.89.57-14.59,2.56-21.4.64-2.2,2.42-5.7,2.33-7.35,0-.13-.04-.27-.04-.4,0-.04,0-.08-.01-.12-.35-3.76-2.44-8.4-5.35-14.2-4.01-8-6.38-12.9-11.98-27.2-.28-.71-.56-1.44-.87-2.21-.38-.95-.74-1.91-1.1-2.87-6.36-17.08-7.45-31.82-7.72-33.65-.13-.85-.31-1.8-.51-2.78,0-.04-.02-.08-.03-.12-1.86-8.92-6.62-22.72-9.71-34.4-.49-1.85-1.69-7.31-2.18-9.59-.15.51-.27,1.04-.42,1.55-.28,7.36.21,27.11,2.83,42.57,1.15,7.34,3.89,14.84,5.69,21.6.37,1.4.7,2.74,1.01,4.01,4.25,6.09,5.9,8.93,8.55,14.99.02.05.04.1.06.15.59,1.37,1.21,2.82,1.88,4.4.02.04.03.08.05.12,3.52,8.52,7.91,19.65,8.31,36.78,0,.02,0,.27,0,.29.03,1.28.03,2.59,0,3.94,0,.07,0,.21,0,.27-.05,3.09-.23,6.35-.56,9.81-.12,1.21-.29,2.52-.52,3.92-2.18,13.06-10.46,36.3-13.94,48.37-.29,1.01-.57,1.99-.84,2.94-7.51,26.6-11.81,42.9-12.5,52.69-.05.73-.09,1.43-.12,2.11-.52,11.46,1.08,15.56,2.56,22.8.11.55.22,1.1.32,1.65,2.69,14.69.49,27.46-3.03,39.19-6.7,22.28-13.72,32.19-14.43,43.88-.18,2.92,2.02,4.14.81,7.83-.63,1.93-1.7,3.77-.08,8.05,5.46,14.48,12.56,18.27,11.72,23.56-.93,5.86-20.64,5.5-28.35,4.18-6.35-1.09-6.27-10.06-4.44-20.34.37-2.08.56-4.4.42-7.96-.07-1.76-.55-3.81-.8-6.28-.23-2.28.44-4.69.8-6.6.27-1.44.55-2.6.6-3.21,1.77-22.38,1.18-27.75-1.64-48.79-2.86-21.27,1.14-25.08.64-38.08-.3-7.71-2.64-15.58-3.26-23.93-.79-10.46.29-20.35,1.4-27.79,3.06-20.57,3.04-23.89,4.03-40.15,1.07-17.66-4.59-26.32-1.36-41.55-.75.27-2.58.39-4.4.38-1.82,0-3.65-.11-4.4-.38,3.23,15.23-2.43,23.89-1.36,41.55.99,16.26.97,19.58,4.03,40.15,1.11,7.44,2.2,17.33,1.41,27.79-.63,8.35-2.97,16.22-3.27,23.93-.5,13,3.5,16.81.65,38.08-2.82,21.04-3.42,26.42-1.65,48.79.05.61.33,1.77.6,3.21.36,1.91,1.03,4.32.8,6.6-.25,2.47-.73,4.52-.8,6.28-.15,3.56.05,5.88.42,7.96,1.83,10.28,1.92,19.25-4.43,20.34-7.72,1.32-27.43,1.68-28.36-4.18-.84-5.29,6.27-9.08,11.73-23.56,1.61-4.28.55-6.12-.08-8.05-1.21-3.69.98-4.91.81-7.83-.72-11.69-7.74-21.6-14.43-43.88-3.62-12.06-5.85-25.21-2.8-40.42,1.57-7.83,3.33-11.87,2.56-24.8-.59-10-5.13-27.03-13.15-55.42-3.61-12.77-13.28-39.51-14.59-52.03-.53-5.05-.73-9.68-.69-13.96v-.29c.26-20.13,6.07-32.11,9.75-41.23.02-.05.04-.1.06-.15,2.88-6.48,4.34-9.3,8.37-15.13.6-2.58,1.33-5.44,2.19-8.6,1.47-5.42,3.31-11.22,4.75-16.9.4-1.57.76-3.11,1.01-4.65,0,0,0,0,0,0,2.4-14.05,3-30.78,2.64-37.84-.14-.52-.28-1.04-.42-1.55-.3.39-.7,1.34-1.1,2.32-.39,1.78-.84,3.75-1.14,4.95-.39,1.56-.81,3.13-1.19,4.49-1.27,4.55-2.72,9.31-4.1,13.91-1.8,6-3.48,11.7-4.49,16.25-.24,1.1-.46,2.15-.61,3.1,0,.04-.01.07-.02.12-.09.56-.2,1.46-.35,2.64-.57,4.67-2.26,18.15-8.1,33.21-.37.94-.72,1.84-1.07,2.72-.4.99-.77,1.95-1.14,2.85-.02.04-.03.08-.05.12-4.9,12.26-7.18,17.15-10.81,24.42-.38.77-.76,1.52-1.12,2.27-2.35,4.78-4.02,8.73-4.43,12.02-.02.14-.05.3-.06.45-.05.49.01,1.09.15,1.73,0,.05.02.09.02.14.02.09.03.18.05.27.39,1.58,1.34,3.68,1.85,5.28.22.68.38,1.35.5,1.99,1.09,6.08-1.89,11.5,2.04,19.51.23.47-.14.78-.72.9-.61.12-2-.12-3.11-1.06-.37-.32-.72-.73-1.02-1.21-1.55-2.49-2.08-6.71-2.24-6.4-.07.14-.13.36-.16.81-.5,6.88-1.76,8.88-2.57,14.79-.06.41-.1.81-.13,1.2-.31,3.97.99,6.32-.06,8.07-.21.34-.4.61-.61.81-.75.7-1.35.31-3.31-1.66-.22-.22-.44-.45-.66-.68-1.47-1.56-2.49-3.01-3.5-4.21-.18-.21-.35-.42-.52-.63-1.99-2.47-3.09-5.05-3.29-10.06,0-.22-.02-.43-.02-.64-.09-3.86.53-6.96,1.98-12.63.03-.13.07-.27.1-.4.66-2.47,1.39-4.09,2.34-11.21.3-2.25.3-3.57.3-4.53,0-.04,0-.12,0-.16,0-.48,0-.88.06-1.27,0-.04,0-.08.01-.12.4-2.99,1.95-3.98,2.81-9.68,1.65-10.88,2.74-18.95,4.29-30.3,0-.05.01-.1.02-.14.31-2.27.63-4.65.99-7.22,1.28-9.38,5.54-21.18,10.04-34.15.02-.05.03-.1.05-.15.25-.7.48-1.41.73-2.12.46-1.34,1.43-11.48,1.81-16.82.46-6.67,4.83-67.76,7.83-76.97,2.23-6.88,4.4-9.63,6.47-10.54v-.02s1.69-.89,2.71-1.3Z"/>
  </g>
</svg>