<?xml version="1.0" encoding="UTF-8"?>
<svg id="_레이어_2" data-name="레이어 2" xmlns="http://www.w3.org/2000/svg" viewBox="0 0 192.46 572.23">
  <defs>
    <style>
      .cls-1 {
        fill: #f3a9aa;
        stroke: #231815;
        stroke-miterlimit: 10;
      }
    </style>
  </defs>
  <g id="_레이어_1-2" data-name="레이어 1">
    <path class="cls-1" d="m43.05,105.51c2.94-1.18,6.62-1.78,10.5-2.48,3.66-.66,9.73-1.41,13.33-2.8,5.33-2.05,9.73-4.61,12.37-11.01,1.12-2.7,1.57-10.21,1.75-15.34-2.54-2.35-4.5-5.38-5.74-10.41-.22-.9-.48-1.97-.73-3.12-2.78.98-3.51-3.3-4.02-4.54-.57-1.37-1.32-1.5-2.08-4.5-.51-2.01.37-3.32,0-4.61-.24-.87-.35-3.33.75-4.16.12-.09.27-.14.43-.18-1.65-6.26-2.7-16.51.73-24.34,1.49-3.39,3.32-6.12,5.25-8.29,4.57-5.58,12.1-9.22,20.63-9.22s16.06,3.64,20.63,9.22c1.93,2.17,3.76,4.9,5.25,8.29,3.43,7.84,2.38,18.08.73,24.34.16.05.31.1.42.18,1.1.84,1,3.29.76,4.16-.36,1.29.51,2.6.01,4.61-.75,3.01-1.51,3.14-2.08,4.5-.52,1.24-1.24,5.52-4.02,4.54-.25,1.15-.52,2.22-.73,3.12-1.24,5.03-3.2,8.06-5.74,10.41.18,5.13.63,12.64,1.74,15.34,2.65,6.4,7.05,8.96,12.38,11.01,3.47,1.34,9.22,2.08,12.92,2.73.28.05.55.1.81.14,3.74.66,7.26,1.28,10.1,2.41,1.02.41,2.71,1.3,2.71,1.3v.02c2.07.91,4.24,3.66,6.48,10.54,2.99,9.22,7.36,70.3,7.83,76.97.38,5.34,1.35,15.48,1.81,16.82.26.75.51,1.49.77,2.23.02.05.04.11.06.16,4.48,12.93,8.72,24.68,9.99,34.03.36,2.61.69,5.03,1,7.33,0,.05.02.11.02.16,1.53,11.28,2.63,19.34,4.27,30.18.86,5.74,2.44,6.71,2.82,9.76.05.44.06.88.06,1.42,0,.49,0,1.22.16,2.36.12,1.35.23,2.7.48,4.37.83,5.61,1.49,7.01,2.09,9.34,1.54,5.98,2.15,9.1,1.99,13.22-.2,5.45-1.42,8.05-3.68,10.69-1.16,1.36-2.31,3.06-4.12,4.88-2.57,2.6-2.93,2.72-3.98,1.26-1.37-1.9.38-4.51-.25-9.21-.85-6.46-2.24-8.27-2.69-16.17-.07-1.19-.74,5.28-3.01,7.65-1.8,1.88-4.83,1.75-4.34.81,4.58-8.9.56-14.6,2.55-21.41.64-2.2,2.42-5.7,2.33-7.35,0-.11-.03-.25-.04-.37,0-.04,0-.09-.02-.13-.35-3.76-2.44-8.41-5.36-14.22-4.01-8-6.37-12.89-11.97-27.17-.19-.49-.39-.99-.6-1.53-.37-.94-.75-1.9-1.12-2.88-6.6-17.38-7.72-32.51-8-34.37-.12-.84-.3-1.78-.5-2.75,0-.04-.02-.09-.03-.13-1.83-8.93-6.63-22.73-9.72-34.43-.49-1.85-1.69-7.31-2.18-9.59-.15.51-.28,1.03-.43,1.56-1.44,9.32-3.51,30.13-.99,42.6,1.13,6.76,5.47,13.87,8.26,20.63.56,1.36,1.05,2.64,1.51,3.84,4.51,6.4,6.26,9.31,8.79,14.92.02.05.04.09.06.14.6,1.35,1.24,2.8,1.93,4.41.02.04.03.09.05.13,3.48,8.5,8.17,19.55,8.74,36.84,0,.05,0,.24,0,.29.04,1.29.06,2.61.05,3.96,0,.04,0,.23,0,.28-.03,3.1-.18,6.37-.48,9.86-.11,1.24-.27,2.57-.47,3.95-1.86,12.58-10.19,36.04-13.87,48.61-.3,1.02-.58,2-.85,2.94-7.5,26.56-11.85,42.96-12.66,52.9-.06.73-.1,1.43-.14,2.11-.58,11.63.97,15.81,2.45,22.9.11.55.22,1.1.33,1.66,2.8,14.86.6,27.76-2.95,39.6-6.7,22.28-13.72,32.19-14.43,43.88-.18,2.92,2.02,4.14.81,7.83-.63,1.93-1.7,3.77-.08,8.05,5.46,14.48,12.56,18.27,11.72,23.56-.93,5.86-20.64,5.5-28.35,4.18-6.35-1.09-6.27-10.06-4.44-20.34.37-2.08.56-4.4.42-7.96-.07-1.76-.55-3.81-.8-6.28-.23-2.28.44-4.69.8-6.6.27-1.44.55-2.6.6-3.21,1.77-22.38,1.18-27.75-1.64-48.79-2.86-21.27,1.14-25.08.64-38.08-.3-7.71-2.64-15.58-3.26-23.93-.79-10.46.29-20.35,1.4-27.79,3.06-20.57,3.04-23.89,4.03-40.15,1.07-17.66-4.59-26.32-1.36-41.55-.75.27-2.58.39-4.4.38-1.82,0-3.65-.11-4.4-.38,3.23,15.23-2.43,23.89-1.36,41.55.99,16.26.97,19.58,4.03,40.15,1.11,7.44,2.2,17.33,1.41,27.79-.63,8.35-2.97,16.22-3.27,23.93-.5,13,3.5,16.81.65,38.08-2.82,21.04-3.42,26.42-1.65,48.79.05.61.33,1.77.6,3.21.36,1.91,1.03,4.32.8,6.6-.25,2.47-.73,4.52-.8,6.28-.15,3.56.05,5.88.42,7.96,1.83,10.28,1.92,19.25-4.43,20.34-7.72,1.32-27.43,1.68-28.36-4.18-.84-5.29,6.27-9.08,11.73-23.56,1.61-4.28.55-6.12-.08-8.05-1.21-3.69.98-4.91.81-7.83-.72-11.69-7.74-21.6-14.43-43.88-3.62-12.06-5.85-25.21-2.8-40.42,1.57-7.83,3.33-11.87,2.56-24.8-.59-10-5.13-27.03-13.15-55.42-3.61-12.77-13.28-39.51-14.59-52.03-.53-5.05-.73-9.68-.69-13.96v-.29c.26-20.13,6.06-32.11,9.75-41.23.02-.05.04-.1.06-.15,2.89-6.51,4.35-9.32,8.41-15.19.87-2.4,1.94-5.11,3.25-8.24,2.2-5.27,5.06-10.77,6.99-16.02.57-1.56,1.06-3.08,1.32-4.57,0,0,0,0,0,0,2.29-11.29.87-28.71-.67-37.88-.15-.52-.29-1.05-.43-1.56-.36-.3-.78-.19-1.18-.01-.35,1.57-.79,3.53-1.13,4.97-.4,1.66-.82,3.31-1.15,4.53-1.25,4.54-2.7,9.33-4.1,13.98-1.79,5.95-3.49,11.66-4.57,16.31-.28,1.2-.53,2.34-.71,3.38,0,.04-.01.08-.02.13-.12.69-.25,1.59-.39,2.65-.47,3.72-1.96,17.62-7.97,33.35-.33.86-.66,1.71-.99,2.53-.4,1-.78,1.95-1.14,2.87-.02.04-.03.09-.05.13-4.96,12.44-7.27,17.45-10.8,24.55-.38.76-.75,1.51-1.13,2.27-2.35,4.77-4.08,8.72-4.61,12.02-.03.15-.06.3-.08.45-.08.53-.06,1.13,0,1.75,0,.05,0,.09,0,.14,0,.09.01.19.03.27.24,1.45,1.19,3.59,1.78,5.31.24.69.43,1.36.56,1.98,1.34,6.19-1.79,11.6,1.97,19.61.23.49.04.86-.23,1.13-.31.31-1.8.25-3.08-.66-.41-.29-.79-.67-1.12-1.13-1.54-2.16-2.16-6.06-2.38-6.45-.13-.23-.19-.27-.22.17-.47,7.05-1.73,9.07-2.56,14.85-.06.4-.1.8-.14,1.2-.38,3.97.88,6.37.02,8.14-.16.34-.34.62-.55.85-.82.91-1.34.65-3.31-1.31-.22-.22-.44-.44-.66-.68-1.49-1.55-2.52-3-3.53-4.22-.18-.22-.35-.43-.53-.64-2.05-2.49-3.19-5.04-3.42-10.05,0-.21-.02-.43-.02-.65-.11-3.91.49-7,1.95-12.68.04-.14.07-.27.11-.41.67-2.52,1.4-4.1,2.37-11.31.29-2.22.3-3.53.3-4.5,0-.03,0-.13,0-.16,0-.48,0-.88.05-1.28,0-.04,0-.08.02-.12.4-3.01,1.95-3.99,2.81-9.7,1.65-10.87,2.74-18.94,4.28-30.26,0-.05.01-.1.02-.15.31-2.28.63-4.67.99-7.26,1.27-9.37,5.53-21.16,10.02-34.11.01-.05.03-.1.05-.15.25-.72.49-1.43.74-2.16.46-1.34,1.43-11.48,1.81-16.82.46-6.67,4.83-67.75,7.83-76.97,2.23-6.88,4.4-9.63,6.47-10.54v-.02s1.69-.89,2.71-1.3Z"/>
  </g>
</svg>