<?xml version="1.0" encoding="UTF-8"?>
<svg id="_레이어_2" data-name="레이어 2" xmlns="http://www.w3.org/2000/svg" viewBox="0 0 192.46 572.16">
  <defs>
    <style>
      .cls-1 {
        fill: #f3a9aa;
        stroke: #231815;
        stroke-miterlimit: 10;
      }
    </style>
  </defs>
  <g id="_레이어_1-2" data-name="레이어 1">
    <path class="cls-1" d="m43.05,105.47c2.89-1.15,6.49-1.76,10.29-2.44s9.94-1.41,13.54-2.8c5.33-2.05,9.73-4.61,12.37-11.01,1.12-2.7,1.57-10.21,1.75-15.34-2.54-2.35-4.5-5.38-5.74-10.41-.22-.9-.48-1.97-.73-3.12-2.78.98-3.51-3.3-4.02-4.54-.57-1.36-1.32-1.49-2.08-4.5-.51-2,.37-3.32,0-4.61-.24-.87-.35-3.33.75-4.16.12-.09.27-.14.43-.18-1.65-6.27-2.7-16.51.73-24.35,1.49-3.39,3.32-6.12,5.25-8.29,4.57-5.57,12.1-9.22,20.63-9.22s16.06,3.65,20.63,9.22c1.93,2.17,3.76,4.9,5.25,8.29,3.43,7.84,2.38,18.08.73,24.35.16.04.31.09.43.18,1.1.84.99,3.29.75,4.16-.36,1.29.52,2.61.01,4.61-.75,3.01-1.51,3.14-2.08,4.5-.52,1.24-1.24,5.52-4.02,4.54-.25,1.15-.51,2.22-.73,3.12-1.24,5.03-3.2,8.06-5.74,10.41.18,5.13.63,12.64,1.75,15.34,2.64,6.4,7.04,8.96,12.37,11.01,3.41,1.32,9.21,2.05,12.93,2.69.28.05.55.1.81.14,3.73.66,7.25,1.28,10.09,2.41,1.02.41,2.71,1.29,2.71,1.29v.02c2.07.91,4.24,3.67,6.47,10.54,3,9.22,7.37,70.31,7.83,76.97.38,5.34,1.35,15.49,1.81,16.82.26.75.51,1.49.77,2.23.02.05.04.1.05.16,4.48,12.93,8.73,24.68,10,34.03.36,2.62.69,5.03,1,7.33,0,.05.02.1.02.15,1.54,11.28,2.63,19.34,4.27,30.18.87,5.74,2.43,6.7,2.82,9.76.06.43.06.87.06,1.42,0,.24,0,.69.08,1.26.06,1.15.13,2.48.39,4.4.91,6.51,1.61,7.94,2.26,10.42,1.54,5.98,2.15,9.11,2,13.22-.2,5.45-1.42,8.05-3.69,10.69-1.16,1.36-2.31,3.06-4.12,4.88-2.57,2.6-2.93,2.73-3.98,1.27-1.37-1.91.38-4.51-.25-9.22-.85-6.45-2.24-8.27-2.69-16.17-.07-1.19-.74,5.28-3.01,7.65-1.8,1.88-4.83,1.75-4.34.81,4.58-8.9.56-14.6,2.55-21.41.64-2.2,2.42-5.7,2.33-7.35,0-.1-.03-.22-.04-.33,0-.05,0-.09-.02-.14-.34-3.77-2.43-8.43-5.36-14.25-4-7.99-6.36-12.89-11.95-27.13-.11-.27-.21-.55-.33-.84-.37-.93-.75-1.9-1.13-2.88-6.88-17.67-7.99-33.21-8.27-35.08-.12-.84-.3-1.76-.49-2.71,0-.05-.02-.09-.03-.14-1.81-8.93-6.63-22.75-9.73-34.45-.49-1.85-1.69-7.32-2.18-9.6-.14.5-.28,1.03-.43,1.56-2.61,11.27-7.23,33.15-4.81,42.63,1.11,6.17,7.02,12.92,10.83,19.65.74,1.31,1.4,2.53,2.01,3.66,4.77,6.71,6.63,9.69,9.03,14.86.02.05.04.09.06.14.61,1.33,1.26,2.77,1.98,4.42.02.05.04.09.06.14,3.45,8.47,8.42,19.46,9.18,36.89,0,.07,0,.22.01.29.05,1.29.08,2.62.09,3.98,0,.02,0,.26,0,.28,0,3.11-.12,6.4-.4,9.9-.1,1.28-.24,2.61-.41,3.99-1.54,12.1-9.91,35.77-13.8,48.84-.31,1.03-.59,2.02-.86,2.95-7.5,26.53-11.9,43.03-12.82,53.11-.07.73-.12,1.43-.15,2.1-.64,11.8.86,16.07,2.33,23.01.12.54.23,1.1.34,1.67,2.92,15.04.71,28.06-2.88,40.01-6.7,22.28-13.72,32.19-14.43,43.88-.18,2.92,2.02,4.14.81,7.83-.63,1.93-1.7,3.77-.08,8.05,5.46,14.48,12.56,18.27,11.72,23.56-.93,5.86-20.64,5.5-28.35,4.18-6.35-1.09-6.27-10.06-4.44-20.34.37-2.08.56-4.4.42-7.96-.07-1.76-.55-3.81-.8-6.28-.23-2.28.44-4.69.8-6.6.27-1.44.55-2.6.6-3.21,1.77-22.37,1.18-27.75-1.64-48.79-2.86-21.27,1.14-25.08.64-38.08-.3-7.71-2.64-15.58-3.26-23.93-.79-10.46.29-20.35,1.4-27.79,3.06-20.57,3.04-23.89,4.03-40.15,1.07-17.66-4.59-26.32-1.36-41.55-.75.27-2.58.39-4.4.38-1.82,0-3.65-.11-4.4-.38,3.23,15.23-2.43,23.89-1.36,41.55.99,16.26.97,19.58,4.03,40.15,1.11,7.44,2.2,17.33,1.41,27.79-.63,8.35-2.97,16.22-3.27,23.93-.5,13,3.5,16.81.65,38.08-2.82,21.04-3.42,26.42-1.65,48.79.05.61.33,1.77.6,3.21.36,1.91,1.03,4.32.8,6.6-.25,2.47-.73,4.52-.8,6.28-.15,3.56.05,5.88.42,7.96,1.83,10.28,1.92,19.25-4.43,20.34-7.72,1.32-27.43,1.68-28.36-4.18-.84-5.29,6.27-9.08,11.73-23.56,1.61-4.28.55-6.12-.08-8.05-1.21-3.69.98-4.91.81-7.83-.72-11.69-7.74-21.6-14.43-43.88-3.62-12.06-5.85-25.21-2.8-40.42,1.57-7.83,3.33-11.87,2.56-24.8-.59-10-5.13-27.03-13.15-55.42-3.61-12.77-13.28-39.51-14.59-52.03-.53-5.05-.73-9.68-.69-13.96v-.29c.26-20.13,6.06-32.12,9.75-41.23.02-.05.04-.1.06-.15,2.9-6.53,4.35-9.34,8.46-15.25,1.14-2.22,2.55-4.78,4.31-7.89,2.9-5.13,6.85-10.3,9.23-15.14.76-1.54,1.36-3.04,1.62-4.5,0,0,0,0,0,0,2.17-8.54-1.26-26.65-3.97-37.93-.15-.53-.3-1.05-.44-1.56-.42-.99-.86-1.72-1.26-2.35-.3,1.36-.73,3.32-1.12,4.99-.41,1.76-.83,3.49-1.12,4.56-1.22,4.53-2.67,9.35-4.09,14.04-1.78,5.91-3.51,11.63-4.66,16.37-.32,1.3-.6,2.53-.82,3.66,0,.05-.02.09-.03.14-.16.81-.31,1.72-.44,2.67-.37,2.77-1.66,17.08-7.84,33.49-.3.79-.6,1.57-.91,2.35-.4,1-.78,1.96-1.15,2.88-.02.05-.04.09-.06.14-5.02,12.61-7.36,17.75-10.8,24.68-.37.75-.75,1.5-1.13,2.28-2.36,4.75-4.14,8.71-4.8,12.03-.03.15-.06.31-.09.46-.1.58-.14,1.17-.13,1.77,0,.05,0,.1,0,.15,0,.1,0,.19,0,.28.09,1.33,1.03,3.51,1.71,5.35.26.7.48,1.37.63,1.98,1.6,6.3-1.68,11.71,1.89,19.72.22.5.24.96.25,1.35.02.54-1.59.62-3.05-.25-.44-.26-.86-.61-1.22-1.05-1.51-1.84-2.21-5.42-2.52-6.51-.17-.61-.25-.89-.28-.46-.45,7.22-1.7,9.27-2.54,14.92-.06.39-.11.79-.16,1.19-.46,3.97.76,6.41.1,8.21-.12.34-.28.64-.49.9-.89,1.11-1.34,1-3.31-.95-.21-.21-.43-.44-.67-.68-1.51-1.55-2.56-3-3.56-4.22-.18-.22-.36-.43-.53-.64-2.12-2.51-3.29-5.03-3.54-10.04-.01-.21-.02-.43-.03-.65-.13-3.96.46-7.04,1.92-12.73.04-.14.07-.28.11-.42.67-2.58,1.42-4.1,2.39-11.4.29-2.19.3-3.49.3-4.46,0-.01,0-.14,0-.15,0-.49,0-.89.05-1.28,0-.04.01-.08.02-.12.4-3.03,1.95-4.01,2.82-9.73,1.64-10.85,2.73-18.92,4.28-30.22,0-.05.01-.1.02-.15.31-2.29.64-4.69,1-7.29,1.27-9.36,5.53-21.13,10.01-34.08.01-.05.03-.1.05-.15.26-.73.5-1.46.76-2.19.46-1.33,1.43-11.48,1.81-16.82.46-6.66,4.83-67.75,7.83-76.97,2.23-6.87,4.4-9.63,6.47-10.54v-.02s1.69-.88,2.71-1.29Z"/>
  </g>
</svg>