<?xml version="1.0" encoding="UTF-8"?>
<svg id="_레이어_2" data-name="레이어 2" xmlns="http://www.w3.org/2000/svg" viewBox="0 0 192.46 572.16">
  <defs>
    <style>
      .cls-1 {
        fill: #f3a9aa;
        stroke: #231815;
        stroke-miterlimit: 10;
      }
    </style>
  </defs>
  <g id="_레이어_1-2" data-name="레이어 1">
    <path class="cls-1" d="m43.05,105.54c3-1.2,6.75-1.81,10.71-2.51,3.66-.66,9.52-1.41,13.12-2.8,5.33-2.05,9.73-4.61,12.37-11.01,1.12-2.7,1.57-10.21,1.75-15.34-2.54-2.35-4.5-5.38-5.74-10.41-.22-.9-.48-1.98-.73-3.12-2.78.98-3.51-3.3-4.02-4.54-.57-1.37-1.32-1.5-2.08-4.5-.51-2.01.37-3.32,0-4.61-.24-.87-.35-3.33.75-4.16.12-.09.27-.14.43-.19-1.65-6.26-2.7-16.5.73-24.34,1.49-3.39,3.32-6.13,5.25-8.29,4.57-5.58,12.1-9.22,20.63-9.22s16.06,3.64,20.63,9.22c1.93,2.16,3.76,4.9,5.25,8.29,3.43,7.84,2.38,18.08.73,24.34.16.05.31.1.43.19,1.1.83.99,3.29.75,4.16-.36,1.29.52,2.6,0,4.61-.75,3-1.51,3.13-2.08,4.5-.51,1.24-1.24,5.52-4.02,4.54-.25,1.14-.51,2.22-.73,3.12-1.24,5.03-3.2,8.06-5.74,10.41.18,5.13.63,12.64,1.75,15.34,2.64,6.4,7.04,8.96,12.37,11.01,3.54,1.37,9.24,2.11,12.92,2.76.27.05.54.09.81.14,3.74.65,7.26,1.27,10.11,2.41,1.02.41,2.71,1.3,2.71,1.3v.02c2.07.91,4.24,3.66,6.47,10.54,3,9.21,7.37,70.3,7.83,76.97.38,5.34,1.35,15.48,1.81,16.82.26.75.51,1.49.77,2.23.02.06.04.11.06.17,4.48,12.92,8.72,24.67,9.99,34.02.36,2.61.69,5.03,1,7.33,0,.05.02.11.02.16,1.54,11.27,2.63,19.33,4.27,30.17.87,5.75,2.43,6.71,2.82,9.76.06.44.06.88.06,1.43,0,.73,0,1.76.23,3.47.18,1.55.35,2.93.57,4.36.75,4.71,1.36,6.08,1.92,8.25,1.54,5.98,2.15,9.1,2,13.22-.2,5.44-1.43,8.05-3.69,10.69-1.16,1.36-2.31,3.05-4.12,4.88-2.57,2.6-2.93,2.72-3.98,1.26-1.37-1.9.38-4.5-.25-9.21-.85-6.46-2.24-8.27-2.69-16.17-.07-1.19-.74,5.28-3.01,7.65-1.8,1.88-4.83,1.75-4.34.8,4.58-8.89.56-14.59,2.55-21.4.64-2.2,2.42-5.7,2.33-7.35,0-.13-.03-.27-.04-.4,0-.04,0-.08-.01-.12-.35-3.76-2.44-8.4-5.35-14.2-4.01-8-6.31-12.92-11.98-27.2-.28-.71-.57-1.44-.88-2.21-.38-.96-.75-1.92-1.11-2.88-6.35-17.07-7.46-31.81-7.72-33.64-.12-.85-.3-1.8-.5-2.78,0-.04-.02-.09-.03-.13-.93-4.45-2.58-10.1-4.38-16.1-1.82-6.05-3.79-12.44-5.34-18.3-.49-1.85-1.69-7.31-2.18-9.59-.14.51-.27,1.03-.42,1.55-.27,7.34.27,26.79,3.35,42.57.95,5.78,1.81,12.86,2.47,20.2.78,8.73,1.51,17.2,1.85,22.4,0,.06,0,.12.01.18.1,1.36.22,2.56.35,3.57,2.77,8.53,6.07,19.69,6.16,36.61,0,.1,0,.2.01.3.01,4.28-.13,8.91-.54,13.96-1.03,12.52-8.65,39.26-11.49,52.03-6.33,28.39-9.9,45.42-10.37,55.42-.6,12.93.79,16.97,2.03,24.8,2.39,15.21.64,28.36-2.21,40.42-5.27,22.28-10.82,32.19-11.37,43.88-.14,2.92,1.59,4.14.64,7.83-.49,1.93-1.33,3.77-.06,8.05,4.3,14.48,9.89,18.27,9.23,23.56-.73,5.86-16.25,5.5-22.33,4.18-5-1.09-4.93-10.06-3.49-20.34.29-2.08.44-4.4.33-7.96-.06-1.76-.43-3.81-.63-6.28-.18-2.28.35-4.69.63-6.6.21-1.44.43-2.6.47-3.21,1.4-22.38.93-27.75-1.3-48.79-2.24-21.27.91-25.08.51-38.08-.23-7.71-2.07-15.58-2.57-23.92-.62-10.47.24-20.36,1.11-27.8,2.41-20.57,2.39-23.89,3.17-40.15.85-17.66-3.61-26.32-1.07-41.55-.59.27-2.03.38-3.46.38s-2.88-.11-3.47-.38c2.54,15.23-1.92,23.89-1.07,41.55.78,16.26.76,19.58,3.17,40.15.88,7.44,1.73,17.33,1.11,27.8-.49,8.34-2.34,16.21-2.57,23.92-.4,13,2.75,16.81.51,38.08-2.22,21.04-2.7,26.41-1.3,48.79.04.61.26,1.77.48,3.21.29,1.91.8,4.32.62,6.6-.2,2.47-.57,4.52-.62,6.28-.11,3.56.03,5.88.32,7.96,1.45,10.28,1.51,19.25-3.49,20.34-6.07,1.32-21.6,1.68-22.33-4.18-.66-5.29,4.93-9.08,9.23-23.56,1.28-4.28.44-6.12-.06-8.05-.95-3.69.78-4.91.64-7.83-.56-11.69-6.09-21.6-11.37-43.88-2.85-12.06-4.6-25.21-2.2-40.42,1.23-7.83,2.62-11.87,2.02-24.8-.47-10-4.04-27.03-10.36-55.42-2.85-12.77-10.46-39.51-11.49-52.03-.42-5.05-.57-9.68-.55-13.96,0-.1,0-.2.01-.3.08-16.7,3.3-27.79,6.05-36.28.19-1.33.34-2.97.47-4.85,0-.04,0-.08.01-.12.33-5.41,1.05-13.84,1.86-22.43.66-7.05,1.54-13.75,2.45-19.27,3.12-15.86,3.48-35.67,3.24-42.96-.13-.28-.25-.54-.39-.77-.51,2.37-1.63,7.44-2.1,9.2-1.55,5.86-3.52,12.25-5.34,18.3-1.81,6.04-3.49,11.72-4.4,16.18-.01.05-.02.11-.03.16-.19.94-.36,1.85-.48,2.66-.27,1.91-1.46,17.82-8.54,35.8-.4,1.01-.78,1.97-1.15,2.9-.02.04-.03.08-.05.12-5.64,14.21-7.94,19.13-11.94,27.12-2.93,5.84-5.03,10.51-5.36,14.28-.02.12-.03.25-.04.37,0,.09-.01.18,0,.27.04,1.71,1.71,5.04,2.33,7.15,1.99,6.81-2.03,12.51,2.55,21.4.49.95-2.54,1.08-4.34-.8-2.27-2.37-2.94-8.84-3.01-7.65-.45,7.9-1.84,9.71-2.69,16.17-.63,4.71,1.12,7.31-.25,9.21-1.05,1.46-1.41,1.34-3.98-1.26-1.81-1.83-2.96-3.52-4.12-4.88-2.26-2.64-3.49-5.25-3.69-10.69-.15-4.12.46-7.24,2-13.22.68-2.64,1.43-4.11,2.42-11.5.29-2.25.3-3.57.3-4.53,0-.04,0-.12,0-.16,0-.48,0-.88.06-1.27,0-.04,0-.08.01-.12.4-2.99,1.95-3.98,2.81-9.68,1.65-10.88,2.74-18.95,4.28-30.3,0-.05.01-.1.02-.14.31-2.27.63-4.65.99-7.22,1.28-9.38,5.54-21.18,10.04-34.15.02-.05.03-.1.05-.15.25-.7.48-1.41.73-2.12.46-1.34,1.43-11.48,1.81-16.82.46-6.67,4.83-67.76,7.83-76.97,2.23-6.88,4.4-9.63,6.47-10.54v-.02s1.69-.89,2.71-1.3Z"/>
  </g>
</svg>