<?xml version="1.0" encoding="UTF-8"?>
<svg id="_레이어_2" data-name="레이어 2" xmlns="http://www.w3.org/2000/svg" viewBox="0 0 192.46 571.94">
  <defs>
    <style>
      .cls-1 {
        fill: #f3a9aa;
        stroke: #231815;
        stroke-miterlimit: 10;
      }
    </style>
  </defs>
  <g id="_레이어_1-2" data-name="레이어 1">
    <path class="cls-1" d="m191.94,325.64c-.2,5.45-1.42,8.05-3.69,10.69-1.16,1.36-2.31,3.06-4.12,4.88-2.57,2.6-2.93,2.73-3.98,1.27-1.37-1.91.38-4.51-.25-9.22-.85-6.45-2.24-8.27-2.69-16.17-.07-1.19-.74,5.28-3.01,7.65-1.8,1.88-4.83,1.75-4.34.81,4.58-8.9.56-14.6,2.55-21.41.64-2.2,2.42-5.7,2.33-7.35,0-.09-.02-.19-.03-.29-.01-.05-.01-.1-.02-.15-.33-3.77-2.43-8.44-5.36-14.28-4-7.98-6.3-12.9-11.93-27.09l-.06-.15c-.37-.92-.75-1.89-1.15-2.89-7.08-17.99-8.26-33.9-8.54-35.8-.12-.83-.29-1.74-.48-2.68-.01-.05-.02-.1-.03-.15-1.85-8.92-6.64-22.76-9.74-34.48-.49-1.85-1.69-7.32-2.18-9.6-3.62,12.9-11.34,36.12-6.98,44.23h0c1.2,5.49,5.46,11.03,9.67,18.07,7.83,13.11,10.01,16.9,12.49,23.3h0l.06.15c3.55,9.09,8.99,21.09,9.23,41.22,0,.1,0,.2,0,.3.03,4.28-.16,8.91-.66,13.96-1.23,12.52-10.39,39.26-13.81,52.03-7.6,28.39-11.9,45.42-12.46,55.42-.72,12.93.95,16.97,2.43,24.8,2.89,15.21.78,28.36-2.65,40.42-6.34,22.28-12.99,32.19-13.66,43.88-.17,2.92,1.91,4.14.76,7.83-.59,1.93-1.6,3.77-.07,8.05,5.17,14.48,11.89,18.27,11.1,23.56-.88,5.86-19.54,5.5-26.85,4.18-6.01-1.09-5.93-10.06-4.2-20.34.35-2.08.53-4.4.4-7.96-.07-1.76-.52-3.81-.76-6.28-.22-2.28.42-4.69.76-6.6.26-1.44.52-2.6.57-3.21,1.61-22.38,1.11-27.75-1.56-48.79-2.7-21.27,1.08-25.08.61-38.08-.28-7.71-2.5-15.58-3.09-23.92-.75-10.47.28-20.36,1.33-27.8,2.9-20.57,2.88-23.89,3.82-40.15,1.01-17.66-4.35-26.32-1.29-41.55-.71.27-2.45.39-4.17.38-1.72,0-3.46-.11-4.17-.38,3.06,15.23-2.3,23.89-1.28,41.55.93,16.26.92,19.58,3.81,40.15,1.05,7.44,2.08,17.33,1.33,27.8-.59,8.34-2.8,16.21-3.09,23.92-.47,13,3.31,16.81.61,38.08-2.67,21.04-3.17,26.41-1.55,48.79.04.61.31,1.77.57,3.21.34,1.91.97,4.32.75,6.6-.24,2.47-.69,4.52-.75,6.28-.14,3.56.04,5.88.39,7.96,1.73,10.28,1.81,19.25-4.2,20.34-7.3,1.32-25.97,1.68-26.85-4.18-.79-5.29,5.93-9.08,11.1-23.56,1.53-4.28.52-6.12-.07-8.05-1.15-3.69.93-4.91.76-7.83-.67-11.69-7.32-21.6-13.66-43.88-3.43-12.06-5.54-25.21-2.65-40.42,1.49-7.83,3.15-11.87,2.43-24.8-.56-10-4.86-27.03-12.46-55.42-3.42-12.77-12.57-39.51-13.81-52.03-.5-5.05-.69-9.68-.65-13.96,0-.1,0-.2,0-.3.23-20.13,5.67-32.13,9.22-41.22.02-.05.04-.1.06-.15,2.48-6.4,4.66-10.19,12.49-23.3,4.2-7.04,8.46-12.58,9.66-18.07,4.35-8.11-3.37-31.33-6.99-44.23-.49,2.28-1.69,7.75-2.18,9.6-3.1,11.72-7.89,25.56-9.74,34.48-.01.05-.02.1-.03.15-.19.94-.36,1.85-.48,2.68-.28,1.9-1.46,17.81-8.54,35.8-.4,1-.78,1.97-1.15,2.89-.02.05-.04.1-.06.15-5.63,14.19-7.93,19.11-11.93,27.09-2.93,5.84-5.03,10.51-5.36,14.28-.01.05-.01.1-.02.15-.01.1-.03.2-.03.29-.09,1.65,1.69,5.15,2.33,7.35,1.99,6.81-2.03,12.51,2.55,21.41.49.94-2.54,1.07-4.34-.81-2.27-2.37-2.94-8.84-3.01-7.65-.45,7.9-1.84,9.72-2.69,16.17-.63,4.71,1.12,7.31-.25,9.22-1.05,1.46-1.41,1.33-3.98-1.27-1.81-1.82-2.96-3.52-4.12-4.88-2.27-2.64-3.49-5.24-3.69-10.69-.15-4.11.46-7.24,2-13.22.68-2.63,1.43-4.1,2.42-11.5.28-2.16.3-3.46.3-4.42v-.15c0-.55,0-.99.06-1.42.37-3.06,1.95-4.02,2.82-9.76,1.64-10.84,2.73-18.91,4.27-30.19,0-.05.01-.1.02-.15.31-2.3.64-4.71,1-7.33,1.27-9.35,5.52-21.11,10-34.04.01-.05.03-.1.05-.15.26-.74.51-1.48.77-2.23.46-1.33,1.43-11.48,1.81-16.82.46-6.66,4.83-67.75,7.83-76.97,2.23-6.87,4.4-9.63,6.47-10.54v-.02s1.69-.88,2.71-1.29c2.84-1.13,6.35-1.76,10.08-2.41,3.66-.67,10.15-1.41,13.75-2.8,5.33-2.05,9.73-4.61,12.37-11.01,1.12-2.7,1.57-10.21,1.75-15.34-2.54-2.35-4.5-5.38-5.74-10.41-.22-.9-.48-1.97-.73-3.12-2.78.98-3.51-3.3-4.02-4.54-.57-1.36-1.33-1.49-2.08-4.5-.51-2,.37-3.32.01-4.61-.24-.87-.35-3.32.75-4.16.12-.09.27-.14.43-.18-1.65-6.27-2.7-16.51.73-24.35,1.49-3.39,3.32-6.12,5.25-8.29,4.57-5.57,12.1-9.22,20.63-9.22s16.06,3.65,20.63,9.22c1.93,2.17,3.76,4.9,5.25,8.29,3.43,7.84,2.38,18.08.73,24.35.16.04.31.09.43.18,1.1.84.99,3.29.75,4.16-.36,1.29.52,2.61,0,4.61-.75,3.01-1.51,3.14-2.08,4.5-.51,1.24-1.24,5.52-4.02,4.54-.25,1.15-.51,2.22-.73,3.12-1.24,5.03-3.2,8.06-5.74,10.41.18,5.13.63,12.64,1.75,15.34,2.64,6.4,7.04,8.96,12.37,11.01,3.6,1.39,10.09,2.13,13.75,2.8,3.73.65,7.24,1.28,10.08,2.41,1.02.41,2.71,1.29,2.71,1.29v.02c2.07.91,4.24,3.67,6.47,10.54,3,9.22,7.37,70.31,7.83,76.97.38,5.34,1.35,15.49,1.81,16.82.26.75.51,1.49.77,2.23.02.05.04.1.05.15,4.48,12.93,8.73,24.69,10,34.04.36,2.62.69,5.03,1,7.33,0,.05.02.1.02.15,1.54,11.28,2.63,19.35,4.27,30.19.87,5.74,2.45,6.7,2.82,9.76.06.43.06.87.06,1.42v.15c0,.96.02,2.26.3,4.42.99,7.4,1.74,8.87,2.42,11.5,1.54,5.98,2.15,9.11,2,13.22Z"/>
  </g>
</svg>