<?xml version="1.0" encoding="UTF-8"?>
<svg id="_레이어_2" data-name="레이어 2" xmlns="http://www.w3.org/2000/svg" viewBox="0 0 192.46 572.23">
  <defs>
    <style>
      .cls-1 {
        fill: #f3a9aa;
        stroke: #231815;
        stroke-miterlimit: 10;
      }
    </style>
  </defs>
  <g id="_레이어_1-2" data-name="레이어 1">
    <path class="cls-1" d="m43.05,105.51c2.94-1.18,6.62-1.78,10.5-2.48,3.66-.66,9.73-1.41,13.33-2.8,5.33-2.05,9.73-4.61,12.37-11.01,1.12-2.7,1.57-10.21,1.75-15.34-2.54-2.35-4.5-5.38-5.74-10.41-.22-.9-.48-1.97-.73-3.12-2.78.98-3.51-3.3-4.02-4.54-.57-1.37-1.32-1.5-2.08-4.5-.51-2.01.37-3.32.01-4.61-.24-.87-.35-3.33.75-4.16.12-.09.27-.14.43-.18-1.65-6.26-2.7-16.51.73-24.34,1.49-3.39,3.32-6.12,5.25-8.29,4.57-5.58,12.1-9.22,20.63-9.22s16.06,3.64,20.63,9.22c1.93,2.17,3.76,4.9,5.25,8.29,3.43,7.84,2.38,18.08.73,24.34.16.05.31.1.43.18,1.1.84.99,3.29.76,4.16-.36,1.29.51,2.6,0,4.61-.75,3.01-1.51,3.14-2.08,4.5-.51,1.24-1.24,5.52-4.02,4.54-.25,1.15-.51,2.22-.73,3.12-1.23,5.03-3.19,8.06-5.73,10.41.18,5.13.63,12.64,1.74,15.34,2.65,6.4,7.05,8.96,12.38,11.01,3.47,1.34,9.22,2.08,12.92,2.73.28.05.55.1.81.14,3.74.66,7.26,1.28,10.1,2.41,1.02.41,2.71,1.3,2.71,1.3v.02c2.07.91,4.24,3.66,6.47,10.54,2.99,9.22,7.36,70.3,7.83,76.97.37,5.34,1.35,15.48,1.81,16.82.26.75.51,1.49.77,2.23.02.05.04.11.05.16,4.48,12.93,8.72,24.68,9.99,34.03.36,2.61.69,5.03,1,7.33,0,.05.02.11.02.16,1.53,11.28,2.63,19.34,4.27,30.18.86,5.74,2.45,6.7,2.82,9.76.05.43.05.88.05,1.42,0,.49,0,1.22.16,2.36.12,1.35.23,2.71.48,4.38.83,5.61,1.49,7.01,2.09,9.33,1.54,5.98,2.14,9.1,1.99,13.22-.2,5.45-1.42,8.05-3.68,10.69-1.16,1.36-2.31,3.06-4.12,4.88-2.57,2.6-2.93,2.72-3.98,1.26-1.37-1.9.38-4.51-.25-9.21-.85-6.46-2.24-8.27-2.69-16.17-.07-1.19-.74,5.28-3.01,7.65-1.8,1.88-4.83,1.75-4.34.81,4.58-8.9.56-14.6,2.55-21.41.64-2.2,2.42-5.7,2.33-7.35,0-.11-.03-.25-.04-.37,0-.04,0-.09-.02-.13-.35-3.76-2.44-8.41-5.36-14.22-4.01-8-6.37-12.89-11.97-27.17-.19-.49-.39-.99-.6-1.53-.38-.94-.75-1.91-1.12-2.88-6.6-17.38-7.72-32.51-7.99-34.36-.12-.84-.3-1.78-.5-2.75,0-.04-.02-.09-.03-.13-1.86-8.92-6.63-22.73-9.72-34.43-.49-1.85-1.69-7.31-2.18-9.59-.15.51-.28,1.03-.43,1.55-1.44,9.27-3.4,29.49.05,42.6,1.15,6.45,4.07,13.46,6.82,19.98.92,2.18,1.7,4.25,2.42,6.16,4.45,6.45,7.01,10.87,8.48,13.81.03.05.05.11.08.16.56,1.17,1.06,2.25,1.49,3.27.02.04.03.09.05.13,3.56,8.65,8.5,19.96,9,37.92,0,.05,0,.25,0,.3.02.94.03,1.91.03,2.89,0,.05,0,.24,0,.29-.01,3.4-.18,7.02-.54,10.89-.09.94-.2,1.93-.34,2.95-1.78,12.95-10.9,38.26-14.38,50.58-8.03,28.39-12.57,45.41-13.16,55.42-.76,12.92,1,16.97,2.57,24.79,3.04,15.22.82,28.37-2.8,40.42-6.7,22.29-13.72,32.19-14.43,43.89-.18,2.92,2.02,4.14.81,7.83-.63,1.92-1.7,3.76-.08,8.04,5.46,14.49,12.56,18.28,11.72,23.57-.93,5.86-20.64,5.5-28.35,4.17-6.35-1.08-6.27-10.06-4.44-20.33.37-2.08.56-4.4.42-7.96-.07-1.76-.55-3.81-.8-6.28-.23-2.28.44-4.69.8-6.6.27-1.44.55-2.6.6-3.21,1.77-22.38,1.17-27.75-1.65-48.79-2.85-21.27,1.15-25.08.65-38.09-.3-7.7-2.64-15.58-3.26-23.92-.79-10.46.29-20.35,1.4-27.79,3.06-20.57,3.04-23.89,4.03-40.16,1.07-17.65-4.59-26.31-1.36-41.54-.75.27-2.58.39-4.4.38-1.82-.01-3.65-.11-4.4-.38,3.23,15.23-2.43,23.89-1.36,41.54.99,16.27.97,19.59,4.03,40.16,1.11,7.44,2.19,17.33,1.41,27.79-.63,8.34-2.97,16.22-3.27,23.92-.5,13.01,3.5,16.82.65,38.09-2.82,21.04-3.42,26.42-1.65,48.79.05.61.33,1.77.6,3.21.36,1.91,1.03,4.32.8,6.6-.25,2.47-.73,4.52-.8,6.28-.15,3.56.05,5.88.42,7.96,1.83,10.27,1.92,19.25-4.43,20.33-7.72,1.33-27.43,1.69-28.36-4.17-.84-5.29,6.27-9.08,11.73-23.57,1.61-4.28.55-6.12-.08-8.04-1.21-3.69.98-4.91.81-7.83-.72-11.7-7.74-21.6-14.43-43.89-3.63-12.05-5.85-25.2-2.8-40.42,1.57-7.82,3.33-11.87,2.56-24.79-.59-10.01-5.13-27.03-13.15-55.42-3.61-12.77-13.29-39.51-14.59-52.03-.53-5.05-.73-9.69-.69-13.96v-.3c.26-20.12,6.05-32.11,9.75-41.22.02-.05.04-.1.06-.15,1.21-2.72,3.61-7.12,8.25-13.97,1.05-2.85,2.27-6.08,3.75-9.59,2.24-5.34,4.51-10.98,5.99-16.32.34-1.24.64-2.45.86-3.63,0,0,0,0,0,0,3.18-12.13,1.83-29.75.33-38.87-.15-.52-.29-1.05-.43-1.56-.29-.22-.62-.16-.95-.01-.4,1.8-.94,4.24-1.33,5.88-.33,1.35-.66,2.65-.93,3.64-1.31,4.81-2.86,9.9-4.34,14.82-1.79,5.97-3.49,11.67-4.54,16.28-.24,1.05-.45,2.06-.62,2.99,0,.04-.01.08-.02.13-.12.69-.25,1.59-.39,2.65-.47,3.72-1.96,17.62-7.97,33.35-.33.86-.66,1.71-.99,2.53-.4,1-.78,1.95-1.14,2.87-.02.04-.03.09-.05.13-4.96,12.44-7.27,17.45-10.8,24.55-.38.76-.75,1.51-1.13,2.27-2.35,4.77-4.08,8.72-4.61,12.02-.03.15-.06.3-.08.45-.08.53-.06,1.13,0,1.75,0,.05,0,.09,0,.14,0,.09.01.19.03.27.24,1.45,1.19,3.59,1.78,5.31.24.69.43,1.36.56,1.98,1.34,6.19-1.78,11.6,1.97,19.62.23.49.04.86-.23,1.13-.31.31-1.8.25-3.08-.66-.41-.29-.79-.67-1.12-1.13-1.54-2.16-2.16-6.06-2.38-6.45-.13-.23-.19-.27-.22.17-.47,7.05-1.73,9.07-2.56,14.85-.06.4-.1.8-.14,1.2-.38,3.97.88,6.37.02,8.14-.16.34-.34.62-.55.85-.82.91-1.34.65-3.31-1.31-.22-.22-.44-.44-.66-.68-1.49-1.55-2.52-3-3.53-4.22-.18-.22-.35-.43-.53-.64-2.05-2.49-3.19-5.04-3.42-10.05,0-.21-.02-.43-.02-.65-.11-3.91.49-7,1.95-12.68.04-.14.07-.27.11-.41.67-2.52,1.4-4.1,2.37-11.31.29-2.22.3-3.53.3-4.5,0-.03,0-.13,0-.16,0-.48,0-.88.05-1.28,0-.04,0-.08.02-.12.4-3.01,1.95-3.99,2.81-9.7,1.64-10.87,2.74-18.94,4.28-30.26,0-.05.01-.1.02-.15.31-2.28.63-4.67.99-7.26,1.27-9.37,5.53-21.16,10.02-34.11.01-.05.03-.1.05-.15.25-.72.49-1.43.74-2.16.46-1.34,1.43-11.48,1.81-16.82.46-6.67,4.83-67.75,7.83-76.97,2.23-6.88,4.4-9.63,6.47-10.54v-.02s1.69-.89,2.71-1.3Z"/>
  </g>
</svg>