<?xml version="1.0" encoding="UTF-8"?>
<svg id="_레이어_2" data-name="레이어 2" xmlns="http://www.w3.org/2000/svg" viewBox="0 0 192.46 572.08">
  <defs>
    <style>
      .cls-1 {
        fill: #f3a9aa;
        stroke: #231815;
        stroke-miterlimit: 10;
      }
    </style>
  </defs>
  <g id="_레이어_1-2" data-name="레이어 1">
    <path class="cls-1" d="m43.05,105.51c2.94-1.18,6.62-1.78,10.5-2.48,3.66-.66,9.73-1.41,13.33-2.8,5.33-2.05,9.73-4.61,12.37-11.01,1.12-2.7,1.57-10.21,1.75-15.34-2.54-2.35-4.5-5.38-5.74-10.41-.22-.9-.48-1.97-.73-3.12-2.78.98-3.51-3.3-4.02-4.54-.57-1.37-1.32-1.5-2.08-4.5-.51-2.01.37-3.32,0-4.61-.24-.87-.35-3.33.75-4.16.12-.09.27-.14.43-.18-1.65-6.26-2.7-16.51.73-24.34,1.49-3.39,3.32-6.12,5.25-8.29,4.57-5.58,12.1-9.22,20.63-9.22s16.06,3.64,20.63,9.22c1.93,2.17,3.76,4.9,5.25,8.29,3.43,7.84,2.38,18.08.73,24.34.16.05.31.09.43.18,1.1.83.99,3.29.75,4.16-.36,1.29.52,2.6,0,4.61-.76,3-1.51,3.13-2.08,4.5-.51,1.24-1.24,5.52-4.02,4.54-.25,1.15-.51,2.22-.73,3.12-1.24,5.03-3.2,8.06-5.74,10.41.18,5.13.63,12.64,1.75,15.34,2.64,6.4,7.04,8.96,12.37,11.01,3.47,1.34,9.23,2.08,12.93,2.73.27.05.54.09.8.14,3.73.66,7.26,1.27,10.1,2.41,1.02.41,2.71,1.3,2.71,1.3v.02c2.07.91,4.24,3.66,6.47,10.54,3,9.22,7.37,70.3,7.83,76.97.38,5.34,1.35,15.48,1.81,16.82.26.75.51,1.49.77,2.23.02.05.04.11.05.16,4.48,12.93,8.72,24.68,9.99,34.03.36,2.61.69,5.03,1,7.33,0,.05.02.11.02.16,1.54,11.28,2.63,19.34,4.27,30.18.87,5.74,2.43,6.71,2.82,9.76.06.44.06.88.06,1.42,0,.49,0,1.22.15,2.36.12,1.35.24,2.71.48,4.38.83,5.6,1.49,7.01,2.09,9.33,1.54,5.98,2.15,9.1,2,13.22-.2,5.45-1.43,8.05-3.69,10.69-1.16,1.36-2.31,3.06-4.12,4.88-2.57,2.6-2.93,2.72-3.98,1.26-1.37-1.9.38-4.51-.25-9.21-.85-6.46-2.24-8.27-2.69-16.17-.07-1.19-.74,5.28-3.01,7.65-1.8,1.88-4.83,1.75-4.34.81,4.58-8.9.56-14.6,2.55-21.41.64-2.2,2.42-5.7,2.33-7.35,0-.11-.03-.25-.04-.37,0-.04,0-.09-.02-.13-.35-3.76-2.44-8.41-5.35-14.22-4.01-8-6.31-12.92-11.96-27.17-.2-.49-.4-.99-.6-1.53-.38-.94-.75-1.91-1.12-2.89-6.6-17.38-7.72-32.5-7.99-34.36-.12-.84-.3-1.78-.49-2.75,0-.05-.02-.09-.03-.14-.91-4.45-2.58-10.11-4.38-16.11-1.82-6.05-3.79-12.45-5.34-18.31-.49-1.85-1.69-7.31-2.18-9.59-.14.51-.28,1.03-.42,1.55-1.36,9.27-2.41,29.49,1.04,42.61,1.54,6.45,2.65,14.38,3.51,21.06,1.2,9.27,1.5,13.6,2.74,21.05.24,1.45.44,2.81.69,4.02,2.8,8.6,6.08,19.88,6.22,37.06.03,4.28-.13,8.91-.54,13.96-1.03,12.52-8.65,39.26-11.49,52.03-6.32,28.39-9.9,45.41-10.36,55.42-.6,12.93.79,16.97,2.03,24.8,2.4,15.21.65,28.36-2.21,40.42-5.27,22.28-10.81,32.19-11.37,43.88-.13,2.92,1.59,4.14.64,7.83-.5,1.93-1.33,3.76-.06,8.05,4.3,14.48,9.89,18.27,9.23,23.56-.73,5.86-16.25,5.5-22.33,4.18-5-1.09-4.94-10.07-3.49-20.34.29-2.08.44-4.4.32-7.96-.05-1.76-.43-3.81-.62-6.28-.19-2.28.34-4.69.62-6.6.22-1.44.44-2.6.48-3.21,1.4-22.38.93-27.75-1.3-48.79-2.24-21.27.91-25.08.51-38.08-.23-7.71-2.07-15.58-2.57-23.93-.62-10.46.23-20.35,1.11-27.79,2.41-20.57,2.39-23.89,3.17-40.15.85-17.66-3.61-26.32-1.07-41.55-.59.27-2.03.38-3.46.38s-2.88-.11-3.47-.38c2.54,15.23-1.92,23.89-1.07,41.55.78,16.26.76,19.58,3.17,40.15.88,7.44,1.73,17.33,1.11,27.79-.49,8.35-2.34,16.22-2.57,23.93-.4,13,2.75,16.81.51,38.08-2.22,21.04-2.7,26.41-1.3,48.79.04.61.26,1.77.48,3.21.29,1.91.8,4.32.62,6.6-.2,2.47-.57,4.52-.62,6.28-.11,3.56.03,5.88.32,7.96,1.45,10.27,1.51,19.25-3.49,20.34-6.07,1.32-21.6,1.68-22.33-4.18-.66-5.29,4.93-9.08,9.23-23.56,1.28-4.29.44-6.12-.06-8.05-.95-3.69.78-4.91.64-7.83-.56-11.69-6.09-21.6-11.37-43.88-2.85-12.06-4.6-25.21-2.2-40.42,1.23-7.83,2.62-11.87,2.02-24.8-.47-10.01-4.04-27.03-10.36-55.42-2.85-12.77-10.46-39.51-11.49-52.03-.42-5.05-.58-9.68-.55-13.96.13-16.88,3.3-28.07,6.07-36.61,0,0,0,0,0,0,.31-1.46.55-3.12.84-4.9,1.24-7.54,1.54-11.86,2.75-21.07.86-6.54,1.98-14.28,3.5-20.61,3.53-13.28,2.2-34.23.83-43.38-.12-.04-.24-.04-.37,0-.53,2.45-1.57,7.14-2.01,8.82-1.55,5.86-3.52,12.26-5.34,18.31-1.81,6.04-3.49,11.72-4.4,16.18-.01.05-.02.1-.03.16-.19.94-.36,1.85-.48,2.67-.28,1.91-1.46,17.81-8.54,35.8-.4,1.01-.78,1.97-1.15,2.89-.02.04-.04.09-.05.13-5.64,14.21-7.94,19.12-11.94,27.11-2.93,5.84-5.03,10.51-5.36,14.28-.02.1-.03.2-.03.3,0,.09-.02.18-.02.28,0,1.69,1.71,5.07,2.33,7.22,1.99,6.81-2.03,12.51,2.55,21.41.49.94-2.54,1.07-4.34-.81-2.27-2.37-2.94-8.84-3.01-7.65-.45,7.9-1.84,9.71-2.69,16.17-.63,4.71,1.12,7.31-.25,9.21-1.05,1.46-1.41,1.33-3.98-1.26-1.81-1.83-2.96-3.52-4.12-4.88-2.26-2.64-3.49-5.24-3.69-10.69-.15-4.11.46-7.24,2-13.22.68-2.64,1.43-4.11,2.42-11.5.29-2.22.3-3.53.3-4.5,0-.03,0-.13,0-.16,0-.48,0-.88.05-1.28,0-.04,0-.08.02-.12.4-3.01,1.95-3.99,2.81-9.7,1.64-10.87,2.73-18.94,4.28-30.26,0-.05.01-.1.02-.15.31-2.28.63-4.67.99-7.26,1.27-9.37,5.53-21.16,10.02-34.11.01-.05.03-.1.05-.15.25-.72.49-1.43.74-2.16.46-1.34,1.43-11.48,1.81-16.82.46-6.67,4.83-67.75,7.83-76.97,2.23-6.88,4.4-9.63,6.47-10.54v-.02s1.69-.89,2.71-1.3Z"/>
  </g>
</svg>