<?xml version="1.0" encoding="UTF-8"?>
<svg id="_레이어_2" data-name="레이어 2" xmlns="http://www.w3.org/2000/svg" viewBox="0 0 192.46 571.94">
  <defs>
    <style>
      .cls-1 {
        fill: #f3a9aa;
        stroke: #231815;
        stroke-miterlimit: 10;
      }
    </style>
  </defs>
  <g id="_레이어_1-2" data-name="레이어 1">
    <path class="cls-1" d="m191.94,325.64c-.2,5.45-1.42,8.05-3.69,10.69-1.16,1.36-2.31,3.06-4.12,4.88-2.57,2.6-2.93,2.73-3.98,1.27-1.37-1.91.38-4.51-.25-9.22-.85-6.45-2.24-8.27-2.69-16.17-.07-1.19-.74,5.28-3.01,7.65-1.8,1.88-4.83,1.75-4.34.81,4.58-8.9.56-14.6,2.55-21.41.64-2.2,2.42-5.7,2.33-7.35,0-.09-.02-.19-.03-.29,0-.05,0-.1-.02-.15-.33-3.77-2.43-8.44-5.36-14.28-4-7.98-6.3-12.9-11.93-27.09l-.06-.15c-.37-.92-.75-1.89-1.15-2.89-7.08-17.99-8.26-33.9-8.54-35.8-.12-.83-.29-1.74-.48-2.68,0-.05-.02-.1-.03-.15-1.85-8.92-6.64-22.76-9.74-34.48-.49-1.85-1.69-7.32-2.18-9.6-3.62,12.9-9.35,36.12-5,44.23,2.17,6.75,4.22,14.88,5.65,20.78,2.5,10.3,2.64,11.15,5.45,20.74,2.96,9.14,7.52,21.21,7.68,41.52.03,4.28-.13,8.91-.55,13.96-1.03,12.52-8.64,39.26-11.49,52.03-6.32,28.39-9.89,45.41-10.36,55.42-.6,12.93.79,16.97,2.02,24.8,2.4,15.21.65,28.36-2.2,40.42-5.28,22.28-10.81,32.19-11.37,43.88-.14,2.92,1.59,4.14.64,7.83-.5,1.93-1.34,3.76-.06,8.05,4.3,14.48,9.89,18.27,9.23,23.56-.73,5.86-16.26,5.5-22.33,4.18-5-1.09-4.94-10.07-3.49-20.34.29-2.08.44-4.4.32-7.96-.05-1.76-.43-3.81-.62-6.28-.19-2.28.34-4.69.62-6.6.22-1.44.44-2.6.48-3.21,1.34-22.38.92-27.75-1.3-48.79-2.24-21.27.91-25.08.51-38.08-.23-7.71-2.08-15.58-2.57-23.93-.62-10.46.23-20.35,1.11-27.79,2.41-20.57,2.39-23.89,3.17-40.15.85-17.66-3.61-26.32-1.07-41.55-.59.27-2.02.39-3.46.38-1.44.01-2.88-.11-3.47-.38,2.54,15.23-1.92,23.89-1.07,41.55.78,16.26.76,19.58,3.17,40.15.88,7.44,1.73,17.33,1.11,27.79-.49,8.35-2.34,16.22-2.57,23.93-.4,13,2.75,16.81.51,38.08-2.22,21.04-2.64,26.41-1.3,48.79.04.61.26,1.77.48,3.21.28,1.91.81,4.32.62,6.6-.19,2.47-.57,4.52-.62,6.28-.12,3.56.03,5.88.32,7.96,1.45,10.27,1.51,19.25-3.49,20.34-6.07,1.32-21.6,1.68-22.33-4.18-.66-5.29,4.93-9.08,9.23-23.56,1.28-4.29.44-6.12-.06-8.05-.95-3.69.78-4.91.64-7.83-.56-11.69-6.09-21.6-11.37-43.88-2.85-12.06-4.6-25.21-2.2-40.42,1.23-7.83,2.62-11.87,2.02-24.8-.47-10.01-4.04-27.03-10.36-55.42-2.85-12.77-10.46-39.51-11.49-52.03-.42-5.05-.58-9.68-.55-13.96.16-20.31,4.72-32.38,7.68-41.52,2.82-9.59,2.96-10.44,5.46-20.74,1.43-5.9,3.48-14.03,5.64-20.78,4.35-8.11-1.37-31.33-4.99-44.23-.49,2.28-1.69,7.75-2.18,9.6-3.1,11.72-7.89,25.56-9.74,34.48,0,.05-.02.1-.03.15-.19.94-.36,1.85-.48,2.68-.28,1.9-1.46,17.81-8.54,35.8-.4,1-.78,1.97-1.15,2.89l-.06.15c-5.63,14.19-7.93,19.11-11.93,27.09-2.93,5.84-5.03,10.51-5.36,14.28-.01.05-.01.1-.02.15,0,.1-.03.2-.03.29-.09,1.65,1.69,5.15,2.33,7.35,1.99,6.81-2.03,12.51,2.55,21.41.49.94-2.54,1.07-4.34-.81-2.27-2.37-2.94-8.84-3.01-7.65-.45,7.9-1.84,9.72-2.69,16.17-.63,4.71,1.12,7.31-.25,9.22-1.05,1.46-1.41,1.33-3.98-1.27-1.81-1.82-2.96-3.52-4.12-4.88-2.27-2.64-3.49-5.24-3.69-10.69-.15-4.11.46-7.24,2-13.22.68-2.63,1.43-4.1,2.42-11.5.28-2.16.3-3.46.3-4.42v-.15c0-.55,0-.99.06-1.42.37-3.06,1.95-4.02,2.82-9.76,1.64-10.84,2.73-18.91,4.27-30.19,0-.05,0-.1.02-.15.31-2.3.64-4.71,1-7.33,1.27-9.35,5.52-21.11,10-34.04,0-.05.03-.1.05-.15.26-.74.51-1.48.77-2.23.46-1.33,1.43-11.48,1.81-16.82.46-6.66,4.83-67.75,7.83-76.97,2.23-6.87,4.4-9.63,6.47-10.54v-.02s1.69-.88,2.71-1.29c2.84-1.13,6.35-1.76,10.08-2.41,3.66-.67,10.15-1.41,13.75-2.8,5.33-2.05,9.73-4.61,12.37-11.01,1.12-2.7,1.57-10.21,1.75-15.34-2.54-2.35-4.5-5.38-5.74-10.41-.22-.9-.48-1.97-.73-3.12-2.78.98-3.51-3.3-4.02-4.54-.57-1.36-1.33-1.49-2.08-4.5-.51-2,.37-3.32,0-4.61-.24-.87-.35-3.32.75-4.16.12-.09.27-.14.43-.18-1.65-6.27-2.7-16.51.73-24.35,1.49-3.39,3.32-6.12,5.25-8.29,4.57-5.57,12.1-9.22,20.63-9.22s16.06,3.65,20.63,9.22c1.93,2.17,3.76,4.9,5.25,8.29,3.43,7.84,2.38,18.08.73,24.35.16.04.31.09.43.18,1.1.84.99,3.29.75,4.16-.36,1.29.52,2.61,0,4.61-.75,3.01-1.51,3.14-2.08,4.5-.51,1.24-1.24,5.52-4.02,4.54-.25,1.15-.51,2.22-.73,3.12-1.24,5.03-3.2,8.06-5.74,10.41.18,5.13.63,12.64,1.75,15.34,2.64,6.4,7.04,8.96,12.37,11.01,3.6,1.39,10.09,2.13,13.75,2.8,3.73.65,7.24,1.28,10.08,2.41,1.02.41,2.71,1.29,2.71,1.29v.02c2.07.91,4.24,3.67,6.47,10.54,3,9.22,7.37,70.31,7.83,76.97.38,5.34,1.35,15.49,1.81,16.82.26.75.51,1.49.77,2.23.02.05.04.1.05.15,4.48,12.93,8.73,24.69,10,34.04.36,2.62.69,5.03,1,7.33.01.05.02.1.02.15,1.54,11.28,2.63,19.35,4.27,30.19.87,5.74,2.45,6.7,2.82,9.76.06.43.06.87.06,1.42v.15c0,.96.02,2.26.3,4.42.99,7.4,1.74,8.87,2.42,11.5,1.54,5.98,2.15,9.11,2,13.22Z"/>
  </g>
</svg>