<?xml version="1.0" encoding="UTF-8"?>
<svg id="_레이어_2" data-name="레이어 2" xmlns="http://www.w3.org/2000/svg" viewBox="0 0 192.46 572.01">
  <defs>
    <style>
      .cls-1 {
        fill: #f3a9aa;
        stroke: #231815;
        stroke-miterlimit: 10;
      }
    </style>
  </defs>
  <g id="_레이어_1-2" data-name="레이어 1">
    <path class="cls-1" d="m43.05,105.54c2.99-1.2,6.75-1.81,10.71-2.51,3.66-.66,9.52-1.41,13.12-2.8,5.33-2.05,9.73-4.61,12.37-11.01,1.12-2.7,1.57-10.21,1.75-15.34-2.54-2.35-4.5-5.38-5.74-10.41-.22-.9-.48-1.98-.73-3.12-2.78.98-3.51-3.3-4.02-4.54-.57-1.37-1.32-1.5-2.08-4.5-.51-2.01.37-3.32.01-4.61-.24-.87-.35-3.32.75-4.16.12-.09.27-.14.43-.19-1.65-6.26-2.7-16.5.73-24.34,1.49-3.39,3.32-6.13,5.25-8.29,4.57-5.58,12.1-9.22,20.63-9.22s16.07,3.64,20.63,9.22c1.94,2.16,3.77,4.9,5.26,8.29,3.43,7.84,2.38,18.08.73,24.34.16.05.31.1.42.19,1.11.84,1,3.29.76,4.16-.36,1.29.51,2.6.01,4.61-.75,3-1.51,3.13-2.08,4.5-.52,1.24-1.24,5.52-4.02,4.54-.25,1.14-.52,2.22-.74,3.12-1.23,5.03-3.19,8.06-5.73,10.41.18,5.13.63,12.64,1.74,15.34,2.65,6.4,7.05,8.96,12.38,11.01,3.53,1.37,9.23,2.11,12.91,2.76.27.05.54.09.81.14,3.74.65,7.27,1.28,10.1,2.41,1.03.41,2.71,1.3,2.71,1.3v.02c2.08.91,4.25,3.66,6.48,10.54,2.99,9.21,7.36,70.3,7.83,76.97.37,5.34,1.35,15.48,1.81,16.82.26.75.51,1.49.77,2.23.02.06.04.11.06.17,4.48,12.92,8.72,24.67,9.99,34.02.36,2.61.69,5.03,1,7.33,0,.05.02.11.02.16,1.53,11.27,2.63,19.33,4.27,30.17.86,5.75,2.44,6.71,2.82,9.76.05.44.05.88.05,1.43,0,.73,0,1.76.23,3.47.17,1.55.34,2.94.57,4.37.75,4.7,1.36,6.07,1.93,8.24,1.54,5.98,2.14,9.1,1.99,13.22-.2,5.44-1.42,8.05-3.68,10.69-1.16,1.36-2.31,3.05-4.12,4.88-2.57,2.6-2.93,2.72-3.98,1.26-1.37-1.9.37-4.5-.25-9.21-.85-6.46-2.24-8.27-2.69-16.17-.07-1.19-.74,5.28-3.01,7.65-1.8,1.88-4.84,1.75-4.35.8,4.59-8.89.57-14.59,2.56-21.4.64-2.2,2.42-5.7,2.33-7.35,0-.13-.04-.27-.04-.4,0-.04,0-.08-.01-.12-.35-3.76-2.44-8.4-5.35-14.2-4.02-8-6.37-12.9-11.98-27.2-.28-.71-.57-1.44-.87-2.21-.38-.96-.75-1.92-1.11-2.89-6.36-17.07-7.45-31.8-7.72-33.63-.13-.85-.31-1.8-.51-2.78,0-.04-.02-.08-.03-.12-1.86-8.92-6.62-22.72-9.71-34.4-.49-1.85-1.69-7.31-2.18-9.59-.15.51-.27,1.03-.41,1.55-.23,7.31.91,26.37,4.34,42.57,0,0,0,0,0,0,1.14,6.89,2.74,13.94,4.07,20.76s2.22,12.36,2.69,16.07c.49,1.54.71,2.44.77,2.63.33.92.57,1.6.73,2.05,0,0-.04,0-.03,0,.04.13.08.23.1.29,3.44,9.09,8.46,21.16,8.63,41.31v.14c.03,4.24-.15,8.82-.61,13.82-1.17,12.52-9.82,39.26-13.04,52.03-7.18,28.38-11.24,45.41-11.76,55.42-.68,12.92.89,16.97,2.29,24.79,2.72,15.22.74,28.37-2.5,40.42-5.99,22.28-12.26,32.19-12.9,43.89-.16,2.92,1.81,4.14.73,7.83-.56,1.92-1.52,3.76-.08,8.04,4.88,14.49,11.23,18.28,10.48,23.57-.83,5.86-18.45,5.49-25.34,4.17-5.68-1.08-5.6-10.06-3.96-20.34.33-2.07.5-4.4.37-7.95-.07-1.76-.5-3.81-.72-6.28-.21-2.28.4-4.69.72-6.6.24-1.45.49-2.61.54-3.21,1.7-22.38,1.05-27.75-1.48-48.8-2.54-21.26,1.03-25.08.58-38.08-.27-7.7-2.36-15.58-2.92-23.92-.7-10.47.27-20.35,1.26-27.79,2.73-20.57,2.72-23.89,3.6-40.16.96-17.65-4.1-26.31-1.21-41.54-.67.26-2.31.39-3.94.38s-3.26-.12-3.93-.38c2.89,15.23-2.17,23.89-1.22,41.54.89,16.27.87,19.59,3.61,40.16.99,7.44,1.96,17.32,1.25,27.79-.56,8.34-2.65,16.22-2.91,23.92-.45,13,3.12,16.82.57,38.08-2.52,21.05-2.99,26.41-1.47,48.8.04.6.3,1.76.54,3.21.32,1.91.92,4.32.71,6.6-.22,2.47-.65,4.52-.71,6.28-.13,3.55.04,5.88.37,7.95,1.64,10.28,1.71,19.26-3.96,20.34-6.9,1.32-24.51,1.69-25.34-4.17-.75-5.29,5.59-9.08,10.47-23.57,1.45-4.28.5-6.12-.07-8.04-1.08-3.69.88-4.91.73-7.83-.64-11.7-6.92-21.61-12.9-43.89-3.24-12.05-5.23-25.2-2.5-40.42,1.4-7.82,2.97-11.87,2.29-24.79-.53-10.01-4.58-27.04-11.76-55.42-3.22-12.77-11.87-39.51-13.04-52.03-.46-5-.64-9.58-.61-13.82v-.14c.17-20.2,5.18-32.3,8.66-41.38.02-.04.05-.15.1-.28,0,0-.04,0-.04,0,.18-.48.36-1,.56-1.58.06-.17.28-1.06.77-2.61.48-3.95,1.49-10.19,3.01-17.81,1.3-6.49,2.83-13.05,3.9-19.45,0,0,0,0,0,0,3.47-16.29,4.47-35.66,4.23-42.95-.13-.28-.25-.54-.39-.77-.51,2.37-1.63,7.44-2.1,9.2-1.55,5.86-3.52,12.25-5.34,18.3-1.81,6.04-3.49,11.72-4.4,16.18-.01.05-.02.11-.03.16-.19.94-.36,1.85-.48,2.66-.27,1.91-1.46,17.82-8.54,35.8-.4,1.01-.78,1.97-1.15,2.9-.02.04-.03.08-.05.12-5.64,14.21-7.94,19.13-11.94,27.12-2.93,5.84-5.03,10.51-5.36,14.28-.02.12-.03.25-.04.37,0,.09-.01.18,0,.27.04,1.71,1.71,5.04,2.33,7.15,1.99,6.81-2.03,12.51,2.55,21.4.49.95-2.54,1.08-4.34-.8-2.27-2.37-2.94-8.84-3.01-7.65-.45,7.9-1.84,9.71-2.69,16.17-.63,4.71,1.12,7.31-.25,9.21-1.05,1.46-1.41,1.34-3.98-1.26-1.81-1.83-2.96-3.52-4.12-4.88-2.26-2.64-3.49-5.25-3.69-10.69-.15-4.12.46-7.24,2-13.22.68-2.64,1.43-4.11,2.42-11.5.29-2.25.3-3.57.3-4.53,0-.04,0-.12,0-.16,0-.48,0-.88.06-1.27,0-.04,0-.08.01-.12.4-2.99,1.95-3.98,2.81-9.68,1.65-10.88,2.74-18.95,4.29-30.3,0-.05.01-.1.02-.14.31-2.27.63-4.65.99-7.22,1.28-9.38,5.54-21.18,10.04-34.15.02-.05.03-.1.05-.15.25-.7.48-1.41.73-2.12.46-1.34,1.43-11.48,1.81-16.82.46-6.67,4.83-67.76,7.83-76.97,2.23-6.88,4.4-9.63,6.47-10.54v-.02s1.69-.89,2.71-1.3Z"/>
  </g>
</svg>