<?xml version="1.0" encoding="UTF-8"?>
<svg id="_레이어_2" data-name="레이어 2" xmlns="http://www.w3.org/2000/svg" viewBox="0 0 192.46 572.24">
  <defs>
    <style>
      .cls-1 {
        fill: #f3a9aa;
        stroke: #231815;
        stroke-miterlimit: 10;
      }
    </style>
  </defs>
  <g id="_레이어_1-2" data-name="레이어 1">
    <path class="cls-1" d="m191.94,325.64c-.2,5.45-1.42,8.05-3.69,10.69-1.16,1.36-2.31,3.06-4.12,4.88-2.57,2.6-2.93,2.73-3.98,1.27-1.37-1.91.38-4.51-.25-9.22-.85-6.45-2.24-8.27-2.69-16.17-.07-1.19-.74,5.28-3.01,7.65-1.8,1.88-4.83,1.75-4.34.81,4.58-8.9.56-14.6,2.55-21.41.64-2.2,2.42-5.7,2.33-7.35,0-.09-.02-.19-.03-.29-.01-.05-.01-.1-.02-.15-.33-3.77-2.43-8.44-5.36-14.28-4-7.98-6.3-12.9-11.93-27.09-.02-.05-.04-.1-.06-.15-.37-.92-.75-1.89-1.15-2.89-7.08-17.99-8.26-33.9-8.54-35.8-.12-.83-.29-1.74-.48-2.68l-.03-.15c-1.85-8.92-6.64-22.76-9.74-34.48-.49-1.85-1.69-7.32-2.18-9.6-3.62,12.9-8.79,34.37-3.02,44.23,1.31,5.58,6.11,13.38,11.04,19.61,6.19,7.83,10.73,16.38,13.15,21.91.05.1.09.2.13.3,3.95,9.09,10,21.1,10.26,41.22,0,.11.01.2.01.3.04,4.28-.17,8.91-.72,13.96-1.38,12.52-11.57,39.26-15.37,52.03-8.45,28.39-13.23,45.42-13.85,55.42-.81,12.93,1.05,16.97,2.7,24.8,3.21,15.21.87,28.36-2.95,40.42-7.05,22.28-14.44,32.19-15.19,43.88-.19,2.92,2.12,4.14.85,7.83-.66,1.93-1.79,3.77-.09,8.05,5.75,14.48,13.23,18.27,12.35,23.56-.98,5.86-21.74,5.5-29.86,4.18-6.69-1.09-6.6-10.06-4.67-20.34.39-2.08.59-4.4.44-7.96-.08-1.76-.58-3.81-.84-6.28-.24-2.28.46-4.69.84-6.6.29-1.44.58-2.6.63-3.21,1.8-22.38,1.24-27.75-1.73-48.79-3-21.27,1.21-25.08.68-38.08-.31-7.71-2.78-15.58-3.44-23.92-.83-10.47.32-20.36,1.48-27.8,3.22-20.57,3.21-23.89,4.25-40.15,1.13-17.66-4.83-26.32-1.44-41.55-.78.27-2.71.39-4.63.38-1.91.01-3.85-.11-4.63-.38,3.4,15.23-2.56,23.89-1.44,41.55,1.05,16.26,1.03,19.58,4.25,40.15,1.17,7.44,2.31,17.33,1.48,27.8-.66,8.34-3.12,16.21-3.44,23.92-.53,13,3.68,16.81.68,38.08-2.97,21.04-3.53,26.41-1.73,48.79.05.61.34,1.77.63,3.21.38,1.91,1.09,4.32.84,6.6-.26,2.47-.76,4.52-.84,6.28-.15,3.56.05,5.88.44,7.96,1.93,10.28,2.02,19.25-4.67,20.34-8.12,1.32-28.88,1.68-29.86-4.18-.88-5.29,6.6-9.08,12.35-23.56,1.7-4.28.58-6.12-.09-8.05-1.27-3.69,1.04-4.91.86-7.83-.75-11.69-8.15-21.6-15.2-43.88-3.81-12.06-6.16-25.21-2.95-40.42,1.65-7.83,3.51-11.87,2.7-24.8-.62-10-5.4-27.03-13.85-55.42-3.8-12.77-13.99-39.51-15.36-52.03-.56-5.05-.77-9.68-.73-13.96,0-.1.01-.19.01-.3.26-20.12,6.31-32.13,10.26-41.22.04-.1.08-.2.13-.3,2.43-5.53,6.96-14.08,13.16-21.91,4.92-6.23,9.72-14.03,11.03-19.61,5.78-9.86.6-31.33-3.02-44.23-.49,2.28-1.69,7.75-2.18,9.6-3.1,11.72-7.89,25.56-9.74,34.48-.01.05-.02.1-.03.15-.19.94-.36,1.85-.48,2.68-.28,1.9-1.46,17.81-8.54,35.8-.4,1-.78,1.97-1.15,2.89l-.06.15c-5.63,14.19-7.93,19.11-11.93,27.09-2.93,5.84-5.03,10.51-5.36,14.28-.01.05-.01.1-.02.15-.01.1-.03.2-.03.29-.09,1.65,1.69,5.15,2.33,7.35,1.99,6.81-2.03,12.51,2.55,21.41.49.94-2.54,1.07-4.34-.81-2.27-2.37-2.94-8.84-3.01-7.65-.45,7.9-1.84,9.72-2.69,16.17-.63,4.71,1.12,7.31-.25,9.22-1.05,1.46-1.41,1.33-3.98-1.27-1.81-1.82-2.96-3.52-4.12-4.88-2.27-2.64-3.49-5.24-3.69-10.69-.15-4.11.46-7.24,2-13.22.68-2.63,1.43-4.1,2.42-11.5.28-2.16.3-3.46.3-4.42v-.15c0-.55,0-.99.06-1.42.37-3.06,1.95-4.02,2.82-9.76,1.64-10.84,2.73-18.91,4.27-30.19,0-.05.01-.1.02-.15.31-2.3.64-4.71,1-7.33,1.27-9.35,5.52-21.11,10-34.04.01-.05.03-.1.05-.15.26-.74.51-1.48.77-2.23.46-1.33,1.43-11.48,1.81-16.82.46-6.66,4.83-67.75,7.83-76.97,2.23-6.87,4.4-9.63,6.47-10.54v-.02s1.69-.88,2.71-1.29c2.84-1.13,6.35-1.76,10.08-2.41,3.66-.67,10.15-1.41,13.75-2.8,5.33-2.05,9.73-4.61,12.37-11.01,1.12-2.7,1.57-10.21,1.75-15.34-2.54-2.35-4.5-5.38-5.74-10.41-.22-.9-.48-1.97-.73-3.12-2.78.98-3.51-3.3-4.02-4.54-.57-1.36-1.33-1.49-2.08-4.5-.51-2,.37-3.32.01-4.61-.24-.87-.35-3.32.75-4.16.12-.09.27-.14.43-.18-1.65-6.27-2.7-16.51.73-24.35,1.49-3.39,3.32-6.12,5.25-8.29,4.57-5.57,12.1-9.22,20.63-9.22s16.06,3.65,20.63,9.22c1.93,2.17,3.76,4.9,5.25,8.29,3.43,7.84,2.38,18.08.73,24.35.16.04.31.09.43.18,1.1.84.99,3.29.75,4.16-.36,1.29.52,2.61.01,4.61-.75,3.01-1.51,3.14-2.08,4.5-.51,1.24-1.24,5.52-4.02,4.54-.25,1.15-.51,2.22-.73,3.12-1.24,5.03-3.2,8.06-5.74,10.41.18,5.13.63,12.64,1.75,15.34,2.64,6.4,7.04,8.96,12.37,11.01,3.6,1.39,10.09,2.13,13.75,2.8,3.73.65,7.24,1.28,10.08,2.41,1.02.41,2.71,1.29,2.71,1.29v.02c2.07.91,4.24,3.67,6.47,10.54,3,9.22,7.37,70.31,7.83,76.97.38,5.34,1.35,15.49,1.81,16.82.26.75.51,1.49.77,2.23.02.05.04.1.05.15,4.48,12.93,8.73,24.69,10,34.04.36,2.62.69,5.03,1,7.33,0,.05.02.1.02.15,1.54,11.28,2.63,19.35,4.27,30.19.87,5.74,2.45,6.7,2.82,9.76.06.43.06.87.06,1.42v.15c0,.96.02,2.26.3,4.42.99,7.4,1.74,8.87,2.42,11.5,1.54,5.98,2.15,9.11,2,13.22Z"/>
  </g>
</svg>