<?xml version="1.0" encoding="UTF-8"?>
<svg id="_레이어_2" data-name="레이어 2" xmlns="http://www.w3.org/2000/svg" viewBox="0 0 192.46 572.01">
  <defs>
    <style>
      .cls-1 {
        fill: #f3a9aa;
        stroke: #231815;
        stroke-miterlimit: 10;
      }
    </style>
  </defs>
  <g id="_레이어_1-2" data-name="레이어 1">
    <path class="cls-1" d="m43.05,105.47c2.89-1.15,6.49-1.76,10.29-2.44,3.66-.66,9.94-1.41,13.54-2.8,5.33-2.05,9.73-4.61,12.37-11.01,1.12-2.7,1.57-10.21,1.75-15.34-2.54-2.35-4.5-5.38-5.74-10.41-.22-.9-.48-1.97-.73-3.12-2.78.98-3.51-3.3-4.02-4.54-.57-1.36-1.32-1.49-2.08-4.5-.5-2,.37-3.32.01-4.61-.24-.87-.35-3.32.75-4.16.12-.09.27-.14.43-.18-1.65-6.27-2.7-16.51.73-24.35,1.49-3.39,3.32-6.12,5.25-8.29,4.57-5.57,12.1-9.22,20.63-9.22s16.06,3.65,20.63,9.22c1.93,2.17,3.76,4.9,5.25,8.29,3.43,7.84,2.38,18.08.73,24.35.16.04.31.09.43.18,1.1.84.99,3.29.75,4.16-.36,1.29.52,2.61.01,4.61-.75,3.01-1.51,3.14-2.08,4.5-.52,1.24-1.24,5.52-4.02,4.54-.25,1.15-.51,2.22-.73,3.12-1.24,5.03-3.2,8.06-5.74,10.41.18,5.13.63,12.64,1.75,15.34,2.64,6.4,7.04,8.96,12.37,11.01,3.41,1.32,9.21,2.05,12.93,2.69.28.05.55.1.81.14,3.73.66,7.25,1.28,10.09,2.41,1.02.41,2.71,1.29,2.71,1.29v.02c2.07.91,4.24,3.67,6.47,10.54,3,9.22,7.37,70.31,7.83,76.97.38,5.34,1.35,15.49,1.81,16.82.26.75.51,1.49.77,2.23.02.05.04.1.05.16,4.48,12.93,8.73,24.68,10,34.03.36,2.62.69,5.03,1,7.33,0,.05.02.1.02.15,1.54,11.28,2.63,19.34,4.27,30.18.87,5.74,2.43,6.7,2.82,9.76.06.43.06.87.06,1.42,0,.24,0,.69.08,1.26.06,1.16.13,2.49.39,4.4.91,6.5,1.61,7.94,2.25,10.41,1.54,5.98,2.15,9.11,2,13.22-.2,5.45-1.42,8.05-3.69,10.69-1.16,1.36-2.31,3.06-4.12,4.88-2.57,2.6-2.93,2.73-3.98,1.27-1.37-1.91.38-4.51-.25-9.22-.85-6.45-2.24-8.27-2.69-16.17-.07-1.19-.74,5.28-3.01,7.65-1.8,1.88-4.83,1.75-4.34.81,4.58-8.9.56-14.6,2.55-21.41.64-2.2,2.42-5.7,2.33-7.35,0-.1-.03-.22-.04-.33,0-.05,0-.09-.02-.14-.34-3.77-2.43-8.43-5.36-14.25-4.01-7.99-6.35-12.89-11.95-27.13-.11-.27-.22-.55-.33-.84-.37-.93-.75-1.9-1.14-2.89-6.87-17.67-7.99-33.2-8.27-35.08-.12-.84-.3-1.76-.49-2.71,0-.05-.02-.09-.03-.14-1.83-8.93-6.63-22.75-9.73-34.45-.49-1.85-1.69-7.32-2.18-9.6-.14.5-.28,1.02-.42,1.55-2.34,11.16-3.51,31.62,1.2,42.65,0,0,0,0,0,0,.02.05.03.1.04.15,1.29,5.88,2.47,11.64,5.46,19,1.58,3.88,2.64,6.83,3.49,9.28,2.03,4.56,2.99,7.05,5.45,13.15,3.67,9.1,9.05,21.21,9.24,41.52.03,4.27-.16,8.91-.66,13.96-1.23,12.52-10.39,39.26-13.81,52.03-7.6,28.39-11.9,45.41-12.46,55.42-.72,12.92.95,16.97,2.43,24.79,2.89,15.22.78,28.37-2.65,40.42-6.34,22.29-12.99,32.19-13.66,43.89-.17,2.92,1.91,4.14.76,7.83-.59,1.92-1.6,3.76-.07,8.04,5.17,14.49,11.89,18.28,11.1,23.57-.88,5.86-19.54,5.5-26.85,4.17-6.01-1.08-5.93-10.06-4.2-20.33.35-2.08.53-4.4.4-7.96-.07-1.76-.52-3.81-.76-6.28-.22-2.28.42-4.69.76-6.6.26-1.44.52-2.6.57-3.21,1.72-22.37,1.11-27.75-1.56-48.79-2.7-21.27,1.08-25.08.61-38.09-.28-7.7-2.5-15.58-3.09-23.92-.75-10.46.28-20.35,1.33-27.79,2.9-20.57,2.88-23.89,3.82-40.16,1.01-17.65-4.35-26.31-1.29-41.54-.71.27-2.45.4-4.17.38s-3.46-.11-4.17-.38c3.06,15.23-2.3,23.89-1.28,41.54.93,16.27.92,19.59,3.81,40.16,1.05,7.44,2.08,17.33,1.33,27.79-.59,8.34-2.8,16.22-3.09,23.92-.47,13.01,3.31,16.82.61,38.09-2.67,21.04-3.1,26.4-1.55,48.79.04.61.31,1.77.57,3.21.34,1.91.97,4.32.75,6.6-.24,2.47-.69,4.52-.75,6.28-.13,3.56.04,5.88.39,7.96,1.73,10.27,1.81,19.25-4.2,20.33-7.3,1.33-25.97,1.69-26.85-4.17-.79-5.29,5.93-9.08,11.1-23.57,1.53-4.28.52-6.12-.07-8.04-1.15-3.69.93-4.91.76-7.83-.67-11.7-7.32-21.6-13.66-43.89-3.43-12.05-5.54-25.2-2.65-40.42,1.49-7.82,3.15-11.87,2.43-24.79-.56-10.01-4.86-27.03-12.46-55.42-3.42-12.77-12.57-39.51-13.81-52.03-.5-5.05-.69-9.69-.65-13.96.18-20.31,5.56-32.42,9.23-41.52,2.29-5.68,3.29-8.24,5.04-12.23.92-2.71,2.08-5.98,3.95-10.56,2.98-7.29,4.15-12.93,5.42-18.69,0-.05.02-.11.04-.16,0,0,0,0,0,0,4.86-11.27,3.37-32.73.87-43.75-.1.19-.22.45-.35.77-.55,2.54-1.51,6.84-1.93,8.44-1.55,5.87-3.53,12.26-5.34,18.31-1.81,6.03-3.49,11.71-4.4,16.17-.01.05-.02.1-.03.15-.19.94-.36,1.85-.48,2.67-.28,1.9-1.42,17.83-8.54,35.8-.4,1-.78,1.97-1.15,2.89-.02.05-.04.09-.06.14-5.63,14.2-7.93,19.12-11.93,27.1-2.93,5.84-5.03,10.51-5.36,14.28-.01.07-.02.15-.03.22,0,.1-.02.19-.02.28-.05,1.67,1.7,5.11,2.33,7.28,1.99,6.81-2.05,12.52,2.55,21.41.49.94-2.54,1.07-4.34-.81-2.27-2.37-2.94-8.84-3.01-7.65-.45,7.9-1.84,9.72-2.69,16.17-.63,4.71,1.12,7.31-.25,9.22-1.05,1.46-1.41,1.33-3.98-1.27-1.81-1.82-2.96-3.52-4.12-4.88-2.27-2.64-3.49-5.24-3.69-10.69-.15-4.11.46-7.24,2-13.22.68-2.63,1.43-4.1,2.42-11.5.28-2.19.3-3.49.3-4.46,0-.01,0-.14,0-.15,0-.49,0-.89.05-1.28,0-.04.01-.08.02-.12.4-3.03,1.95-4.01,2.82-9.73,1.64-10.85,2.73-18.92,4.28-30.22,0-.05.01-.1.02-.15.31-2.29.64-4.69,1-7.29,1.27-9.36,5.53-21.13,10.01-34.08.01-.05.03-.1.05-.15.26-.73.5-1.46.76-2.19.46-1.33,1.43-11.48,1.81-16.82.46-6.66,4.83-67.75,7.83-76.97,2.23-6.87,4.4-9.63,6.47-10.54v-.02s1.69-.88,2.71-1.29Z"/>
  </g>
</svg>