<?xml version="1.0" encoding="UTF-8"?>
<svg id="_레이어_2" data-name="레이어 2" xmlns="http://www.w3.org/2000/svg" viewBox="0 0 192.46 572.3">
  <defs>
    <style>
      .cls-1 {
        fill: #f3a9aa;
        stroke: #231815;
        stroke-miterlimit: 10;
      }
    </style>
  </defs>
  <g id="_레이어_1-2" data-name="레이어 1">
    <path class="cls-1" d="m43.05,105.51c-1.02.41-2.71,1.3-2.71,1.3v.02c-2.07.91-4.24,3.66-6.47,10.54-3,9.22-7.37,70.3-7.83,76.97-.38,5.34-1.35,15.48-1.81,16.82-.26.75-.51,1.49-.77,2.23-.02.05-.04.11-.06.16-4.48,12.93-8.72,24.68-10,34.03-.36,2.61-.69,5.03-1,7.33,0,.05-.02.11-.02.16-1.54,11.28-2.63,19.34-4.27,30.18-.87,5.74-2.42,6.71-2.82,9.76-.06.44-.06.88-.06,1.42,0,.49,0,1.22-.15,2.36-.12,1.36-.24,2.72-.48,4.39-.83,5.6-1.49,7-2.09,9.32-1.54,5.98-2.15,9.1-2,13.22.2,5.45,1.42,8.05,3.69,10.69,1.16,1.36,2.31,3.06,4.12,4.88,2.57,2.6,2.93,2.72,3.98,1.26,1.37-1.9-.38-4.51.25-9.21.85-6.46,2.24-8.27,2.69-16.17.07-1.19.74,5.28,3.01,7.65,1.8,1.88,4.83,1.75,4.34.81-4.58-8.9-.56-14.6-2.55-21.41-.64-2.2-2.42-5.7-2.33-7.35,0-.11.03-.25.04-.37,0-.04,0-.09.02-.13.35-3.76,2.44-8.41,5.35-14.22,4.01-8,6.31-12.92,11.96-27.17.2-.49.4-.99.61-1.53.38-.95.75-1.91,1.12-2.89,6.59-17.38,7.72-32.5,7.99-34.35.12-.84.3-1.78.49-2.75,0-.05.02-.09.03-.14.92-4.45,2.58-10.1,4.38-16.1,1.82-6.05,3.79-12.45,5.35-18.32.49-1.85,1.69-7.31,2.18-9.59.14.51.28,1.03.41,1.55,1.26,9.21,1.01,28.99-2.97,42.53-.55,3.71-4.68,13.22-7.37,20.19-7.11,11.37-8.7,16.2-10.97,20.84-.11.26-.22.52-.34.78-.04.09-.08.18-.12.28-3.88,9.11-10.07,21.06-10.2,41.1,0,.1,0,.19-.01.29-.02,4.28.17,8.91.73,13.97,1.37,12.52,11.56,39.25,15.36,52.03,8.45,28.38,13.23,45.41,13.85,55.42.81,12.92-1.05,16.97-2.7,24.79-3.21,15.21-.86,28.37,2.95,40.42,7.05,22.28,14.45,32.19,15.2,43.89.18,2.91-2.14,4.14-.86,7.83.67,1.92,1.79,3.76.09,8.04-5.75,14.48-13.23,18.28-12.35,23.57.98,5.86,21.74,5.49,29.86,4.17,6.69-1.09,6.6-10.06,4.67-20.34-.39-2.07-.59-4.4-.44-7.96.08-1.75.57-3.8.84-6.28.24-2.28-.46-4.69-.84-6.59-.29-1.45-.58-2.61-.63-3.21-1.8-22.39-1.24-27.76,1.73-48.8,3-21.26-1.21-25.08-.68-38.08.32-7.7,2.78-15.58,3.44-23.92.83-10.47-.31-20.35-1.48-27.79-3.22-20.57-3.2-23.9-4.25-40.16-1.12-17.66,4.84-26.31,1.44-41.54.78.26,2.72.35,4.63.37,1.92.02,3.85-.11,4.63-.37-3.39,15.23,2.57,23.88,1.44,41.54-1.04,16.27-1.03,19.59-4.25,40.16-1.16,7.44-2.31,17.32-1.48,27.79.66,8.34,3.13,16.22,3.44,23.92.53,13-3.68,16.82-.68,38.08,2.97,21.04,3.53,26.41,1.73,48.8-.05.6-.34,1.76-.63,3.21-.38,1.91-1.08,4.31-.84,6.59.26,2.48.76,4.53.84,6.28.15,3.56-.05,5.89-.44,7.96-1.93,10.28-2.02,19.25,4.67,20.34,8.12,1.32,28.88,1.69,29.86-4.17.88-5.29-6.6-9.09-12.35-23.57-1.7-4.28-.57-6.12.09-8.04,1.27-3.7-1.04-4.92-.85-7.83.75-11.7,8.14-21.61,15.19-43.89,3.82-12.05,6.16-25.21,2.95-40.42-1.65-7.82-3.51-11.87-2.7-24.79.62-10.01,5.4-27.04,13.85-55.42,3.8-12.77,13.99-39.51,15.37-52.03.55-5.06.74-9.69.72-13.97,0-.1,0-.19-.01-.29-.13-20.13-6.43-32.08-10.26-41.23-.04-.1-.08-.19-.13-.29,0,0,0,0,0,0-.2-.43-.39-.85-.58-1.27-.49-1-1.11-2.77-2.26-5.27-1.91-4.12-4.16-8.21-8.39-14.94-2.68-6.97-6.82-16.47-7.37-20.19-4.09-13.72-4.12-34.18-2.76-43.31.12-.04.23-.04.37,0,.53,2.45,1.57,7.14,2.01,8.82,3.1,11.72,7.89,25.56,9.73,34.49.01.05.02.1.03.15.19.94.36,1.85.48,2.67.28,1.91,1.46,17.81,8.54,35.8.4,1.01.78,1.97,1.15,2.89.02.04.04.09.05.13,5.64,14.21,7.94,19.12,11.94,27.11,2.93,5.84,5.03,10.51,5.36,14.28.01.1.03.2.04.3,0,.09.02.18.01.28,0,1.69-1.71,5.07-2.33,7.22-1.99,6.81,2.03,12.51-2.55,21.41-.49.94,2.54,1.07,4.35-.81,2.27-2.37,2.94-8.84,3.01-7.65.45,7.9,1.84,9.71,2.69,16.17.63,4.71-1.12,7.31.25,9.21,1.05,1.46,1.41,1.33,3.98-1.26,1.81-1.83,2.96-3.52,4.12-4.88,2.27-2.64,3.48-5.24,3.68-10.69.15-4.11-.45-7.24-1.99-13.22-.68-2.64-1.43-4.11-2.42-11.5-.29-2.22-.31-3.53-.31-4.5,0-.03,0-.13,0-.16,0-.48,0-.88-.05-1.28,0-.04-.01-.08-.02-.12-.4-3.01-1.95-3.99-2.81-9.7-1.65-10.87-2.74-18.94-4.28-30.26,0-.05-.01-.1-.02-.15-.31-2.28-.63-4.67-.99-7.26-1.27-9.37-5.53-21.16-10.02-34.11-.01-.05-.03-.1-.05-.15-.25-.72-.49-1.43-.74-2.16-.46-1.34-1.44-11.48-1.81-16.82-.46-6.67-4.83-67.75-7.83-76.97-2.23-6.88-4.4-9.63-6.48-10.54v-.02s-1.68-.89-2.71-1.3c-2.94-1.17-6.61-1.78-10.5-2.48-3.66-.66-9.73-1.41-13.33-2.8-5.33-2.05-9.73-4.61-12.38-11.01-1.11-2.7-1.57-10.21-1.74-15.34,2.54-2.35,4.5-5.38,5.73-10.41.22-.9.48-1.97.73-3.12,2.78.98,3.51-3.3,4.02-4.54.57-1.36,1.33-1.49,2.08-4.5.5-2-.37-3.32-.01-4.61.24-.87.35-3.32-.76-4.16-.12-.09-.27-.14-.43-.18,1.65-6.26,2.7-16.51-.73-24.34-1.49-3.39-3.32-6.12-5.25-8.29-4.57-5.58-12.1-9.22-20.63-9.22s-16.06,3.64-20.63,9.22c-1.93,2.17-3.76,4.9-5.25,8.29-3.43,7.84-2.38,18.08-.73,24.34-.16.05-.31.09-.43.18-1.1.83-.99,3.29-.75,4.16.36,1.29-.52,2.6-.01,4.61.76,3,1.51,3.13,2.08,4.5.51,1.24,1.24,5.52,4.02,4.54.25,1.15.51,2.22.73,3.12,1.24,5.03,3.2,8.06,5.74,10.41-.18,5.13-.63,12.64-1.75,15.34-2.64,6.4-7.04,8.96-12.37,11.01-3.47,1.34-9.23,2.08-12.93,2.73-.27.05-.54.09-.8.14-3.73.66-7.26,1.27-10.1,2.41Z"/>
  </g>
</svg>