<?xml version="1.0" encoding="UTF-8"?>
<svg id="_레이어_2" data-name="레이어 2" xmlns="http://www.w3.org/2000/svg" viewBox="0 0 192.38 572.16">
  <defs>
    <style>
      .cls-1 {
        fill: #f2a7a9;
        stroke: #221714;
        stroke-miterlimit: 10;
      }
    </style>
  </defs>
  <g id="_레이어_1-2" data-name="레이어 1">
    <path class="cls-1" d="m1.11,330.17c.48,1.91,1.26,3.37,2.24,4.81,1.03,1.51,2.06,3.17,3.69,4.91.31.33.59.62.85.89,1.49,1.48,1.95,1.64,2.84.94.62-.49.75-1.08.82-1.89.5-.5.37-1.89.85-4.15.87-4.04,1.07-6.38,1.69-10.57.22-1.5.39-3.09.58-4.96.16-1.5.9,2.75,2.63,3.93,1.46.99,3.79.6,3.36-.53-1.27-3.38-1.66-4.18-.97-5.87.45-1.11,1.47-2.6,1.34-4.31-.13-1.59-.38-3.16-.85-4.77-.64-2.24-2.01-5.4-1.92-7.15,0-.14.02-.29.04-.42.25-3.25,1.52-6.88,2.9-11.18.28-.87.54-1.8.82-2.76.53-1.85.96-3.6,1.59-5.14.04-.1.08-.19.11-.29.02-.05.04-.1.06-.15,1.68-4.28,3.69-8.81,6.67-15.83.67-1.57,1.37-3.22,2.1-4.98.38-.9.76-1.82,1.15-2.78,3.38-8.26,5.55-16.2,7.38-23.6.01-.05.02-.1.03-.15.27-1.17.52-2.3.73-3.36.71-3.55,1.06-6.08,1.28-7.13.18-.84.35-1.76.57-2.7,1.07-4.63,2.66-10.07,4.19-15.63,1.52-5.53,2.82-10.69,3.85-14.66.25-.98.5-1.97.74-2.96.01-.05.03-.11.04-.16.48-1.92,1.53-6.62,2.08-8.99.13.27.26.56.4.83.03,1.22-.72,8.31-1.81,16.89-.3,2.33-.44,3.83-.73,6.12-.31,11.45,1.78,29.54,1.21,39.25-.15,3.81-.46,7.11-.94,9.57,0,0,0,0,0,0-.82,2.34-1.66,4.88-2.59,7.63-2.42,7.18-3.8,13.44-4.32,18.8-.06.43-.13.86-.2,1.3,0,.05-.01.11-.02.16,0,0,0,0,0,0-.44,2.97-.86,6.17-1.17,9.69,0,.11-.03.21-.03.31-.35,4.38-.54,9.2-.42,14.61.06,3.27.44,7.26,1.08,11.7.01.09.02.18.04.28.54,3.73,1.19,7.78,2.02,11.97,2.03,10.26,5.29,22.46,7.27,30.94,1.21,5.24,2.33,10.09,3.26,14.33,4.67,21.3,7.4,35.1,7.99,43.9.11,1.63.18,3.13.21,4.5.25,10.48-1,14.46-2.12,21.59-2.4,15.21-.65,28.36,2.2,40.42,5.28,22.28,10.81,32.19,11.37,43.88.14,2.92-1.59,4.14-.64,7.83.5,1.93,1.34,3.77.06,8.05-4.3,14.48-9.89,18.27-9.23,23.56.73,5.86,16.26,5.5,22.33,4.18,5-1.09,4.94-10.06,3.49-20.34-.29-2.08-.43-4.4-.32-7.96.05-1.76.42-3.81.62-6.28.18-2.28-.33-4.69-.62-6.6-.22-1.44-.44-2.6-.48-3.21-1.4-22.38-.92-27.75,1.3-48.79,2.24-21.27-.91-25.08-.51-38.08.23-7.71,2.08-15.58,2.57-23.93.62-10.46-.23-20.35-1.11-27.79-2.41-20.57-2.39-23.89-3.17-40.15-.85-17.66,3.61-26.32,1.07-41.55.59.27,2.03.38,3.47.38s2.87-.11,3.46-.38c-2.54,15.23,1.92,23.89,1.07,41.55-.78,16.26-.76,19.58-3.17,40.15-.87,7.44-1.73,17.33-1.11,27.79.5,8.35,2.34,16.22,2.57,23.93.4,13-2.75,16.81-.51,38.08,2.23,21.04,2.7,26.41,1.3,48.79-.04.61-.26,1.77-.47,3.21-.28,1.91-.81,4.32-.63,6.6.2,2.47.57,4.52.63,6.28.11,3.56-.04,5.88-.33,7.96-1.44,10.28-1.51,19.25,3.49,20.34,6.08,1.32,21.6,1.68,22.33-4.18.66-5.29-4.93-9.08-9.23-23.56-1.27-4.28-.43-6.12.06-8.05.95-3.69-.78-4.91-.64-7.83.54-11.69,6.1-21.6,11.37-43.88,2.85-12.06,4.6-25.21,2.21-40.42-1.24-7.83-2.63-11.87-2.03-24.8.47-10,4.04-27.03,10.37-55.42,2.84-12.77,10.46-39.51,11.49-52.03.41-5.05.56-9.68.54-13.96,0-.1,0-.19-.01-.29-.08-17.02-3.43-28.23-6.21-36.78-.11-.84-.21-1.81-.3-2.9,0-.06,0-.12-.01-.18-.04-.47-.08-.96-.12-1.47,0-1.23-.15-3.09-.36-5.52-.38-4.49-.72-10.13-1.54-16.2-.98-7.21-1.91-14.14-2.82-19.91,0,0,0,0,0,0-2.61-15.45-3.1-35.2-2.83-42.57.14-.52.28-1.04.42-1.55.49,2.28,1.69,7.74,2.18,9.59,1.55,5.86,3.52,12.24,5.34,18.29,1.8,6,3.45,11.66,4.39,16.11,0,.04.02.09.03.13.2.98.38,1.93.5,2.79.26,1.83,1.37,16.57,7.72,33.64.36.96.73,1.93,1.1,2.88.3.77.59,1.5.88,2.21,5.67,14.28,7.97,19.2,11.98,27.2,2.91,5.8,5,10.44,5.35,14.2,0,.04,0,.08.01.12.02.13.04.27.04.4.09,1.65-1.69,5.15-2.33,7.35-1.99,6.81,2.03,12.51-2.55,21.4-.49.95,2.54,1.08,4.34-.8,2.27-2.37,2.94-8.84,3.01-7.65.45,7.9,1.84,9.71,2.69,16.17.63,4.71-1.12,7.31.25,9.21,1.05,1.46,1.41,1.34,3.98-1.26,1.81-1.83,2.96-3.52,4.12-4.88,2.26-2.64,3.49-5.25,3.69-10.69.15-4.12-.46-7.24-2-13.22-.56-2.17-1.17-3.54-1.92-8.25-.23-1.42-.4-2.81-.57-4.35-.23-1.71-.23-2.74-.23-3.47,0-.55,0-.99-.06-1.43-.39-3.05-1.95-4.01-2.82-9.76-1.64-10.84-2.73-18.89-4.27-30.17,0-.05-.01-.11-.02-.16-.31-2.3-.64-4.72-1-7.33-1.27-9.35-5.51-21.1-9.99-34.02-.02-.06-.04-.11-.06-.17-.26-.74-.51-1.48-.77-2.23-.46-1.34-1.43-11.48-1.81-16.82-.46-6.67-4.83-67.76-7.83-76.97-2.23-6.88-4.4-9.63-6.47-10.54v-.02s-1.69-.89-2.71-1.3c-.19-.07-.38-.14-.57-.21h.4l-35.99-16.02s-.03-.06-.04-.09c-1.12-2.7-1.57-10.21-1.75-15.34,2.54-2.35,4.5-5.38,5.74-10.41.22-.9.48-1.98.73-3.12,2.78.98,3.51-3.3,4.02-4.54.57-1.37,1.32-1.5,2.08-4.5.51-2.01-.37-3.32,0-4.61.24-.87.35-3.33-.75-4.16-.12-.09-.27-.14-.43-.19,1.65-6.26,2.7-16.5-.73-24.34-1.49-3.39-3.32-6.13-5.25-8.29-4.57-5.58-12.1-9.22-20.63-9.22s-16.06,3.64-20.63,9.22c-1.93,2.16-3.76,4.9-5.25,8.29-3.43,7.84-2.38,18.08-.73,24.34-.16.05-.31.1-.43.19-1.1.83-.99,3.29-.75,4.16.36,1.29-.52,2.6,0,4.61.76,3,1.51,3.13,2.08,4.5.51,1.24,1.24,5.52,4.02,4.54.25,1.14.51,2.22.73,3.12,1.24,5.03,3.2,8.06,5.74,10.41-.18,5.13-.63,12.64-1.75,15.34-.02.05-.04.09-.06.14l-35.88,15.98h.32c-.19.07-.39.14-.57.21-1.02.41-2.71,1.3-2.71,1.3v.02c-2.07.91-4.24,3.66-6.47,10.54-3,9.21-7.37,70.3-7.83,76.97-.38,5.34-1.35,15.48-1.81,16.82-.25.71-.48,1.42-.73,2.12-.02.05-.04.1-.05.15-4.5,12.98-8.76,24.77-10.04,34.15-.35,2.57-.68,4.96-.99,7.22,0,.05-.01.1-.02.14-1.55,11.34-2.64,19.42-4.28,30.29-.84,5.54-2.32,6.62-2.76,9.46-.07.42-.09.85-.1,1.37-.01.44-.01.94-.04,1.57,0,.05,0,.14,0,.19-.03.7-.08,1.55-.22,2.65-.09.78-.2,1.52-.3,2.25-.76,5.11-1.38,6.75-1.94,8.92-.37,1.41-.68,2.61-.96,3.78-.84,3.57-1.22,6.09-1.21,8.99,0,2.28.21,4.09.61,5.72Z"/>
  </g>
</svg>