<?xml version="1.0" encoding="UTF-8"?>
<svg id="_레이어_2" data-name="레이어 2" xmlns="http://www.w3.org/2000/svg" viewBox="0 0 192.34 572.08">
  <defs>
    <style>
      .cls-1 {
        fill: #f2a7a9;
        stroke: #221714;
        stroke-miterlimit: 10;
      }
    </style>
  </defs>
  <g id="_레이어_1-2" data-name="레이어 1">
    <path class="cls-1" d="m180.03,342.55c1.05,1.46,1.41,1.33,3.98-1.27,1.81-1.83,2.96-3.52,4.12-4.88,2.26-2.64,3.49-5.25,3.69-10.69.15-4.11-.46-7.24-2-13.22-.6-2.32-1.26-3.73-2.09-9.33-.24-1.67-.36-3.02-.48-4.38-.15-1.14-.15-1.88-.15-2.36,0-.55,0-.99-.06-1.42-.39-3.05-1.95-4.01-2.82-9.76-1.64-10.84-2.73-18.9-4.27-30.18,0-.05-.01-.11-.02-.16-.31-2.3-.64-4.71-1-7.33-1.27-9.35-5.52-21.1-10-34.03-.01-.05-.03-.11-.05-.16-.26-.74-.51-1.48-.77-2.23-.46-1.33-1.43-11.48-1.81-16.82-.46-6.67-4.83-67.75-7.83-76.97-2.23-6.88-4.4-9.63-6.47-10.54v-.02s-1.69-.89-2.71-1.29c-.15-.06-.31-.11-.46-.17h.31l-36.01-16.03s-.03-.06-.04-.09c-1.12-2.7-1.57-10.21-1.75-15.34,2.54-2.35,4.5-5.38,5.74-10.41.22-.9.48-1.98.73-3.12,2.78.98,3.51-3.3,4.02-4.54.57-1.37,1.32-1.5,2.08-4.5.51-2.01-.37-3.32,0-4.61.24-.87.35-3.33-.75-4.16-.12-.09-.27-.14-.43-.19,1.65-6.26,2.7-16.5-.73-24.34-1.49-3.39-3.32-6.12-5.25-8.29-4.57-5.58-12.1-9.22-20.63-9.22s-16.06,3.64-20.63,9.22c-1.93,2.17-3.76,4.9-5.25,8.29-3.43,7.84-2.38,18.08-.73,24.34-.16.05-.31.09-.43.19-1.1.84-.99,3.29-.75,4.16.36,1.29-.52,2.6-.01,4.61.76,3,1.51,3.13,2.08,4.5.51,1.24,1.24,5.52,4.02,4.54.25,1.15.51,2.22.73,3.12,1.24,5.03,3.2,8.06,5.74,10.41-.18,5.13-.63,12.64-1.75,15.34-.02.05-.05.1-.07.16l-35.85,15.96h.19c-.15.06-.31.11-.46.17-1.02.41-2.71,1.29-2.71,1.29v.02c-2.07.91-4.24,3.67-6.47,10.54-3,9.22-7.37,70.3-7.83,76.97-.38,5.34-1.35,15.49-1.81,16.82-.25.72-.49,1.44-.74,2.16-.02.05-.04.1-.05.15-4.49,12.96-8.75,24.74-10.02,34.11-.36,2.59-.68,4.98-.99,7.26,0,.05-.02.1-.02.15-1.55,11.32-2.64,19.4-4.28,30.26-.81,5.34-2.22,6.52-2.71,9.16-.07.4-.11.82-.14,1.31-.03.44-.03.92-.04,1.52,0,.03,0,.14,0,.18-.02.67-.06,1.49-.17,2.56-.08.71-.17,1.43-.27,2.18-.69,4.8-1.26,6.65-1.78,8.66-.36,1.37-.67,2.48-.95,3.64-.85,3.49-1.29,5.99-1.39,8.67-.08,2.11.02,3.86.32,5.54.34,1.92.95,3.41,1.7,4.83.88,1.67,1.8,3.3,3.26,4.93.28.31.54.61.8.88,1.21,1.26,1.75,1.65,2.61,1.52.61-.1.91-.24,1.21-.52,1.19.54,1.25-.34,1.9-2.34,1.07-3.32.58-5.76,1.21-10.12.22-1.58.41-3.11.65-4.77.26-1.8.91.46,2.25.2.99.3,2.73-.53,2.38-1.86-.69-2.67-.85-1.12.36-1.37.92-.19,2.62-1.16,2.34-2.61-.3-1.55-.67-3.04-1.1-4.54-.64-2.28-1.59-5.11-1.5-6.96,0-.13.02-.27.03-.41.22-3.35,1.28-6.86,1.84-10.92.11-.83.18-1.74.24-2.69.12-1.83.15-3.64.59-5.03.02-.09.06-.19.09-.29.02-.05.03-.1.05-.15,1.23-4.11,3.27-8.69,6.23-15.31.7-1.55,1.4-3.12,2.11-4.75.38-.87.77-1.75,1.16-2.66,3.06-7.19,5.28-14.28,7.8-22.52.02-.05.03-.1.04-.15.31-1.09.6-2.16.87-3.2.77-3.05,1.24-5.42,1.59-6.79.21-.82.41-1.7.63-2.58,1.23-4.8,2.71-10.01,3.98-15.08,1.53-6.11,2.53-11.24,3.24-14.23.22-.93.43-1.89.66-2.86.01-.05.02-.1.04-.16.47-2,1.37-5.94,1.98-8.39.13.04.26.08.39.11.77-1.86,1.37-.3,1.32,2.6-.02.93.27.11.24.88,1,11.93,5.01,32.19,3.83,40.91-.31,3.65-.93,6.99-1.79,9.91h0c-.91,2.44-1.88,5.07-2.97,7.92-3.57,9.29-5.02,15.92-5.36,19.49-.09.44-.19.89-.28,1.34-.01.05-.02.11-.03.16,0,0,0,0,0,0-.63,3.03-1.31,6.34-1.91,10.04-.02.11-.04.22-.06.34-.69,4.47-1.2,9.5-1.38,15.26-.12,3.54.01,7.7.43,12.32,0,.1.01.19.02.28.36,3.92.81,8.16,1.53,12.63,1.54,9.63,4.96,22.65,7.34,32.51,1.34,5.6,2.58,10.77,3.51,15.01,4.9,22.2,7.84,36.7,8.64,46.03.14,1.72.24,3.28.28,4.71.37,11.3-.93,15.3-2.09,22.66-2.4,15.21-.65,28.36,2.2,40.42,5.28,22.28,10.81,32.19,11.37,43.88.14,2.92-1.59,4.14-.64,7.83.5,1.93,1.34,3.77.06,8.05-4.3,14.48-9.89,18.27-9.23,23.56.73,5.86,16.26,5.5,22.33,4.18,5-1.09,4.94-10.06,3.49-20.34-.29-2.08-.43-4.4-.32-7.96.05-1.76.42-3.81.62-6.28.18-2.28-.33-4.69-.62-6.6-.22-1.44-.44-2.6-.48-3.21-1.4-22.38-.92-27.75,1.3-48.79,2.24-21.27-.91-25.08-.51-38.08.23-7.71,2.08-15.58,2.57-23.93.62-10.46-.23-20.35-1.11-27.79-2.41-20.57-2.39-23.89-3.17-40.15-.85-17.66,3.61-26.32,1.07-41.55.59.27,2.03.38,3.47.38s2.87-.11,3.46-.38c-2.54,15.23,1.92,23.89,1.07,41.55-.78,16.26-.76,19.58-3.17,40.15-.87,7.44-1.73,17.33-1.11,27.79.5,8.35,2.34,16.22,2.57,23.93.4,13-2.75,16.81-.51,38.08,2.23,21.04,2.7,26.41,1.3,48.79-.04.61-.26,1.77-.47,3.21-.28,1.91-.81,4.32-.63,6.6.2,2.47.57,4.52.63,6.28.11,3.56-.04,5.88-.33,7.96-1.44,10.28-1.51,19.25,3.49,20.34,6.08,1.32,21.6,1.68,22.33-4.18.66-5.29-4.93-9.08-9.23-23.56-1.27-4.28-.43-6.12.06-8.05.95-3.69-.78-4.91-.64-7.83.54-11.69,6.1-21.6,11.37-43.88,2.85-12.06,4.6-25.21,2.21-40.42-1.24-7.83-2.63-11.87-2.03-24.8.47-10,4.04-27.03,10.37-55.42,2.84-12.77,10.46-39.51,11.49-52.03.41-5.05.56-9.68.54-13.96,0-.1,0-.19-.01-.29-.09-17.39-3.57-28.71-6.39-37.33-.18-.88-.35-1.84-.51-2.87-.01-.06-.02-.11-.03-.17-.08-.47-.16-.96-.23-1.45,0-.82-.26-2.67-.72-5.48-.68-4.16-1.48-9.67-3.02-15.96-1.8-7.31-3.32-13.92-4.29-19.63,0,0,0,0,0,0-2.51-12.47-.45-33.28,1-42.6.15-.52.28-1.05.42-1.55.49,2.28,1.69,7.75,2.18,9.59,1.55,5.85,3.52,12.23,5.33,18.27,1.81,6.02,3.46,11.7,4.4,16.15,0,.05.02.09.03.14.2.97.37,1.91.5,2.75.27,1.85,1.4,16.98,8,34.36.37.98.74,1.94,1.12,2.88.21.53.41,1.04.6,1.52,5.66,14.25,7.96,19.17,11.96,27.17,2.92,5.81,5.01,10.46,5.35,14.22,0,.04,0,.09.02.13.02.12.04.25.04.37.09,1.65-1.69,5.15-2.33,7.35-1.99,6.81,2.03,12.51-2.55,21.41-.49.95,2.54,1.08,4.34-.8,2.27-2.37,2.94-8.84,3.01-7.65.45,7.9,1.84,9.71,2.69,16.17.63,4.71-1.12,7.31.25,9.22Z"/>
  </g>
</svg>