<?xml version="1.0" encoding="UTF-8"?>
<svg id="_레이어_2" data-name="레이어 2" xmlns="http://www.w3.org/2000/svg" viewBox="0 0 192.46 571.78">
  <defs>
    <style>
      .cls-1 {
        fill: #f2a7a9;
        stroke: #221714;
        stroke-miterlimit: 10;
      }
    </style>
  </defs>
  <g id="_레이어_1-2" data-name="레이어 1">
    <path class="cls-1" d="m187.85,303.16c-.24-1.67-.36-3.02-.48-4.38-.15-1.14-.15-1.88-.15-2.36,0-.55,0-.99-.06-1.42-.39-3.05-1.95-4.02-2.82-9.76-1.64-10.84-2.73-18.9-4.27-30.18,0-.05-.01-.11-.02-.16-.31-2.3-.64-4.71-1-7.33-1.27-9.35-5.52-21.1-10-34.03-.01-.05-.03-.11-.05-.16-.26-.74-.51-1.48-.77-2.23-.46-1.34-1.43-11.48-1.81-16.82-.46-6.67-4.83-67.75-7.83-76.97-2.23-6.88-4.4-9.63-6.47-10.54v-.02s-1.69-.89-2.71-1.3c-.28-.11-.58-.22-.87-.32h.66l-36.01-16.03c-1.1-2.75-1.55-10.18-1.73-15.28,2.54-2.35,4.5-5.38,5.74-10.41.22-.9.48-1.98.73-3.12,2.78.98,3.51-3.3,4.02-4.54.57-1.37,1.32-1.5,2.08-4.5.51-2.01-.37-3.32,0-4.61.24-.87.35-3.33-.75-4.16-.12-.09-.27-.14-.43-.19,1.65-6.26,2.7-16.5-.73-24.34-1.49-3.39-3.32-6.12-5.25-8.29-4.57-5.58-12.1-9.22-20.63-9.22s-16.06,3.64-20.63,9.22c-1.93,2.17-3.76,4.9-5.25,8.29-3.43,7.84-2.38,18.08-.73,24.34-.16.05-.31.09-.43.19-1.1.84-.99,3.29-.75,4.16.36,1.29-.52,2.6,0,4.61.76,3,1.51,3.13,2.08,4.5.51,1.24,1.24,5.52,4.02,4.54.25,1.15.51,2.22.73,3.12,1.24,5.03,3.2,8.06,5.74,10.41-.18,5.09-.62,12.53-1.73,15.28l-36.01,16.03h.66c-.3.1-.59.21-.87.32-1.02.41-2.71,1.3-2.71,1.3v.02c-2.07.91-4.24,3.66-6.47,10.54-3,9.22-7.37,70.3-7.83,76.97-.38,5.34-1.35,15.48-1.81,16.82-.25.72-.49,1.44-.74,2.16-.02.05-.04.1-.05.15-4.49,12.96-8.75,24.74-10.02,34.11-.36,2.59-.68,4.98-.99,7.26,0,.05-.02.1-.02.15-1.54,11.32-2.63,19.39-4.28,30.26-.86,5.71-2.42,6.69-2.81,9.7,0,.04-.01.08-.02.12-.05.39-.05.79-.05,1.28v.16c0,.96-.01,2.27-.3,4.5-.99,7.39-1.74,8.86-2.42,11.5-1.54,5.98-2.15,9.1-2,13.22.2,5.44,1.43,8.05,3.69,10.69,1.16,1.36,2.31,3.06,4.12,4.88,2.57,2.6,2.93,2.72,3.98,1.26,1.37-1.9-.38-4.5.25-9.21.85-6.46,2.24-8.27,2.69-16.17.07-1.19.74,5.28,3.01,7.65,1.8,1.88,4.83,1.75,4.34.81-4.58-8.9-.56-14.6-2.55-21.41-.62-2.15-2.33-5.53-2.33-7.22,0-.09,0-.18.02-.28,0-.1.02-.2.03-.3.33-3.77,2.43-8.44,5.36-14.28,4-7.98,6.25-12.92,11.94-27.11.02-.04.04-.09.05-.13.37-.92.75-1.89,1.15-2.9,7.08-17.98,8.26-33.89,8.54-35.8.12-.82.29-1.73.48-2.67.01-.05.02-.1.03-.16.91-4.46,2.59-10.14,4.4-16.18,1.82-6.05,3.79-12.44,5.34-18.31.44-1.68,1.48-6.37,2.01-8.82.13-.04.26-.04.37,0,1.37,9.15,3.78,30.78,1.22,43.37,0,0,0,0,0,0-.92,5.33-2.49,11.37-4.26,18.23-2.15,8.31-3.84,15.57-4.8,20.36-.66,1.24-1.13,2.13-1.38,2.62-.12.23-.2.39-.22.45-3.09,9.07-7.98,21.01-8.08,40.93,0,.1-.01.2-.01.3v.29c-.02,4.19.15,8.72.58,13.66,1.1,12.52,9.23,39.26,12.26,52.03,6.75,28.39,10.57,45.42,11.06,55.42.65,12.93-.83,16.97-2.15,24.8-2.56,15.21-.69,28.36,2.35,40.42,5.63,22.28,11.53,32.19,12.13,43.88.15,2.92-1.69,4.14-.68,7.83.53,1.93,1.43,3.77.07,8.05-4.59,14.48-10.56,18.27-9.86,23.56.79,5.86,17.35,5.5,23.84,4.18,5.34-1.09,5.27-10.06,3.73-20.34-.31-2.08-.47-4.4-.35-7.96.06-1.76.46-3.81.67-6.28.19-2.28-.37-4.69-.67-6.6-.23-1.44-.47-2.6-.51-3.21-1.43-22.38-.99-27.75,1.39-48.79,2.39-21.27-.97-25.08-.55-38.08.25-7.71,2.22-15.58,2.75-23.93.66-10.46-.25-20.35-1.18-27.79-2.58-20.57-2.56-23.89-3.39-40.15-.9-17.66,3.85-26.32,1.14-41.55.63.27,2.17.37,3.7.38,1.53,0,3.07-.11,3.7-.38-2.71,15.23,2.04,23.89,1.14,41.55-.83,16.26-.81,19.58-3.39,40.15-.93,7.44-1.84,17.33-1.18,27.79.53,8.35,2.5,16.22,2.75,23.93.42,13-2.94,16.81-.55,38.08,2.37,21.04,2.82,26.41,1.39,48.79-.04.61-.28,1.77-.51,3.21-.3,1.91-.86,4.32-.67,6.6.21,2.47.61,4.52.67,6.28.12,3.56-.04,5.88-.35,7.96-1.54,10.28-1.61,19.25,3.73,20.34,6.48,1.32,23.05,1.68,23.84-4.18.7-5.29-5.27-9.08-9.86-23.56-1.36-4.28-.46-6.12.07-8.05,1.01-3.69-.83-4.91-.68-7.83.6-11.69,6.5-21.6,12.13-43.88,3.04-12.06,4.91-25.21,2.35-40.42-1.32-7.83-2.8-11.87-2.16-24.8.5-10,4.32-27.03,11.07-55.42,3.03-12.77,11.16-39.51,12.26-52.03.43-4.94.6-9.47.58-13.66v-.29c0-.1,0-.2,0-.3-.1-19.77-4.87-31.69-8.01-40.72-.03-.1-.1-.25-.18-.44-.12-.26-.38-.73-.73-1.4-.33-.62-.8-1.51-1.39-2.65-1-4.55-2.43-10.78-4.14-17.79-1.77-7.31-3.32-13.9-4.29-19.6-2.51-12.47-.45-33.28.99-42.6.15-.52.28-1.05.42-1.55.49,2.28,1.69,7.74,2.18,9.59,1.55,5.85,3.52,12.23,5.33,18.27,1.81,6.02,3.46,11.7,4.4,16.16l.03.14c.2.97.37,1.91.49,2.75.27,1.85,1.4,16.98,8,34.36.37.98.74,1.94,1.12,2.88.21.53.41,1.04.6,1.52,5.65,14.25,7.96,19.17,11.96,27.17,2.92,5.81,5.01,10.46,5.35,14.22,0,.04,0,.09.02.13.01.12.03.25.04.36.09,1.65-1.69,5.15-2.33,7.35-1.99,6.81,2.03,12.51-2.55,21.41-.49.94,2.54,1.07,4.34-.81,2.27-2.37,2.94-8.84,3.01-7.65.45,7.9,1.84,9.71,2.69,16.17.63,4.71-1.12,7.31.25,9.21,1.05,1.46,1.41,1.33,3.98-1.26,1.81-1.83,2.96-3.52,4.12-4.88,2.27-2.64,3.49-5.25,3.69-10.69.15-4.12-.46-7.24-2-13.22-.6-2.32-1.26-3.73-2.09-9.33Z"/>
  </g>
</svg>