<?xml version="1.0" encoding="UTF-8"?>
<svg id="_레이어_2" data-name="레이어 2" xmlns="http://www.w3.org/2000/svg" viewBox="0 0 192.46 572.01">
  <defs>
    <style>
      .cls-1 {
        fill: #f2a7a9;
        stroke: #221714;
        stroke-miterlimit: 10;
      }
    </style>
  </defs>
  <g id="_레이어_1-2" data-name="레이어 1">
    <path class="cls-1" d="m180.15,342.52c1.05,1.46,1.41,1.33,3.98-1.27,1.81-1.82,2.96-3.52,4.12-4.88,2.27-2.64,3.49-5.24,3.69-10.69.15-4.11-.46-7.24-2-13.22-.64-2.48-1.35-3.91-2.26-10.42-.26-1.91-.33-3.24-.39-4.4-.08-.57-.08-1.01-.08-1.26,0-.55,0-.99-.06-1.42-.39-3.06-1.95-4.02-2.82-9.76-1.64-10.84-2.73-18.91-4.27-30.18,0-.05-.01-.1-.02-.15-.31-2.3-.64-4.71-1-7.33-1.27-9.35-5.52-21.11-10-34.03-.01-.05-.03-.1-.05-.16-.27-.74-.51-1.48-.77-2.23-.46-1.33-1.43-11.48-1.81-16.82-.46-6.66-4.83-67.75-7.83-76.97-2.23-6.87-4.4-9.63-6.47-10.54v-.02s-1.69-.88-2.71-1.29c-.14-.06-.29-.1-.43-.16h.22l-35.95-16s-.03-.06-.04-.09c-1.12-2.7-1.57-10.21-1.75-15.34,2.54-2.35,4.5-5.38,5.74-10.41.22-.9.48-1.97.73-3.12,2.78.98,3.51-3.3,4.02-4.54.57-1.36,1.33-1.49,2.08-4.5.51-2-.37-3.32-.01-4.61.24-.87.35-3.32-.75-4.16-.12-.09-.27-.14-.43-.18,1.65-6.27,2.7-16.51-.73-24.35-1.49-3.39-3.32-6.12-5.25-8.29-4.57-5.57-12.1-9.22-20.63-9.22s-16.06,3.65-20.63,9.22c-1.93,2.17-3.76,4.9-5.25,8.29-3.43,7.84-2.38,18.08-.73,24.35-.16.04-.31.09-.43.18-1.1.84-.99,3.29-.75,4.16.36,1.29-.52,2.61-.01,4.61.76,3.01,1.51,3.14,2.08,4.5.51,1.24,1.24,5.52,4.02,4.54.25,1.15.51,2.22.73,3.12,1.24,5.03,3.2,8.06,5.74,10.41-.18,5.13-.63,12.64-1.75,15.34-.01.03-.03.06-.04.09l-35.95,16h.22c-.14.05-.29.1-.43.16-1.02.41-2.71,1.29-2.71,1.29v.02c-2.07.91-4.24,3.67-6.47,10.54-3,9.22-7.37,70.31-7.83,76.97-.38,5.34-1.35,15.49-1.81,16.82-.26.74-.5,1.47-.76,2.19-.02.05-.04.1-.05.15-4.48,12.95-8.74,24.72-10.01,34.08-.36,2.6-.69,5.01-1,7.29,0,.05-.02.1-.02.15-1.54,11.3-2.63,19.37-4.28,30.23-.87,5.72-2.42,6.7-2.82,9.73,0,.04-.01.08-.02.12-.05.39-.05.79-.05,1.28v.15c0,.96-.01,2.27-.3,4.46-.98,7.31-1.72,8.83-2.39,11.4-.04.14-.07.28-.11.42-1.46,5.69-2.05,8.77-1.92,12.73,0,.22.02.44.03.65.25,5.01,1.42,7.53,3.54,10.04.17.21.35.42.53.64,1,1.22,2.04,2.68,3.56,4.22.23.24.46.47.67.68,1.97,1.95,2.42,2.06,3.31.95.21-.26.37-.56.49-.9.65-1.8-.56-4.23-.1-8.21.05-.41.1-.81.16-1.19.84-5.65,2.09-7.7,2.54-14.92.03-.43.11-.15.28.46.31,1.09,1.02,4.67,2.52,6.51.36.44.78.79,1.22,1.05,1.46.87,3.07.79,3.05.25-.02-.39-.03-.85-.25-1.35-3.56-8.01-.29-13.42-1.89-19.72-.15-.6-.37-1.28-.63-1.98-.68-1.84-1.62-4.01-1.71-5.35,0-.09,0-.19,0-.28,0-.05,0-.1,0-.15-.01-.6.03-1.19.13-1.77.03-.15.06-.3.09-.46.66-3.32,2.44-7.28,4.8-12.03.38-.77.76-1.53,1.13-2.28,3.44-6.93,5.78-12.06,10.8-24.68.02-.05.04-.09.06-.14.37-.92.75-1.88,1.15-2.88.31-.78.61-1.56.91-2.35,6.17-16.41,7.47-30.72,7.84-33.49.13-.95.28-1.85.44-2.67,0-.05.02-.09.03-.14.21-1.07.47-2.23.76-3.44,1.14-4.72,2.86-10.44,4.64-16.35,1.45-4.8,2.93-9.73,4.18-14.36.27-1,.65-2.57,1.04-4.22.41-1.76.88-3.89,1.19-5.33.37.58.78,1.26,1.17,2.17.15.51.29,1.04.44,1.56,2.71,11.31,6.22,29.69,4.03,38.3,0,0,0,0,0,0-.25,1.39-.73,2.76-1.33,4.16-1.96,4.6-5.19,9.38-7.99,14.69-3.36,6.35-5.05,9.94-6.4,13.32-1.43,2.69-2.63,5.4-4.83,10.35-.02.05-.05.1-.07.15-3.59,9.07-9.1,21.11-9.22,41.23,0,.1,0,.19,0,.29-.02,4.28.15,8.91.65,13.96,1.24,12.52,10.39,39.26,13.81,52.03,7.6,28.39,11.9,45.42,12.46,55.42.72,12.93-.94,16.97-2.43,24.8-2.89,15.21-.78,28.36,2.65,40.42,6.34,22.28,12.99,32.19,13.66,43.88.17,2.92-1.9,4.14-.76,7.83.59,1.93,1.6,3.77.07,8.05-5.17,14.48-11.89,18.27-11.1,23.56.88,5.86,19.55,5.5,26.85,4.18,6.01-1.09,5.93-10.06,4.2-20.34-.35-2.08-.52-4.4-.39-7.96.06-1.76.51-3.81.75-6.28.22-2.28-.41-4.69-.75-6.6-.26-1.44-.53-2.6-.57-3.21-1.54-22.39-1.12-27.75,1.55-48.79,2.7-21.27-1.08-25.08-.61-38.08.29-7.71,2.5-15.58,3.09-23.93.75-10.46-.28-20.35-1.33-27.79-2.89-20.57-2.88-23.89-3.81-40.15-1.02-17.66,4.34-26.32,1.28-41.55.71.27,2.45.37,4.17.38,1.72.01,3.46-.11,4.17-.38-3.06,15.23,2.3,23.89,1.29,41.55-.94,16.26-.92,19.58-3.82,40.15-1.05,7.44-2.08,17.33-1.33,27.79.59,8.35,2.81,16.22,3.09,23.93.47,13-3.31,16.81-.61,38.08,2.67,21.04,3.29,26.42,1.56,48.79-.05.61-.31,1.77-.57,3.21-.34,1.91-.98,4.32-.76,6.6.24,2.47.69,4.52.76,6.28.13,3.56-.05,5.88-.4,7.96-1.73,10.28-1.81,19.25,4.2,20.34,7.31,1.32,25.97,1.68,26.85-4.18.79-5.29-5.93-9.08-11.1-23.56-1.53-4.28-.52-6.12.07-8.05,1.14-3.69-.93-4.91-.76-7.83.67-11.69,7.32-21.6,13.66-43.88,3.4-11.96,5.51-25,2.72-40.05-.09-.51-.19-1.01-.29-1.49-1.4-7.03-2.85-11.28-2.23-23.2.03-.6.07-1.23.13-1.88.85-10.08,5.03-26.63,12.18-53.35.22-.84.47-1.72.73-2.65,3.66-13.06,11.71-37.01,13.14-49.16.14-1.23.26-2.43.35-3.58.29-3.65.41-7.08.42-10.31,0-.1,0-.19,0-.28,0-1.21-.03-2.39-.07-3.55,0-.1,0-.19-.01-.29-.68-17.68-5.38-28.81-8.74-37.32-.02-.05-.04-.09-.06-.14,0,0,0,0,0,0-.64-1.48-1.21-2.79-1.72-3.98-.02-.05-.04-.09-.06-.14,0,0,0,0,0,0-1.99-4.43-3.13-6.81-5.12-10.16-1.09-2.42-2.5-5.35-4.59-9.32-3.64-6.92-8.22-12.85-9.31-18.87,0,0,0,0,0,0-2.42-9.48,2.21-31.36,4.82-42.64.15-.53.29-1.05.43-1.56.49,2.28,1.69,7.75,2.18,9.6,3.1,11.71,7.88,25.53,9.73,34.45,0,.05.02.09.03.14.19.96.37,1.88.49,2.72.28,1.88,1.39,17.41,8.27,35.08.38.99.76,1.95,1.14,2.89.11.29.22.57.33.84,5.59,14.24,7.94,19.14,11.95,27.13,2.92,5.83,5.02,10.49,5.36,14.25,0,.05,0,.09.02.14,0,.11.03.23.04.33.09,1.65-1.69,5.15-2.33,7.35-1.99,6.81,2.05,12.52-2.55,21.41-.49.94,2.54,1.07,4.34-.81,2.27-2.37,2.94-8.84,3.01-7.65.45,7.9,1.84,9.72,2.69,16.17.63,4.71-1.12,7.31.25,9.22Z"/>
  </g>
</svg>