<?xml version="1.0" encoding="UTF-8"?>
<svg id="_레이어_2" data-name="레이어 2" xmlns="http://www.w3.org/2000/svg" viewBox="0 0 192.46 571.94">
  <defs>
    <style>
      .cls-1 {
        fill: #f2a7a9;
        stroke: #221714;
        stroke-miterlimit: 10;
      }
    </style>
  </defs>
  <g id="_레이어_1-2" data-name="레이어 1">
    <path class="cls-1" d="m4.21,336.4c1.16,1.36,2.31,3.06,4.12,4.88,2.57,2.6,2.93,2.73,3.98,1.27,1.37-1.91-.38-4.51.25-9.22.85-6.46,2.24-8.27,2.69-16.17.07-1.19.74,5.28,3.01,7.65,1.8,1.88,4.83,1.75,4.34.81-4.58-8.9-.56-14.6-2.55-21.41-.62-2.14-2.33-5.53-2.33-7.22,0-.09,0-.18.02-.28.01-.1.02-.2.04-.3.33-3.77,2.43-8.44,5.36-14.28,4-7.98,6.3-12.9,11.94-27.11.02-.04.04-.09.05-.13.37-.92.75-1.89,1.15-2.9,7.12-17.97,8.26-33.89,8.54-35.8.12-.82.29-1.73.48-2.67.01-.05.02-.1.03-.16.92-4.46,2.59-10.14,4.4-16.18,1.82-6.05,3.79-12.44,5.34-18.31.44-1.68,1.48-6.36,2.01-8.82.14-.04.26-.04.37,0,1.37,9.16,3.7,30.11.17,43.38-1.03,5.66-3.19,11.47-5.35,17.82-2.81,8.22-4.62,15.2-5.64,19.45-.49,1.36-.77,2.24-.92,2.57-.24.61-.42,1.13-.58,1.54-.07.15-.12.27-.12.29-3.35,9.08-8.54,21.06-8.65,41.08,0,.1,0,.19,0,.29v.15c-.03,4.24.15,8.82.61,13.82,1.17,12.52,9.82,39.25,13.04,52.02,7.18,28.39,11.23,45.42,11.76,55.43.68,12.92-.89,16.96-2.29,24.79-2.73,15.21-.74,28.37,2.5,40.42,5.98,22.28,12.26,32.19,12.9,43.89.15,2.91-1.82,4.13-.73,7.83.57,1.92,1.52,3.76.07,8.04-4.88,14.48-11.22,18.28-10.47,23.57.83,5.86,18.44,5.49,25.34,4.17,5.67-1.09,5.6-10.06,3.96-20.34-.33-2.08-.5-4.4-.37-7.96.06-1.75.49-3.8.71-6.28.21-2.28-.39-4.69-.71-6.59-.24-1.45-.5-2.61-.54-3.22-1.52-22.38-1.05-27.75,1.47-48.79,2.55-21.26-1.02-25.08-.57-38.08.26-7.71,2.35-15.58,2.91-23.92.71-10.47-.26-20.35-1.25-27.79-2.74-20.58-2.72-23.9-3.61-40.16-.95-17.66,4.11-26.31,1.22-41.54.67.26,2.31.35,3.93.37,1.63.02,3.27-.11,3.94-.37-2.89,15.23,2.17,23.88,1.21,41.54-.88,16.26-.87,19.58-3.6,40.16-.99,7.44-1.96,17.32-1.26,27.79.56,8.34,2.65,16.21,2.92,23.92.45,13-3.12,16.82-.58,38.08,2.53,21.04,3.16,26.42,1.48,48.79-.05.61-.3,1.77-.54,3.22-.32,1.9-.93,4.31-.72,6.59.22,2.48.65,4.53.72,6.28.13,3.56-.04,5.88-.37,7.96-1.64,10.28-1.72,19.25,3.96,20.34,6.89,1.32,24.51,1.69,25.34-4.17.75-5.29-5.6-9.09-10.48-23.57-1.44-4.28-.48-6.12.08-8.04,1.08-3.7-.89-4.92-.73-7.83.64-11.7,6.91-21.61,12.9-43.89,3.24-12.05,5.22-25.21,2.5-40.42-1.4-7.83-2.97-11.87-2.29-24.79.52-10.01,4.58-27.04,11.76-55.43,3.22-12.77,11.87-39.5,13.04-52.02.46-5,.64-9.58.61-13.82v-.15c0-.1,0-.19-.01-.29-.1-19.92-5.25-31.88-8.6-40.95-.02-.05-.06-.16-.11-.28-.1-.23-.32-.77-.67-1.55-.2-.5-.37-1.02-.59-1.56-.17-.38-.46-1.26-.93-2.58-1.02-3.96-2.58-9.76-4.8-16.5-2.22-6.75-4.44-13.11-5.55-19.34-3.45-13.12-1.49-33.33-.06-42.6.15-.52.28-1.04.43-1.55.49,2.28,1.69,7.74,2.18,9.59,3.09,11.7,7.86,25.51,9.72,34.43,0,.04.02.09.03.13.2.97.38,1.91.5,2.75.27,1.85,1.39,16.98,7.99,34.36.37.98.75,1.94,1.12,2.89.21.53.41,1.04.6,1.52,5.6,14.27,7.95,19.17,11.96,27.17,2.92,5.81,5.01,10.46,5.35,14.22,0,.04,0,.09.02.13,0,.12.03.25.04.37.09,1.65-1.69,5.15-2.33,7.35-1.99,6.81,2.03,12.51-2.56,21.41-.49.94,2.54,1.07,4.35-.81,2.27-2.37,2.94-8.84,3.01-7.65.45,7.9,1.84,9.71,2.69,16.17.62,4.71-1.12,7.31.25,9.22,1.05,1.46,1.41,1.33,3.98-1.27,1.81-1.83,2.96-3.52,4.12-4.88,2.27-2.64,3.48-5.24,3.69-10.69.15-4.11-.46-7.24-2-13.22-.6-2.32-1.26-3.73-2.09-9.33-.24-1.67-.36-3.03-.48-4.38-.15-1.14-.16-1.88-.16-2.36,0-.55,0-.99-.05-1.42-.38-3.06-1.96-4.02-2.82-9.76-1.64-10.84-2.73-18.9-4.27-30.18,0-.05-.01-.11-.02-.16-.31-2.3-.64-4.71-1-7.33-1.27-9.35-5.52-21.1-9.99-34.03-.02-.05-.04-.11-.06-.16-.26-.74-.51-1.48-.77-2.23-.46-1.34-1.44-11.48-1.81-16.82-.46-6.67-4.83-67.75-7.83-76.97-2.23-6.88-4.4-9.63-6.48-10.54v-.02s-1.68-.89-2.71-1.3c-.21-.09-.44-.16-.66-.24h.45l-35.97-16.02s0-.02-.01-.03c-1.12-2.7-1.56-10.21-1.75-15.34,2.54-2.35,4.5-5.38,5.73-10.41.22-.9.49-1.98.74-3.12,2.78.98,3.5-3.3,4.02-4.54.57-1.36,1.33-1.49,2.08-4.5.5-2-.37-3.32-.01-4.61.24-.87.35-3.32-.75-4.16-.12-.09-.27-.14-.43-.19,1.65-6.26,2.7-16.5-.73-24.34-1.49-3.39-3.32-6.12-5.25-8.29-4.56-5.58-12.1-9.22-20.63-9.22s-16.06,3.64-20.63,9.22c-1.93,2.17-3.76,4.9-5.25,8.29-3.43,7.84-2.38,18.08-.73,24.34-.16.05-.31.09-.43.19-1.1.84-.99,3.29-.75,4.16.36,1.29-.52,2.6-.01,4.61.76,3,1.51,3.13,2.08,4.5.51,1.24,1.24,5.52,4.02,4.54.25,1.15.51,2.22.73,3.12,1.24,5.03,3.2,8.06,5.74,10.41-.18,5.13-.63,12.64-1.75,15.34,0,.01,0,.02-.01.03l-35.98,16.02h.45c-.22.08-.45.16-.66.24-1.02.41-2.71,1.3-2.71,1.3v.02c-2.07.91-4.24,3.66-6.47,10.54-3,9.22-7.37,70.3-7.83,76.97-.38,5.34-1.35,15.48-1.81,16.82-.25.72-.49,1.44-.74,2.16-.02.05-.04.1-.05.15-4.49,12.96-8.75,24.74-10.03,34.11-.36,2.59-.68,4.98-.99,7.26,0,.05-.02.1-.02.15-1.54,11.32-2.63,19.4-4.28,30.26-.86,5.71-2.42,6.69-2.81,9.7,0,.04-.01.08-.02.12-.05.39-.05.79-.05,1.28v.16c0,.97,0,2.27-.3,4.5-.99,7.4-1.74,8.86-2.42,11.5-1.54,5.98-2.15,9.1-2,13.22.2,5.45,1.42,8.05,3.69,10.69Z"/>
  </g>
</svg>