<?xml version="1.0" encoding="UTF-8"?>
<svg id="_레이어_2" data-name="레이어 2" xmlns="http://www.w3.org/2000/svg" viewBox="0 0 192.46 572.16">
  <defs>
    <style>
      .cls-1 {
        fill: #f2a7a9;
        stroke: #221714;
        stroke-miterlimit: 10;
      }
    </style>
  </defs>
  <g id="_레이어_1-2" data-name="레이어 1">
    <path class="cls-1" d="m.53,325.92c.21,5.01,1.3,7.59,3.29,10.06.17.21.34.42.52.63,1.01,1.2,2.03,2.65,3.5,4.21.22.23.44.46.66.68,1.96,1.97,2.56,2.36,3.31,1.66.21-.19.4-.46.61-.81,1.05-1.75-.25-4.11.06-8.07.03-.39.07-.79.13-1.2.81-5.92,2.07-7.91,2.57-14.79.03-.45.09-.67.16-.81.16-.31.69,3.91,2.24,6.4.3.48.64.89,1.02,1.21,1.1.95,2.5,1.18,3.11,1.06.57-.11.95-.43.72-.9-3.94-8.01-.96-13.43-2.04-19.51-.11-.64-.28-1.31-.5-1.99-.51-1.6-1.46-3.7-1.85-5.28-.02-.09-.04-.18-.05-.27,0-.05-.02-.09-.02-.14-.13-.64-.2-1.24-.15-1.73.02-.14.04-.3.06-.45.41-3.29,2.08-7.24,4.43-12.02.37-.75.74-1.5,1.12-2.27,3.63-7.26,5.91-12.16,10.81-24.42.02-.04.03-.08.05-.12.36-.91.74-1.86,1.14-2.85.35-.88.7-1.78,1.07-2.72,5.84-15.06,7.52-28.54,8.1-33.21.15-1.18.26-2.08.35-2.64,0-.04.01-.08.02-.11.14-.88.33-1.85.55-2.85.97-4.54,2.67-10.23,4.47-16.23,1.49-4.95,3.07-10.11,4.42-14.99.29-1.03.59-2.2.89-3.38.36-1.43.94-4.01,1.4-6.1.31-.76.6-1.43.83-1.76.14.51.28,1.04.42,1.55.33,7.11-.34,24.41-3.23,39.17-.18,1.11-.4,2.23-.64,3.35-1.12,5.41-2.56,10.87-3.93,16.24-1.44,5.67-2.5,10.5-3.26,14.41-2.15,3.89-3.4,6.63-4.78,10.12-.02.05-.04.1-.06.15-3.59,9.07-9.11,21.09-9.22,41.22,0,.1,0,.2,0,.3-.02,4.28.15,8.91.65,13.96,1.24,12.52,10.39,39.26,13.81,52.03,7.6,28.39,11.9,45.42,12.46,55.42.72,12.93-.94,16.97-2.43,24.8-2.89,15.21-.78,28.36,2.65,40.42,6.34,22.28,12.99,32.19,13.66,43.88.17,2.92-1.9,4.14-.76,7.83.6,1.93,1.6,3.77.07,8.05-5.17,14.48-11.89,18.27-11.1,23.56.88,5.86,19.55,5.5,26.85,4.18,6.01-1.09,5.93-10.06,4.2-20.34-.35-2.08-.52-4.4-.39-7.96.06-1.76.51-3.81.75-6.28.22-2.28-.41-4.69-.75-6.6-.26-1.44-.53-2.6-.57-3.21-1.54-22.39-1.12-27.75,1.55-48.79,2.7-21.27-1.08-25.08-.61-38.08.29-7.71,2.5-15.58,3.09-23.92.75-10.47-.28-20.36-1.33-27.8-2.89-20.57-2.88-23.89-3.81-40.15-1.02-17.66,4.34-26.32,1.28-41.55.71.27,2.45.37,4.17.38,1.72,0,3.46-.11,4.17-.38-3.06,15.23,2.3,23.89,1.29,41.55-.94,16.26-.92,19.58-3.82,40.15-1.05,7.44-2.08,17.33-1.33,27.8.59,8.34,2.81,16.21,3.09,23.92.47,13-3.31,16.81-.61,38.08,2.67,21.04,3.29,26.42,1.56,48.79-.05.61-.31,1.77-.57,3.21-.34,1.91-.98,4.32-.76,6.6.24,2.47.69,4.52.76,6.28.13,3.56-.05,5.88-.4,7.96-1.73,10.28-1.81,19.25,4.2,20.34,7.31,1.32,25.97,1.68,26.85-4.18.79-5.29-5.93-9.08-11.1-23.56-1.53-4.28-.53-6.12.07-8.05,1.14-3.69-.93-4.91-.76-7.83.67-11.69,7.32-21.6,13.66-43.88,3.43-12.06,5.54-25.21,2.65-40.42-1.48-7.83-3.15-11.87-2.43-24.8.56-10,4.86-27.03,12.46-55.42,3.42-12.77,12.58-39.51,13.81-52.03.5-5.05.67-9.68.66-13.96,0-.1,0-.2-.01-.3-.11-18.46-4.82-30.06-8.3-38.87-.02-.04-.03-.08-.05-.12,0,0,0,0,0,0-.41-1.05-.81-2.06-1.21-3.03-.02-.05-.04-.1-.06-.15,0,0,0,0,0,0-1.34-3.35-2.66-6.1-4.87-10.06-.63-3.13-1.43-6.85-2.49-11.08-1.61-6.41-3.46-13.01-4.53-19.64,0,0,0,0,0,0-3.09-15.78-3.63-35.23-3.35-42.57.14-.52.27-1.04.42-1.55.49,2.28,1.69,7.74,2.18,9.59,3.09,11.68,7.85,25.48,9.71,34.4,0,.04.02.08.02.12.21.99.38,1.93.51,2.79.27,1.83,1.36,16.57,7.72,33.64.36.96.73,1.93,1.11,2.88.31.77.59,1.5.87,2.21,5.61,14.3,7.97,19.2,11.98,27.2,2.91,5.8,5,10.44,5.35,14.2,0,.04,0,.08.01.12.01.13.04.27.05.4.09,1.65-1.69,5.15-2.33,7.35-1.99,6.81,2.03,12.51-2.56,21.4-.49.95,2.55,1.08,4.35-.8,2.27-2.37,2.94-8.84,3.01-7.65.45,7.9,1.84,9.71,2.69,16.17.62,4.71-1.12,7.31.25,9.21,1.05,1.46,1.41,1.34,3.98-1.26,1.81-1.83,2.96-3.52,4.12-4.88,2.26-2.64,3.48-5.25,3.68-10.69.15-4.12-.45-7.24-1.99-13.22-.57-2.17-1.17-3.54-1.93-8.25-.23-1.42-.39-2.81-.57-4.35-.22-1.71-.23-2.74-.23-3.47,0-.55,0-.99-.05-1.43-.38-3.05-1.96-4.01-2.82-9.76-1.64-10.84-2.74-18.89-4.27-30.17,0-.05-.01-.11-.02-.16-.31-2.3-.64-4.72-1-7.33-1.27-9.35-5.51-21.1-9.99-34.02-.02-.06-.04-.11-.06-.17-.26-.74-.51-1.48-.77-2.23-.46-1.34-1.44-11.48-1.81-16.82-.47-6.67-4.84-67.76-7.83-76.97-2.23-6.88-4.4-9.63-6.48-10.54v-.02s-1.68-.89-2.71-1.3c-.19-.07-.38-.14-.57-.21h.36l-35.94-16s-.04-.08-.05-.12c-1.11-2.7-1.56-10.21-1.74-15.34,2.54-2.35,4.5-5.38,5.73-10.41.22-.9.49-1.98.74-3.12,2.78.98,3.5-3.3,4.02-4.54.57-1.37,1.33-1.5,2.08-4.5.5-2.01-.37-3.32-.01-4.61.24-.87.35-3.32-.76-4.16-.11-.09-.26-.14-.42-.19,1.65-6.26,2.7-16.5-.73-24.34-1.49-3.39-3.32-6.13-5.26-8.29-4.56-5.58-12.1-9.22-20.63-9.22s-16.06,3.64-20.63,9.22c-1.93,2.16-3.76,4.9-5.25,8.29-3.43,7.84-2.38,18.08-.73,24.34-.16.05-.31.1-.43.19-1.1.83-.99,3.29-.75,4.16.36,1.29-.52,2.6-.01,4.61.75,3,1.51,3.13,2.08,4.5.51,1.24,1.24,5.52,4.02,4.54.25,1.14.51,2.22.73,3.12,1.24,5.03,3.2,8.06,5.74,10.41-.18,5.13-.63,12.64-1.75,15.34-.02.04-.03.08-.05.12l-35.94,16h.36c-.19.07-.39.14-.58.21-1.02.41-2.71,1.3-2.71,1.3v.02c-2.07.91-4.24,3.66-6.47,10.54-3,9.21-7.37,70.3-7.83,76.97-.38,5.34-1.35,15.48-1.81,16.82-.25.71-.48,1.42-.73,2.12-.02.05-.04.1-.05.15-4.49,12.98-8.76,24.77-10.04,34.15-.35,2.57-.68,4.96-.99,7.22,0,.05-.01.1-.02.14-1.55,11.34-2.64,19.42-4.29,30.29-.86,5.69-2.41,6.69-2.81,9.68,0,.04,0,.08-.01.12-.05.39-.06.79-.06,1.27v.16c0,.97,0,2.28-.3,4.53-.95,7.12-1.68,8.74-2.34,11.21-.04.13-.07.26-.1.4-1.46,5.67-2.07,8.77-1.98,12.63,0,.21.01.43.02.64Z"/>
  </g>
</svg>