<?xml version="1.0" encoding="UTF-8"?>
<svg id="_레이어_2" data-name="레이어 2" xmlns="http://www.w3.org/2000/svg" viewBox="0 0 192.46 572.3">
  <defs>
    <style>
      .cls-1 {
        fill: #f2a7a9;
        stroke: #221714;
        stroke-miterlimit: 10;
      }
    </style>
  </defs>
  <g id="_레이어_1-2" data-name="레이어 1">
    <path class="cls-1" d="m.53,325.92c.21,5.01,1.3,7.59,3.29,10.06.17.21.34.42.52.63,1.01,1.2,2.03,2.65,3.5,4.21.22.23.44.46.66.68,1.96,1.97,2.56,2.36,3.31,1.66.21-.19.4-.46.61-.81,1.05-1.75-.25-4.11.06-8.07.03-.39.07-.79.13-1.2.81-5.92,2.07-7.91,2.57-14.79.03-.45.09-.67.16-.81.16-.31.69,3.91,2.24,6.4.3.48.64.89,1.02,1.21,1.1.95,2.5,1.18,3.11,1.06.57-.11.95-.43.72-.9-3.94-8.01-.96-13.43-2.04-19.51-.11-.64-.28-1.31-.5-1.99-.51-1.6-1.46-3.7-1.85-5.28-.02-.09-.04-.18-.05-.27,0-.05-.02-.09-.02-.14-.13-.64-.2-1.24-.15-1.73.02-.14.04-.3.06-.45.41-3.29,2.08-7.24,4.43-12.02.37-.75.74-1.5,1.12-2.27,3.63-7.26,5.91-12.16,10.81-24.42.02-.04.03-.08.05-.12.36-.91.74-1.86,1.14-2.85.35-.88.7-1.78,1.07-2.72,5.84-15.06,7.52-28.54,8.1-33.21.15-1.18.26-2.08.35-2.64,0-.04.01-.08.02-.12.14-.89.34-1.88.56-2.9.98-4.54,2.67-10.23,4.47-16.24,1.47-4.88,3.02-9.95,4.35-14.77.31-1.1.63-2.35.95-3.62.35-1.38.9-3.83,1.35-5.86.33-.8.64-1.53.88-1.87.14.51.28,1.04.42,1.55.34,7.08-.35,24.19-3.22,38.85,0,0,0,0,0,0-.2,1.21-.44,2.42-.7,3.66-1.19,5.68-2.75,11.49-4.23,16.9-.99,3.64-1.82,7.02-2.52,10.02-4.62,6.82-7.01,11.21-8.22,13.92-.02.05-.04.1-.06.15-3.71,9.11-9.49,21.1-9.75,41.22v.3c-.04,4.27.16,8.91.69,13.96,1.3,12.52,10.98,39.26,14.59,52.03,8.02,28.39,12.56,45.41,13.15,55.42.77,12.92-.99,16.97-2.56,24.79-3.05,15.22-.83,28.37,2.8,40.42,6.69,22.29,13.71,32.19,14.43,43.89.17,2.92-2.02,4.14-.81,7.83.63,1.92,1.69,3.76.08,8.04-5.46,14.49-12.57,18.28-11.73,23.57.93,5.86,20.64,5.5,28.36,4.17,6.35-1.08,6.26-10.06,4.43-20.33-.37-2.08-.57-4.4-.42-7.96.07-1.76.55-3.81.8-6.28.23-2.28-.44-4.69-.8-6.6-.27-1.44-.55-2.6-.6-3.21-1.77-22.38-1.17-27.75,1.65-48.79,2.85-21.27-1.15-25.08-.65-38.09.3-7.7,2.64-15.58,3.27-23.92.78-10.46-.3-20.35-1.41-27.79-3.06-20.57-3.04-23.89-4.03-40.16-1.07-17.65,4.59-26.31,1.36-41.54.75.27,2.58.36,4.4.38,1.82.01,3.65-.11,4.4-.38-3.23,15.23,2.43,23.89,1.36,41.54-.99,16.27-.97,19.59-4.03,40.16-1.11,7.44-2.19,17.33-1.4,27.79.62,8.34,2.96,16.22,3.26,23.92.5,13.01-3.5,16.82-.65,38.09,2.82,21.04,3.43,26.42,1.65,48.79-.05.61-.33,1.77-.6,3.21-.36,1.91-1.03,4.32-.8,6.6.25,2.47.73,4.52.8,6.28.14,3.56-.05,5.88-.42,7.96-1.83,10.27-1.91,19.25,4.44,20.33,7.71,1.33,27.42,1.69,28.35-4.17.84-5.29-6.26-9.08-11.72-23.57-1.62-4.28-.55-6.12.08-8.04,1.21-3.69-.99-4.91-.81-7.83.71-11.7,7.73-21.6,14.43-43.89,3.62-12.05,5.84-25.2,2.8-40.42-1.57-7.82-3.33-11.87-2.57-24.79.59-10.01,5.13-27.03,13.16-55.42,3.42-12.08,12.26-36.68,14.28-49.85.16-1.03.28-2.01.37-2.93.38-3.85.57-7.47.61-10.85,0-.07,0-.21,0-.28,0-.98,0-1.94-.01-2.88,0-.02,0-.27,0-.3-.36-17.84-5.06-29.21-8.67-37.87l-.05-.12c-.46-1.08-.94-2.16-1.43-3.27-.02-.05-.05-.1-.07-.16-1.34-2.82-3.81-7.22-8.33-13.83-.48-2-1-4.16-1.62-6.44-1.76-6.49-3.77-13.68-4.89-20.61-3.09-15.78-3.62-35.23-3.35-42.57.14-.52.27-1.04.42-1.55.49,2.28,1.69,7.74,2.18,9.59,3.09,11.68,7.85,25.48,9.71,34.4,0,.04.02.08.03.12.2.99.38,1.93.51,2.78.27,1.83,1.36,16.57,7.72,33.64.36.96.73,1.93,1.11,2.88.31.77.59,1.5.87,2.21,5.61,14.3,7.97,19.2,11.98,27.2,2.91,5.8,5,10.44,5.35,14.2,0,.04,0,.08.01.12,0,.13.04.28.04.4.09,1.65-1.69,5.15-2.33,7.35-1.99,6.81,2.03,12.51-2.56,21.4-.49.95,2.55,1.08,4.35-.8,2.27-2.37,2.94-8.84,3.01-7.65.45,7.9,1.84,9.71,2.69,16.17.62,4.71-1.12,7.31.25,9.21,1.05,1.46,1.41,1.34,3.98-1.26,1.81-1.83,2.96-3.52,4.12-4.88,2.26-2.64,3.48-5.25,3.68-10.69.15-4.12-.45-7.24-1.99-13.22-.57-2.17-1.18-3.54-1.93-8.25-.23-1.42-.39-2.81-.57-4.35-.23-1.71-.23-2.74-.23-3.47,0-.55,0-.99-.05-1.43-.38-3.05-1.96-4.01-2.82-9.76-1.64-10.84-2.74-18.89-4.27-30.17,0-.05-.01-.11-.02-.16-.31-2.3-.64-4.72-1-7.33-1.27-9.35-5.51-21.1-9.99-34.02-.02-.06-.04-.11-.06-.17-.26-.74-.51-1.48-.77-2.23-.46-1.34-1.44-11.48-1.81-16.82-.47-6.67-4.84-67.76-7.83-76.97-2.23-6.88-4.4-9.63-6.48-10.54v-.02s-1.68-.89-2.71-1.3c-.12-.05-.25-.09-.37-.14h.16l-35.89-15.98c-.03-.07-.06-.14-.09-.21-1.11-2.7-1.56-10.21-1.74-15.34,2.54-2.35,4.5-5.38,5.73-10.41.22-.9.49-1.98.74-3.12,2.78.98,3.5-3.3,4.02-4.54.57-1.37,1.33-1.5,2.08-4.5.5-2.01-.37-3.32,0-4.61.24-.87.35-3.32-.76-4.16-.11-.09-.26-.14-.42-.19,1.65-6.26,2.7-16.5-.73-24.34-1.49-3.39-3.32-6.13-5.26-8.29-4.56-5.58-12.1-9.22-20.63-9.22s-16.06,3.64-20.63,9.22c-1.93,2.16-3.76,4.9-5.25,8.29-3.43,7.84-2.38,18.08-.73,24.34-.16.05-.31.1-.43.19-1.1.83-.99,3.29-.75,4.16.36,1.29-.52,2.6,0,4.61.76,3,1.51,3.13,2.08,4.5.51,1.24,1.24,5.52,4.02,4.54.25,1.14.51,2.22.73,3.12,1.24,5.03,3.2,8.06,5.74,10.41-.18,5.13-.63,12.64-1.75,15.34-.03.07-.06.14-.09.21l-35.9,15.98h.16c-.12.05-.25.09-.37.14-1.02.41-2.71,1.3-2.71,1.3v.02c-2.07.91-4.24,3.66-6.47,10.54-3,9.21-7.37,70.3-7.83,76.97-.38,5.34-1.35,15.48-1.81,16.82-.25.71-.48,1.42-.73,2.12-.02.05-.04.1-.05.15-4.5,12.97-8.76,24.77-10.04,34.15-.35,2.57-.68,4.96-.99,7.22,0,.05-.01.1-.02.14-1.55,11.34-2.64,19.42-4.28,30.29-.86,5.69-2.41,6.69-2.81,9.68,0,.04-.01.08-.02.12-.05.39-.05.79-.06,1.27,0,.04,0,.12,0,.16,0,.97,0,2.28-.3,4.53-.95,7.12-1.68,8.74-2.34,11.21-.04.13-.07.26-.1.4-1.46,5.67-2.07,8.77-1.98,12.63,0,.21.01.43.02.64Z"/>
  </g>
</svg>