<?xml version="1.0" encoding="UTF-8"?>
<svg id="_레이어_2" data-name="레이어 2" xmlns="http://www.w3.org/2000/svg" viewBox="0 0 192.46 572.16">
  <defs>
    <style>
      .cls-1 {
        fill: #f2a7a9;
        stroke: #221714;
        stroke-miterlimit: 10;
      }
    </style>
  </defs>
  <g id="_레이어_1-2" data-name="레이어 1">
    <path class="cls-1" d="m180.15,342.51c1.05,1.46,1.41,1.33,3.98-1.27,1.81-1.82,2.96-3.52,4.12-4.88,2.27-2.64,3.49-5.24,3.69-10.69.15-4.11-.46-7.24-2-13.22-.64-2.48-1.35-3.91-2.26-10.42-.26-1.91-.33-3.24-.39-4.4-.08-.57-.08-1.01-.08-1.26,0-.55,0-.99-.06-1.42-.39-3.06-1.95-4.02-2.82-9.76-1.64-10.84-2.73-18.9-4.27-30.18,0-.05-.01-.1-.02-.15-.31-2.3-.64-4.71-1-7.33-1.27-9.35-5.52-21.11-10-34.03-.01-.05-.03-.1-.05-.16-.26-.74-.51-1.48-.77-2.23-.46-1.33-1.43-11.48-1.81-16.82-.46-6.66-4.83-67.75-7.83-76.97-2.23-6.87-4.4-9.63-6.47-10.54v-.02s-1.69-.88-2.71-1.29c-.07-.03-.15-.05-.23-.08h.01l-35.9-15.98c-.03-.06-.06-.12-.08-.19-1.12-2.7-1.57-10.21-1.75-15.34,2.54-2.35,4.5-5.38,5.74-10.41.22-.9.48-1.97.73-3.12,2.78.98,3.5-3.3,4.02-4.54.57-1.36,1.33-1.49,2.08-4.5.51-2-.37-3.32,0-4.61.24-.87.35-3.32-.75-4.16-.12-.09-.27-.14-.43-.18,1.65-6.27,2.7-16.51-.73-24.35-1.49-3.39-3.32-6.12-5.25-8.29-4.57-5.57-12.1-9.22-20.63-9.22s-16.06,3.65-20.63,9.22c-1.93,2.17-3.76,4.9-5.25,8.29-3.43,7.84-2.38,18.08-.73,24.35-.16.04-.31.09-.43.18-1.1.83-.99,3.29-.75,4.16.36,1.29-.52,2.61-.01,4.61.76,3.01,1.51,3.14,2.08,4.5.51,1.24,1.24,5.52,4.02,4.54.25,1.15.51,2.22.73,3.12,1.24,5.03,3.2,8.06,5.74,10.41-.18,5.13-.63,12.64-1.75,15.34-.03.06-.06.12-.08.19l-35.91,15.99h.02c-.07.03-.15.05-.23.08-1.02.41-2.71,1.29-2.71,1.29v.02c-2.07.91-4.24,3.67-6.47,10.54-3,9.22-7.37,70.31-7.83,76.97-.38,5.34-1.35,15.49-1.81,16.82-.26.74-.5,1.47-.76,2.19-.02.05-.04.1-.05.15-4.49,12.94-8.74,24.72-10.01,34.08-.36,2.6-.69,5.01-1,7.29,0,.05-.02.1-.02.15-1.54,11.3-2.63,19.37-4.27,30.23-.87,5.72-2.42,6.7-2.82,9.73,0,.04-.01.08-.02.12-.05.39-.05.79-.05,1.28v.15c0,.96-.02,2.27-.3,4.46-.98,7.31-1.72,8.83-2.39,11.4-.04.14-.07.28-.11.42-1.46,5.69-2.05,8.77-1.92,12.73,0,.22.02.44.03.65.25,5.01,1.42,7.53,3.54,10.04.17.21.35.42.53.64,1,1.22,2.04,2.68,3.56,4.22.23.24.46.47.67.68,1.97,1.95,2.42,2.06,3.31.95.21-.26.37-.56.49-.9.65-1.8-.56-4.23-.1-8.21.05-.41.1-.81.16-1.2.84-5.65,2.09-7.7,2.54-14.92.03-.43.11-.15.28.46.31,1.08,1.02,4.67,2.52,6.5.36.44.78.79,1.22,1.05,1.46.87,3.07.79,3.05.25-.02-.39-.03-.85-.25-1.35-3.56-8.01-.29-13.42-1.89-19.72-.15-.6-.37-1.28-.63-1.98-.68-1.84-1.62-4.01-1.71-5.35,0-.09,0-.19,0-.28,0-.05,0-.1,0-.15-.01-.6.03-1.19.13-1.77.03-.15.06-.3.09-.46.66-3.32,2.44-7.28,4.8-12.03.38-.77.76-1.53,1.13-2.28,3.44-6.93,5.78-12.06,10.8-24.68.02-.05.04-.09.06-.14.37-.92.75-1.88,1.15-2.88.31-.78.61-1.56.91-2.35,6.17-16.41,7.47-30.72,7.84-33.49.13-.95.28-1.85.44-2.67,0-.05.02-.09.03-.14.18-.96.41-1.99.67-3.07,1.11-4.69,2.83-10.4,4.62-16.33,1.5-4.97,3.05-10.09,4.34-14.88.24-.88.56-2.22.9-3.66.44-1.9.98-4.33,1.32-5.9.33.52.68,1.12,1.02,1.89.15.51.29,1.03.44,1.56,2.67,11.16,6.05,29.27,2.56,38.88,0,0,0,0,0,0-.23,1.17-.59,2.37-1.02,3.61-1.74,5.02-4.72,10.47-7.75,15.74-1.95,3.39-3.58,6.45-4.97,9.15-4.67,6.88-7.07,11.29-8.28,14.01-.02.05-.04.1-.06.15-3.7,9.11-9.49,21.1-9.75,41.22v.3c-.04,4.27.16,8.91.69,13.96,1.3,12.52,10.98,39.26,14.59,52.03,8.02,28.39,12.56,45.41,13.15,55.42.77,12.92-.99,16.97-2.56,24.79-3.05,15.22-.83,28.37,2.8,40.42,6.69,22.29,13.71,32.19,14.43,43.89.17,2.92-2.02,4.14-.81,7.83.63,1.92,1.69,3.76.08,8.04-5.46,14.49-12.57,18.28-11.73,23.57.93,5.86,20.64,5.5,28.36,4.17,6.35-1.08,6.26-10.06,4.43-20.33-.37-2.08-.57-4.4-.42-7.96.07-1.76.55-3.81.8-6.28.23-2.28-.44-4.69-.8-6.6-.27-1.44-.55-2.6-.6-3.21-1.77-22.37-1.17-27.75,1.65-48.79,2.85-21.27-1.15-25.08-.65-38.09.3-7.7,2.64-15.58,3.27-23.92.78-10.46-.3-20.35-1.41-27.79-3.06-20.57-3.04-23.89-4.03-40.16-1.07-17.65,4.59-26.31,1.36-41.54.75.27,2.58.36,4.4.38,1.82.02,3.65-.11,4.4-.38-3.23,15.23,2.43,23.89,1.36,41.54-.99,16.27-.97,19.59-4.03,40.16-1.11,7.44-2.19,17.33-1.4,27.79.62,8.34,2.96,16.22,3.26,23.92.5,13.01-3.5,16.82-.65,38.09,2.82,21.04,3.42,26.41,1.65,48.79-.05.61-.33,1.77-.6,3.21-.36,1.91-1.03,4.32-.8,6.6.25,2.47.73,4.52.8,6.28.14,3.56-.05,5.88-.42,7.96-1.83,10.27-1.91,19.25,4.44,20.33,7.71,1.33,27.42,1.69,28.35-4.17.84-5.29-6.26-9.08-11.72-23.57-1.62-4.28-.55-6.12.08-8.04,1.21-3.69-.99-4.91-.81-7.83.71-11.7,7.73-21.6,14.43-43.89,3.62-12.05,5.84-25.2,2.8-40.42-1.57-7.82-3.33-11.87-2.57-24.79.59-10.01,5.13-27.03,13.16-55.42,3.54-12.54,12.94-38.57,14.48-51.3.12-1.02.23-2.01.31-2.98.34-3.89.48-7.52.48-10.93,0-.02,0-.27,0-.29,0-.99-.02-1.95-.05-2.9,0-.07,0-.22,0-.3-.64-18.08-5.8-29.33-9.33-37.96-.02-.05-.04-.09-.06-.14-.42-.95-.93-2.03-1.55-3.26-.03-.06-.06-.11-.08-.17-1.6-3.07-4.25-7.5-8.62-13.79-.97-1.82-2.03-3.79-3.23-5.87-3.77-6.55-7.58-13.39-8.75-19.36-3.82-10.46.65-31.44,3.25-42.64.15-.53.29-1.05.43-1.55.49,2.28,1.69,7.75,2.18,9.6,3.1,11.71,7.88,25.53,9.73,34.45,0,.05.02.09.03.14.19.96.37,1.88.49,2.71.28,1.88,1.39,17.41,8.27,35.08.38.99.76,1.96,1.14,2.89.12.29.22.57.33.84,5.59,14.24,7.94,19.14,11.95,27.13,2.92,5.83,5.02,10.49,5.36,14.25,0,.05,0,.09.02.14,0,.11.03.23.03.33.09,1.65-1.69,5.15-2.33,7.35-1.99,6.81,2.03,12.51-2.55,21.41-.49.94,2.54,1.07,4.34-.81,2.27-2.37,2.94-8.84,3.01-7.65.45,7.9,1.84,9.72,2.69,16.17.63,4.71-1.12,7.31.25,9.22Z"/>
  </g>
</svg>