<?xml version="1.0" encoding="UTF-8"?>
<svg id="_레이어_2" data-name="레이어 2" xmlns="http://www.w3.org/2000/svg" viewBox="0 0 192.46 572.23">
  <defs>
    <style>
      .cls-1 {
        fill: #f2a7a9;
        stroke: #221714;
        stroke-miterlimit: 10;
      }
    </style>
  </defs>
  <g id="_레이어_1-2" data-name="레이어 1">
    <path class="cls-1" d="m.54,326.04c.23,5.01,1.36,7.56,3.42,10.05.17.21.35.42.53.64,1,1.21,2.04,2.66,3.53,4.22.23.24.45.46.66.68,1.97,1.96,2.49,2.21,3.31,1.31.21-.23.39-.51.55-.85.85-1.77-.41-4.17-.02-8.14.04-.4.09-.8.14-1.2.83-5.78,2.08-7.8,2.56-14.85.03-.44.09-.41.22-.17.22.39.85,4.29,2.38,6.45.33.46.71.84,1.12,1.13,1.28.91,2.77.97,3.08.66.27-.27.46-.64.23-1.13-3.75-8.01-.63-13.42-1.97-19.62-.13-.62-.32-1.29-.56-1.98-.59-1.72-1.54-3.86-1.78-5.31-.01-.09-.02-.18-.03-.27,0-.05,0-.09,0-.14-.07-.62-.08-1.21,0-1.75.02-.15.05-.3.08-.45.54-3.3,2.26-7.26,4.61-12.02.38-.76.75-1.52,1.13-2.27,3.53-7.1,5.84-12.11,10.8-24.55.02-.04.03-.09.05-.13.37-.91.75-1.87,1.14-2.87.33-.83.66-1.67.99-2.53,6-15.74,7.5-29.63,7.97-33.35.14-1.06.27-1.96.39-2.65,0-.04.02-.09.02-.13.16-.93.38-1.94.62-2.99,1.05-4.61,2.75-10.32,4.54-16.28,1.48-4.92,3.03-10.02,4.34-14.82.27-.99.6-2.28.93-3.64.39-1.64.94-4.08,1.33-5.88.33-.14.66-.21.95.01.14.51.29,1.04.43,1.56,1.5,9.12,2.85,26.73-.33,38.87,0,0,0,0,0,0-.22,1.19-.52,2.4-.86,3.63-1.48,5.34-3.74,10.98-5.99,16.32-1.48,3.51-2.7,6.73-3.75,9.59-4.64,6.85-7.04,11.25-8.25,13.97-.02.05-.04.1-.06.15-3.71,9.11-9.49,21.1-9.75,41.22v.3c-.04,4.27.16,8.91.69,13.96,1.3,12.52,10.98,39.26,14.59,52.03,8.02,28.39,12.56,45.41,13.15,55.42.77,12.92-.99,16.97-2.56,24.79-3.05,15.22-.83,28.37,2.8,40.42,6.69,22.29,13.71,32.19,14.43,43.89.17,2.92-2.02,4.14-.81,7.83.63,1.92,1.69,3.76.08,8.04-5.46,14.49-12.57,18.28-11.73,23.57.93,5.86,20.64,5.5,28.36,4.17,6.35-1.08,6.26-10.06,4.43-20.33-.37-2.08-.57-4.4-.42-7.96.07-1.76.55-3.81.8-6.28.23-2.28-.44-4.69-.8-6.6-.27-1.44-.55-2.6-.6-3.21-1.77-22.37-1.17-27.75,1.65-48.79,2.85-21.27-1.15-25.08-.65-38.09.3-7.7,2.64-15.58,3.27-23.92.78-10.46-.3-20.35-1.41-27.79-3.06-20.57-3.04-23.89-4.03-40.16-1.07-17.65,4.59-26.31,1.36-41.54.75.27,2.58.37,4.4.38,1.82.01,3.65-.11,4.4-.38-3.23,15.23,2.43,23.89,1.36,41.54-.99,16.27-.97,19.59-4.03,40.16-1.11,7.44-2.19,17.33-1.4,27.79.62,8.34,2.96,16.22,3.26,23.92.5,13.01-3.5,16.82-.65,38.09,2.82,21.04,3.42,26.42,1.65,48.79-.05.61-.33,1.77-.6,3.21-.36,1.91-1.03,4.32-.8,6.6.25,2.47.73,4.52.8,6.28.14,3.56-.05,5.88-.42,7.96-1.83,10.27-1.91,19.25,4.44,20.33,7.71,1.33,27.42,1.69,28.35-4.17.84-5.29-6.26-9.08-11.72-23.57-1.62-4.28-.55-6.12.08-8.04,1.21-3.69-.99-4.91-.81-7.83.71-11.7,7.73-21.6,14.43-43.89,3.62-12.05,5.84-25.2,2.8-40.42-1.57-7.82-3.33-11.87-2.57-24.79.59-10.01,5.13-27.03,13.16-55.42,3.48-12.31,12.6-37.62,14.38-50.57.14-1.03.26-2.01.34-2.95.36-3.87.53-7.49.54-10.89,0-.05,0-.24,0-.29,0-.98,0-1.94-.03-2.89,0-.05,0-.25,0-.3-.5-17.96-5.44-29.27-9-37.92-.02-.04-.04-.09-.05-.13-.44-1.02-.93-2.1-1.49-3.27-.03-.05-.05-.11-.08-.16-1.47-2.95-4.03-7.36-8.48-13.81-.73-1.91-1.51-3.98-2.42-6.16-2.74-6.53-5.67-13.53-6.82-19.98-3.45-13.12-1.49-33.33-.05-42.6.15-.52.28-1.05.43-1.55.49,2.28,1.69,7.74,2.18,9.59,3.09,11.7,7.86,25.51,9.72,34.43,0,.04.02.09.03.13.2.97.38,1.91.5,2.75.27,1.85,1.39,16.98,7.99,34.36.37.98.75,1.94,1.12,2.88.21.53.41,1.04.6,1.52,5.6,14.27,7.96,19.17,11.96,27.17,2.92,5.81,5.01,10.46,5.36,14.22,0,.04,0,.09.01.13,0,.12.04.25.04.36.09,1.65-1.69,5.15-2.33,7.35-1.99,6.81,2.03,12.51-2.55,21.41-.49.94,2.54,1.07,4.34-.81,2.27-2.37,2.94-8.84,3.01-7.65.45,7.9,1.84,9.71,2.69,16.17.62,4.71-1.12,7.31.25,9.21,1.05,1.46,1.41,1.33,3.98-1.26,1.81-1.83,2.96-3.52,4.12-4.88,2.27-2.64,3.48-5.25,3.69-10.69.15-4.12-.46-7.24-2-13.22-.6-2.32-1.26-3.73-2.09-9.33-.24-1.67-.36-3.02-.48-4.38-.15-1.14-.15-1.88-.15-2.36,0-.55,0-.99-.06-1.42-.38-3.06-1.96-4.02-2.82-9.76-1.64-10.84-2.73-18.9-4.27-30.18,0-.05-.01-.11-.02-.16-.31-2.3-.64-4.71-1-7.33-1.27-9.35-5.52-21.1-10-34.03-.01-.05-.03-.11-.05-.16-.26-.74-.51-1.48-.77-2.23-.46-1.34-1.44-11.48-1.81-16.82-.47-6.67-4.84-67.75-7.83-76.97-2.23-6.88-4.4-9.63-6.48-10.54v-.02s-1.69-.89-2.71-1.3c-.08-.03-.18-.06-.26-.1h.05l-35.89-15.98c-.03-.07-.06-.14-.1-.21-1.11-2.7-1.56-10.21-1.74-15.34,2.54-2.35,4.5-5.38,5.73-10.41.22-.9.48-1.98.73-3.12,2.78.98,3.51-3.3,4.02-4.54.57-1.36,1.33-1.49,2.08-4.5.5-2-.37-3.32,0-4.61.24-.87.35-3.32-.75-4.16-.12-.09-.27-.14-.43-.19,1.65-6.26,2.7-16.5-.73-24.34-1.49-3.39-3.32-6.12-5.25-8.29-4.57-5.58-12.1-9.22-20.63-9.22s-16.06,3.64-20.63,9.22c-1.93,2.17-3.76,4.9-5.25,8.29-3.43,7.84-2.38,18.08-.73,24.34-.16.05-.31.09-.43.19-1.1.83-.99,3.29-.75,4.16.36,1.29-.52,2.6-.01,4.61.76,3,1.51,3.13,2.08,4.5.51,1.24,1.24,5.52,4.02,4.54.25,1.15.51,2.22.73,3.12,1.24,5.03,3.2,8.06,5.74,10.41-.18,5.13-.63,12.64-1.75,15.34-.03.07-.06.14-.1.21l-35.89,15.98h.05c-.09.03-.18.06-.26.1-1.02.41-2.71,1.3-2.71,1.3v.02c-2.07.91-4.24,3.66-6.47,10.54-3,9.22-7.37,70.3-7.83,76.97-.38,5.34-1.35,15.48-1.81,16.82-.25.72-.49,1.44-.74,2.16-.02.05-.04.1-.05.15-4.49,12.96-8.75,24.74-10.03,34.11-.36,2.59-.68,4.98-.99,7.26,0,.05-.02.1-.02.15-1.54,11.32-2.64,19.39-4.28,30.26-.86,5.71-2.42,6.69-2.81,9.7,0,.04-.01.08-.02.12-.05.39-.05.79-.05,1.28v.16c0,.96,0,2.27-.3,4.5-.97,7.21-1.7,8.78-2.37,11.31-.04.14-.07.27-.11.41-1.46,5.68-2.06,8.77-1.95,12.68,0,.22.01.43.02.65Z"/>
  </g>
</svg>