<?xml version="1.0" encoding="UTF-8"?>
<svg id="_레이어_2" data-name="레이어 2" xmlns="http://www.w3.org/2000/svg" viewBox="0 0 192.46 571.93">
  <defs>
    <style>
      .cls-1 {
        fill: #f2a7a9;
        stroke: #221714;
        stroke-miterlimit: 10;
      }
    </style>
  </defs>
  <g id="_레이어_1-2" data-name="레이어 1">
    <path class="cls-1" d="m187.52,301.07c-.3-2.28-.3-3.6-.3-4.57,0-.55,0-.99-.06-1.43-.37-3.05-1.95-4.01-2.82-9.76-1.65-10.89-2.74-18.97-4.29-30.33-.31-2.3-.64-4.72-1-7.33-1.28-9.39-5.55-21.2-10.05-34.19-.26-.74-.51-1.48-.77-2.23-.46-1.34-1.43-11.48-1.81-16.82-.46-6.67-4.83-67.76-7.83-76.97-2.23-6.88-4.4-9.63-6.47-10.54v-.02s-1.69-.89-2.71-1.3c-.35-.14-.71-.27-1.08-.39h.86l-36.01-16.03c-1.1-2.75-1.55-10.18-1.73-15.28,2.54-2.35,4.5-5.38,5.74-10.41.22-.9.48-1.98.73-3.12,2.78.98,3.51-3.3,4.02-4.54.57-1.37,1.33-1.5,2.08-4.5.51-2.01-.37-3.32-.01-4.61.24-.87.35-3.32-.75-4.16-.12-.09-.27-.14-.43-.19,1.65-6.26,2.7-16.5-.73-24.34-1.49-3.39-3.32-6.13-5.25-8.29-4.57-5.58-12.1-9.22-20.63-9.22s-16.06,3.64-20.63,9.22c-1.93,2.16-3.76,4.9-5.25,8.29-3.43,7.84-2.38,18.08-.73,24.34-.16.05-.31.1-.43.19-1.1.84-.99,3.29-.75,4.16.36,1.29-.52,2.6-.01,4.61.75,3,1.51,3.13,2.08,4.5.51,1.24,1.24,5.52,4.02,4.54.25,1.14.51,2.22.73,3.12,1.24,5.03,3.2,8.06,5.74,10.41-.18,5.09-.62,12.53-1.73,15.27l-36.01,16.03h.87c-.37.12-.73.25-1.08.39-1.02.41-2.71,1.3-2.71,1.3v.02c-2.07.91-4.24,3.66-6.47,10.54-3,9.21-7.37,70.3-7.83,76.97-.38,5.34-1.35,15.48-1.81,16.82-.26.75-.51,1.49-.77,2.23-4.5,12.99-8.77,24.8-10.05,34.19-.36,2.61-.69,5.03-1,7.33-1.55,11.36-2.64,19.44-4.29,30.33-.87,5.75-2.45,6.71-2.82,9.76-.06.44-.06.88-.06,1.43,0,.97,0,2.29-.3,4.57-.99,7.39-1.74,8.86-2.42,11.5-1.54,5.98-2.15,9.1-2,13.22.2,5.44,1.43,8.05,3.69,10.69,1.16,1.36,2.31,3.05,4.12,4.88,2.57,2.6,2.93,2.72,3.98,1.26,1.37-1.9-.38-4.5.25-9.21.85-6.46,2.24-8.27,2.69-16.17.07-1.19.74,5.28,3.01,7.65,1.8,1.88,4.83,1.75,4.34.8-4.58-8.89-.56-14.59-2.55-21.4-.64-2.2-2.42-5.7-2.33-7.35.01-.14.03-.3.05-.44.33-3.77,2.43-8.44,5.36-14.28,4.01-8.01,6.31-12.93,11.99-27.24.37-.93.75-1.89,1.15-2.9,7.08-17.98,8.26-33.89,8.54-35.8.12-.86.31-1.82.51-2.82.93-4.46,2.59-10.15,4.4-16.19,1.82-6.05,3.79-12.44,5.34-18.3.49-1.85,1.69-7.31,2.18-9.59.14.51.27,1.04.41,1.55-.89,5.41-3.94,24.09-6.65,42.53-2.22,15.05-2.59,34.44-3.01,41.81h0c-3.17,9.11-7.93,21.14-8.09,41.23v.29c-.02,4.2.15,8.73.58,13.67,1.1,12.52,9.23,39.26,12.26,52.03,6.75,28.39,10.57,45.41,11.06,55.42.65,12.92-.83,16.97-2.15,24.79-2.56,15.22-.69,28.37,2.35,40.42,5.63,22.29,11.53,32.19,12.13,43.89.15,2.92-1.69,4.14-.68,7.83.53,1.92,1.43,3.76.07,8.04-4.59,14.49-10.56,18.28-9.86,23.57.79,5.86,17.35,5.49,23.84,4.17,5.34-1.08,5.27-10.06,3.73-20.33-.31-2.08-.47-4.4-.35-7.96.06-1.76.46-3.81.67-6.28.19-2.28-.37-4.69-.67-6.6-.23-1.44-.47-2.6-.51-3.21-1.43-22.38-.99-27.75,1.39-48.8,2.39-21.26-.97-25.07-.55-38.08.25-7.7,2.22-15.58,2.75-23.92.66-10.46-.25-20.35-1.18-27.79-2.58-20.57-2.56-23.89-3.39-40.16-.9-17.65,3.85-26.31,1.14-41.54.63.27,2.17.36,3.7.38,1.53,0,3.07-.11,3.7-.38-2.71,15.23,2.04,23.89,1.14,41.54-.83,16.27-.81,19.59-3.39,40.16-.93,7.44-1.84,17.33-1.18,27.79.53,8.34,2.5,16.22,2.75,23.92.42,13.01-2.94,16.82-.55,38.08,2.37,21.05,2.82,26.42,1.39,48.8-.04.61-.28,1.77-.51,3.21-.3,1.91-.86,4.32-.67,6.6.21,2.47.61,4.52.67,6.28.12,3.56-.04,5.88-.35,7.96-1.54,10.27-1.61,19.25,3.73,20.33,6.48,1.32,23.05,1.69,23.84-4.17.7-5.29-5.27-9.08-9.86-23.57-1.36-4.28-.46-6.12.07-8.04,1.01-3.69-.83-4.91-.68-7.83.6-11.7,6.5-21.6,12.13-43.89,3.04-12.05,4.91-25.2,2.35-40.42-1.32-7.82-2.8-11.87-2.16-24.79.5-10.01,4.32-27.03,11.07-55.42,3.03-12.77,11.16-39.51,12.26-52.03.43-4.94.6-9.47.58-13.67v-.29c-.16-20.09-4.93-32.12-8.09-41.23,0,0,0,0,0,0-.42-7.37-.79-26.76-3.01-41.81-2.71-18.44-5.76-37.12-6.65-42.53.14-.51.27-1.04.41-1.55.49,2.28,1.69,7.74,2.18,9.59,1.55,5.86,3.52,12.25,5.34,18.3,1.81,6.04,3.47,11.73,4.4,16.19.2,1,.39,1.96.51,2.82.28,1.91,1.46,17.82,8.54,35.8.4,1.01.78,1.97,1.15,2.9,5.68,14.31,7.98,19.23,11.99,27.24,2.93,5.84,5.03,10.51,5.36,14.28.02.14.04.3.05.44.09,1.65-1.69,5.15-2.33,7.35-1.99,6.81,2.03,12.51-2.55,21.4-.49.95,2.54,1.08,4.34-.8,2.27-2.37,2.94-8.84,3.01-7.65.45,7.9,1.84,9.71,2.69,16.17.63,4.71-1.12,7.31.25,9.21,1.05,1.46,1.41,1.34,3.98-1.26,1.81-1.83,2.96-3.52,4.12-4.88,2.26-2.64,3.49-5.25,3.69-10.69.15-4.12-.46-7.24-2-13.22-.68-2.64-1.43-4.11-2.42-11.5Z"/>
  </g>
</svg>