<?xml version="1.0" encoding="UTF-8"?>
<svg id="_레이어_2" data-name="레이어 2" xmlns="http://www.w3.org/2000/svg" viewBox="0 0 192.46 572.08">
  <defs>
    <style>
      .cls-1 {
        fill: #f2a7a9;
        stroke: #221714;
        stroke-miterlimit: 10;
      }
    </style>
  </defs>
  <g id="_레이어_1-2" data-name="레이어 1">
    <path class="cls-1" d="m187.53,301.07c-.3-2.28-.31-3.6-.31-4.57,0-.55,0-.99-.05-1.43-.38-3.05-1.96-4.01-2.82-9.76-1.65-10.89-2.75-18.97-4.29-30.33-.31-2.3-.64-4.72-1-7.33-1.28-9.39-5.55-21.2-10.05-34.19-.26-.74-.51-1.48-.77-2.23-.46-1.34-1.44-11.48-1.81-16.82-.47-6.67-4.84-67.76-7.83-76.97-2.23-6.88-4.4-9.63-6.48-10.54v-.02s-1.68-.89-2.71-1.3c-.28-.11-.58-.21-.87-.32h.65l-35.97-16.02s0-.02-.01-.03c-1.11-2.7-1.56-10.21-1.74-15.34,2.54-2.35,4.5-5.38,5.73-10.41.22-.9.49-1.98.74-3.12,2.78.98,3.5-3.3,4.02-4.54.57-1.37,1.33-1.5,2.08-4.5.5-2.01-.37-3.32-.01-4.61.24-.87.35-3.32-.76-4.16-.11-.09-.26-.14-.42-.19,1.65-6.26,2.7-16.5-.73-24.34-1.49-3.39-3.32-6.13-5.26-8.29-4.56-5.58-12.1-9.22-20.63-9.22s-16.06,3.64-20.63,9.22c-1.93,2.16-3.76,4.9-5.25,8.29-3.43,7.84-2.38,18.08-.73,24.34-.16.05-.31.1-.43.19-1.1.84-.99,3.29-.75,4.16.36,1.29-.52,2.6-.01,4.61.75,3,1.51,3.13,2.08,4.5.51,1.24,1.24,5.52,4.02,4.54.25,1.14.51,2.22.73,3.12,1.24,5.03,3.2,8.06,5.74,10.41-.18,5.13-.63,12.64-1.75,15.34,0,0,0,.02-.01.03l-35.98,16.02h.66c-.29.1-.59.2-.87.32-1.02.41-2.71,1.3-2.71,1.3v.02c-2.07.91-4.24,3.66-6.47,10.54-3,9.21-7.37,70.3-7.83,76.97-.38,5.34-1.35,15.48-1.81,16.82-.26.75-.51,1.49-.77,2.23-4.5,12.99-8.77,24.8-10.05,34.19-.36,2.61-.69,5.03-1,7.33-1.55,11.36-2.64,19.44-4.29,30.33-.87,5.75-2.45,6.71-2.82,9.76-.06.44-.06.88-.06,1.43,0,.97,0,2.29-.3,4.57-.99,7.39-1.74,8.86-2.42,11.5-1.54,5.98-2.15,9.1-2,13.22.2,5.44,1.43,8.05,3.69,10.69,1.16,1.36,2.31,3.05,4.12,4.88,2.57,2.6,2.93,2.72,3.98,1.26,1.37-1.9-.38-4.5.25-9.21.85-6.46,2.24-8.27,2.69-16.17.07-1.19.74,5.28,3.01,7.65,1.8,1.88,4.83,1.75,4.34.8-4.58-8.89-.56-14.59-2.55-21.4-.64-2.2-2.42-5.7-2.33-7.35.01-.14.03-.3.05-.44.33-3.77,2.43-8.44,5.36-14.28,4.01-8.01,6.31-12.93,11.99-27.24.37-.93.75-1.89,1.15-2.9,7.08-17.98,8.26-33.89,8.54-35.8.12-.86.31-1.82.51-2.82.93-4.46,2.59-10.15,4.4-16.19,1.82-6.05,3.79-12.44,5.34-18.3.49-1.85,1.69-7.31,2.18-9.59.14.51.27,1.04.41,1.55-.89,5.41-3.94,24.09-6.65,42.53-2.22,15.05-4.22,29.94-4.64,37.31-.53,1.72-.73,2.63-.73,2.63-.18.52-.37,1.04-.57,1.58h.05c-.05.14-.09.25-.11.29-3.37,9.12-8.49,21.18-8.66,41.38v.14c-.03,4.24.15,8.82.61,13.82,1.17,12.52,9.82,39.26,13.04,52.03,7.18,28.38,11.23,45.41,11.76,55.42.68,12.92-.89,16.97-2.29,24.79-2.73,15.22-.74,28.37,2.5,40.42,5.98,22.28,12.26,32.19,12.9,43.89.15,2.92-1.81,4.14-.73,7.83.57,1.92,1.52,3.76.07,8.04-4.88,14.49-11.22,18.28-10.47,23.57.83,5.86,18.44,5.49,25.34,4.17,5.67-1.08,5.6-10.06,3.96-20.34-.33-2.07-.5-4.4-.37-7.95.06-1.76.49-3.81.71-6.28.21-2.28-.39-4.69-.71-6.6-.24-1.45-.5-2.61-.54-3.21-1.52-22.39-1.05-27.75,1.47-48.8,2.55-21.26-1.02-25.08-.57-38.08.26-7.7,2.35-15.58,2.91-23.92.71-10.47-.26-20.35-1.25-27.79-2.74-20.57-2.72-23.89-3.61-40.16-.95-17.65,4.11-26.31,1.22-41.54.67.26,2.31.36,3.93.38,1.63,0,3.27-.12,3.94-.38-2.89,15.23,2.17,23.89,1.21,41.54-.88,16.27-.87,19.59-3.6,40.16-.99,7.44-1.96,17.32-1.26,27.79.56,8.34,2.65,16.22,2.92,23.92.45,13-3.12,16.82-.58,38.08,2.53,21.05,3,26.41,1.48,48.8-.05.6-.3,1.76-.54,3.21-.32,1.91-.92,4.32-.72,6.6.23,2.47.65,4.52.72,6.28.13,3.55-.04,5.88-.37,7.95-1.64,10.28-1.72,19.26,3.96,20.34,6.89,1.32,24.51,1.69,25.34-4.17.75-5.29-5.6-9.08-10.48-23.57-1.44-4.28-.49-6.12.08-8.04,1.07-3.69-.89-4.91-.73-7.83.64-11.7,6.91-21.61,12.9-43.89,3.24-12.05,5.22-25.2,2.5-40.42-1.4-7.82-2.97-11.87-2.29-24.79.52-10.01,4.58-27.04,11.76-55.42,3.22-12.77,11.87-39.51,13.04-52.03.46-5,.64-9.58.61-13.82v-.14c-.17-20.2-5.29-32.26-8.66-41.38-.02-.05-.06-.15-.11-.29h.05c-.19-.54-.38-1.06-.57-1.58,0,0-.19-.91-.72-2.63-.42-7.37-2.42-22.26-4.64-37.31-2.72-18.44-5.76-37.12-6.65-42.53.14-.51.26-1.04.41-1.55.49,2.28,1.69,7.74,2.18,9.59,3.1,11.72,7.88,25.57,9.73,34.49.21,1,.39,1.96.52,2.82.28,1.91,1.45,17.82,8.54,35.8.4,1.01.78,1.97,1.14,2.9,5.68,14.31,7.98,19.23,12,27.24,2.93,5.84,5.03,10.51,5.36,14.28.01.14.04.3.05.44.09,1.65-1.69,5.15-2.33,7.35-1.99,6.81,2.03,12.51-2.56,21.4-.49.95,2.55,1.08,4.35-.8,2.27-2.37,2.94-8.84,3.01-7.65.45,7.9,1.84,9.71,2.69,16.17.62,4.71-1.12,7.31.25,9.21,1.05,1.46,1.41,1.34,3.98-1.26,1.81-1.83,2.96-3.52,4.12-4.88,2.26-2.64,3.48-5.25,3.68-10.69.15-4.12-.45-7.24-1.99-13.22-.69-2.64-1.44-4.11-2.42-11.5Z"/>
  </g>
</svg>