<?xml version="1.0" encoding="UTF-8"?>
<svg id="_레이어_2" data-name="레이어 2" xmlns="http://www.w3.org/2000/svg" viewBox="0 0 192.46 572.09">
  <defs>
    <style>
      .cls-1 {
        fill: #f2a7a9;
        stroke: #221714;
        stroke-miterlimit: 10;
      }
    </style>
  </defs>
  <g id="_레이어_1-2" data-name="레이어 1">
    <path class="cls-1" d="m4.21,336.4c1.16,1.36,2.31,3.06,4.12,4.88,2.57,2.6,2.93,2.72,3.98,1.26,1.37-1.9-.38-4.5.25-9.21.85-6.46,2.24-8.27,2.69-16.17.07-1.19.74,5.28,3.01,7.65,1.8,1.88,4.83,1.75,4.34.81-4.58-8.9-.56-14.6-2.55-21.41-.62-2.15-2.33-5.53-2.33-7.22,0-.09,0-.18.01-.28.01-.1.02-.2.03-.3.33-3.77,2.43-8.44,5.36-14.28,4-7.98,6.3-12.9,11.94-27.11.02-.04.04-.09.05-.13.37-.92.75-1.89,1.15-2.9,7.08-17.98,8.26-33.89,8.54-35.8.12-.82.29-1.73.48-2.67.01-.05.02-.1.03-.16.91-4.46,2.59-10.14,4.4-16.18,1.82-6.05,3.79-12.44,5.34-18.31.44-1.68,1.48-6.37,2.01-8.82.14-.04.26-.04.37,0,1.36,9.16,2.43,29.23-1.81,43.38-1.14,6.09-3.5,12.6-5.46,19.34-1.14,3.92-2.24,8.02-3.26,11.6-2.58,5.63-4.76,10.41-4.89,10.73-3.59,9.13-9.05,21.22-9.23,41.52-.04,4.28.15,8.91.65,13.97,1.24,12.52,10.39,39.26,13.81,52.03,7.6,28.38,11.9,45.41,12.46,55.42.72,12.92-.94,16.97-2.43,24.79-2.89,15.21-.78,28.37,2.65,40.42,6.34,22.28,12.99,32.19,13.66,43.89.17,2.91-1.91,4.14-.76,7.83.59,1.92,1.6,3.76.07,8.04-5.17,14.48-11.89,18.28-11.1,23.57.88,5.86,19.55,5.49,26.85,4.17,6.01-1.09,5.93-10.06,4.2-20.34-.35-2.07-.52-4.4-.39-7.96.06-1.75.51-3.8.75-6.28.22-2.28-.41-4.68-.75-6.59-.26-1.45-.53-2.61-.57-3.21-1.56-22.39-1.12-27.76,1.55-48.8,2.7-21.26-1.08-25.08-.61-38.08.29-7.7,2.5-15.58,3.09-23.92.75-10.47-.28-20.35-1.33-27.79-2.89-20.57-2.88-23.89-3.81-40.16-1.02-17.66,4.34-26.31,1.28-41.54.71.26,2.45.35,4.17.37,1.72.02,3.46-.11,4.17-.37-3.06,15.23,2.3,23.88,1.29,41.54-.94,16.27-.92,19.59-3.82,40.16-1.05,7.44-2.08,17.32-1.33,27.79.59,8.34,2.81,16.22,3.09,23.92.47,13-3.31,16.82-.61,38.08,2.67,21.04,3.3,26.42,1.56,48.8-.05.6-.31,1.76-.57,3.21-.34,1.91-.98,4.31-.76,6.59.24,2.48.69,4.53.76,6.28.13,3.56-.05,5.89-.4,7.96-1.73,10.28-1.81,19.25,4.2,20.34,7.31,1.32,25.97,1.69,26.85-4.17.79-5.29-5.93-9.09-11.1-23.57-1.53-4.28-.52-6.12.07-8.04,1.15-3.69-.93-4.92-.76-7.83.67-11.7,7.32-21.61,13.66-43.89,3.43-12.05,5.54-25.21,2.65-40.42-1.48-7.82-3.15-11.87-2.43-24.79.56-10.01,4.86-27.04,12.46-55.42,3.42-12.77,12.58-39.51,13.81-52.03.5-5.06.69-9.69.66-13.97-.19-20.3-5.65-32.39-9.24-41.52-.13-.34-2.54-5.59-5.27-11.57-.88-3.09-1.8-6.5-2.74-9.81-2-6.97-4.39-13.85-5.59-20.29-4.13-13.96-3.37-33.4-2.03-42.61.14-.52.27-1.04.42-1.55.49,2.28,1.69,7.74,2.18,9.59,3.09,11.7,7.88,25.5,9.72,34.43,0,.04.02.09.03.13.2.97.38,1.91.5,2.75.27,1.85,1.39,16.98,7.99,34.35.37.98.75,1.95,1.12,2.89.21.53.41,1.04.6,1.52,5.6,14.27,7.96,19.17,11.97,27.17,2.92,5.81,5.01,10.46,5.35,14.22,0,.04,0,.09.02.13.01.12.04.25.04.36.09,1.65-1.69,5.15-2.33,7.35-1.99,6.81,2.03,12.51-2.55,21.41-.49.94,2.54,1.07,4.34-.81,2.27-2.37,2.94-8.84,3.01-7.65.45,7.9,1.84,9.71,2.69,16.17.62,4.71-1.12,7.31.25,9.21,1.05,1.46,1.41,1.33,3.98-1.26,1.81-1.83,2.96-3.52,4.12-4.88,2.26-2.64,3.49-5.25,3.69-10.69.15-4.12-.45-7.24-1.99-13.22-.6-2.32-1.26-3.72-2.09-9.33-.24-1.67-.36-3.03-.48-4.38-.15-1.14-.16-1.88-.16-2.36,0-.55,0-.99-.06-1.42-.38-3.06-1.95-4.02-2.82-9.76-1.64-10.84-2.73-18.9-4.27-30.18,0-.05-.01-.11-.02-.16-.31-2.3-.64-4.71-1-7.33-1.27-9.35-5.52-21.1-9.99-34.03-.02-.05-.04-.11-.06-.16-.26-.74-.51-1.48-.77-2.23-.46-1.34-1.44-11.48-1.81-16.82-.47-6.67-4.83-67.75-7.83-76.97-2.23-6.88-4.4-9.63-6.48-10.54v-.02s-1.69-.89-2.71-1.3c-.15-.06-.31-.11-.46-.17h.24l-35.93-16s-.04-.08-.06-.13c-1.11-2.7-1.57-10.21-1.74-15.34,2.54-2.35,4.5-5.38,5.73-10.41.22-.9.48-1.98.73-3.12,2.78.98,3.51-3.3,4.02-4.54.57-1.36,1.33-1.49,2.08-4.5.5-2-.37-3.32-.01-4.61.24-.87.35-3.32-.76-4.16-.11-.09-.26-.14-.42-.19,1.65-6.26,2.7-16.5-.73-24.34-1.49-3.39-3.32-6.12-5.25-8.29-4.57-5.58-12.1-9.22-20.63-9.22s-16.06,3.64-20.63,9.22c-1.93,2.17-3.76,4.9-5.25,8.29-3.43,7.84-2.38,18.08-.73,24.34-.16.05-.31.09-.43.19-1.1.83-.99,3.29-.75,4.16.36,1.29-.52,2.6-.01,4.61.76,3,1.51,3.13,2.08,4.5.51,1.24,1.24,5.52,4.02,4.54.25,1.15.51,2.22.73,3.12,1.24,5.03,3.2,8.06,5.74,10.41-.18,5.13-.63,12.64-1.75,15.34-.02.04-.04.08-.05.12l-35.94,16h.25c-.15.06-.31.11-.46.17-1.02.41-2.71,1.3-2.71,1.3v.02c-2.07.91-4.24,3.66-6.47,10.54-3,9.22-7.37,70.3-7.83,76.97-.38,5.34-1.35,15.48-1.81,16.82-.25.72-.49,1.44-.74,2.16-.02.05-.04.1-.05.15-4.49,12.96-8.75,24.74-10.02,34.11-.36,2.59-.68,4.98-.99,7.26,0,.05-.02.1-.02.15-1.54,11.32-2.64,19.39-4.28,30.26-.86,5.71-2.42,6.69-2.81,9.7,0,.04-.01.08-.02.12-.05.39-.05.79-.05,1.28v.16c0,.96-.01,2.27-.3,4.5-.99,7.39-1.74,8.86-2.42,11.5-1.54,5.98-2.15,9.1-2,13.22.2,5.44,1.43,8.05,3.69,10.69Z"/>
  </g>
</svg>