<?xml version="1.0" encoding="UTF-8"?>
<svg id="_레이어_2" data-name="레이어 2" xmlns="http://www.w3.org/2000/svg" viewBox="0 0 192.46 572.16">
  <defs>
    <style>
      .cls-1 {
        fill: #f2a7a9;
        stroke: #221714;
        stroke-miterlimit: 10;
      }
    </style>
  </defs>
  <g id="_레이어_1-2" data-name="레이어 1">
    <path class="cls-1" d="m187.69,302.04c-.26-1.91-.33-3.24-.39-4.4-.07-.57-.08-1.01-.08-1.26,0-.55,0-.99-.06-1.42-.39-3.06-1.95-4.02-2.82-9.76-1.64-10.84-2.73-18.9-4.27-30.18,0-.05-.01-.1-.02-.15-.31-2.3-.64-4.71-1-7.33-1.27-9.35-5.52-21.11-10-34.03-.01-.05-.03-.1-.05-.16-.26-.74-.51-1.48-.77-2.23-.46-1.33-1.43-11.48-1.81-16.82-.46-6.66-4.83-67.75-7.83-76.97-2.23-6.87-4.4-9.63-6.47-10.54v-.02s-1.69-.88-2.71-1.29c-.07-.03-.15-.05-.22-.08h0l-35.9-15.98c-.03-.07-.06-.13-.09-.19-1.12-2.7-1.57-10.21-1.75-15.34,2.54-2.35,4.5-5.38,5.74-10.41.22-.9.48-1.97.73-3.12,2.78.98,3.5-3.3,4.02-4.54.57-1.36,1.33-1.49,2.08-4.5.51-2-.37-3.32-.01-4.61.24-.87.35-3.32-.75-4.16-.12-.09-.27-.14-.43-.18,1.65-6.27,2.7-16.51-.73-24.35-1.49-3.39-3.32-6.12-5.25-8.29-4.57-5.57-12.1-9.22-20.63-9.22s-16.06,3.65-20.63,9.22c-1.93,2.17-3.76,4.9-5.25,8.29-3.43,7.84-2.38,18.08-.73,24.35-.16.04-.31.09-.43.18-1.1.83-.99,3.29-.75,4.16.36,1.29-.52,2.61-.01,4.61.76,3.01,1.51,3.14,2.08,4.5.51,1.24,1.24,5.52,4.02,4.54.25,1.15.51,2.22.73,3.12,1.24,5.03,3.2,8.06,5.74,10.41-.18,5.13-.63,12.64-1.75,15.34-.03.07-.06.12-.08.19l-35.91,15.99h.01c-.07.03-.15.05-.22.08-1.02.41-2.71,1.29-2.71,1.29v.02c-2.07.91-4.24,3.67-6.47,10.54-3,9.22-7.37,70.31-7.83,76.97-.38,5.34-1.35,15.49-1.81,16.82-.26.74-.5,1.47-.76,2.19-.02.05-.04.1-.05.15-4.49,12.94-8.74,24.72-10.01,34.08-.36,2.6-.69,5.01-1,7.29,0,.05-.02.1-.02.15-1.54,11.3-2.63,19.37-4.27,30.22-.87,5.72-2.42,6.7-2.82,9.73,0,.04-.01.08-.02.12-.05.39-.05.79-.05,1.28v.15c0,.96-.02,2.27-.3,4.46-.99,7.4-1.74,8.87-2.42,11.5-1.54,5.98-2.15,9.11-2,13.22.2,5.45,1.42,8.05,3.69,10.69,1.16,1.36,2.31,3.06,4.12,4.88,2.57,2.6,2.93,2.73,3.98,1.27,1.37-1.91-.38-4.51.25-9.22.85-6.45,2.24-8.27,2.69-16.17.07-1.19.74,5.28,3.01,7.65,1.8,1.88,4.83,1.75,4.34.81-4.6-8.89-.56-14.6-2.55-21.41-.63-2.17-2.38-5.61-2.33-7.28,0-.09.01-.19.02-.28.01-.07.02-.15.03-.22.33-3.77,2.43-8.44,5.36-14.28,4-7.98,6.3-12.9,11.93-27.1.02-.05.04-.09.06-.14.37-.92.75-1.89,1.15-2.89,7.12-17.97,8.26-33.9,8.54-35.8.12-.83.29-1.73.48-2.68.01-.05.02-.1.03-.15.91-4.46,2.58-10.14,4.4-16.17,1.82-6.05,3.79-12.44,5.34-18.31.42-1.59,1.38-5.89,1.93-8.44.13-.32.25-.59.35-.77,2.49,11.03,5.61,31.8.6,43.81-1.22,5.78-4.07,12.29-7.21,18.89-1.06,2.21-2.14,4.61-3.24,6.97-4.01,6.84-7.98,13.89-8.45,15.74-.02.05-.04.1-.06.15-3.71,9.14-9.52,21.16-9.75,41.37v.15c-.04,4.28.16,8.91.69,13.97,1.31,12.52,10.98,39.25,14.59,52.02,8.02,28.39,12.56,45.42,13.15,55.43.77,12.92-.99,16.96-2.56,24.79-3.05,15.21-.82,28.37,2.8,40.42,6.69,22.28,13.71,32.19,14.43,43.89.17,2.91-2.02,4.13-.81,7.83.63,1.92,1.69,3.76.08,8.04-5.46,14.48-12.57,18.28-11.73,23.57.93,5.86,20.64,5.49,28.36,4.17,6.35-1.09,6.26-10.06,4.43-20.34-.37-2.08-.57-4.4-.42-7.96.07-1.75.55-3.8.8-6.28.23-2.28-.44-4.69-.8-6.59-.28-1.45-.55-2.61-.6-3.22-1.77-22.37-1.17-27.75,1.65-48.79,2.85-21.26-1.15-25.08-.65-38.08.3-7.71,2.64-15.58,3.27-23.92.79-10.47-.3-20.35-1.41-27.79-3.06-20.58-3.04-23.9-4.03-40.16-1.07-17.66,4.59-26.31,1.36-41.54.75.26,2.58.36,4.4.37,1.82.02,3.65-.11,4.4-.37-3.23,15.23,2.43,23.88,1.36,41.54-.99,16.26-.97,19.58-4.03,40.16-1.11,7.44-2.19,17.32-1.4,27.79.62,8.34,2.96,16.21,3.26,23.92.5,13-3.5,16.82-.64,38.08,2.82,21.04,3.41,26.42,1.64,48.79-.05.61-.33,1.77-.6,3.22-.36,1.9-1.03,4.31-.8,6.59.25,2.48.73,4.53.8,6.28.14,3.56-.05,5.88-.42,7.96-1.83,10.28-1.91,19.25,4.44,20.34,7.71,1.32,27.42,1.69,28.35-4.17.84-5.29-6.26-9.09-11.72-23.57-1.62-4.28-.55-6.12.08-8.04,1.21-3.7-.99-4.92-.81-7.83.71-11.7,7.73-21.61,14.43-43.89,3.62-12.05,5.84-25.21,2.8-40.42-1.57-7.83-3.33-11.87-2.57-24.79.59-10.01,5.13-27.04,13.16-55.43,3.61-12.77,13.28-39.5,14.59-52.02.52-5.06.72-9.69.68-13.97v-.15c-.22-20.21-6.04-32.23-9.75-41.37-.02-.05-.04-.1-.06-.15-.5-1.99-5.04-9.97-9.32-17.24-.78-1.67-1.54-3.35-2.29-4.93-3.19-6.73-6.04-13.45-7.29-19.43-4.84-11.72-2.18-31.54.28-42.64.14-.52.28-1.04.42-1.55.49,2.28,1.69,7.75,2.18,9.6,3.1,11.71,7.9,25.53,9.73,34.45,0,.05.02.09.03.14.2.95.37,1.88.49,2.71.28,1.88,1.39,17.41,8.27,35.08.39.99.76,1.96,1.14,2.89.11.29.22.57.33.84,5.59,14.24,7.94,19.14,11.95,27.13,2.92,5.83,5.02,10.49,5.36,14.25,0,.05,0,.09.02.14.01.11.03.23.04.33.09,1.65-1.69,5.15-2.33,7.35-1.99,6.81,2.05,12.52-2.55,21.41-.49.94,2.54,1.07,4.34-.81,2.27-2.37,2.94-8.84,3.01-7.65.45,7.9,1.84,9.72,2.69,16.17.63,4.71-1.12,7.31.25,9.22,1.05,1.46,1.41,1.33,3.98-1.27,1.81-1.82,2.96-3.52,4.12-4.88,2.27-2.64,3.49-5.24,3.69-10.69.15-4.11-.46-7.24-2-13.22-.64-2.48-1.34-3.91-2.26-10.41Z"/>
  </g>
</svg>