<?xml version="1.0" encoding="UTF-8"?>
<svg id="_레이어_2" data-name="레이어 2" xmlns="http://www.w3.org/2000/svg" viewBox="0 0 192.46 571.79">
  <defs>
    <style>
      .cls-1 {
        fill: #f2a7a9;
        stroke: #221714;
        stroke-miterlimit: 10;
      }
    </style>
  </defs>
  <g id="_레이어_1-2" data-name="레이어 1">
    <path class="cls-1" d="m4.21,336.4c1.16,1.36,2.31,3.06,4.12,4.88,2.57,2.6,2.93,2.72,3.98,1.26,1.37-1.9-.38-4.5.25-9.21.85-6.46,2.24-8.27,2.69-16.17.07-1.19.74,5.28,3.01,7.65,1.8,1.88,4.83,1.75,4.34.81-4.58-8.9-.56-14.6-2.55-21.41-.62-2.15-2.33-5.53-2.33-7.22,0-.09,0-.18.01-.28.01-.1.02-.2.04-.3.33-3.77,2.43-8.44,5.36-14.28,4-7.98,6.3-12.9,11.94-27.11.02-.04.04-.09.05-.13.37-.92.75-1.89,1.15-2.9,7.08-17.98,8.26-33.89,8.54-35.8.12-.82.29-1.73.48-2.67.01-.05.02-.1.03-.16.91-4.46,2.59-10.14,4.4-16.18,1.82-6.05,3.79-12.44,5.34-18.31.44-1.68,1.48-6.37,2.01-8.82.14-.04.26-.04.37,0,1.36,9.16.39,29.46-2.8,43.38-.75,3.25-2.39,12.95-3.6,20.54-1.81,11.32-1.59,14.03-3.05,21.12,0,0,0,0,0,0-3.17,9.1-7.93,21.13-8.09,41.22v.3c-.02,4.19.15,8.73.58,13.67,1.1,12.52,9.23,39.25,12.26,52.02,6.75,28.39,10.57,45.42,11.06,55.43.65,12.92-.83,16.96-2.15,24.79-2.56,15.21-.69,28.37,2.35,40.42,5.63,22.28,11.53,32.19,12.13,43.89.15,2.91-1.69,4.13-.68,7.83.53,1.92,1.43,3.76.07,8.04-4.59,14.48-10.56,18.28-9.86,23.57.79,5.86,17.35,5.49,23.84,4.17,5.34-1.09,5.27-10.06,3.73-20.34-.31-2.08-.47-4.4-.35-7.96.06-1.75.46-3.8.67-6.28.19-2.28-.37-4.69-.67-6.59-.23-1.45-.47-2.61-.51-3.22-1.43-22.38-.99-27.75,1.39-48.79,2.39-21.26-.97-25.08-.55-38.08.25-7.71,2.22-15.58,2.75-23.92.66-10.47-.25-20.35-1.18-27.8-2.58-20.57-2.56-23.89-3.39-40.15-.9-17.66,3.85-26.31,1.14-41.54.63.26,2.17.36,3.7.37,1.53,0,3.07-.11,3.7-.37-2.71,15.23,2.04,23.88,1.14,41.54-.83,16.26-.81,19.58-3.39,40.15-.93,7.45-1.84,17.33-1.18,27.8.53,8.34,2.5,16.21,2.75,23.92.42,13-2.94,16.82-.55,38.08,2.37,21.04,2.82,26.41,1.39,48.79-.04.61-.28,1.77-.51,3.22-.3,1.9-.86,4.31-.67,6.59.21,2.48.61,4.53.67,6.28.12,3.56-.04,5.88-.35,7.96-1.54,10.28-1.61,19.25,3.73,20.34,6.48,1.32,23.05,1.69,23.84-4.17.7-5.29-5.27-9.09-9.86-23.57-1.36-4.28-.46-6.12.07-8.04,1.01-3.7-.83-4.92-.68-7.83.6-11.7,6.5-21.61,12.13-43.89,3.04-12.05,4.91-25.21,2.35-40.42-1.32-7.83-2.8-11.87-2.16-24.79.5-10.01,4.32-27.04,11.07-55.43,3.03-12.77,11.16-39.5,12.26-52.02.43-4.94.6-9.48.58-13.67v-.3c-.16-20.09-4.92-32.12-8.09-41.22,0,0,0,0,0,0-1.46-7.04-1.24-9.58-3.02-20.77-1.23-7.69-2.86-17.53-3.63-20.9-3.12-13.74-4.28-33.36-3.01-42.61.14-.52.27-1.04.41-1.55.49,2.28,1.69,7.74,2.18,9.59,1.55,5.87,3.53,12.27,5.35,18.33,1.8,6,3.46,11.65,4.38,16.09,0,.05.02.09.03.14.2.97.37,1.91.5,2.75.27,1.85,1.4,16.98,7.99,34.35.37.98.75,1.95,1.12,2.89.21.53.41,1.04.61,1.52,5.65,14.25,7.96,19.17,11.96,27.17,2.92,5.81,5.01,10.46,5.35,14.22,0,.04,0,.09.02.13.02.12.03.25.04.36.09,1.65-1.69,5.15-2.33,7.35-1.99,6.81,2.03,12.51-2.55,21.41-.49.94,2.54,1.07,4.34-.81,2.27-2.37,2.94-8.84,3.01-7.65.45,7.9,1.84,9.71,2.69,16.17.63,4.71-1.12,7.31.25,9.21,1.05,1.46,1.41,1.33,3.98-1.26,1.81-1.83,2.96-3.52,4.12-4.88,2.27-2.64,3.49-5.25,3.69-10.69.15-4.12-.46-7.24-2-13.22-.6-2.32-1.25-3.72-2.09-9.32-.25-1.67-.37-3.03-.48-4.39-.15-1.14-.15-1.88-.15-2.36,0-.55,0-.99-.06-1.42-.4-3.05-1.95-4.02-2.82-9.76-1.64-10.84-2.73-18.9-4.27-30.18,0-.05-.01-.11-.02-.16-.31-2.3-.64-4.71-1-7.33-1.27-9.35-5.52-21.1-10-34.03-.01-.05-.03-.11-.05-.16-.26-.74-.51-1.48-.77-2.23-.46-1.34-1.43-11.48-1.81-16.82-.46-6.67-4.83-67.75-7.83-76.97-2.23-6.88-4.4-9.63-6.47-10.54v-.02s-1.69-.89-2.71-1.3c-.28-.11-.57-.22-.87-.32h.65l-36.01-16.03c-1.1-2.74-1.55-10.19-1.73-15.28,2.54-2.35,4.5-5.38,5.74-10.41.22-.9.48-1.98.73-3.12,2.78.98,3.51-3.3,4.02-4.54.57-1.37,1.32-1.5,2.08-4.5.51-2.01-.37-3.32-.01-4.61.24-.87.35-3.32-.75-4.16-.12-.09-.27-.14-.43-.19,1.65-6.26,2.7-16.5-.73-24.34-1.49-3.39-3.32-6.12-5.25-8.29-4.57-5.58-12.1-9.22-20.63-9.22s-16.06,3.64-20.63,9.22c-1.93,2.17-3.76,4.9-5.25,8.29-3.43,7.84-2.38,18.08-.73,24.34-.16.05-.31.09-.43.19-1.1.84-.99,3.29-.75,4.16.36,1.29-.52,2.6-.01,4.61.76,3,1.51,3.13,2.08,4.5.51,1.24,1.24,5.52,4.02,4.54.25,1.15.51,2.22.73,3.12,1.24,5.03,3.2,8.06,5.74,10.41-.18,5.09-.62,12.53-1.73,15.28l-36.01,16.03h.66c-.29.1-.59.21-.87.32-1.02.41-2.71,1.3-2.71,1.3v.02c-2.07.91-4.24,3.66-6.47,10.54-3,9.22-7.37,70.3-7.83,76.97-.38,5.34-1.35,15.48-1.81,16.82-.25.72-.49,1.44-.74,2.16-.02.05-.04.1-.05.15-4.49,12.96-8.75,24.74-10.03,34.11-.36,2.59-.68,4.98-.99,7.26,0,.05-.02.1-.02.15-1.54,11.32-2.64,19.39-4.28,30.26-.86,5.71-2.42,6.69-2.81,9.7,0,.04-.01.08-.02.12-.05.39-.05.79-.05,1.28v.16c0,.96,0,2.27-.3,4.5-.99,7.39-1.74,8.86-2.42,11.5-1.54,5.98-2.15,9.1-2,13.22.2,5.44,1.42,8.05,3.69,10.69Z"/>
  </g>
</svg>