<?xml version="1.0" encoding="UTF-8"?>
<svg id="_레이어_2" data-name="레이어 2" xmlns="http://www.w3.org/2000/svg" viewBox="0 0 192.46 572.15">
  <defs>
    <style>
      .cls-1 {
        fill: #f2a7a9;
        stroke: #221714;
        stroke-miterlimit: 10;
      }
    </style>
  </defs>
  <g id="_레이어_1-2" data-name="레이어 1">
    <path class="cls-1" d="m188.02,304.3c-.23-1.43-.4-2.81-.57-4.37-.23-1.71-.23-2.74-.23-3.46,0-.55,0-.99-.05-1.43-.38-3.05-1.96-4.01-2.82-9.76-1.64-10.84-2.74-18.89-4.27-30.17,0-.05-.01-.11-.02-.16-.31-2.3-.64-4.72-1-7.33-1.27-9.35-5.51-21.1-9.99-34.02-.02-.06-.04-.11-.06-.17-.26-.74-.51-1.48-.77-2.23-.46-1.34-1.44-11.48-1.81-16.82-.47-6.67-4.84-67.76-7.83-76.97-2.23-6.88-4.4-9.63-6.48-10.54v-.02s-1.68-.89-2.71-1.3c-.19-.07-.38-.14-.58-.21h.36l-35.93-16s-.04-.08-.05-.12c-1.11-2.7-1.56-10.21-1.74-15.34,2.54-2.35,4.5-5.38,5.73-10.41.22-.9.49-1.98.74-3.12,2.78.98,3.5-3.3,4.02-4.54.57-1.37,1.33-1.5,2.08-4.5.5-2.01-.37-3.32-.01-4.61.24-.87.35-3.32-.76-4.16-.11-.09-.26-.14-.42-.19,1.65-6.26,2.7-16.5-.73-24.34-1.49-3.39-3.32-6.13-5.26-8.29-4.56-5.58-12.1-9.22-20.63-9.22s-16.06,3.64-20.63,9.22c-1.93,2.16-3.76,4.9-5.25,8.29-3.43,7.84-2.38,18.08-.73,24.34-.16.05-.31.1-.43.19-1.1.84-.99,3.29-.75,4.16.36,1.29-.52,2.6-.01,4.61.76,3,1.51,3.13,2.08,4.5.51,1.24,1.24,5.52,4.02,4.54.25,1.14.51,2.22.73,3.12,1.24,5.03,3.2,8.06,5.74,10.41-.18,5.13-.63,12.64-1.75,15.34-.02.04-.03.07-.05.11l-35.94,16h.37c-.19.07-.39.14-.58.21-1.02.41-2.71,1.3-2.71,1.3v.02c-2.07.91-4.24,3.66-6.47,10.54-3,9.21-7.37,70.3-7.83,76.97-.38,5.34-1.35,15.48-1.81,16.82-.25.71-.48,1.42-.73,2.12-.02.05-.04.1-.05.15-4.49,12.98-8.76,24.77-10.04,34.15-.35,2.57-.68,4.96-.99,7.22,0,.05-.01.1-.02.14-1.55,11.34-2.64,19.42-4.29,30.29-.86,5.69-2.41,6.69-2.81,9.68,0,.04-.01.08-.01.12-.05.39-.06.79-.06,1.27,0,.04,0,.12,0,.16,0,.97,0,2.28-.3,4.53-.99,7.39-1.74,8.86-2.42,11.5-1.54,5.98-2.15,9.1-2,13.22.2,5.44,1.43,8.05,3.69,10.69,1.16,1.36,2.31,3.05,4.12,4.88,2.57,2.6,2.93,2.72,3.98,1.26,1.37-1.9-.38-4.5.25-9.21.85-6.46,2.24-8.27,2.69-16.17.07-1.19.74,5.28,3.01,7.65,1.8,1.88,4.83,1.75,4.34.8-4.58-8.89-.56-14.59-2.55-21.4-.62-2.12-2.29-5.44-2.33-7.15,0-.09,0-.18,0-.27.01-.12.03-.25.04-.37.33-3.77,2.43-8.44,5.36-14.28,4-7.99,6.3-12.9,11.94-27.12.02-.04.03-.08.05-.12.37-.93.75-1.89,1.15-2.9,7.08-17.98,8.27-33.89,8.54-35.8.12-.82.29-1.72.48-2.67.01-.05.02-.1.03-.16.91-4.46,2.59-10.15,4.4-16.18,1.82-6.05,3.79-12.44,5.34-18.3.47-1.76,1.59-6.84,2.1-9.21.14.23.26.5.39.77.24,7.27-1.28,26.79-4.7,42.8,0,0,0,0,0,0-.01.06-.02.12-.03.19-1.05,6.15-2.06,12.23-3.53,18.48-1,4.27-1.69,7.9-2.23,11.02-1.74,3.98-2.75,6.53-5.03,12.21-3.67,9.1-9.05,21.21-9.23,41.52-.04,4.27.15,8.91.65,13.96,1.24,12.52,10.39,39.26,13.81,52.03,7.6,28.39,11.9,45.41,12.46,55.42.72,12.92-.94,16.97-2.43,24.79-2.89,15.22-.78,28.37,2.65,40.42,6.34,22.29,12.99,32.19,13.66,43.89.17,2.92-1.91,4.14-.76,7.83.59,1.92,1.6,3.76.07,8.04-5.17,14.49-11.89,18.28-11.1,23.57.88,5.86,19.55,5.5,26.85,4.17,6.01-1.08,5.93-10.06,4.2-20.33-.35-2.08-.52-4.4-.39-7.96.06-1.76.51-3.81.75-6.28.22-2.28-.41-4.69-.75-6.6-.26-1.44-.53-2.6-.57-3.21-1.55-22.39-1.12-27.75,1.55-48.79,2.7-21.27-1.08-25.08-.61-38.09.29-7.7,2.5-15.58,3.09-23.92.75-10.46-.28-20.35-1.33-27.79-2.89-20.57-2.88-23.89-3.81-40.16-1.02-17.65,4.34-26.31,1.28-41.54.71.27,2.45.36,4.17.38,1.72.02,3.46-.11,4.17-.38-3.06,15.23,2.3,23.89,1.29,41.54-.94,16.27-.92,19.59-3.82,40.16-1.05,7.44-2.08,17.33-1.33,27.79.59,8.34,2.81,16.22,3.09,23.92.47,13.01-3.31,16.82-.61,38.09,2.67,21.04,3.28,26.42,1.56,48.79-.05.61-.31,1.77-.57,3.21-.34,1.91-.98,4.32-.76,6.6.24,2.47.69,4.52.76,6.28.13,3.56-.05,5.88-.4,7.96-1.73,10.27-1.81,19.25,4.2,20.33,7.31,1.33,25.97,1.69,26.85-4.17.79-5.29-5.93-9.08-11.1-23.57-1.53-4.28-.52-6.12.07-8.04,1.15-3.69-.93-4.91-.76-7.83.67-11.7,7.32-21.6,13.66-43.89,3.43-12.05,5.54-25.2,2.65-40.42-1.48-7.82-3.15-11.87-2.43-24.79.56-10.01,4.86-27.03,12.46-55.42,3.42-12.77,12.58-39.51,13.81-52.03.5-5.05.69-9.69.66-13.96-.19-20.31-5.57-32.42-9.24-41.52-2.34-5.8-3.33-8.33-5.15-12.48-.49-2.78-1.11-5.99-1.96-9.68-1.49-6.49-2.55-12.91-3.65-19.41,0-.06-.02-.11-.03-.16,0,0,0,0,0,0-3.38-15.97-5.02-35.24-4.83-42.57.14-.51.26-1.04.41-1.55.49,2.28,1.69,7.74,2.18,9.59,3.09,11.68,7.85,25.48,9.71,34.4,0,.04.02.08.03.12.21.98.38,1.93.51,2.79.27,1.83,1.36,16.56,7.72,33.63.36.97.73,1.94,1.11,2.89.3.77.59,1.5.87,2.21,5.61,14.3,7.97,19.2,11.98,27.2,2.91,5.8,5,10.44,5.35,14.2,0,.04,0,.08.01.12.01.13.04.28.04.4.09,1.65-1.69,5.15-2.33,7.35-1.99,6.81,2.03,12.51-2.56,21.4-.49.95,2.55,1.08,4.35-.8,2.27-2.37,2.94-8.84,3.01-7.65.45,7.9,1.84,9.71,2.69,16.17.62,4.71-1.12,7.31.25,9.21,1.05,1.46,1.41,1.34,3.98-1.26,1.81-1.83,2.96-3.52,4.12-4.88,2.26-2.64,3.48-5.25,3.68-10.69.15-4.12-.45-7.24-1.99-13.22-.56-2.17-1.17-3.54-1.92-8.24Z"/>
  </g>
</svg>