<?xml version="1.0" encoding="UTF-8"?>
<svg id="_레이어_2" data-name="레이어 2" xmlns="http://www.w3.org/2000/svg" viewBox="0 0 192.46 572.08">
  <defs>
    <style>
      .cls-1 {
        fill: #f2a7a9;
        stroke: #221714;
        stroke-miterlimit: 10;
      }
    </style>
  </defs>
  <g id="_레이어_1-2" data-name="레이어 1">
    <path class="cls-1" d="m4.21,336.33c1.16,1.36,2.31,3.06,4.12,4.88,2.57,2.6,2.93,2.73,3.98,1.27,1.37-1.91-.38-4.51.25-9.22.85-6.45,2.24-8.27,2.69-16.17.07-1.19.74,5.28,3.01,7.65,1.8,1.88,4.83,1.75,4.34.81-4.58-8.9-.56-14.6-2.55-21.41-.64-2.2-2.42-5.7-2.33-7.35,0-.09.02-.19.03-.29.01-.05.01-.1.02-.15.33-3.77,2.43-8.44,5.36-14.28,4-7.98,6.3-12.9,11.93-27.09l.06-.15c.37-.92.75-1.89,1.15-2.89,7.08-17.99,8.26-33.9,8.54-35.8.12-.83.29-1.74.48-2.68l.03-.15c1.85-8.92,6.64-22.76,9.74-34.48.49-1.85,1.69-7.32,2.18-9.6,3.6,12.83,6.58,35.08,1.13,44.08-.03.05-.06.1-.09.15-.02.05-.03.1-.04.15-1.38,5.57-3.2,10.98-6.99,18.67-5.89,11.94-7.66,12.51-12.21,22.7-.02.05-.04.09-.06.15-3.76,9.11-9.52,21.15-9.75,41.37v.15c-.04,4.27.16,8.91.69,13.96,1.31,12.52,10.98,39.26,14.59,52.03,8.02,28.38,12.56,45.41,13.15,55.42.77,12.92-.99,16.97-2.56,24.79-3.05,15.22-.82,28.37,2.8,40.42,6.69,22.28,13.71,32.19,14.43,43.89.17,2.92-2.02,4.14-.81,7.83.63,1.92,1.69,3.76.08,8.04-5.46,14.49-12.57,18.28-11.73,23.57.93,5.86,20.64,5.49,28.36,4.17,6.35-1.08,6.26-10.06,4.43-20.34-.37-2.07-.56-4.4-.42-7.95.08-1.76.55-3.81.8-6.28.23-2.28-.43-4.69-.8-6.6-.27-1.45-.55-2.61-.6-3.21-1.7-22.39-1.17-27.75,1.65-48.8,2.85-21.26-1.15-25.08-.65-38.08.3-7.7,2.64-15.58,3.27-23.92.79-10.47-.3-20.35-1.41-27.79-3.06-20.57-3.04-23.89-4.03-40.16-1.07-17.65,4.59-26.31,1.36-41.54.75.26,2.58.36,4.4.38,1.82.01,3.65-.12,4.4-.38-3.23,15.23,2.43,23.89,1.36,41.54-.99,16.27-.97,19.59-4.03,40.16-1.11,7.44-2.19,17.32-1.4,27.79.62,8.34,2.96,16.22,3.26,23.92.5,13-3.5,16.82-.64,38.08,2.82,21.05,3.35,26.41,1.64,48.8-.05.6-.33,1.76-.6,3.21-.36,1.91-1.03,4.32-.8,6.6.25,2.47.73,4.52.8,6.28.14,3.55-.05,5.88-.42,7.95-1.83,10.28-1.91,19.26,4.44,20.34,7.71,1.32,27.42,1.69,28.35-4.17.84-5.29-6.26-9.08-11.72-23.57-1.62-4.28-.55-6.12.08-8.04,1.21-3.69-.99-4.91-.81-7.83.71-11.7,7.73-21.61,14.43-43.89,3.62-12.05,5.84-25.2,2.8-40.42-1.57-7.82-3.33-11.87-2.57-24.79.59-10.01,5.13-27.04,13.16-55.42,3.61-12.77,13.28-39.51,14.59-52.03.52-5.05.72-9.69.68-13.96v-.15c-.22-20.22-5.99-32.26-9.75-41.37-.02-.06-.04-.1-.06-.15-4.55-10.19-6.32-10.76-12.21-22.7-3.79-7.69-5.61-13.1-6.99-18.67-.01-.05-.02-.1-.04-.15-.03-.05-.06-.1-.09-.15-5.46-9-2.48-31.25,1.13-44.08.49,2.28,1.69,7.75,2.18,9.6,3.1,11.72,7.89,25.56,9.74,34.48l.03.15c.19.94.36,1.85.48,2.68.28,1.9,1.46,17.81,8.54,35.8.4,1,.78,1.97,1.15,2.89l.06.15c5.63,14.19,7.93,19.11,11.93,27.09,2.93,5.84,5.03,10.51,5.36,14.28.01.05.01.1.02.15.01.1.03.2.03.29.09,1.65-1.69,5.15-2.33,7.35-1.99,6.81,2.03,12.51-2.55,21.41-.49.94,2.54,1.07,4.34-.81,2.27-2.37,2.94-8.84,3.01-7.65.45,7.9,1.84,9.72,2.69,16.17.63,4.71-1.12,7.31.25,9.22,1.05,1.46,1.41,1.33,3.98-1.27,1.81-1.82,2.96-3.52,4.12-4.88,2.27-2.64,3.49-5.24,3.69-10.69.15-4.11-.46-7.24-2-13.22-.68-2.63-1.43-4.1-2.42-11.5-.28-2.16-.3-3.46-.3-4.42v-.15c0-.55,0-.99-.06-1.42-.37-3.06-1.95-4.02-2.82-9.76-1.64-10.84-2.73-18.91-4.27-30.19,0-.05-.01-.1-.02-.15-.31-2.3-.64-4.71-1-7.33-1.27-9.35-5.52-21.11-10-34.04-.01-.05-.03-.1-.05-.15-.26-.74-.51-1.48-.77-2.23-.46-1.33-1.43-11.48-1.81-16.82-.46-6.66-4.83-67.75-7.83-76.97-2.23-6.87-4.4-9.63-6.47-10.54v-.02s-1.69-.88-2.71-1.29c-.39-.16-.8-.3-1.22-.44l-34.86-15.52c-.04-.09-.08-.17-.11-.26-1.12-2.7-1.57-10.21-1.75-15.34,2.54-2.35,4.5-5.38,5.74-10.41.22-.9.48-1.97.73-3.12,2.78.98,3.51-3.3,4.02-4.54.57-1.36,1.33-1.49,2.08-4.5.51-2-.37-3.32-.01-4.61.24-.87.35-3.32-.75-4.16-.12-.09-.27-.14-.43-.18,1.65-6.27,2.7-16.51-.73-24.35-1.49-3.39-3.32-6.12-5.25-8.29-4.57-5.57-12.1-9.22-20.63-9.22s-16.06,3.65-20.63,9.22c-1.93,2.17-3.76,4.9-5.25,8.29-3.43,7.84-2.38,18.08-.73,24.35-.16.04-.31.09-.43.18-1.1.84-.99,3.29-.75,4.16.36,1.29-.52,2.61-.01,4.61.75,3.01,1.51,3.14,2.08,4.5.51,1.24,1.24,5.52,4.02,4.54.25,1.15.51,2.22.73,3.12,1.24,5.03,3.2,8.06,5.74,10.41-.18,5.13-.63,12.64-1.75,15.34-.04.09-.08.17-.11.25l-34.89,15.53c-.41.14-.81.28-1.2.43-1.02.41-2.71,1.29-2.71,1.29v.02c-2.07.91-4.24,3.67-6.47,10.54-3,9.22-7.37,70.31-7.83,76.97-.38,5.34-1.35,15.49-1.81,16.82-.26.75-.51,1.49-.77,2.23-.02.05-.04.1-.05.15-4.48,12.93-8.73,24.69-10,34.04-.36,2.62-.69,5.03-1,7.33-.01.05-.02.1-.02.15-1.54,11.28-2.63,19.35-4.27,30.19-.87,5.74-2.45,6.7-2.82,9.76-.06.43-.06.87-.06,1.42v.15c0,.96-.02,2.26-.3,4.42-.99,7.4-1.74,8.87-2.42,11.5-1.54,5.98-2.15,9.11-2,13.22.2,5.45,1.42,8.05,3.69,10.69Z"/>
  </g>
</svg>