<?xml version="1.0" encoding="UTF-8"?>
<svg id="_레이어_2" data-name="레이어 2" xmlns="http://www.w3.org/2000/svg" viewBox="0 0 192.46 572.3">
  <defs>
    <style>
      .cls-1 {
        fill: #f2a7a9;
        stroke: #221714;
        stroke-miterlimit: 10;
      }
    </style>
  </defs>
  <g id="_레이어_1-2" data-name="레이어 1">
    <path class="cls-1" d="m4.21,336.44c1.16,1.36,2.31,3.05,4.12,4.88,2.57,2.6,2.93,2.72,3.98,1.26,1.37-1.9-.38-4.5.25-9.21.85-6.46,2.24-8.27,2.69-16.17.07-1.19.74,5.28,3.01,7.65,1.8,1.88,4.83,1.75,4.34.8-4.58-8.89-.56-14.59-2.55-21.4-.62-2.12-2.29-5.44-2.33-7.15,0-.09,0-.18,0-.27.01-.12.03-.25.04-.37.33-3.77,2.43-8.44,5.36-14.28,4-7.99,6.3-12.9,11.94-27.12.02-.04.03-.08.05-.12.37-.93.75-1.89,1.15-2.9,7.08-17.98,8.27-33.89,8.54-35.8.12-.82.29-1.72.48-2.67.01-.05.02-.1.03-.16.91-4.46,2.59-10.15,4.4-16.18,1.82-6.05,3.79-12.44,5.34-18.3.47-1.76,1.59-6.84,2.1-9.2.14.23.26.5.39.77.24,7.27-1.28,26.8-4.71,42.81-.01.06-.02.12-.03.19-1.05,6.16-2.22,12.24-3.69,18.48-.68,2.88-1.21,5.47-1.7,7.81-3.15,5.57-4.99,7.83-8.38,15.41-.02.05-.04.09-.06.15-3.76,9.11-9.52,21.15-9.75,41.37v.15c-.04,4.27.16,8.91.69,13.96,1.31,12.52,10.98,39.26,14.59,52.03,8.02,28.38,12.56,45.41,13.15,55.42.77,12.92-.99,16.97-2.56,24.79-3.05,15.22-.82,28.37,2.8,40.42,6.69,22.28,13.71,32.19,14.43,43.89.17,2.92-2.02,4.14-.81,7.83.63,1.92,1.69,3.76.08,8.04-5.46,14.49-12.57,18.28-11.73,23.57.93,5.86,20.64,5.49,28.36,4.17,6.35-1.08,6.26-10.06,4.43-20.34-.37-2.07-.57-4.4-.42-7.95.07-1.76.55-3.81.8-6.28.23-2.28-.44-4.69-.8-6.6-.28-1.45-.55-2.61-.6-3.21-1.78-22.38-1.17-27.75,1.65-48.8,2.85-21.26-1.15-25.08-.65-38.08.3-7.7,2.64-15.58,3.27-23.92.79-10.47-.3-20.35-1.41-27.79-3.06-20.57-3.04-23.89-4.03-40.16-1.07-17.65,4.59-26.31,1.36-41.54.75.26,2.58.37,4.4.38s3.65-.12,4.4-.38c-3.23,15.23,2.43,23.89,1.36,41.54-.99,16.27-.97,19.59-4.03,40.16-1.11,7.44-2.19,17.32-1.4,27.79.62,8.34,2.96,16.22,3.26,23.92.5,13-3.5,16.82-.64,38.08,2.82,21.05,3.43,26.42,1.64,48.8-.05.6-.33,1.76-.6,3.21-.36,1.91-1.03,4.32-.8,6.6.25,2.47.73,4.52.8,6.28.14,3.55-.05,5.88-.42,7.95-1.83,10.28-1.91,19.26,4.44,20.34,7.71,1.32,27.42,1.69,28.35-4.17.84-5.29-6.26-9.08-11.72-23.57-1.62-4.28-.55-6.12.08-8.04,1.21-3.69-.99-4.91-.81-7.83.71-11.7,7.73-21.61,14.43-43.89,3.62-12.05,5.84-25.2,2.8-40.42-1.57-7.82-3.33-11.87-2.57-24.79.59-10.01,5.13-27.04,13.16-55.42,3.61-12.77,13.28-39.51,14.59-52.03.52-5.05.72-9.69.68-13.96v-.15c-.22-20.22-5.99-32.26-9.75-41.37-.02-.06-.04-.1-.06-.15-3.44-7.71-5.29-9.91-8.54-15.71-.41-1.96-.85-4.11-1.39-6.44-1.49-6.48-2.71-12.92-3.81-19.43,0-.05-.02-.11-.03-.16-3.38-15.97-5.02-35.24-4.83-42.57.14-.51.26-1.04.41-1.55.49,2.28,1.69,7.74,2.18,9.59,3.09,11.68,7.85,25.48,9.71,34.4,0,.04.02.08.03.12.21.98.38,1.93.51,2.79.27,1.83,1.36,16.56,7.72,33.63.36.97.73,1.94,1.11,2.89.31.77.59,1.5.87,2.21,5.61,14.3,7.97,19.2,11.98,27.2,2.91,5.8,5,10.44,5.35,14.2,0,.04,0,.08.01.12.01.13.04.28.05.4.09,1.65-1.69,5.15-2.33,7.35-1.99,6.81,2.03,12.51-2.56,21.4-.49.95,2.55,1.08,4.35-.8,2.27-2.37,2.94-8.84,3.01-7.65.45,7.9,1.84,9.71,2.69,16.17.62,4.71-1.12,7.31.25,9.21,1.05,1.46,1.41,1.34,3.98-1.26,1.81-1.83,2.96-3.52,4.12-4.88,2.26-2.64,3.48-5.25,3.68-10.69.15-4.12-.45-7.24-1.99-13.22-.56-2.17-1.17-3.54-1.92-8.24-.23-1.43-.4-2.81-.57-4.37-.23-1.71-.23-2.74-.23-3.47,0-.55,0-.99-.05-1.43-.38-3.05-1.96-4.01-2.82-9.76-1.64-10.84-2.74-18.9-4.27-30.17,0-.05-.01-.11-.02-.16-.31-2.3-.64-4.72-1-7.33-1.27-9.35-5.51-21.1-9.99-34.02-.02-.06-.04-.11-.06-.17-.26-.74-.51-1.48-.77-2.23-.46-1.34-1.44-11.48-1.81-16.82-.47-6.67-4.84-67.76-7.83-76.97-2.23-6.88-4.4-9.63-6.48-10.54v-.02s-1.68-.89-2.71-1.3c-.12-.05-.25-.09-.38-.14h.16l-35.89-15.98c-.03-.07-.06-.14-.09-.21-1.11-2.7-1.56-10.21-1.74-15.34,2.54-2.35,4.5-5.38,5.73-10.41.22-.9.49-1.98.74-3.12,2.78.98,3.5-3.3,4.02-4.54.57-1.37,1.33-1.5,2.08-4.5.5-2.01-.37-3.32-.01-4.61.24-.87.35-3.32-.76-4.16-.11-.09-.26-.14-.42-.19,1.65-6.26,2.7-16.5-.73-24.34-1.49-3.39-3.32-6.13-5.26-8.29-4.56-5.58-12.1-9.22-20.63-9.22s-16.06,3.64-20.63,9.22c-1.93,2.16-3.76,4.9-5.25,8.29-3.43,7.84-2.38,18.08-.73,24.34-.16.05-.31.1-.43.19-1.1.83-.99,3.29-.75,4.16.36,1.29-.52,2.6-.01,4.61.76,3,1.51,3.13,2.08,4.5.51,1.24,1.24,5.52,4.02,4.54.25,1.14.51,2.22.73,3.12,1.24,5.03,3.2,8.06,5.74,10.41-.18,5.13-.63,12.64-1.75,15.34-.03.07-.06.13-.09.2l-35.9,15.98h.17c-.13.05-.26.09-.38.14-1.02.41-2.71,1.3-2.71,1.3v.02c-2.07.91-4.24,3.66-6.47,10.54-3,9.21-7.37,70.3-7.83,76.97-.38,5.34-1.35,15.48-1.81,16.82-.25.71-.48,1.42-.73,2.12-.02.05-.04.1-.05.15-4.49,12.97-8.76,24.77-10.04,34.15-.35,2.57-.68,4.96-.99,7.22,0,.05-.01.1-.02.14-1.55,11.34-2.64,19.42-4.29,30.3-.86,5.69-2.41,6.69-2.81,9.68,0,.04,0,.08-.01.12-.05.39-.06.79-.06,1.27,0,.04,0,.12,0,.16,0,.97,0,2.28-.3,4.53-.99,7.39-1.74,8.86-2.42,11.5-1.54,5.98-2.15,9.1-2,13.22.2,5.44,1.43,8.05,3.69,10.69Z"/>
  </g>
</svg>