<?xml version="1.0" encoding="UTF-8"?>
<svg id="_레이어_2" data-name="레이어 2" xmlns="http://www.w3.org/2000/svg" viewBox="0 0 192.46 572.41">
  <defs>
    <style>
      .cls-1 {
        fill: #f2a7a9;
        stroke: #221714;
        stroke-miterlimit: 10;
      }
    </style>
  </defs>
  <g id="_레이어_1-2" data-name="레이어 1">
    <path class="cls-1" d="m4.21,336.44c1.16,1.36,2.31,3.05,4.12,4.88,2.57,2.6,2.93,2.72,3.98,1.26,1.37-1.9-.38-4.5.25-9.21.85-6.46,2.24-8.27,2.69-16.17.07-1.19.74,5.28,3.01,7.65,1.8,1.88,4.83,1.75,4.34.8-4.58-8.89-.56-14.59-2.55-21.4-.64-2.2-2.42-5.7-2.33-7.35,0-.13.03-.27.05-.4,0-.04,0-.08.01-.12.35-3.76,2.44-8.4,5.35-14.2,4.01-8,6.31-12.92,11.98-27.2.28-.71.57-1.44.88-2.21.38-.96.75-1.93,1.11-2.9,6.35-17.07,7.45-31.8,7.72-33.63.12-.85.3-1.8.5-2.78,0-.04.02-.09.03-.13.93-4.44,2.58-10.09,4.38-16.09,1.82-6.05,3.79-12.45,5.34-18.31.49-1.85,1.69-7.31,2.18-9.59.14.51.27,1.03.41,1.55.18,7.31-1.47,26.54-4.81,42.53-.82,5.52-3.4,13.92-5.15,20.6-6.62,10.36-8.07,13.86-11.49,20.82-.08.18-.16.35-.23.54-.04.09-.08.18-.12.27-3.92,9.09-10.04,21.05-10.17,41.03,0,.1,0,.19-.01.29-.02,4.28.17,8.91.73,13.97,1.37,12.52,11.56,39.26,15.36,52.03,8.45,28.38,13.23,45.41,13.85,55.42.81,12.92-1.05,16.97-2.7,24.79-3.21,15.21-.86,28.37,2.95,40.42,7.05,22.28,14.45,32.19,15.2,43.89.18,2.91-2.14,4.14-.86,7.83.67,1.92,1.79,3.76.09,8.04-5.75,14.48-13.23,18.28-12.35,23.57.98,5.86,21.74,5.49,29.86,4.17,6.69-1.09,6.6-10.06,4.67-20.34-.39-2.07-.59-4.4-.44-7.96.08-1.75.57-3.8.84-6.28.24-2.28-.46-4.68-.84-6.59-.29-1.45-.58-2.61-.63-3.21-1.8-22.39-1.24-27.76,1.73-48.8,3-21.26-1.21-25.08-.68-38.08.32-7.7,2.78-15.58,3.44-23.92.83-10.47-.31-20.35-1.48-27.79-3.22-20.57-3.2-23.89-4.25-40.16-1.12-17.66,4.84-26.31,1.44-41.54.78.26,2.72.35,4.63.37,1.92.02,3.85-.11,4.63-.37-3.39,15.23,2.57,23.88,1.44,41.54-1.04,16.27-1.03,19.59-4.25,40.16-1.16,7.44-2.31,17.32-1.48,27.79.66,8.34,3.13,16.22,3.44,23.92.53,13-3.68,16.82-.68,38.08,2.97,21.04,3.53,26.41,1.73,48.8-.05.6-.34,1.76-.63,3.21-.38,1.91-1.08,4.31-.84,6.59.26,2.48.76,4.53.84,6.28.15,3.56-.05,5.89-.44,7.96-1.93,10.28-2.02,19.25,4.67,20.34,8.12,1.32,28.88,1.69,29.86-4.17.88-5.29-6.6-9.09-12.35-23.57-1.7-4.28-.57-6.12.09-8.04,1.27-3.69-1.04-4.92-.85-7.83.75-11.7,8.14-21.61,15.19-43.89,3.82-12.05,6.16-25.21,2.95-40.42-1.65-7.82-3.51-11.87-2.7-24.79.62-10.01,5.4-27.04,13.85-55.42,3.8-12.77,13.99-39.51,15.37-52.03.55-5.06.74-9.69.72-13.97,0-.1,0-.19-.01-.29-.13-20.13-6.43-32.08-10.26-41.23-.04-.1-.08-.19-.13-.29,0,0,0,0,0,0-.21-.43-.41-.85-.6-1.26-.74-1.5-1.45-3.21-2.43-5.2-2.15-4.4-4.26-7.94-8.59-14.67-1.75-6.69-4.33-15.08-5.15-20.6-3.4-16.08-4.94-35.65-4.71-42.92.13-.28.25-.54.39-.77.51,2.37,1.63,7.44,2.1,9.2,3.1,11.72,7.88,25.57,9.73,34.49.01.05.02.1.03.16.19.94.36,1.85.48,2.67.28,1.91,1.45,17.82,8.54,35.8.4,1.01.78,1.97,1.14,2.9.02.04.03.08.05.12,5.64,14.21,7.94,19.13,11.95,27.12,2.93,5.84,5.03,10.51,5.36,14.28.01.12.03.25.04.37,0,.09.01.18,0,.27-.04,1.71-1.71,5.04-2.33,7.15-1.99,6.81,2.03,12.51-2.56,21.4-.49.95,2.55,1.08,4.35-.8,2.27-2.37,2.94-8.84,3.01-7.65.45,7.9,1.84,9.71,2.69,16.17.62,4.71-1.12,7.31.25,9.21,1.05,1.46,1.41,1.34,3.98-1.26,1.81-1.83,2.96-3.52,4.12-4.88,2.26-2.64,3.48-5.25,3.68-10.69.15-4.12-.45-7.24-1.99-13.22-.69-2.64-1.44-4.11-2.42-11.5-.3-2.25-.31-3.56-.31-4.53v-.16c0-.48,0-.88-.05-1.27,0-.04,0-.08-.02-.12-.4-2.99-1.95-3.98-2.81-9.68-1.65-10.88-2.74-18.95-4.29-30.29,0-.05-.01-.1-.02-.14-.31-2.27-.63-4.65-.99-7.22-1.28-9.38-5.54-21.18-10.04-34.15-.02-.05-.03-.1-.05-.15-.25-.7-.48-1.41-.73-2.12-.46-1.34-1.44-11.48-1.81-16.82-.47-6.67-4.84-67.76-7.83-76.97-2.23-6.88-4.4-9.63-6.48-10.54v-.02s-1.68-.89-2.71-1.3c-.07-.03-.15-.05-.23-.08h0l-35.86-15.96c-.04-.09-.08-.18-.12-.28-1.11-2.7-1.56-10.21-1.74-15.34,2.54-2.35,4.5-5.38,5.73-10.41.22-.9.49-1.98.74-3.12,2.78.98,3.5-3.3,4.02-4.54.57-1.37,1.33-1.5,2.08-4.5.5-2.01-.37-3.32-.01-4.61.24-.87.35-3.32-.76-4.16-.11-.09-.26-.14-.42-.19,1.65-6.26,2.7-16.5-.73-24.34-1.49-3.39-3.32-6.13-5.26-8.29-4.56-5.58-12.1-9.22-20.63-9.22s-16.06,3.64-20.63,9.22c-1.93,2.16-3.76,4.9-5.25,8.29-3.43,7.84-2.38,18.08-.73,24.34-.16.05-.31.1-.43.19-1.1.83-.99,3.29-.75,4.16.36,1.29-.52,2.6-.01,4.61.76,3,1.51,3.13,2.08,4.5.51,1.24,1.24,5.52,4.02,4.54.25,1.14.51,2.22.73,3.12,1.24,5.03,3.2,8.06,5.74,10.41-.18,5.13-.63,12.64-1.75,15.34-.04.09-.08.18-.12.27l-35.87,15.97h.02c-.07.03-.15.05-.22.08-1.02.41-2.71,1.3-2.71,1.3v.02c-2.07.91-4.24,3.66-6.47,10.54-3,9.21-7.37,70.3-7.83,76.97-.38,5.34-1.35,15.48-1.81,16.82-.26.75-.51,1.49-.77,2.23-.02.06-.04.11-.06.17-4.48,12.92-8.72,24.67-9.99,34.02-.36,2.61-.69,5.03-1,7.33,0,.05-.02.11-.02.16-1.54,11.27-2.63,19.33-4.27,30.17-.87,5.75-2.43,6.71-2.82,9.76-.06.44-.06.88-.06,1.43,0,.73,0,1.76-.22,3.47-.18,1.55-.35,2.94-.57,4.37-.75,4.7-1.36,6.07-1.92,8.24-1.54,5.98-2.15,9.1-2,13.22.2,5.44,1.43,8.05,3.69,10.69Z"/>
  </g>
</svg>