<?xml version="1.0" encoding="UTF-8"?>
<svg id="_레이어_2" data-name="레이어 2" xmlns="http://www.w3.org/2000/svg" viewBox="0 0 203.66 571.79">
  <defs>
    <style>
      .cls-1 {
        fill: #f3a9aa;
        stroke: #231815;
        stroke-miterlimit: 10;
      }
    </style>
  </defs>
  <g id="_레이어_1-2" data-name="레이어 1">
    <path class="cls-1" d="m45.54,105.53c3.23-1.21,7.28-1.81,11.56-2.55,3.66-.64,11.81-1.41,15.4-2.8,5.33-2.05,9.72-4.61,12.37-11,1.11-2.7,1.56-10.2,1.75-15.33-2.54-2.35-4.51-5.38-5.74-10.4-.22-.9-.48-1.97-.74-3.12-2.78.98-3.5-3.3-4.02-4.54-.57-1.36-1.31-1.5-2.07-4.5-.51-2.01.37-3.32.01-4.61-.24-.87-.36-3.32.75-4.16.12-.09.26-.14.42-.18-1.65-6.26-2.7-16.5.74-24.33,1.48-3.39,3.32-6.12,5.25-8.29,4.57-5.57,12.09-9.21,20.61-9.22,8.52,0,16.04,3.64,20.61,9.22,1.93,2.16,3.77,4.9,5.25,8.29,3.44,7.84,2.38,18.07.74,24.33.15.05.3.09.42.18,1.11.84.99,3.29.75,4.16-.36,1.29.52,2.6.01,4.61-.76,3-1.5,3.13-2.07,4.5-.52,1.24-1.24,5.52-4.02,4.54-.26,1.14-.52,2.22-.74,3.12-1.23,5.03-3.2,8.06-5.74,10.4.18,5.13.63,12.63,1.75,15.33,2.64,6.4,7.04,8.96,12.37,11,3.59,1.39,11.73,2.16,15.4,2.8,4.28.75,8.33,1.34,11.56,2.55,1.08.4,2.87,1.29,2.87,1.29v.02c2.2.91,4.49,3.66,6.85,10.53,3.17,9.21,7.79,70.27,8.29,76.93.39,5.34,1.42,15.47,1.91,16.81.27.75.55,1.49.82,2.23,4.78,12.97,9.28,24.79,10.64,34.17.37,2.61.72,5.03,1.05,7.32,1.63,11.36,2.79,19.43,4.54,30.32.92,5.75,2.61,6.7,2.99,9.75.05.44.05.88.06,1.42,0,.97,0,2.29.32,4.57,1.04,7.38,1.84,8.86,2.56,11.49,1.63,5.98,2.27,9.09,2.11,13.21-.21,5.43-1.5,8.05-3.9,10.68-1.23,1.36-2.45,3.05-4.37,4.88-2.72,2.59-3.1,2.72-4.21,1.26-1.45-1.9.4-4.5-.26-9.21-.91-6.46-2.38-8.27-2.86-16.16-.07-1.19-.78,5.28-3.18,7.65-1.91,1.87-5.12,1.75-4.6.8,4.85-8.89.6-14.58,2.7-21.39.67-2.2,2.57-5.7,2.47-7.35,0-.14-.04-.3-.05-.44-.3-3.77-2.58-8.43-5.68-14.27-4.25-8.01-6.68-12.92-12.7-27.23-.39-.92-.79-1.88-1.21-2.89-7.5-17.97-8.74-33.87-9.04-35.78-.13-.86-.32-1.82-.54-2.82-1.96-8.92-7.02-22.76-10.31-34.47-.52-1.84-1.78-7.31-2.31-9.58-.15.51-.3,1.03-.44,1.55-1.43,9.11-2.34,27.37-.9,42.51,0,0,0,0,0,0,.99,5.27,2.34,12.18,3.65,20.07,1.37,8.24,3.17,16.49,3.82,22.14,0,.04.02.09.02.13.7,5.56,1.53,10.75,2.32,14.87,0,.03,0,.05-.02.07,1.61,6.81,2.94,15.07,2.99,25.56,0,.09,0,.2.01.3.01,4.28-.13,8.91-.54,13.95-1.03,12.51-8.64,39.24-11.48,52-6.32,28.37-9.89,45.4-10.36,55.39-.6,12.92.79,16.96,2.03,24.79,2.39,15.2.64,28.34-2.21,40.4-5.27,22.27-10.82,32.17-11.36,43.86-.14,2.92,1.58,4.14.64,7.82-.49,1.93-1.33,3.77-.06,8.05,4.3,14.47,9.88,18.26,9.22,23.55-.73,5.86-16.24,5.5-22.31,4.18-5-1.09-4.93-10.06-3.49-20.33.29-2.08.44-4.4.33-7.96-.06-1.76-.43-3.81-.63-6.28-.18-2.27.35-4.68.63-6.59.21-1.44.43-2.6.47-3.21,1.4-22.36.93-27.74-1.3-48.76-2.24-21.26.91-25.07.51-38.06-.23-7.71-2.07-15.57-2.57-23.91-.62-10.46.24-20.35,1.11-27.79,2.41-20.56,2.39-23.88,3.17-40.13.85-17.66-3.61-26.31-1.07-41.53-.59.27-2.03.38-3.46.38s-2.88-.11-3.47-.38c2.54,15.22-1.92,23.87-1.07,41.53.78,16.25.76,19.57,3.17,40.13.88,7.43,1.73,17.32,1.11,27.79-.49,8.34-2.34,16.2-2.57,23.91-.4,12.99,2.75,16.8.51,38.06-2.22,21.03-2.7,26.4-1.3,48.76.04.61.26,1.77.48,3.21.29,1.91.8,4.32.62,6.59-.2,2.47-.56,4.52-.62,6.28-.11,3.56.03,5.88.32,7.96,1.45,10.27,1.51,19.24-3.49,20.33-6.06,1.32-21.58,1.68-22.31-4.18-.66-5.29,4.93-9.08,9.22-23.55,1.28-4.28.44-6.12-.06-8.05-.95-3.68.78-4.9.64-7.82-.56-11.69-6.08-21.59-11.36-43.86-2.85-12.06-4.6-25.2-2.2-40.4,1.23-7.83,2.62-11.87,2.02-24.79-.47-9.99-4.04-27.02-10.35-55.39-2.85-12.76-10.45-39.49-11.48-52-.42-5.05-.56-9.67-.55-13.95,0-.1,0-.2.01-.3.05-10.08,1.28-18.11,2.81-24.77-.02-.03-.02-.06-.01-.09.84-4.6,1.76-10.38,2.52-16.51,0-.05.02-.1.02-.15.65-5.72,2.44-13.96,3.84-22.12,1.29-7.56,2.65-14.11,3.62-19.2h0c1.44-15.39.32-34.13-1.12-43.28-.12-.04-.25-.04-.39,0-.57,2.45-1.66,7.14-2.13,8.81-1.64,5.86-3.74,12.25-5.66,18.3-1.92,6.03-3.68,11.72-4.65,16.18-.22,1-.41,1.96-.54,2.82-.29,1.91-1.54,17.81-9.04,35.78-.42,1.01-.82,1.97-1.21,2.89-6.01,14.31-8.45,19.22-12.7,27.23-3.1,5.84-5.37,10.5-5.68,14.27-.01.15-.04.3-.05.44-.1,1.65,1.79,5.15,2.47,7.35,2.1,6.81-2.15,12.5,2.7,21.39.52.95-2.69,1.07-4.6-.8-2.4-2.37-3.11-8.84-3.18-7.65-.48,7.9-1.95,9.7-2.86,16.16-.66,4.71,1.19,7.31-.26,9.21-1.11,1.46-1.49,1.33-4.22-1.26-1.91-1.83-3.13-3.52-4.37-4.88-2.39-2.63-3.69-5.25-3.9-10.68-.15-4.12.49-7.24,2.12-13.21.72-2.64,1.52-4.11,2.56-11.49.32-2.28.31-3.6.32-4.57,0-.54,0-.99.06-1.42.37-3.05,2.07-4.01,2.99-9.75,1.75-10.88,2.91-18.96,4.54-30.32.33-2.29.68-4.71,1.06-7.32,1.36-9.39,5.89-21.19,10.64-34.17.27-.74.54-1.48.82-2.23.49-1.34,1.52-11.47,1.91-16.81.5-6.66,5.12-67.72,8.29-76.93,2.37-6.87,4.66-9.63,6.85-10.53v-.02s1.79-.89,2.87-1.29Z"/>
  </g>
</svg>