<?xml version="1.0" encoding="UTF-8"?>
<svg id="_레이어_2" data-name="레이어 2" xmlns="http://www.w3.org/2000/svg" viewBox="0 0 203.66 571.63">
  <defs>
    <style>
      .cls-1 {
        fill: #f3a9aa;
        stroke: #231815;
        stroke-miterlimit: 10;
      }
    </style>
  </defs>
  <g id="_레이어_1-2" data-name="레이어 1">
    <path class="cls-1" d="m201.03,312.36c-.72-2.64-1.52-4.11-2.56-11.49-.32-2.28-.32-3.6-.32-4.57,0-.55,0-.99-.06-1.43-.37-3.05-2.07-4.01-2.99-9.75-1.75-10.88-2.91-18.96-4.54-30.31-.33-2.3-.68-4.71-1.06-7.32-1.36-9.38-5.89-21.19-10.64-34.17-.27-.74-.55-1.48-.82-2.23-.49-1.34-1.52-11.47-1.91-16.81-.5-6.66-5.12-67.71-8.29-76.92-2.37-6.87-4.66-9.62-6.85-10.53v-.02s-1.79-.89-2.87-1.29c-3.23-1.22-7.28-1.81-11.56-2.56-3.66-.64-11.81-1.41-15.4-2.8-5.33-2.05-9.72-4.61-12.37-11-1.11-2.7-1.56-10.2-1.75-15.33,2.54-2.35,4.51-5.38,5.74-10.4.22-.9.48-1.97.74-3.12,2.78.98,3.5-3.3,4.02-4.54.57-1.36,1.31-1.49,2.07-4.5.5-2-.37-3.32-.01-4.61.24-.87.36-3.32-.75-4.16-.12-.09-.26-.14-.42-.18,1.65-6.26,2.7-16.5-.74-24.33-1.48-3.39-3.32-6.12-5.25-8.28-4.57-5.57-12.09-9.21-20.61-9.21-8.52,0-16.04,3.65-20.61,9.21-1.93,2.17-3.77,4.9-5.25,8.28-3.44,7.83-2.39,18.07-.74,24.33-.16.04-.3.09-.42.18-1.11.84-.99,3.29-.75,4.16.36,1.29-.51,2.6-.01,4.61.76,3,1.5,3.14,2.07,4.5.52,1.24,1.24,5.52,4.02,4.54.26,1.15.52,2.22.74,3.12,1.23,5.03,3.2,8.05,5.74,10.4-.19,5.13-.64,12.63-1.75,15.33-2.65,6.4-7.04,8.95-12.37,11-3.59,1.39-11.73,2.16-15.4,2.8-4.28.75-8.33,1.34-11.56,2.56-1.08.4-2.87,1.29-2.87,1.29v.02c-2.2.91-4.49,3.67-6.85,10.53-3.17,9.2-7.79,70.26-8.29,76.92-.39,5.34-1.42,15.47-1.91,16.81-.27.75-.55,1.49-.82,2.23-4.76,12.98-9.28,24.78-10.64,34.17-.38,2.61-.73,5.03-1.06,7.32-1.63,11.35-2.79,19.43-4.54,30.31-.92,5.75-2.61,6.7-2.99,9.75-.05.44-.05.88-.06,1.43,0,.97,0,2.29-.32,4.57-1.04,7.38-1.84,8.85-2.56,11.49-1.63,5.98-2.27,9.09-2.12,13.21.21,5.43,1.51,8.04,3.9,10.68,1.24,1.36,2.46,3.05,4.37,4.88,2.73,2.6,3.1,2.72,4.22,1.26,1.44-1.9-.4-4.5.26-9.2.91-6.46,2.38-8.26,2.86-16.16.07-1.19.78,5.28,3.18,7.64,1.91,1.88,5.12,1.75,4.6.8-4.85-8.88-.6-14.58-2.7-21.39-.68-2.2-2.57-5.7-2.47-7.34,0-.14.04-.29.05-.44.3-3.77,2.58-8.43,5.68-14.27,4.25-8.01,6.68-12.92,12.7-27.22.39-.93.79-1.89,1.21-2.9,7.5-17.97,8.75-33.87,9.04-35.78.13-.86.32-1.82.54-2.82.98-4.45,2.73-10.14,4.65-16.17,1.92-6.04,4.01-12.44,5.66-18.3.45-1.59,1.45-5.88,2.04-8.42.14-.32.27-.59.38-.77,2.64,11.02,5.93,29.8,5.21,43.66-1.08,5.29-2.92,11.75-4.71,19.47-1.54,6.58-3.45,13.05-4.68,18-.35,1.42-.65,2.72-.86,3.85,0,.05-.02.1-.03.15-1.11,5.31-2.49,10.79-3.66,16.36,0,.04-.01.07,0,.1-1.53,6.67-2.77,14.72-2.82,24.82,0,.1,0,.2-.01.3-.02,4.28.13,8.9.55,13.95,1.03,12.51,8.63,39.23,11.48,52,6.31,28.37,9.88,45.39,10.35,55.38.6,12.92-.79,16.96-2.02,24.78-2.4,15.2-.65,28.34,2.2,40.39,5.28,22.27,10.8,32.17,11.36,43.85.14,2.92-1.59,4.14-.64,7.82.5,1.93,1.34,3.77.06,8.05-4.3,14.47-9.88,18.26-9.22,23.54.73,5.86,16.25,5.5,22.31,4.18,5-1.09,4.94-10.06,3.49-20.33-.29-2.08-.43-4.4-.32-7.95.05-1.76.42-3.81.62-6.28.18-2.28-.33-4.69-.62-6.59-.22-1.44-.44-2.6-.48-3.21-1.4-22.36-.92-27.73,1.3-48.76,2.24-21.26-.91-25.06-.51-38.05.23-7.7,2.08-15.57,2.57-23.9.62-10.46-.23-20.35-1.11-27.78-2.41-20.56-2.39-23.87-3.17-40.12-.85-17.65,3.61-26.3,1.07-41.52.59.27,2.03.38,3.47.38s2.87-.11,3.46-.38c-2.54,15.22,1.92,23.87,1.07,41.52-.78,16.25-.76,19.57-3.17,40.12-.87,7.43-1.73,17.32-1.11,27.78.5,8.33,2.34,16.2,2.57,23.9.4,12.99-2.75,16.8-.51,38.05,2.23,21.03,2.7,26.4,1.3,48.76-.04.61-.26,1.77-.47,3.21-.28,1.91-.81,4.32-.63,6.59.2,2.47.57,4.52.63,6.28.11,3.56-.04,5.88-.33,7.95-1.44,10.27-1.51,19.24,3.49,20.33,6.07,1.32,21.58,1.68,22.31-4.18.66-5.29-4.93-9.07-9.22-23.54-1.27-4.28-.43-6.12.06-8.05.95-3.69-.78-4.9-.64-7.82.54-11.69,6.09-21.59,11.36-43.85,2.85-12.05,4.6-25.19,2.21-40.39-1.24-7.82-2.63-11.86-2.03-24.78.47-9.99,4.04-27.01,10.36-55.38,2.84-12.76,10.45-39.48,11.48-52,.41-5.05.55-9.67.54-13.95,0-.1,0-.2-.01-.3-.05-10.74-1.44-19.15-3.11-26.05,0-.02,0-.05,0-.07-1.11-4.95-2.36-9.89-3.37-14.73,0-.05-.02-.09-.03-.14-.23-1.25-.57-2.7-.98-4.3-1.23-4.87-3.09-11.17-4.55-17.57-1.81-7.88-3.63-14.53-4.72-19.91h0c-.72-13.5,2.26-31.55,4.87-42.51.15-.52.3-1.04.45-1.54.53,2.28,1.79,7.74,2.31,9.58,3.29,11.71,8.35,25.55,10.31,34.47.22,1,.41,1.96.54,2.82.3,1.91,1.54,17.81,9.04,35.78.42,1.01.82,1.97,1.21,2.9,6.01,14.3,8.45,19.22,12.7,27.22,3.1,5.84,5.37,10.5,5.68,14.27.01.15.04.3.05.44.1,1.65-1.79,5.15-2.47,7.34-2.1,6.81,2.15,12.5-2.7,21.39-.52.95,2.69,1.08,4.6-.8,2.4-2.37,3.11-8.83,3.18-7.64.48,7.89,1.95,9.7,2.86,16.16.66,4.71-1.18,7.3.26,9.2,1.11,1.46,1.49,1.34,4.21-1.26,1.91-1.83,3.13-3.52,4.37-4.88,2.39-2.64,3.69-5.25,3.9-10.68.15-4.12-.49-7.23-2.12-13.21Z"/>
  </g>
</svg>