<?xml version="1.0" encoding="UTF-8"?>
<svg id="_레이어_2" data-name="레이어 2" xmlns="http://www.w3.org/2000/svg" viewBox="0 0 203.67 571.33">
  <defs>
    <style>
      .cls-1 {
        fill: #f3a9aa;
        stroke: #231815;
        stroke-miterlimit: 10;
      }
    </style>
  </defs>
  <g id="_레이어_1-2" data-name="레이어 1">
    <path class="cls-1" d="m203.15,325.53c-.21,5.44-1.51,8.04-3.9,10.68-1.24,1.36-2.46,3.05-4.37,4.88-2.73,2.6-3.11,2.73-4.22,1.26-1.45-1.9.4-4.5-.26-9.2-.91-6.45-2.38-8.26-2.86-16.16-.07-1.19-.78,5.28-3.18,7.64-1.91,1.88-5.12,1.75-4.6.8,4.85-8.88.6-14.58,2.7-21.38.68-2.2,2.56-5.7,2.47-7.34-.01-.14-.04-.29-.05-.44-.35-3.77-2.58-8.43-5.68-14.27-4.25-8-6.68-12.92-12.7-27.22-.39-.93-.79-1.89-1.21-2.9-7.5-17.96-8.74-33.86-9.04-35.77-.13-.86-.32-1.82-.54-2.82-1.96-8.91-7.02-22.75-10.31-34.46-.52-1.84-1.78-7.3-2.31-9.58-3.83,12.89-9.3,31.7-9.3,44.04,1.2,5.49,4.49,11.34,8.29,18.6,6.42,12.24,10.08,20.96,10.79,22.59.07.15.12.27.12.29,3.35,9.07,8.43,21.04,8.64,41.05,0,.1.01.19.01.29v.15c.03,4.24-.15,8.81-.61,13.81-1.17,12.51-9.81,39.22-13.03,51.98-7.17,28.37-11.23,45.38-11.75,55.39-.68,12.91.89,16.95,2.29,24.77,2.72,15.2.74,28.35-2.5,40.39-5.98,22.26-12.25,32.16-12.89,43.85-.16,2.91,1.8,4.13.73,7.82-.57,1.92-1.52,3.76-.08,8.03,4.88,14.47,11.22,18.27,10.47,23.55-.83,5.86-18.43,5.49-25.32,4.17-5.68-1.09-5.6-10.05-3.96-20.32.33-2.08.5-4.4.37-7.95-.07-1.75-.49-3.8-.72-6.27-.2-2.28.4-4.69.72-6.58.24-1.45.49-2.61.54-3.22,1.52-22.36,1.05-27.73-1.48-48.75-2.54-21.24,1.03-25.06.58-38.05-.27-7.7-2.36-15.57-2.92-23.9-.7-10.46.27-20.33,1.26-27.77,2.73-20.56,2.72-23.88,3.6-40.13.96-17.65-4.1-26.29-1.21-41.51-.67.26-2.31.39-3.94.37-1.62,0-3.26-.11-3.93-.37,2.89,15.22-2.17,23.86-1.22,41.51.89,16.25.87,19.56,3.61,40.13.99,7.43,1.96,17.31,1.25,27.77-.56,8.33-2.65,16.2-2.91,23.9-.45,12.99,3.12,16.81.57,38.05-2.52,21.02-2.99,26.39-1.47,48.75.04.61.3,1.77.54,3.22.32,1.9.92,4.31.71,6.58-.22,2.48-.65,4.53-.71,6.27-.13,3.56.04,5.88.37,7.95,1.64,10.27,1.71,19.23-3.96,20.32-6.89,1.32-24.49,1.69-25.32-4.17-.75-5.29,5.59-9.08,10.46-23.55,1.45-4.28.5-6.12-.07-8.03-1.08-3.7.88-4.92.73-7.82-.64-11.69-6.91-21.59-12.89-43.85-3.24-12.04-5.23-25.19-2.5-40.39,1.4-7.82,2.97-11.86,2.29-24.77-.53-10-4.58-27.02-11.75-55.39-3.22-12.76-11.86-39.47-13.03-51.98-.46-5-.64-9.57-.61-13.81v-.15c0-.1.01-.19.01-.29.21-20,5.3-31.97,8.64-41.05,0-.02.05-.14.12-.29.71-1.63,4.37-10.35,10.79-22.59,3.81-7.26,7.09-13.12,8.29-18.6,0-12.34-5.47-31.15-9.29-44.04-.53,2.28-1.79,7.74-2.31,9.58-3.29,11.71-8.35,25.55-10.31,34.46-.22,1-.41,1.96-.54,2.82-.3,1.91-1.54,17.81-9.04,35.77-.42,1.01-.82,1.97-1.21,2.9-6.01,14.3-8.45,19.21-12.7,27.22-3.1,5.84-5.33,10.5-5.68,14.27-.01.15-.04.3-.05.44-.09,1.65,1.79,5.15,2.47,7.34,2.1,6.8-2.15,12.5,2.7,21.38.52.95-2.69,1.08-4.6-.8-2.4-2.37-3.11-8.83-3.18-7.64-.48,7.89-1.95,9.7-2.86,16.16-.66,4.71,1.19,7.3-.26,9.2-1.11,1.47-1.49,1.34-4.22-1.26-1.91-1.83-3.13-3.52-4.37-4.88-2.39-2.64-3.69-5.25-3.9-10.68-.15-4.12.49-7.23,2.12-13.21.72-2.64,1.52-4.11,2.56-11.49.32-2.28.32-3.6.32-4.57.01-.55.01-.99.06-1.43.4-3.05,2.07-4.01,2.99-9.75,1.75-10.87,2.91-18.95,4.54-30.31.33-2.3.68-4.72,1.06-7.32,1.36-9.38,5.88-21.18,10.64-34.16.27-.74.54-1.48.82-2.23.48-1.34,1.52-11.47,1.91-16.81.5-6.65,5.12-67.7,8.29-76.91,2.37-6.86,4.66-9.62,6.85-10.53v-.02s1.79-.89,2.87-1.29c3.23-1.22,7.27-1.85,11.56-2.56,3.66-.67,11.81-1.41,15.4-2.8,5.33-2.05,9.72-4.61,12.37-11,1.11-2.7,1.56-10.2,1.75-15.33-2.54-2.35-4.51-5.38-5.74-10.4-.22-.9-.48-1.97-.74-3.12-2.78.98-3.5-3.3-4.02-4.54-.57-1.36-1.32-1.49-2.07-4.5-.51-2,.36-3.32.01-4.61-.25-.87-.36-3.32.75-4.16.12-.09.26-.14.42-.18-1.65-6.26-2.7-16.5.74-24.33,1.48-3.39,3.32-6.11,5.25-8.28,4.57-5.57,12.09-9.21,20.61-9.21s16.05,3.65,20.61,9.21c1.93,2.17,3.77,4.9,5.25,8.28,3.44,7.83,2.39,18.07.74,24.33.16.04.3.09.42.18,1.11.84,1,3.29.75,4.16-.35,1.29.52,2.61.01,4.61-.75,3.01-1.5,3.14-2.07,4.5-.52,1.24-1.24,5.52-4.02,4.54-.26,1.15-.52,2.22-.74,3.12-1.23,5.03-3.2,8.05-5.74,10.4.19,5.13.64,12.63,1.75,15.33,2.65,6.39,7.04,8.95,12.37,11,3.59,1.39,11.74,2.13,15.4,2.8,4.29.71,8.33,1.34,11.56,2.56,1.08.4,2.87,1.29,2.87,1.29v.02c2.2.91,4.49,3.67,6.85,10.53,3.18,9.2,7.79,70.25,8.29,76.91.39,5.34,1.43,15.47,1.91,16.81.28.75.55,1.49.82,2.23,4.76,12.98,9.28,24.78,10.64,34.16.38,2.61.73,5.03,1.06,7.32,1.63,11.35,2.79,19.43,4.54,30.31.92,5.75,2.59,6.7,2.99,9.75.05.44.05.88.06,1.43,0,.97,0,2.29.32,4.57,1.04,7.38,1.84,8.85,2.56,11.49,1.63,5.98,2.27,9.09,2.12,13.21Z"/>
  </g>
</svg>