<?xml version="1.0" encoding="UTF-8"?>
<svg id="_레이어_2" data-name="레이어 2" xmlns="http://www.w3.org/2000/svg" viewBox="0 0 203.66 571.94">
  <defs>
    <style>
      .cls-1 {
        fill: #f3a9aa;
        stroke: #231815;
        stroke-miterlimit: 10;
      }
    </style>
  </defs>
  <g id="_레이어_1-2" data-name="레이어 1">
    <path class="cls-1" d="m45.54,105.54c3.23-1.21,7.28-1.81,11.56-2.55,3.66-.64,11.81-1.41,15.4-2.8,5.33-2.05,9.72-4.61,12.37-11.01,1.11-2.7,1.56-10.21,1.75-15.33-2.54-2.35-4.51-5.38-5.74-10.41-.22-.9-.48-1.98-.74-3.12-2.78.98-3.5-3.3-4.02-4.54-.57-1.37-1.31-1.5-2.07-4.5-.51-2.01.37-3.32.01-4.61-.24-.87-.36-3.32.75-4.16.12-.09.26-.14.42-.19-1.65-6.26-2.7-16.5.74-24.33,1.48-3.39,3.32-6.13,5.25-8.29,4.57-5.58,12.09-9.22,20.61-9.22s16.05,3.64,20.61,9.22c1.93,2.16,3.77,4.9,5.25,8.29,3.44,7.84,2.38,18.07.74,24.33.15.05.3.1.42.19,1.11.84.99,3.29.75,4.16-.36,1.29.52,2.6,0,4.61-.76,3-1.5,3.13-2.07,4.5-.52,1.24-1.24,5.52-4.02,4.54-.26,1.14-.52,2.22-.74,3.12-1.23,5.03-3.2,8.06-5.74,10.41.18,5.13.63,12.64,1.75,15.33,2.64,6.4,7.04,8.96,12.37,11.01,3.59,1.39,11.73,2.16,15.4,2.8,4.28.75,8.33,1.34,11.56,2.55,1.08.41,2.87,1.3,2.87,1.3v.02c2.2.91,4.49,3.66,6.85,10.54,3.17,9.21,7.79,70.28,8.29,76.94.39,5.34,1.42,15.47,1.91,16.81.27.75.54,1.49.82,2.23,4.8,12.97,9.28,24.79,10.64,34.18.37,2.61.72,5.03,1.05,7.32,1.64,11.36,2.8,19.43,4.54,30.33.92,5.75,2.61,6.7,2.99,9.76.05.44.05.88.05,1.42,0,.98,0,2.3.33,4.58,1.04,7.38,1.84,8.86,2.56,11.5,1.63,5.98,2.27,9.09,2.11,13.21-.21,5.43-1.51,8.04-3.9,10.68-1.23,1.36-2.45,3.06-4.37,4.89-2.72,2.59-3.1,2.72-4.21,1.26-1.45-1.9.4-4.5-.26-9.21-.91-6.46-2.38-8.27-2.86-16.16-.07-1.19-.78,5.28-3.18,7.65-1.91,1.87-5.12,1.75-4.6.8,4.85-8.89.6-14.58,2.71-21.39.67-2.2,2.57-5.7,2.47-7.35,0-.14-.04-.3-.05-.45-.3-3.77-2.58-8.43-5.68-14.27-4.25-8.01-6.68-12.93-12.7-27.24-.39-.92-.79-1.88-1.21-2.89-7.5-17.97-8.74-33.88-9.04-35.79-.14-.86-.33-1.82-.55-2.82-1.96-8.92-7.02-22.76-10.3-34.48-.52-1.85-1.79-7.31-2.31-9.59-.15.51-.29,1.04-.44,1.55-.24,7.26,1.17,25.69,3.07,42.51,0,0,0,.01,0,.02.89,5.14,2.21,12.05,3.54,19.67.71,4.04,1.31,7.9,1.75,11.53,2.04,3.67,3.29,6.32,4.57,9.51,0,0,0,0,0,0,.02.05.04.1.06.15.42,1.03.84,2.09,1.28,3.21,0,0,0,0,0,0,.02.04.03.08.05.12,3.42,8.66,7.95,20.04,8.22,37.94,0,.09,0,.2.01.3.01.91.02,1.84,0,2.78,0,.09,0,.19,0,.28-.04,3.42-.22,7.05-.58,10.94-.08.89-.2,1.85-.34,2.85-1.89,13.15-10.28,37.8-13.52,49.89-7.59,28.38-11.89,45.4-12.45,55.4-.72,12.92.95,16.96,2.43,24.79,2.89,15.2.78,28.34-2.65,40.4-6.33,22.27-12.98,32.17-13.65,43.86-.17,2.92,1.9,4.13.76,7.82-.6,1.93-1.6,3.78-.07,8.05,5.17,14.47,11.88,18.26,11.09,23.55-.88,5.86-19.52,5.5-26.83,4.18-6-1.09-5.92-10.06-4.2-20.33.35-2.08.53-4.4.4-7.96-.07-1.77-.52-3.81-.76-6.29-.22-2.27.42-4.68.76-6.59.26-1.44.52-2.6.57-3.21,1.72-22.36,1.11-27.74-1.56-48.77-2.7-21.26,1.08-25.07.61-38.07-.28-7.71-2.5-15.57-3.09-23.91-.75-10.47.28-20.36,1.33-27.79,2.9-20.56,2.88-23.88,3.82-40.13,1.01-17.66-4.35-26.31-1.29-41.53-.71.27-2.45.39-4.17.38-1.72-.01-3.46-.11-4.17-.38,3.06,15.22-2.3,23.87-1.28,41.53.93,16.25.92,19.57,3.81,40.13,1.05,7.43,2.08,17.32,1.33,27.79-.59,8.34-2.8,16.2-3.09,23.91-.47,12.99,3.31,16.8.61,38.07-2.67,21.03-3.09,26.39-1.55,48.77.04.61.31,1.77.57,3.21.34,1.91.97,4.32.75,6.59-.24,2.48-.68,4.52-.75,6.29-.13,3.56.04,5.88.39,7.96,1.73,10.27,1.81,19.24-4.2,20.33-7.29,1.32-25.95,1.68-26.83-4.18-.79-5.29,5.92-9.08,11.09-23.55,1.53-4.28.53-6.12-.07-8.05-1.14-3.69.93-4.9.76-7.82-.67-11.69-7.31-21.59-13.65-43.86-3.43-12.06-5.54-25.2-2.65-40.4,1.49-7.83,3.15-11.87,2.43-24.79-.56-10-4.86-27.02-12.45-55.4-3.42-12.77-12.56-39.49-13.8-52.01-.5-5.05-.67-9.68-.65-13.95,0-.1,0-.21.01-.3.11-20.13,5.67-32.12,9.21-41.2.02-.05.04-.1.06-.15,1.31-3.32,2.5-5.95,4.47-9.55.51-4.71,1.31-9.76,2.3-15.11,1.14-6.18,2.18-11.76,3.14-16.02.27-1.21.51-2.42.72-3.63,2.04-15.6,3.14-32.02,2.9-38.91-.15-.51-.29-1.04-.44-1.55-.23.33-.54,1-.86,1.74-.49,2.1-1.11,4.71-1.49,6.14-.31,1.17-.63,2.31-.93,3.33-1.43,4.9-3.11,10.07-4.69,15.04-1.91,6-3.69,11.7-4.73,16.23-.23,1.01-.43,1.97-.58,2.84-.1.54-.22,1.5-.39,2.79-.61,4.7-2.4,18.13-8.56,33.15-.39.94-.76,1.84-1.13,2.72-.42,1-.82,1.95-1.2,2.86-5.22,12.34-7.64,17.24-11.49,24.53-.41.77-.81,1.53-1.2,2.29-2.47,4.77-4.27,8.7-4.68,11.98-.02.15-.05.31-.07.45-.06.5.02,1.11.16,1.77.03.13.05.27.08.4.39,1.58,1.41,3.65,1.95,5.24.23.7.41,1.38.53,2.03,1.13,6.07-2,11.48,2.16,19.47.24.47-.14.78-.73.9-.65.13-2.15-.1-3.33-1.06-.39-.32-.75-.73-1.06-1.21-1.63-2.49-2.2-6.71-2.36-6.4-.08.14-.13.36-.17.82-.53,6.86-1.87,8.86-2.73,14.77-.06.41-.11.82-.14,1.22-.31,3.96,1.05,6.3-.05,8.06-.21.34-.42.6-.63.8-.8.72-1.42.33-3.52-1.65-.23-.22-.46-.44-.68-.67-1.56-1.57-2.64-3.02-3.72-4.22-.19-.21-.37-.41-.54-.62-2.11-2.46-3.27-5.05-3.49-10.05,0-.22-.02-.43-.02-.65-.08-3.87.56-6.95,2.1-12.62.04-.13.07-.27.11-.4.7-2.47,1.48-4.1,2.48-11.21.32-2.28.31-3.6.32-4.58,0-.54,0-.98.06-1.42.37-3.05,2.07-4.01,2.99-9.76,1.75-10.89,2.91-18.96,4.54-30.33.33-2.29.68-4.71,1.06-7.32,1.36-9.39,5.88-21.19,10.64-34.18.27-.74.54-1.48.82-2.23.49-1.34,1.52-11.48,1.91-16.81.5-6.66,5.12-67.73,8.29-76.94,2.37-6.87,4.66-9.63,6.85-10.54v-.02s1.79-.89,2.87-1.3Z"/>
  </g>
</svg>