<?xml version="1.0" encoding="UTF-8"?>
<svg id="_레이어_2" data-name="레이어 2" xmlns="http://www.w3.org/2000/svg" viewBox="0 0 203.66 572.09">
  <defs>
    <style>
      .cls-1 {
        fill: #f3a9aa;
        stroke: #231815;
        stroke-miterlimit: 10;
      }
    </style>
  </defs>
  <g id="_레이어_1-2" data-name="레이어 1">
    <path class="cls-1" d="m203.14,325.7c-.21,5.43-1.5,8.05-3.9,10.68-1.23,1.37-2.45,3.06-4.37,4.89-2.72,2.59-3.1,2.72-4.21,1.26-1.45-1.9.4-4.5-.26-9.21-.91-6.46-2.38-8.27-2.86-16.17-.07-1.19-.78,5.28-3.18,7.65-1.91,1.87-5.13,1.75-4.61.8,4.86-8.89.6-14.59,2.71-21.39.67-2.2,2.56-5.7,2.47-7.35-.01-.14-.04-.3-.05-.45-.36-3.77-2.58-8.43-5.68-14.27-4.26-8.02-6.68-12.93-12.7-27.24-.39-.92-.79-1.88-1.21-2.89-7.5-17.98-8.74-33.88-9.04-35.79-.14-.86-.33-1.82-.55-2.82-1.96-8.92-7.01-22.76-10.3-34.48-.52-1.85-1.79-7.31-2.31-9.59-.15.51-.29,1.04-.43,1.55.94,5.41,4.16,24.08,7.03,42.52,1.18,7.54,1.6,20.33,1.78,32.14,1.96,3.58,3.16,6.2,4.45,9.52h-.01l.06.15c3.55,9.08,8.98,21.07,9.22,41.21,0,.09.01.2.01.3.03,4.28-.16,8.91-.66,13.96-1.23,12.52-10.38,39.25-13.8,52.02-7.59,28.38-11.89,45.41-12.45,55.41-.72,12.92.95,16.97,2.43,24.79,2.89,15.21.78,28.34-2.65,40.41-6.33,22.27-12.98,32.17-13.65,43.87-.17,2.92,1.91,4.14.76,7.82-.59,1.94-1.6,3.78-.07,8.06,5.17,14.48,11.88,18.27,11.09,23.55-.88,5.86-19.52,5.5-26.83,4.18-6-1.09-5.92-10.07-4.2-20.33.35-2.08.53-4.4.4-7.96-.07-1.77-.52-3.81-.76-6.29-.22-2.27.42-4.68.76-6.59.26-1.44.52-2.6.57-3.21,1.61-22.37,1.11-27.74-1.56-48.78-2.7-21.26,1.08-25.07.61-38.07-.28-7.71-2.5-15.58-3.09-23.91-.75-10.47.28-20.36,1.33-27.79,2.9-20.56,2.88-23.88,3.82-40.14,1.01-17.67-4.35-26.31-1.29-41.54-.71.27-2.45.38-4.17.38-1.72-.02-3.46-.11-4.17-.38,3.06,15.23-2.3,23.87-1.28,41.54.93,16.26.92,19.57,3.81,40.14,1.05,7.43,2.08,17.33,1.33,27.79-.59,8.34-2.8,16.21-3.09,23.91-.47,13,3.31,16.81.61,38.07-2.67,21.03-3.17,26.4-1.55,48.78.04.61.31,1.77.57,3.21.34,1.91.97,4.32.75,6.59-.24,2.48-.69,4.52-.75,6.29-.14,3.56.04,5.88.39,7.96,1.73,10.27,1.81,19.24-4.2,20.33-7.29,1.32-25.95,1.68-26.83-4.18-.79-5.29,5.92-9.08,11.09-23.55,1.53-4.28.52-6.12-.07-8.06-1.15-3.68.93-4.9.76-7.82-.67-11.7-7.31-21.59-13.65-43.87-3.43-12.07-5.54-25.2-2.65-40.41,1.49-7.83,3.15-11.88,2.43-24.79-.56-10-4.86-27.02-12.45-55.41-3.42-12.77-12.56-39.5-13.8-52.02-.5-5.05-.69-9.68-.65-13.96,0-.1.01-.21.01-.3.23-20.13,5.67-32.13,9.21-41.21.02-.05.04-.1.06-.15,1.29-3.32,2.5-5.94,4.46-9.53.18-11.8.59-24.58,1.77-32.13,2.88-18.44,6.1-37.11,7.04-42.52-.15-.51-.28-1.04-.43-1.55-.52,2.28-1.79,7.74-2.31,9.59-1.64,5.86-3.74,12.25-5.66,18.3-1.92,6.04-3.68,11.73-4.66,16.19-.22,1-.41,1.96-.54,2.82-.3,1.91-1.54,17.82-9.04,35.79-.42,1.01-.82,1.97-1.21,2.89-6.01,14.32-8.45,19.22-12.7,27.24-3.1,5.84-5.33,10.5-5.68,14.27-.01.15-.04.31-.05.45-.09,1.65,1.79,5.15,2.47,7.35,2.1,6.81-2.15,12.51,2.7,21.39.52.95-2.69,1.07-4.6-.8-2.4-2.37-3.11-8.84-3.18-7.65-.48,7.9-1.95,9.71-2.86,16.17-.66,4.71,1.19,7.31-.26,9.21-1.11,1.46-1.49,1.33-4.22-1.26-1.91-1.83-3.13-3.52-4.37-4.89-2.39-2.63-3.69-5.25-3.9-10.68-.15-4.13.49-7.24,2.12-13.22.72-2.64,1.52-4.12,2.56-11.5.32-2.28.32-3.6.32-4.58.01-.54.01-.98.06-1.42.4-3.05,2.07-4.01,2.99-9.76,1.75-10.9,2.91-18.97,4.54-30.33.33-2.29.68-4.71,1.06-7.32,1.36-9.39,5.88-21.19,10.64-34.18.27-.74.54-1.48.82-2.23.48-1.34,1.52-11.48,1.91-16.82.5-6.67,5.13-67.74,8.29-76.95,2.37-6.88,4.66-9.63,6.85-10.54v-.02s1.79-.89,2.87-1.3c3.23-1.21,7.27-1.84,11.56-2.55,3.66-.67,11.81-1.41,15.4-2.8,5.33-2.05,9.72-4.61,12.37-11.01,1.11-2.7,1.56-10.21,1.75-15.34-2.54-2.35-4.51-5.38-5.74-10.41-.22-.9-.48-1.98-.74-3.12-2.78.98-3.5-3.3-4.02-4.54-.57-1.37-1.32-1.5-2.07-4.5-.51-2.01.36-3.32.01-4.61-.25-.87-.36-3.32.75-4.16.12-.09.26-.14.42-.19-1.65-6.26-2.7-16.5.74-24.33,1.48-3.39,3.32-6.13,5.25-8.29,4.57-5.58,12.09-9.22,20.61-9.22s16.05,3.64,20.61,9.22c1.93,2.16,3.77,4.9,5.25,8.29,3.44,7.84,2.38,18.08.74,24.33.15.05.3.1.42.19,1.11.84.99,3.29.75,4.16-.36,1.29.52,2.6,0,4.61-.75,3-1.51,3.13-2.07,4.5-.52,1.24-1.24,5.52-4.02,4.54-.26,1.14-.52,2.22-.74,3.12-1.23,5.03-3.2,8.06-5.74,10.41.18,5.13.63,12.64,1.75,15.34,2.64,6.4,7.03,8.96,12.37,11.01,3.59,1.39,11.74,2.13,15.4,2.8,4.29.71,8.33,1.34,11.56,2.55,1.08.41,2.87,1.3,2.87,1.3v.02c2.2.91,4.49,3.66,6.85,10.54,3.17,9.21,7.79,70.28,8.29,76.95.39,5.34,1.42,15.48,1.91,16.82.27.75.54,1.49.82,2.23,4.76,12.99,9.28,24.79,10.64,34.18.37,2.61.72,5.03,1.05,7.32,1.64,11.37,2.8,19.43,4.55,30.33.92,5.75,2.59,6.71,2.99,9.76.05.44.05.88.05,1.42,0,.98.01,2.3.33,4.58,1.04,7.38,1.84,8.86,2.56,11.5,1.63,5.98,2.27,9.09,2.11,13.22Z"/>
  </g>
</svg>