<?xml version="1.0" encoding="UTF-8"?>
<svg id="_레이어_2" data-name="레이어 2" xmlns="http://www.w3.org/2000/svg" viewBox="0 0 203.66 571.79">
  <defs>
    <style>
      .cls-1 {
        fill: #f3a9aa;
        stroke: #231815;
        stroke-miterlimit: 10;
      }
    </style>
  </defs>
  <g id="_레이어_1-2" data-name="레이어 1">
    <path class="cls-1" d="m45.54,105.53c3.23-1.21,7.28-1.81,11.56-2.55,3.66-.64,11.81-1.41,15.4-2.8,5.33-2.05,9.72-4.61,12.37-11,1.11-2.7,1.56-10.2,1.75-15.33-2.54-2.35-4.51-5.38-5.74-10.4-.22-.9-.48-1.97-.74-3.12-2.78.98-3.5-3.3-4.02-4.54-.57-1.36-1.31-1.5-2.07-4.5-.51-2.01.37-3.32.01-4.61-.24-.87-.36-3.32.75-4.16.12-.09.26-.14.42-.18-1.65-6.26-2.7-16.5.74-24.33,1.48-3.39,3.32-6.12,5.25-8.29,4.57-5.57,12.09-9.22,20.61-9.22s16.05,3.64,20.61,9.22c1.93,2.16,3.77,4.9,5.25,8.29,3.44,7.84,2.38,18.07.74,24.33.16.05.3.09.42.18,1.11.84.99,3.29.75,4.16-.36,1.29.51,2.6,0,4.61-.76,3-1.5,3.13-2.07,4.5-.52,1.24-1.24,5.52-4.02,4.54-.26,1.14-.52,2.22-.74,3.12-1.23,5.03-3.2,8.06-5.74,10.4.18,5.13.63,12.63,1.75,15.33,2.64,6.4,7.04,8.96,12.37,11,3.59,1.39,11.73,2.16,15.4,2.8,4.28.75,8.33,1.34,11.56,2.55,1.08.4,2.87,1.29,2.87,1.29v.02c2.2.91,4.49,3.66,6.85,10.53,3.17,9.21,7.79,70.27,8.29,76.93.39,5.34,1.42,15.47,1.91,16.81.27.75.55,1.49.82,2.23,4.79,12.97,9.28,24.79,10.64,34.17.37,2.61.72,5.03,1.05,7.32,1.63,11.36,2.79,19.43,4.54,30.32.92,5.75,2.61,6.7,2.99,9.75.05.44.05.88.05,1.42,0,.97,0,2.29.32,4.57,1.04,7.38,1.84,8.86,2.56,11.49,1.63,5.98,2.27,9.09,2.11,13.21-.21,5.43-1.5,8.05-3.9,10.68-1.23,1.36-2.45,3.05-4.37,4.88-2.72,2.59-3.1,2.72-4.21,1.26-1.45-1.9.4-4.5-.26-9.21-.91-6.46-2.38-8.27-2.86-16.16-.07-1.19-.78,5.28-3.18,7.65-1.91,1.87-5.12,1.75-4.6.8,4.85-8.89.6-14.58,2.7-21.39.67-2.2,2.57-5.7,2.47-7.35,0-.14-.04-.3-.05-.44-.3-3.77-2.58-8.43-5.68-14.27-4.25-8.01-6.68-12.92-12.7-27.23-.39-.92-.79-1.88-1.21-2.89-7.5-17.97-8.74-33.87-9.04-35.78-.14-.86-.32-1.82-.54-2.82-1.96-8.92-7.02-22.76-10.31-34.47-.52-1.84-1.78-7.31-2.31-9.58-.15.51-.3,1.03-.44,1.55-1.43,9.11-2.04,27.34-.9,42.51,0,0,0,.01,0,.02,1,5.25,3.25,11.73,5.58,19.13,1.31,4.16,2.4,7.82,3.21,11.16,2.11,3.77,3.43,6.43,4.69,9.49,0,0,0,0,0,0,.02.05.04.1.06.15.43,1.04.86,2.1,1.3,3.22,0,0,0,0,0,0,.02.04.03.09.05.13,3.4,8.64,8.1,19.97,8.53,37.98,0,.09,0,.2.01.3.02.91.03,1.84.03,2.79,0,.1,0,.19,0,.29-.02,3.43-.18,7.07-.52,10.98-.08.91-.19,1.87-.31,2.87-1.67,12.94-10.32,38.27-13.61,50.59-7.59,28.38-11.89,45.4-12.45,55.39-.72,12.92.95,16.96,2.43,24.79,2.89,15.2.78,28.34-2.65,40.4-6.33,22.27-12.98,32.17-13.65,43.86-.17,2.92,1.9,4.13.76,7.82-.6,1.93-1.6,3.77-.07,8.05,5.17,14.47,11.88,18.26,11.09,23.55-.88,5.86-19.52,5.5-26.83,4.18-6-1.09-5.92-10.06-4.2-20.33.35-2.08.53-4.4.4-7.96-.07-1.76-.52-3.81-.76-6.28-.22-2.27.42-4.68.76-6.59.26-1.44.52-2.6.57-3.21,1.72-22.36,1.11-27.74-1.56-48.76-2.7-21.26,1.08-25.07.61-38.06-.28-7.71-2.5-15.57-3.09-23.91-.75-10.46.28-20.35,1.33-27.79,2.9-20.56,2.88-23.88,3.82-40.13,1.01-17.66-4.35-26.31-1.29-41.53-.71.27-2.45.39-4.17.38-1.72-.01-3.46-.11-4.17-.38,3.06,15.22-2.3,23.87-1.28,41.53.93,16.25.92,19.57,3.81,40.13,1.05,7.43,2.08,17.32,1.33,27.79-.59,8.34-2.8,16.2-3.09,23.91-.47,12.99,3.31,16.8.61,38.06-2.67,21.03-3.09,26.39-1.55,48.76.04.61.31,1.77.57,3.21.34,1.91.97,4.32.75,6.59-.24,2.47-.68,4.52-.75,6.28-.13,3.56.04,5.88.39,7.96,1.73,10.27,1.81,19.24-4.2,20.33-7.29,1.32-25.95,1.68-26.83-4.18-.79-5.29,5.92-9.08,11.09-23.55,1.53-4.28.53-6.12-.07-8.05-1.14-3.69.93-4.9.76-7.82-.67-11.69-7.31-21.59-13.65-43.86-3.43-12.06-5.54-25.2-2.65-40.4,1.49-7.83,3.15-11.87,2.43-24.79-.56-9.99-4.86-27.02-12.45-55.39-3.42-12.76-12.56-39.49-13.8-52-.5-5.05-.67-9.67-.65-13.95,0-.1,0-.2.01-.3.11-20.13,5.67-32.12,9.21-41.2.02-.05.04-.1.06-.15,1.31-3.33,2.51-5.96,4.48-9.58.94-4.24,2.36-8.95,4.19-14.63,1.92-5.93,3.66-11.21,4.92-15.52.35-1.21.64-2.4.87-3.6,1.36-14.01.7-30.22-.67-38.95-.15-.52-.29-1.04-.44-1.56-.27-.17-.59-.12-.91,0-.44,1.87-1.05,4.46-1.48,6.16-.32,1.25-.64,2.43-.91,3.35-1.41,4.89-3.09,10.08-4.68,15.09-1.9,5.97-3.69,11.67-4.8,16.27-.24,1.01-.45,1.98-.62,2.87-.14.69-.28,1.65-.44,2.8-.5,3.74-2.08,17.6-8.42,33.29-.35.87-.7,1.72-1.05,2.55-.42,1-.82,1.95-1.21,2.87-5.29,12.52-7.74,17.54-11.49,24.66-.4.76-.8,1.52-1.2,2.29-2.48,4.75-4.32,8.68-4.87,11.98-.03.15-.06.31-.08.46-.08.55-.06,1.15.01,1.79.02.14.02.28.04.41.22,1.45,1.25,3.57,1.87,5.28.26.7.46,1.39.6,2.02,1.4,6.18-1.88,11.58,2.07,19.57.24.48.05.86-.22,1.13-.32.32-1.93.27-3.3-.66-.42-.29-.82-.66-1.16-1.12-1.62-2.16-2.28-6.05-2.51-6.44-.14-.23-.2-.27-.24.17-.51,7.03-1.83,9.05-2.71,14.83-.06.4-.11.81-.15,1.21-.39,3.96.93,6.35.03,8.12-.17.34-.36.62-.57.85-.87.92-1.42.67-3.52-1.3-.23-.21-.46-.44-.69-.67-1.58-1.56-2.68-3.01-3.75-4.23-.19-.21-.37-.42-.55-.62-2.17-2.48-3.37-5.04-3.61-10.04-.01-.22-.02-.43-.02-.65-.1-3.92.53-7,2.07-12.67.04-.14.07-.27.11-.41.71-2.53,1.49-4.1,2.5-11.3.32-2.28.31-3.6.32-4.57,0-.54,0-.99.06-1.42.37-3.05,2.07-4.01,2.99-9.75,1.75-10.88,2.91-18.96,4.54-30.32.33-2.29.68-4.71,1.06-7.32,1.36-9.39,5.88-21.19,10.64-34.17.27-.74.54-1.48.82-2.23.49-1.34,1.52-11.47,1.91-16.81.5-6.66,5.12-67.72,8.29-76.93,2.37-6.87,4.66-9.62,6.85-10.53v-.02s1.79-.89,2.87-1.29Z"/>
  </g>
</svg>