<?xml version="1.0" encoding="UTF-8"?>
<svg id="_레이어_2" data-name="레이어 2" xmlns="http://www.w3.org/2000/svg" viewBox="0 0 203.66 571.86">
  <defs>
    <style>
      .cls-1 {
        fill: #f3a9aa;
        stroke: #231815;
        stroke-miterlimit: 10;
      }
    </style>
  </defs>
  <g id="_레이어_1-2" data-name="레이어 1">
    <path class="cls-1" d="m45.54,105.53c3.23-1.21,7.28-1.81,11.56-2.55,3.66-.64,11.81-1.41,15.4-2.8,5.33-2.05,9.72-4.61,12.37-11,1.11-2.7,1.56-10.2,1.75-15.33-2.54-2.35-4.51-5.38-5.74-10.4-.22-.9-.48-1.97-.74-3.12-2.78.98-3.5-3.3-4.02-4.54-.57-1.36-1.31-1.5-2.07-4.5-.51-2.01.37-3.32.01-4.61-.24-.87-.36-3.32.75-4.16.12-.09.26-.14.42-.18-1.65-6.26-2.7-16.5.74-24.33,1.48-3.39,3.32-6.12,5.25-8.29,4.57-5.57,12.09-9.22,20.61-9.22s16.05,3.64,20.61,9.22c1.93,2.16,3.77,4.9,5.25,8.29,3.44,7.84,2.38,18.07.74,24.33.15.05.3.09.42.18,1.11.84.99,3.29.75,4.16-.36,1.29.52,2.6.01,4.61-.76,3-1.5,3.13-2.07,4.5-.52,1.24-1.24,5.52-4.02,4.54-.26,1.14-.52,2.22-.74,3.12-1.23,5.03-3.2,8.06-5.74,10.4.18,5.13.63,12.63,1.75,15.33,2.64,6.4,7.04,8.96,12.37,11,3.59,1.39,11.73,2.16,15.4,2.8,4.28.75,8.33,1.34,11.56,2.55,1.08.4,2.87,1.29,2.87,1.29v.02c2.2.91,4.49,3.66,6.85,10.53,3.17,9.21,7.79,70.27,8.29,76.93.39,5.34,1.42,15.47,1.91,16.81.27.75.55,1.49.82,2.23,4.79,12.97,9.28,24.79,10.64,34.17.37,2.61.72,5.03,1.05,7.32,1.63,11.36,2.79,19.43,4.54,30.32.92,5.75,2.61,6.7,2.99,9.75.05.44.05.88.06,1.42,0,.97,0,2.29.32,4.57,1.04,7.38,1.84,8.86,2.56,11.49,1.63,5.98,2.27,9.09,2.11,13.21-.21,5.43-1.5,8.05-3.9,10.68-1.23,1.36-2.45,3.05-4.37,4.88-2.72,2.59-3.1,2.72-4.21,1.26-1.45-1.9.4-4.5-.26-9.21-.91-6.46-2.38-8.27-2.86-16.16-.07-1.19-.78,5.28-3.18,7.65-1.91,1.87-5.12,1.75-4.6.8,4.85-8.89.6-14.58,2.7-21.39.67-2.2,2.57-5.7,2.47-7.35,0-.14-.04-.3-.05-.44-.3-3.77-2.58-8.43-5.68-14.27-4.25-8.01-6.68-12.92-12.7-27.23-.39-.92-.79-1.88-1.21-2.89-7.5-17.97-8.74-33.87-9.04-35.78-.13-.86-.32-1.82-.54-2.82-1.96-8.92-7.02-22.76-10.31-34.47-.52-1.84-1.78-7.31-2.31-9.58-.15.51-.3,1.03-.44,1.55-1.43,9.11-2.04,27.34-.9,42.51,0,0,0,.01,0,.02,1.01,5.37,3.49,12.65,6.1,20,.83,2.35,1.62,4.61,2.3,6.79,4.05,5.93,6.44,10.05,7.85,12.87.03.05.05.11.08.16.63,1.31,1.19,2.52,1.68,3.65.02.04.03.09.05.13,3.52,8.59,8.37,19.81,8.9,37.51,0,.05,0,.25,0,.3.03,1.06.04,2.15.04,3.26,0,.05,0,.24,0,.29-.02,3.29-.18,6.79-.52,10.52-.1,1.05-.23,2.15-.39,3.3-1.78,12.6-10.31,36.54-13.98,49.15-.25.85-.48,1.66-.7,2.45-7.81,27.64-12.22,44.31-12.8,54.17-.76,12.91,1,16.96,2.57,24.78,3.04,15.21.82,28.35-2.8,40.4-6.69,22.28-13.71,32.17-14.42,43.87-.18,2.92,2.02,4.14.81,7.83-.63,1.92-1.7,3.76-.08,8.04,5.46,14.48,12.55,18.27,11.71,23.56-.93,5.86-20.62,5.5-28.33,4.17-6.34-1.08-6.26-10.05-4.44-20.32.37-2.08.56-4.4.42-7.96-.07-1.76-.55-3.81-.8-6.28-.23-2.28.44-4.69.8-6.6.27-1.44.55-2.6.6-3.21,1.77-22.36,1.17-27.74-1.65-48.76-2.85-21.26,1.15-25.07.65-38.07-.3-7.7-2.64-15.57-3.26-23.91-.79-10.45.29-20.34,1.4-27.78,3.06-20.56,3.04-23.88,4.03-40.14,1.07-17.64-4.59-26.3-1.36-41.52-.75.27-2.58.39-4.4.38-1.82-.01-3.65-.11-4.4-.38,3.23,15.22-2.43,23.88-1.36,41.52.99,16.26.97,19.58,4.03,40.14,1.11,7.44,2.19,17.32,1.41,27.78-.63,8.34-2.97,16.21-3.27,23.91-.5,13,3.5,16.81.65,38.07-2.82,21.03-3.41,26.4-1.65,48.76.05.61.33,1.77.6,3.21.36,1.91,1.03,4.32.8,6.6-.25,2.47-.72,4.52-.8,6.28-.15,3.56.05,5.88.42,7.96,1.83,10.26,1.92,19.24-4.43,20.32-7.71,1.33-27.41,1.69-28.34-4.17-.84-5.29,6.26-9.08,11.72-23.56,1.61-4.28.55-6.12-.08-8.04-1.21-3.69.98-4.91.81-7.83-.72-11.69-7.73-21.59-14.42-43.87-3.63-12.04-5.85-25.19-2.8-40.4,1.57-7.82,3.33-11.86,2.56-24.78-.59-10-5.13-27.02-13.14-55.39-3.61-12.76-13.28-39.49-14.58-52-.53-5.05-.73-9.68-.69-13.95v-.3c.26-20.11,6.05-32.09,9.74-41.2.02-.05.04-.1.06-.15,1.15-2.59,3.38-6.7,7.6-13,.97-3.36,2.22-6.92,3.59-10.69,2.09-5.76,3.98-11.38,5.33-15.83.42-1.41.77-2.8,1.03-4.15,1.35-13.83.71-29.76-.65-38.43-.15-.52-.29-1.05-.44-1.56-.31-.21-.67-.14-1.04,0-.41,1.75-.96,4.09-1.37,5.69-.36,1.41-.73,2.78-1.03,3.81-1.38,4.75-3,9.78-4.55,14.65-1.9,5.96-3.7,11.66-4.81,16.28-.26,1.08-.49,2.12-.67,3.07-.14.69-.28,1.65-.44,2.8-.5,3.74-2.08,17.6-8.42,33.29-.35.87-.7,1.72-1.05,2.55-.42,1-.82,1.95-1.21,2.87-5.29,12.52-7.74,17.54-11.49,24.66-.4.76-.8,1.52-1.2,2.29-2.48,4.75-4.32,8.68-4.87,11.98-.03.15-.06.31-.08.46-.08.55-.06,1.15.01,1.79.02.14.02.28.04.41.22,1.45,1.25,3.57,1.87,5.28.26.7.46,1.39.6,2.02,1.4,6.18-1.88,11.58,2.07,19.57.24.48.05.86-.22,1.13-.32.32-1.93.27-3.3-.66-.42-.29-.82-.66-1.16-1.12-1.62-2.16-2.28-6.05-2.51-6.44-.14-.23-.2-.27-.24.17-.51,7.03-1.83,9.05-2.71,14.83-.06.4-.11.81-.15,1.21-.39,3.96.93,6.35.03,8.12-.17.34-.36.62-.57.85-.87.92-1.42.67-3.52-1.3-.23-.21-.46-.44-.69-.67-1.58-1.56-2.68-3.01-3.75-4.23-.19-.21-.37-.42-.55-.62-2.17-2.48-3.37-5.04-3.61-10.04-.01-.22-.02-.43-.02-.65-.1-3.92.53-6.99,2.07-12.67.04-.14.07-.27.11-.41.71-2.53,1.49-4.1,2.5-11.3.32-2.28.31-3.6.32-4.57,0-.54,0-.99.06-1.42.37-3.05,2.07-4.01,2.99-9.75,1.75-10.88,2.91-18.96,4.54-30.32.33-2.29.68-4.71,1.06-7.32,1.36-9.39,5.89-21.19,10.64-34.17.27-.74.54-1.48.82-2.23.49-1.34,1.52-11.47,1.91-16.81.5-6.66,5.12-67.72,8.29-76.93,2.37-6.87,4.66-9.62,6.85-10.53v-.02s1.79-.89,2.87-1.29Z"/>
  </g>
</svg>