<?xml version="1.0" encoding="UTF-8"?>
<svg id="_레이어_2" data-name="레이어 2" xmlns="http://www.w3.org/2000/svg" viewBox="0 0 203.66 571.74">
  <defs>
    <style>
      .cls-1 {
        fill: #f3a9aa;
        stroke: #231815;
        stroke-miterlimit: 10;
      }
    </style>
  </defs>
  <g id="_레이어_1-2" data-name="레이어 1">
    <path class="cls-1" d="m45.54,105.52c3.23-1.22,7.28-1.81,11.56-2.56,3.66-.64,11.81-1.41,15.4-2.8,5.33-2.05,9.72-4.61,12.37-11,1.11-2.7,1.56-10.2,1.75-15.33-2.54-2.35-4.51-5.38-5.74-10.4-.22-.9-.48-1.97-.74-3.12-2.78.98-3.5-3.3-4.02-4.54-.57-1.36-1.31-1.49-2.07-4.5-.5-2,.37-3.32.01-4.61-.24-.87-.36-3.32.75-4.16.12-.09.26-.14.42-.18-1.65-6.26-2.7-16.5.74-24.33,1.48-3.39,3.32-6.12,5.25-8.28,4.57-5.57,12.09-9.21,20.6-9.21s16.05,3.65,20.61,9.21c1.93,2.17,3.77,4.9,5.25,8.28,3.44,7.83,2.39,18.07.74,24.33.16.04.3.09.42.18,1.11.84.99,3.29.75,4.16-.36,1.29.51,2.6.01,4.61-.76,3-1.5,3.14-2.07,4.5-.52,1.24-1.24,5.52-4.02,4.54-.26,1.15-.52,2.22-.74,3.12-1.23,5.03-3.2,8.05-5.74,10.4.19,5.13.64,12.63,1.75,15.33,2.65,6.4,7.04,8.95,12.37,11,3.59,1.39,11.73,2.16,15.4,2.8,4.28.75,8.33,1.34,11.56,2.56,1.08.4,2.87,1.29,2.87,1.29v.02c2.2.91,4.49,3.66,6.85,10.53,3.17,9.2,7.79,70.26,8.29,76.92.39,5.34,1.42,15.47,1.91,16.81.27.75.55,1.49.82,2.23,4.76,12.98,9.28,24.78,10.64,34.17.38,2.61.73,5.03,1.06,7.32,1.63,11.35,2.79,19.43,4.54,30.31.92,5.75,2.61,6.7,2.99,9.75.05.44.05.88.06,1.43,0,.97,0,2.29.32,4.57,1.04,7.38,1.84,8.85,2.56,11.49,1.63,5.98,2.27,9.09,2.12,13.21-.21,5.43-1.51,8.04-3.9,10.68-1.24,1.36-2.46,3.05-4.37,4.88-2.73,2.6-3.1,2.72-4.21,1.26-1.44-1.9.4-4.5-.26-9.2-.91-6.46-2.38-8.26-2.86-16.16-.07-1.19-.78,5.28-3.18,7.65-1.91,1.88-5.12,1.75-4.6.8,4.85-8.88.6-14.58,2.7-21.39.68-2.2,2.57-5.7,2.47-7.35,0-.14-.04-.29-.05-.44-.3-3.77-2.58-8.43-5.68-14.27-4.25-8.01-6.68-12.92-12.7-27.22-.39-.93-.79-1.89-1.21-2.9-7.5-17.97-8.74-33.87-9.04-35.78-.13-.86-.32-1.82-.54-2.82-1.96-8.91-7.02-22.75-10.31-34.47-.52-1.84-1.78-7.31-2.31-9.58-.15.51-.3,1.03-.45,1.55-2.61,10.96-5.39,28.99-4.87,42.5,0,0,0,.01,0,.02,1.11,5.43,4.66,12.43,8.39,19.35,1.23,2.29,2.36,4.43,3.36,6.46,3.98,5.76,6.46,9.9,8.01,12.84.03.06.06.11.09.17.72,1.38,1.29,2.58,1.75,3.64.02.05.04.09.06.14,3.49,8.57,8.59,19.72,9.27,37.56,0,.07,0,.22.01.3.04,1.07.06,2.16.06,3.28,0,.02,0,.27,0,.29,0,3.3-.13,6.81-.45,10.56-.09,1.07-.21,2.18-.35,3.33-1.5,12.18-10.07,36.3-13.92,49.34-.25.86-.49,1.67-.71,2.45-7.92,28.01-12.39,44.84-12.98,54.77-.76,12.91,1,16.96,2.57,24.77,3.04,15.21.82,28.35-2.8,40.39-6.69,22.28-13.71,32.17-14.42,43.86-.18,2.92,2.02,4.14.81,7.82-.63,1.92-1.7,3.76-.08,8.03,5.46,14.48,12.55,18.27,11.71,23.55-.93,5.86-20.62,5.5-28.33,4.17-6.34-1.08-6.26-10.05-4.44-20.32.37-2.08.56-4.4.42-7.95-.07-1.76-.55-3.81-.8-6.28-.23-2.28.44-4.69.8-6.6.27-1.44.55-2.6.6-3.21,1.77-22.36,1.17-27.73-1.65-48.76-2.85-21.26,1.15-25.06.65-38.06-.3-7.69-2.64-15.57-3.26-23.9-.79-10.45.29-20.34,1.4-27.77,3.06-20.56,3.04-23.87,4.03-40.13,1.07-17.64-4.59-26.29-1.36-41.51-.75.27-2.58.39-4.4.38-1.82-.01-3.65-.11-4.4-.38,3.23,15.22-2.43,23.87-1.36,41.51.99,16.26.97,19.58,4.03,40.13,1.11,7.43,2.19,17.32,1.41,27.77-.63,8.33-2.97,16.21-3.27,23.9-.5,13,3.5,16.81.65,38.06-2.82,21.03-3.42,26.4-1.65,48.76.05.61.33,1.77.6,3.21.36,1.91,1.03,4.32.8,6.6-.25,2.47-.72,4.52-.8,6.28-.15,3.56.05,5.88.42,7.95,1.83,10.26,1.92,19.24-4.43,20.32-7.71,1.33-27.41,1.69-28.34-4.17-.84-5.29,6.26-9.07,11.72-23.55,1.61-4.28.55-6.12-.08-8.03-1.21-3.69.98-4.91.81-7.82-.72-11.69-7.73-21.59-14.42-43.86-3.63-12.04-5.85-25.18-2.8-40.39,1.57-7.81,3.33-11.86,2.56-24.77-.59-10-5.13-27.01-13.14-55.38-3.61-12.76-13.28-39.48-14.58-52-.53-5.05-.73-9.68-.69-13.95v-.3c.26-20.11,6.05-32.09,9.74-41.19.02-.05.04-.1.06-.15,1.16-2.59,3.39-6.72,7.63-13.04,1.42-3.07,3.19-6.44,5.21-10.18,2.9-5.35,5.62-10.72,7.3-15.23.53-1.42.94-2.79,1.21-4.12.67-12.26-1.69-27.98-4.16-38.49-.15-.52-.3-1.05-.45-1.56-.35-.79-.73-1.41-1.1-1.97-.36,1.52-.9,3.86-1.35,5.71-.37,1.51-.73,2.92-1,3.83-1.35,4.74-2.97,9.8-4.54,14.71-1.89,5.92-3.71,11.63-4.89,16.32-.28,1.13-.53,2.2-.74,3.2-.18.85-.35,1.81-.49,2.81-.39,2.79-1.76,17.06-8.29,33.43-.32.8-.64,1.59-.97,2.37-.42,1.01-.82,1.96-1.21,2.89-5.35,12.7-7.84,17.84-11.49,24.79-.4.75-.8,1.52-1.21,2.3-2.49,4.72-4.37,8.66-5.07,11.98-.03.16-.07.31-.1.46-.11.59-.16,1.2-.14,1.81,0,.14-.01.29,0,.43.07,1.33,1.08,3.48,1.8,5.31.27.71.51,1.4.68,2.01,1.68,6.29-1.77,11.69,1.99,19.68.24.5.26.97.28,1.36.03.55-1.7.63-3.26-.26-.45-.26-.89-.6-1.27-1.03-1.59-1.83-2.33-5.4-2.66-6.49-.19-.61-.27-.9-.3-.47-.48,7.21-1.8,9.25-2.69,14.89-.06.39-.12.8-.17,1.21-.48,3.97.8,6.4.11,8.19-.13.34-.3.63-.52.9-.94,1.12-1.42,1.01-3.52-.95-.22-.21-.45-.43-.7-.66-1.6-1.56-2.71-3.01-3.78-4.24-.19-.21-.37-.42-.55-.62-2.23-2.51-3.48-5.04-3.74-10.03-.01-.22-.02-.43-.03-.65-.13-3.97.49-7.04,2.03-12.72.04-.14.08-.28.12-.42.71-2.58,1.5-4.1,2.53-11.4.32-2.28.31-3.6.32-4.57,0-.55,0-.99.06-1.43.37-3.05,2.07-4.01,2.99-9.75,1.75-10.88,2.91-18.96,4.54-30.31.33-2.3.68-4.71,1.06-7.32,1.36-9.38,5.89-21.19,10.64-34.17.27-.74.54-1.48.82-2.23.49-1.34,1.52-11.47,1.91-16.81.5-6.66,5.12-67.71,8.29-76.92,2.37-6.87,4.66-9.62,6.85-10.53v-.02s1.79-.89,2.87-1.29Z"/>
  </g>
</svg>