<?xml version="1.0" encoding="UTF-8"?>
<svg id="_레이어_2" data-name="레이어 2" xmlns="http://www.w3.org/2000/svg" viewBox="0 0 203.66 571.48">
  <defs>
    <style>
      .cls-1 {
        fill: #f3a9aa;
        stroke: #231815;
        stroke-miterlimit: 10;
      }
    </style>
  </defs>
  <g id="_레이어_1-2" data-name="레이어 1">
    <path class="cls-1" d="m203.14,325.53c-.21,5.44-1.51,8.04-3.9,10.68-1.24,1.36-2.46,3.05-4.37,4.88-2.73,2.6-3.11,2.73-4.22,1.26-1.45-1.9.4-4.5-.26-9.2-.91-6.45-2.38-8.26-2.86-16.16-.07-1.19-.78,5.28-3.18,7.64-1.91,1.88-5.12,1.75-4.6.8,4.85-8.88.6-14.58,2.7-21.38.68-2.2,2.56-5.7,2.47-7.34-.01-.14-.04-.29-.05-.44-.35-3.77-2.58-8.43-5.68-14.27-4.25-8-6.68-12.92-12.7-27.22-.39-.93-.79-1.89-1.21-2.9-7.5-17.96-8.74-33.86-9.04-35.77-.13-.86-.32-1.82-.54-2.82-1.96-8.91-7.02-22.75-10.31-34.46-.52-1.84-1.78-7.3-2.31-9.58-3.83,12.89-9.69,32.71-7.3,44.04,1.25,5.53,2.97,14.97,4.82,20.74,3.27,10.22,6.26,20.69,6.27,20.74,2.97,9.13,7.51,21.19,7.67,41.49.03,4.28-.13,8.9-.54,13.95-1.03,12.51-8.64,39.23-11.48,51.99-6.32,28.37-9.89,45.37-10.36,55.38-.6,12.92.79,16.96,2.03,24.78,2.39,15.2.64,28.34-2.21,40.39-5.27,22.26-10.79,32.16-11.36,43.84-.13,2.92,1.59,4.14.64,7.82-.49,1.93-1.33,3.76-.06,8.04,4.3,14.47,9.88,18.25,9.22,23.54-.73,5.86-16.24,5.5-22.31,4.18-5-1.09-4.93-10.06-3.49-20.32.29-2.08.44-4.4.33-7.95-.06-1.76-.43-3.81-.63-6.27-.18-2.28.34-4.69.63-6.59.21-1.44.43-2.6.47-3.21,1.34-22.36.93-27.73-1.3-48.75-2.24-21.25.91-25.06.51-38.05-.23-7.7-2.07-15.57-2.57-23.91-.62-10.45.24-20.33,1.11-27.77,2.41-20.55,2.39-23.87,3.17-40.12.85-17.65-3.61-26.3-1.07-41.52-.59.27-2.03.39-3.46.38-1.44.01-2.88-.11-3.47-.38,2.54,15.22-1.92,23.87-1.07,41.52.78,16.25.76,19.56,3.17,40.12.88,7.43,1.73,17.32,1.11,27.77-.49,8.34-2.34,16.21-2.57,23.91-.4,12.99,2.75,16.8.51,38.05-2.22,21.02-2.64,26.39-1.3,48.75.04.61.26,1.77.48,3.21.28,1.91.81,4.32.62,6.59-.19,2.47-.57,4.52-.62,6.27-.12,3.56.03,5.88.32,7.95,1.45,10.26,1.51,19.23-3.49,20.32-6.06,1.32-21.58,1.68-22.31-4.18-.66-5.29,4.93-9.07,9.22-23.54,1.28-4.29.44-6.12-.06-8.04-.95-3.69.78-4.91.64-7.82-.56-11.68-6.08-21.58-11.36-43.84-2.85-12.05-4.6-25.19-2.2-40.39,1.23-7.82,2.62-11.86,2.02-24.78-.47-10-4.04-27.01-10.35-55.38-2.85-12.76-10.45-39.48-11.48-51.99-.42-5.05-.58-9.67-.55-13.95.16-20.29,4.72-32.35,7.67-41.49.01-.05,3.01-10.52,6.28-20.74,1.85-5.78,3.56-15.22,4.81-20.74,2.39-11.33-3.48-31.15-7.3-44.04-.53,2.28-1.79,7.74-2.31,9.58-3.29,11.71-8.35,25.55-10.31,34.46-.22,1-.41,1.96-.54,2.82-.3,1.91-1.54,17.81-9.04,35.77-.42,1.01-.82,1.97-1.21,2.9-6.01,14.3-8.45,19.21-12.7,27.22-3.1,5.84-5.33,10.5-5.68,14.27-.01.15-.04.3-.05.44-.09,1.65,1.79,5.15,2.47,7.34,2.1,6.8-2.15,12.5,2.7,21.38.52.95-2.69,1.08-4.6-.8-2.4-2.37-3.11-8.83-3.18-7.64-.48,7.89-1.95,9.7-2.86,16.16-.66,4.71,1.19,7.3-.26,9.2-1.11,1.47-1.49,1.34-4.22-1.26-1.91-1.83-3.13-3.52-4.37-4.88-2.39-2.64-3.69-5.25-3.9-10.68-.15-4.12.49-7.23,2.12-13.21.72-2.64,1.52-4.11,2.56-11.49.32-2.28.32-3.6.32-4.57.01-.55.01-.99.06-1.43.4-3.05,2.07-4.01,2.99-9.75,1.75-10.87,2.91-18.95,4.54-30.31.33-2.3.68-4.72,1.06-7.32,1.36-9.38,5.89-21.18,10.64-34.16.27-.74.54-1.48.82-2.23.48-1.34,1.52-11.47,1.91-16.81.5-6.65,5.12-67.7,8.29-76.91,2.37-6.86,4.66-9.62,6.85-10.53v-.02s1.79-.89,2.87-1.29c3.23-1.22,7.27-1.85,11.56-2.56,3.66-.67,11.81-1.41,15.4-2.8,5.33-2.05,9.72-4.61,12.37-11,1.11-2.7,1.56-10.2,1.75-15.33-2.54-2.35-4.51-5.38-5.74-10.4-.22-.9-.48-1.97-.74-3.12-2.78.98-3.5-3.3-4.02-4.54-.57-1.36-1.32-1.49-2.07-4.5-.51-2,.36-3.32,0-4.61-.25-.87-.36-3.32.75-4.16.12-.09.26-.14.42-.18-1.65-6.26-2.7-16.5.74-24.33,1.48-3.39,3.32-6.11,5.25-8.28,4.57-5.57,12.09-9.21,20.6-9.21s16.05,3.65,20.61,9.21c1.93,2.17,3.77,4.9,5.25,8.28,3.44,7.83,2.39,18.07.74,24.33.16.04.3.09.42.18,1.11.84,1,3.29.75,4.16-.35,1.29.52,2.61.01,4.61-.75,3.01-1.5,3.14-2.07,4.5-.52,1.24-1.24,5.52-4.02,4.54-.26,1.15-.52,2.22-.74,3.12-1.23,5.03-3.2,8.05-5.73,10.4.19,5.13.64,12.63,1.75,15.33,2.65,6.39,7.04,8.95,12.37,11,3.59,1.39,11.74,2.13,15.4,2.8,4.29.71,8.33,1.34,11.56,2.56,1.08.4,2.87,1.29,2.87,1.29v.02c2.2.91,4.49,3.67,6.85,10.53,3.18,9.2,7.79,70.25,8.29,76.91.39,5.34,1.43,15.47,1.91,16.81.28.75.55,1.49.82,2.23,4.76,12.98,9.28,24.78,10.64,34.16.38,2.61.73,5.03,1.06,7.32,1.63,11.35,2.79,19.43,4.54,30.31.92,5.75,2.59,6.7,2.99,9.75.05.44.05.88.06,1.43,0,.97,0,2.29.32,4.57,1.04,7.38,1.84,8.85,2.56,11.49,1.63,5.98,2.27,9.09,2.12,13.21Z"/>
  </g>
</svg>