<?xml version="1.0" encoding="UTF-8"?>
<svg id="_레이어_2" data-name="레이어 2" xmlns="http://www.w3.org/2000/svg" viewBox="0 0 203.66 571.9">
  <defs>
    <style>
      .cls-1 {
        fill: #f3a9aa;
        stroke: #231815;
        stroke-miterlimit: 10;
      }
    </style>
  </defs>
  <g id="_레이어_1-2" data-name="레이어 1">
    <path class="cls-1" d="m45.54,105.54c3.23-1.21,7.28-1.81,11.56-2.55,3.66-.64,11.81-1.41,15.4-2.8,5.33-2.05,9.72-4.61,12.37-11.01,1.11-2.7,1.56-10.21,1.75-15.33-2.54-2.35-4.51-5.38-5.74-10.41-.22-.9-.48-1.98-.74-3.12-2.78.98-3.5-3.3-4.02-4.54-.57-1.37-1.31-1.5-2.07-4.5-.51-2.01.37-3.32.01-4.61-.24-.87-.36-3.32.75-4.16.12-.09.26-.14.42-.19-1.65-6.26-2.7-16.5.74-24.33,1.48-3.39,3.32-6.13,5.25-8.29,4.57-5.58,12.09-9.22,20.61-9.22s16.05,3.64,20.61,9.22c1.93,2.16,3.77,4.9,5.25,8.29,3.44,7.84,2.38,18.07.74,24.33.15.05.3.1.42.19,1.11.84.99,3.29.75,4.16-.36,1.29.52,2.6.01,4.61-.76,3-1.5,3.13-2.07,4.5-.52,1.24-1.24,5.52-4.02,4.54-.26,1.14-.52,2.22-.74,3.12-1.23,5.03-3.2,8.06-5.74,10.41.18,5.13.63,12.64,1.75,15.33,2.64,6.4,7.04,8.96,12.37,11.01,3.59,1.39,11.73,2.16,15.4,2.8,4.28.75,8.33,1.34,11.56,2.55,1.08.41,2.87,1.3,2.87,1.3v.02c2.2.91,4.49,3.66,6.85,10.54,3.17,9.21,7.79,70.28,8.29,76.94.39,5.34,1.42,15.47,1.91,16.81.27.75.54,1.49.82,2.23,4.8,12.97,9.28,24.79,10.64,34.18.37,2.61.72,5.03,1.05,7.32,1.64,11.36,2.8,19.43,4.54,30.33.92,5.75,2.61,6.7,2.99,9.76.05.44.05.88.05,1.42,0,.98,0,2.3.33,4.58,1.04,7.38,1.84,8.86,2.56,11.5,1.63,5.98,2.27,9.09,2.11,13.21-.21,5.43-1.51,8.04-3.9,10.68-1.23,1.36-2.45,3.06-4.37,4.89-2.72,2.59-3.1,2.72-4.21,1.26-1.45-1.9.4-4.5-.26-9.21-.91-6.46-2.38-8.27-2.86-16.16-.07-1.19-.78,5.28-3.18,7.65-1.91,1.87-5.12,1.75-4.6.8,4.85-8.89.6-14.58,2.71-21.39.67-2.2,2.57-5.7,2.47-7.35,0-.14-.04-.3-.05-.45-.31-3.77-2.58-8.43-5.68-14.27-4.25-8.01-6.68-12.93-12.7-27.24-.39-.92-.79-1.88-1.21-2.89-7.5-17.97-8.74-33.88-9.04-35.79-.14-.86-.33-1.82-.55-2.82-1.96-8.92-7.02-22.76-10.3-34.48-.52-1.85-1.79-7.31-2.31-9.59-.15.51-.29,1.03-.44,1.55-.25,7.28.83,25.97,3.56,42.51,0,0,0,0,0,0,.9,5.17,2.06,12.17,3.17,19.99.84,5.96,1.53,12,1.96,17.24.96,2.6,1.52,4.24,1.6,4.44.02.05.04.1.05.15,3.37,9.12,8.48,21.16,8.65,41.35v.15c.03,4.24-.15,8.82-.61,13.81-1.17,12.5-9.81,39.23-13.03,52-7.17,28.38-11.23,45.4-11.75,55.41-.68,12.91.89,16.95,2.29,24.78,2.72,15.2.74,28.36-2.5,40.4-5.98,22.27-12.25,32.18-12.89,43.87-.16,2.91,1.81,4.13.73,7.83-.56,1.92-1.52,3.76-.08,8.04,4.88,14.47,11.22,18.27,10.47,23.56-.83,5.86-18.43,5.49-25.32,4.17-5.68-1.09-5.6-10.06-3.96-20.33.33-2.08.5-4.4.37-7.96-.07-1.75-.5-3.8-.72-6.28-.21-2.28.4-4.69.72-6.59.24-1.45.49-2.61.54-3.22,1.68-22.36,1.05-27.74-1.48-48.77-2.54-21.25,1.03-25.07.58-38.07-.27-7.71-2.36-15.57-2.92-23.91-.7-10.47.27-20.34,1.26-27.79,2.73-20.56,2.72-23.88,3.6-40.13.96-17.65-4.1-26.3-1.21-41.52-.67.26-2.31.38-3.94.37s-3.26-.11-3.93-.37c2.89,15.22-2.17,23.87-1.22,41.52.89,16.25.87,19.57,3.61,40.13.99,7.45,1.96,17.32,1.25,27.79-.56,8.34-2.65,16.2-2.91,23.91-.45,12.99,3.12,16.81.57,38.07-2.52,21.03-2.99,26.4-1.47,48.77.04.61.3,1.77.54,3.22.32,1.9.92,4.31.71,6.59-.22,2.48-.65,4.53-.71,6.28-.13,3.56.04,5.88.37,7.96,1.64,10.28,1.71,19.24-3.96,20.33-6.89,1.32-24.49,1.69-25.32-4.17-.75-5.29,5.59-9.09,10.46-23.56,1.45-4.28.5-6.12-.07-8.04-1.09-3.7.88-4.92.73-7.83-.64-11.7-6.91-21.6-12.89-43.87-3.24-12.05-5.23-25.2-2.5-40.4,1.4-7.83,2.97-11.87,2.29-24.78-.53-10.01-4.58-27.03-11.75-55.41-3.22-12.77-11.86-39.49-13.03-52-.46-5-.64-9.58-.61-13.81v-.15c.17-20.19,5.29-32.24,8.65-41.35.01-.05.03-.1.05-.15.07-.19.57-1.64,1.42-3.96.42-5.79,1.18-12.73,2.21-19.49,1.09-7.15,2.25-13.43,3.1-18.23,0,0,0,0,0-.01,2.75-16.66,3.71-35.61,3.46-42.89-.14-.28-.27-.54-.41-.77-.54,2.37-1.72,7.44-2.22,9.2-1.64,5.86-3.74,12.25-5.66,18.3-1.92,6.04-3.68,11.72-4.65,16.18-.22,1-.41,1.96-.54,2.82-.29,1.91-1.54,17.81-9.04,35.79-.42,1.01-.82,1.97-1.21,2.89-6.01,14.31-8.45,19.22-12.7,27.24-3.1,5.84-5.37,10.49-5.68,14.27-.01.15-.04.31-.05.45-.1,1.65,1.79,5.15,2.47,7.35,2.1,6.81-2.15,12.51,2.7,21.39.52.95-2.69,1.07-4.6-.8-2.4-2.37-3.11-8.84-3.18-7.65-.48,7.9-1.95,9.71-2.86,16.16-.66,4.71,1.19,7.31-.26,9.21-1.11,1.46-1.49,1.34-4.22-1.26-1.91-1.83-3.13-3.52-4.37-4.89-2.39-2.63-3.69-5.25-3.9-10.68-.15-4.13.49-7.24,2.12-13.21.72-2.64,1.52-4.12,2.56-11.5.32-2.28.31-3.6.32-4.58,0-.54,0-.98.06-1.42.37-3.05,2.07-4.01,2.99-9.76,1.75-10.89,2.91-18.96,4.54-30.33.33-2.29.68-4.71,1.06-7.32,1.36-9.39,5.89-21.19,10.64-34.18.27-.74.54-1.48.82-2.23.49-1.34,1.52-11.48,1.91-16.81.5-6.66,5.12-67.73,8.29-76.94,2.37-6.87,4.66-9.63,6.85-10.54v-.02s1.79-.89,2.87-1.3Z"/>
  </g>
</svg>