<?xml version="1.0" encoding="UTF-8"?>
<svg id="_레이어_2" data-name="레이어 2" xmlns="http://www.w3.org/2000/svg" viewBox="0 0 203.66 569.58">
  <defs>
    <style>
      .cls-1 {
        fill: #f3a9aa;
        stroke: #231815;
        stroke-miterlimit: 10;
      }
    </style>
  </defs>
  <g id="_레이어_1-2" data-name="레이어 1">
    <path class="cls-1" d="m203.14,325.57c-.21,5.43-1.51,8.04-3.9,10.68-1.24,1.36-2.46,3.05-4.37,4.88-2.73,2.6-3.1,2.72-4.21,1.26-1.44-1.9.4-4.5-.26-9.2-.91-6.46-2.38-8.26-2.86-16.16-.07-1.19-.78,5.28-3.18,7.65-1.91,1.88-5.12,1.75-4.6.8,4.85-8.88.6-14.58,2.7-21.39.68-2.2,2.57-5.7,2.47-7.35,0-.14-.04-.29-.05-.44-.3-3.77-2.58-8.43-5.68-14.27-4.25-8.01-6.68-12.92-12.7-27.22-.39-.93-.79-1.89-1.21-2.9-7.5-17.97-8.74-33.87-9.04-35.78-.13-.86-.32-1.82-.54-2.82-1.96-8.91-7.02-22.75-10.31-34.47-.52-1.84-1.78-7.31-2.31-9.58-2.18,7.36-5.25,17.92-5.29,26.18.23,4.09,1.38,11.25,2.94,17.87,1.41,6.9,2.53,18.04,4.58,27.39,4.51,13,6.52,19.85,6.71,24.55,2.37,6.83,5.94,15.92,6.06,30.97,0,1.05-.04,2.4-.14,3.63-.26,6.28-2.43,16.35-3.5,23.24-2.54,16.47-9.47,40.79-11.95,52.84-5.05,24.54-7.79,38.27-7.76,47.73.05,13.49.78,19.81,1.03,28.68.48,16.98-2.13,29.36-4.79,41.26-3.92,17.52-8.13,25.17-8.92,34.85-.22,2.67.42,4.02.49,7.88.1,5.11,1.4,7.42,2.41,11.91,2.79,12.43,3.4,14.97,1.43,18.71-2.12,4.03-13.78.78-18.8-1.95-3.64-1.98-3.74-8.63-2.71-17.23.24-2,.25-4.25.1-7.53-.09-1.89-.25-4.03-.33-6.36-.08-2.07.45-4.16.63-5.75.76-6.65.25-8.86.03-14.6-.84-22.07,1.02-27.07-.9-46.09-1.81-17.86.2-22.68-.27-34.52-.33-8.39-1.73-16.76-1.77-24.87-.06-12.98.76-21.23,1.73-30.86,2.01-19.84.96-24.48,2.26-40.48.52-13.16-3.43-19.62-1.78-31.04-.85.2-2.39.26-3.7.19-.47,3.79-2.81,5.89-3.06,10.09,2.24,15.48-1.23,22.79,0,41.17.93,14.05,1.29,18.99,2.84,37.04.66,7.65.73,17.04.2,26.8-.52,9.5-1.2,16.36-1.92,27.44-.99,15,1.98,19.24.06,40.73-1.42,15.96-2.44,20.27-.91,37.38.08.94.42,2.41.55,4.05.16,2.05.49,4.37.33,6.52-.19,2.74-.48,4.86-.41,6.7.19,5.24.43,9.22-.67,11.05-.47,8.03-4.53,14.66-8.75,14.2-5.02-.56-15.53-.98-15.4-9.01.08-5.04,4.64-8.18,7.37-19.67.97-4.09.51-5.81.12-7.98-1.02-5.67-1.36-9.01-2.52-16.83-1.74-11.71-6.1-22.49-9.68-42.99-1.95-10.98-2.86-21.84-1.22-36.49.93-8.35.82-15.62-1.15-32.43-1.25-10.68-6.02-30.13-11.35-54.54-2.38-10.81-8.51-31.98-9.33-42.41-.32-3.7-.45-7.17-.43-10.32.03-4.23.88-7.24,1.62-9.38.15-18.56,4.29-32.87,6.54-42.56,1.17-5.04,2.85-13.81,6.86-26.03,1.99-5.97,3.05-11.79,3.99-16.1,3.2-7.41-1.58-21.44-4.58-30.64-.81,3.17-2.3,8.86-3.14,11.76-3.01,10.27-7.18,22.1-8.9,29.9-.22,1-.41,1.96-.54,2.82-.29,1.91-1.54,17.81-9.04,35.78-.42,1.01-.82,1.97-1.21,2.9-6.01,14.3-8.45,19.22-12.7,27.22-3.1,5.84-5.37,10.5-5.68,14.27-.01.15-.04.3-.05.44-.11,1.65,1.79,5.15,2.47,7.35,2.1,6.81-2.15,12.5,2.7,21.39.52.95-2.69,1.08-4.6-.8-2.4-2.37-3.11-8.83-3.18-7.65-.48,7.89-1.95,9.7-2.86,16.16-.66,4.71,1.19,7.3-.26,9.2-1.11,1.46-1.49,1.34-4.22-1.26-1.91-1.83-3.13-3.52-4.37-4.88-2.39-2.64-3.69-5.25-3.9-10.68-.15-4.12.49-7.24,2.12-13.21.72-2.64,1.52-4.11,2.56-11.49.32-2.28.31-3.6.32-4.57,0-.55,0-.99.06-1.43.37-3.05,2.07-4.01,2.99-9.75,1.75-10.88,2.91-18.96,4.54-30.31.33-2.3.68-4.71,1.06-7.32,1.36-9.38,5.89-21.19,10.64-34.17.27-.74.54-1.48.82-2.23.49-1.34,1.52-11.47,1.91-16.81.5-6.66,5.12-67.71,8.29-76.92,2.37-6.87,4.66-9.62,6.85-10.53v-.02s1.79-.89,2.87-1.29c3.23-1.22,7.28-1.81,11.56-2.56,3.66-.64,11.81-1.41,15.4-2.8,5.33-2.05,9.72-4.61,12.37-11,1.11-2.7,1.56-10.2,1.75-15.33-2.54-2.35-4.51-5.38-5.74-10.4-.22-.9-.48-1.97-.74-3.12-2.78.98-3.5-3.3-4.02-4.54-.57-1.36-1.31-1.49-2.07-4.5-.5-2,.37-3.32,0-4.61-.24-.87-.36-3.32.75-4.16.12-.09.26-.14.42-.18-1.65-6.26-2.7-16.5.74-24.33,1.48-3.39,3.32-6.12,5.25-8.28,4.57-5.57,12.09-9.21,20.61-9.21s16.05,3.65,20.61,9.21c1.93,2.17,3.77,4.9,5.25,8.28,3.44,7.83,2.39,18.07.74,24.33.16.04.3.09.42.18,1.11.84.99,3.29.75,4.16-.36,1.29.51,2.6.01,4.61-.76,3-1.5,3.14-2.07,4.5-.52,1.24-1.24,5.52-4.02,4.54-.26,1.15-.52,2.22-.74,3.12-1.23,5.03-3.2,8.05-5.74,10.4.19,5.13.64,12.63,1.75,15.33,2.65,6.4,7.04,8.95,12.37,11,3.59,1.39,11.73,2.16,15.4,2.8,4.28.75,8.33,1.34,11.56,2.56,1.08.4,2.87,1.29,2.87,1.29v.02c2.2.91,4.49,3.66,6.85,10.53,3.18,9.2,7.79,70.26,8.29,76.92.39,5.34,1.42,15.47,1.91,16.81.27.75.55,1.49.82,2.23,4.76,12.98,9.28,24.78,10.64,34.17.38,2.61.73,5.03,1.06,7.32,1.63,11.35,2.79,19.43,4.54,30.31.92,5.75,2.61,6.7,2.99,9.75.05.44.05.88.06,1.43,0,.97,0,2.29.32,4.57,1.04,7.38,1.84,8.85,2.56,11.49,1.63,5.98,2.27,9.09,2.12,13.21Z"/>
  </g>
</svg>