<?xml version="1.0" encoding="UTF-8"?>
<svg id="_레이어_2" data-name="레이어 2" xmlns="http://www.w3.org/2000/svg" viewBox="0 0 203.66 569.29">
  <defs>
    <style>
      .cls-1 {
        fill: #f3a9aa;
        stroke: #231815;
        stroke-miterlimit: 10;
      }
    </style>
  </defs>
  <g id="_레이어_1-2" data-name="레이어 1">
    <path class="cls-1" d="m203.14,325.62c-.21,5.43-1.5,8.05-3.9,10.68-1.23,1.36-2.45,3.05-4.37,4.88-2.72,2.59-3.1,2.72-4.21,1.26-1.45-1.9.4-4.5-.26-9.21-.91-6.46-2.38-8.27-2.86-16.16-.07-1.19-.78,5.28-3.18,7.65-1.91,1.87-5.12,1.75-4.6.8,4.85-8.89.6-14.58,2.7-21.39.67-2.2,2.57-5.7,2.47-7.35,0-.14-.04-.3-.05-.44-.3-3.77-2.58-8.43-5.68-14.27-4.25-8.01-6.68-12.92-12.7-27.23-.39-.92-.79-1.88-1.21-2.89-7.5-17.97-8.74-33.87-9.04-35.78-.13-.86-.32-1.82-.54-2.82-1.96-8.92-7.02-22.76-10.31-34.47-.52-1.84-1.78-7.31-2.31-9.58-1.5,5.08-3.6,12.29-3.67,17.98.47,4.53,2.31,15.53,4.31,26.08,1.5,8.23,2.29,22.91,3.7,33.82,3.99,11.52,6.46,19.81,6.63,28.57,1.58,4.55,3.96,10.71,4.04,20.75.01,2.1-.07,4.51-.29,6.98-.54,8.36-4.69,23.98-6.41,32.83-3.92,20.44-9.76,42.33-11.66,53.7-3.45,20.69-4.96,31.18-4.45,40.08.8,14.07.74,22.66-.09,32.59-1.58,18.74-4.98,30.34-7.23,42.13-2.42,12.7-4.78,18.17-5.72,25.85-.3,2.42-.26,3.98.3,7.93,1.21,8.36,4.29,11.04,4.89,15.8,1.31,10.26-3.56,11.6-6.98,13.86-3.24,2.14-11.31-2.28-13.77-8.08-2.51-1.58-2.27-7.21-1.69-14.14.16-1.92.02-4.1-.16-7.12-.12-2.02-.03-4.25,0-6.44.03-1.86.46-3.64.59-4.9,1.21-11.87.26-15.13-.44-25.99-1.41-21.77,1.05-26.4-.42-43.42-1.25-14.48-.59-20.32-1.1-30.98-.43-9.08-1.13-17.96-.78-25.84.68-15.52,1.31-22.12,2.28-33.96,1.58-19.11-.64-25.09,1.12-40.83.13-8.69-3.01-12.95-2.42-20.57-1.08.12-2.62.14-3.7,0,.59,7.6-2.55,11.88-2.42,20.57,1.77,15.74-.45,21.71,1.12,40.83.98,11.84,1.61,18.44,2.28,33.96.34,7.88-.36,16.76-.78,25.84-.5,10.67.16,16.51-1.1,30.98-1.47,17.01.99,21.65-.42,43.42-.7,10.86-1.65,14.12-.44,25.99.13,1.26.56,3.04.59,4.9.03,2.19.12,4.42,0,6.44-.18,3.01-.32,5.2-.16,7.12.58,6.92.82,12.56-1.69,14.14-2.47,5.79-10.53,10.22-13.77,8.08-3.42-2.26-8.29-3.6-6.98-13.86.61-4.76,3.69-7.44,4.89-15.8.57-3.95.6-5.51.3-7.93-.94-7.68-3.3-13.15-5.72-25.85-2.25-11.79-5.66-23.39-7.23-42.13-.84-9.93-.9-18.52-.1-32.59.51-8.91-1-19.4-4.45-40.08-1.89-11.36-7.73-33.25-11.65-53.7-1.73-8.85-5.88-24.48-6.41-32.83-.21-2.47-.3-4.88-.29-6.98.07-8.46,1.76-14.2,3.24-18.48.13-17.04,2.95-33.84,5-43.92,1.92-9.47,3.94-21.57,6.92-31.52,1.27-4.15,1.94-8.21,2.52-11.25,1.96-4.18-1.65-11.71-3.82-17.24-1.08,4.07-2.79,9.99-3.98,13.94-2.67,8.86-6.01,18.64-7.48,25.33-.22,1-.41,1.96-.54,2.82-.29,1.91-1.54,17.81-9.04,35.78-.42,1.01-.82,1.97-1.21,2.89-6.01,14.31-8.45,19.22-12.7,27.23-3.1,5.84-5.37,10.5-5.68,14.27-.01.15-.04.3-.05.44-.11,1.65,1.79,5.15,2.47,7.35,2.1,6.81-2.15,12.5,2.7,21.39.52.95-2.69,1.07-4.6-.8-2.4-2.37-3.11-8.84-3.18-7.65-.48,7.9-1.95,9.7-2.86,16.16-.66,4.71,1.19,7.31-.26,9.21-1.11,1.46-1.49,1.33-4.22-1.26-1.91-1.83-3.13-3.52-4.37-4.88-2.39-2.63-3.69-5.25-3.9-10.68-.15-4.12.49-7.24,2.12-13.21.72-2.64,1.52-4.11,2.56-11.49.32-2.28.31-3.6.32-4.57,0-.54,0-.99.06-1.42.37-3.05,2.07-4.01,2.99-9.75,1.75-10.88,2.91-18.96,4.54-30.32.33-2.29.68-4.71,1.06-7.32,1.36-9.39,5.89-21.19,10.64-34.17.27-.74.54-1.48.82-2.23.49-1.34,1.52-11.47,1.91-16.81.5-6.66,5.12-67.72,8.29-76.93,2.37-6.87,4.66-9.62,6.85-10.53v-.02s1.79-.89,2.87-1.29c3.23-1.21,7.28-1.81,11.56-2.55,3.66-.64,11.81-1.41,15.4-2.8,5.33-2.05,9.72-4.61,12.37-11,1.11-2.7,1.56-10.2,1.75-15.33-2.54-2.35-4.51-5.38-5.74-10.4-.22-.9-.48-1.97-.74-3.12-2.78.98-3.5-3.3-4.02-4.54-.57-1.36-1.31-1.5-2.07-4.5-.51-2.01.37-3.32,0-4.61-.24-.87-.36-3.32.75-4.16.12-.09.26-.14.42-.18-1.65-6.26-2.7-16.5.74-24.33,1.48-3.39,3.32-6.12,5.25-8.29,4.57-5.57,12.09-9.22,20.61-9.22s16.05,3.64,20.61,9.22c1.93,2.16,3.77,4.9,5.25,8.29,3.44,7.84,2.38,18.07.74,24.33.15.05.3.09.42.18,1.11.84.99,3.29.75,4.16-.36,1.29.52,2.6.01,4.61-.76,3-1.5,3.13-2.07,4.5-.52,1.24-1.24,5.52-4.02,4.54-.26,1.14-.52,2.22-.74,3.12-1.23,5.03-3.2,8.06-5.74,10.4.18,5.13.63,12.63,1.75,15.33,2.64,6.4,7.04,8.96,12.37,11,3.59,1.39,11.73,2.16,15.4,2.8,4.28.75,8.33,1.34,11.56,2.55,1.08.4,2.87,1.29,2.87,1.29v.02c2.2.91,4.49,3.66,6.85,10.53,3.17,9.21,7.79,70.27,8.29,76.93.39,5.34,1.42,15.47,1.91,16.81.27.75.55,1.49.82,2.23,4.79,12.97,9.28,24.79,10.64,34.17.37,2.61.72,5.03,1.05,7.32,1.63,11.36,2.79,19.43,4.54,30.32.92,5.75,2.61,6.7,2.99,9.75.05.44.05.88.05,1.42,0,.97,0,2.29.32,4.57,1.04,7.38,1.84,8.86,2.56,11.49,1.63,5.98,2.27,9.09,2.11,13.21Z"/>
  </g>
</svg>