<?xml version="1.0" encoding="UTF-8"?>
<svg id="_레이어_2" data-name="레이어 2" xmlns="http://www.w3.org/2000/svg" viewBox="0 0 203.66 572.08">
  <defs>
    <style>
      .cls-1 {
        fill: #f3a9aa;
        stroke: #231815;
        stroke-miterlimit: 10;
      }
    </style>
  </defs>
  <g id="_레이어_1-2" data-name="레이어 1">
    <path class="cls-1" d="m203.14,325.7c-.21,5.43-1.5,8.05-3.9,10.68-1.23,1.37-2.45,3.06-4.37,4.89-2.72,2.59-3.1,2.72-4.21,1.26-1.45-1.9.4-4.5-.26-9.21-.91-6.46-2.38-8.27-2.86-16.17-.07-1.19-.78,5.28-3.18,7.65-1.91,1.87-5.13,1.75-4.61.8,4.86-8.89.6-14.59,2.71-21.39.67-2.2,2.56-5.7,2.47-7.35-.01-.14-.04-.3-.05-.45-.36-3.77-2.58-8.43-5.67-14.27-4.26-8.02-6.68-12.93-12.7-27.24-.39-.92-.79-1.88-1.21-2.89-7.5-17.98-8.74-33.88-9.04-35.79-.14-.86-.33-1.82-.55-2.82-1.96-8.92-7.01-22.76-10.3-34.48-.52-1.85-1.79-7.31-2.31-9.59-.15.51-.29,1.04-.43,1.55.94,5.41,4.16,24.08,7.03,42.52,1.17,7.49,1.59,20.17,1.78,31.92,2.4,5.26,4.38,9.58,4.5,9.88,3.57,9.14,9.04,21.21,9.23,41.51.03,4.28-.16,8.91-.66,13.97-1.23,12.52-10.38,39.25-13.8,52.02-7.59,28.37-11.89,45.4-12.45,55.41-.72,12.92.95,16.97,2.43,24.78,2.89,15.21.78,28.36-2.65,40.41-6.33,22.27-12.98,32.18-13.65,43.88-.17,2.91,1.91,4.14.76,7.83-.59,1.92-1.6,3.76-.07,8.04,5.17,14.48,11.88,18.28,11.09,23.56-.88,5.86-19.52,5.49-26.83,4.17-6-1.09-5.92-10.06-4.2-20.33.35-2.07.53-4.4.4-7.96-.07-1.75-.52-3.8-.76-6.28-.22-2.28.42-4.68.76-6.59.26-1.45.52-2.61.57-3.21,1.61-22.38,1.11-27.75-1.56-48.79-2.7-21.25,1.08-25.07.61-38.07-.28-7.7-2.5-15.58-3.09-23.91-.75-10.47.28-20.34,1.33-27.78,2.9-20.56,2.88-23.88,3.82-40.15,1.01-17.66-4.35-26.3-1.29-41.53-.71.26-2.45.39-4.17.37-1.72-.01-3.46-.11-4.17-.37,3.06,15.23-2.3,23.87-1.28,41.53.93,16.27.92,19.58,3.81,40.15,1.05,7.44,2.08,17.32,1.33,27.78-.59,8.34-2.8,16.22-3.09,23.91-.47,13,3.31,16.82.61,38.07-2.67,21.03-3.17,26.4-1.55,48.79.04.6.31,1.76.57,3.21.34,1.91.97,4.31.75,6.59-.24,2.48-.69,4.53-.75,6.28-.14,3.56.04,5.89.39,7.96,1.73,10.28,1.81,19.24-4.2,20.33-7.29,1.32-25.95,1.69-26.83-4.17-.79-5.29,5.92-9.09,11.09-23.56,1.53-4.28.52-6.12-.07-8.04-1.15-3.69.93-4.92.76-7.83-.67-11.7-7.31-21.6-13.65-43.88-3.43-12.05-5.54-25.2-2.65-40.41,1.49-7.82,3.15-11.87,2.43-24.78-.56-10.01-4.86-27.03-12.45-55.41-3.42-12.77-12.56-39.5-13.8-52.02-.5-5.06-.69-9.69-.65-13.97.18-20.29,5.65-32.37,9.22-41.51.12-.3,2.11-4.65,4.52-9.93.18-11.73.59-24.38,1.77-31.87,2.88-18.44,6.11-37.11,7.04-42.52-.15-.51-.28-1.04-.43-1.55-.52,2.28-1.79,7.74-2.31,9.59-1.64,5.86-3.74,12.25-5.65,18.3-1.92,6.04-3.68,11.73-4.66,16.19-.22,1-.41,1.96-.54,2.82-.3,1.91-1.54,17.82-9.04,35.79-.42,1.01-.82,1.97-1.21,2.89-6.02,14.32-8.45,19.22-12.7,27.24-3.1,5.84-5.33,10.5-5.68,14.27-.01.15-.04.31-.05.45-.09,1.65,1.79,5.15,2.47,7.35,2.1,6.81-2.15,12.51,2.7,21.39.52.95-2.69,1.07-4.6-.8-2.4-2.37-3.11-8.84-3.18-7.65-.48,7.9-1.95,9.71-2.86,16.17-.66,4.71,1.19,7.31-.26,9.21-1.11,1.46-1.49,1.33-4.22-1.26-1.91-1.83-3.13-3.52-4.37-4.89-2.39-2.63-3.69-5.25-3.9-10.68-.15-4.13.49-7.24,2.12-13.22.72-2.64,1.52-4.12,2.56-11.5.32-2.28.32-3.6.32-4.58,0-.54,0-.98.06-1.42.4-3.05,2.07-4.01,2.99-9.76,1.75-10.9,2.91-18.97,4.54-30.33.33-2.29.68-4.71,1.06-7.32,1.36-9.39,5.89-21.19,10.64-34.18.27-.74.54-1.48.82-2.23.48-1.34,1.52-11.48,1.91-16.82.5-6.67,5.13-67.74,8.29-76.95,2.37-6.88,4.66-9.63,6.85-10.54v-.02s1.79-.89,2.87-1.3c3.23-1.21,7.27-1.84,11.56-2.55,3.66-.67,11.81-1.41,15.4-2.8,5.33-2.05,9.72-4.61,12.37-11.01,1.11-2.7,1.56-10.21,1.75-15.34-2.54-2.35-4.51-5.38-5.74-10.41-.22-.9-.48-1.98-.74-3.12-2.78.98-3.5-3.3-4.02-4.54-.57-1.37-1.32-1.5-2.07-4.5-.51-2.01.36-3.32,0-4.61-.25-.87-.36-3.32.75-4.16.12-.09.26-.14.42-.19-1.65-6.26-2.7-16.5.74-24.33,1.48-3.39,3.32-6.13,5.25-8.29,4.57-5.58,12.09-9.22,20.61-9.22s16.05,3.64,20.61,9.22c1.93,2.16,3.77,4.9,5.25,8.29,3.44,7.84,2.38,18.08.74,24.33.15.05.3.1.42.19,1.11.84.99,3.29.75,4.16-.36,1.29.52,2.6.01,4.61-.75,3-1.51,3.13-2.07,4.5-.52,1.24-1.24,5.52-4.02,4.54-.26,1.14-.52,2.22-.74,3.12-1.23,5.03-3.2,8.06-5.74,10.41.18,5.13.63,12.64,1.75,15.34,2.64,6.4,7.03,8.96,12.37,11.01,3.59,1.39,11.74,2.13,15.4,2.8,4.29.71,8.33,1.34,11.56,2.55,1.08.41,2.87,1.3,2.87,1.3v.02c2.2.91,4.49,3.66,6.85,10.54,3.17,9.21,7.79,70.28,8.29,76.95.39,5.34,1.42,15.48,1.91,16.82.27.75.54,1.49.82,2.23,4.76,12.99,9.28,24.79,10.64,34.18.37,2.61.72,5.03,1.05,7.32,1.64,11.37,2.8,19.43,4.55,30.33.92,5.75,2.59,6.71,2.99,9.76.05.44.05.88.05,1.42,0,.98,0,2.3.33,4.58,1.04,7.38,1.84,8.86,2.56,11.5,1.63,5.98,2.27,9.09,2.11,13.22Z"/>
  </g>
</svg>