<?xml version="1.0" encoding="UTF-8"?>
<svg id="_레이어_2" data-name="레이어 2" xmlns="http://www.w3.org/2000/svg" viewBox="0 0 203.66 571.94">
  <defs>
    <style>
      .cls-1 {
        fill: #f3a9aa;
        stroke: #231815;
        stroke-miterlimit: 10;
      }
    </style>
  </defs>
  <g id="_레이어_1-2" data-name="레이어 1">
    <path class="cls-1" d="m45.54,105.54c3.23-1.21,7.28-1.81,11.56-2.55,3.66-.64,11.81-1.41,15.4-2.8,5.33-2.05,9.72-4.61,12.37-11.01,1.11-2.7,1.56-10.21,1.75-15.33-2.54-2.35-4.51-5.38-5.74-10.41-.22-.9-.48-1.98-.74-3.12-2.78.98-3.5-3.3-4.02-4.54-.57-1.37-1.31-1.5-2.07-4.5-.51-2.01.37-3.32,0-4.61-.24-.87-.36-3.32.75-4.16.12-.09.26-.14.42-.19-1.65-6.26-2.7-16.5.74-24.33,1.48-3.39,3.32-6.13,5.25-8.29,4.57-5.58,12.09-9.22,20.61-9.22s16.05,3.64,20.61,9.22c1.93,2.16,3.77,4.9,5.25,8.29,3.44,7.84,2.38,18.07.74,24.33.15.05.3.1.42.19,1.11.84.99,3.29.75,4.16-.36,1.29.52,2.6.01,4.61-.75,3-1.5,3.13-2.07,4.5-.52,1.24-1.24,5.52-4.02,4.54-.26,1.14-.52,2.22-.74,3.12-1.23,5.03-3.2,8.06-5.74,10.41.18,5.13.63,12.64,1.75,15.33,2.64,6.4,7.04,8.96,12.37,11.01,3.59,1.39,11.73,2.16,15.4,2.8,4.28.75,8.33,1.34,11.56,2.55,1.08.41,2.87,1.3,2.87,1.3v.02c2.2.91,4.49,3.66,6.85,10.54,3.17,9.21,7.79,70.28,8.29,76.94.39,5.34,1.42,15.47,1.91,16.81.27.75.54,1.49.82,2.23,4.81,12.97,9.28,24.79,10.64,34.18.37,2.61.72,5.03,1.05,7.32,1.64,11.36,2.79,19.43,4.54,30.33.92,5.75,2.61,6.7,2.99,9.76.05.44.05.88.05,1.42,0,.98,0,2.3.33,4.58,1.04,7.38,1.84,8.86,2.56,11.5,1.63,5.98,2.27,9.09,2.11,13.21-.21,5.43-1.51,8.04-3.9,10.68-1.23,1.36-2.45,3.06-4.37,4.89-2.72,2.59-3.1,2.72-4.21,1.26-1.45-1.9.4-4.5-.26-9.21-.91-6.46-2.38-8.27-2.86-16.16-.07-1.19-.78,5.28-3.18,7.65-1.91,1.87-5.12,1.75-4.6.8,4.85-8.89.6-14.58,2.71-21.39.67-2.2,2.57-5.7,2.47-7.35,0-.14-.04-.3-.05-.45-.31-3.77-2.58-8.43-5.68-14.27-4.25-8.01-6.68-12.93-12.7-27.24-.39-.92-.79-1.88-1.21-2.89-7.5-17.97-8.74-33.88-9.04-35.79-.14-.86-.33-1.82-.55-2.82-1.96-8.92-7.02-22.76-10.3-34.48-.52-1.85-1.79-7.31-2.31-9.59-.15.51-.29,1.03-.44,1.55-.25,7.29.83,26.13,4.06,42.51,0,0,0,0,0,.02.94,5.29,2.18,12.7,3.2,20.68.44,3.45.9,7.11,1.33,10.64,2.5,5.48,4.61,10.08,4.73,10.39,3.6,9.12,9.04,21.21,9.23,41.5.03,4.28-.16,8.91-.66,13.96-1.23,12.52-10.38,39.24-13.8,52.01-7.59,28.37-11.89,45.39-12.45,55.4-.72,12.91.95,16.96,2.43,24.78,2.89,15.2.78,28.36-2.65,40.4-6.33,22.27-12.98,32.18-13.65,43.87-.17,2.91,1.9,4.14.76,7.83-.59,1.92-1.6,3.76-.07,8.04,5.17,14.47,11.88,18.27,11.09,23.56-.88,5.86-19.52,5.49-26.83,4.17-6-1.09-5.92-10.06-4.2-20.33.35-2.07.53-4.4.4-7.96-.07-1.75-.52-3.8-.76-6.28-.22-2.28.42-4.68.76-6.59.26-1.45.52-2.61.57-3.21,1.73-22.37,1.11-27.75-1.56-48.78-2.7-21.25,1.08-25.07.61-38.07-.28-7.7-2.5-15.57-3.09-23.91-.75-10.47.28-20.34,1.33-27.78,2.9-20.56,2.88-23.88,3.82-40.14,1.01-17.65-4.35-26.3-1.29-41.52-.71.26-2.45.38-4.17.37-1.72-.02-3.46-.11-4.17-.37,3.06,15.22-2.3,23.87-1.28,41.52.93,16.26.92,19.58,3.81,40.14,1.05,7.44,2.08,17.31,1.33,27.78-.59,8.34-2.8,16.21-3.09,23.91-.47,12.99,3.31,16.81.61,38.07-2.67,21.03-3.1,26.4-1.55,48.78.04.6.31,1.76.57,3.21.34,1.91.97,4.31.75,6.59-.24,2.48-.69,4.53-.75,6.28-.13,3.56.04,5.89.39,7.96,1.73,10.28,1.81,19.24-4.2,20.33-7.29,1.32-25.95,1.69-26.83-4.17-.79-5.29,5.92-9.09,11.09-23.56,1.53-4.28.52-6.12-.07-8.04-1.15-3.69.93-4.92.76-7.83-.67-11.7-7.31-21.6-13.65-43.87-3.43-12.05-5.54-25.2-2.65-40.4,1.49-7.82,3.15-11.87,2.43-24.78-.56-10.01-4.86-27.03-12.45-55.4-3.42-12.77-12.56-39.49-13.8-52.01-.5-5.06-.69-9.69-.65-13.96.18-20.29,5.62-32.38,9.22-41.5.12-.3,2.11-4.66,4.53-9.94.49-4.2,1.04-8.62,1.6-12.72,1-7.37,2.26-14.1,3.15-19.05,0,0,0-.02,0-.02,3.27-16.48,4.2-35.6,3.95-42.88-.14-.28-.27-.54-.41-.77-.54,2.37-1.72,7.44-2.22,9.2-1.64,5.86-3.74,12.25-5.66,18.3-1.92,6.04-3.68,11.72-4.66,16.18-.22,1-.41,1.96-.54,2.82-.29,1.91-1.54,17.81-9.04,35.79-.42,1.01-.82,1.97-1.21,2.89-6.02,14.31-8.45,19.22-12.7,27.24-3.1,5.84-5.37,10.49-5.68,14.27-.01.15-.04.31-.05.45-.11,1.65,1.79,5.15,2.47,7.35,2.1,6.81-2.15,12.51,2.7,21.39.52.95-2.69,1.07-4.6-.8-2.4-2.37-3.11-8.84-3.18-7.65-.48,7.9-1.95,9.71-2.86,16.16-.66,4.71,1.19,7.31-.26,9.21-1.11,1.46-1.49,1.34-4.22-1.26-1.91-1.83-3.13-3.52-4.37-4.89-2.39-2.63-3.69-5.25-3.9-10.68-.15-4.13.49-7.24,2.12-13.21.72-2.64,1.52-4.12,2.56-11.5.32-2.28.31-3.6.32-4.58,0-.54,0-.98.06-1.42.37-3.05,2.07-4.01,2.99-9.76,1.75-10.89,2.91-18.96,4.54-30.33.33-2.29.68-4.71,1.06-7.32,1.36-9.39,5.89-21.19,10.64-34.18.27-.74.54-1.48.82-2.23.49-1.34,1.52-11.48,1.91-16.81.5-6.66,5.12-67.73,8.29-76.94,2.37-6.87,4.66-9.63,6.85-10.54v-.02s1.79-.89,2.87-1.3Z"/>
  </g>
</svg>