<?xml version="1.0" encoding="UTF-8"?>
<svg id="_레이어_2" data-name="레이어 2" xmlns="http://www.w3.org/2000/svg" viewBox="0 0 203.66 571.86">
  <defs>
    <style>
      .cls-1 {
        fill: #f3a9aa;
        stroke: #231815;
        stroke-miterlimit: 10;
      }
    </style>
  </defs>
  <g id="_레이어_1-2" data-name="레이어 1">
    <path class="cls-1" d="m45.54,105.52c3.23-1.22,7.28-1.81,11.56-2.56,3.66-.64,11.81-1.41,15.4-2.8,5.33-2.05,9.72-4.61,12.37-11,1.11-2.7,1.56-10.2,1.75-15.33-2.54-2.35-4.51-5.38-5.74-10.4-.22-.9-.48-1.97-.74-3.12-2.78.98-3.5-3.3-4.02-4.54-.57-1.36-1.31-1.49-2.07-4.5-.5-2,.37-3.32.01-4.61-.24-.87-.36-3.32.75-4.16.12-.09.26-.14.42-.18-1.65-6.26-2.7-16.5.74-24.33,1.48-3.39,3.32-6.12,5.25-8.28,4.57-5.57,12.09-9.21,20.61-9.21s16.05,3.65,20.61,9.21c1.93,2.17,3.77,4.9,5.25,8.28,3.44,7.83,2.39,18.07.74,24.33.16.04.3.09.42.18,1.11.84.99,3.29.75,4.16-.36,1.29.51,2.6.01,4.61-.76,3-1.5,3.14-2.07,4.5-.52,1.24-1.24,5.52-4.02,4.54-.26,1.15-.52,2.22-.74,3.12-1.23,5.03-3.2,8.05-5.74,10.4.19,5.13.64,12.63,1.75,15.33,2.65,6.4,7.04,8.95,12.37,11,3.59,1.39,11.73,2.16,15.4,2.8,4.28.75,8.33,1.34,11.56,2.56,1.08.4,2.87,1.29,2.87,1.29v.02c2.2.91,4.49,3.66,6.85,10.53,3.17,9.2,7.79,70.26,8.29,76.92.39,5.34,1.42,15.47,1.91,16.81.27.75.55,1.49.82,2.23,4.76,12.98,9.28,24.78,10.64,34.17.38,2.61.73,5.03,1.06,7.32,1.63,11.35,2.79,19.43,4.54,30.31.92,5.75,2.61,6.7,2.99,9.75.05.44.05.88.06,1.43,0,.97,0,2.29.32,4.57,1.04,7.38,1.84,8.85,2.56,11.49,1.63,5.98,2.27,9.09,2.12,13.21-.21,5.43-1.51,8.04-3.9,10.68-1.24,1.36-2.46,3.05-4.37,4.88-2.73,2.6-3.1,2.72-4.21,1.26-1.44-1.9.4-4.5-.26-9.2-.91-6.46-2.38-8.26-2.86-16.16-.07-1.19-.78,5.28-3.18,7.64-1.91,1.88-5.12,1.75-4.6.8,4.85-8.88.6-14.58,2.7-21.39.68-2.2,2.57-5.7,2.47-7.35,0-.14-.04-.29-.05-.44-.3-3.77-2.58-8.43-5.68-14.27-4.25-8.01-6.68-12.92-12.7-27.22-.39-.93-.79-1.89-1.21-2.9-7.5-17.97-8.74-33.87-9.04-35.78-.13-.86-.32-1.82-.54-2.82-1.96-8.91-7.02-22.75-10.31-34.47-.52-1.84-1.78-7.31-2.31-9.58-.15.51-.3,1.03-.45,1.55-2.63,11.05-5.81,30.23-1.89,42.5,0,0,0,.02,0,.02,1.21,5.58,4.91,13.54,8.67,20.42,4.98,6.45,8.84,13.3,11.3,18.46.05.1.1.21.15.32.52,1.1,1,2.15,1.44,3.15.05.1.09.2.13.29,3.65,8.65,9.17,19.85,9.81,37.91,0,.1,0,.2.01.3.03.96.06,1.94.06,2.93,0,.11,0,.2,0,.29,0,3.4-.14,7.01-.49,10.88-.09.97-.2,1.98-.33,3.01-1.63,12.73-11.52,38.73-15.25,51.26-8.44,28.37-13.22,45.39-13.84,55.38-.81,12.92,1.05,16.96,2.7,24.78,3.21,15.2.87,28.34-2.95,40.39-7.04,22.27-14.43,32.17-15.18,43.85-.19,2.92,2.12,4.13.85,7.82-.66,1.93-1.79,3.77-.09,8.05,5.75,14.47,13.22,18.26,12.34,23.54-.98,5.86-21.72,5.5-29.84,4.17-6.68-1.09-6.59-10.05-4.67-20.32.39-2.08.59-4.4.44-7.95-.08-1.76-.58-3.81-.84-6.28-.24-2.28.46-4.69.84-6.6.29-1.44.58-2.6.63-3.21,1.8-22.37,1.24-27.73-1.73-48.76-3-21.26,1.21-25.06.68-38.05-.31-7.7-2.78-15.57-3.44-23.9-.83-10.46.32-20.35,1.48-27.78,3.22-20.55,3.21-23.87,4.25-40.12,1.13-17.65-4.83-26.3-1.44-41.52-.78.27-2.71.38-4.63.38-1.91,0-3.85-.11-4.63-.38,3.4,15.22-2.56,23.87-1.44,41.52,1.05,16.25,1.03,19.57,4.25,40.12,1.17,7.44,2.31,17.32,1.48,27.78-.66,8.33-3.12,16.2-3.44,23.9-.53,12.99,3.68,16.8.68,38.05-2.97,21.03-3.53,26.39-1.73,48.76.05.61.34,1.77.63,3.21.38,1.91,1.08,4.32.84,6.6-.27,2.47-.76,4.51-.84,6.28-.15,3.56.05,5.87.44,7.95,1.93,10.27,2.02,19.24-4.67,20.32-8.11,1.32-28.86,1.68-29.83-4.17-.88-5.29,6.59-9.07,12.34-23.54,1.7-4.28.58-6.12-.09-8.05-1.27-3.69,1.04-4.9.86-7.82-.75-11.68-8.14-21.59-15.19-43.85-3.81-12.05-6.15-25.19-2.95-40.39,1.65-7.82,3.51-11.86,2.7-24.78-.62-9.99-5.4-27.01-13.84-55.38-3.8-12.76-13.98-39.48-15.35-52-.56-5.04-.75-9.67-.73-13.95,0-.1,0-.19,0-.3.13-20.11,6.3-32.11,10.25-41.19.04-.1.08-.2.13-.3,2.1-4.79,5.78-11.84,10.75-18.72.58-1.11,1.18-2.22,1.8-3.31,3.75-6.52,7.45-14.08,8.63-19.45,0,0,0-.02,0-.02,4.05-12.58.39-32.64-2.24-43.66-.11.19-.24.45-.38.77-.59,2.54-1.59,6.84-2.04,8.42-1.64,5.86-3.74,12.25-5.66,18.3-1.92,6.03-3.67,11.72-4.65,16.17-.22,1-.41,1.96-.54,2.82-.29,1.91-1.54,17.81-9.04,35.78-.42,1.01-.82,1.97-1.21,2.9-6.01,14.3-8.45,19.22-12.7,27.22-3.1,5.84-5.37,10.5-5.68,14.27-.01.15-.04.3-.05.44-.1,1.65,1.79,5.15,2.47,7.35,2.1,6.81-2.15,12.5,2.7,21.39.52.95-2.69,1.08-4.6-.8-2.4-2.37-3.11-8.83-3.18-7.64-.48,7.89-1.95,9.7-2.86,16.16-.66,4.71,1.19,7.3-.26,9.2-1.11,1.46-1.49,1.34-4.22-1.26-1.91-1.83-3.13-3.52-4.37-4.88-2.39-2.64-3.69-5.25-3.9-10.68-.15-4.12.49-7.23,2.12-13.21.72-2.64,1.52-4.11,2.56-11.49.32-2.28.31-3.6.32-4.57,0-.55,0-.99.06-1.43.37-3.05,2.07-4.01,2.99-9.75,1.75-10.88,2.91-18.96,4.54-30.31.33-2.3.68-4.71,1.06-7.32,1.36-9.38,5.88-21.19,10.64-34.17.27-.74.54-1.48.82-2.23.49-1.34,1.52-11.47,1.91-16.81.5-6.66,5.12-67.71,8.29-76.92,2.37-6.87,4.66-9.62,6.85-10.53v-.02s1.79-.89,2.87-1.29Z"/>
  </g>
</svg>