<?xml version="1.0" encoding="UTF-8"?>
<svg id="_레이어_2" data-name="레이어 2" xmlns="http://www.w3.org/2000/svg" viewBox="0 0 203.66 571.79">
  <defs>
    <style>
      .cls-1 {
        fill: #f3a9aa;
        stroke: #231815;
        stroke-miterlimit: 10;
      }
    </style>
  </defs>
  <g id="_레이어_1-2" data-name="레이어 1">
    <path class="cls-1" d="m203.14,325.53c-.21,5.44-1.51,8.04-3.9,10.68-1.24,1.36-2.46,3.05-4.37,4.88-2.73,2.6-3.11,2.73-4.22,1.26-1.45-1.9.4-4.5-.26-9.2-.91-6.45-2.38-8.26-2.86-16.16-.07-1.19-.78,5.28-3.18,7.64-1.91,1.88-5.12,1.75-4.6.8,4.85-8.88.6-14.58,2.7-21.38.68-2.2,2.56-5.7,2.47-7.34-.01-.14-.04-.29-.05-.44-.35-3.77-2.58-8.43-5.68-14.27-4.25-8-6.68-12.92-12.7-27.22-.39-.93-.79-1.89-1.21-2.9-7.5-17.97-8.74-33.86-9.04-35.77-.13-.86-.32-1.82-.54-2.82-1.96-8.91-7.02-22.75-10.31-34.46-.52-1.84-1.78-7.3-2.31-9.58-3.83,12.89-9.77,33.41-5.33,44.04v.02c1.32,5.58,6.11,13.36,11.03,19.58,6.18,7.82,10.72,16.37,13.14,21.89.05.1.09.2.13.3,3.95,9.08,9.99,21.08,10.25,41.19,0,.11,0,.2,0,.3.04,4.28-.17,8.9-.72,13.95-1.38,12.51-11.56,39.23-15.36,51.99-8.44,28.37-13.22,45.38-13.84,55.38-.81,12.92,1.05,16.96,2.7,24.78,3.21,15.2.87,28.34-2.95,40.39-7.04,22.26-14.43,32.16-15.18,43.84-.19,2.92,2.12,4.14.85,7.82-.66,1.93-1.79,3.77-.09,8.04,5.75,14.47,13.22,18.26,12.34,23.54-.98,5.86-21.72,5.5-29.84,4.18-6.68-1.09-6.59-10.05-4.67-20.32.39-2.08.59-4.4.44-7.95-.08-1.76-.58-3.81-.84-6.27-.24-2.28.46-4.69.84-6.59.29-1.44.58-2.6.63-3.21,1.8-22.36,1.24-27.73-1.73-48.75-3-21.25,1.21-25.06.68-38.05-.31-7.7-2.78-15.57-3.44-23.9-.83-10.46.32-20.34,1.48-27.78,3.22-20.55,3.21-23.87,4.25-40.12,1.13-17.65-4.83-26.3-1.44-41.52-.78.27-2.71.39-4.63.38-1.91.01-3.85-.11-4.63-.38,3.4,15.22-2.56,23.87-1.44,41.52,1.05,16.25,1.03,19.56,4.25,40.12,1.17,7.43,2.31,17.32,1.48,27.78-.66,8.33-3.12,16.2-3.44,23.9-.53,12.99,3.68,16.8.68,38.05-2.97,21.02-3.53,26.39-1.73,48.75.05.61.34,1.77.63,3.21.38,1.91,1.09,4.32.84,6.59-.26,2.47-.76,4.52-.84,6.27-.15,3.56.05,5.88.44,7.95,1.93,10.27,2.02,19.23-4.67,20.32-8.11,1.32-28.86,1.68-29.83-4.18-.88-5.29,6.59-9.07,12.34-23.54,1.7-4.28.58-6.12-.09-8.04-1.27-3.69,1.04-4.91.86-7.82-.75-11.68-8.14-21.58-15.19-43.84-3.81-12.05-6.15-25.19-2.95-40.39,1.65-7.82,3.51-11.86,2.7-24.78-.62-9.99-5.4-27.01-13.84-55.38-3.8-12.76-13.98-39.48-15.35-51.99-.56-5.05-.77-9.67-.73-13.95,0-.1,0-.19,0-.3.26-20.1,6.3-32.1,10.25-41.19.04-.1.08-.2.13-.3,2.43-5.53,6.95-14.07,13.15-21.89,4.92-6.22,9.7-14.01,11.02-19.58v-.02c4.45-10.63-1.51-31.15-5.34-44.04-.53,2.28-1.79,7.74-2.31,9.58-3.29,11.71-8.35,25.55-10.31,34.46-.22,1-.41,1.96-.54,2.82-.3,1.91-1.54,17.81-9.04,35.77-.42,1.01-.82,1.97-1.21,2.9-6.01,14.3-8.45,19.21-12.7,27.22-3.1,5.84-5.33,10.5-5.67,14.27-.01.15-.04.3-.05.44-.09,1.65,1.79,5.15,2.47,7.34,2.1,6.8-2.15,12.5,2.7,21.38.52.95-2.69,1.08-4.6-.8-2.4-2.37-3.11-8.83-3.18-7.64-.48,7.89-1.95,9.7-2.86,16.16-.66,4.71,1.19,7.3-.26,9.2-1.11,1.47-1.49,1.34-4.22-1.26-1.91-1.83-3.13-3.52-4.37-4.88-2.39-2.64-3.69-5.25-3.9-10.68-.15-4.12.49-7.23,2.12-13.21.72-2.64,1.52-4.11,2.56-11.49.32-2.28.32-3.6.32-4.57.01-.55.01-.99.06-1.43.4-3.05,2.07-4.01,2.99-9.75,1.75-10.87,2.91-18.95,4.54-30.31.33-2.3.68-4.72,1.06-7.32,1.36-9.38,5.88-21.18,10.64-34.16.27-.74.54-1.48.82-2.23.48-1.34,1.52-11.47,1.91-16.81.5-6.65,5.12-67.7,8.29-76.91,2.37-6.86,4.66-9.62,6.85-10.53v-.02s1.79-.89,2.87-1.29c3.23-1.22,7.27-1.85,11.56-2.56,3.66-.67,11.81-1.41,15.4-2.8,5.33-2.05,9.72-4.61,12.37-11,1.11-2.7,1.56-10.2,1.75-15.33-2.54-2.35-4.51-5.38-5.74-10.4-.22-.9-.48-1.97-.74-3.12-2.78.98-3.5-3.3-4.02-4.54-.57-1.36-1.32-1.49-2.07-4.5-.51-2,.36-3.32.01-4.61-.25-.87-.36-3.32.75-4.16.12-.09.26-.14.42-.18-1.65-6.27-2.7-16.5.74-24.33,1.48-3.39,3.32-6.12,5.25-8.28,4.57-5.57,12.09-9.21,20.61-9.21s16.05,3.65,20.6,9.21c1.93,2.17,3.77,4.9,5.25,8.28,3.44,7.83,2.39,18.06.74,24.33.16.04.3.09.42.18,1.11.84,1,3.29.75,4.16-.35,1.29.52,2.61.01,4.61-.75,3.01-1.5,3.14-2.07,4.5-.52,1.24-1.24,5.52-4.02,4.54-.26,1.15-.52,2.22-.74,3.12-1.23,5.03-3.2,8.05-5.74,10.4.19,5.13.64,12.63,1.75,15.33,2.65,6.39,7.04,8.95,12.37,11,3.59,1.39,11.74,2.13,15.4,2.8,4.29.71,8.33,1.34,11.56,2.56,1.08.4,2.87,1.29,2.87,1.29v.02c2.2.91,4.49,3.67,6.85,10.53,3.18,9.2,7.79,70.25,8.29,76.91.39,5.34,1.43,15.47,1.91,16.81.28.75.55,1.49.82,2.23,4.76,12.98,9.28,24.78,10.64,34.16.38,2.61.73,5.03,1.06,7.32,1.63,11.35,2.79,19.43,4.54,30.31.92,5.75,2.59,6.7,2.99,9.75.05.44.05.88.06,1.43,0,.97,0,2.29.32,4.57,1.04,7.38,1.84,8.85,2.56,11.49,1.63,5.98,2.27,9.09,2.12,13.21Z"/>
  </g>
</svg>