<?xml version="1.0" encoding="UTF-8"?>
<svg id="_레이어_2" data-name="레이어 2" xmlns="http://www.w3.org/2000/svg" viewBox="0 0 203.66 572.02">
  <defs>
    <style>
      .cls-1 {
        fill: #f3a9aa;
        stroke: #231815;
        stroke-miterlimit: 10;
      }
    </style>
  </defs>
  <g id="_레이어_1-2" data-name="레이어 1">
    <path class="cls-1" d="m45.54,105.54c3.23-1.21,7.28-1.8,11.56-2.55,3.66-.64,11.81-1.41,15.4-2.8,5.33-2.05,9.72-4.61,12.37-11.01,1.11-2.7,1.56-10.21,1.75-15.33-2.54-2.35-4.51-5.38-5.74-10.41-.22-.9-.48-1.98-.74-3.12-2.78.98-3.5-3.3-4.02-4.54-.57-1.37-1.32-1.5-2.07-4.5-.51-2.01.37-3.32.01-4.61-.24-.87-.36-3.32.75-4.16.12-.09.26-.14.42-.19-1.65-6.26-2.7-16.5.74-24.33,1.48-3.39,3.32-6.13,5.25-8.29,4.57-5.58,12.09-9.22,20.61-9.22s16.05,3.64,20.61,9.22c1.93,2.16,3.77,4.9,5.25,8.29,3.44,7.84,2.38,18.07.74,24.33.15.05.3.1.42.19,1.11.84.99,3.29.75,4.16-.36,1.29.52,2.6,0,4.61-.76,3-1.5,3.13-2.07,4.5-.52,1.24-1.24,5.52-4.02,4.54-.26,1.14-.52,2.22-.74,3.12-1.23,5.03-3.2,8.06-5.74,10.41.18,5.13.63,12.64,1.75,15.33,2.64,6.4,7.04,8.96,12.37,11.01,3.59,1.39,11.73,2.16,15.4,2.8,4.28.75,8.33,1.34,11.56,2.55,1.08.41,2.87,1.3,2.87,1.3v.02c2.2.91,4.49,3.66,6.85,10.54,3.17,9.21,7.79,70.28,8.29,76.94.39,5.34,1.42,15.47,1.91,16.81.27.75.54,1.49.82,2.23,4.81,12.97,9.28,24.79,10.64,34.18.37,2.61.72,5.03,1.05,7.32,1.64,11.36,2.8,19.43,4.54,30.33.92,5.75,2.61,6.7,2.99,9.76.05.44.05.88.05,1.42,0,.98,0,2.3.33,4.58,1.04,7.38,1.84,8.86,2.56,11.5,1.63,5.98,2.27,9.09,2.11,13.21-.21,5.43-1.51,8.04-3.9,10.68-1.23,1.36-2.45,3.06-4.37,4.89-2.72,2.59-3.1,2.72-4.21,1.26-1.45-1.9.4-4.5-.26-9.21-.91-6.46-2.38-8.27-2.86-16.16-.07-1.19-.78,5.28-3.18,7.65-1.91,1.87-5.12,1.75-4.6.8,4.85-8.89.6-14.58,2.71-21.39.67-2.2,2.57-5.7,2.47-7.35,0-.14-.04-.3-.05-.45-.31-3.77-2.58-8.43-5.68-14.27-4.25-8.01-6.68-12.93-12.7-27.24-.39-.92-.79-1.88-1.21-2.89-7.5-17.97-8.74-33.88-9.04-35.79-.14-.86-.33-1.82-.55-2.82-1.96-8.92-7.02-22.76-10.3-34.48-.52-1.85-1.79-7.31-2.31-9.59-.15.51-.29,1.04-.44,1.55-.25,7.29.83,26.13,4.06,42.51,0,0,0,.01,0,.02.99,5.59,2.53,13.9,3.94,22.08,4.94,6.71,8.66,13.65,10.87,18.54.05.09.09.2.14.31.46,1.04.93,2.08,1.4,3.13.04.09.08.19.12.28,3.76,8.67,8.82,20.02,9.11,37.84,0,.11,0,.19.01.3.01.95.02,1.92.01,2.91,0,.1,0,.19,0,.28-.04,3.38-.24,6.97-.63,10.81-.1.93-.23,1.92-.4,2.97-2.14,13.17-11.44,37.74-15.03,49.81-8.44,28.37-13.22,45.4-13.84,55.4-.81,12.92,1.05,16.96,2.7,24.78,3.21,15.2.87,28.35-2.95,40.4-7.04,22.28-14.43,32.18-15.18,43.87-.19,2.92,2.12,4.13.85,7.82-.66,1.94-1.79,3.77-.09,8.05,5.75,14.47,13.22,18.26,12.34,23.55-.98,5.86-21.72,5.5-29.84,4.17-6.68-1.08-6.59-10.06-4.67-20.32.39-2.09.59-4.4.44-7.96-.08-1.77-.58-3.81-.84-6.28-.24-2.28.46-4.7.84-6.6.29-1.44.58-2.6.63-3.21,1.8-22.38,1.24-27.74-1.73-48.77-3-21.26,1.21-25.07.68-38.07-.31-7.71-2.78-15.57-3.44-23.91-.83-10.47.32-20.36,1.48-27.8,3.22-20.55,3.21-23.87,4.25-40.13,1.13-17.66-4.83-26.31-1.44-41.53-.78.27-2.71.38-4.63.38-1.91,0-3.85-.11-4.63-.38,3.4,15.22-2.56,23.87-1.44,41.53,1.05,16.25,1.03,19.57,4.25,40.13,1.17,7.44,2.31,17.33,1.48,27.8-.66,8.34-3.12,16.2-3.44,23.91-.53,12.99,3.68,16.8.68,38.07-2.97,21.03-3.53,26.39-1.73,48.77.05.61.34,1.77.63,3.21.38,1.9,1.08,4.32.84,6.6-.27,2.47-.76,4.51-.84,6.28-.15,3.56.05,5.87.44,7.96,1.93,10.27,2.02,19.24-4.67,20.32-8.11,1.33-28.86,1.69-29.83-4.17-.88-5.29,6.59-9.08,12.34-23.55,1.7-4.29.58-6.12-.09-8.05-1.27-3.69,1.04-4.9.86-7.82-.75-11.69-8.14-21.59-15.19-43.87-3.81-12.06-6.15-25.2-2.95-40.4,1.65-7.83,3.51-11.87,2.7-24.78-.62-10-5.4-27.03-13.84-55.4-3.8-12.77-13.98-39.49-15.35-52.02-.56-5.04-.75-9.68-.73-13.95,0-.11,0-.19,0-.3.13-20.11,6.3-32.12,10.25-41.2.04-.11.08-.21.13-.3,2.09-4.77,5.74-11.78,10.68-18.63.22-1.24.44-2.47.68-3.69,1.41-7.11,2.96-14.21,3.85-19.18,0,0,0-.02,0-.02,3.27-16.48,4.2-35.6,3.95-42.88-.14-.28-.26-.54-.41-.77-.54,2.37-1.72,7.44-2.22,9.2-1.64,5.86-3.74,12.25-5.66,18.3-1.92,6.04-3.68,11.72-4.65,16.18-.22,1-.41,1.96-.54,2.82-.29,1.91-1.54,17.81-9.04,35.79-.42,1.01-.82,1.97-1.21,2.89-6.01,14.31-8.45,19.22-12.7,27.24-3.1,5.84-5.38,10.49-5.68,14.27-.01.15-.04.31-.05.45-.1,1.65,1.79,5.15,2.47,7.35,2.1,6.81-2.15,12.51,2.7,21.39.52.95-2.69,1.07-4.6-.8-2.4-2.37-3.11-8.84-3.18-7.65-.48,7.9-1.95,9.71-2.86,16.16-.66,4.71,1.19,7.31-.26,9.21-1.11,1.46-1.49,1.34-4.22-1.26-1.91-1.82-3.13-3.52-4.37-4.89-2.39-2.63-3.69-5.25-3.9-10.68-.15-4.13.49-7.24,2.12-13.21.72-2.64,1.52-4.12,2.56-11.5.32-2.28.31-3.6.32-4.58,0-.54,0-.98.06-1.42.37-3.05,2.07-4.01,2.99-9.76,1.75-10.89,2.91-18.96,4.54-30.33.33-2.29.68-4.71,1.06-7.32,1.36-9.39,5.89-21.19,10.64-34.18.27-.74.54-1.48.82-2.23.49-1.34,1.52-11.48,1.91-16.81.5-6.66,5.12-67.73,8.29-76.94,2.37-6.87,4.66-9.63,6.85-10.54v-.02s1.79-.89,2.87-1.3Z"/>
  </g>
</svg>