<?xml version="1.0" encoding="UTF-8"?>
<svg id="_레이어_2" data-name="레이어 2" xmlns="http://www.w3.org/2000/svg" viewBox="0 0 203.66 571.64">
  <defs>
    <style>
      .cls-1 {
        fill: #f3a9aa;
        stroke: #231815;
        stroke-miterlimit: 10;
      }
    </style>
  </defs>
  <g id="_레이어_1-2" data-name="레이어 1">
    <path class="cls-1" d="m45.54,105.53c3.23-1.21,7.28-1.81,11.56-2.55,3.66-.64,11.81-1.41,15.4-2.8,5.33-2.05,9.72-4.61,12.37-11,1.11-2.7,1.56-10.2,1.75-15.33-2.54-2.35-4.51-5.38-5.73-10.4-.22-.9-.48-1.97-.74-3.12-2.78.98-3.5-3.3-4.02-4.54-.57-1.36-1.31-1.5-2.07-4.5-.51-2.01.37-3.32.01-4.61-.24-.87-.36-3.32.75-4.16.12-.09.26-.14.42-.18-1.65-6.26-2.7-16.5.74-24.33,1.48-3.39,3.32-6.12,5.25-8.29,4.57-5.57,12.09-9.21,20.61-9.22,8.52,0,16.04,3.64,20.61,9.22,1.93,2.16,3.77,4.9,5.25,8.29,3.44,7.84,2.38,18.07.74,24.33.15.05.3.09.42.18,1.11.84.99,3.29.75,4.16-.36,1.29.51,2.6,0,4.61-.76,3-1.5,3.13-2.07,4.5-.52,1.24-1.24,5.52-4.02,4.54-.26,1.14-.52,2.22-.74,3.12-1.23,5.03-3.2,8.06-5.74,10.4.18,5.13.63,12.63,1.75,15.33,2.64,6.4,7.04,8.96,12.37,11,3.59,1.39,11.73,2.16,15.4,2.8,4.28.75,8.33,1.34,11.56,2.55,1.08.4,2.87,1.29,2.87,1.29v.02c2.2.91,4.49,3.66,6.85,10.53,3.17,9.21,7.79,70.27,8.29,76.93.39,5.34,1.42,15.47,1.91,16.81.27.75.55,1.49.82,2.23,4.78,12.97,9.28,24.79,10.64,34.17.37,2.61.72,5.03,1.05,7.32,1.63,11.36,2.79,19.43,4.54,30.32.92,5.75,2.61,6.7,2.99,9.75.05.44.05.88.05,1.42,0,.97,0,2.29.32,4.57,1.04,7.38,1.84,8.86,2.56,11.49,1.63,5.98,2.27,9.09,2.11,13.21-.21,5.43-1.5,8.05-3.9,10.68-1.23,1.36-2.45,3.05-4.37,4.88-2.72,2.59-3.1,2.72-4.21,1.26-1.45-1.9.4-4.5-.26-9.21-.91-6.46-2.38-8.27-2.86-16.16-.07-1.19-.78,5.28-3.18,7.65-1.91,1.87-5.12,1.75-4.6.8,4.85-8.89.6-14.58,2.7-21.39.67-2.2,2.57-5.7,2.47-7.35,0-.14-.04-.3-.05-.44-.3-3.77-2.58-8.43-5.68-14.27-4.25-8.01-6.68-12.92-12.7-27.23-.39-.92-.79-1.88-1.21-2.89-7.5-17.97-8.74-33.87-9.04-35.78-.13-.86-.32-1.82-.54-2.82-1.96-8.92-7.02-22.76-10.31-34.47-.52-1.84-1.78-7.31-2.31-9.58-.15.51-.3,1.03-.44,1.54-1.43,9.17-2.31,28.19,2.07,42.52,0,0,0,0,0,0,0,0,0,0,0,0,.01.04.02.09.03.13,1.45,5.3,1.77,11.96,3.1,20.07,1.76,10.71,1.64,13.74,2.96,21.84.22,1.33.45,2.67.7,4,2.98,8.58,6.46,19.84,6.6,36.95v.3c.02,4.19-.15,8.73-.58,13.66-1.1,12.51-9.22,39.23-12.25,51.99-6.74,28.37-10.56,45.4-11.06,55.4-.64,12.91.83,16.95,2.15,24.78,2.56,15.2.69,28.36-2.35,40.4-5.63,22.27-11.52,32.17-12.12,43.87-.15,2.91,1.69,4.13.68,7.83-.53,1.92-1.43,3.76-.07,8.04,4.59,14.47,10.55,18.27,9.85,23.56-.79,5.86-17.34,5.49-23.82,4.17-5.34-1.09-5.27-10.05-3.73-20.33.31-2.08.47-4.4.35-7.96-.06-1.75-.46-3.8-.67-6.28-.19-2.28.37-4.69.67-6.59.23-1.45.47-2.61.51-3.22,1.43-22.37.98-27.74-1.39-48.76-2.39-21.25.97-25.07.55-38.06-.25-7.71-2.22-15.57-2.75-23.91-.66-10.46.25-20.34,1.18-27.79,2.58-20.56,2.56-23.88,3.39-40.13.9-17.65-3.85-26.3-1.14-41.52-.63.26-2.17.37-3.7.37-1.53-.01-3.07-.11-3.7-.37,2.71,15.22-2.04,23.87-1.14,41.52.83,16.25.81,19.57,3.39,40.13.93,7.45,1.84,17.32,1.18,27.79-.53,8.34-2.5,16.2-2.75,23.91-.42,12.99,2.94,16.81.55,38.06-2.38,21.03-2.82,26.4-1.39,48.76.04.61.28,1.77.51,3.22.3,1.9.86,4.31.67,6.59-.21,2.48-.61,4.53-.67,6.28-.12,3.56.04,5.88.35,7.96,1.54,10.27,1.61,19.24-3.73,20.33-6.48,1.32-23.03,1.69-23.82-4.17-.7-5.29,5.27-9.09,9.85-23.56,1.36-4.28.46-6.12-.07-8.04-1.01-3.7.83-4.92.68-7.83-.6-11.69-6.49-21.6-12.12-43.87-3.04-12.04-4.91-25.2-2.35-40.4,1.32-7.83,2.8-11.86,2.15-24.78-.49-10-4.31-27.03-11.05-55.4-3.03-12.76-11.15-39.48-12.25-51.99-.43-4.94-.6-9.47-.58-13.66v-.3c.13-16.96,3.55-28.17,6.51-36.73.27-1.51.54-3.01.79-4.52,1.33-8.12,1.2-11.14,2.97-21.83,1.33-8.03,1.64-14.6,3.09-19.85.01-.06.02-.12.04-.17h0s0,0,0,0c4.5-14.5,3.28-34.05,1.83-43.19-.12-.04-.25-.04-.39,0-.56,2.45-1.66,7.14-2.13,8.81-1.64,5.86-3.74,12.25-5.66,18.3-1.92,6.03-3.68,11.72-4.65,16.18-.22,1-.41,1.96-.54,2.82-.29,1.91-1.54,17.81-9.04,35.78-.42,1.01-.82,1.97-1.21,2.89-6.01,14.31-8.45,19.22-12.7,27.23-3.1,5.84-5.38,10.5-5.68,14.27-.01.15-.04.3-.05.44-.1,1.65,1.79,5.15,2.47,7.35,2.1,6.81-2.15,12.5,2.7,21.39.52.95-2.69,1.07-4.6-.8-2.4-2.37-3.11-8.84-3.18-7.65-.48,7.9-1.95,9.7-2.86,16.16-.66,4.71,1.19,7.31-.26,9.21-1.11,1.46-1.49,1.33-4.22-1.26-1.91-1.83-3.13-3.52-4.37-4.88-2.39-2.63-3.69-5.25-3.9-10.68-.15-4.12.49-7.24,2.12-13.21.72-2.64,1.52-4.11,2.56-11.49.32-2.28.31-3.6.32-4.57,0-.54,0-.99.06-1.42.37-3.05,2.07-4.01,2.99-9.75,1.75-10.88,2.91-18.96,4.54-30.32.33-2.29.68-4.71,1.06-7.32,1.36-9.39,5.88-21.19,10.64-34.17.27-.74.54-1.48.82-2.23.49-1.34,1.52-11.47,1.91-16.81.5-6.66,5.12-67.72,8.29-76.93,2.37-6.87,4.66-9.63,6.85-10.53v-.02s1.79-.89,2.87-1.29Z"/>
  </g>
</svg>