<?xml version="1.0" encoding="UTF-8"?>
<svg id="_레이어_2" data-name="레이어 2" xmlns="http://www.w3.org/2000/svg" viewBox="0 0 203.67 571.74">
  <defs>
    <style>
      .cls-1 {
        fill: #f3a9aa;
        stroke: #231815;
        stroke-miterlimit: 10;
      }
    </style>
  </defs>
  <g id="_레이어_1-2" data-name="레이어 1">
    <path class="cls-1" d="m106.22,347.38c-.83,16.25-.81,19.57-3.39,40.13-.37,2.93-.73,6.24-1,9.81-.27-3.57-.63-6.88-1-9.81-2.58-20.56-2.56-23.88-3.39-40.13-.9-17.65,3.85-26.3,1.14-41.52.57.24,1.87.34,3.25.37,1.38-.03,2.68-.13,3.25-.37-2.71,15.22,2.04,23.87,1.14,41.52Zm94.82-34.94c-.72-2.64-1.52-4.12-2.56-11.5-.29-2.09-.32-3.37-.33-4.32,0-.08,0-.17,0-.24,0-.02,0-.03,0-.05,0-.52,0-.95-.05-1.38-.37-3.05-2.07-4.01-2.99-9.76-1.74-10.86-2.9-18.92-4.53-30.24,0-.03,0-.05-.01-.08-.13-.92-.27-1.86-.41-2.82-.21-1.45-.42-2.94-.65-4.51-1.36-9.39-5.84-21.21-10.64-34.18-.27-.74-.55-1.48-.82-2.23-.49-1.34-1.52-11.48-1.91-16.81-.5-6.66-5.12-67.73-8.29-76.94-2.37-6.87-4.66-9.63-6.85-10.54v-.02s-1.79-.89-2.87-1.3c-.79-.3-1.63-.55-2.5-.79-2.67-.72-5.71-1.21-8.89-1.74-.05,0-.11-.02-.16-.03-.05,0-.11-.02-.16-.03-3.21-.57-9.59-1.2-13.55-2.24-.63-.17-1.2-.34-1.68-.53-5.33-2.05-9.73-4.61-12.37-11.01-1.12-2.7-1.57-10.21-1.75-15.33,2.54-2.35,4.51-5.38,5.74-10.41.22-.9.48-1.98.74-3.12.34.12.66.16.94.14,2.01-.17,2.62-3.59,3.07-4.68.22-.52.46-.86.72-1.25.17-.25.34-.52.52-.88.27-.53.55-1.25.83-2.37.51-2.01-.37-3.32,0-4.61.24-.87.36-3.32-.75-4.16-.12-.09-.27-.14-.42-.19,1.64-6.26,2.7-16.5-.74-24.33-1.48-3.39-3.32-6.13-5.25-8.29-4.57-5.57-12.09-9.21-20.61-9.22h-.02c-8.52,0-16.04,3.64-20.61,9.22-1.93,2.16-3.77,4.9-5.25,8.29-3.44,7.84-2.38,18.07-.74,24.33-.15.05-.3.1-.42.19-1.11.84-.99,3.29-.75,4.16.36,1.29-.52,2.6,0,4.61.28,1.12.56,1.83.83,2.37.18.35.35.63.52.88.26.39.5.73.72,1.25.45,1.09,1.06,4.5,3.07,4.68.28.03.6-.01.94-.14.26,1.14.52,2.22.74,3.12,1.23,5.03,3.2,8.06,5.74,10.41-.18,5.13-.63,12.64-1.75,15.33-2.64,6.4-7.04,8.96-12.37,11.01-.48.19-1.05.36-1.68.53-3.96,1.04-10.34,1.67-13.55,2.24-.05,0-.11.02-.16.03-.06,0-.11.02-.16.03-3.18.53-6.22,1.01-8.89,1.74-.88.23-1.72.49-2.5.79-1.08.41-2.87,1.3-2.87,1.3v.02c-2.2.91-4.49,3.66-6.85,10.54-3.17,9.21-7.79,70.28-8.29,76.94-.39,5.34-1.42,15.47-1.91,16.81-.27.75-.55,1.49-.82,2.23-4.81,12.97-9.28,24.79-10.64,34.18-.22,1.57-.44,3.06-.65,4.51-.14.96-.27,1.9-.41,2.82,0,.03,0,.05-.01.08-1.63,11.32-2.79,19.38-4.53,30.24-.92,5.75-2.61,6.7-2.99,9.76-.05.43-.05.86-.05,1.38,0,.02,0,.03,0,.05,0,.08,0,.16,0,.24,0,.95-.03,2.23-.33,4.32-1.04,7.38-1.84,8.86-2.56,11.5-1.58,5.78-2.22,8.89-2.12,12.82,0,.13,0,.26,0,.4.21,5.44,1.51,8.05,3.9,10.69.51.56,1.03,1.19,1.59,1.85.67.8,1.41,1.65,2.3,2.55.16.16.31.32.48.48,2.73,2.6,3.11,2.73,4.22,1.26,1.45-1.9-.4-4.5.26-9.21.91-6.46,2.38-8.27,2.86-16.16,0-.07.01-.11.02-.13.16-.13.93,5.58,3.15,7.78.36.35.76.63,1.18.85,1.42.75,2.98.76,3.38.36.11-.11.14-.25.05-.41-.28-.51-.52-1.01-.74-1.5-3.63-8.04.02-13.47-1.95-19.89-.68-2.2-2.56-5.7-2.47-7.35,0-.14.04-.29.05-.44.35-3.77,2.58-8.44,5.68-14.27,4.25-8.01,6.68-12.93,12.7-27.23.39-.93.79-1.89,1.21-2.9,7.5-17.97,8.74-33.88,9.04-35.79.07-.45.15-.93.25-1.43.09-.45.18-.91.29-1.39.32-1.47.74-3.08,1.2-4.78,2.38-8.64,6.36-19.91,9.11-29.69.52-1.84,1.77-7.29,2.31-9.57.15.5.29,1.02.43,1.53.24,7.3-.94,26.22-4.93,42.6-1.35,5.9-1.8,13.3-2.68,21.69-.65,6.18,1.72,16.57,1.71,16.61-.26.9-.58,1.98-1,3.44-3.17,9.1-7.92,21.12-8.08,41.2v.3c-.02,4.19.15,8.72.58,13.66,1.1,12.5,9.22,39.23,12.25,52,6.74,28.38,10.56,45.4,11.05,55.4.65,12.93-.83,16.96-2.15,24.79-2.56,15.2-.69,28.35,2.35,40.4,5.63,22.27,11.52,32.18,12.12,43.86.15,2.92-1.69,4.14-.68,7.84.53,1.92,1.43,3.76.07,8.04-4.59,14.47-10.55,18.26-9.85,23.55.79,5.87,17.34,5.5,23.82,4.18,5.34-1.09,5.27-10.06,3.73-20.33-.31-2.08-.47-4.4-.35-7.96.06-1.76.46-3.8.67-6.28.19-2.28-.37-4.69-.67-6.6-.23-1.44-.47-2.6-.51-3.21-1.43-22.37-.99-27.74,1.39-48.77,2.39-21.25-.97-25.07-.55-38.07.23-7.01,1.87-14.15,2.57-21.66.7,7.51,2.34,14.65,2.57,21.66.42,12.99-2.94,16.81-.55,38.07,2.38,21.03,2.82,26.4,1.39,48.77-.04.61-.28,1.77-.51,3.21-.3,1.91-.86,4.32-.67,6.6.21,2.48.61,4.52.67,6.28.12,3.56-.04,5.88-.35,7.96-1.54,10.28-1.61,19.24,3.73,20.33,6.48,1.32,23.03,1.69,23.82-4.18.7-5.29-5.27-9.08-9.85-23.55-1.36-4.28-.46-6.12.07-8.04,1.01-3.7-.83-4.92-.68-7.84.6-11.69,6.49-21.59,12.12-43.86,3.04-12.05,4.91-25.2,2.35-40.4-1.32-7.83-2.8-11.87-2.15-24.79.49-10,4.31-27.02,11.05-55.4,3.03-12.77,11.15-39.49,12.25-52,.43-4.95.6-9.48.58-13.66v-.3c-.16-20.08-4.92-32.11-8.08-41.2-.42-1.46-.74-2.54-1-3.44-.01-.04,2.36-10.43,1.71-16.61-.88-8.39-1.33-15.78-2.68-21.69-3.99-16.38-5.18-35.3-4.93-42.6.14-.51.28-1.03.43-1.53.53,2.29,1.79,7.74,2.31,9.57,2.75,9.79,6.73,21.05,9.11,29.69.47,1.7.88,3.32,1.2,4.78.1.47.2.94.29,1.39.1.5.18.98.25,1.43.3,1.91,1.54,17.81,9.04,35.79.42,1.01.82,1.97,1.21,2.9,6.01,14.3,8.45,19.22,12.7,27.23,3.1,5.84,5.33,10.51,5.68,14.27,0,.15.04.3.05.44.09,1.65-1.79,5.15-2.47,7.35-1.98,6.41,1.67,11.85-1.95,19.89-.22.49-.46.99-.74,1.5-.09.16-.06.3.05.41.4.4,1.96.39,3.38-.36.42-.22.82-.5,1.18-.85,2.22-2.2,2.99-7.91,3.15-7.78,0,.02.02.06.02.13.48,7.9,1.95,9.71,2.86,16.16.66,4.71-1.19,7.31.26,9.21,1.11,1.47,1.49,1.34,4.22-1.26.17-.16.32-.32.48-.48.89-.9,1.63-1.75,2.3-2.55.56-.66,1.07-1.29,1.59-1.85,2.39-2.64,3.69-5.25,3.9-10.69,0-.13,0-.26,0-.4.1-3.93-.55-7.04-2.12-12.82Z"/>
  </g>
</svg>