<?xml version="1.0" encoding="UTF-8"?>
<svg id="_레이어_2" data-name="레이어 2" xmlns="http://www.w3.org/2000/svg" viewBox="0 0 203.67 571.66">
  <defs>
    <style>
      .cls-1 {
        fill: #f3a9aa;
        stroke: #231815;
        stroke-miterlimit: 10;
      }
    </style>
  </defs>
  <g id="_레이어_1-2" data-name="레이어 1">
    <path class="cls-1" d="m99.67,305.94c.61.16,1.7.21,2.81.21,1.11-.04,2.13-.13,2.6-.33-1.35,7.61-.84,13.57-.11,19.84.74,6.27,1.7,12.85,1.25,21.68-.41,8.12-.62,13.01-1.04,18.44-.42,5.43-1.06,11.4-2.35,21.69-.37,2.93-.73,6.24-1,9.8-.18-2.38-.42-7.57-.67-9.52-1.72-13.71-1.71-28.11-2.26-38.95-.6-11.77,2.56-32.71.76-42.86ZM45.54,105.53c-1.08.4-2.87,1.29-2.87,1.29v.02c-2.2.91-4.49,3.66-6.85,10.53-3.17,9.21-7.79,70.27-8.29,76.93-.39,5.34-1.42,15.47-1.91,16.81-.27.75-.55,1.49-.82,2.23-4.79,12.97-9.28,24.79-10.64,34.17-.22,1.57-.44,3.06-.65,4.51-.14.96-.28,1.9-.41,2.82,0,.03,0,.05-.01.08-1.58,11.32-2.78,19.38-4.53,30.23-.92,5.75-2.61,6.7-2.99,9.75-.05.43-.05.86-.05,1.39,0,.34-.04.78-.11,1.56,0,.08,0,.16-.01.24-.07,1.21-.18,2.52-.45,4.31-.93,6.15-1.65,7.57-2.31,10-1.59,5.85-2.24,8.96-2.12,12.95,0,.13,0,.27.01.4.23,5.34,1.52,7.93,3.89,10.55.76.83,1.5,1.81,2.51,2.86,1.35,1.4,1.99,1.92,2.94,2.12.16.03.3.07.43.13,2.18.9,1.79.33,2.79-2.04,1.09-2.59.17-5.03.81-9.12.42-2.68.86-4.76,1.32-7.21.37-1.96,1.19-1.36,1.96-3.42.01-.04.02-.06.04-.07.74.52,2.18,4.43,3.61,5.43.15.1.36.12.57.13.77.06,1.62-.27,1.85-.87.05-.13.07-.26,0-.42-.23-.53-.42-1.04-.6-1.55-1.96-5.67-.58-10.07-1.03-14.66-.19-1.88-.92-4.18-1.24-5.93-.02-.13-.04-.27-.07-.41-.43-2.15-1.26-5.03-.88-6.94.03-.13.06-.27.08-.41.41-2.18,1.4-4.61,2.7-7.36,1.03-2.15,2.15-4.34,3.37-6.68,3.21-6.15,5.55-10.97,9.72-20.7.4-.93.81-1.89,1.24-2.91.49-1.15.98-2.35,1.49-3.58.38-.95.77-1.91,1.16-2.91,5.05-12.92,6.87-24.35,7.64-29.33.16-1.01.32-1.98.46-2.88.25-1.58.42-2.77.56-3.46.09-.45.18-.92.29-1.41.1-.44.2-.9.32-1.37.36-1.47.79-3.07,1.26-4.74,2.06-7.2,5.03-15.91,7.44-24,.49-1.62,1.04-3.63,1.55-5.56.28-1.08.66-2.65,1-4.1.48-.8.99-1.66,1.36-1.87.14.5.29,1.02.42,1.53,1.27,8.7,1.57,25.22-2.77,38.5-.23.86-.5,2.12-.81,3.6-1.16,5.5-1.78,13.23-2.88,20.81-1.17,8.09.39,15.01-.03,16.52-.24.84-.53,1.84-.91,3.15-3.17,9.09-7.92,21.12-8.08,41.2v.3c-.02,4.19.15,8.72.58,13.66,1.1,12.5,9.22,39.23,12.25,51.99,6.74,28.37,10.56,45.4,11.05,55.39.65,12.92-.83,16.96-2.15,24.79-2.56,15.2-.69,28.35,2.35,40.4,5.63,22.27,11.52,32.17,12.12,43.86.15,2.92-1.69,4.14-.68,7.84.53,1.92,1.43,3.76.07,8.04-4.59,14.47-10.55,18.26-9.85,23.55.79,5.87,17.34,5.5,23.82,4.18,5.34-1.09,5.27-10.05,3.73-20.33-.31-2.08-.47-4.4-.35-7.96.06-1.76.46-3.8.67-6.28.19-2.28-.37-4.69-.67-6.6-.23-1.44-.47-2.6-.51-3.21-1.43-22.37-.99-27.74,1.39-48.76,2.39-21.25-.97-25.07-.55-38.06.23-7.01,1.87-14.15,2.56-21.66.7,7.51,2.34,14.65,2.57,21.66.42,12.99-2.94,16.81-.55,38.06,2.38,21.03,2.82,26.4,1.39,48.76-.04.61-.28,1.77-.51,3.21-.3,1.91-.86,4.32-.67,6.6.21,2.48.61,4.52.67,6.28.12,3.56-.04,5.88-.35,7.96-1.54,10.27-1.61,19.24,3.73,20.33,6.48,1.32,23.03,1.69,23.82-4.18.7-5.29-5.27-9.08-9.85-23.55-1.36-4.28-.46-6.12.07-8.04,1.01-3.7-.83-4.92-.68-7.84.6-11.68,6.49-21.59,12.12-43.86,3.04-12.05,4.91-25.2,2.35-40.4-1.32-7.83-2.8-11.86-2.15-24.79.49-9.99,4.31-27.02,11.05-55.39,3.03-12.76,11.15-39.49,12.25-51.99.43-4.95.6-9.47.58-13.66v-.3c-.16-20.08-4.92-32.1-8.08-41.2-.42-1.46-.74-2.54-1-3.44-.36-1.23,1.11-8.41-.04-16.22-1.25-8.46-1.97-17.91-3.03-22-5.2-14.46-4.12-34.02-2.68-43.19.13-.2.26-.37.41-.51.56,2.4,1.7,7.34,2.19,9.06,2.75,9.79,6.73,21.05,9.11,29.69.47,1.7.88,3.31,1.2,4.78.14.65.27,1.28.37,1.86.07.41.15.89.23,1.42.38,2.81,1.8,18.11,8.98,35.31.42,1.01.82,1.97,1.21,2.9,6.01,14.3,8.45,19.22,12.7,27.23,3.1,5.84,5.38,10.5,5.68,14.27.01.15.04.3.05.44.1,1.65-1.79,5.15-2.47,7.35-1.98,6.41,1.67,11.84-1.95,19.88-.22.49-.47.99-.75,1.51-.09.16-.06.29.03.4.38.41,1.94.41,3.37-.34.42-.22.83-.5,1.2-.86,2.28-2.25,3.03-8.22,3.16-7.73,0,.02.01.06.02.12.48,7.87,1.95,9.68,2.86,16.13.66,4.71-1.18,7.3.26,9.21,1.11,1.47,1.49,1.34,4.22-1.26.17-.16.33-.32.48-.48.89-.9,1.63-1.76,2.3-2.55.56-.66,1.07-1.28,1.58-1.85,2.39-2.64,3.69-5.25,3.9-10.68,0-.13,0-.26.01-.38.1-3.94-.55-7.04-2.12-12.83-.72-2.64-1.52-4.11-2.56-11.49-.29-2.1-.32-3.38-.32-4.33,0-.08,0-.16,0-.23,0-.02,0-.04,0-.05,0-.52,0-.95-.05-1.38-.37-3.05-2.07-4.01-2.99-9.75-1.75-10.87-2.95-18.93-4.53-30.26,0-.03,0-.05-.01-.07-.13-.92-.27-1.86-.41-2.82-.21-1.44-.42-2.93-.65-4.49-1.36-9.38-5.85-21.2-10.64-34.17-.27-.74-.55-1.48-.82-2.23-.49-1.34-1.52-11.47-1.91-16.81-.5-6.66-5.12-67.72-8.29-76.93-2.37-6.87-4.66-9.62-6.85-10.53v-.02s-1.79-.89-2.87-1.29c-.79-.3-1.62-.55-2.5-.79-2.69-.73-5.76-1.19-8.95-1.75-.05,0-.1-.02-.15-.03-.05,0-.1-.02-.15-.02-3.23-.57-9.61-1.2-13.56-2.25-.61-.16-1.17-.34-1.65-.52-5.33-2.05-9.73-4.61-12.37-11-1.11-2.7-1.56-10.2-1.75-15.33,2.54-2.35,4.51-5.38,5.74-10.4.22-.9.48-1.97.74-3.12.35.12.66.16.95.14,2.01-.18,2.62-3.59,3.07-4.67.21-.51.45-.85.71-1.24.17-.25.34-.52.52-.87.27-.54.56-1.26.84-2.39.51-2-.37-3.32,0-4.61.24-.87.36-3.32-.75-4.16-.12-.09-.26-.14-.42-.18,1.64-6.26,2.7-16.5-.74-24.33-1.48-3.39-3.32-6.12-5.25-8.29-4.57-5.57-12.09-9.21-20.61-9.22,0,0,0,0,0,0s0,0,0,0,0,0,0,0,0,0,0,0c-8.52,0-16.04,3.65-20.6,9.22-1.93,2.16-3.77,4.9-5.25,8.29-3.44,7.84-2.38,18.07-.74,24.33-.15.04-.3.09-.42.18-1.11.84-.99,3.29-.75,4.16.36,1.29-.52,2.6,0,4.61.28,1.12.56,1.84.83,2.37.18.36.36.64.53.89.25.38.49.72.71,1.23.45,1.09,1.06,4.5,3.07,4.67.29.03.6-.01.95-.14.26,1.14.52,2.22.74,3.12,1.23,5.03,3.2,8.06,5.74,10.4-.18,5.13-.63,12.63-1.75,15.33-2.64,6.4-7.04,8.96-12.37,11-.48.19-1.05.36-1.67.53-3.98,1.05-10.42,1.69-13.62,2.26-.05,0-.11.02-.17.03-.06,0-.11.02-.17.03-3.16.54-6.19,1.01-8.85,1.73-.87.23-1.7.49-2.48.78Z"/>
  </g>
</svg>