<?xml version="1.0" encoding="UTF-8"?>
<svg id="_레이어_2" data-name="레이어 2" xmlns="http://www.w3.org/2000/svg" viewBox="0 0 203.66 571.58">
  <defs>
    <style>
      .cls-1 {
        fill: #f3a9aa;
        stroke: #231815;
        stroke-miterlimit: 10;
      }
    </style>
  </defs>
  <g id="_레이어_1-2" data-name="레이어 1">
    <path class="cls-1" d="m100.75,306.02c.65.07,1.53.08,2.37.05.84-.05,1.58-.14,1.96-.3-1.35,7.61-.84,13.57-.11,19.84.74,6.27,1.7,12.84,1.25,21.67-.41,8.12-.62,13.01-1.04,18.44-.42,5.43-1.06,11.4-2.35,21.68-.37,2.93-.73,6.24-1,9.8-.09-1.19-.21-8.26-.33-9.24-.86-6.85-.85-32.34-1.13-37.76-.3-5.88,1.28-39.12.38-44.19ZM45.54,105.52c-1.08.4-2.87,1.29-2.87,1.29v.02c-2.2.91-4.49,3.67-6.85,10.53-3.17,9.2-7.79,70.26-8.29,76.92-.39,5.34-1.42,15.47-1.91,16.81-.27.75-.55,1.49-.82,2.23-4.77,12.98-9.28,24.78-10.64,34.17-.23,1.57-.44,3.06-.65,4.51-.14.96-.27,1.9-.41,2.82,0,.03,0,.05-.01.08-1.62,11.31-2.78,19.38-4.53,30.23-.92,5.75-2.61,6.7-2.99,9.75-.05.44-.05.87-.06,1.41,0,.65-.04,1.53-.21,3.06,0,.08-.01.15-.02.23-.15,1.46-.33,2.82-.57,4.29-.81,4.92-1.47,6.29-2.07,8.5-1.61,5.91-2.25,9.02-2.12,13.08,0,.14,0,.27.02.41.24,5.25,1.54,7.82,3.88,10.41,1,1.09,1.98,2.43,3.44,3.87,2.04,2,2.49,2.29,3.58,1.69.14-.08.27-.14.38-.22,1.43-.37.54-2.02,1.36-5.34.8-3.24.73-5.56,1.36-9.04.41-2.28.77-4.41,1.13-7.2.2-1.58.88,1.92,2.57,2.11.02,0,.03,0,.05,0,1.33,1.16,3.67,2.97,4.07,3.08-.04-.18-.07-.38-.05-.59.07-.54.32-1.26.33-2.11,0-.13,0-.28-.06-.43-.18-.54-.32-1.07-.45-1.6-1.32-5.53.26-9.91-.74-14.66-.43-2.04-1.75-4.94-1.85-6.64,0-.14,0-.28,0-.42-.13-2.09-.14-4.67.58-6.93.04-.12.08-.25.12-.38.67-2.15,1.76-4.53,3.09-7.18,1.14-2.25,2.24-4.38,3.39-6.62,2.9-5.64,5.3-10.76,9.51-20.68.39-.93.8-1.89,1.22-2.91.5-1.18.98-2.38,1.46-3.59.38-.97.75-1.94,1.11-2.92,5.18-14.04,6.57-25.96,7.09-29.29.14-.94.32-1.9.5-2.85.25-1.32.47-2.47.69-3.41.11-.45.21-.91.33-1.38.11-.44.22-.89.34-1.34.39-1.48.84-3.05,1.32-4.69,2.18-7.36,5.13-16.01,7.41-23.89.39-1.34.94-3.49,1.46-5.55.33-1.33.69-2.87.97-4.07.49.42,1,.88,1.44,1.71.14.5.28,1.01.42,1.52,2.32,10.63,3.92,26.94-1.44,38.03-.19.5-.45,1.8-.79,3.57-.97,5.1-1.88,13.15-3.08,19.93-1.77,9.99-.95,13.46-1.78,16.42-.22.78-.48,1.69-.82,2.85-3.17,9.09-7.92,21.12-8.08,41.19v.3c-.02,4.19.15,8.71.58,13.66,1.1,12.5,9.22,39.22,12.25,51.99,6.74,28.37,10.56,45.39,11.05,55.38.65,12.92-.83,16.96-2.15,24.78-2.56,15.2-.69,28.34,2.35,40.39,5.63,22.27,11.52,32.17,12.12,43.85.15,2.92-1.69,4.14-.68,7.83.53,1.92,1.43,3.76.07,8.03-4.59,14.47-10.55,18.26-9.85,23.54.79,5.87,17.34,5.5,23.82,4.18,5.34-1.09,5.27-10.05,3.73-20.33-.31-2.08-.47-4.4-.35-7.95.06-1.76.46-3.8.67-6.28.19-2.28-.37-4.69-.67-6.6-.23-1.44-.47-2.6-.51-3.21-1.43-22.36-.99-27.73,1.39-48.76,2.39-21.25-.97-25.06-.55-38.05.23-7.01,1.87-14.15,2.56-21.66.7,7.5,2.34,14.65,2.57,21.66.42,12.99-2.94,16.81-.55,38.05,2.38,21.03,2.82,26.39,1.39,48.76-.04.61-.28,1.77-.51,3.21-.3,1.91-.86,4.32-.67,6.6.21,2.48.61,4.52.67,6.28.12,3.56-.04,5.88-.35,7.95-1.54,10.27-1.61,19.24,3.73,20.33,6.48,1.32,23.03,1.69,23.82-4.18.7-5.29-5.27-9.07-9.85-23.54-1.36-4.28-.46-6.12.07-8.03,1.01-3.7-.83-4.92-.68-7.83.6-11.68,6.49-21.59,12.12-43.85,3.04-12.05,4.91-25.19,2.35-40.39-1.32-7.82-2.8-11.86-2.15-24.78.49-9.99,4.31-27.01,11.05-55.38,3.03-12.76,11.15-39.48,12.25-51.99.43-4.95.6-9.47.58-13.66v-.3c-.16-20.08-4.92-32.1-8.08-41.19-.42-1.46-.74-2.54-1-3.44-.7-2.42-.09-6.4-1.8-15.82-1.55-8.53-2.61-20.04-3.39-22.31-6.41-12.55-3.07-32.75-.43-43.77.11.11.24.29.38.51.58,2.51,1.61,6.94,2.07,8.56,2.75,9.79,6.73,21.05,9.11,29.7.47,1.7.88,3.3,1.2,4.77.18.82.33,1.62.46,2.34.06.33.12.81.2,1.41.47,3.72,2.07,18.41,8.93,34.84.42,1.01.82,1.97,1.21,2.9,6.01,14.3,8.45,19.22,12.7,27.22,3.1,5.84,5.38,10.5,5.68,14.27.01.15.04.3.05.44.1,1.65-1.79,5.15-2.47,7.35-1.98,6.41,1.67,11.84-1.95,19.87-.22.49-.47,1-.75,1.51-.08.15-.07.28.02.39.36.42,1.93.42,3.36-.32.43-.22.85-.51,1.21-.87,2.34-2.31,3.07-8.52,3.17-7.69,0,.03,0,.06.01.11.48,7.84,1.95,9.66,2.85,16.09.66,4.71-1.18,7.3.26,9.2,1.11,1.47,1.49,1.34,4.22-1.26.17-.16.33-.32.49-.48.9-.9,1.63-1.76,2.3-2.56.55-.66,1.06-1.28,1.58-1.84,2.39-2.64,3.69-5.25,3.9-10.68,0-.13,0-.25.01-.37.1-3.94-.55-7.04-2.13-12.84-.72-2.64-1.52-4.11-2.56-11.49-.3-2.11-.32-3.39-.32-4.34,0-.08,0-.15,0-.22,0-.02,0-.04,0-.06,0-.52,0-.95-.06-1.37-.37-3.05-2.07-4.01-2.99-9.75-1.75-10.87-2.93-18.94-4.53-30.28,0-.02,0-.05-.01-.07-.13-.92-.27-1.86-.41-2.81-.21-1.43-.42-2.91-.64-4.46-1.36-9.38-5.87-21.19-10.64-34.17-.27-.74-.55-1.48-.82-2.23-.49-1.34-1.52-11.47-1.91-16.81-.5-6.66-5.12-67.71-8.29-76.92-2.37-6.87-4.66-9.62-6.85-10.53v-.02s-1.79-.89-2.87-1.29c-.78-.3-1.62-.56-2.49-.79-2.7-.73-5.8-1.2-9.02-1.76-.04,0-.09-.02-.13-.02-.04,0-.09-.02-.13-.02-3.25-.57-9.64-1.2-13.57-2.25-.6-.16-1.14-.33-1.61-.51-5.33-2.05-9.72-4.61-12.37-11-1.11-2.7-1.56-10.2-1.75-15.33,2.54-2.35,4.51-5.38,5.74-10.4.22-.9.48-1.97.74-3.12.35.12.66.16.95.14,2-.18,2.61-3.59,3.07-4.67.21-.51.45-.85.7-1.23.17-.25.34-.52.52-.86.28-.54.56-1.26.85-2.41.51-2-.37-3.32-.01-4.61.24-.87.36-3.32-.75-4.16-.12-.09-.26-.14-.42-.18,1.65-6.26,2.7-16.5-.74-24.33-1.48-3.39-3.32-6.12-5.25-8.28-4.57-5.56-12.09-9.21-20.61-9.21,0,0,0,0,0,0s0,0,0,0,0,0,0,0,0,0,0,0c-8.51.01-16.03,3.66-20.59,9.21-1.93,2.17-3.77,4.9-5.25,8.28-3.44,7.83-2.39,18.07-.74,24.33-.16.04-.3.09-.42.18-1.11.84-.99,3.29-.75,4.16.36,1.29-.52,2.61,0,4.61.28,1.12.56,1.84.83,2.38.18.37.37.64.54.9.25.38.49.71.7,1.22.45,1.08,1.06,4.49,3.07,4.67.29.03.6-.01.95-.14.26,1.15.52,2.22.74,3.12,1.23,5.03,3.2,8.05,5.74,10.4-.19,5.13-.64,12.63-1.75,15.33-2.65,6.4-7.04,8.95-12.37,11-.48.18-1.04.36-1.66.52-4,1.06-10.5,1.71-13.69,2.27-.06,0-.12.02-.17.03-.06,0-.12.02-.17.03-3.15.53-6.17,1.01-8.81,1.73-.86.23-1.68.49-2.46.78Z"/>
  </g>
</svg>