<?xml version="1.0" encoding="UTF-8"?>
<svg id="_레이어_2" data-name="레이어 2" xmlns="http://www.w3.org/2000/svg" viewBox="0 0 203.66 571.86">
  <defs>
    <style>
      .cls-1 {
        fill: #f3a9aa;
        stroke: #231815;
        stroke-miterlimit: 10;
      }
    </style>
  </defs>
  <g id="_레이어_1-2" data-name="레이어 1">
    <path class="cls-1" d="m45.54,105.52c3.23-1.22,7.28-1.81,11.56-2.56,3.66-.64,11.81-1.41,15.4-2.8,5.33-2.05,9.72-4.61,12.37-11,1.11-2.7,1.56-10.2,1.75-15.33-2.54-2.35-4.51-5.38-5.73-10.4-.22-.9-.48-1.97-.74-3.12-2.78.98-3.5-3.3-4.02-4.54-.57-1.36-1.31-1.49-2.07-4.5-.5-2,.37-3.32.01-4.61-.24-.87-.36-3.32.75-4.16.12-.09.26-.14.42-.18-1.65-6.26-2.7-16.5.74-24.33,1.48-3.39,3.32-6.12,5.25-8.28,4.57-5.56,12.09-9.21,20.61-9.21,8.52,0,16.04,3.65,20.61,9.21,1.93,2.17,3.77,4.9,5.25,8.28,3.44,7.83,2.39,18.07.74,24.33.16.04.3.09.42.18,1.11.84.99,3.29.75,4.16-.36,1.29.51,2.6,0,4.61-.76,3-1.5,3.14-2.07,4.5-.52,1.24-1.24,5.52-4.02,4.54-.26,1.15-.52,2.22-.74,3.12-1.23,5.03-3.2,8.05-5.74,10.4.19,5.13.64,12.63,1.75,15.33,2.65,6.4,7.04,8.95,12.37,11,3.59,1.39,11.73,2.16,15.4,2.8,4.28.75,8.33,1.34,11.56,2.56,1.08.4,2.87,1.29,2.87,1.29v.02c2.2.91,4.49,3.67,6.85,10.53,3.17,9.2,7.79,70.26,8.29,76.92.39,5.34,1.42,15.47,1.91,16.81.27.75.55,1.49.82,2.23,4.76,12.98,9.28,24.78,10.64,34.17.38,2.61.73,5.03,1.06,7.32,1.63,11.36,2.79,19.43,4.54,30.31.92,5.75,2.61,6.7,2.99,9.75.05.44.05.88.06,1.43,0,.97,0,2.29.32,4.57,1.04,7.38,1.84,8.85,2.56,11.49,1.63,5.98,2.27,9.09,2.12,13.21-.21,5.43-1.51,8.04-3.9,10.68-1.24,1.36-2.46,3.05-4.37,4.88-2.73,2.6-3.1,2.72-4.21,1.26-1.44-1.9.4-4.5-.26-9.2-.91-6.46-2.38-8.26-2.86-16.16-.07-1.19-.78,5.28-3.18,7.64-1.91,1.88-5.12,1.75-4.6.8,4.85-8.88.6-14.58,2.7-21.39.68-2.2,2.57-5.7,2.47-7.35,0-.14-.04-.29-.05-.44-.3-3.77-2.58-8.43-5.68-14.27-4.25-8.01-6.68-12.92-12.7-27.22-.39-.93-.79-1.89-1.21-2.9-7.5-17.97-8.74-33.87-9.04-35.78-.13-.86-.32-1.82-.54-2.82-1.96-8.91-7.02-22.76-10.31-34.47-.52-1.84-1.78-7.31-2.31-9.58-.15.5-.3,1.02-.45,1.54-2.61,11.07-5.48,30.48.73,42.75,0,.03.35.07.35.1.21,1.42,2.69,12.9,5.11,20.94.9,2.99,1.63,5.49,2.22,7.67,2.54,6.68,3.14,8.35,4.92,12.86,3.6,9.11,9.04,21.2,9.23,41.49.03,4.27-.16,8.9-.66,13.95-1.23,12.51-10.38,39.23-13.8,51.99-7.59,28.37-11.89,45.38-12.45,55.38-.72,12.91.95,16.96,2.43,24.77,2.89,15.21.78,28.35-2.65,40.39-6.33,22.28-12.98,32.17-13.65,43.86-.17,2.92,1.9,4.14.76,7.82-.59,1.92-1.6,3.76-.07,8.03,5.17,14.48,11.88,18.27,11.09,23.55-.88,5.86-19.52,5.49-26.83,4.17-6.01-1.08-5.93-10.05-4.2-20.32.35-2.08.53-4.41.4-7.96-.07-1.76-.52-3.81-.76-6.28-.22-2.28.42-4.69.76-6.6.26-1.44.52-2.6.57-3.21,1.73-22.37,1.11-27.73-1.56-48.77-2.7-21.25,1.08-25.05.61-38.05-.28-7.69-2.5-15.57-3.09-23.9-.75-10.46.28-20.34,1.33-27.77,2.9-20.56,2.88-23.87,3.82-40.13,1.01-17.64-4.35-26.29-1.29-41.51-.71.27-2.45.39-4.17.38-1.72-.01-3.46-.11-4.17-.38,3.06,15.22-2.3,23.87-1.28,41.51.93,16.26.92,19.58,3.81,40.13,1.05,7.43,2.08,17.31,1.33,27.77-.59,8.33-2.8,16.21-3.09,23.9-.47,13,3.31,16.81.61,38.05-2.67,21.04-3.09,26.39-1.55,48.77.04.61.31,1.77.57,3.21.34,1.91.97,4.32.75,6.6-.24,2.47-.68,4.52-.75,6.28-.13,3.55.04,5.88.39,7.96,1.73,10.26,1.81,19.24-4.2,20.32-7.29,1.32-25.95,1.69-26.83-4.17-.79-5.29,5.93-9.07,11.09-23.55,1.53-4.28.52-6.12-.07-8.03-1.14-3.69.93-4.91.76-7.82-.67-11.69-7.31-21.59-13.65-43.86-3.43-12.04-5.54-25.18-2.65-40.39,1.49-7.81,3.15-11.86,2.43-24.77-.56-10-4.86-27.01-12.45-55.38-3.42-12.76-12.56-39.48-13.8-51.99-.5-5.05-.69-9.68-.65-13.95.18-20.3,5.62-32.38,9.22-41.49,1.7-4.3,2.32-6.02,4.58-11.95.65-2.44,1.49-5.33,2.58-8.92,2.42-7.97,3.61-16.68,5.46-20.7,6.44-12.58,3.03-32.88.4-43.9-.11.19-.24.45-.38.77-.59,2.54-1.59,6.84-2.04,8.42-1.64,5.86-3.74,12.25-5.66,18.3-1.92,6.03-3.67,11.72-4.65,16.17-.22,1-.41,1.96-.54,2.82-.29,1.91-1.54,17.81-9.04,35.78-.42,1.01-.82,1.97-1.21,2.9-6.01,14.3-8.45,19.22-12.7,27.22-3.1,5.84-5.38,10.5-5.68,14.27-.01.15-.04.3-.05.44-.1,1.65,1.79,5.15,2.47,7.35,2.1,6.81-2.15,12.5,2.7,21.39.52.95-2.69,1.08-4.6-.8-2.4-2.37-3.11-8.83-3.18-7.64-.48,7.89-1.95,9.7-2.86,16.16-.66,4.71,1.19,7.3-.26,9.2-1.11,1.46-1.49,1.34-4.22-1.26-1.91-1.83-3.13-3.52-4.37-4.88-2.39-2.64-3.69-5.25-3.9-10.68-.15-4.12.49-7.23,2.12-13.21.72-2.64,1.52-4.11,2.56-11.49.32-2.28.31-3.6.32-4.57,0-.55,0-.99.06-1.43.37-3.05,2.07-4.01,2.99-9.75,1.75-10.88,2.91-18.96,4.54-30.31.33-2.3.68-4.71,1.06-7.32,1.36-9.38,5.89-21.19,10.64-34.17.27-.74.54-1.48.82-2.23.49-1.34,1.52-11.47,1.91-16.81.5-6.66,5.12-67.71,8.29-76.92,2.37-6.87,4.66-9.62,6.85-10.53v-.02s1.79-.89,2.87-1.29Z"/>
  </g>
</svg>