<?xml version="1.0" encoding="UTF-8"?>
<svg id="_레이어_2" data-name="레이어 2" xmlns="http://www.w3.org/2000/svg" viewBox="0 0 203.66 572.01">
  <defs>
    <style>
      .cls-1 {
        fill: #f3a9aa;
        stroke: #231815;
        stroke-miterlimit: 10;
      }
    </style>
  </defs>
  <g id="_레이어_1-2" data-name="레이어 1">
    <path class="cls-1" d="m45.54,105.53c3.23-1.21,7.28-1.81,11.56-2.55,3.66-.64,11.81-1.41,15.4-2.8,5.33-2.05,9.72-4.61,12.37-11,1.11-2.7,1.56-10.2,1.75-15.33-2.54-2.35-4.51-5.38-5.74-10.4-.22-.9-.48-1.97-.74-3.12-2.78.98-3.5-3.3-4.02-4.54-.57-1.36-1.31-1.5-2.07-4.5-.5-2.01.37-3.32.01-4.61-.24-.87-.36-3.32.75-4.16.12-.09.26-.14.42-.18-1.65-6.26-2.7-16.5.74-24.33,1.48-3.39,3.32-6.12,5.25-8.29,4.57-5.57,12.09-9.21,20.61-9.22,8.52,0,16.05,3.65,20.61,9.22,1.93,2.16,3.77,4.9,5.25,8.29,3.44,7.84,2.38,18.07.74,24.33.15.04.3.09.42.18,1.11.84.99,3.29.75,4.16-.36,1.29.52,2.6.01,4.61-.76,3-1.5,3.13-2.07,4.5-.52,1.24-1.24,5.52-4.02,4.54-.26,1.14-.52,2.22-.74,3.12-1.23,5.03-3.2,8.06-5.74,10.4.18,5.13.63,12.63,1.75,15.33,2.64,6.4,7.04,8.96,12.37,11,3.59,1.39,11.73,2.16,15.4,2.8,4.28.75,8.33,1.34,11.56,2.55,1.08.4,2.87,1.29,2.87,1.29v.02c2.2.91,4.49,3.66,6.85,10.53,3.17,9.21,7.79,70.27,8.29,76.93.39,5.34,1.42,15.47,1.91,16.81.27.75.55,1.49.82,2.23,4.79,12.97,9.28,24.79,10.64,34.17.37,2.61.72,5.03,1.05,7.32,1.63,11.36,2.79,19.43,4.54,30.32.92,5.75,2.61,6.7,2.99,9.75.05.44.05.88.06,1.42,0,.97,0,2.29.32,4.57,1.04,7.38,1.84,8.86,2.56,11.49,1.63,5.98,2.27,9.09,2.11,13.21-.21,5.43-1.5,8.05-3.9,10.68-1.23,1.36-2.45,3.05-4.37,4.88-2.72,2.59-3.1,2.72-4.21,1.26-1.45-1.9.4-4.5-.26-9.21-.91-6.46-2.38-8.27-2.86-16.16-.07-1.19-.78,5.28-3.18,7.65-1.91,1.87-5.12,1.75-4.6.8,4.85-8.89.6-14.58,2.7-21.39.67-2.2,2.57-5.7,2.47-7.35,0-.14-.04-.3-.05-.44-.31-3.77-2.58-8.43-5.68-14.27-4.25-8.01-6.68-12.92-12.7-27.23-.39-.92-.79-1.88-1.21-2.89-7.5-17.97-8.74-33.87-9.04-35.78-.13-.86-.32-1.82-.54-2.82-1.96-8.92-7.02-22.76-10.31-34.47-.52-1.84-1.78-7.31-2.31-9.58-.15.51-.3,1.03-.44,1.54-1.43,9.18-2.27,28.35,2.83,42.67,1.93,5.58,2.86,13.11,5,22.57,4.63,10.35,5.86,12.81,7.77,17.34.02.05.04.09.06.13.42.99.87,2.02,1.34,3.17.02.04.03.08.05.12,3.58,8.7,8.56,20.06,9.03,38.2,0,.02,0,.12,0,.15.02.95.03,1.91.03,2.89,0,.02,0,.12,0,.14-.01,3.43-.18,7.09-.54,11.01-.08.9-.19,1.85-.33,2.83-1.77,12.93-10.9,38.29-14.38,50.61-8.02,28.36-12.55,45.39-13.14,55.39-.76,12.91.99,16.96,2.56,24.78,3.04,15.21.82,28.35-2.8,40.4-6.69,22.27-13.7,32.17-14.42,43.87-.17,2.91,2.02,4.14.81,7.83-.63,1.92-1.69,3.76-.08,8.04,5.46,14.48,12.55,18.27,11.71,23.56-.93,5.86-20.62,5.49-28.33,4.17-6.34-1.09-6.26-10.05-4.43-20.33.37-2.07.56-4.4.42-7.95-.07-1.76-.55-3.81-.8-6.29-.23-2.27.44-4.68.8-6.59.27-1.45.55-2.61.6-3.21,1.78-22.37,1.17-27.75-1.64-48.77-2.85-21.25,1.14-25.07.64-38.06-.3-7.7-2.64-15.57-3.26-23.91-.79-10.46.29-20.34,1.4-27.78,3.06-20.56,3.04-23.88,4.03-40.14,1.07-17.65-4.59-26.3-1.36-41.52-.75.26-2.58.39-4.4.38-1.82,0-3.65-.12-4.4-.38,3.23,15.22-2.43,23.87-1.36,41.52.99,16.26.97,19.58,4.03,40.14,1.11,7.44,2.2,17.31,1.41,27.78-.63,8.34-2.97,16.21-3.27,23.91-.5,12.99,3.5,16.81.65,38.06-2.82,21.03-3.43,26.4-1.65,48.77.05.6.32,1.76.6,3.21.36,1.91,1.03,4.32.8,6.59-.25,2.48-.72,4.53-.8,6.29-.15,3.55.05,5.88.42,7.95,1.83,10.27,1.92,19.24-4.43,20.33-7.71,1.32-27.41,1.69-28.34-4.17-.84-5.29,6.26-9.08,11.72-23.56,1.61-4.28.55-6.12-.08-8.04-1.21-3.69.98-4.92.81-7.83-.72-11.69-7.73-21.6-14.42-43.87-3.62-12.04-5.85-25.19-2.8-40.4,1.57-7.82,3.33-11.86,2.56-24.78-.59-10-5.13-27.03-13.14-55.39-3.61-12.76-13.27-39.49-14.58-52-.53-5.06-.73-9.68-.69-13.95v-.15c.23-20.21,6.03-32.23,9.74-41.36.02-.05.04-.09.06-.14,2.14-5.35,3.12-7.06,7.73-17.25.25-1.16.5-2.36.8-3.61,2.09-8.8,3.08-15.52,4.95-20.71,5.25-14.53,4.06-34.29,2.61-43.44-.12-.04-.25-.04-.39,0-.57,2.45-1.66,7.14-2.13,8.81-1.64,5.86-3.74,12.25-5.66,18.3-1.92,6.03-3.68,11.72-4.65,16.18-.22,1-.41,1.96-.54,2.82-.29,1.91-1.54,17.81-9.04,35.78-.42,1.01-.82,1.97-1.21,2.89-6.01,14.31-8.45,19.22-12.7,27.23-3.1,5.84-5.37,10.5-5.68,14.27-.01.15-.04.3-.05.44-.1,1.65,1.79,5.15,2.47,7.35,2.1,6.81-2.15,12.5,2.7,21.39.52.95-2.69,1.07-4.6-.8-2.4-2.37-3.11-8.84-3.18-7.65-.48,7.9-1.95,9.7-2.86,16.16-.66,4.71,1.19,7.31-.26,9.21-1.11,1.46-1.49,1.33-4.22-1.26-1.91-1.83-3.13-3.52-4.37-4.88-2.39-2.63-3.69-5.25-3.9-10.68-.15-4.12.49-7.24,2.12-13.21.72-2.64,1.52-4.11,2.56-11.49.32-2.28.31-3.6.32-4.57,0-.54,0-.98.06-1.42.37-3.05,2.07-4.01,2.99-9.75,1.75-10.88,2.91-18.96,4.54-30.32.33-2.29.68-4.71,1.06-7.32,1.36-9.38,5.88-21.19,10.64-34.17.27-.74.54-1.48.82-2.23.49-1.34,1.52-11.47,1.91-16.81.5-6.66,5.12-67.72,8.29-76.93,2.37-6.87,4.66-9.62,6.85-10.53v-.02s1.79-.89,2.87-1.29Z"/>
  </g>
</svg>