<?xml version="1.0" encoding="UTF-8"?>
<svg id="_레이어_2" data-name="레이어 2" xmlns="http://www.w3.org/2000/svg" viewBox="0 0 203.84 572.16">
  <defs>
    <style>
      .cls-1 {
        fill: #f2a7a9;
        stroke: #221714;
        stroke-miterlimit: 10;
      }
    </style>
  </defs>
  <g id="_레이어_1-2" data-name="레이어 1">
    <path class="cls-1" d="m4.42,336.47c1.24,1.37,2.46,3.06,4.37,4.89,2.72,2.6,3.11,2.72,4.22,1.26,1.45-1.9-.4-4.5.26-9.21.91-6.46,2.38-8.27,2.86-16.17.07-1.19.78,5.28,3.18,7.65,1.91,1.87,5.12,1.75,4.6.8-4.85-8.89-.6-14.59-2.7-21.4-.68-2.2-2.57-5.7-2.47-7.35,0-.14.04-.3.05-.45.3-3.77,2.58-8.43,5.68-14.27,4.25-8.02,6.69-12.93,12.71-27.25.39-.92.79-1.88,1.21-2.89,7.51-17.98,8.76-33.89,9.05-35.8.13-.86.32-1.82.54-2.82.98-4.46,2.74-10.15,4.66-16.19,1.92-6.05,4.02-12.44,5.66-18.3.5-1.76,1.68-6.83,2.22-9.2.15.23.28.5.41.77.25,7.28-.8,26-2.96,42.92-.85,4.89-1.75,11.53-2.53,18.94-.85,7.85-1.78,16.03-2.13,22.39,0,.05,0,.1-.01.15-.41,6.95-.88,13.03-1.38,16.66,0,.03,0,.06.03.08-1.52,6.66-2.75,14.68-2.8,24.74,0,.09,0,.2-.01.3-.02,4.28.13,8.91.55,13.96,1.03,12.52,8.64,39.26,11.49,52.03,6.32,28.39,9.89,45.42,10.36,55.42.6,12.92-.79,16.97-2.02,24.8-2.4,15.21-.65,28.35,2.2,40.42,5.28,22.28,10.81,32.18,11.37,43.88.14,2.92-1.59,4.14-.64,7.82.5,1.94,1.34,3.78.06,8.06-4.3,14.48-9.89,18.27-9.23,23.56.73,5.86,16.26,5.5,22.33,4.18,5-1.09,4.94-10.07,3.49-20.34-.29-2.08-.43-4.4-.32-7.96.05-1.77.42-3.81.62-6.29.18-2.27-.33-4.68-.62-6.59-.22-1.44-.44-2.6-.48-3.21-1.4-22.38-.92-27.75,1.3-48.79,2.24-21.27-.91-25.08-.51-38.08.23-7.71,2.08-15.58,2.57-23.92.62-10.47-.23-20.37-1.11-27.8-2.41-20.57-2.39-23.89-3.17-40.15-.85-17.67,3.61-26.32,1.07-41.55.59.27,2.03.38,3.47.38,1.43,0,2.87-.11,3.46-.38-2.54,15.23,1.92,23.88,1.07,41.55-.78,16.26-.76,19.58-3.17,40.15-.87,7.43-1.73,17.33-1.11,27.8.5,8.34,2.34,16.21,2.57,23.92.4,13-2.75,16.81-.51,38.08,2.23,21.04,2.7,26.41,1.3,48.79-.04.61-.26,1.77-.47,3.21-.28,1.91-.81,4.32-.63,6.59.2,2.48.57,4.52.63,6.29.11,3.56-.04,5.88-.33,7.96-1.44,10.27-1.51,19.25,3.49,20.34,6.08,1.32,21.6,1.68,22.33-4.18.66-5.29-4.93-9.08-9.23-23.56-1.27-4.28-.43-6.12.06-8.06.94-3.68-.78-4.9-.64-7.82.55-11.7,6.1-21.6,11.37-43.88,2.85-12.07,4.6-25.21,2.21-40.42-1.24-7.83-2.63-11.88-2.03-24.8.47-10,4.04-27.03,10.37-55.42,2.84-12.77,10.46-39.51,11.49-52.03.41-5.05.56-9.68.54-13.96,0-.1,0-.21-.01-.3-.05-10.24-1.32-18.36-2.88-25.08.03-.02.04-.04.03-.07-.47-3.3-.9-8.73-1.28-15.03,0-.04,0-.08-.01-.12-.35-6.27-1.3-14.47-2.11-22.43-.8-7.9-1.69-15.07-2.58-20.24,0,0,0,0,0,0-2.16-16.8-3.31-35.27-3.07-42.53.14-.51.29-1.04.44-1.55.52,2.28,1.79,7.74,2.31,9.59,3.29,11.72,8.35,25.57,10.31,34.49.22,1,.41,1.96.55,2.82.3,1.91,1.54,17.82,9.05,35.8.42,1.01.82,1.97,1.21,2.89,6.02,14.32,8.45,19.23,12.71,27.25,3.1,5.84,5.37,10.5,5.68,14.27.01.15.04.31.05.45.1,1.65-1.8,5.15-2.47,7.35-2.11,6.81,2.15,12.51-2.71,21.4-.52.95,2.7,1.07,4.61-.8,2.4-2.37,3.11-8.84,3.18-7.65.48,7.9,1.95,9.71,2.86,16.17.66,4.71-1.19,7.31.26,9.21,1.11,1.46,1.49,1.33,4.21-1.26,1.92-1.83,3.13-3.52,4.37-4.89,2.39-2.64,3.69-5.25,3.9-10.68.16-4.13-.48-7.24-2.11-13.22-.72-2.64-1.52-4.12-2.56-11.5-.32-2.28-.33-3.6-.33-4.58,0-.54,0-.98-.05-1.42-.37-3.05-2.07-4.01-2.99-9.76-1.75-10.9-2.91-18.97-4.55-30.34-.33-2.29-.68-4.71-1.05-7.32-1.36-9.39-5.84-21.22-10.65-34.19-.27-.74-.55-1.48-.82-2.23-.49-1.34-1.52-11.48-1.91-16.82-.5-6.67-5.13-67.76-8.3-76.97-2.37-6.88-4.66-9.63-6.86-10.54v-.02s-1.79-.89-2.87-1.3c-.9-.34-1.87-.63-2.89-.88l-36.3-15.1c-.06-.13-.11-.25-.17-.38-1.12-2.7-1.57-10.21-1.75-15.34,2.54-2.35,4.51-5.38,5.74-10.41.22-.9.48-1.98.74-3.12,2.78.98,3.5-3.3,4.02-4.54.57-1.37,1.31-1.5,2.07-4.5.51-2.01-.37-3.32-.01-4.61.24-.87.36-3.32-.75-4.16-.12-.09-.27-.14-.42-.19,1.64-6.26,2.7-16.5-.74-24.34-1.48-3.39-3.32-6.13-5.25-8.29-4.57-5.58-12.1-9.22-20.63-9.22-8.53,0-16.06,3.64-20.63,9.22-1.93,2.16-3.77,4.9-5.25,8.29-3.44,7.84-2.39,18.08-.74,24.34-.16.05-.3.1-.42.19-1.11.84-.99,3.29-.75,4.16.36,1.29-.52,2.6-.01,4.61.76,3,1.5,3.13,2.07,4.5.52,1.24,1.24,5.52,4.02,4.54.26,1.14.52,2.22.74,3.12,1.23,5.03,3.2,8.06,5.74,10.41-.19,5.13-.64,12.64-1.75,15.34-.05.13-.11.25-.17.37l-36.31,15.11c-1.01.26-1.98.54-2.88.88-1.08.41-2.87,1.3-2.87,1.3v.02c-2.2.91-4.49,3.66-6.86,10.54-3.17,9.21-7.8,70.3-8.3,76.97-.39,5.34-1.42,15.48-1.91,16.82-.28.75-.55,1.49-.82,2.23-4.76,12.99-9.29,24.8-10.65,34.19-.38,2.61-.73,5.03-1.06,7.32-1.63,11.37-2.79,19.44-4.54,30.34-.92,5.75-2.62,6.71-2.99,9.76-.05.44-.05.88-.06,1.42,0,.98,0,2.3-.32,4.58-1.04,7.38-1.84,8.86-2.56,11.5-1.63,5.98-2.27,9.09-2.12,13.22.21,5.43,1.51,8.05,3.9,10.68Z"/>
  </g>
</svg>