<?xml version="1.0" encoding="UTF-8"?>
<svg id="_레이어_2" data-name="레이어 2" xmlns="http://www.w3.org/2000/svg" viewBox="0 0 203.83 572.09">
  <defs>
    <style>
      .cls-1 {
        fill: #f2a7a9;
        stroke: #221714;
        stroke-miterlimit: 10;
      }
    </style>
  </defs>
  <g id="_레이어_1-2" data-name="레이어 1">
    <path class="cls-1" d="m.54,326.12c.24,5,1.45,7.56,3.62,10.05.18.2.36.41.55.62,1.08,1.22,2.17,2.67,3.75,4.23.24.23.46.45.69.67,2.1,1.97,2.65,2.22,3.52,1.3.22-.23.4-.51.58-.85.9-1.77-.43-4.16-.03-8.13.04-.41.09-.81.15-1.22.88-5.78,2.21-7.8,2.71-14.83.03-.44.1-.41.24-.17.23.39.89,4.29,2.52,6.45.34.46.74.83,1.17,1.12,1.37.93,2.98.98,3.3.66.27-.27.46-.65.22-1.13-3.96-7.99-.67-13.4-2.08-19.58-.14-.63-.35-1.31-.6-2.02-.62-1.71-1.65-3.83-1.87-5.28-.02-.14-.02-.28-.04-.41-.07-.63-.09-1.24-.01-1.79.02-.15.06-.31.08-.46.55-3.3,2.39-7.24,4.88-11.98.4-.77.8-1.53,1.21-2.29,3.75-7.12,6.21-12.14,11.5-24.67.39-.92.79-1.87,1.21-2.87.35-.83.7-1.68,1.05-2.55,6.35-15.7,7.93-29.56,8.43-33.31.16-1.15.31-2.11.44-2.8.17-.89.38-1.86.62-2.87,1.1-4.6,2.9-10.3,4.8-16.27,1.6-5.01,3.28-10.21,4.69-15.1.27-.92.58-2.1.91-3.35.43-1.69,1.04-4.29,1.48-6.16.32-.13.64-.18.91,0,.15.51.29,1.04.44,1.56,1.37,8.74,2.03,24.96.67,38.97-.22,1.2-.52,2.4-.87,3.6-1.26,4.31-3,9.59-4.92,15.53-1.84,5.68-3.25,10.39-4.2,14.63-1.98,3.62-3.18,6.25-4.49,9.58-.02.05-.04.1-.06.15-3.55,9.08-9.1,21.08-9.22,41.22,0,.1,0,.2-.01.3-.02,4.28.15,8.91.65,13.96,1.24,12.52,10.39,39.26,13.81,52.03,7.6,28.39,11.9,45.42,12.46,55.42.72,12.93-.94,16.97-2.43,24.8-2.89,15.21-.78,28.35,2.65,40.42,6.34,22.28,12.99,32.19,13.66,43.88.17,2.92-1.9,4.14-.76,7.83.6,1.93,1.6,3.77.07,8.06-5.17,14.48-11.89,18.27-11.1,23.56.88,5.86,19.55,5.5,26.85,4.18,6.01-1.09,5.93-10.06,4.2-20.34-.35-2.08-.52-4.4-.39-7.96.06-1.76.51-3.81.75-6.28.22-2.27-.41-4.69-.75-6.6-.26-1.44-.53-2.6-.57-3.21-1.54-22.39-1.12-27.75,1.55-48.79,2.7-21.27-1.08-25.08-.61-38.08.29-7.71,2.5-15.58,3.09-23.92.75-10.47-.28-20.36-1.33-27.8-2.89-20.57-2.88-23.89-3.81-40.15-1.02-17.67,4.34-26.32,1.28-41.55.71.27,2.45.37,4.17.38,1.72.01,3.46-.11,4.17-.38-3.06,15.23,2.3,23.89,1.29,41.55-.94,16.26-.92,19.58-3.82,40.15-1.05,7.44-2.08,17.33-1.33,27.8.59,8.34,2.81,16.21,3.09,23.92.47,13-3.31,16.81-.61,38.08,2.67,21.04,3.28,26.42,1.56,48.79-.05.61-.31,1.77-.57,3.21-.34,1.91-.98,4.32-.76,6.6.24,2.48.69,4.52.76,6.28.13,3.56-.05,5.88-.4,7.96-1.73,10.27-1.81,19.25,4.2,20.34,7.31,1.32,25.97,1.68,26.85-4.18.79-5.29-5.93-9.08-11.1-23.56-1.53-4.28-.53-6.12.07-8.06,1.14-3.69-.93-4.91-.76-7.83.67-11.69,7.32-21.6,13.66-43.88,3.43-12.06,5.54-25.21,2.65-40.42-1.48-7.83-3.15-11.88-2.43-24.8.56-10,4.86-27.03,12.46-55.42,3.3-12.32,11.95-37.67,13.62-50.62.13-1,.23-1.95.31-2.87.35-3.9.51-7.55.52-10.98,0-.1,0-.19,0-.29,0-.95,0-1.88-.03-2.79,0-.1,0-.2-.01-.3-.42-18.03-5.13-29.36-8.53-38-.02-.04-.03-.09-.05-.13,0,0,0,0,0,0-.44-1.13-.87-2.19-1.3-3.22-.02-.05-.04-.1-.06-.15,0,0,0,0,0,0-1.26-3.06-2.58-5.73-4.69-9.5-.82-3.34-1.91-7-3.22-11.16-2.33-7.4-4.59-13.88-5.58-19.14,0,0,0-.01,0-.02-1.14-15.18-.53-33.41.9-42.53.15-.52.29-1.04.44-1.55.53,2.28,1.79,7.75,2.31,9.59,3.29,11.72,8.36,25.57,10.32,34.49.22,1,.41,1.96.54,2.82.3,1.91,1.54,17.82,9.05,35.8.42,1.01.82,1.97,1.21,2.9,6.02,14.31,8.46,19.23,12.71,27.24,3.1,5.84,5.38,10.5,5.68,14.28.01.15.04.3.05.44.1,1.65-1.79,5.15-2.47,7.35-2.1,6.81,2.15,12.51-2.7,21.4-.52.95,2.69,1.08,4.6-.8,2.4-2.37,3.11-8.84,3.18-7.65.48,7.9,1.95,9.71,2.86,16.17.66,4.71-1.19,7.31.26,9.21,1.11,1.47,1.49,1.34,4.22-1.26,1.92-1.83,3.14-3.52,4.37-4.88,2.39-2.64,3.69-5.25,3.9-10.69.16-4.12-.49-7.24-2.11-13.22-.72-2.64-1.52-4.11-2.56-11.5-.32-2.28-.32-3.6-.32-4.57,0-.55,0-.99-.05-1.43-.37-3.05-2.07-4.01-2.99-9.76-1.75-10.89-2.91-18.97-4.54-30.33-.33-2.3-.68-4.72-1.05-7.33-1.36-9.39-5.86-21.21-10.65-34.19-.27-.74-.54-1.48-.82-2.23-.48-1.34-1.52-11.48-1.91-16.82-.5-6.66-5.12-67.76-8.3-76.97-2.37-6.88-4.66-9.63-6.86-10.54v-.02s-1.79-.89-2.87-1.29c-.2-.08-.41-.14-.62-.21h.12l-38.86-16.17c-1.11-2.71-1.56-10.2-1.75-15.33,2.54-2.35,4.51-5.38,5.74-10.41.22-.9.48-1.97.74-3.12,2.78.98,3.5-3.3,4.02-4.54.57-1.36,1.31-1.5,2.07-4.5.51-2.01-.37-3.32-.01-4.61.24-.87.36-3.32-.75-4.16-.12-.09-.26-.14-.42-.19,1.65-6.27,2.7-16.5-.74-24.35-1.48-3.39-3.32-6.12-5.25-8.29-4.56-5.57-12.09-9.22-20.62-9.22s-16.06,3.65-20.63,9.22c-1.93,2.17-3.77,4.9-5.25,8.29-3.44,7.84-2.39,18.08-.74,24.35-.16.04-.3.09-.42.19-1.11.84-.99,3.29-.75,4.16.36,1.29-.52,2.6-.01,4.61.76,3,1.5,3.13,2.07,4.5.52,1.24,1.24,5.52,4.02,4.54.26,1.15.52,2.22.74,3.12,1.23,5.03,3.2,8.06,5.74,10.41-.19,5.12-.64,12.6-1.74,15.32l-38.88,16.17h.13c-.21.07-.42.14-.62.21-1.08.4-2.87,1.29-2.87,1.29v.02c-2.2.91-4.49,3.67-6.86,10.54-3.17,9.21-7.8,70.31-8.3,76.97-.39,5.34-1.42,15.48-1.91,16.82-.28.75-.55,1.49-.82,2.23-4.76,12.99-9.29,24.8-10.65,34.19-.38,2.61-.73,5.03-1.06,7.33-1.63,11.36-2.79,19.44-4.54,30.33-.92,5.75-2.62,6.71-2.99,9.76-.05.44-.06.88-.06,1.43,0,.97,0,2.29-.32,4.57-1.01,7.2-1.8,8.78-2.51,11.31-.04.14-.08.27-.11.41-1.54,5.68-2.17,8.76-2.07,12.68,0,.22.01.43.02.65Z"/>
  </g>
</svg>