<?xml version="1.0" encoding="UTF-8"?>
<svg id="_레이어_2" data-name="레이어 2" xmlns="http://www.w3.org/2000/svg" viewBox="0 0 203.83 572.09">
  <defs>
    <style>
      .cls-1 {
        fill: #f2a7a9;
        stroke: #221714;
        stroke-miterlimit: 10;
      }
    </style>
  </defs>
  <g id="_레이어_1-2" data-name="레이어 1">
    <path class="cls-1" d="m4.42,336.48c1.24,1.36,2.46,3.06,4.37,4.88,2.72,2.6,3.11,2.72,4.22,1.26,1.44-1.9-.4-4.5.26-9.21.91-6.46,2.41-8.27,2.86-16.17.07-1.19.78,5.28,3.18,7.65,1.91,1.88,5.12,1.75,4.6.8-4.85-8.89-.6-14.59-2.7-21.4-.68-2.2-2.57-5.7-2.47-7.35,0-.14.04-.3.05-.44.3-3.77,2.58-8.44,5.68-14.28,4.25-8.01,6.69-12.93,12.71-27.24.39-.93.79-1.89,1.22-2.9,7.51-17.98,8.76-33.89,9.05-35.8.13-.86.32-1.82.54-2.82.98-4.46,2.74-10.15,4.66-16.19,1.92-6.05,4.01-12.44,5.66-18.3.47-1.67,1.56-6.36,2.13-8.81.14-.04.28-.04.39,0,1.45,9.15,2.77,28.41.13,43.3,0,0,0,0,0,.01-.97,4.99-2.67,11.1-4.78,18.21-1.66,5.58-2.52,9.34-3.94,14.45-1.2,2.25-2.64,5.07-4.53,9-3.57,9.14-9.05,21.21-9.23,41.52-.04,4.28.15,8.91.65,13.96,1.24,12.52,10.39,39.26,13.81,52.03,7.6,28.39,11.9,45.41,12.46,55.42.72,12.93-.94,16.97-2.43,24.8-2.89,15.21-.78,28.36,2.65,40.42,6.34,22.28,12.99,32.19,13.66,43.88.17,2.92-1.9,4.14-.76,7.83.6,1.93,1.6,3.76.07,8.05-5.17,14.48-11.89,18.27-11.1,23.56.88,5.86,19.55,5.5,26.85,4.18,6.01-1.09,5.93-10.07,4.2-20.34-.35-2.08-.52-4.4-.39-7.96.06-1.76.51-3.81.75-6.28.22-2.28-.41-4.69-.75-6.6-.26-1.44-.53-2.6-.57-3.21-1.54-22.39-1.12-27.75,1.55-48.79,2.7-21.27-1.08-25.08-.61-38.08.29-7.71,2.5-15.58,3.09-23.93.75-10.46-.28-20.35-1.33-27.79-2.89-20.57-2.88-23.89-3.81-40.15-1.02-17.66,4.34-26.32,1.28-41.55.71.27,2.45.37,4.17.38,1.72.01,3.46-.11,4.17-.38-3.06,15.23,2.3,23.89,1.29,41.55-.94,16.26-.92,19.58-3.82,40.15-1.05,7.44-2.08,17.33-1.33,27.79.59,8.35,2.81,16.22,3.09,23.93.47,13-3.31,16.81-.61,38.08,2.67,21.04,3.29,26.42,1.56,48.79-.05.61-.31,1.77-.57,3.21-.34,1.91-.98,4.32-.76,6.6.24,2.47.69,4.52.76,6.28.13,3.56-.05,5.88-.4,7.96-1.73,10.27-1.81,19.25,4.2,20.34,7.31,1.32,25.97,1.68,26.85-4.18.79-5.29-5.93-9.08-11.1-23.56-1.53-4.29-.52-6.12.07-8.05,1.14-3.69-.93-4.91-.76-7.83.67-11.69,7.32-21.6,13.66-43.88,3.43-12.06,5.54-25.21,2.65-40.42-1.48-7.83-3.15-11.87-2.43-24.8.56-10.01,4.86-27.03,12.46-55.42,3.42-12.77,12.58-39.51,13.81-52.03.5-5.05.69-9.68.66-13.96-.19-20.31-5.67-32.38-9.24-41.52-2.28-4.73-3.87-7.79-5.21-10.25-1.02-3.84-1.89-7.17-3.2-11.77-2.18-7.64-3.82-14.35-4.84-19.64,0,0,0,0,0,0-2.58-14.67-1.53-33.38-.09-42.53.15-.52.3-1.04.45-1.55.52,2.28,1.79,7.75,2.31,9.59,3.29,11.72,8.35,25.57,10.31,34.49.22,1,.41,1.96.55,2.82.3,1.91,1.54,17.82,9.04,35.8.42,1.01.83,1.97,1.21,2.9,6.02,14.31,8.46,19.23,12.71,27.24,3.1,5.84,5.38,10.5,5.68,14.28.01.15.04.3.05.44.11,1.65-1.79,5.15-2.46,7.35-2.09,6.81,2.15,12.51-2.71,21.4-.52.95,2.69,1.08,4.6-.8,2.4-2.37,3.11-8.84,3.19-7.65.48,7.9,1.94,9.71,2.85,16.17.67,4.71-1.19,7.31.27,9.21,1.11,1.47,1.48,1.34,4.21-1.26,1.92-1.83,3.13-3.52,4.37-4.88,2.39-2.64,3.69-5.25,3.9-10.69.15-4.12-.48-7.24-2.12-13.22-.71-2.64-1.52-4.11-2.56-11.5-.32-2.28-.32-3.6-.32-4.57,0-.55,0-.99-.06-1.43-.37-3.05-2.06-4.01-2.98-9.76-1.75-10.89-2.92-18.97-4.55-30.33-.33-2.3-.68-4.72-1.05-7.33-1.37-9.39-5.82-21.23-10.65-34.19-.28-.74-.55-1.48-.83-2.23-.48-1.34-1.52-11.48-1.9-16.82-.5-6.66-5.13-67.76-8.31-76.97-2.37-6.88-4.65-9.63-6.85-10.54v-.02s-1.79-.89-2.88-1.29c-.2-.08-.41-.14-.62-.21h.11l-38.85-16.16c-1.12-2.71-1.56-10.21-1.75-15.33,2.54-2.35,4.5-5.38,5.73-10.41.22-.9.48-1.97.75-3.12,2.77.98,3.5-3.3,4.02-4.54.57-1.36,1.3-1.5,2.06-4.5.51-2.01-.36-3.32,0-4.61.24-.87.35-3.32-.75-4.16-.12-.09-.27-.14-.42-.19,1.64-6.27,2.69-16.5-.75-24.35-1.48-3.39-3.31-6.12-5.25-8.29-4.56-5.57-12.1-9.22-20.62-9.22s-16.06,3.65-20.63,9.22c-1.93,2.17-3.77,4.9-5.25,8.29-3.44,7.84-2.39,18.08-.74,24.35-.16.04-.3.09-.42.19-1.11.84-.99,3.29-.75,4.16.36,1.29-.52,2.6,0,4.61.76,3,1.5,3.13,2.07,4.5.52,1.24,1.24,5.52,4.02,4.54.26,1.15.52,2.22.74,3.12,1.23,5.03,3.2,8.06,5.74,10.41-.19,5.11-.64,12.59-1.74,15.31l-38.89,16.18h.14c-.21.07-.42.14-.62.21-1.08.4-2.87,1.29-2.87,1.29v.02c-2.2.91-4.49,3.67-6.86,10.54-3.18,9.21-7.8,70.31-8.3,76.97-.39,5.34-1.41,15.48-1.91,16.82-.28.75-.56,1.49-.82,2.23-4.76,12.99-9.29,24.8-10.65,34.19-.38,2.61-.73,5.03-1.06,7.33-1.63,11.36-2.79,19.44-4.54,30.33-.92,5.75-2.62,6.71-2.99,9.76-.05.44-.06.88-.06,1.43,0,.97,0,2.29-.31,4.57-1.04,7.39-1.85,8.86-2.56,11.5-1.64,5.98-2.27,9.1-2.12,13.22.21,5.44,1.51,8.05,3.9,10.69Z"/>
  </g>
</svg>