<?xml version="1.0" encoding="UTF-8"?>
<svg id="_레이어_2" data-name="레이어 2" xmlns="http://www.w3.org/2000/svg" viewBox="0 0 203.84 572.12">
  <defs>
    <style>
      .cls-1 {
        fill: #f2a7a9;
        stroke: #221714;
        stroke-miterlimit: 10;
      }
    </style>
  </defs>
  <g id="_레이어_1-2" data-name="레이어 1">
    <path class="cls-1" d="m198.64,301.07c-.32-2.28-.32-3.6-.32-4.57,0-.55,0-.99-.06-1.43-.37-3.05-2.07-4.01-2.99-9.76-1.75-10.89-2.91-18.97-4.54-30.33-.33-2.3-.68-4.72-1.06-7.33-1.36-9.39-5.89-21.2-10.65-34.19-.27-.74-.55-1.48-.82-2.23-.49-1.34-1.52-11.48-1.91-16.82-.5-6.66-5.12-67.76-8.3-76.97-2.37-6.87-4.66-9.63-6.86-10.54v-.02s-1.79-.89-2.87-1.29c-.58-.22-1.19-.41-1.82-.59l-37.45-15.58c-.03-.07-.06-.13-.09-.19-1.11-2.7-1.56-10.21-1.75-15.34,2.54-2.35,4.51-5.38,5.74-10.41.22-.9.48-1.97.74-3.12,2.78.98,3.5-3.3,4.02-4.54.57-1.36,1.31-1.49,2.07-4.5.51-2-.37-3.32-.01-4.61.24-.87.36-3.32-.75-4.16-.12-.09-.26-.14-.42-.18,1.65-6.27,2.7-16.51-.74-24.35-1.48-3.39-3.32-6.12-5.25-8.29-4.57-5.57-12.1-9.22-20.63-9.22s-16.06,3.65-20.63,9.22c-1.93,2.17-3.77,4.9-5.25,8.29-3.44,7.84-2.39,18.08-.74,24.35-.16.04-.3.09-.42.18-1.11.84-.99,3.29-.75,4.16.36,1.29-.52,2.61-.01,4.61.76,3.01,1.5,3.14,2.07,4.5.52,1.24,1.24,5.52,4.02,4.54.26,1.15.52,2.22.74,3.12,1.23,5.03,3.2,8.06,5.74,10.41-.19,5.13-.64,12.64-1.75,15.34-.03.06-.05.12-.08.18l-37.57,15.63c-.59.17-1.16.36-1.71.56-1.08.4-2.87,1.29-2.87,1.29v.02c-2.2.91-4.49,3.67-6.86,10.54-3.18,9.21-7.8,70.31-8.3,76.97-.39,5.34-1.42,15.48-1.91,16.82-.27.75-.55,1.49-.82,2.23-4.76,12.99-9.29,24.8-10.65,34.19-.38,2.61-.73,5.03-1.06,7.33-1.63,11.36-2.79,19.45-4.54,30.33-.92,5.75-2.62,6.71-2.99,9.76-.05.44-.05.88-.06,1.43,0,.97,0,2.29-.32,4.57-1.03,7.3-1.82,8.82-2.53,11.4-.04.14-.08.28-.12.42-1.54,5.69-2.16,8.76-2.04,12.73,0,.22.02.44.03.65.26,5,1.51,7.53,3.74,10.04.18.2.36.41.55.62,1.07,1.23,2.18,2.68,3.78,4.24.24.24.48.46.7.66,2.1,1.96,2.58,2.07,3.52.95.22-.26.39-.56.52-.9.69-1.79-.59-4.23-.11-8.2.05-.41.11-.82.17-1.21.9-5.64,2.22-7.69,2.69-14.9.03-.43.11-.14.3.47.33,1.09,1.07,4.66,2.67,6.49.38.43.81.78,1.27,1.03,1.56.89,3.29.8,3.27.26-.02-.4-.05-.86-.28-1.36-3.76-8-.31-13.41-1.99-19.7-.16-.61-.4-1.3-.68-2.01-.71-1.83-1.73-3.99-1.8-5.32,0-.14,0-.28,0-.43-.01-.61.03-1.22.14-1.81.03-.15.06-.31.1-.46.7-3.31,2.58-7.26,5.07-11.98.41-.78.81-1.54,1.21-2.3,3.65-6.95,6.14-12.09,11.5-24.8.39-.92.79-1.88,1.21-2.89.33-.78.65-1.58.97-2.38,6.53-16.38,7.9-30.66,8.29-33.45.14-1,.31-1.96.49-2.81.18-.85.38-1.76.62-2.71,1.15-4.66,2.96-10.36,4.86-16.31,1.64-5.14,3.35-10.46,4.76-15.42.22-.76.5-1.87.81-3.09.5-2.01,1.14-4.77,1.54-6.46.3.45.6.95.89,1.57.15.51.3,1.04.45,1.56,2.54,10.75,5.09,27.45,2.81,39.29,0,0,0,.01,0,.02-.23,1.12-.53,2.23-.87,3.36-1.36,4.42-3.47,9.45-6.31,15.24-1.87,3.81-3.4,6.7-5.01,10.05-2.17,3.26-4.49,7.18-7.66,13.74-.02.05-.04.1-.06.15-3.71,9.13-9.52,21.16-9.75,41.37v.15c-.04,4.27.16,8.91.69,13.96,1.31,12.52,10.98,39.26,14.59,52.03,8.02,28.39,12.56,45.41,13.15,55.42.77,12.92-.99,16.97-2.56,24.79-3.05,15.22-.82,28.37,2.8,40.42,6.69,22.29,13.71,32.19,14.43,43.89.17,2.92-2.02,4.14-.81,7.83.63,1.92,1.69,3.76.08,8.04-5.46,14.49-12.57,18.28-11.73,23.57.93,5.86,20.64,5.49,28.36,4.17,6.35-1.08,6.26-10.06,4.43-20.33-.37-2.08-.57-4.4-.42-7.96.07-1.76.55-3.81.8-6.28.23-2.28-.44-4.69-.8-6.6-.27-1.44-.55-2.6-.6-3.21-1.77-22.38-1.17-27.75,1.65-48.8,2.85-21.26-1.15-25.07-.65-38.08.3-7.7,2.64-15.58,3.27-23.92.79-10.46-.3-20.35-1.41-27.79-3.06-20.57-3.04-23.89-4.03-40.16-1.07-17.65,4.59-26.31,1.36-41.54.75.27,2.58.36,4.4.38,1.82.01,3.65-.11,4.4-.38-3.23,15.23,2.43,23.89,1.36,41.54-.99,16.27-.97,19.59-4.03,40.16-1.11,7.44-2.19,17.33-1.4,27.79.62,8.34,2.96,16.22,3.26,23.92.5,13.01-3.5,16.82-.64,38.08,2.82,21.05,3.41,26.42,1.64,48.8-.05.61-.33,1.77-.6,3.21-.36,1.91-1.03,4.32-.8,6.6.25,2.47.73,4.52.8,6.28.14,3.56-.05,5.88-.42,7.96-1.83,10.27-1.91,19.25,4.44,20.33,7.71,1.32,27.42,1.69,28.35-4.17.84-5.29-6.26-9.08-11.72-23.57-1.62-4.28-.55-6.12.08-8.04,1.21-3.69-.99-4.91-.81-7.83.71-11.7,7.73-21.6,14.43-43.89,3.62-12.05,5.84-25.2,2.8-40.42-1.57-7.82-3.33-11.87-2.57-24.79.59-10.01,5.13-27.03,13.16-55.42,3.55-12.55,12.96-38.62,14.49-51.34.11-.96.21-1.9.29-2.81.34-3.95.49-7.64.48-11.1,0-.01,0-.14,0-.15,0-.97-.02-1.93-.05-2.87,0-.04,0-.11,0-.15-.59-18.29-5.81-29.62-9.36-38.3-.02-.05-.04-.09-.06-.14-.51-1.09-1-2.1-1.46-3.07-.02-.05-.04-.09-.07-.14-3.25-6.49-5.6-10.1-7.96-13.52-1.08-2.2-2.2-4.38-3.48-7-3.52-7.2-5.95-13.24-7.08-18.64,0,0,0,0,0,0-2.44-12.78.76-31.51,3.39-42.53.15-.52.3-1.04.45-1.55.53,2.28,1.79,7.75,2.31,9.59,3.29,11.72,8.36,25.57,10.32,34.49.22,1,.41,1.96.54,2.82.3,1.91,1.54,17.82,9.05,35.8.42,1.01.82,1.97,1.21,2.9,6.02,14.31,8.46,19.23,12.71,27.24,3.1,5.84,5.38,10.5,5.68,14.28.01.15.04.3.05.44.1,1.65-1.79,5.15-2.47,7.35-2.1,6.81,2.15,12.51-2.7,21.4-.52.95,2.69,1.08,4.6-.8,2.4-2.37,3.11-8.84,3.18-7.65.48,7.9,1.95,9.71,2.86,16.17.66,4.71-1.19,7.31.26,9.21,1.11,1.47,1.49,1.34,4.22-1.26,1.91-1.83,3.13-3.52,4.37-4.88,2.39-2.64,3.69-5.25,3.9-10.69.15-4.12-.49-7.24-2.12-13.22-.72-2.64-1.52-4.11-2.56-11.5Z"/>
  </g>
</svg>