<?xml version="1.0" encoding="UTF-8"?>
<svg id="_레이어_2" data-name="레이어 2" xmlns="http://www.w3.org/2000/svg" viewBox="0 0 203.84 572.16">
  <defs>
    <style>
      .cls-1 {
        fill: #f2a7a9;
        stroke: #221714;
        stroke-miterlimit: 10;
      }
    </style>
  </defs>
  <g id="_레이어_1-2" data-name="레이어 1">
    <path class="cls-1" d="m198.64,301.07c-.32-2.28-.32-3.6-.32-4.57,0-.55,0-.99-.05-1.43-.37-3.05-2.07-4.01-2.99-9.76-1.75-10.89-2.91-18.97-4.54-30.33-.33-2.3-.68-4.72-1.06-7.33-1.36-9.39-5.86-21.21-10.65-34.19-.27-.74-.55-1.48-.82-2.23-.49-1.34-1.52-11.48-1.91-16.82-.5-6.66-5.12-67.76-8.3-76.97-2.37-6.88-4.66-9.63-6.86-10.54v-.02s-1.79-.89-2.87-1.29c-.2-.08-.41-.14-.62-.21h.1l-38.84-16.16c-1.11-2.71-1.56-10.21-1.75-15.33,2.54-2.35,4.51-5.38,5.74-10.41.22-.9.48-1.97.74-3.12,2.78.98,3.5-3.3,4.02-4.54.57-1.36,1.31-1.5,2.07-4.5.51-2.01-.37-3.32-.01-4.61.24-.87.36-3.32-.75-4.16-.12-.09-.26-.14-.42-.19,1.65-6.27,2.7-16.5-.74-24.35-1.48-3.39-3.32-6.12-5.25-8.29-4.57-5.57-12.1-9.22-20.63-9.22s-16.06,3.65-20.63,9.22c-1.93,2.17-3.77,4.9-5.25,8.29-3.44,7.84-2.39,18.08-.74,24.35-.16.04-.3.09-.42.19-1.11.84-.99,3.29-.75,4.16.36,1.29-.52,2.6-.01,4.61.76,3,1.5,3.13,2.07,4.5.52,1.24,1.24,5.52,4.02,4.54.26,1.15.52,2.22.74,3.12,1.23,5.03,3.2,8.06,5.74,10.41-.19,5.12-.64,12.59-1.74,15.31l-38.89,16.18h.14c-.21.07-.42.14-.62.21-1.08.4-2.87,1.29-2.87,1.29v.02c-2.2.91-4.49,3.67-6.86,10.54-3.18,9.21-7.8,70.31-8.3,76.97-.39,5.34-1.42,15.48-1.91,16.82-.27.75-.55,1.49-.82,2.23-4.76,12.99-9.29,24.8-10.65,34.19-.38,2.61-.73,5.03-1.06,7.33-1.63,11.36-2.79,19.44-4.54,30.33-.92,5.75-2.62,6.71-2.99,9.76-.05.44-.05.88-.06,1.43,0,.97,0,2.29-.32,4.57-1.01,7.2-1.8,8.78-2.51,11.31-.04.14-.08.27-.11.41-1.54,5.68-2.17,8.76-2.07,12.68,0,.22.01.43.02.65.24,5,1.45,7.56,3.62,10.05.18.2.36.41.55.62,1.08,1.22,2.17,2.67,3.75,4.23.24.23.46.45.69.67,2.1,1.97,2.65,2.22,3.52,1.3.22-.23.4-.51.58-.85.9-1.77-.43-4.16-.03-8.13.04-.41.09-.81.15-1.22.88-5.78,2.21-7.8,2.71-14.83.03-.44.1-.41.24-.17.23.39.89,4.29,2.52,6.45.34.46.74.83,1.17,1.12,1.37.93,2.98.98,3.3.66.27-.27.46-.65.22-1.13-3.96-7.99-.67-13.4-2.08-19.58-.14-.63-.35-1.31-.6-2.02-.62-1.71-1.65-3.83-1.87-5.28-.02-.14-.02-.28-.04-.41-.07-.63-.09-1.24-.01-1.79.02-.15.06-.31.08-.46.55-3.3,2.39-7.24,4.88-11.98.4-.77.8-1.53,1.21-2.29,3.75-7.12,6.21-12.14,11.5-24.67.39-.92.79-1.87,1.21-2.87.35-.83.7-1.68,1.05-2.55,6.35-15.7,7.93-29.56,8.43-33.31.16-1.15.31-2.11.44-2.8.17-.85.36-1.78.59-2.75,1.09-4.59,2.89-10.29,4.79-16.27,1.62-5.1,3.34-10.39,4.77-15.37.25-.85.53-1.92.83-3.07.45-1.75,1.1-4.51,1.55-6.44.3-.12.59-.17.84-.01.15.51.29,1.04.44,1.56,1.4,8.86,2.13,25.57-.3,39.22,0,0,0,.01,0,.02-.22,1.12-.47,2.25-.76,3.38-1.12,4.36-2.63,9.68-4.66,15.68-1.28,3.78-2.36,7.01-3.45,10.54-2.16,3.26-4.47,7.17-7.63,13.69-.02.05-.04.1-.06.15-3.73,9.12-9.52,21.16-9.75,41.37v.15c-.04,4.27.16,8.91.69,13.96,1.31,12.52,10.98,39.26,14.59,52.03,8.02,28.39,12.56,45.41,13.15,55.42.77,12.92-.99,16.97-2.56,24.79-3.05,15.22-.82,28.37,2.8,40.42,6.69,22.29,13.71,32.19,14.43,43.89.17,2.92-2.02,4.14-.81,7.83.63,1.92,1.69,3.76.08,8.04-5.46,14.49-12.57,18.28-11.73,23.57.93,5.86,20.64,5.49,28.36,4.17,6.35-1.08,6.26-10.06,4.43-20.33-.37-2.08-.57-4.4-.42-7.96.07-1.76.55-3.81.8-6.28.23-2.28-.44-4.69-.8-6.6-.27-1.44-.55-2.6-.6-3.21-1.77-22.38-1.17-27.75,1.65-48.8,2.85-21.26-1.15-25.07-.65-38.08.3-7.7,2.64-15.58,3.27-23.92.79-10.46-.3-20.35-1.41-27.79-3.06-20.57-3.04-23.89-4.03-40.16-1.07-17.65,4.59-26.31,1.36-41.54.75.27,2.58.37,4.4.38,1.82.02,3.65-.11,4.4-.38-3.23,15.23,2.43,23.89,1.36,41.54-.99,16.27-.97,19.59-4.03,40.16-1.11,7.44-2.19,17.33-1.4,27.79.62,8.34,2.96,16.22,3.26,23.92.5,13.01-3.5,16.82-.64,38.08,2.82,21.05,3.41,26.41,1.64,48.8-.05.61-.33,1.77-.6,3.21-.36,1.91-1.03,4.32-.8,6.6.25,2.47.73,4.52.8,6.28.14,3.56-.05,5.88-.42,7.96-1.83,10.27-1.91,19.25,4.44,20.33,7.71,1.32,27.42,1.69,28.35-4.17.84-5.29-6.26-9.08-11.72-23.57-1.62-4.28-.55-6.12.08-8.04,1.21-3.69-.99-4.91-.81-7.83.71-11.7,7.73-21.6,14.43-43.89,3.62-12.05,5.84-25.2,2.8-40.42-1.57-7.82-3.33-11.87-2.57-24.79.59-10.01,5.13-27.03,13.16-55.42,3.49-12.33,12.64-37.72,14.4-50.66.13-.97.24-1.9.32-2.79.36-3.93.53-7.62.54-11.06,0-.02,0-.12,0-.14,0-.97,0-1.92-.03-2.85,0-.02,0-.12,0-.15-.46-18.17-5.47-29.56-9.04-38.26-.02-.04-.03-.09-.05-.13-.49-1.08-.96-2.1-1.4-3.08-.02-.05-.04-.1-.06-.14-3.21-6.48-5.54-10.18-7.83-13.55-.74-2.36-1.52-4.72-2.39-7.34-2.46-7.39-4.2-13.84-5.22-19.1,0,0,0,0,0,0-2.59-14.67-1.53-33.38-.09-42.53.15-.52.29-1.04.44-1.55.52,2.28,1.79,7.75,2.31,9.59,3.29,11.72,8.36,25.57,10.32,34.49.22,1,.41,1.96.55,2.82.3,1.91,1.54,17.82,9.05,35.8.42,1.01.82,1.97,1.21,2.9,6.02,14.31,8.46,19.23,12.71,27.24,3.1,5.84,5.38,10.5,5.68,14.28.01.15.04.3.05.44.1,1.65-1.79,5.15-2.47,7.35-2.11,6.81,2.15,12.51-2.71,21.4-.52.95,2.7,1.08,4.61-.8,2.4-2.37,3.11-8.84,3.18-7.65.48,7.9,1.95,9.71,2.86,16.17.66,4.71-1.19,7.31.26,9.21,1.11,1.47,1.49,1.34,4.22-1.26,1.92-1.83,3.14-3.52,4.37-4.88,2.4-2.64,3.69-5.25,3.9-10.69.16-4.12-.49-7.24-2.11-13.22-.72-2.64-1.52-4.11-2.56-11.5Z"/>
  </g>
</svg>