<?xml version="1.0" encoding="UTF-8"?>
<svg id="_레이어_2" data-name="레이어 2" xmlns="http://www.w3.org/2000/svg" viewBox="0 0 203.83 570.25">
  <defs>
    <style>
      .cls-1 {
        fill: #f2a7a9;
        stroke: #221714;
        stroke-miterlimit: 10;
      }
    </style>
  </defs>
  <g id="_레이어_1-2" data-name="레이어 1">
    <path class="cls-1" d="m4.42,336.47c1.24,1.37,2.46,3.06,4.37,4.89,2.72,2.6,3.11,2.72,4.22,1.26,1.45-1.9-.4-4.5.26-9.21.91-6.46,2.38-8.27,2.86-16.17.07-1.19.78,5.28,3.18,7.65,1.91,1.87,5.12,1.75,4.6.8-4.85-8.89-.6-14.59-2.7-21.4-.68-2.2-2.58-5.7-2.47-7.35,0-.14.04-.3.05-.45.3-3.77,2.58-8.43,5.68-14.27,4.25-8.02,6.69-12.93,12.71-27.25.39-.92.79-1.88,1.21-2.89,7.51-17.98,8.76-33.89,9.05-35.8.13-.86.32-1.82.54-2.82,1.22-5.58,3.78-13.32,6.07-20.77,1.55-5,3.46-11.16,4.82-16.12,1.35,1.84,3.79,2.88,3.07,3.83-.21,1.78-.48,4.08-1.04,6.41-1.96,7.68-4.5,23.09-6.99,37.04-1.87,10.48-3.33,29.77-3.45,45.3-2.22,6.42-4.77,14.89-4.87,27.58,0,1.05.04,2.4.15,3.63.26,6.28,2.43,16.36,3.5,23.26,2.55,16.48,9.48,40.81,11.96,52.88,5.05,24.56,7.79,38.3,7.76,47.76-.05,13.5-.78,19.82-1.02,28.7-.48,16.99,2.13,29.38,4.79,41.29,3.92,17.53,8.13,25.18,8.93,34.88.22,2.67-.42,4.02-.49,7.88-.1,5.12-1.4,7.42-2.41,11.92-2.79,12.44-3.41,14.98-1.43,18.72,2.12,4.03,13.79.78,18.81-1.95,3.64-1.98,3.74-8.63,2.71-17.24-.24-2-.25-4.25-.09-7.54.09-1.89.25-4.03.33-6.36.08-2.07-.45-4.16-.63-5.75-.76-6.65-.26-8.86-.04-14.61.85-22.09-1.03-27.08.9-46.12,1.81-17.87-.2-22.7.28-34.54.33-8.39,1.73-16.77,1.77-24.89.06-12.99-.76-21.24-1.73-30.88-2.01-19.86-.96-24.5-2.26-40.51-.52-13.17,3.43-19.64,1.78-31.06.85.2,2.4.24,3.7.19.47,3.81,2.81,5.89,3.06,10.1-2.24,15.49,1.23,22.81,0,41.2-.93,14.06-1.29,19-2.84,37.07-.66,7.66-.73,17.05-.2,26.82.52,9.51,1.2,16.37,1.92,27.46.99,15.02-1.97,19.26-.06,40.76,1.42,15.97,2.44,20.29.92,37.4-.08.94-.42,2.41-.55,4.06-.16,2.05-.49,4.37-.33,6.52.19,2.74.48,4.86.41,6.7-.19,5.24-.43,9.22.67,11.05.47,8.03,4.53,14.67,8.76,14.21,5.02-.56,15.54-.98,15.41-9.02-.08-5.04-4.64-8.19-7.38-19.69-.97-4.09-.51-5.81-.12-7.99,1.02-5.67,1.36-9.02,2.52-16.85,1.75-11.72,6.1-22.5,9.69-43.02,1.95-10.99,2.86-21.85,1.22-36.51-.93-8.36-.83-15.64,1.15-32.45,1.26-10.69,6.03-30.15,11.37-54.57,2.38-10.81,8.52-32,9.34-42.44.32-3.71.45-7.18.44-10.33-.04-5.02-1.23-8.25-2.02-10.52-.15-12.83-3.09-22.57-6.56-32.61-.76-12.48-1.21-30.72-2.82-40.27-2.44-14.5-4.97-29.34-5.68-34.31.1-3.1,1.22-6.97,2.05-9.77.52,2.28,1.79,7.74,2.31,9.59,3.29,11.72,8.35,25.57,10.31,34.49.22,1,.41,1.96.55,2.82.3,1.91,1.54,17.82,9.05,35.8.42,1.01.82,1.97,1.21,2.89,6.02,14.32,8.45,19.23,12.71,27.25,3.1,5.84,5.37,10.5,5.68,14.27.01.15.04.31.05.45.1,1.65-1.8,5.15-2.47,7.35-2.11,6.81,2.15,12.51-2.71,21.4-.52.95,2.7,1.07,4.61-.8,2.4-2.37,3.11-8.84,3.18-7.65.48,7.9,1.95,9.71,2.86,16.17.66,4.71-1.19,7.31.26,9.21,1.11,1.46,1.49,1.33,4.21-1.26,1.92-1.83,3.13-3.52,4.37-4.89,2.39-2.64,3.69-5.25,3.9-10.68.16-4.13-.48-7.24-2.11-13.22-.72-2.64-1.52-4.12-2.56-11.5-.32-2.28-.33-3.6-.33-4.58,0-.54,0-.98-.05-1.42-.37-3.05-2.07-4.01-2.99-9.76-1.75-10.9-2.91-18.97-4.55-30.34-.33-2.29-.68-4.71-1.05-7.32-1.36-9.39-5.84-21.22-10.65-34.19-.27-.74-.55-1.48-.82-2.23-.49-1.34-1.52-11.48-1.91-16.82-.5-6.67-5.13-67.76-8.3-76.97-2.37-6.88-4.66-9.63-6.86-10.54v-.02s-1.79-.89-2.87-1.3c-.92-.34-1.91-.63-2.94-.9l-36.24-15.08c-.06-.13-.12-.25-.17-.39-1.12-2.7-1.57-10.21-1.75-15.34,2.54-2.35,4.51-5.38,5.74-10.41.22-.9.48-1.98.74-3.12,2.78.98,3.5-3.3,4.02-4.54.57-1.37,1.32-1.5,2.07-4.5.51-2.01-.37-3.32-.01-4.61.24-.87.36-3.32-.75-4.16-.12-.09-.27-.14-.42-.19,1.64-6.26,2.7-16.5-.74-24.34-1.48-3.39-3.32-6.13-5.25-8.29-4.57-5.58-12.1-9.22-20.63-9.22s-16.06,3.64-20.63,9.22c-1.93,2.16-3.77,4.9-5.25,8.29-3.44,7.84-2.39,18.08-.74,24.34-.16.05-.3.1-.42.19-1.11.84-.99,3.29-.75,4.16.36,1.29-.52,2.6,0,4.61.76,3,1.5,3.13,2.07,4.5.52,1.24,1.24,5.52,4.02,4.54.26,1.14.52,2.22.74,3.12,1.23,5.03,3.2,8.06,5.74,10.41-.19,5.13-.64,12.64-1.75,15.34-.05.13-.11.24-.16.36l-36.37,15.13c-.99.25-1.94.54-2.83.87-1.08.41-2.87,1.3-2.87,1.3v.02c-2.2.91-4.49,3.66-6.86,10.54-3.17,9.21-7.8,70.3-8.3,76.97-.39,5.34-1.42,15.48-1.91,16.82-.28.75-.55,1.49-.82,2.23-4.76,12.99-9.29,24.8-10.65,34.19-.38,2.61-.73,5.03-1.06,7.32-1.63,11.37-2.79,19.44-4.54,30.34-.92,5.75-2.62,6.71-2.99,9.76-.05.44-.06.88-.06,1.42,0,.98,0,2.3-.32,4.58-1.04,7.38-1.84,8.86-2.56,11.5-1.63,5.98-2.27,9.09-2.12,13.22.21,5.43,1.51,8.05,3.9,10.68Z"/>
  </g>
</svg>