<?xml version="1.0" encoding="UTF-8"?>
<svg id="_레이어_2" data-name="레이어 2" xmlns="http://www.w3.org/2000/svg" viewBox="0 0 203.83 569.59">
  <defs>
    <style>
      .cls-1 {
        fill: #f2a7a9;
        stroke: #221714;
        stroke-miterlimit: 10;
      }
    </style>
  </defs>
  <g id="_레이어_1-2" data-name="레이어 1">
    <path class="cls-1" d="m4.42,336.48c1.24,1.36,2.46,3.05,4.37,4.88,2.73,2.6,3.11,2.73,4.22,1.26,1.45-1.9-.4-4.5.26-9.21.91-6.46,2.38-8.27,2.86-16.17.07-1.19.78,5.28,3.18,7.65,1.91,1.88,5.12,1.75,4.6.8-4.85-8.89-.6-14.59-2.7-21.4-.68-2.2-2.58-5.7-2.47-7.35,0-.14.04-.3.05-.44.3-3.77,2.58-8.44,5.68-14.28,4.25-8.01,6.69-12.93,12.71-27.24.39-.93.79-1.89,1.21-2.9,7.51-17.98,8.76-33.89,9.05-35.8.13-.86.32-1.82.54-2.82,1.47-6.69,4.82-16.48,7.49-25.34,1.19-3.95,2.9-9.88,3.98-13.94,2.18,5.52,5.79,13.06,3.82,17.25-.58,3.04-1.24,7.11-2.52,11.26-2.99,9.96-5,22.06-6.93,31.54-2.04,10.08-4.86,26.9-5,43.95-1.48,4.28-3.18,10.02-3.25,18.48-.01,2.1.07,4.51.29,6.98.54,8.36,4.69,23.99,6.42,32.85,3.93,20.46,9.76,42.36,11.66,53.72,3.45,20.7,4.96,31.2,4.45,40.1-.81,14.08-.74,22.67.1,32.6,1.58,18.75,4.99,30.35,7.24,42.16,2.43,12.7,4.78,18.18,5.73,25.86.3,2.43.26,3.99-.3,7.94-1.21,8.37-4.29,11.05-4.9,15.81-1.31,10.27,3.56,11.61,6.99,13.87,3.24,2.14,11.31-2.28,13.78-8.08,2.51-1.58,2.27-7.22,1.69-14.15-.16-1.92-.02-4.11.16-7.12.12-2.02.03-4.25,0-6.44-.03-1.86-.46-3.64-.59-4.91-1.21-11.88-.27-15.13.44-26,1.41-21.78-1.06-26.42.42-43.44,1.26-14.49.6-20.33,1.1-31,.43-9.08,1.13-17.97.79-25.85-.68-15.53-1.31-22.13-2.28-33.98-1.58-19.12.65-25.1-1.12-40.85-.14-8.69,3.01-12.97,2.42-20.58,1.08.14,2.62.12,3.7,0-.59,7.62,2.55,11.89,2.42,20.58-1.77,15.75.46,21.73-1.12,40.85-.98,11.85-1.61,18.45-2.29,33.98-.34,7.88.36,16.77.78,25.85.5,10.67-.15,16.51,1.1,31,1.47,17.02-.99,21.66.42,43.44.7,10.87,1.65,14.13.44,26-.13,1.27-.56,3.05-.59,4.91-.03,2.19-.12,4.42,0,6.44.18,3.01.32,5.2.16,7.12-.58,6.93-.82,12.56,1.69,14.14,2.47,5.8,10.54,10.22,13.78,8.08,3.42-2.26,8.3-3.6,6.99-13.87-.61-4.76-3.69-7.44-4.9-15.81-.57-3.95-.6-5.51-.3-7.94.94-7.68,3.3-13.16,5.73-25.86,2.25-11.8,5.66-23.4,7.24-42.16.84-9.94.9-18.52.09-32.6-.51-8.91,1-19.41,4.46-40.1,1.9-11.37,7.74-33.27,11.67-53.72,1.73-8.85,5.88-24.49,6.42-32.85.22-2.47.3-4.88.29-6.98-.08-10.05-2.47-16.21-4.04-20.76-.18-8.77-2.65-17.06-6.64-28.59-1.4-10.92-2.2-25.61-3.7-33.84-2-10.56-3.84-21.56-4.31-26.1.07-5.69,2.17-12.9,3.67-17.98.52,2.28,1.79,7.75,2.31,9.59,3.29,11.72,8.36,25.57,10.32,34.49.22,1,.41,1.96.54,2.82.3,1.91,1.54,17.82,9.05,35.8.42,1.01.82,1.97,1.21,2.9,6.02,14.31,8.45,19.23,12.71,27.24,3.1,5.84,5.38,10.5,5.68,14.28.01.15.04.3.05.44.1,1.65-1.8,5.15-2.47,7.35-2.1,6.81,2.15,12.51-2.71,21.4-.52.95,2.7,1.08,4.6-.8,2.4-2.37,3.11-8.84,3.18-7.65.48,7.9,1.95,9.71,2.86,16.17.66,4.71-1.19,7.31.26,9.21,1.11,1.47,1.49,1.34,4.22-1.26,1.91-1.83,3.14-3.52,4.37-4.88,2.39-2.64,3.69-5.25,3.9-10.69.16-4.12-.49-7.24-2.12-13.22-.72-2.64-1.52-4.11-2.56-11.5-.32-2.28-.32-3.6-.32-4.57,0-.55,0-.99-.05-1.43-.37-3.05-2.07-4.01-2.99-9.76-1.75-10.89-2.91-18.97-4.54-30.33-.33-2.3-.68-4.72-1.06-7.33-1.36-9.39-5.86-21.21-10.65-34.19-.27-.74-.55-1.48-.82-2.23-.49-1.34-1.52-11.48-1.91-16.82-.5-6.66-5.12-67.76-8.3-76.97-2.37-6.88-4.66-9.63-6.86-10.54v-.02s-1.79-.89-2.87-1.29c-.2-.08-.41-.14-.62-.21h.1l-38.84-16.16c-1.11-2.71-1.56-10.21-1.75-15.33,2.54-2.35,4.51-5.38,5.74-10.41.22-.9.48-1.97.74-3.12,2.78.98,3.5-3.3,4.02-4.54.57-1.36,1.31-1.5,2.07-4.5.51-2.01-.37-3.32-.01-4.61.24-.87.36-3.32-.75-4.16-.12-.09-.26-.14-.42-.19,1.65-6.27,2.7-16.5-.74-24.35-1.48-3.39-3.32-6.12-5.25-8.29-4.56-5.57-12.1-9.22-20.62-9.22s-16.06,3.65-20.63,9.22c-1.93,2.17-3.77,4.9-5.25,8.29-3.44,7.84-2.39,18.08-.74,24.35-.16.04-.3.09-.42.19-1.11.84-.99,3.29-.75,4.16.36,1.29-.52,2.6,0,4.61.76,3,1.5,3.13,2.07,4.5.52,1.24,1.24,5.52,4.02,4.54.26,1.15.52,2.22.74,3.12,1.23,5.03,3.2,8.06,5.74,10.41-.19,5.11-.64,12.59-1.74,15.31l-38.9,16.18h.15c-.21.07-.42.14-.62.21-1.08.4-2.87,1.29-2.87,1.29v.02c-2.2.91-4.49,3.67-6.86,10.54-3.18,9.21-7.8,70.31-8.3,76.97-.39,5.34-1.42,15.48-1.91,16.82-.28.75-.55,1.49-.82,2.23-4.76,12.99-9.29,24.8-10.65,34.19-.38,2.61-.73,5.03-1.06,7.33-1.63,11.36-2.79,19.44-4.54,30.33-.92,5.75-2.62,6.71-2.99,9.76-.05.44-.06.88-.06,1.43,0,.97,0,2.29-.32,4.57-1.04,7.39-1.84,8.86-2.56,11.5-1.63,5.98-2.27,9.1-2.12,13.22.21,5.44,1.51,8.05,3.9,10.69Z"/>
  </g>
</svg>