<?xml version="1.0" encoding="UTF-8"?>
<svg id="_레이어_2" data-name="레이어 2" xmlns="http://www.w3.org/2000/svg" viewBox="0 0 203.83 571.94">
  <defs>
    <style>
      .cls-1 {
        fill: #f2a7a9;
        stroke: #221714;
        stroke-miterlimit: 10;
      }
    </style>
  </defs>
  <g id="_레이어_1-2" data-name="레이어 1">
    <path class="cls-1" d="m4.42,336.48c1.24,1.36,2.46,3.05,4.37,4.88,2.73,2.6,3.11,2.73,4.22,1.26,1.45-1.9-.4-4.5.26-9.21.91-6.46,2.38-8.27,2.86-16.17.07-1.19.78,5.28,3.18,7.65,1.91,1.88,5.12,1.75,4.6.8-4.85-8.89-.6-14.59-2.7-21.4-.68-2.2-2.56-5.7-2.47-7.35.01-.14.04-.29.05-.44.35-3.77,2.58-8.44,5.68-14.28,4.25-8.01,6.69-12.93,12.71-27.24.39-.93.79-1.89,1.21-2.9,7.51-17.98,8.75-33.89,9.05-35.8.13-.86.32-1.82.54-2.82,1.96-8.92,7.03-22.77,10.32-34.49.52-1.84,1.78-7.31,2.31-9.59,3.83,12.9,9.78,33.44,5.33,44.08v.02c-1.32,5.58-4.84,12.11-8.25,19.59-3.92,8.63-9.78,21.38-9.99,21.91-3.57,9.14-9.05,21.22-9.23,41.52-.04,4.28.15,8.91.65,13.97,1.24,12.52,10.39,39.26,13.81,52.03,7.6,28.38,11.9,45.41,12.46,55.42.72,12.92-.94,16.97-2.43,24.79-2.89,15.21-.78,28.37,2.65,40.42,6.34,22.28,12.99,32.19,13.66,43.89.17,2.91-1.91,4.14-.76,7.83.59,1.92,1.6,3.76.07,8.04-5.17,14.48-11.89,18.28-11.1,23.57.88,5.86,19.55,5.49,26.85,4.17,6.01-1.09,5.93-10.06,4.2-20.34-.35-2.07-.53-4.4-.39-7.96.06-1.75.51-3.8.75-6.28.22-2.28-.41-4.68-.75-6.59-.26-1.45-.53-2.61-.57-3.21-1.62-22.39-1.12-27.76,1.55-48.8,2.7-21.26-1.08-25.08-.61-38.08.29-7.7,2.5-15.58,3.09-23.92.75-10.47-.28-20.35-1.33-27.79-2.89-20.57-2.88-23.89-3.81-40.16-1.02-17.66,4.34-26.31,1.28-41.54.71.26,2.45.36,4.17.37,1.72.02,3.46-.11,4.17-.37-3.06,15.23,2.3,23.88,1.29,41.54-.94,16.27-.92,19.59-3.82,40.16-1.05,7.44-2.08,17.32-1.33,27.79.59,8.34,2.81,16.22,3.09,23.92.47,13-3.31,16.82-.61,38.08,2.67,21.04,3.17,26.41,1.56,48.8-.05.6-.31,1.76-.57,3.21-.34,1.91-.98,4.31-.76,6.59.24,2.48.69,4.53.76,6.28.13,3.56-.05,5.89-.4,7.96-1.73,10.28-1.81,19.25,4.2,20.34,7.31,1.32,25.97,1.69,26.85-4.17.79-5.29-5.93-9.09-11.1-23.57-1.53-4.28-.52-6.12.07-8.04,1.15-3.69-.93-4.92-.76-7.83.67-11.7,7.32-21.61,13.66-43.89,3.43-12.05,5.54-25.21,2.65-40.42-1.48-7.82-3.15-11.87-2.43-24.79.56-10.01,4.86-27.04,12.46-55.42,3.42-12.77,12.58-39.51,13.81-52.03.5-5.06.69-9.69.66-13.97-.19-20.3-5.67-32.38-9.24-41.52-.21-.53-6.07-13.28-9.99-21.91-3.4-7.48-6.93-14.01-8.25-19.59v-.02c-4.45-10.64,1.51-31.18,5.34-44.08.53,2.28,1.79,7.75,2.31,9.59,3.29,11.72,8.36,25.57,10.32,34.49.22,1,.41,1.96.54,2.82.3,1.91,1.54,17.82,9.05,35.8.42,1.01.82,1.97,1.21,2.9,6.02,14.31,8.46,19.23,12.71,27.24,3.1,5.84,5.33,10.51,5.68,14.28,0,.15.04.3.05.44.09,1.65-1.79,5.15-2.47,7.35-2.1,6.81,2.15,12.51-2.7,21.4-.52.95,2.69,1.08,4.6-.8,2.4-2.37,3.11-8.84,3.18-7.65.48,7.9,1.95,9.71,2.86,16.17.66,4.71-1.19,7.31.26,9.21,1.11,1.47,1.49,1.34,4.22-1.26,1.91-1.83,3.13-3.52,4.37-4.88,2.39-2.64,3.69-5.25,3.9-10.69.15-4.12-.49-7.24-2.12-13.22-.72-2.64-1.52-4.11-2.56-11.5-.32-2.28-.32-3.6-.32-4.57-.01-.55-.01-.99-.06-1.43-.4-3.05-2.07-4.01-2.99-9.76-1.75-10.88-2.91-18.97-4.54-30.33-.33-2.3-.68-4.72-1.06-7.33-1.36-9.39-5.89-21.2-10.65-34.19-.27-.74-.54-1.48-.82-2.23-.48-1.34-1.52-11.48-1.91-16.82-.5-6.66-5.12-67.76-8.3-76.97-2.37-6.87-4.66-9.63-6.86-10.54v-.02s-1.79-.89-2.87-1.29c-.84-.32-1.75-.6-2.7-.85l-36.52-15.19c-.05-.11-.1-.22-.15-.33-1.11-2.7-1.56-10.21-1.75-15.34,2.54-2.35,4.51-5.38,5.74-10.41.22-.9.48-1.97.74-3.12,2.78.98,3.5-3.3,4.02-4.54.57-1.36,1.32-1.49,2.07-4.5.51-2-.36-3.32-.01-4.61.25-.87.36-3.32-.75-4.16-.12-.09-.26-.14-.42-.18,1.65-6.27,2.7-16.51-.74-24.35-1.48-3.39-3.32-6.12-5.25-8.29-4.57-5.57-12.1-9.22-20.63-9.22s-16.05,3.65-20.62,9.22c-1.93,2.17-3.77,4.9-5.25,8.29-3.44,7.84-2.39,18.08-.74,24.35-.16.04-.3.09-.42.18-1.11.84-1,3.29-.75,4.16.35,1.29-.52,2.61,0,4.61.75,3.01,1.5,3.14,2.07,4.5.52,1.24,1.24,5.52,4.02,4.54.26,1.15.52,2.22.74,3.12,1.23,5.03,3.2,8.06,5.74,10.41-.19,5.13-.64,12.64-1.75,15.34-.04.11-.09.21-.14.31l-36.63,15.24c-.91.24-1.78.51-2.59.82-1.08.4-2.87,1.29-2.87,1.29v.02c-2.2.91-4.49,3.67-6.86,10.54-3.18,9.21-7.8,70.31-8.3,76.97-.39,5.34-1.43,15.48-1.91,16.82-.28.75-.55,1.49-.82,2.23-4.76,12.99-9.29,24.8-10.65,34.19-.38,2.61-.73,5.03-1.06,7.33-1.63,11.36-2.79,19.45-4.54,30.33-.92,5.75-2.59,6.71-2.99,9.76-.05.44-.05.88-.06,1.43,0,.97,0,2.29-.32,4.57-1.04,7.39-1.84,8.86-2.56,11.5-1.63,5.98-2.27,9.1-2.12,13.22.21,5.44,1.51,8.05,3.9,10.69Z"/>
  </g>
</svg>