<?xml version="1.0" encoding="UTF-8"?>
<svg id="_레이어_2" data-name="레이어 2" xmlns="http://www.w3.org/2000/svg" viewBox="0 0 203.83 572.24">
  <defs>
    <style>
      .cls-1 {
        fill: #f2a7a9;
        stroke: #221714;
        stroke-miterlimit: 10;
      }
    </style>
  </defs>
  <g id="_레이어_1-2" data-name="레이어 1">
    <path class="cls-1" d="m4.42,336.48c1.24,1.36,2.46,3.06,4.37,4.88,2.73,2.6,3.11,2.73,4.22,1.26,1.45-1.9-.4-4.5.26-9.21.91-6.46,2.38-8.27,2.86-16.17.07-1.19.78,5.28,3.18,7.65,1.91,1.88,5.12,1.75,4.6.8-4.85-8.89-.6-14.59-2.7-21.4-.68-2.2-2.57-5.7-2.47-7.35,0-.14.04-.29.05-.44.3-3.77,2.58-8.44,5.68-14.27,4.25-8.02,6.69-12.93,12.71-27.25.39-.93.79-1.89,1.21-2.9,7.51-17.98,8.76-33.89,9.05-35.8.13-.86.32-1.82.54-2.82.98-4.46,2.74-10.15,4.66-16.18,1.92-6.05,4.02-12.44,5.66-18.31.47-1.68,1.56-6.36,2.13-8.82.14-.04.27-.04.39,0,1.45,9.15,2.81,28.76-.85,43.29,0,0,0,.02,0,.02-1.03,5.18-3.67,12.5-6.24,19.33-.44,1.15-.85,2.32-1.24,3.5-4.96,6.87-8.62,13.91-10.72,18.69-.05.09-.09.19-.13.3-3.95,9.08-10.13,21.1-10.26,41.22,0,.11,0,.19,0,.3-.02,4.28.17,8.91.73,13.96,1.37,12.53,11.56,39.27,15.36,52.04,8.45,28.38,13.23,45.42,13.85,55.42.81,12.93-1.05,16.96-2.7,24.79-3.21,15.21-.86,28.36,2.95,40.42,7.05,22.29,14.45,32.19,15.2,43.89.18,2.92-2.13,4.13-.86,7.83.67,1.93,1.79,3.77.09,8.05-5.75,14.48-13.23,18.27-12.35,23.56.98,5.86,21.74,5.5,29.86,4.17,6.69-1.08,6.6-10.06,4.67-20.33-.39-2.08-.59-4.4-.44-7.96.08-1.77.57-3.81.84-6.28.25-2.28-.46-4.7-.84-6.6-.29-1.44-.58-2.6-.63-3.21-1.8-22.39-1.24-27.75,1.73-48.79,3-21.27-1.21-25.08-.68-38.08.32-7.71,2.78-15.58,3.44-23.92.83-10.47-.31-20.36-1.48-27.81-3.22-20.56-3.2-23.88-4.25-40.15-1.12-17.66,4.84-26.32,1.44-41.55.78.27,2.72.38,4.63.38s3.85-.11,4.63-.38c-3.39,15.23,2.57,23.89,1.44,41.55-1.04,16.26-1.03,19.58-4.25,40.15-1.16,7.44-2.31,17.34-1.48,27.81.66,8.34,3.13,16.21,3.44,23.92.53,13-3.68,16.81-.68,38.08,2.97,21.04,3.53,26.4,1.73,48.79-.05.61-.34,1.77-.63,3.21-.38,1.9-1.08,4.32-.84,6.6.26,2.47.76,4.51.84,6.28.15,3.56-.05,5.88-.44,7.96-1.93,10.27-2.02,19.25,4.67,20.33,8.12,1.33,28.88,1.69,29.86-4.17.88-5.29-6.6-9.08-12.35-23.56-1.7-4.29-.57-6.12.09-8.05,1.27-3.69-1.04-4.91-.85-7.83.75-11.7,8.14-21.6,15.19-43.89,3.82-12.06,6.16-25.21,2.95-40.42-1.65-7.83-3.51-11.87-2.7-24.79.62-10,5.4-27.04,13.85-55.42,3.66-12.31,13.27-37.6,15.15-50.56.15-1.04.27-2.04.36-2.99.37-3.85.54-7.46.56-10.85,0-.1,0-.19,0-.29,0-.99-.01-1.97-.03-2.92,0-.1,0-.19-.01-.3-.46-17.95-5.75-29.24-9.46-37.9-.04-.1-.08-.19-.13-.29-.45-1.02-.93-2.07-1.42-3.14-.05-.11-.09-.21-.14-.31-2.34-5.03-6.13-11.92-11.1-18.51-2.58-7.53-5.21-15.67-6.31-21.26,0,0,0-.01,0-.02-3.58-14.33-2.53-33.35-1.08-42.53.15-.52.29-1.04.44-1.55.52,2.28,1.79,7.75,2.31,9.59,3.29,11.72,8.35,25.57,10.31,34.49.22,1,.41,1.96.55,2.82.3,1.91,1.54,17.82,9.05,35.8.42,1.01.82,1.97,1.21,2.9,6.02,14.31,8.46,19.23,12.71,27.25,3.1,5.84,5.38,10.5,5.68,14.27.01.15.04.3.05.44.1,1.65-1.79,5.15-2.47,7.35-2.1,6.81,2.15,12.51-2.7,21.4-.52.95,2.69,1.08,4.6-.8,2.4-2.37,3.11-8.84,3.18-7.65.48,7.9,1.95,9.71,2.86,16.17.66,4.71-1.19,7.31.26,9.21,1.11,1.46,1.49,1.33,4.22-1.26,1.92-1.83,3.14-3.52,4.37-4.88,2.4-2.64,3.69-5.25,3.9-10.69.16-4.12-.49-7.24-2.11-13.22-.72-2.64-1.52-4.11-2.56-11.5-.32-2.28-.32-3.6-.32-4.57,0-.55,0-.99-.05-1.43-.37-3.05-2.07-4.01-2.99-9.76-1.75-10.89-2.91-18.97-4.55-30.33-.33-2.29-.68-4.71-1.05-7.33-1.36-9.39-5.86-21.21-10.65-34.19-.27-.74-.55-1.48-.82-2.23-.49-1.34-1.52-11.48-1.91-16.82-.5-6.67-5.12-67.76-8.3-76.97-2.37-6.88-4.66-9.63-6.86-10.54v-.02s-1.79-.89-2.87-1.29c-.2-.08-.41-.14-.62-.21h.09l-38.83-16.15c-1.11-2.7-1.56-10.21-1.75-15.34,2.54-2.35,4.51-5.38,5.74-10.41.22-.9.48-1.98.74-3.12,2.78.98,3.5-3.3,4.02-4.54.57-1.36,1.31-1.5,2.07-4.5.51-2.01-.37-3.32-.01-4.61.24-.87.36-3.32-.75-4.16-.12-.09-.26-.14-.42-.19,1.65-6.27,2.7-16.5-.74-24.34-1.48-3.39-3.32-6.13-5.25-8.29-4.57-5.58-12.1-9.22-20.62-9.22s-16.06,3.65-20.63,9.22c-1.93,2.16-3.77,4.9-5.25,8.29-3.44,7.84-2.39,18.08-.74,24.34-.16.04-.3.09-.42.19-1.11.84-.99,3.29-.75,4.16.36,1.29-.52,2.6-.01,4.61.76,3,1.5,3.13,2.07,4.5.52,1.24,1.24,5.52,4.02,4.54.26,1.15.52,2.22.74,3.12,1.23,5.03,3.2,8.06,5.74,10.41-.19,5.11-.64,12.58-1.74,15.31l-38.9,16.18h.15c-.21.07-.42.14-.62.21-1.08.41-2.87,1.29-2.87,1.29v.02c-2.2.91-4.49,3.67-6.86,10.54-3.17,9.21-7.8,70.31-8.3,76.97-.39,5.34-1.42,15.48-1.91,16.82-.27.75-.55,1.49-.82,2.23-4.76,12.99-9.29,24.8-10.65,34.19-.38,2.61-.73,5.03-1.06,7.33-1.63,11.36-2.79,19.44-4.54,30.33-.92,5.75-2.62,6.71-2.99,9.76-.05.44-.05.88-.06,1.43,0,.98,0,2.29-.32,4.57-1.04,7.39-1.84,8.86-2.56,11.5-1.63,5.98-2.27,9.1-2.12,13.22.21,5.44,1.51,8.05,3.9,10.69Z"/>
  </g>
</svg>