<?xml version="1.0" encoding="UTF-8"?>
<svg id="_레이어_2" data-name="레이어 2" xmlns="http://www.w3.org/2000/svg" viewBox="0 0 203.83 571.65">
  <defs>
    <style>
      .cls-1 {
        fill: #f2a7a9;
        stroke: #221714;
        stroke-miterlimit: 10;
      }
    </style>
  </defs>
  <g id="_레이어_1-2" data-name="레이어 1">
    <path class="cls-1" d="m4.42,336.48c1.24,1.36,2.46,3.05,4.37,4.88,2.73,2.6,3.11,2.73,4.22,1.26,1.45-1.9-.4-4.5.26-9.21.91-6.46,2.38-8.27,2.86-16.17.07-1.19.78,5.28,3.18,7.65,1.91,1.88,5.12,1.75,4.6.8-4.85-8.89-.6-14.59-2.7-21.4-.68-2.2-2.56-5.7-2.47-7.35,0-.14.04-.29.05-.44.35-3.77,2.58-8.44,5.68-14.28,4.25-8.01,6.69-12.93,12.71-27.24.39-.93.79-1.89,1.21-2.9,7.51-17.98,8.75-33.89,9.05-35.8.13-.86.32-1.82.54-2.82,1.96-8.92,7.03-22.77,10.32-34.49.52-1.84,1.78-7.31,2.31-9.59,3.83,12.9,9.49,33.45,3.36,44.09-.02.05-.03.1-.04.15-2.13,5.55-2.54,11.44-4.71,19.84-3.57,13.88-2.94,12.07-5.54,21.53-3.17,9.1-7.93,21.13-8.09,41.22v.3c-.02,4.19.15,8.73.58,13.67,1.1,12.52,9.23,39.25,12.26,52.02,6.75,28.39,10.57,45.42,11.06,55.43.65,12.92-.83,16.96-2.15,24.79-2.56,15.21-.69,28.37,2.35,40.42,5.63,22.28,11.53,32.19,12.13,43.89.15,2.91-1.69,4.13-.68,7.83.53,1.92,1.43,3.76.07,8.04-4.59,14.48-10.56,18.28-9.86,23.57.79,5.86,17.35,5.49,23.84,4.17,5.34-1.09,5.27-10.06,3.73-20.34-.31-2.08-.47-4.4-.35-7.96.06-1.75.46-3.8.67-6.28.19-2.28-.37-4.69-.67-6.59-.23-1.45-.47-2.61-.51-3.22-1.43-22.38-.99-27.75,1.39-48.79,2.39-21.26-.97-25.08-.55-38.08.25-7.71,2.22-15.58,2.75-23.92.66-10.47-.25-20.35-1.18-27.8-2.58-20.57-2.56-23.89-3.39-40.15-.9-17.66,3.85-26.31,1.14-41.54.63.26,2.17.36,3.7.37,1.53,0,3.07-.11,3.7-.37-2.71,15.23,2.04,23.88,1.14,41.54-.83,16.26-.81,19.58-3.39,40.15-.93,7.45-1.84,17.33-1.18,27.8.53,8.34,2.5,16.21,2.75,23.92.42,13-2.94,16.82-.55,38.08,2.38,21.04,2.82,26.41,1.39,48.79-.04.61-.28,1.77-.51,3.22-.3,1.9-.86,4.31-.67,6.59.21,2.48.61,4.53.67,6.28.12,3.56-.04,5.88-.35,7.96-1.54,10.28-1.61,19.25,3.73,20.34,6.49,1.32,23.05,1.69,23.84-4.17.7-5.29-5.27-9.09-9.86-23.57-1.36-4.28-.46-6.12.07-8.04,1.01-3.7-.83-4.92-.68-7.83.6-11.7,6.5-21.61,12.13-43.89,3.04-12.05,4.91-25.21,2.35-40.42-1.32-7.83-2.8-11.87-2.15-24.79.49-10.01,4.31-27.04,11.06-55.43,3.03-12.77,11.16-39.5,12.26-52.02.43-4.94.6-9.48.58-13.67v-.3c-.16-20.09-4.92-32.12-8.09-41.22-2.6-9.46-1.97-7.65-5.54-21.53-2.17-8.4-2.58-14.29-4.71-19.84-.01-.05-.02-.1-.04-.15h0c-6.13-10.64-.47-31.19,3.36-44.09.53,2.28,1.79,7.75,2.31,9.59,3.29,11.72,8.36,25.57,10.32,34.49.22,1,.41,1.96.54,2.82.3,1.91,1.54,17.82,9.05,35.8.42,1.01.82,1.97,1.21,2.9,6.02,14.31,8.46,19.23,12.71,27.24,3.1,5.84,5.33,10.51,5.68,14.28.01.15.04.3.05.44.09,1.65-1.79,5.15-2.47,7.35-2.1,6.81,2.15,12.51-2.7,21.4-.52.95,2.69,1.08,4.6-.8,2.4-2.37,3.11-8.84,3.18-7.65.48,7.9,1.95,9.71,2.86,16.17.66,4.71-1.19,7.31.26,9.21,1.11,1.47,1.49,1.34,4.22-1.26,1.91-1.83,3.13-3.52,4.37-4.88,2.39-2.64,3.69-5.25,3.9-10.69.15-4.12-.49-7.24-2.12-13.22-.72-2.64-1.52-4.11-2.56-11.5-.32-2.28-.32-3.6-.32-4.57,0-.55,0-.99-.06-1.43-.4-3.05-2.07-4.01-2.99-9.76-1.75-10.88-2.91-18.97-4.54-30.33-.33-2.3-.68-4.72-1.06-7.33-1.36-9.39-5.89-21.2-10.65-34.19-.27-.74-.54-1.48-.82-2.23-.48-1.34-1.52-11.48-1.91-16.82-.5-6.66-5.12-67.76-8.3-76.97-2.37-6.87-4.66-9.63-6.86-10.54v-.02s-1.79-.89-2.87-1.29c-.85-.32-1.76-.6-2.72-.85l-36.49-15.18c-.05-.11-.1-.22-.15-.34-1.11-2.7-1.56-10.21-1.75-15.34,2.54-2.35,4.51-5.38,5.74-10.41.22-.9.48-1.97.74-3.12,2.78.98,3.5-3.3,4.02-4.54.57-1.36,1.32-1.49,2.07-4.5.51-2-.36-3.32,0-4.61.25-.87.36-3.32-.75-4.16-.12-.09-.26-.14-.42-.18,1.65-6.27,2.7-16.51-.74-24.35-1.48-3.39-3.32-6.12-5.25-8.29-4.57-5.57-12.1-9.22-20.63-9.22-8.53,0-16.06,3.65-20.63,9.22-1.93,2.17-3.77,4.9-5.25,8.29-3.44,7.84-2.39,18.08-.74,24.35-.16.04-.3.09-.42.18-1.11.84-1,3.29-.75,4.16.35,1.29-.52,2.61,0,4.61.75,3.01,1.5,3.14,2.07,4.5.52,1.24,1.24,5.52,4.02,4.54.26,1.15.52,2.22.74,3.12,1.23,5.03,3.2,8.06,5.74,10.41-.19,5.13-.64,12.64-1.75,15.34-.04.11-.09.2-.14.31l-36.65,15.24c-.9.24-1.77.51-2.58.82-1.08.4-2.87,1.29-2.87,1.29v.02c-2.2.91-4.49,3.67-6.86,10.54-3.18,9.21-7.8,70.31-8.3,76.97-.39,5.34-1.43,15.48-1.91,16.82-.28.75-.55,1.49-.82,2.23-4.76,12.99-9.29,24.8-10.65,34.19-.38,2.61-.73,5.03-1.06,7.33-1.63,11.36-2.79,19.45-4.54,30.33-.92,5.75-2.59,6.71-2.99,9.76-.05.44-.05.88-.06,1.43,0,.97,0,2.29-.32,4.57-1.04,7.39-1.84,8.86-2.56,11.5-1.63,5.98-2.27,9.1-2.12,13.22.21,5.44,1.51,8.05,3.9,10.69Z"/>
  </g>
</svg>