<?xml version="1.0" encoding="UTF-8"?>
<svg id="_레이어_2" data-name="레이어 2" xmlns="http://www.w3.org/2000/svg" viewBox="0 0 203.84 572.23">
  <defs>
    <style>
      .cls-1 {
        fill: #f2a7a9;
        stroke: #221714;
        stroke-miterlimit: 10;
      }
    </style>
  </defs>
  <g id="_레이어_1-2" data-name="레이어 1">
    <path class="cls-1" d="m198.64,301.07c-.32-2.28-.33-3.6-.33-4.58,0-.54,0-.98-.05-1.42-.37-3.05-2.07-4.01-2.99-9.76-1.75-10.89-2.91-18.97-4.55-30.34-.33-2.29-.68-4.71-1.05-7.32-1.36-9.39-5.84-21.22-10.65-34.19-.27-.74-.55-1.48-.82-2.23-.49-1.34-1.52-11.48-1.91-16.82-.5-6.67-5.13-67.76-8.3-76.97-2.37-6.88-4.66-9.63-6.86-10.54v-.02s-1.79-.89-2.87-1.3c-.94-.35-1.95-.65-3.01-.91l-36.18-15.05c-.06-.14-.12-.26-.18-.4-1.12-2.7-1.57-10.21-1.75-15.34,2.54-2.35,4.51-5.38,5.74-10.41.22-.9.48-1.98.74-3.12,2.78.98,3.5-3.3,4.02-4.54.57-1.37,1.31-1.5,2.07-4.5.51-2.01-.37-3.32,0-4.61.24-.87.36-3.32-.75-4.16-.12-.09-.27-.14-.42-.19,1.64-6.26,2.7-16.5-.74-24.34-1.48-3.39-3.32-6.13-5.25-8.29-4.57-5.58-12.1-9.22-20.63-9.22s-16.06,3.64-20.63,9.22c-1.93,2.16-3.77,4.9-5.25,8.29-3.44,7.84-2.39,18.08-.74,24.34-.16.05-.3.1-.42.19-1.11.84-.99,3.29-.75,4.16.36,1.29-.52,2.6,0,4.61.76,3,1.5,3.13,2.07,4.5.52,1.24,1.24,5.52,4.02,4.54.26,1.14.52,2.22.74,3.12,1.23,5.03,3.2,8.06,5.74,10.41-.19,5.13-.64,12.64-1.75,15.34-.05.12-.11.23-.16.35l-36.43,15.16c-.97.25-1.9.53-2.77.85-1.08.41-2.87,1.3-2.87,1.3v.02c-2.2.91-4.49,3.66-6.86,10.54-3.17,9.21-7.8,70.3-8.3,76.97-.39,5.34-1.42,15.48-1.91,16.82-.27.75-.55,1.49-.82,2.23-4.76,12.99-9.29,24.8-10.65,34.19-.38,2.61-.73,5.03-1.06,7.32-1.63,11.37-2.79,19.44-4.54,30.34-.92,5.75-2.62,6.71-2.99,9.76-.05.44-.06.88-.06,1.42,0,.98,0,2.3-.32,4.58-1.04,7.38-1.84,8.86-2.56,11.5-1.63,5.98-2.27,9.09-2.12,13.22.21,5.43,1.51,8.05,3.9,10.68,1.24,1.37,2.46,3.06,4.37,4.89,2.72,2.6,3.11,2.72,4.22,1.26,1.45-1.9-.4-4.5.26-9.21.91-6.46,2.38-8.27,2.86-16.17.07-1.19.78,5.28,3.18,7.65,1.91,1.87,5.12,1.75,4.6.8-4.85-8.89-.6-14.59-2.7-21.4-.68-2.2-2.57-5.7-2.47-7.35,0-.14.04-.3.05-.45.3-3.77,2.58-8.43,5.68-14.27,4.25-8.02,6.69-12.93,12.71-27.25.39-.92.79-1.88,1.21-2.89,7.51-17.98,8.76-33.89,9.05-35.8.13-.86.32-1.82.54-2.82.98-4.46,2.74-10.15,4.66-16.19,1.92-6.05,4.02-12.44,5.66-18.3.5-1.76,1.68-6.83,2.22-9.2.15.23.28.5.41.77.25,7.27-.74,26.33-4.42,42.77,0,.01,0,.03,0,.04,0,.05-.02.1-.03.15-.85,4.78-1.87,10.94-3.22,17.93-.31,1.6-.57,3.18-.81,4.74-5.04,7.72-6.46,10.23-10.7,18.81-.05.1-.09.19-.13.29-3.82,9.16-10.13,21.1-10.26,41.23,0,.1,0,.19,0,.29-.02,4.28.17,8.91.73,13.97,1.37,12.52,11.56,39.26,15.36,52.03,8.45,28.38,13.23,45.41,13.85,55.42.81,12.92-1.05,16.97-2.7,24.79-3.21,15.21-.86,28.37,2.95,40.42,7.05,22.28,14.45,32.19,15.2,43.89.18,2.91-2.14,4.14-.86,7.83.67,1.92,1.79,3.76.09,8.04-5.75,14.48-13.23,18.28-12.35,23.57.98,5.86,21.74,5.49,29.86,4.17,6.69-1.09,6.6-10.06,4.67-20.34-.39-2.07-.59-4.4-.44-7.96.08-1.75.57-3.8.84-6.28.25-2.28-.46-4.68-.84-6.59-.29-1.45-.58-2.61-.63-3.21-1.8-22.39-1.24-27.76,1.73-48.8,3-21.26-1.21-25.08-.68-38.08.32-7.7,2.78-15.58,3.44-23.92.83-10.47-.31-20.35-1.48-27.79-3.22-20.57-3.2-23.89-4.25-40.16-1.12-17.66,4.84-26.31,1.44-41.54.78.26,2.72.37,4.63.37s3.85-.11,4.63-.37c-3.39,15.23,2.57,23.88,1.44,41.54-1.04,16.27-1.03,19.59-4.25,40.16-1.16,7.44-2.31,17.32-1.48,27.79.66,8.34,3.13,16.22,3.44,23.92.53,13-3.68,16.82-.68,38.08,2.97,21.04,3.53,26.41,1.73,48.8-.05.6-.34,1.76-.63,3.21-.38,1.91-1.08,4.31-.84,6.59.26,2.48.76,4.53.84,6.28.15,3.56-.05,5.89-.44,7.96-1.93,10.28-2.02,19.25,4.67,20.34,8.12,1.32,28.88,1.69,29.86-4.17.88-5.29-6.6-9.09-12.35-23.57-1.7-4.28-.57-6.12.09-8.04,1.27-3.69-1.04-4.92-.85-7.83.75-11.7,8.14-21.61,15.19-43.89,3.72-11.73,6.04-24.51,3.19-39.22-.1-.54-.21-1.08-.33-1.61-1.56-7.24-3.25-11.35-2.69-22.83.03-.66.07-1.35.13-2.06.72-9.81,5.25-26.13,13.17-52.76.28-.93.56-1.89.86-2.87,3.66-12.09,12.42-35.4,14.7-48.45.24-1.37.42-2.65.54-3.84.35-3.5.54-6.79.6-9.9,0-.09,0-.18,0-.27.02-1.32.01-2.6,0-3.86,0-.1,0-.19-.01-.29-.32-17.21-5.1-28.34-8.78-36.89-.04-.09-.08-.18-.12-.27-.66-1.47-1.3-2.82-1.87-4.11-.04-.1-.08-.19-.13-.28-3.83-7.68-5.38-10.39-10.15-17.72-.22-.34-.43-.67-.67-1.02-1.36-8.33-2.34-16-3.34-21.56,0-.03-.01-.06-.02-.1,0,0,0-.02,0-.03-3.63-16.39-4.8-35.24-4.55-42.53.14-.51.29-1.04.44-1.55.52,2.28,1.79,7.74,2.31,9.59,3.29,11.72,8.35,25.57,10.31,34.49.22,1,.41,1.96.55,2.82.3,1.91,1.54,17.82,9.05,35.8.42,1.01.82,1.97,1.21,2.89,6.02,14.32,8.45,19.23,12.71,27.25,3.1,5.84,5.37,10.5,5.68,14.27.01.15.04.31.05.45.1,1.65-1.8,5.15-2.47,7.35-2.11,6.81,2.15,12.51-2.71,21.4-.52.95,2.7,1.07,4.61-.8,2.4-2.37,3.11-8.84,3.18-7.65.48,7.9,1.95,9.71,2.86,16.17.66,4.71-1.19,7.31.26,9.21,1.11,1.46,1.49,1.33,4.21-1.26,1.92-1.83,3.13-3.52,4.37-4.89,2.39-2.64,3.69-5.25,3.9-10.68.16-4.13-.48-7.24-2.11-13.22-.72-2.64-1.52-4.12-2.56-11.5Z"/>
  </g>
</svg>