<?xml version="1.0" encoding="UTF-8"?>
<svg id="_레이어_2" data-name="레이어 2" xmlns="http://www.w3.org/2000/svg" viewBox="0 0 203.84 571.96">
  <defs>
    <style>
      .cls-1 {
        fill: #f2a7a9;
        stroke: #221714;
        stroke-miterlimit: 10;
      }
    </style>
  </defs>
  <g id="_레이어_1-2" data-name="레이어 1">
    <path class="cls-1" d="m198.65,301.07c-.29-2.09-.32-3.37-.33-4.33,0-.08,0-.17,0-.24,0-.02,0-.03,0-.05,0-.52,0-.95-.05-1.38-.37-3.05-2.07-4.01-2.99-9.76-1.75-10.87-2.9-18.93-4.54-30.25,0-.03,0-.05-.01-.08-.13-.92-.27-1.86-.41-2.82-.21-1.45-.42-2.94-.65-4.51-1.36-9.39-5.84-21.22-10.65-34.19-.27-.74-.55-1.48-.82-2.23-.49-1.34-1.52-11.48-1.91-16.82-.5-6.67-5.13-67.76-8.3-76.97-2.37-6.88-4.66-9.63-6.86-10.54v-.02s-1.79-.89-2.87-1.3c-.79-.3-1.63-.55-2.51-.79-.16-.04-.34-.08-.5-.12l-36.17-15.05c-.06-.14-.12-.27-.18-.41-1.12-2.7-1.57-10.21-1.75-15.34,2.54-2.35,4.51-5.38,5.74-10.41.22-.9.48-1.98.74-3.12.35.12.66.16.94.14,2.01-.17,2.62-3.59,3.08-4.68.22-.52.46-.86.72-1.25.17-.25.34-.52.52-.88.27-.53.55-1.25.83-2.37.51-2.01-.37-3.32,0-4.61.24-.87.36-3.32-.75-4.16-.12-.09-.27-.14-.42-.19,1.64-6.26,2.7-16.5-.74-24.34-1.48-3.39-3.32-6.13-5.25-8.29-4.57-5.58-12.1-9.22-20.63-9.22h-.02c-8.53,0-16.06,3.65-20.63,9.22-1.93,2.16-3.77,4.9-5.25,8.29-3.44,7.84-2.38,18.08-.74,24.34-.15.05-.3.1-.42.19-1.11.84-.99,3.29-.75,4.16.36,1.29-.52,2.6,0,4.61.28,1.12.56,1.84.83,2.37.18.35.35.63.52.88.26.39.5.73.72,1.25.45,1.09,1.06,4.5,3.08,4.68.29.03.6-.01.94-.14.26,1.14.52,2.22.74,3.12,1.23,5.03,3.2,8.06,5.74,10.41-.18,5.13-.63,12.64-1.75,15.34-.05.12-.11.23-.16.35l-36.44,15.16c-.08.02-.17.04-.25.06-.88.23-1.72.49-2.51.79-1.08.41-2.87,1.3-2.87,1.3v.02c-2.2.91-4.49,3.66-6.86,10.54-3.17,9.21-7.8,70.3-8.3,76.97-.39,5.34-1.42,15.48-1.91,16.82-.27.75-.55,1.49-.82,2.23-4.81,12.97-9.29,24.8-10.65,34.19-.22,1.57-.44,3.06-.65,4.51-.14.96-.27,1.9-.41,2.82,0,.03,0,.05-.01.08-1.63,11.32-2.79,19.39-4.54,30.25-.92,5.75-2.62,6.71-2.99,9.76-.05.43-.05.86-.05,1.38,0,.02,0,.03,0,.05,0,.08,0,.16,0,.24,0,.95-.03,2.23-.33,4.33-1.04,7.38-1.84,8.86-2.56,11.5-1.58,5.79-2.23,8.89-2.12,12.82,0,.13,0,.26,0,.4.21,5.44,1.51,8.05,3.9,10.69.51.56,1.03,1.19,1.59,1.85.67.8,1.41,1.65,2.3,2.55.16.16.31.32.48.48,2.73,2.6,3.11,2.73,4.22,1.26,1.45-1.9-.4-4.5.26-9.21.91-6.46,2.38-8.27,2.86-16.17,0-.07.01-.11.02-.13.16-.13.93,5.58,3.15,7.78.36.35.76.63,1.18.85,1.42.75,2.98.76,3.38.36.11-.11.14-.25.05-.41-.28-.51-.52-1.01-.75-1.5-3.63-8.04.02-13.48-1.96-19.9-.68-2.2-2.56-5.7-2.47-7.35,0-.14.04-.29.05-.44.35-3.77,2.58-8.44,5.68-14.28,4.25-8.01,6.69-12.93,12.71-27.24.39-.93.79-1.89,1.21-2.9,7.51-17.98,8.75-33.89,9.05-35.8.07-.45.15-.93.25-1.43.09-.45.18-.91.29-1.39.32-1.47.74-3.08,1.21-4.79,2.38-8.65,6.37-19.91,9.11-29.7.52-1.84,1.78-7.29,2.31-9.58.15.5.29,1.03.43,1.53.24,7.3-.94,26.23-4.94,42.61-1.35,5.91-1.8,13.3-2.68,21.7-.65,6.19,1.72,16.58,1.71,16.62-.26.9-.58,1.98-1,3.45-3.17,9.1-7.93,21.13-8.09,41.22v.3c-.02,4.19.15,8.72.58,13.67,1.1,12.51,9.23,39.25,12.26,52.02,6.75,28.39,10.57,45.42,11.06,55.42.65,12.93-.83,16.97-2.15,24.8-2.56,15.21-.69,28.36,2.35,40.42,5.63,22.28,11.53,32.19,12.13,43.88.15,2.92-1.69,4.14-.68,7.84.53,1.92,1.43,3.76.07,8.04-4.59,14.48-10.56,18.27-9.86,23.56.79,5.87,17.35,5.5,23.84,4.18,5.34-1.09,5.27-10.06,3.73-20.34-.31-2.08-.47-4.4-.35-7.96.06-1.76.46-3.8.67-6.28.19-2.28-.37-4.69-.67-6.6-.23-1.44-.47-2.6-.51-3.21-1.43-22.38-.99-27.75,1.39-48.79,2.39-21.26-.97-25.08-.55-38.08.23-7.01,1.87-14.16,2.57-21.67.7,7.51,2.34,14.66,2.57,21.67.42,13-2.94,16.82-.55,38.08,2.38,21.04,2.82,26.41,1.39,48.79-.04.61-.28,1.77-.51,3.21-.3,1.91-.86,4.32-.67,6.6.21,2.48.61,4.52.67,6.28.12,3.56-.04,5.88-.35,7.96-1.54,10.28-1.61,19.25,3.73,20.34,6.49,1.32,23.05,1.69,23.84-4.18.7-5.29-5.27-9.08-9.86-23.56-1.36-4.28-.46-6.12.07-8.04,1.01-3.7-.83-4.92-.68-7.84.6-11.69,6.5-21.6,12.13-43.88,3.04-12.06,4.91-25.21,2.35-40.42-1.32-7.83-2.8-11.87-2.15-24.8.49-10,4.31-27.03,11.06-55.42,3.03-12.77,11.16-39.51,12.26-52.02.43-4.95.6-9.48.58-13.67v-.3c-.16-20.09-4.92-32.12-8.09-41.22-.42-1.46-.74-2.54-1-3.45-.01-.04,2.36-10.43,1.71-16.62-.88-8.4-1.33-15.79-2.68-21.7-3.99-16.39-5.18-35.31-4.94-42.61.14-.51.28-1.03.43-1.53.53,2.29,1.79,7.74,2.31,9.58,2.75,9.79,6.73,21.06,9.11,29.7.47,1.7.88,3.32,1.21,4.79.1.47.2.94.29,1.39.1.5.18.98.25,1.43.3,1.91,1.54,17.82,9.05,35.8.42,1.01.82,1.97,1.21,2.9,6.02,14.31,8.46,19.23,12.71,27.24,3.1,5.84,5.33,10.51,5.68,14.28,0,.15.04.3.05.44.09,1.65-1.79,5.15-2.47,7.35-1.98,6.42,1.67,11.85-1.96,19.9-.22.49-.47.99-.75,1.5-.09.16-.06.3.05.41.4.4,1.96.39,3.38-.36.42-.22.82-.5,1.18-.85,2.23-2.2,3-7.91,3.15-7.78,0,.02.02.06.02.13.48,7.9,1.95,9.71,2.86,16.17.66,4.71-1.19,7.31.26,9.21,1.11,1.47,1.49,1.34,4.22-1.26.17-.16.33-.32.48-.48.89-.9,1.63-1.75,2.3-2.55.56-.66,1.07-1.29,1.59-1.85,2.39-2.64,3.69-5.25,3.9-10.69,0-.13,0-.26,0-.4.1-3.93-.55-7.04-2.12-12.82-.72-2.64-1.52-4.12-2.56-11.5Zm-92.34,46.45c-.83,16.26-.81,19.58-3.39,40.15-.37,2.93-.73,6.24-1,9.81-.27-3.57-.63-6.88-1-9.81-2.58-20.57-2.56-23.89-3.39-40.15-.9-17.66,3.85-26.31,1.14-41.54.57.24,1.87.34,3.25.37,1.38-.03,2.68-.13,3.25-.37-2.71,15.23,2.04,23.88,1.14,41.54Z"/>
  </g>
</svg>