<?xml version="1.0" encoding="UTF-8"?>
<svg id="_레이어_2" data-name="레이어 2" xmlns="http://www.w3.org/2000/svg" viewBox="0 0 203.83 572.2">
  <defs>
    <style>
      .cls-1 {
        fill: #f2a7a9;
        stroke: #221714;
        stroke-miterlimit: 10;
      }
    </style>
  </defs>
  <g id="_레이어_1-2" data-name="레이어 1">
    <path class="cls-1" d="m4.42,336.47c1.24,1.37,2.46,3.06,4.37,4.89,2.72,2.6,3.11,2.72,4.22,1.26,1.45-1.9-.4-4.5.26-9.21.91-6.46,2.38-8.27,2.86-16.17.07-1.19.78,5.28,3.18,7.65,1.91,1.87,5.12,1.75,4.6.8-4.85-8.89-.6-14.59-2.7-21.4-.68-2.2-2.57-5.7-2.47-7.35,0-.14.04-.3.05-.45.3-3.77,2.58-8.43,5.68-14.27,4.25-8.02,6.69-12.93,12.71-27.25.39-.92.79-1.88,1.21-2.89,7.51-17.98,8.76-33.89,9.05-35.8.13-.86.32-1.82.54-2.82.98-4.46,2.74-10.15,4.66-16.19,1.92-6.05,4.02-12.44,5.66-18.3.5-1.76,1.68-6.83,2.22-9.2.15.23.28.5.41.77.25,7.28-.76,26.51-4.83,43-1.33,5.79-1.78,12.96-2.66,21.15-.7,6.5-1.04,11.54-1.31,16.28-.43,1.31-.86,2.64-1.44,4.42-3.37,9.13-8.49,21.18-8.66,41.38v.14c-.03,4.23.15,8.83.61,13.81,1.17,12.53,9.82,39.27,13.04,52.04,7.18,28.38,11.23,45.4,11.76,55.42.68,12.92-.89,16.96-2.29,24.79-2.73,15.21-.74,28.37,2.5,40.42,5.98,22.29,12.26,32.2,12.9,43.89.15,2.92-1.81,4.13-.73,7.82.57,1.93,1.52,3.77.07,8.06-4.88,14.48-11.22,18.27-10.47,23.56.83,5.86,18.44,5.5,25.34,4.17,5.67-1.08,5.6-10.06,3.96-20.33-.33-2.09-.5-4.4-.37-7.96.06-1.76.49-3.81.71-6.28.21-2.28-.39-4.69-.71-6.6-.24-1.44-.5-2.6-.54-3.21-1.52-22.38-1.05-27.75,1.47-48.79,2.55-21.27-1.02-25.08-.57-38.08.26-7.71,2.35-15.58,2.91-23.94.71-10.45-.26-20.35-1.25-27.79-2.74-20.56-2.72-23.88-3.61-40.14-.95-17.67,4.11-26.32,1.22-41.55.67.27,2.3.37,3.92.38h.01c1.63,0,3.27-.11,3.94-.38-2.89,15.23,2.17,23.88,1.21,41.55-.88,16.26-.87,19.58-3.6,40.14-.99,7.44-1.96,17.34-1.26,27.79.56,8.36,2.65,16.23,2.92,23.94.45,13-3.12,16.81-.58,38.08,2.53,21.04,3.11,26.42,1.48,48.79-.04.61-.3,1.77-.54,3.21-.32,1.91-.92,4.32-.72,6.6.23,2.47.65,4.52.72,6.28.13,3.56-.04,5.87-.37,7.96-1.64,10.27-1.72,19.25,3.96,20.33,6.89,1.33,24.51,1.69,25.34-4.17.75-5.29-5.6-9.08-10.48-23.56-1.44-4.29-.49-6.13.08-8.06,1.08-3.69-.89-4.9-.73-7.82.64-11.69,6.91-21.6,12.9-43.89,3.24-12.05,5.22-25.21,2.5-40.42-1.4-7.83-2.97-11.87-2.29-24.79.52-10.02,4.58-27.04,11.76-55.42,3.22-12.77,11.87-39.51,13.04-52.04.46-4.98.64-9.58.61-13.81v-.14c-.17-20.2-5.29-32.25-8.66-41.38-.58-1.78-1.01-3.1-1.44-4.42-.01-.04-.03-.08-.04-.12-.25-4.53-.6-9.43-1.25-15.61-.88-8.4-1.33-15.79-2.68-21.7-3.99-16.39-5.18-35.31-4.94-42.61.14-.51.29-1.04.44-1.55.52,2.28,1.79,7.74,2.31,9.59,3.29,11.72,8.35,25.57,10.31,34.49.22,1,.41,1.96.55,2.82.3,1.91,1.54,17.82,9.05,35.8.42,1.01.82,1.97,1.21,2.89,6.02,14.32,8.45,19.23,12.71,27.25,3.1,5.84,5.37,10.5,5.68,14.27.01.15.04.31.05.45.1,1.65-1.8,5.15-2.47,7.35-2.11,6.81,2.15,12.51-2.71,21.4-.52.95,2.7,1.07,4.61-.8,2.4-2.37,3.11-8.84,3.18-7.65.48,7.9,1.95,9.71,2.86,16.17.66,4.71-1.19,7.31.26,9.21,1.11,1.46,1.49,1.33,4.21-1.26,1.92-1.83,3.13-3.52,4.37-4.89,2.39-2.64,3.69-5.25,3.9-10.68.16-4.13-.48-7.24-2.11-13.22-.72-2.64-1.52-4.12-2.56-11.5-.32-2.28-.33-3.6-.33-4.58,0-.54,0-.98-.05-1.42-.37-3.05-2.07-4.01-2.99-9.76-1.75-10.9-2.91-18.97-4.55-30.34-.33-2.29-.68-4.71-1.05-7.32-1.36-9.39-5.84-21.22-10.65-34.19-.27-.74-.55-1.48-.82-2.23-.49-1.34-1.52-11.48-1.91-16.82-.5-6.67-5.13-67.76-8.3-76.97-2.37-6.88-4.66-9.63-6.86-10.54v-.02s-1.79-.89-2.87-1.3c-.94-.35-1.96-.65-3.02-.92l-36.16-15.04c-.06-.14-.12-.26-.18-.4-1.12-2.7-1.57-10.21-1.75-15.34,2.54-2.35,4.51-5.38,5.74-10.41.22-.9.48-1.98.74-3.12,2.78.98,3.5-3.3,4.02-4.54.57-1.37,1.31-1.5,2.07-4.5.51-2.01-.37-3.32,0-4.61.24-.87.36-3.32-.75-4.16-.12-.09-.27-.14-.42-.19,1.64-6.26,2.7-16.5-.74-24.34-1.48-3.39-3.32-6.13-5.25-8.29-4.57-5.58-12.1-9.22-20.63-9.22-8.53,0-16.06,3.65-20.63,9.22-1.93,2.16-3.77,4.9-5.25,8.29-3.44,7.84-2.39,18.08-.74,24.34-.16.05-.3.1-.42.19-1.11.84-.99,3.29-.75,4.16.36,1.29-.52,2.6-.01,4.61.75,3,1.5,3.13,2.07,4.5.52,1.24,1.24,5.52,4.02,4.54.26,1.14.52,2.22.74,3.12,1.23,5.03,3.2,8.06,5.74,10.41-.19,5.13-.64,12.64-1.75,15.34-.05.12-.1.23-.16.35l-36.46,15.17c-.97.25-1.89.53-2.75.85-1.08.41-2.87,1.3-2.87,1.3v.02c-2.2.91-4.49,3.66-6.86,10.54-3.17,9.21-7.8,70.3-8.3,76.97-.39,5.34-1.42,15.48-1.91,16.82-.28.75-.55,1.49-.82,2.23-4.76,12.99-9.29,24.8-10.65,34.19-.38,2.61-.73,5.03-1.06,7.32-1.63,11.37-2.79,19.44-4.54,30.34-.92,5.75-2.62,6.71-2.99,9.76-.05.44-.05.88-.06,1.42,0,.98,0,2.3-.32,4.58-1.04,7.38-1.84,8.86-2.56,11.5-1.63,5.98-2.27,9.09-2.12,13.22.21,5.43,1.51,8.05,3.9,10.68Z"/>
  </g>
</svg>