<?xml version="1.0" encoding="UTF-8"?>
<svg id="_레이어_2" data-name="레이어 2" xmlns="http://www.w3.org/2000/svg" viewBox="0 0 203.83 572.36">
  <defs>
    <style>
      .cls-1 {
        fill: #f2a7a9;
        stroke: #221714;
        stroke-miterlimit: 10;
      }
    </style>
  </defs>
  <g id="_레이어_1-2" data-name="레이어 1">
    <path class="cls-1" d="m4.42,336.48c1.24,1.36,2.46,3.05,4.37,4.88,2.73,2.6,3.11,2.73,4.22,1.26,1.45-1.9-.4-4.5.26-9.21.91-6.46,2.38-8.27,2.86-16.17.07-1.19.78,5.28,3.18,7.65,1.91,1.88,5.12,1.75,4.6.8-4.85-8.89-.6-14.59-2.7-21.4-.68-2.2-2.57-5.7-2.47-7.35,0-.14.04-.29.05-.44.3-3.77,2.58-8.44,5.68-14.28,4.25-8.01,6.69-12.93,12.71-27.24.39-.93.79-1.89,1.21-2.9,7.51-17.98,8.75-33.89,9.05-35.8.13-.86.32-1.82.54-2.82.98-4.46,2.74-10.14,4.66-16.18,1.92-6.05,4.02-12.44,5.66-18.31.45-1.59,1.45-5.88,2.04-8.43.14-.32.27-.59.38-.77,2.64,11.03,6.04,31.34-.4,43.93-2.41,5.23-3.62,11.54-6.67,20.74-.42,1.25-.79,2.43-1.14,3.54-4.54,10.26-5.64,11.92-7.79,17.27-.02.05-.04.09-.06.14-3.72,9.14-9.52,21.16-9.75,41.38v.15c-.04,4.27.16,8.9.69,13.96,1.31,12.52,10.98,39.26,14.59,52.03,8.02,28.38,12.56,45.41,13.15,55.42.77,12.92-.99,16.97-2.56,24.79-3.05,15.22-.82,28.37,2.8,40.42,6.69,22.28,13.71,32.19,14.43,43.89.17,2.91-2.02,4.14-.81,7.83.63,1.92,1.69,3.76.08,8.04-5.46,14.49-12.57,18.28-11.73,23.57.93,5.86,20.64,5.49,28.36,4.17,6.35-1.09,6.26-10.06,4.43-20.34-.37-2.07-.57-4.4-.42-7.95.07-1.76.55-3.81.8-6.29.23-2.27-.44-4.68-.8-6.59-.28-1.45-.55-2.61-.6-3.21-1.78-22.38-1.17-27.76,1.65-48.8,2.85-21.26-1.15-25.08-.65-38.08.3-7.7,2.64-15.58,3.27-23.92.79-10.47-.3-20.35-1.41-27.79-3.06-20.57-3.04-23.89-4.03-40.16-1.07-17.66,4.59-26.31,1.36-41.54.75.26,2.58.38,4.4.38s3.65-.12,4.4-.38c-3.23,15.23,2.43,23.88,1.36,41.54-.99,16.27-.97,19.59-4.03,40.16-1.11,7.44-2.2,17.32-1.41,27.79.63,8.34,2.97,16.22,3.27,23.92.5,13-3.5,16.82-.65,38.08,2.82,21.04,3.43,26.42,1.65,48.8-.05.6-.33,1.76-.6,3.21-.36,1.91-1.03,4.32-.8,6.59.25,2.48.73,4.53.8,6.29.15,3.55-.05,5.88-.42,7.95-1.83,10.28-1.92,19.25,4.43,20.34,7.72,1.32,27.43,1.69,28.36-4.17.84-5.29-6.27-9.08-11.73-23.57-1.61-4.28-.55-6.12.08-8.04,1.21-3.69-.98-4.92-.81-7.83.72-11.7,7.74-21.61,14.43-43.89,3.62-12.05,5.85-25.2,2.8-40.42-1.57-7.82-3.33-11.87-2.56-24.79.59-10.01,5.13-27.04,13.15-55.42,3.55-12.55,12.95-38.6,14.49-51.33.12-.98.22-1.93.3-2.85.35-3.94.49-7.61.48-11.05,0-.01,0-.14,0-.15,0-.99-.02-1.96-.05-2.91,0-.04,0-.11,0-.15-.6-18.27-5.8-29.58-9.35-38.27-.02-.05-.04-.08-.06-.13-.48-1.18-.92-2.2-1.35-3.18-.02-.04-.04-.09-.06-.13-1.8-4.12-3.28-6.9-7.84-17.39-3.09-9.52-4.26-16.25-6.7-21.67-6.22-12.28-3.34-31.7-.73-42.78.15-.52.3-1.04.45-1.54.53,2.28,1.79,7.75,2.31,9.59,3.29,11.72,8.36,25.57,10.32,34.49.22,1,.41,1.96.54,2.82.3,1.91,1.54,17.82,9.05,35.8.42,1.01.82,1.97,1.21,2.9,6.02,14.31,8.46,19.23,12.71,27.24,3.1,5.84,5.37,10.5,5.68,14.28.01.15.04.3.05.44.11,1.65-1.79,5.15-2.47,7.35-2.1,6.81,2.15,12.51-2.7,21.4-.52.95,2.69,1.08,4.6-.8,2.4-2.37,3.11-8.84,3.18-7.65.48,7.9,1.95,9.71,2.86,16.17.66,4.71-1.19,7.31.26,9.21,1.11,1.47,1.49,1.34,4.22-1.26,1.91-1.83,3.13-3.52,4.37-4.88,2.39-2.64,3.69-5.25,3.9-10.69.15-4.12-.49-7.24-2.12-13.22-.72-2.64-1.52-4.11-2.56-11.5-.32-2.28-.32-3.6-.32-4.57,0-.55,0-.99-.06-1.43-.37-3.05-2.07-4.01-2.99-9.76-1.75-10.88-2.91-18.97-4.54-30.33-.33-2.3-.68-4.72-1.06-7.33-1.36-9.39-5.89-21.2-10.65-34.19-.27-.74-.55-1.48-.82-2.23-.49-1.34-1.52-11.48-1.91-16.82-.5-6.66-5.12-67.76-8.3-76.97-2.37-6.87-4.66-9.63-6.86-10.54v-.02s-1.79-.89-2.87-1.29c-.61-.23-1.26-.43-1.93-.62l-37.33-15.53c-.03-.07-.06-.14-.09-.21-1.11-2.7-1.56-10.21-1.75-15.34,2.54-2.35,4.51-5.38,5.74-10.41.22-.9.48-1.97.74-3.12,2.78.98,3.5-3.3,4.02-4.54.57-1.36,1.31-1.49,2.07-4.5.5-2-.37-3.32-.01-4.61.24-.87.36-3.32-.75-4.16-.12-.09-.26-.14-.42-.18,1.65-6.27,2.7-16.51-.74-24.35-1.48-3.39-3.32-6.12-5.25-8.29-4.57-5.56-12.1-9.21-20.63-9.22-8.53,0-16.05,3.66-20.62,9.22-1.93,2.17-3.77,4.9-5.25,8.29-3.44,7.84-2.39,18.08-.74,24.35-.16.04-.3.09-.42.18-1.11.84-.99,3.29-.75,4.16.36,1.29-.52,2.61-.01,4.61.76,3.01,1.5,3.14,2.07,4.5.52,1.24,1.24,5.52,4.02,4.54.26,1.15.52,2.22.74,3.12,1.23,5.03,3.2,8.06,5.74,10.41-.19,5.13-.64,12.64-1.75,15.34-.02.05-.05.1-.07.15l-37.72,15.69c-.54.16-1.07.33-1.57.52-1.08.4-2.87,1.29-2.87,1.29v.02c-2.2.91-4.49,3.67-6.86,10.54-3.18,9.21-7.8,70.31-8.3,76.97-.39,5.34-1.42,15.48-1.91,16.82-.27.75-.55,1.49-.82,2.23-4.76,12.99-9.29,24.8-10.65,34.19-.38,2.61-.73,5.03-1.06,7.33-1.63,11.36-2.79,19.45-4.54,30.33-.92,5.75-2.62,6.71-2.99,9.76-.05.44-.06.88-.06,1.43,0,.97,0,2.29-.32,4.57-1.04,7.39-1.84,8.86-2.56,11.5-1.63,5.98-2.27,9.1-2.12,13.22.21,5.44,1.51,8.05,3.9,10.69Z"/>
  </g>
</svg>