<?xml version="1.0" encoding="UTF-8"?>
<svg id="_레이어_2" data-name="레이어 2" xmlns="http://www.w3.org/2000/svg" viewBox="0 0 203.83 572.27">
  <defs>
    <style>
      .cls-1 {
        fill: #f2a7a9;
        stroke: #221714;
        stroke-miterlimit: 10;
      }
    </style>
  </defs>
  <g id="_레이어_1-2" data-name="레이어 1">
    <path class="cls-1" d="m4.42,336.47c1.24,1.37,2.46,3.06,4.37,4.89,2.72,2.6,3.11,2.72,4.22,1.26,1.45-1.9-.4-4.5.26-9.21.91-6.46,2.38-8.27,2.86-16.17.07-1.19.78,5.28,3.18,7.65,1.91,1.87,5.12,1.75,4.6.8-4.85-8.89-.6-14.59-2.7-21.4-.68-2.2-2.57-5.7-2.47-7.35,0-.14.04-.3.05-.45.3-3.77,2.58-8.43,5.68-14.27,4.25-8.02,6.69-12.93,12.71-27.25.39-.92.79-1.88,1.21-2.89,7.51-17.98,8.76-33.89,9.05-35.8.13-.86.32-1.82.54-2.82.98-4.46,2.74-10.15,4.66-16.19,1.92-6.05,4.02-12.44,5.66-18.3.5-1.76,1.68-6.83,2.22-9.2.15.23.28.5.41.78.25,7.28-.77,26.51-4.83,43-1.34,5.16-2.07,12.3-3.23,20.71-.17,1.24-.31,2.47-.45,3.68-4.69,10.13-5.55,11.9-7.69,17.24-.02.05-.04.09-.06.14-3.72,9.14-9.52,21.16-9.75,41.38v.15c-.04,4.27.16,8.9.69,13.96,1.31,12.52,10.98,39.26,14.59,52.03,8.02,28.38,12.56,45.41,13.15,55.42.77,12.92-.99,16.97-2.56,24.79-3.05,15.22-.82,28.37,2.8,40.42,6.69,22.28,13.71,32.19,14.43,43.89.17,2.91-2.02,4.14-.81,7.83.63,1.92,1.69,3.76.08,8.04-5.46,14.49-12.57,18.28-11.73,23.57.93,5.86,20.64,5.49,28.36,4.17,6.35-1.09,6.26-10.06,4.43-20.34-.37-2.07-.57-4.4-.42-7.95.07-1.76.55-3.81.8-6.29.23-2.27-.44-4.68-.8-6.59-.28-1.45-.55-2.61-.6-3.21-1.79-22.38-1.17-27.76,1.65-48.8,2.85-21.26-1.15-25.08-.65-38.08.3-7.7,2.64-15.58,3.27-23.92.79-10.47-.3-20.35-1.41-27.79-3.06-20.57-3.04-23.89-4.03-40.16-1.07-17.66,4.59-26.31,1.36-41.54.75.26,2.58.37,4.4.38s3.65-.12,4.4-.38c-3.23,15.23,2.43,23.88,1.36,41.54-.99,16.27-.97,19.59-4.03,40.16-1.11,7.44-2.19,17.32-1.4,27.79.62,8.34,2.96,16.22,3.26,23.92.5,13-3.5,16.82-.64,38.08,2.82,21.04,3.43,26.42,1.64,48.8-.05.6-.33,1.76-.6,3.21-.36,1.91-1.03,4.32-.8,6.59.25,2.48.73,4.53.8,6.29.14,3.55-.05,5.88-.42,7.95-1.83,10.28-1.91,19.25,4.44,20.34,7.71,1.32,27.42,1.69,28.35-4.17.84-5.29-6.26-9.08-11.72-23.57-1.62-4.28-.55-6.12.08-8.04,1.21-3.69-.99-4.92-.81-7.83.71-11.7,7.73-21.61,14.43-43.89,3.62-12.05,5.84-25.2,2.8-40.42-1.57-7.82-3.33-11.87-2.57-24.79.59-10.01,5.13-27.04,13.16-55.42,3.42-12.11,12.3-36.79,14.3-49.94.15-.99.27-1.93.36-2.81.38-3.91.57-7.56.61-10.98,0-.03,0-.11,0-.14,0-.98,0-1.94-.01-2.88,0-.01,0-.14,0-.15-.33-18.03-5.08-29.47-8.71-38.18-.02-.04-.03-.07-.05-.11-.46-1.12-.91-2.16-1.32-3.16-.02-.05-.04-.09-.06-.14-2.02-4.93-3.01-7.08-7.71-17.3-1.19-9.41-1.89-17.75-3.31-23.5-3.99-16.39-5.18-35.31-4.94-42.61.14-.51.29-1.04.44-1.55.52,2.28,1.79,7.74,2.31,9.59,3.29,11.72,8.35,25.57,10.31,34.49.22,1,.41,1.96.55,2.82.3,1.91,1.54,17.82,9.05,35.8.42,1.01.82,1.97,1.21,2.89,6.02,14.32,8.45,19.23,12.71,27.25,3.1,5.84,5.37,10.5,5.68,14.27.01.15.04.31.05.45.1,1.65-1.8,5.15-2.47,7.35-2.11,6.81,2.15,12.51-2.71,21.4-.52.95,2.7,1.07,4.61-.8,2.4-2.37,3.11-8.84,3.18-7.65.48,7.9,1.95,9.71,2.86,16.17.66,4.71-1.19,7.31.26,9.21,1.11,1.46,1.49,1.33,4.21-1.26,1.92-1.83,3.13-3.52,4.37-4.89,2.39-2.64,3.69-5.25,3.9-10.68.16-4.13-.48-7.24-2.11-13.22-.72-2.64-1.52-4.12-2.56-11.5-.32-2.28-.33-3.6-.33-4.58,0-.54,0-.98-.05-1.42-.37-3.05-2.07-4.01-2.99-9.76-1.75-10.9-2.91-18.97-4.55-30.34-.33-2.29-.68-4.71-1.05-7.32-1.36-9.39-5.84-21.22-10.65-34.19-.27-.74-.55-1.48-.82-2.23-.49-1.34-1.52-11.48-1.91-16.82-.5-6.67-5.13-67.76-8.3-76.97-2.37-6.88-4.66-9.63-6.86-10.54v-.02s-1.79-.89-2.87-1.3c-.94-.35-1.96-.65-3.02-.92l-36.16-15.04c-.06-.14-.12-.26-.18-.4-1.12-2.7-1.57-10.21-1.75-15.34,2.54-2.35,4.51-5.38,5.74-10.41.22-.9.48-1.98.74-3.12,2.78.98,3.5-3.3,4.02-4.54.57-1.37,1.31-1.5,2.07-4.5.51-2.01-.37-3.32,0-4.61.24-.87.36-3.32-.75-4.16-.12-.09-.27-.14-.42-.19,1.64-6.26,2.7-16.5-.74-24.34-1.48-3.39-3.32-6.13-5.25-8.29-4.57-5.58-12.1-9.22-20.63-9.22-8.53,0-16.06,3.65-20.63,9.22-1.93,2.16-3.77,4.9-5.25,8.29-3.44,7.84-2.39,18.08-.74,24.34-.16.05-.3.1-.42.19-1.11.84-.99,3.29-.75,4.16.36,1.29-.52,2.6-.01,4.61.75,3,1.5,3.13,2.07,4.5.52,1.24,1.24,5.52,4.02,4.54.26,1.14.52,2.22.74,3.12,1.23,5.03,3.2,8.06,5.74,10.41-.19,5.13-.64,12.64-1.75,15.34-.05.12-.1.23-.16.35l-36.46,15.17c-.97.25-1.89.53-2.75.85-1.08.41-2.87,1.3-2.87,1.3v.02c-2.2.91-4.49,3.66-6.86,10.54-3.17,9.21-7.8,70.3-8.3,76.97-.39,5.34-1.42,15.48-1.91,16.82-.27.75-.55,1.49-.82,2.23-4.76,12.99-9.29,24.8-10.65,34.19-.38,2.61-.73,5.03-1.06,7.32-1.63,11.37-2.79,19.44-4.54,30.34-.92,5.75-2.62,6.71-2.99,9.76-.05.44-.05.88-.06,1.42,0,.98,0,2.3-.32,4.58-1.04,7.38-1.84,8.86-2.56,11.5-1.63,5.98-2.27,9.09-2.12,13.22.21,5.43,1.51,8.05,3.9,10.68Z"/>
  </g>
</svg>