<?xml version="1.0" encoding="UTF-8"?>
<svg id="_레이어_2" data-name="레이어 2" xmlns="http://www.w3.org/2000/svg" viewBox="0 0 212.64 571.25">
  <defs>
    <style>
      .cls-1 {
        fill: #f3a9aa;
        stroke: #231815;
        stroke-miterlimit: 10;
      }
    </style>
  </defs>
  <g id="_레이어_1-2" data-name="레이어 1">
    <path class="cls-1" d="m212.12,325.55c-.22,5.43-1.57,8.04-4.07,10.68-1.28,1.36-2.55,3.05-4.55,4.87-2.85,2.59-3.24,2.72-4.4,1.26-1.52-1.9.42-4.49-.28-9.2-.95-6.45-2.48-8.26-2.97-16.15-.08-1.19-.82,5.27-3.33,7.64-1.99,1.88-5.35,1.75-4.8.8,5.07-8.88.62-14.57,2.83-21.38.7-2.19,2.67-5.69,2.58-7.33,0-.14-.04-.3-.06-.44,0-.05-.02-.1-.02-.15-.42-3.75-2.71-8.35-5.91-14.11-4.44-8-6.98-12.91-13.26-27.21-.02-.05-.04-.1-.06-.15-.39-.88-.79-1.79-1.21-2.75-7.83-17.96-9.13-33.85-9.44-35.76-.14-.87-.35-1.82-.57-2.82,0-.05-.02-.1-.04-.15-2.06-8.91-7.31-22.65-10.72-34.3-.54-1.85-1.87-7.3-2.41-9.58-4,12.88-11.4,31.55-11.4,43.88h-.17c1.19,5.48,3.47,11.86,5.73,19.74,2.52,8.77,5.93,17.14,7.16,21.58,0,.05.03.1.04.15,2.92,9.08,7.38,21.06,7.58,41.17,0,.1,0,.2,0,.3.03,4.27-.13,8.9-.53,13.94-1.02,12.5-8.55,39.21-11.35,51.97-6.25,28.36-9.78,45.37-10.25,55.35-.59,12.91.78,16.95,2.01,24.77,2.36,15.19.63,28.33-2.18,40.37-5.21,22.25-10.67,32.15-11.23,43.83-.13,2.92,1.57,4.14.63,7.82-.48,1.93-1.31,3.77-.06,8.04,4.25,14.46,9.77,18.25,9.12,23.53-.72,5.85-16.06,5.49-22.06,4.17-4.94-1.09-4.87-10.05-3.45-20.32.29-2.08.43-4.39.33-7.95-.06-1.76-.42-3.81-.62-6.27-.18-2.28.34-4.68.62-6.59.21-1.44.42-2.6.46-3.21,1.32-22.35.92-27.72-1.28-48.73-2.21-21.24.9-25.05.5-38.03-.23-7.7-2.05-15.56-2.54-23.89-.61-10.46.24-20.34,1.1-27.77,2.38-20.55,2.36-23.86,3.13-40.1.84-17.64-3.57-26.29-1.06-41.5-.58.27-2.01.39-3.42.38-1.42,0-2.85-.11-3.43-.38,2.51,15.21-1.9,23.86-1.06,41.5.77,16.24.75,19.56,3.13,40.1.87,7.43,1.71,17.31,1.1,27.77-.48,8.33-2.31,16.19-2.54,23.89-.4,12.98,2.72,16.79.5,38.03-2.19,21.01-2.61,26.38-1.28,48.73.04.61.26,1.77.47,3.21.28,1.91.8,4.31.61,6.59-.19,2.47-.56,4.51-.61,6.27-.12,3.56.03,5.87.32,7.95,1.43,10.27,1.49,19.23-3.45,20.32-6,1.32-21.34,1.68-22.06-4.17-.65-5.28,4.87-9.07,9.12-23.53,1.26-4.27.43-6.11-.06-8.04-.94-3.69.77-4.9.63-7.82-.55-11.68-6.02-21.57-11.23-43.83-2.82-12.05-4.54-25.18-2.17-40.37,1.22-7.82,2.59-11.86,2-24.77-.46-9.99-3.99-27-10.24-55.35-2.82-12.75-10.33-39.46-11.35-51.97-.41-5.04-.57-9.67-.54-13.94,0-.1,0-.2,0-.3.2-20.11,4.66-32.09,7.58-41.17,0-.05.03-.1.04-.15,1.24-4.44,4.64-12.81,7.16-21.58,2.26-7.88,4.54-14.25,5.73-19.74,0-12.33-7.4-30.99-11.4-43.88-.54,2.28-1.87,7.73-2.41,9.58-3.41,11.65-8.65,25.39-10.72,34.3-.02.05-.03.1-.04.15-.23,1-.43,1.95-.57,2.82-.31,1.91-1.61,17.8-9.44,35.76-.41.96-.82,1.87-1.21,2.75-.02.05-.04.1-.06.15-6.28,14.29-8.82,19.21-13.26,27.21-3.2,5.76-5.49,10.37-5.91,14.11,0,.05-.02.1-.02.15-.02.14-.05.3-.06.44-.09,1.64,1.88,5.14,2.58,7.33,2.2,6.81-2.24,12.5,2.83,21.38.54.95-2.82,1.08-4.8-.8-2.51-2.37-3.25-8.83-3.33-7.64-.49,7.89-2.03,9.7-2.97,16.15-.69,4.7,1.24,7.3-.28,9.2-1.16,1.46-1.55,1.33-4.4-1.26-2.01-1.83-3.27-3.52-4.55-4.87-2.5-2.64-3.85-5.24-4.07-10.68-.17-4.12.5-7.23,2.2-13.2.75-2.64,1.58-4.11,2.67-11.49.34-2.28.35-3.6.35-4.56v-.15c0-.48,0-.89.06-1.28.41-3.05,2.15-4.01,3.12-9.75,1.82-10.88,3.02-18.95,4.73-30.29,0-.05.02-.1.02-.15.35-2.25.7-4.61,1.09-7.17,1.41-9.38,6.14-21.17,11.12-34.15.02-.05.03-.1.05-.15.27-.69.53-1.38.8-2.08.5-1.34,1.58-11.47,2-16.8.51-6.66,5.35-67.68,8.65-76.88,2.47-6.87,4.86-9.62,7.16-10.53v-.02s1.86-.89,2.99-1.3c3.37-1.21,7.6-1.84,12.07-2.55.3-.05.61-.1.92-.15,3.62-.67,13.24-1.41,16.79-2.8,5.27-2.05,9.61-4.6,12.23-11,1.1-2.7,1.54-10.2,1.72-15.32-2.5-2.35-4.45-5.37-5.66-10.4-.22-.9-.47-1.97-.73-3.12-2.75.98-3.46-3.3-3.97-4.53-.56-1.36-1.3-1.49-2.05-4.49-.5-2,.36-3.32,0-4.6-.25-.87-.36-3.32.74-4.15.12-.09.26-.14.41-.18-1.63-6.26-2.67-16.49.73-24.32,1.46-3.39,3.28-6.11,5.19-8.28,4.51-5.56,11.95-9.21,20.38-9.21s15.88,3.65,20.38,9.21c1.91,2.17,3.72,4.89,5.19,8.28,3.4,7.83,2.36,18.06.73,24.32.16.04.3.09.42.18,1.1.84.99,3.29.74,4.15-.35,1.29.51,2.61,0,4.6-.74,3.01-1.48,3.14-2.05,4.49-.51,1.24-1.23,5.51-3.97,4.53-.26,1.15-.51,2.22-.73,3.12-1.22,5.02-3.16,8.05-5.66,10.4.18,5.12.62,12.62,1.72,15.32,2.62,6.39,6.97,8.95,12.23,11,3.55,1.39,13.17,2.13,16.79,2.8.31.05.62.1.92.15,4.48.71,8.7,1.34,12.07,2.55,1.14.41,2.99,1.3,2.99,1.3v.02c2.3.91,4.69,3.66,7.16,10.53,3.31,9.2,8.14,70.22,8.65,76.88.41,5.33,1.49,15.46,2,16.8.27.7.53,1.39.8,2.08.02.05.03.1.05.15,4.98,12.97,9.7,24.77,11.12,34.15.39,2.56.74,4.92,1.09,7.17,0,.05,0,.1.02.15,1.71,11.35,2.91,19.42,4.73,30.29.97,5.74,2.71,6.7,3.12,9.75.06.39.06.8.06,1.28v.15c0,.97,0,2.29.35,4.56,1.09,7.38,1.92,8.85,2.67,11.49,1.7,5.97,2.37,9.09,2.2,13.2Z"/>
  </g>
</svg>