<?xml version="1.0" encoding="UTF-8"?>
<svg id="_레이어_2" data-name="레이어 2" xmlns="http://www.w3.org/2000/svg" viewBox="0 0 212.64 571.25">
  <defs>
    <style>
      .cls-1 {
        fill: #f3a9aa;
        stroke: #231815;
        stroke-miterlimit: 10;
      }
    </style>
  </defs>
  <g id="_레이어_1-2" data-name="레이어 1">
    <path class="cls-1" d="m44.54,106.92s1.86-.89,2.99-1.3c3.37-1.21,7.6-1.81,12.07-2.55.29-.05.6-.1.91-.15,3.78-.63,13.31-1.4,16.79-2.76,5.27-2.05,9.61-4.61,12.23-11,1.1-2.7,1.54-10.2,1.72-15.33-2.5-2.35-4.45-5.38-5.66-10.4-.22-.9-.47-1.97-.73-3.12-2.75.98-3.46-3.3-3.97-4.54-.56-1.36-1.3-1.49-2.05-4.5-.5-2,.37-3.32,0-4.61-.24-.87-.36-3.32.74-4.16.12-.09.26-.14.42-.18-1.63-6.26-2.67-16.5.73-24.33,1.46-3.39,3.28-6.12,5.19-8.28,4.51-5.57,11.95-9.21,20.38-9.21s15.88,3.64,20.38,9.21c1.91,2.17,3.72,4.9,5.19,8.28,3.4,7.83,2.36,18.07.73,24.33.16.04.3.09.41.18,1.1.84.98,3.29.74,4.16-.36,1.29.51,2.6,0,4.61-.75,3-1.48,3.14-2.05,4.5-.51,1.24-1.23,5.52-3.97,4.54-.26,1.15-.51,2.22-.73,3.12-1.22,5.03-3.16,8.05-5.66,10.4.18,5.13.62,12.63,1.72,15.33,2.62,6.4,6.97,8.95,12.23,11,3.48,1.36,13.02,2.13,16.79,2.76.31.05.62.1.91.15,4.47.74,8.7,1.34,12.07,2.55,1.14.41,2.99,1.3,2.99,1.3v.02c2.3.91,4.69,3.66,7.16,10.53,3.31,9.2,8.14,70.25,8.65,76.92.41,5.34,1.49,15.47,2,16.81.27.71.54,1.42.81,2.12.02.05.03.1.05.15,5.02,12.95,9.69,24.75,11.1,34.12.39,2.57.75,4.95,1.09,7.21,0,.05.01.1.02.15,1.71,11.33,2.91,19.4,4.73,30.27.97,5.75,2.69,6.71,3.12,9.75.06.4.06.82.06,1.32,0,.24,0,.68.09,1.25.07,1.18.14,2.53.45,4.54,1,6.46,1.77,7.9,2.48,10.37,1.7,5.98,2.37,9.09,2.2,13.21-.22,5.44-1.57,8.04-4.07,10.68-1.28,1.36-2.55,3.05-4.55,4.88-2.85,2.59-3.24,2.72-4.4,1.26-1.52-1.9.42-4.5-.28-9.2-.95-6.46-2.48-8.26-2.97-16.16-.08-1.19-.82,5.28-3.33,7.64-1.99,1.88-5.35,1.75-4.8.8,5.07-8.88.62-14.58,2.83-21.39.7-2.19,2.68-5.7,2.58-7.34,0-.14-.04-.3-.06-.44,0-.05-.02-.09-.02-.14-.41-3.75-2.71-8.36-5.91-14.13-4.44-8-6.98-12.92-13.26-27.22-.12-.27-.23-.55-.36-.84-.39-.89-.79-1.8-1.19-2.75-7.57-17.68-8.84-33.21-9.15-35.09-.14-.87-.36-1.82-.57-2.82-.01-.05-.02-.1-.04-.14-1.03-4.47-2.87-10.14-4.87-16.17-1.99-6-4.15-12.34-5.85-18.16-.54-1.85-1.87-7.31-2.41-9.58-.16.51-.31,1.03-.48,1.55-2.87,10.65-7.45,29.2-6.86,42.56,0,0-.06.02-.06.02.84,4.39,2.41,8.86,4.32,13.69.66,1.68,1.3,3.48,2,5.36,2.37,6.31,3.72,11.67,4.64,15.73.71,3.15,1.07,4.99,1.03,5.45.08.65.18,1.31.27,1.96.02.05.03.09.05.13.04.1.07.2.1.29,0,0,0,0,0,0,2.84,8.31,6.75,19.08,7.42,35.88,0,.1,0,.19.01.29,0,.07,0,.22.01.3.05,1.4.08,2.85.08,4.33,0,.1,0,.19,0,.28,0,.02,0,.27,0,.29-.01,2.83-.11,5.81-.31,8.97-.09,1.47-.23,3.01-.4,4.62-1.29,11.98-8.06,35.09-11.31,48.19-.31,1.26-.6,2.45-.86,3.57-6.12,26.05-9.75,42.4-10.58,52.5-.08.93-.13,1.82-.17,2.65-.51,11.46.68,15.79,1.87,22.48.13.7.25,1.43.37,2.17,2.33,14.51.67,27.16-2.14,38.76-.12.49-.24.98-.36,1.46-5.53,22.01-11.3,31.87-11.89,43.49-.15,2.91,1.67,4.13.67,7.82-.52,1.92-1.41,3.76-.07,8.03,4.54,14.47,10.43,18.27,9.74,23.55-.78,5.86-17.15,5.49-23.55,4.17-5.28-1.09-5.21-10.05-3.69-20.33.31-2.07.46-4.4.35-7.95-.06-1.75-.45-3.8-.66-6.28-.19-2.28.37-4.69.66-6.59.23-1.45.46-2.61.5-3.21,1.41-22.37.97-27.74-1.37-48.77-2.36-21.25.96-25.06.54-38.05-.25-7.69-2.19-15.57-2.72-23.9-.65-10.46.25-20.34,1.17-27.77,2.55-20.56,2.53-23.87,3.35-40.13.89-17.65-3.8-26.29-1.13-41.51-.62.26-2.14.38-3.66.37s-3.03-.11-3.66-.37c2.68,15.22-2.02,23.86-1.13,41.51.82,16.26.8,19.58,3.35,40.13.92,7.43,1.82,17.31,1.17,27.77-.52,8.33-2.47,16.21-2.72,23.9-.41,12.99,2.9,16.81.54,38.05-2.35,21.03-2.79,26.39-1.37,48.77.04.6.28,1.76.5,3.21.3,1.9.85,4.31.66,6.59-.21,2.48-.6,4.53-.66,6.28-.12,3.56.04,5.89.35,7.95,1.52,10.27,1.59,19.24-3.69,20.33-6.41,1.32-22.77,1.69-23.55-4.17-.69-5.29,5.21-9.08,9.74-23.55,1.34-4.28.45-6.12-.07-8.03-1-3.7.82-4.92.67-7.82-.59-11.69-6.42-21.6-11.98-43.86-3-12.04-4.85-25.19-2.32-40.39,1.3-7.81,2.77-11.86,2.12-24.77-.48-10-4.26-27.02-10.93-55.38-2.99-12.76-11.03-39.48-12.11-51.99-.42-4.94-.59-9.46-.57-13.66v-.3c0-.1,0-.19.01-.29.08-16.73,3.5-27.84,6.4-36.33.37-1.56.72-3.06,1.05-4.52.02-.1.05-.21.07-.31.01-.04.02-.09.03-.14.12-.48.23-.97.33-1.44-.18-2.24.91-10.1,5.87-21.84,2.92-6.91,5.24-13.09,6.36-18.99,0,0-.06-.02-.06-.03.52-11.9-2.96-27.42-5.82-37.46-.17-.52-.34-1.04-.5-1.56-.49-1.01-1.01-1.77-1.5-2.48-.31,1.29-.76,3.13-1.17,4.72-.48,1.85-.97,3.69-1.3,4.81-1.33,4.46-2.9,9.19-4.44,13.81-1.96,5.9-3.87,11.61-5.15,16.35-.36,1.32-.67,2.57-.93,3.72-.02.05-.02.09-.03.14-.17.86-.37,1.81-.52,2.81-.41,2.8-1.84,17.03-8.63,33.36-.34.82-.68,1.62-1.03,2.42-.41.95-.82,1.86-1.2,2.74-.02.05-.04.09-.06.14-5.61,12.74-8.2,17.88-12.03,24.85-.4.73-.81,1.47-1.23,2.23-2.62,4.76-4.58,8.71-5.31,12.03-.03.15-.07.3-.1.45-.1.53-.15,1.07-.14,1.62,0,.05,0,.1,0,.14,0,.14-.02.29-.01.43.07,1.34,1.16,3.54,1.91,5.38.27.68.51,1.34.67,1.92,1.77,6.32-1.86,11.73,2.11,19.76.24.48.27.93.29,1.31.03.56-1.84.64-3.49-.28-.45-.25-.88-.58-1.25-.99-1.67-1.84-2.46-5.44-2.8-6.52-.19-.6-.28-.88-.31-.45-.49,7.22-1.87,9.25-2.81,14.91-.06.39-.12.79-.17,1.19-.5,3.98.85,6.42.11,8.21-.13.33-.3.61-.53.87-.99,1.13-1.48,1.01-3.7-.97-.22-.2-.45-.4-.69-.63-1.7-1.57-2.86-3.03-3.97-4.27-.19-.2-.37-.4-.55-.6-2.34-2.51-3.64-5.04-3.91-10.06-.01-.21-.02-.42-.03-.63-.14-3.97.51-7.04,2.12-12.74.04-.14.08-.27.12-.41.74-2.58,1.57-4.1,2.64-11.4.34-2.28.35-3.6.35-4.57,0-.01,0-.14,0-.15,0-.48,0-.88.06-1.27.43-3.05,2.15-4.01,3.12-9.75,1.82-10.88,3.02-18.96,4.73-30.31,0-.05.02-.1.02-.15.34-2.25.7-4.62,1.09-7.18,1.41-9.38,6.1-21.2,11.12-34.17.02-.05.03-.1.05-.15.27-.69.53-1.38.8-2.08.51-1.34,1.58-11.47,2-16.81.51-6.67,5.35-67.71,8.65-76.92,2.47-6.88,4.86-9.62,7.16-10.53v-.02Z"/>
  </g>
</svg>