<?xml version="1.0" encoding="UTF-8"?>
<svg id="_레이어_2" data-name="레이어 2" xmlns="http://www.w3.org/2000/svg" viewBox="0 0 212.64 571.25">
  <defs>
    <style>
      .cls-1 {
        fill: #f3a9aa;
        stroke: #231815;
        stroke-miterlimit: 10;
      }
    </style>
  </defs>
  <g id="_레이어_1-2" data-name="레이어 1">
    <path class="cls-1" d="m44.54,106.88s1.86-.89,2.99-1.3c3.37-1.21,7.6-1.8,12.07-2.55.28-.05.59-.1.91-.15,3.93-.63,13.38-1.39,16.8-2.72,5.27-2.05,9.61-4.61,12.23-11,1.1-2.7,1.54-10.2,1.72-15.33-2.5-2.35-4.45-5.38-5.66-10.4-.22-.9-.47-1.97-.73-3.12-2.75.98-3.46-3.3-3.97-4.54-.56-1.36-1.3-1.5-2.05-4.5-.5-2,.37-3.32,0-4.61-.24-.87-.36-3.32.74-4.16.12-.09.26-.14.42-.18-1.63-6.26-2.67-16.49.73-24.33,1.46-3.39,3.28-6.12,5.19-8.28,4.51-5.57,11.95-9.21,20.38-9.21s15.88,3.64,20.38,9.21c1.91,2.16,3.72,4.9,5.19,8.28,3.4,7.83,2.36,18.07.73,24.33.16.05.3.09.41.18,1.1.84.98,3.29.74,4.16-.36,1.29.51,2.6,0,4.61-.75,3-1.48,3.13-2.05,4.5-.51,1.24-1.23,5.52-3.97,4.54-.26,1.14-.51,2.22-.73,3.12-1.22,5.03-3.16,8.05-5.66,10.4.18,5.13.62,12.63,1.72,15.33,2.62,6.4,6.97,8.95,12.23,11,3.41,1.34,12.87,2.09,16.8,2.73.32.05.62.1.9.15,4.47.75,8.7,1.34,12.07,2.55,1.14.41,2.99,1.3,2.99,1.3v.02c2.3.91,4.69,3.66,7.16,10.53,3.31,9.2,8.14,70.25,8.65,76.92.41,5.34,1.49,15.47,2,16.81.27.73.55,1.44.82,2.15.02.05.04.11.06.16,5,12.94,9.67,24.72,11.08,34.08.39,2.58.75,4.98,1.1,7.25,0,.05.01.11.02.16,1.7,11.31,2.91,19.37,4.72,30.23.97,5.75,2.7,6.71,3.12,9.75.06.41.06.84.06,1.35,0,.48,0,1.22.17,2.36.13,1.39.26,2.78.55,4.52.91,5.54,1.63,6.94,2.29,9.26,1.7,5.98,2.37,9.09,2.2,13.21-.22,5.44-1.57,8.04-4.07,10.68-1.28,1.36-2.55,3.05-4.55,4.88-2.85,2.59-3.24,2.72-4.4,1.26-1.52-1.9.42-4.5-.28-9.2-.95-6.46-2.48-8.26-2.97-16.16-.08-1.19-.82,5.28-3.33,7.64-1.99,1.88-5.35,1.75-4.8.8,5.07-8.88.62-14.58,2.83-21.39.7-2.19,2.68-5.7,2.58-7.34,0-.14-.04-.3-.06-.44,0-.04-.01-.09-.02-.13-.41-3.75-2.71-8.37-5.91-14.14-4.44-8-6.98-12.92-13.26-27.22-.21-.49-.43-.99-.66-1.52-.39-.9-.79-1.81-1.18-2.75-7.31-17.39-8.56-32.54-8.86-34.4-.14-.86-.35-1.82-.57-2.82,0-.05-.02-.09-.03-.14-1.03-4.46-2.86-10.12-4.86-16.13-2-6.02-4.16-12.37-5.87-18.2-.54-1.85-1.87-7.31-2.41-9.58-.16.51-.31,1.03-.47,1.55-1.66,8.49-3.98,27.9-2.81,42.75,0,.02-.04.03-.04.05.79,4.65,2.08,9.26,3.56,13.87.54,1.69,1,3.54,1.52,5.47,1.6,5.88,2.33,11.37,2.95,16,.36,2.73.61,4.58.53,5.5.02.84.05,1.67.07,2.5.02.04.03.08.04.12.04.1.07.19.1.29,0,0,0,0,0,0,2.84,8.34,6.55,19.17,7,35.8,0,.1,0,.19.01.29,0,.05,0,.25,0,.3.03,1.4.05,2.83.04,4.31,0,.09,0,.18,0,.28,0,.05,0,.24,0,.29-.03,2.82-.15,5.79-.38,8.93-.1,1.43-.26,2.97-.46,4.59-1.59,12.52-8.33,35.42-11.39,47.95-.3,1.24-.59,2.43-.85,3.56-6.13,26.11-9.71,42.35-10.42,52.28-.07.93-.12,1.81-.15,2.64-.45,11.27.8,15.49,2,22.37.12.71.24,1.43.36,2.17,2.22,14.44.52,27.03-2.31,38.59-.12.49-.24.98-.36,1.46-5.5,21.75-11.21,31.56-11.8,43.13-.15,2.91,1.67,4.13.67,7.82-.52,1.92-1.41,3.76-.07,8.03,4.54,14.47,10.43,18.27,9.74,23.55-.78,5.86-17.15,5.49-23.55,4.17-5.28-1.09-5.21-10.05-3.69-20.33.31-2.07.46-4.4.35-7.95-.06-1.75-.45-3.8-.66-6.28-.19-2.28.37-4.69.66-6.59.23-1.45.46-2.61.5-3.21,1.41-22.37.97-27.74-1.37-48.77-2.36-21.25.96-25.06.54-38.05-.25-7.69-2.19-15.57-2.72-23.9-.65-10.46.25-20.34,1.17-27.77,2.55-20.56,2.53-23.87,3.35-40.13.89-17.65-3.8-26.29-1.13-41.51-.62.26-2.14.38-3.66.37-1.51-.01-3.03-.11-3.66-.37,2.68,15.22-2.02,23.86-1.13,41.51.82,16.26.8,19.58,3.35,40.13.92,7.43,1.82,17.31,1.17,27.77-.52,8.33-2.47,16.21-2.72,23.9-.41,12.99,2.9,16.81.54,38.05-2.35,21.03-2.79,26.39-1.37,48.77.04.6.28,1.76.5,3.21.3,1.9.85,4.31.66,6.59-.21,2.48-.6,4.53-.66,6.28-.12,3.56.04,5.89.35,7.95,1.52,10.27,1.59,19.24-3.69,20.33-6.41,1.32-22.77,1.69-23.55-4.17-.69-5.29,5.21-9.08,9.74-23.55,1.34-4.28.45-6.12-.07-8.03-1-3.7.82-4.92.67-7.82-.59-11.69-6.42-21.6-11.98-43.86-3-12.04-4.85-25.19-2.32-40.39,1.3-7.81,2.77-11.86,2.12-24.77-.48-10-4.26-27.02-10.93-55.38-2.99-12.76-11.03-39.48-12.11-51.99-.42-4.94-.59-9.46-.57-13.66v-.3c0-.1,0-.19.01-.29.08-16.66,3.47-27.75,6.36-36.23.2-1.55.38-3.07.56-4.57,0-.11.02-.21.03-.32,0-.05.01-.1.02-.15.06-.49.13-.98.18-1.46-.37-4.48.31-12.78,3.9-22.81,2.31-6.45,4.11-12.9,5.15-19.22,0-.02-.04-.03-.03-.05,1.03-13.43-.67-29.59-2.35-37.54-.17-.52-.32-1.04-.49-1.56-.42-.29-.92-.16-1.4,0-.36,1.49-.82,3.33-1.18,4.69-.46,1.75-.95,3.5-1.35,4.77-1.36,4.47-2.93,9.17-4.45,13.74-1.98,5.94-3.86,11.65-5.05,16.3-.31,1.21-.59,2.37-.81,3.42-.01.04-.02.08-.03.13-.14.73-.3,1.67-.46,2.79-.53,3.76-2.14,17.59-8.77,33.21-.37.88-.74,1.74-1.11,2.58-.41.95-.81,1.85-1.2,2.72-.02.04-.04.09-.05.13-5.54,12.55-8.09,17.57-12.02,24.7-.41.74-.82,1.48-1.22,2.22-2.61,4.78-4.52,8.73-5.11,12.04-.03.15-.06.3-.09.45-.08.49-.07,1.03,0,1.6,0,.05,0,.09.01.14.01.13.01.28.04.41.23,1.46,1.33,3.62,1.98,5.35.25.68.46,1.33.61,1.94,1.49,6.21-1.98,11.62,2.19,19.65.24.47.07.83-.21,1.1-.34.34-2.07.28-3.52-.68-.42-.28-.82-.64-1.16-1.08-1.71-2.16-2.41-6.09-2.65-6.48-.14-.23-.21-.26-.24.18-.52,7.05-1.91,9.06-2.83,14.85-.06.4-.12.8-.16,1.2-.42,3.98.98,6.37.02,8.14-.17.32-.36.6-.58.82-.92.94-1.48.69-3.7-1.31-.22-.2-.45-.41-.68-.63-1.67-1.58-2.82-3.04-3.94-4.26-.19-.2-.37-.4-.54-.6-2.28-2.49-3.54-5.05-3.79-10.07-.01-.21-.02-.42-.03-.63-.12-3.92.54-7,2.15-12.69.04-.13.08-.27.11-.4.74-2.53,1.55-4.1,2.61-11.31.34-2.28.35-3.6.35-4.57,0-.03,0-.13,0-.16,0-.48,0-.88.06-1.27.43-3.05,2.15-4.01,3.12-9.75,1.82-10.88,3.02-18.96,4.73-30.31,0-.05.02-.1.02-.15.34-2.25.7-4.62,1.09-7.18,1.41-9.38,6.14-21.19,11.12-34.17.02-.05.03-.1.05-.15.26-.69.53-1.38.8-2.08.51-1.34,1.58-11.47,2-16.81.51-6.67,5.35-67.71,8.65-76.92,2.47-6.88,4.86-9.62,7.16-10.53v-.02Z"/>
  </g>
</svg>