<?xml version="1.0" encoding="UTF-8"?>
<svg id="_레이어_2" data-name="레이어 2" xmlns="http://www.w3.org/2000/svg" viewBox="0 0 212.64 570.7">
  <defs>
    <style>
      .cls-1 {
        fill: #f3a9aa;
        stroke: #231815;
        stroke-miterlimit: 10;
      }
    </style>
  </defs>
  <g id="_레이어_1-2" data-name="레이어 1">
    <path class="cls-1" d="m44.54,106.79s1.86-.89,2.99-1.3c3.37-1.21,7.6-1.81,12.07-2.55.29-.05.6-.1.91-.15,3.78-.63,13.31-1.4,16.79-2.76,5.27-2.05,9.61-4.6,12.23-10.99,1.1-2.69,1.54-10.19,1.72-15.31-2.5-2.35-4.45-5.37-5.66-10.39-.22-.9-.47-1.97-.73-3.11-2.75.98-3.46-3.29-3.97-4.53-.56-1.36-1.3-1.49-2.05-4.49-.5-2,.37-3.32,0-4.6-.24-.87-.36-3.32.74-4.15.12-.09.26-.14.41-.18-1.63-6.26-2.67-16.48.73-24.3,1.46-3.38,3.28-6.11,5.19-8.27,4.51-5.56,11.95-9.2,20.38-9.2s15.88,3.64,20.38,9.2c1.91,2.16,3.72,4.89,5.19,8.27,3.4,7.83,2.36,18.05.73,24.3.16.04.3.09.42.18,1.1.84.98,3.28.74,4.15-.36,1.28.51,2.6,0,4.6-.75,3-1.48,3.13-2.04,4.49-.51,1.24-1.23,5.51-3.97,4.53-.26,1.15-.51,2.22-.73,3.11-1.22,5.02-3.16,8.04-5.66,10.39.18,5.12.62,12.62,1.72,15.31,2.62,6.39,6.97,8.94,12.23,10.99,3.48,1.36,13.02,2.13,16.79,2.76.31.05.62.1.91.15,4.47.74,8.7,1.34,12.07,2.55,1.14.41,2.99,1.3,2.99,1.3v.02c2.3.91,4.69,3.65,7.16,10.52,3.31,9.19,8.14,70.17,8.65,76.82.41,5.33,1.49,15.45,2,16.79.27.71.54,1.41.81,2.11.02.05.03.1.05.15,5.02,12.93,9.69,24.72,11.1,34.08.39,2.57.75,4.95,1.09,7.2,0,.05.01.1.02.15,1.71,11.32,2.91,19.37,4.73,30.23.97,5.74,2.69,6.7,3.12,9.74.06.4.06.82.06,1.32,0,.24,0,.68.09,1.25.07,1.18.14,2.53.45,4.53,1,6.46,1.77,7.89,2.48,10.37,1.7,5.97,2.37,9.08,2.2,13.19-.22,5.43-1.57,8.03-4.07,10.67-1.28,1.36-2.55,3.04-4.55,4.87-2.85,2.59-3.24,2.71-4.4,1.26-1.52-1.9.41-4.49-.28-9.19-.95-6.45-2.48-8.25-2.97-16.14-.08-1.19-.82,5.27-3.33,7.64-1.99,1.88-5.35,1.75-4.8.8,5.07-8.87.62-14.56,2.83-21.37.7-2.19,2.68-5.69,2.58-7.33,0-.14-.04-.3-.06-.44,0-.05-.02-.09-.02-.14-.41-3.74-2.71-8.35-5.91-14.11-4.44-7.99-6.98-12.91-13.26-27.19-.12-.27-.23-.55-.36-.84-.39-.89-.79-1.8-1.19-2.74-7.57-17.66-8.85-33.17-9.15-35.05-.14-.87-.36-1.81-.57-2.81-.01-.05-.02-.1-.04-.14-1.04-4.48-2.88-10.18-4.89-16.22-1.99-5.97-4.13-12.28-5.83-18.06-.54-1.85-1.87-7.3-2.41-9.57-.16.51-.32,1.03-.48,1.55-2.87,10.63-7.45,29.1-6.87,42.41,0,0-.06.02-.06.02.86,4.48,2.66,9.04,4.78,13.94.68,1.56,1.32,3.23,2.03,4.97,2.96,7.25,5.15,13.66,6.35,18.37.22.51.42.96.58,1.33.05.11.09.22.13.29.57,1.35.97,2.36,1.23,2.95.06.14.11.25.11.28,3.17,8.65,7.7,19.95,8.2,38.14,0,.1,0,.19,0,.29,0,.04,0,.11,0,.15.02.75.03,1.51.03,2.29,0,.1,0,.19,0,.28,0,.01,0,.14,0,.15,0,3.52-.13,7.27-.45,11.3-.06.79-.14,1.6-.22,2.42-1.3,12.35-9.23,37.38-12.55,50.28-.12.48-.24.94-.35,1.39-7.04,28.13-11.02,45.03-11.53,54.98-.67,12.9.88,16.93,2.26,24.74,2.69,15.18.73,28.32-2.47,40.34-5.92,22.24-12.11,32.13-12.75,43.81-.16,2.9,1.79,4.13.72,7.82-.56,1.92-1.5,3.75-.08,8.02,4.82,14.45,11.1,18.24,10.35,23.52-.82,5.85-18.23,5.48-25.04,4.16-5.61-1.09-5.53-10.04-3.91-20.3.33-2.08.49-4.39.37-7.94-.07-1.75-.49-3.79-.71-6.27-.2-2.28.4-4.68.71-6.58.24-1.45.49-2.6.53-3.21,1.66-22.33,1.04-27.7-1.46-48.7-2.51-21.22,1.02-25.03.57-38.01-.27-7.7-2.33-15.55-2.88-23.87-.69-10.45.27-20.31,1.24-27.74,2.7-20.54,2.69-23.85,3.56-40.08.95-17.63-4.05-26.26-1.2-41.46-.66.26-2.28.38-3.89.37s-3.22-.11-3.88-.37c2.86,15.2-2.14,23.83-1.21,41.46.88,16.23.86,19.54,3.57,40.08.98,7.43,1.94,17.29,1.24,27.74-.55,8.32-2.62,16.18-2.88,23.87-.44,12.98,3.08,16.79.56,38.01-2.49,21-2.95,26.36-1.45,48.7.04.61.3,1.77.53,3.21.32,1.9.91,4.3.7,6.58-.22,2.48-.64,4.52-.7,6.27-.13,3.55.04,5.87.37,7.94,1.62,10.26,1.69,19.21-3.91,20.3-6.82,1.32-24.22,1.69-25.04-4.16-.74-5.28,5.52-9.07,10.34-23.52,1.43-4.27.49-6.11-.07-8.02-1.08-3.69.87-4.91.72-7.82-.63-11.68-6.84-21.57-12.75-43.81-3.2-12.03-5.17-25.16-2.47-40.34,1.38-7.81,2.93-11.85,2.26-24.74-.52-9.99-4.53-26.99-11.62-55.32-3.18-12.75-11.73-39.42-12.88-51.92-.45-4.99-.63-9.56-.6-13.79v-.15c0-.1,0-.19,0-.29.1-19.98,5.24-31.94,8.55-41,0-.02.05-.14.12-.29.11-.26.29-.69.55-1.29.83-4.63,3.33-12.79,7.57-22.18,3.08-6.83,5.73-12.98,6.84-18.88,0,0-.06-.02-.06-.03.52-11.86-2.94-27.29-5.8-37.31-.17-.52-.34-1.04-.5-1.56-.51-1.03-1.04-1.8-1.53-2.53-.31,1.27-.74,3.05-1.14,4.61-.48,1.88-.98,3.76-1.33,4.9-1.32,4.42-2.88,9.11-4.41,13.7-1.96,5.89-3.87,11.59-5.15,16.34-.37,1.34-.69,2.61-.94,3.78-.02.05-.02.09-.03.14-.17.86-.37,1.81-.52,2.8-.41,2.79-1.84,17.01-8.63,33.32-.34.81-.68,1.62-1.03,2.42-.41.95-.82,1.86-1.2,2.73-.02.05-.04.09-.06.14-5.61,12.72-8.2,17.86-12.03,24.81-.4.73-.81,1.47-1.23,2.23-2.62,4.75-4.58,8.7-5.31,12.02-.03.15-.07.3-.1.45-.1.53-.15,1.07-.14,1.61,0,.05,0,.1,0,.14,0,.14-.02.29-.01.43.07,1.34,1.16,3.53,1.91,5.38.27.68.51,1.34.67,1.92,1.77,6.31-1.86,11.72,2.11,19.73.24.48.27.93.29,1.31.03.56-1.84.64-3.49-.28-.45-.25-.88-.58-1.25-.99-1.67-1.84-2.46-5.44-2.8-6.52-.19-.6-.28-.88-.31-.45-.49,7.21-1.87,9.24-2.81,14.89-.06.39-.12.78-.17,1.19-.5,3.98.85,6.41.11,8.2-.13.32-.3.61-.53.87-.99,1.13-1.48,1.01-3.7-.97-.22-.2-.45-.4-.69-.63-1.7-1.57-2.86-3.03-3.97-4.26-.19-.2-.37-.4-.55-.6-2.34-2.51-3.64-5.04-3.91-10.04-.01-.21-.02-.42-.03-.63-.14-3.96.51-7.04,2.12-12.72.04-.14.08-.27.12-.41.74-2.58,1.57-4.1,2.64-11.39.34-2.28.35-3.59.35-4.56,0-.01,0-.14,0-.15,0-.48,0-.88.06-1.27.43-3.04,2.15-4,3.12-9.74,1.82-10.87,3.02-18.93,4.73-30.27,0-.05.02-.1.02-.15.34-2.25.7-4.61,1.09-7.17,1.41-9.37,6.14-21.16,11.12-34.12.02-.05.03-.1.05-.15.27-.69.53-1.38.8-2.08.51-1.34,1.58-11.46,2-16.79.51-6.66,5.35-67.63,8.65-76.82,2.47-6.87,4.86-9.61,7.16-10.52v-.02Z"/>
  </g>
</svg>