<?xml version="1.0" encoding="UTF-8"?>
<svg id="_레이어_2" data-name="레이어 2" xmlns="http://www.w3.org/2000/svg" viewBox="0 0 212.64 571.25">
  <defs>
    <style>
      .cls-1 {
        fill: #f3a9aa;
        stroke: #231815;
        stroke-miterlimit: 10;
      }
    </style>
  </defs>
  <g id="_레이어_1-2" data-name="레이어 1">
    <path class="cls-1" d="m44.54,106.85s1.86-.89,2.99-1.3c3.37-1.21,7.6-1.8,12.07-2.55.28-.05.59-.1.91-.15,3.93-.63,13.38-1.39,16.8-2.72,5.27-2.05,9.61-4.61,12.23-11,1.1-2.7,1.54-10.2,1.72-15.33-2.5-2.35-4.45-5.37-5.66-10.4-.22-.9-.47-1.97-.73-3.12-2.75.98-3.46-3.3-3.97-4.54-.56-1.36-1.3-1.5-2.05-4.5-.5-2,.37-3.32,0-4.61-.24-.87-.36-3.32.74-4.16.12-.09.26-.14.41-.18-1.63-6.26-2.67-16.49.73-24.32,1.46-3.39,3.28-6.12,5.19-8.28,4.51-5.57,11.95-9.21,20.38-9.21s15.88,3.64,20.38,9.21c1.91,2.16,3.72,4.9,5.19,8.28,3.4,7.83,2.36,18.06.73,24.32.16.05.3.09.42.18,1.1.84.98,3.28.74,4.16-.36,1.29.51,2.6,0,4.61-.75,3-1.48,3.13-2.04,4.5-.51,1.24-1.23,5.51-3.97,4.54-.26,1.14-.51,2.22-.73,3.12-1.22,5.03-3.16,8.05-5.66,10.4.18,5.13.62,12.63,1.72,15.33,2.62,6.39,6.97,8.95,12.23,11,3.41,1.34,12.87,2.09,16.8,2.72.32.05.62.1.9.15,4.47.75,8.7,1.34,12.07,2.55,1.14.41,2.99,1.3,2.99,1.3v.02c2.3.91,4.69,3.66,7.16,10.53,3.31,9.2,8.14,70.23,8.65,76.9.41,5.34,1.49,15.47,2,16.8.27.72.55,1.44.82,2.15.02.05.04.11.06.16,5,12.93,9.67,24.71,11.08,34.07.39,2.58.75,4.98,1.1,7.25,0,.05.01.11.02.16,1.7,11.31,2.91,19.36,4.72,30.22.97,5.74,2.7,6.7,3.12,9.75.06.41.06.84.06,1.35,0,.48,0,1.22.17,2.36.13,1.39.26,2.77.55,4.51.91,5.55,1.63,6.95,2.29,9.26,1.7,5.97,2.37,9.09,2.2,13.21-.22,5.43-1.57,8.04-4.07,10.68-1.28,1.36-2.55,3.05-4.55,4.88-2.85,2.59-3.24,2.71-4.4,1.26-1.52-1.9.41-4.5-.28-9.2-.95-6.45-2.48-8.26-2.97-16.15-.08-1.19-.82,5.27-3.33,7.64-1.99,1.88-5.35,1.75-4.8.8,5.07-8.88.62-14.58,2.83-21.38.7-2.19,2.68-5.7,2.58-7.34,0-.14-.04-.3-.06-.44,0-.04-.01-.09-.02-.13-.41-3.75-2.71-8.37-5.91-14.14-4.44-8-6.98-12.92-13.26-27.21-.21-.49-.43-.99-.66-1.52-.39-.9-.79-1.81-1.18-2.74-7.32-17.39-8.56-32.54-8.86-34.4-.14-.86-.35-1.82-.57-2.82,0-.05-.02-.09-.03-.14-1.03-4.47-2.87-10.15-4.87-16.17-1.99-6-4.15-12.33-5.85-18.15-.54-1.85-1.87-7.3-2.41-9.58-.16.51-.31,1.03-.47,1.55-1.66,8.48-3.99,27.76-2.83,42.57,0,.02-.04.03-.04.05.8,4.76,2.26,9.47,3.88,14.15.55,1.58,1.01,3.3,1.53,5.1,2,6.8,3.42,13.38,4.03,18.79.24.54.43.98.57,1.32.06.13.1.23.12.29.5,1.22.88,2.22,1.18,2.95.05.12.09.22.11.28,3.18,8.67,7.58,20.01,7.92,38.06,0,.1,0,.19,0,.29,0,.03,0,.13,0,.15.01.75.02,1.51.02,2.28,0,.09,0,.18,0,.28,0,.02,0,.12,0,.14-.01,3.51-.16,7.24-.5,11.26-.06.77-.15,1.57-.24,2.4-1.49,12.66-9.36,37.48-12.57,50.09-.12.47-.24.94-.35,1.39-6.99,27.95-10.94,44.76-11.45,54.68-.67,12.91.88,16.94,2.26,24.77,2.69,15.2.73,28.34-2.47,40.38-5.92,22.26-12.11,32.16-12.75,43.85-.16,2.91,1.79,4.13.72,7.82-.56,1.92-1.5,3.76-.08,8.03,4.82,14.47,11.1,18.26,10.35,23.55-.82,5.85-18.23,5.48-25.04,4.17-5.61-1.09-5.53-10.05-3.91-20.32.33-2.08.49-4.4.37-7.95-.07-1.75-.49-3.8-.71-6.27-.2-2.28.4-4.69.71-6.58.24-1.45.49-2.61.53-3.22,1.66-22.35,1.04-27.72-1.46-48.74-2.51-21.24,1.02-25.06.57-38.04-.27-7.7-2.33-15.57-2.88-23.9-.69-10.46.27-20.33,1.24-27.76,2.7-20.56,2.69-23.88,3.56-40.12.95-17.64-4.05-26.29-1.2-41.5-.66.26-2.28.38-3.89.37-1.6-.01-3.22-.11-3.88-.37,2.86,15.22-2.14,23.86-1.21,41.5.88,16.24.86,19.56,3.57,40.12.98,7.43,1.94,17.3,1.24,27.76-.55,8.33-2.62,16.19-2.88,23.9-.44,12.99,3.08,16.8.56,38.04-2.49,21.02-2.95,26.39-1.45,48.74.04.61.3,1.77.53,3.22.32,1.9.91,4.31.7,6.58-.22,2.48-.64,4.53-.7,6.27-.13,3.56.04,5.87.37,7.95,1.62,10.27,1.69,19.23-3.91,20.32-6.82,1.32-24.22,1.69-25.04-4.17-.74-5.28,5.52-9.08,10.34-23.55,1.43-4.28.49-6.11-.07-8.03-1.08-3.69.87-4.92.72-7.82-.63-11.69-6.84-21.59-12.75-43.85-3.2-12.04-5.17-25.19-2.47-40.38,1.38-7.82,2.93-11.86,2.26-24.77-.52-10-4.53-27.01-11.62-55.38-3.18-12.76-11.73-39.46-12.88-51.97-.45-5-.63-9.57-.6-13.81v-.15c0-.1,0-.19,0-.29.1-20,5.24-31.97,8.55-41.04,0-.02.05-.14.12-.29.11-.26.3-.69.56-1.3.31-6.09,1.87-14.63,5.03-23.11,2.39-6.42,4.44-12.86,5.48-19.2,0-.02-.04-.03-.03-.05,1.03-13.39-.66-29.48-2.34-37.41-.17-.52-.32-1.04-.49-1.56-.43-.3-.94-.16-1.43,0-.36,1.46-.8,3.25-1.16,4.59-.47,1.78-.97,3.57-1.37,4.87-1.35,4.44-2.91,9.1-4.42,13.64-1.98,5.94-3.86,11.64-5.06,16.29-.32,1.23-.6,2.39-.82,3.46-.01.04-.02.08-.03.13-.14.73-.3,1.67-.46,2.79-.53,3.76-2.14,17.58-8.77,33.2-.37.88-.74,1.74-1.11,2.58-.41.95-.81,1.85-1.2,2.72-.02.04-.04.09-.05.13-5.54,12.55-8.09,17.57-12.02,24.7-.41.74-.82,1.48-1.22,2.22-2.61,4.78-4.52,8.73-5.11,12.04-.03.15-.06.3-.09.45-.08.49-.07,1.03,0,1.6,0,.05,0,.09.01.14.01.13.01.28.04.41.23,1.46,1.33,3.62,1.98,5.35.25.68.46,1.33.61,1.93,1.49,6.21-1.98,11.62,2.19,19.64.24.47.07.83-.21,1.1-.33.34-2.07.28-3.52-.68-.42-.28-.82-.64-1.16-1.08-1.71-2.16-2.41-6.09-2.65-6.48-.14-.23-.21-.26-.24.18-.52,7.05-1.91,9.06-2.83,14.84-.06.4-.12.8-.16,1.2-.42,3.97.98,6.37.02,8.14-.17.32-.36.6-.58.82-.92.94-1.48.69-3.7-1.31-.22-.2-.45-.41-.68-.63-1.67-1.58-2.82-3.04-3.94-4.26-.19-.2-.37-.4-.54-.6-2.28-2.49-3.54-5.05-3.79-10.07-.01-.21-.02-.42-.03-.63-.12-3.92.54-7,2.15-12.69.04-.13.08-.26.11-.4.74-2.53,1.55-4.1,2.61-11.3.34-2.28.35-3.6.35-4.57,0-.03,0-.13,0-.16,0-.48,0-.88.06-1.27.43-3.05,2.15-4.01,3.12-9.75,1.82-10.88,3.02-18.95,4.73-30.3,0-.05.02-.1.02-.15.34-2.25.7-4.62,1.09-7.18,1.41-9.38,6.14-21.18,11.12-34.16.02-.05.03-.1.05-.15.26-.69.53-1.38.8-2.08.51-1.34,1.58-11.47,2-16.8.51-6.66,5.35-67.7,8.65-76.9,2.47-6.87,4.86-9.62,7.16-10.53v-.02Z"/>
  </g>
</svg>