<?xml version="1.0" encoding="UTF-8"?>
<svg id="_레이어_2" data-name="레이어 2" xmlns="http://www.w3.org/2000/svg" viewBox="0 0 212.63 571.25">
  <defs>
    <style>
      .cls-1 {
        fill: #f3a9aa;
        stroke: #231815;
        stroke-miterlimit: 10;
      }
    </style>
  </defs>
  <g id="_레이어_1-2" data-name="레이어 1">
    <path class="cls-1" d="m44.54,106.86s1.86-.89,2.99-1.3c3.37-1.21,7.6-1.81,12.07-2.55.29-.05.6-.1.91-.15,3.78-.63,13.31-1.4,16.79-2.76,5.27-2.05,9.61-4.6,12.23-11,1.1-2.7,1.54-10.2,1.72-15.32-2.5-2.35-4.45-5.37-5.66-10.4-.22-.9-.47-1.97-.73-3.12-2.75.98-3.46-3.3-3.97-4.53-.56-1.36-1.3-1.49-2.05-4.49-.5-2,.37-3.32,0-4.6-.24-.87-.36-3.32.74-4.15.12-.09.26-.14.41-.18-1.63-6.26-2.67-16.49.73-24.32,1.46-3.39,3.28-6.12,5.19-8.28,4.51-5.57,11.95-9.21,20.38-9.21s15.88,3.64,20.37,9.21c1.91,2.16,3.72,4.89,5.19,8.28,3.4,7.83,2.36,18.06.73,24.32.16.04.3.09.42.18,1.1.84.98,3.28.74,4.15-.36,1.29.51,2.6,0,4.6-.75,3-1.48,3.13-2.05,4.49-.51,1.24-1.23,5.51-3.97,4.53-.26,1.15-.51,2.22-.73,3.12-1.22,5.02-3.16,8.05-5.66,10.4.18,5.12.62,12.62,1.72,15.32,2.62,6.39,6.97,8.95,12.23,11,3.48,1.36,13.02,2.13,16.79,2.76.31.05.62.1.91.15,4.47.74,8.7,1.34,12.07,2.55,1.14.41,2.99,1.3,2.99,1.3v.02c2.3.91,4.69,3.66,7.16,10.53,3.31,9.2,8.14,70.22,8.65,76.88.41,5.33,1.49,15.46,2,16.8.27.71.54,1.41.81,2.12.02.05.03.1.05.15,5,12.95,9.69,24.74,11.1,34.11.39,2.57.75,4.95,1.09,7.21,0,.05.01.1.02.15,1.71,11.32,2.91,19.39,4.73,30.25.97,5.74,2.69,6.7,3.12,9.75.06.4.06.82.06,1.32,0,.24,0,.68.09,1.25.07,1.18.14,2.53.45,4.54,1,6.47,1.77,7.9,2.48,10.37,1.7,5.97,2.37,9.09,2.2,13.2-.22,5.43-1.57,8.04-4.07,10.68-1.28,1.36-2.55,3.05-4.55,4.87-2.85,2.59-3.24,2.71-4.4,1.26-1.52-1.9.41-4.49-.28-9.2-.95-6.45-2.48-8.26-2.97-16.15-.08-1.19-.82,5.27-3.33,7.64-1.99,1.88-5.35,1.75-4.8.8,5.07-8.88.62-14.57,2.83-21.38.7-2.19,2.68-5.69,2.58-7.33,0-.14-.04-.3-.06-.44,0-.05-.02-.09-.02-.14-.41-3.75-2.71-8.36-5.91-14.12-4.44-8-6.98-12.91-13.26-27.21-.12-.27-.23-.55-.36-.84-.39-.89-.79-1.8-1.19-2.74-7.57-17.67-8.85-33.19-9.15-35.08-.14-.87-.36-1.82-.57-2.82-.01-.05-.02-.1-.04-.14-1.04-4.48-2.88-10.19-4.89-16.24-1.99-5.98-4.13-12.28-5.83-18.07-.54-1.85-1.87-7.3-2.41-9.58-.16.51-.32,1.03-.48,1.55-2.87,10.64-7.45,29.11-6.86,42.44,0,0-.07.02-.07.03.85,4.46,3.06,8.86,5.49,13.6.79,1.55,1.54,3.22,2.33,4.94,2.31,5.05,4.02,9.02,5.22,12.5,1.48,2.71,2.54,4.87,3.52,7.13,0,0,0,0,0,0,.02.05.04.1.06.15.54,1.25,1.05,2.52,1.58,3.89,0,0,0,0,0,0,.02.05.04.09.05.14,3.34,8.54,8.02,19.69,8.66,37.5,0,.1,0,.2.01.3.03,1.06.06,2.15.06,3.26,0,.1,0,.2,0,.29,0,3.32-.13,6.85-.43,10.62-.08,1.05-.19,2.13-.32,3.25-1.41,12.23-9.52,36.56-13.1,49.56-.21.75-.4,1.47-.58,2.15-7.42,28.04-11.62,44.89-12.17,54.82-.71,12.91.94,16.95,2.4,24.77,2.86,15.19.77,28.33-2.62,40.37-6.26,22.25-12.83,32.15-13.5,43.83-.17,2.92,1.88,4.13.75,7.82-.59,1.93-1.58,3.77-.07,8.04,5.11,14.46,11.75,18.25,10.97,23.53-.87,5.85-19.31,5.49-26.53,4.17-5.94-1.09-5.86-10.05-4.15-20.32.35-2.08.52-4.39.4-7.95-.07-1.76-.51-3.81-.75-6.27-.22-2.28.41-4.68.75-6.59.26-1.44.52-2.6.56-3.21,1.7-22.34,1.1-27.72-1.54-48.73-2.67-21.24,1.07-25.05.6-38.03-.28-7.7-2.47-15.56-3.05-23.89-.74-10.46.28-20.34,1.31-27.77,2.87-20.55,2.85-23.86,3.77-40.1,1-17.64-4.3-26.29-1.27-41.5-.7.27-2.42.39-4.12.38-1.7,0-3.42-.11-4.12-.38,3.02,15.21-2.27,23.86-1.26,41.5.92,16.24.91,19.56,3.76,40.1,1.04,7.43,2.05,17.31,1.31,27.77-.58,8.33-2.77,16.19-3.05,23.89-.46,12.98,3.27,16.79.6,38.03-2.64,21.01-3.06,26.37-1.53,48.73.04.61.31,1.77.56,3.21.34,1.91.96,4.31.74,6.59-.24,2.47-.68,4.51-.74,6.27-.13,3.56.04,5.87.39,7.95,1.71,10.27,1.79,19.23-4.15,20.32-7.21,1.32-25.66,1.68-26.53-4.17-.78-5.28,5.86-9.07,10.97-23.53,1.51-4.27.52-6.11-.07-8.04-1.13-3.69.92-4.9.75-7.82-.66-11.68-7.23-21.57-13.5-43.83-3.39-12.05-5.47-25.18-2.62-40.37,1.47-7.82,3.11-11.86,2.4-24.77-.55-9.99-4.8-27-12.31-55.35-3.38-12.75-12.42-39.46-13.64-51.97-.49-5.04-.66-9.67-.64-13.94,0-.1,0-.2,0-.3.11-20.11,5.57-32.11,9.11-41.17.02-.05.04-.1.06-.15,1-2.57,1.92-4.72,3.2-7.22,1.31-4.56,3.3-9.64,6.94-16.82,3.38-6.66,6.74-12.6,7.85-18.52,0,0-.06-.02-.06-.03.51-11.83-2.92-27.22-5.77-37.22-.17-.52-.34-1.04-.5-1.56-.52-1.05-1.06-1.84-1.56-2.58-.3,1.24-.73,2.98-1.12,4.51-.49,1.91-1,3.85-1.35,5-1.31,4.4-2.86,9.06-4.38,13.62-1.96,5.89-3.87,11.6-5.16,16.35-.37,1.36-.7,2.66-.96,3.85-.02.05-.02.09-.03.14-.17.86-.37,1.81-.52,2.8-.41,2.79-1.84,17.02-8.63,33.34-.34.81-.68,1.62-1.03,2.42-.41.95-.82,1.86-1.2,2.73-.02.05-.04.09-.06.14-5.61,12.73-8.2,17.87-12.03,24.83-.4.73-.81,1.47-1.23,2.23-2.62,4.75-4.58,8.71-5.31,12.03-.03.15-.07.3-.1.45-.1.53-.15,1.07-.14,1.62,0,.05,0,.1,0,.14,0,.14-.02.29-.01.43.07,1.34,1.16,3.53,1.91,5.38.27.68.51,1.34.67,1.92,1.77,6.31-1.86,11.73,2.11,19.75.24.48.27.93.29,1.31.03.56-1.84.64-3.49-.28-.45-.25-.88-.58-1.25-.99-1.67-1.84-2.46-5.44-2.8-6.52-.19-.6-.28-.88-.31-.45-.49,7.21-1.87,9.25-2.81,14.9-.06.39-.12.78-.17,1.19-.5,3.98.85,6.41.11,8.21-.13.33-.3.61-.53.87-.99,1.13-1.48,1.01-3.7-.97-.22-.2-.45-.4-.69-.63-1.7-1.57-2.86-3.03-3.97-4.26-.19-.2-.37-.4-.55-.6-2.34-2.51-3.64-5.04-3.91-10.05-.01-.21-.02-.42-.03-.63-.14-3.97.51-7.04,2.12-12.73.04-.14.08-.27.12-.41.74-2.58,1.57-4.1,2.64-11.39.34-2.28.35-3.6.35-4.56,0-.01,0-.14,0-.15,0-.48,0-.88.06-1.27.43-3.04,2.15-4.01,3.12-9.75,1.82-10.88,3.02-18.95,4.73-30.29,0-.05.02-.1.02-.15.34-2.25.7-4.62,1.09-7.17,1.41-9.38,6.1-21.19,11.12-34.15.02-.05.03-.1.05-.15.27-.69.53-1.38.8-2.08.51-1.34,1.58-11.47,2-16.8.51-6.66,5.35-67.68,8.65-76.88,2.47-6.87,4.86-9.62,7.16-10.53v-.02Z"/>
  </g>
</svg>