<?xml version="1.0" encoding="UTF-8"?>
<svg id="_레이어_2" data-name="레이어 2" xmlns="http://www.w3.org/2000/svg" viewBox="0 0 212.64 571.25">
  <defs>
    <style>
      .cls-1 {
        fill: #f3a9aa;
        stroke: #231815;
        stroke-miterlimit: 10;
      }
    </style>
  </defs>
  <g id="_레이어_1-2" data-name="레이어 1">
    <path class="cls-1" d="m212.12,325.31c-.22,5.43-1.57,8.04-4.07,10.67-1.28,1.36-2.55,3.05-4.55,4.87-2.85,2.6-3.24,2.72-4.4,1.26-1.52-1.9.41-4.49-.28-9.2-.95-6.45-2.48-8.26-2.97-16.15-.08-1.19-.82,5.27-3.33,7.64-1.99,1.88-5.35,1.75-4.8.8,5.07-8.88.62-14.57,2.83-21.37.7-2.2,2.67-5.69,2.58-7.34,0-.14-.04-.3-.06-.44-.37-3.76-2.69-8.43-5.93-14.26-4.44-8-6.98-12.91-13.26-27.2-.4-.93-.82-1.89-1.26-2.9-7.82-17.95-9.13-33.84-9.44-35.75-.14-.86-.35-1.82-.57-2.82-1.02-4.45-2.86-10.14-4.86-16.17-2.01-6.04-4.18-12.42-5.9-18.27-.54-1.85-1.87-7.3-2.41-9.58-.16.51-.3,1.04-.45,1.55.99,5.4,4.35,39.01,7.35,57.43.72,4.38.78,9.97.52,15.87,3.19,4.99,4.99,8.39,5.98,10.63.02.05.04.1.06.15,3.71,9.08,9.39,21.07,9.63,41.16v.3c.04,4.26-.16,8.9-.68,13.94-1.28,12.5-10.84,39.2-14.4,51.95-7.93,28.35-12.42,45.34-13,55.34-.75,12.9.99,16.95,2.54,24.75,3,15.2.81,28.33-2.77,40.36-6.62,22.26-13.56,32.14-14.26,43.83-.18,2.92,2,4.13.8,7.82-.62,1.92-1.68,3.75-.08,8.03,5.39,14.47,12.41,18.25,11.58,23.54-.92,5.85-20.39,5.49-28.01,4.16-6.27-1.08-6.19-10.05-4.39-20.3.37-2.08.55-4.39.41-7.95-.07-1.76-.54-3.8-.79-6.27-.23-2.28.43-4.68.79-6.59.27-1.44.54-2.6.59-3.21,1.69-22.35,1.16-27.71-1.63-48.72-2.82-21.24,1.14-25.04.64-38.03-.3-7.69-2.61-15.56-3.22-23.89-.78-10.44.29-20.32,1.38-27.75,3.02-20.54,3-23.86,3.98-40.1,1.06-17.62-4.53-26.27-1.34-41.48-.74.27-2.55.39-4.35.38-1.8-.02-3.61-.11-4.35-.38,3.19,15.21-2.4,23.86-1.34,41.48.98,16.25.96,19.56,3.98,40.1,1.1,7.43,2.16,17.3,1.39,27.75-.62,8.33-2.93,16.2-3.23,23.89-.49,12.99,3.46,16.8.64,38.03-2.79,21.01-3.31,26.37-1.63,48.72.05.61.33,1.77.59,3.21.36,1.91,1.02,4.31.79,6.59-.25,2.47-.71,4.51-.79,6.27-.14,3.55.05,5.87.42,7.95,1.81,10.26,1.9,19.22-4.38,20.3-7.63,1.33-27.1,1.69-28.02-4.16-.83-5.28,6.19-9.07,11.59-23.54,1.59-4.27.54-6.11-.08-8.03-1.2-3.68.97-4.9.8-7.82-.71-11.68-7.65-21.57-14.26-43.83-3.59-12.03-5.78-25.16-2.77-40.36,1.55-7.81,3.29-11.85,2.53-24.75-.58-10-5.07-26.99-12.99-55.34-3.57-12.75-13.13-39.45-14.41-51.95-.52-5.04-.72-9.68-.68-13.94v-.3c.26-20.09,5.93-32.08,9.63-41.16.02-.05.04-.1.06-.15.99-2.25,2.79-5.64,5.98-10.63-.26-5.9-.2-11.48.52-15.87,3-18.41,6.36-52.02,7.35-57.43-.16-.51-.3-1.04-.45-1.55-.54,2.28-1.87,7.73-2.41,9.58-1.72,5.85-3.89,12.23-5.9,18.27-2.01,6.03-3.84,11.71-4.86,16.17-.23,1-.43,1.96-.57,2.82-.31,1.91-1.61,17.79-9.44,35.75-.44,1.01-.86,1.97-1.26,2.9-6.28,14.29-8.82,19.2-13.26,27.2-3.24,5.83-5.56,10.49-5.93,14.26-.02.14-.05.3-.06.44-.09,1.65,1.88,5.14,2.58,7.34,2.2,6.8-2.24,12.49,2.83,21.37.54.95-2.82,1.08-4.8-.8-2.51-2.37-3.25-8.83-3.33-7.64-.49,7.89-2.03,9.7-2.97,16.15-.69,4.7,1.24,7.3-.28,9.2-1.16,1.46-1.55,1.34-4.4-1.26-2.01-1.83-3.27-3.51-4.55-4.87-2.5-2.64-3.85-5.24-4.07-10.67-.17-4.11.5-7.23,2.2-13.2.75-2.64,1.58-4.1,2.67-11.48.34-2.28.35-3.59.35-4.56,0-.55,0-.99.06-1.43.42-3.05,2.15-4,3.12-9.75,1.82-10.87,3.02-18.94,4.73-30.29.35-2.3.71-4.71,1.11-7.32,1.41-9.38,6.14-21.17,11.12-34.14.28-.74.56-1.48.85-2.23.5-1.34,1.58-11.46,2-16.8.51-6.66,5.35-67.66,8.65-76.86,2.47-6.87,4.86-9.62,7.16-10.52v-.02s1.86-.89,2.99-1.3c3.37-1.21,7.6-1.84,12.07-2.55,3.65-.67,14.17-1.41,17.71-2.8,5.27-2.05,9.61-4.6,12.23-10.99,1.1-2.7,1.54-10.2,1.72-15.32-2.5-2.35-4.45-5.37-5.66-10.39-.22-.9-.47-1.98-.73-3.12-2.75.98-3.46-3.3-3.97-4.53-.56-1.37-1.3-1.5-2.05-4.49-.5-2.01.36-3.32.01-4.6-.25-.87-.36-3.32.74-4.15.12-.09.26-.14.41-.19-1.63-6.25-2.67-16.48.73-24.3,1.46-3.39,3.28-6.12,5.19-8.28,4.51-5.57,11.95-9.21,20.38-9.21s15.88,3.63,20.38,9.21c1.91,2.16,3.72,4.89,5.19,8.28,3.4,7.83,2.36,18.05.73,24.3.16.05.3.1.41.19,1.1.84.99,3.29.74,4.15-.35,1.29.51,2.6,0,4.6-.74,3-1.48,3.13-2.04,4.49-.51,1.24-1.23,5.51-3.97,4.53-.26,1.14-.51,2.22-.73,3.12-1.22,5.02-3.16,8.05-5.66,10.39.18,5.12.62,12.62,1.72,15.32,2.62,6.39,6.97,8.95,12.23,10.99,3.54,1.39,14.06,2.13,17.7,2.8,4.48.71,8.7,1.34,12.07,2.55,1.14.41,2.99,1.3,2.99,1.3v.02c2.3.91,4.69,3.65,7.16,10.52,3.31,9.2,8.14,70.2,8.65,76.86.42,5.33,1.49,15.46,2,16.8.29.75.57,1.49.85,2.23,4.98,12.97,9.7,24.76,11.12,34.14.4,2.61.76,5.02,1.11,7.32,1.71,11.34,2.91,19.41,4.73,30.29.97,5.74,2.71,6.7,3.12,9.75.06.44.06.88.06,1.43,0,.97,0,2.29.35,4.56,1.09,7.38,1.92,8.85,2.67,11.48,1.7,5.97,2.37,9.09,2.2,13.2Z"/>
  </g>
</svg>