<?xml version="1.0" encoding="UTF-8"?>
<svg id="_레이어_2" data-name="레이어 2" xmlns="http://www.w3.org/2000/svg" viewBox="0 0 212.63 571.25">
  <defs>
    <style>
      .cls-1 {
        fill: #f3a9aa;
        stroke: #231815;
        stroke-miterlimit: 10;
      }
    </style>
  </defs>
  <g id="_레이어_1-2" data-name="레이어 1">
    <path class="cls-1" d="m44.54,106.84s1.86-.89,2.99-1.3c3.37-1.21,7.61-1.79,12.07-2.55.27-.05.58-.1.9-.15,4.09-.63,13.45-1.37,16.8-2.69,5.27-2.05,9.61-4.61,12.23-11,1.1-2.7,1.54-10.2,1.72-15.33-2.5-2.35-4.45-5.38-5.66-10.4-.22-.9-.47-1.98-.73-3.12-2.75.98-3.46-3.3-3.97-4.54-.56-1.37-1.3-1.5-2.04-4.5-.5-2.01.37-3.32,0-4.61-.24-.87-.36-3.32.74-4.16.12-.09.26-.14.42-.19-1.63-6.26-2.67-16.49.73-24.33,1.46-3.39,3.28-6.12,5.19-8.28,4.51-5.57,11.95-9.21,20.38-9.21s15.87,3.64,20.38,9.21c1.91,2.16,3.72,4.9,5.19,8.28,3.4,7.83,2.36,18.07.73,24.33.16.05.3.1.41.19,1.1.84.98,3.29.74,4.16-.36,1.29.51,2.6,0,4.61-.74,3-1.48,3.13-2.05,4.5-.51,1.24-1.23,5.52-3.97,4.54-.26,1.14-.51,2.22-.73,3.12-1.22,5.03-3.16,8.05-5.66,10.4.18,5.13.62,12.63,1.72,15.33,2.62,6.4,6.97,8.95,12.23,11,3.35,1.31,12.73,2.06,16.81,2.69.32.05.62.1.9.15,4.47.76,8.7,1.34,12.07,2.55,1.14.41,2.99,1.3,2.99,1.3v.02c2.3.91,4.69,3.66,7.16,10.53,3.31,9.2,8.14,70.25,8.65,76.92.42,5.34,1.49,15.47,2,16.81.28.74.56,1.47.84,2.19.02.06.04.11.06.17,4.96,12.93,9.66,24.69,11.07,34.04.39,2.6.76,5,1.1,7.29,0,.05.02.11.02.16,1.7,11.29,2.9,19.34,4.71,30.18.97,5.75,2.71,6.71,3.12,9.75.06.43.06.86.06,1.39,0,.73,0,1.75.26,3.46.2,1.6.39,3.03.65,4.5.82,4.62,1.49,5.98,2.1,8.13,1.7,5.98,2.37,9.09,2.2,13.21-.22,5.44-1.57,8.04-4.07,10.68-1.28,1.36-2.55,3.05-4.55,4.88-2.85,2.6-3.24,2.71-4.4,1.26-1.52-1.9.41-4.5-.28-9.2-.95-6.46-2.48-8.26-2.97-16.16-.08-1.19-.82,5.28-3.33,7.64-1.99,1.88-5.35,1.75-4.8.8,5.07-8.88.62-14.58,2.83-21.39.7-2.2,2.68-5.7,2.58-7.34,0-.14-.04-.3-.06-.44,0-.04-.01-.08-.01-.12-.4-3.75-2.71-8.37-5.91-14.15-4.44-8-6.98-12.92-13.26-27.22-.31-.71-.62-1.44-.96-2.21-.4-.91-.79-1.83-1.17-2.75-7.06-17.1-8.27-31.88-8.57-33.71-.14-.86-.35-1.82-.57-2.82,0-.04-.02-.09-.03-.13-1.03-4.45-2.85-10.09-4.84-16.09-2-6.03-4.17-12.41-5.89-18.25-.54-1.85-1.87-7.31-2.41-9.58-.16.51-.3,1.03-.46,1.55-.47,6.35-.81,26.65,1.72,43,.75,4.97,1.68,9.89,2.59,14.16.27,1.28.49,2.64.7,4.03,1.24,8.39,1.31,17.61,1.27,26.41,2.89,8.47,6.42,19.54,6.7,36.4,0,.02,0,.27,0,.3.02,1.36.02,2.76,0,4.19,0,.07,0,.21,0,.28-.05,2.92-.2,5.99-.46,9.25-.1,1.29-.26,2.7-.47,4.2-1.84,13.05-8.64,36.02-11.52,48.04-.27,1.12-.53,2.22-.78,3.27-6.18,26.35-9.73,42.54-10.32,52.32-.05.86-.09,1.68-.12,2.46-.4,11.19.91,15.3,2.12,22.41.11.67.22,1.35.32,2.03,2.15,14.42.38,26.99-2.47,38.53-.11.46-.23.92-.35,1.38-5.48,21.54-11.14,31.32-11.72,42.82-.15,2.91,1.67,4.13.67,7.82-.52,1.92-1.41,3.76-.07,8.03,4.54,14.47,10.43,18.27,9.74,23.55-.78,5.86-17.15,5.49-23.55,4.17-5.28-1.09-5.21-10.05-3.69-20.33.31-2.07.46-4.4.35-7.95-.06-1.75-.45-3.8-.66-6.28-.19-2.28.37-4.69.66-6.59.23-1.45.46-2.61.5-3.21,1.41-22.37.97-27.74-1.37-48.77-2.36-21.25.96-25.06.54-38.05-.25-7.69-2.19-15.57-2.72-23.9-.65-10.46.25-20.34,1.17-27.77,2.55-20.56,2.53-23.87,3.35-40.13.89-17.65-3.8-26.29-1.13-41.51-.62.26-2.14.38-3.66.37-1.51-.01-3.03-.11-3.66-.37,2.68,15.22-2.02,23.86-1.13,41.51.82,16.26.8,19.58,3.35,40.13.92,7.43,1.82,17.31,1.17,27.77-.52,8.33-2.47,16.21-2.72,23.9-.41,12.99,2.9,16.81.54,38.05-2.35,21.03-2.79,26.39-1.37,48.77.04.6.28,1.76.5,3.21.3,1.9.85,4.31.66,6.59-.21,2.48-.6,4.53-.66,6.28-.12,3.56.04,5.89.35,7.95,1.52,10.27,1.59,19.24-3.69,20.33-6.41,1.32-22.77,1.69-23.55-4.17-.69-5.29,5.21-9.08,9.74-23.55,1.34-4.28.45-6.12-.07-8.03-1-3.7.82-4.92.67-7.82-.59-11.69-6.42-21.6-11.98-43.86-3-12.04-4.85-25.19-2.32-40.39,1.3-7.81,2.77-11.86,2.12-24.77-.48-10-4.26-27.02-10.93-55.38-2.99-12.77-11.03-39.48-12.11-51.99-.42-4.94-.59-9.46-.57-13.66v-.3c.13-16.74,3.43-27.88,6.33-36.4.02-1.57.05-3.13.06-4.7.06-9.1.25-18.2,1.95-25.92,1.18-5.31,2.39-11.74,3.32-18.1,2.31-15.36,2.18-33.14,1.64-39.15-.16-.51-.31-1.04-.47-1.55-.26.34-.6,1.04-.94,1.81-.51,2.07-1.13,4.6-1.53,6-.34,1.21-.69,2.4-1.01,3.46-1.49,4.86-3.22,9.98-4.85,14.91-2,6-3.85,11.69-4.94,16.22-.24,1-.46,1.96-.61,2.84,0,.04-.01.07-.02.12-.1.59-.24,1.54-.41,2.78-.64,4.73-2.48,18.13-8.92,33.05-.41.95-.8,1.85-1.19,2.74-.41.94-.81,1.85-1.2,2.71-.01.03-.04.09-.05.12-5.47,12.37-7.99,17.26-12.02,24.56-.41.75-.82,1.49-1.22,2.22-2.6,4.8-4.46,8.76-4.91,12.05-.02.14-.06.3-.07.44-.05.45,0,.99.13,1.58,0,.04.02.09.03.13.03.13.05.27.08.4.41,1.59,1.49,3.7,2.06,5.31.23.67.41,1.32.54,1.95,1.22,6.1-2.1,11.52,2.28,19.54.25.45-.12.76-.71.89-.68.15-2.3-.08-3.56-1.08-.39-.31-.75-.7-1.07-1.16-1.73-2.49-2.33-6.75-2.5-6.44-.08.14-.14.36-.17.81-.55,6.88-1.94,8.87-2.85,14.79-.06.41-.11.81-.14,1.2-.33,3.97,1.11,6.32-.06,8.07-.21.32-.42.58-.64.78-.84.74-1.49.36-3.71-1.65-.23-.21-.45-.42-.68-.63-1.65-1.58-2.78-3.04-3.91-4.25-.19-.2-.37-.4-.54-.59-2.22-2.47-3.43-5.06-3.66-10.08,0-.21-.02-.42-.02-.63-.1-3.87.58-6.96,2.19-12.64.04-.13.07-.26.11-.38.73-2.48,1.54-4.09,2.59-11.21.34-2.28.35-3.6.35-4.57,0-.04,0-.12,0-.16,0-.47,0-.87.06-1.26.42-3.05,2.15-4.01,3.12-9.75,1.82-10.88,3.02-18.96,4.73-30.31,0-.05.02-.1.02-.14.34-2.25.7-4.63,1.09-7.18,1.41-9.38,6.14-21.19,11.12-34.17.02-.05.03-.1.05-.15.26-.69.53-1.38.8-2.08.51-1.34,1.58-11.47,2-16.81.51-6.67,5.35-67.71,8.66-76.92,2.47-6.88,4.86-9.62,7.16-10.53v-.02Z"/>
  </g>
</svg>