<?xml version="1.0" encoding="UTF-8"?>
<svg id="_레이어_2" data-name="레이어 2" xmlns="http://www.w3.org/2000/svg" viewBox="0 0 212.64 571.25">
  <defs>
    <style>
      .cls-1 {
        fill: #f3a9aa;
        stroke: #231815;
        stroke-miterlimit: 10;
      }
    </style>
  </defs>
  <g id="_레이어_1-2" data-name="레이어 1">
    <path class="cls-1" d="m44.54,106.79s1.86-.89,2.99-1.3c3.37-1.21,7.61-1.79,12.07-2.55.27-.05.58-.1.9-.15,4.09-.63,13.45-1.37,16.8-2.69,5.27-2.05,9.61-4.6,12.23-11,1.1-2.7,1.54-10.2,1.72-15.32-2.5-2.35-4.45-5.37-5.66-10.4-.22-.9-.47-1.98-.73-3.12-2.75.98-3.46-3.3-3.97-4.53-.56-1.37-1.3-1.5-2.05-4.49-.5-2.01.37-3.32,0-4.6-.24-.87-.36-3.32.74-4.16.12-.09.26-.14.41-.19-1.63-6.25-2.67-16.48.73-24.31,1.46-3.39,3.28-6.12,5.19-8.28,4.51-5.57,11.95-9.21,20.38-9.21s15.88,3.64,20.38,9.21c1.91,2.16,3.72,4.89,5.19,8.28,3.4,7.83,2.36,18.06.73,24.31.16.05.3.1.42.19,1.1.84.98,3.28.74,4.16-.36,1.29.51,2.6,0,4.6-.75,3-1.48,3.13-2.05,4.49-.51,1.24-1.23,5.51-3.97,4.53-.26,1.14-.51,2.22-.73,3.12-1.22,5.02-3.16,8.05-5.66,10.4.18,5.12.62,12.62,1.72,15.32,2.62,6.39,6.97,8.95,12.23,11,3.35,1.31,12.73,2.05,16.81,2.69.32.05.62.1.9.15,4.47.75,8.7,1.34,12.07,2.55,1.14.41,2.99,1.3,2.99,1.3v.02c2.3.91,4.69,3.66,7.16,10.53,3.31,9.2,8.14,70.22,8.66,76.88.41,5.33,1.49,15.46,2,16.8.28.74.56,1.46.84,2.19.02.06.04.11.06.17,4.96,12.92,9.66,24.67,11.07,34.02.39,2.59.76,5,1.1,7.28,0,.05.02.11.02.16,1.7,11.28,2.9,19.33,4.71,30.17.97,5.74,2.71,6.7,3.12,9.75.06.43.06.86.06,1.39,0,.73,0,1.75.26,3.46.2,1.6.39,3.01.65,4.49.82,4.63,1.49,5.99,2.1,8.14,1.7,5.97,2.37,9.09,2.2,13.2-.22,5.43-1.57,8.04-4.07,10.68-1.28,1.36-2.55,3.05-4.55,4.87-2.85,2.59-3.24,2.71-4.4,1.26-1.52-1.9.41-4.49-.28-9.2-.95-6.45-2.48-8.26-2.97-16.15-.08-1.19-.82,5.27-3.33,7.64-1.99,1.88-5.34,1.75-4.8.8,5.07-8.88.62-14.57,2.83-21.38.7-2.19,2.68-5.69,2.58-7.34,0-.14-.04-.3-.06-.44,0-.04-.01-.08-.01-.12-.4-3.75-2.71-8.37-5.91-14.14-4.44-8-6.98-12.91-13.26-27.21-.31-.71-.62-1.44-.96-2.21-.4-.91-.78-1.82-1.16-2.74-7.06-17.1-8.28-31.87-8.57-33.71-.14-.86-.35-1.82-.57-2.82,0-.04-.02-.09-.03-.13-1.03-4.45-2.86-10.1-4.85-16.1-2-6.02-4.17-12.39-5.88-18.22-.54-1.85-1.87-7.3-2.41-9.58-.16.51-.3,1.04-.46,1.55-.47,6.32-.83,26.47,1.69,42.76.75,5.02,1.81,9.88,2.93,14.34.43,1.69.73,3.55,1.07,5.51.82,4.71,1.17,8.97,1.54,13.86.93,1.8,1.99,3.93,3.28,6.61.43,1.05.89,2.15,1.37,3.31,3.41,8.72,7.85,20.17,8.14,38.24.01.96.02,1.94,0,2.94-.04,3.45-.22,7.13-.58,11.07-.08.84-.18,1.74-.32,2.68-1.83,12.97-9.98,37.26-13.27,49.53-.16.61-.32,1.21-.48,1.8-7.29,27.55-11.41,44.17-11.95,54.01-.7,12.91.94,16.95,2.4,24.77,2.86,15.19.77,28.33-2.61,40.37-6.27,22.25-12.84,32.15-13.5,43.83-.17,2.92,1.88,4.13.75,7.82-.59,1.93-1.58,3.76-.07,8.04,5.11,14.46,11.75,18.25,10.97,23.53-.86,5.85-19.31,5.49-26.53,4.17-5.94-1.09-5.86-10.06-4.15-20.32.35-2.08.52-4.39.4-7.95-.07-1.76-.51-3.81-.75-6.27-.22-2.28.42-4.68.75-6.59.26-1.44.52-2.6.56-3.21,1.7-22.35,1.1-27.72-1.54-48.73-2.67-21.24,1.07-25.05.6-38.03-.28-7.7-2.47-15.56-3.05-23.9-.74-10.45.28-20.33,1.31-27.76,2.87-20.55,2.85-23.86,3.77-40.1,1-17.64-4.3-26.29-1.27-41.5-.7.27-2.42.39-4.12.38-1.7,0-3.42-.11-4.12-.38,3.02,15.21-2.27,23.86-1.26,41.5.92,16.24.91,19.56,3.76,40.1,1.04,7.43,2.06,17.31,1.31,27.76-.58,8.34-2.77,16.2-3.05,23.9-.46,12.98,3.27,16.79.6,38.03-2.64,21.01-3.06,26.37-1.53,48.73.04.61.31,1.77.56,3.21.34,1.91.96,4.31.74,6.59-.24,2.47-.68,4.51-.74,6.27-.13,3.56.04,5.87.39,7.95,1.71,10.26,1.79,19.23-4.15,20.32-7.21,1.32-25.66,1.68-26.53-4.17-.78-5.28,5.86-9.07,10.97-23.53,1.51-4.28.52-6.11-.07-8.04-1.13-3.69.92-4.9.75-7.82-.66-11.68-7.23-21.57-13.5-43.83-3.39-12.05-5.47-25.18-2.62-40.37,1.47-7.82,3.11-11.86,2.4-24.77-.55-10-4.8-27-12.31-55.35-3.38-12.75-12.42-39.46-13.64-51.97-.49-5.04-.68-9.67-.64-13.94.18-20.29,5.59-32.34,9.12-41.47,1.28-2.68,2.35-4.84,3.27-6.66.53-7.24.82-13.1,2.38-18.87,1.65-6.1,3.12-12.9,4.11-19.73,2.21-14.86,2.15-31.54,1.6-37.38-.16-.51-.31-1.04-.48-1.55-.36.43-.87,1.5-1.35,2.54-.41,1.64-.85,3.4-1.16,4.51-.47,1.69-.97,3.4-1.43,4.88-1.37,4.43-2.93,9.05-4.41,13.51-1.99,5.98-3.85,11.68-4.96,16.23-.27,1.12-.52,2.18-.7,3.15,0,.04-.01.07-.02.12-.1.59-.24,1.54-.41,2.78-.64,4.73-2.48,18.12-8.92,33.04-.41.95-.8,1.85-1.19,2.74-.41.94-.81,1.85-1.2,2.71-.02.04-.03.08-.05.12-5.47,12.36-7.99,17.26-12.02,24.55-.41.75-.82,1.49-1.22,2.22-2.6,4.79-4.46,8.75-4.91,12.04-.02.14-.06.3-.07.44-.05.45,0,.99.13,1.58,0,.04.02.09.03.13.03.13.05.27.08.4.41,1.59,1.49,3.7,2.06,5.31.23.67.41,1.32.54,1.94,1.22,6.09-2.1,11.51,2.28,19.53.25.45-.12.76-.71.89-.68.15-2.3-.08-3.56-1.08-.39-.31-.75-.7-1.07-1.16-1.73-2.49-2.33-6.75-2.5-6.44-.08.14-.14.36-.17.81-.55,6.88-1.94,8.87-2.85,14.78-.06.41-.11.81-.14,1.2-.33,3.97,1.11,6.32-.06,8.07-.21.32-.42.58-.64.77-.84.74-1.49.36-3.71-1.65-.23-.21-.45-.42-.68-.63-1.65-1.58-2.78-3.04-3.91-4.25-.19-.2-.37-.4-.54-.59-2.22-2.47-3.43-5.05-3.66-10.08,0-.21-.02-.42-.02-.63-.1-3.87.58-6.96,2.19-12.63.04-.13.07-.26.11-.38.73-2.47,1.54-4.09,2.59-11.21.34-2.28.35-3.6.35-4.56,0-.04,0-.12,0-.16,0-.47,0-.87.06-1.26.42-3.05,2.15-4.01,3.12-9.75,1.82-10.88,3.02-18.95,4.73-30.29,0-.05.02-.1.02-.14.34-2.25.7-4.62,1.09-7.18,1.41-9.38,6.14-21.17,11.12-34.15.02-.05.03-.1.05-.15.26-.69.53-1.38.8-2.08.51-1.34,1.58-11.47,2-16.8.51-6.66,5.35-67.68,8.65-76.88,2.47-6.87,4.86-9.62,7.16-10.53v-.02Z"/>
  </g>
</svg>