<?xml version="1.0" encoding="UTF-8"?>
<svg id="_레이어_2" data-name="레이어 2" xmlns="http://www.w3.org/2000/svg" viewBox="0 0 212.63 571.25">
  <defs>
    <style>
      .cls-1 {
        fill: #f3a9aa;
        stroke: #231815;
        stroke-miterlimit: 10;
      }
    </style>
  </defs>
  <g id="_레이어_1-2" data-name="레이어 1">
    <path class="cls-1" d="m44.54,106.76s1.86-.89,2.99-1.3c3.37-1.21,7.61-1.79,12.07-2.55.27-.05.58-.1.9-.15,4.09-.63,13.45-1.37,16.8-2.69,5.27-2.05,9.61-4.6,12.23-10.99,1.1-2.7,1.54-10.2,1.72-15.32-2.5-2.35-4.45-5.37-5.66-10.39-.22-.9-.47-1.97-.73-3.12-2.75.98-3.46-3.3-3.97-4.53-.56-1.37-1.3-1.5-2.05-4.49-.5-2,.37-3.32.01-4.6-.24-.87-.36-3.32.74-4.15.12-.09.26-.14.41-.19-1.63-6.25-2.67-16.48.73-24.31,1.46-3.39,3.28-6.12,5.19-8.28,4.51-5.57,11.95-9.21,20.37-9.21s15.88,3.64,20.38,9.21c1.91,2.16,3.72,4.89,5.19,8.28,3.4,7.83,2.36,18.05.73,24.31.16.05.3.1.41.19,1.1.84.98,3.28.74,4.15-.36,1.29.51,2.6.01,4.6-.74,3-1.48,3.13-2.04,4.49-.51,1.24-1.23,5.51-3.97,4.53-.26,1.14-.51,2.22-.73,3.12-1.22,5.02-3.16,8.05-5.66,10.39.18,5.12.62,12.62,1.72,15.32,2.62,6.39,6.97,8.95,12.23,10.99,3.35,1.31,12.73,2.05,16.81,2.69.32.05.62.1.89.15,4.47.75,8.7,1.34,12.07,2.55,1.14.41,2.99,1.3,2.99,1.3v.02c2.3.91,4.69,3.65,7.16,10.52,3.31,9.2,8.14,70.2,8.65,76.86.42,5.33,1.49,15.46,2,16.8.28.74.56,1.46.84,2.19.02.06.04.11.06.17,4.96,12.92,9.66,24.67,11.07,34.01.39,2.59.76,5,1.1,7.28,0,.05.01.11.02.16,1.7,11.28,2.9,19.33,4.71,30.16.97,5.74,2.71,6.7,3.12,9.75.06.43.06.86.06,1.39,0,.73,0,1.75.26,3.46.2,1.6.39,3.02.65,4.49.82,4.63,1.49,5.99,2.1,8.14,1.7,5.97,2.37,9.09,2.2,13.2-.22,5.43-1.57,8.04-4.07,10.67-1.28,1.36-2.55,3.05-4.55,4.87-2.85,2.59-3.24,2.71-4.4,1.26-1.52-1.9.41-4.49-.28-9.2-.95-6.45-2.48-8.26-2.97-16.15-.08-1.19-.82,5.27-3.33,7.64-1.99,1.88-5.35,1.75-4.8.8,5.07-8.88.62-14.57,2.83-21.37.7-2.19,2.68-5.69,2.58-7.34,0-.14-.04-.3-.06-.44,0-.04-.01-.08-.01-.12-.4-3.75-2.71-8.37-5.91-14.14-4.44-8-6.97-12.91-13.26-27.2-.31-.71-.62-1.44-.96-2.21-.4-.91-.78-1.82-1.16-2.74-7.06-17.09-8.28-31.86-8.57-33.7-.14-.86-.35-1.82-.57-2.82,0-.04-.02-.09-.03-.13-1.03-4.45-2.86-10.1-4.85-16.09-2-6.02-4.17-12.38-5.88-18.22-.54-1.85-1.87-7.3-2.41-9.58-.16.51-.3,1.03-.46,1.55-.47,6.32-.83,26.48,1.69,42.77,0,0,0,0,0,0,.76,5.02,1.84,9.83,3.05,14.24.44,1.6.77,3.34,1.13,5.19.62,3.14,1.07,6.26,1.41,9.54,1.77,2.81,3.67,6.18,6.09,11.16.02.05.04.1.06.15.51,1.21,1.08,2.47,1.65,3.82.02.04.03.08.05.12,3.53,8.6,8.04,19.88,8.39,37.43,0,.01,0,.14,0,.15.02,1.15.02,2.33.01,3.54,0,.03,0,.11,0,.14-.04,3.23-.22,6.67-.58,10.32-.1,1.07-.25,2.21-.44,3.42-2.07,13.02-10.41,36.63-13.87,48.77-.25.87-.49,1.72-.72,2.55-7.48,26.79-11.76,43.15-12.43,52.97-.04.63-.08,1.24-.1,1.83-.54,11.63,1.06,15.72,2.53,23.02.1.48.19.95.28,1.43,2.7,14.75.53,27.54-2.96,39.29-6.63,22.26-13.56,32.14-14.26,43.83-.18,2.92,2,4.13.8,7.82-.62,1.92-1.68,3.75-.08,8.03,5.39,14.47,12.41,18.25,11.59,23.54-.93,5.85-20.4,5.48-28.02,4.16-6.27-1.08-6.19-10.05-4.39-20.3.37-2.08.56-4.39.41-7.95-.07-1.76-.54-3.8-.79-6.27-.23-2.28.44-4.68.79-6.59.27-1.44.55-2.6.6-3.21,1.88-22.34,1.16-27.71-1.63-48.73-2.82-21.23,1.13-25.03.64-38.02-.3-7.69-2.62-15.56-3.23-23.89-.78-10.44.29-20.32,1.38-27.75,3.02-20.54,3-23.86,3.98-40.1,1.06-17.62-4.53-26.27-1.34-41.48-.74.27-2.55.39-4.35.38s-3.61-.11-4.35-.38c3.19,15.21-2.4,23.86-1.34,41.48.98,16.25.96,19.56,3.98,40.1,1.1,7.43,2.17,17.3,1.39,27.75-.62,8.33-2.93,16.2-3.23,23.89-.49,12.99,3.46,16.8.64,38.02-2.79,21.02-3.37,26.38-1.63,48.73.05.61.32,1.77.59,3.21.36,1.91,1.02,4.31.79,6.59-.25,2.47-.71,4.51-.79,6.27-.16,3.55.05,5.87.41,7.95,1.81,10.26,1.9,19.22-4.38,20.3-7.63,1.32-27.1,1.69-28.02-4.16-.83-5.28,6.19-9.07,11.59-23.54,1.59-4.27.54-6.11-.08-8.03-1.2-3.68.97-4.9.8-7.82-.7-11.68-7.64-21.57-14.26-43.83-3.58-12.03-5.78-25.16-2.77-40.36,1.55-7.81,3.29-11.85,2.53-24.75-.58-10-5.07-26.99-12.99-55.34-3.57-12.75-13.12-39.45-14.41-51.95-.52-5.04-.72-9.68-.68-13.94v-.15c.23-20.18,5.92-32.21,9.63-41.31.02-.05.04-.1.06-.15,2.38-4.98,4.28-8.43,6-11.23.5-5.37,1.11-10.11,2.41-14.47,1.78-5.95,3.29-12.57,4.28-19.33,0,0,0,0,0,0,2.23-14.93,2.16-31.77,1.61-37.63-.16-.51-.31-1.04-.48-1.55-.35.42-.83,1.43-1.29,2.43-.42,1.71-.89,3.57-1.21,4.73-.45,1.62-.93,3.25-1.37,4.67-1.39,4.49-2.97,9.18-4.48,13.71-1.99,5.98-3.85,11.68-4.96,16.22-.27,1.1-.51,2.15-.69,3.1,0,.04-.01.07-.02.12-.1.59-.24,1.54-.41,2.78-.64,4.73-2.48,18.11-8.92,33.03-.41.94-.8,1.85-1.19,2.74-.41.94-.81,1.84-1.19,2.71-.02.04-.03.08-.05.12-5.47,12.36-7.99,17.25-12.02,24.54-.41.75-.82,1.49-1.22,2.22-2.6,4.79-4.46,8.75-4.91,12.04-.02.14-.06.3-.07.44-.05.45,0,.99.13,1.58,0,.04.02.09.03.13.03.13.05.27.08.4.41,1.59,1.49,3.7,2.06,5.31.23.67.41,1.32.54,1.94,1.22,6.09-2.1,11.51,2.28,19.52.25.45-.12.76-.71.89-.68.15-2.3-.08-3.56-1.08-.39-.31-.75-.7-1.07-1.16-1.73-2.49-2.33-6.75-2.5-6.44-.08.14-.14.36-.17.8-.55,6.87-1.94,8.86-2.85,14.77-.06.41-.11.81-.14,1.2-.33,3.96,1.11,6.32-.06,8.07-.21.32-.42.58-.64.77-.84.74-1.49.36-3.71-1.65-.23-.21-.45-.42-.68-.63-1.65-1.58-2.78-3.04-3.91-4.25-.19-.2-.37-.4-.54-.59-2.22-2.47-3.43-5.05-3.66-10.07,0-.21-.02-.42-.02-.63-.1-3.87.58-6.95,2.19-12.63.04-.13.07-.26.11-.38.73-2.47,1.54-4.09,2.59-11.2.34-2.28.35-3.59.35-4.56,0-.04,0-.12,0-.16,0-.47,0-.87.06-1.26.41-3.05,2.15-4,3.12-9.75,1.82-10.87,3.02-18.94,4.73-30.29,0-.05.02-.1.02-.14.34-2.25.7-4.62,1.09-7.18,1.41-9.38,6.14-21.17,11.12-34.14.02-.05.03-.1.05-.15.26-.69.53-1.38.8-2.08.51-1.34,1.58-11.46,2-16.8.51-6.66,5.35-67.66,8.66-76.86,2.47-6.87,4.86-9.62,7.16-10.52v-.02Z"/>
  </g>
</svg>