<?xml version="1.0" encoding="UTF-8"?>
<svg id="_레이어_2" data-name="레이어 2" xmlns="http://www.w3.org/2000/svg" viewBox="0 0 212.64 571.25">
  <defs>
    <style>
      .cls-1 {
        fill: #f3a9aa;
        stroke: #231815;
        stroke-miterlimit: 10;
      }
    </style>
  </defs>
  <g id="_레이어_1-2" data-name="레이어 1">
    <path class="cls-1" d="m44.54,106.84s1.86-.89,2.99-1.3c3.37-1.21,7.6-1.81,12.07-2.55.29-.05.6-.1.91-.15,3.78-.63,13.31-1.4,16.79-2.76,5.27-2.05,9.61-4.6,12.23-10.99,1.1-2.7,1.54-10.2,1.72-15.32-2.5-2.35-4.45-5.37-5.66-10.39-.22-.9-.47-1.97-.73-3.12-2.75.98-3.46-3.3-3.97-4.53-.56-1.36-1.3-1.49-2.05-4.49-.5-2,.37-3.32.01-4.6-.24-.87-.36-3.32.74-4.15.12-.09.26-.14.41-.18-1.63-6.26-2.67-16.48.73-24.31,1.46-3.39,3.28-6.11,5.19-8.28,4.51-5.56,11.95-9.21,20.38-9.21s15.88,3.64,20.38,9.21c1.91,2.16,3.72,4.89,5.19,8.28,3.4,7.83,2.36,18.05.73,24.31.16.04.3.09.41.18,1.1.84.98,3.28.74,4.15-.36,1.29.51,2.6.01,4.6-.75,3-1.48,3.13-2.04,4.49-.51,1.24-1.23,5.51-3.97,4.53-.26,1.15-.51,2.22-.73,3.12-1.22,5.02-3.16,8.05-5.66,10.39.18,5.12.62,12.62,1.72,15.32,2.62,6.39,6.97,8.95,12.23,10.99,3.48,1.36,13.02,2.13,16.79,2.76.31.05.62.1.91.15,4.47.74,8.7,1.34,12.07,2.55,1.14.41,2.99,1.3,2.99,1.3v.02c2.3.91,4.69,3.65,7.16,10.52,3.31,9.2,8.14,70.2,8.65,76.86.42,5.33,1.49,15.46,2,16.8.27.71.54,1.41.81,2.11.02.05.03.1.05.15,5.02,12.94,9.69,24.73,11.1,34.1.39,2.57.75,4.95,1.09,7.21,0,.05.01.1.02.15,1.71,11.32,2.91,19.38,4.73,30.24.97,5.74,2.69,6.7,3.12,9.75.06.4.06.82.06,1.32,0,.24,0,.68.09,1.25.07,1.18.14,2.53.45,4.54,1,6.46,1.77,7.89,2.48,10.37,1.7,5.97,2.37,9.09,2.2,13.2-.22,5.43-1.57,8.04-4.07,10.67-1.28,1.36-2.55,3.05-4.55,4.87-2.85,2.59-3.24,2.71-4.4,1.26-1.52-1.9.41-4.49-.28-9.2-.95-6.45-2.48-8.26-2.97-16.15-.08-1.19-.82,5.27-3.33,7.64-1.99,1.88-5.35,1.75-4.8.8,5.07-8.88.62-14.57,2.83-21.38.7-2.19,2.68-5.69,2.58-7.33,0-.14-.04-.3-.06-.44,0-.05-.02-.09-.02-.14-.41-3.74-2.71-8.35-5.91-14.12-4.44-8-6.97-12.91-13.26-27.2-.12-.27-.23-.55-.36-.84-.39-.89-.79-1.8-1.19-2.74-7.57-17.67-8.85-33.18-9.15-35.06-.14-.87-.35-1.82-.57-2.82-.01-.05-.02-.1-.04-.14-1.04-4.47-2.88-10.16-4.88-16.19-1.99-5.99-4.14-12.31-5.84-18.1-.54-1.85-1.87-7.3-2.41-9.58-.16.51-.32,1.03-.48,1.55-2.94,10.64-8.35,29.22-5.46,42.47,0,0,0,0,0,0,.88,4.5,2.63,8.95,4.97,13.73.74,1.52,1.48,3.15,2.31,4.84,1.6,3.26,2.94,5.87,4.24,8.72,1.88,2.85,3.84,6.09,6.36,11.11.02.05.04.09.07.14.56,1.18,1.16,2.44,1.79,3.8.02.05.04.09.06.14,3.46,8.56,8.48,19.71,9.15,37.53,0,.04,0,.11,0,.15.04,1.16.07,2.35.07,3.57,0,.01,0,.14,0,.15,0,3.25-.13,6.71-.43,10.4-.09,1.12-.21,2.28-.36,3.47-1.5,12.15-9.92,36.14-13.74,49.18-.26.89-.51,1.75-.73,2.56-7.48,26.73-11.84,43.26-12.72,53.33-.05.63-.1,1.24-.13,1.83-.65,11.93.87,16.17,2.34,23.2.1.47.2.95.29,1.45,2.9,15.05.72,28.07-2.83,40.01-6.62,22.26-13.56,32.14-14.26,43.83-.18,2.92,2,4.13.8,7.82-.62,1.92-1.68,3.75-.08,8.03,5.39,14.47,12.41,18.25,11.58,23.54-.92,5.85-20.39,5.48-28.01,4.16-6.27-1.08-6.19-10.05-4.39-20.3.37-2.08.56-4.39.41-7.95-.07-1.76-.54-3.8-.79-6.27-.23-2.28.44-4.68.79-6.59.27-1.44.55-2.6.6-3.21,1.8-22.35,1.16-27.71-1.62-48.73-2.82-21.23,1.13-25.03.63-38.02-.3-7.69-2.61-15.56-3.22-23.89-.78-10.44.29-20.32,1.38-27.75,3.02-20.54,3-23.86,3.98-40.1,1.06-17.62-4.53-26.27-1.34-41.48-.74.27-2.55.39-4.35.38-1.8-.01-3.61-.11-4.35-.38,3.19,15.21-2.4,23.86-1.34,41.48.98,16.25.96,19.56,3.98,40.1,1.1,7.43,2.17,17.3,1.39,27.75-.62,8.33-2.93,16.2-3.23,23.89-.49,12.99,3.46,16.8.64,38.02-2.79,21.02-3.38,26.38-1.63,48.73.05.61.32,1.77.59,3.21.36,1.91,1.02,4.31.79,6.59-.25,2.47-.72,4.51-.79,6.27-.15,3.55.05,5.87.41,7.95,1.81,10.26,1.9,19.22-4.38,20.3-7.63,1.32-27.1,1.69-28.02-4.16-.83-5.28,6.19-9.07,11.59-23.54,1.59-4.27.54-6.11-.08-8.03-1.2-3.68.97-4.9.8-7.82-.71-11.68-7.64-21.57-14.26-43.83-3.58-12.03-5.78-25.16-2.77-40.36,1.55-7.81,3.29-11.85,2.53-24.75-.58-10-5.07-26.99-12.99-55.34-3.57-12.75-13.12-39.45-14.41-51.95-.52-5.04-.72-9.68-.68-13.94v-.15c.23-20.18,5.96-32.2,9.63-41.31.02-.05.04-.1.06-.15,2.41-5.04,4.32-8.51,6.05-11.33,1.97-4.73,3.67-8.2,6.14-12.78,3.59-6.68,6.17-12.61,7.32-18.54,0,0,0,0,0,0,2.56-11.85-1.33-27.45-4.37-37.51-.18-.52-.35-1.04-.52-1.55-.51-.99-1.03-1.74-1.51-2.43-.32,1.31-.77,3.17-1.18,4.78-.47,1.83-.95,3.64-1.29,4.74-1.33,4.47-2.91,9.22-4.46,13.86-1.96,5.89-3.87,11.6-5.15,16.34-.35,1.3-.67,2.54-.92,3.68-.02.05-.02.09-.03.14-.18.86-.37,1.81-.52,2.8-.41,2.79-1.84,17.02-8.63,33.33-.34.81-.68,1.62-1.03,2.42-.41.95-.82,1.86-1.2,2.73-.02.05-.04.09-.06.14-5.61,12.73-8.2,17.86-12.03,24.83-.4.73-.81,1.47-1.23,2.23-2.62,4.75-4.58,8.7-5.31,12.02-.03.15-.07.3-.1.45-.1.53-.15,1.07-.14,1.62,0,.05,0,.1,0,.14,0,.14-.02.29-.01.43.07,1.34,1.16,3.53,1.91,5.38.27.68.51,1.34.67,1.92,1.77,6.31-1.86,11.72,2.11,19.74.24.48.27.93.29,1.31.03.56-1.84.64-3.49-.28-.45-.25-.88-.58-1.25-.99-1.67-1.84-2.46-5.44-2.8-6.52-.19-.6-.28-.88-.31-.45-.49,7.21-1.87,9.25-2.81,14.9-.06.39-.12.78-.17,1.19-.5,3.98.85,6.41.11,8.21-.13.32-.3.61-.53.87-.99,1.13-1.48,1.01-3.7-.97-.22-.2-.45-.4-.69-.63-1.7-1.57-2.86-3.03-3.97-4.26-.19-.2-.37-.4-.55-.6-2.34-2.51-3.64-5.04-3.91-10.05-.01-.21-.02-.42-.03-.63-.14-3.97.51-7.04,2.12-12.73.04-.14.08-.27.12-.41.74-2.58,1.57-4.1,2.64-11.39.34-2.28.35-3.59.35-4.56,0-.01,0-.14,0-.15,0-.48,0-.88.06-1.27.43-3.04,2.15-4,3.12-9.75,1.82-10.87,3.02-18.94,4.73-30.29,0-.05.02-.1.02-.15.34-2.25.7-4.62,1.09-7.17,1.41-9.38,6.06-21.2,11.12-34.14.02-.05.03-.1.05-.15.27-.69.53-1.38.8-2.08.51-1.34,1.58-11.46,2-16.8.51-6.66,5.34-67.66,8.65-76.86,2.47-6.87,4.86-9.62,7.16-10.52v-.02Z"/>
  </g>
</svg>