<?xml version="1.0" encoding="UTF-8"?>
<svg id="_레이어_2" data-name="레이어 2" xmlns="http://www.w3.org/2000/svg" viewBox="0 0 212.64 571.25">
  <defs>
    <style>
      .cls-1 {
        fill: #f3a9aa;
        stroke: #231815;
        stroke-miterlimit: 10;
      }
    </style>
  </defs>
  <g id="_레이어_1-2" data-name="레이어 1">
    <path class="cls-1" d="m212.12,325.48c-.22,5.43-1.57,8.04-4.07,10.68-1.28,1.36-2.55,3.05-4.55,4.88-2.85,2.6-3.24,2.72-4.4,1.26-1.52-1.9.41-4.5-.28-9.2-.95-6.45-2.48-8.26-2.97-16.15-.08-1.19-.82,5.27-3.33,7.64-1.99,1.88-5.35,1.75-4.8.8,5.07-8.88.62-14.58,2.83-21.38.7-2.2,2.67-5.69,2.58-7.34,0-.14-.04-.3-.06-.44-.37-3.77-2.69-8.43-5.93-14.27-4.44-8-6.98-12.92-13.26-27.21-.41-.93-.82-1.89-1.26-2.9-7.83-17.96-9.13-33.86-9.44-35.77-.14-.86-.35-1.82-.57-2.82-1.02-4.46-2.86-10.14-4.86-16.17-2.01-6.04-4.18-12.43-5.9-18.28-.54-1.85-1.87-7.3-2.41-9.58-.16.51-.3,1.04-.45,1.55.99,5.4,4.35,39.03,7.35,57.46,1.07,6.53.69,15.73-.05,24.65.39,1.11.59,1.73.65,1.87,3.33,9.11,8.39,21.16,8.56,41.34v.14c.03,4.24-.15,8.81-.6,13.81-1.16,12.51-9.7,39.22-12.88,51.98-7.09,28.35-11.1,45.37-11.62,55.37-.67,12.91.88,16.95,2.26,24.77,2.69,15.21.73,28.34-2.47,40.38-5.92,22.26-12.11,32.16-12.75,43.85-.16,2.92,1.78,4.14.72,7.82-.56,1.92-1.5,3.76-.08,8.03,4.82,14.48,11.1,18.26,10.35,23.55-.82,5.85-18.23,5.48-25.04,4.17-5.61-1.08-5.53-10.05-3.91-20.32.33-2.07.49-4.4.37-7.94-.07-1.76-.48-3.81-.71-6.27-.2-2.28.4-4.69.71-6.59.24-1.45.48-2.61.53-3.21,1.5-22.37,1.04-27.72-1.46-48.75-2.51-21.24,1.02-25.06.57-38.04-.27-7.69-2.33-15.57-2.88-23.9-.69-10.46.27-20.33,1.24-27.76,2.7-20.55,2.69-23.87,3.56-40.12.95-17.63-4.05-26.29-1.2-41.5-.66.26-2.28.39-3.89.38-1.6-.02-3.22-.12-3.88-.38,2.86,15.22-2.14,23.87-1.21,41.5.88,16.25.86,19.57,3.57,40.12.98,7.43,1.94,17.3,1.24,27.76-.55,8.33-2.62,16.2-2.88,23.9-.44,12.99,3.08,16.8.56,38.04-2.49,21.03-2.95,26.39-1.45,48.75.04.6.3,1.76.53,3.21.32,1.91.91,4.32.7,6.59-.22,2.47-.64,4.52-.7,6.27-.13,3.55.04,5.87.37,7.94,1.62,10.27,1.69,19.24-3.91,20.32-6.82,1.32-24.22,1.69-25.04-4.17-.74-5.29,5.52-9.07,10.34-23.55,1.43-4.28.49-6.11-.07-8.03-1.07-3.69.87-4.91.72-7.82-.63-11.69-6.84-21.59-12.75-43.85-3.2-12.04-5.17-25.18-2.47-40.38,1.38-7.81,2.93-11.86,2.26-24.77-.52-10-4.53-27.01-11.62-55.37-3.18-12.76-11.73-39.47-12.88-51.98-.45-5-.63-9.57-.6-13.81v-.14c.17-20.18,5.23-32.23,8.56-41.34.06-.15.27-.77.65-1.91-.73-8.91-1.11-18.08-.04-24.61,3-18.42,6.36-52.05,7.35-57.46-.16-.51-.3-1.04-.45-1.55-.54,2.28-1.87,7.73-2.41,9.58-1.72,5.85-3.89,12.24-5.9,18.28-2.01,6.03-3.84,11.72-4.86,16.17-.23,1-.43,1.96-.57,2.82-.31,1.91-1.61,17.8-9.44,35.77-.44,1.01-.86,1.97-1.26,2.9-6.28,14.3-8.82,19.21-13.26,27.21-3.24,5.83-5.56,10.5-5.93,14.27-.02.14-.05.3-.06.44-.09,1.65,1.88,5.15,2.58,7.34,2.2,6.8-2.24,12.5,2.83,21.38.54.95-2.82,1.08-4.8-.8-2.51-2.37-3.25-8.83-3.33-7.64-.49,7.89-2.03,9.7-2.97,16.15-.69,4.71,1.24,7.3-.28,9.2-1.16,1.46-1.55,1.34-4.4-1.26-2.01-1.83-3.27-3.52-4.55-4.88-2.5-2.64-3.85-5.25-4.07-10.68-.17-4.12.5-7.23,2.2-13.21.75-2.64,1.58-4.11,2.67-11.49.34-2.28.35-3.6.35-4.57,0-.55,0-.99.06-1.43.41-3.05,2.15-4.01,3.12-9.75,1.82-10.88,3.02-18.95,4.73-30.3.35-2.3.71-4.72,1.11-7.32,1.41-9.38,6.14-21.18,11.12-34.16.28-.74.56-1.48.85-2.23.5-1.34,1.58-11.47,2-16.8.51-6.66,5.35-67.7,8.66-76.9,2.47-6.87,4.86-9.62,7.16-10.53v-.02s1.86-.89,2.99-1.3c3.37-1.21,7.6-1.84,12.07-2.55,3.65-.67,14.17-1.41,17.7-2.8,5.27-2.05,9.61-4.61,12.23-11,1.1-2.7,1.54-10.2,1.72-15.33-2.5-2.35-4.45-5.37-5.66-10.4-.22-.9-.47-1.98-.73-3.12-2.75.98-3.46-3.3-3.97-4.54-.56-1.37-1.3-1.5-2.04-4.5-.5-2.01.36-3.32,0-4.61-.25-.87-.36-3.32.74-4.16.12-.09.26-.14.42-.19-1.63-6.25-2.67-16.48.73-24.32,1.46-3.39,3.28-6.12,5.19-8.28,4.51-5.57,11.95-9.21,20.38-9.21s15.88,3.64,20.38,9.21c1.91,2.16,3.72,4.9,5.19,8.28,3.4,7.83,2.36,18.06.73,24.32.16.05.3.1.41.19,1.1.84.99,3.29.74,4.16-.35,1.29.51,2.6.01,4.61-.74,3-1.48,3.13-2.05,4.5-.51,1.24-1.22,5.51-3.97,4.54-.26,1.14-.51,2.22-.73,3.12-1.22,5.03-3.16,8.05-5.66,10.4.18,5.13.62,12.63,1.72,15.33,2.62,6.39,6.97,8.95,12.23,11,3.54,1.39,14.06,2.13,17.71,2.8,4.48.71,8.7,1.34,12.07,2.55,1.14.41,2.99,1.3,2.99,1.3v.02c2.3.91,4.69,3.66,7.16,10.53,3.31,9.2,8.14,70.23,8.65,76.9.41,5.34,1.49,15.47,2,16.8.29.75.57,1.49.85,2.23,4.98,12.98,9.7,24.78,11.12,34.16.4,2.61.76,5.03,1.11,7.32,1.71,11.35,2.91,19.42,4.73,30.3.97,5.74,2.71,6.7,3.12,9.75.06.44.06.88.06,1.43,0,.97,0,2.29.35,4.57,1.09,7.38,1.92,8.85,2.67,11.49,1.7,5.97,2.37,9.09,2.2,13.21Z"/>
  </g>
</svg>