<?xml version="1.0" encoding="UTF-8"?>
<svg id="_레이어_2" data-name="레이어 2" xmlns="http://www.w3.org/2000/svg" viewBox="0 0 212.63 571.14">
  <defs>
    <style>
      .cls-1 {
        fill: #f3a9aa;
        stroke: #231815;
        stroke-miterlimit: 10;
      }
    </style>
  </defs>
  <g id="_레이어_1-2" data-name="레이어 1">
    <path class="cls-1" d="m44.54,106.79s1.86-.89,2.99-1.3c3.37-1.21,7.6-1.81,12.07-2.55.29-.05.6-.1.91-.15,3.78-.63,13.31-1.4,16.79-2.76,5.27-2.05,9.61-4.6,12.23-10.99,1.1-2.69,1.54-10.19,1.72-15.31-2.5-2.35-4.45-5.37-5.66-10.39-.22-.9-.47-1.97-.73-3.11-2.75.98-3.46-3.29-3.97-4.53-.56-1.36-1.3-1.49-2.05-4.49-.5-2,.37-3.32.01-4.6-.24-.87-.36-3.32.74-4.15.12-.09.26-.14.41-.18-1.63-6.26-2.67-16.48.73-24.3,1.46-3.38,3.28-6.11,5.19-8.27,4.51-5.56,11.95-9.2,20.38-9.2s15.88,3.64,20.37,9.2c1.91,2.16,3.73,4.89,5.19,8.27,3.4,7.83,2.36,18.05.73,24.3.16.04.3.09.41.18,1.1.84.98,3.28.74,4.15-.36,1.28.51,2.6.01,4.6-.75,3-1.48,3.13-2.05,4.49-.51,1.24-1.22,5.51-3.97,4.53-.26,1.15-.51,2.22-.73,3.11-1.22,5.02-3.16,8.04-5.66,10.39.18,5.12.62,12.62,1.72,15.31,2.62,6.39,6.97,8.94,12.23,10.99,3.48,1.36,13.02,2.13,16.79,2.76.31.05.62.1.91.15,4.47.74,8.7,1.34,12.07,2.55,1.14.41,2.99,1.3,2.99,1.3v.02c2.3.91,4.69,3.65,7.16,10.52,3.31,9.19,8.14,70.17,8.65,76.82.41,5.33,1.49,15.45,2,16.79.27.71.54,1.41.81,2.11.02.05.03.1.05.15,4.97,12.95,9.69,24.72,11.1,34.08.39,2.57.75,4.95,1.09,7.2,0,.05.01.1.02.15,1.71,11.32,2.91,19.37,4.73,30.23.97,5.74,2.69,6.7,3.12,9.74.06.4.06.82.06,1.32,0,.24,0,.68.09,1.25.07,1.18.14,2.53.45,4.54,1,6.46,1.77,7.89,2.48,10.36,1.7,5.97,2.37,9.08,2.2,13.19-.22,5.43-1.57,8.03-4.07,10.67-1.28,1.36-2.55,3.04-4.55,4.87-2.85,2.59-3.24,2.71-4.4,1.26-1.52-1.9.41-4.49-.28-9.19-.95-6.45-2.48-8.25-2.97-16.14-.08-1.19-.82,5.27-3.33,7.64-1.99,1.88-5.35,1.75-4.8.8,5.07-8.87.62-14.56,2.83-21.37.7-2.19,2.68-5.69,2.58-7.33,0-.14-.04-.3-.06-.44,0-.05-.02-.09-.02-.14-.41-3.74-2.71-8.35-5.91-14.11-4.44-7.99-6.98-12.91-13.26-27.19-.12-.27-.23-.55-.36-.84-.39-.89-.79-1.8-1.19-2.74-7.57-17.66-8.85-33.17-9.15-35.05-.14-.87-.36-1.81-.57-2.81-.01-.05-.02-.1-.04-.14-1.03-4.47-2.87-10.15-4.88-16.17-1.99-5.99-4.15-12.31-5.85-18.11-.54-1.85-1.87-7.3-2.41-9.57-.16.51-.31,1.03-.48,1.55-2.91,10.65-7.87,29.37-3.99,42.42.84,4.2,2.98,9.07,5.38,13.69,1.21,2.34,2.35,4.83,3.49,7.26,4.11,5.48,7.41,11.18,9.74,15.82.06.11.11.22.16.32,1.01,2.05,1.92,3.99,2.69,5.77.05.1.09.2.13.29,3.43,8.25,8.41,18.83,9.31,35.35,0,.1.01.2.02.3.09,1.74.15,3.53.14,5.4,0,.11,0,.2,0,.29-.02,2.69-.11,5.52-.34,8.5-.13,1.69-.31,3.47-.57,5.33-1.62,11.9-9.96,34.6-14.06,47.67-.44,1.4-.84,2.73-1.2,3.95-7.61,25.86-12.14,42.13-13.2,52.2-.1,1-.18,1.94-.23,2.83-.64,11.41.85,15.72,2.34,22.39.16.72.32,1.45.47,2.22,2.92,14.54.83,27.19-2.72,38.81-.13.44-.27.88-.41,1.31-6.93,22.01-14.17,31.86-14.9,43.47-.19,2.91,2.09,4.13.84,7.82-.65,1.93-1.77,3.76-.09,8.03,5.68,14.45,13.07,18.24,12.2,23.51-.97,5.85-21.48,5.49-29.5,4.17-6.61-1.09-6.52-10.04-4.61-20.3.39-2.08.58-4.39.43-7.94-.08-1.76-.57-3.8-.83-6.27-.24-2.28.45-4.68.83-6.59.29-1.44.57-2.6.62-3.2,1.78-22.34,1.22-27.7-1.71-48.7-2.96-21.23,1.2-25.03.67-38.01-.31-7.7-2.75-15.55-3.4-23.87-.82-10.45.32-20.32,1.46-27.75,3.18-20.53,3.17-23.84,4.2-40.07,1.12-17.63-4.77-26.27-1.42-41.47-.77.27-2.68.38-4.57.38-1.89,0-3.8-.11-4.57-.38,3.36,15.2-2.53,23.84-1.42,41.47,1.04,16.23,1.02,19.54,4.2,40.07,1.16,7.43,2.28,17.3,1.46,27.75-.65,8.32-3.08,16.18-3.4,23.87-.52,12.98,3.64,16.78.67,38.01-2.93,21-3.49,26.36-1.71,48.7.05.61.34,1.77.62,3.2.38,1.91,1.07,4.31.83,6.59-.26,2.46-.75,4.51-.83,6.27-.15,3.55.05,5.87.43,7.94,1.91,10.26,2,19.21-4.61,20.3-8.02,1.32-28.53,1.68-29.5-4.17-.87-5.28,6.52-9.06,12.2-23.51,1.68-4.27.57-6.11-.09-8.03-1.25-3.68,1.03-4.9.85-7.82-.74-11.67-8.05-21.56-15.02-43.8-3.76-12.04-6.09-25.16-2.91-40.34,1.63-7.82,3.47-11.85,2.67-24.75-.61-9.98-5.34-26.98-13.68-55.31-3.75-12.75-13.82-39.43-15.18-51.93-.55-5.04-.74-9.66-.72-13.93,0-.1,0-.19,0-.3.13-20.08,6.36-32.01,10.14-41.14.04-.1.08-.2.13-.3,1.82-4.19,4.85-10.13,8.88-16.17.95-2.03,2-4.03,3.12-5.97.58-1.01,1.15-2.04,1.73-3.06,3.2-5.55,6.16-11.9,7.19-17.13,3.52-12.02-.25-28.42-3.21-38.7-.17-.52-.34-1.04-.5-1.55-.37-.73-.75-1.32-1.11-1.84-.38,1.58-.99,4.06-1.48,5.97-.36,1.4-.72,2.7-.97,3.56-1.43,4.81-3.15,9.96-4.82,14.94-1.97,5.92-3.87,11.61-5.09,16.29-.27,1.02-.51,2-.7,2.91-.02.05-.02.09-.03.14-.17.86-.37,1.81-.52,2.8-.41,2.79-1.84,17.01-8.63,33.32-.34.81-.68,1.62-1.03,2.42-.41.95-.82,1.86-1.2,2.73-.02.05-.04.09-.06.14-5.61,12.72-8.2,17.86-12.03,24.81-.4.73-.81,1.47-1.23,2.23-2.62,4.75-4.58,8.7-5.31,12.02-.03.15-.07.3-.1.45-.1.53-.15,1.07-.14,1.61,0,.05,0,.1,0,.14,0,.14-.02.29-.01.43.07,1.34,1.16,3.53,1.91,5.38.27.68.51,1.34.67,1.92,1.77,6.31-1.86,11.72,2.11,19.73.24.48.27.93.29,1.31.03.56-1.84.64-3.49-.28-.45-.25-.88-.58-1.25-.99-1.67-1.84-2.46-5.44-2.8-6.52-.19-.6-.28-.88-.31-.45-.49,7.21-1.87,9.24-2.81,14.89-.06.39-.12.78-.17,1.19-.5,3.98.85,6.41.11,8.2-.13.32-.3.61-.53.87-.99,1.13-1.48,1.01-3.7-.97-.22-.2-.45-.4-.69-.63-1.7-1.57-2.86-3.03-3.97-4.26-.19-.2-.37-.4-.55-.6-2.34-2.51-3.64-5.04-3.91-10.04-.01-.21-.02-.42-.03-.63-.14-3.96.51-7.04,2.12-12.72.04-.14.08-.27.12-.41.74-2.58,1.57-4.1,2.64-11.39.34-2.28.35-3.59.35-4.56,0-.01,0-.14,0-.15,0-.48,0-.88.06-1.27.43-3.04,2.15-4,3.12-9.74,1.82-10.87,3.02-18.93,4.73-30.27,0-.05.02-.1.02-.15.34-2.25.7-4.61,1.09-7.17,1.41-9.37,6.1-21.17,11.12-34.12.02-.05.03-.1.05-.15.27-.69.53-1.38.8-2.08.51-1.34,1.58-11.46,2-16.79.51-6.66,5.34-67.63,8.65-76.82,2.47-6.87,4.86-9.61,7.16-10.52v-.02Z"/>
  </g>
</svg>