<?xml version="1.0" encoding="UTF-8"?>
<svg id="_레이어_2" data-name="레이어 2" xmlns="http://www.w3.org/2000/svg" viewBox="0 0 212.63 571.18">
  <defs>
    <style>
      .cls-1 {
        fill: #f3a9aa;
        stroke: #231815;
        stroke-miterlimit: 10;
      }
    </style>
  </defs>
  <g id="_레이어_1-2" data-name="레이어 1">
    <path class="cls-1" d="m44.54,106.76s1.86-.89,2.99-1.3c3.37-1.21,7.6-1.8,12.07-2.55.28-.05.59-.1.91-.15,3.93-.63,13.38-1.38,16.8-2.72,5.27-2.05,9.61-4.6,12.23-10.99,1.1-2.7,1.54-10.19,1.72-15.31-2.5-2.35-4.45-5.37-5.66-10.39-.22-.9-.47-1.97-.73-3.11-2.75.98-3.46-3.29-3.97-4.53-.56-1.36-1.3-1.49-2.05-4.49-.5-2,.37-3.32,0-4.6-.24-.87-.36-3.32.74-4.15.12-.09.26-.14.41-.18-1.63-6.25-2.67-16.47.73-24.3,1.46-3.38,3.28-6.11,5.19-8.27,4.51-5.56,11.95-9.2,20.38-9.2s15.88,3.64,20.38,9.2c1.91,2.16,3.73,4.89,5.19,8.27,3.4,7.83,2.36,18.05.73,24.3.16.04.3.09.41.18,1.1.84.98,3.28.74,4.15-.36,1.29.51,2.6,0,4.6-.75,3-1.48,3.13-2.05,4.49-.51,1.24-1.23,5.51-3.97,4.53-.26,1.14-.51,2.22-.73,3.11-1.22,5.02-3.16,8.04-5.66,10.39.18,5.12.62,12.62,1.72,15.31,2.62,6.39,6.97,8.94,12.23,10.99,3.41,1.34,12.87,2.09,16.8,2.72.32.05.62.1.9.15,4.47.75,8.7,1.34,12.07,2.55,1.14.41,2.99,1.3,2.99,1.3v.02c2.3.91,4.69,3.65,7.16,10.52,3.31,9.19,8.14,70.17,8.65,76.83.41,5.33,1.49,15.45,2,16.79.27.72.55,1.44.82,2.15.02.05.04.11.06.16,4.97,12.93,9.67,24.69,11.08,34.04.39,2.58.75,4.97,1.1,7.24,0,.05.01.11.02.16,1.7,11.3,2.91,19.35,4.72,30.19.97,5.74,2.7,6.7,3.12,9.74.06.41.06.84.06,1.35,0,.48,0,1.22.17,2.36.13,1.39.26,2.77.55,4.51.91,5.54,1.63,6.94,2.29,9.25,1.7,5.97,2.37,9.08,2.2,13.2-.22,5.43-1.57,8.04-4.07,10.67-1.28,1.36-2.55,3.04-4.55,4.87-2.85,2.59-3.24,2.71-4.4,1.26-1.52-1.9.41-4.49-.28-9.19-.95-6.45-2.48-8.25-2.97-16.14-.08-1.19-.82,5.27-3.33,7.64-1.99,1.88-5.35,1.75-4.8.8,5.07-8.87.62-14.56,2.83-21.37.7-2.19,2.68-5.69,2.58-7.33,0-.14-.04-.3-.06-.44,0-.04-.01-.09-.02-.13-.41-3.74-2.71-8.36-5.91-14.12-4.44-8-6.98-12.91-13.26-27.19-.21-.49-.43-.99-.66-1.52-.39-.9-.79-1.81-1.18-2.74-7.32-17.37-8.56-32.51-8.86-34.37-.14-.86-.35-1.81-.57-2.81,0-.05-.02-.09-.03-.14-1.03-4.46-2.86-10.12-4.86-16.13-2-6-4.16-12.35-5.86-18.16-.54-1.85-1.87-7.3-2.41-9.57-.16.51-.31,1.03-.47,1.55-1.69,8.49-4.27,27.92-.91,42.55.79,4.57,2.51,9.49,4.28,14,1.01,2.55,1.8,5.42,2.55,8.33,4.07,5.65,7.27,11.41,9.42,15.89.05.11.1.21.15.32.92,1.97,1.82,3.89,2.62,5.75.04.1.08.19.12.29,3.46,8.28,8.1,18.95,8.72,35.28,0,.1.01.2.02.3.06,1.73.1,3.52.07,5.37,0,.1,0,.19,0,.29-.05,2.68-.18,5.49-.43,8.45-.14,1.64-.36,3.41-.67,5.28-2.02,12.49-10.32,34.92-14.14,47.36-.42,1.38-.82,2.7-1.19,3.94-7.62,25.9-12.07,42.05-12.98,51.94-.09.99-.16,1.93-.2,2.82-.55,11.19,1,15.4,2.49,22.25.16.72.31,1.46.46,2.21,2.79,14.45.64,27.03-2.92,38.59-.14.44-.27.88-.41,1.31-6.9,21.78-14.07,31.59-14.8,43.14-.19,2.91,2.09,4.13.84,7.82-.65,1.93-1.77,3.76-.09,8.04,5.68,14.45,13.07,18.24,12.2,23.52-.97,5.85-21.48,5.49-29.5,4.17-6.61-1.09-6.52-10.04-4.61-20.3.39-2.08.58-4.39.43-7.95-.08-1.76-.57-3.8-.83-6.27-.24-2.28.45-4.68.83-6.59.29-1.44.57-2.6.62-3.2,1.78-22.34,1.22-27.7-1.71-48.7-2.96-21.23,1.2-25.03.67-38.01-.31-7.7-2.75-15.55-3.4-23.88-.82-10.45.32-20.32,1.46-27.75,3.18-20.53,3.17-23.85,4.2-40.08,1.12-17.63-4.77-26.27-1.42-41.47-.77.27-2.68.38-4.57.38s-3.8-.11-4.57-.38c3.36,15.2-2.53,23.85-1.42,41.47,1.04,16.23,1.02,19.54,4.2,40.08,1.16,7.43,2.28,17.3,1.46,27.75-.65,8.32-3.08,16.18-3.4,23.88-.52,12.98,3.64,16.78.67,38.01-2.93,21-3.49,26.36-1.71,48.7.05.61.34,1.77.62,3.2.38,1.91,1.07,4.31.83,6.59-.26,2.46-.75,4.51-.83,6.27-.15,3.55.05,5.87.43,7.95,1.91,10.26,2,19.21-4.61,20.3-8.02,1.32-28.53,1.68-29.5-4.17-.87-5.28,6.52-9.06,12.2-23.52,1.68-4.27.57-6.11-.09-8.04-1.25-3.68,1.03-4.9.85-7.82-.74-11.67-8.05-21.56-15.02-43.8-3.76-12.04-6.09-25.16-2.91-40.35,1.63-7.82,3.47-11.85,2.67-24.75-.61-9.98-5.34-26.98-13.68-55.32-3.75-12.75-13.82-39.44-15.18-51.93-.55-5.04-.74-9.66-.72-13.93,0-.1,0-.19,0-.3.13-20.08,6.36-32.01,10.14-41.14.04-.1.08-.2.13-.3,1.82-4.18,4.83-10.1,8.85-16.12.63-2.16,1.37-4.27,2.16-6.28.43-1.09.84-2.18,1.3-3.22,2.39-5.46,4.69-11.85,5.66-17.58,3.06-13.62,1.18-30.64-.55-38.77-.17-.52-.32-1.04-.49-1.55-.32-.2-.68-.13-1.04,0-.44,1.82-1.05,4.3-1.49,5.95-.36,1.32-.71,2.57-1,3.54-1.46,4.82-3.18,9.94-4.82,14.89-1.98,5.96-3.86,11.65-5.01,16.25-.25,1.01-.48,1.98-.66,2.88-.01.04-.02.08-.03.13-.14.73-.3,1.67-.46,2.79-.53,3.76-2.14,17.57-8.77,33.17-.37.88-.74,1.73-1.11,2.58-.41.95-.81,1.85-1.2,2.72-.02.04-.04.09-.05.13-5.54,12.54-8.09,17.55-12.02,24.67-.41.74-.82,1.48-1.22,2.22-2.61,4.77-4.52,8.72-5.11,12.03-.03.15-.06.3-.09.45-.08.49-.07,1.03,0,1.6,0,.05,0,.09.01.14.01.13.01.28.04.41.23,1.46,1.33,3.61,1.98,5.34.25.67.46,1.33.61,1.93,1.49,6.2-1.98,11.61,2.19,19.63.24.47.07.83-.21,1.1-.33.33-2.07.28-3.52-.68-.42-.28-.82-.64-1.16-1.08-1.71-2.16-2.41-6.09-2.65-6.48-.14-.23-.21-.26-.24.18-.52,7.04-1.91,9.05-2.83,14.83-.06.4-.12.79-.16,1.19-.42,3.97.98,6.36.02,8.13-.17.32-.36.6-.58.82-.92.93-1.48.69-3.7-1.31-.22-.2-.45-.41-.68-.63-1.67-1.57-2.82-3.03-3.94-4.25-.19-.2-.37-.4-.54-.59-2.28-2.49-3.54-5.04-3.79-10.06-.01-.21-.02-.42-.03-.63-.12-3.92.54-6.99,2.15-12.67.04-.13.08-.26.11-.4.74-2.53,1.55-4.09,2.61-11.29.34-2.28.35-3.59.35-4.56,0-.03,0-.13,0-.16,0-.48,0-.88.06-1.27.43-3.04,2.15-4,3.12-9.74,1.82-10.87,3.02-18.93,4.73-30.27,0-.05.02-.1.02-.15.34-2.25.7-4.62,1.09-7.17,1.41-9.37,6.14-21.16,11.12-34.13.02-.05.03-.1.05-.15.26-.69.53-1.38.8-2.08.51-1.34,1.58-11.46,2-16.79.51-6.66,5.35-67.63,8.65-76.83,2.47-6.87,4.86-9.61,7.16-10.52v-.02Z"/>
  </g>
</svg>