<?xml version="1.0" encoding="UTF-8"?>
<svg id="_레이어_2" data-name="레이어 2" xmlns="http://www.w3.org/2000/svg" viewBox="0 0 212.64 571.25">
  <defs>
    <style>
      .cls-1 {
        fill: #f3a9aa;
        stroke: #231815;
        stroke-miterlimit: 10;
      }
    </style>
  </defs>
  <g id="_레이어_1-2" data-name="레이어 1">
    <path class="cls-1" d="m212.12,325.57c-.22,5.44-1.57,8.04-4.07,10.68-1.28,1.36-2.55,3.05-4.55,4.88-2.85,2.6-3.24,2.72-4.4,1.26-1.52-1.9.41-4.5-.28-9.2-.95-6.46-2.48-8.26-2.97-16.16-.08-1.19-.82,5.28-3.33,7.64-1.99,1.88-5.34,1.75-4.8.8,5.07-8.88.62-14.58,2.83-21.39.7-2.2,2.67-5.7,2.58-7.34-.01-.14-.04-.3-.06-.44-.37-3.77-2.69-8.43-5.93-14.27-4.44-8-6.98-12.92-13.26-27.22-.41-.93-.82-1.89-1.26-2.9-7.82-17.97-9.13-33.87-9.44-35.78-.14-.86-.35-1.82-.57-2.82-1.02-4.46-2.86-10.14-4.86-16.18-2.01-6.05-4.18-12.43-5.9-18.29-.54-1.85-1.87-7.31-2.41-9.58-.16.51-.3,1.04-.45,1.55.99,5.41,4.35,39.04,7.35,57.47,1.34,8.2.4,20.63-.65,31.41,2.89,8.49,6.18,19.62,6.3,36.31v.3c.02,4.19-.15,8.72-.57,13.66-1.09,12.51-9.12,39.22-12.11,51.98-6.67,28.37-10.44,45.39-10.94,55.39-.63,12.91.83,16.95,2.13,24.77,2.53,15.2.68,28.35-2.32,40.39-5.56,22.26-11.39,32.17-11.98,43.86-.15,2.91,1.67,4.13.67,7.82-.52,1.92-1.41,3.76-.07,8.03,4.53,14.47,10.43,18.27,9.74,23.55-.78,5.86-17.15,5.49-23.55,4.17-5.28-1.09-5.21-10.05-3.69-20.33.31-2.08.46-4.4.35-7.95-.06-1.75-.45-3.8-.66-6.28-.19-2.28.37-4.69.66-6.59.23-1.45.46-2.61.5-3.22,1.41-22.36.97-27.73-1.37-48.76-2.36-21.25.96-25.06.54-38.05-.25-7.7-2.19-15.57-2.72-23.9-.65-10.46.25-20.34,1.17-27.78,2.55-20.56,2.53-23.87,3.35-40.12.89-17.65-3.8-26.29-1.13-41.51-.62.26-2.14.39-3.66.37-1.51-.01-3.03-.11-3.66-.37,2.68,15.22-2.02,23.86-1.13,41.51.82,16.25.8,19.57,3.35,40.12.92,7.44,1.82,17.32,1.17,27.78-.52,8.33-2.47,16.2-2.72,23.9-.41,12.99,2.9,16.81.54,38.05-2.35,21.03-2.79,26.39-1.37,48.76.04.61.28,1.77.5,3.22.3,1.9.85,4.31.66,6.59-.21,2.48-.6,4.53-.66,6.28-.12,3.56.04,5.88.35,7.95,1.52,10.27,1.59,19.24-3.69,20.33-6.41,1.32-22.77,1.69-23.55-4.17-.69-5.29,5.21-9.08,9.74-23.55,1.34-4.28.45-6.12-.07-8.03-1-3.7.82-4.92.67-7.82-.59-11.69-6.42-21.6-11.98-43.86-3-12.04-4.85-25.19-2.32-40.39,1.3-7.82,2.77-11.86,2.12-24.77-.48-10-4.26-27.02-10.93-55.39-2.99-12.76-11.03-39.47-12.11-51.98-.43-4.94-.59-9.47-.57-13.66v-.3c.13-16.69,3.41-27.81,6.3-36.32-1.05-10.78-2-23.19-.65-31.4,3-18.43,6.36-52.06,7.35-57.47-.16-.51-.3-1.04-.45-1.55-.54,2.28-1.87,7.73-2.41,9.58-1.72,5.86-3.89,12.24-5.9,18.29-2.01,6.04-3.84,11.72-4.86,16.18-.23,1-.43,1.96-.57,2.82-.31,1.91-1.61,17.81-9.44,35.78-.44,1.01-.86,1.97-1.26,2.9-6.28,14.3-8.82,19.22-13.26,27.22-3.24,5.84-5.56,10.5-5.93,14.27-.02.14-.05.3-.06.44-.09,1.65,1.88,5.15,2.58,7.34,2.2,6.81-2.24,12.5,2.83,21.39.54.95-2.82,1.08-4.8-.8-2.51-2.37-3.25-8.83-3.33-7.64-.49,7.89-2.03,9.7-2.97,16.16-.69,4.71,1.24,7.31-.28,9.2-1.16,1.46-1.55,1.34-4.4-1.26-2.01-1.83-3.27-3.52-4.55-4.88-2.5-2.64-3.85-5.25-4.07-10.68-.17-4.12.5-7.24,2.2-13.21.75-2.64,1.58-4.11,2.67-11.49.34-2.28.35-3.6.35-4.57,0-.55,0-.99.06-1.43.41-3.05,2.15-4.01,3.12-9.75,1.82-10.88,3.02-18.96,4.73-30.31.35-2.3.71-4.72,1.11-7.33,1.41-9.38,6.14-21.19,11.12-34.17.28-.74.56-1.48.85-2.23.5-1.34,1.58-11.47,2-16.81.51-6.67,5.35-67.71,8.65-76.92,2.47-6.88,4.86-9.62,7.16-10.53v-.02s1.86-.89,2.99-1.3c3.37-1.21,7.6-1.84,12.07-2.55,3.65-.67,14.17-1.41,17.7-2.8,5.27-2.05,9.61-4.61,12.23-11,1.1-2.7,1.54-10.2,1.72-15.33-2.5-2.35-4.45-5.38-5.66-10.4-.22-.9-.47-1.98-.73-3.12-2.75.98-3.46-3.3-3.97-4.54-.56-1.37-1.3-1.5-2.04-4.5-.5-2.01.36-3.32,0-4.61-.25-.87-.36-3.32.74-4.16.12-.09.26-.14.41-.19-1.63-6.26-2.67-16.49.73-24.32,1.46-3.39,3.28-6.13,5.19-8.28,4.5-5.58,11.95-9.21,20.38-9.21s15.88,3.64,20.38,9.21c1.91,2.16,3.72,4.9,5.19,8.28,3.4,7.83,2.36,18.07.73,24.32.16.05.3.1.41.19,1.1.84.99,3.29.74,4.16-.35,1.29.51,2.6,0,4.61-.74,3-1.48,3.13-2.04,4.5-.51,1.24-1.23,5.52-3.97,4.54-.26,1.14-.51,2.22-.73,3.12-1.22,5.03-3.16,8.05-5.66,10.4.18,5.13.62,12.63,1.72,15.33,2.62,6.4,6.97,8.95,12.23,11,3.54,1.39,14.06,2.13,17.7,2.8,4.48.71,8.7,1.34,12.07,2.55,1.14.41,2.99,1.3,2.99,1.3v.02c2.3.91,4.69,3.66,7.16,10.53,3.31,9.2,8.14,70.25,8.66,76.92.41,5.34,1.49,15.47,2,16.81.29.75.57,1.49.85,2.23,4.98,12.98,9.7,24.78,11.12,34.17.4,2.61.76,5.03,1.11,7.33,1.71,11.35,2.91,19.43,4.73,30.31.97,5.75,2.71,6.71,3.12,9.75.06.44.06.88.06,1.43,0,.97.01,2.29.35,4.57,1.09,7.38,1.92,8.85,2.67,11.49,1.7,5.98,2.37,9.09,2.2,13.21Z"/>
  </g>
</svg>