<?xml version="1.0" encoding="UTF-8"?>
<svg id="_레이어_2" data-name="레이어 2" xmlns="http://www.w3.org/2000/svg" viewBox="0 0 212.64 571.25">
  <defs>
    <style>
      .cls-1 {
        fill: #f3a9aa;
        stroke: #231815;
        stroke-miterlimit: 10;
      }
    </style>
  </defs>
  <g id="_레이어_1-2" data-name="레이어 1">
    <path class="cls-1" d="m212.12,325.63c-.22,5.43-1.57,8.04-4.07,10.68-1.28,1.36-2.55,3.05-4.55,4.88-2.85,2.59-3.24,2.72-4.4,1.26-1.52-1.9.42-4.5-.28-9.2-.95-6.45-2.48-8.26-2.97-16.15-.08-1.19-.82,5.28-3.33,7.64-1.99,1.88-5.35,1.75-4.8.8,5.07-8.88.62-14.58,2.83-21.39.7-2.19,2.67-5.69,2.58-7.33-.01-.14-.04-.3-.06-.44,0-.05-.02-.1-.02-.15-.41-3.75-2.71-8.35-5.91-14.12-4.44-8-6.98-12.92-13.26-27.21l-.06-.15c-.39-.88-.79-1.79-1.21-2.75-7.82-17.96-9.13-33.86-9.44-35.77-.14-.87-.35-1.82-.57-2.82,0-.05-.02-.1-.04-.15-2.06-8.91-7.31-22.66-10.72-34.31-.54-1.85-1.87-7.3-2.41-9.58-4,12.89-11.51,32.36-5.57,44.04h-.04s.03.1.04.15c1.36,5.56,2.51,11.43,4.65,19.82,3.53,13.87,2.9,12.06,5.47,21.51,3.12,9.09,7.83,21.11,7.99,41.18v.3c.02,4.19-.15,8.72-.57,13.66-1.09,12.51-9.12,39.21-12.11,51.97-6.67,28.36-10.44,45.38-10.94,55.38-.63,12.91.83,16.94,2.13,24.77,2.53,15.2.68,28.34-2.32,40.38-5.56,22.26-11.39,32.16-11.98,43.85-.15,2.91,1.67,4.13.67,7.82-.52,1.92-1.41,3.76-.07,8.03,4.53,14.47,10.43,18.26,9.74,23.55-.78,5.85-17.15,5.48-23.55,4.17-5.28-1.09-5.21-10.05-3.69-20.32.31-2.08.46-4.4.35-7.95-.06-1.75-.45-3.8-.66-6.27-.19-2.28.37-4.69.66-6.58.23-1.45.46-2.61.5-3.22,1.41-22.36.97-27.72-1.37-48.74-2.36-21.24.96-25.06.54-38.04-.25-7.7-2.19-15.57-2.72-23.9-.65-10.46.25-20.33,1.17-27.77,2.55-20.55,2.53-23.87,3.35-40.11.89-17.64-3.8-26.29-1.13-41.5-.62.26-2.14.39-3.66.37-1.51,0-3.03-.11-3.66-.37,2.68,15.22-2.02,23.86-1.13,41.5.82,16.24.8,19.56,3.35,40.11.92,7.44,1.82,17.31,1.17,27.77-.52,8.33-2.47,16.19-2.72,23.9-.41,12.99,2.9,16.8.54,38.04-2.35,21.02-2.79,26.38-1.37,48.74.04.61.28,1.77.5,3.22.3,1.9.85,4.31.66,6.58-.21,2.48-.6,4.53-.66,6.27-.12,3.56.04,5.87.35,7.95,1.52,10.27,1.59,19.23-3.69,20.32-6.41,1.32-22.77,1.69-23.55-4.17-.69-5.29,5.21-9.08,9.74-23.55,1.34-4.28.45-6.11-.07-8.03-1-3.7.82-4.92.67-7.82-.59-11.69-6.42-21.59-11.98-43.85-3-12.04-4.85-25.19-2.32-40.38,1.3-7.82,2.77-11.86,2.12-24.77-.48-10-4.26-27.01-10.93-55.38-2.99-12.76-11.03-39.46-12.11-51.97-.42-4.94-.59-9.47-.57-13.66v-.3c.16-20.07,4.86-32.09,7.99-41.18,2.57-9.45,1.95-7.64,5.47-21.51,2.14-8.39,3.29-14.26,4.65-19.82,0-.05.02-.1.04-.15h-.04c5.94-11.68-1.57-31.15-5.57-44.04-.54,2.28-1.87,7.73-2.41,9.58-3.41,11.65-8.66,25.4-10.72,34.31-.02.05-.03.1-.04.15-.23,1-.43,1.95-.57,2.82-.31,1.91-1.61,17.8-9.44,35.77-.41.96-.82,1.87-1.21,2.75l-.06.15c-6.28,14.3-8.82,19.21-13.26,27.21-3.2,5.76-5.49,10.37-5.91,14.12,0,.05-.02.1-.02.15-.02.14-.05.3-.06.44-.09,1.64,1.88,5.15,2.58,7.33,2.2,6.81-2.24,12.51,2.83,21.39.54.95-2.82,1.08-4.8-.8-2.51-2.37-3.25-8.83-3.33-7.64-.49,7.89-2.03,9.7-2.97,16.15-.69,4.71,1.25,7.3-.28,9.2-1.16,1.46-1.55,1.33-4.4-1.26-2.01-1.83-3.27-3.52-4.55-4.88-2.5-2.64-3.85-5.25-4.07-10.68-.17-4.12.5-7.23,2.2-13.21.75-2.64,1.58-4.11,2.67-11.49.34-2.28.35-3.6.35-4.57v-.15c0-.48,0-.89.06-1.28.41-3.05,2.15-4.01,3.12-9.75,1.82-10.88,3.02-18.95,4.73-30.3.01-.05.02-.1.02-.15.35-2.25.7-4.62,1.09-7.17,1.41-9.38,6.14-21.18,11.12-34.16.02-.05.03-.1.05-.15.27-.69.53-1.38.8-2.08.5-1.34,1.58-11.47,2-16.8.51-6.66,5.35-67.7,8.66-76.9,2.47-6.87,4.86-9.62,7.16-10.53v-.02s1.86-.89,2.99-1.3c3.37-1.21,7.6-1.84,12.07-2.55.3-.05.61-.1.92-.15,3.62-.67,13.24-1.41,16.79-2.8,5.27-2.05,9.61-4.61,12.23-11,1.1-2.7,1.54-10.2,1.72-15.33-2.5-2.35-4.45-5.38-5.66-10.4-.22-.9-.47-1.97-.73-3.12-2.75.98-3.46-3.3-3.97-4.54-.56-1.36-1.3-1.49-2.04-4.5-.5-2,.36-3.32,0-4.61-.25-.87-.36-3.32.74-4.16.12-.09.26-.14.41-.18-1.63-6.26-2.67-16.49.73-24.33,1.46-3.39,3.28-6.11,5.19-8.28,4.51-5.56,11.95-9.21,20.38-9.21s15.88,3.65,20.38,9.21c1.91,2.17,3.72,4.9,5.19,8.28,3.4,7.83,2.36,18.06.73,24.33.16.04.3.09.41.18,1.1.84.99,3.29.74,4.16-.35,1.29.51,2.61,0,4.61-.74,3.01-1.48,3.14-2.04,4.5-.51,1.24-1.22,5.51-3.97,4.54-.26,1.15-.51,2.22-.73,3.12-1.22,5.03-3.16,8.05-5.66,10.4.18,5.13.62,12.63,1.72,15.33,2.62,6.39,6.97,8.95,12.23,11,3.55,1.39,13.17,2.13,16.79,2.8.31.05.62.1.92.15,4.48.71,8.7,1.34,12.07,2.55,1.14.41,2.99,1.3,2.99,1.3v.02c2.3.91,4.69,3.66,7.16,10.53,3.31,9.2,8.14,70.23,8.65,76.9.41,5.34,1.49,15.47,2,16.8.27.7.53,1.39.8,2.08.02.05.03.1.05.15,4.98,12.98,9.7,24.78,11.12,34.16.39,2.56.74,4.93,1.09,7.17,0,.05.01.1.02.15,1.71,11.35,2.91,19.42,4.73,30.3.97,5.74,2.71,6.7,3.12,9.75.06.39.06.8.06,1.28v.15c0,.97.01,2.29.35,4.57,1.09,7.38,1.92,8.85,2.67,11.49,1.7,5.97,2.37,9.09,2.2,13.21Z"/>
  </g>
</svg>