<?xml version="1.0" encoding="UTF-8"?>
<svg id="_레이어_2" data-name="레이어 2" xmlns="http://www.w3.org/2000/svg" viewBox="0 0 212.64 571.25">
  <defs>
    <style>
      .cls-1 {
        fill: #f3a9aa;
        stroke: #231815;
        stroke-miterlimit: 10;
      }
    </style>
  </defs>
  <g id="_레이어_1-2" data-name="레이어 1">
    <path class="cls-1" d="m44.54,106.84s1.86-.89,2.99-1.3c3.37-1.21,7.6-1.81,12.07-2.55.29-.05.6-.1.91-.15,3.78-.63,13.31-1.4,16.79-2.76,5.27-2.05,9.61-4.6,12.23-10.99,1.1-2.7,1.54-10.2,1.72-15.32-2.5-2.35-4.45-5.37-5.66-10.4-.22-.9-.47-1.97-.73-3.12-2.75.98-3.46-3.3-3.97-4.53-.56-1.36-1.3-1.49-2.05-4.49-.5-2,.37-3.32.01-4.6-.24-.87-.36-3.32.74-4.15.12-.09.26-.14.42-.18-1.63-6.26-2.67-16.48.73-24.31,1.46-3.39,3.28-6.11,5.19-8.28,4.51-5.56,11.95-9.21,20.38-9.21s15.88,3.64,20.38,9.21c1.91,2.16,3.72,4.89,5.19,8.28,3.4,7.83,2.36,18.05.73,24.31.16.04.3.09.42.18,1.1.84.98,3.28.74,4.15-.36,1.29.51,2.6,0,4.6-.75,3-1.48,3.13-2.04,4.49-.51,1.24-1.23,5.51-3.97,4.53-.26,1.15-.51,2.22-.73,3.12-1.22,5.02-3.16,8.05-5.66,10.4.18,5.12.62,12.62,1.72,15.32,2.62,6.39,6.97,8.95,12.23,10.99,3.48,1.36,13.02,2.13,16.79,2.76.31.05.62.1.91.15,4.47.74,8.7,1.34,12.07,2.55,1.14.41,2.99,1.3,2.99,1.3v.02c2.3.91,4.69,3.65,7.16,10.53,3.31,9.2,8.14,70.2,8.66,76.86.41,5.33,1.49,15.46,2,16.8.27.71.54,1.41.81,2.11.02.05.03.1.05.16,5.02,12.94,9.69,24.73,11.1,34.1.39,2.57.75,4.95,1.09,7.21,0,.05.01.1.02.15,1.71,11.32,2.91,19.38,4.73,30.25.97,5.74,2.69,6.7,3.12,9.75.06.4.06.82.06,1.32,0,.24,0,.68.09,1.25.07,1.18.14,2.53.45,4.54,1,6.46,1.77,7.89,2.48,10.37,1.7,5.97,2.37,9.09,2.2,13.2-.22,5.43-1.57,8.04-4.07,10.68-1.28,1.36-2.55,3.05-4.55,4.87-2.85,2.59-3.24,2.71-4.4,1.26-1.52-1.9.41-4.49-.28-9.2-.95-6.45-2.48-8.26-2.97-16.15-.08-1.19-.82,5.27-3.33,7.64-1.99,1.88-5.34,1.75-4.8.8,5.07-8.88.62-14.57,2.83-21.38.7-2.19,2.68-5.69,2.58-7.33,0-.14-.04-.3-.06-.44,0-.05-.02-.09-.02-.14-.41-3.74-2.71-8.35-5.91-14.12-4.44-8-6.98-12.91-13.26-27.2-.12-.27-.23-.55-.36-.84-.39-.89-.79-1.8-1.19-2.75-7.57-17.67-8.85-33.18-9.15-35.06-.14-.87-.36-1.82-.57-2.82-.01-.05-.02-.1-.04-.14-1.03-4.46-2.87-10.13-4.87-16.15-1.99-6-4.15-12.34-5.86-18.15-.54-1.85-1.87-7.3-2.41-9.58-.16.51-.31,1.02-.48,1.55-2.87,10.68-7.36,29.74-2.5,42.61,0,0-.03,0-.03.01.02.05.03.1.04.15.96,4.53,1.88,8.92,3.61,13.94.53,1.55,1.07,3.23,1.75,5.01,2.13,5.57,3.31,9.17,4.15,12.53.99,2.4,1.85,4.6,3.19,7.93.29.73.61,1.5.94,2.33,3.59,9.03,8.72,21.02,8.9,40.88.03,4.26-.16,8.9-.65,13.94-1.22,12.5-10.27,39.21-13.64,51.96-7.51,28.35-11.76,45.35-12.31,55.34-.71,12.9.94,16.95,2.4,24.76,2.86,15.2.77,28.33-2.62,40.36-6.26,22.26-12.83,32.15-13.5,43.83-.17,2.92,1.89,4.13.75,7.82-.58,1.92-1.58,3.75-.07,8.03,5.11,14.47,11.75,18.25,10.97,23.54-.87,5.85-19.31,5.49-26.53,4.16-5.94-1.08-5.86-10.05-4.15-20.3.35-2.08.52-4.39.4-7.95-.07-1.76-.51-3.8-.75-6.27-.22-2.28.42-4.68.75-6.59.26-1.44.52-2.6.56-3.21,1.7-22.34,1.1-27.71-1.54-48.72-2.67-21.24,1.07-25.05.6-38.04-.28-7.69-2.47-15.56-3.05-23.89-.74-10.45.28-20.32,1.31-27.75,2.87-20.54,2.85-23.86,3.77-40.1,1-17.63-4.3-26.27-1.27-41.48-.7.27-2.42.39-4.12.38-1.7-.01-3.42-.11-4.12-.38,3.02,15.21-2.27,23.86-1.26,41.48.92,16.25.91,19.56,3.76,40.1,1.04,7.43,2.06,17.31,1.31,27.75-.58,8.33-2.77,16.2-3.05,23.89-.46,12.99,3.27,16.8.6,38.04-2.64,21.01-3.06,26.37-1.53,48.72.04.61.31,1.77.56,3.21.34,1.91.96,4.31.74,6.59-.24,2.47-.68,4.51-.74,6.27-.13,3.56.04,5.87.38,7.95,1.71,10.26,1.79,19.22-4.15,20.3-7.21,1.33-25.66,1.69-26.53-4.16-.78-5.28,5.86-9.07,10.97-23.54,1.51-4.27.51-6.11-.07-8.03-1.14-3.68.92-4.9.75-7.82-.66-11.68-7.23-21.57-13.5-43.83-3.39-12.03-5.47-25.16-2.62-40.36,1.47-7.81,3.11-11.85,2.4-24.76-.55-10-4.8-26.99-12.31-55.34-3.38-12.75-12.42-39.45-13.64-51.96-.49-5.04-.68-9.68-.64-13.94.18-20.28,5.5-32.37,9.12-41.46,1.38-3.46,2.31-5.75,3.19-7.93,1-4.45,2.05-8.58,5-15.6,3.01-7.2,4.14-12.98,5.39-18.9,0-.05.02-.11.04-.16,0,0-.03,0-.03-.01,4.3-11.57,1.27-27.62-1.53-37.83-.17-.52-.33-1.05-.49-1.56-.46-.95-.94-1.67-1.39-2.33-.33,1.36-.81,3.33-1.24,5-.45,1.75-.91,3.47-1.23,4.52-1.35,4.54-2.96,9.36-4.52,14.06-1.97,5.9-3.87,11.6-5.14,16.33-.34,1.25-.64,2.44-.88,3.54-.02.05-.02.09-.03.14-.17.86-.37,1.81-.52,2.8-.41,2.79-1.84,17.02-8.63,33.34-.34.81-.68,1.62-1.03,2.42-.41.95-.82,1.86-1.2,2.73-.02.05-.04.09-.06.14-5.61,12.73-8.2,17.87-12.03,24.83-.4.73-.81,1.47-1.23,2.23-2.62,4.75-4.58,8.71-5.31,12.03-.03.15-.07.3-.1.45-.1.53-.15,1.07-.14,1.62,0,.05,0,.1,0,.14,0,.14-.02.29-.01.43.07,1.34,1.16,3.53,1.91,5.38.27.68.51,1.34.67,1.92,1.77,6.31-1.86,11.72,2.11,19.74.24.48.27.93.29,1.31.03.56-1.84.64-3.49-.28-.45-.25-.88-.58-1.25-.99-1.67-1.84-2.46-5.44-2.8-6.52-.19-.6-.28-.88-.31-.45-.49,7.21-1.87,9.25-2.8,14.9-.06.39-.12.78-.17,1.19-.5,3.98.85,6.41.11,8.21-.13.33-.3.61-.53.87-.99,1.13-1.48,1.01-3.7-.97-.22-.2-.45-.4-.69-.63-1.7-1.57-2.86-3.03-3.97-4.26-.18-.2-.37-.4-.55-.6-2.34-2.51-3.64-5.04-3.91-10.05-.01-.21-.02-.42-.03-.63-.14-3.97.51-7.04,2.12-12.73.04-.14.08-.27.12-.41.74-2.58,1.57-4.1,2.64-11.39.34-2.28.35-3.59.35-4.56,0-.01,0-.14,0-.15,0-.48,0-.88.06-1.27.43-3.04,2.15-4,3.12-9.75,1.82-10.87,3.02-18.94,4.73-30.29,0-.05.02-.1.02-.15.34-2.25.7-4.62,1.09-7.17,1.41-9.38,6.14-21.17,11.12-34.14.02-.05.03-.1.05-.15.27-.69.53-1.38.8-2.08.51-1.34,1.58-11.46,2-16.8.51-6.66,5.34-67.67,8.65-76.86,2.47-6.87,4.86-9.62,7.16-10.53v-.02Z"/>
  </g>
</svg>