<?xml version="1.0" encoding="UTF-8"?>
<svg id="_레이어_2" data-name="레이어 2" xmlns="http://www.w3.org/2000/svg" viewBox="0 0 212.64 571.25">
  <defs>
    <style>
      .cls-1 {
        fill: #f3a9aa;
        stroke: #231815;
        stroke-miterlimit: 10;
      }
    </style>
  </defs>
  <g id="_레이어_1-2" data-name="레이어 1">
    <path class="cls-1" d="m44.54,106.81s1.86-.89,2.99-1.3c3.37-1.21,7.6-1.8,12.07-2.55.28-.05.59-.1.91-.15,3.93-.63,13.38-1.38,16.8-2.72,5.27-2.05,9.61-4.6,12.23-11,1.1-2.7,1.54-10.2,1.72-15.32-2.5-2.35-4.45-5.37-5.66-10.4-.22-.9-.47-1.97-.73-3.12-2.75.98-3.46-3.3-3.97-4.53-.56-1.36-1.3-1.49-2.05-4.49-.5-2,.37-3.32,0-4.6-.24-.87-.36-3.32.74-4.15.12-.09.26-.14.42-.18-1.63-6.26-2.67-16.48.73-24.31,1.46-3.39,3.28-6.12,5.19-8.28,4.51-5.57,11.95-9.21,20.38-9.21s15.88,3.64,20.38,9.21c1.91,2.16,3.72,4.89,5.19,8.28,3.4,7.83,2.36,18.06.73,24.31.16.04.3.09.42.18,1.1.84.98,3.28.74,4.15-.36,1.29.51,2.6,0,4.6-.75,3-1.48,3.13-2.04,4.49-.51,1.24-1.23,5.51-3.97,4.53-.26,1.14-.51,2.22-.73,3.12-1.22,5.02-3.16,8.05-5.66,10.4.18,5.12.62,12.62,1.72,15.32,2.62,6.39,6.97,8.95,12.23,11,3.41,1.34,12.87,2.09,16.8,2.72.32.05.62.1.9.15,4.47.75,8.7,1.34,12.07,2.55,1.14.41,2.99,1.3,2.99,1.3v.02c2.3.91,4.69,3.66,7.16,10.53,3.31,9.2,8.14,70.21,8.65,76.87.41,5.33,1.49,15.46,2,16.8.27.72.55,1.44.83,2.15.02.05.04.11.06.16,5,12.93,9.67,24.7,11.08,34.06.39,2.58.75,4.97,1.1,7.25,0,.05.01.11.02.16,1.7,11.3,2.91,19.36,4.72,30.21.97,5.74,2.7,6.7,3.12,9.75.06.41.06.84.06,1.35,0,.48,0,1.22.17,2.36.13,1.39.26,2.78.55,4.52.91,5.54,1.63,6.94,2.29,9.25,1.7,5.97,2.37,9.09,2.2,13.2-.22,5.43-1.57,8.04-4.07,10.68-1.28,1.36-2.55,3.05-4.55,4.87-2.85,2.59-3.24,2.71-4.4,1.26-1.52-1.9.41-4.49-.28-9.2-.95-6.45-2.48-8.26-2.97-16.15-.08-1.19-.82,5.27-3.33,7.64-1.99,1.88-5.35,1.75-4.8.8,5.07-8.88.62-14.57,2.83-21.38.7-2.19,2.68-5.69,2.58-7.34,0-.14-.04-.3-.06-.44,0-.04-.01-.09-.02-.13-.41-3.75-2.71-8.36-5.91-14.13-4.44-8-6.98-12.91-13.26-27.2-.21-.49-.43-.99-.66-1.52-.39-.9-.79-1.81-1.18-2.74-7.31-17.38-8.56-32.52-8.86-34.38-.14-.86-.35-1.82-.57-2.82,0-.05-.02-.09-.03-.14-1.03-4.45-2.86-10.11-4.85-16.11-2-6.01-4.16-12.37-5.87-18.19-.54-1.85-1.87-7.3-2.41-9.58-.16.51-.31,1.03-.47,1.55-1.66,8.51-3.92,28.23.1,42.75,0,0-.02.01-.02.02.01.05.02.11.03.16.87,4.74,1.73,9.3,3.09,14.03.45,1.57.84,3.29,1.35,5.1,1.43,5.07,2.24,8.99,2.71,12.79.95,2.32,1.84,4.55,3.19,7.92.29.73.6,1.51.93,2.33,3.55,8.97,8.5,20.86,8.68,40.31.03,4.26-.16,8.9-.65,13.94-1.22,12.5-10.27,39.21-13.64,51.96-7.51,28.35-11.76,45.35-12.31,55.35-.71,12.9.94,16.95,2.4,24.76,2.86,15.2.77,28.33-2.62,40.37-6.26,22.26-12.83,32.15-13.5,43.83-.17,2.92,1.89,4.13.75,7.82-.58,1.92-1.58,3.76-.07,8.03,5.11,14.47,11.75,18.26,10.97,23.54-.87,5.85-19.31,5.49-26.53,4.16-5.94-1.08-5.86-10.05-4.15-20.3.35-2.08.52-4.39.4-7.95-.07-1.76-.51-3.8-.75-6.27-.22-2.28.42-4.68.75-6.59.26-1.44.52-2.6.56-3.21,1.7-22.34,1.1-27.71-1.54-48.73-2.67-21.24,1.07-25.05.6-38.04-.28-7.69-2.47-15.56-3.05-23.89-.74-10.45.28-20.32,1.31-27.75,2.87-20.54,2.85-23.86,3.77-40.11,1-17.63-4.3-26.28-1.27-41.48-.7.27-2.42.39-4.12.38s-3.42-.11-4.12-.38c3.02,15.21-2.27,23.86-1.26,41.48.92,16.25.91,19.56,3.76,40.11,1.04,7.43,2.06,17.31,1.31,27.75-.58,8.33-2.77,16.2-3.05,23.89-.46,12.99,3.27,16.8.6,38.04-2.64,21.01-3.06,26.37-1.53,48.73.04.61.31,1.77.56,3.21.34,1.91.96,4.31.74,6.59-.24,2.47-.68,4.51-.74,6.27-.13,3.56.04,5.87.38,7.95,1.71,10.26,1.79,19.22-4.15,20.3-7.21,1.33-25.66,1.69-26.53-4.16-.78-5.28,5.86-9.07,10.97-23.54,1.51-4.27.51-6.11-.07-8.03-1.14-3.69.92-4.9.75-7.82-.66-11.68-7.23-21.57-13.5-43.83-3.39-12.03-5.47-25.17-2.62-40.37,1.47-7.81,3.11-11.85,2.4-24.76-.55-10-4.8-26.99-12.31-55.35-3.38-12.75-12.42-39.46-13.64-51.96-.49-5.04-.68-9.68-.64-13.94.18-20.28,5.5-32.37,9.12-41.46,1.38-3.46,2.31-5.75,3.18-7.92.53-5.26,1.23-10.23,3.46-16.6,2.32-6.62,3.37-12.74,4.49-19.03,0-.06.02-.12.03-.17,0,0-.02-.02-.02-.03,3.56-13.22,2.16-29.79.52-37.85-.16-.52-.32-1.04-.48-1.56-.39-.27-.86-.16-1.31,0-.38,1.57-.87,3.54-1.25,4.98-.44,1.65-.9,3.29-1.27,4.49-1.38,4.55-2.98,9.34-4.53,13.99-1.98,5.94-3.86,11.64-5.04,16.28-.3,1.17-.57,2.28-.77,3.3-.01.04-.02.08-.03.13-.14.73-.3,1.67-.46,2.79-.53,3.76-2.14,17.58-8.77,33.19-.37.88-.74,1.74-1.11,2.58-.41.95-.81,1.85-1.2,2.72-.02.04-.04.09-.05.13-5.54,12.55-8.09,17.56-12.02,24.69-.41.74-.82,1.48-1.22,2.22-2.61,4.77-4.52,8.73-5.11,12.03-.03.15-.06.3-.09.45-.08.49-.07,1.03,0,1.6,0,.05,0,.09.01.14.01.13.01.28.04.41.23,1.46,1.33,3.62,1.98,5.34.25.68.46,1.33.61,1.93,1.49,6.2-1.98,11.62,2.19,19.64.24.47.07.83-.21,1.1-.33.33-2.07.28-3.52-.68-.42-.28-.82-.64-1.16-1.08-1.71-2.16-2.41-6.09-2.65-6.48-.14-.23-.21-.26-.24.18-.52,7.04-1.91,9.06-2.83,14.84-.06.4-.12.8-.16,1.19-.42,3.97.98,6.36.02,8.14-.17.32-.36.6-.58.82-.92.93-1.48.69-3.7-1.31-.22-.2-.45-.41-.68-.63-1.67-1.57-2.82-3.04-3.94-4.26-.19-.2-.37-.4-.54-.59-2.28-2.49-3.54-5.05-3.79-10.06-.01-.21-.02-.42-.03-.63-.12-3.92.54-7,2.15-12.68.04-.13.08-.26.11-.4.74-2.53,1.55-4.1,2.61-11.3.34-2.28.35-3.6.35-4.56,0-.03,0-.13,0-.16,0-.48,0-.88.06-1.27.43-3.04,2.15-4,3.12-9.75,1.82-10.88,3.02-18.94,4.73-30.29,0-.05.02-.1.02-.15.34-2.25.7-4.62,1.09-7.17,1.41-9.38,6.14-21.17,11.12-34.14.02-.05.03-.1.05-.15.26-.69.53-1.38.8-2.08.51-1.34,1.58-11.46,2-16.8.51-6.66,5.35-67.67,8.65-76.87,2.47-6.87,4.86-9.62,7.16-10.53v-.02Z"/>
  </g>
</svg>