<?xml version="1.0" encoding="UTF-8"?>
<svg id="_레이어_2" data-name="레이어 2" xmlns="http://www.w3.org/2000/svg" viewBox="0 0 212.64 571.1">
  <defs>
    <style>
      .cls-1 {
        fill: #f3a9aa;
        stroke: #231815;
        stroke-miterlimit: 10;
      }
    </style>
  </defs>
  <g id="_레이어_1-2" data-name="레이어 1">
    <path class="cls-1" d="m212.12,325.3c-.22,5.43-1.57,8.03-4.07,10.67-1.28,1.36-2.55,3.04-4.56,4.87-2.85,2.58-3.24,2.71-4.4,1.26-1.52-1.9.41-4.49-.28-9.19-.95-6.45-2.48-8.25-2.97-16.14-.08-1.19-.82,5.27-3.33,7.63-1.99,1.88-5.34,1.75-4.8.8,5.07-8.87.62-14.56,2.83-21.37.7-2.19,2.67-5.69,2.58-7.33,0-.14-.04-.3-.06-.44,0-.05-.02-.1-.02-.15-.42-3.74-2.71-8.34-5.91-14.1-4.44-7.99-6.98-12.9-13.26-27.19-.02-.05-.04-.1-.06-.15-.39-.88-.79-1.79-1.21-2.74-7.82-17.94-9.13-33.82-9.44-35.73-.14-.87-.35-1.82-.57-2.81-.01-.05-.02-.1-.04-.15-2.06-8.9-7.31-22.64-10.72-34.27-.54-1.85-1.87-7.3-2.41-9.57-4,12.87-11.51,32.33-5.57,43.99h-.04s.03.1.04.15c1.36,5.56,3.16,10.96,6.91,18.63,5.82,11.92,7.57,12.49,12.06,22.66.02.05.04.09.06.15,3.71,9.09,9.42,21.11,9.63,41.29v.15c.04,4.26-.16,8.89-.67,13.93-1.29,12.5-10.85,39.18-14.41,51.93-7.93,28.32-12.42,45.32-13,55.31-.75,12.89.99,16.94,2.54,24.74,3,15.19.81,28.31-2.77,40.34-6.62,22.24-13.56,32.13-14.26,43.8-.18,2.91,2,4.13.8,7.81-.62,1.92-1.68,3.75-.08,8.02,5.39,14.46,12.41,18.24,11.58,23.52-.92,5.85-20.39,5.48-28.01,4.16-6.27-1.08-6.19-10.04-4.39-20.3.37-2.07.55-4.39.41-7.93-.07-1.76-.54-3.8-.79-6.27-.23-2.28.43-4.68.79-6.59.27-1.45.54-2.6.59-3.2,1.69-22.35,1.17-27.7-1.62-48.7-2.83-21.22,1.13-25.03.63-38-.3-7.68-2.61-15.55-3.22-23.87-.78-10.45.29-20.31,1.38-27.74,3.02-20.53,3-23.84,3.98-40.08,1.06-17.61-4.53-26.26-1.34-41.46-.74.26-2.55.39-4.35.38-1.8-.02-3.61-.12-4.35-.38,3.19,15.2-2.4,23.84-1.34,41.46.98,16.24.96,19.55,3.98,40.08,1.1,7.43,2.17,17.29,1.39,27.74-.62,8.32-2.93,16.19-3.23,23.87-.49,12.97,3.46,16.79.64,38-2.79,21.01-3.31,26.36-1.63,48.7.05.6.33,1.76.59,3.2.37,1.91,1.02,4.31.79,6.59-.25,2.47-.71,4.51-.79,6.27-.14,3.54.05,5.87.41,7.93,1.81,10.26,1.9,19.22-4.38,20.3-7.63,1.32-27.1,1.69-28.02-4.16-.83-5.28,6.2-9.06,11.59-23.52,1.59-4.27.54-6.11-.08-8.02-1.2-3.68.97-4.9.8-7.81-.71-11.68-7.65-21.57-14.26-43.8-3.58-12.03-5.78-25.15-2.77-40.34,1.55-7.8,3.29-11.85,2.53-24.74-.58-9.99-5.07-26.99-12.99-55.31-3.57-12.74-13.12-39.43-14.41-51.93-.52-5.04-.72-9.67-.68-13.93v-.15c.23-20.18,5.92-32.2,9.63-41.29.02-.06.04-.1.06-.15,4.5-10.17,6.24-10.74,12.06-22.66,3.74-7.67,5.54-13.07,6.91-18.63.01-.05.02-.1.04-.15h-.04c5.94-11.67-1.57-31.12-5.57-43.99-.54,2.28-1.87,7.72-2.41,9.57-3.41,11.64-8.65,25.37-10.72,34.27-.02.05-.03.1-.04.15-.23,1-.44,1.95-.57,2.81-.31,1.91-1.61,17.78-9.44,35.73-.42.96-.82,1.87-1.21,2.74l-.06.15c-6.28,14.28-8.82,19.19-13.26,27.19-3.2,5.76-5.49,10.36-5.91,14.1,0,.05-.02.1-.02.15-.02.14-.05.3-.06.44-.09,1.64,1.88,5.14,2.58,7.33,2.2,6.81-2.24,12.5,2.83,21.37.54.95-2.82,1.08-4.8-.8-2.51-2.37-3.25-8.82-3.33-7.63-.49,7.88-2.03,9.69-2.97,16.14-.69,4.7,1.24,7.3-.28,9.19-1.16,1.46-1.55,1.33-4.4-1.26-2.01-1.83-3.27-3.51-4.55-4.87-2.5-2.63-3.85-5.24-4.07-10.67-.17-4.11.5-7.23,2.2-13.19.75-2.63,1.58-4.1,2.67-11.48.34-2.28.35-3.59.35-4.56v-.15c0-.48,0-.89.06-1.28.41-3.04,2.15-4,3.12-9.74,1.82-10.87,3.02-18.93,4.73-30.27,0-.05.02-.1.02-.15.35-2.25.7-4.61,1.09-7.17,1.41-9.37,6.14-21.16,11.12-34.12.02-.05.03-.1.05-.15.27-.69.53-1.38.8-2.08.5-1.34,1.58-11.46,2-16.79.51-6.66,5.35-67.63,8.65-76.82,2.47-6.87,4.86-9.61,7.16-10.52v-.02s1.86-.89,2.99-1.3c3.37-1.21,7.6-1.84,12.07-2.55.3-.05.61-.1.92-.15,3.62-.67,13.24-1.41,16.79-2.79,5.27-2.05,9.61-4.6,12.23-10.99,1.1-2.69,1.54-10.19,1.72-15.31-2.5-2.35-4.45-5.37-5.66-10.39-.22-.9-.47-1.97-.73-3.11-2.75.98-3.46-3.29-3.97-4.53-.56-1.36-1.3-1.49-2.05-4.49-.5-2,.36-3.31.01-4.6-.25-.87-.36-3.31.74-4.15.12-.09.26-.14.41-.18-1.63-6.26-2.67-16.48.73-24.3,1.46-3.38,3.28-6.11,5.19-8.27,4.5-5.56,11.95-9.2,20.38-9.2s15.88,3.64,20.38,9.2c1.91,2.17,3.72,4.89,5.19,8.27,3.4,7.82,2.36,18.04.73,24.3.16.04.3.09.41.18,1.1.84.99,3.28.74,4.15-.35,1.29.51,2.6,0,4.6-.74,3-1.48,3.13-2.04,4.49-.51,1.24-1.23,5.51-3.97,4.53-.26,1.15-.51,2.22-.73,3.11-1.22,5.02-3.16,8.04-5.66,10.39.18,5.12.62,12.61,1.72,15.31,2.62,6.39,6.97,8.94,12.23,10.99,3.55,1.39,13.17,2.13,16.79,2.79.31.05.62.1.92.15,4.48.71,8.7,1.34,12.07,2.55,1.14.41,2.99,1.3,2.99,1.3v.02c2.3.91,4.69,3.65,7.16,10.52,3.31,9.19,8.14,70.16,8.66,76.82.41,5.33,1.49,15.45,2,16.79.27.7.53,1.39.8,2.08.02.05.03.1.05.15,4.98,12.96,9.7,24.75,11.12,34.12.39,2.55.74,4.92,1.09,7.17,0,.05,0,.1.02.15,1.71,11.34,2.91,19.4,4.73,30.27.97,5.74,2.71,6.7,3.12,9.74.06.39.06.8.06,1.28v.15c0,.97.01,2.29.35,4.56,1.09,7.38,1.92,8.84,2.67,11.48,1.7,5.97,2.37,9.08,2.2,13.19Z"/>
  </g>
</svg>