<?xml version="1.0" encoding="UTF-8"?>
<svg id="_레이어_2" data-name="레이어 2" xmlns="http://www.w3.org/2000/svg" viewBox="0 0 212.64 571.25">
  <defs>
    <style>
      .cls-1 {
        fill: #f3a9aa;
        stroke: #231815;
        stroke-miterlimit: 10;
      }
    </style>
  </defs>
  <g id="_레이어_1-2" data-name="레이어 1">
    <path class="cls-1" d="m44.54,106.79s1.86-.89,2.99-1.3c3.37-1.21,7.6-1.8,12.07-2.55.28-.05.59-.1.91-.15,3.93-.63,13.38-1.38,16.8-2.72,5.27-2.05,9.61-4.6,12.23-10.99,1.1-2.7,1.54-10.19,1.72-15.32-2.5-2.35-4.45-5.37-5.66-10.39-.22-.9-.47-1.97-.73-3.12-2.75.98-3.46-3.29-3.97-4.53-.56-1.36-1.3-1.49-2.05-4.49-.5-2,.37-3.32.01-4.6-.24-.87-.36-3.31.74-4.15.12-.09.26-.14.41-.18-1.63-6.26-2.67-16.48.73-24.31,1.46-3.38,3.28-6.12,5.19-8.28,4.51-5.57,11.95-9.21,20.38-9.21s15.88,3.64,20.38,9.21c1.91,2.16,3.72,4.89,5.19,8.28,3.4,7.83,2.36,18.05.73,24.31.16.04.3.09.41.18,1.1.84.98,3.28.74,4.15-.36,1.29.51,2.6,0,4.6-.75,3-1.48,3.13-2.04,4.49-.51,1.24-1.23,5.51-3.97,4.53-.26,1.14-.51,2.22-.73,3.12-1.22,5.02-3.16,8.05-5.66,10.39.18,5.12.62,12.62,1.72,15.32,2.62,6.39,6.97,8.95,12.23,10.99,3.41,1.34,12.87,2.09,16.8,2.72.32.05.62.1.9.15,4.47.75,8.7,1.34,12.07,2.55,1.14.41,2.99,1.3,2.99,1.3v.02c2.3.91,4.69,3.65,7.16,10.52,3.31,9.2,8.14,70.19,8.65,76.85.42,5.33,1.49,15.46,2,16.79.27.72.55,1.44.82,2.15.02.05.04.11.06.16,5,12.92,9.67,24.7,11.08,34.05.39,2.58.75,4.97,1.1,7.24,0,.05.01.11.02.16,1.7,11.3,2.91,19.35,4.72,30.2.97,5.74,2.7,6.7,3.12,9.74.06.41.06.84.06,1.35,0,.48,0,1.22.17,2.36.13,1.39.26,2.78.55,4.52.91,5.54,1.63,6.93,2.29,9.25,1.7,5.97,2.37,9.09,2.2,13.2-.22,5.43-1.57,8.04-4.07,10.67-1.28,1.36-2.55,3.05-4.55,4.87-2.85,2.59-3.24,2.71-4.4,1.26-1.52-1.9.41-4.49-.28-9.2-.95-6.45-2.48-8.26-2.97-16.14-.08-1.19-.82,5.27-3.33,7.64-1.99,1.88-5.35,1.75-4.8.8,5.07-8.88.62-14.57,2.83-21.37.7-2.19,2.68-5.69,2.58-7.33,0-.14-.04-.3-.06-.44,0-.04-.01-.09-.02-.13-.41-3.74-2.71-8.36-5.91-14.13-4.44-8-7.01-12.89-13.26-27.2-.21-.49-.43-.99-.66-1.52-.39-.9-.79-1.81-1.18-2.75-7.31-17.38-8.56-32.51-8.86-34.37-.14-.86-.35-1.82-.57-2.82,0-.05-.02-.09-.03-.14-1.03-4.45-2.86-10.11-4.85-16.11-2-6.01-4.16-12.37-5.87-18.19-.54-1.85-1.87-7.3-2.41-9.57-.16.51-.31,1.03-.47,1.55-1.66,8.51-3.92,28.23.1,42.76,0,0-.02.01-.02.02.01.05.02.11.03.16.86,4.72,1.9,9.23,3.32,13.9.49,1.6.91,3.34,1.43,5.19.96,3.45,1.73,6.41,2.3,9.22,2.27,3.89,3.97,6.48,6.71,12.67.02.05.04.09.06.15,3.71,9.1,9.42,21.12,9.63,41.3v.15c.04,4.26-.16,8.9-.67,13.94-1.29,12.5-10.85,39.2-14.41,51.95-7.93,28.34-12.42,45.34-13,55.33-.75,12.9.99,16.94,2.54,24.75,3,15.2.81,28.33-2.77,40.36-6.62,22.24-13.56,32.14-14.26,43.82-.18,2.92,2,4.13.8,7.82-.62,1.92-1.68,3.75-.08,8.03,5.39,14.47,12.41,18.25,11.58,23.53-.92,5.85-20.39,5.48-28.01,4.16-6.27-1.08-6.19-10.04-4.39-20.31.37-2.07.55-4.39.41-7.94-.07-1.76-.54-3.8-.79-6.27-.23-2.28.43-4.68.79-6.59.27-1.45.55-2.61.59-3.2,1.77-22.35,1.17-27.71-1.62-48.72-2.83-21.23,1.13-25.04.63-38.02-.3-7.69-2.61-15.56-3.22-23.88-.78-10.45.29-20.32,1.38-27.75,3.02-20.54,3-23.85,3.98-40.1,1.06-17.62-4.53-26.27-1.34-41.47-.74.26-2.55.39-4.35.38s-3.61-.12-4.35-.38c3.19,15.21-2.4,23.85-1.34,41.47.98,16.24.96,19.56,3.98,40.1,1.1,7.43,2.17,17.29,1.39,27.75-.62,8.33-2.93,16.19-3.23,23.88-.49,12.98,3.46,16.79.64,38.02-2.79,21.02-3.39,26.37-1.63,48.72.05.6.32,1.76.59,3.2.36,1.91,1.02,4.31.79,6.59-.25,2.47-.72,4.51-.79,6.27-.15,3.54.05,5.87.41,7.94,1.81,10.26,1.9,19.23-4.38,20.31-7.63,1.32-27.1,1.69-28.02-4.16-.83-5.28,6.2-9.07,11.59-23.53,1.59-4.27.54-6.11-.08-8.03-1.2-3.68.97-4.9.8-7.82-.71-11.68-7.65-21.58-14.26-43.82-3.58-12.03-5.78-25.16-2.77-40.36,1.55-7.81,3.29-11.85,2.53-24.75-.58-9.99-5.07-27-12.99-55.33-3.57-12.75-13.12-39.45-14.41-51.95-.52-5.04-.72-9.67-.68-13.94v-.15c.23-20.19,5.92-32.21,9.63-41.3.02-.06.04-.1.06-.15,2.44-5.52,4.07-8.21,5.98-11.42.69-4.16,1.62-8.35,3.3-13.16,2.3-6.59,3.68-12.7,4.81-19,0-.06.02-.12.03-.17,0,0-.02-.02-.02-.03,3.56-13.2,2.16-29.72.52-37.77-.16-.52-.32-1.04-.48-1.56-.4-.28-.87-.16-1.32,0-.38,1.55-.86,3.49-1.24,4.91-.45,1.67-.91,3.33-1.29,4.55-1.37,4.53-2.97,9.3-4.51,13.93-1.98,5.94-3.86,11.64-5.05,16.28-.3,1.18-.57,2.3-.78,3.32-.01.04-.02.08-.03.13-.14.73-.3,1.67-.46,2.79-.53,3.76-2.14,17.57-8.77,33.18-.37.88-.74,1.74-1.11,2.58-.41.95-.81,1.85-1.2,2.72-.02.04-.04.09-.05.13-5.54,12.54-8.09,17.56-12.02,24.68-.41.74-.82,1.48-1.22,2.22-2.61,4.77-4.52,8.73-5.11,12.03-.03.15-.06.3-.09.45-.08.49-.07,1.03,0,1.6,0,.05,0,.09.01.14.01.13.01.28.04.41.23,1.46,1.33,3.61,1.98,5.34.25.67.46,1.33.61,1.93,1.49,6.2-1.98,11.61,2.19,19.63.24.47.07.83-.21,1.1-.33.33-2.07.28-3.52-.68-.42-.28-.82-.64-1.16-1.08-1.71-2.16-2.41-6.09-2.65-6.48-.14-.23-.21-.26-.24.18-.52,7.04-1.91,9.05-2.83,14.83-.06.4-.12.8-.16,1.19-.42,3.97.98,6.36.02,8.14-.17.32-.36.6-.58.82-.92.93-1.48.69-3.7-1.31-.22-.2-.45-.41-.68-.63-1.67-1.57-2.82-3.03-3.94-4.25-.19-.2-.37-.4-.54-.59-2.28-2.49-3.54-5.05-3.79-10.06-.01-.21-.02-.42-.03-.63-.12-3.92.54-7,2.15-12.68.04-.13.08-.26.11-.4.74-2.53,1.55-4.09,2.61-11.3.34-2.28.35-3.59.35-4.56,0-.03,0-.13,0-.16,0-.48,0-.88.06-1.27.43-3.04,2.15-4,3.12-9.74,1.82-10.87,3.02-18.94,4.73-30.28,0-.05.02-.1.02-.15.34-2.25.7-4.62,1.09-7.17,1.41-9.38,6.14-21.17,11.12-34.14.02-.05.03-.1.05-.15.26-.69.53-1.38.8-2.08.51-1.34,1.58-11.46,2-16.79.51-6.66,5.35-67.65,8.65-76.85,2.47-6.87,4.86-9.61,7.16-10.52v-.02Z"/>
  </g>
</svg>