<?xml version="1.0" encoding="UTF-8"?>
<svg id="_레이어_2" data-name="레이어 2" xmlns="http://www.w3.org/2000/svg" viewBox="0 0 212.64 571.25">
  <defs>
    <style>
      .cls-1 {
        fill: #f3a9aa;
        stroke: #231815;
        stroke-miterlimit: 10;
      }
    </style>
  </defs>
  <g id="_레이어_1-2" data-name="레이어 1">
    <path class="cls-1" d="m44.54,106.76s1.86-.89,2.99-1.3c3.37-1.21,7.6-1.79,12.07-2.55.27-.05.58-.1.9-.15,4.09-.63,13.45-1.37,16.8-2.69,5.27-2.05,9.61-4.6,12.23-10.99,1.1-2.7,1.54-10.19,1.72-15.32-2.5-2.35-4.45-5.37-5.66-10.39-.22-.9-.47-1.97-.73-3.12-2.75.98-3.46-3.29-3.97-4.53-.56-1.37-1.3-1.5-2.05-4.49-.5-2,.37-3.32.01-4.6-.24-.87-.36-3.31.74-4.15.12-.09.26-.14.41-.19-1.63-6.25-2.67-16.48.73-24.31,1.46-3.38,3.28-6.12,5.19-8.28,4.51-5.57,11.95-9.21,20.38-9.21s15.88,3.64,20.38,9.21c1.91,2.16,3.72,4.89,5.19,8.28,3.4,7.83,2.36,18.05.73,24.31.16.05.3.1.41.19,1.1.84.98,3.28.74,4.15-.36,1.29.51,2.6.01,4.6-.75,3-1.48,3.13-2.04,4.49-.51,1.24-1.23,5.51-3.97,4.53-.26,1.14-.51,2.22-.73,3.12-1.22,5.02-3.16,8.05-5.66,10.39.18,5.12.62,12.62,1.72,15.32,2.62,6.39,6.97,8.95,12.23,10.99,3.35,1.31,12.73,2.05,16.81,2.69.32.05.62.1.9.15,4.47.75,8.7,1.34,12.07,2.55,1.14.41,2.99,1.3,2.99,1.3v.02c2.3.91,4.69,3.65,7.16,10.52,3.31,9.2,8.14,70.19,8.65,76.85.42,5.33,1.49,15.46,2,16.79.28.74.56,1.46.84,2.19.02.06.04.11.06.17,4.96,12.92,9.66,24.67,11.07,34.01.39,2.59.76,5,1.1,7.28,0,.05.02.11.02.16,1.7,11.28,2.9,19.33,4.71,30.16.97,5.74,2.71,6.7,3.12,9.75.06.43.06.86.06,1.39,0,.73,0,1.75.26,3.46.2,1.6.39,3.02.65,4.49.82,4.62,1.49,5.98,2.1,8.13,1.7,5.97,2.37,9.09,2.2,13.2-.22,5.43-1.57,8.04-4.07,10.67-1.28,1.36-2.55,3.05-4.55,4.87-2.85,2.59-3.24,2.71-4.4,1.26-1.52-1.9.41-4.49-.28-9.2-.95-6.45-2.48-8.26-2.97-16.15-.08-1.19-.82,5.27-3.33,7.64-1.99,1.88-5.35,1.75-4.8.8,5.07-8.88.62-14.57,2.83-21.37.7-2.19,2.68-5.69,2.58-7.34,0-.14-.04-.3-.06-.44,0-.04-.01-.08-.01-.12-.4-3.74-2.71-8.37-5.91-14.14-4.44-8-6.98-12.91-13.26-27.2-.31-.71-.62-1.44-.96-2.21-.4-.91-.79-1.82-1.17-2.75-7.06-17.09-8.28-31.85-8.57-33.69-.14-.86-.35-1.82-.57-2.82,0-.04-.02-.09-.03-.13-1.03-4.44-2.85-10.09-4.84-16.08-2-6.03-4.17-12.39-5.89-18.23-.54-1.85-1.87-7.3-2.41-9.58-.16.51-.3,1.03-.46,1.55-.45,6.35-.49,26.73,2.69,42.91,0,.01,0,.02,0,.03.01.05.02.11.03.16.77,4.94,1.64,9.63,2.68,14.03.38,1.62.67,3.4.99,5.29.54,3.23.94,6.37,1.15,9.48,2.08,3.54,3.75,6.18,6.33,12.02.02.05.04.09.06.15,3.71,9.1,9.42,21.12,9.63,41.31v.15c.04,4.26-.16,8.9-.67,13.94-1.29,12.5-10.85,39.2-14.41,51.95-7.93,28.34-12.42,45.34-13,55.34-.75,12.9.99,16.94,2.54,24.75,3,15.2.81,28.33-2.77,40.36-6.62,22.25-13.56,32.14-14.26,43.82-.18,2.92,2,4.13.8,7.82-.62,1.92-1.68,3.75-.08,8.03,5.39,14.47,12.41,18.25,11.58,23.53-.92,5.85-20.39,5.48-28.01,4.16-6.27-1.08-6.19-10.04-4.39-20.31.37-2.07.55-4.39.41-7.94-.07-1.76-.54-3.8-.79-6.27-.23-2.28.43-4.68.79-6.59.27-1.45.55-2.61.59-3.21,1.77-22.35,1.17-27.71-1.62-48.73-2.83-21.23,1.13-25.04.63-38.02-.3-7.69-2.61-15.56-3.22-23.88-.78-10.45.29-20.32,1.38-27.75,3.02-20.54,3-23.85,3.98-40.1,1.06-17.62-4.53-26.27-1.34-41.48-.74.26-2.55.39-4.35.38-1.8-.01-3.61-.12-4.35-.38,3.19,15.21-2.4,23.85-1.34,41.48.98,16.25.96,19.56,3.98,40.1,1.1,7.43,2.17,17.29,1.39,27.75-.62,8.33-2.93,16.2-3.23,23.88-.49,12.98,3.46,16.79.64,38.02-2.79,21.02-3.39,26.38-1.63,48.73.05.6.32,1.76.59,3.21.36,1.91,1.02,4.31.79,6.59-.25,2.47-.72,4.51-.79,6.27-.15,3.54.05,5.87.41,7.94,1.81,10.26,1.9,19.23-4.38,20.31-7.63,1.32-27.1,1.69-28.02-4.16-.83-5.28,6.19-9.07,11.59-23.53,1.59-4.27.54-6.11-.08-8.03-1.2-3.68.97-4.9.8-7.82-.71-11.68-7.65-21.58-14.26-43.82-3.58-12.03-5.78-25.16-2.77-40.36,1.55-7.81,3.29-11.85,2.53-24.75-.58-9.99-5.07-27-12.99-55.34-3.57-12.75-13.12-39.45-14.41-51.95-.52-5.04-.72-9.68-.68-13.94v-.15c.23-20.19,5.92-32.21,9.63-41.31.02-.06.04-.1.06-.15,2.44-5.51,4.06-8.2,5.96-11.4.24-4.89.74-9.64,1.93-14.14,1.59-6.04,2.75-12.51,3.76-19.18,0-.06.02-.12.03-.19,0-.01,0-.03,0-.04,2.81-14.85,3.04-31.88,2.57-37.79-.16-.51-.31-1.04-.47-1.55-.33.41-.78,1.37-1.23,2.35-.43,1.76-.92,3.7-1.25,4.89-.44,1.57-.9,3.15-1.33,4.52-1.4,4.53-3,9.28-4.52,13.86-1.99,5.99-3.85,11.68-4.95,16.22-.26,1.09-.5,2.13-.68,3.07,0,.04-.01.07-.02.12-.1.59-.24,1.54-.41,2.78-.64,4.73-2.48,18.11-8.92,33.03-.41.94-.8,1.85-1.19,2.74-.41.94-.81,1.84-1.2,2.71-.02.04-.03.08-.05.12-5.47,12.36-7.99,17.25-12.02,24.54-.41.75-.82,1.49-1.22,2.22-2.61,4.79-4.46,8.75-4.91,12.04-.02.14-.06.3-.07.44-.05.45,0,.99.13,1.58,0,.04.02.09.03.13.03.13.05.27.08.4.41,1.59,1.49,3.7,2.06,5.3.23.67.41,1.32.54,1.94,1.22,6.09-2.1,11.51,2.28,19.52.25.45-.12.76-.71.89-.68.15-2.3-.08-3.56-1.08-.39-.31-.75-.7-1.07-1.16-1.73-2.49-2.33-6.75-2.5-6.44-.08.14-.14.36-.17.81-.55,6.87-1.94,8.86-2.85,14.77-.06.41-.11.81-.14,1.2-.33,3.96,1.11,6.31-.06,8.07-.22.32-.42.58-.64.77-.84.74-1.49.36-3.71-1.65-.23-.21-.45-.42-.68-.63-1.65-1.58-2.78-3.04-3.91-4.25-.19-.2-.37-.4-.54-.59-2.22-2.47-3.43-5.05-3.66-10.07,0-.21-.02-.42-.02-.63-.1-3.87.58-6.95,2.19-12.63.04-.13.07-.26.11-.38.73-2.47,1.54-4.09,2.59-11.2.34-2.28.35-3.59.35-4.56,0-.04,0-.12,0-.16,0-.47,0-.87.06-1.26.41-3.05,2.15-4,3.12-9.75,1.82-10.87,3.02-18.94,4.73-30.28,0-.05.02-.1.02-.14.34-2.25.7-4.62,1.09-7.18,1.41-9.38,6.17-21.15,11.12-34.14.02-.05.03-.1.05-.15.26-.69.53-1.38.8-2.08.51-1.34,1.58-11.46,2-16.79.51-6.66,5.34-67.66,8.65-76.85,2.47-6.87,4.86-9.62,7.16-10.52v-.02Z"/>
  </g>
</svg>