<?xml version="1.0" encoding="UTF-8"?>
<svg id="_레이어_2" data-name="레이어 2" xmlns="http://www.w3.org/2000/svg" viewBox="0 0 212.64 571.25">
  <defs>
    <style>
      .cls-1 {
        fill: #f3a9aa;
        stroke: #231815;
        stroke-miterlimit: 10;
      }
    </style>
  </defs>
  <g id="_레이어_1-2" data-name="레이어 1">
    <path class="cls-1" d="m44.54,106.73s1.86-.89,2.99-1.3c3.37-1.21,7.6-1.79,12.07-2.55.27-.05.58-.1.9-.15,4.09-.63,13.45-1.37,16.8-2.68,5.27-2.05,9.61-4.6,12.23-10.99,1.1-2.7,1.54-10.19,1.72-15.31-2.5-2.35-4.45-5.37-5.66-10.39-.22-.9-.47-1.97-.73-3.11-2.75.98-3.46-3.29-3.97-4.53-.56-1.37-1.3-1.49-2.05-4.49-.5-2,.37-3.32.01-4.6-.24-.87-.36-3.32.74-4.15.12-.09.26-.14.41-.19-1.63-6.25-2.67-16.47.73-24.3,1.46-3.38,3.28-6.12,5.19-8.28,4.51-5.57,11.95-9.2,20.38-9.2s15.88,3.64,20.38,9.2c1.91,2.16,3.72,4.89,5.19,8.28,3.4,7.83,2.36,18.05.73,24.3.16.05.3.1.42.19,1.1.84.98,3.28.74,4.15-.36,1.29.51,2.6,0,4.6-.75,3-1.48,3.13-2.04,4.49-.51,1.24-1.23,5.51-3.97,4.53-.26,1.14-.51,2.22-.73,3.11-1.22,5.02-3.16,8.05-5.66,10.39.18,5.12.62,12.62,1.72,15.31,2.62,6.39,6.97,8.94,12.23,10.99,3.35,1.31,12.73,2.05,16.81,2.69.32.05.62.1.89.15,4.47.75,8.7,1.34,12.07,2.55,1.14.41,2.99,1.3,2.99,1.3v.02c2.3.91,4.69,3.65,7.16,10.52,3.31,9.19,8.14,70.17,8.66,76.83.41,5.33,1.49,15.45,2,16.79.28.74.56,1.46.84,2.19.02.06.04.11.06.17,4.96,12.92,9.66,24.66,11.07,34,.39,2.59.76,5,1.1,7.28,0,.05.02.11.02.16,1.7,11.27,2.9,19.32,4.71,30.15.97,5.74,2.71,6.7,3.12,9.74.06.43.06.86.06,1.39,0,.73,0,1.75.26,3.46.2,1.6.39,3.02.65,4.49.82,4.62,1.49,5.98,2.1,8.13,1.7,5.97,2.37,9.08,2.2,13.2-.22,5.43-1.57,8.04-4.07,10.67-1.28,1.36-2.55,3.04-4.55,4.87-2.85,2.59-3.24,2.71-4.4,1.26-1.52-1.9.41-4.49-.28-9.19-.95-6.45-2.48-8.26-2.97-16.14-.08-1.19-.82,5.27-3.33,7.64-1.99,1.88-5.34,1.75-4.8.8,5.07-8.87.62-14.56,2.83-21.36.7-2.19,2.68-5.69,2.58-7.33,0-.14-.04-.3-.06-.44,0-.04-.01-.08-.01-.12-.4-3.74-2.71-8.37-5.91-14.13-4.44-8-6.98-12.91-13.26-27.19-.31-.71-.62-1.44-.96-2.21-.4-.91-.79-1.82-1.17-2.74-7.06-17.09-8.28-31.85-8.57-33.68-.14-.86-.35-1.82-.57-2.81,0-.04-.02-.09-.03-.13-1.03-4.44-2.85-10.09-4.84-16.08-2-6.02-4.17-12.39-5.88-18.22-.54-1.85-1.87-7.3-2.41-9.57-.16.51-.3,1.03-.46,1.55-.45,6.34-.49,26.69,2.69,42.86,0,.01,0,.02,0,.03.01.05.02.11.03.16.77,4.94,1.76,9.65,2.93,13.99.45,1.68.81,3.53,1.18,5.49.29,1.53.54,3.08.73,4.63,3.81,5.98,5.37,8.82,8.89,15.99.15.3.3.62.46.96.04.09.08.18.12.27,3.87,9.08,9.92,21.01,10.05,40.96,0,.1,0,.19.01.29.02,4.27-.17,8.89-.71,13.95-1.36,12.5-11.43,39.19-15.19,51.94-8.35,28.33-13.07,45.33-13.68,55.32-.8,12.9,1.04,16.94,2.67,24.75,3.17,15.18.86,28.32-2.91,40.35-6.97,22.24-14.27,32.13-15.01,43.81-.19,2.9,2.09,4.13.84,7.82-.65,1.92-1.77,3.75-.09,8.03,5.68,14.45,13.07,18.25,12.2,23.53-.97,5.85-21.48,5.48-29.5,4.16-6.61-1.09-6.52-10.04-4.61-20.3.39-2.07.58-4.39.43-7.95-.08-1.75-.57-3.79-.83-6.27-.24-2.28.45-4.67.83-6.58.29-1.45.57-2.61.62-3.2,1.78-22.35,1.22-27.71-1.71-48.71-2.96-21.22,1.2-25.04.67-38.01-.31-7.69-2.75-15.55-3.4-23.88-.82-10.45.32-20.31,1.46-27.74,3.18-20.53,3.17-23.85,4.2-40.09,1.12-17.63-4.77-26.26-1.42-41.47-.77.26-2.68.37-4.57.37s-3.8-.11-4.57-.37c3.36,15.2-2.53,23.84-1.42,41.47,1.04,16.24,1.02,19.56,4.2,40.09,1.16,7.43,2.28,17.29,1.46,27.74-.65,8.33-3.08,16.19-3.4,23.88-.52,12.98,3.64,16.79.67,38.01-2.93,21-3.49,26.36-1.71,48.71.05.6.34,1.76.62,3.2.38,1.91,1.07,4.3.83,6.58-.26,2.48-.75,4.52-.83,6.27-.15,3.55.05,5.88.43,7.95,1.91,10.26,2,19.22-4.61,20.3-8.02,1.32-28.53,1.69-29.5-4.16-.87-5.28,6.52-9.07,12.2-23.53,1.68-4.27.57-6.11-.09-8.03-1.26-3.68,1.03-4.91.85-7.82-.74-11.68-8.05-21.57-15.02-43.81-3.76-12.03-6.09-25.17-2.91-40.35,1.63-7.81,3.47-11.85,2.67-24.75-.61-9.99-5.34-26.99-13.68-55.32-3.75-12.75-13.82-39.44-15.18-51.94-.55-5.05-.74-9.67-.72-13.95,0-.1,0-.19,0-.29.13-20.1,6.36-32.02,10.14-41.16.04-.1.08-.19.13-.29,3.65-7.45,5.17-10.32,8.8-16.02.29-3.39.74-6.65,1.61-9.6,1.76-5.99,3.19-12.58,4.2-19.33,0-.06.02-.12.03-.19,0-.01,0-.03,0-.04,2.79-14.76,3.03-31.58,2.56-37.46-.16-.51-.31-1.04-.47-1.55-.35.42-.83,1.46-1.31,2.48-.41,1.67-.87,3.48-1.18,4.62-.46,1.65-.95,3.33-1.4,4.77-1.38,4.46-2.95,9.11-4.44,13.6-1.99,5.98-3.85,11.67-4.96,16.22-.27,1.11-.52,2.17-.69,3.13,0,.04-.01.07-.02.12-.1.59-.24,1.54-.41,2.78-.64,4.73-2.48,18.11-8.92,33.02-.41.94-.8,1.85-1.19,2.74-.41.94-.81,1.84-1.19,2.71-.02.04-.03.08-.05.12-5.47,12.35-7.99,17.25-12.02,24.53-.41.75-.82,1.49-1.22,2.22-2.6,4.79-4.46,8.75-4.91,12.03-.02.14-.06.3-.07.44-.05.45,0,.99.13,1.58,0,.04.02.09.03.13.03.13.05.27.08.4.41,1.58,1.49,3.7,2.06,5.3.23.67.41,1.32.54,1.94,1.22,6.09-2.1,11.5,2.28,19.52.25.45-.12.76-.71.89-.68.15-2.3-.08-3.56-1.08-.39-.31-.75-.7-1.07-1.16-1.73-2.49-2.33-6.75-2.5-6.43-.08.14-.14.36-.17.8-.55,6.87-1.94,8.86-2.85,14.77-.06.41-.11.81-.14,1.2-.33,3.96,1.11,6.31-.06,8.06-.21.32-.42.58-.64.77-.84.74-1.49.36-3.71-1.65-.23-.21-.45-.42-.68-.63-1.65-1.58-2.78-3.04-3.91-4.25-.19-.2-.37-.4-.54-.59-2.22-2.47-3.43-5.05-3.66-10.07,0-.21-.02-.42-.02-.63-.1-3.87.58-6.95,2.19-12.62.04-.13.07-.26.11-.38.73-2.47,1.54-4.09,2.59-11.2.34-2.28.35-3.59.35-4.56,0-.04,0-.12,0-.16,0-.47,0-.87.06-1.26.41-3.04,2.15-4,3.12-9.74,1.82-10.87,3.02-18.94,4.73-30.28,0-.05.02-.1.02-.14.34-2.25.7-4.62,1.09-7.17,1.41-9.37,6.14-21.16,11.12-34.13.02-.05.04-.1.05-.15.26-.69.53-1.38.8-2.08.51-1.34,1.58-11.46,2-16.79.51-6.66,5.35-67.64,8.66-76.83,2.47-6.87,4.86-9.61,7.16-10.52v-.02Z"/>
  </g>
</svg>