<?xml version="1.0" encoding="UTF-8"?>
<svg id="_레이어_2" data-name="레이어 2" xmlns="http://www.w3.org/2000/svg" viewBox="0 0 212.64 571.25">
  <defs>
    <style>
      .cls-1 {
        fill: #f3a9aa;
        stroke: #231815;
        stroke-miterlimit: 10;
      }
    </style>
  </defs>
  <g id="_레이어_1-2" data-name="레이어 1">
    <path class="cls-1" d="m212.12,325.23c-.22,5.43-1.57,8.04-4.07,10.67-1.28,1.36-2.55,3.04-4.55,4.87-2.85,2.6-3.24,2.72-4.4,1.26-1.52-1.9.41-4.49-.28-9.19-.95-6.45-2.48-8.26-2.97-16.14-.08-1.19-.82,5.27-3.33,7.64-1.99,1.88-5.34,1.75-4.8.8,5.07-8.87.62-14.57,2.83-21.36.7-2.2,2.67-5.69,2.58-7.34-.01-.14-.04-.3-.06-.44-.37-3.76-2.69-8.43-5.93-14.26-4.44-8-6.98-12.91-13.26-27.19-.41-.93-.82-1.89-1.26-2.9-7.82-17.95-9.13-33.83-9.44-35.74-.14-.86-.35-1.82-.57-2.82-1.02-4.45-2.86-10.13-4.86-16.16-2.01-6.04-4.18-12.42-5.9-18.27-.54-1.85-1.87-7.3-2.41-9.57-.16.51-.3,1.04-.45,1.55.99,5.4,4.35,39,7.35,57.41.49,3.02.68,6.62.66,10.49,3.61,5.69,5.16,8.55,8.77,16,.05.1.09.19.13.29,3.9,9.08,9.88,21.06,10.14,41.16,0,.1.01.19.01.29.04,4.27-.17,8.89-.71,13.95-1.36,12.5-11.43,39.19-15.19,51.94-8.35,28.33-13.07,45.33-13.68,55.33-.8,12.9,1.04,16.94,2.67,24.75,3.17,15.18.86,28.32-2.91,40.35-6.97,22.24-14.27,32.13-15.01,43.81-.19,2.91,2.09,4.13.84,7.82-.65,1.92-1.77,3.75-.09,8.03,5.68,14.46,13.07,18.25,12.2,23.53-.97,5.85-21.48,5.48-29.5,4.16-6.61-1.09-6.52-10.04-4.61-20.31.38-2.07.58-4.39.43-7.95-.08-1.75-.57-3.79-.83-6.27-.24-2.28.45-4.67.83-6.58.29-1.45.57-2.61.62-3.2,1.78-22.35,1.22-27.71-1.71-48.72-2.96-21.22,1.2-25.04.67-38.01-.31-7.69-2.75-15.55-3.4-23.88-.82-10.45.32-20.32,1.46-27.74,3.18-20.53,3.17-23.85,4.2-40.09,1.12-17.63-4.77-26.26-1.42-41.47-.77.26-2.68.38-4.57.37-1.89,0-3.8-.11-4.57-.37,3.36,15.2-2.53,23.84-1.42,41.47,1.04,16.24,1.02,19.56,4.2,40.09,1.16,7.43,2.28,17.29,1.46,27.74-.65,8.33-3.08,16.19-3.4,23.88-.52,12.98,3.64,16.79.67,38.01-2.93,21-3.49,26.36-1.71,48.72.05.6.34,1.76.62,3.2.38,1.91,1.08,4.3.83,6.58-.26,2.48-.75,4.52-.83,6.27-.15,3.55.05,5.88.43,7.95,1.91,10.26,2,19.22-4.61,20.31-8.02,1.32-28.53,1.69-29.5-4.16-.87-5.28,6.52-9.07,12.2-23.53,1.68-4.27.57-6.11-.09-8.03-1.26-3.68,1.03-4.91.85-7.82-.74-11.68-8.05-21.57-15.02-43.81-3.76-12.03-6.09-25.17-2.91-40.35,1.63-7.81,3.47-11.85,2.67-24.75-.61-9.99-5.34-26.99-13.68-55.33-3.75-12.75-13.82-39.44-15.18-51.94-.55-5.05-.76-9.67-.72-13.95,0-.1,0-.19,0-.29.26-20.1,6.23-32.08,10.14-41.16.04-.1.08-.19.13-.29,3.62-7.45,5.16-10.3,8.77-15.98-.02-3.88.17-7.49.66-10.51,3-18.41,6.36-52.01,7.35-57.41-.16-.51-.3-1.04-.45-1.55-.54,2.28-1.87,7.73-2.41,9.57-1.72,5.85-3.89,12.23-5.9,18.27-2.01,6.03-3.84,11.71-4.86,16.16-.23,1-.43,1.96-.57,2.82-.31,1.91-1.61,17.79-9.44,35.74-.44,1.01-.86,1.97-1.26,2.9-6.28,14.29-8.82,19.2-13.26,27.19-3.24,5.83-5.56,10.49-5.93,14.26-.02.14-.05.3-.06.44-.09,1.65,1.88,5.14,2.58,7.34,2.2,6.8-2.24,12.49,2.83,21.36.54.95-2.82,1.08-4.8-.8-2.51-2.37-3.25-8.82-3.33-7.64-.49,7.89-2.03,9.69-2.97,16.14-.69,4.7,1.25,7.3-.28,9.19-1.16,1.46-1.55,1.34-4.4-1.26-2.01-1.83-3.27-3.51-4.55-4.87-2.5-2.64-3.85-5.24-4.07-10.67-.17-4.11.5-7.23,2.2-13.2.75-2.64,1.58-4.1,2.67-11.48.34-2.28.35-3.59.35-4.56,0-.55,0-.99.06-1.43.41-3.04,2.15-4,3.12-9.74,1.82-10.87,3.02-18.94,4.73-30.28.35-2.3.71-4.71,1.11-7.32,1.41-9.37,6.14-21.16,11.12-34.13.28-.74.56-1.48.85-2.23.5-1.34,1.58-11.46,2-16.79.51-6.66,5.35-67.64,8.66-76.84,2.47-6.87,4.86-9.61,7.16-10.52v-.02s1.86-.89,2.99-1.3c3.37-1.21,7.6-1.84,12.07-2.55,3.65-.67,14.17-1.41,17.7-2.8,5.27-2.05,9.61-4.6,12.23-10.99,1.1-2.7,1.54-10.19,1.72-15.31-2.5-2.35-4.45-5.37-5.66-10.39-.22-.9-.47-1.98-.73-3.11-2.75.98-3.46-3.29-3.97-4.53-.56-1.37-1.3-1.5-2.05-4.49-.5-2.01.36-3.31.01-4.6-.25-.87-.36-3.31.74-4.15.12-.09.26-.14.41-.19-1.63-6.25-2.67-16.47.73-24.3,1.46-3.38,3.28-6.12,5.19-8.28,4.51-5.57,11.95-9.2,20.38-9.2s15.88,3.63,20.38,9.2c1.91,2.16,3.72,4.89,5.19,8.28,3.4,7.83,2.36,18.05.73,24.3.16.05.3.1.41.19,1.1.84.99,3.28.74,4.15-.35,1.29.51,2.6,0,4.6-.74,2.99-1.48,3.12-2.04,4.49-.51,1.24-1.23,5.51-3.97,4.53-.26,1.14-.51,2.22-.73,3.11-1.22,5.02-3.16,8.05-5.66,10.39.18,5.12.62,12.62,1.72,15.31,2.62,6.39,6.97,8.94,12.23,10.99,3.54,1.39,14.06,2.13,17.7,2.8,4.48.71,8.7,1.34,12.07,2.55,1.14.41,2.99,1.3,2.99,1.3v.02c2.3.91,4.69,3.65,7.16,10.52,3.31,9.19,8.14,70.18,8.66,76.84.41,5.33,1.49,15.45,2,16.79.29.75.57,1.49.85,2.23,4.98,12.97,9.7,24.76,11.12,34.13.4,2.61.76,5.02,1.11,7.32,1.71,11.34,2.91,19.41,4.73,30.28.97,5.74,2.71,6.7,3.12,9.74.06.44.06.88.06,1.43,0,.97.01,2.29.35,4.56,1.09,7.38,1.92,8.84,2.67,11.48,1.7,5.97,2.37,9.08,2.2,13.2Z"/>
  </g>
</svg>