<?xml version="1.0" encoding="UTF-8"?>
<svg id="_레이어_2" data-name="레이어 2" xmlns="http://www.w3.org/2000/svg" viewBox="0 0 212.64 571.25">
  <defs>
    <style>
      .cls-1 {
        fill: #f3a9aa;
        stroke: #231815;
        stroke-miterlimit: 10;
      }
    </style>
  </defs>
  <g id="_레이어_1-2" data-name="레이어 1">
    <path class="cls-1" d="m44.54,106.9s1.86-.89,2.99-1.3c3.37-1.21,7.6-1.81,12.07-2.55.29-.05.6-.1.91-.15,3.78-.63,13.31-1.4,16.79-2.76,5.27-2.05,9.61-4.61,12.23-11,1.1-2.7,1.54-10.2,1.72-15.33-2.5-2.35-4.45-5.38-5.66-10.4-.22-.9-.47-1.97-.73-3.12-2.75.98-3.46-3.3-3.97-4.54-.56-1.36-1.3-1.49-2.05-4.5-.5-2,.37-3.32.01-4.61-.24-.87-.36-3.32.74-4.16.12-.09.26-.14.42-.18-1.63-6.26-2.67-16.49.73-24.33,1.46-3.39,3.28-6.12,5.19-8.28,4.51-5.57,11.95-9.21,20.38-9.21s15.88,3.64,20.38,9.21c1.91,2.17,3.72,4.9,5.19,8.28,3.4,7.83,2.36,18.06.73,24.33.16.04.3.09.42.18,1.1.84.98,3.29.74,4.16-.36,1.29.51,2.6.01,4.61-.75,3-1.48,3.13-2.04,4.5-.51,1.24-1.23,5.52-3.97,4.54-.26,1.15-.51,2.22-.73,3.12-1.22,5.03-3.16,8.05-5.66,10.4.18,5.13.62,12.63,1.72,15.33,2.62,6.39,6.97,8.95,12.23,11,3.48,1.36,13.02,2.13,16.79,2.76.31.05.62.1.91.15,4.47.74,8.7,1.34,12.07,2.55,1.14.41,2.99,1.3,2.99,1.3v.02c2.3.91,4.69,3.66,7.16,10.53,3.31,9.2,8.14,70.24,8.65,76.9.42,5.34,1.49,15.47,2,16.81.27.71.54,1.41.81,2.12.02.05.03.1.05.16,5.02,12.94,9.69,24.75,11.1,34.12.39,2.57.75,4.95,1.09,7.21,0,.05.01.1.02.15,1.71,11.33,2.91,19.39,4.73,30.26.97,5.74,2.69,6.71,3.12,9.75.06.4.06.82.06,1.32,0,.24,0,.68.09,1.25.07,1.18.14,2.54.45,4.55,1,6.46,1.77,7.89,2.48,10.37,1.7,5.97,2.37,9.09,2.2,13.21-.22,5.44-1.57,8.04-4.07,10.68-1.28,1.36-2.55,3.05-4.55,4.88-2.85,2.59-3.24,2.71-4.4,1.26-1.52-1.9.41-4.5-.28-9.2-.95-6.45-2.48-8.26-2.97-16.16-.08-1.19-.82,5.28-3.33,7.64-1.99,1.88-5.35,1.75-4.8.8,5.07-8.88.62-14.58,2.83-21.39.7-2.19,2.68-5.7,2.58-7.34,0-.14-.04-.3-.06-.44,0-.05-.02-.09-.02-.14-.41-3.75-2.71-8.36-5.91-14.13-4.44-8-6.98-12.92-13.26-27.22-.12-.27-.23-.55-.36-.84-.39-.89-.79-1.8-1.19-2.75-7.57-17.67-8.84-33.19-9.15-35.08-.14-.87-.35-1.82-.57-2.82-.01-.05-.02-.1-.04-.14-1.03-4.44-2.85-10.09-4.84-16.08-2-6.02-4.17-12.39-5.88-18.23-.54-1.85-1.87-7.3-2.41-9.58-.16.5-.31,1.02-.46,1.55-2.69,11.01-4.83,34.23-1.07,42.59,0,0,0,0,0,0,.9,3.59,1.41,9,2.24,14.56.37,2.49.72,5.14,1.22,7.77,2.2,11.55,1.75,12.17,3.15,19.29.28,1.24.58,2.51.88,3.82,2.96,8.6,6.46,19.9,6.59,37.14v.3c.02,4.19-.15,8.71-.57,13.66-1.09,12.5-9.12,39.22-12.11,51.97-6.67,28.36-10.44,45.38-10.94,55.37-.63,12.92.83,16.96,2.13,24.78,2.53,15.2.68,28.34-2.32,40.38-5.56,22.26-11.39,32.16-11.98,43.84-.15,2.92,1.67,4.14.67,7.83-.52,1.92-1.41,3.76-.07,8.03,4.53,14.47,10.43,18.25,9.74,23.54-.78,5.86-17.15,5.5-23.55,4.18-5.28-1.09-5.21-10.05-3.69-20.32.31-2.08.46-4.4.35-7.95-.06-1.76-.45-3.8-.66-6.27-.19-2.28.37-4.69.66-6.59.23-1.44.46-2.6.5-3.21,1.41-22.36.97-27.73-1.37-48.75-2.36-21.24.96-25.06.54-38.05-.25-7.7-2.19-15.57-2.72-23.9-.65-10.46.25-20.33,1.17-27.78,2.55-20.55,2.53-23.87,3.35-40.11.89-17.64-3.8-26.29-1.13-41.5-.62.26-2.14.38-3.66.37-1.51-.01-3.03-.11-3.66-.37,2.68,15.22-2.02,23.86-1.13,41.5.82,16.25.8,19.56,3.35,40.11.92,7.44,1.82,17.31,1.17,27.78-.52,8.33-2.47,16.2-2.72,23.9-.41,12.99,2.9,16.81.54,38.05-2.35,21.02-2.79,26.39-1.37,48.75.04.61.28,1.77.5,3.21.3,1.91.85,4.32.66,6.59-.21,2.48-.6,4.52-.66,6.27-.12,3.56.04,5.87.35,7.95,1.52,10.27,1.59,19.23-3.68,20.32-6.41,1.32-22.77,1.69-23.55-4.18-.69-5.29,5.21-9.07,9.74-23.54,1.34-4.28.45-6.11-.07-8.03-1-3.7.82-4.92.67-7.83-.59-11.68-6.42-21.58-11.98-43.84-3-12.05-4.85-25.19-2.32-40.38,1.3-7.82,2.77-11.86,2.12-24.78-.48-9.99-4.26-27.01-10.93-55.37-2.99-12.76-11.03-39.48-12.11-51.97-.42-4.95-.59-9.47-.57-13.66v-.3c.13-16.78,3.44-27.93,6.35-36.45.39-1.65.76-3.23,1.11-4.75,1.4-7.13.87-7.69,2.86-19.27.4-2.33.72-4.65,1.08-6.86.95-5.84,1.7-11.57,2.71-15.46,3.88-8.46,1.36-32.83-1.45-43.52-.12.19-.25.46-.39.78-.61,2.54-1.66,6.83-2.13,8.42-1.72,5.86-3.89,12.25-5.9,18.29-1.99,5.98-3.81,11.62-4.83,16.05-.02.05-.03.1-.04.15-.21.99-.43,1.92-.56,2.78-.31,1.91-1.61,17.8-9.44,35.77-.42.97-.83,1.89-1.22,2.79-.02.05-.04.09-.06.14-6.27,14.28-8.81,19.19-13.25,27.19-3.21,5.78-5.51,10.4-5.91,14.15,0,.07-.03.15-.03.22-.02.14-.04.29-.04.43-.03,1.67,1.89,5.09,2.58,7.24,2.2,6.81-2.24,12.51,2.83,21.39.54.95-2.82,1.08-4.8-.8-2.51-2.37-3.25-8.83-3.33-7.64-.49,7.89-2.03,9.7-2.97,16.16-.69,4.71,1.24,7.3-.28,9.2-1.16,1.46-1.55,1.33-4.4-1.26-2.01-1.83-3.27-3.52-4.55-4.88-2.5-2.64-3.85-5.25-4.07-10.68-.17-4.12.5-7.23,2.2-13.21.75-2.64,1.58-4.11,2.67-11.49.34-2.28.35-3.6.35-4.57,0-.01,0-.14,0-.15,0-.48,0-.88.06-1.27.43-3.04,2.15-4.01,3.12-9.75,1.82-10.88,3.02-18.95,4.73-30.3,0-.05.02-.1.02-.15.34-2.25.7-4.62,1.09-7.18,1.41-9.38,6.1-21.2,11.12-34.16.02-.05.03-.1.05-.15.27-.69.53-1.38.8-2.08.51-1.34,1.58-11.47,2-16.81.51-6.66,5.34-67.7,8.65-76.9,2.47-6.87,4.86-9.62,7.16-10.53v-.02Z"/>
  </g>
</svg>