<?xml version="1.0" encoding="UTF-8"?>
<svg id="_레이어_2" data-name="레이어 2" xmlns="http://www.w3.org/2000/svg" viewBox="0 0 212.63 570.94">
  <defs>
    <style>
      .cls-1 {
        fill: #f3a9aa;
        stroke: #231815;
        stroke-miterlimit: 10;
      }
    </style>
  </defs>
  <g id="_레이어_1-2" data-name="레이어 1">
    <path class="cls-1" d="m212.11,325.37c-.22,5.43-1.57,8.04-4.07,10.67-1.28,1.36-2.55,3.04-4.55,4.87-2.85,2.59-3.24,2.72-4.4,1.26-1.52-1.9.41-4.49-.28-9.19-.95-6.45-2.48-8.26-2.97-16.14-.08-1.19-.82,5.27-3.33,7.64-1.99,1.88-5.34,1.75-4.8.8,5.07-8.87.62-14.56,2.83-21.37.7-2.19,2.67-5.69,2.58-7.33-.01-.14-.04-.3-.06-.44,0-.05-.02-.1-.02-.15-.41-3.74-2.71-8.35-5.91-14.11-4.44-8-6.98-12.91-13.26-27.19l-.06-.15c-.39-.88-.79-1.79-1.21-2.75-7.82-17.95-9.13-33.83-9.44-35.74-.14-.87-.35-1.82-.57-2.81-.01-.05-.02-.1-.04-.15-2.06-8.9-7.31-22.64-10.72-34.28-.54-1.85-1.87-7.3-2.41-9.57-4,12.88-8.05,38.59-3.64,44h0c2.53,9.38,3.56,15.79,5.18,21.35,3.91,13.4,4,13.95,5.98,20.09,3.33,9.1,8.39,21.13,8.56,41.3v.15c.03,4.22-.15,8.8-.6,13.79-1.16,12.5-9.7,39.19-12.88,51.94-7.09,28.34-11.1,45.33-11.62,55.32-.67,12.9.88,16.94,2.26,24.75,2.69,15.19.73,28.32-2.47,40.35-5.92,22.25-12.11,32.14-12.75,43.81-.16,2.91,1.78,4.13.72,7.82-.56,1.92-1.5,3.75-.08,8.04,4.82,14.45,11.1,18.24,10.35,23.52-.82,5.85-18.23,5.49-25.04,4.17-5.61-1.09-5.53-10.05-3.91-20.3.33-2.08.49-4.39.37-7.95-.07-1.76-.48-3.8-.71-6.27-.2-2.28.4-4.68.71-6.59.24-1.44.48-2.6.53-3.2,1.5-22.34,1.04-27.7-1.46-48.7-2.51-21.23,1.02-25.04.57-38.01-.27-7.7-2.33-15.55-2.88-23.89-.69-10.44.27-20.31,1.24-27.74,2.7-20.53,2.69-23.85,3.56-40.08.95-17.63-4.05-26.27-1.2-41.48-.66.27-2.28.39-3.88.38-1.61,0-3.23-.11-3.89-.38,2.86,15.2-2.14,23.85-1.2,41.48.87,16.23.86,19.55,3.56,40.08.98,7.43,1.94,17.3,1.25,27.74-.55,8.34-2.62,16.19-2.89,23.89-.44,12.98,3.08,16.78.57,38.01-2.5,21-2.96,26.36-1.46,48.7.05.61.3,1.77.53,3.2.32,1.91.91,4.31.71,6.59-.23,2.47-.64,4.51-.71,6.27-.13,3.55.04,5.87.37,7.95,1.62,10.25,1.7,19.22-3.91,20.3-6.81,1.32-24.22,1.68-25.04-4.17-.74-5.28,5.53-9.06,10.35-23.52,1.42-4.28.48-6.12-.08-8.04-1.06-3.68.88-4.9.72-7.82-.63-11.67-6.83-21.56-12.75-43.81-3.2-12.03-5.16-25.16-2.47-40.35,1.38-7.81,2.93-11.85,2.26-24.75-.51-9.99-4.53-26.98-11.62-55.32-3.18-12.75-11.73-39.44-12.88-51.94-.45-4.98-.63-9.56-.6-13.79v-.15c.17-20.16,5.23-32.19,8.56-41.3,1.98-6.15,2.07-6.7,5.98-20.09,1.62-5.56,2.65-11.97,5.18-21.35,4.41-5.41.36-31.13-3.65-44-.54,2.28-1.87,7.73-2.41,9.57-3.41,11.64-8.65,25.38-10.72,34.28-.02.05-.03.1-.04.15-.23,1-.43,1.95-.57,2.81-.31,1.91-1.61,17.79-9.44,35.74-.41.96-.82,1.87-1.21,2.75-.02.05-.04.1-.06.15-6.28,14.29-8.82,19.2-13.26,27.19-3.2,5.76-5.49,10.36-5.91,14.11,0,.05-.02.1-.02.15-.02.14-.05.3-.06.44-.09,1.64,1.88,5.14,2.58,7.33,2.2,6.81-2.24,12.5,2.83,21.37.54.95-2.82,1.08-4.8-.8-2.51-2.37-3.25-8.82-3.33-7.64-.49,7.89-2.03,9.69-2.97,16.14-.69,4.7,1.24,7.3-.28,9.19-1.16,1.46-1.55,1.33-4.4-1.26-2.01-1.83-3.27-3.51-4.55-4.87-2.5-2.64-3.85-5.24-4.07-10.67-.17-4.11.5-7.23,2.2-13.2.75-2.64,1.58-4.1,2.67-11.48.34-2.28.35-3.59.35-4.56v-.15c0-.48,0-.89.06-1.28.41-3.04,2.15-4,3.12-9.74,1.82-10.87,3.02-18.94,4.73-30.28,0-.05.02-.1.02-.15.35-2.25.7-4.61,1.09-7.17,1.41-9.37,6.14-21.16,11.12-34.13.02-.05.03-.1.05-.15.27-.69.53-1.38.8-2.08.5-1.34,1.58-11.46,2-16.79.51-6.66,5.34-67.64,8.65-76.84,2.47-6.87,4.86-9.61,7.16-10.52v-.02s1.86-.89,2.99-1.3c3.37-1.21,7.6-1.84,12.07-2.55.3-.05.61-.1.92-.15,3.62-.67,13.24-1.41,16.79-2.8,5.27-2.05,9.61-4.6,12.23-10.99,1.1-2.7,1.54-10.19,1.72-15.31-2.5-2.35-4.45-5.37-5.66-10.39-.22-.9-.47-1.97-.73-3.11-2.75.98-3.46-3.29-3.97-4.53-.56-1.36-1.3-1.49-2.04-4.49-.5-2,.36-3.31.01-4.6-.25-.87-.36-3.31.74-4.15.12-.09.26-.14.41-.18-1.63-6.26-2.67-16.48.73-24.31,1.46-3.38,3.28-6.11,5.19-8.28,4.51-5.56,11.95-9.2,20.38-9.2s15.87,3.64,20.37,9.2c1.91,2.17,3.72,4.89,5.19,8.28,3.4,7.83,2.36,18.05.73,24.31.16.04.3.09.41.18,1.1.84.99,3.28.74,4.15-.35,1.29.51,2.61,0,4.6-.74,3-1.48,3.13-2.04,4.49-.51,1.24-1.23,5.51-3.97,4.53-.26,1.15-.51,2.22-.73,3.11-1.22,5.02-3.16,8.05-5.66,10.39.18,5.12.62,12.62,1.72,15.31,2.62,6.39,6.97,8.94,12.23,10.99,3.55,1.39,13.17,2.13,16.79,2.8.31.05.62.1.92.15,4.48.71,8.7,1.34,12.07,2.55,1.14.41,2.99,1.3,2.99,1.3v.02c2.3.91,4.69,3.65,7.16,10.52,3.31,9.19,8.14,70.18,8.66,76.84.41,5.33,1.49,15.45,2,16.79.27.7.53,1.39.8,2.08.02.05.03.1.05.15,4.98,12.97,9.7,24.76,11.12,34.13.39,2.56.74,4.92,1.09,7.17,0,.05,0,.1.02.15,1.71,11.34,2.91,19.41,4.73,30.28.97,5.74,2.71,6.7,3.12,9.74.06.39.06.8.06,1.28v.15c0,.97.01,2.29.35,4.56,1.09,7.38,1.92,8.84,2.67,11.48,1.7,5.97,2.37,9.08,2.2,13.2Z"/>
  </g>
</svg>