<?xml version="1.0" encoding="UTF-8"?>
<svg id="_레이어_2" data-name="레이어 2" xmlns="http://www.w3.org/2000/svg" viewBox="0 0 212.64 571.25">
  <defs>
    <style>
      .cls-1 {
        fill: #f3a9aa;
        stroke: #231815;
        stroke-miterlimit: 10;
      }
    </style>
  </defs>
  <g id="_레이어_1-2" data-name="레이어 1">
    <path class="cls-1" d="m44.54,106.84s1.86-.89,2.99-1.3c3.37-1.21,7.6-1.8,12.07-2.55.28-.05.59-.1.91-.15,3.93-.63,13.38-1.39,16.8-2.72,5.27-2.05,9.61-4.61,12.23-11,1.1-2.7,1.54-10.2,1.72-15.32-2.5-2.35-4.45-5.37-5.66-10.4-.22-.9-.47-1.97-.73-3.12-2.75.98-3.46-3.3-3.97-4.54-.56-1.36-1.3-1.5-2.04-4.5-.5-2,.37-3.32,0-4.61-.24-.87-.36-3.32.74-4.16.12-.09.26-.14.42-.18-1.63-6.26-2.67-16.49.73-24.32,1.46-3.39,3.28-6.12,5.19-8.28,4.51-5.57,11.95-9.21,20.38-9.21s15.87,3.64,20.38,9.21c1.91,2.16,3.72,4.89,5.19,8.28,3.4,7.83,2.36,18.06.73,24.32.16.04.3.09.41.18,1.1.84.98,3.28.74,4.16-.36,1.29.51,2.6,0,4.61-.75,3-1.48,3.13-2.05,4.5-.51,1.24-1.23,5.51-3.97,4.54-.26,1.14-.51,2.22-.73,3.12-1.22,5.02-3.16,8.05-5.66,10.4.18,5.12.62,12.63,1.72,15.32,2.62,6.39,6.97,8.95,12.23,11,3.41,1.34,12.87,2.09,16.8,2.72.32.05.62.1.9.15,4.47.75,8.7,1.34,12.07,2.55,1.14.41,2.99,1.3,2.99,1.3v.02c2.3.91,4.69,3.66,7.16,10.53,3.31,9.2,8.14,70.22,8.65,76.89.41,5.33,1.49,15.46,2,16.8.27.72.55,1.44.82,2.15.02.05.04.11.06.16,5,12.93,9.67,24.71,11.08,34.07.39,2.58.75,4.97,1.1,7.25,0,.05.01.11.02.16,1.7,11.3,2.91,19.36,4.72,30.21.97,5.74,2.7,6.7,3.12,9.75.06.41.06.84.06,1.35,0,.48,0,1.22.17,2.36.13,1.39.26,2.78.55,4.52.91,5.54,1.63,6.94,2.29,9.25,1.7,5.97,2.37,9.09,2.2,13.21-.22,5.43-1.57,8.04-4.07,10.68-1.28,1.36-2.55,3.05-4.55,4.87-2.85,2.59-3.24,2.71-4.4,1.26-1.52-1.9.41-4.5-.28-9.2-.95-6.45-2.48-8.26-2.97-16.15-.08-1.19-.82,5.27-3.33,7.64-1.99,1.88-5.35,1.75-4.8.8,5.07-8.88.62-14.57,2.83-21.38.7-2.19,2.68-5.69,2.58-7.34,0-.14-.04-.3-.06-.44,0-.04-.01-.09-.02-.13-.41-3.75-2.71-8.36-5.91-14.13-4.44-8-6.98-12.92-13.26-27.21-.21-.49-.43-.99-.66-1.52-.39-.9-.79-1.81-1.18-2.75-7.31-17.38-8.56-32.53-8.86-34.39-.14-.86-.35-1.82-.57-2.82-.01-.05-.02-.09-.03-.14-1.03-4.45-2.85-10.1-4.84-16.09-2-6.02-4.17-12.39-5.88-18.23-.54-1.85-1.87-7.3-2.41-9.58-.16.5-.3,1.03-.46,1.55-1.54,8.72-2.25,31.12,1.03,42.62,0,0,0,0,0,0,1.13,5.59,1.99,10.47,2.79,14.62.45,2.28.75,4.58,1.16,6.88,1.44,8.11,1.83,12.38,2.16,17.28.25.76.51,1.59.82,2.56,3.33,9.11,8.39,21.15,8.56,41.33v.15c.03,4.23-.15,8.81-.6,13.8-1.16,12.51-9.7,39.22-12.88,51.97-7.09,28.36-11.11,45.36-11.62,55.36-.67,12.91.88,16.95,2.26,24.76,2.69,15.2.73,28.34-2.47,40.38-5.92,22.27-12.11,32.17-12.75,43.84-.16,2.92,1.79,4.14.72,7.82-.56,1.92-1.5,3.76-.08,8.04,4.82,14.46,11.1,18.25,10.35,23.53-.82,5.85-18.23,5.49-25.04,4.18-5.61-1.09-5.53-10.06-3.91-20.32.33-2.08.49-4.4.37-7.95-.07-1.76-.49-3.81-.71-6.27-.2-2.28.4-4.68.71-6.59.24-1.44.49-2.6.53-3.21,1.65-22.35,1.04-27.72-1.46-48.74-2.51-21.25,1.02-25.05.57-38.04-.27-7.7-2.33-15.56-2.88-23.9-.69-10.45.27-20.33,1.24-27.76,2.7-20.55,2.69-23.86,3.56-40.11.95-17.64-4.05-26.29-1.2-41.51-.66.27-2.28.38-3.89.38-1.61,0-3.23-.11-3.89-.38,2.86,15.21-2.14,23.86-1.2,41.51.87,16.24.86,19.56,3.56,40.11.98,7.43,1.94,17.31,1.24,27.76-.55,8.34-2.62,16.2-2.88,23.9-.44,12.99,3.08,16.79.57,38.04-2.49,21.02-3.02,26.39-1.46,48.74.04.61.3,1.77.53,3.21.32,1.91.91,4.32.71,6.59-.22,2.47-.64,4.52-.71,6.27-.13,3.56.04,5.87.37,7.95,1.62,10.26,1.69,19.23-3.91,20.32-6.81,1.32-24.22,1.68-25.04-4.18-.74-5.28,5.53-9.07,10.35-23.53,1.43-4.29.48-6.12-.07-8.04-1.07-3.68.87-4.9.72-7.82-.63-11.68-6.83-21.58-12.75-43.84-3.2-12.04-5.16-25.17-2.47-40.38,1.38-7.81,2.93-11.86,2.26-24.76-.52-10-4.53-27-11.62-55.36-3.18-12.76-11.73-39.47-12.88-51.97-.45-4.98-.63-9.57-.6-13.8v-.15c.17-20.18,5.23-32.22,8.56-41.33.23-.72.44-1.37.63-1.97.44-5.51.73-9.7,2.37-18.49.35-1.89.62-3.78.99-5.64.87-4.46,1.77-9.76,3.02-15.89,3.33-11.45,2.35-34.28.71-42.75-.13-.04-.26-.04-.41,0-.59,2.45-1.73,7.13-2.22,8.8-1.72,5.86-3.89,12.24-5.9,18.29-1.99,6-3.82,11.65-4.84,16.09-.02.05-.03.1-.04.16-.21.97-.42,1.9-.55,2.74-.31,1.91-1.61,17.8-9.44,35.76-.43.98-.84,1.92-1.24,2.82-.02.04-.04.09-.05.13-6.27,14.25-8.8,19.16-13.23,27.15-3.22,5.8-5.53,10.43-5.92,14.19,0,.09-.03.2-.04.29-.01.13-.03.28-.02.42.04,1.7,1.9,5.03,2.57,7.14,2.2,6.81-2.24,12.5,2.83,21.38.54.95-2.82,1.08-4.8-.8-2.51-2.37-3.25-8.83-3.33-7.64-.49,7.89-2.03,9.7-2.97,16.15-.69,4.7,1.24,7.3-.28,9.2-1.16,1.46-1.55,1.33-4.4-1.26-2.01-1.83-3.27-3.52-4.55-4.87-2.5-2.64-3.85-5.24-4.07-10.68-.17-4.12.5-7.23,2.2-13.21.75-2.64,1.58-4.11,2.67-11.49.34-2.28.35-3.6.35-4.56,0-.03,0-.13,0-.16,0-.48,0-.88.06-1.27.43-3.05,2.15-4.01,3.12-9.75,1.82-10.88,3.02-18.95,4.73-30.3,0-.05.02-.1.02-.15.34-2.25.7-4.62,1.09-7.18,1.41-9.38,6.14-21.18,11.12-34.15.02-.05.03-.1.05-.15.26-.69.53-1.38.8-2.08.51-1.34,1.58-11.47,2-16.8.51-6.66,5.35-67.69,8.65-76.89,2.47-6.87,4.86-9.62,7.16-10.53v-.02Z"/>
  </g>
</svg>