<?xml version="1.0" encoding="UTF-8"?>
<svg id="_레이어_2" data-name="레이어 2" xmlns="http://www.w3.org/2000/svg" viewBox="0 0 212.63 571.25">
  <defs>
    <style>
      .cls-1 {
        fill: #f3a9aa;
        stroke: #231815;
        stroke-miterlimit: 10;
      }
    </style>
  </defs>
  <g id="_레이어_1-2" data-name="레이어 1">
    <path class="cls-1" d="m44.54,106.87s1.86-.89,2.99-1.3c3.37-1.21,7.6-1.81,12.07-2.55.29-.05.6-.1.91-.15,3.78-.63,13.31-1.4,16.79-2.76,5.27-2.05,9.61-4.6,12.23-11,1.1-2.7,1.54-10.2,1.72-15.32-2.5-2.35-4.45-5.37-5.66-10.4-.22-.9-.47-1.97-.73-3.12-2.75.98-3.46-3.3-3.97-4.53-.56-1.36-1.3-1.49-2.04-4.49-.5-2,.37-3.32.01-4.6-.24-.87-.36-3.32.74-4.16.12-.09.26-.14.42-.18-1.63-6.26-2.67-16.49.73-24.32,1.46-3.39,3.28-6.12,5.19-8.28,4.51-5.57,11.95-9.21,20.38-9.21s15.87,3.64,20.38,9.21c1.91,2.17,3.72,4.89,5.19,8.28,3.4,7.83,2.36,18.06.73,24.32.16.04.3.09.41.18,1.1.84.98,3.28.74,4.16-.36,1.29.51,2.6,0,4.6-.75,3-1.48,3.13-2.05,4.49-.51,1.24-1.23,5.51-3.97,4.53-.26,1.15-.51,2.22-.73,3.12-1.22,5.02-3.16,8.05-5.66,10.4.18,5.12.62,12.63,1.72,15.32,2.62,6.39,6.97,8.95,12.23,11,3.48,1.36,13.02,2.13,16.79,2.76.31.05.62.1.91.15,4.47.74,8.7,1.34,12.07,2.55,1.14.41,2.99,1.3,2.99,1.3v.02c2.3.91,4.69,3.66,7.16,10.53,3.31,9.2,8.14,70.22,8.66,76.88.41,5.33,1.49,15.46,2,16.8.27.71.54,1.41.81,2.11.02.05.03.1.05.16,5.02,12.94,9.69,24.74,11.1,34.11.39,2.57.75,4.95,1.09,7.21,0,.05.01.1.02.15,1.71,11.33,2.91,19.39,4.73,30.25.97,5.74,2.69,6.7,3.12,9.75.06.4.06.82.06,1.32,0,.24,0,.68.09,1.25.07,1.18.14,2.53.45,4.54,1,6.46,1.77,7.89,2.48,10.37,1.7,5.97,2.37,9.09,2.2,13.21-.22,5.43-1.57,8.04-4.07,10.68-1.28,1.36-2.55,3.05-4.55,4.87-2.85,2.59-3.24,2.71-4.4,1.26-1.52-1.9.41-4.49-.28-9.2-.95-6.45-2.48-8.26-2.97-16.15-.08-1.19-.82,5.27-3.33,7.64-1.99,1.88-5.34,1.75-4.8.8,5.07-8.88.62-14.57,2.83-21.38.7-2.19,2.68-5.69,2.58-7.33,0-.14-.04-.3-.06-.44,0-.05-.02-.09-.02-.14-.41-3.75-2.71-8.36-5.91-14.12-4.44-8-6.98-12.92-13.26-27.21-.12-.27-.23-.55-.36-.84-.39-.89-.79-1.8-1.19-2.75-7.57-17.67-8.84-33.19-9.15-35.07-.14-.87-.36-1.82-.57-2.82-.01-.05-.02-.1-.04-.14-1.03-4.45-2.86-10.11-4.85-16.1-2-6.02-4.16-12.37-5.87-18.2-.54-1.85-1.87-7.3-2.41-9.58-.16.5-.31,1.02-.46,1.55-2.69,11.01-4.83,34.2-1.07,42.55,0,0,0,0,0,0,1.35,5.71,2.27,10.49,3.13,14.59.5,2.37.91,4.64,1.43,6.85,2.23,9.46,2.82,12.81,3.58,17.13.27.84.56,1.75.91,2.84,3.33,9.11,8.39,21.15,8.56,41.32v.15c.03,4.23-.15,8.81-.6,13.79-1.16,12.51-9.7,39.22-12.88,51.97-7.09,28.36-11.11,45.36-11.62,55.36-.67,12.91.88,16.95,2.26,24.76,2.69,15.2.73,28.34-2.47,40.37-5.92,22.26-12.11,32.16-12.75,43.84-.16,2.92,1.79,4.14.72,7.82-.56,1.92-1.5,3.76-.08,8.04,4.82,14.46,11.1,18.25,10.35,23.53-.82,5.85-18.23,5.49-25.04,4.18-5.61-1.09-5.53-10.06-3.91-20.32.33-2.08.49-4.39.37-7.95-.07-1.76-.49-3.81-.71-6.27-.2-2.28.4-4.68.71-6.59.24-1.44.49-2.6.53-3.21,1.65-22.34,1.04-27.72-1.46-48.73-2.51-21.25,1.02-25.05.57-38.04-.27-7.7-2.33-15.56-2.88-23.9-.69-10.45.27-20.33,1.24-27.76,2.7-20.55,2.69-23.86,3.56-40.1.95-17.64-4.05-26.29-1.2-41.5-.66.27-2.28.38-3.89.38-1.61,0-3.23-.11-3.89-.38,2.86,15.21-2.14,23.86-1.2,41.5.87,16.24.86,19.56,3.56,40.1.98,7.43,1.94,17.31,1.24,27.76-.55,8.34-2.62,16.2-2.88,23.9-.44,12.99,3.08,16.79.57,38.04-2.5,21.02-3.07,26.39-1.46,48.73.04.61.3,1.77.53,3.21.32,1.91.91,4.32.71,6.59-.22,2.47-.64,4.51-.71,6.27-.13,3.56.04,5.87.37,7.95,1.62,10.26,1.7,19.23-3.91,20.32-6.81,1.32-24.22,1.68-25.04-4.18-.74-5.28,5.53-9.07,10.35-23.53,1.43-4.29.48-6.12-.08-8.04-1.07-3.68.88-4.9.72-7.82-.63-11.68-6.83-21.58-12.75-43.84-3.2-12.04-5.16-25.17-2.47-40.37,1.38-7.81,2.93-11.86,2.26-24.76-.52-10-4.53-27-11.62-55.36-3.18-12.76-11.73-39.47-12.88-51.97-.45-4.98-.63-9.57-.6-13.79v-.15c.17-20.18,5.23-32.21,8.56-41.32.23-.72.44-1.37.63-1.96.93-5,1.38-7.98,3.86-18.31.44-1.82.79-3.68,1.2-5.6.94-4.39,1.9-9.56,3.39-15.85,3.87-8.43,1.35-32.71-1.47-43.39-.12.19-.25.46-.39.78-.61,2.54-1.66,6.82-2.13,8.41-1.72,5.86-3.89,12.25-5.9,18.29-1.99,5.98-3.81,11.62-4.83,16.05-.02.05-.03.1-.04.15-.22.99-.43,1.92-.56,2.78-.31,1.91-1.61,17.8-9.44,35.76-.42.97-.83,1.89-1.22,2.78-.02.05-.04.09-.06.14-6.27,14.27-8.81,19.18-13.25,27.18-3.21,5.78-5.51,10.4-5.91,14.15,0,.07-.03.15-.03.22-.02.14-.04.29-.04.43-.03,1.67,1.89,5.09,2.58,7.23,2.2,6.81-2.24,12.5,2.83,21.38.54.95-2.82,1.08-4.8-.8-2.51-2.37-3.25-8.83-3.33-7.64-.49,7.89-2.03,9.7-2.97,16.15-.69,4.7,1.24,7.3-.28,9.2-1.16,1.46-1.55,1.33-4.4-1.26-2.01-1.83-3.27-3.52-4.55-4.87-2.5-2.64-3.85-5.24-4.07-10.68-.17-4.12.5-7.23,2.2-13.21.75-2.64,1.58-4.11,2.67-11.49.34-2.28.35-3.6.35-4.56,0-.01,0-.14,0-.15,0-.48,0-.88.06-1.27.43-3.04,2.15-4.01,3.12-9.75,1.82-10.88,3.02-18.95,4.73-30.3,0-.05.02-.1.02-.15.34-2.25.7-4.62,1.09-7.17,1.41-9.38,6.1-21.19,11.12-34.15.02-.05.03-.1.05-.15.27-.69.53-1.38.8-2.08.51-1.34,1.58-11.47,2-16.8.51-6.66,5.34-67.68,8.65-76.88,2.47-6.87,4.86-9.62,7.16-10.53v-.02Z"/>
  </g>
</svg>