<?xml version="1.0" encoding="UTF-8"?>
<svg id="_레이어_2" data-name="레이어 2" xmlns="http://www.w3.org/2000/svg" viewBox="0 0 212.64 571.25">
  <defs>
    <style>
      .cls-1 {
        fill: #f3a9aa;
        stroke: #231815;
        stroke-miterlimit: 10;
      }
    </style>
  </defs>
  <g id="_레이어_1-2" data-name="레이어 1">
    <path class="cls-1" d="m44.54,106.81s1.86-.89,2.99-1.3c3.37-1.21,7.6-1.79,12.07-2.55.27-.05.58-.1.9-.15,4.09-.63,13.45-1.37,16.8-2.69,5.27-2.05,9.61-4.61,12.23-11,1.1-2.7,1.54-10.2,1.72-15.32-2.5-2.35-4.45-5.37-5.66-10.4-.22-.9-.47-1.98-.73-3.12-2.75.98-3.46-3.3-3.97-4.54-.56-1.37-1.3-1.5-2.04-4.5-.5-2.01.37-3.32,0-4.61-.24-.87-.36-3.32.74-4.16.12-.09.26-.14.42-.19-1.63-6.26-2.67-16.49.73-24.32,1.46-3.39,3.28-6.12,5.19-8.28,4.51-5.57,11.95-9.21,20.38-9.21s15.87,3.64,20.38,9.21c1.91,2.16,3.72,4.9,5.19,8.28,3.4,7.83,2.36,18.06.73,24.32.16.05.3.1.41.19,1.1.84.98,3.28.74,4.16-.36,1.29.51,2.6.01,4.61-.74,3-1.48,3.13-2.05,4.5-.51,1.24-1.22,5.51-3.97,4.54-.26,1.14-.51,2.22-.73,3.12-1.22,5.02-3.16,8.05-5.66,10.4.18,5.12.62,12.63,1.72,15.32,2.62,6.39,6.97,8.95,12.23,11,3.35,1.31,12.73,2.05,16.81,2.69.32.05.62.1.9.15,4.47.75,8.7,1.34,12.07,2.55,1.14.41,2.99,1.3,2.99,1.3v.02c2.3.91,4.69,3.66,7.16,10.53,3.31,9.2,8.14,70.23,8.65,76.89.41,5.33,1.49,15.47,2,16.8.28.74.56,1.46.84,2.19.02.06.04.11.06.17,4.96,12.93,9.66,24.68,11.07,34.03.39,2.59.76,5,1.1,7.29,0,.05.02.11.02.16,1.7,11.28,2.9,19.34,4.71,30.17.97,5.74,2.71,6.7,3.12,9.75.06.43.06.86.06,1.39,0,.73,0,1.75.26,3.46.2,1.6.39,3.03.66,4.5.82,4.62,1.49,5.98,2.1,8.13,1.7,5.97,2.37,9.09,2.2,13.21-.22,5.43-1.57,8.04-4.07,10.68-1.28,1.36-2.55,3.05-4.55,4.87-2.85,2.59-3.24,2.71-4.4,1.26-1.52-1.9.41-4.5-.28-9.2-.95-6.45-2.48-8.26-2.97-16.15-.08-1.19-.82,5.27-3.33,7.64-1.99,1.88-5.35,1.75-4.8.8,5.07-8.88.62-14.58,2.83-21.38.7-2.2,2.68-5.7,2.58-7.34,0-.14-.04-.3-.06-.44,0-.04-.01-.08-.01-.12-.4-3.75-2.71-8.37-5.91-14.15-4.44-8-6.98-12.92-13.26-27.21-.31-.71-.62-1.44-.96-2.21-.4-.91-.79-1.83-1.17-2.75-7.06-17.1-8.27-31.87-8.57-33.7-.14-.86-.35-1.82-.57-2.82,0-.04-.02-.09-.03-.13-1.03-4.44-2.85-10.08-4.84-16.07-2-6.03-4.17-12.41-5.89-18.26-.54-1.85-1.87-7.3-2.41-9.58-.16.51-.3,1.03-.46,1.55-.39,6.44.33,28.05,3.14,42.68,0,0,0,0,0,0,.92,5.47,1.7,10.45,2.45,14.66.4,2.18.62,4.5.89,6.91.76,6.74.84,11.95.75,17.42.23.69.46,1.43.74,2.28,3.33,9.11,8.39,21.15,8.56,41.33v.15c.03,4.23-.15,8.81-.6,13.8-1.16,12.51-9.7,39.22-12.88,51.98-7.09,28.36-11.11,45.36-11.62,55.36-.67,12.91.88,16.95,2.26,24.77,2.69,15.2.73,28.34-2.47,40.38-5.92,22.27-12.11,32.17-12.75,43.85-.16,2.92,1.79,4.14.72,7.82-.56,1.92-1.5,3.76-.08,8.04,4.82,14.47,11.1,18.25,10.35,23.54-.82,5.85-18.23,5.49-25.04,4.18-5.61-1.09-5.53-10.06-3.91-20.32.33-2.08.49-4.4.37-7.95-.07-1.76-.49-3.81-.71-6.27-.2-2.28.4-4.69.71-6.59.24-1.44.49-2.6.53-3.21,1.65-22.35,1.04-27.72-1.46-48.74-2.51-21.25,1.02-25.05.57-38.04-.27-7.7-2.33-15.56-2.88-23.91-.69-10.45.27-20.33,1.25-27.76,2.7-20.55,2.69-23.87,3.56-40.11.95-17.64-4.05-26.29-1.2-41.51-.66.27-2.28.39-3.89.38-1.6,0-3.22-.11-3.89-.38,2.86,15.21-2.14,23.87-1.2,41.51.88,16.24.86,19.56,3.56,40.11.98,7.43,1.94,17.31,1.24,27.76-.55,8.34-2.62,16.2-2.88,23.91-.44,12.99,3.08,16.79.57,38.04-2.49,21.02-2.96,26.38-1.45,48.74.04.61.3,1.77.53,3.21.32,1.91.91,4.32.7,6.59-.22,2.47-.64,4.52-.7,6.27-.13,3.56.04,5.87.37,7.95,1.62,10.26,1.69,19.23-3.91,20.32-6.81,1.32-24.22,1.68-25.04-4.18-.74-5.28,5.53-9.07,10.35-23.54,1.43-4.29.49-6.12-.07-8.04-1.07-3.68.87-4.91.72-7.82-.63-11.68-6.83-21.58-12.75-43.85-3.2-12.04-5.16-25.17-2.47-40.38,1.38-7.81,2.93-11.86,2.26-24.77-.52-10-4.53-27-11.62-55.36-3.18-12.76-11.73-39.47-12.88-51.98-.45-4.98-.63-9.57-.6-13.8v-.15c.17-20.18,5.23-32.22,8.56-41.33.23-.72.44-1.37.64-1.97-.05-6.01-.02-11.44.88-18.66.25-1.97.45-3.88.78-5.68.81-4.53,1.65-9.96,2.65-15.94,2.8-14.47,3.34-35.85,2.89-42.11-.14-.28-.28-.54-.43-.77-.57,2.36-1.8,7.43-2.32,9.19-1.72,5.86-3.89,12.24-5.9,18.28-2,6.02-3.83,11.69-4.85,16.13-.01.05-.03.11-.04.16-.21.96-.41,1.87-.55,2.7-.31,1.91-1.61,17.8-9.44,35.76-.44,1-.85,1.94-1.25,2.86-.02.04-.03.08-.05.12-6.26,14.23-8.79,19.14-13.22,27.13-3.23,5.82-5.55,10.47-5.92,14.23-.01.12-.04.25-.05.37-.01.13-.01.27,0,.41.11,1.73,1.91,4.97,2.57,7.04,2.2,6.81-2.24,12.5,2.83,21.38.54.95-2.82,1.08-4.8-.8-2.51-2.37-3.25-8.83-3.33-7.64-.49,7.89-2.03,9.7-2.97,16.15-.69,4.71,1.24,7.3-.28,9.2-1.16,1.46-1.55,1.34-4.4-1.26-2.01-1.83-3.27-3.52-4.55-4.87-2.5-2.64-3.85-5.24-4.07-10.68-.17-4.12.5-7.23,2.2-13.21.75-2.64,1.58-4.11,2.67-11.49.34-2.28.35-3.6.35-4.57,0-.04,0-.12,0-.16,0-.47,0-.87.06-1.26.41-3.05,2.15-4.01,3.12-9.75,1.82-10.88,3.02-18.95,4.73-30.3,0-.05.02-.1.02-.14.34-2.25.7-4.62,1.09-7.18,1.41-9.38,6.14-21.18,11.12-34.16.02-.05.04-.1.05-.15.26-.69.53-1.38.8-2.08.51-1.34,1.58-11.47,2-16.8.51-6.66,5.35-67.69,8.66-76.89,2.47-6.87,4.86-9.62,7.16-10.53v-.02Z"/>
  </g>
</svg>