<?xml version="1.0" encoding="UTF-8"?>
<svg id="_레이어_2" data-name="레이어 2" xmlns="http://www.w3.org/2000/svg" viewBox="0 0 212.64 571.25">
  <defs>
    <style>
      .cls-1 {
        fill: #f3a9aa;
        stroke: #231815;
        stroke-miterlimit: 10;
      }
    </style>
  </defs>
  <g id="_레이어_1-2" data-name="레이어 1">
    <path class="cls-1" d="m44.54,106.78s1.86-.89,2.99-1.3c3.37-1.21,7.61-1.79,12.07-2.55.27-.05.58-.1.9-.15,4.09-.63,13.45-1.37,16.8-2.69,5.27-2.05,9.61-4.6,12.23-11,1.1-2.7,1.54-10.2,1.72-15.32-2.5-2.35-4.45-5.37-5.66-10.4-.22-.9-.47-1.97-.73-3.12-2.75.98-3.46-3.3-3.97-4.53-.56-1.37-1.3-1.5-2.05-4.49-.5-2.01.36-3.32,0-4.6-.24-.87-.36-3.32.74-4.15.12-.09.26-.14.42-.19-1.63-6.25-2.67-16.48.73-24.31,1.46-3.39,3.28-6.12,5.19-8.28,4.5-5.57,11.95-9.21,20.38-9.21s15.88,3.64,20.38,9.21c1.91,2.16,3.72,4.89,5.19,8.28,3.4,7.83,2.36,18.06.73,24.31.16.05.3.1.41.19,1.1.84.98,3.28.74,4.15-.36,1.29.51,2.6,0,4.6-.75,3-1.48,3.13-2.04,4.49-.51,1.24-1.23,5.51-3.97,4.53-.26,1.14-.51,2.22-.73,3.12-1.22,5.02-3.16,8.05-5.66,10.4.18,5.12.62,12.62,1.72,15.32,2.62,6.39,6.97,8.95,12.23,11,3.35,1.31,12.73,2.05,16.81,2.69.32.05.62.1.9.15,4.47.75,8.7,1.34,12.07,2.55,1.14.41,2.99,1.3,2.99,1.3v.02c2.3.91,4.69,3.66,7.16,10.53,3.31,9.2,8.14,70.21,8.66,76.87.41,5.33,1.49,15.46,2,16.8.28.74.56,1.46.84,2.19.02.06.04.11.06.17,4.96,12.92,9.66,24.67,11.07,34.02.39,2.59.76,5,1.1,7.28,0,.05.02.11.02.16,1.7,11.28,2.9,19.33,4.71,30.17.97,5.74,2.71,6.7,3.12,9.75.06.43.06.86.06,1.39,0,.73,0,1.75.26,3.46.2,1.6.39,3.03.65,4.5.82,4.62,1.49,5.98,2.1,8.13,1.7,5.97,2.37,9.09,2.2,13.2-.22,5.43-1.57,8.04-4.07,10.68-1.28,1.36-2.55,3.05-4.55,4.87-2.85,2.59-3.24,2.71-4.4,1.26-1.52-1.9.41-4.49-.28-9.2-.95-6.45-2.48-8.26-2.97-16.15-.08-1.19-.82,5.27-3.33,7.64-1.99,1.88-5.34,1.75-4.8.8,5.07-8.88.62-14.57,2.83-21.38.7-2.19,2.68-5.69,2.58-7.34,0-.14-.04-.3-.06-.44,0-.04-.01-.08-.01-.12-.4-3.75-2.71-8.37-5.91-14.14-4.44-8-6.98-12.91-13.26-27.21-.31-.71-.62-1.44-.96-2.21-.4-.91-.79-1.83-1.17-2.75-7.06-17.09-8.27-31.86-8.57-33.69-.14-.86-.35-1.82-.57-2.82,0-.04-.02-.09-.03-.13-1.03-4.44-2.85-10.08-4.84-16.07-2-6.03-4.17-12.4-5.89-18.25-.54-1.85-1.87-7.3-2.41-9.58-.16.51-.3,1.03-.46,1.55-.41,6.34-.02,26.65,3.16,42.81.66,4.21,1.79,9.55,2.83,14.36.45,2.07.73,4.35.99,6.71.45,4.01.7,7.76.73,11.39,1.2,3.35,1.85,5.15,3.2,8.68,3.46,9.14,8.94,21.18,9.13,41.47.03,4.26-.16,8.9-.65,13.94-1.22,12.5-10.27,39.21-13.64,51.96-7.51,28.35-11.76,45.35-12.31,55.35-.71,12.9.94,16.95,2.4,24.76,2.86,15.2.77,28.33-2.62,40.37-6.26,22.26-12.83,32.15-13.5,43.84-.17,2.92,1.88,4.13.75,7.82-.59,1.92-1.58,3.76-.07,8.03,5.11,14.47,11.75,18.26,10.97,23.54-.87,5.85-19.31,5.48-26.53,4.16-5.94-1.08-5.86-10.05-4.15-20.3.35-2.08.52-4.4.4-7.95-.07-1.76-.51-3.81-.75-6.27-.22-2.28.41-4.68.75-6.59.26-1.44.52-2.6.56-3.21,1.7-22.35,1.1-27.72-1.54-48.74-2.67-21.23,1.07-25.04.6-38.03-.28-7.69-2.47-15.56-3.05-23.89-.74-10.46.28-20.32,1.31-27.76,2.87-20.54,2.85-23.86,3.77-40.11,1-17.63-4.3-26.28-1.27-41.49-.7.27-2.42.39-4.12.38-1.7-.01-3.42-.11-4.12-.38,3.02,15.21-2.27,23.86-1.27,41.49.92,16.25.91,19.57,3.77,40.11,1.04,7.43,2.05,17.3,1.31,27.76-.58,8.33-2.77,16.2-3.05,23.89-.46,12.99,3.27,16.8.6,38.03-2.64,21.02-3.13,26.38-1.53,48.74.04.61.31,1.77.56,3.21.34,1.91.96,4.31.74,6.59-.24,2.47-.68,4.51-.74,6.27-.14,3.55.04,5.87.39,7.95,1.71,10.26,1.79,19.23-4.15,20.3-7.22,1.32-25.66,1.69-26.53-4.16-.78-5.28,5.86-9.07,10.97-23.54,1.51-4.27.51-6.11-.07-8.03-1.14-3.69.92-4.9.75-7.82-.66-11.69-7.23-21.57-13.5-43.84-3.39-12.03-5.47-25.17-2.62-40.37,1.47-7.81,3.11-11.86,2.4-24.76-.55-10-4.8-27-12.31-55.35-3.38-12.75-12.42-39.46-13.64-51.96-.49-5.04-.68-9.68-.64-13.94.18-20.28,5.66-32.32,9.12-41.47,1.29-3.37,1.96-5.19,3.09-8.33.02-4.15.3-8.39.91-13.02.23-1.73.45-3.42.79-4.99,1.13-5.3,2.42-11.4,3.14-16.12,0,0,0,0,0,0,3.05-15.73,3.52-34.83,3.12-41.04-.2-.66-.39-1.33-.59-1.98-.54,2.28-1.87,7.73-2.41,9.58-1.72,5.85-3.89,12.24-5.9,18.28-2,6.02-3.83,11.68-4.85,16.13-.01.05-.03.11-.04.16-.21.96-.41,1.87-.55,2.7-.31,1.91-1.61,17.8-9.44,35.76-.44,1-.85,1.94-1.25,2.86-.02.04-.03.08-.05.12-6.26,14.23-8.79,19.14-13.22,27.12-3.23,5.82-5.54,10.46-5.92,14.22-.01.12-.04.25-.05.37,0,.13-.01.27,0,.41.11,1.73,1.91,4.97,2.57,7.04,2.2,6.8-2.24,12.5,2.83,21.38.54.95-2.82,1.08-4.8-.8-2.51-2.37-3.25-8.83-3.33-7.64-.49,7.89-2.03,9.7-2.97,16.15-.69,4.7,1.24,7.3-.28,9.2-1.16,1.46-1.55,1.34-4.4-1.26-2.01-1.83-3.27-3.52-4.55-4.87-2.5-2.64-3.85-5.24-4.07-10.68-.17-4.11.5-7.23,2.2-13.2.75-2.64,1.58-4.1,2.67-11.49.34-2.28.35-3.6.35-4.56,0-.04,0-.12,0-.16,0-.47,0-.87.06-1.26.41-3.05,2.15-4,3.12-9.75,1.82-10.88,3.02-18.95,4.73-30.29,0-.05.02-.1.02-.14.34-2.25.7-4.62,1.09-7.18,1.41-9.38,6.14-21.17,11.12-34.15.02-.05.04-.1.05-.15.26-.69.53-1.38.8-2.08.51-1.34,1.58-11.47,2-16.8.51-6.66,5.35-67.67,8.65-76.87,2.47-6.87,4.86-9.62,7.16-10.53v-.02Z"/>
  </g>
</svg>