<?xml version="1.0" encoding="UTF-8"?>
<svg id="_레이어_2" data-name="레이어 2" xmlns="http://www.w3.org/2000/svg" viewBox="0 0 212.64 571.25">
  <defs>
    <style>
      .cls-1 {
        fill: #f3a9aa;
        stroke: #231815;
        stroke-miterlimit: 10;
      }
    </style>
  </defs>
  <g id="_레이어_1-2" data-name="레이어 1">
    <path class="cls-1" d="m44.54,106.81s1.86-.89,2.99-1.3c3.37-1.21,7.6-1.8,12.07-2.55.28-.05.59-.1.91-.15,3.93-.63,13.38-1.38,16.8-2.72,5.27-2.05,9.61-4.6,12.23-11,1.1-2.7,1.54-10.2,1.72-15.32-2.5-2.35-4.45-5.37-5.66-10.4-.22-.9-.47-1.97-.73-3.12-2.75.98-3.46-3.3-3.97-4.53-.56-1.36-1.3-1.49-2.05-4.49-.5-2,.36-3.32,0-4.6-.24-.87-.36-3.32.74-4.15.12-.09.26-.14.42-.18-1.63-6.26-2.67-16.48.73-24.31,1.46-3.39,3.28-6.12,5.19-8.28,4.51-5.57,11.95-9.21,20.38-9.21s15.88,3.64,20.38,9.21c1.91,2.16,3.72,4.89,5.19,8.28,3.4,7.83,2.36,18.06.73,24.31.16.04.3.09.41.18,1.1.84.98,3.28.74,4.15-.36,1.29.51,2.6,0,4.6-.75,3-1.48,3.13-2.04,4.49-.51,1.24-1.23,5.51-3.97,4.53-.26,1.14-.51,2.22-.73,3.12-1.21,5.02-3.16,8.05-5.66,10.4.18,5.12.62,12.62,1.72,15.32,2.62,6.39,6.97,8.95,12.23,11,3.42,1.34,12.87,2.09,16.8,2.72.32.05.62.1.9.15,4.47.75,8.7,1.34,12.07,2.55,1.14.41,2.99,1.3,2.99,1.3v.02c2.3.91,4.69,3.66,7.16,10.53,3.31,9.2,8.14,70.21,8.65,76.87.41,5.33,1.49,15.46,2,16.8.27.72.55,1.44.82,2.15.02.05.04.11.06.16,5,12.93,9.67,24.7,11.08,34.06.39,2.58.75,4.97,1.1,7.25,0,.05.01.11.02.16,1.7,11.3,2.91,19.36,4.72,30.21.97,5.74,2.7,6.7,3.12,9.75.06.41.06.84.06,1.35,0,.48,0,1.22.17,2.36.13,1.39.26,2.78.55,4.52.91,5.54,1.63,6.93,2.29,9.25,1.7,5.97,2.37,9.09,2.2,13.2-.22,5.43-1.57,8.04-4.07,10.68-1.28,1.36-2.55,3.05-4.55,4.87-2.85,2.59-3.24,2.71-4.4,1.26-1.52-1.9.41-4.49-.28-9.2-.95-6.45-2.48-8.26-2.97-16.15-.08-1.19-.82,5.27-3.33,7.64-1.99,1.88-5.35,1.75-4.8.8,5.07-8.88.62-14.57,2.83-21.38.7-2.19,2.68-5.69,2.58-7.34,0-.14-.04-.3-.06-.44,0-.04-.01-.09-.02-.13-.41-3.75-2.71-8.36-5.91-14.13-4.44-8-6.98-12.91-13.26-27.2-.21-.49-.43-.99-.66-1.52-.39-.9-.79-1.81-1.18-2.75-7.31-17.38-8.56-32.52-8.86-34.38-.14-.86-.35-1.82-.57-2.82,0-.05-.02-.09-.03-.14-1.03-4.45-2.85-10.1-4.85-16.09-2-6.02-4.17-12.38-5.88-18.22-.54-1.85-1.87-7.3-2.41-9.58-.16.51-.31,1.03-.47,1.55-1.59,8.51-2.97,28.18,1.05,42.7.63,3.14,2.16,8.81,3.57,14.2.55,2.12.96,4.4,1.37,6.65.82,4.46,1.37,8.03,1.66,11.27,1.19,3.46,1.85,5.3,3.27,9.12,3.39,9.17,8.94,21.18,9.13,41.47.03,4.26-.16,8.9-.65,13.94-1.22,12.5-10.27,39.21-13.64,51.96-7.51,28.35-11.76,45.35-12.31,55.35-.71,12.9.94,16.95,2.4,24.76,2.86,15.2.77,28.33-2.62,40.37-6.26,22.26-12.83,32.15-13.5,43.83-.17,2.92,1.88,4.13.75,7.82-.59,1.92-1.58,3.76-.07,8.03,5.11,14.47,11.75,18.26,10.97,23.54-.87,5.85-19.31,5.48-26.53,4.16-5.94-1.08-5.86-10.05-4.15-20.3.35-2.08.52-4.4.4-7.95-.07-1.76-.51-3.8-.75-6.27-.22-2.28.41-4.68.75-6.59.26-1.44.52-2.6.56-3.21,1.7-22.35,1.1-27.71-1.54-48.74-2.67-21.23,1.07-25.04.6-38.03-.28-7.69-2.47-15.56-3.05-23.89-.74-10.46.28-20.32,1.31-27.75,2.87-20.54,2.85-23.86,3.77-40.11,1-17.63-4.3-26.28-1.27-41.49-.7.27-2.42.39-4.12.38-1.69,0-3.41-.11-4.12-.38,3.02,15.21-2.27,23.86-1.27,41.49.92,16.25.91,19.56,3.77,40.11,1.04,7.43,2.05,17.3,1.31,27.75-.58,8.33-2.77,16.2-3.05,23.89-.46,12.99,3.27,16.8.6,38.03-2.64,21.02-3.13,26.38-1.54,48.74.04.61.31,1.77.56,3.21.34,1.91.96,4.31.75,6.59-.24,2.47-.68,4.51-.75,6.27-.13,3.55.04,5.87.39,7.95,1.71,10.26,1.79,19.22-4.15,20.3-7.22,1.32-25.66,1.69-26.53-4.16-.78-5.28,5.86-9.07,10.97-23.54,1.51-4.27.51-6.11-.07-8.03-1.14-3.69.92-4.9.75-7.82-.66-11.68-7.23-21.57-13.5-43.83-3.39-12.03-5.47-25.17-2.62-40.37,1.47-7.81,3.11-11.85,2.4-24.76-.55-10-4.8-26.99-12.31-55.35-3.38-12.75-12.42-39.46-13.64-51.96-.49-5.04-.68-9.68-.65-13.94.18-20.28,5.74-32.3,9.12-41.47,1.3-3.49,1.97-5.36,3.02-8.37.3-3.66.9-7.61,1.95-12.88.33-1.66.64-3.34,1.05-4.94,1.52-5.91,3.28-12.43,3.97-15.95,0,0,0,0,0,0,3.85-14.07,2.75-32.56,1.2-40.94-.25-.82-.49-1.63-.73-2.41-.54,2.28-1.87,7.73-2.41,9.58-1.72,5.86-3.89,12.24-5.9,18.28-1.99,6-3.82,11.65-4.84,16.09-.02.05-.03.1-.04.16-.21.97-.42,1.89-.55,2.74-.31,1.91-1.61,17.8-9.44,35.75-.43.98-.84,1.92-1.24,2.82-.02.04-.04.09-.05.13-6.27,14.25-8.8,19.16-13.23,27.15-3.22,5.8-5.53,10.43-5.92,14.19,0,.09-.03.2-.04.29-.01.13-.03.28-.02.42.04,1.7,1.9,5.03,2.57,7.14,2.2,6.81-2.24,12.5,2.83,21.38.54.95-2.82,1.08-4.8-.8-2.51-2.37-3.25-8.83-3.33-7.64-.49,7.89-2.03,9.7-2.97,16.15-.69,4.7,1.24,7.3-.28,9.2-1.16,1.45-1.55,1.33-4.4-1.26-2.01-1.83-3.27-3.52-4.55-4.87-2.5-2.64-3.85-5.24-4.07-10.68-.17-4.11.5-7.23,2.2-13.2.75-2.64,1.58-4.1,2.67-11.48.34-2.28.35-3.6.35-4.56,0-.03,0-.13,0-.16,0-.48,0-.88.06-1.27.43-3.04,2.15-4,3.12-9.75,1.82-10.88,3.02-18.94,4.73-30.29,0-.05.02-.1.02-.15.34-2.25.7-4.62,1.09-7.17,1.41-9.38,6.14-21.17,11.12-34.14.02-.05.03-.1.05-.15.26-.69.53-1.38.8-2.08.51-1.34,1.58-11.46,2-16.8.51-6.66,5.35-67.67,8.65-76.87,2.47-6.87,4.86-9.62,7.16-10.53v-.02Z"/>
  </g>
</svg>