<?xml version="1.0" encoding="UTF-8"?>
<svg id="_레이어_2" data-name="레이어 2" xmlns="http://www.w3.org/2000/svg" viewBox="0 0 212.64 571.25">
  <defs>
    <style>
      .cls-1 {
        fill: #f3a9aa;
        stroke: #231815;
        stroke-miterlimit: 10;
      }
    </style>
  </defs>
  <g id="_레이어_1-2" data-name="레이어 1">
    <path class="cls-1" d="m212.12,325.38c-.22,5.43-1.57,8.04-4.07,10.67-1.28,1.36-2.55,3.04-4.55,4.87-2.85,2.59-3.24,2.72-4.4,1.26-1.52-1.9.42-4.49-.28-9.19-.95-6.45-2.48-8.26-2.97-16.14-.08-1.19-.82,5.27-3.33,7.64-1.99,1.88-5.35,1.75-4.8.8,5.07-8.87.62-14.57,2.83-21.37.7-2.19,2.67-5.69,2.58-7.33-.01-.14-.04-.3-.06-.44,0-.05-.02-.1-.02-.15-.41-3.74-2.71-8.35-5.91-14.11-4.44-8-6.98-12.91-13.26-27.19l-.06-.15c-.39-.88-.79-1.79-1.21-2.75-7.82-17.95-9.13-33.83-9.44-35.74-.14-.87-.35-1.82-.57-2.81,0-.05-.02-.1-.04-.15-2.06-8.9-7.31-22.64-10.72-34.28-.54-1.85-1.87-7.3-2.41-9.57-4,12.88-9.58,32.32-3.65,44,.02.1,4.21,13.01,7.84,20.72,6.21,13.22,6.87,14.82,9.2,20.72.02.05.04.09.06.14,3.72,9.1,9.42,21.12,9.63,41.31v.15c.04,4.26-.16,8.88-.67,13.94-1.29,12.5-10.85,39.19-14.42,51.94-7.93,28.33-12.42,45.33-13,55.32-.75,12.9.99,16.94,2.54,24.75,3,15.19.81,28.32-2.77,40.35-6.62,22.24-13.56,32.13-14.26,43.81-.18,2.9,2,4.13.8,7.82-.62,1.92-1.68,3.75-.08,8.03,5.39,14.47,12.41,18.25,11.58,23.53-.92,5.85-20.39,5.48-28.01,4.16-6.27-1.09-6.19-10.04-4.39-20.31.37-2.07.55-4.39.41-7.94-.07-1.76-.54-3.8-.79-6.28-.23-2.27.43-4.67.79-6.58.27-1.45.54-2.61.59-3.2,1.69-22.35,1.17-27.71-1.62-48.72-2.83-21.22,1.13-25.04.63-38.01-.3-7.69-2.61-15.55-3.22-23.88-.78-10.45.29-20.31,1.38-27.74,3.02-20.53,3-23.85,3.98-40.09,1.06-17.63-4.54-26.26-1.34-41.47-.74.26-2.55.39-4.35.38-1.8-.02-3.61-.12-4.35-.38,3.19,15.2-2.4,23.84-1.34,41.47.98,16.24.96,19.56,3.98,40.09,1.1,7.43,2.17,17.29,1.39,27.74-.62,8.33-2.93,16.19-3.23,23.88-.49,12.98,3.46,16.79.64,38.01-2.79,21-3.31,26.36-1.63,48.72.05.6.33,1.76.59,3.2.37,1.91,1.02,4.31.79,6.58-.25,2.48-.71,4.52-.79,6.28-.14,3.54.05,5.87.41,7.94,1.81,10.26,1.9,19.22-4.38,20.31-7.63,1.32-27.1,1.69-28.02-4.16-.83-5.28,6.19-9.06,11.59-23.53,1.59-4.27.54-6.11-.08-8.03-1.2-3.68.97-4.91.8-7.82-.71-11.68-7.65-21.57-14.26-43.81-3.58-12.03-5.78-25.16-2.77-40.35,1.55-7.81,3.29-11.85,2.53-24.75-.58-9.99-5.07-26.99-12.99-55.32-3.57-12.75-13.12-39.44-14.42-51.94-.52-5.05-.72-9.67-.68-13.94v-.15c.23-20.19,5.92-32.2,9.63-41.31.02-.05.04-.09.06-.14,2.34-5.9,2.98-7.51,9.21-20.72,3.63-7.72,7.82-20.62,7.85-20.72h-.01c5.94-11.68.36-31.13-3.65-44-.54,2.28-1.87,7.73-2.41,9.57-3.41,11.64-8.66,25.38-10.72,34.28-.02.05-.03.1-.04.15-.23,1-.43,1.95-.57,2.81-.31,1.91-1.61,17.79-9.44,35.74-.41.96-.82,1.87-1.21,2.75l-.06.15c-6.28,14.29-8.82,19.2-13.26,27.19-3.2,5.76-5.49,10.36-5.91,14.11,0,.05-.02.1-.02.15-.02.14-.05.3-.06.44-.09,1.64,1.88,5.14,2.58,7.33,2.2,6.81-2.24,12.5,2.83,21.37.54.95-2.82,1.08-4.8-.8-2.51-2.37-3.25-8.82-3.33-7.64-.49,7.89-2.03,9.69-2.97,16.14-.69,4.7,1.25,7.3-.28,9.19-1.16,1.46-1.55,1.33-4.4-1.26-2.01-1.83-3.27-3.51-4.55-4.87-2.5-2.64-3.85-5.24-4.07-10.67-.17-4.11.5-7.23,2.2-13.2.75-2.64,1.58-4.1,2.67-11.48.34-2.28.35-3.59.35-4.56v-.15c0-.48,0-.89.06-1.28.41-3.04,2.15-4,3.12-9.74,1.82-10.87,3.02-18.94,4.73-30.28.01-.05.02-.1.02-.15.35-2.25.7-4.61,1.09-7.17,1.41-9.37,6.14-21.16,11.12-34.13.02-.05.03-.1.05-.15.27-.69.53-1.38.8-2.08.5-1.34,1.58-11.46,2-16.79.51-6.66,5.35-67.64,8.66-76.84,2.47-6.87,4.86-9.61,7.16-10.52v-.02s1.86-.89,2.99-1.3c3.37-1.21,7.6-1.84,12.07-2.55.3-.05.61-.1.92-.15,3.62-.67,13.24-1.41,16.79-2.8,5.27-2.05,9.61-4.6,12.23-10.99,1.1-2.7,1.54-10.19,1.72-15.31-2.5-2.35-4.45-5.37-5.66-10.39-.22-.9-.47-1.97-.73-3.11-2.75.98-3.46-3.29-3.97-4.53-.56-1.36-1.3-1.49-2.04-4.49-.5-2,.36-3.31,0-4.6-.25-.87-.36-3.31.74-4.15.12-.09.26-.14.41-.18-1.63-6.26-2.67-16.48.73-24.31,1.46-3.38,3.28-6.11,5.19-8.28,4.51-5.56,11.95-9.2,20.38-9.2s15.88,3.64,20.38,9.2c1.91,2.17,3.72,4.89,5.19,8.28,3.4,7.83,2.36,18.05.73,24.31.16.04.3.09.41.18,1.1.84.99,3.28.74,4.15-.35,1.29.51,2.61,0,4.6-.74,3-1.48,3.13-2.04,4.49-.51,1.24-1.22,5.51-3.97,4.53-.26,1.15-.51,2.22-.73,3.11-1.22,5.02-3.16,8.05-5.66,10.39.18,5.12.62,12.62,1.72,15.31,2.62,6.39,6.97,8.94,12.23,10.99,3.55,1.39,13.17,2.13,16.79,2.8.31.05.62.1.92.15,4.48.71,8.7,1.34,12.07,2.55,1.14.41,2.99,1.3,2.99,1.3v.02c2.3.91,4.69,3.65,7.16,10.52,3.31,9.19,8.14,70.18,8.65,76.84.41,5.33,1.49,15.45,2,16.79.27.7.53,1.39.8,2.08.02.05.03.1.05.15,4.98,12.97,9.7,24.76,11.12,34.13.39,2.56.74,4.92,1.09,7.17,0,.05.01.1.02.15,1.71,11.34,2.91,19.41,4.73,30.28.97,5.74,2.71,6.7,3.12,9.74.06.39.06.8.06,1.28v.15c0,.97.01,2.29.35,4.56,1.09,7.38,1.92,8.84,2.67,11.48,1.7,5.97,2.37,9.08,2.2,13.2Z"/>
  </g>
</svg>