<?xml version="1.0" encoding="UTF-8"?>
<svg id="_레이어_2" data-name="레이어 2" xmlns="http://www.w3.org/2000/svg" viewBox="0 0 212.64 571.25">
  <defs>
    <style>
      .cls-1 {
        fill: #f3a9aa;
        stroke: #231815;
        stroke-miterlimit: 10;
      }
    </style>
  </defs>
  <g id="_레이어_1-2" data-name="레이어 1">
    <path class="cls-1" d="m212.12,325.3c-.22,5.43-1.57,8.03-4.07,10.67-1.29,1.36-2.55,3.04-4.56,4.87-2.85,2.58-3.24,2.71-4.4,1.26-1.52-1.9.41-4.49-.28-9.19-.95-6.45-2.48-8.25-2.97-16.14-.08-1.19-.82,5.27-3.33,7.63-1.99,1.88-5.35,1.75-4.8.8,5.07-8.87.62-14.56,2.83-21.37.7-2.19,2.67-5.69,2.58-7.33,0-.14-.04-.3-.06-.44,0-.05-.02-.1-.02-.15-.41-3.74-2.71-8.34-5.91-14.1-4.44-7.99-6.98-12.9-13.26-27.19-.02-.05-.04-.1-.06-.15-.38-.88-.79-1.79-1.21-2.74-7.82-17.94-9.13-33.82-9.44-35.73-.14-.87-.35-1.82-.57-2.81-.01-.05-.02-.1-.04-.15-2.07-8.9-7.31-22.64-10.72-34.27-.54-1.85-1.87-7.3-2.41-9.57-4,12.87-9.58,32.32-3.65,43.99.02.1.04.19.07.29,1.43,5.57,5.06,11.52,9.55,19.03,4,6.69,6.45,11.9,7.91,15.44,1.45,3.53,1.91,5.4,1.91,5.4.18.42.36.85.54,1.28h-.01c.05.1.09.19.13.29,3.9,9.08,9.88,21.06,10.14,41.15,0,.1,0,.19,0,.29.04,4.27-.17,8.89-.71,13.94-1.36,12.5-11.43,39.17-15.19,51.93-8.35,28.32-13.07,45.32-13.68,55.31-.8,12.89,1.04,16.93,2.67,24.74,3.17,15.18.86,28.31-2.91,40.34-6.97,22.24-14.27,32.13-15.01,43.8-.19,2.9,2.09,4.12.84,7.81-.65,1.92-1.77,3.75-.09,8.02,5.68,14.45,13.07,18.24,12.2,23.52-.97,5.85-21.48,5.48-29.5,4.16-6.61-1.09-6.52-10.04-4.61-20.3.38-2.07.58-4.39.43-7.94-.08-1.75-.57-3.79-.83-6.27-.24-2.28.45-4.68.83-6.58.29-1.45.57-2.6.62-3.2,1.78-22.35,1.22-27.71-1.71-48.7-2.96-21.22,1.2-25.03.67-38-.31-7.68-2.75-15.55-3.4-23.87-.82-10.45.32-20.31,1.46-27.74,3.18-20.53,3.17-23.85,4.2-40.08,1.12-17.63-4.77-26.26-1.42-41.46-.77.26-2.68.38-4.57.37-1.89,0-3.8-.11-4.57-.37,3.36,15.2-2.53,23.83-1.42,41.46,1.04,16.23,1.02,19.55,4.2,40.08,1.16,7.43,2.28,17.29,1.46,27.74-.65,8.32-3.08,16.19-3.4,23.87-.52,12.97,3.64,16.79.67,38-2.93,21-3.49,26.36-1.71,48.7.05.6.34,1.76.62,3.2.38,1.9,1.08,4.3.83,6.58-.26,2.48-.75,4.52-.83,6.27-.15,3.55.05,5.88.43,7.94,1.91,10.26,2,19.21-4.61,20.3-8.02,1.32-28.53,1.69-29.5-4.16-.87-5.28,6.52-9.07,12.2-23.52,1.68-4.27.57-6.11-.09-8.02-1.25-3.69,1.03-4.91.85-7.81-.74-11.68-8.05-21.57-15.02-43.8-3.76-12.03-6.09-25.16-2.91-40.34,1.63-7.81,3.47-11.85,2.67-24.74-.61-9.99-5.34-26.99-13.68-55.31-3.75-12.75-13.82-39.43-15.18-51.93-.55-5.05-.76-9.67-.72-13.94,0-.1.01-.19.01-.29.26-20.09,6.23-32.07,10.14-41.15.04-.1.08-.19.13-.29.19-.43.37-.86.54-1.28,0,0,1.82-7.46,9.82-20.84,4.5-7.51,8.12-13.46,9.55-19.03.03-.1.05-.19.07-.29h0c5.94-11.68.36-31.12-3.65-43.99-.54,2.28-1.87,7.72-2.41,9.57-3.41,11.64-8.66,25.37-10.72,34.27-.02.05-.03.1-.04.15-.23,1-.43,1.95-.57,2.81-.31,1.91-1.61,17.78-9.44,35.73-.41.96-.82,1.87-1.21,2.74l-.06.15c-6.28,14.28-8.82,19.19-13.26,27.19-3.2,5.76-5.49,10.36-5.91,14.1,0,.05-.02.1-.02.15-.02.14-.05.3-.06.44-.09,1.64,1.88,5.14,2.58,7.33,2.2,6.81-2.24,12.5,2.83,21.37.54.95-2.82,1.08-4.8-.8-2.51-2.37-3.25-8.82-3.33-7.63-.49,7.88-2.03,9.69-2.97,16.14-.69,4.7,1.25,7.3-.28,9.19-1.16,1.46-1.55,1.33-4.4-1.26-2.01-1.83-3.27-3.51-4.55-4.87-2.5-2.63-3.85-5.24-4.07-10.67-.17-4.11.5-7.23,2.2-13.19.75-2.63,1.58-4.1,2.67-11.48.34-2.28.35-3.59.35-4.56v-.15c0-.48,0-.89.06-1.28.41-3.04,2.15-4,3.12-9.74,1.82-10.87,3.02-18.93,4.73-30.27.01-.05.02-.1.02-.15.35-2.25.7-4.61,1.09-7.17,1.41-9.37,6.14-21.16,11.12-34.12.02-.05.03-.1.05-.15.27-.69.53-1.38.8-2.08.5-1.34,1.58-11.46,2-16.79.51-6.66,5.35-67.63,8.66-76.82,2.47-6.87,4.86-9.61,7.16-10.52v-.02s1.86-.89,2.99-1.3c3.37-1.21,7.6-1.84,12.07-2.55.3-.05.61-.1.92-.15,3.62-.67,13.24-1.41,16.79-2.79,5.27-2.05,9.61-4.6,12.23-10.99,1.1-2.69,1.54-10.19,1.72-15.31-2.5-2.35-4.45-5.37-5.66-10.39-.22-.9-.47-1.97-.73-3.11-2.75.98-3.46-3.29-3.97-4.53-.56-1.36-1.3-1.49-2.04-4.49-.5-2,.36-3.31,0-4.6-.25-.87-.36-3.31.74-4.15.12-.09.26-.14.41-.18-1.63-6.26-2.67-16.48.73-24.3,1.46-3.38,3.28-6.11,5.19-8.27,4.51-5.56,11.95-9.2,20.38-9.2s15.88,3.64,20.38,9.2c1.91,2.17,3.72,4.89,5.19,8.27,3.4,7.82,2.36,18.04.73,24.3.16.04.3.09.42.18,1.1.84.99,3.28.74,4.15-.35,1.29.51,2.6,0,4.6-.74,3-1.48,3.13-2.05,4.49-.51,1.24-1.23,5.51-3.97,4.53-.26,1.15-.51,2.22-.73,3.11-1.22,5.02-3.16,8.04-5.66,10.39.18,5.12.62,12.61,1.72,15.31,2.62,6.39,6.97,8.94,12.23,10.99,3.55,1.39,13.17,2.13,16.79,2.79.31.05.62.1.92.15,4.48.71,8.7,1.34,12.07,2.55,1.14.41,2.99,1.3,2.99,1.3v.02c2.3.91,4.69,3.65,7.16,10.52,3.31,9.19,8.14,70.16,8.66,76.82.41,5.33,1.49,15.45,2,16.79.27.7.53,1.39.8,2.08.02.05.03.1.05.15,4.98,12.96,9.7,24.75,11.12,34.12.38,2.55.74,4.92,1.09,7.17,0,.05,0,.1.02.15,1.71,11.34,2.91,19.4,4.73,30.27.97,5.74,2.71,6.7,3.12,9.74.06.39.06.8.06,1.28v.15c0,.97,0,2.29.35,4.56,1.09,7.38,1.92,8.84,2.67,11.48,1.7,5.97,2.37,9.08,2.2,13.19Z"/>
  </g>
</svg>