<?xml version="1.0" encoding="UTF-8"?>
<svg id="_레이어_2" data-name="레이어 2" xmlns="http://www.w3.org/2000/svg" viewBox="0 0 215.21 571.79">
  <defs>
    <style>
      .cls-1 {
        fill: #f2a7a9;
        stroke: #221714;
        stroke-miterlimit: 10;
      }
    </style>
  </defs>
  <g id="_레이어_1-2" data-name="레이어 1">
    <path class="cls-1" d="m.51,325.55c0,.21.02.42.03.63.25,5.02,1.53,7.58,3.83,10.08.18.2.36.39.55.6,1.14,1.22,2.3,2.68,3.99,4.26.24.22.47.43.69.63,2.25,2,2.82,2.25,3.75,1.31.22-.23.41-.5.59-.82.96-1.78-.45-4.17-.02-8.15.04-.4.1-.8.16-1.2.93-5.79,2.33-7.8,2.86-14.86.03-.44.1-.41.25-.18.25.39.96,4.33,2.68,6.49.35.44.75.8,1.18,1.08,1.47.96,3.23,1.02,3.57.68.28-.27.45-.63.21-1.1-4.23-8.03-.71-13.45-2.22-19.66-.15-.61-.36-1.26-.61-1.94-.67-1.73-1.77-3.89-2.01-5.35-.02-.13-.03-.28-.04-.41,0-.05,0-.09-.01-.14-.07-.57-.07-1.11,0-1.6.02-.15.06-.3.09-.45.6-3.31,2.53-7.27,5.17-12.05.41-.74.82-1.48,1.24-2.23,3.98-7.13,6.56-12.16,12.17-24.72.02-.04.04-.09.05-.13.39-.87.79-1.78,1.21-2.73.37-.84.75-1.7,1.12-2.58,6.71-15.63,8.35-29.46,8.88-33.23.16-1.12.33-2.07.47-2.8,0-.04.02-.09.03-.13.22-1.07.51-2.24.83-3.47,1.21-4.66,3.12-10.37,5.12-16.31,1.53-4.54,3.11-9.21,4.47-13.65.4-1.3.91-3.09,1.39-4.87.36-1.34.81-3.13,1.17-4.6.49-.15,1.01-.29,1.44,0,.17.51.32,1.04.49,1.56,1.7,7.94,3.41,24.05,2.37,37.45,0,.02.04.03.03.05-1.06,6.35-3.13,12.8-5.55,19.22-3.19,8.48-4.78,17.03-5.09,23.13-.26.6-.45,1.04-.56,1.3-.07.15-.12.27-.12.29-3.35,9.08-8.55,21.06-8.65,41.08,0,.1-.01.19-.01.29v.15c-.03,4.24.15,8.82.61,13.82,1.17,12.52,9.82,39.25,13.04,52.02,7.18,28.39,11.23,45.42,11.76,55.43.68,12.92-.89,16.96-2.29,24.79-2.73,15.21-.74,28.37,2.5,40.42,5.98,22.28,12.26,32.19,12.9,43.89.15,2.91-1.82,4.13-.73,7.83.57,1.92,1.52,3.76.07,8.04-4.88,14.48-11.22,18.28-10.47,23.57.83,5.86,18.44,5.49,25.34,4.17,5.67-1.09,5.6-10.06,3.96-20.34-.33-2.08-.5-4.4-.37-7.96.06-1.75.49-3.8.71-6.28.21-2.28-.39-4.69-.71-6.59-.24-1.45-.5-2.61-.54-3.22-1.52-22.38-1.05-27.75,1.47-48.79,2.55-21.26-1.02-25.08-.57-38.08.26-7.71,2.35-15.58,2.91-23.92.71-10.47-.26-20.35-1.25-27.79-2.74-20.58-2.72-23.9-3.61-40.16-.95-17.66,4.11-26.31,1.22-41.54.67.26,2.31.36,3.93.37,1.63.02,3.27-.11,3.94-.37-2.89,15.23,2.17,23.88,1.21,41.54-.88,16.26-.87,19.58-3.6,40.16-.99,7.44-1.96,17.32-1.26,27.79.56,8.34,2.65,16.21,2.92,23.92.45,13-3.12,16.82-.58,38.08,2.53,21.04,3.16,26.42,1.48,48.79-.05.61-.3,1.77-.54,3.22-.32,1.9-.93,4.31-.72,6.59.22,2.48.65,4.53.72,6.28.13,3.56-.04,5.88-.37,7.96-1.64,10.28-1.72,19.25,3.96,20.34,6.89,1.32,24.51,1.69,25.34-4.17.75-5.29-5.6-9.09-10.48-23.57-1.44-4.28-.48-6.12.08-8.04,1.08-3.7-.89-4.92-.73-7.83.64-11.7,6.91-21.61,12.9-43.89,3.24-12.05,5.22-25.21,2.5-40.42-1.4-7.83-2.97-11.87-2.29-24.79.52-9.93,4.51-26.76,11.58-54.74.11-.46.23-.92.36-1.39,3.24-12.62,11.21-37.46,12.72-50.14.1-.83.18-1.63.24-2.41.34-4.02.49-7.76.5-11.27,0-.02,0-.12,0-.14,0-.09,0-.18,0-.28,0-.77,0-1.53-.02-2.28,0-.03,0-.13,0-.15,0-.1,0-.19,0-.29-.35-18.07-4.8-29.42-8.02-38.1-.02-.05-.06-.16-.11-.28-.3-.73-.69-1.74-1.19-2.96-.02-.06-.07-.17-.13-.29-.15-.34-.34-.78-.58-1.32-.62-5.41-2.05-12-4.08-18.81-.53-1.79-1-3.51-1.55-5.1-1.64-4.69-3.12-9.4-3.93-14.16,0-.02.04-.03.04-.05-1.18-14.83,1.18-34.12,2.87-42.61.17-.52.32-1.04.48-1.55.55,2.28,1.89,7.74,2.44,9.59,1.72,5.82,3.91,12.16,5.92,18.16,2.03,6.03,3.89,11.72,4.93,16.19.01.05.02.09.03.14.22,1,.44,1.95.58,2.82.3,1.86,1.56,17.03,8.97,34.44.39.93.79,1.84,1.19,2.74.24.53.45,1.03.67,1.52,6.36,14.31,8.93,19.23,13.42,27.24,3.24,5.78,5.57,10.4,5.98,14.15,0,.04.01.09.02.13.02.14.05.3.06.44.1,1.64-1.9,5.15-2.61,7.35-2.23,6.82,2.27,12.52-2.86,21.4-.55.95,2.85,1.08,4.86-.8,2.54-2.37,3.29-8.84,3.37-7.65.5,7.9,2.05,9.71,3.01,16.17.7,4.71-1.25,7.31.28,9.21,1.17,1.46,1.57,1.33,4.45-1.26,2.03-1.83,3.31-3.52,4.61-4.88,2.53-2.64,3.9-5.25,4.12-10.69.17-4.12-.51-7.24-2.23-13.22-.67-2.32-1.4-3.72-2.32-9.27-.29-1.74-.42-3.13-.56-4.51-.17-1.14-.18-1.87-.18-2.36,0-.52,0-.94-.06-1.36-.43-3.05-2.18-4.01-3.16-9.76-1.84-10.86-3.05-18.93-4.78-30.25,0-.05-.02-.11-.02-.16-.35-2.28-.72-4.67-1.11-7.26-1.43-9.37-6.16-21.16-11.22-34.1-.02-.05-.04-.11-.06-.16-.28-.71-.56-1.43-.83-2.16-.51-1.34-1.6-11.48-2.02-16.82-.52-6.67-5.41-67.76-8.76-76.97-2.5-6.88-4.92-9.63-7.25-10.54v-.02s-1.88-.89-3.03-1.3c-.59-.21-1.21-.39-1.85-.57l-40.52-15.53c-.05-.11-.1-.22-.15-.33-1.11-2.7-1.56-10.21-1.74-15.34,2.53-2.35,4.5-5.38,5.73-10.41.22-.9.48-1.97.74-3.12,2.78.98,3.5-3.3,4.02-4.54.57-1.36,1.31-1.5,2.07-4.5.51-2.01-.37-3.32,0-4.61.24-.87.36-3.32-.75-4.16-.12-.09-.26-.14-.42-.19,1.65-6.27,2.7-16.51-.74-24.34-1.48-3.39-3.32-6.12-5.25-8.29-4.56-5.58-12.1-9.22-20.63-9.22s-16.07,3.64-20.63,9.22c-1.93,2.16-3.77,4.9-5.25,8.29-3.44,7.84-2.39,18.08-.74,24.34-.16.05-.3.09-.42.19-1.11.84-.99,3.29-.75,4.16.36,1.29-.52,2.6-.01,4.61.76,3,1.5,3.14,2.07,4.5.52,1.24,1.24,5.52,4.02,4.54.26,1.15.52,2.22.74,3.12,1.23,5.03,3.2,8.06,5.73,10.41-.18,5.13-.63,12.64-1.74,15.34-.05.12-.1.22-.15.33l-40.52,15.53c-.64.18-1.26.36-1.85.57-1.15.41-3.03,1.3-3.03,1.3v.02c-2.33.91-4.75,3.66-7.25,10.54-3.35,9.21-8.24,70.3-8.76,76.97-.42,5.34-1.51,15.48-2.02,16.82-.27.7-.54,1.39-.81,2.08-.02.05-.03.1-.05.15-5.04,12.99-9.82,24.8-11.25,34.19-.39,2.56-.75,4.93-1.1,7.18,0,.05-.01.1-.02.15-1.73,11.36-2.95,19.44-4.79,30.33-.98,5.75-2.73,6.71-3.16,9.76-.06.39-.06.79-.06,1.27v.16c0,.97-.01,2.29-.35,4.57-1.07,7.21-1.9,8.78-2.65,11.31-.04.13-.08.26-.12.4-1.63,5.69-2.3,8.77-2.18,12.7Z"/>
  </g>
</svg>