<?xml version="1.0" encoding="UTF-8"?>
<svg id="_레이어_2" data-name="레이어 2" xmlns="http://www.w3.org/2000/svg" viewBox="0 0 215.2 571.94">
  <defs>
    <style>
      .cls-1 {
        fill: #f2a7a9;
        stroke: #221714;
        stroke-miterlimit: 10;
      }
    </style>
  </defs>
  <g id="_레이어_1-2" data-name="레이어 1">
    <path class="cls-1" d="m.53,325.99c.23,5.03,1.46,7.61,3.7,10.09.18.2.36.39.55.59,1.14,1.21,2.29,2.67,3.96,4.25.23.21.45.42.69.63,2.25,2.01,2.9,2.39,3.75,1.65.22-.19.43-.45.64-.78,1.18-1.75-.27-4.11.06-8.08.03-.39.08-.79.14-1.2.92-5.92,2.32-7.91,2.88-14.8.04-.45.1-.67.18-.81.18-.31.78,3.95,2.53,6.45.32.46.69.85,1.08,1.16,1.28.99,2.92,1.23,3.6,1.08.59-.13.96-.44.72-.89-4.43-8.03-1.07-13.45-2.3-19.55-.13-.63-.31-1.28-.54-1.95-.57-1.61-1.67-3.73-2.08-5.31-.03-.13-.06-.27-.08-.4-.01-.05-.02-.09-.03-.13-.13-.59-.19-1.12-.14-1.58.02-.14.05-.3.07-.44.46-3.3,2.34-7.26,4.97-12.06.4-.73.81-1.47,1.23-2.22,4.08-7.3,6.63-12.2,12.17-24.57.02-.04.03-.08.05-.12.39-.87.79-1.77,1.21-2.71.39-.89.79-1.8,1.2-2.74,6.52-14.94,8.38-28.34,9.03-33.08.17-1.24.31-2.19.41-2.78,0-.04.01-.08.02-.12.18-.97.43-2.04.71-3.16,1.12-4.56,3.01-10.26,5.02-16.25,1.5-4.46,3.06-9.07,4.45-13.49.47-1.49.98-3.23,1.46-4.93.31-1.11.75-2.85,1.16-4.47.49-1.04,1.01-2.13,1.37-2.57.16.51.31,1.04.48,1.55.5,5.84.43,22.51-1.13,37.4,0,.03.01.05.01.08-.99,6.81-2.73,13.5-4.52,19.48-1.77,5.88-2.43,12.17-2.57,18.43-1.28,2.48-2.21,4.63-3.21,7.18-.02.05-.04.1-.06.15-3.59,9.08-9.1,21.09-9.22,41.22,0,.1,0,.2-.01.3-.02,4.28.15,8.91.65,13.96,1.24,12.52,10.39,39.26,13.81,52.03,7.6,28.39,11.9,45.42,12.46,55.42.72,12.93-.94,16.97-2.43,24.8-2.89,15.21-.78,28.36,2.65,40.42,6.34,22.28,12.99,32.19,13.66,43.88.17,2.92-1.9,4.14-.76,7.83.6,1.93,1.6,3.77.07,8.05-5.17,14.48-11.89,18.27-11.1,23.56.88,5.86,19.55,5.5,26.85,4.18,6.01-1.09,5.93-10.06,4.2-20.34-.35-2.08-.52-4.4-.39-7.96.06-1.76.51-3.81.75-6.28.22-2.28-.41-4.69-.75-6.6-.26-1.44-.53-2.6-.57-3.21-1.54-22.39-1.12-27.75,1.55-48.79,2.7-21.27-1.08-25.08-.61-38.08.29-7.71,2.5-15.58,3.09-23.92.75-10.47-.28-20.36-1.33-27.8-2.89-20.57-2.88-23.89-3.81-40.15-1.02-17.66,4.34-26.32,1.28-41.55.71.27,2.45.37,4.17.38,1.72,0,3.46-.11,4.17-.38-3.06,15.23,2.3,23.89,1.29,41.55-.94,16.26-.92,19.58-3.82,40.15-1.05,7.44-2.08,17.33-1.33,27.8.59,8.34,2.81,16.21,3.09,23.92.47,13-3.31,16.81-.61,38.08,2.67,21.04,3.28,26.42,1.56,48.79-.05.61-.31,1.77-.57,3.21-.34,1.91-.98,4.32-.76,6.6.24,2.47.69,4.52.76,6.28.13,3.56-.05,5.88-.4,7.96-1.73,10.28-1.81,19.25,4.2,20.34,7.31,1.32,25.97,1.68,26.85-4.18.79-5.29-5.93-9.08-11.1-23.56-1.53-4.28-.53-6.12.07-8.05,1.14-3.69-.93-4.91-.76-7.83.67-11.69,7.32-21.6,13.66-43.88,3.43-12.06,5.54-25.21,2.65-40.42-1.48-7.83-3.15-11.87-2.43-24.8.55-9.81,4.7-26.38,12.03-53.81.19-.7.38-1.42.58-2.15,3.31-12.19,11.4-36.08,13.34-49.11.17-1.13.3-2.2.39-3.2.35-3.73.52-7.23.57-10.53,0-.09,0-.19,0-.28.01-1.1,0-2.17,0-3.22,0-.1,0-.2-.01-.3-.27-17.51-4.65-28.76-8.03-37.36-.02-.04-.03-.08-.05-.12,0,0,0,0,0,0-.53-1.35-1.04-2.63-1.55-3.86-.02-.05-.04-.1-.06-.15,0,0,0,0,0,0-.99-2.45-1.97-4.6-3.32-7.15-.2-4.39-.76-8.87-1.62-13.34-.36-1.89-.7-3.67-1.16-5.3-1.25-4.41-2.51-9.22-3.26-14.25,0-.03.02-.05.01-.08-1.76-16.32-1.68-36.4-1.22-42.72.16-.51.31-1.04.47-1.55.55,2.28,1.89,7.74,2.44,9.59,1.73,5.84,3.92,12.2,5.95,18.23,2.02,6.01,3.87,11.67,4.91,16.13.01.04.02.09.03.13.23,1,.44,1.96.58,2.82.3,1.84,1.53,16.63,8.68,33.75.38.92.77,1.83,1.17,2.73.34.77.66,1.5.97,2.21,6.36,14.31,8.93,19.23,13.42,27.24,3.25,5.78,5.58,10.41,5.99,14.16,0,.04.01.08.01.12.02.14.05.3.06.44.1,1.65-1.9,5.15-2.61,7.35-2.23,6.81,2.27,12.51-2.86,21.4-.55.95,2.85,1.08,4.86-.8,2.54-2.37,3.29-8.84,3.37-7.65.5,7.9,2.05,9.71,3.01,16.17.7,4.71-1.25,7.31.28,9.21,1.17,1.46,1.57,1.34,4.45-1.26,2.03-1.83,3.31-3.52,4.61-4.88,2.53-2.64,3.9-5.25,4.12-10.69.17-4.12-.51-7.24-2.23-13.22-.62-2.16-1.3-3.52-2.13-8.16-.27-1.47-.46-2.89-.66-4.48-.26-1.71-.26-2.74-.26-3.46,0-.53,0-.97-.06-1.39-.42-3.05-2.18-4.01-3.16-9.76-1.83-10.85-3.05-18.91-4.77-30.2,0-.05-.02-.11-.02-.16-.35-2.29-.72-4.7-1.12-7.29-1.43-9.36-6.18-21.12-11.2-34.06-.02-.06-.04-.11-.06-.17-.28-.73-.56-1.45-.85-2.19-.51-1.34-1.6-11.48-2.02-16.82-.52-6.67-5.41-67.76-8.76-76.97-2.5-6.88-4.92-9.63-7.25-10.54v-.02s-1.88-.89-3.03-1.3c-.67-.24-1.38-.45-2.11-.64l-40.26-15.43c-.05-.11-.1-.21-.15-.32-1.11-2.7-1.56-10.21-1.74-15.34,2.53-2.35,4.5-5.38,5.73-10.41.22-.9.48-1.98.74-3.12,2.78.98,3.5-3.3,4.02-4.54.57-1.37,1.31-1.5,2.07-4.5.51-2.01-.37-3.32-.01-4.61.24-.87.36-3.32-.75-4.16-.12-.09-.26-.14-.42-.19,1.65-6.26,2.7-16.5-.74-24.34-1.48-3.39-3.32-6.13-5.25-8.29-4.55-5.58-12.09-9.22-20.62-9.22s-16.07,3.64-20.63,9.22c-1.93,2.16-3.77,4.9-5.25,8.29-3.44,7.84-2.39,18.08-.74,24.34-.16.05-.3.1-.42.19-1.11.84-.99,3.29-.75,4.16.36,1.29-.52,2.6-.01,4.61.76,3,1.5,3.13,2.07,4.5.52,1.24,1.24,5.52,4.02,4.54.26,1.14.52,2.22.74,3.12,1.23,5.03,3.2,8.06,5.73,10.41-.18,5.13-.63,12.64-1.74,15.34-.05.11-.1.22-.15.33l-40.22,15.42c-.75.2-1.47.41-2.15.65-1.15.41-3.03,1.3-3.03,1.3v.02c-2.33.91-4.75,3.66-7.25,10.54-3.35,9.21-8.24,70.3-8.76,76.97-.42,5.34-1.51,15.48-2.02,16.82-.27.7-.54,1.39-.81,2.08-.02.05-.04.1-.05.15-5.04,12.99-9.82,24.8-11.25,34.19-.39,2.56-.75,4.93-1.1,7.19,0,.05-.01.1-.02.14-1.73,11.36-2.95,19.44-4.79,30.33-.98,5.75-2.74,6.71-3.16,9.76-.06.39-.06.79-.06,1.27v.16c0,.97-.01,2.29-.35,4.57-1.06,7.12-1.88,8.74-2.62,11.22-.04.13-.08.26-.11.38-1.63,5.68-2.31,8.77-2.21,12.65,0,.21.01.42.02.63Z"/>
  </g>
</svg>