<?xml version="1.0" encoding="UTF-8"?>
<svg id="_레이어_2" data-name="레이어 2" xmlns="http://www.w3.org/2000/svg" viewBox="0 0 215.2 571.94">
  <defs>
    <style>
      .cls-1 {
        fill: #f2a7a9;
        stroke: #221714;
        stroke-miterlimit: 10;
      }
    </style>
  </defs>
  <g id="_레이어_1-2" data-name="레이어 1">
    <path class="cls-1" d="m90.33,89.87l-38.66,14.82c-1.26.29-2.46.61-3.57,1-1.15.41-3.03,1.3-3.03,1.3v.02c-2.33.91-4.75,3.66-7.25,10.54-3.35,9.21-8.24,70.3-8.76,76.97-.42,5.34-1.51,15.48-2.02,16.82-.27.7-.54,1.39-.81,2.08-.02.05-.03.1-.05.15-5.08,12.98-9.82,24.8-11.25,34.19-.39,2.56-.75,4.93-1.1,7.18,0,.05-.01.1-.02.15-1.73,11.36-2.95,19.44-4.79,30.33-.98,5.75-2.72,6.71-3.16,9.76-.06.39-.06.8-.06,1.28v.15c0,.97-.01,2.29-.35,4.57-1.09,7.3-1.92,8.82-2.67,11.41-.04.14-.08.27-.12.41-1.63,5.7-2.29,8.78-2.14,12.75,0,.21.02.43.03.63.28,5.02,1.59,7.55,3.96,10.06.18.2.37.39.55.6,1.13,1.23,2.3,2.7,4.02,4.27.24.22.48.43.7.63,2.25,1.99,2.75,2.1,3.75.97.23-.26.4-.55.54-.87.74-1.8-.62-4.23-.11-8.22.05-.41.11-.8.18-1.19.95-5.66,2.34-7.7,2.84-14.92.03-.43.12-.15.31.45.35,1.08,1.14,4.69,2.84,6.53.38.41.81.74,1.27,1,1.67.93,3.57.85,3.53.28-.02-.38-.06-.83-.3-1.32-4.02-8.03-.34-13.45-2.14-19.77-.17-.59-.41-1.24-.68-1.93-.76-1.85-1.86-4.05-1.93-5.39,0-.14,0-.29.01-.43,0-.05,0-.1,0-.14,0-.55.04-1.09.15-1.62.03-.15.07-.3.1-.45.74-3.33,2.72-7.28,5.38-12.04.42-.76.83-1.5,1.24-2.23,3.88-6.97,6.49-12.11,12.17-24.86.02-.05.04-.09.06-.14.39-.88.8-1.78,1.22-2.74.35-.8.7-1.61,1.05-2.42,6.87-16.34,8.32-30.58,8.73-33.38.15-.99.35-1.94.52-2.81,0-.05.02-.09.03-.14.26-1.19.6-2.49.97-3.85,1.3-4.76,3.24-10.48,5.22-16.37,1.54-4.57,3.1-9.23,4.43-13.63.35-1.16.87-3.09,1.37-5.01.39-1.53.83-3.27,1.13-4.52.51.74,1.06,1.53,1.58,2.59.17.51.34,1.04.51,1.56,2.89,10.02,6.36,25.42,5.84,37.27,0,0,.06.02.06.03-1.13,5.93-4.53,11.87-7.95,18.54-3.68,7.19-5.7,12.27-7.02,16.84-1.29,2.51-2.22,4.66-3.24,7.23-.02.05-.04.1-.06.15-3.59,9.08-9.1,21.09-9.22,41.22,0,.1,0,.2-.01.3-.02,4.28.15,8.91.65,13.96,1.24,12.52,10.39,39.26,13.81,52.03,7.6,28.39,11.9,45.42,12.46,55.42.72,12.93-.94,16.97-2.43,24.8-2.89,15.21-.78,28.36,2.65,40.42,6.34,22.28,12.99,32.19,13.66,43.88.17,2.92-1.9,4.14-.76,7.83.6,1.93,1.6,3.77.07,8.05-5.17,14.48-11.89,18.27-11.1,23.56.88,5.86,19.55,5.5,26.85,4.18,6.01-1.09,5.93-10.06,4.2-20.34-.35-2.08-.52-4.4-.39-7.96.06-1.76.51-3.81.75-6.28.22-2.28-.41-4.69-.75-6.6-.26-1.44-.53-2.6-.57-3.21-1.54-22.39-1.12-27.75,1.55-48.79,2.7-21.27-1.08-25.08-.61-38.08.29-7.71,2.5-15.58,3.09-23.92.75-10.47-.28-20.36-1.33-27.8-2.89-20.57-2.88-23.89-3.81-40.15-1.02-17.66,4.34-26.32,1.28-41.55.71.27,2.45.37,4.17.38,1.72.01,3.46-.11,4.17-.38-3.06,15.23,2.3,23.89,1.29,41.55-.94,16.26-.92,19.58-3.82,40.15-1.05,7.44-2.08,17.33-1.33,27.8.59,8.34,2.81,16.21,3.09,23.92.47,13-3.31,16.81-.61,38.08,2.67,21.04,3.28,26.42,1.56,48.79-.05.61-.31,1.77-.57,3.21-.34,1.91-.98,4.32-.76,6.6.24,2.47.69,4.52.76,6.28.13,3.56-.05,5.88-.4,7.96-1.73,10.28-1.81,19.25,4.2,20.34,7.31,1.32,25.97,1.68,26.85-4.18.79-5.29-5.93-9.08-11.1-23.56-1.53-4.28-.53-6.12.07-8.05,1.14-3.69-.93-4.91-.76-7.83.67-11.69,7.32-21.6,13.66-43.88,3.43-12.06,5.54-25.21,2.65-40.42-1.48-7.83-3.15-11.87-2.43-24.8.56-9.94,4.81-26.81,12.32-54.88.18-.69.38-1.41.59-2.16,3.62-13.01,11.84-37.37,13.26-49.62.13-1.12.24-2.2.32-3.25.31-3.77.43-7.31.44-10.63,0-.1,0-.2,0-.29,0-1.11-.03-2.2-.06-3.26,0-.1,0-.2-.01-.3-.65-17.84-5.39-29-8.76-37.55-.02-.05-.04-.09-.06-.14,0,0,0,0,0,0-.54-1.38-1.06-2.64-1.6-3.89-.02-.05-.04-.1-.06-.15,0,0,0,0,0,0-.98-2.26-2.06-4.42-3.56-7.14-1.21-3.49-2.94-7.46-5.28-12.52-.8-1.73-1.56-3.4-2.36-4.95-2.46-4.75-4.7-9.15-5.56-13.61,0,0,.07-.02.07-.03-.59-13.34,4.04-31.84,6.95-42.49.17-.52.33-1.05.49-1.56.55,2.28,1.89,7.74,2.44,9.59,1.72,5.79,3.89,12.11,5.9,18.09,2.04,6.06,3.9,11.77,4.95,16.26.02.05.03.1.04.14.22,1,.44,1.95.58,2.82.31,1.89,1.6,17.42,9.26,35.12.41.95.81,1.86,1.2,2.74.13.29.25.57.36.84,6.36,14.31,8.93,19.23,13.42,27.24,3.24,5.77,5.57,10.39,5.98,14.14,0,.05.02.09.02.14.02.14.05.3.06.44.1,1.64-1.9,5.15-2.61,7.34-2.23,6.82,2.27,12.52-2.86,21.41-.55.95,2.85,1.08,4.86-.8,2.54-2.37,3.29-8.84,3.37-7.65.5,7.9,2.05,9.71,3.01,16.17.7,4.71-1.25,7.31.28,9.21,1.17,1.46,1.57,1.33,4.45-1.26,2.03-1.83,3.31-3.52,4.61-4.88,2.53-2.64,3.9-5.25,4.12-10.69.17-4.12-.51-7.24-2.23-13.22-.71-2.48-1.5-3.91-2.51-10.39-.32-2.01-.39-3.36-.45-4.54-.09-.57-.09-1.01-.09-1.25,0-.5,0-.91-.06-1.32-.44-3.05-2.18-4.01-3.16-9.76-1.84-10.88-3.06-18.95-4.78-30.29,0-.05-.02-.1-.02-.15-.35-2.26-.71-4.65-1.11-7.22-1.43-9.38-6.17-21.19-11.23-34.15-.02-.05-.03-.1-.05-.16-.28-.7-.55-1.4-.82-2.12-.51-1.34-1.6-11.48-2.02-16.82-.52-6.67-5.41-67.76-8.76-76.97-2.5-6.88-4.92-9.63-7.25-10.54v-.02s-1.88-.89-3.03-1.3c-1.09-.39-2.29-.71-3.54-1l-38.69-14.83c-.1-.21-.2-.42-.29-.64-1.11-2.7-1.56-10.21-1.74-15.34,2.53-2.35,4.5-5.38,5.73-10.41.22-.9.48-1.97.74-3.12,2.78.98,3.5-3.3,4.02-4.54.57-1.36,1.31-1.49,2.07-4.5.51-2-.37-3.32-.01-4.61.24-.87.36-3.32-.75-4.16-.12-.09-.26-.14-.42-.18,1.65-6.27,2.7-16.51-.74-24.35-1.48-3.39-3.32-6.12-5.25-8.29-4.55-5.57-12.09-9.22-20.62-9.22s-16.07,3.65-20.63,9.22c-1.93,2.17-3.77,4.9-5.25,8.29-3.44,7.84-2.39,18.08-.74,24.35-.16.04-.3.09-.42.18-1.11.84-.99,3.29-.75,4.16.36,1.29-.52,2.61-.01,4.61.76,3.01,1.5,3.14,2.07,4.5.52,1.24,1.24,5.52,4.02,4.54.26,1.15.52,2.22.74,3.12,1.23,5.03,3.2,8.06,5.73,10.41-.18,5.13-.63,12.64-1.74,15.34-.09.22-.19.43-.29.65Z"/>
  </g>
</svg>