<?xml version="1.0" encoding="UTF-8"?>
<svg id="_레이어_2" data-name="레이어 2" xmlns="http://www.w3.org/2000/svg" viewBox="0 0 215.21 571.94">
  <defs>
    <style>
      .cls-1 {
        fill: #f2a7a9;
        stroke: #221714;
        stroke-miterlimit: 10;
      }
    </style>
  </defs>
  <g id="_레이어_1-2" data-name="레이어 1">
    <path class="cls-1" d="m210.33,304.47c-.27-1.48-.46-2.9-.66-4.51-.25-1.71-.26-2.74-.26-3.46,0-.53,0-.97-.06-1.39-.42-3.05-2.18-4.01-3.16-9.76-1.83-10.85-3.05-18.91-4.77-30.2,0-.05-.02-.11-.02-.16-.35-2.29-.72-4.7-1.12-7.29-1.43-9.36-6.18-21.12-11.2-34.06-.02-.06-.04-.11-.06-.17-.28-.73-.56-1.45-.85-2.19-.51-1.34-1.6-11.48-2.02-16.82-.52-6.67-5.41-67.76-8.76-76.97-2.5-6.88-4.92-9.63-7.25-10.54v-.02s-1.88-.89-3.03-1.3c-.67-.24-1.38-.45-2.11-.64l-40.26-15.43c-.05-.11-.1-.21-.15-.32-1.11-2.7-1.56-10.21-1.74-15.34,2.53-2.35,4.5-5.38,5.73-10.41.22-.9.48-1.98.74-3.12,2.78.98,3.5-3.3,4.02-4.54.57-1.37,1.31-1.5,2.07-4.5.51-2.01-.37-3.32,0-4.61.24-.87.36-3.32-.75-4.16-.12-.09-.26-.14-.42-.19,1.65-6.26,2.7-16.5-.74-24.34-1.48-3.39-3.32-6.13-5.25-8.29-4.56-5.58-12.1-9.22-20.63-9.22s-16.07,3.64-20.63,9.22c-1.93,2.16-3.77,4.9-5.25,8.29-3.44,7.84-2.39,18.08-.74,24.34-.16.05-.3.1-.42.19-1.11.84-.99,3.29-.75,4.16.36,1.29-.52,2.6-.01,4.61.76,3,1.5,3.13,2.07,4.5.52,1.24,1.24,5.52,4.02,4.54.26,1.14.52,2.22.74,3.12,1.23,5.03,3.2,8.06,5.73,10.41-.18,5.13-.63,12.64-1.74,15.34-.05.12-.1.22-.15.33l-40.19,15.4c-.76.2-1.49.41-2.18.66-1.15.41-3.03,1.3-3.03,1.3v.02c-2.33.91-4.75,3.66-7.25,10.54-3.35,9.21-8.24,70.3-8.76,76.97-.42,5.34-1.51,15.48-2.02,16.82-.27.7-.54,1.39-.81,2.08-.02.05-.04.1-.05.15-5.04,12.99-9.82,24.8-11.25,34.19-.39,2.56-.75,4.93-1.1,7.19,0,.05-.01.1-.02.14-1.73,11.36-2.95,19.44-4.79,30.33-.98,5.75-2.74,6.71-3.16,9.76-.06.39-.06.79-.06,1.27,0,.04,0,.12,0,.16,0,.97-.01,2.29-.35,4.57-1.1,7.39-1.94,8.86-2.7,11.5-1.72,5.98-2.4,9.1-2.23,13.22.22,5.44,1.59,8.05,4.12,10.69,1.3,1.36,2.58,3.05,4.61,4.88,2.88,2.6,3.28,2.72,4.45,1.26,1.53-1.9-.42-4.5.28-9.21.96-6.46,2.51-8.27,3.01-16.17.08-1.19.83,5.28,3.37,7.65,2.01,1.88,5.41,1.75,4.86.8-5.13-8.89-.63-14.59-2.86-21.4-.67-2.07-2.49-5.31-2.6-7.05,0-.14,0-.28,0-.41,0-.12.04-.25.05-.37.38-3.77,2.72-8.42,5.99-14.24,4.48-7.99,7.05-12.91,13.38-27.15.02-.04.04-.08.05-.12.41-.92.82-1.87,1.27-2.86,7.92-17.98,9.24-33.89,9.55-35.8.13-.83.34-1.74.55-2.7.01-.05.02-.11.04-.16,1.03-4.45,2.89-10.13,4.91-16.15,2.03-6.05,4.23-12.44,5.97-18.3.55-1.85,1.89-7.31,2.44-9.59.2.65.4,1.33.62,2,.52,6.2.75,25.29-1.71,41.2-.81,5.45-1.71,11.27-2.61,16.1-.29,1.54-.5,3.16-.72,4.79-.99,7.34-1.53,15.75-1.04,21.33.01,4.42.02,8.87,0,13.1-1.94,7.36-3.59,16.52-3.68,28.57-.03,4.28.13,8.91.55,13.96,1.03,12.52,8.64,39.26,11.49,52.03,6.32,28.39,9.89,45.41,10.36,55.42.6,12.93-.79,16.97-2.02,24.8-2.4,15.21-.65,28.36,2.2,40.42,5.28,22.28,10.81,32.19,11.37,43.88.14,2.92-1.59,4.14-.64,7.83.5,1.93,1.34,3.76.06,8.05-4.3,14.48-9.89,18.27-9.23,23.56.73,5.86,16.26,5.5,22.33,4.18,5-1.09,4.94-10.07,3.49-20.34-.29-2.08-.43-4.4-.32-7.96.05-1.76.42-3.81.62-6.28.18-2.28-.33-4.69-.62-6.6-.22-1.44-.44-2.6-.48-3.21-1.4-22.38-.92-27.75,1.3-48.79,2.24-21.27-.91-25.08-.51-38.08.23-7.71,2.08-15.58,2.57-23.93.62-10.46-.23-20.35-1.11-27.79-2.41-20.57-2.39-23.89-3.17-40.15-.85-17.66,3.61-26.32,1.07-41.55.59.27,2.03.38,3.47.38,1.43,0,2.87-.11,3.46-.38-2.54,15.23,1.92,23.89,1.07,41.55-.78,16.26-.76,19.58-3.17,40.15-.87,7.44-1.73,17.33-1.11,27.79.5,8.35,2.34,16.22,2.57,23.93.4,13-2.75,16.81-.51,38.08,2.23,21.04,2.7,26.41,1.3,48.79-.04.61-.26,1.77-.47,3.21-.28,1.91-.81,4.32-.63,6.6.2,2.47.57,4.52.63,6.28.11,3.56-.04,5.88-.33,7.96-1.44,10.27-1.51,19.25,3.49,20.34,6.08,1.32,21.6,1.68,22.33-4.18.66-5.29-4.93-9.08-9.23-23.56-1.27-4.29-.43-6.12.06-8.05.95-3.69-.78-4.91-.64-7.83.55-11.69,6.1-21.6,11.37-43.88,2.85-12.06,4.6-25.21,2.21-40.42-1.24-7.83-2.63-11.87-2.03-24.8.47-10.01,4.04-27.03,10.37-55.42,2.84-12.77,10.46-39.51,11.49-52.03.41-5.05.57-9.68.54-13.96-.09-12.34-1.82-21.63-3.82-29.08-.03-3.6-.02-7.36,0-11.14.5-5.45.01-13.84-.83-21.31-.26-2.32-.51-4.62-.91-6.75-.8-4.34-1.59-9.38-2.31-14.18-2.57-16.37-2.22-36.73-1.75-43.08.16-.51.31-1.04.47-1.55.55,2.28,1.89,7.74,2.44,9.59,1.74,5.85,3.93,12.23,5.96,18.27,2.01,5.99,3.86,11.64,4.9,16.09.01.04.02.09.03.13.23,1,.44,1.96.58,2.82.3,1.84,1.53,16.62,8.67,33.73.38.92.78,1.84,1.18,2.75.34.77.66,1.5.97,2.21,6.36,14.31,8.93,19.23,13.42,27.24,3.25,5.78,5.58,10.41,5.99,14.16,0,.04.01.08.01.12.02.14.05.3.06.44.1,1.65-1.9,5.15-2.61,7.35-2.23,6.81,2.27,12.51-2.86,21.4-.55.95,2.85,1.08,4.86-.8,2.54-2.37,3.29-8.84,3.37-7.65.5,7.9,2.05,9.71,3.01,16.17.7,4.71-1.25,7.31.28,9.21,1.17,1.46,1.57,1.34,4.45-1.26,2.03-1.83,3.31-3.52,4.61-4.88,2.53-2.64,3.9-5.25,4.12-10.69.17-4.12-.51-7.24-2.23-13.22-.62-2.15-1.29-3.51-2.12-8.14Z"/>
  </g>
</svg>