<?xml version="1.0" encoding="UTF-8"?>
<svg id="_레이어_2" data-name="레이어 2" xmlns="http://www.w3.org/2000/svg" viewBox="0 0 215.2 571.64">
  <defs>
    <style>
      .cls-1 {
        fill: #f2a7a9;
        stroke: #221714;
        stroke-miterlimit: 10;
      }
    </style>
  </defs>
  <g id="_레이어_1-2" data-name="레이어 1">
    <path class="cls-1" d="m209.75,301.07c-.34-2.28-.35-3.6-.35-4.57,0-.55,0-.99-.06-1.43-.42-3.05-2.18-4.01-3.16-9.76-1.84-10.89-3.06-18.97-4.79-30.33-.35-2.3-.72-4.72-1.12-7.33-1.43-9.39-6.21-21.2-11.25-34.19-.28-.74-.57-1.48-.86-2.23-.51-1.34-1.6-11.48-2.02-16.82-.52-6.67-5.41-67.76-8.76-76.97-2.5-6.88-4.92-9.63-7.25-10.54v-.02s-1.88-.89-3.03-1.3c-.33-.12-.67-.22-1.02-.33h0l-41.45-15.89s-.04-.09-.06-.14c-1.11-2.7-1.56-10.21-1.74-15.34,2.53-2.35,4.5-5.38,5.73-10.41.22-.9.48-1.98.74-3.12,2.78.98,3.5-3.3,4.02-4.54.57-1.37,1.32-1.5,2.07-4.5.51-2.01-.36-3.32-.01-4.61.25-.87.36-3.32-.75-4.16-.12-.09-.26-.14-.42-.19,1.65-6.26,2.7-16.5-.74-24.34-1.48-3.39-3.32-6.13-5.25-8.29-4.56-5.58-12.09-9.22-20.62-9.22s-16.07,3.64-20.63,9.22c-1.93,2.16-3.77,4.9-5.25,8.29-3.44,7.84-2.39,18.08-.74,24.34-.16.05-.3.1-.42.19-1.11.84-1,3.29-.75,4.16.35,1.29-.52,2.6,0,4.61.75,3,1.5,3.13,2.07,4.5.52,1.24,1.24,5.52,4.02,4.54.26,1.14.52,2.22.74,3.12,1.23,5.03,3.2,8.06,5.73,10.41-.18,5.13-.63,12.64-1.74,15.34-.02.05-.05.1-.07.15l-41.36,15.85c-.37.11-.74.23-1.09.35-1.15.41-3.03,1.3-3.03,1.3v.02c-2.33.91-4.75,3.66-7.25,10.54-3.35,9.21-8.24,70.3-8.76,76.97-.42,5.34-1.51,15.48-2.02,16.82-.29.75-.58,1.49-.86,2.23-5.04,12.99-9.82,24.8-11.25,34.19-.4,2.61-.77,5.03-1.12,7.33-1.73,11.36-2.95,19.44-4.79,30.33-.98,5.75-2.74,6.71-3.16,9.76-.06.44-.06.88-.06,1.43,0,.97-.01,2.29-.35,4.57-1.1,7.39-1.94,8.86-2.7,11.5-1.72,5.98-2.4,9.1-2.23,13.22.22,5.44,1.59,8.05,4.12,10.69,1.3,1.36,2.58,3.05,4.61,4.88,2.88,2.6,3.28,2.72,4.45,1.26,1.54-1.9-.42-4.5.28-9.21.96-6.46,2.51-8.27,3.01-16.17.08-1.19.83,5.28,3.37,7.65,2.01,1.88,5.41,1.75,4.86.8-5.13-8.89-.63-14.59-2.86-21.4-.71-2.2-2.7-5.7-2.61-7.35.01-.14.04-.3.06-.44.37-3.77,2.72-8.44,6-14.28,4.49-8.01,7.06-12.93,13.42-27.24.41-.93.83-1.89,1.28-2.9,7.92-17.98,9.24-33.89,9.55-35.8.14-.86.35-1.82.58-2.82,1.03-4.46,2.89-10.15,4.92-16.19,2.03-6.05,4.23-12.44,5.97-18.3.55-1.85,1.89-7.31,2.44-9.59.16.51.3,1.04.46,1.55-1,5.41-4.4,39.07-7.44,57.51-1.36,8.21-.4,20.63.66,31.42-2.93,8.51-6.25,19.64-6.38,36.34v.3c-.02,4.2.15,8.73.58,13.67,1.1,12.52,9.23,39.25,12.26,52.03,6.75,28.38,10.57,45.41,11.06,55.42.65,12.92-.83,16.97-2.15,24.79-2.56,15.21-.69,28.37,2.35,40.42,5.63,22.28,11.53,32.19,12.13,43.89.15,2.91-1.69,4.13-.68,7.83.53,1.92,1.43,3.76.07,8.04-4.59,14.48-10.56,18.28-9.86,23.57.79,5.86,17.35,5.49,23.84,4.17,5.34-1.09,5.27-10.06,3.73-20.34-.31-2.07-.47-4.4-.35-7.96.06-1.75.46-3.8.67-6.28.19-2.28-.37-4.69-.67-6.59-.23-1.45-.47-2.61-.51-3.21-1.43-22.39-.99-27.76,1.39-48.8,2.39-21.26-.97-25.08-.55-38.08.25-7.7,2.22-15.58,2.75-23.92.66-10.47-.25-20.35-1.18-27.79-2.58-20.57-2.56-23.89-3.39-40.16-.9-17.66,3.85-26.31,1.14-41.54.63.26,2.17.36,3.7.37,1.53.02,3.07-.11,3.7-.37-2.71,15.23,2.04,23.88,1.14,41.54-.83,16.27-.81,19.59-3.39,40.16-.93,7.44-1.84,17.32-1.18,27.79.53,8.34,2.5,16.22,2.75,23.92.42,13-2.94,16.82-.55,38.08,2.37,21.04,2.82,26.41,1.39,48.8-.04.6-.28,1.76-.51,3.21-.3,1.9-.86,4.31-.67,6.59.21,2.48.61,4.53.67,6.28.12,3.56-.04,5.89-.35,7.96-1.54,10.28-1.61,19.25,3.73,20.34,6.48,1.32,23.05,1.69,23.84-4.17.7-5.29-5.27-9.09-9.86-23.57-1.36-4.28-.46-6.12.07-8.04,1.01-3.7-.83-4.92-.68-7.83.6-11.7,6.5-21.61,12.13-43.89,3.04-12.05,4.91-25.21,2.35-40.42-1.32-7.82-2.8-11.87-2.16-24.79.5-10.01,4.32-27.04,11.07-55.42,3.03-12.78,11.16-39.51,12.26-52.03.43-4.94.6-9.47.58-13.67v-.3c-.13-16.71-3.46-27.84-6.39-36.35,1.07-10.79,2.02-23.2.66-31.41-3.04-18.44-6.44-52.1-7.44-57.51.16-.51.3-1.04.46-1.55.55,2.28,1.89,7.74,2.44,9.59,1.74,5.86,3.94,12.25,5.97,18.3,2.03,6.04,3.89,11.73,4.92,16.19.23,1,.44,1.96.58,2.82.31,1.91,1.63,17.82,9.55,35.8.45,1.01.87,1.97,1.28,2.9,6.36,14.31,8.93,19.23,13.42,27.24,3.28,5.84,5.63,10.51,6,14.28.02.14.05.3.06.44.09,1.65-1.9,5.15-2.61,7.35-2.23,6.81,2.27,12.51-2.86,21.4-.55.95,2.85,1.08,4.86-.8,2.54-2.37,3.29-8.84,3.37-7.65.5,7.9,2.05,9.71,3.01,16.17.7,4.71-1.26,7.31.28,9.21,1.17,1.46,1.57,1.34,4.45-1.26,2.03-1.83,3.31-3.52,4.61-4.88,2.53-2.64,3.9-5.25,4.12-10.69.17-4.12-.51-7.24-2.23-13.22-.76-2.64-1.6-4.11-2.7-11.5Z"/>
  </g>
</svg>