<?xml version="1.0" encoding="UTF-8"?>
<svg id="_레이어_2" data-name="레이어 2" xmlns="http://www.w3.org/2000/svg" viewBox="0 0 215.2 572.08">
  <defs>
    <style>
      .cls-1 {
        fill: #f2a7a9;
        stroke: #221714;
        stroke-miterlimit: 10;
      }
    </style>
  </defs>
  <g id="_레이어_1-2" data-name="레이어 1">
    <path class="cls-1" d="m210.32,304.46c-.27-1.47-.46-2.89-.66-4.49-.26-1.71-.26-2.74-.26-3.46,0-.53,0-.97-.06-1.39-.42-3.05-2.18-4.01-3.16-9.76-1.83-10.85-3.05-18.91-4.77-30.2,0-.05-.02-.11-.02-.16-.35-2.29-.72-4.7-1.11-7.29-1.43-9.36-6.18-21.12-11.2-34.06-.02-.06-.04-.11-.06-.17-.28-.73-.56-1.45-.85-2.19-.51-1.34-1.6-11.48-2.02-16.82-.52-6.67-5.41-67.76-8.76-76.97-2.5-6.88-4.92-9.63-7.25-10.54v-.02s-1.88-.89-3.03-1.3c-.86-.3-1.77-.57-2.73-.81l-39.61-15.18c-.06-.14-.12-.27-.18-.41-1.11-2.7-1.56-10.21-1.74-15.34,2.53-2.35,4.5-5.38,5.73-10.41.22-.9.48-1.98.74-3.12,2.78.98,3.5-3.3,4.02-4.54.57-1.37,1.32-1.5,2.07-4.5.51-2.01-.37-3.32-.01-4.61.24-.87.36-3.32-.75-4.16-.12-.09-.26-.14-.42-.19,1.65-6.26,2.7-16.5-.74-24.34-1.48-3.39-3.32-6.13-5.25-8.29-4.56-5.58-12.1-9.22-20.63-9.22s-16.06,3.64-20.62,9.22c-1.93,2.16-3.77,4.9-5.25,8.29-3.44,7.84-2.39,18.08-.74,24.34-.16.05-.3.1-.42.19-1.11.84-.99,3.29-.75,4.16.36,1.29-.52,2.6-.01,4.61.75,3,1.5,3.13,2.07,4.5.52,1.24,1.24,5.52,4.02,4.54.26,1.14.52,2.22.74,3.12,1.23,5.03,3.2,8.06,5.73,10.41-.18,5.13-.63,12.64-1.74,15.34-.06.14-.13.28-.19.42l-39.55,15.16c-.98.24-1.91.51-2.78.82-1.15.41-3.03,1.3-3.03,1.3v.02c-2.33.91-4.75,3.66-7.25,10.54-3.35,9.21-8.24,70.3-8.76,76.97-.42,5.34-1.51,15.48-2.02,16.82-.27.7-.54,1.39-.81,2.08-.02.05-.04.1-.05.15-5.04,12.99-9.82,24.8-11.25,34.19-.39,2.56-.75,4.93-1.1,7.19,0,.05-.01.1-.02.14-1.73,11.36-2.95,19.44-4.79,30.33-.98,5.75-2.74,6.71-3.16,9.76-.06.39-.06.79-.06,1.27,0,.04,0,.12,0,.16,0,.97,0,2.29-.35,4.57-1.06,7.12-1.88,8.74-2.62,11.22-.04.13-.08.26-.11.38-1.63,5.68-2.31,8.77-2.21,12.65,0,.21.01.42.02.63.23,5.03,1.46,7.61,3.7,10.09.18.2.36.39.55.59,1.14,1.21,2.29,2.67,3.96,4.25.23.21.45.42.69.63,2.25,2.01,2.9,2.39,3.75,1.65.22-.19.43-.45.64-.78,1.18-1.75-.27-4.11.06-8.08.03-.39.08-.79.14-1.2.92-5.92,2.32-7.91,2.88-14.8.04-.45.1-.67.18-.81.18-.31.78,3.95,2.53,6.45.32.46.69.85,1.08,1.16,1.28.99,2.92,1.23,3.6,1.08.59-.13.96-.44.72-.89-4.43-8.03-1.07-13.45-2.3-19.55-.13-.63-.31-1.28-.54-1.95-.57-1.61-1.67-3.73-2.08-5.31-.03-.13-.06-.27-.08-.4-.01-.05-.02-.09-.03-.13-.13-.59-.19-1.12-.14-1.58.02-.14.05-.3.07-.44.46-3.3,2.34-7.26,4.97-12.06.4-.73.81-1.47,1.23-2.22,4.08-7.3,6.63-12.2,12.17-24.57.02-.04.03-.08.05-.12.39-.87.79-1.77,1.21-2.71.39-.89.79-1.8,1.2-2.74,6.52-14.94,8.38-28.34,9.03-33.08.17-1.24.31-2.19.41-2.78,0-.04.01-.08.02-.12.18-.95.42-2.01.7-3.11,1.12-4.56,3-10.25,5.02-16.25,1.52-4.54,3.12-9.24,4.53-13.73.45-1.42.93-3.05,1.39-4.67.32-1.16.8-3.03,1.23-4.74.47-1,.96-2.02,1.31-2.44.16.51.32,1.04.48,1.55.56,5.87.63,22.74-1.63,37.69,0,0,0,0,0,0-1,6.76-2.53,13.39-4.33,19.35-1.32,4.37-1.93,9.11-2.44,14.49-1.74,2.81-3.66,6.26-6.07,11.25-.02.05-.04.1-.06.15-3.76,9.11-9.52,21.16-9.75,41.37v.15c-.04,4.27.16,8.91.69,13.96,1.31,12.52,10.98,39.26,14.59,52.03,8.02,28.39,12.57,45.41,13.15,55.42.77,12.92-.99,16.97-2.56,24.79-3.05,15.22-.82,28.37,2.8,40.42,6.7,22.29,13.72,32.19,14.43,43.89.17,2.92-2.02,4.14-.81,7.83.63,1.92,1.69,3.76.08,8.04-5.46,14.49-12.57,18.28-11.73,23.57.93,5.86,20.64,5.49,28.36,4.17,6.35-1.08,6.26-10.06,4.43-20.33-.37-2.08-.58-4.4-.42-7.96.08-1.76.55-3.81.8-6.28.23-2.28-.43-4.69-.8-6.6-.28-1.44-.55-2.6-.6-3.21-1.77-22.38-1.17-27.75,1.65-48.8,2.85-21.26-1.15-25.07-.65-38.08.3-7.7,2.64-15.58,3.27-23.92.79-10.46-.29-20.35-1.41-27.79-3.06-20.57-3.04-23.89-4.03-40.16-1.07-17.65,4.59-26.31,1.36-41.54.75.27,2.58.37,4.4.38s3.65-.11,4.4-.38c-3.23,15.23,2.43,23.89,1.36,41.54-.99,16.27-.97,19.59-4.03,40.16-1.11,7.44-2.19,17.33-1.4,27.79.62,8.34,2.96,16.22,3.27,23.92.5,13.01-3.5,16.82-.65,38.08,2.82,21.05,3.55,26.43,1.65,48.8-.05.61-.34,1.77-.61,3.21-.35,1.91-1.03,4.32-.8,6.6.25,2.47.73,4.52.8,6.28.15,3.56-.05,5.88-.42,7.96-1.83,10.27-1.91,19.25,4.44,20.33,7.71,1.32,27.42,1.69,28.36-4.17.83-5.29-6.27-9.08-11.73-23.57-1.62-4.28-.54-6.12.08-8.04,1.21-3.69-.99-4.91-.81-7.83.71-11.7,7.73-21.6,14.44-43.89,3.53-11.77,5.73-24.58,3-39.35-.09-.48-.18-.96-.28-1.43-1.49-7.31-3.11-11.41-2.56-23.05.03-.59.06-1.2.11-1.83.68-9.83,5.01-26.22,12.58-53.05.23-.83.48-1.68.73-2.56,3.5-12.16,11.94-35.8,14.03-48.84.19-1.21.34-2.36.45-3.43.36-3.66.54-7.1.58-10.33,0-.03,0-.11,0-.14.02-1.21.01-2.39-.01-3.54,0-.01,0-.14,0-.15-.35-17.57-4.91-28.87-8.49-37.48-.02-.04-.03-.08-.05-.12-.58-1.35-1.16-2.61-1.67-3.82-.02-.05-.04-.1-.06-.15-2.45-4.98-4.38-8.36-6.17-11.17-.34-3.29-.81-6.41-1.43-9.56-.37-1.85-.71-3.6-1.15-5.19-1.22-4.41-2.32-9.23-3.08-14.26,0,0,0,0,0,0-2.55-16.32-2.19-36.5-1.71-42.83.16-.51.31-1.04.47-1.55.55,2.28,1.89,7.74,2.44,9.59,1.73,5.84,3.93,12.21,5.95,18.24,2.02,6,3.87,11.66,4.91,16.12.01.04.02.09.03.13.23,1,.44,1.96.58,2.82.3,1.84,1.53,16.63,8.68,33.75.38.92.78,1.83,1.18,2.74.34.77.66,1.5.97,2.21,6.36,14.31,8.93,19.23,13.42,27.24,3.25,5.78,5.58,10.41,5.99,14.16,0,.04.01.08.01.12.02.14.05.3.06.44.1,1.65-1.9,5.15-2.61,7.35-2.23,6.81,2.27,12.51-2.86,21.4-.55.95,2.85,1.08,4.86-.8,2.54-2.37,3.29-8.84,3.37-7.65.5,7.9,2.05,9.71,3.01,16.17.7,4.71-1.25,7.31.28,9.21,1.17,1.46,1.57,1.34,4.45-1.26,2.03-1.83,3.31-3.52,4.61-4.88,2.53-2.64,3.9-5.25,4.12-10.69.17-4.12-.51-7.24-2.23-13.22-.62-2.16-1.3-3.52-2.13-8.15Z"/>
  </g>
</svg>