<?xml version="1.0" encoding="UTF-8"?>
<svg id="_레이어_2" data-name="레이어 2" xmlns="http://www.w3.org/2000/svg" viewBox="0 0 215.21 572.08">
  <defs>
    <style>
      .cls-1 {
        fill: #f2a7a9;
        stroke: #221714;
        stroke-miterlimit: 10;
      }
    </style>
  </defs>
  <g id="_레이어_1-2" data-name="레이어 1">
    <path class="cls-1" d="m209.76,301.22c-.34-2.28-.35-3.6-.35-4.57v-.15c0-.48,0-.89-.06-1.28-.42-3.05-2.18-4.01-3.16-9.76-1.84-10.89-3.06-18.97-4.79-30.33,0-.05-.02-.1-.02-.15-.35-2.25-.71-4.62-1.1-7.18-1.43-9.39-6.21-21.2-11.25-34.19-.02-.05-.03-.1-.05-.15-.27-.69-.54-1.38-.81-2.08-.51-1.34-1.6-11.48-2.02-16.82-.52-6.67-5.41-67.76-8.76-76.97-2.5-6.88-4.92-9.63-7.25-10.54v-.02s-1.88-.89-3.03-1.3c-.51-.18-1.05-.35-1.61-.51l-40.74-15.62c-.06-.13-.12-.25-.17-.39-1.11-2.7-1.56-10.21-1.74-15.34,2.53-2.35,4.5-5.38,5.73-10.41.22-.9.48-1.97.74-3.12,2.78.98,3.5-3.3,4.02-4.54.57-1.36,1.32-1.49,2.07-4.5.51-2-.36-3.32-.01-4.61.25-.87.36-3.32-.75-4.16-.12-.09-.26-.14-.42-.18,1.65-6.27,2.7-16.51-.74-24.35-1.48-3.39-3.32-6.12-5.25-8.29-4.56-5.57-12.1-9.22-20.63-9.22s-16.07,3.65-20.63,9.22c-1.93,2.17-3.77,4.9-5.25,8.29-3.44,7.84-2.39,18.08-.74,24.35-.16.04-.3.09-.42.18-1.11.84-1,3.29-.75,4.16.35,1.29-.52,2.61-.01,4.61.75,3.01,1.5,3.14,2.07,4.5.52,1.24,1.24,5.52,4.02,4.54.26,1.15.52,2.22.74,3.12,1.23,5.03,3.2,8.06,5.73,10.41-.18,5.13-.63,12.64-1.74,15.34-.06.14-.12.26-.18.4l-40.66,15.59c-.58.16-1.14.34-1.68.53-1.15.41-3.03,1.3-3.03,1.3v.02c-2.33.91-4.75,3.66-7.25,10.54-3.35,9.21-8.24,70.3-8.76,76.97-.42,5.34-1.51,15.48-2.02,16.82-.27.7-.54,1.39-.81,2.08-.02.05-.03.1-.05.15-5.04,12.99-9.82,24.8-11.25,34.19-.39,2.56-.75,4.93-1.1,7.18,0,.05-.01.1-.02.15-1.73,11.36-2.95,19.44-4.79,30.33-.98,5.75-2.74,6.71-3.16,9.76-.06.39-.06.8-.06,1.28v.15c0,.97,0,2.29-.35,4.57-1.1,7.39-1.94,8.86-2.7,11.5-1.72,5.98-2.4,9.1-2.23,13.22.22,5.44,1.59,8.05,4.12,10.69,1.3,1.36,2.58,3.05,4.61,4.88,2.88,2.59,3.28,2.72,4.45,1.26,1.54-1.9-.42-4.5.28-9.21.96-6.46,2.51-8.27,3.01-16.17.08-1.19.83,5.28,3.37,7.65,2.01,1.88,5.41,1.75,4.86.8-5.13-8.89-.63-14.59-2.86-21.41-.71-2.19-2.7-5.7-2.61-7.34,0-.14.04-.3.06-.44,0-.05.02-.1.02-.15.42-3.75,2.74-8.36,5.98-14.13,4.49-8.01,7.06-12.93,13.42-27.24.02-.05.04-.1.06-.15.39-.88.8-1.79,1.22-2.75,7.92-17.98,9.24-33.89,9.55-35.8.14-.87.35-1.82.58-2.82.01-.05.02-.1.04-.15,2.09-8.92,7.4-22.68,10.85-34.34.55-1.85,1.89-7.31,2.44-9.59,4.05,12.9,12.89,31.7,9.63,43.93h0c-1.25,5.53-4.37,11.14-8.95,18.17-5.03,7.75-7.97,10.36-14.25,23.35-.02.05-.04.1-.06.15-3.76,9.11-9.52,21.16-9.75,41.37v.15c-.04,4.27.16,8.91.69,13.96,1.31,12.52,10.98,39.26,14.59,52.03,8.02,28.39,12.56,45.41,13.15,55.42.77,12.92-.99,16.97-2.56,24.79-3.05,15.22-.82,28.37,2.8,40.42,6.69,22.29,13.71,32.19,14.43,43.89.17,2.92-2.02,4.14-.81,7.83.63,1.92,1.69,3.76.08,8.04-5.46,14.49-12.57,18.28-11.73,23.57.93,5.86,20.64,5.49,28.36,4.17,6.35-1.08,6.26-10.06,4.43-20.33-.37-2.08-.56-4.4-.42-7.96.08-1.76.55-3.81.8-6.28.23-2.28-.43-4.69-.8-6.6-.27-1.44-.55-2.6-.6-3.21-1.7-22.39-1.17-27.75,1.65-48.8,2.85-21.26-1.15-25.07-.65-38.08.3-7.7,2.64-15.58,3.27-23.92.79-10.46-.3-20.35-1.41-27.79-3.06-20.57-3.04-23.89-4.03-40.16-1.07-17.65,4.59-26.31,1.36-41.54.75.27,2.58.36,4.4.38,1.82.01,3.65-.11,4.4-.38-3.23,15.23,2.43,23.89,1.36,41.54-.99,16.27-.97,19.59-4.03,40.16-1.11,7.44-2.19,17.33-1.4,27.79.62,8.34,2.96,16.22,3.26,23.92.5,13.01-3.5,16.82-.64,38.08,2.82,21.05,3.35,26.41,1.64,48.8-.05.61-.33,1.77-.6,3.21-.36,1.91-1.03,4.32-.8,6.6.25,2.47.73,4.52.8,6.28.14,3.56-.05,5.88-.42,7.96-1.83,10.27-1.91,19.25,4.44,20.33,7.71,1.32,27.42,1.69,28.35-4.17.84-5.29-6.26-9.08-11.72-23.57-1.62-4.28-.55-6.12.08-8.04,1.21-3.69-.99-4.91-.81-7.83.71-11.7,7.73-21.6,14.43-43.89,3.62-12.05,5.84-25.2,2.8-40.42-1.57-7.82-3.33-11.87-2.57-24.79.59-10.01,5.13-27.03,13.16-55.42,3.61-12.77,13.28-39.51,14.59-52.03.52-5.05.72-9.69.68-13.96v-.15c-.22-20.21-5.99-32.26-9.75-41.37-.02-.05-.04-.1-.06-.15-6.27-12.99-9.22-15.6-14.25-23.35-4.57-7.03-7.69-12.64-8.94-18.17h-.01c-3.25-12.23,5.59-31.03,9.64-43.93.55,2.28,1.89,7.74,2.44,9.59,3.45,11.66,8.76,25.42,10.85,34.34.02.05.03.1.04.15.23,1,.44,1.95.58,2.82.31,1.91,1.63,17.82,9.55,35.8.42.96.83,1.87,1.22,2.75.02.05.04.1.06.15,6.36,14.31,8.93,19.23,13.42,27.24,3.24,5.77,5.56,10.38,5.98,14.13,0,.05.02.1.02.15.02.14.05.3.06.44.09,1.64-1.9,5.15-2.61,7.34-2.23,6.82,2.27,12.52-2.86,21.41-.55.95,2.85,1.08,4.86-.8,2.54-2.37,3.29-8.84,3.37-7.65.5,7.9,2.05,9.71,3.01,16.17.7,4.71-1.26,7.31.28,9.21,1.17,1.46,1.57,1.33,4.45-1.26,2.03-1.83,3.31-3.52,4.61-4.88,2.53-2.64,3.9-5.25,4.12-10.69.17-4.12-.51-7.24-2.23-13.22-.76-2.64-1.6-4.11-2.7-11.5Z"/>
  </g>
</svg>