<?xml version="1.0" encoding="UTF-8"?>
<svg id="_레이어_2" data-name="레이어 2" xmlns="http://www.w3.org/2000/svg" viewBox="0 0 215.2 572.08">
  <defs>
    <style>
      .cls-1 {
        fill: #f2a7a9;
        stroke: #221714;
        stroke-miterlimit: 10;
      }
    </style>
  </defs>
  <g id="_레이어_1-2" data-name="레이어 1">
    <path class="cls-1" d="m210.13,303.38c-.29-1.74-.42-3.13-.56-4.52-.17-1.14-.17-1.87-.17-2.36,0-.52,0-.94-.06-1.36-.43-3.05-2.18-4.01-3.16-9.76-1.84-10.86-3.05-18.93-4.78-30.25,0-.05-.02-.11-.02-.16-.35-2.28-.71-4.67-1.11-7.26-1.43-9.37-6.16-21.16-11.22-34.1-.02-.05-.04-.11-.06-.16-.28-.71-.56-1.43-.83-2.16-.51-1.34-1.6-11.48-2.02-16.82-.52-6.67-5.41-67.76-8.76-76.97-2.5-6.88-4.92-9.63-7.25-10.54v-.02s-1.88-.89-3.03-1.3c-.93-.33-1.94-.61-2.99-.87l-39.3-15.06c-.07-.17-.15-.33-.22-.5-1.11-2.7-1.56-10.21-1.74-15.34,2.53-2.35,4.5-5.38,5.73-10.41.22-.9.48-1.97.74-3.12,2.78.98,3.5-3.3,4.02-4.54.57-1.36,1.31-1.5,2.07-4.5.51-2.01-.37-3.32-.01-4.61.24-.87.36-3.32-.75-4.16-.12-.09-.26-.14-.42-.19,1.65-6.27,2.7-16.51-.74-24.34-1.48-3.39-3.32-6.12-5.25-8.29-4.56-5.58-12.1-9.22-20.63-9.22s-16.06,3.64-20.62,9.22c-1.93,2.16-3.77,4.9-5.25,8.29-3.44,7.84-2.39,18.08-.74,24.34-.16.05-.3.1-.42.19-1.11.84-.99,3.29-.75,4.16.36,1.29-.52,2.6-.01,4.61.76,3,1.5,3.14,2.07,4.5.52,1.24,1.24,5.52,4.02,4.54.26,1.15.52,2.22.74,3.12,1.23,5.03,3.2,8.06,5.73,10.41-.18,5.13-.63,12.64-1.74,15.34-.07.18-.15.34-.23.51l-39.24,15.04c-1.07.26-2.1.54-3.05.88-1.15.41-3.03,1.3-3.03,1.3v.02c-2.33.91-4.75,3.66-7.25,10.54-3.35,9.21-8.24,70.3-8.76,76.97-.42,5.34-1.51,15.48-2.02,16.82-.27.7-.54,1.39-.81,2.08-.02.05-.03.1-.05.15-5.07,12.98-9.82,24.8-11.25,34.19-.39,2.56-.75,4.93-1.1,7.18,0,.05-.01.1-.02.15-1.73,11.36-2.95,19.44-4.79,30.33-.98,5.75-2.73,6.71-3.16,9.76-.06.39-.06.79-.06,1.27v.16c0,.97,0,2.29-.35,4.57-1.07,7.21-1.9,8.78-2.65,11.31-.04.13-.08.26-.12.4-1.63,5.69-2.3,8.77-2.18,12.7,0,.21.02.42.03.63.25,5.02,1.53,7.58,3.83,10.08.18.2.36.39.55.6,1.14,1.22,2.3,2.68,3.99,4.26.24.22.47.43.69.63,2.25,2,2.82,2.25,3.75,1.31.22-.23.41-.5.59-.82.96-1.78-.45-4.17-.02-8.15.04-.4.1-.8.16-1.2.93-5.79,2.33-7.8,2.86-14.86.03-.44.1-.41.25-.18.25.39.96,4.33,2.68,6.49.35.44.75.8,1.18,1.08,1.47.96,3.23,1.02,3.57.68.28-.27.45-.63.21-1.1-4.23-8.03-.71-13.45-2.22-19.66-.15-.61-.36-1.26-.61-1.94-.67-1.73-1.77-3.89-2.01-5.35-.02-.13-.03-.28-.04-.41,0-.05,0-.09-.01-.14-.07-.57-.07-1.11,0-1.6.02-.15.06-.3.09-.45.6-3.31,2.53-7.27,5.18-12.05.41-.74.82-1.48,1.24-2.23,3.98-7.14,6.56-12.16,12.17-24.72.02-.04.04-.09.05-.13.39-.87.79-1.78,1.21-2.73.37-.84.75-1.7,1.12-2.58,6.71-15.63,8.35-29.46,8.88-33.23.16-1.12.33-2.07.47-2.8,0-.04.02-.09.03-.13.22-1.05.5-2.19.81-3.4,1.2-4.65,3.11-10.36,5.11-16.31,1.54-4.59,3.14-9.32,4.52-13.8.39-1.26.88-2.99,1.34-4.71.37-1.39.84-3.25,1.21-4.76.48-.15.98-.29,1.42,0,.17.51.33,1.04.5,1.55,1.82,7.98,3.82,24.22,1.4,37.63,0,0,0,0,0,0-1.08,6.35-3.16,12.63-5.87,18.96-1.92,4.48-3.07,8.59-4.32,13.65-1.74,2.82-3.67,6.28-6.1,11.3-.02.05-.04.1-.06.15-3.73,9.12-9.52,21.16-9.75,41.37v.15c-.04,4.27.16,8.91.69,13.96,1.31,12.52,10.98,39.26,14.59,52.03,8.02,28.39,12.56,45.41,13.15,55.42.77,12.92-.99,16.97-2.56,24.79-3.05,15.22-.82,28.37,2.8,40.42,6.69,22.29,13.71,32.19,14.43,43.89.17,2.92-2.02,4.14-.81,7.83.63,1.92,1.69,3.76.08,8.04-5.46,14.49-12.57,18.28-11.73,23.57.93,5.86,20.64,5.49,28.36,4.17,6.35-1.08,6.26-10.06,4.43-20.33-.37-2.08-.58-4.4-.42-7.96.08-1.76.55-3.81.8-6.28.23-2.28-.43-4.69-.8-6.6-.28-1.44-.55-2.6-.6-3.21-1.77-22.38-1.17-27.75,1.65-48.8,2.85-21.26-1.15-25.07-.65-38.08.3-7.7,2.64-15.58,3.27-23.92.79-10.46-.29-20.35-1.41-27.79-3.06-20.57-3.04-23.89-4.03-40.16-1.07-17.65,4.59-26.31,1.36-41.54.75.27,2.58.37,4.4.38,1.82.02,3.65-.11,4.4-.38-3.23,15.23,2.43,23.89,1.36,41.54-.99,16.27-.97,19.59-4.03,40.16-1.11,7.44-2.19,17.33-1.4,27.79.62,8.34,2.96,16.22,3.27,23.92.5,13.01-3.5,16.82-.65,38.08,2.82,21.05,3.51,26.42,1.65,48.8-.05.61-.33,1.77-.6,3.21-.35,1.91-1.03,4.32-.8,6.6.25,2.47.73,4.52.8,6.28.15,3.56-.05,5.88-.42,7.96-1.83,10.27-1.91,19.25,4.44,20.33,7.71,1.32,27.42,1.69,28.35-4.17.83-5.29-6.27-9.08-11.73-23.57-1.62-4.28-.54-6.12.08-8.04,1.21-3.69-.99-4.91-.81-7.83.71-11.7,7.73-21.6,14.44-43.89,3.56-11.86,5.76-24.79,2.93-39.71-.09-.49-.19-.97-.29-1.44-1.49-7.18-3.07-11.35-2.47-23.14.03-.59.07-1.2.12-1.83.78-9.96,5.16-26.43,12.73-53.23.23-.82.48-1.68.74-2.56,3.68-12.61,12.16-36.45,13.97-49.05.17-1.21.3-2.36.4-3.45.33-3.68.49-7.13.51-10.37,0-.02,0-.12,0-.14,0-1.22,0-2.4-.04-3.56,0-.02,0-.12,0-.15-.51-17.71-5.34-28.93-8.87-37.53-.02-.04-.03-.09-.05-.13-.61-1.36-1.2-2.62-1.74-3.81-.02-.05-.04-.09-.06-.14-2.5-5-4.45-8.32-6.3-11.15-.83-3.07-1.75-5.94-2.86-9.15-.61-1.77-1.14-3.46-1.74-5.02-1.78-4.61-3.23-9.24-4.06-14.01,0,0,0,0,0,0-2.74-14.79.18-34.19,1.91-42.68.17-.52.32-1.04.48-1.55.55,2.28,1.89,7.74,2.44,9.59,1.73,5.83,3.91,12.17,5.93,18.19,2.02,6.02,3.88,11.7,4.92,16.17.01.05.02.09.03.14.22,1,.44,1.95.58,2.82.3,1.86,1.56,17.03,8.97,34.43.4.93.79,1.84,1.19,2.74.23.53.46,1.03.67,1.52,6.36,14.31,8.93,19.23,13.42,27.24,3.24,5.78,5.57,10.4,5.98,14.15,0,.04.01.09.02.13.02.14.05.3.06.44.1,1.64-1.9,5.15-2.61,7.35-2.23,6.82,2.27,12.52-2.86,21.4-.55.95,2.85,1.08,4.86-.8,2.54-2.37,3.29-8.84,3.37-7.65.5,7.9,2.05,9.71,3.01,16.17.7,4.71-1.25,7.31.28,9.21,1.17,1.46,1.57,1.33,4.45-1.26,2.03-1.83,3.31-3.52,4.61-4.88,2.53-2.64,3.9-5.25,4.12-10.69.17-4.12-.51-7.24-2.23-13.22-.67-2.32-1.4-3.72-2.32-9.27Z"/>
  </g>
</svg>