<?xml version="1.0" encoding="UTF-8"?>
<svg id="_레이어_2" data-name="레이어 2" xmlns="http://www.w3.org/2000/svg" viewBox="0 0 215.21 571.64">
  <defs>
    <style>
      .cls-1 {
        fill: #f2a7a9;
        stroke: #221714;
        stroke-miterlimit: 10;
      }
    </style>
  </defs>
  <g id="_레이어_1-2" data-name="레이어 1">
    <path class="cls-1" d="m4.65,336.55c1.3,1.36,2.58,3.05,4.61,4.88,2.88,2.6,3.28,2.72,4.45,1.26,1.53-1.9-.42-4.5.28-9.21.96-6.46,2.51-8.27,3.01-16.17.08-1.19.83,5.28,3.37,7.65,2.01,1.88,5.41,1.75,4.86.8-5.13-8.89-.63-14.59-2.86-21.4-.68-2.11-2.56-5.44-2.6-7.15,0-.14,0-.29.02-.42,0-.1.03-.2.04-.29.4-3.76,2.73-8.4,5.99-14.21,4.48-8,7.17-12.86,13.39-27.18.02-.04.04-.09.06-.13.4-.91.82-1.84,1.25-2.83,7.92-17.98,9.24-33.89,9.55-35.8.14-.84.34-1.77.56-2.74.01-.05.02-.1.04-.16,1.03-4.45,2.88-10.1,4.9-16.11,2.03-6.05,4.23-12.44,5.97-18.31.55-1.85,1.89-7.31,2.44-9.59.24.78.49,1.59.76,2.41,1.75,8.37,4.01,26.77.74,41-.9,5.14-1.87,10.77-3.11,16.1-.37,1.6-.66,3.3-1.06,5.03-2.38,10.51-2.9,16.99-3.03,21.01-.05,1.55-.38,3.12-.58,4.72-2.94,8.53-6.29,19.69-6.43,36.49v.29c-.02,4.2.15,8.73.58,13.67,1.1,12.52,9.23,39.26,12.26,52.03,6.75,28.39,10.57,45.41,11.06,55.42.65,12.92-.83,16.97-2.15,24.79-2.56,15.22-.69,28.37,2.35,40.42,5.63,22.29,11.53,32.19,12.13,43.89.15,2.92-1.69,4.14-.68,7.83.53,1.92,1.43,3.76.07,8.04-4.59,14.49-10.56,18.28-9.86,23.57.79,5.86,17.35,5.49,23.84,4.17,5.34-1.08,5.27-10.06,3.73-20.33-.31-2.08-.47-4.4-.35-7.96.06-1.76.46-3.81.67-6.28.19-2.28-.37-4.69-.67-6.6-.23-1.44-.47-2.6-.51-3.21-1.43-22.38-.99-27.75,1.39-48.8,2.39-21.26-.97-25.07-.55-38.08.25-7.7,2.22-15.58,2.75-23.92.66-10.46-.25-20.35-1.18-27.79-2.58-20.57-2.56-23.89-3.39-40.16-.9-17.65,3.85-26.31,1.14-41.54.63.27,2.17.37,3.7.38s3.07-.11,3.7-.38c-2.71,15.23,2.04,23.89,1.14,41.54-.83,16.27-.81,19.59-3.39,40.16-.93,7.44-1.84,17.33-1.18,27.79.53,8.34,2.5,16.22,2.75,23.92.42,13.01-2.94,16.82-.55,38.08,2.37,21.05,2.82,26.42,1.39,48.8-.04.61-.28,1.77-.51,3.21-.3,1.91-.86,4.32-.67,6.6.21,2.47.61,4.52.67,6.28.12,3.56-.04,5.88-.35,7.96-1.54,10.27-1.61,19.25,3.73,20.33,6.48,1.32,23.05,1.69,23.84-4.17.7-5.29-5.27-9.08-9.86-23.57-1.36-4.28-.46-6.12.07-8.04,1.01-3.69-.83-4.91-.68-7.83.59-11.58,6.38-21.4,11.96-43.22.11-.44.23-.89.34-1.34,2.88-11.61,4.62-24.25,2.34-38.77-.11-.68-.22-1.34-.33-1.99-1.22-6.95-2.5-11.16-2.03-22.56.03-.78.08-1.59.14-2.45.71-9.94,4.35-26.24,10.59-52.54.25-1.05.52-2.15.8-3.3,3.09-12.56,10-35.72,11.58-48.27.19-1.5.33-2.93.43-4.26.24-3.26.36-6.34.4-9.27,0-.05,0-.24,0-.28.01-1.46,0-2.87-.03-4.25,0-.05,0-.24,0-.29-.45-17.03-4.25-28.04-7.18-36.49.28-4.35-.43-11.45-2.76-22.49-.51-2.41-.88-4.75-1.36-6.9-1.06-4.74-1.92-9.69-2.73-14.27-3.41-14.69-.8-34.26.9-42.77.17-.52.32-1.04.48-1.55.55,2.28,1.89,7.74,2.44,9.59,1.73,5.84,3.93,12.21,5.95,18.24,2.02,6,3.86,11.66,4.91,16.11.01.05.02.09.03.14.22,1,.44,1.95.58,2.82.3,1.86,1.56,17.02,8.96,34.42.4.94.8,1.85,1.2,2.75.24.53.45,1.04.67,1.52,6.33,14.32,8.93,19.23,13.42,27.24,3.24,5.78,5.57,10.4,5.98,14.15,0,.04.01.09.02.13.02.14.05.3.06.44.1,1.64-1.9,5.15-2.61,7.35-2.23,6.82,2.27,12.52-2.86,21.4-.55.95,2.85,1.08,4.86-.8,2.54-2.37,3.29-8.84,3.37-7.65.5,7.9,2.05,9.71,3.01,16.17.7,4.71-1.25,7.31.28,9.21,1.17,1.46,1.57,1.33,4.45-1.26,2.03-1.83,3.31-3.52,4.61-4.88,2.53-2.64,3.9-5.25,4.12-10.69.17-4.12-.51-7.24-2.23-13.22-.67-2.32-1.4-3.71-2.32-9.26-.29-1.74-.42-3.13-.56-4.53-.17-1.14-.18-1.87-.18-2.36,0-.52,0-.94-.06-1.36-.43-3.05-2.18-4.01-3.16-9.76-1.84-10.86-3.05-18.93-4.78-30.25,0-.05-.02-.11-.02-.16-.35-2.28-.72-4.67-1.11-7.26-1.43-9.37-6.16-21.16-11.22-34.1-.02-.05-.04-.11-.06-.16-.28-.71-.56-1.43-.83-2.16-.51-1.34-1.6-11.48-2.02-16.82-.52-6.67-5.41-67.76-8.76-76.97-2.5-6.88-4.92-9.63-7.25-10.54v-.02s-1.88-.89-3.03-1.3c-.33-.12-.67-.22-1.01-.33h0l-41.41-15.87c-.03-.08-.07-.15-.11-.24-1.11-2.7-1.56-10.21-1.74-15.34,2.53-2.35,4.5-5.38,5.73-10.41.22-.9.48-1.97.74-3.12,2.78.98,3.5-3.3,4.02-4.54.57-1.36,1.31-1.5,2.07-4.5.51-2.01-.37-3.32,0-4.61.24-.87.36-3.32-.75-4.16-.12-.09-.26-.14-.42-.19,1.65-6.27,2.7-16.51-.74-24.34-1.48-3.39-3.32-6.12-5.25-8.29-4.55-5.58-12.09-9.22-20.62-9.22s-16.07,3.64-20.63,9.22c-1.93,2.16-3.77,4.9-5.25,8.29-3.44,7.84-2.39,18.08-.74,24.34-.16.05-.3.1-.42.19-1.11.84-.99,3.29-.75,4.16.36,1.29-.52,2.6-.01,4.61.76,3,1.5,3.14,2.07,4.5.52,1.24,1.24,5.52,4.02,4.54.26,1.15.52,2.22.74,3.12,1.23,5.03,3.2,8.06,5.73,10.41-.18,5.13-.63,12.64-1.74,15.34-.04.09-.07.16-.11.25l-41.29,15.83c-.38.12-.75.23-1.12.36-1.15.41-3.03,1.3-3.03,1.3v.02c-2.33.91-4.75,3.66-7.25,10.54-3.35,9.21-8.24,70.3-8.76,76.97-.42,5.34-1.51,15.48-2.02,16.82-.27.7-.54,1.39-.81,2.08-.02.05-.03.1-.05.15-5.04,12.99-9.82,24.8-11.25,34.19-.39,2.56-.75,4.93-1.1,7.18,0,.05-.01.1-.02.15-1.73,11.36-2.95,19.44-4.79,30.33-.98,5.75-2.73,6.71-3.16,9.76-.06.39-.06.79-.06,1.27v.16c0,.97-.01,2.29-.35,4.57-1.1,7.39-1.94,8.86-2.7,11.5-1.72,5.98-2.4,9.1-2.23,13.22.22,5.44,1.59,8.05,4.12,10.69Z"/>
  </g>
</svg>