<?xml version="1.0" encoding="UTF-8"?>
<svg id="_레이어_2" data-name="레이어 2" xmlns="http://www.w3.org/2000/svg" viewBox="0 0 215.21 571.79">
  <defs>
    <style>
      .cls-1 {
        fill: #f2a7a9;
        stroke: #221714;
        stroke-miterlimit: 10;
      }
    </style>
  </defs>
  <g id="_레이어_1-2" data-name="레이어 1">
    <path class="cls-1" d="m209.95,302.3c-.31-2.01-.39-3.36-.45-4.55-.08-.57-.09-1.01-.09-1.26,0-.5,0-.91-.06-1.32-.44-3.05-2.18-4.01-3.16-9.76-1.84-10.88-3.06-18.95-4.78-30.29,0-.05-.02-.1-.02-.15-.35-2.26-.71-4.65-1.1-7.22-1.43-9.38-6.15-21.19-11.23-34.15-.02-.05-.03-.1-.05-.16-.28-.7-.55-1.4-.82-2.12-.51-1.34-1.6-11.48-2.02-16.82-.52-6.67-5.41-67.76-8.76-76.97-2.5-6.88-4.92-9.63-7.25-10.54v-.02s-1.88-.89-3.03-1.3c-.95-.34-1.98-.62-3.05-.88l-39.22-15.03c-.08-.19-.17-.36-.25-.56-1.11-2.7-1.56-10.21-1.74-15.34,2.53-2.35,4.5-5.38,5.73-10.41.22-.9.48-1.97.74-3.12,2.78.98,3.5-3.3,4.02-4.54.57-1.36,1.31-1.49,2.07-4.5.51-2-.37-3.32-.01-4.61.24-.87.36-3.32-.75-4.16-.12-.09-.26-.14-.42-.18,1.65-6.27,2.7-16.51-.74-24.35-1.48-3.39-3.32-6.12-5.25-8.29-4.56-5.57-12.1-9.22-20.63-9.22s-16.07,3.65-20.63,9.22c-1.93,2.17-3.77,4.9-5.25,8.29-3.44,7.84-2.39,18.08-.74,24.35-.16.04-.3.09-.42.18-1.11.84-.99,3.29-.75,4.16.36,1.29-.52,2.61-.01,4.61.76,3.01,1.5,3.14,2.07,4.5.52,1.24,1.24,5.52,4.02,4.54.26,1.15.52,2.22.74,3.12,1.23,5.03,3.2,8.06,5.73,10.41-.18,5.13-.63,12.64-1.74,15.34-.08.2-.17.38-.25.57l-39.16,15.01c-1.09.26-2.14.55-3.11.9-1.15.41-3.03,1.3-3.03,1.3v.02c-2.33.91-4.75,3.66-7.25,10.54-3.35,9.21-8.24,70.3-8.76,76.97-.42,5.34-1.51,15.48-2.02,16.82-.27.7-.54,1.39-.81,2.08-.02.05-.03.1-.05.15-5.08,12.98-9.82,24.8-11.25,34.19-.39,2.56-.75,4.93-1.1,7.18,0,.05-.01.1-.02.15-1.73,11.36-2.95,19.44-4.79,30.33-.98,5.75-2.72,6.71-3.16,9.76-.06.39-.06.8-.06,1.28v.15c0,.97,0,2.29-.35,4.57-1.1,7.39-1.94,8.86-2.7,11.5-1.72,5.98-2.4,9.1-2.23,13.22.22,5.44,1.59,8.05,4.12,10.69,1.3,1.36,2.58,3.05,4.61,4.88,2.88,2.59,3.28,2.72,4.45,1.26,1.53-1.9-.42-4.5.28-9.21.96-6.46,2.51-8.27,3.01-16.17.08-1.19.83,5.28,3.37,7.65,2.01,1.88,5.41,1.75,4.86.8-5.13-8.89-.63-14.59-2.86-21.41-.7-2.15-2.64-5.57-2.61-7.24,0-.14.03-.29.04-.43,0-.07.02-.15.03-.22.41-3.75,2.73-8.38,5.99-14.17,4.49-8,7.06-12.92,13.41-27.21.02-.05.04-.09.06-.14.39-.89.81-1.81,1.23-2.79,7.92-17.98,9.24-33.89,9.55-35.8.14-.86.35-1.79.57-2.78.01-.05.02-.1.04-.15,1.04-4.44,2.88-10.08,4.89-16.07,2.03-6.05,4.24-12.44,5.97-18.31.55-1.85,1.89-7.31,2.44-9.59.33,1.06.69,2.18,1.07,3.32,3,10.46,7.23,27.73,3.53,40.16-1.03,5.06-3.07,10.44-5.13,16.4-.42,1.21-.8,2.48-1.2,3.78-2.89,9.34-4.59,15.92-5.21,19.93-.39,1.13-.6,1.75-.66,1.9-3.48,9.08-8.49,21.18-8.66,41.38v.14c-.03,4.24.15,8.82.61,13.82,1.17,12.52,9.82,39.26,13.04,52.03,7.18,28.38,11.23,45.41,11.76,55.42.68,12.92-.89,16.97-2.29,24.79-2.73,15.22-.74,28.37,2.5,40.42,5.98,22.28,12.26,32.19,12.9,43.89.15,2.92-1.82,4.14-.73,7.83.57,1.92,1.52,3.76.07,8.04-4.88,14.49-11.22,18.28-10.47,23.57.83,5.86,18.44,5.49,25.34,4.17,5.67-1.08,5.6-10.06,3.96-20.34-.33-2.07-.5-4.4-.37-7.95.06-1.76.49-3.81.71-6.28.21-2.28-.39-4.69-.71-6.6-.24-1.45-.5-2.61-.54-3.21-1.52-22.39-1.05-27.75,1.47-48.8,2.55-21.26-1.02-25.08-.57-38.08.26-7.7,2.35-15.58,2.91-23.92.71-10.47-.26-20.35-1.25-27.79-2.74-20.57-2.72-23.89-3.61-40.16-.95-17.65,4.11-26.31,1.22-41.54.67.26,2.31.37,3.93.38,1.63.02,3.27-.12,3.94-.38-2.89,15.23,2.17,23.89,1.21,41.54-.88,16.27-.87,19.59-3.6,40.16-.99,7.44-1.96,17.32-1.26,27.79.56,8.34,2.65,16.22,2.92,23.92.45,13-3.12,16.82-.58,38.08,2.53,21.05,3.17,26.42,1.48,48.8-.05.6-.3,1.76-.54,3.21-.32,1.91-.93,4.32-.72,6.6.22,2.47.65,4.52.72,6.28.13,3.55-.04,5.88-.37,7.95-1.64,10.28-1.72,19.26,3.96,20.34,6.89,1.32,24.51,1.69,25.34-4.17.75-5.29-5.6-9.08-10.48-23.57-1.44-4.28-.48-6.12.08-8.04,1.08-3.69-.89-4.91-.73-7.83.64-11.7,6.91-21.61,12.9-43.89,3.24-12.05,5.22-25.2,2.5-40.42-1.4-7.82-2.97-11.87-2.29-24.79.52-10.01,4.58-27.04,11.76-55.42,3.22-12.77,11.87-39.51,13.04-52.03.46-5,.64-9.58.61-13.82v-.14c-.17-19.82-5.05-31.81-8.46-40.85-.11-.3-.36-1.01-.76-2.15-.16-.44-.37-1.07-.67-1.91-.78-4.18-2.32-10.05-4.6-17.69-.64-2.16-1.26-4.2-1.93-6.1-1.78-5.05-3.47-9.68-4.37-14.09-3.93-13.08,1.1-31.85,4.04-42.52.17-.52.33-1.04.49-1.55.55,2.28,1.89,7.74,2.44,9.59,1.72,5.82,3.91,12.16,5.92,18.17,2.03,6.03,3.88,11.71,4.93,16.18.02.05.03.1.04.14.22,1,.44,1.95.58,2.82.31,1.89,1.6,17.42,9.26,35.11.41.95.81,1.86,1.21,2.75.13.29.25.57.36.84,6.36,14.31,8.93,19.23,13.42,27.24,3.24,5.77,5.57,10.39,5.98,14.14,0,.05.02.09.02.14.02.14.05.3.06.44.1,1.64-1.9,5.15-2.61,7.34-2.23,6.82,2.27,12.52-2.86,21.41-.55.95,2.85,1.08,4.86-.8,2.54-2.37,3.29-8.84,3.37-7.65.5,7.9,2.05,9.71,3.01,16.17.7,4.71-1.25,7.31.28,9.21,1.17,1.46,1.57,1.33,4.45-1.26,2.03-1.83,3.31-3.52,4.61-4.88,2.53-2.64,3.9-5.25,4.12-10.69.17-4.12-.51-7.24-2.23-13.22-.71-2.48-1.5-3.91-2.51-10.38Z"/>
  </g>
</svg>