<?xml version="1.0" encoding="UTF-8"?>
<svg id="_레이어_2" data-name="레이어 2" xmlns="http://www.w3.org/2000/svg" viewBox="0 0 215.21 572.09">
  <defs>
    <style>
      .cls-1 {
        fill: #f2a7a9;
        stroke: #221714;
        stroke-miterlimit: 10;
      }
    </style>
  </defs>
  <g id="_레이어_1-2" data-name="레이어 1">
    <path class="cls-1" d="m.53,325.99c.23,5.03,1.46,7.61,3.7,10.09.18.2.36.39.55.59,1.14,1.21,2.29,2.67,3.96,4.25.23.21.46.42.69.63,2.25,2.01,2.9,2.39,3.75,1.65.22-.19.43-.45.64-.78,1.18-1.75-.27-4.11.06-8.08.03-.39.08-.79.14-1.2.92-5.92,2.32-7.91,2.88-14.8.04-.45.1-.67.18-.81.18-.31.78,3.95,2.53,6.45.32.46.69.85,1.08,1.16,1.28.99,2.92,1.23,3.6,1.08.59-.13.96-.44.72-.89-4.43-8.03-1.07-13.45-2.3-19.55-.13-.63-.31-1.28-.54-1.95-.57-1.61-1.67-3.73-2.08-5.31-.03-.13-.06-.27-.08-.4-.01-.05-.02-.09-.03-.13-.13-.59-.19-1.12-.14-1.58.02-.14.05-.3.07-.44.46-3.3,2.34-7.26,4.97-12.06.4-.73.81-1.47,1.23-2.22,4.08-7.3,6.63-12.2,12.17-24.57.02-.04.03-.08.05-.12.39-.87.79-1.77,1.21-2.71.39-.89.79-1.8,1.2-2.74,6.52-14.94,8.38-28.34,9.03-33.08.17-1.24.31-2.19.41-2.78,0-.04.01-.08.02-.12.18-.98.44-2.05.72-3.18,1.12-4.56,3.01-10.26,5.02-16.25,1.49-4.43,3.04-9.01,4.42-13.41.48-1.51,1-3.28,1.49-5.01.31-1.09.74-2.79,1.14-4.39.5-1.06,1.03-2.17,1.4-2.61.16.51.31,1.04.48,1.55.52,5.84.43,22.41-2.08,37.15-1.03,6.93-2.69,13.98-4.33,20.02-1.07,3.94-1.66,8.87-2.03,13.97-3.06,5.33-5.65,10.09-6.03,11.57-.02.05-.04.1-.06.15-3.69,9.15-9.52,21.16-9.75,41.37v.15c-.04,4.28.16,8.91.69,13.97,1.31,12.52,10.98,39.25,14.59,52.02,8.02,28.39,12.56,45.42,13.15,55.43.77,12.92-.99,16.96-2.56,24.79-3.05,15.21-.82,28.37,2.8,40.42,6.69,22.28,13.71,32.19,14.43,43.89.17,2.91-2.02,4.13-.81,7.83.63,1.92,1.69,3.76.08,8.04-5.46,14.48-12.57,18.28-11.73,23.57.93,5.86,20.64,5.49,28.36,4.17,6.35-1.09,6.26-10.06,4.43-20.34-.37-2.08-.57-4.4-.42-7.96.07-1.75.55-3.8.8-6.28.23-2.28-.44-4.69-.8-6.59-.28-1.45-.55-2.61-.6-3.22-1.77-22.37-1.17-27.75,1.65-48.79,2.85-21.26-1.15-25.08-.65-38.08.3-7.71,2.64-15.58,3.27-23.92.79-10.47-.3-20.35-1.41-27.79-3.06-20.58-3.04-23.9-4.03-40.16-1.07-17.66,4.59-26.31,1.36-41.54.75.26,2.58.36,4.4.37,1.82.02,3.65-.11,4.4-.37-3.23,15.23,2.43,23.88,1.36,41.54-.99,16.26-.97,19.58-4.03,40.16-1.11,7.44-2.19,17.32-1.4,27.79.62,8.34,2.96,16.21,3.26,23.92.5,13-3.5,16.82-.64,38.08,2.82,21.04,3.41,26.41,1.64,48.79-.05.61-.33,1.77-.6,3.22-.36,1.9-1.03,4.31-.8,6.59.25,2.48.73,4.53.8,6.28.14,3.56-.05,5.88-.42,7.96-1.83,10.28-1.91,19.25,4.44,20.34,7.71,1.32,27.42,1.69,28.35-4.17.84-5.29-6.26-9.09-11.72-23.57-1.62-4.28-.55-6.12.08-8.04,1.21-3.7-.99-4.92-.81-7.83.71-11.7,7.73-21.61,14.43-43.89,3.62-12.05,5.84-25.21,2.8-40.42-1.57-7.83-3.33-11.87-2.57-24.79.59-10.01,5.13-27.04,13.16-55.43,3.61-12.77,13.28-39.5,14.59-52.02.52-5.06.72-9.69.68-13.97v-.15c-.2-18.53-5.08-30.17-8.77-39.01-.02-.04-.03-.08-.05-.12-.37-.93-.81-1.96-1.29-3.05-.02-.05-.04-.09-.06-.14-.65-1.83-3.19-6.48-6.12-11.55-.3-3.03-.69-5.99-1.14-8.69-.34-2.07-.73-4.03-1.2-5.83-1.16-4.4-2.25-9.34-3.01-14.34-2.88-16.25-2.67-36.47-2.21-42.81.16-.51.31-1.04.47-1.55.55,2.28,1.89,7.74,2.44,9.59,1.73,5.85,3.93,12.22,5.95,18.25,2.02,6,3.86,11.66,4.9,16.11.01.04.02.09.03.13.23,1,.44,1.96.58,2.82.3,1.84,1.53,16.63,8.68,33.74.38.92.78,1.84,1.18,2.75.34.77.66,1.5.97,2.21,6.36,14.31,8.93,19.23,13.42,27.24,3.25,5.78,5.58,10.41,5.99,14.16,0,.04.01.08.01.12.02.14.05.3.06.44.1,1.65-1.9,5.15-2.61,7.35-2.23,6.81,2.27,12.51-2.86,21.4-.55.95,2.85,1.08,4.86-.8,2.54-2.37,3.29-8.84,3.37-7.65.5,7.9,2.05,9.71,3.01,16.17.7,4.71-1.25,7.31.28,9.21,1.17,1.46,1.57,1.34,4.45-1.26,2.03-1.83,3.31-3.52,4.61-4.88,2.53-2.64,3.9-5.25,4.12-10.69.17-4.12-.51-7.24-2.23-13.22-.62-2.15-1.29-3.52-2.13-8.14-.27-1.47-.46-2.9-.66-4.5-.26-1.71-.26-2.74-.26-3.46,0-.53,0-.97-.06-1.39-.42-3.05-2.18-4.01-3.16-9.76-1.83-10.85-3.05-18.91-4.77-30.2,0-.05-.02-.11-.02-.16-.35-2.29-.72-4.7-1.11-7.29-1.43-9.36-6.15-21.13-11.2-34.06-.02-.06-.04-.11-.06-.17-.28-.73-.56-1.45-.85-2.19-.51-1.34-1.6-11.48-2.02-16.82-.52-6.67-5.41-67.76-8.76-76.97-2.5-6.88-4.92-9.63-7.25-10.54v-.02s-1.88-.89-3.03-1.3c-.87-.31-1.79-.57-2.76-.81l-39.57-15.17c-.06-.14-.13-.27-.19-.42-1.11-2.7-1.56-10.21-1.74-15.34,2.53-2.35,4.5-5.38,5.73-10.41.22-.9.48-1.98.74-3.12,2.78.98,3.5-3.3,4.02-4.54.57-1.37,1.32-1.5,2.07-4.5.51-2.01-.37-3.32,0-4.61.24-.87.36-3.32-.75-4.16-.12-.09-.26-.14-.42-.19,1.65-6.26,2.7-16.5-.74-24.34-1.48-3.39-3.32-6.13-5.25-8.29-4.56-5.58-12.1-9.22-20.63-9.22s-16.07,3.64-20.63,9.22c-1.93,2.16-3.77,4.9-5.25,8.29-3.44,7.84-2.39,18.08-.74,24.34-.16.05-.3.1-.42.19-1.11.84-.99,3.29-.75,4.16.36,1.29-.52,2.6-.01,4.61.75,3,1.5,3.13,2.07,4.5.52,1.24,1.24,5.52,4.02,4.54.26,1.14.52,2.22.74,3.12,1.23,5.03,3.2,8.06,5.73,10.41-.18,5.13-.63,12.64-1.74,15.34-.06.15-.13.28-.19.43l-39.51,15.14c-.99.24-1.94.51-2.82.83-1.15.41-3.03,1.3-3.03,1.3v.02c-2.33.91-4.75,3.66-7.25,10.54-3.35,9.21-8.24,70.3-8.76,76.97-.42,5.34-1.51,15.48-2.02,16.82-.27.7-.54,1.39-.81,2.08-.02.05-.04.1-.05.15-5.04,12.99-9.82,24.8-11.25,34.19-.39,2.56-.75,4.93-1.1,7.19,0,.05-.01.1-.02.14-1.73,11.36-2.95,19.44-4.79,30.33-.98,5.75-2.74,6.71-3.16,9.76-.06.39-.06.79-.06,1.27,0,.04,0,.12,0,.16,0,.97,0,2.29-.35,4.57-1.06,7.12-1.88,8.74-2.62,11.22-.04.13-.08.26-.11.38-1.63,5.68-2.31,8.77-2.21,12.65,0,.21.01.42.02.63Z"/>
  </g>
</svg>