<?xml version="1.0" encoding="UTF-8"?>
<svg id="_레이어_2" data-name="레이어 2" xmlns="http://www.w3.org/2000/svg" viewBox="0 0 215.2 572.24">
  <defs>
    <style>
      .cls-1 {
        fill: #f2a7a9;
        stroke: #221714;
        stroke-miterlimit: 10;
      }
    </style>
  </defs>
  <g id="_레이어_1-2" data-name="레이어 1">
    <path class="cls-1" d="m201.49,342.73c1.17,1.46,1.57,1.33,4.45-1.26,2.03-1.83,3.31-3.52,4.61-4.88,2.53-2.64,3.9-5.25,4.12-10.69.17-4.12-.51-7.24-2.23-13.22-.71-2.48-1.5-3.91-2.51-10.38-.32-2.01-.39-3.36-.45-4.54-.08-.57-.09-1.01-.09-1.26,0-.5,0-.91-.06-1.32-.44-3.05-2.18-4.01-3.16-9.76-1.84-10.88-3.06-18.95-4.78-30.29,0-.05-.02-.1-.02-.15-.35-2.26-.71-4.65-1.11-7.22-1.43-9.38-6.2-21.17-11.23-34.15-.02-.05-.03-.1-.05-.16-.28-.7-.55-1.4-.82-2.12-.51-1.34-1.6-11.48-2.02-16.82-.52-6.67-5.41-67.76-8.76-76.97-2.5-6.88-4.92-9.63-7.25-10.54v-.02s-1.88-.89-3.03-1.3c-1.36-.48-2.86-.86-4.45-1.2l-37.7-14.45c-.12-.27-.25-.54-.37-.82-1.11-2.7-1.56-10.21-1.74-15.34,2.53-2.35,4.5-5.38,5.73-10.41.22-.9.48-1.97.74-3.12,2.78.98,3.5-3.3,4.02-4.54.57-1.36,1.31-1.49,2.07-4.5.5-2-.37-3.32-.01-4.61.24-.87.36-3.32-.75-4.16-.12-.09-.26-.14-.42-.18,1.65-6.27,2.7-16.51-.74-24.35-1.48-3.39-3.32-6.12-5.25-8.29-4.55-5.57-12.09-9.22-20.62-9.22s-16.07,3.65-20.63,9.22c-1.93,2.17-3.77,4.9-5.25,8.29-3.44,7.84-2.39,18.08-.74,24.35-.16.04-.3.09-.42.18-1.11.84-.99,3.29-.75,4.16.36,1.29-.52,2.61-.01,4.61.76,3.01,1.5,3.14,2.07,4.5.52,1.24,1.24,5.52,4.02,4.54.26,1.15.52,2.22.74,3.12,1.23,5.03,3.2,8.06,5.73,10.41-.18,5.13-.63,12.64-1.74,15.34-.12.29-.25.56-.37.84l-37.63,14.42c-1.62.34-3.14.73-4.52,1.21-1.15.41-3.03,1.3-3.03,1.3v.02c-2.33.91-4.75,3.66-7.25,10.54-3.35,9.21-8.24,70.3-8.76,76.97-.42,5.34-1.51,15.48-2.02,16.82-.27.7-.54,1.39-.81,2.08-.02.05-.03.1-.05.15-5.08,12.98-9.82,24.8-11.25,34.19-.39,2.56-.75,4.93-1.1,7.18,0,.05-.01.1-.02.15-1.73,11.36-2.95,19.44-4.79,30.33-.98,5.75-2.72,6.71-3.16,9.76-.06.39-.06.8-.06,1.28v.15c0,.97,0,2.29-.35,4.57-1.09,7.3-1.92,8.82-2.67,11.41-.04.14-.08.27-.12.41-1.63,5.7-2.29,8.78-2.14,12.75,0,.21.02.43.03.63.28,5.02,1.59,7.55,3.96,10.06.18.19.37.39.55.6,1.13,1.23,2.3,2.7,4.02,4.27.24.22.48.43.7.63,2.25,1.99,2.75,2.1,3.75.97.23-.26.4-.55.54-.87.74-1.8-.62-4.23-.11-8.22.05-.41.11-.8.18-1.19.95-5.66,2.34-7.7,2.84-14.92.03-.43.12-.15.31.45.35,1.08,1.14,4.69,2.84,6.53.38.41.81.74,1.27,1,1.67.93,3.57.85,3.53.28-.02-.38-.06-.83-.3-1.32-4.02-8.03-.34-13.45-2.14-19.77-.17-.59-.41-1.24-.68-1.93-.76-1.85-1.86-4.05-1.93-5.39,0-.14,0-.29.01-.43,0-.05,0-.1,0-.14,0-.55.04-1.09.15-1.62.03-.15.06-.3.1-.45.74-3.33,2.72-7.28,5.38-12.04.42-.76.83-1.5,1.24-2.23,3.88-6.97,6.49-12.11,12.17-24.86.02-.05.04-.09.06-.14.39-.88.8-1.78,1.22-2.74.35-.8.7-1.61,1.05-2.42,6.87-16.34,8.32-30.58,8.73-33.38.15-.99.35-1.94.52-2.81,0-.05.02-.09.03-.14.2-.91.44-1.89.71-2.92,1.24-4.68,3.15-10.39,5.15-16.32,1.68-5,3.43-10.15,4.88-14.97.26-.86.62-2.16.99-3.57.5-1.91,1.11-4.39,1.5-5.98.37.53.75,1.11,1.13,1.84.17.51.34,1.03.51,1.55,2.99,10.29,6.81,26.73,3.25,38.77-1.05,5.24-4.04,11.6-7.28,17.16-.59,1.02-1.17,2.05-1.76,3.06-1.13,1.95-2.21,3.95-3.16,5.98-4.08,6.05-7.14,12-8.99,16.2-.05.1-.09.2-.13.3-3.82,9.15-10.13,21.1-10.26,41.22,0,.11,0,.2,0,.3-.02,4.28.17,8.91.73,13.96,1.37,12.52,11.56,39.26,15.36,52.03,8.45,28.39,13.23,45.42,13.85,55.42.81,12.93-1.05,16.97-2.7,24.8-3.21,15.21-.86,28.36,2.95,40.42,7.05,22.28,14.45,32.19,15.2,43.88.18,2.92-2.13,4.14-.86,7.83.67,1.93,1.79,3.77.09,8.05-5.75,14.48-13.23,18.27-12.35,23.56.98,5.86,21.74,5.5,29.86,4.18,6.69-1.09,6.6-10.06,4.67-20.34-.39-2.08-.59-4.4-.44-7.96.08-1.76.57-3.81.84-6.28.25-2.28-.46-4.69-.84-6.6-.29-1.44-.58-2.6-.63-3.21-1.8-22.38-1.24-27.75,1.73-48.79,3-21.27-1.21-25.08-.68-38.08.32-7.71,2.78-15.58,3.44-23.92.83-10.47-.31-20.36-1.48-27.8-3.22-20.57-3.2-23.89-4.25-40.15-1.12-17.66,4.84-26.32,1.44-41.55.78.27,2.72.38,4.63.38,1.92,0,3.85-.11,4.63-.38-3.39,15.23,2.57,23.89,1.44,41.55-1.04,16.26-1.03,19.58-4.25,40.15-1.16,7.44-2.31,17.33-1.48,27.8.66,8.34,3.13,16.21,3.44,23.92.53,13-3.68,16.81-.68,38.08,2.97,21.04,3.53,26.41,1.73,48.79-.05.61-.34,1.77-.63,3.21-.38,1.91-1.08,4.32-.84,6.6.26,2.47.76,4.52.84,6.28.15,3.56-.05,5.88-.44,7.96-1.93,10.28-2.02,19.25,4.67,20.34,8.12,1.32,28.88,1.68,29.86-4.18.88-5.29-6.6-9.08-12.35-23.56-1.7-4.28-.57-6.12.09-8.05,1.27-3.69-1.04-4.91-.85-7.83.75-11.63,8.07-21.5,15.08-43.55.14-.44.28-.87.41-1.31,3.59-11.64,5.71-24.32,2.75-38.88-.16-.76-.31-1.5-.48-2.22-1.5-6.68-3.01-11-2.36-22.43.05-.89.13-1.83.23-2.83,1.08-10.09,5.66-26.4,13.36-52.3.36-1.22.77-2.55,1.22-3.96,4.14-13.1,12.59-35.83,14.23-47.76.26-1.87.45-3.65.57-5.34.23-2.99.33-5.82.34-8.52,0-.1,0-.19,0-.29,0-1.87-.05-3.67-.14-5.41,0-.1-.01-.2-.02-.3-.91-16.55-5.95-27.14-9.42-35.41-.04-.1-.08-.2-.13-.29-.77-1.78-1.69-3.72-2.72-5.78-.05-.11-.11-.22-.16-.32-2.36-4.65-5.7-10.36-9.86-15.85-1.15-2.43-2.31-4.93-3.54-7.27-2.42-4.63-4.59-9.51-5.44-13.72-3.93-13.08,1.09-31.83,4.04-42.5.17-.52.33-1.04.49-1.55.55,2.28,1.89,7.74,2.44,9.59,1.72,5.81,3.9,12.15,5.92,18.14,2.03,6.03,3.89,11.73,4.94,16.2.02.05.03.1.04.14.22,1,.44,1.95.58,2.82.31,1.89,1.6,17.42,9.26,35.11.41.95.81,1.86,1.21,2.75.13.29.25.57.36.84,6.36,14.31,8.93,19.23,13.42,27.24,3.24,5.77,5.57,10.39,5.98,14.14,0,.05.02.09.02.14.02.14.05.3.06.44.1,1.64-1.9,5.15-2.61,7.34-2.23,6.82,2.27,12.52-2.86,21.41-.55.95,2.85,1.08,4.86-.8,2.54-2.37,3.29-8.84,3.37-7.65.5,7.9,2.05,9.71,3.01,16.17.7,4.71-1.25,7.31.28,9.21Z"/>
  </g>
</svg>