<?xml version="1.0" encoding="UTF-8"?>
<svg id="_레이어_2" data-name="레이어 2" xmlns="http://www.w3.org/2000/svg" viewBox="0 0 215.2 572.24">
  <defs>
    <style>
      .cls-1 {
        fill: #f2a7a9;
        stroke: #221714;
        stroke-miterlimit: 10;
      }
    </style>
  </defs>
  <g id="_레이어_1-2" data-name="레이어 1">
    <path class="cls-1" d="m4.65,336.63c1.3,1.36,2.58,3.05,4.61,4.88,2.88,2.59,3.28,2.72,4.45,1.26,1.54-1.9-.42-4.5.28-9.21.96-6.46,2.51-8.27,3.01-16.17.08-1.19.83,5.28,3.37,7.65,2.01,1.88,5.41,1.75,4.86.8-5.13-8.89-.63-14.59-2.86-21.41-.71-2.19-2.7-5.7-2.61-7.34,0-.14.04-.3.06-.44,0-.05.02-.1.02-.15.42-3.75,2.74-8.36,5.98-14.13,4.49-8.01,7.06-12.93,13.42-27.24.02-.05.04-.1.06-.15.39-.88.8-1.79,1.22-2.75,7.92-17.98,9.24-33.89,9.55-35.8.14-.87.35-1.82.58-2.82,0-.05.02-.1.04-.15,2.09-8.92,7.4-22.68,10.85-34.34.55-1.85,1.89-7.31,2.44-9.59,4.05,12.9,12.29,31.96,7.66,43.93-1.31,5.58-6.11,13.38-11.03,19.61-6.2,7.83-10.73,16.38-13.16,21.91-.05.1-.09.2-.13.3-3.95,9.09-10,21.1-10.26,41.22,0,.11,0,.2,0,.3-.04,4.28.17,8.91.73,13.96,1.37,12.52,11.56,39.26,15.36,52.03,8.45,28.39,13.23,45.42,13.85,55.42.81,12.93-1.05,16.97-2.7,24.8-3.21,15.21-.86,28.36,2.95,40.42,7.05,22.28,14.45,32.19,15.2,43.88.18,2.92-2.13,4.14-.86,7.83.67,1.93,1.79,3.77.09,8.05-5.75,14.48-13.23,18.27-12.35,23.56.98,5.86,21.74,5.5,29.86,4.18,6.69-1.09,6.6-10.06,4.67-20.34-.39-2.08-.59-4.4-.44-7.96.08-1.76.58-3.81.84-6.28.25-2.28-.46-4.69-.84-6.6-.29-1.44-.58-2.6-.63-3.21-1.8-22.38-1.24-27.75,1.73-48.79,3-21.27-1.21-25.08-.68-38.08.32-7.71,2.78-15.58,3.44-23.92.83-10.47-.31-20.36-1.48-27.8-3.22-20.57-3.2-23.89-4.25-40.15-1.12-17.66,4.84-26.32,1.44-41.55.78.27,2.72.39,4.63.38,1.92.01,3.85-.11,4.63-.38-3.39,15.23,2.57,23.89,1.44,41.55-1.04,16.26-1.03,19.58-4.25,40.15-1.16,7.44-2.31,17.33-1.48,27.8.66,8.34,3.13,16.21,3.44,23.92.53,13-3.68,16.81-.68,38.08,2.97,21.04,3.53,26.41,1.73,48.79-.05.61-.34,1.77-.63,3.21-.38,1.91-1.08,4.32-.84,6.6.26,2.47.76,4.52.84,6.28.15,3.56-.05,5.88-.44,7.96-1.93,10.28-2.02,19.25,4.67,20.34,8.12,1.32,28.88,1.68,29.86-4.18.88-5.29-6.6-9.08-12.35-23.56-1.7-4.28-.57-6.12.09-8.05,1.27-3.69-1.04-4.91-.85-7.83.75-11.69,8.14-21.6,15.19-43.88,3.82-12.06,6.16-25.21,2.95-40.42-1.65-7.83-3.51-11.87-2.7-24.8.62-10,5.4-27.03,13.85-55.42,3.8-12.77,13.99-39.51,15.37-52.03.55-5.05.76-9.68.72-13.96,0-.1-.01-.19-.01-.3-.26-20.12-6.31-32.13-10.26-41.22-.04-.1-.08-.2-.13-.3-2.42-5.53-6.96-14.08-13.15-21.91-4.93-6.23-9.73-14.03-11.04-19.61-4.64-11.97,3.6-31.03,7.65-43.93.55,2.28,1.89,7.74,2.44,9.59,3.45,11.66,8.76,25.42,10.85,34.34.02.05.03.1.04.15.23,1,.44,1.95.58,2.82.31,1.91,1.63,17.82,9.55,35.8.42.96.83,1.87,1.22,2.75.02.05.04.1.06.15,6.36,14.31,8.93,19.23,13.42,27.24,3.24,5.77,5.56,10.38,5.98,14.13,0,.05.02.1.02.15.02.14.05.3.06.44.09,1.64-1.9,5.15-2.61,7.34-2.23,6.82,2.27,12.52-2.86,21.41-.55.95,2.85,1.08,4.86-.8,2.54-2.37,3.29-8.84,3.37-7.65.5,7.9,2.05,9.71,3.01,16.17.7,4.71-1.26,7.31.28,9.21,1.17,1.46,1.57,1.33,4.45-1.26,2.03-1.83,3.31-3.52,4.61-4.88,2.53-2.64,3.9-5.25,4.12-10.69.17-4.12-.51-7.24-2.23-13.22-.76-2.64-1.6-4.11-2.7-11.5-.34-2.28-.35-3.6-.35-4.57v-.15c0-.48,0-.89-.06-1.28-.42-3.05-2.18-4.01-3.16-9.76-1.84-10.89-3.06-18.97-4.79-30.33,0-.05-.02-.1-.02-.15-.35-2.25-.71-4.62-1.1-7.18-1.43-9.39-6.21-21.2-11.25-34.19-.02-.05-.03-.1-.05-.15-.27-.69-.54-1.38-.81-2.08-.51-1.34-1.6-11.48-2.02-16.82-.52-6.67-5.41-67.76-8.76-76.97-2.5-6.88-4.92-9.63-7.25-10.54v-.02s-1.88-.89-3.03-1.3c-.72-.26-1.49-.48-2.29-.69l-40.02-15.34c-.07-.16-.15-.31-.21-.48-1.11-2.7-1.56-10.21-1.74-15.34,2.53-2.35,4.5-5.38,5.73-10.41.22-.9.48-1.97.74-3.12,2.78.98,3.5-3.3,4.02-4.54.57-1.36,1.32-1.49,2.07-4.5.51-2-.36-3.32-.01-4.61.25-.87.36-3.32-.75-4.16-.12-.09-.26-.14-.42-.18,1.65-6.27,2.7-16.51-.74-24.35-1.48-3.39-3.32-6.12-5.25-8.29-4.55-5.57-12.09-9.22-20.62-9.22s-16.07,3.65-20.63,9.22c-1.93,2.17-3.77,4.9-5.25,8.29-3.44,7.84-2.39,18.08-.74,24.35-.16.04-.3.09-.42.18-1.11.84-1,3.29-.75,4.16.35,1.29-.52,2.61-.01,4.61.75,3.01,1.5,3.14,2.07,4.5.52,1.24,1.24,5.52,4.02,4.54.26,1.15.52,2.22.74,3.12,1.23,5.03,3.2,8.06,5.73,10.41-.18,5.13-.63,12.64-1.74,15.34-.07.17-.15.33-.22.49l-39.9,15.29c-.84.22-1.64.45-2.4.72-1.15.41-3.03,1.3-3.03,1.3v.02c-2.33.91-4.75,3.66-7.25,10.54-3.35,9.21-8.24,70.3-8.76,76.97-.42,5.34-1.51,15.48-2.02,16.82-.27.7-.54,1.39-.81,2.08-.02.05-.03.1-.05.15-5.04,12.99-9.82,24.8-11.25,34.19-.39,2.56-.75,4.93-1.1,7.18,0,.05-.01.1-.02.15-1.73,11.36-2.95,19.44-4.79,30.33-.98,5.75-2.74,6.71-3.16,9.76-.06.39-.06.8-.06,1.28v.15c0,.97,0,2.29-.35,4.57-1.1,7.39-1.94,8.86-2.7,11.5-1.72,5.98-2.4,9.1-2.23,13.22.22,5.44,1.59,8.05,4.12,10.69Z"/>
  </g>
</svg>