<?xml version="1.0" encoding="UTF-8"?>
<svg id="_레이어_2" data-name="레이어 2" xmlns="http://www.w3.org/2000/svg" viewBox="0 0 215.2 571.86">
  <defs>
    <style>
      .cls-1 {
        fill: #f2a7a9;
        stroke: #221714;
        stroke-miterlimit: 10;
      }
    </style>
  </defs>
  <g id="_레이어_1-2" data-name="레이어 1">
    <path class="cls-1" d="m210.13,303.38c-.29-1.74-.42-3.13-.56-4.52-.17-1.14-.18-1.87-.18-2.36,0-.52,0-.94-.06-1.36-.43-3.05-2.18-4.01-3.16-9.76-1.84-10.86-3.05-18.93-4.78-30.25,0-.05-.02-.11-.02-.16-.35-2.28-.72-4.67-1.11-7.26-1.43-9.37-6.19-21.15-11.22-34.1-.02-.05-.04-.11-.06-.16-.28-.71-.56-1.43-.83-2.16-.51-1.34-1.6-11.48-2.02-16.82-.52-6.67-5.41-67.76-8.76-76.97-2.5-6.88-4.92-9.63-7.25-10.54v-.02s-1.88-.89-3.03-1.3c-.66-.23-1.35-.44-2.07-.63l-40.29-15.44c-.05-.12-.11-.24-.16-.36-1.11-2.7-1.56-10.21-1.74-15.34,2.53-2.35,4.5-5.38,5.73-10.41.22-.9.48-1.97.74-3.12,2.78.98,3.5-3.3,4.02-4.54.57-1.37,1.31-1.5,2.07-4.5.51-2.01-.37-3.32,0-4.61.24-.87.36-3.32-.75-4.16-.12-.09-.26-.14-.42-.19,1.65-6.27,2.7-16.5-.74-24.34-1.48-3.39-3.32-6.12-5.25-8.29-4.56-5.57-12.1-9.22-20.63-9.22-8.53,0-16.07,3.65-20.62,9.22-1.93,2.17-3.77,4.9-5.25,8.29-3.44,7.84-2.39,18.08-.74,24.34-.16.05-.3.09-.42.19-1.11.84-.99,3.29-.75,4.16.36,1.29-.52,2.6-.01,4.61.76,3,1.5,3.13,2.07,4.5.52,1.24,1.24,5.52,4.02,4.54.26,1.15.52,2.22.74,3.12,1.23,5.03,3.2,8.06,5.73,10.41-.18,5.13-.63,12.64-1.74,15.34-.06.13-.12.25-.17.38l-40.12,15.38c-.77.2-1.52.42-2.22.67-1.15.41-3.03,1.3-3.03,1.3v.02c-2.33.91-4.75,3.66-7.25,10.54-3.35,9.21-8.24,70.3-8.76,76.97-.42,5.34-1.51,15.48-2.02,16.82-.27.7-.54,1.39-.81,2.08-.02.05-.03.1-.05.15-5.04,12.99-9.82,24.8-11.25,34.19-.39,2.56-.75,4.93-1.1,7.18,0,.05-.01.1-.02.15-1.73,11.36-2.95,19.44-4.79,30.33-.98,5.75-2.73,6.71-3.16,9.76-.06.39-.06.79-.06,1.27v.16c0,.97,0,2.29-.35,4.57-1.07,7.21-1.9,8.78-2.65,11.31-.04.13-.08.26-.12.4-1.63,5.69-2.3,8.77-2.18,12.7,0,.21.02.42.03.63.25,5.02,1.53,7.58,3.83,10.08.18.2.36.39.55.6,1.14,1.22,2.3,2.68,3.99,4.26.23.22.47.43.69.63,2.25,2,2.82,2.25,3.75,1.31.22-.23.41-.5.59-.82.96-1.78-.45-4.17-.02-8.15.04-.4.1-.8.16-1.2.93-5.79,2.33-7.8,2.86-14.86.03-.44.1-.41.25-.18.25.39.96,4.33,2.68,6.49.35.44.75.8,1.18,1.08,1.47.96,3.23,1.02,3.57.68.28-.27.45-.63.21-1.1-4.23-8.03-.71-13.45-2.22-19.66-.15-.61-.36-1.26-.61-1.94-.67-1.73-1.77-3.89-2.01-5.35-.02-.13-.03-.28-.04-.41,0-.05,0-.09-.01-.14-.07-.57-.07-1.11,0-1.6.02-.15.06-.3.09-.45.6-3.31,2.53-7.27,5.18-12.05.41-.74.82-1.48,1.24-2.23,3.98-7.14,6.56-12.16,12.17-24.72.02-.04.04-.09.05-.13.39-.87.79-1.78,1.21-2.73.37-.84.75-1.7,1.12-2.58,6.71-15.63,8.35-29.46,8.88-33.23.16-1.12.33-2.07.47-2.8,0-.04.02-.09.03-.13.21-1.01.48-2.12.78-3.27,1.2-4.64,3.1-10.35,5.1-16.3,1.57-4.68,3.21-9.5,4.61-14.07.37-1.19.83-2.8,1.27-4.43.39-1.45.89-3.46,1.28-5.05.45-.15.91-.26,1.3,0,.16.51.32,1.04.49,1.56,1.66,8.08,3.09,24.71-.52,37.98,0,0,.01.01.01.02-.01.06-.02.11-.03.17-1.14,6.28-2.06,12.36-4.01,19.17-2.64,9.23-2.71,14.34-3.61,22.48-.21.6-.42,1.24-.67,1.94-3.28,9.15-8.49,21.17-8.66,41.37v.15c-.03,4.23.15,8.82.61,13.81,1.17,12.52,9.82,39.26,13.04,52.03,7.18,28.39,11.23,45.42,11.76,55.42.68,12.93-.89,16.97-2.29,24.8-2.73,15.21-.74,28.36,2.5,40.42,5.98,22.28,12.26,32.19,12.9,43.88.15,2.92-1.81,4.14-.73,7.83.57,1.93,1.52,3.77.07,8.05-4.88,14.48-11.22,18.27-10.47,23.56.83,5.86,18.44,5.5,25.34,4.18,5.67-1.09,5.6-10.06,3.96-20.34-.33-2.08-.5-4.4-.37-7.96.06-1.76.49-3.81.71-6.28.21-2.28-.39-4.69-.71-6.6-.24-1.44-.5-2.6-.54-3.21-1.52-22.38-1.05-27.75,1.47-48.79,2.55-21.27-1.02-25.08-.57-38.08.26-7.71,2.35-15.58,2.91-23.92.71-10.47-.26-20.36-1.25-27.8-2.74-20.57-2.72-23.89-3.61-40.15-.95-17.66,4.11-26.32,1.22-41.55.67.27,2.31.37,3.93.38,1.63.01,3.27-.11,3.94-.38-2.89,15.23,2.17,23.89,1.21,41.55-.88,16.26-.87,19.58-3.6,40.15-.99,7.44-1.96,17.33-1.26,27.8.56,8.34,2.65,16.21,2.92,23.92.45,13-3.12,16.81-.58,38.08,2.53,21.04,3.15,26.42,1.48,48.79-.05.61-.3,1.77-.54,3.21-.32,1.91-.93,4.32-.72,6.6.22,2.47.65,4.52.72,6.28.13,3.56-.04,5.88-.37,7.96-1.64,10.28-1.72,19.25,3.96,20.34,6.89,1.32,24.51,1.68,25.34-4.18.75-5.29-5.6-9.08-10.48-23.56-1.44-4.28-.49-6.12.08-8.05,1.08-3.69-.89-4.91-.73-7.83.64-11.69,6.91-21.6,12.9-43.88,3.24-12.06,5.22-25.21,2.5-40.42-1.4-7.83-2.97-11.87-2.29-24.8.52-10,4.58-27.03,11.76-55.42,3.22-12.77,11.87-39.51,13.04-52.03.46-4.99.64-9.58.61-13.81v-.15c-.16-19.52-5.01-31.41-8.31-40.43-.24-.66-.47-1.29-.68-1.9-.24-.69-.46-1.33-.66-1.92-.72-6.25-1.1-10.57-3.01-18.91-.42-1.83-.74-3.56-1.12-5.14-1.17-4.82-1.96-9.36-2.84-14.12,0-.05-.02-.1-.03-.15,0,0,.02-.02.02-.02-4.07-14.55-1.78-34.29-.1-42.82.16-.52.32-1.04.48-1.55.55,2.28,1.89,7.74,2.44,9.59,1.73,5.84,3.92,12.2,5.94,18.22,2.02,6.01,3.87,11.67,4.91,16.13.02.05.02.09.03.14.22,1,.44,1.96.58,2.82.3,1.86,1.56,17.02,8.97,34.43.4.93.79,1.85,1.19,2.75.23.53.46,1.04.67,1.52,6.36,14.31,8.93,19.23,13.42,27.24,3.24,5.78,5.57,10.4,5.98,14.15,0,.04.01.09.02.13.02.14.05.3.06.44.1,1.64-1.9,5.15-2.61,7.35-2.23,6.81,2.27,12.51-2.86,21.4-.55.95,2.85,1.08,4.86-.8,2.54-2.37,3.29-8.84,3.37-7.65.5,7.9,2.05,9.71,3.01,16.17.7,4.71-1.25,7.31.28,9.21,1.17,1.46,1.57,1.34,4.45-1.26,2.03-1.83,3.31-3.52,4.61-4.88,2.53-2.64,3.9-5.25,4.12-10.69.17-4.12-.51-7.24-2.23-13.22-.67-2.32-1.4-3.71-2.32-9.26Z"/>
  </g>
</svg>