<?xml version="1.0" encoding="UTF-8"?>
<svg id="_레이어_2" data-name="레이어 2" xmlns="http://www.w3.org/2000/svg" viewBox="0 0 215.2 571.82">
  <defs>
    <style>
      .cls-1 {
        fill: #f2a7a9;
        stroke: #221714;
        stroke-miterlimit: 10;
      }
    </style>
  </defs>
  <g id="_레이어_1-2" data-name="레이어 1">
    <path class="cls-1" d="m210.32,304.46c-.27-1.47-.46-2.9-.66-4.5-.25-1.71-.26-2.74-.26-3.46,0-.53,0-.97-.06-1.39-.42-3.05-2.18-4.01-3.16-9.76-1.83-10.85-3.05-18.91-4.77-30.2,0-.05-.02-.11-.02-.16-.35-2.29-.72-4.7-1.12-7.29-1.43-9.36-6.18-21.12-11.2-34.06-.02-.06-.04-.11-.06-.17-.28-.73-.56-1.45-.85-2.19-.51-1.34-1.6-11.48-2.02-16.82-.52-6.67-5.41-67.76-8.76-76.97-2.5-6.88-4.92-9.63-7.25-10.54v-.02s-1.88-.89-3.03-1.3c-.5-.18-1.02-.34-1.55-.49l-40.86-15.66c-.04-.08-.08-.16-.11-.25-1.11-2.7-1.56-10.21-1.74-15.34,2.53-2.35,4.5-5.38,5.73-10.41.22-.9.48-1.98.74-3.12,2.78.98,3.5-3.3,4.02-4.54.57-1.37,1.31-1.5,2.07-4.5.51-2.01-.37-3.32,0-4.61.24-.87.36-3.32-.75-4.16-.12-.09-.26-.14-.42-.19,1.65-6.26,2.7-16.5-.74-24.34-1.48-3.39-3.32-6.13-5.25-8.29-4.56-5.58-12.1-9.22-20.63-9.22-8.53,0-16.07,3.64-20.62,9.22-1.93,2.16-3.77,4.9-5.25,8.29-3.44,7.84-2.39,18.08-.74,24.34-.16.05-.3.1-.42.19-1.11.84-.99,3.29-.75,4.16.36,1.29-.52,2.6,0,4.61.75,3,1.5,3.13,2.07,4.5.52,1.24,1.24,5.52,4.02,4.54.26,1.14.52,2.22.74,3.12,1.23,5.03,3.2,8.06,5.73,10.41-.18,5.13-.63,12.64-1.74,15.34-.04.09-.08.18-.12.27l-40.69,15.6c-.59.16-1.16.34-1.71.53-1.15.41-3.03,1.3-3.03,1.3v.02c-2.33.91-4.75,3.66-7.25,10.54-3.35,9.21-8.24,70.3-8.76,76.97-.42,5.34-1.51,15.48-2.02,16.82-.27.7-.54,1.39-.81,2.08-.02.05-.04.1-.05.15-5.01,13-9.82,24.8-11.25,34.19-.39,2.56-.75,4.93-1.1,7.19,0,.05-.01.1-.02.14-1.73,11.36-2.95,19.44-4.79,30.33-.98,5.75-2.74,6.71-3.16,9.76-.06.39-.06.79-.06,1.27v.16c0,.97,0,2.29-.35,4.57-1.06,7.12-1.88,8.74-2.62,11.22-.04.13-.08.25-.11.38-1.63,5.68-2.31,8.77-2.21,12.65,0,.21.01.42.02.63.23,5.03,1.46,7.61,3.7,10.09.18.2.36.39.55.59,1.14,1.21,2.29,2.67,3.96,4.25.23.21.46.42.69.63,2.25,2.01,2.9,2.39,3.75,1.65.22-.19.43-.45.64-.78,1.18-1.75-.27-4.11.06-8.08.03-.39.08-.79.14-1.2.92-5.92,2.32-7.91,2.88-14.8.04-.45.1-.67.18-.81.18-.31.78,3.95,2.53,6.45.32.46.69.85,1.08,1.16,1.28.99,2.92,1.23,3.6,1.08.59-.13.96-.44.72-.89-4.43-8.03-1.07-13.45-2.3-19.55-.13-.63-.31-1.28-.54-1.95-.57-1.61-1.67-3.73-2.08-5.31-.03-.13-.06-.27-.08-.4-.01-.04-.02-.09-.03-.13-.13-.59-.19-1.12-.14-1.58.02-.14.05-.3.07-.44.46-3.3,2.34-7.26,4.97-12.06.4-.73.81-1.47,1.23-2.22,4.08-7.3,6.63-12.2,12.17-24.57.02-.04.03-.08.05-.12.39-.87.79-1.77,1.21-2.71.39-.89.79-1.8,1.2-2.74,6.52-14.94,8.38-28.34,9.03-33.08.17-1.24.31-2.19.41-2.78,0-.04.01-.08.02-.12.17-.94.41-1.97.68-3.05,1.11-4.55,3-10.25,5.01-16.24,1.55-4.63,3.19-9.42,4.62-14,.42-1.33.87-2.87,1.31-4.4.34-1.22.85-3.23,1.3-5.03.44-.96.89-1.89,1.21-2.29.16.51.31,1.04.47,1.55.48,5.94.26,23.08-2.6,38,0,.01,0,.02,0,.03-.01.06-.02.12-.03.18-1.01,6.64-1.93,13.08-3.36,19.21-1.85,7.88-1.7,15.02-1.79,23.55-.2.59-.42,1.24-.66,1.93-3.28,9.15-8.49,21.17-8.66,41.37v.15c-.03,4.23.15,8.82.61,13.81,1.17,12.52,9.82,39.26,13.04,52.03,7.18,28.39,11.23,45.42,11.76,55.42.68,12.93-.89,16.97-2.29,24.8-2.73,15.21-.74,28.36,2.5,40.42,5.98,22.28,12.26,32.19,12.9,43.88.15,2.92-1.81,4.14-.73,7.83.57,1.93,1.52,3.77.07,8.05-4.88,14.48-11.22,18.27-10.47,23.56.83,5.86,18.44,5.5,25.34,4.18,5.67-1.09,5.6-10.06,3.96-20.34-.33-2.08-.5-4.4-.37-7.96.06-1.76.49-3.81.71-6.28.21-2.28-.39-4.69-.71-6.6-.24-1.44-.5-2.6-.54-3.21-1.52-22.38-1.05-27.75,1.47-48.79,2.55-21.27-1.02-25.08-.57-38.08.26-7.71,2.35-15.58,2.91-23.92.71-10.47-.26-20.36-1.25-27.8-2.74-20.57-2.72-23.89-3.61-40.15-.95-17.66,4.11-26.32,1.22-41.55.67.27,2.31.37,3.93.38,1.63.01,3.27-.11,3.94-.38-2.89,15.23,2.17,23.89,1.21,41.55-.88,16.26-.87,19.58-3.6,40.15-.99,7.44-1.96,17.33-1.26,27.8.56,8.34,2.65,16.21,2.92,23.92.45,13-3.12,16.81-.58,38.08,2.53,21.04,3.15,26.42,1.48,48.79-.05.61-.3,1.77-.54,3.21-.32,1.91-.93,4.32-.72,6.6.22,2.47.65,4.52.72,6.28.13,3.56-.04,5.88-.37,7.96-1.64,10.28-1.72,19.25,3.96,20.34,6.89,1.32,24.51,1.68,25.34-4.18.75-5.29-5.6-9.08-10.48-23.56-1.44-4.28-.49-6.12.08-8.05,1.08-3.69-.89-4.91-.73-7.83.64-11.69,6.91-21.6,12.9-43.88,3.24-12.06,5.22-25.21,2.5-40.42-1.4-7.83-2.97-11.87-2.29-24.8.52-10,4.58-27.03,11.76-55.42,3.22-12.77,11.87-39.51,13.04-52.03.46-4.99.64-9.58.61-13.81v-.15c-.16-19.19-4.82-31-8.14-39.97-.24-.65-.47-1.28-.69-1.89-.25-.69-.46-1.33-.66-1.92-.08-6.49-.14-12.09-1.21-19.15-.28-1.85-.51-3.6-.83-5.18-.92-4.48-1.67-9.2-2.45-14.16,0-.05-.02-.1-.03-.16,0-.01,0-.02,0-.03-3.22-16.21-3.18-36.61-2.72-42.96.16-.51.31-1.04.47-1.55.55,2.28,1.89,7.74,2.44,9.59,1.74,5.85,3.93,12.22,5.96,18.26,2.02,6,3.86,11.65,4.9,16.1.01.04.02.09.03.13.23,1,.44,1.96.58,2.82.3,1.84,1.53,16.63,8.68,33.74.38.92.78,1.84,1.18,2.75.34.77.66,1.5.98,2.21,6.36,14.31,8.93,19.23,13.42,27.24,3.25,5.78,5.58,10.41,5.99,14.16,0,.04.01.08.01.12.02.14.05.3.06.44.1,1.65-1.9,5.15-2.61,7.35-2.23,6.81,2.27,12.51-2.86,21.4-.55.95,2.85,1.08,4.86-.8,2.54-2.37,3.29-8.84,3.37-7.65.5,7.9,2.05,9.71,3.01,16.17.7,4.71-1.25,7.31.28,9.21,1.17,1.46,1.57,1.34,4.45-1.26,2.03-1.83,3.31-3.52,4.61-4.88,2.53-2.64,3.9-5.25,4.12-10.69.17-4.12-.51-7.24-2.23-13.22-.62-2.15-1.29-3.52-2.13-8.14Z"/>
  </g>
</svg>