<?xml version="1.0" encoding="UTF-8"?>
<svg id="_레이어_2" data-name="레이어 2" xmlns="http://www.w3.org/2000/svg" viewBox="0 0 215.21 571.97">
  <defs>
    <style>
      .cls-1 {
        fill: #f2a7a9;
        stroke: #221714;
        stroke-miterlimit: 10;
      }
    </style>
  </defs>
  <g id="_레이어_1-2" data-name="레이어 1">
    <path class="cls-1" d="m4.65,336.52c1.3,1.36,2.58,3.05,4.61,4.88,2.88,2.6,3.28,2.72,4.45,1.26,1.53-1.9-.42-4.5.28-9.21.96-6.46,2.51-8.27,3.01-16.17.08-1.19.83,5.28,3.37,7.65,2.01,1.88,5.41,1.75,4.86.8-5.13-8.89-.63-14.59-2.86-21.4-.67-2.07-2.49-5.31-2.6-7.05,0-.14,0-.28,0-.41,0-.12.04-.25.05-.37.38-3.77,2.72-8.42,5.99-14.24,4.48-7.99,7.05-12.91,13.38-27.15.02-.04.04-.08.05-.12.41-.92.82-1.87,1.27-2.86,7.92-17.98,9.24-33.89,9.55-35.8.13-.83.34-1.74.55-2.7.01-.05.02-.11.04-.16,1.03-4.45,2.88-10.13,4.91-16.15,2.03-6.05,4.23-12.44,5.97-18.3.55-1.85,1.89-7.31,2.44-9.59.2.65.39,1.32.6,1.98.41,6.21-.07,25.33-3.15,41.09,0,0,0,0,0,0-.74,4.73-2.04,10.84-3.18,16.14-.34,1.57-.57,3.26-.8,5-.62,4.64-.9,8.88-.92,13.04-1.15,3.14-1.82,4.96-3.13,8.34-3.5,9.15-9.05,21.21-9.23,41.52-.04,4.27.15,8.91.65,13.96,1.24,12.52,10.39,39.26,13.81,52.03,7.6,28.39,11.9,45.41,12.46,55.42.72,12.92-.94,16.97-2.43,24.79-2.89,15.22-.78,28.37,2.65,40.42,6.34,22.29,12.99,32.19,13.66,43.89.17,2.92-1.91,4.14-.76,7.83.59,1.92,1.6,3.76.07,8.04-5.17,14.49-11.89,18.28-11.1,23.57.88,5.86,19.55,5.49,26.85,4.17,6.01-1.08,5.93-10.06,4.2-20.33-.35-2.08-.53-4.41-.39-7.96.06-1.76.51-3.81.75-6.28.22-2.28-.41-4.69-.75-6.6-.26-1.44-.53-2.6-.57-3.21-1.62-22.39-1.12-27.75,1.55-48.8,2.7-21.26-1.08-25.07-.61-38.08.29-7.7,2.5-15.58,3.09-23.92.75-10.47-.28-20.35-1.33-27.79-2.89-20.57-2.88-23.89-3.81-40.16-1.02-17.65,4.34-26.31,1.28-41.54.71.27,2.45.37,4.17.38,1.72,0,3.46-.11,4.17-.38-3.06,15.23,2.3,23.89,1.29,41.54-.94,16.27-.92,19.59-3.82,40.16-1.05,7.44-2.08,17.32-1.33,27.79.59,8.34,2.81,16.22,3.09,23.92.47,13.01-3.31,16.82-.61,38.08,2.67,21.05,3.28,26.42,1.56,48.8-.05.61-.31,1.77-.57,3.21-.34,1.91-.98,4.32-.76,6.6.24,2.47.69,4.52.76,6.28.13,3.55-.05,5.88-.4,7.96-1.73,10.27-1.81,19.25,4.2,20.33,7.31,1.32,25.97,1.69,26.85-4.17.79-5.29-5.93-9.08-11.1-23.57-1.53-4.28-.52-6.12.07-8.04,1.14-3.69-.93-4.91-.76-7.83.67-11.7,7.32-21.6,13.66-43.89,3.43-12.05,5.54-25.2,2.65-40.42-1.48-7.82-3.15-11.87-2.43-24.79.56-10.01,4.86-27.03,12.46-55.42,3.42-12.77,12.58-39.51,13.81-52.03.5-5.05.69-9.69.66-13.96-.19-20.31-5.74-32.37-9.24-41.52-1.37-3.54-2.03-5.35-3.24-8.7-.03-3.63-.28-7.38-.74-11.4-.27-2.35-.55-4.64-1-6.71-1.05-4.81-2.19-10.15-2.86-14.37-3.21-16.19-3.61-36.52-3.19-42.87.16-.51.31-1.04.47-1.55.55,2.28,1.89,7.74,2.44,9.59,1.74,5.85,3.93,12.23,5.96,18.27,2.01,5.99,3.86,11.64,4.9,16.09.01.04.02.09.03.13.23,1,.44,1.96.58,2.82.3,1.84,1.53,16.62,8.67,33.74.38.92.78,1.84,1.18,2.75.34.77.66,1.5.98,2.21,6.36,14.31,8.93,19.23,13.42,27.24,3.25,5.78,5.58,10.41,5.99,14.16,0,.04.01.08.01.12.02.14.05.3.06.44.1,1.65-1.9,5.15-2.61,7.35-2.23,6.81,2.27,12.51-2.86,21.4-.55.95,2.85,1.08,4.86-.8,2.54-2.37,3.29-8.84,3.37-7.65.5,7.9,2.05,9.71,3.01,16.17.7,4.71-1.25,7.31.28,9.21,1.17,1.46,1.57,1.34,4.45-1.26,2.03-1.83,3.31-3.52,4.61-4.88,2.53-2.64,3.9-5.25,4.12-10.69.17-4.12-.51-7.24-2.23-13.22-.62-2.15-1.29-3.51-2.12-8.14-.27-1.47-.46-2.9-.66-4.5-.25-1.71-.26-2.74-.26-3.46,0-.53,0-.96-.06-1.39-.42-3.05-2.18-4.01-3.16-9.76-1.83-10.85-3.05-18.91-4.77-30.2,0-.05-.02-.11-.02-.16-.35-2.29-.72-4.69-1.12-7.29-1.43-9.36-6.18-21.12-11.2-34.06-.02-.06-.04-.11-.06-.17-.28-.73-.56-1.45-.85-2.19-.51-1.34-1.6-11.48-2.02-16.82-.52-6.67-5.41-67.76-8.76-76.97-2.5-6.88-4.92-9.63-7.25-10.54v-.02s-1.88-.89-3.03-1.3c-.7-.25-1.44-.46-2.2-.66l-40.17-15.4c-.05-.11-.1-.22-.15-.34-1.11-2.7-1.56-10.21-1.74-15.34,2.53-2.35,4.5-5.38,5.73-10.41.22-.9.48-1.98.74-3.12,2.78.98,3.5-3.3,4.02-4.54.57-1.37,1.31-1.5,2.07-4.5.51-2.01-.37-3.32,0-4.61.24-.87.36-3.32-.75-4.16-.12-.09-.26-.14-.42-.19,1.65-6.26,2.7-16.5-.74-24.34-1.48-3.39-3.32-6.13-5.25-8.29-4.56-5.58-12.1-9.22-20.63-9.22s-16.07,3.64-20.63,9.22c-1.93,2.16-3.77,4.9-5.25,8.29-3.44,7.84-2.39,18.08-.74,24.34-.16.05-.3.1-.42.19-1.11.84-.99,3.29-.75,4.16.36,1.29-.52,2.6,0,4.61.76,3,1.5,3.13,2.07,4.5.52,1.24,1.24,5.52,4.02,4.54.26,1.14.52,2.22.74,3.12,1.23,5.03,3.2,8.06,5.73,10.41-.18,5.13-.63,12.64-1.74,15.34-.05.12-.11.24-.16.36l-40,15.33c-.82.21-1.61.44-2.36.71-1.15.41-3.03,1.3-3.03,1.3v.02c-2.33.91-4.75,3.66-7.25,10.54-3.35,9.21-8.24,70.3-8.76,76.97-.42,5.34-1.51,15.48-2.02,16.82-.27.7-.54,1.39-.81,2.08-.02.05-.04.1-.05.15-5.04,12.99-9.82,24.8-11.25,34.19-.39,2.56-.75,4.93-1.1,7.19,0,.05-.01.1-.02.14-1.73,11.36-2.95,19.44-4.79,30.33-.98,5.75-2.74,6.71-3.16,9.76-.05.39-.06.79-.06,1.27v.16c0,.97-.01,2.29-.35,4.57-1.1,7.39-1.94,8.86-2.7,11.5-1.72,5.98-2.4,9.1-2.23,13.22.22,5.44,1.59,8.05,4.12,10.69Z"/>
  </g>
</svg>