<?xml version="1.0" encoding="UTF-8"?>
<svg id="_레이어_2" data-name="레이어 2" xmlns="http://www.w3.org/2000/svg" viewBox="0 0 215.2 572.08">
  <defs>
    <style>
      .cls-1 {
        fill: #f2a7a9;
        stroke: #221714;
        stroke-miterlimit: 10;
      }
    </style>
  </defs>
  <g id="_레이어_1-2" data-name="레이어 1">
    <path class="cls-1" d="m209.75,301.07c-.34-2.28-.35-3.6-.35-4.57,0-.55,0-.99-.06-1.43-.42-3.05-2.18-4.01-3.16-9.76-1.84-10.89-3.06-18.97-4.79-30.33-.35-2.3-.72-4.72-1.12-7.33-1.43-9.39-6.21-21.2-11.25-34.19-.28-.74-.57-1.48-.86-2.23-.51-1.34-1.6-11.48-2.02-16.82-.52-6.67-5.41-67.76-8.76-76.97-2.5-6.88-4.92-9.63-7.25-10.54v-.02s-1.88-.89-3.03-1.3c-.93-.33-1.94-.62-2.99-.87l-39.35-15.08c-.06-.14-.12-.26-.18-.4-1.11-2.7-1.56-10.21-1.74-15.34,2.53-2.35,4.5-5.38,5.73-10.41.22-.9.48-1.98.74-3.12,2.78.98,3.5-3.3,4.02-4.54.57-1.37,1.32-1.5,2.07-4.5.51-2.01-.36-3.32,0-4.61.25-.87.36-3.32-.75-4.16-.12-.09-.26-.14-.42-.19,1.65-6.26,2.7-16.5-.74-24.34-1.48-3.39-3.32-6.13-5.25-8.29-4.56-5.58-12.1-9.22-20.63-9.22s-16.07,3.64-20.62,9.22c-1.93,2.16-3.77,4.9-5.25,8.29-3.44,7.84-2.39,18.08-.74,24.34-.16.05-.3.1-.42.19-1.11.84-1,3.29-.75,4.16.35,1.29-.52,2.6,0,4.61.75,3,1.5,3.13,2.06,4.5.52,1.24,1.24,5.52,4.02,4.54.26,1.14.53,2.22.74,3.12,1.23,5.03,3.21,8.06,5.73,10.41-.17,5.13-.62,12.64-1.74,15.34-.06.15-.13.28-.19.43l-39.21,15.03c-1.09.27-2.14.56-3.11.9-1.15.41-3.03,1.3-3.03,1.3v.02c-2.33.91-4.75,3.66-7.25,10.54-3.35,9.21-8.24,70.3-8.76,76.97-.43,5.34-1.51,15.48-2.02,16.82-.29.75-.58,1.49-.86,2.23-5.05,12.99-9.83,24.8-11.25,34.19-.4,2.61-.77,5.03-1.12,7.33-1.73,11.36-2.96,19.44-4.79,30.33-.98,5.75-2.74,6.71-3.17,9.76-.05.44-.05.88-.05,1.43,0,.97-.01,2.29-.35,4.57-1.1,7.39-1.94,8.86-2.7,11.5-1.72,5.98-2.4,9.1-2.23,13.22.22,5.44,1.58,8.05,4.11,10.69,1.31,1.36,2.59,3.05,4.62,4.88,2.87,2.6,3.28,2.72,4.45,1.26,1.54-1.9-.42-4.5.28-9.21.96-6.46,2.51-8.27,3.01-16.17.08-1.19.83,5.28,3.36,7.65,2.01,1.88,5.42,1.75,4.87.8-5.13-8.89-.63-14.59-2.87-21.4-.71-2.2-2.69-5.7-2.6-7.35.01-.14.04-.3.06-.44.37-3.77,2.72-8.44,6-14.28,4.49-8.01,7.05-12.93,13.42-27.24.4-.93.83-1.89,1.28-2.9,7.92-17.98,9.24-33.89,9.55-35.8.14-.86.35-1.82.57-2.82,1.04-4.46,2.9-10.15,4.93-16.19,2.03-6.05,4.23-12.44,5.97-18.3.55-1.85,1.89-7.31,2.44-9.59.15.51.3,1.04.46,1.55-1,5.41-4.4,39.07-7.44,57.51-.6,3.64-.75,8.11-.64,12.9-3.29,7.02-4.09,9.01-5.95,13.64-.02.05-.04.09-.06.14-3.76,9.12-9.52,21.16-9.75,41.38v.15c-.04,4.27.16,8.9.69,13.96,1.31,12.52,10.98,39.26,14.59,52.03,8.02,28.38,12.56,45.41,13.15,55.42.77,12.92-.99,16.97-2.56,24.79-3.05,15.22-.82,28.37,2.8,40.42,6.69,22.28,13.71,32.19,14.43,43.89.17,2.91-2.02,4.14-.81,7.83.63,1.92,1.69,3.76.08,8.04-5.46,14.49-12.57,18.28-11.73,23.57.93,5.86,20.64,5.49,28.36,4.17,6.35-1.09,6.26-10.06,4.43-20.34-.37-2.07-.56-4.4-.42-7.95.08-1.76.55-3.81.8-6.29.23-2.27-.43-4.68-.8-6.59-.27-1.45-.55-2.61-.6-3.21-1.7-22.39-1.17-27.76,1.65-48.8,2.85-21.26-1.15-25.08-.65-38.08.3-7.7,2.64-15.58,3.27-23.92.79-10.47-.3-20.35-1.41-27.79-3.06-20.57-3.04-23.89-4.03-40.16-1.07-17.66,4.59-26.31,1.36-41.54.75.26,2.58.36,4.4.38,1.82.01,3.65-.12,4.4-.38-3.23,15.23,2.43,23.88,1.36,41.54-.99,16.27-.97,19.59-4.03,40.16-1.11,7.44-2.19,17.32-1.4,27.79.62,8.34,2.96,16.22,3.26,23.92.5,13-3.5,16.82-.64,38.08,2.82,21.04,3.35,26.41,1.64,48.8-.05.6-.33,1.76-.6,3.21-.36,1.91-1.03,4.32-.8,6.59.25,2.48.73,4.53.8,6.29.14,3.55-.05,5.88-.42,7.95-1.83,10.28-1.91,19.25,4.44,20.34,7.71,1.32,27.42,1.69,28.35-4.17.84-5.29-6.26-9.08-11.72-23.57-1.62-4.28-.55-6.12.08-8.04,1.21-3.69-.99-4.92-.81-7.83.71-11.7,7.73-21.61,14.43-43.89,3.62-12.05,5.84-25.2,2.8-40.42-1.57-7.82-3.33-11.87-2.57-24.79.59-10.01,5.13-27.04,13.16-55.42,3.61-12.77,13.28-39.51,14.59-52.03.52-5.06.72-9.69.68-13.96v-.15c-.22-20.22-5.99-32.26-9.75-41.38-.02-.05-.04-.09-.06-.14-1.85-4.63-2.66-6.62-5.94-13.64.11-4.79-.04-9.26-.64-12.9-3.04-18.44-6.44-52.1-7.44-57.51.16-.51.3-1.04.46-1.55.55,2.28,1.89,7.74,2.44,9.59,1.74,5.86,3.94,12.25,5.97,18.3,2.03,6.04,3.89,11.73,4.92,16.19.23,1,.44,1.96.58,2.82.31,1.91,1.63,17.82,9.55,35.8.45,1.01.87,1.97,1.28,2.9,6.36,14.31,8.93,19.23,13.42,27.24,3.28,5.84,5.63,10.51,6,14.28.02.14.05.3.06.44.09,1.65-1.9,5.15-2.61,7.35-2.23,6.81,2.27,12.51-2.86,21.4-.55.95,2.85,1.08,4.86-.8,2.54-2.37,3.29-8.84,3.37-7.65.5,7.9,2.05,9.71,3.01,16.17.7,4.71-1.26,7.31.28,9.21,1.17,1.46,1.57,1.34,4.45-1.26,2.03-1.83,3.31-3.52,4.61-4.88,2.53-2.64,3.9-5.25,4.12-10.69.17-4.12-.51-7.24-2.23-13.22-.76-2.64-1.6-4.11-2.7-11.5Z"/>
  </g>
</svg>