<?xml version="1.0" encoding="UTF-8"?>
<svg id="_레이어_2" data-name="레이어 2" xmlns="http://www.w3.org/2000/svg" viewBox="0 0 215.21 572.16">
  <defs>
    <style>
      .cls-1 {
        fill: #f2a7a9;
        stroke: #221714;
        stroke-miterlimit: 10;
      }
    </style>
  </defs>
  <g id="_레이어_1-2" data-name="레이어 1">
    <path class="cls-1" d="m210.13,303.39c-.29-1.74-.42-3.13-.56-4.53-.17-1.14-.18-1.88-.18-2.36,0-.52,0-.94-.06-1.36-.43-3.05-2.18-4.01-3.16-9.76-1.84-10.86-3.05-18.93-4.78-30.25,0-.05-.02-.11-.02-.16-.35-2.28-.71-4.67-1.11-7.26-1.43-9.37-6.16-21.16-11.22-34.1-.02-.05-.04-.11-.06-.16-.28-.71-.56-1.43-.84-2.15-.51-1.34-1.6-11.48-2.02-16.82-.52-6.67-5.41-67.76-8.76-76.97-2.5-6.88-4.92-9.63-7.25-10.54v-.02s-1.88-.89-3.03-1.3c-1-.35-2.08-.65-3.21-.92l-39.07-14.97c-.08-.18-.16-.35-.24-.54-1.11-2.7-1.56-10.21-1.74-15.34,2.53-2.35,4.5-5.38,5.73-10.41.22-.9.48-1.97.74-3.12,2.78.98,3.5-3.3,4.02-4.54.57-1.37,1.31-1.5,2.07-4.5.51-2.01-.37-3.32,0-4.61.24-.87.36-3.32-.75-4.16-.12-.09-.26-.14-.42-.18,1.65-6.27,2.7-16.51-.74-24.34-1.48-3.39-3.32-6.12-5.25-8.29-4.56-5.57-12.1-9.22-20.63-9.22s-16.07,3.65-20.62,9.22c-1.93,2.17-3.77,4.9-5.25,8.29-3.44,7.84-2.39,18.08-.74,24.34-.16.05-.3.09-.42.18-1.11.84-.99,3.29-.75,4.16.36,1.29-.52,2.6,0,4.61.76,3,1.5,3.14,2.06,4.5.52,1.24,1.24,5.52,4.02,4.54.26,1.15.52,2.22.74,3.12,1.22,5.03,3.21,8.06,5.73,10.41-.18,5.13-.63,12.64-1.74,15.34-.08.2-.17.38-.25.56l-38.93,14.92c-1.18.27-2.3.58-3.33.95-1.15.41-3.03,1.3-3.03,1.3v.02c-2.33.91-4.75,3.66-7.25,10.54-3.35,9.21-8.24,70.3-8.76,76.97-.42,5.34-1.51,15.48-2.02,16.82-.27.7-.54,1.39-.81,2.08-.02.05-.03.1-.05.15-5.04,12.99-9.82,24.8-11.25,34.19-.39,2.56-.75,4.93-1.1,7.18,0,.05-.01.1-.02.15-1.73,11.36-2.95,19.44-4.79,30.33-.98,5.75-2.75,6.71-3.16,9.76-.05.39-.05.79-.06,1.27v.16c0,.97,0,2.29-.35,4.57-1.1,7.39-1.94,8.86-2.7,11.5-1.72,5.98-2.4,9.1-2.23,13.22.22,5.44,1.59,8.05,4.12,10.69,1.3,1.36,2.58,3.05,4.62,4.88,2.88,2.6,3.28,2.72,4.45,1.26,1.53-1.9-.42-4.5.28-9.21.96-6.46,2.51-8.27,3.01-16.17.08-1.19.83,5.28,3.36,7.65,2.01,1.88,5.41,1.75,4.86.8-5.13-8.89-.63-14.59-2.86-21.41-.68-2.11-2.56-5.44-2.6-7.15,0-.14.01-.29.02-.42,0-.1.03-.2.04-.3.4-3.76,2.73-8.4,5.99-14.2,4.48-8,7.05-12.92,13.39-27.18.02-.04.04-.09.06-.13.4-.9.82-1.84,1.25-2.83,7.92-17.98,9.24-33.89,9.55-35.8.14-.84.35-1.77.56-2.74.01-.05.02-.1.04-.16,1.04-4.45,2.89-10.1,4.9-16.11,2.03-6.05,4.23-12.44,5.97-18.31.55-1.85,1.89-7.31,2.44-9.59.25.82.51,1.69.78,2.56,1.56,8.36,2.63,26.68-1.23,40.68,0,0,0,0,0,0-.4,3.08-2.27,10.22-4.11,16.3-.5,1.64-.89,3.34-1.32,4.98-.69,2.63-1.29,5.07-1.71,7.39-3.31,7.05-4.12,9.04-5.97,13.68-.02.05-.04.09-.06.14-3.69,9.15-9.52,21.16-9.75,41.38v.15c-.04,4.27.16,8.9.69,13.96,1.31,12.52,10.98,39.26,14.59,52.03,8.02,28.38,12.56,45.41,13.15,55.42.77,12.92-.99,16.97-2.56,24.79-3.05,15.22-.82,28.37,2.8,40.42,6.69,22.28,13.71,32.19,14.43,43.89.17,2.91-2.02,4.14-.81,7.83.63,1.92,1.69,3.76.08,8.04-5.46,14.49-12.57,18.28-11.73,23.57.93,5.86,20.64,5.49,28.36,4.17,6.35-1.09,6.26-10.06,4.43-20.34-.37-2.07-.57-4.4-.42-7.95.07-1.76.55-3.81.8-6.29.23-2.27-.44-4.68-.8-6.59-.28-1.45-.55-2.61-.6-3.21-1.78-22.38-1.17-27.76,1.65-48.8,2.85-21.26-1.15-25.08-.65-38.08.3-7.7,2.64-15.58,3.27-23.92.79-10.47-.3-20.35-1.41-27.79-3.06-20.57-3.04-23.89-4.03-40.16-1.07-17.66,4.59-26.31,1.36-41.54.75.26,2.58.37,4.4.38,1.82.02,3.65-.12,4.4-.38-3.23,15.23,2.43,23.88,1.36,41.54-.99,16.27-.97,19.59-4.03,40.16-1.11,7.44-2.19,17.32-1.4,27.79.62,8.34,2.96,16.22,3.26,23.92.5,13-3.5,16.82-.64,38.08,2.82,21.04,3.42,26.42,1.64,48.8-.05.6-.33,1.76-.6,3.21-.36,1.91-1.03,4.32-.8,6.59.25,2.48.73,4.53.8,6.29.14,3.55-.05,5.88-.42,7.95-1.83,10.28-1.91,19.25,4.44,20.34,7.71,1.32,27.42,1.69,28.35-4.17.84-5.29-6.26-9.08-11.72-23.57-1.62-4.28-.55-6.12.08-8.04,1.21-3.69-.99-4.92-.81-7.83.71-11.7,7.73-21.61,14.43-43.89,3.62-12.05,5.84-25.2,2.8-40.42-1.57-7.82-3.33-11.87-2.57-24.79.59-10.01,5.13-27.04,13.16-55.42,3.61-12.77,13.28-39.51,14.59-52.03.52-5.06.72-9.69.68-13.96v-.15c-.22-20.22-6.02-32.25-9.75-41.38-.02-.05-.04-.09-.06-.14-1.93-4.84-2.73-6.79-6.43-14.67-.33-1.69-.75-3.45-1.2-5.31-.56-2.34-1.1-4.8-1.78-7.1-1.64-5.52-3.2-11.54-3.56-14.22-4.07-14.54-2.67-34.24-1.06-42.76.16-.52.31-1.04.47-1.55.55,2.28,1.89,7.74,2.44,9.59,1.73,5.84,3.93,12.21,5.95,18.24,2.02,6,3.87,11.66,4.91,16.11.02.05.02.09.03.14.22,1,.44,1.95.58,2.82.3,1.86,1.56,17.02,8.96,34.42.4.94.8,1.85,1.2,2.75.24.53.46,1.04.67,1.53,6.36,14.31,8.93,19.23,13.42,27.24,3.24,5.78,5.57,10.4,5.98,14.15,0,.04.01.09.02.13.02.14.05.3.06.44.1,1.64-1.9,5.15-2.61,7.34-2.23,6.82,2.27,12.52-2.86,21.41-.55.95,2.85,1.08,4.86-.8,2.54-2.37,3.29-8.84,3.37-7.65.5,7.9,2.05,9.71,3.01,16.17.7,4.71-1.25,7.31.28,9.21,1.17,1.46,1.57,1.34,4.45-1.26,2.03-1.83,3.31-3.52,4.61-4.88,2.53-2.64,3.9-5.25,4.12-10.69.17-4.12-.51-7.24-2.23-13.22-.67-2.32-1.4-3.71-2.32-9.26Z"/>
  </g>
</svg>