<svg width="131" height="143" viewBox="0 0 131 143" fill="none" xmlns="http://www.w3.org/2000/svg">
<path d="M63.4435 3.80282C64.072 2.35737 66.122 2.35738 66.7505 3.80282L68.402 7.60097C68.974 8.91647 70.7786 9.06965 71.5641 7.86938L73.8283 4.40975C74.6913 3.09107 76.7117 3.43633 77.0879 4.96678L78.0785 8.99741C78.4208 10.3901 80.1731 10.8451 81.1498 9.79494L83.9626 6.77025C85.0355 5.61655 86.968 6.29705 87.0813 7.86845L87.3805 12.0181C87.4836 13.4478 89.133 14.1914 90.2726 13.3219L93.5555 10.817C94.8074 9.86176 96.5963 10.8577 96.4438 12.425L96.0399 16.5756C95.9012 18.0013 97.4002 19.0116 98.6696 18.3482L102.332 16.4343C103.726 15.7053 105.32 16.9879 104.906 18.5063L103.808 22.5378C103.431 23.9188 104.737 25.1665 106.099 24.7283L110.038 23.4615C111.535 22.9799 112.888 24.512 112.225 25.9381L110.461 29.7327C109.858 31.0295 110.932 32.4785 112.348 32.2781L116.453 31.6971C118.009 31.4768 119.082 33.2142 118.189 34.5072L115.808 37.9527C114.996 39.1285 115.809 40.7369 117.237 40.7798L121.39 40.9045C122.96 40.9517 123.723 42.8444 122.625 43.9674L119.697 46.9614C118.698 47.9825 119.227 49.7042 120.627 49.9889L124.708 50.819C126.246 51.1319 126.678 53.1256 125.406 54.0463L122.016 56.4999C120.86 57.3372 121.089 59.1228 122.419 59.6407L126.309 61.1546C127.772 61.724 127.859 63.7615 126.45 64.4533L122.699 66.2945C121.418 66.9237 121.341 68.7222 122.565 69.4581L126.148 71.6133C127.493 72.4226 127.233 74.4454 125.727 74.8882L121.727 76.0642C120.357 76.467 119.977 78.227 121.058 79.1595L124.229 81.8934C125.418 82.919 124.819 84.8692 123.259 85.0499L119.127 85.5287C117.707 85.6931 117.034 87.3642 117.943 88.4666L120.607 91.6984C121.606 92.9107 120.685 94.7323 119.116 94.6455L114.973 94.4161C113.545 94.3371 112.598 95.8714 113.308 97.1121L115.388 100.746C116.169 102.11 114.951 103.751 113.419 103.399L109.383 102.471C107.989 102.15 106.795 103.504 107.286 104.847L108.723 108.775C109.263 110.252 107.784 111.665 106.333 111.057L102.519 109.461C101.199 108.908 99.7914 110.041 100.05 111.45L100.803 115.556C101.088 117.104 99.3902 118.248 98.0621 117.402L94.5775 115.185C93.3686 114.416 91.7887 115.296 91.8066 116.729L91.8587 120.894C91.8785 122.469 90.011 123.31 88.8444 122.252L85.7859 119.477C84.7239 118.514 83.0169 119.115 82.7934 120.532L82.1458 124.636C81.9003 126.193 79.9166 126.708 78.9452 125.467L76.3977 122.213C75.5135 121.084 73.7285 121.389 73.2698 122.748L71.9438 126.676C71.4397 128.17 69.3971 128.343 68.6487 126.956L66.6838 123.314C66.0026 122.052 64.1914 122.052 63.5102 123.314L61.5454 126.956C60.7969 128.343 58.7543 128.17 58.2502 126.676L56.9242 122.748C56.4655 121.389 54.6805 121.084 53.7963 122.213L51.2488 125.467C50.2774 126.708 48.2938 126.193 48.0482 124.636L47.4006 120.532C47.1772 119.115 45.4701 118.514 44.4082 119.477L41.3496 122.252C40.183 123.31 38.3156 122.469 38.3353 120.894L38.3874 116.729C38.4053 115.296 36.8254 114.416 35.6165 115.185L32.132 117.402C30.8039 118.248 29.1064 117.104 29.3906 115.556L30.1441 111.45C30.4026 110.041 28.9954 108.908 27.6745 109.461L23.8609 111.057C22.4097 111.665 20.9311 110.252 21.4714 108.775L22.9078 104.847C23.3992 103.504 22.2049 102.15 20.8105 102.471L16.7748 103.399C15.2426 103.751 14.0251 102.11 14.8061 100.746L16.886 97.1121C17.5962 95.8714 16.6489 94.3371 15.2215 94.4161L11.078 94.6455C9.50925 94.7323 8.58771 92.9107 9.58712 91.6984L12.2512 88.4666C13.1599 87.3642 12.4866 85.6931 11.0674 85.5287L6.93545 85.0499C5.37543 84.8692 4.77618 82.919 5.96552 81.8934L9.13599 79.1595C10.2175 78.227 9.83718 76.467 8.4671 76.0642L4.46703 74.8882C2.96075 74.4454 2.70085 72.4226 4.04625 71.6133L7.62943 69.4581C8.85294 68.7222 8.77634 66.9237 7.49468 66.2945L3.74436 64.4533C2.3351 63.7615 2.42194 61.724 3.88496 61.1546L7.77457 59.6407C9.10521 59.1228 9.33447 57.3372 8.17785 56.4999L4.78844 54.0463C3.51652 53.1256 3.94763 51.1319 5.48633 50.819L9.56734 49.9889C10.967 49.7042 11.4957 47.9825 10.497 46.9614L7.56897 43.9674C6.47068 42.8444 7.23379 40.9517 8.80388 40.9045L12.9566 40.7798C14.3851 40.7369 15.1983 39.1285 14.3859 37.9527L12.0053 34.5072C11.1119 33.2142 12.1853 31.4768 13.7414 31.6971L17.8457 32.2781C19.2618 32.4785 20.3363 31.0295 19.7334 29.7327L17.9691 25.9381C17.306 24.512 18.659 22.9799 20.1561 23.4615L24.0947 24.7283C25.4572 25.1665 26.7627 23.9188 26.3864 22.5378L25.2878 18.5063C24.874 16.9879 26.4678 15.7053 27.8625 16.4343L31.5244 18.3481C32.7939 19.0116 34.2928 18.0012 34.1541 16.5756L33.7502 12.425C33.5977 10.8577 35.3866 9.86176 36.6385 10.817L39.9215 13.3219C41.061 14.1914 42.7105 13.4478 42.8135 12.0181L43.1127 7.86845C43.226 6.29705 45.1585 5.61655 46.2314 6.77025L49.0443 9.79494C50.0209 10.8451 51.7733 10.3901 52.1155 8.99741L53.1061 4.96678C53.4823 3.43634 55.5027 3.09107 56.3657 4.40975L58.6299 7.86937C59.4155 9.06965 61.2201 8.91647 61.7921 7.60097L63.4435 3.80282Z" fill="#3B2514"/>
<path d="M63.4315 12.6753C64.0466 11.1921 66.1475 11.1921 66.7626 12.6753L67.6906 14.9132C68.2522 16.2675 70.1094 16.421 70.8857 15.1773L72.136 13.174C72.9852 11.8133 75.055 12.1556 75.421 13.7172L75.9935 16.1596C76.3272 17.5833 78.1277 18.0385 79.0979 16.9445L80.6448 15.2002C81.7056 14.0041 83.6829 14.6779 83.7926 16.2729L83.9716 18.8761C84.0714 20.3276 85.7607 21.0693 86.8968 20.1603L88.7204 18.7013C89.9625 17.7075 91.7891 18.6919 91.6421 20.2758L91.3914 22.9776C91.2579 24.4163 92.7862 25.4198 94.0533 24.7254L96.1342 23.585C97.5202 22.8254 99.1433 24.0899 98.7458 25.6196L98.0394 28.3378C97.6789 29.7249 99.0026 30.9578 100.361 30.4998L102.672 29.7202C104.159 29.2187 105.533 30.7249 104.897 32.1596L103.728 34.7953C103.152 36.0944 104.235 37.5183 105.641 37.3096L108.141 36.9385C109.683 36.7097 110.769 38.4126 109.911 39.7141L108.3 42.1595C107.524 43.337 108.339 44.9093 109.749 44.9537L112.375 45.0364C113.924 45.0852 114.694 46.9353 113.637 48.0683L111.632 50.218C110.676 51.2429 111.204 52.9188 112.574 53.2111L115.243 53.7804C116.752 54.1022 117.186 56.0471 115.957 56.9799L113.635 58.7423C112.523 59.5866 112.751 61.3202 114.044 61.8478L116.655 62.9134C118.081 63.4953 118.168 65.4811 116.799 66.1859L114.258 67.4941C113.017 68.1328 112.941 69.8779 114.121 70.6223L116.566 72.1642C117.869 72.9861 117.608 74.9583 116.135 75.4122L113.482 76.2301C112.146 76.6421 111.767 78.3526 112.804 79.2906L114.978 81.2567C116.125 82.2934 115.521 84.1976 113.987 84.384L111.327 84.7071C109.932 84.8766 109.259 86.5064 110.127 87.6113L111.943 89.9214C112.904 91.1428 111.972 92.9258 110.421 92.8357L107.849 92.6864C106.436 92.6044 105.484 94.108 106.162 95.3503L107.556 97.9045C108.306 99.2772 107.072 100.888 105.551 100.521L103.139 99.9399C101.752 99.6055 100.544 100.939 101.014 102.287L101.952 104.977C102.471 106.464 100.967 107.854 99.5252 107.221L97.325 106.256C96.0071 105.677 94.5761 106.8 94.8243 108.217L95.3006 110.939C95.574 112.501 93.8429 113.63 92.5238 112.75L90.5688 111.445C89.3625 110.64 87.7479 111.516 87.7652 112.966L87.7969 115.628C87.816 117.223 85.907 118.055 84.7513 116.956L83.0637 115.351C82.0066 114.345 80.2552 114.946 80.0381 116.389L79.6575 118.918C79.4192 120.502 77.3882 121.012 76.4299 119.729L75.0285 117.852C74.1521 116.678 72.3163 116.984 71.8675 118.378L71.1127 120.723C70.6208 122.251 68.5276 122.423 67.7932 120.995L66.7003 118.871C66.0292 117.567 64.1649 117.567 63.4938 118.871L62.4009 120.995C61.6665 122.423 59.5733 122.251 59.0814 120.723L58.3266 118.378C57.8778 116.984 56.042 116.678 55.1656 117.852L53.7642 119.729C52.8059 121.012 50.7749 120.502 50.5366 118.918L50.156 116.389C49.9389 114.946 48.1875 114.345 47.1304 115.351L45.4428 116.956C44.2871 118.055 42.3781 117.223 42.3972 115.628L42.4289 112.966C42.4463 111.516 40.8316 110.64 39.6253 111.445L37.6703 112.75C36.3512 113.63 34.6201 112.501 34.8935 110.939L35.3698 108.217C35.618 106.8 34.187 105.677 32.8692 106.256L30.6689 107.221C29.2266 107.854 27.7231 106.464 28.2418 104.977L29.18 102.287C29.65 100.939 28.4424 99.6055 27.0551 99.9399L24.6429 100.521C23.1225 100.888 21.8885 99.2772 22.6378 97.9045L24.0321 95.3503C24.7103 94.108 23.7581 92.6044 22.3451 92.6864L19.7727 92.8357C18.2216 92.9258 17.2905 91.1428 18.2508 89.9214L20.0669 87.6113C20.9355 86.5064 20.2621 84.8766 18.8669 84.7071L16.2076 84.384C14.6732 84.1976 14.0693 82.2934 15.2158 81.2567L17.3903 79.2906C18.4276 78.3526 18.0486 76.6421 16.7122 76.2301L14.059 75.4122C12.5866 74.9583 12.3251 72.9861 13.6283 72.1642L16.073 70.6223C17.2532 69.8779 17.177 68.1328 15.9364 67.4941L13.3951 66.1859C12.026 65.4811 12.1134 63.4953 13.539 62.9134L16.1499 61.8478C17.4427 61.3202 17.6709 59.5866 16.5587 58.7423L14.2368 56.9799C13.008 56.0471 13.4421 54.1022 14.9509 53.7804L17.6198 53.2111C18.9905 52.9188 19.5182 51.2429 18.5622 50.218L16.5573 48.0683C15.5006 46.9353 16.2705 45.0852 17.8191 45.0364L20.4454 44.9537C21.8548 44.9093 22.6701 43.337 21.8942 42.1595L20.2829 39.7141C19.4253 38.4126 20.5115 36.7097 22.0532 36.9385L24.5533 37.3096C25.959 37.5183 27.0423 36.0944 26.4662 34.7953L25.2976 32.1596C24.6614 30.7249 26.0349 29.2187 27.522 29.7202L29.8335 30.4998C31.1915 30.9578 32.5152 29.7249 32.1547 28.3378L31.4483 25.6196C31.0508 24.0899 32.6739 22.8254 34.0599 23.585L36.1409 24.7254C37.4079 25.4198 38.9362 24.4163 38.8027 22.9776L38.552 20.2757C38.405 18.6919 40.2316 17.7075 41.4737 18.7013L43.2973 20.1603C44.4334 21.0693 46.1227 20.3276 46.2225 18.8761L46.4015 16.2729C46.5112 14.6779 48.4885 14.0041 49.5493 15.2002L51.0962 16.9445C52.0665 18.0385 53.8669 17.5833 54.2006 16.1596L54.7731 13.7172C55.1391 12.1556 57.2089 11.8133 58.0581 13.174L59.3085 15.1773C60.0847 16.421 61.942 16.2675 62.5035 14.9132L63.4315 12.6753Z" fill="#61432F"/>
<circle cx="35.868" cy="42.498" r="9.41595" fill="#FFE6BB"/>
<circle cx="35.3852" cy="42.4868" r="6.51874" fill="#ECC79F"/>
<circle cx="92.2687" cy="42.498" r="9.41595" fill="#FFE6BB"/>
<circle cx="91.7859" cy="42.4868" r="6.51874" fill="#ECC79F"/>
<path d="M25.5263 62.4829C30.6565 47.4953 44.746 37.426 60.5873 37.426H69.3018C85.291 37.426 99.4773 47.6812 104.491 62.8641L105.453 65.7763C107.806 72.9042 109.35 80.2746 110.054 87.7479L110.366 91.0499C112.415 112.794 95.3115 131.586 73.4712 131.586H56.3768C34.6619 131.586 17.6001 112.999 19.4541 91.3636L19.6794 88.7341C20.3756 80.61 22.0628 72.6016 24.7034 64.8872L25.5263 62.4829Z" fill="#FFE6BB"/>
<circle cx="40.0299" cy="94.7052" r="5.22229" fill="#FFCEB9"/>
<circle cx="90.1639" cy="94.7052" r="5.22229" fill="#FFCEB9"/>
<path d="M79.7194 76.2325C79.7194 72.0137 73.485 68.5937 64.5286 68.5937C55.5723 68.5937 50.4746 72.0137 50.4746 76.2325C50.4746 80.4513 55.5723 89.4829 64.5286 89.4829C73.485 89.4829 79.7194 80.4513 79.7194 76.2325Z" fill="#ECC79F"/>
<rect x="63.9668" y="77.2979" width="1.71217" height="6.84866" rx="0.856083" fill="#3A211F"/>
<ellipse cx="65.1082" cy="75.8709" rx="5.1365" ry="3.13897" fill="#3A211F"/>
<circle cx="61.9692" cy="74.7294" r="0.856083" fill="white"/>
<path d="M58.8303 81.5781C61.6839 84.1464 68.0253 84.1464 70.8789 81.5781" stroke="#3A211F" stroke-width="1.76467" stroke-linecap="round"/>
<circle cx="45.7745" cy="66.6075" r="4.70006" fill="#3A211F"/>
<circle cx="47.076" cy="65.5933" r="1.56669" fill="white"/>
<circle cx="4.70006" cy="4.70006" r="4.70006" transform="matrix(-1 0 0 1 88.3531 61.9075)" fill="#3A211F"/>
<circle cx="1.56669" cy="1.56669" r="1.56669" transform="matrix(-1 0 0 1 87.0222 64.0266)" fill="white"/>
<path d="M46.4675 75.4348C40.3646 74.8989 36.9026 74.7627 30.6299 74.9241" stroke="#ECC79F" stroke-width="1.46809" stroke-linecap="round" stroke-linejoin="round"/>
<path d="M44.8988 84.7869C39.6282 85.6911 36.7427 86.3577 31.7688 87.9395" stroke="#ECC79F" stroke-width="1.46809" stroke-linecap="round" stroke-linejoin="round"/>
<path d="M44.4877 80.2866C38.9777 80.0655 36.2872 80.4082 30.7849 80.8783" stroke="#ECC79F" stroke-width="1.46809" stroke-linecap="round" stroke-linejoin="round"/>
<path d="M83.0236 75.4348C89.1265 74.8989 92.5885 74.7627 98.8612 74.9241" stroke="#ECC79F" stroke-width="1.46809" stroke-linecap="round" stroke-linejoin="round"/>
<path d="M84.5922 84.7869C89.8628 85.6911 92.7482 86.3577 97.7221 87.9395" stroke="#ECC79F" stroke-width="1.46809" stroke-linecap="round" stroke-linejoin="round"/>
<path d="M83.9589 80.2866C89.469 80.0655 92.1594 80.4082 97.6618 80.8783" stroke="#ECC79F" stroke-width="1.46809" stroke-linecap="round" stroke-linejoin="round"/>
<path fill-rule="evenodd" clip-rule="evenodd" d="M81.0215 111.47C79.8355 111.47 78.9081 112.497 79.0454 113.675C80.2798 124.27 82.197 130.354 89.3594 138.128C89.7995 138.606 90.4502 138.829 91.0929 138.735L91.6463 138.654C92.2626 140.135 93.3019 141.288 94.4884 142.299C94.9088 142.657 95.5399 142.607 95.8981 142.187C96.2564 141.766 96.206 141.135 95.7857 140.777C94.8834 140.008 94.1797 139.233 93.7129 138.352L96.6037 137.928C97.2011 139.547 98.296 140.783 99.5573 141.858C99.9777 142.216 100.609 142.165 100.967 141.745C101.325 141.325 101.275 140.694 100.855 140.335C99.858 139.486 99.1036 138.63 98.6433 137.63L101.192 137.257C101.804 138.772 102.858 139.946 104.063 140.973C104.483 141.331 105.115 141.281 105.473 140.86C105.831 140.44 105.781 139.809 105.36 139.45C104.434 138.661 103.717 137.866 103.251 136.955L105.787 136.584C106.41 137.997 107.42 139.11 108.569 140.088C108.989 140.447 109.62 140.396 109.979 139.976C110.337 139.556 110.286 138.924 109.866 138.566C109.011 137.838 108.335 137.104 107.869 136.28L110.39 135.911C111.017 137.224 111.984 138.274 113.075 139.204C113.495 139.562 114.126 139.512 114.484 139.091C114.843 138.671 114.792 138.04 114.372 137.682C113.589 137.015 112.956 136.344 112.497 135.602L114.999 135.236C115.627 136.453 116.548 137.44 117.58 138.32C118.001 138.678 118.632 138.628 118.99 138.207C119.348 137.787 119.298 137.156 118.878 136.797C118.168 136.193 117.581 135.584 117.136 134.923L119.617 134.56C120.24 135.682 121.113 136.607 122.086 137.436C122.506 137.794 123.138 137.744 123.496 137.323C123.854 136.903 123.804 136.272 123.383 135.913C122.529 135.186 121.853 134.453 121.387 133.628C121.825 132.966 121.872 132.055 121.356 131.321C116.725 124.729 114.404 120.117 112.433 112.97C112.19 112.09 111.395 111.47 110.483 111.47H81.0215Z" fill="#C03A2B"/>
<path d="M18.0392 92.442C18.1588 91.6766 19.0681 91.3302 19.6797 91.8056C45.4595 111.844 86.7213 110.956 110.678 91.781C111.271 91.3065 112.166 91.6157 112.32 92.359L116.651 113.145C117.384 116.666 115.686 120.271 112.41 121.757C81.5771 135.743 47.6763 135.719 18.8314 121.684C15.8132 120.215 14.2176 116.9 14.7358 113.584L18.0392 92.442Z" fill="#E64C3C"/>
</svg>
