<svg width="124" height="153" viewBox="0 0 124 153" fill="none" xmlns="http://www.w3.org/2000/svg">
<path fill-rule="evenodd" clip-rule="evenodd" d="M70.2918 0.345411C73.2509 1.42243 74.7766 4.69436 73.6996 7.65346L69.4094 19.4409C68.4866 21.9761 65.9528 23.4592 63.3849 23.1547C62.9636 23.4611 62.4929 23.7143 61.979 23.9013C59.0199 24.9784 55.748 23.4526 54.671 20.4935L50.3807 8.70613C49.3037 5.74703 50.8294 2.47511 53.7885 1.39808C56.7476 0.321058 60.0195 1.84678 61.0965 4.80588L61.8486 6.87214L62.9838 3.75321C64.0608 0.794111 67.3327 -0.731613 70.2918 0.345411Z" fill="#282828"/>
<ellipse cx="61.4388" cy="66.7108" rx="55.8774" ry="57.588" fill="#282828"/>
<path fill-rule="evenodd" clip-rule="evenodd" d="M11.8688 93.3153C11.8653 93.2895 11.8619 93.2637 11.8584 93.2379C8.48579 68.0018 19.787 45.6681 37.1005 43.3543C45.9416 42.1728 54.6409 46.4401 61.4868 54.26C68.3327 46.4401 77.032 42.1728 85.8731 43.3543C103.145 45.6626 114.434 67.8948 111.139 93.0564C101.861 111.611 83.0875 124.299 61.4389 124.299C39.8911 124.299 21.192 111.729 11.8688 93.3153Z" fill="white"/>
<circle cx="27.7983" cy="89.5178" r="8.55267" fill="#FFC6AD"/>
<circle cx="95.0794" cy="89.5178" r="8.55267" fill="#FFC6AD"/>
<g filter="url(#filter0_f_430_259)">
<path d="M5.93274 81.5355C6.05354 80.7752 6.954 80.4293 7.56359 80.8994C37.8714 104.276 86.6484 103.235 114.791 80.8746C115.382 80.4055 116.267 80.7142 116.423 81.4519L121.743 106.562C122.495 110.111 120.771 113.744 117.468 115.244C80.7816 131.903 40.3001 131.878 6.01805 115.171C2.97543 113.688 1.35476 110.348 1.88589 107.005L5.93274 81.5355Z" fill="#8ED2C9"/>
</g>
<path d="M5.93274 81.5355C6.05354 80.7752 6.954 80.4293 7.56359 80.8994C37.8714 104.276 86.6484 103.235 114.791 80.8746C115.382 80.4055 116.267 80.7142 116.423 81.4519L121.743 106.562C122.495 110.111 120.771 113.744 117.468 115.244C80.7816 131.903 40.3001 131.878 6.01805 115.171C2.97543 113.688 1.35476 110.348 1.88589 107.005L5.93274 81.5355Z" fill="#8ED2C9"/>
<g filter="url(#filter1_f_430_259)">
<path d="M79.6761 111.755C78.3436 111.755 77.2938 112.897 77.4131 114.224C78.6548 128.039 80.5501 135.924 87.7656 145.959C88.273 146.665 89.1472 147.005 90.0018 146.845L90.1077 146.826C90.7185 148.601 91.723 150.023 92.8988 151.299C93.3256 151.763 94.047 151.792 94.5102 151.365C94.9734 150.939 95.003 150.217 94.5762 149.754C93.6249 148.721 92.8694 147.657 92.381 146.402L95.121 145.891C95.7152 147.838 96.7752 149.367 98.0304 150.729C98.4572 151.192 99.1786 151.222 99.6418 150.795C100.105 150.369 100.135 149.647 99.7078 149.184C98.6664 148.053 97.8596 146.885 97.381 145.47L99.7699 145.024C100.377 146.842 101.396 148.291 102.592 149.589C103.019 150.052 103.74 150.082 104.203 149.655C104.666 149.228 104.696 148.507 104.269 148.044C103.295 146.986 102.526 145.896 102.039 144.601L104.426 144.156C105.042 145.848 106.018 147.216 107.153 148.449C107.58 148.912 108.301 148.941 108.765 148.515C109.228 148.088 109.257 147.366 108.831 146.903C107.925 145.92 107.197 144.909 106.708 143.731L109.09 143.287C109.709 144.854 110.64 146.142 111.715 147.308C112.141 147.771 112.863 147.801 113.326 147.374C113.789 146.947 113.819 146.226 113.392 145.763C112.556 144.855 111.871 143.923 111.386 142.859L113.762 142.415C114.379 143.863 115.264 145.069 116.276 146.168C116.703 146.631 117.424 146.661 117.887 146.234C118.351 145.807 118.38 145.086 117.954 144.622C117.188 143.791 116.549 142.94 116.074 141.984L118.442 141.543C119.051 142.872 119.888 143.997 120.838 145.027C121.264 145.491 121.986 145.52 122.449 145.093C122.912 144.667 122.942 143.945 122.515 143.482C121.67 142.565 120.979 141.623 120.493 140.544C121.009 139.848 121.126 138.873 120.657 138.031C115.699 129.132 113.278 123.105 111.224 113.584C110.996 112.523 110.062 111.755 108.977 111.755H79.6761Z" fill="#8ED2C9"/>
</g>
<path fill-rule="evenodd" clip-rule="evenodd" d="M79.3719 111.755C78.2034 111.755 77.2831 112.758 77.3863 113.922C78.6336 127.991 80.5155 135.926 87.8686 146.102C88.315 146.72 89.0809 147.018 89.8302 146.878L90.2474 146.8C90.8508 148.543 91.8397 149.943 93.0023 151.205C93.3765 151.611 94.0091 151.637 94.4153 151.263C94.8215 150.889 94.8474 150.256 94.4732 149.85C93.5074 148.801 92.7368 147.715 92.2407 146.429L95.2601 145.866C95.8473 147.78 96.8914 149.286 98.1339 150.635C98.5081 151.041 99.1407 151.067 99.5469 150.693C99.9531 150.318 99.979 149.686 99.6048 149.279C98.5497 148.134 97.7277 146.944 97.2419 145.496L99.9094 144.999C100.51 146.784 101.513 148.21 102.695 149.494C103.07 149.9 103.702 149.926 104.108 149.552C104.515 149.178 104.54 148.545 104.166 148.139C103.178 147.066 102.394 145.954 101.9 144.628L104.566 144.131C105.175 145.79 106.135 147.136 107.257 148.354C107.631 148.76 108.264 148.786 108.67 148.412C109.076 148.038 109.102 147.405 108.728 146.999C107.807 146 107.064 144.966 106.567 143.758L109.231 143.261C109.842 144.797 110.758 146.063 111.818 147.214C112.192 147.62 112.825 147.646 113.231 147.272C113.637 146.897 113.663 146.265 113.289 145.858C112.437 144.934 111.738 143.98 111.244 142.886L113.904 142.39C114.512 143.806 115.382 144.99 116.38 146.073C116.754 146.479 117.386 146.505 117.793 146.131C118.199 145.757 118.225 145.124 117.85 144.718C117.069 143.87 116.415 142.996 115.931 142.012L118.585 141.517C119.185 142.816 120.007 143.919 120.941 144.933C121.315 145.339 121.948 145.365 122.354 144.991C122.76 144.617 122.786 143.984 122.412 143.578C121.622 142.721 120.963 141.838 120.478 140.841C121.118 140.234 121.326 139.226 120.85 138.377C115.722 129.217 113.266 123.134 111.177 113.361C110.978 112.43 110.159 111.755 109.207 111.755H79.3719Z" fill="#8ED2C9"/>
<path d="M93.4987 120.408C93.5761 120.364 93.6522 120.315 93.7265 120.262C94.9978 119.363 95.304 117.61 94.4103 116.347C93.5167 115.084 91.7616 114.79 90.4903 115.69C90.3669 115.777 90.2526 115.872 90.1476 115.975C90.0694 114.887 89.38 113.895 88.3122 113.503C86.8678 112.972 85.278 113.741 84.7613 115.219C84.4858 116.008 84.5709 116.838 84.9293 117.523C84.8147 117.508 84.698 117.501 84.5798 117.501C83.0137 117.496 81.7601 118.74 81.7798 120.279C81.7994 121.817 83.0849 123.068 84.6509 123.072C84.7355 123.072 84.8191 123.069 84.9016 123.062C84.8677 123.138 84.8367 123.215 84.8088 123.295C84.2921 124.774 85.0441 126.402 86.4885 126.932C87.933 127.462 89.5228 126.694 90.0395 125.215C90.0854 125.084 90.1213 124.952 90.1475 124.819C90.6592 125.28 91.3396 125.564 92.0833 125.566C93.6494 125.57 94.903 124.326 94.8833 122.788C94.8705 121.783 94.3174 120.9 93.4987 120.408Z" fill="white"/>
<g style="mix-blend-mode:multiply">
<circle cx="88.9184" cy="120.428" r="2.113" transform="rotate(79.3678 88.9184 120.428)" fill="#FED402"/>
</g>
<path d="M110.395 131.144C110.503 131.082 110.609 131.014 110.713 130.941C112.49 129.683 112.918 127.233 111.669 125.469C110.42 123.704 107.967 123.292 106.19 124.55C106.018 124.672 105.858 124.805 105.711 124.948C105.602 123.428 104.638 122.041 103.146 121.493C101.127 120.752 98.9054 121.827 98.1833 123.893C97.7983 124.994 97.9172 126.155 98.4181 127.112C98.2579 127.092 98.0949 127.081 97.9296 127.081C95.7409 127.075 93.9889 128.813 94.0163 130.963C94.0438 133.114 95.8404 134.862 98.0291 134.868C98.1472 134.868 98.2641 134.863 98.3795 134.854C98.332 134.959 98.2887 135.068 98.2497 135.179C97.5275 137.246 98.5786 139.521 100.597 140.262C102.616 141.003 104.838 139.929 105.56 137.863C105.624 137.68 105.674 137.494 105.711 137.309C106.426 137.954 107.377 138.35 108.417 138.353C110.605 138.359 112.357 136.621 112.33 134.47C112.312 133.066 111.539 131.832 110.395 131.144Z" fill="white"/>
<g style="mix-blend-mode:multiply">
<circle cx="103.993" cy="131.172" r="2.95313" transform="rotate(79.3678 103.993 131.172)" fill="#FED402"/>
</g>
<circle cx="7.41231" cy="7.41231" r="7.41231" transform="matrix(-1 0 0 1 43.1932 67.281)" fill="#282828"/>
<circle cx="1.71053" cy="1.71053" r="1.71053" transform="matrix(-1 0 0 1 40.9124 70.7024)" fill="white"/>
<circle cx="7.41231" cy="7.41231" r="7.41231" transform="matrix(-1 0 0 1 94.5092 67.281)" fill="#282828"/>
<circle cx="1.71053" cy="1.71053" r="1.71053" transform="matrix(-1 0 0 1 92.2285 70.7024)" fill="white"/>
<path d="M71.7021 76.9739C71.7021 74.1398 67.1071 71.8423 61.4389 71.8423C55.7707 71.8423 51.1757 74.1398 51.1757 76.9739C51.1757 79.808 55.7707 85.5266 61.4389 85.5266C67.1071 85.5266 71.7021 79.808 71.7021 76.9739Z" fill="#FED402"/>
<defs>
<filter id="filter0_f_430_259" x="0.786133" y="79.6516" width="122.131" height="49.0681" filterUnits="userSpaceOnUse" color-interpolation-filters="sRGB">
<feFlood flood-opacity="0" result="BackgroundImageFix"/>
<feBlend mode="normal" in="SourceGraphic" in2="BackgroundImageFix" result="shape"/>
<feGaussianBlur stdDeviation="0.5" result="effect1_foregroundBlur_430_259"/>
</filter>
<filter id="filter1_f_430_259" x="76.4038" y="110.755" width="47.4128" height="41.9124" filterUnits="userSpaceOnUse" color-interpolation-filters="sRGB">
<feFlood flood-opacity="0" result="BackgroundImageFix"/>
<feBlend mode="normal" in="SourceGraphic" in2="BackgroundImageFix" result="shape"/>
<feGaussianBlur stdDeviation="0.5" result="effect1_foregroundBlur_430_259"/>
</filter>
</defs>
</svg>
