<svg width="133" height="147" viewBox="0 0 133 147" fill="none" xmlns="http://www.w3.org/2000/svg">
<path d="M36.2485 9.75892C39.246 12.3051 26.103 16.7598 27.9479 24.1143C29.7921 31.4694 42.1666 20.4374 44.934 23.9733C47.7013 27.5092 31.888 33.3567 37.8631 42.2428C43.8383 51.1289 58 47.5931 58 47.5931V51.2706C58 51.2706 26.3332 60.1808 15.8806 37.5515C5.42715 14.9214 14.1897 0 19.7236 0C25.2576 0 20.9533 8.83935 24.0279 11.3855C27.1025 13.9317 33.2509 7.21345 36.2485 9.75892Z" fill="#FED080"/>
<path d="M95.7515 9.75892C92.754 12.3051 105.897 16.7598 104.052 24.1143C102.208 31.4694 89.8334 20.4374 87.066 23.9733C84.2987 27.5092 100.112 33.3567 94.1369 42.2428C88.1617 51.1289 74 47.5931 74 47.5931V51.2706C74 51.2706 105.667 60.1808 116.119 37.5515C126.573 14.9214 117.81 0 112.276 0C106.742 0 111.047 8.83935 107.972 11.3855C104.898 13.9317 98.7491 7.21345 95.7515 9.75892Z" fill="#FED080"/>
<ellipse cx="18.1895" cy="10.749" rx="18.1895" ry="10.749" transform="matrix(0.930138 -0.36721 0.375592 0.926785 1.0639 57.4263)" fill="#BF8969"/>
<g style="mix-blend-mode:multiply">
<ellipse cx="12.5694" cy="7.42788" rx="12.5694" ry="7.42788" transform="matrix(0.930138 -0.36721 0.375592 0.926785 7.5387 58.4404)" fill="#BF8969"/>
</g>
<ellipse cx="18.1895" cy="10.749" rx="18.1895" ry="10.749" transform="matrix(-0.930138 -0.36721 -0.375592 0.926785 130.976 57.4263)" fill="#BF8969"/>
<g style="mix-blend-mode:multiply">
<ellipse cx="12.5694" cy="7.42788" rx="12.5694" ry="7.42788" transform="matrix(-0.930138 -0.36721 -0.375592 0.926785 124.501 58.4404)" fill="#BF8969"/>
</g>
<path d="M63.7968 21.0612C63.7653 18.866 64.9275 17.0482 66.3926 17.0009C67.8578 16.9537 69.0712 18.6949 69.1027 20.8901L69.1475 24.0053L69.8522 21.1045C70.3534 19.0412 71.8761 17.9774 73.2533 18.7284C74.6304 19.4793 75.3405 21.7607 74.8392 23.824L72.4191 33.7862C71.9178 35.8495 70.3951 36.9133 69.0179 36.1623C68.577 35.9219 68.2045 35.5246 67.9182 35.0278C67.5464 35.3466 67.1176 35.5347 66.6591 35.5495C66.2835 35.5616 65.9244 35.4561 65.5975 35.2556C65.3529 36.3769 64.7793 37.3244 63.9821 37.7592C62.6049 38.5101 61.0822 37.4463 60.5809 35.383L58.1608 25.4208C57.6595 23.3575 58.3696 21.0761 59.7467 20.3252C61.1239 19.5742 62.6466 20.638 63.1478 22.7013L63.8626 25.6437L63.7968 21.0612Z" fill="#BF8969"/>
<path d="M23.9886 65.2904C26.2686 43.5268 44.6173 27 66.5 27C88.3827 27 106.731 43.5268 109.011 65.2905L111.323 87.3597C113.823 111.223 95.1095 132 71.1154 132H61.8846C37.8905 132 19.1766 111.223 21.6766 87.3596L23.9886 65.2904Z" fill="#BF8969"/>
<ellipse cx="66.5" cy="105.5" rx="48.5" ry="25.5" fill="#FED080"/>
<ellipse cx="37" cy="80.4" rx="4" ry="2.4" fill="#FFCEB9"/>
<ellipse cx="96" cy="80.4" rx="4" ry="2.4" fill="#FFCEB9"/>
<circle cx="9" cy="9" r="9" transform="matrix(-1 0 0 1 52 59)" fill="#4B2B1D"/>
<circle cx="3" cy="3" r="3" transform="matrix(-1 0 0 1 49 62)" fill="white"/>
<circle cx="1.5" cy="1.5" r="1.5" transform="matrix(-1 0 0 1 43 69)" fill="white"/>
<circle cx="90" cy="68" r="9" fill="#4B2B1D"/>
<circle cx="87" cy="65" r="3" fill="white"/>
<circle cx="91.5" cy="70.5" r="1.5" fill="white"/>
<path d="M59.1356 94.5405L65.5 92L72.5761 94.5405V97.2286C72.5761 100.94 69.5673 103.949 65.8558 103.949C62.1443 103.949 59.1356 100.94 59.1356 97.2286V94.5405Z" fill="#FEB1AA"/>
<path d="M74.6438 81.8156C74.6438 84.3137 70.7093 86.3389 65.8558 86.3389C61.0023 86.3389 57.0677 84.3137 57.0677 81.8156C57.0677 79.3175 61.0023 76 65.8558 76C70.7093 76 74.6438 79.3175 74.6438 81.8156Z" fill="#4B2B1D"/>
<circle cx="69.7329" cy="79.3602" r="1.29236" fill="white"/>
<path d="M65.816 80.0559V89.2018C65.816 92.1886 68.2373 94.6099 71.2241 94.6099H71.9796C74.5491 94.6099 76.6321 92.5269 76.6321 89.9574V89.9574" stroke="#4B2B1D" stroke-width="2.27455" stroke-linecap="round" stroke-linejoin="round"/>
<path d="M65.8161 80.0559V89.2018C65.8161 92.1886 63.3948 94.6099 60.408 94.6099H59.6525C57.083 94.6099 55 92.5269 55 89.9574V89.9574" stroke="#4B2B1D" stroke-width="2.27455" stroke-linecap="round" stroke-linejoin="round"/>
<path fill-rule="evenodd" clip-rule="evenodd" d="M82.1365 115.757C80.9504 115.757 80.023 116.784 80.1603 117.963C81.3945 128.555 83.3113 134.637 90.4722 142.41C90.9123 142.888 91.563 143.111 92.2058 143.017L92.7586 142.936C93.3748 144.417 94.4139 145.57 95.6003 146.581C96.0206 146.939 96.6518 146.889 97.01 146.468C97.3682 146.048 97.3179 145.417 96.8975 145.059C95.9954 144.29 95.2918 143.515 94.8252 142.634L97.7153 142.211C98.3125 143.829 99.4073 145.064 100.668 146.139C101.089 146.497 101.72 146.447 102.078 146.026C102.436 145.606 102.386 144.975 101.966 144.617C100.969 143.768 100.215 142.912 99.7549 141.912L102.302 141.539C102.915 143.054 103.968 144.228 105.173 145.255C105.593 145.613 106.225 145.562 106.583 145.142C106.941 144.722 106.891 144.091 106.47 143.732C105.545 142.943 104.828 142.148 104.362 141.238L106.897 140.867C107.519 142.28 108.53 143.392 109.678 144.37C110.098 144.729 110.73 144.678 111.088 144.258C111.446 143.837 111.396 143.206 110.975 142.848C110.121 142.12 109.444 141.387 108.979 140.562L111.498 140.193C112.126 141.507 113.092 142.557 114.183 143.486C114.603 143.844 115.234 143.794 115.593 143.374C115.951 142.953 115.901 142.322 115.48 141.964C114.698 141.297 114.065 140.626 113.606 139.885L116.107 139.519C116.735 140.735 117.656 141.722 118.688 142.602C119.108 142.96 119.739 142.91 120.098 142.49C120.456 142.069 120.405 141.438 119.985 141.08C119.276 140.475 118.689 139.867 118.244 139.206L120.724 138.843C121.347 139.965 122.22 140.889 123.193 141.718C123.613 142.076 124.244 142.026 124.602 141.605C124.961 141.185 124.91 140.554 124.49 140.196C123.636 139.468 122.96 138.735 122.494 137.911C122.931 137.248 122.978 136.338 122.462 135.603C117.833 129.014 115.512 124.403 113.541 117.257C113.299 116.377 112.504 115.757 111.591 115.757H82.1365Z" fill="#C03A2B"/>
<path d="M19.1652 96.733C19.2848 95.9676 20.1942 95.6212 20.8058 96.0966C46.5807 116.131 87.8344 115.243 111.787 96.072C112.379 95.5975 113.274 95.9067 113.429 96.65L117.758 117.43C118.492 120.952 116.793 124.557 113.517 126.043C82.691 140.026 48.7973 140.001 19.9583 125.97C16.9401 124.501 15.3445 121.186 15.8626 117.87L19.1652 96.733Z" fill="#E64C3C"/>
</svg>
