<svg width="135" height="140" viewBox="0 0 135 140" fill="none" xmlns="http://www.w3.org/2000/svg">
<circle cx="16" cy="54.6672" r="16" fill="#D2714C"/>
<circle cx="17" cy="54.6672" r="12" fill="#FFE1C2"/>
<circle cx="16" cy="16" r="16" transform="matrix(-1 0 0 1 135 38.6672)" fill="#D2714C"/>
<circle cx="12" cy="12" r="12" transform="matrix(-1 0 0 1 130 42.6672)" fill="#FFE1C2"/>
<path fill-rule="evenodd" clip-rule="evenodd" d="M74.7634 0.970134C77.3582 1.9146 78.6962 4.78381 77.7517 7.3787L73.9895 17.7153C73.1803 19.9385 70.9584 21.239 68.7065 20.9721C68.3371 21.2407 67.9243 21.4628 67.4737 21.6268C64.8788 22.5712 62.0096 21.2333 61.0651 18.6384L57.3029 8.30179C56.3584 5.7069 57.6964 2.83769 60.2913 1.89323C62.8861 0.948767 65.7554 2.2867 66.6998 4.88159L67.3593 6.69353L68.3548 3.9585C69.2993 1.36361 72.1685 0.0256715 74.7634 0.970134Z" fill="#D2714C"/>
<path d="M119 59.8191C119 83.4835 95.9427 102.667 67.5 102.667C39.0573 102.667 16 83.4835 16 59.8191C16 36.1547 39.0573 9.66724 67.5 9.66724C95.9427 9.66724 119 36.1547 119 59.8191Z" fill="#D2714C"/>
<path fill-rule="evenodd" clip-rule="evenodd" d="M24.3677 83.2404C24.8381 73.8259 32.5876 65.6672 42.8622 65.6672H92.2241C102.46 65.6672 110.192 73.7655 110.713 83.1377C101.534 94.8883 85.6194 102.661 67.5221 102.667C67.5148 102.667 67.5075 102.667 67.5001 102.667C67.4928 102.667 67.4855 102.667 67.4782 102.667C49.4336 102.661 33.5589 94.9335 24.3677 83.2404Z" fill="#FFE1C2"/>
<path fill-rule="evenodd" clip-rule="evenodd" d="M68 67.048C64.5546 75.3451 57.1294 81.0859 48.525 81.0859C36.6371 81.0859 27 70.1275 27 56.6095C27 43.0915 36.6371 32.1331 48.525 32.1331C57.1294 32.1331 64.5546 37.8739 68 46.171C71.4454 37.8739 78.8706 32.1331 87.475 32.1331C99.3629 32.1331 109 43.0915 109 56.6095C109 70.1275 99.3629 81.0859 87.475 81.0859C78.8706 81.0859 71.4454 75.3451 68 67.048Z" fill="#FFE1C2"/>
<ellipse cx="8" cy="10" rx="8" ry="10" transform="matrix(-1 0 0 1 55 51.6672)" fill="#562B30"/>
<ellipse cx="3" cy="3.5" rx="3" ry="3.5" transform="matrix(-1 0 0 1 52 54.6672)" fill="white"/>
<circle cx="1.5" cy="1.5" r="1.5" transform="matrix(-1 0 0 1 46 61.6672)" fill="white"/>
<ellipse cx="90" cy="61.6672" rx="8" ry="10" fill="#562B30"/>
<ellipse cx="88" cy="58.1672" rx="3" ry="3.5" fill="white"/>
<circle cx="92.5" cy="63.1672" r="1.5" fill="white"/>
<path d="M75.6846 71.8135C75.6846 73.6809 72.7434 74.8856 69.1152 74.8856C65.487 74.8856 62.5458 73.6809 62.5458 71.8135C62.5458 69.946 65.487 67.6672 69.1152 67.6672C72.7434 67.6672 75.6846 69.946 75.6846 71.8135Z" fill="#562B30"/>
<circle cx="72.1293" cy="70.2485" r="0.927448" fill="white"/>
<path d="M69.0855 69.5706V76.4075C69.0855 78.6402 70.8954 80.4502 73.1282 80.4502H73.693C75.6138 80.4502 77.1709 78.8931 77.1709 76.9723V76.9723" stroke="#562B30" stroke-width="1.70032" stroke-linecap="round" stroke-linejoin="round"/>
<path d="M69.0854 69.5706V76.4075C69.0854 78.6402 67.2755 80.4502 65.0427 80.4502H64.4779C62.5571 80.4502 61 78.8931 61 76.9723V76.9723" stroke="#562B30" stroke-width="1.70032" stroke-linecap="round" stroke-linejoin="round"/>
<ellipse cx="38.5" cy="76.1672" rx="7.5" ry="5.5" fill="#FFB99B"/>
<ellipse cx="97.5" cy="76.1672" rx="7.5" ry="5.5" fill="#FFB99B"/>
<g filter="url(#filter0_f_431_469)">
<path d="M20.2068 78.378C20.3277 77.6177 21.2283 77.2715 21.8398 77.7393C47.8687 97.6536 89.5526 96.7704 113.739 77.7147C114.331 77.248 115.217 77.5567 115.373 78.2945L119.725 98.8358C120.477 102.385 118.755 106.021 115.442 107.498C84.3328 121.368 50.1319 121.343 21.0272 107.426C17.9736 105.965 16.3548 102.622 16.8859 99.2794L20.2068 78.378Z" fill="#8ED2C9"/>
</g>
<path d="M20.2068 78.378C20.3277 77.6177 21.2283 77.2715 21.8398 77.7393C47.8687 97.6536 89.5526 96.7704 113.739 77.7147C114.331 77.248 115.217 77.5567 115.373 78.2945L119.725 98.8358C120.477 102.385 118.755 106.021 115.442 107.498C84.3328 121.368 50.1319 121.343 21.0272 107.426C17.9736 105.965 16.3548 102.622 16.8859 99.2794L20.2068 78.378Z" fill="#8ED2C9"/>
<g filter="url(#filter1_f_431_469)">
<path d="M83.703 104.144C82.5564 104.144 81.653 105.126 81.7556 106.269C82.8242 118.157 84.4552 124.942 90.6643 133.578C91.101 134.185 91.8532 134.478 92.5886 134.34L92.6797 134.323C93.2053 135.851 94.0698 137.075 95.0816 138.173C95.4488 138.572 96.0696 138.597 96.4682 138.23C96.8668 137.863 96.8923 137.242 96.525 136.843C95.7064 135.955 95.0562 135.039 94.6359 133.959L96.9938 133.519C97.5052 135.195 98.4173 136.51 99.4975 137.683C99.8647 138.081 100.486 138.107 100.884 137.739C101.283 137.372 101.308 136.751 100.941 136.353C100.045 135.38 99.3505 134.375 98.9386 133.157L100.994 132.773C101.517 134.338 102.394 135.584 103.423 136.701C103.79 137.1 104.411 137.125 104.809 136.758C105.208 136.391 105.233 135.77 104.866 135.371C104.028 134.462 103.366 133.523 102.947 132.409L105.001 132.026C105.531 133.482 106.371 134.659 107.348 135.72C107.715 136.118 108.336 136.144 108.735 135.777C109.133 135.41 109.159 134.789 108.791 134.39C108.012 133.544 107.386 132.674 106.965 131.66L109.015 131.278C109.547 132.627 110.349 133.735 111.273 134.739C111.64 135.137 112.261 135.163 112.66 134.795C113.058 134.428 113.084 133.807 112.717 133.409C111.997 132.628 111.408 131.826 110.99 130.91L113.035 130.528C113.566 131.774 114.327 132.812 115.198 133.757C115.566 134.156 116.186 134.181 116.585 133.814C116.984 133.447 117.009 132.826 116.642 132.428C115.983 131.712 115.433 130.979 115.025 130.157L117.062 129.778C117.586 130.921 118.307 131.889 119.124 132.776C119.491 133.175 120.112 133.2 120.51 132.833C120.909 132.466 120.934 131.845 120.567 131.446C119.84 130.657 119.246 129.846 118.827 128.918C119.272 128.319 119.372 127.48 118.969 126.756C114.701 119.097 112.618 113.911 110.851 105.718C110.654 104.805 109.851 104.144 108.917 104.144H83.703Z" fill="#8ED2C9"/>
</g>
<path fill-rule="evenodd" clip-rule="evenodd" d="M83.7438 104.144C82.5753 104.144 81.6547 105.145 81.7595 106.309C82.8273 118.164 84.46 124.942 90.6508 133.559C91.0956 134.178 91.8624 134.476 92.6117 134.336L92.6612 134.327C93.1878 135.859 94.0542 137.086 95.0678 138.186C95.442 138.592 96.0747 138.618 96.4809 138.244C96.8871 137.87 96.913 137.237 96.5388 136.831C95.7221 135.944 95.0739 135.032 94.6547 133.956L96.9754 133.523C97.4876 135.203 98.4019 136.521 99.4837 137.695C99.8579 138.102 100.491 138.128 100.897 137.753C101.303 137.379 101.329 136.747 100.955 136.34C100.06 135.369 99.3681 134.367 98.9572 133.153L100.976 132.777C101.5 134.346 102.378 135.595 103.409 136.714C103.783 137.12 104.416 137.146 104.822 136.772C105.228 136.398 105.254 135.765 104.88 135.359C104.044 134.451 103.384 133.516 102.966 132.406L104.983 132.03C105.514 133.49 106.355 134.67 107.334 135.733C107.708 136.139 108.341 136.165 108.747 135.791C109.153 135.417 109.179 134.784 108.805 134.378C108.028 133.534 107.403 132.666 106.983 131.657L108.996 131.282C109.53 132.635 110.333 133.746 111.259 134.752C111.634 135.158 112.266 135.184 112.672 134.809C113.079 134.435 113.105 133.803 112.73 133.396C112.013 132.618 111.426 131.819 111.009 130.906L113.016 130.532C113.548 131.781 114.312 132.823 115.185 133.77C115.559 134.176 116.192 134.202 116.598 133.828C117.004 133.454 117.03 132.821 116.656 132.415C115.999 131.702 115.451 130.972 115.044 130.154L117.043 129.781C117.569 130.929 118.291 131.9 119.11 132.789C119.484 133.195 120.117 133.221 120.523 132.847C120.929 132.473 120.955 131.84 120.581 131.434C119.845 130.635 119.246 129.815 118.828 128.873C119.256 128.266 119.345 127.432 118.943 126.71C114.699 119.086 112.62 113.907 110.858 105.748C110.657 104.818 109.839 104.144 108.887 104.144H83.7438Z" fill="#8ED2C9"/>
<path d="M95.5976 111.591C95.6642 111.552 95.7297 111.51 95.7937 111.465C96.8876 110.691 97.1511 109.182 96.3821 108.096C95.6131 107.009 94.1028 106.756 93.0088 107.53C92.9026 107.605 92.8042 107.687 92.7139 107.775C92.6466 106.839 92.0533 105.985 91.1345 105.648C89.8915 105.192 88.5234 105.853 88.0788 107.125C87.8417 107.804 87.915 108.519 88.2234 109.107C88.1247 109.095 88.0244 109.089 87.9226 109.089C86.575 109.085 85.4962 110.155 85.5131 111.479C85.53 112.803 86.6362 113.879 87.9839 113.883C88.0566 113.883 88.1285 113.88 88.1996 113.874C88.1704 113.939 88.1437 114.006 88.1197 114.075C87.675 115.347 88.3222 116.748 89.5652 117.205C90.8081 117.661 92.1762 116.999 92.6209 115.727C92.6603 115.614 92.6912 115.5 92.7138 115.386C93.1541 115.783 93.7396 116.027 94.3796 116.029C95.7272 116.032 96.806 114.962 96.7891 113.638C96.778 112.773 96.3021 112.014 95.5976 111.591Z" fill="white"/>
<g style="mix-blend-mode:multiply">
<circle cx="91.6561" cy="111.607" r="1.8183" transform="rotate(79.3678 91.6561 111.607)" fill="#FED402"/>
</g>
<path d="M110.137 120.829C110.23 120.776 110.322 120.717 110.411 120.654C111.94 119.572 112.308 117.464 111.234 115.945C110.159 114.426 108.048 114.072 106.519 115.154C106.371 115.259 106.233 115.374 106.107 115.497C106.013 114.189 105.184 112.996 103.9 112.524C102.162 111.886 100.25 112.811 99.629 114.589C99.2977 115.537 99.4001 116.536 99.8311 117.359C99.6932 117.342 99.553 117.333 99.4107 117.332C97.5273 117.327 96.0196 118.823 96.0432 120.673C96.0669 122.524 97.6129 124.028 99.4963 124.033C99.598 124.033 99.6985 124.029 99.7978 124.021C99.757 124.112 99.7197 124.205 99.6862 124.301C99.0647 126.079 99.9692 128.038 101.706 128.675C103.444 129.313 105.356 128.389 105.977 126.611C106.032 126.453 106.075 126.293 106.107 126.134C106.722 126.689 107.541 127.029 108.435 127.032C110.318 127.037 111.826 125.541 111.803 123.691C111.787 122.482 111.122 121.421 110.137 120.829Z" fill="white"/>
<g style="mix-blend-mode:multiply">
<circle cx="104.629" cy="120.852" r="2.54125" transform="rotate(79.3678 104.629 120.852)" fill="#FED402"/>
</g>
<defs>
<filter id="filter0_f_431_469" x="15.7861" y="76.4934" width="105.113" height="42.3887" filterUnits="userSpaceOnUse" color-interpolation-filters="sRGB">
<feFlood flood-opacity="0" result="BackgroundImageFix"/>
<feBlend mode="normal" in="SourceGraphic" in2="BackgroundImageFix" result="shape"/>
<feGaussianBlur stdDeviation="0.5" result="effect1_foregroundBlur_431_469"/>
</filter>
<filter id="filter1_f_431_469" x="80.7477" y="103.144" width="41.079" height="36.3457" filterUnits="userSpaceOnUse" color-interpolation-filters="sRGB">
<feFlood flood-opacity="0" result="BackgroundImageFix"/>
<feBlend mode="normal" in="SourceGraphic" in2="BackgroundImageFix" result="shape"/>
<feGaussianBlur stdDeviation="0.5" result="effect1_foregroundBlur_431_469"/>
</filter>
</defs>
</svg>
