<svg width="781" height="42" viewBox="0 0 781 42" fill="none" xmlns="http://www.w3.org/2000/svg">
<circle cx="465" cy="8" r="5.5" stroke="black"/>
<circle cx="611" cy="8" r="5.5" stroke="black"/>
<circle cx="757" cy="8" r="5.5" stroke="black"/>
<circle cx="320" cy="8" r="7.5" fill="#B2E1F1" stroke="black"/>
<path d="M476 8H600" stroke="black"/>
<path d="M331 8H455" stroke="black"/>
<path d="M39 8H163" stroke="black"/>
<path d="M622 8H746" stroke="black"/>
<path d="M185 8H309" stroke="black"/>
<path d="M304.578 21.024H305.714V21.664C305.714 24.224 302.93 26.064 299.97 26.544L299.474 25.488C302.066 25.136 304.578 23.536 304.578 21.664V21.024ZM304.786 21.024H305.922V21.664C305.922 23.504 308.466 25.136 311.026 25.488L310.53 26.544C307.586 26.064 304.786 24.176 304.786 21.664V21.024ZM298.706 27.68H311.778V28.768H298.706V27.68ZM305.234 30.096C308.338 30.096 310.194 31.024 310.194 32.656C310.194 34.32 308.338 35.232 305.234 35.232C302.13 35.232 300.274 34.32 300.274 32.656C300.274 31.024 302.13 30.096 305.234 30.096ZM305.234 31.12C302.978 31.12 301.618 31.696 301.618 32.656C301.618 33.648 302.978 34.208 305.234 34.208C307.506 34.208 308.85 33.648 308.85 32.656C308.85 31.696 307.506 31.12 305.234 31.12ZM313.441 32.304H326.545V33.408H313.441V32.304ZM319.297 28.56H320.625V32.608H319.297V28.56ZM314.961 21.984H324.945V28.8H314.961V21.984ZM323.665 23.056H316.257V27.728H323.665V23.056ZM329.823 21.632H339.055V22.72H329.823V21.632ZM328.159 27.424H341.263V28.528H328.159V27.424ZM338.271 21.632H339.567V22.768C339.567 24.096 339.567 25.68 339.103 27.888L337.807 27.744C338.271 25.6 338.271 24.064 338.271 22.768V21.632ZM329.871 33.824H339.999V34.928H329.871V33.824ZM329.871 30.128H331.199V33.984H329.871V30.128Z" fill="black"/>
<path d="M452.633 21.36H461.945V22.432H452.633V21.36ZM451.081 26.544H464.137V27.616H451.081V26.544ZM456.441 24.048H457.753V27.04H456.441V24.048ZM461.177 21.36H462.489V22.304C462.489 23.232 462.489 24.32 462.201 25.728L460.889 25.616C461.177 24.224 461.177 23.2 461.177 22.304V21.36ZM452.617 28.928H462.537V32.416H453.977V34.384H452.649V31.44H461.225V30H452.617V28.928ZM452.649 34.016H462.905V35.088H452.649V34.016ZM475.688 20.8H477.016V31.408H475.688V20.8ZM476.6 25.168H479.16V26.272H476.6V25.168ZM468.008 33.84H477.672V34.928H468.008V33.84ZM468.008 30.384H469.336V34.096H468.008V30.384ZM466.392 21.824H467.704V24.24H471.784V21.824H473.08V28.992H466.392V21.824ZM467.704 25.28V27.92H471.784V25.28H467.704Z" fill="black"/>
<path d="M163.937 21.888C166.033 21.888 167.537 23.856 167.537 26.928C167.537 30.016 166.033 31.984 163.937 31.984C161.825 31.984 160.337 30.016 160.337 26.928C160.337 23.856 161.825 21.888 163.937 21.888ZM163.937 23.088C162.545 23.088 161.601 24.592 161.601 26.928C161.601 29.28 162.545 30.816 163.937 30.816C165.329 30.816 166.273 29.28 166.273 26.928C166.273 24.592 165.329 23.088 163.937 23.088ZM170.673 20.768H171.985V35.264H170.673V20.768ZM167.105 26.288H171.249V27.376H167.105V26.288ZM185.984 20.768H187.264V35.232H185.984V20.768ZM183.776 26.624H186.512V27.712H183.776V26.624ZM177.248 22.528H178.368C178.368 25.584 177.936 28.928 175.856 31.664L174.816 31.04C176.784 28.56 177.248 25.616 177.248 22.624V22.528ZM175.12 22.528H177.872V23.616H175.12V22.528ZM180.608 22.528H181.76C181.76 25.568 181.536 29.584 179.28 32.688L178.208 32.08C180.4 29.232 180.608 25.552 180.608 22.64V22.528ZM178.848 22.528H181.28V23.616H178.848V22.528ZM182.976 21.088H184.224V34.528H182.976V21.088Z" fill="black"/>
<path d="M13.7133 21.6H14.8173V23.088C14.8173 25.888 13.2333 28.176 10.7533 29.104L10.0653 28.016C12.2733 27.232 13.7133 25.296 13.7133 23.088V21.6ZM13.9533 21.6H15.0413V23.04C15.0413 25.088 16.4493 26.896 18.5613 27.632L17.8413 28.672C15.5053 27.792 13.9533 25.664 13.9533 23.04V21.6ZM20.6413 20.784H21.9693V29.344H20.6413V20.784ZM17.2173 29.76C20.1933 29.76 22.0333 30.768 22.0333 32.496C22.0333 34.224 20.1933 35.216 17.2173 35.216C14.2253 35.216 12.3853 34.224 12.3853 32.496C12.3853 30.768 14.2253 29.76 17.2173 29.76ZM17.2173 30.816C15.0413 30.816 13.7133 31.44 13.7133 32.496C13.7133 33.552 15.0413 34.176 17.2173 34.176C19.3933 34.176 20.7213 33.552 20.7213 32.496C20.7213 31.44 19.3933 30.816 17.2173 30.816ZM17.5052 23.84H20.9293V24.944H17.5052V23.84ZM31.616 22.832H35.696V23.872H31.616V22.832ZM31.616 25.472H35.696V26.512H31.616V25.472ZM35.36 20.784H36.688V28.32H35.36V20.784ZM27.376 29.04H36.688V32.464H28.704V34.688H27.408V31.472H35.376V30.096H27.376V29.04ZM27.408 34H37.216V35.056H27.408V34ZM25.504 21.44H26.816V23.52H30.736V21.44H32.032V27.76H25.504V21.44ZM26.816 24.56V26.688H30.736V24.56H26.816Z" fill="black"/>
<path d="M600.714 20.784H601.994V35.248H600.714V20.784ZM598.266 26.576H601.05V27.68H598.266V26.576ZM597.434 21.104H598.682V34.512H597.434V21.104ZM590.234 30.576H591.178C593.29 30.576 594.73 30.496 596.41 30.144L596.538 31.248C594.81 31.616 593.354 31.68 591.178 31.68H590.234V30.576ZM590.234 22.544H595.61V23.632H591.546V31.072H590.234V22.544ZM608.585 28.432H609.913V31.504H608.585V28.432ZM605.593 27.728H613.113V28.816H605.593V27.728ZM605.593 22.096H613.065V23.168H606.921V28.144H605.593V22.096ZM606.537 24.88H612.761V25.936H606.537V24.88ZM614.889 20.768H616.217V35.264H614.889V20.768ZM604.697 32.352L604.505 31.232C607.145 31.232 610.793 31.216 613.945 30.736L614.057 31.728C610.809 32.336 607.273 32.352 604.697 32.352ZM620.711 21.36H630.023V22.432H620.711V21.36ZM619.159 26.544H632.215V27.616H619.159V26.544ZM624.519 24.048H625.831V27.04H624.519V24.048ZM629.255 21.36H630.567V22.304C630.567 23.232 630.567 24.32 630.279 25.728L628.967 25.616C629.255 24.224 629.255 23.2 629.255 22.304V21.36ZM620.695 28.928H630.615V32.416H622.055V34.384H620.727V31.44H629.303V30H620.695V28.928ZM620.727 34.016H630.983V35.088H620.727V34.016Z" fill="black"/>
<path d="M743.065 23.088H751.593V24.192H743.065V23.088ZM747.337 25.376C749.289 25.376 750.729 26.752 750.729 28.704C750.729 30.64 749.289 32.032 747.337 32.032C745.401 32.032 743.945 30.64 743.945 28.704C743.945 26.752 745.401 25.376 747.337 25.376ZM747.337 26.496C746.105 26.496 745.177 27.408 745.177 28.704C745.177 29.984 746.105 30.896 747.337 30.896C748.585 30.896 749.513 29.984 749.513 28.704C749.513 27.408 748.585 26.496 747.337 26.496ZM746.681 20.96H748.009V23.616H746.681V20.96ZM753.673 20.784H754.985V35.248H753.673V20.784ZM751.305 26.832H754.649V27.936H751.305V26.832ZM768.328 20.768H769.656V35.264H768.328V20.768ZM758.632 30.672H759.832C762.248 30.672 764.408 30.576 766.968 30.16L767.112 31.248C764.488 31.68 762.312 31.776 759.832 31.776H758.632V30.672ZM758.6 22.128H765.288V27.296H759.96V31.088H758.632V26.208H763.944V23.216H758.6V22.128Z" fill="black"/>
<circle cx="24" cy="8" r="5.5" fill="black" stroke="black"/>
<circle cx="174" cy="8" r="5.5" fill="black" stroke="black"/>
</svg>
