<svg width="134" height="151" viewBox="0 0 134 151" fill="none" xmlns="http://www.w3.org/2000/svg">
<path fill-rule="evenodd" clip-rule="evenodd" d="M6.41146 2.34503C17.0048 -3.40565 33.592 6.6608 46.3731 16.8827C52.7638 13.9445 59.6889 12.2487 66.813 12.2487C73.9074 12.2487 80.7713 13.9304 87.0897 16.8461C99.8646 6.63679 116.425 -3.39878 127.006 2.34503C141.361 10.1377 128.2 44.835 120.569 61.9956C120.678 63.2064 120.733 64.4152 120.733 65.6189C120.733 91.1441 95.6808 111.836 66.813 111.836C37.9452 111.836 12.3423 91.1441 12.3423 65.6189C12.3423 64.2092 12.4204 62.7924 12.5729 61.3736C4.90713 44.0103 -7.77214 10.0447 6.41146 2.34503Z" fill="white"/>
<path fill-rule="evenodd" clip-rule="evenodd" d="M18.4364 86.5129C45.5612 85.8524 67.3632 61.7242 67.3632 32.0562C67.3632 25.102 66.1653 18.4522 63.9818 12.3377C57.8563 12.7218 51.9138 14.3353 46.3732 16.8827C33.5921 6.66084 17.0048 -3.40566 6.41146 2.34503C-7.77213 10.0447 4.90711 44.0102 12.5728 61.3735C12.4204 62.7924 12.3423 64.2092 12.3423 65.619C12.3423 73.1382 14.564 80.2379 18.4364 86.5129Z" fill="#FED402"/>
<path fill-rule="evenodd" clip-rule="evenodd" d="M72.8346 12.6508C77.7879 13.3114 82.5778 14.7642 87.0895 16.8461C99.8644 6.63683 116.425 -3.3988 127.005 2.34503C141.36 10.1377 128.199 44.835 120.568 61.9956C120.678 63.2065 120.733 64.4153 120.733 65.619C120.733 73.0476 118.611 80.0668 114.891 86.2858C89.4627 83.687 69.564 60.3997 69.564 32.0563C69.564 25.2206 70.7214 18.679 72.8346 12.6508Z" fill="#FED402"/>
<g style="mix-blend-mode:multiply">
<path d="M10.0231 10.8954C2.53943 15.7427 10.1368 36.7965 13.6527 45.4144C14.2776 46.9462 16.3666 47.0184 17.2094 45.5948C22.8076 36.1386 28.6109 30.5468 38.0134 22.3928C38.9638 21.5686 38.9273 20.0896 37.9038 19.3582C32.5865 15.5584 17.7136 5.91419 10.0231 10.8954Z" fill="#FED402" fill-opacity="0.5"/>
<path d="M123.603 10.8954C131.087 15.7427 123.489 36.7965 119.973 45.4144C119.348 46.9462 117.259 47.0184 116.417 45.5948C110.818 36.1386 105.015 30.5468 95.6126 22.3928C94.6622 21.5686 94.6987 20.0896 95.7222 19.3582C101.04 15.5584 115.912 5.91419 123.603 10.8954Z" fill="#FED402" fill-opacity="0.5"/>
</g>
<ellipse cx="44.8046" cy="55.7151" rx="6.05229" ry="7.70292" fill="#56392B"/>
<ellipse cx="47.0055" cy="54.6147" rx="1.65063" ry="2.20083" fill="white"/>
<ellipse cx="6.05229" cy="7.70292" rx="6.05229" ry="7.70292" transform="matrix(-1 0 0 1 97.0745 48.0122)" fill="#56392B"/>
<ellipse cx="1.65063" cy="2.20083" rx="1.65063" ry="2.20083" transform="matrix(-1 0 0 1 90.4719 52.4138)" fill="white"/>
<path d="M76.1666 70.5708C76.1666 72.6979 72.7179 74.4222 68.4637 74.4222C64.2095 74.4222 60.7607 72.6979 60.7607 70.5708C60.7607 68.4437 64.2095 65.6189 68.4637 65.6189C72.7179 65.6189 76.1666 68.4437 76.1666 70.5708Z" fill="#56392B"/>
<circle cx="71.7648" cy="68.9202" r="1.10042" fill="white"/>
<path d="M68.4636 68.9202V75.5227C68.4636 77.9536 66.4929 79.9243 64.0619 79.9243H62.4113C60.892 79.9243 59.6603 78.6927 59.6603 77.1733V77.1733" stroke="#56392B" stroke-width="2" stroke-linecap="round" stroke-linejoin="round"/>
<path d="M68.4636 68.9202V75.5227C68.4636 77.9536 70.4343 79.9243 72.8653 79.9243H74.5159C76.0353 79.9243 77.267 78.6927 77.267 77.1733V77.1733" stroke="#56392B" stroke-width="2" stroke-linecap="round" stroke-linejoin="round"/>
<ellipse cx="39.8528" cy="71.121" rx="8.80334" ry="5.50208" fill="#FEB1AA"/>
<ellipse cx="97.0745" cy="71.121" rx="8.80334" ry="5.50208" fill="#FEB1AA"/>
<g filter="url(#filter0_f_431_471)">
<path d="M17.3775 87.378C17.4983 86.6177 18.3989 86.2716 19.0098 86.74C46.0446 107.468 89.3956 106.548 114.512 86.7153C115.104 86.248 115.989 86.5567 116.146 87.2945L120.725 108.91C121.477 112.458 119.754 116.094 116.444 117.577C84.0236 132.102 48.3468 132.077 18.0248 117.504C14.9741 116.038 13.3548 112.696 13.8859 109.353L17.3775 87.378Z" fill="#8ED2C9"/>
</g>
<path d="M17.3775 87.378C17.4983 86.6177 18.3989 86.2716 19.0098 86.74C46.0446 107.468 89.3956 106.548 114.512 86.7153C115.104 86.248 115.989 86.5567 116.146 87.2945L120.725 108.91C121.477 112.458 119.754 116.094 116.444 117.577C84.0236 132.102 48.3468 132.077 18.0248 117.504C14.9741 116.038 13.3548 112.696 13.8859 109.353L17.3775 87.378Z" fill="#8ED2C9"/>
<g filter="url(#filter1_f_431_471)">
<path d="M83.2821 114.19C82.0918 114.19 81.154 115.211 81.2606 116.396C82.3698 128.738 84.063 135.781 90.5086 144.746C90.9619 145.376 91.7429 145.68 92.5062 145.537L92.6008 145.52C93.1465 147.106 94.0438 148.376 95.0942 149.516C95.4754 149.93 96.1198 149.956 96.5336 149.575C96.9474 149.194 96.9738 148.55 96.5926 148.136C95.7428 147.213 95.0679 146.263 94.6316 145.141L97.0793 144.685C97.6101 146.424 98.557 147.79 99.6783 149.007C100.059 149.421 100.704 149.447 101.118 149.066C101.532 148.685 101.558 148.04 101.177 147.626C100.246 146.617 99.5257 145.573 99.0982 144.308L101.232 143.911C101.775 145.534 102.685 146.829 103.753 147.988C104.134 148.402 104.779 148.428 105.193 148.047C105.606 147.666 105.633 147.021 105.252 146.608C104.381 145.663 103.695 144.689 103.26 143.533L105.392 143.135C105.942 144.646 106.813 145.868 107.828 146.969C108.209 147.383 108.853 147.41 109.267 147.028C109.681 146.647 109.707 146.003 109.326 145.589C108.517 144.711 107.867 143.807 107.43 142.755L109.558 142.358C110.111 143.759 110.943 144.909 111.903 145.951C112.284 146.365 112.928 146.391 113.342 146.01C113.756 145.629 113.782 144.984 113.401 144.57C112.654 143.76 112.042 142.927 111.609 141.976L113.732 141.58C114.282 142.873 115.073 143.951 115.977 144.932C116.359 145.346 117.003 145.372 117.417 144.991C117.831 144.61 117.857 143.965 117.476 143.552C116.792 142.809 116.221 142.048 115.797 141.195L117.912 140.801C118.456 141.988 119.204 142.993 120.052 143.913C120.433 144.327 121.078 144.354 121.492 143.972C121.905 143.591 121.932 142.947 121.551 142.533C120.796 141.714 120.179 140.872 119.745 139.908C120.206 139.287 120.31 138.415 119.891 137.664C115.461 129.714 113.299 124.329 111.465 115.825C111.26 114.877 110.426 114.19 109.457 114.19H83.2821Z" fill="#8ED2C9"/>
</g>
<path fill-rule="evenodd" clip-rule="evenodd" d="M83.2417 114.191C82.0732 114.191 81.1527 115.193 81.2571 116.356C82.3671 128.732 84.0585 135.782 90.5225 144.765C90.9677 145.384 91.7341 145.682 92.4835 145.542L92.6195 145.517C93.1642 147.099 94.0595 148.366 95.1081 149.504C95.4823 149.91 96.1149 149.936 96.5211 149.562C96.9273 149.188 96.9533 148.555 96.5791 148.149C95.7272 147.224 95.0503 146.271 94.613 145.145L97.0979 144.682C97.6277 146.417 98.5725 147.779 99.6921 148.995C100.066 149.401 100.699 149.427 101.105 149.053C101.511 148.678 101.537 148.046 101.163 147.64C100.231 146.628 99.5082 145.581 99.0797 144.312L101.251 143.908C101.793 145.527 102.701 146.818 103.767 147.976C104.141 148.382 104.774 148.408 105.18 148.034C105.586 147.66 105.612 147.027 105.238 146.621C104.366 145.674 103.677 144.697 103.241 143.536L105.411 143.132C105.96 144.639 106.829 145.858 107.842 146.957C108.216 147.363 108.849 147.389 109.255 147.015C109.661 146.641 109.687 146.008 109.313 145.602C108.502 144.722 107.849 143.815 107.411 142.759L109.577 142.355C110.129 143.752 110.959 144.899 111.916 145.939C112.291 146.345 112.923 146.371 113.329 145.997C113.736 145.622 113.762 144.99 113.387 144.584C112.638 143.771 112.024 142.935 111.59 141.98L113.751 141.577C114.3 142.866 115.089 143.94 115.991 144.92C116.365 145.326 116.998 145.352 117.404 144.978C117.81 144.604 117.836 143.971 117.462 143.565C116.776 142.82 116.203 142.056 115.778 141.199L117.931 140.798C118.474 141.981 119.22 142.983 120.066 143.901C120.44 144.307 121.073 144.333 121.479 143.959C121.885 143.585 121.911 142.952 121.537 142.546C120.79 141.736 120.178 140.903 119.744 139.952C120.221 139.34 120.337 138.463 119.917 137.71C115.465 129.725 113.297 124.334 111.458 115.796C111.258 114.865 110.439 114.191 109.487 114.191H83.2417Z" fill="#8ED2C9"/>
<path d="M95.63 121.921C95.6992 121.881 95.7671 121.838 95.8336 121.791C96.9692 120.987 97.2427 119.421 96.4444 118.293C95.6461 117.165 94.0783 116.902 92.9426 117.706C92.8324 117.784 92.7303 117.869 92.6365 117.96C92.5666 116.988 91.9507 116.102 90.9969 115.752C89.7066 115.278 88.2864 115.965 87.8248 117.286C87.5787 117.99 87.6547 118.732 87.9749 119.343C87.8725 119.331 87.7683 119.324 87.6627 119.324C86.2637 119.32 85.1438 120.431 85.1614 121.805C85.1789 123.179 86.3273 124.297 87.7262 124.301C87.8017 124.301 87.8764 124.298 87.9502 124.292C87.9199 124.359 87.8922 124.429 87.8672 124.5C87.4056 125.821 88.0775 127.275 89.3678 127.749C90.6581 128.222 92.0783 127.536 92.5399 126.215C92.5809 126.098 92.6129 125.98 92.6364 125.861C93.0935 126.273 93.7013 126.526 94.3656 126.528C95.7646 126.532 96.8845 125.421 96.8669 124.047C96.8555 123.149 96.3614 122.361 95.63 121.921Z" fill="white"/>
<g style="mix-blend-mode:multiply">
<circle cx="91.5384" cy="121.938" r="1.88757" transform="rotate(79.3678 91.5384 121.938)" fill="#FED402"/>
</g>
<path d="M110.723 131.512C110.82 131.456 110.915 131.396 111.008 131.33C112.595 130.207 112.977 128.018 111.862 126.441C110.746 124.865 108.555 124.497 106.968 125.621C106.813 125.73 106.671 125.849 106.54 125.976C106.442 124.618 105.581 123.38 104.248 122.89C102.445 122.228 100.46 123.188 99.8148 125.034C99.4709 126.018 99.5772 127.055 100.025 127.909C99.8815 127.891 99.7359 127.882 99.5882 127.882C97.633 127.876 96.0679 129.429 96.0925 131.35C96.117 133.271 97.7219 134.832 99.6771 134.838C99.7826 134.838 99.887 134.834 99.9901 134.825C99.9477 134.92 99.909 135.017 99.8741 135.116C99.229 136.962 100.168 138.995 101.971 139.657C103.775 140.319 105.76 139.359 106.405 137.514C106.462 137.35 106.507 137.184 106.54 137.018C107.178 137.595 108.028 137.948 108.956 137.951C110.912 137.956 112.477 136.404 112.452 134.483C112.436 133.228 111.746 132.126 110.723 131.512Z" fill="white"/>
<g style="mix-blend-mode:multiply">
<circle cx="105.005" cy="131.536" r="2.63806" transform="rotate(79.3678 105.005 131.536)" fill="#FED402"/>
</g>
<defs>
<filter id="filter0_f_431_471" x="12.7861" y="85.4937" width="109.113" height="43.9587" filterUnits="userSpaceOnUse" color-interpolation-filters="sRGB">
<feFlood flood-opacity="0" result="BackgroundImageFix"/>
<feBlend mode="normal" in="SourceGraphic" in2="BackgroundImageFix" result="shape"/>
<feGaussianBlur stdDeviation="0.5" result="effect1_foregroundBlur_431_471"/>
</filter>
<filter id="filter1_f_431_471" x="80.2523" y="113.19" width="42.5677" height="37.6543" filterUnits="userSpaceOnUse" color-interpolation-filters="sRGB">
<feFlood flood-opacity="0" result="BackgroundImageFix"/>
<feBlend mode="normal" in="SourceGraphic" in2="BackgroundImageFix" result="shape"/>
<feGaussianBlur stdDeviation="0.5" result="effect1_foregroundBlur_431_471"/>
</filter>
</defs>
</svg>
