<svg width="155" height="133" viewBox="0 0 155 133" fill="none" xmlns="http://www.w3.org/2000/svg">
<path d="M63.9712 37.8683C66.5188 35.4189 67.6731 32.3622 66.6279 28.338C63.2298 15.2541 36.3355 -1.94635 20.9443 3.0646C5.55307 8.07556 -2.63629 21.5877 0.761829 34.6715C1.52626 37.6148 2.88953 40.2272 4.71876 42.4515C3.80614 45.8722 3.86562 49.1954 5.08013 52.1223C6.44152 55.4031 9.07885 57.7634 12.5387 59.152C11.543 62.0443 11.4417 64.7821 12.4121 67.1207C15.7143 75.0788 30.1755 75.4003 44.712 67.8389C59.2485 60.2775 68.3557 47.6965 65.0535 39.7385C64.7717 39.0595 64.4086 38.436 63.9712 37.8683Z" fill="#C4C4C4"/>
<path d="M90.6794 37.8683C88.1319 35.4189 86.9775 32.3622 88.0227 28.338C91.4208 15.2541 118.315 -1.94635 133.706 3.0646C149.098 8.07556 157.287 21.5877 153.889 34.6715C153.124 37.6148 151.761 40.2272 149.932 42.4515C150.844 45.8722 150.785 49.1954 149.571 52.1223C148.209 55.4031 145.572 57.7634 142.112 59.152C143.108 62.0443 143.209 64.7821 142.238 67.1207C138.936 75.0788 124.475 75.4003 109.939 67.8389C95.4022 60.2775 86.295 47.6965 89.5972 39.7385C89.879 39.0595 90.242 38.436 90.6794 37.8683Z" fill="#C4C4C4"/>
<ellipse cx="31.5949" cy="37.0692" rx="20.6878" ry="22.8158" fill="#EAEAEA"/>
<ellipse cx="122.91" cy="37.0692" rx="20.6878" ry="22.8158" fill="#EAEAEA"/>
<path d="M124.189 52.2174C124.189 74.7171 124.201 92.0517 77.6127 92.0517C31.0243 92.0517 29.8757 74.7171 29.8757 52.2174C29.8757 29.7178 52.3142 0.667236 78.0443 0.667236C103.774 0.667236 124.189 29.7178 124.189 52.2174Z" fill="#C4C4C4"/>
<circle cx="56.4663" cy="48.7993" r="3.85058" fill="#606060"/>
<circle cx="98.8227" cy="48.7993" r="3.85058" fill="#606060"/>
<path d="M78.4967 58.0754V64.5192C78.4967 67.431 80.8571 69.7914 83.7688 69.7914H85.2957C87.3642 69.7914 89.041 68.1146 89.041 66.0461V66.0461" stroke="#606060" stroke-width="1.64331" stroke-linecap="round" stroke-linejoin="round"/>
<path d="M78.4968 58.0754V64.5192C78.4968 67.431 76.1363 69.7914 73.2246 69.7914H71.6977C69.6292 69.7914 67.9524 68.1146 67.9524 66.0461V66.0461" stroke="#606060" stroke-width="1.64331" stroke-linecap="round" stroke-linejoin="round"/>
<path d="M87.74 54.092C87.74 59.5273 89.6859 63.9334 78.4968 63.9334C67.3077 63.9334 69.2536 59.5273 69.2536 54.092C69.2536 48.6568 73.3919 42.8447 78.4968 42.8447C83.6017 42.8447 87.74 48.6568 87.74 54.092Z" fill="#606060"/>
<circle cx="74.3962" cy="49.2884" r="1.75739" fill="white"/>
<circle cx="44.5206" cy="63.9333" r="8.20117" fill="#FFCEB9"/>
<circle cx="111.302" cy="63.9333" r="8.20117" fill="#FFCEB9"/>
<g filter="url(#filter0_f_431_470)">
<path d="M29.2068 71.378C29.3277 70.6177 30.2283 70.2715 30.8398 70.7393C56.8687 90.6536 98.5526 89.7704 122.739 70.7147C123.331 70.248 124.217 70.5567 124.373 71.2945L128.725 91.8358C129.477 95.3845 127.755 99.0212 124.442 100.498C93.3328 114.368 59.1319 114.343 30.0272 100.426C26.9736 98.9654 25.3548 95.6222 25.8859 92.2794L29.2068 71.378Z" fill="#8ED2C9"/>
</g>
<path d="M29.2068 71.378C29.3277 70.6177 30.2283 70.2715 30.8398 70.7393C56.8687 90.6536 98.5526 89.7704 122.739 70.7147C123.331 70.248 124.217 70.5567 124.373 71.2945L128.725 91.8358C129.477 95.3845 127.755 99.0212 124.442 100.498C93.3328 114.368 59.1319 114.343 30.0272 100.426C26.9736 98.9654 25.3548 95.6222 25.8859 92.2794L29.2068 71.378Z" fill="#8ED2C9"/>
<g filter="url(#filter1_f_431_470)">
<path d="M92.703 97.1438C91.5564 97.1438 90.653 98.1265 90.7556 99.2685C91.8242 111.157 93.4552 117.942 99.6643 126.578C100.101 127.185 100.853 127.478 101.589 127.34L101.68 127.323C102.205 128.851 103.07 130.075 104.082 131.173C104.449 131.572 105.07 131.597 105.468 131.23C105.867 130.863 105.892 130.242 105.525 129.843C104.706 128.955 104.056 128.039 103.636 126.959L105.994 126.519C106.505 128.195 107.417 129.51 108.497 130.683C108.865 131.081 109.486 131.107 109.884 130.739C110.283 130.372 110.308 129.751 109.941 129.353C109.045 128.38 108.35 127.375 107.939 126.157L109.994 125.773C110.517 127.338 111.394 128.584 112.423 129.701C112.79 130.1 113.411 130.125 113.809 129.758C114.208 129.391 114.233 128.77 113.866 128.371C113.028 127.462 112.366 126.523 111.947 125.409L114.001 125.026C114.531 126.482 115.371 127.659 116.348 128.72C116.715 129.118 117.336 129.144 117.735 128.777C118.133 128.41 118.159 127.789 117.791 127.39C117.012 126.544 116.386 125.674 115.965 124.66L118.015 124.278C118.547 125.627 119.349 126.735 120.273 127.739C120.64 128.137 121.261 128.163 121.66 127.795C122.058 127.428 122.084 126.807 121.717 126.409C120.997 125.628 120.408 124.826 119.99 123.91L122.035 123.528C122.566 124.774 123.327 125.812 124.198 126.757C124.566 127.156 125.186 127.181 125.585 126.814C125.984 126.447 126.009 125.826 125.642 125.428C124.983 124.712 124.433 123.979 124.025 123.157L126.062 122.778C126.586 123.921 127.307 124.889 128.124 125.776C128.491 126.175 129.112 126.2 129.51 125.833C129.909 125.466 129.934 124.845 129.567 124.446C128.84 123.657 128.246 122.846 127.827 121.918C128.272 121.319 128.372 120.48 127.969 119.756C123.701 112.097 121.618 106.911 119.851 98.7182C119.654 97.805 118.851 97.1438 117.917 97.1438H92.703Z" fill="#8ED2C9"/>
</g>
<path fill-rule="evenodd" clip-rule="evenodd" d="M92.7438 97.144C91.5753 97.144 90.6547 98.1451 90.7595 99.3089C91.8273 111.164 93.46 117.942 99.6508 126.559C100.096 127.178 100.862 127.476 101.612 127.336L101.661 127.327C102.188 128.859 103.054 130.086 104.068 131.186C104.442 131.592 105.075 131.618 105.481 131.244C105.887 130.87 105.913 130.237 105.539 129.831C104.722 128.944 104.074 128.032 103.655 126.956L105.975 126.523C106.488 128.203 107.402 129.521 108.484 130.695C108.858 131.102 109.491 131.128 109.897 130.753C110.303 130.379 110.329 129.747 109.955 129.34C109.06 128.369 108.368 127.367 107.957 126.153L109.976 125.777C110.5 127.346 111.378 128.595 112.409 129.714C112.783 130.12 113.416 130.146 113.822 129.772C114.228 129.398 114.254 128.765 113.88 128.359C113.044 127.451 112.384 126.516 111.966 125.406L113.983 125.03C114.514 126.49 115.355 127.67 116.334 128.733C116.708 129.139 117.341 129.165 117.747 128.791C118.153 128.417 118.179 127.784 117.805 127.378C117.028 126.534 116.403 125.666 115.983 124.657L117.996 124.282C118.53 125.635 119.333 126.746 120.259 127.752C120.634 128.158 121.266 128.184 121.672 127.809C122.079 127.435 122.105 126.803 121.73 126.396C121.013 125.618 120.426 124.819 120.009 123.906L122.016 123.532C122.548 124.781 123.312 125.823 124.185 126.77C124.559 127.176 125.192 127.202 125.598 126.828C126.004 126.454 126.03 125.821 125.656 125.415C124.999 124.702 124.451 123.972 124.044 123.154L126.043 122.781C126.569 123.929 127.291 124.9 128.11 125.789C128.484 126.195 129.117 126.221 129.523 125.847C129.929 125.473 129.955 124.84 129.581 124.434C128.845 123.635 128.246 122.815 127.828 121.873C128.256 121.266 128.345 120.432 127.943 119.71C123.699 112.086 121.62 106.907 119.858 98.7482C119.657 97.8176 118.839 97.144 117.887 97.144H92.7438Z" fill="#8ED2C9"/>
<path d="M104.598 104.591C104.664 104.552 104.73 104.51 104.794 104.465C105.888 103.691 106.151 102.182 105.382 101.096C104.613 100.009 103.103 99.7559 102.009 100.53C101.903 100.605 101.804 100.687 101.714 100.775C101.647 99.8391 101.053 98.9855 100.134 98.6482C98.8915 98.1919 97.5234 98.8533 97.0788 100.125C96.8417 100.804 96.915 101.519 97.2234 102.107C97.1247 102.095 97.0244 102.089 96.9226 102.089C95.575 102.085 94.4962 103.155 94.5131 104.479C94.53 105.803 95.6362 106.879 96.9839 106.883C97.0566 106.883 97.1285 106.88 97.1996 106.874C97.1704 106.939 97.1437 107.006 97.1197 107.075C96.675 108.347 97.3222 109.748 98.5652 110.205C99.8081 110.661 101.176 109.999 101.621 108.727C101.66 108.614 101.691 108.5 101.714 108.386C102.154 108.783 102.74 109.027 103.38 109.029C104.727 109.032 105.806 107.962 105.789 106.638C105.778 105.773 105.302 105.014 104.598 104.591Z" fill="white"/>
<g style="mix-blend-mode:multiply">
<circle cx="100.656" cy="104.607" r="1.8183" transform="rotate(79.3678 100.656 104.607)" fill="#FED402"/>
</g>
<path d="M119.137 113.829C119.23 113.776 119.322 113.717 119.411 113.654C120.94 112.572 121.308 110.464 120.234 108.945C119.159 107.426 117.048 107.072 115.519 108.154C115.371 108.259 115.233 108.374 115.107 108.497C115.013 107.189 114.184 105.996 112.9 105.524C111.162 104.886 109.25 105.811 108.629 107.589C108.298 108.537 108.4 109.536 108.831 110.359C108.693 110.342 108.553 110.333 108.411 110.332C106.527 110.327 105.02 111.823 105.043 113.673C105.067 115.524 106.613 117.028 108.496 117.033C108.598 117.033 108.699 117.029 108.798 117.021C108.757 117.112 108.72 117.205 108.686 117.301C108.065 119.079 108.969 121.038 110.706 121.675C112.444 122.313 114.356 121.389 114.977 119.611C115.032 119.453 115.075 119.293 115.107 119.134C115.722 119.689 116.541 120.029 117.435 120.032C119.318 120.037 120.826 118.541 120.803 116.691C120.787 115.482 120.122 114.421 119.137 113.829Z" fill="white"/>
<g style="mix-blend-mode:multiply">
<circle cx="113.629" cy="113.852" r="2.54125" transform="rotate(79.3678 113.629 113.852)" fill="#FED402"/>
</g>
<defs>
<filter id="filter0_f_431_470" x="24.7861" y="69.4934" width="105.113" height="42.3887" filterUnits="userSpaceOnUse" color-interpolation-filters="sRGB">
<feFlood flood-opacity="0" result="BackgroundImageFix"/>
<feBlend mode="normal" in="SourceGraphic" in2="BackgroundImageFix" result="shape"/>
<feGaussianBlur stdDeviation="0.5" result="effect1_foregroundBlur_431_470"/>
</filter>
<filter id="filter1_f_431_470" x="89.7477" y="96.1438" width="41.079" height="36.3457" filterUnits="userSpaceOnUse" color-interpolation-filters="sRGB">
<feFlood flood-opacity="0" result="BackgroundImageFix"/>
<feBlend mode="normal" in="SourceGraphic" in2="BackgroundImageFix" result="shape"/>
<feGaussianBlur stdDeviation="0.5" result="effect1_foregroundBlur_431_470"/>
</filter>
</defs>
</svg>
