<svg width="126" height="147" viewBox="0 0 126 147" fill="none" xmlns="http://www.w3.org/2000/svg">
<g id="&#235;&#130;&#152;&#235;&#172;&#180;&#235;&#138;&#152;&#235;&#179;&#180;">
<g id="&#235;&#130;&#152;&#235;&#172;&#180;&#235;&#138;&#152;&#235;&#179;&#180;_2">
<g id="Face">
<path id="Vector 107" d="M44.7171 9.05835C43.7251 14.1537 54.3416 20.9475 54.3416 20.9475L84.3475 20.4019C84.3475 20.4019 73.2418 0 67.5803 0C63.8536 0 65.0332 4.42458 66.2746 7.44869C66.4329 7.83421 65.7362 8.32417 65.4347 8.03646C62.4916 5.22786 57.1224 0.741006 53.2093 1.1323C49.388 1.51441 53.6615 6.54867 56.8432 9.78084C57.1428 10.0852 56.6295 10.7804 56.2499 10.5846C52.0538 8.42026 45.3916 5.59403 44.7171 9.05835Z" fill="#C79D72"/>
<path id="Rectangle 75" d="M8.33438 58.2301C9.902 34.4747 29.6276 16.0078 53.4347 16.0078H77.7823C101.693 16.0078 121.468 34.6311 122.9 58.4992L123.193 63.3924C124.763 89.553 105.438 112.629 79.2319 112.904C69.9746 113.001 60.9496 112.828 51.9694 112.438C25.6826 111.297 6.37023 87.9946 8.10276 61.7401L8.33438 58.2301Z" fill="#C79D72"/>
</g>
<path id="Rectangle 76" d="M18.0177 61.6676C19.3619 41.2764 36.2936 25.4241 56.729 25.4241H73.4265C94.2569 25.4241 111.483 41.6487 112.729 62.4417C114.095 85.2278 97.2596 105.342 74.4329 105.458C68.0849 105.49 61.8603 105.37 55.669 105.122C33.1059 104.22 16.5325 84.1999 18.0177 61.6676Z" fill="#EDD49B"/>
<g id="Nose">
<path id="Ellipse 201" d="M85.3152 86.912C85.3152 96.6422 76.8086 101.939 66.3152 101.939C55.8218 101.939 47.3152 96.6422 47.3152 86.912C47.3152 77.1817 55.8218 67.7393 66.3152 67.7393C76.8086 67.7393 85.3152 77.1817 85.3152 86.912Z" fill="#B19574"/>
<g id="Group 64">
<g id="Group 63">
<rect id="Rectangle 70" x="65.1558" y="78.4004" width="2.67357" height="11.5855" rx="1.33678" fill="#09060D"/>
<path id="Vector 106" d="M58 86C62.0263 90 70.9737 90 75 86" stroke="#09060D" stroke-width="2.5" stroke-linecap="round"/>
</g>
<path id="Ellipse 225" d="M74.3549 77.0296C74.3549 79.9273 70.8314 82.2763 66.4849 82.2763C62.1383 82.2763 58.6148 79.9273 58.6148 77.0296C58.6148 74.1319 62.1383 70.5059 66.4849 70.5059C70.8314 70.5059 74.3549 74.1319 74.3549 77.0296Z" fill="#09060D"/>
<circle id="Ellipse 200" cx="70.1576" cy="74.9309" r="1.04934" fill="white"/>
</g>
</g>
<g id="Eyes">
<path id="Left" fill-rule="evenodd" clip-rule="evenodd" d="M19.4962 53.3491C18.7149 56.0073 18.2115 58.7888 18.0205 61.6615C17.369 71.4546 20.1621 80.768 25.3894 88.2166C32.378 82.4738 40.3617 78.0455 47.5628 74.2745C55.8595 69.9298 59.3689 59.0047 55.3994 50.6548C52.9389 45.4792 48.0986 42.4163 42.6803 43.2772C31.7085 45.0206 25.1742 48.4062 19.4962 53.3491Z" fill="#AA6C56"/>
<path id="right" fill-rule="evenodd" clip-rule="evenodd" d="M110.067 50.4239C111.549 54.1686 112.471 58.2038 112.727 62.4299C113.271 71.4337 110.947 80.0162 106.52 87.0915C99.8793 81.8894 92.4732 77.7953 85.7495 74.2743C77.4528 69.9296 73.9434 59.0045 77.9129 50.6546C80.3733 45.4789 85.2137 42.416 90.632 43.277C99.2846 44.6518 105.177 47.0481 110.067 50.4239Z" fill="#AA6C56"/>
<path id="Vector 20" d="M12.5068 19.8939C17.641 20.7915 22.5038 26.5735 22.5038 26.5735C22.5038 26.5735 15.9678 30.3627 10.8336 29.4652C5.69939 28.5676 0.836592 22.7856 0.836592 22.7856C0.836592 22.7856 7.37262 18.9964 12.5068 19.8939Z" fill="#34876F"/>
<path id="Vector 21" d="M28.324 13.7917C27.1127 18.8611 21.384 23.441 21.384 23.441C21.384 23.441 18.3446 16.766 19.5559 11.6967C20.7671 6.62735 26.4958 2.04744 26.4958 2.04744C26.4958 2.04744 29.5352 8.7224 28.324 13.7917Z" fill="#34876F"/>
<g id="Eye balls">
<g id="Left_2">
<circle id="Ellipse 226" cx="38.8091" cy="66.8561" r="8.47471" fill="#09060D"/>
<circle id="Ellipse 225_2" cx="41.6339" cy="64.9729" r="1.88327" fill="white"/>
</g>
<g id="Right">
<circle id="Ellipse 226_2" cx="8.47471" cy="8.47471" r="8.47471" transform="matrix(-1 0 0 1 102.078 58.3813)" fill="#09060D"/>
<circle id="Ellipse 225_3" cx="1.88327" cy="1.88327" r="1.88327" transform="matrix(-1 0 0 1 92.6614 63.0896)" fill="white"/>
</g>
</g>
</g>
<g id="Blushes">
<circle id="Ellipse 210" cx="38.8988" cy="86.6303" r="5.64981" fill="#FFBAA0"/>
<circle id="Ellipse 211" cx="94.4552" cy="86.6303" r="5.64981" fill="#FFBAA0"/>
</g>
<g id="Flower">
<path id="Union" d="M44.7854 17.3746C44.916 17.2644 45.0427 17.147 45.1648 17.0225C47.2525 14.8942 47.2312 11.4878 45.1172 9.41417C43.0033 7.3405 39.5971 7.38479 37.5094 9.51308C37.3067 9.7197 37.1239 9.93836 36.961 10.1667C36.4426 8.1442 34.8057 6.51085 32.6608 6.13678C29.7592 5.63074 27.0269 7.62077 26.5579 10.5816C26.3078 12.1601 26.7515 13.6958 27.66 14.8624C27.4393 14.8749 27.217 14.9007 26.9942 14.9404C24.0429 15.4663 22.1059 18.2365 22.6677 21.1278C23.2295 24.019 26.0774 25.9365 29.0287 25.4106C29.188 25.3822 29.3443 25.3473 29.4974 25.3061C29.4593 25.46 29.4274 25.617 29.402 25.7768C28.933 28.7377 30.905 31.5481 33.8065 32.0542C36.7081 32.5602 39.4404 30.5702 39.9094 27.6093C39.9511 27.3464 39.9735 27.0846 39.9777 26.8256C41.0989 27.5205 42.4771 27.8218 43.8786 27.572C46.8299 27.0461 48.7669 24.2759 48.2051 21.3846C47.8381 19.4957 46.4953 18.0225 44.7854 17.3746Z" fill="#FFA787"/>
<g id="Ellipse 36" style="mix-blend-mode:multiply">
<circle cx="36.1647" cy="18.9736" r="4.04474" transform="rotate(69.1033 36.1647 18.9736)" fill="#FEB1AA" fill-opacity="0.5"/>
</g>
</g>
<g id="Flower_2">
<path id="Union_2" d="M29.4436 29.5043C29.5677 29.3995 29.688 29.288 29.804 29.1698C31.7871 27.1481 31.7669 23.9124 29.7588 21.9426C27.7507 19.9728 24.5152 20.0149 22.5321 22.0365C22.3395 22.2328 22.1659 22.4405 22.0111 22.6574C21.5187 20.7362 19.9638 19.1847 17.9263 18.8294C15.1701 18.3487 12.5746 20.239 12.1291 23.0515C11.8916 24.5509 12.3131 26.0097 13.176 27.1179C12.9664 27.1298 12.7553 27.1543 12.5436 27.192C9.74014 27.6916 7.90014 30.323 8.4338 33.0694C8.96747 35.8158 11.6727 37.6373 14.4762 37.1377C14.6275 37.1107 14.776 37.0775 14.9214 37.0385C14.8852 37.1847 14.8549 37.3338 14.8308 37.4856C14.3853 40.2981 16.2585 42.9678 19.0147 43.4485C21.7709 43.9291 24.3664 42.0388 24.8119 39.2263C24.8514 38.9765 24.8727 38.7279 24.8767 38.4818C25.9417 39.1419 27.2509 39.4281 28.5822 39.1908C31.3856 38.6912 33.2256 36.0598 32.692 33.3134C32.3433 31.5191 31.0678 30.1196 29.4436 29.5043Z" fill="#FFCE05"/>
<g id="Ellipse 36_2" style="mix-blend-mode:multiply">
<circle cx="21.2547" cy="31.0231" r="3.84212" transform="rotate(69.1033 21.2547 31.0231)" fill="#FED402"/>
</g>
</g>
</g>
<g id="Scarf">
<path id="Union_3" fill-rule="evenodd" clip-rule="evenodd" d="M81.7297 115.757C80.5429 115.757 79.6153 116.786 79.7539 117.964C80.9997 128.56 82.9352 134.642 90.1673 142.419C90.6069 142.891 91.2536 143.112 91.8924 143.02L92.4745 142.935C93.0965 144.418 94.1461 145.572 95.3435 146.584C95.7654 146.94 96.3963 146.887 96.7527 146.465C97.109 146.043 97.0558 145.412 96.6339 145.056C95.7243 144.288 95.0152 143.514 94.5445 142.635L97.4763 142.21C98.0791 143.831 99.1849 145.067 100.457 146.142C100.879 146.498 101.51 146.445 101.867 146.023C102.223 145.601 102.17 144.97 101.748 144.614C100.743 143.765 99.983 142.91 99.5187 141.913L102.105 141.538C102.723 143.055 103.787 144.23 105.003 145.257C105.425 145.614 106.056 145.561 106.413 145.139C106.769 144.717 106.716 144.086 106.294 143.729C105.36 142.941 104.638 142.147 104.168 141.239L106.741 140.866C107.369 142.281 108.39 143.394 109.549 144.373C109.971 144.73 110.602 144.676 110.958 144.254C111.315 143.832 111.262 143.202 110.84 142.845C109.978 142.118 109.297 141.386 108.827 140.563L111.385 140.192C112.018 141.508 112.994 142.559 114.095 143.489C114.517 143.845 115.148 143.792 115.504 143.37C115.861 142.948 115.808 142.317 115.386 141.961C114.597 141.295 113.959 140.625 113.497 139.886L116.035 139.518C116.669 140.737 117.599 141.725 118.641 142.605C119.063 142.961 119.694 142.908 120.05 142.486C120.407 142.064 120.353 141.433 119.931 141.077C119.217 140.473 118.625 139.866 118.177 139.207L120.694 138.842C121.322 139.966 122.205 140.892 123.187 141.721C123.609 142.077 124.24 142.024 124.596 141.602C124.953 141.18 124.899 140.549 124.477 140.193C123.618 139.467 122.937 138.736 122.467 137.915C122.91 137.25 122.957 136.332 122.435 135.595C117.766 129.008 115.425 124.398 113.438 117.253C113.193 116.375 112.4 115.757 111.489 115.757H81.7297Z" fill="#C03A2B"/>
<g id="Group 103">
<path id="Rectangle 84" d="M18.2051 96.7209C18.3253 95.9583 19.23 95.612 19.8414 96.0833C45.8558 116.136 87.5114 115.247 111.684 96.0587C112.277 95.5884 113.167 95.8973 113.323 96.6376L117.687 117.398C118.431 120.935 116.72 124.557 113.424 126.039C82.3112 140.027 48.1016 140.003 18.9953 125.966C15.9583 124.501 14.35 121.171 14.8752 117.84L18.2051 96.7209Z" fill="#E64C3C"/>
</g>
</g>
</g>
</svg>
