<svg width="128" height="141" viewBox="0 0 128 141" fill="none" xmlns="http://www.w3.org/2000/svg">
<circle cx="14" cy="40" r="14" fill="#9B7963"/>
<circle cx="14" cy="40" r="10" fill="#3B2F1E"/>
<circle cx="114" cy="40" r="14" fill="#9B7963"/>
<circle cx="114" cy="40" r="10" fill="#3B2F1E"/>
<path d="M62.1607 4.06119C62.1218 1.86603 63.5574 0.048192 65.3674 0.000939431C67.1773 -0.0463132 68.6761 1.69491 68.7151 3.89007L68.7704 7.00529L69.6409 4.10448C70.2601 2.04122 72.1411 0.977399 73.8423 1.72836C75.5435 2.47933 76.4206 4.7607 75.8014 6.82395L72.8118 16.7862C72.1926 18.8495 70.3116 19.9133 68.6104 19.1623C68.0657 18.9219 67.6056 18.5246 67.2519 18.0278C66.7926 18.3466 66.2629 18.5347 65.6966 18.5495C65.2325 18.5616 64.7889 18.4561 64.3851 18.2556C64.083 19.3769 63.3744 20.3244 62.3896 20.7592C60.6884 21.5101 58.8074 20.4463 58.1882 18.383L55.1986 8.42077C54.5794 6.35752 55.4565 4.07615 57.1577 3.32518C58.8589 2.57422 60.7399 3.63804 61.3591 5.7013L62.2421 8.64367L62.1607 4.06119Z" fill="#9B7963"/>
<ellipse cx="64" cy="62" rx="55" ry="51" fill="#9B7963"/>
<path fill-rule="evenodd" clip-rule="evenodd" d="M11.9126 78.4195C17.2238 69.2216 27.4044 63 39.0909 63C45.6589 63 51.7512 64.9651 56.7708 68.3193C61.43 71.4327 68.57 71.4327 73.2293 68.3193C78.2489 64.9651 84.3412 63 90.9092 63C101.704 63 111.213 68.3081 116.788 76.3667C110.097 97.5384 88.9958 113 64 113C39.8194 113 19.2833 98.5304 11.9126 78.4195Z" fill="#F5E8CF"/>
<path d="M57 80.5L60.5 81.5L65.5 79L70 81.5L74 80.5L73.6497 84.5282C73.2821 88.7555 69.7433 92 65.5 92C61.2567 92 57.7179 88.7555 57.3503 84.5282L57 80.5Z" fill="#FEB1AA"/>
<path d="M65.5 67.4365V76.3152C65.5 79.2147 67.8505 81.5652 70.75 81.5652H71.4834C73.9779 81.5652 76 79.5431 76 77.0487V77.0487" stroke="#3B2F1E" stroke-width="2.5" stroke-linecap="round" stroke-linejoin="round"/>
<path d="M65.5 67.4365V76.3152C65.5 79.2147 63.1495 81.5652 60.25 81.5652H59.5166C57.0221 81.5652 55 79.5431 55 77.0487V77.0487" stroke="#3B2F1E" stroke-width="2.5" stroke-linecap="round" stroke-linejoin="round"/>
<path d="M75.7781 68.2313C75.7781 71.5389 71.1268 74.2203 65.3891 74.2203C59.6513 74.2203 55 71.5389 55 68.2313C55 64.9236 59.6513 60 65.3891 60C71.1268 60 75.7781 64.9236 75.7781 68.2313Z" fill="#3B2F1E"/>
<ellipse cx="60" cy="65.5" rx="2" ry="1.5" transform="rotate(-25.5447 60 65.5)" fill="white"/>
<ellipse cx="33.5" cy="69" rx="5.5" ry="3" fill="#FFCEB9"/>
<ellipse cx="95.5" cy="69" rx="5.5" ry="3" fill="#FFCEB9"/>
<circle cx="34.5" cy="59.5" r="7.5" fill="#3B2F1E"/>
<circle cx="31.5" cy="57.5" r="2.5" fill="white"/>
<circle cx="34.5" cy="61.5" r="1.5" fill="white"/>
<circle cx="93.5" cy="59.5" r="7.5" fill="#3B2F1E"/>
<circle cx="90.5" cy="57.5" r="2.5" fill="white"/>
<circle cx="93.5" cy="61.5" r="1.5" fill="white"/>
<path d="M29.735 74.9466L7.73499 72.9467M30.4981 79.4201L7.73497 80.9467M31.5421 83.7065L8.73497 88.9467" stroke="#3B2F1E" stroke-width="2" stroke-linecap="round"/>
<path d="M99.265 74.9466L121.265 72.9467M98.5019 79.4201L121.265 80.9467M97.4579 83.7065L120.265 88.9467" stroke="#3B2F1E" stroke-width="2" stroke-linecap="round"/>
<path fill-rule="evenodd" clip-rule="evenodd" d="M80.1365 109.757C78.9504 109.757 78.023 110.784 78.1603 111.963C79.3945 122.555 81.3113 128.637 88.4722 136.41C88.9123 136.888 89.563 137.111 90.2058 137.017L90.7586 136.936C91.3748 138.417 92.4139 139.57 93.6003 140.581C94.0206 140.939 94.6518 140.889 95.01 140.468C95.3682 140.048 95.3179 139.417 94.8975 139.059C93.9954 138.29 93.2918 137.515 92.8252 136.634L95.7153 136.211C96.3125 137.829 97.4073 139.064 98.6683 140.139C99.0886 140.497 99.7198 140.447 100.078 140.026C100.436 139.606 100.386 138.975 99.9655 138.617C98.9693 137.768 98.2152 136.912 97.7549 135.912L100.302 135.539C100.915 137.054 101.968 138.228 103.173 139.255C103.593 139.613 104.225 139.562 104.583 139.142C104.941 138.722 104.891 138.091 104.47 137.732C103.545 136.943 102.828 136.148 102.362 135.238L104.897 134.867C105.519 136.28 106.53 137.392 107.678 138.37C108.098 138.729 108.73 138.678 109.088 138.258C109.446 137.837 109.396 137.206 108.975 136.848C108.121 136.12 107.444 135.387 106.979 134.562L109.498 134.193C110.126 135.507 111.092 136.557 112.183 137.486C112.603 137.844 113.234 137.794 113.593 137.374C113.951 136.953 113.901 136.322 113.48 135.964C112.698 135.297 112.065 134.626 111.606 133.885L114.107 133.519C114.735 134.735 115.656 135.722 116.688 136.602C117.108 136.96 117.739 136.91 118.098 136.49C118.456 136.069 118.405 135.438 117.985 135.08C117.276 134.475 116.689 133.867 116.244 133.206L118.724 132.843C119.347 133.965 120.22 134.889 121.193 135.718C121.613 136.076 122.244 136.026 122.602 135.605C122.961 135.185 122.91 134.554 122.49 134.196C121.636 133.468 120.96 132.735 120.494 131.911C120.931 131.248 120.978 130.338 120.462 129.603C115.833 123.014 113.512 118.403 111.541 111.257C111.299 110.377 110.504 109.757 109.591 109.757H80.1365Z" fill="#C03A2B"/>
<path d="M17.1652 90.733C17.2848 89.9676 18.1942 89.6212 18.8058 90.0966C44.5807 110.131 85.8344 109.243 109.787 90.072C110.379 89.5975 111.274 89.9067 111.429 90.65L115.758 111.43C116.492 114.952 114.793 118.557 111.517 120.043C80.691 134.026 46.7973 134.001 17.9583 119.97C14.9401 118.501 13.3445 115.186 13.8626 111.87L17.1652 90.733Z" fill="#E64C3C"/>
</svg>
