<svg width="256" height="261" viewBox="0 0 256 261" fill="none" xmlns="http://www.w3.org/2000/svg">
<path d="M144.72 0L148.28 0.7C152.49 1.53 154.44 4.34 153.56 8.81C152.68 13.27 149.79 15.25 145.69 14.44L142.02 13.72L144.73 0L144.72 0ZM145.77 12.62C148.72 13.2 150.64 11.78 151.32 8.37C152 4.94 150.73 3 147.79 2.42L146.54 2.17L144.53 12.37L145.78 12.62H145.77Z" fill="black"/>
<path d="M155.29 11.19C156.32 7.85 159.15 6.61 161.62 7.37C164.09 8.13 165.73 10.74 164.7 14.09C163.68 17.39 160.86 18.61 158.39 17.85C155.92 17.09 154.27 14.49 155.29 11.19ZM162.55 13.43C163.2 11.31 162.66 9.59 161.08 9.1C159.52 8.62 158.1 9.73 157.45 11.86C156.8 13.97 157.35 15.67 158.91 16.15C160.49 16.64 161.9 15.54 162.55 13.43Z" fill="black"/>
<path d="M169.11 10.22L171.13 11L167.34 20.74L165.32 19.96L169.11 10.22ZM170 7.07999C170.28 6.34999 171.02 6.08999 171.76 6.37999C172.5 6.66999 172.88 7.36999 172.6 8.08999C172.32 8.79999 171.57 9.06999 170.82 8.77999C170.08 8.48999 169.72 7.77999 170 7.06999V7.07999Z" fill="black"/>
<path d="M174.65 12.39L176.26 13.16L175.79 14.54L175.84 14.56C177.11 14.13 178.41 13.89 179.7 14.5C181.71 15.45 181.97 17.22 180.82 19.62L178 25.56L176.03 24.62L178.73 18.92C179.5 17.29 179.33 16.41 178.22 15.88C177.35 15.46 176.53 15.63 175.29 16.07L172.11 22.76L170.15 21.83L174.63 12.39H174.65Z" fill="black"/>
<path d="M178.88 28.2C179.33 27.45 180.22 27.03 181.35 27.02L181.4 26.94C181.11 26.39 181.03 25.7 181.47 24.97C181.89 24.27 182.76 23.97 183.46 23.9L183.5 23.83C183.18 23 183.11 21.81 183.75 20.75C184.97 18.71 187.29 18.48 189.15 19.6C189.66 19.9 190.05 20.27 190.32 20.61L193.5 22.51L192.66 23.91L190.95 22.89C191.08 23.45 190.96 24.2 190.55 24.89C189.38 26.85 187.22 27.09 185.35 25.97C184.94 25.73 184.54 25.36 184.26 24.94C183.81 25.03 183.46 25.17 183.21 25.59C182.89 26.13 183.04 26.69 184.18 27.37L185.83 28.35C187.95 29.62 188.67 30.93 187.75 32.47C186.72 34.2 184.05 34.51 181.18 32.8C179.03 31.51 177.94 29.78 178.87 28.21L178.88 28.2ZM185.77 31.67C186.22 30.92 185.77 30.34 184.67 29.69L183.32 28.88C182.9 28.63 182.52 28.33 182.19 28.03C181.42 28.1 180.92 28.42 180.64 28.88C180.11 29.76 180.72 30.83 182.2 31.72C183.77 32.66 185.27 32.51 185.77 31.68V31.67ZM188.92 23.84C189.64 22.63 189.31 21.48 188.36 20.92C187.41 20.36 186.25 20.59 185.52 21.81C184.81 23 185.14 24.19 186.07 24.75C187 25.31 188.21 25.03 188.92 23.84Z" fill="black"/>
<path d="M201.86 24.06L205.18 26.69C207.62 28.63 208.7 30.84 206.74 33.31C204.84 35.71 202.22 35.42 199.84 33.53L198.19 32.22L194.9 36.37L193.17 35L201.86 24.05V24.06ZM200.77 32.03C202.53 33.42 203.89 33.42 205.04 31.97C206.19 30.53 205.66 29.33 203.91 27.95L202.48 26.82L199.28 30.85L200.77 32.03Z" fill="black"/>
<path d="M204.97 37.87C207.32 35.41 210.45 35.49 212.22 37.18C214.23 39.1 213.92 41.56 211.87 43.7C211.58 44 211.25 44.29 211.04 44.43L206.14 39.75C204.89 41.31 204.97 43.04 206.27 44.29C206.94 44.93 207.72 45.28 208.61 45.45L208.2 46.98C207.05 46.78 205.87 46.28 204.88 45.34C202.83 43.39 202.59 40.37 204.97 37.88V37.87ZM210.79 42.12C212.04 40.81 212.17 39.5 211.07 38.45C210.12 37.54 208.59 37.47 207.17 38.66L210.8 42.12H210.79Z" fill="black"/>
<path d="M217.15 42.53L218.34 43.86L217.05 45.24L217.09 45.28C218.59 44.93 219.92 45.22 220.67 46.05C221.01 46.43 221.18 46.74 221.29 47.08L219.61 48.05C219.45 47.71 219.32 47.47 219.04 47.16C218.47 46.52 217.35 46.15 215.67 46.76L210.82 51.11L209.37 49.5L217.15 42.52V42.53Z" fill="black"/>
<path d="M214.52 53.47L216.26 53.41C216.25 54.6 216.45 55.6 217.14 56.48C217.91 57.47 218.75 57.56 219.38 57.07C220.13 56.49 219.73 55.3 219.38 54.13C218.95 52.71 218.55 51 219.94 49.91C221.32 48.83 223.22 49.14 224.63 50.95C225.49 52.06 225.75 53.31 225.75 54.39L224.06 54.41C224.03 53.51 223.88 52.7 223.34 52.01C222.64 51.11 221.86 51.04 221.29 51.49C220.59 52.04 220.98 53.1 221.36 54.26C221.83 55.75 222.31 57.42 220.75 58.64C219.37 59.72 217.4 59.5 215.81 57.46C214.92 56.32 214.49 54.78 214.53 53.47H214.52Z" fill="black"/>
<path d="M223.59 58.62C226.52 56.71 229.48 57.57 230.89 59.74C232.3 61.91 231.89 64.96 228.96 66.87C226.06 68.76 223.11 67.89 221.7 65.72C220.29 63.55 220.69 60.51 223.59 58.62ZM227.74 64.99C229.6 63.78 230.28 62.11 229.38 60.72C228.49 59.35 226.69 59.3 224.82 60.51C222.97 61.71 222.31 63.37 223.2 64.74C224.1 66.12 225.89 66.19 227.74 64.98V64.99Z" fill="black"/>
<path d="M234.98 66.85L235.8 68.43L234.6 69.25L234.63 69.3C235.9 69.73 237.09 70.32 237.74 71.58C238.76 73.55 237.9 75.11 235.54 76.34L229.7 79.37L228.69 77.43L234.29 74.52C235.89 73.69 236.29 72.88 235.72 71.79C235.27 70.93 234.53 70.57 233.27 70.17L226.69 73.58L225.69 71.66L234.97 66.85H234.98Z" fill="black"/>
<path d="M233.23 80.38C235.31 79.54 237.1 80.87 239.17 84.72C240.29 84.25 241.11 83.44 240.54 82.01C240.13 80.99 239.28 80.22 238.42 79.61L239.49 78.3C240.53 79.05 241.71 80.15 242.34 81.7C243.32 84.11 242.23 85.84 239.66 86.89L233.83 89.25L233.16 87.59L234.2 86.96L234.18 86.91C233.07 86.34 232.06 85.53 231.59 84.37C230.91 82.7 231.53 81.07 233.24 80.38H233.23ZM235.51 86.21L237.89 85.25C236.37 82.52 235.26 81.84 234.17 82.29C233.22 82.68 233.09 83.48 233.44 84.35C233.78 85.2 234.47 85.72 235.51 86.22V86.21Z" fill="black"/>
<path d="M237.04 91.2L249.11 87.27L249.78 89.33L237.61 93.3C237.05 93.48 236.93 93.8 237.02 94.05C237.05 94.14 237.07 94.21 237.17 94.38L235.69 95.16C235.52 94.94 235.33 94.6 235.16 94.09C234.67 92.59 235.45 91.72 237.05 91.19L237.04 91.2Z" fill="black"/>
<path d="M251.2 98.48L252.07 102.72C252.65 105.53 252.17 107.74 249.7 108.25C248.4 108.52 247 108.05 246.34 106.9L246.25 106.92C246.24 108.55 245.41 109.91 243.55 110.29C240.83 110.85 239.08 108.9 238.45 105.87L237.51 101.29L251.2 98.48ZM240.09 105.28C240.53 107.42 241.54 108.49 243.22 108.15C244.76 107.83 245.19 106.5 244.74 104.33L244.29 102.15L239.64 103.11L240.09 105.29V105.28ZM246.31 103.65C246.74 105.73 247.7 106.45 248.98 106.18C250.41 105.89 250.75 104.81 250.36 102.87L249.97 100.97L245.93 101.8L246.31 103.64V103.65Z" fill="black"/>
<path d="M244.88 111.95C248.36 111.6 250.6 113.72 250.86 116.29C251.12 118.86 249.35 121.39 245.87 121.74C242.43 122.09 240.21 119.96 239.95 117.39C239.69 114.82 241.44 112.29 244.88 111.95ZM245.64 119.51C247.85 119.29 249.22 118.12 249.06 116.47C248.9 114.84 247.32 113.97 245.11 114.2C242.92 114.42 241.56 115.59 241.73 117.21C241.9 118.85 243.46 119.73 245.65 119.51H245.64Z" fill="black"/>
<path d="M245.98 123.81C249.38 123.81 251.5 125.95 251.5 128.28C251.5 129.48 251.05 130.24 250.33 131.1L252.06 131H255.94V133.18L240.79 133.21V131.42L241.96 131.23V131.17C241.16 130.39 240.53 129.31 240.53 128.13C240.53 125.51 242.52 123.81 245.98 123.8V123.81ZM243.62 131.02H248.73C249.43 130.23 249.68 129.49 249.68 128.71C249.68 127.25 248.29 126.07 246.03 126.08C243.65 126.08 242.34 127.02 242.35 128.65C242.35 129.52 242.75 130.27 243.63 131.02H243.62Z" fill="black"/>
<path d="M239.59 140.69C237.43 139.69 236.02 138.46 236.21 136.27C236.25 135.74 236.37 135.33 236.53 134.98L238.2 135.54C238.13 135.72 238.01 136.02 237.98 136.28C237.88 137.42 238.66 138.15 239.74 138.62L240.44 138.89L251.13 135.64L250.94 137.87L245.42 139.35C244.47 139.57 243.4 139.81 242.4 140.05V140.15L245.26 141.21L250.48 143.33L250.3 145.45L239.59 140.69Z" fill="black"/>
<path d="M250.16 155.81L251.04 151.8L252.84 152.19L250.61 162.38L248.81 161.99L249.69 157.96L237.83 155.37L238.3 153.22L250.16 155.81Z" fill="black"/>
<path d="M234.58 164.84C232.68 163.39 231.58 161.9 232.23 159.79C232.39 159.28 232.58 158.91 232.82 158.6L234.33 159.51C234.22 159.67 234.04 159.94 233.96 160.19C233.62 161.28 234.22 162.16 235.18 162.86L235.81 163.27L246.94 162.39L246.28 164.53L240.57 164.79C239.59 164.8 238.5 164.8 237.48 164.82L237.45 164.91L240.02 166.56L244.66 169.75L244.03 171.78L234.59 164.83L234.58 164.84Z" fill="black"/>
<path d="M243.13 174.17L242.44 175.82L241.32 175.54L241.3 175.59C241.65 176.72 241.81 178.02 241.36 179.09C240.34 181.55 237.82 182.1 234.86 180.87C231.54 179.49 230.47 176.72 231.38 174.55C231.74 173.69 232.48 172.99 233.53 172.46L231.86 171.83L228.74 170.53L229.57 168.53L243.13 174.17ZM235.7 178.78C237.72 179.62 239.23 179.49 239.9 177.87C240.21 177.12 240.13 176.24 239.68 175.08L234.96 173.12C234 173.6 233.46 174.26 233.21 174.86C232.63 176.26 233.43 177.83 235.7 178.77V178.78Z" fill="black"/>
<path d="M233.79 182.66C236.79 184.26 237.56 187.3 236.41 189.46C235.11 191.91 232.65 192.28 230.03 190.88C229.66 190.68 229.29 190.44 229.1 190.28L232.29 184.3C230.45 183.51 228.8 184.06 227.95 185.65C227.51 186.47 227.39 187.31 227.47 188.21L225.89 188.23C225.78 187.07 225.94 185.8 226.58 184.59C227.91 182.09 230.75 181.04 233.79 182.66ZM231.27 189.41C232.86 190.26 234.17 190.03 234.88 188.69C235.5 187.53 235.15 186.04 233.63 184.99L231.27 189.42V189.41Z" fill="black"/>
<path d="M229.75 203.01L232.13 199.67L233.63 200.74L227.58 209.24L226.08 208.17L228.47 204.81L218.58 197.77L219.86 195.97L229.75 203.01Z" fill="black"/>
<path d="M220.31 204.26C222.91 206.45 223.04 209.58 221.46 211.46C219.68 213.58 217.19 213.43 214.93 211.53C214.61 211.26 214.3 210.95 214.15 210.75L218.51 205.56C216.87 204.41 215.15 204.6 213.99 205.98C213.39 206.69 213.1 207.49 212.98 208.39L211.43 208.08C211.56 206.92 211.98 205.71 212.86 204.67C214.68 202.5 217.68 202.07 220.31 204.28V204.26ZM216.44 210.34C217.82 211.5 219.15 211.55 220.13 210.38C220.97 209.38 220.95 207.84 219.67 206.5L216.44 210.34Z" fill="black"/>
<path d="M210.62 209.44L210.89 211.16C209.71 211.3 208.74 211.62 207.95 212.42C207.07 213.31 207.08 214.16 207.65 214.72C208.32 215.39 209.45 214.85 210.56 214.35C211.92 213.74 213.57 213.13 214.82 214.37C216.06 215.6 216 217.52 214.38 219.16C213.39 220.16 212.18 220.57 211.11 220.71L210.87 219.03C211.76 218.89 212.55 218.63 213.16 218.01C213.96 217.2 213.93 216.42 213.42 215.91C212.79 215.28 211.78 215.81 210.68 216.32C209.26 216.97 207.66 217.66 206.26 216.27C205.02 215.04 204.98 213.05 206.8 211.21C207.82 210.19 209.29 209.56 210.6 209.43L210.62 209.44Z" fill="black"/>
<path d="M204.96 218.1L208.46 222.06L209.6 221.05L210.68 222.27L209.55 223.43L211.28 225.76L209.9 226.98L207.99 224.82L205.95 226.62L204.79 225.31L206.83 223.51L203.32 219.54C202.49 218.6 201.73 218.41 200.92 219.12C200.65 219.36 200.38 219.75 200.24 220.05L198.87 219.1C199.18 218.57 199.59 217.96 200.16 217.46C201.92 215.9 203.51 216.45 204.97 218.1H204.96Z" fill="black"/>
<path d="M193.21 224.67L193.26 224.64L192.81 223.63L194.21 222.65L202.87 235.08L201.09 236.32L198.8 233.03L197.83 231.53C197.54 232.68 196.96 233.8 196.06 234.43C193.89 235.94 191.45 235.07 189.62 232.43C187.57 229.48 188.16 226.57 190.09 225.23C190.87 224.69 192 224.48 193.22 224.67H193.21ZM191.44 231.11C192.69 232.9 194.04 233.61 195.47 232.61C196.14 232.14 196.56 231.34 196.79 230.14L193.87 225.95C192.81 225.83 191.99 226.1 191.46 226.47C190.21 227.34 190.05 229.1 191.46 231.11H191.44Z" fill="black"/>
<path d="M180.35 230.83C179.95 228.48 180.17 226.63 182.08 225.54C182.54 225.28 182.94 225.14 183.32 225.07L183.8 226.76C183.61 226.8 183.29 226.87 183.06 227C182.07 227.56 181.9 228.62 182.13 229.78L182.31 230.51L191.04 237.48L189.09 238.59L184.75 234.87C184.03 234.21 183.23 233.46 182.47 232.78L182.39 232.83L183.13 235.79L184.33 241.29L182.48 242.34L180.34 230.81L180.35 230.83Z" fill="black"/>
<path d="M177.29 248.73L175.26 249.58L170.61 238.39L165.15 240.66L164.44 238.94L171.93 235.83L177.29 248.74V248.73Z" fill="black"/>
<path d="M165.82 245.99C167.13 250.3 165.54 253.61 162.1 254.65C158.66 255.7 155.48 253.85 154.16 249.54C152.85 245.23 154.43 241.83 157.87 240.78C161.31 239.73 164.5 241.68 165.82 245.99ZM156.33 248.88C157.29 252.03 159.32 253.49 161.54 252.82C163.76 252.14 164.61 249.8 163.66 246.65C162.7 243.5 160.66 241.94 158.44 242.62C156.22 243.3 155.38 245.74 156.33 248.88Z" fill="black"/>
<path d="M152.03 257.15L149.54 257.58L145.82 251.04C145.35 250.18 144.9 249.29 144.43 248.41L144.34 248.43C144.18 249.42 144.08 250.4 143.92 251.37L142.62 258.76L140.11 259.19L137.76 245.41L139.78 245.06L140.94 251.88C141.15 253.12 141.29 254.92 141.39 256.2H141.46L142.02 252.82L143.29 245.84L144.64 245.61L148.18 251.77L149.81 254.77H149.88C149.57 253.52 149.1 251.77 148.89 250.53L147.73 243.71L149.68 243.38L152.03 257.16V257.15Z" fill="black"/>
<path d="M135.58 252.71C135.78 257.21 133.41 260.01 129.82 260.17C126.23 260.33 123.61 257.74 123.42 253.24C123.23 248.74 125.61 245.84 129.19 245.69C132.78 245.53 135.39 248.22 135.58 252.71ZM125.67 253.14C125.81 256.42 127.42 258.35 129.73 258.25C132.04 258.15 133.46 256.09 133.32 252.81C133.18 249.53 131.59 247.5 129.27 247.6C126.95 247.7 125.53 249.86 125.67 253.14Z" fill="black"/>
<path d="M114.07 251.25C113.09 251.18 112.11 251.1 111.13 251C43.96 244.2 -5.16002 184.03 1.62998 116.86C8.28998 50.94 67.26 1.84001 133.22 7.14001H133.26C133.28 7.14001 133.3 7.14001 133.32 7.14001L134.32 7.24001L134.41 6.23001L133.91 6.19001C101.47 3.42001 69.78 13.35 44.68 34.14C19.56 54.96 3.90998 84.3 0.629979 116.76C-6.22002 184.48 43.31 245.14 111.02 251.99C112.18 252.11 113.33 252.2 114.49 252.29L114.99 252.33L115.06 251.34L114.06 251.25H114.07Z" fill="black"/>
</svg>
