<svg width="158" height="158" viewBox="0 0 158 158" fill="none" xmlns="http://www.w3.org/2000/svg">
<mask id="path-1-outside-1_654_22" maskUnits="userSpaceOnUse" x="0" y="0" width="158" height="158" fill="black">
<rect fill="white" width="158" height="158"/>
<path d="M157 79C157 122.078 122.078 157 79 157C35.9218 157 1 122.078 1 79C1 35.9218 35.9218 1 79 1C122.078 1 157 35.9218 157 79Z"/>
<path d="M24 55.7139H26.0298V81.7998H39.8631V83.4893H24V55.7139Z"/>
<path d="M68.8142 69.231C68.8142 78.8332 61.9388 83.9847 54.6491 83.9847C46.6967 83.9847 40.7742 78.0917 40.7742 69.9734C40.7742 61.2372 46.9869 55.2197 54.9393 55.2197C62.8916 55.2197 68.8142 61.2363 68.8142 69.231ZM42.8865 69.8904C42.8865 76.4428 47.4012 82.3358 54.7316 82.3358C62.0621 82.3358 66.701 76.772 66.701 69.3961C66.701 63.3795 62.7665 56.8677 54.8558 56.8677C46.9451 56.8677 42.8865 63.0494 42.8865 69.8904Z"/>
<path d="M99.8368 70.3855C99.5467 66.2641 99.1741 60.9069 99.1741 57.9402H99.0916C97.9729 60.9069 96.6892 64.1218 94.9088 68.3253L88.4477 83.4912H86.9156L80.8688 68.5319C79.1291 64.2048 77.8454 60.9079 76.9343 57.9411H76.8519C76.7277 61.155 76.52 66.2245 76.1474 70.7987L75.1539 83.4912H73.1658L75.4023 55.7158H77.7222L84.4317 72.2826C85.8395 75.7446 86.9166 78.6293 87.7452 81.1433H87.8276C88.5728 78.7944 89.6915 75.9917 91.2653 72.3241L98.3066 55.7167H100.709L102.697 83.4921H100.709L99.8397 70.3874L99.8368 70.3855Z"/>
<path d="M135 69.231C135 78.8332 128.125 83.9847 120.835 83.9847C112.882 83.9847 106.96 78.0917 106.96 69.9734C106.96 61.2372 113.173 55.2197 121.125 55.2197C129.077 55.2197 135 61.2363 135 69.231ZM109.072 69.8904C109.072 76.4428 113.587 82.3358 120.917 82.3358C128.248 82.3358 132.887 76.772 132.887 69.3961C132.887 63.3795 128.952 56.8677 121.042 56.8677C113.131 56.8677 109.072 63.0494 109.072 69.8904Z"/>
<path d="M28.304 106.928H38.336V111.152H28.304V106.928ZM36.704 108.192H29.952V109.888H36.704V108.192ZM27.392 97.824H39.216V99.12H27.392V97.824ZM33.328 99.6C36.4 99.6 38.128 100.304 38.128 101.68C38.128 103.04 36.4 103.744 33.328 103.744C30.256 103.744 28.528 103.04 28.528 101.68C28.528 100.304 30.256 99.6 33.328 99.6ZM33.328 100.752C31.36 100.752 30.32 101.056 30.32 101.68C30.32 102.288 31.36 102.608 33.328 102.608C35.312 102.608 36.336 102.288 36.336 101.68C36.336 101.056 35.312 100.752 33.328 100.752ZM32.496 96.544H34.16V98.704H32.496V96.544ZM26.72 104.672H39.936V105.984H26.72V104.672ZM32.496 103.344H34.16V105.376H32.496V103.344Z"/>
<path d="M48.0467 97.552C51.1027 97.552 53.4228 99.184 53.4228 101.664C53.4228 104.16 51.1027 105.792 48.0467 105.792C45.0067 105.792 42.6707 104.16 42.6707 101.664C42.6707 99.184 45.0067 97.552 48.0467 97.552ZM48.0467 98.912C45.8867 98.912 44.3027 99.984 44.3027 101.664C44.3027 103.328 45.8867 104.416 48.0467 104.416C50.2227 104.416 51.8068 103.328 51.8068 101.664C51.8068 99.984 50.2227 98.912 48.0467 98.912ZM41.4548 108.08H54.7028V109.472H41.4548V108.08Z"/>
<path d="M56.1735 108.24H69.4215V109.616H56.1735V108.24ZM61.9335 105.264H63.5975V108.8H61.9335V105.264ZM57.7255 97.728H67.8375V102.352H59.4215V105.072H57.7575V101.024H66.1735V99.072H57.7255V97.728ZM57.7575 104.384H68.1735V105.744H57.7575V104.384Z"/>
<path d="M80.246 100.992H81.91V103.696H80.246V100.992ZM76.182 100.352H86.134V101.68H76.182V100.352ZM76.182 97.232H85.99V98.576H77.846V101.072H76.182V97.232ZM74.47 102.864H87.686V104.192H74.47V102.864ZM76.038 105.216H86.038V108.72H77.718V110.272H76.054V107.536H84.39V106.48H76.038V105.216ZM76.054 109.904H86.454V111.184H76.054V109.904Z"/>
<path d="M93.0928 97.776C95.2688 97.776 96.8367 99.776 96.8367 102.928C96.8367 106.08 95.2688 108.096 93.0928 108.096C90.9168 108.096 89.3487 106.08 89.3487 102.928C89.3487 99.776 90.9168 97.776 93.0928 97.776ZM93.0928 99.296C91.8288 99.296 90.9488 100.656 90.9488 102.928C90.9488 105.216 91.8288 106.592 93.0928 106.592C94.3568 106.592 95.2367 105.216 95.2367 102.928C95.2367 100.656 94.3568 99.296 93.0928 99.296ZM98.8528 96.704H100.533V111.328H98.8528V96.704ZM100.149 102.4H102.805V103.792H100.149V102.4Z"/>
<path d="M113.572 96.688H115.252V111.312H113.572V96.688ZM114.803 102.48H117.443V103.856H114.803V102.48ZM109.78 98.24H111.427C111.427 102.496 109.62 106.256 104.836 108.656L103.892 107.376C107.844 105.36 109.78 102.432 109.78 98.528V98.24ZM104.628 98.24H110.644V99.6H104.628V98.24Z"/>
<path d="M129.026 96.704H130.706V111.328H129.026V96.704ZM124.738 98.256H126.386C126.386 102.592 124.658 106.272 119.634 108.72L118.754 107.376C122.962 105.344 124.738 102.448 124.738 98.544V98.256ZM119.474 98.256H125.49V99.6H119.474V98.256Z"/>
</mask>
<path d="M24 55.7139H26.0298V81.7998H39.8631V83.4893H24V55.7139Z" fill="black"/>
<path d="M68.8142 69.231C68.8142 78.8332 61.9388 83.9847 54.6491 83.9847C46.6967 83.9847 40.7742 78.0917 40.7742 69.9734C40.7742 61.2372 46.9869 55.2197 54.9393 55.2197C62.8916 55.2197 68.8142 61.2363 68.8142 69.231ZM42.8865 69.8904C42.8865 76.4428 47.4012 82.3358 54.7316 82.3358C62.0621 82.3358 66.701 76.772 66.701 69.3961C66.701 63.3795 62.7665 56.8677 54.8558 56.8677C46.9451 56.8677 42.8865 63.0494 42.8865 69.8904Z" fill="black"/>
<path d="M99.8368 70.3855C99.5467 66.2641 99.1741 60.9069 99.1741 57.9402H99.0916C97.9729 60.9069 96.6892 64.1218 94.9088 68.3253L88.4477 83.4912H86.9156L80.8688 68.5319C79.1291 64.2048 77.8454 60.9079 76.9343 57.9411H76.8519C76.7277 61.155 76.52 66.2245 76.1474 70.7987L75.1539 83.4912H73.1658L75.4023 55.7158H77.7222L84.4317 72.2826C85.8395 75.7446 86.9166 78.6293 87.7452 81.1433H87.8276C88.5728 78.7944 89.6915 75.9917 91.2653 72.3241L98.3066 55.7167H100.709L102.697 83.4921H100.709L99.8397 70.3874L99.8368 70.3855Z" fill="black"/>
<path d="M135 69.231C135 78.8332 128.125 83.9847 120.835 83.9847C112.882 83.9847 106.96 78.0917 106.96 69.9734C106.96 61.2372 113.173 55.2197 121.125 55.2197C129.077 55.2197 135 61.2363 135 69.231ZM109.072 69.8904C109.072 76.4428 113.587 82.3358 120.917 82.3358C128.248 82.3358 132.887 76.772 132.887 69.3961C132.887 63.3795 128.952 56.8677 121.042 56.8677C113.131 56.8677 109.072 63.0494 109.072 69.8904Z" fill="black"/>
<path d="M28.304 106.928H38.336V111.152H28.304V106.928ZM36.704 108.192H29.952V109.888H36.704V108.192ZM27.392 97.824H39.216V99.12H27.392V97.824ZM33.328 99.6C36.4 99.6 38.128 100.304 38.128 101.68C38.128 103.04 36.4 103.744 33.328 103.744C30.256 103.744 28.528 103.04 28.528 101.68C28.528 100.304 30.256 99.6 33.328 99.6ZM33.328 100.752C31.36 100.752 30.32 101.056 30.32 101.68C30.32 102.288 31.36 102.608 33.328 102.608C35.312 102.608 36.336 102.288 36.336 101.68C36.336 101.056 35.312 100.752 33.328 100.752ZM32.496 96.544H34.16V98.704H32.496V96.544ZM26.72 104.672H39.936V105.984H26.72V104.672ZM32.496 103.344H34.16V105.376H32.496V103.344Z" fill="black"/>
<path d="M48.0467 97.552C51.1027 97.552 53.4228 99.184 53.4228 101.664C53.4228 104.16 51.1027 105.792 48.0467 105.792C45.0067 105.792 42.6707 104.16 42.6707 101.664C42.6707 99.184 45.0067 97.552 48.0467 97.552ZM48.0467 98.912C45.8867 98.912 44.3027 99.984 44.3027 101.664C44.3027 103.328 45.8867 104.416 48.0467 104.416C50.2227 104.416 51.8068 103.328 51.8068 101.664C51.8068 99.984 50.2227 98.912 48.0467 98.912ZM41.4548 108.08H54.7028V109.472H41.4548V108.08Z" fill="black"/>
<path d="M56.1735 108.24H69.4215V109.616H56.1735V108.24ZM61.9335 105.264H63.5975V108.8H61.9335V105.264ZM57.7255 97.728H67.8375V102.352H59.4215V105.072H57.7575V101.024H66.1735V99.072H57.7255V97.728ZM57.7575 104.384H68.1735V105.744H57.7575V104.384Z" fill="black"/>
<path d="M80.246 100.992H81.91V103.696H80.246V100.992ZM76.182 100.352H86.134V101.68H76.182V100.352ZM76.182 97.232H85.99V98.576H77.846V101.072H76.182V97.232ZM74.47 102.864H87.686V104.192H74.47V102.864ZM76.038 105.216H86.038V108.72H77.718V110.272H76.054V107.536H84.39V106.48H76.038V105.216ZM76.054 109.904H86.454V111.184H76.054V109.904Z" fill="black"/>
<path d="M93.0928 97.776C95.2688 97.776 96.8367 99.776 96.8367 102.928C96.8367 106.08 95.2688 108.096 93.0928 108.096C90.9168 108.096 89.3487 106.08 89.3487 102.928C89.3487 99.776 90.9168 97.776 93.0928 97.776ZM93.0928 99.296C91.8288 99.296 90.9488 100.656 90.9488 102.928C90.9488 105.216 91.8288 106.592 93.0928 106.592C94.3568 106.592 95.2367 105.216 95.2367 102.928C95.2367 100.656 94.3568 99.296 93.0928 99.296ZM98.8528 96.704H100.533V111.328H98.8528V96.704ZM100.149 102.4H102.805V103.792H100.149V102.4Z" fill="black"/>
<path d="M113.572 96.688H115.252V111.312H113.572V96.688ZM114.803 102.48H117.443V103.856H114.803V102.48ZM109.78 98.24H111.427C111.427 102.496 109.62 106.256 104.836 108.656L103.892 107.376C107.844 105.36 109.78 102.432 109.78 98.528V98.24ZM104.628 98.24H110.644V99.6H104.628V98.24Z" fill="black"/>
<path d="M129.026 96.704H130.706V111.328H129.026V96.704ZM124.738 98.256H126.386C126.386 102.592 124.658 106.272 119.634 108.72L118.754 107.376C122.962 105.344 124.738 102.448 124.738 98.544V98.256ZM119.474 98.256H125.49V99.6H119.474V98.256Z" fill="black"/>
<path d="M157 79C157 122.078 122.078 157 79 157C35.9218 157 1 122.078 1 79C1 35.9218 35.9218 1 79 1C122.078 1 157 35.9218 157 79Z" stroke="black" stroke-width="2" mask="url(#path-1-outside-1_654_22)"/>
<path d="M24 55.7139H26.0298V81.7998H39.8631V83.4893H24V55.7139Z" stroke="black" stroke-width="2" mask="url(#path-1-outside-1_654_22)"/>
<path d="M68.8142 69.231C68.8142 78.8332 61.9388 83.9847 54.6491 83.9847C46.6967 83.9847 40.7742 78.0917 40.7742 69.9734C40.7742 61.2372 46.9869 55.2197 54.9393 55.2197C62.8916 55.2197 68.8142 61.2363 68.8142 69.231ZM42.8865 69.8904C42.8865 76.4428 47.4012 82.3358 54.7316 82.3358C62.0621 82.3358 66.701 76.772 66.701 69.3961C66.701 63.3795 62.7665 56.8677 54.8558 56.8677C46.9451 56.8677 42.8865 63.0494 42.8865 69.8904Z" stroke="black" stroke-width="2" mask="url(#path-1-outside-1_654_22)"/>
<path d="M99.8368 70.3855C99.5467 66.2641 99.1741 60.9069 99.1741 57.9402H99.0916C97.9729 60.9069 96.6892 64.1218 94.9088 68.3253L88.4477 83.4912H86.9156L80.8688 68.5319C79.1291 64.2048 77.8454 60.9079 76.9343 57.9411H76.8519C76.7277 61.155 76.52 66.2245 76.1474 70.7987L75.1539 83.4912H73.1658L75.4023 55.7158H77.7222L84.4317 72.2826C85.8395 75.7446 86.9166 78.6293 87.7452 81.1433H87.8276C88.5728 78.7944 89.6915 75.9917 91.2653 72.3241L98.3066 55.7167H100.709L102.697 83.4921H100.709L99.8397 70.3874L99.8368 70.3855Z" stroke="black" stroke-width="2" mask="url(#path-1-outside-1_654_22)"/>
<path d="M135 69.231C135 78.8332 128.125 83.9847 120.835 83.9847C112.882 83.9847 106.96 78.0917 106.96 69.9734C106.96 61.2372 113.173 55.2197 121.125 55.2197C129.077 55.2197 135 61.2363 135 69.231ZM109.072 69.8904C109.072 76.4428 113.587 82.3358 120.917 82.3358C128.248 82.3358 132.887 76.772 132.887 69.3961C132.887 63.3795 128.952 56.8677 121.042 56.8677C113.131 56.8677 109.072 63.0494 109.072 69.8904Z" stroke="black" stroke-width="2" mask="url(#path-1-outside-1_654_22)"/>
<path d="M28.304 106.928H38.336V111.152H28.304V106.928ZM36.704 108.192H29.952V109.888H36.704V108.192ZM27.392 97.824H39.216V99.12H27.392V97.824ZM33.328 99.6C36.4 99.6 38.128 100.304 38.128 101.68C38.128 103.04 36.4 103.744 33.328 103.744C30.256 103.744 28.528 103.04 28.528 101.68C28.528 100.304 30.256 99.6 33.328 99.6ZM33.328 100.752C31.36 100.752 30.32 101.056 30.32 101.68C30.32 102.288 31.36 102.608 33.328 102.608C35.312 102.608 36.336 102.288 36.336 101.68C36.336 101.056 35.312 100.752 33.328 100.752ZM32.496 96.544H34.16V98.704H32.496V96.544ZM26.72 104.672H39.936V105.984H26.72V104.672ZM32.496 103.344H34.16V105.376H32.496V103.344Z" stroke="black" stroke-width="2" mask="url(#path-1-outside-1_654_22)"/>
<path d="M48.0467 97.552C51.1027 97.552 53.4228 99.184 53.4228 101.664C53.4228 104.16 51.1027 105.792 48.0467 105.792C45.0067 105.792 42.6707 104.16 42.6707 101.664C42.6707 99.184 45.0067 97.552 48.0467 97.552ZM48.0467 98.912C45.8867 98.912 44.3027 99.984 44.3027 101.664C44.3027 103.328 45.8867 104.416 48.0467 104.416C50.2227 104.416 51.8068 103.328 51.8068 101.664C51.8068 99.984 50.2227 98.912 48.0467 98.912ZM41.4548 108.08H54.7028V109.472H41.4548V108.08Z" stroke="black" stroke-width="2" mask="url(#path-1-outside-1_654_22)"/>
<path d="M56.1735 108.24H69.4215V109.616H56.1735V108.24ZM61.9335 105.264H63.5975V108.8H61.9335V105.264ZM57.7255 97.728H67.8375V102.352H59.4215V105.072H57.7575V101.024H66.1735V99.072H57.7255V97.728ZM57.7575 104.384H68.1735V105.744H57.7575V104.384Z" stroke="black" stroke-width="2" mask="url(#path-1-outside-1_654_22)"/>
<path d="M80.246 100.992H81.91V103.696H80.246V100.992ZM76.182 100.352H86.134V101.68H76.182V100.352ZM76.182 97.232H85.99V98.576H77.846V101.072H76.182V97.232ZM74.47 102.864H87.686V104.192H74.47V102.864ZM76.038 105.216H86.038V108.72H77.718V110.272H76.054V107.536H84.39V106.48H76.038V105.216ZM76.054 109.904H86.454V111.184H76.054V109.904Z" stroke="black" stroke-width="2" mask="url(#path-1-outside-1_654_22)"/>
<path d="M93.0928 97.776C95.2688 97.776 96.8367 99.776 96.8367 102.928C96.8367 106.08 95.2688 108.096 93.0928 108.096C90.9168 108.096 89.3487 106.08 89.3487 102.928C89.3487 99.776 90.9168 97.776 93.0928 97.776ZM93.0928 99.296C91.8288 99.296 90.9488 100.656 90.9488 102.928C90.9488 105.216 91.8288 106.592 93.0928 106.592C94.3568 106.592 95.2367 105.216 95.2367 102.928C95.2367 100.656 94.3568 99.296 93.0928 99.296ZM98.8528 96.704H100.533V111.328H98.8528V96.704ZM100.149 102.4H102.805V103.792H100.149V102.4Z" stroke="black" stroke-width="2" mask="url(#path-1-outside-1_654_22)"/>
<path d="M113.572 96.688H115.252V111.312H113.572V96.688ZM114.803 102.48H117.443V103.856H114.803V102.48ZM109.78 98.24H111.427C111.427 102.496 109.62 106.256 104.836 108.656L103.892 107.376C107.844 105.36 109.78 102.432 109.78 98.528V98.24ZM104.628 98.24H110.644V99.6H104.628V98.24Z" stroke="black" stroke-width="2" mask="url(#path-1-outside-1_654_22)"/>
<path d="M129.026 96.704H130.706V111.328H129.026V96.704ZM124.738 98.256H126.386C126.386 102.592 124.658 106.272 119.634 108.72L118.754 107.376C122.962 105.344 124.738 102.448 124.738 98.544V98.256ZM119.474 98.256H125.49V99.6H119.474V98.256Z" stroke="black" stroke-width="2" mask="url(#path-1-outside-1_654_22)"/>
</svg>
