<?xml version="1.0" encoding="UTF-8"?>
<svg id="_레이어_2" data-name="레이어 2" xmlns="http://www.w3.org/2000/svg" viewBox="0 0 169.41 571.92">
  <defs>
    <style>
      .cls-1 {
        fill: #f3a9aa;
        stroke: #231815;
        stroke-miterlimit: 10;
      }
    </style>
  </defs>
  <g id="_레이어_1-2" data-name="레이어 1">
    <path class="cls-1" d="m118.91,169.38c.11.57.25,1.33.42,2.18.05.28.11.57.17.86.48,2.44,1.04,5.31,1.33,6.55,2.74,11.72,6.97,25.57,8.58,34.48.13.7.24,1.37.34,2.01.04.28.09.56.12.82.17,1.35.75,9.77,3.3,20.98,1.04,4.57,2.41,9.61,4.22,14.82.07.2.13.39.2.58-3.77-8.45-4.4-9.61-11.29-20.24-2.65-6.59-5.94-12.74-6.93-18.97,0-.03.06-.06.06-.09-.27-1.66-.46-3.29-.58-4.93-1.02-14.27-1.43-28.82-.31-37.51.12-.51.24-1.04.37-1.55Zm-68.72,0c.12.48.23.98.35,1.46,1.1,8.96.39,24.96-.62,40.14-.09,1.42-.24,2.83-.48,4.25,0,.02-.08.04-.08.06-.89,5.49-4.09,10.88-6.66,16.85-6.25,9.64-7.44,11.6-10.27,17.86,1.47-4.48,2.62-8.8,3.53-12.77,2.55-11.2,3.12-19.61,3.3-20.96.09-.68.21-1.43.34-2.2.04-.21.07-.41.11-.63,1.63-8.91,5.84-22.76,8.58-34.48.29-1.24.86-4.1,1.33-6.55.06-.3.11-.59.17-.87.16-.85.31-1.61.42-2.18Zm-11.84-64.06c-.68.28-1.64.82-1.85.91-.23.1-.53.27-.77.41-.36.2-.67.39-.8.49,0,0,0,0,0,0-1.71,1.09-3.49,3.9-5.32,10.29-2.64,9.22-6.49,70.31-6.9,76.98-.26,4.24-.86,11.49-1.29,14.98-.11.91-.22,1.57-.3,1.84-.09.29-.17.57-.26.85-.14.46-.28.91-.42,1.37-3.99,12.98-7.73,24.8-8.86,34.19-.08.65-.15,1.28-.23,1.91-.15,1.28-.3,2.52-.45,3.71-.07.58-.14,1.15-.21,1.71-1.36,11.36-2.32,19.45-3.78,30.34-.23,1.77-.53,3.09-.83,4.15,0,.02,0,.04-.01.05-.02.06-.03.11-.05.16-.67,2.24-1.36,3.35-1.58,5.39-.03.27-.03.56-.03.9,0,.65-.04,1.47-.15,2.81-.07.79-.11,1.61-.2,2.55-.07.65-.14,1.31-.24,2-.35,2.45-.69,3.64-.97,5.09-.77,4.05-1.24,6-1.63,8.23-.32,1.82-.55,3.43-.64,5.05-.24,4.25.27,6.71,1.27,9.43.56,1.52,1.19,3.05,2.04,4.62.02.05.05.09.07.14,1.3,2.57,1.96,3.8,3.09,3.66.75-.09,1.04-.06,1.47-.31.08-.47.16-1.08.45-1.86,1.02.32,1.39-.07,1.82-.99.1-.2.2-.43.3-.68.14-.34.23-.68.3-1.04.47-2.35.23-4.87.64-9.35.28-3.02,1.02-.89,2.29-1.77.88.24,2.34-.63,2.14-2.09,0-.06-.02-.11-.03-.15-.57-1.51-.49-.12.36.02.6.1,1.57-.55,1.9-1.44.05-.14.08-.28.04-.45-.69-3.2-.79-6.09-1.17-8.98-.34-2.5-.93-5.53-.88-7.63,0-.15.01-.3.02-.44.03-1.25.08-2.54.09-3.91.01-1.74-.11-3.94.05-5.89.04-.44.07-.86.16-1.23.01-.07.03-.14.05-.2.02-.07.03-.14.05-.2.26-1.06.59-2.18,1-3.36,1.06-3.03,2.35-6.09,3.83-9.56.34-.17.6-.02.94.15-.81,4.11-1.44,8.67-1.68,13.81,0,.1-.01.19-.02.29-.12,2.52-.17,5.18-.11,7.99,0,.1,0,.19,0,.28.04,1.9.13,3.87.27,5.91.16,2.35.47,4.97.92,7.79,1.97,12.25,8.84,32.95,12.3,45.17.61,2.15,1.17,4.17,1.66,6.02,6.58,24.65,10.5,40.33,11.44,50.15.16,1.65.26,3.16.31,4.54.37,10.11-.86,14.39-2.12,20.66-.25,1.22-.48,2.46-.69,3.75-2.3,13.9-.47,26.08,2.61,37.3.23.85.47,1.68.71,2.51,6.11,21.02,12.4,30.81,13.25,42.01.03.43.03.84.02,1.24-.1,2.38-1.59,3.68-.86,6.7.08.32.17.64.28.98.55,1.73,1.26,3.53.04,7.19-.08.24-.17.49-.26.74-5.15,14.19-11.75,17.96-10.97,23.2.88,5.86,19.55,5.5,26.85,4.18,6.01-1.09,5.93-10.06,4.2-20.34-.35-2.08-.52-4.4-.39-7.96.06-1.76.51-3.81.75-6.28.22-2.28-.41-4.69-.75-6.6-.26-1.44-.53-2.6-.57-3.21-1.54-22.39-1.12-27.75,1.55-48.79,2.7-21.27-1.08-25.08-.61-38.08.29-7.71,2.5-15.58,3.09-23.93.75-10.46-.28-20.35-1.33-27.79-2.89-20.57-2.88-23.89-3.81-40.15-1.02-17.66,4.34-26.32,1.28-41.55.71.27,2.45.37,4.17.38,1.72.01,3.46-.11,4.17-.38-3.06,15.23,2.3,23.89,1.29,41.55-.94,16.26-.92,19.58-3.82,40.15-1.05,7.44-2.08,17.33-1.33,27.79.59,8.35,2.81,16.22,3.09,23.93.47,13-3.31,16.81-.61,38.08,2.67,21.04,3.28,26.42,1.56,48.79-.05.61-.31,1.77-.57,3.21-.34,1.91-.98,4.32-.76,6.6.24,2.47.69,4.52.76,6.28.13,3.56-.05,5.88-.4,7.96-1.73,10.28-1.81,19.25,4.2,20.34,7.31,1.32,25.97,1.68,26.85-4.18.79-5.29-5.93-9.08-11.1-23.56-1.53-4.28-.53-6.12.07-8.05,1.14-3.69-.93-4.91-.76-7.83.67-11.69,7.32-21.6,13.66-43.88,3.43-12.06,5.54-25.21,2.65-40.42-1.48-7.83-3.15-11.87-2.43-24.8.56-10,4.86-27.03,12.46-55.42,3.42-12.77,12.58-39.51,13.81-52.03.5-5.05.68-9.68.66-13.96,0-.1,0-.19,0-.29-.06-9.9-1.5-17.83-3.29-24.43.48,1.22.95,2.37,1.42,3.51.94,2.27,1.9,4.46,2.99,6.95.88,1.98,1.66,3.82,2.34,5.54,1.32,3.36,2.19,6.25,2.39,8.75,0,.11.03.22.04.33,0,.07.01.14.01.21,0,.28-.04.61-.11.96-.36,1.81-1.49,4.48-1.95,6.28-1.75,6.81,1.79,12.51-2.25,21.41-.08.17-.05.31.05.43.46.5,2.48.31,3.78-1.23,1.93-2.29,2.54-8.39,2.64-7.71,0,.03,0,.06.01.11.1,2,.26,3.61.45,5.01.55,4.08,1.37,6.31,1.93,11.12.46,3.92-.53,6.38-.18,8.19.07.36.19.7.39,1.02s.37.55.53.7c.62.59,1.19.08,2.98-1.96.35-.41.67-.8.98-1.19.76-.98,1.39-1.91,1.97-2.74.23-.33.45-.64.68-.94,1.5-1.98,2.47-3.94,2.94-7.09.16-1.05.26-2.24.3-3.61.13-4.11-.4-7.24-1.76-13.22-.5-2.19-1.04-3.58-1.71-8.27-.13-.94-.27-2-.42-3.23-.21-1.8-.26-3.01-.27-3.91,0-.24,0-.45,0-.65,0-.41,0-.76-.02-1.08,0-.12-.01-.23-.02-.35-.12-1.12-.39-1.96-.71-2.86-.38-1.04-.83-2.17-1.24-3.9-.2-.84-.38-1.81-.54-3-.67-5.03-1.24-9.46-1.78-13.89-.64-5.17-1.26-10.34-1.99-16.45-.07-.56-.14-1.13-.21-1.7-.14-1.19-.29-2.42-.44-3.7-.08-.63-.15-1.28-.23-1.93-1.13-9.39-4.86-21.21-8.86-34.19-.18-.6-.37-1.19-.55-1.79-.07-.22-.14-.5-.21-.84-.08-.37-.17-1.02-.27-1.84-.43-3.6-.99-10.49-1.24-14.58-.4-6.56-4.13-65.73-6.76-76.43-.1-.41-.2-.78-.3-1.12-1.72-5.79-3.39-8.47-5-9.59,0,0,0,0,0,0-.13-.12-.44-.32-.81-.54-.1-.06-.2-.11-.3-.17,0,0,0,0,0,0-.21-.12-.71-.4-1.2-.66-.42-.21-.86-.41-1.27-.58-.1-.04-.21-.08-.31-.12-.36-.14-.73-.27-1.11-.39-.1-.03-.21-.07-.31-.1-.48-.15-.98-.29-1.49-.43-.02,0-.03,0-.05-.01-.91-.24-1.87-.45-2.85-.66-.21-.05-.43-.09-.65-.14-.29-.06-.59-.13-.88-.2-1.8-.44-3.64-1.02-5.44-1.65-.58-.2-1.17-.42-1.76-.63-.67-.25-1.33-.5-1.97-.75-5.33-2.05-9.73-4.61-12.38-11.01-1.11-2.7-1.56-10.21-1.75-15.34,2.54-2.35,4.51-5.38,5.74-10.41.22-.9.48-1.97.74-3.12.35.12.66.16.95.14,2.01-.18,2.61-3.59,3.07-4.68.57-1.36,1.31-1.49,2.07-4.5.5-2-.36-3.32,0-4.61.24-.87.36-3.32-.75-4.16-.09-.07-.2-.11-.31-.15-.03-.04-.05-.08-.08-.12,1.64-6.28,2.66-16.46-.76-24.26-1.48-3.39-3.32-6.12-5.25-8.29-1-1.22-2.16-2.35-3.43-3.37-3.38-2.72-7.62-4.65-12.34-5.44-.08-.01-.17-.03-.25-.04-.22-.03-.43-.06-.65-.09-.29-.04-.58-.08-.88-.11-.04,0-.09,0-.13-.01-.97-.1-1.96-.15-2.96-.15,0,0,0,0,0,0,0,0,0,0,0,0-8.53,0-16.06,3.65-20.63,9.22-1.93,2.16-3.77,4.9-5.25,8.29-3.44,7.84-2.38,18.08-.74,24.34-.16.05-.3.09-.42.19-1.11.84-.99,3.29-.75,4.16.35,1.29-.52,2.6-.01,4.61.76,3,1.5,3.14,2.07,4.5.46,1.1,1.07,4.56,3.13,4.68.27.02.57-.03.89-.14.26,1.14.52,2.22.74,3.12,1.23,5.03,3.2,8.06,5.74,10.41-.18,5.13-.64,12.64-1.75,15.34-2.59,6.27-6.87,8.85-12.06,10.89-.21.08-.43.17-.65.25-.04.01-.07.03-.11.04-2.81,1.08-5.77,2.16-8.65,2.85-.36.09-.71.16-1.06.24-.14.03-.27.06-.41.09-1.56.33-3.05.66-4.43,1.09-.13.04-.26.08-.4.13-.36.12-.72.24-1.06.37-.13.05-.27.1-.4.16Z"/>
  </g>
</svg>