<?xml version="1.0" encoding="UTF-8"?>
<svg id="_레이어_2" data-name="레이어 2" xmlns="http://www.w3.org/2000/svg" viewBox="0 0 169.53 571.92">
  <defs>
    <style>
      .cls-1 {
        fill: #f3a9aa;
        stroke: #231815;
        stroke-miterlimit: 10;
      }
    </style>
  </defs>
  <g id="_레이어_1-2" data-name="레이어 1">
    <path class="cls-1" d="m119.03,169.37c.11.57.26,1.33.42,2.18.05.28.11.57.17.86.48,2.44,1.04,5.31,1.33,6.56,2.74,11.72,6.97,25.57,8.58,34.48.13.71.24,1.38.34,2.02.04.28.08.55.12.81.18,1.35.75,9.77,3.3,20.98,1.04,4.57,2.41,9.61,4.22,14.82.07.2.13.39.2.58-3.82-8.56-4.42-9.64-11.56-20.66-3.62-6.83-8.14-12.65-9.18-18.55,0-.01.1-.03.1-.04-.3-1.66-.48-3.3-.54-4.93-.49-13.05.1-26.97,2.13-37.54.12-.52.24-1.04.37-1.56Zm-68.72,0c.12.47.23.95.34,1.42,2.04,10.74,2.47,25.41,2,38.95-.05,1.53-.21,3.05-.5,4.59,0,0-.12.02-.12.03-.99,5.54-5.46,10.97-9.05,17.5-6.41,9.88-7.6,11.83-10.46,18.14,1.47-4.48,2.62-8.81,3.53-12.78,2.55-11.19,3.12-19.6,3.29-20.95.09-.68.21-1.42.34-2.19.04-.21.08-.42.12-.64,1.65-8.91,5.84-22.76,8.58-34.48.29-1.24.86-4.1,1.33-6.55.06-.3.11-.59.17-.87.16-.85.31-1.61.42-2.18Zm-12.17-63.93c-.79.34-2.02,1.06-2.12,1.11-.11.05-.27.14-.39.21-.31.16-.59.34-.79.49,0,0,0,0,0,0-1.65,1.18-3.37,4.02-5.13,10.17-2.64,9.22-6.49,70.31-6.9,76.98-.26,4.24-.86,11.51-1.29,14.99-.11.9-.21,1.56-.3,1.83s-.17.57-.26.85c-.14.46-.28.91-.42,1.37-3.99,12.98-7.73,24.8-8.86,34.19-.08.65-.15,1.28-.23,1.91-.15,1.28-.3,2.52-.45,3.71-.07.58-.14,1.15-.21,1.71-1.36,11.36-2.32,19.45-3.78,30.34-.23,1.77-.53,3.09-.84,4.16,0,.02-.01.04-.02.06-.02.06-.03.12-.05.17-.66,2.23-1.35,3.33-1.58,5.38-.04.35-.04.71-.04,1.16,0,.81-.03,1.88-.21,3.69-.09.86-.16,1.69-.26,2.54-.08.69-.17,1.35-.27,1.99-.46,3.07-.88,4.32-1.24,6.04-.78,3.73-1.27,5.95-1.59,8.2-.26,1.76-.41,3.36-.42,5.04-.04,4.85.77,7.38,2.26,10.07.8,1.44,1.63,3.04,2.84,4.75.03.04.06.09.09.13,1.73,2.53,2.26,3.09,3.25,2.4.76-.53.83-1.25.87-2.31.03-.9-.06-2,.2-3.38.6-.59.88-1.4,1.2-2.42.07-.23.14-.46.22-.71.11-.34.18-.69.25-1.03.53-2.63.68-5.17,1.04-9.95.16-2.11.96,1.96,2.47,2.94,1.37.88,3.31.56,2.98-.64-.02-.06-.03-.11-.05-.15-.93-2.19-1.18-2.67-.78-3.86.23-.7.75-1.67.97-2.78.03-.14.05-.3.04-.45-.25-3.11-.17-5.97-.75-8.95-.46-2.35-1.54-5.61-1.47-7.49,0-.15.02-.3.04-.44.06-1.21.21-2.49.4-3.86.24-1.74.54-3.79,1.03-5.82.1-.41.19-.81.32-1.2.02-.06.04-.13.06-.2.02-.07.04-.13.07-.2.34-1.04.74-2.14,1.19-3.28,1.19-3.02,2.39-5.83,3.71-8.95-.16,1.25-.32,2.76-.37,4.4-.7,4.11-1.23,8.66-1.36,13.75,0,.1-.01.19-.01.29-.06,2.51-.07,5.15.04,7.93,0,.09,0,.18,0,.28.07,1.89.19,3.84.36,5.86.19,2.26.56,4.86,1.1,7.71,2.45,12.99,9.27,33.4,12.41,44.79.58,2.09,1.12,4.1,1.62,5.99,6.59,24.75,10.42,40.26,11.16,49.81.12,1.64.2,3.14.24,4.52.25,9.81-1.08,13.93-2.36,20.49-.24,1.24-.46,2.47-.65,3.73-2.11,13.78-.18,25.86,2.94,37,.24.85.47,1.68.72,2.49,6.11,20.79,12.35,30.48,13.1,41.71.03.44.02.85-.02,1.24-.21,2.25-1.63,3.57-.78,6.65.09.32.19.64.3.97.55,1.69,1.15,3.53-.1,7.15-.08.24-.17.48-.26.73-5.14,14.04-11.69,17.8-10.91,23.02.88,5.86,19.55,5.5,26.85,4.18,6.01-1.09,5.93-10.06,4.2-20.34-.35-2.08-.52-4.4-.39-7.96.06-1.76.51-3.81.75-6.28.22-2.28-.41-4.69-.75-6.6-.26-1.44-.53-2.6-.57-3.21-1.54-22.39-1.12-27.75,1.55-48.79,2.7-21.27-1.08-25.08-.61-38.08.29-7.71,2.5-15.58,3.09-23.93.75-10.46-.28-20.35-1.33-27.79-2.89-20.57-2.88-23.89-3.81-40.15-1.02-17.66,4.34-26.32,1.28-41.55.71.27,2.45.37,4.17.38,1.72.01,3.46-.11,4.17-.38-3.06,15.23,2.3,23.89,1.29,41.55-.94,16.26-.92,19.58-3.82,40.15-1.05,7.44-2.08,17.33-1.33,27.79.59,8.35,2.81,16.22,3.09,23.93.47,13-3.31,16.81-.61,38.08,2.67,21.04,3.28,26.42,1.56,48.79-.05.61-.31,1.77-.57,3.21-.34,1.91-.98,4.32-.76,6.6.24,2.47.69,4.52.76,6.28.13,3.56-.05,5.88-.4,7.96-1.73,10.28-1.81,19.25,4.2,20.34,7.31,1.32,25.97,1.68,26.85-4.18.79-5.29-5.93-9.08-11.1-23.56-1.53-4.28-.53-6.12.07-8.05,1.14-3.69-.93-4.91-.76-7.83.67-11.69,7.32-21.6,13.66-43.88,3.43-12.06,5.54-25.21,2.65-40.42-1.48-7.83-3.15-11.87-2.43-24.8.56-10,4.86-27.03,12.46-55.42,3.42-12.77,12.58-39.51,13.81-52.03.5-5.05.68-9.68.66-13.96,0-.1,0-.19,0-.29-.06-9.9-1.5-17.83-3.29-24.43.48,1.22.95,2.37,1.42,3.51.94,2.27,1.9,4.46,3,6.94.87,1.98,1.66,3.82,2.34,5.54,1.32,3.36,2.19,6.25,2.38,8.75,0,.12.03.25.04.39,0,.07,0,.13,0,.2,0,.28-.05.6-.12.95-.37,1.81-1.49,4.45-1.94,6.24-1.75,6.81,1.79,12.51-2.25,21.41-.08.17-.05.31.04.42.45.5,2.49.32,3.79-1.23,1.96-2.33,2.57-8.61,2.64-7.68,0,.03,0,.06,0,.11.1,2,.26,3.61.45,5.01.55,4.06,1.37,6.3,1.93,11.09.46,3.93-.54,6.38-.18,8.2.07.36.19.7.39,1.01s.36.54.53.7c.62.6,1.19.09,2.98-1.96.35-.41.68-.8.98-1.19.77-.98,1.39-1.91,1.97-2.75.23-.33.45-.64.68-.94,1.5-1.98,2.47-3.94,2.94-7.09.16-1.06.26-2.24.3-3.61.13-4.11-.4-7.24-1.76-13.22-.5-2.19-1.04-3.58-1.71-8.26-.13-.94-.27-2-.42-3.24-.22-1.81-.26-3.01-.27-3.92,0-.23,0-.45,0-.65,0-.42,0-.76-.02-1.09,0-.11-.01-.23-.03-.34-.12-1.12-.39-1.96-.71-2.86-.38-1.04-.83-2.17-1.24-3.9-.2-.84-.38-1.82-.54-3-.67-5.02-1.23-9.44-1.78-13.86-.64-5.18-1.26-10.35-1.99-16.48-.07-.56-.14-1.12-.21-1.7-.14-1.19-.29-2.42-.44-3.69-.08-.64-.15-1.29-.23-1.95-1.13-9.39-4.87-21.21-8.86-34.19-.21-.67-.41-1.34-.61-2.01-.06-.19-.12-.47-.18-.83-.07-.42-.16-1.05-.25-1.82-.43-3.65-.97-10.37-1.22-14.39-.4-6.5-4.07-64.72-6.7-76.15-.1-.42-.19-.79-.29-1.11-1.65-5.66-3.26-8.44-4.82-9.69,0,0,0,0,0,0-.19-.18-.48-.38-.79-.56-.1-.06-.2-.11-.3-.17,0,0,0,0,0,0-.1-.06-.62-.36-1.19-.66-.41-.22-.86-.44-1.24-.6-.1-.04-.2-.08-.3-.13-.36-.15-.73-.28-1.11-.41-.1-.04-.21-.07-.31-.1-.48-.16-.98-.3-1.49-.44-.02,0-.03,0-.05-.01-.94-.25-1.93-.48-2.94-.69-.22-.05-.45-.1-.68-.14-.3-.05-.59-.12-.89-.2-1.8-.43-3.65-1-5.46-1.63-.59-.21-1.18-.42-1.77-.63-.73-.27-1.45-.54-2.16-.82-5.33-2.05-9.73-4.61-12.38-11.01-1.11-2.7-1.56-10.21-1.75-15.34,2.54-2.35,4.51-5.38,5.74-10.41.22-.9.48-1.97.74-3.12.35.12.67.16.95.14,2-.18,2.61-3.59,3.07-4.68.57-1.36,1.31-1.49,2.07-4.5.5-2-.36-3.32,0-4.61.24-.87.36-3.32-.75-4.16-.11-.08-.23-.13-.37-.16,0-.05-.01-.1-.02-.15,1.63-6.28,2.64-16.43-.77-24.22-1.48-3.39-3.32-6.12-5.25-8.29-1.01-1.23-2.16-2.36-3.43-3.38-3.39-2.72-7.64-4.65-12.37-5.44-.08-.01-.17-.03-.25-.04-.22-.03-.43-.06-.65-.09-.29-.04-.58-.08-.88-.11-.04,0-.09,0-.13-.01-.96-.1-1.94-.15-2.93-.15,0,0,0,0,0,0,0,0,0,0,0,0-8.53,0-16.06,3.65-20.63,9.22-1.93,2.17-3.77,4.9-5.25,8.29-3.44,7.84-2.38,18.08-.74,24.35-.15.04-.3.09-.42.18-1.11.84-.99,3.29-.75,4.16.36,1.29-.51,2.61,0,4.61.76,3.01,1.5,3.14,2.07,4.5.46,1.1,1.08,4.59,3.15,4.68.26.01.55-.03.87-.14.26,1.15.52,2.22.74,3.12,1.23,5.03,3.2,8.06,5.74,10.41-.18,5.13-.64,12.64-1.75,15.34-2.61,6.34-6.96,8.91-12.22,10.95-.22.08-.43.17-.65.25-.04.01-.08.03-.11.04-2.85,1.09-5.83,2.17-8.75,2.84-.36.08-.72.16-1.07.24-.14.03-.27.06-.41.09-1.58.34-3.09.68-4.47,1.13-.14.04-.27.09-.4.13-.37.12-.72.26-1.07.39-.13.05-.27.11-.4.16Z"/>
  </g>
</svg>