<?xml version="1.0" encoding="UTF-8"?>
<svg id="_레이어_2" data-name="레이어 2" xmlns="http://www.w3.org/2000/svg" viewBox="0 0 169.72 572.07">
  <defs>
    <style>
      .cls-1 {
        fill: #f3a9aa;
        stroke: #231815;
        stroke-miterlimit: 10;
      }
    </style>
  </defs>
  <g id="_레이어_1-2" data-name="레이어 1">
    <path class="cls-1" d="m167.44,312.56c-.6-2.64-1.26-4.11-2.13-11.5-.03-.28-.06-.56-.09-.81-.04-.38-.07-.73-.09-1.06h0c-.02-.22-.03-.42-.04-.62-.03-.48-.04-.9-.04-1.27,0-.3,0-.57,0-.81,0-.41,0-.76-.02-1.1-.01-.11-.02-.22-.03-.32-.02-.19-.04-.37-.07-.55h0c-.09-.54-.21-1-.35-1.46-.1-.3-.2-.6-.31-.91-.39-1.07-.86-2.24-1.27-4.07-.06-.26-.12-.54-.17-.83-.12-.58-.22-1.22-.32-1.94-.91-6.81-1.62-12.52-2.36-18.62-.15-1.22-.3-2.46-.45-3.72-.3-2.53-.62-5.16-.96-8-.07-.57-.14-1.16-.21-1.75-.15-1.18-.29-2.39-.44-3.65-.07-.63-.15-1.27-.23-1.93-.28-2.35-.73-4.85-1.3-7.48-.43-1.97-.94-4.02-1.49-6.13-.93-3.52-2.01-7.23-3.17-11.08-.93-3.08-1.91-6.25-2.9-9.5-.22-.74-.45-1.48-.68-2.23-.4-1.34-1.26-11.48-1.59-16.82-.41-6.66-4.26-67.76-6.9-76.97-1.97-6.88-3.88-9.63-5.71-10.54h0s-.84-.51-1.64-.94c-.13-.07-.26-.14-.39-.2-.13-.06-.25-.12-.36-.17-.21-.1-.43-.19-.66-.28-.02-.02-.03-.02-.05-.03-.23-.08-.47-.17-.71-.26-.5-.17-1.01-.34-1.54-.49-.26-.07-.53-.15-.8-.22-.27-.08-.54-.15-.82-.21-.55-.13-1.12-.26-1.7-.38-.23-.05-.47-.1-.71-.15-.3-.05-.6-.12-.9-.19-.06,0-.11-.03-.17-.04-2.73-.64-5.56-1.63-8.24-2.63-.18-.07-.37-.15-.57-.23-.21-.08-.42-.16-.63-.24-1.33-.51-2.61-1.06-3.81-1.69-1.81-.94-3.46-2.07-4.89-3.57-1.45-1.5-2.69-3.36-3.68-5.76-1.11-2.7-1.56-10.2-1.75-15.33.16-.15.32-.3.47-.46,2.31-2.29,4.12-5.24,5.27-9.96.22-.9.48-1.97.74-3.11.99.35,1.72.03,2.26-.58,1-1.1,1.42-3.17,1.76-3.97.07-.17.14-.32.22-.46.39-.69.83-1.11,1.29-2.25h0c.1-.23.19-.49.28-.78.09-.3.19-.63.28-1.01.51-2.01-.36-3.32,0-4.61.16-.59.27-1.92-.03-2.97-.04-.13-.08-.24-.12-.36-.09-.22-.21-.42-.36-.59-.07-.09-.15-.16-.24-.23-.12-.09-.26-.14-.42-.18v-.02c1.65-6.26,2.7-16.5-.74-24.34-.55-1.27-1.16-2.45-1.8-3.54-.43-.72-.88-1.41-1.33-2.06-.68-.98-1.39-1.88-2.12-2.69-.29-.35-.58-.69-.89-1.02-4.63-4.99-11.75-8.19-19.74-8.19s-15.11,3.2-19.74,8.19c-.31.33-.6.67-.89,1.02-.73.81-1.44,1.71-2.12,2.69-.45.65-.9,1.34-1.33,2.06-.64,1.09-1.25,2.27-1.8,3.54-3.44,7.84-2.38,18.08-.74,24.34v.02c-.15.04-.3.09-.42.18-.09.07-.17.14-.24.23-.15.17-.27.37-.36.59-.04.12-.08.23-.12.36-.3,1.05-.19,2.38-.03,2.97.35,1.29-.52,2.6,0,4.61.09.38.19.71.28,1.01.09.29.18.55.28.77h0c.28.69.55,1.11.81,1.49h0c.13.19.25.37.37.57.11.19.23.4.33.66.34.8.76,2.87,1.76,3.97.54.61,1.27.93,2.26.58.26,1.14.52,2.21.74,3.11,1.15,4.72,2.96,7.67,5.27,9.96.15.16.31.31.47.46-.18,5.13-.64,12.63-1.75,15.33-.99,2.4-2.23,4.26-3.67,5.76-1.43,1.5-3.08,2.63-4.89,3.57,0,0,0,0,0,0-1.2.63-2.48,1.18-3.81,1.69-.15.06-.31.12-.46.18-.06.02-.12.04-.18.07-2.9,1.11-5.95,2.2-8.91,2.87-.02.01-.04.01-.06.02-.51.11-1,.21-1.49.32-1.77.37-3.44.77-4.95,1.31-.25.09-.5.18-.74.28-.24.09-.48.2-.71.3-.11.05-.23.11-.36.17-.13.06-.26.13-.39.2-.8.43-1.64.93-1.64.93h0c-1.49.75-3.02,2.71-4.61,7.11-.12.33-.24.68-.36,1.05-.06.18-.12.37-.18.56-.12.38-.24.78-.37,1.2-.07.21-.13.42-.19.63-1.65,5.75-3.76,31.69-5.22,52.01,0,.07,0,.15-.02.22-.32,4.5-.61,8.72-.85,12.37-.06.88-.11,1.73-.17,2.54-.08,1.09-.15,2.12-.21,3.07-.04.7-.08,1.36-.12,1.98-.08,1.12-.14,2.09-.19,2.88.01.03.01.05,0,.08-.06.8-.09,1.42-.12,1.83-.18,2.99-.54,7.48-.88,11.09.01.03,0,.07,0,.11-.05.56-.1,1.1-.15,1.61-.21,2.01-.41,3.54-.55,4-.22.75-.45,1.49-.68,2.23-1.98,6.49-3.91,12.69-5.49,18.45-.39,1.44-.77,2.84-1.11,4.22-1.04,4.13-1.84,8-2.26,11.52-.15,1.23-.29,2.41-.42,3.56-.02.15-.04.3-.06.44-.13,1.14-.27,2.25-.4,3.33-.17,1.42-.33,2.79-.49,4.12-.64,5.32-1.2,10.01-1.81,14.83-.15,1.2-.3,2.42-.46,3.65-.08.62-.16,1.24-.24,1.87-.25,1.88-.51,3.83-.78,5.87-.1.72-.2,1.36-.31,1.94-.05.29-.11.56-.17.83-.76,3.4-1.73,4.5-2,6.98-.05.44-.05.88-.05,1.43,0,.24,0,.51,0,.81,0,.37-.01.78-.04,1.27-.01.18-.02.38-.04.59v.05c-.02.32-.05.67-.09,1.04-.03.25-.05.53-.09.81-.08.69-.16,1.34-.24,1.93-.05.42-.11.8-.16,1.18.05-.37.11-.76.16-1.18-.49,3.72-.91,5.63-1.29,7.16.04-.17.08-.34.13-.51-.09.38-.18.72-.26,1.06.05-.18.09-.36.14-.55-.07.27-.14.54-.2.79-.06.22-.11.44-.17.66-.08.31-.16.62-.23.95-.23,1.01-.43,1.95-.62,2.81-.18.87-.35,1.67-.48,2.43-.54,2.97-.75,5.25-.66,7.98.02.68.06,1.32.11,1.91.3,3.59,1.1,5.78,2.43,7.79t0,.01c.22.33.45.66.7.99.51.68,1.02,1.44,1.61,2.25.15.21.3.42.45.64.31.42.64.86,1.01,1.3.18.22.37.45.57.68.5.57.9,1.02,1.24,1.37.11.11.22.22.32.3.19.18.36.31.52.4.07.04.15.08.21.1.22.06.4.02.58-.11.08-.06.16-.14.25-.23.12-.16.25-.34.39-.57.15-.23.25-.47.33-.73.03-.11.05-.22.08-.33,0-.05,0-.09.02-.15.24-1.79-.66-4.21-.22-7.99.23-1.98.51-3.53.79-4.94.01-.06.03-.12.04-.17.07-.38.15-.75.23-1.11.03-.19.07-.38.11-.57.06-.25.11-.51.16-.76.44-2.25.85-4.68,1.05-8.63.06-1.19.65,5.28,2.65,7.65.11.13.23.25.35.37.24.22.5.41.76.56.26.16.52.27.78.36,1.19.4,2.22.13,1.94-.49-4.04-8.89-.5-14.59-2.25-21.4-.07-.27-.15-.56-.25-.86-.19-.6-.42-1.26-.64-1.92-.11-.33-.23-.67-.34-1-.06-.17-.12-.34-.17-.51-.39-1.2-.69-2.31-.66-3.05,0-.08,0-.16.03-.23.01-.07.01-.15.02-.22.03-.33.06-.67.12-1.02.04-.35.11-.71.18-1.08.06-.29.13-.59.2-.9.03-.14.06-.27.1-.41.08-.32.17-.64.27-.97.1-.36.21-.73.34-1.1.01-.04.02-.08.04-.11.13-.42.27-.84.43-1.27.3-.86.64-1.75,1.02-2.67-.31,2.93-.52,6.03-.56,9.38v.29c-.04,4.28.16,8.91.69,13.96,1.31,12.52,10.98,39.26,14.59,52.03,8.02,28.39,12.56,45.42,13.15,55.42.77,12.93-.99,16.97-2.56,24.8-3.05,15.21-.82,28.36,2.8,40.42,6.69,22.28,13.71,32.19,14.43,43.88.17,2.92-2.02,4.14-.81,7.83.63,1.93,1.69,3.77.08,8.05-5.46,14.48-12.57,18.27-11.73,23.56.93,5.86,20.64,5.5,28.36,4.18,6.35-1.09,6.26-10.06,4.43-20.34-.37-2.08-.56-4.4-.42-7.96.08-1.76.55-3.81.8-6.28.23-2.28-.43-4.69-.8-6.6-.27-1.44-.55-2.6-.6-3.21-1.7-22.38-1.17-27.75,1.65-48.79,2.85-21.27-1.15-25.08-.65-38.08.3-7.71,2.64-15.58,3.27-23.93.79-10.46-.3-20.35-1.41-27.79-3.06-20.57-3.04-23.89-4.03-40.15-1.07-17.66,4.59-26.32,1.36-41.55.75.27,2.58.37,4.4.38,1.82.01,3.65-.11,4.4-.38-3.23,15.23,2.43,23.89,1.36,41.55-.99,16.26-.97,19.58-4.03,40.15-1.11,7.44-2.19,17.33-1.4,27.79.62,8.35,2.96,16.22,3.26,23.93.5,13-3.5,16.81-.64,38.08,2.82,21.04,3.35,26.41,1.64,48.79-.05.61-.33,1.77-.6,3.21-.36,1.91-1.03,4.32-.8,6.6.25,2.47.73,4.52.8,6.28.14,3.56-.05,5.88-.42,7.96-1.83,10.28-1.91,19.25,4.44,20.34,7.71,1.32,27.42,1.68,28.35-4.18.84-5.29-6.26-9.08-11.72-23.56-1.62-4.28-.55-6.12.08-8.05,1.21-3.69-.99-4.91-.81-7.83.71-11.69,7.73-21.6,14.43-43.88,3.62-12.06,5.84-25.21,2.8-40.42-1.57-7.83-3.33-11.87-2.57-24.8.59-10,5.13-27.03,13.16-55.42,3.61-12.77,13.28-39.51,14.59-52.03.52-5.05.72-9.68.68-13.96v-.29c-.04-3.35-.25-6.45-.56-9.37.18.45.36.89.53,1.33.01,0,.01.02.01.03.17.45.34.88.48,1.31.46,1.28.84,2.49,1.13,3.64.28,1.14.47,2.21.55,3.22,0,.07,0,.14.03.21.01.07.02.15.02.22.02.44-.08,1.02-.24,1.67-.12.43-.26.91-.42,1.39-.1.34-.21.67-.33,1.01-.29.83-.59,1.67-.82,2.42-.1.3-.18.59-.25.86-.56,2.18-.57,4.25-.47,6.34.04.89.11,1.79.16,2.7.12,2.11.19,4.3-.2,6.7-.1.59-.22,1.18-.37,1.8-.26,1.02-.61,2.08-1.07,3.19-.09.22-.19.44-.29.67-.02.03-.03.07-.04.1-.04.16,0,.29.13.38.48.4,2.13.25,3.38-.91.12-.11.24-.24.35-.37.63-.75,1.12-1.9,1.5-3.09.04-.11.07-.22.1-.33.16-.54.3-1.09.42-1.6.03-.1.05-.2.07-.3.06-.3.12-.58.18-.85.07-.35.13-.66.18-.91.05-.25.09-.45.12-.57.01-.06.02-.1.04-.12h.01s.02-.02.02,0c0,0,0,0,0,0,0,.02,0,.06,0,.11.09,1.72.21,3.15.37,4.41.01,0,0,0,0,0,.07.54.14,1.04.21,1.52.05.32.1.63.15.94.06.3.11.6.16.89.09.42.17.85.25,1.27.09.42.18.83.26,1.25.03.14.06.29.09.43.06.28.12.56.17.85.06.3.12.6.17.91.06.3.12.62.17.95.05.33.11.68.16,1.04.05.35.1.71.15,1.1.02.19.05.39.07.59.43,3.67-.41,6.06-.24,7.83.05.51.18.96.45,1.39.24.38.44.64.64.79.18.13.36.17.58.11.06-.02.14-.06.21-.1h.01c.08-.05.15-.1.24-.16.09-.07.18-.15.28-.24.1-.09.2-.19.31-.3.34-.35.74-.8,1.24-1.37,1.6-1.83,2.61-3.52,3.64-4.88,1.99-2.64,3.07-5.25,3.24-10.69.13-4.12-.4-7.24-1.76-13.22Zm-164.4-3.08c.04-.17.08-.34.12-.52-.04.18-.08.36-.12.52Zm.93-5.05c-.05.35-.1.69-.15,1.01.05-.32.1-.66.15-1.01Zm-.16,1.05c-.05.31-.1.61-.15.89.05-.28.1-.57.15-.89Zm-.18,1.11c-.05.27-.09.53-.14.77.05-.24.09-.5.14-.77Zm-.15.83c-.04.24-.09.46-.13.68.04-.22.09-.44.13-.68Zm-.17.86c-.04.2-.08.4-.13.59.04-.19.08-.38.13-.59Zm49.13-89.56c-.81,1.19-1.77,2.4-2.79,3.64-2.61,3.14-5.69,6.41-8.11,9.76-2.64,3.64-4.59,6.37-6.14,8.64.14-.54.27-1.07.4-1.6.25-1.06.49-2.09.71-3.1.16-.76.32-1.5.47-2.23.04-.16.07-.33.1-.49.11-.56.22-1.11.32-1.65.13-.69.25-1.37.37-2.03.13-.73.25-1.43.36-2.12.06-.4.13-.78.18-1.16.12-.75.23-1.46.32-2.15.03-.18.05-.36.08-.54.04-.34.09-.68.13-1.01.03-.25.06-.49.09-.72.01-.06.02-.11.02-.16.08-.6.14-1.15.2-1.66,0-.13.03-.25.04-.38.03-.3.06-.58.09-.85.03-.27.05-.53.08-.77,0-.19.03-.36.05-.52.01-.02.01-.03,0-.04.04-.31.06-.58.08-.79.03-.23.04-.4.06-.52.11-.86.27-1.82.45-2.82.2-1.11.45-2.31.72-3.56.14-.62.29-1.27.44-1.93.15-.65.31-1.32.48-2.01.17-.68.34-1.38.52-2.09.11-.42.22-.85.33-1.28,1.31-5.14,2.86-10.76,4.27-16.25.65-2.51,1.26-4.98,1.82-7.37.43-1.84,1.49-7.31,1.92-9.59.13.52.25,1.05.38,1.57,0,.03,0,.07.02.1,2.01,10.55,2.6,24.39,2.11,37.39-.06,1.64-.27,8.59-.57,10.28h0Zm65.95-45.71c-.26,1.16-.51,2.32-.75,3.48.23-1.17.49-2.33.75-3.48Zm9.79,59.11c-2.42-3.35-5.5-6.63-8.11-9.76-1.15-1.38-2.2-2.74-3.07-4.06-.01,0-.01-.01-.02-.04-.17-.63-.26-8.71-.33-10.28-.47-12.35.03-25.34,1.84-35.42.13-.57.24-1.14.38-1.71.11-.49.23-.98.35-1.46.32,1.65.95,4.92,1.44,7.31.08.42.16.81.24,1.16.04.17.08.34.11.49h0c.05.24.09.45.13.62.34,1.46.71,2.96,1.09,4.47,2.47,9.87,5.59,20.56,7.16,28.28.12.6.23,1.17.33,1.73.18,1.01.34,1.95.46,2.82.01.05.01.1.02.17.01.05.01.12.02.19.01.1.02.21.04.34.11,1.25.35,3.78.83,7.23.01,0,.01.02,0,.03.08.54.16,1.11.25,1.69.02.15.05.3.07.46.06.38.12.76.18,1.16.22,1.3.46,2.69.73,4.15.1.54.21,1.09.32,1.65.37,1.85.8,3.79,1.29,5.82.12.53.25,1.06.39,1.6-1.55-2.27-3.5-5-6.14-8.64Z"/>
  </g>
</svg>