<?xml version="1.0" encoding="UTF-8"?>
<svg id="_레이어_2" data-name="레이어 2" xmlns="http://www.w3.org/2000/svg" viewBox="0 0 169.72 572.07">
  <defs>
    <style>
      .cls-1 {
        fill: #f3a9aa;
        stroke: #231815;
        stroke-miterlimit: 10;
      }
    </style>
  </defs>
  <g id="_레이어_1-2" data-name="레이어 1">
    <path class="cls-1" d="m114.78,213.44h0c-.33-1.67-.51-3.29-.51-4.93,0-6.17.44-12.73,1.28-19.36s2.08-13.33,3.67-19.78c.44,2.29,1.49,7.75,1.92,9.6,2.74,11.72,6.95,25.57,8.58,34.48.18,1.01.34,1.96.46,2.83.19,1.49.87,11.56,4.14,24.49-1.55-2.28-3.5-5-6.14-8.65-2.42-3.35-5.5-6.63-8.11-9.76-2.61-3.14-4.75-6.13-5.29-8.92Zm-73.24,18.68c-2.64,3.65-4.59,6.37-6.14,8.65,3.28-12.93,3.96-23,4.14-24.49.11-.87.27-1.82.46-2.83,1.63-8.91,5.84-22.76,8.58-34.48.43-1.85,1.48-7.31,1.92-9.6,3.19,12.91,4.95,26.8,4.95,39.14,0,1.64-.18,3.26-.51,4.93h0c-1.09,5.58-8.56,11.98-13.4,18.68Zm125.9,80.44c-.6-2.63-1.26-4.1-2.13-11.5-.27-2.27-.27-3.59-.27-4.56,0-.56,0-1-.05-1.43-.33-3.06-1.72-4.02-2.49-9.76-1.45-10.89-2.41-18.98-3.77-30.34-.28-2.29-.57-4.71-.88-7.33-1.13-9.39-4.9-21.2-8.86-34.19-.23-.74-.45-1.48-.68-2.22-.4-1.34-1.26-11.48-1.59-16.82-.41-6.67-4.26-67.76-6.9-76.98-1.97-6.87-3.88-9.63-5.71-10.54h0s-1.49-.9-2.39-1.31c-1.82-.82-3.97-1.38-6.28-1.87-.23-.05-.47-.1-.71-.15-.3-.05-.6-.12-.9-.19-3.2-.74-6.54-1.95-9.61-3.14-5.33-2.05-9.73-4.61-12.38-11.01-1.11-2.7-1.56-10.21-1.75-15.34,2.54-2.35,4.51-5.38,5.74-10.41.22-.9.48-1.97.74-3.12,2.78.98,3.5-3.3,4.02-4.54.57-1.36,1.32-1.49,2.07-4.5.51-2-.36-3.32-.01-4.61.24-.87.36-3.32-.75-4.16-.12-.09-.26-.14-.42-.18,1.65-6.27,2.7-16.51-.74-24.35-1.48-3.39-3.32-6.12-5.25-8.29-4.57-5.57-12.1-9.22-20.63-9.22s-16.06,3.65-20.63,9.22c-1.93,2.17-3.77,4.9-5.25,8.29-3.44,7.84-2.38,18.08-.74,24.35-.15.04-.3.09-.42.18-1.11.84-.99,3.29-.75,4.16.36,1.29-.52,2.61-.01,4.61.75,3.01,1.51,3.14,2.07,4.5.52,1.24,1.24,5.52,4.02,4.54.26,1.15.52,2.22.74,3.12,1.23,5.03,3.2,8.06,5.74,10.41-.18,5.13-.64,12.64-1.75,15.34-2.64,6.4-7.04,8.96-12.38,11.01-3.11,1.2-6.41,2.41-9.61,3.14-.51.11-1,.21-1.49.32-2.36.49-4.54,1.05-6.4,1.89-.9.41-2.39,1.3-2.39,1.3h0c-1.83.92-3.74,3.68-5.71,10.55-2.64,9.22-6.49,70.31-6.9,76.98-.33,5.34-1.19,15.48-1.59,16.82-.23.74-.45,1.48-.68,2.22-3.96,12.99-7.73,24.8-8.86,34.19-.31,2.62-.6,5.04-.88,7.33-1.36,11.36-2.32,19.45-3.78,30.34-.76,5.74-2.15,6.7-2.48,9.76-.05.43-.05.87-.05,1.43,0,.97-.01,2.29-.27,4.56-.87,7.4-1.53,8.87-2.13,11.5-1.36,5.98-1.89,9.11-1.76,13.22.18,5.45,1.25,8.06,3.24,10.7,1.03,1.36,2.04,3.05,3.64,4.88,2.26,2.59,2.58,2.72,3.51,1.26,1.2-1.91-.34-4.5.21-9.21.76-6.46,1.98-8.28,2.38-16.17.06-1.2.65,5.27,2.65,7.64,1.58,1.88,4.26,1.75,3.83.81-4.04-8.9-.5-14.6-2.25-21.41-.57-2.2-2.13-5.7-2.06-7.34.01-.15.03-.3.05-.44.21-2.69,1.21-5.84,2.7-9.53-.31,2.92-.52,6.03-.56,9.37v.29c-.04,4.28.16,8.91.69,13.96,1.31,12.52,10.98,39.26,14.59,52.03,8.02,28.39,12.56,45.42,13.15,55.42.77,12.93-.99,16.97-2.56,24.8-3.05,15.21-.82,28.36,2.8,40.42,6.69,22.28,13.71,32.19,14.43,43.88.17,2.92-2.02,4.14-.81,7.83.63,1.93,1.69,3.77.08,8.05-5.46,14.48-12.57,18.27-11.73,23.56.93,5.86,20.64,5.5,28.36,4.18,6.35-1.09,6.26-10.06,4.43-20.34-.37-2.08-.56-4.4-.42-7.96.08-1.76.55-3.81.8-6.28.23-2.28-.43-4.69-.8-6.6-.27-1.44-.55-2.6-.6-3.21-1.7-22.38-1.17-27.75,1.65-48.79,2.85-21.27-1.15-25.08-.65-38.08.3-7.71,2.64-15.58,3.27-23.93.79-10.46-.3-20.35-1.41-27.79-3.06-20.57-3.04-23.89-4.03-40.15-1.07-17.66,4.59-26.32,1.36-41.55.75.27,2.58.37,4.4.38,1.82.01,3.65-.11,4.4-.38-3.23,15.23,2.43,23.89,1.36,41.55-.99,16.26-.97,19.58-4.03,40.15-1.11,7.44-2.19,17.33-1.4,27.79.62,8.35,2.96,16.22,3.26,23.93.5,13-3.5,16.81-.64,38.08,2.82,21.04,3.35,26.41,1.64,48.79-.05.61-.33,1.77-.6,3.21-.36,1.91-1.03,4.32-.8,6.6.25,2.47.73,4.52.8,6.28.14,3.56-.05,5.88-.42,7.96-1.83,10.28-1.91,19.25,4.44,20.34,7.71,1.32,27.42,1.68,28.35-4.18.84-5.29-6.26-9.08-11.72-23.56-1.62-4.28-.55-6.12.08-8.05,1.21-3.69-.99-4.91-.81-7.83.71-11.69,7.73-21.6,14.43-43.88,3.62-12.06,5.84-25.21,2.8-40.42-1.57-7.83-3.33-11.87-2.57-24.8.59-10,5.13-27.03,13.16-55.42,3.61-12.77,13.28-39.51,14.59-52.03.52-5.05.72-9.68.68-13.96v-.29c-.04-3.34-.25-6.44-.56-9.36,1.49,3.69,2.49,6.83,2.7,9.52.01.14.04.29.05.44.07,1.64-1.5,5.14-2.06,7.34-1.75,6.81,1.79,12.51-2.25,21.41-.43.94,2.25,1.07,3.83-.81,2-2.37,2.59-8.84,2.65-7.64.4,7.89,1.62,9.71,2.38,16.17.55,4.71-.99,7.3.21,9.21.93,1.46,1.24,1.33,3.51-1.26,1.6-1.83,2.61-3.52,3.63-4.88,2-2.64,3.07-5.25,3.25-10.7.13-4.11-.4-7.24-1.76-13.22Z"/>
  </g>
</svg>