<?xml version="1.0" encoding="UTF-8"?>
<svg id="_레이어_2" data-name="레이어 2" xmlns="http://www.w3.org/2000/svg" viewBox="0 0 169.72 571.59">
  <defs>
    <style>
      .cls-1 {
        fill: #f3a9aa;
        stroke: #231815;
        stroke-miterlimit: 10;
      }
    </style>
  </defs>
  <g id="_레이어_1-2" data-name="레이어 1">
    <path class="cls-1" d="m38,105.39c-.9.41-2.39,1.3-2.39,1.3h0c-1.83.92-3.74,3.68-5.71,10.55-2.64,9.22-6.49,70.31-6.9,76.98-.33,5.34-1.18,15.48-1.59,16.82-.23.74-.45,1.48-.68,2.22-3.99,12.98-7.73,24.8-8.86,34.19-.31,2.62-.6,5.04-.88,7.33-1.36,11.36-2.32,19.45-3.78,30.34-.76,5.74-2.14,6.7-2.48,9.76-.05.43-.05.87-.05,1.43,0,.97-.01,2.29-.27,4.56-.87,7.4-1.53,8.87-2.13,11.5-1.36,5.98-1.89,9.11-1.76,13.22.05,1.38.15,2.58.31,3.64.47,3.15,1.45,5.11,2.94,7.09,1.03,1.36,2.04,3.05,3.63,4.88,2.27,2.59,2.59,2.72,3.51,1.26,1.21-1.91-.33-4.5.21-9.21.75-6.46,1.98-8.28,2.38-16.17.06-1.2.65,5.27,2.65,7.64,1.54,1.83,4.12,1.75,3.85.87-.01-.06-.03-.13-.06-.19-1.25-2.79-1.76-5.27-1.93-7.56-.3-4.29.65-7.94-.03-11.88-.29-1.72-1.16-4.09-1.29-5.55-.01-.14-.02-.29-.03-.43-.2-1.87-.44-4.19-.22-6.19.02-.23.05-.45.09-.66.02-.13.06-.27.09-.4.46-2.16,1.31-4.57,2.41-7.27.91-2.24,1.86-4.43,2.86-6.76,2.52-5.85,4.49-10.81,7.93-20.53.52-1.46,1.08-3.05,1.69-4.81.34-.96.66-1.92.99-2.91,5.81-17.37,6.8-32.48,7.04-34.34.11-.87.27-1.82.46-2.83,1.63-8.92,5.84-22.76,8.58-34.48.43-1.85,1.49-7.31,1.92-9.6.13.51.25,1.03.37,1.55,1.16,9.1,1.49,27.13-1.94,42.53,0,0,0,0,0,0-1.13,6.82-3.27,13.79-5.55,20.87-4.53,8.8-7.42,15.4-8.65,18.11-.06.13-.1.23-.13.29-.72,1.72-1.26,3.13-1.67,4.13-.05.12-.09.22-.11.28-3.13,8.49-7.33,19.54-7.77,36.79,0,.1,0,.19-.01.29,0,.02,0,.12,0,.15-.03,1.21-.05,2.45-.04,3.71,0,.09,0,.18,0,.28,0,.02,0,.12,0,.14.03,3.08.16,6.34.44,9.81.1,1.22.23,2.52.41,3.88,1.65,12.57,9.11,36.02,12.39,48.61.27,1.04.53,2.04.77,2.99,6.69,26.49,10.57,42.87,11.3,52.82.06.78.1,1.53.13,2.25.51,11.51-.86,15.71-2.17,22.73-.11.61-.22,1.22-.33,1.84-2.5,14.83-.52,27.7,2.65,39.51,5.98,22.28,12.26,32.19,12.9,43.89.15,2.91-1.82,4.13-.73,7.83.57,1.92,1.52,3.76.07,8.04-4.88,14.48-11.22,18.28-10.47,23.57.83,5.86,18.44,5.49,25.34,4.17,5.67-1.09,5.6-10.06,3.96-20.34-.33-2.08-.5-4.4-.37-7.96.06-1.75.49-3.8.71-6.28.21-2.28-.39-4.69-.71-6.59-.24-1.45-.5-2.61-.54-3.22-1.52-22.38-1.05-27.75,1.47-48.79,2.55-21.26-1.02-25.08-.57-38.08.26-7.71,2.35-15.58,2.91-23.92.71-10.47-.26-20.35-1.25-27.79-2.74-20.58-2.72-23.9-3.61-40.16-.95-17.66,4.11-26.31,1.22-41.54.67.26,2.31.35,3.93.37,1.63.01,3.27-.11,3.94-.37-2.89,15.23,2.17,23.88,1.21,41.54-.88,16.26-.87,19.58-3.6,40.16-.99,7.44-1.96,17.32-1.26,27.79.56,8.34,2.65,16.21,2.92,23.92.45,13-3.12,16.82-.58,38.08,2.53,21.04,3.16,26.42,1.48,48.79-.05.61-.3,1.77-.54,3.22-.32,1.9-.93,4.31-.72,6.59.22,2.48.65,4.53.72,6.28.13,3.56-.04,5.88-.37,7.96-1.64,10.28-1.72,19.25,3.96,20.34,6.89,1.32,24.51,1.69,25.34-4.17.75-5.29-5.6-9.09-10.48-23.57-1.44-4.28-.48-6.12.08-8.04,1.08-3.7-.89-4.92-.73-7.83.64-11.7,6.91-21.61,12.9-43.89,3.24-12.05,5.22-25.21,2.5-40.42-1.4-7.83-2.97-11.87-2.29-24.79.52-10.01,4.58-27.04,11.76-55.43,3.22-12.77,11.87-39.5,13.04-52.02.46-5,.64-9.58.61-13.82v-.15c0-.1,0-.19,0-.29-.1-20.02-5.3-32-8.65-41.08,0-.02-.05-.14-.12-.29-.64-1.41-3.47-8.22-8.45-18.05-.45-1.52-.91-3.11-1.44-4.74-2.13-6.51-4.27-12.52-5.28-18.41,0,0,0,0,0,0-3.52-15.65-2.96-34.14-1.75-43.3.1-.04.21-.04.33,0,.42,2.22,1.17,6.06,1.6,8.03.01.06.03.13.04.19,0,.03.01.06.02.09.07.32.14.62.2.9.03.15.07.29.1.42,2.65,11.17,6.53,24.1,8.22,32.81.13.67.23,1.3.32,1.89.03.2.07.44.11.71.01.08.02.15.03.24.11.77.23,1.65.34,2.6.03.25.07.59.11,1,.14,1.3.35,3.12.66,5.35.02.17.05.35.08.53.02.12.03.24.05.37.94,6.39,2.68,15.56,6,25.47.32.95.64,1.88.96,2.79.35,1,.68,1.96,1,2.87,4.4,12.52,6.44,17.55,9.56,24.65.34.77.68,1.54,1.01,2.32,1.99,4.58,3.47,8.41,3.97,11.63.03.15.06.3.08.45.11.73.08,1.57-.03,2.43,0,.11-.02.23-.03.35,0,.03,0,.06,0,.09-.2,1.31-.88,3.09-1.35,4.62-.28.92-.5,1.81-.64,2.62-1.03,6,1.48,11.32-1.61,19.05-.25.62.05,1.11.43,1.32.02.05.06.09.13.12.36.11,1.2-.01,1.99-.55.5-.34.99-.85,1.38-1.5,1.24-2.1,1.72-5.57,1.95-6,.11-.21.19-.26.24.03,0,.03,0,.05,0,.08.13,2.02.31,3.62.52,5.02.5,3.36,1.19,5.55,1.7,9.49.07.52.12,1.04.16,1.57.02.29.03.57.04.84.09,3.28-.73,5.39-.1,6.99.18.45.37.79.61,1.04.7.73,1.17.48,2.73-1.27.24-.27.49-.56.74-.86,1.24-1.49,2.12-2.87,2.98-4.04.2-.27.39-.53.57-.79,1.76-2.46,2.74-5,2.95-9.93,0-.25.02-.49.02-.74.04-1.77-.04-3.37-.27-5.12-.27-2.11-.74-4.43-1.44-7.51-.04-.17-.08-.34-.12-.51-.48-2.06-1.01-3.52-1.66-8.04-.13-.89-.26-1.9-.4-3.07,0-.08-.02-.15-.03-.23-.25-2.2-.26-3.5-.26-4.45,0-.55,0-.99-.04-1.43-.04-.38-.1-.73-.17-1.06-.5-2.33-1.65-3.68-2.32-8.73-.43-3.21-.82-6.17-1.18-9.05-.12-.91-.23-1.82-.34-2.72-.74-5.89-1.42-11.62-2.25-18.57-.05-.42-.1-.85-.16-1.28-.17-1.45-.35-2.95-.54-4.52-.06-.5-.12-1.01-.18-1.53-1.13-9.39-4.87-21.21-8.86-34.19-.23-.74-.45-1.48-.68-2.22-.02-.07-.05-.18-.07-.3-.13-.69-.3-2.07-.48-3.8-.01-.11-.02-.22-.03-.34,0-.06-.01-.12-.02-.18-.38-3.76-.78-8.9-.99-12.2-.41-6.67-4.26-67.76-6.9-76.98-1.97-6.87-3.88-9.63-5.71-10.54h0s-1.49-.9-2.39-1.31c-1.86-.84-4.04-1.38-6.4-1.89-.49-.11-.98-.21-1.49-.32-3.2-.71-6.5-1.94-9.61-3.14-5.14-1.97-9.41-4.42-12.07-10.32-.19-.42-.37-.91-.54-1.46-.43-1.4-.75-3.57-.98-5.97-.23-2.37-.38-4.94-.47-7.19.34-.82.66-1.66.96-2.5,1.71-1.87,3.11-4.2,4.14-7.47.28-.87.56-1.87.83-2.95.22-.08.41-.21.61-.37.65-.54,1.14-1.63,1.5-2.78.6-.29,1.05-.83,1.39-1.29.89-1.17,1.45-2.42,2.03-4.35.49-1.63.4-2.39.92-4.17.06-.22.12-.5.17-.82.12-.73.11-1.49-.04-2.15-.04-.17-.09-.34-.14-.49,0-.02-.01-.04-.02-.05-.07-.19-.16-.37-.26-.52-.07-.12-.15-.21-.24-.3.03-.36.08-.71.17-1.07.14-.57.26-1.36.3-2.17s0-1.69-.24-2.34c-.04-.12-.11-.22-.17-.32.91-5,1.24-11.46-.33-17.22-.73-2.69-1.73-5.16-3.01-7.34-.35-.6-.71-1.16-1.08-1.71-1.42-2.2-3.1-4.09-4.94-5.65-3.78-3.39-8.85-5.72-14.56-6.4-2.15-.25-4.33-.26-6.49-.03-6.1.66-11.52,3.21-15.43,6.94-1.31,1.19-2.53,2.55-3.61,4.08-.86,1.16-1.69,2.44-2.45,3.87-.76,1.43-1.42,2.97-1.96,4.62-1.65,5.05-1.71,10.79-1.13,15.71.19,1.54.43,3,.72,4.33-.06.11-.12.21-.17.34-.3.91-.24,2.21-.08,3.27-.06.23-.09.45-.13.61-.2.83-.57,2.09-.53,3.29.01.39.06.78.15,1.13.04.16.07.32.1.47.02.14.04.28.06.41,0,0,0,.01,0,.02.12.83.15,1.5.32,2.16.02.08.05.17.08.25.03.1.06.2.1.3.11.3.26.58.38.95.61,1.91,1.14,3.16,2.02,4.34.35.47.8,1.01,1.41,1.3.35,1.14.83,2.21,1.46,2.78.21.19.42.35.67.44.28,1.09.57,2.11.86,3,1,3.1,2.33,5.35,3.95,7.17.34,1,.7,1.98,1.09,2.94-.19,4.35-.57,9.73-1.37,12.54-.23.82-.5,1.55-.79,2.14-2.59,5.44-6.55,7.88-11.34,9.78-.36.14-.73.29-1.1.43-2.87,1.1-5.88,2.19-8.82,2.88-.17.04-.34.08-.51.11-.35.08-.69.15-1.03.22-.14.03-.28.06-.43.09-2.28.49-4.38,1.03-6.19,1.84Z"/>
  </g>
</svg>