<?xml version="1.0" encoding="UTF-8"?>
<svg id="_레이어_2" data-name="레이어 2" xmlns="http://www.w3.org/2000/svg" viewBox="0 0 169.12 571.62">
  <defs>
    <style>
      .cls-1 {
        fill: #f3a9aa;
        stroke: #231815;
        stroke-miterlimit: 10;
      }
    </style>
  </defs>
  <g id="_레이어_1-2" data-name="레이어 1">
    <path class="cls-1" d="m166.84,312.55c-.52-2.29-1.09-3.7-1.8-8.89-.11-.78-.22-1.64-.33-2.6-.06-.53-.11-1-.14-1.43-.12-1.43-.13-2.39-.13-3.14,0-.42,0-.78-.02-1.11,0-.11-.01-.21-.02-.32-.09-.83-.26-1.5-.47-2.16-.57-1.77-1.46-3.41-2.01-7.6-1.46-10.89-2.42-18.98-3.78-30.34-.09-.71-.17-1.43-.26-2.16-.11-.88-.21-1.79-.33-2.71-.1-.8-.19-1.62-.29-2.46-1.13-9.39-4.87-21.21-8.86-34.19-.19-.63-.39-1.26-.58-1.89-.05-.17-.11-.39-.16-.64-.07-.3-.14-.8-.22-1.43-.44-3.43-1.04-10.8-1.31-15.08-.4-6.56-4.14-65.81-6.77-76.45-.1-.39-.19-.75-.29-1.07-1.73-5.83-3.41-8.53-5.03-9.64,0,0,0,0,0,0-.17-.16-.6-.42-1.07-.67,0,0,0,0,0,0-.21-.12-.74-.42-1.25-.68-.03-.01-.05-.02-.08-.04-.38-.19-.77-.37-1.13-.51-.17-.07-.35-.14-.53-.21-.26-.1-.53-.19-.79-.28-.2-.07-.4-.13-.6-.19-.43-.13-.88-.26-1.33-.38-.12-.03-.24-.06-.36-.09-.83-.21-1.69-.39-2.57-.58-.36-.08-.71-.15-1.07-.23-2.21-.49-4.47-1.24-6.68-2.04-.3-.11-.61-.22-.91-.33-.68-.25-1.35-.51-2.02-.76-5.34-2.05-9.74-4.61-12.38-11.01-1.11-2.7-1.57-10.21-1.75-15.34,2.54-2.35,4.51-5.38,5.74-10.41.22-.9.48-1.97.74-3.12.7.24,1.26.16,1.73-.12,1.4-.85,1.91-3.49,2.29-4.42.56-1.36,1.31-1.49,2.07-4.5.5-2-.37-3.32-.01-4.61.24-.87.36-3.32-.75-4.16-.1-.07-.22-.12-.34-.15-.02-.03-.04-.06-.06-.09,1.63-6.28,2.67-16.47-.76-24.28-1.48-3.39-3.32-6.12-5.25-8.29-4.52-5.5-11.92-9.13-20.33-9.21-8.41.09-15.81,3.71-20.33,9.21-1.93,2.17-3.77,4.9-5.25,8.29-3.43,7.81-2.39,18.01-.76,24.28-.02.03-.04.06-.06.09-.12.04-.24.08-.34.15-1.11.84-.99,3.29-.75,4.16.36,1.29-.51,2.61-.01,4.61.76,3.01,1.51,3.14,2.07,4.5.39.93.89,3.57,2.29,4.42.47.28,1.03.37,1.73.12.26,1.15.52,2.22.74,3.12,1.23,5.03,3.2,8.06,5.74,10.41-.18,5.13-.64,12.64-1.75,15.34-2.64,6.4-7.04,8.96-12.38,11.01-.66.26-1.34.51-2.02.76-.31.11-.61.22-.91.33-2.21.8-4.47,1.55-6.68,2.04-.37.08-.72.15-1.07.23-.88.19-1.74.37-2.57.58-.12.03-.24.06-.36.09-.45.12-.9.24-1.33.38-.2.06-.4.13-.6.19-.27.09-.53.18-.79.28-.18.07-.36.14-.53.21-.36.15-.75.33-1.13.51-.03.01-.05.02-.08.04-.51.26-1.04.56-1.25.68,0,0,0,0,0,0-.47.25-.89.52-1.07.67,0,0,0,0,0,0-1.62,1.11-3.3,3.81-5.03,9.64-.1.32-.19.68-.29,1.07-2.63,10.64-6.37,69.89-6.77,76.45-.26,4.28-.87,11.65-1.31,15.08-.08.63-.16,1.13-.22,1.43-.06.25-.11.47-.16.64-.19.63-.38,1.26-.58,1.89-3.99,12.98-7.73,24.8-8.86,34.19-.1.84-.2,1.66-.29,2.46-.11.93-.22,1.83-.33,2.71-.09.73-.18,1.45-.26,2.16-1.36,11.36-2.32,19.45-3.78,30.34-.55,4.18-1.44,5.83-2.01,7.6-.21.66-.38,1.33-.47,2.16-.01.1-.02.21-.02.32-.02.33-.02.69-.02,1.11,0,.75,0,1.7-.13,3.14-.04.43-.08.9-.14,1.43-.11.96-.22,1.83-.33,2.6-.71,5.19-1.28,6.6-1.8,8.89-1.36,5.98-1.89,9.11-1.76,13.22.05,1.38.15,2.57.31,3.64.14.93.33,1.76.56,2.51.54,1.78,1.33,3.16,2.38,4.55.68.9,1.37,1.96,2.21,3.1.43.58.89,1.17,1.42,1.78,2.05,2.35,2.51,2.67,3.27,1.62.08-.11.16-.23.25-.36.13-.2.22-.42.29-.64.01-.03.02-.06.03-.1,0-.03.02-.06.02-.09.47-1.83-.61-4.32-.14-8.38.61-5.2,1.52-7.39,2.06-12.16.13-1.15.24-2.44.32-3.96,0-.05,0-.09.01-.11.09-.68.71,5.42,2.64,7.71,1.39,1.65,3.61,1.75,3.85,1.12.04-.09.03-.19-.02-.31-4.04-8.9-.5-14.6-2.25-21.41-.45-1.73-1.5-4.26-1.9-6.06-.1-.44-.16-.84-.16-1.17,0-.08,0-.16.01-.23,0-.11.02-.22.04-.32.17-2.19.87-4.68,1.92-7.52.77-2.06,1.72-4.3,2.8-6.76,3.54-8,5.56-12.92,10.57-27.24.21-.61.43-1.23.65-1.88.12-.34.24-.67.36-1.02,1.16-3.33,2.13-6.59,2.96-9.71,0-.04.02-.08.03-.12,0-.02,0-.03.01-.05,3.6-13.61,4.32-24.38,4.52-25.92.09-.73.22-1.53.37-2.37.03-.16.06-.31.08-.47.76-4.08,2.04-9.21,3.48-14.68,1.07-4.05,2.21-8.29,3.29-12.46.64-2.49,1.26-4.96,1.82-7.34.19-.83.52-2.42.85-4.09.26-1.29.52-2.64.74-3.77.07-.35.13-.67.19-.96.12-.04.23-.04.33,0,1.21,9.16.76,26.5-2.75,43.3,0,0,0,0,0,0-1.2,5.72-2.56,11.99-3.92,17.58-.83,3.42-1.56,6.53-2.22,9.38-1.89,5.1-3.45,9.49-5.17,14.56-3.09,9.13-7.93,21.13-8.09,41.22v.3c-.02,4.2.15,8.73.58,13.67,1.1,12.52,9.23,39.25,12.26,52.03,6.75,28.38,10.57,45.41,11.06,55.42.65,12.92-.83,16.97-2.15,24.79-2.56,15.21-.69,28.37,2.35,40.42,5.63,22.28,11.53,32.19,12.13,43.89.15,2.91-1.69,4.13-.68,7.83.53,1.92,1.43,3.76.07,8.04-4.59,14.48-10.56,18.28-9.86,23.57.79,5.86,17.35,5.49,23.84,4.17,5.34-1.09,5.27-10.06,3.73-20.34-.31-2.07-.47-4.4-.35-7.96.06-1.75.46-3.8.67-6.28.19-2.28-.37-4.69-.67-6.59-.23-1.45-.47-2.61-.51-3.21-1.43-22.39-.99-27.76,1.39-48.8,2.39-21.26-.97-25.08-.55-38.08.25-7.58,2.15-15.35,2.72-23.55.56,8.2,2.47,15.96,2.72,23.55.42,13-2.94,16.82-.55,38.08,2.38,21.04,2.82,26.41,1.39,48.8-.04.6-.28,1.76-.51,3.21-.3,1.9-.86,4.31-.67,6.59.21,2.48.61,4.53.67,6.28.12,3.56-.04,5.89-.35,7.96-1.54,10.28-1.61,19.25,3.73,20.34,6.49,1.32,23.05,1.69,23.84-4.17.7-5.29-5.27-9.09-9.86-23.57-1.36-4.28-.46-6.12.07-8.04,1.01-3.7-.83-4.92-.68-7.83.6-11.7,6.5-21.61,12.13-43.89,3.04-12.05,4.91-25.21,2.35-40.42-1.32-7.82-2.8-11.87-2.15-24.79.49-10.01,4.31-27.04,11.06-55.42,3.03-12.78,11.16-39.51,12.26-52.03.43-4.94.6-9.47.58-13.67v-.3c-.16-20.09-5-32.09-8.09-41.22-1.72-5.07-3.28-9.45-5.17-14.56-.66-2.85-1.39-5.95-2.22-9.38-1.36-5.59-2.72-11.86-3.92-17.58,0,0,0,0,0,0-3.51-16.79-3.95-34.14-2.75-43.3.1-.04.21-.04.33,0,.06.29.12.62.19.96.22,1.13.48,2.48.74,3.77.33,1.67.65,3.26.85,4.09.56,2.38,1.17,4.84,1.82,7.34,1.07,4.17,2.22,8.41,3.29,12.46,1.44,5.48,2.72,10.6,3.48,14.68.03.16.06.31.08.47.15.84.28,1.63.37,2.37.2,1.55.92,12.31,4.52,25.92,0,.02,0,.03.01.05.01.04.02.08.03.12.83,3.11,1.8,6.38,2.96,9.71.12.35.24.69.36,1.02.22.64.44,1.27.65,1.88,5.01,14.31,7.04,19.23,10.57,27.24,1.09,2.46,2.04,4.7,2.8,6.76,1.05,2.84,1.75,5.33,1.92,7.52.01.1.03.21.04.32,0,.08.01.16.01.23,0,.33-.06.73-.16,1.17-.4,1.8-1.45,4.33-1.9,6.06-1.75,6.81,1.79,12.51-2.25,21.41-.05.12-.06.22-.02.31.25.63,2.46.53,3.85-1.12,1.93-2.29,2.54-8.39,2.64-7.71,0,.03,0,.06.01.11.08,1.52.19,2.82.32,3.96.54,4.77,1.45,6.96,2.06,12.16.47,4.06-.6,6.55-.14,8.38,0,.03.01.06.02.09,0,.03.02.06.03.1.07.22.17.43.29.64.09.14.17.26.25.36.76,1.05,1.21.73,3.27-1.62.54-.61,1-1.21,1.42-1.78.85-1.14,1.53-2.19,2.21-3.1,1.04-1.39,1.83-2.77,2.38-4.55.23-.76.42-1.58.56-2.51.16-1.06.26-2.26.31-3.64.13-4.11-.4-7.24-1.76-13.22Zm-77.74,34.62c-.83,16.27-.81,19.59-3.39,40.16-.44,3.56-.88,7.68-1.15,12.15-.27-4.47-.7-8.59-1.15-12.15-2.58-20.57-2.56-23.89-3.39-40.16-.9-17.66,3.85-26.31,1.14-41.54.59.24,1.97.34,3.4.36,1.43-.03,2.81-.12,3.4-.36-2.71,15.23,2.04,23.88,1.14,41.54Z"/>
  </g>
</svg>