<?xml version="1.0" encoding="UTF-8"?>
<svg id="_레이어_2" data-name="레이어 2" xmlns="http://www.w3.org/2000/svg" viewBox="0 0 169.74 571.77">
  <defs>
    <style>
      .cls-1 {
        fill: #f3a9aa;
        stroke: #231815;
        stroke-miterlimit: 10;
      }
    </style>
  </defs>
  <g id="_레이어_1-2" data-name="레이어 1">
    <path class="cls-1" d="m38,105.58c-.9.41-2.39,1.3-2.39,1.3h0c-1.83.92-3.74,3.68-5.71,10.55-2.64,9.22-6.49,70.31-6.9,76.98-.33,5.34-1.19,15.48-1.59,16.82-.23.74-.45,1.48-.68,2.22-3.96,12.99-7.73,24.8-8.86,34.19-.31,2.62-.6,5.04-.88,7.33-1.36,11.36-2.32,19.45-3.78,30.34-.76,5.74-2.15,6.7-2.48,9.76-.05.43-.05.87-.05,1.43,0,.97-.01,2.29-.27,4.56-.87,7.4-1.53,8.87-2.13,11.5-1.36,5.98-1.89,9.11-1.76,13.22.18,5.45,1.25,8.06,3.24,10.7,1.03,1.36,2.04,3.05,3.64,4.88,2.05,2.35,2.46,2.61,3.28,1.49.27-.3.44-.7.57-1.19.48-1.81-.58-4.27-.12-8.25.76-6.46,1.98-8.28,2.38-16.17.1-.68.71,5.37,2.63,7.64,1.44,1.71,3.81,1.71,3.69.97.01-.27-.03-.59-.17-.93-3.51-8.46-.22-14.03-1.92-20.64-.57-2.2-2.15-5.7-2.06-7.34,0-.15.03-.3.05-.44.29-3.78,2.14-8.44,4.72-14.29,3.54-8,5.56-12.92,10.57-27.24.32-.92.66-1.88,1.01-2.89,6.24-17.98,7.28-33.9,7.52-35.8.11-.87.27-1.82.46-2.83,1.65-8.91,5.84-22.76,8.58-34.48.43-1.84,1.47-7.23,1.91-9.55.11.45.22.9.32,1.35,2.04,10.85,2.51,27.09-1.44,42.67h0c-1.15,5.81-3.93,11.79-6.72,19-5.36,11.7-8.77,21.84-8.97,22.37-.02.05-.04.1-.05.15-3.37,9.12-8.49,21.17-8.66,41.37v.15c-.03,4.24.15,8.82.61,13.82,1.17,12.51,9.82,39.25,13.04,52.02,7.18,28.39,11.23,45.42,11.76,55.43.68,12.92-.89,16.96-2.29,24.79-2.73,15.21-.74,28.37,2.5,40.42,5.98,22.28,12.26,32.19,12.9,43.89.15,2.91-1.82,4.13-.73,7.83.57,1.92,1.52,3.76.07,8.04-4.88,14.48-11.22,18.28-10.47,23.57.83,5.86,18.44,5.49,25.34,4.17,5.67-1.09,5.6-10.06,3.96-20.34-.33-2.08-.5-4.4-.37-7.96.06-1.75.49-3.8.71-6.28.21-2.28-.39-4.69-.71-6.59-.24-1.45-.5-2.61-.54-3.22-1.52-22.38-1.05-27.75,1.47-48.79,2.55-21.26-1.02-25.08-.57-38.08.26-7.71,2.35-15.58,2.91-23.92.71-10.47-.26-20.35-1.25-27.8-2.74-20.57-2.72-23.89-3.61-40.15-.95-17.66,4.11-26.31,1.22-41.54.67.26,2.31.35,3.93.37s3.27-.11,3.94-.37c-2.89,15.23,2.17,23.88,1.21,41.54-.88,16.26-.87,19.58-3.6,40.15-.99,7.45-1.96,17.33-1.26,27.8.56,8.34,2.65,16.21,2.92,23.92.45,13-3.12,16.82-.58,38.08,2.53,21.04,3.15,26.42,1.48,48.79-.05.61-.3,1.77-.54,3.22-.32,1.9-.93,4.31-.72,6.59.22,2.48.65,4.53.72,6.28.13,3.56-.04,5.88-.37,7.96-1.64,10.28-1.72,19.25,3.96,20.34,6.89,1.32,24.51,1.69,25.34-4.17.75-5.29-5.6-9.09-10.48-23.57-1.44-4.28-.48-6.12.08-8.04,1.08-3.7-.89-4.92-.73-7.83.64-11.7,6.91-21.61,12.9-43.89,3.24-12.05,5.22-25.21,2.5-40.42-1.4-7.83-2.97-11.87-2.29-24.79.52-10.01,4.58-27.04,11.76-55.43,3.22-12.77,11.87-39.51,13.04-52.02.46-5,.64-9.58.61-13.82v-.15c-.17-20.2-5.29-32.25-8.66-41.37-.01-.05-.03-.1-.05-.15-.21-.53-3.64-10.71-9.01-22.45-.02-.05-.05-.1-.07-.15-2.78-7.12-5.51-13.03-6.65-18.77h0c-4.06-15.93-3.38-32.56-1.19-43.65.09.19.2.46.32.78.49,2.57,1.32,6.81,1.69,8.39,2.74,11.72,6.95,25.57,8.58,34.48.19,1.01.35,1.96.46,2.83.24,1.9,1.28,17.82,7.52,35.8.35,1.01.69,1.97,1.01,2.89,5.01,14.32,7.03,19.24,10.57,27.24,2.58,5.85,4.43,10.51,4.72,14.29.02.14.04.29.05.44.07,1.64-1.49,5.14-2.06,7.34-1.75,6.81,1.79,12.51-2.25,21.41-.22.48.37.75,1.21.65.03,0,.06,0,.09-.01.04,0,.08-.01.12-.02.78-.14,1.72-.58,2.43-1.43,1.92-2.27,2.53-8.34,2.63-7.64,0,0,0,.02,0,.03.4,7.87,1.62,9.69,2.38,16.15.55,4.71-.99,7.3.21,9.21.41.64.7.98,1.09.93.5-.04,1.16-.72,2.44-2.19,1.6-1.83,2.61-3.52,3.64-4.88,1.99-2.64,3.06-5.25,3.24-10.7.13-4.11-.4-7.24-1.76-13.22-.6-2.63-1.26-4.1-2.13-11.5-.26-2.27-.27-3.59-.27-4.56,0-.56,0-1-.05-1.43-.34-3.06-1.72-4.02-2.48-9.76-1.46-10.89-2.42-18.98-3.78-30.34-.28-2.29-.57-4.71-.88-7.33-1.13-9.39-4.87-21.21-8.86-34.19-.23-.74-.45-1.48-.68-2.22-.41-1.34-1.26-11.48-1.59-16.82-.41-6.67-4.26-67.76-6.9-76.98-1.97-6.87-3.88-9.63-5.71-10.54h0s-1.49-.9-2.39-1.31c-1.86-.84-4.04-1.38-6.4-1.89-.49-.11-.98-.21-1.49-.32-3.2-.71-6.5-1.94-9.61-3.14-5.34-2.05-9.74-4.61-12.38-11.01-1.11-2.7-1.57-10.21-1.75-15.34,2.54-2.35,4.51-5.38,5.74-10.41.22-.9.48-1.97.74-3.11.33.11.63.15.9.13,2.05-.13,2.67-3.58,3.12-4.68.56-1.36,1.31-1.49,2.07-4.5.5-2-.37-3.32-.01-4.61.24-.87.36-3.32-.75-4.16-.12-.09-.27-.14-.42-.18,1.64-6.27,2.7-16.51-.74-24.35-1.48-3.39-3.32-6.12-5.25-8.29-4.57-5.57-12.1-9.22-20.63-9.22-.54,0-1.07.01-1.6.04-7.88.42-14.76,3.95-19.05,9.18-1.93,2.17-3.77,4.9-5.25,8.29-3.44,7.84-2.38,18.08-.74,24.35-.15.04-.3.09-.42.18-1.11.84-.99,3.29-.75,4.16.36,1.29-.52,2.61-.01,4.61.76,3.01,1.51,3.14,2.07,4.5.51,1.22,1.22,5.39,3.9,4.57.07.13.14.26.22.38.23.99.45,1.92.65,2.71,1.23,5.03,3.2,8.06,5.74,10.41-.18,5.13-.64,12.64-1.75,15.34-2.64,6.4-7.04,8.96-12.38,11.01-.39.15-.77.3-1.15.45-2.69,1.03-5.5,2.02-8.25,2.65-.07.02-.15.03-.22.05-.51.11-1,.21-1.49.32-2.35.51-4.54,1.05-6.4,1.89Z"/>
  </g>
</svg>