<?xml version="1.0" encoding="UTF-8"?>
<svg id="_레이어_2" data-name="레이어 2" xmlns="http://www.w3.org/2000/svg" viewBox="0 0 169.04 571.31">
  <defs>
    <style>
      .cls-1 {
        fill: #f3a9aa;
        stroke: #231815;
        stroke-miterlimit: 10;
      }
    </style>
  </defs>
  <g id="_레이어_1-2" data-name="레이어 1">
    <path class="cls-1" d="m37.9,105.04c-.23.09-.47.2-.72.32-.48.24-1,.53-1.07.56,0,0,0,0,0,0-.77.37-1.84,1.08-2.17,1.52,0,0,0,0,0,0-1.41,1.21-2.87,3.67-4.36,8.46-.21.67-.42,1.47-.63,2.41-2.67,11.84-6.24,69.32-6.64,75.78-.33,5.29-1.16,15.26-1.58,16.76-.01.04-.02.09-.03.12,0,0,0,.01,0,.02-.22.71-.43,1.42-.65,2.14-3.99,12.98-7.73,24.8-8.86,34.19-.31,2.62-.6,5.04-.88,7.33-1.36,11.36-2.32,19.45-3.78,30.34-.71,5.38-1.97,6.55-2.4,9.23-.06.38-.1.77-.11,1.24-.01.5,0,1.18-.14,2.33-.05.43-.06.85-.1,1.31-.3,3.63-.7,5-1.12,7.34,0,.04-.01.07-.02.1,0,.02,0,.03,0,.04-1.16,6.6-1.63,8.91-1.92,12.25-.5,5.72-.1,8.52.74,11.96.82,3.36,1.62,5.58,3.44,7.79,1.48,1.8,2.02,2.4,2.96,2.31.36-.03.62-.07.85-.16,1.14.44.95-.65,1.62-3.05.82-2.91.38-5.31.91-9.11.34-2.46.67-4.55,1.01-7.15.22-1.67.74.45,1.86-.12.8.75,2.11.51,1.95-.17-.01-.06-.02-.11-.03-.14-.59-1.58-.5-.22.36-.04.65.14,1.8-.6,1.96-1.62.02-.1.02-.2,0-.31-.65-3.1-.82-5.89-1.18-8.71-.43-3.36-.55-7.07-1.14-10.03-.17-.84-.61-1.98-.84-2.91-.08-.69-.11-1.36-.03-1.95.01-.12.03-.25.05-.37,0-.02,0-.04,0-.06.12-.84.31-1.72.56-2.64.79-2.99,2.21-6.44,3.98-10.46,3.54-8.01,5.57-12.93,10.57-27.24.32-.92.66-1.88,1.01-2.9,6.25-17.98,7.28-33.89,7.53-35.8.11-.86.27-1.82.45-2.82,1.62-8.84,5.77-22.52,8.51-34.17.05-.19.09-.41.15-.63.07-.31.15-.7.24-1.13.5-2.4,1.26-6.31,1.61-8.15.13.51.24,1.03.36,1.54,1.03,9.03-.32,26.16-3.92,42.53-1.45,6.6-2.37,14.08-4.05,21.24-.29,1.24-.55,2.43-.8,3.57-3.98,11.62-5.27,16.11-5.47,16.7-3.13,9.12-7.93,21.14-8.09,41.23v.29c-.02,4.2.15,8.73.58,13.67,1.1,12.52,9.23,39.26,12.26,52.03,6.75,28.39,10.57,45.41,11.06,55.42.65,12.92-.83,16.97-2.15,24.79-2.56,15.22-.69,28.37,2.35,40.42,5.63,22.29,11.53,32.19,12.13,43.89.15,2.92-1.69,4.14-.68,7.83.53,1.92,1.43,3.76.07,8.04-4.59,14.49-10.56,18.28-9.86,23.57.79,5.86,17.35,5.49,23.84,4.17,5.34-1.08,5.27-10.06,3.73-20.33-.31-2.08-.47-4.4-.35-7.96.06-1.76.46-3.81.67-6.28.19-2.28-.37-4.69-.67-6.6-.23-1.44-.47-2.6-.51-3.21-1.43-22.38-.99-27.75,1.39-48.8,2.39-21.26-.97-25.07-.55-38.08.25-7.7,2.22-15.58,2.75-23.92.66-10.46-.25-20.35-1.18-27.79-2.58-20.57-2.56-23.89-3.39-40.16-.9-17.65,3.85-26.31,1.14-41.54.63.27,2.17.37,3.7.38,1.53.01,3.07-.11,3.7-.38-2.71,15.23,2.04,23.89,1.14,41.54-.83,16.27-.81,19.59-3.39,40.16-.93,7.44-1.84,17.33-1.18,27.79.53,8.34,2.5,16.22,2.75,23.92.42,13.01-2.94,16.82-.55,38.08,2.37,21.05,2.82,26.42,1.39,48.8-.04.61-.28,1.77-.51,3.21-.3,1.91-.86,4.32-.67,6.6.21,2.47.61,4.52.67,6.28.12,3.56-.04,5.88-.35,7.96-1.54,10.27-1.61,19.25,3.73,20.33,6.48,1.32,23.05,1.69,23.84-4.17.7-5.29-5.27-9.08-9.86-23.57-1.36-4.28-.46-6.12.07-8.04,1.01-3.69-.83-4.91-.68-7.83.6-11.7,6.5-21.6,12.13-43.89,3.04-12.05,4.91-25.2,2.35-40.42-1.32-7.82-2.8-11.87-2.16-24.79.5-10.01,4.32-27.03,11.07-55.42,3.03-12.77,11.16-39.51,12.26-52.03.43-4.94.6-9.47.58-13.67v-.29c-.16-20.09-4.96-32.11-8.09-41.23-.2-.58-1.47-4.99-5.35-16.33-.3-1.36-.61-2.79-.97-4.29-1.67-7.08-2.89-14.47-4.01-20.89,0,0,0,0,0,0-3.77-16.65-4.94-34.14-3.73-43.3.1-.04.21-.04.33,0,.48,2.47,1.38,7.14,1.77,8.82,2.74,11.72,6.93,25.57,8.58,34.48.12.66.22,1.28.31,1.86.07.49.16,1.15.25,1.92.04.39.1,1,.18,1.77.58,5.52,2.23,18.63,7.24,33.07.26.76.52,1.49.77,2.19.17.48.33.95.49,1.41,4.83,13.78,6.85,18.66,10.32,26.54.82,1.86,1.56,3.59,2.21,5.22,1.39,3.49,2.31,6.49,2.51,9.06.02.12.03.25.04.38,0,.04,0,.08,0,.11,0,.14-.01.29-.03.45-.19,1.77-1.52,4.84-2.03,6.84-1.75,6.81,1.79,12.51-2.25,21.41-.07.16-.05.3.03.41.41.53,2.48.35,3.8-1.21,1.93-2.28,2.54-8.36,2.64-7.71,0,.03,0,.06.01.11.33,6.51,1.23,8.88,1.95,13.17.15.89.29,1.85.42,2.96.27,2.28.04,4.07-.12,5.52-.18,1.54-.29,2.71.33,3.69.11.17.21.32.3.44.72.96,1.21.6,3.21-1.7,1.59-1.83,2.6-3.52,3.63-4.88,1.87-2.47,2.93-4.92,3.2-9.7.02-.32.03-.66.05-1,.01-.42.02-.82.02-1.23,0-1.43-.09-2.79-.28-4.25-.28-2.16-.77-4.54-1.5-7.74-.44-1.95-.92-3.26-1.49-6.82-.2-1.24-.41-2.76-.63-4.67-.24-2.06-.27-3.34-.27-4.28,0-.1,0-.19,0-.28,0-.34,0-.64-.01-.91,0-.18-.01-.35-.03-.51-.12-1.13-.39-1.97-.72-2.87-.56-1.55-1.29-3.26-1.77-6.89-.24-1.75-.46-3.43-.67-5.06-.42-3.23-.81-6.28-1.18-9.34-.62-5-1.22-10.02-1.93-15.94-.05-.38-.09-.77-.14-1.16-.21-1.74-.43-3.57-.66-5.5-.05-.43-.11-.86-.16-1.3-1.21-9.28-4.87-20.86-8.78-33.56-.18-.58-.35-1.15-.53-1.72-.08-.25-.16-.58-.24-.97-.13-.64-.29-1.96-.46-3.61-.39-3.78-.83-9.27-1.04-12.73-.4-6.56-4.14-65.86-6.77-76.47-.09-.38-.19-.72-.28-1.03-1.74-5.87-3.43-8.56-5.05-9.67,0,0,0,0,0,0-.17-.15-.58-.4-1.03-.65,0,0,0,0,0,0-.22-.12-.76-.43-1.29-.7-.08-.04-.16-.07-.23-.11-.32-.15-.64-.3-.94-.42-.23-.09-.46-.18-.69-.27-.21-.08-.42-.15-.63-.22-.88-.29-1.8-.55-2.77-.78-.66-.16-1.33-.3-2.01-.45-.39-.08-.77-.16-1.18-.25-2.43-.54-4.92-1.39-7.34-2.28-.17-.06-.33-.12-.5-.19-.44-.16-.88-.33-1.31-.5-.32-.12-.64-.25-.95-.37-4.76-1.88-8.7-4.29-11.3-9.63-.34-.7-.66-1.58-.93-2.58-.39-1.44-.68-3.54-.89-5.81-.19-2.02-.32-4.15-.41-6.09.26-.63.52-1.26.75-1.91.21-.6.4-1.21.59-1.82,1.39-1.65,2.54-3.65,3.46-6.27.17-.5.35-1.04.53-1.61.13-.42.25-.85.38-1.3.62-.17,1.08-.71,1.47-1.42.48-.89.83-2.12,1.11-3.17.16-.1.31-.19.44-.28.93-.56,1.63-1.31,2.23-3.09.08-.23.15-.47.23-.71.2-.67.28-1.27.33-1.72.12-.95.2-1.56.54-2.43.21-.54.42-1.5.43-2.57,0-.56-.1-1.07-.31-1.46-.06-.11-.14-.2-.22-.28.07-.89.06-1.74.22-2.6.01-.07.02-.15.04-.22.27-1.18.47-3.23-.03-4.5-.04-.1-.09-.18-.14-.26-.02-.03-.03-.05-.05-.08.12-.76.24-1.56.33-2.38.45-4.07.4-8.69-.66-12.98-.84-3.37-2.1-6.42-3.72-9-1.7-2.87-3.85-5.23-6.22-7.09-3.43-2.86-7.83-4.89-12.76-5.64-2.76-.42-5.57-.43-8.34-.06-5.37.75-10.15,2.98-13.77,6.18-1.79,1.5-3.43,3.29-4.81,5.37-.39.6-.77,1.24-1.15,1.89-.61,1.05-1.2,2.15-1.7,3.32-.04.09-.08.18-.11.27,0,0,0,.02,0,.02-.46,1.14-.88,2.34-1.24,3.58-.28.99-.51,2.01-.67,3.04-.82,4.98-.44,10.19.32,14.36-.06.11-.13.22-.18.35-.45,1.25-.25,3.25.03,4.39.11.44.16.87.19,1.3-.03.03-.05.06-.08.09-.05.06-.11.12-.15.19-.17.26-.29.59-.38.95-.15.61-.18,1.32-.08,2.03.06.45.15.85.24,1.15.5,1.63.39,2.41.87,4,.58,1.93,1.15,3.2,2.05,4.36.34.44.78.94,1.36,1.22.34,1.12.79,2.2,1.38,2.81.24.25.5.46.8.56.28,1.1.58,2.12.88,3.01.97,2.94,2.24,5.11,3.79,6.88.37,1.13.77,2.24,1.2,3.32-.19,4.16-.55,9.21-1.29,12-.23.86-.5,1.62-.78,2.28-.08.18-.16.36-.24.52-2.5,5.05-6.24,7.44-10.72,9.28-.65.27-1.3.53-1.97.78-2.56.97-5.23,1.93-7.85,2.57-.52.13-1.03.25-1.54.36s-.98.21-1.46.32c0,0,0,0,0,0-.38.08-.75.17-1.12.26-.98.24-1.91.5-2.8.8-.15.05-.3.1-.45.16-.25.09-.49.18-.73.28Z"/>
  </g>
</svg>