<?xml version="1.0" encoding="UTF-8"?>
<svg id="_레이어_2" data-name="레이어 2" xmlns="http://www.w3.org/2000/svg" viewBox="0 0 169.27 571.62">
  <defs>
    <style>
      .cls-1 {
        fill: #f3a9aa;
        stroke: #231815;
        stroke-miterlimit: 10;
      }
    </style>
  </defs>
  <g id="_레이어_1-2" data-name="레이어 1">
    <path class="cls-1" d="M166.99,312.55c-.52-2.29-1.09-3.7-1.8-8.89-.11-.78-.21-1.63-.33-2.6-.06-.52-.11-.99-.14-1.42-.12-1.44-.13-2.4-.13-3.15,0-.42,0-.77-.03-1.1,0-.11,0-.22-.02-.33-.09-.83-.26-1.51-.48-2.17-.57-1.77-1.45-3.41-2.01-7.59-1.46-10.89-2.42-18.98-3.78-30.34-.09-.71-.17-1.43-.26-2.17-.11-.88-.21-1.79-.33-2.72-.1-.8-.19-1.61-.29-2.45-1.13-9.39-4.87-21.21-8.86-34.19-.18-.57-.35-1.15-.53-1.72-.06-.2-.12-.41-.18-.65-.07-.27-.15-.77-.24-1.44-.44-3.36-1.06-10.88-1.32-15.23-.41-6.62-4.2-66.78-6.83-76.72-.1-.38-.2-.74-.3-1.08-1.79-5.96-3.54-8.56-5.21-9.55,0,0,0,0,0,0-.09-.08-.55-.36-1.08-.65,0,0,0,0,0,0-.32-.18-.82-.46-1.26-.67-.03-.01-.05-.02-.08-.04-.38-.18-.77-.34-1.15-.49-.18-.07-.36-.14-.55-.2-.26-.09-.53-.18-.8-.27-.2-.06-.4-.13-.61-.19-.44-.13-.88-.25-1.33-.36-.12-.03-.24-.06-.36-.09-.79-.19-1.61-.37-2.44-.54-.29-.06-.57-.12-.86-.19-2.22-.49-4.47-1.24-6.68-2.04-.3-.11-.61-.22-.91-.33-.68-.25-1.35-.51-2.02-.76-5.34-2.05-9.74-4.61-12.38-11.01-1.11-2.7-1.57-10.21-1.75-15.34,2.54-2.35,4.51-5.38,5.74-10.41.22-.9.48-1.97.74-3.12.69.24,1.26.16,1.73-.12,1.4-.85,1.91-3.49,2.29-4.42.56-1.36,1.31-1.49,2.07-4.5.5-2-.37-3.32-.01-4.61.24-.87.36-3.32-.75-4.16-.09-.06-.19-.11-.3-.14-.04-.03-.07-.05-.11-.08,1.63-6.27,2.68-16.49-.75-24.31-1.48-3.39-3.32-6.12-5.25-8.29-4.53-5.52-11.97-9.15-20.41-9.21-8.44.06-15.88,3.69-20.41,9.21-1.93,2.17-3.77,4.9-5.25,8.29-3.43,7.83-2.38,18.04-.75,24.31-.04.02-.08.05-.11.08-.11.03-.21.08-.3.14-1.11.84-.99,3.29-.75,4.16.36,1.29-.51,2.61-.01,4.61.76,3.01,1.51,3.14,2.07,4.5.39.93.89,3.57,2.29,4.42.47.28,1.03.37,1.73.12.26,1.15.52,2.22.74,3.12,1.23,5.03,3.2,8.06,5.74,10.41-.18,5.13-.64,12.64-1.75,15.34-2.64,6.4-7.04,8.96-12.38,11.01-.66.26-1.34.51-2.02.76-.31.11-.61.22-.91.33-2.21.8-4.47,1.55-6.68,2.04-.3.07-.58.12-.86.19-.83.18-1.65.35-2.44.54-.12.03-.24.06-.36.09-.45.11-.9.23-1.33.36-.21.06-.41.12-.61.19-.27.09-.54.17-.8.27-.18.06-.37.13-.55.2-.38.15-.77.31-1.15.49-.03.01-.05.02-.08.04-.44.21-.94.49-1.26.67,0,0,0,0,0,0-.53.29-1,.58-1.08.65,0,0,0,0,0,0-1.68.99-3.42,3.59-5.21,9.55-.1.34-.2.69-.3,1.08-2.64,9.93-6.43,70.1-6.83,76.72-.27,4.35-.89,11.87-1.32,15.23-.09.67-.17,1.17-.24,1.44-.06.24-.12.45-.18.65-.17.57-.35,1.15-.53,1.72-3.99,12.98-7.73,24.8-8.86,34.19-.1.84-.2,1.65-.29,2.45-.11.93-.22,1.83-.33,2.72-.09.73-.18,1.46-.26,2.17-1.36,11.36-2.32,19.45-3.78,30.34-.55,4.18-1.44,5.82-2.01,7.59-.21.66-.39,1.34-.48,2.17-.01.11-.01.22-.02.33-.02.33-.03.68-.03,1.1,0,.75,0,1.71-.13,3.15-.04.43-.08.9-.14,1.42-.11.96-.22,1.82-.33,2.6-.71,5.19-1.28,6.61-1.8,8.89-1.35,5.92-1.88,9.05-1.76,13.11,0,.16.01.33.02.49.05,1.15.14,2.17.27,3.1.13.94.31,1.76.54,2.52.53,1.8,1.3,3.19,2.32,4.57.14.19.28.38.42.57.55.76,1.12,1.61,1.79,2.52.42.58.87,1.17,1.4,1.78.18.21.35.41.52.59,1.59,1.78,2.05,2.05,2.72,1.32.08-.09.18-.2.27-.33.13-.19.23-.4.33-.62.01-.03.03-.06.04-.09.01-.03.02-.06.03-.09.62-1.8-.47-4.24-.07-8.26.04-.44.09-.86.15-1.27.59-4.42,1.39-6.63,1.9-10.9.14-1.14.25-2.43.34-3.94,0-.07,0-.11.02-.14.04-.15.11.14.24.64.28,1.09.89,4.6,2.2,6.43.35.48.77.86,1.19,1.13,1.03.65,2.15.72,2.47.42.06-.06.08-.14.07-.23-.02-.39,0-.86-.2-1.38-3.12-7.99-.24-13.4-1.65-19.68-.14-.62-.34-1.31-.57-2.03-.43-1.34-.99-2.85-1.29-4.1-.1-.43-.18-.84-.19-1.17,0-.08,0-.16,0-.24,0-.06,0-.13,0-.19-.01-.62.02-1.23.12-1.83.02-.15.05-.31.08-.46.28-1.59.79-3.32,1.46-5.21.74-2.05,1.67-4.29,2.75-6.75.36-.81.7-1.61,1.05-2.39,1.41-3.23,2.62-6.08,3.95-9.5,1.52-4.4,3.27-9.12,5.46-15.25.34-.94.68-1.89,1.03-2.87.06-.17.19-.51.38-.95,0-.01.01-.02.02-.03.07-.19.14-.38.21-.57.1-.27.2-.54.3-.82.12-.36.24-.71.35-1.07.11-.35.22-.69.33-1.03.05-.16.1-.31.14-.46.13-.41.25-.82.38-1.23.03-.08.05-.17.07-.25.14-.48.28-.95.42-1.42,0,0,0-.02,0-.02,4.11-14.92,5.06-27.01,5.27-28.66.09-.73.22-1.54.37-2.37.03-.15.05-.3.08-.46.76-4.08,2.04-9.21,3.48-14.69,1.07-4.05,2.21-8.29,3.28-12.45.64-2.49,1.26-4.96,1.82-7.34.21-.9.57-2.66.92-4.47.26-1.32.53-2.68.74-3.77.07-.35.13-.67.18-.96.13.23.23.5.34.77.21,7.27-1.44,25.67-5.27,42.77-.01.06-.02.13-.03.19-.95,4.91-1.63,9.88-2.34,14.97-.29,1.56-.6,3.21-.96,4.97-2.84,14.05-2.94,12.07-5.54,21.53-3.17,9.1-7.93,21.13-8.09,41.22v.3c-.02,4.19.15,8.73.58,13.67,1.1,12.52,9.23,39.25,12.26,52.02,6.75,28.39,10.57,45.42,11.06,55.43.65,12.92-.83,16.96-2.15,24.79-2.56,15.21-.69,28.37,2.35,40.42,5.63,22.28,11.53,32.19,12.13,43.89.15,2.91-1.69,4.13-.68,7.83.53,1.92,1.43,3.76.07,8.04-4.59,14.48-10.56,18.28-9.86,23.57.79,5.86,17.35,5.49,23.84,4.17,5.34-1.09,5.27-10.06,3.73-20.34-.31-2.08-.47-4.4-.35-7.96.06-1.75.46-3.8.67-6.28.19-2.28-.37-4.69-.67-6.59-.23-1.45-.47-2.61-.51-3.22-1.43-22.38-.99-27.75,1.39-48.79,2.39-21.26-.97-25.08-.55-38.08.25-7.71,2.22-15.58,2.75-23.92.02-.29.03-.57.05-.85.02.28.03.57.05.85.53,8.34,2.5,16.21,2.75,23.92.42,13-2.94,16.82-.55,38.08,2.38,21.04,2.82,26.41,1.39,48.79-.04.61-.28,1.77-.51,3.22-.3,1.9-.86,4.31-.67,6.59.21,2.48.61,4.53.67,6.28.12,3.56-.04,5.88-.35,7.96-1.54,10.28-1.61,19.25,3.73,20.34,6.49,1.32,23.05,1.69,23.84-4.17.7-5.29-5.27-9.09-9.86-23.57-1.36-4.28-.46-6.12.07-8.04,1.01-3.7-.83-4.92-.68-7.83.6-11.7,6.5-21.61,12.13-43.89,3.04-12.05,4.91-25.21,2.35-40.42-1.32-7.83-2.8-11.87-2.15-24.79.49-10.01,4.31-27.04,11.06-55.43,3.03-12.77,11.16-39.5,12.26-52.02.43-4.94.6-9.48.58-13.67v-.3c-.16-20.09-4.92-32.12-8.09-41.22-2.6-9.46-2.7-7.48-5.54-21.53-.36-1.77-.67-3.41-.96-4.97-.71-5.09-1.39-10.05-2.34-14.97,0-.06-.02-.12-.03-.19-3.83-17.1-5.49-35.5-5.27-42.77.11-.28.22-.54.34-.77.05.28.12.61.18.96.21,1.09.47,2.45.74,3.77.36,1.82.72,3.58.92,4.47.56,2.38,1.17,4.84,1.82,7.34,1.07,4.16,2.22,8.4,3.28,12.45,1.44,5.48,2.72,10.61,3.48,14.69.03.16.05.31.08.46.15.84.28,1.64.37,2.37.21,1.65,1.16,13.74,5.27,28.66,0,0,0,.02,0,.02.14.47.27.95.42,1.42.03.08.05.17.07.25.12.41.25.82.38,1.23.05.15.1.31.14.46.11.34.22.69.33,1.03.11.35.23.71.35,1.07.1.27.2.55.3.82.07.19.14.38.21.57,0,.01.01.02.02.03.18.44.32.77.38.95.35.98.69,1.94,1.03,2.87,2.19,6.12,3.94,10.85,5.46,15.25,1.34,3.42,2.54,6.27,3.95,9.5.34.78.69,1.58,1.05,2.39,1.08,2.46,2.01,4.69,2.75,6.75.67,1.89,1.18,3.62,1.46,5.21.03.15.06.3.08.46.1.6.13,1.21.12,1.83,0,.06,0,.13,0,.19,0,.08,0,.16,0,.24-.01.34-.09.74-.19,1.17-.3,1.24-.86,2.76-1.29,4.1-.23.72-.43,1.41-.57,2.03-1.41,6.28,1.47,11.69-1.65,19.68-.2.52-.17.99-.2,1.38,0,.09,0,.17.07.23.32.31,1.44.24,2.47-.42.43-.27.84-.64,1.19-1.13,1.32-1.83,1.92-5.34,2.2-6.43.13-.5.2-.78.24-.64,0,.03.01.07.02.14.08,1.52.2,2.8.34,3.94.5,4.26,1.31,6.48,1.9,10.9.05.41.1.84.15,1.27.4,4.02-.69,6.46-.07,8.26.01.03.02.06.03.09.01.03.03.06.04.09.09.23.19.43.33.62.09.13.18.23.27.33.67.74,1.14.46,2.72-1.32.16-.19.34-.38.52-.59.53-.62.98-1.21,1.4-1.78.67-.91,1.24-1.76,1.79-2.52.14-.19.28-.38.42-.57,1.02-1.38,1.79-2.77,2.32-4.57.22-.76.4-1.59.54-2.52.13-.92.22-1.94.27-3.1,0-.16.01-.32.02-.49.12-4.06-.42-7.18-1.76-13.11ZM89.25,347.18c-.83,16.26-.81,19.58-3.39,40.15-.49,3.94-.97,8.55-1.23,13.58-.25-5.02-.73-9.64-1.23-13.58-2.58-20.57-2.56-23.89-3.39-40.15-.9-17.66,3.85-26.31,1.14-41.54.6.25,2.02.35,3.48.37,1.45-.02,2.88-.12,3.48-.37-2.71,15.23,2.04,23.88,1.14,41.54Z"/>
  </g>
</svg>