<?xml version="1.0" encoding="UTF-8"?>
<svg id="_레이어_2" data-name="레이어 2" xmlns="http://www.w3.org/2000/svg" viewBox="0 0 169.12 571.62">
  <defs>
    <style>
      .cls-1 {
        fill: #f3a9aa;
        stroke: #231815;
        stroke-miterlimit: 10;
      }
    </style>
  </defs>
  <g id="_레이어_1-2" data-name="레이어 1">
    <path class="cls-1" d="M166.84,312.55c-.52-2.29-1.09-3.7-1.8-8.89-.11-.78-.22-1.64-.33-2.6-.06-.53-.11-1-.14-1.43-.12-1.43-.13-2.39-.13-3.14,0-.42,0-.78-.03-1.11,0-.11-.01-.21-.02-.32-.09-.83-.26-1.5-.47-2.16-.57-1.77-1.46-3.41-2.01-7.6-1.46-10.89-2.42-18.98-3.78-30.34-.09-.71-.17-1.43-.26-2.16-.11-.88-.21-1.79-.33-2.71-.1-.8-.19-1.62-.29-2.46-1.13-9.39-4.87-21.21-8.86-34.19-.19-.63-.39-1.26-.58-1.89-.05-.17-.11-.39-.16-.64-.07-.3-.14-.8-.22-1.43-.44-3.43-1.04-10.8-1.31-15.08-.4-6.56-4.14-65.81-6.77-76.45-.1-.39-.19-.75-.29-1.07-1.73-5.83-3.41-8.53-5.03-9.64,0,0,0,0,0,0-.17-.15-.6-.42-1.07-.67,0,0,0,0,0,0-.21-.12-.74-.42-1.25-.68-.03-.01-.05-.02-.08-.04-.38-.19-.77-.37-1.13-.51-.18-.07-.35-.14-.53-.21-.26-.1-.52-.19-.79-.28-.2-.07-.4-.13-.6-.19-.43-.13-.88-.26-1.33-.38-.12-.03-.24-.06-.36-.09-.83-.21-1.69-.4-2.57-.58-.35-.08-.71-.15-1.07-.23-2.21-.49-4.47-1.24-6.68-2.04-.3-.11-.61-.22-.91-.33-.68-.25-1.35-.51-2.02-.76-5.34-2.05-9.74-4.61-12.38-11.01-1.11-2.7-1.57-10.21-1.75-15.34,2.54-2.35,4.51-5.38,5.74-10.41.22-.9.48-1.97.74-3.12.69.24,1.26.16,1.73-.12,1.4-.85,1.91-3.49,2.29-4.42.56-1.36,1.31-1.49,2.07-4.5.5-2-.37-3.32-.01-4.61.24-.87.36-3.32-.75-4.16-.1-.07-.22-.12-.34-.15-.02-.03-.04-.06-.06-.09,1.63-6.28,2.67-16.47-.76-24.28-1.48-3.39-3.32-6.12-5.25-8.29-4.52-5.5-11.92-9.13-20.33-9.21-8.41.09-15.81,3.71-20.33,9.21-1.93,2.17-3.77,4.9-5.25,8.29-3.43,7.81-2.39,18.01-.76,24.28-.02.03-.04.06-.06.09-.12.04-.24.08-.34.15-1.11.84-.99,3.29-.75,4.16.36,1.29-.51,2.61-.01,4.61.76,3.01,1.51,3.14,2.07,4.5.39.93.89,3.57,2.29,4.42.47.28,1.03.37,1.73.12.26,1.15.52,2.22.74,3.12,1.23,5.03,3.2,8.06,5.74,10.41-.18,5.13-.64,12.64-1.75,15.34-2.64,6.4-7.04,8.96-12.38,11.01-.66.26-1.34.51-2.02.76-.31.11-.61.22-.91.33-2.21.8-4.47,1.55-6.68,2.04-.37.08-.72.15-1.07.23-.88.19-1.74.37-2.57.58-.12.03-.24.06-.36.09-.45.12-.9.24-1.33.38-.2.06-.4.13-.6.19-.27.09-.53.18-.79.28-.18.07-.36.14-.53.21-.36.15-.75.33-1.13.51-.03.01-.05.02-.08.04-.51.26-1.04.56-1.25.68,0,0,0,0,0,0-.47.25-.89.52-1.07.67,0,0,0,0,0,0-1.62,1.11-3.3,3.81-5.03,9.64-.1.32-.19.68-.29,1.07-2.63,10.64-6.37,69.89-6.77,76.45-.26,4.28-.87,11.65-1.31,15.08-.08.63-.16,1.13-.22,1.43-.06.25-.11.47-.16.64-.19.63-.38,1.26-.58,1.89-3.99,12.98-7.73,24.8-8.86,34.19-.1.84-.2,1.66-.29,2.46-.11.93-.22,1.83-.33,2.71-.09.73-.18,1.45-.26,2.16-1.36,11.36-2.32,19.45-3.78,30.34-.55,4.18-1.44,5.83-2.01,7.6-.21.66-.38,1.33-.47,2.16-.01.1-.02.21-.02.32-.02.33-.03.69-.03,1.11,0,.75,0,1.7-.13,3.14-.04.43-.08.9-.14,1.43-.11.96-.22,1.83-.33,2.6-.71,5.19-1.28,6.6-1.8,8.89-1.34,5.87-1.87,8.99-1.77,12.99,0,.16,0,.32.02.48.04,1.15.13,2.17.26,3.09.13.93.3,1.76.51,2.51.51,1.81,1.26,3.2,2.26,4.57.14.19.27.37.41.56.56.75,1.12,1.6,1.78,2.51.42.58.87,1.17,1.39,1.79.17.2.34.4.51.59,1.55,1.75,2.07,2.13,2.7,1.6.09-.08.19-.17.29-.29.13-.17.25-.37.36-.59.01-.03.03-.06.05-.09.01-.03.02-.06.04-.09.77-1.78-.34-4.17-.01-8.15.04-.43.08-.85.13-1.28.57-4.5,1.37-6.72,1.89-10.85.14-1.14.27-2.41.36-3.93,0-.06,0-.11.01-.15.03-.24.09-.2.19-.02.21.39.73,4.22,2.07,6.37.31.5.69.91,1.08,1.21.91.7,1.95.91,2.41.74.08-.03.13-.08.16-.14.3-.22.49-.63.28-1.14-3.29-7.99-.55-13.4-1.72-19.57-.12-.64-.3-1.33-.51-2.04-.39-1.27-.95-2.78-1.3-4.08-.11-.42-.2-.81-.25-1.16-.01-.08-.02-.16-.02-.23,0-.06,0-.13-.01-.19-.07-.64-.08-1.26-.01-1.81.02-.15.04-.3.07-.45.23-1.58.7-3.31,1.35-5.2.7-2.05,1.62-4.28,2.69-6.74.35-.8.69-1.59,1.04-2.39,1.43-3.27,2.64-6.11,3.96-9.44,1.53-4.93,3.33-9.71,5.35-15.2.35-.95.7-1.89,1.05-2.85.06-.16.26-.63.56-1.32,0-.01.01-.03.02-.04.07-.19.15-.38.23-.57.1-.26.21-.53.32-.81.16-.48.32-.96.47-1.43.11-.34.22-.69.33-1.03.05-.15.1-.31.14-.46.13-.41.25-.82.37-1.23.03-.08.05-.17.07-.25.14-.47.28-.95.41-1.42,0,0,0-.02,0-.02,4.16-14.91,5.06-27.01,5.27-28.66.09-.73.22-1.53.37-2.37.03-.16.06-.31.08-.47.76-4.08,2.04-9.21,3.48-14.68,1.07-4.05,2.21-8.29,3.29-12.46.64-2.49,1.26-4.96,1.82-7.34.19-.83.52-2.42.85-4.09.26-1.29.52-2.64.74-3.77.07-.35.13-.67.19-.96.12-.04.23-.04.33,0,1.21,9.15.56,27.38-4.71,43.2-.01.06-.02.12-.03.18-1.24,4.71-1.96,9.55-2.81,14.93-.29,1.56-.6,3.21-.96,4.98-2.84,14.05-2.94,12.07-5.54,21.53-3.17,9.1-7.93,21.13-8.09,41.22v.3c-.02,4.19.15,8.73.58,13.67,1.1,12.52,9.23,39.25,12.26,52.02,6.75,28.39,10.57,45.42,11.06,55.43.65,12.92-.83,16.96-2.15,24.79-2.56,15.21-.69,28.37,2.35,40.42,5.63,22.28,11.53,32.19,12.13,43.89.15,2.91-1.69,4.13-.68,7.83.53,1.92,1.43,3.76.07,8.04-4.59,14.48-10.56,18.28-9.86,23.57.79,5.86,17.35,5.49,23.84,4.17,5.34-1.09,5.27-10.06,3.73-20.34-.31-2.08-.47-4.4-.35-7.96.06-1.75.46-3.8.67-6.28.19-2.28-.37-4.69-.67-6.59-.23-1.45-.47-2.61-.51-3.22-1.43-22.38-.99-27.75,1.39-48.79,2.39-21.26-.97-25.08-.55-38.08.25-7.59,2.16-15.35,2.72-23.55.56,8.2,2.47,15.95,2.72,23.55.42,13-2.94,16.82-.55,38.08,2.38,21.04,2.82,26.41,1.39,48.79-.04.61-.28,1.77-.51,3.22-.3,1.9-.86,4.31-.67,6.59.21,2.48.61,4.53.67,6.28.12,3.56-.04,5.88-.35,7.96-1.54,10.28-1.61,19.25,3.73,20.34,6.49,1.32,23.05,1.69,23.84-4.17.7-5.29-5.27-9.09-9.86-23.57-1.36-4.28-.46-6.12.07-8.04,1.01-3.7-.83-4.92-.68-7.83.6-11.7,6.5-21.61,12.13-43.89,3.04-12.05,4.91-25.21,2.35-40.42-1.32-7.83-2.8-11.87-2.15-24.79.49-10.01,4.31-27.04,11.06-55.43,3.03-12.77,11.16-39.5,12.26-52.02.43-4.94.6-9.48.58-13.67v-.3c-.16-20.09-4.92-32.12-8.09-41.22-2.6-9.46-2.7-7.48-5.54-21.53-.36-1.77-.67-3.42-.96-4.98-.85-5.38-1.57-10.22-2.81-14.93,0-.06-.02-.12-.03-.18-5.27-15.83-5.92-34.05-4.71-43.2.1-.04.21-.04.33,0,.06.29.12.62.19.96.22,1.13.48,2.48.74,3.77.33,1.67.65,3.26.85,4.09.56,2.38,1.17,4.84,1.82,7.34,1.07,4.17,2.22,8.41,3.29,12.46,1.44,5.48,2.72,10.6,3.48,14.68.03.16.06.31.08.47.15.83.28,1.63.37,2.37.21,1.65,1.11,13.75,5.27,28.66,0,0,0,.02,0,.02.13.47.27.94.41,1.42.02.08.05.17.07.25.12.41.25.82.37,1.23.05.15.1.31.14.46.11.34.22.69.33,1.03.15.48.31.95.47,1.43.11.28.22.55.32.81.08.2.15.39.23.57,0,.01.01.03.02.04.3.69.51,1.16.56,1.32.35.96.7,1.9,1.05,2.85,2.02,5.5,3.82,10.28,5.35,15.2,1.32,3.34,2.53,6.18,3.96,9.44.35.79.69,1.59,1.04,2.39,1.07,2.46,1.98,4.69,2.69,6.74.65,1.89,1.12,3.62,1.35,5.2.03.15.05.3.07.45.07.55.06,1.17-.01,1.81,0,.06,0,.12-.01.19,0,.08,0,.16-.02.23-.04.35-.13.74-.25,1.16-.35,1.3-.91,2.8-1.3,4.08-.21.71-.39,1.4-.51,2.04-1.17,6.17,1.57,11.58-1.72,19.57-.21.51-.02.91.28,1.14.02.06.08.11.16.14.46.17,1.5-.04,2.41-.74.39-.3.76-.71,1.08-1.21,1.34-2.15,1.87-5.98,2.07-6.37.09-.18.15-.22.19.02,0,.04.01.09.01.15.09,1.51.22,2.79.36,3.93.52,4.13,1.32,6.35,1.89,10.85.05.42.1.85.13,1.28.33,3.98-.79,6.37-.01,8.15.01.03.02.06.04.09.01.03.03.06.05.09.11.23.22.42.36.59.1.12.2.21.29.29.63.53,1.15.15,2.7-1.6.17-.19.34-.39.51-.59.52-.62.97-1.21,1.39-1.79.66-.91,1.23-1.75,1.78-2.51.14-.19.28-.38.41-.56,1-1.37,1.75-2.76,2.26-4.57.21-.75.38-1.58.51-2.51.13-.92.21-1.94.26-3.09,0-.16.01-.32.02-.48.1-4-.43-7.12-1.77-12.99ZM89.1,347.18c-.83,16.26-.81,19.58-3.39,40.15-.44,3.56-.88,7.69-1.15,12.16-.27-4.47-.7-8.6-1.15-12.16-2.58-20.57-2.56-23.89-3.39-40.15-.9-17.66,3.85-26.31,1.14-41.54.59.24,1.97.35,3.4.37,1.43-.02,2.81-.12,3.4-.37-2.71,15.23,2.04,23.88,1.14,41.54Z"/>
  </g>
</svg>