<?xml version="1.0" encoding="UTF-8"?>
<svg id="_레이어_2" data-name="레이어 2" xmlns="http://www.w3.org/2000/svg" viewBox="0 0 169.73 571.77">
  <defs>
    <style>
      .cls-1 {
        fill: #f3a9aa;
        stroke: #231815;
        stroke-miterlimit: 10;
      }
    </style>
  </defs>
  <g id="_레이어_1-2" data-name="레이어 1">
    <path class="cls-1" d="m167.45,312.56c-.6-2.63-1.26-4.1-2.13-11.5-.26-2.27-.27-3.59-.27-4.56,0-.56,0-1-.05-1.43-.34-3.06-1.72-4.02-2.48-9.76-1.46-10.89-2.42-18.98-3.78-30.34-.28-2.29-.57-4.71-.88-7.33-1.13-9.39-4.87-21.21-8.86-34.19-.23-.74-.45-1.48-.68-2.22-.41-1.34-1.26-11.48-1.59-16.82-.41-6.67-4.26-67.76-6.9-76.98-1.97-6.87-3.88-9.63-5.71-10.54h0s-1.49-.9-2.39-1.31c-1.86-.84-4.04-1.38-6.4-1.89-.49-.11-.98-.21-1.49-.32-3.2-.71-6.5-1.94-9.61-3.14-5.34-2.05-9.74-4.61-12.38-11.01-1.11-2.7-1.57-10.21-1.75-15.34,2.54-2.35,4.51-5.38,5.74-10.41.22-.9.48-1.97.74-3.12.33.11.63.16.91.13,2.04-.14,2.66-3.58,3.11-4.68.56-1.36,1.31-1.49,2.07-4.5.5-2-.37-3.32-.01-4.61.24-.87.36-3.32-.75-4.16-.12-.09-.27-.14-.42-.18,1.64-6.27,2.7-16.51-.74-24.35-1.48-3.39-3.32-6.12-5.25-8.29-4.57-5.57-12.1-9.22-20.63-9.22-.54,0-1.08.01-1.61.04-7.87.42-14.75,3.95-19.04,9.18-1.93,2.17-3.77,4.9-5.25,8.29-3.44,7.84-2.38,18.08-.74,24.35-.15.04-.3.09-.42.18-1.11.84-.99,3.29-.75,4.16.36,1.29-.52,2.61-.01,4.61.76,3.01,1.51,3.14,2.07,4.5.51,1.22,1.22,5.39,3.9,4.57.07.13.14.26.22.38.23.99.45,1.92.65,2.71,1.23,5.03,3.2,8.06,5.74,10.41-.18,5.13-.64,12.64-1.75,15.34-2.64,6.4-7.04,8.96-12.38,11.01-.34.13-.66.26-.99.38-2.8,1.08-5.73,2.12-8.58,2.75-.51.11-1,.21-1.5.32-2.37.51-4.56,1.05-6.43,1.9-.9.41-2.39,1.3-2.39,1.3h0c-1.83.92-3.74,3.68-5.71,10.55-2.64,9.22-6.49,70.31-6.9,76.98-.33,5.34-1.19,15.48-1.59,16.82-.23.74-.45,1.48-.68,2.22-3.96,12.99-7.73,24.8-8.86,34.19-.31,2.62-.6,5.04-.88,7.33-1.36,11.36-2.32,19.45-3.78,30.34-.76,5.74-2.15,6.7-2.48,9.76-.05.43-.05.87-.05,1.43,0,.97-.01,2.29-.27,4.56-.87,7.4-1.53,8.87-2.13,11.5-1.36,5.98-1.89,9.11-1.76,13.22.18,5.45,1.25,8.06,3.24,10.7,1.03,1.36,2.04,3.05,3.64,4.88,2.05,2.35,2.46,2.61,3.28,1.49.27-.3.44-.69.57-1.18.49-1.81-.58-4.27-.11-8.26.76-6.46,1.98-8.28,2.38-16.17,0,0,0,0,0-.01.1-.67.71,5.38,2.63,7.66,1.44,1.71,3.81,1.71,3.69.97,0-.27-.03-.58-.17-.92-3.52-8.47-.23-14.04-1.93-20.65-.57-2.2-2.15-5.7-2.06-7.34,0-.15.03-.3.05-.44.29-3.78,2.14-8.44,4.72-14.29,1.48-3.35,2.7-6.16,3.98-9.34.04-.17.09-.34.14-.51,1.84-6.39,4.09-11.82,6.17-17.39.13-.35.66-1.59,1.44-3.34,0-.01,0-.02.01-.04.07-.19.14-.39.21-.58,5.92-17.54,6.92-32.87,7.16-34.73.11-.87.27-1.82.46-2.83,1.65-8.91,5.84-22.76,8.58-34.48.43-1.84,1.47-7.25,1.91-9.56.05.26.09.53.14.79.04.25.08.49.12.73,3.58,25.35-.2,27.35-4.33,42.52,0,0,0,0,0,0-.82,3.06-1.7,8.37-3.2,14.17-.39,1.35-.84,2.73-1.32,4.12-.11.31-.2.62-.32.93-4.64,12.89-4.66,13.1-7.94,22.29-3.27,9.16-8.49,21.17-8.66,41.37v.15c-.03,4.23.15,8.82.61,13.81,1.17,12.52,9.82,39.26,13.04,52.03,7.18,28.39,11.23,45.42,11.76,55.42.68,12.93-.89,16.97-2.29,24.8-2.73,15.21-.74,28.36,2.5,40.42,5.98,22.28,12.26,32.19,12.9,43.88.15,2.92-1.81,4.14-.73,7.83.57,1.93,1.52,3.77.07,8.05-4.88,14.48-11.22,18.27-10.47,23.56.83,5.86,18.44,5.5,25.34,4.18,5.67-1.09,5.6-10.06,3.96-20.34-.33-2.08-.5-4.4-.37-7.96.06-1.76.49-3.81.71-6.28.21-2.28-.39-4.69-.71-6.6-.24-1.44-.5-2.6-.54-3.21-1.52-22.38-1.05-27.75,1.47-48.79,2.55-21.27-1.02-25.08-.57-38.08.26-7.71,2.35-15.58,2.91-23.92.71-10.47-.26-20.36-1.25-27.8-2.74-20.57-2.72-23.89-3.61-40.15-.95-17.66,4.11-26.32,1.22-41.55.67.27,2.31.38,3.93.38h.01c1.62-.01,3.26-.11,3.93-.38-2.89,15.23,2.17,23.89,1.22,41.55-.89,16.26-.87,19.58-3.61,40.15-.99,7.44-1.96,17.33-1.25,27.8.56,8.34,2.65,16.21,2.91,23.92.45,13-3.12,16.81-.57,38.08,2.52,21.04,2.99,26.41,1.47,48.79-.04.61-.3,1.77-.54,3.21-.32,1.91-.92,4.32-.71,6.6.22,2.47.65,4.52.71,6.28.13,3.56-.04,5.88-.37,7.96-1.64,10.28-1.71,19.25,3.96,20.34,6.9,1.32,24.51,1.68,25.34-4.18.75-5.29-5.59-9.08-10.47-23.56-1.45-4.28-.5-6.12.07-8.05,1.08-3.69-.88-4.91-.73-7.83.64-11.69,6.92-21.6,12.9-43.88,3.24-12.06,5.23-25.21,2.5-40.42-1.4-7.83-2.97-11.87-2.29-24.8.53-10,4.58-27.03,11.76-55.42,3.22-12.77,11.87-39.51,13.04-52.03.46-4.99.64-9.58.61-13.81v-.15c-.17-20.2-5.39-32.21-8.66-41.37-3.28-9.19-3.3-9.4-7.94-22.29-.11-.31-.21-.62-.32-.93-.53-1.55-1.02-3.08-1.45-4.57-1.44-5.64-2.3-10.76-3.1-13.72,0,0,0,0,0,0-4.18-15.22-7.98-16.86-4.14-43.54.1.22.22.57.36.96.49,2.55,1.28,6.58,1.63,8.11,2.74,11.72,6.95,25.57,8.58,34.48.19,1.01.35,1.96.46,2.83.24,1.89,1.27,17.56,7.37,35.35.77,1.75,1.3,2.98,1.43,3.34,2.12,5.73,4.45,11.29,6.32,17.88,1.28,3.19,2.5,6.01,3.98,9.36,2.58,5.85,4.43,10.51,4.72,14.29.02.14.04.29.05.44.07,1.64-1.49,5.14-2.06,7.34-1.75,6.81,1.79,12.51-2.25,21.41-.24.53.5.8,1.48.6.76-.15,1.67-.59,2.36-1.42,1.93-2.28,2.54-8.38,2.63-7.65,0,.02,0,.05,0,.07.4,7.84,1.62,9.67,2.37,16.11.55,4.71-.99,7.3.21,9.21.41.64.7.97,1.09.93.5-.04,1.16-.72,2.44-2.19,1.6-1.83,2.61-3.52,3.64-4.88,1.99-2.64,3.06-5.25,3.24-10.7.13-4.11-.4-7.24-1.76-13.22Z"/>
  </g>
</svg>