<?xml version="1.0" encoding="UTF-8"?>
<svg id="_레이어_2" data-name="레이어 2" xmlns="http://www.w3.org/2000/svg" viewBox="0 0 169.72 571.62">
  <defs>
    <style>
      .cls-1 {
        fill: #f2a7a9;
        stroke: #221714;
        stroke-miterlimit: 10;
      }
    </style>
  </defs>
  <g id="_레이어_1-2" data-name="레이어 1">
    <path class="cls-1" d="m165.31,301.06c-.27-2.27-.27-3.59-.27-4.56,0-.56,0-1-.05-1.43-.33-3.06-1.72-4.02-2.49-9.76-1.45-10.89-2.41-18.98-3.77-30.34-.28-2.29-.57-4.71-.88-7.33-1.13-9.39-4.9-21.2-8.86-34.19-.23-.74-.45-1.48-.68-2.22-.4-1.34-1.26-11.48-1.59-16.82-.41-6.67-4.26-67.76-6.9-76.98-1.97-6.87-3.88-9.63-5.71-10.54h0s-1.49-.9-2.39-1.31c-.88-.4-1.84-.73-2.85-1.02l-26.09-13.37c-.33-.61-.65-1.26-.94-1.96-1.11-2.7-1.56-10.21-1.75-15.34,2.54-2.35,4.51-5.38,5.74-10.41.22-.9.48-1.97.74-3.12,2.78.98,3.5-3.3,4.02-4.54.57-1.36,1.32-1.49,2.07-4.5.51-2-.36-3.32,0-4.61.24-.87.36-3.32-.75-4.16-.12-.09-.26-.14-.42-.18,1.65-6.27,2.7-16.51-.74-24.35-1.48-3.39-3.32-6.12-5.25-8.29-4.57-5.57-12.1-9.22-20.63-9.22s-16.06,3.65-20.63,9.22c-1.93,2.17-3.77,4.9-5.25,8.29-3.44,7.84-2.38,18.08-.74,24.35-.15.04-.3.09-.42.18-1.11.84-.99,3.29-.75,4.16.36,1.29-.52,2.61,0,4.61.75,3.01,1.51,3.14,2.07,4.5.52,1.24,1.24,5.52,4.02,4.54.26,1.15.52,2.22.74,3.12,1.23,5.03,3.2,8.06,5.74,10.41-.18,5.13-.64,12.64-1.75,15.34-.29.7-.6,1.35-.93,1.96l-26.1,13.37c-1.01.29-1.97.63-2.85,1.02-.9.41-2.39,1.3-2.39,1.3h0c-1.83.92-3.74,3.68-5.71,10.55-2.64,9.22-6.49,70.31-6.9,76.98-.33,5.34-1.19,15.48-1.59,16.82-.23.74-.45,1.48-.68,2.22-3.96,12.99-7.73,24.8-8.86,34.19-.31,2.62-.6,5.04-.88,7.33-1.36,11.36-2.32,19.45-3.78,30.34-.76,5.74-2.15,6.7-2.48,9.76-.05.43-.05.87-.05,1.43,0,.97,0,2.29-.27,4.56-.87,7.4-1.53,8.87-2.13,11.5-1.36,5.98-1.89,9.11-1.76,13.22.18,5.45,1.25,8.06,3.24,10.7,1.03,1.36,2.04,3.05,3.64,4.88,2.26,2.59,2.58,2.72,3.51,1.26,1.2-1.91-.34-4.5.21-9.21.76-6.46,1.98-8.28,2.38-16.17.06-1.2.65,5.27,2.65,7.64,1.58,1.88,4.26,1.75,3.83.81-4.04-8.9-.5-14.6-2.25-21.41-.57-2.2-2.13-5.7-2.06-7.34,0-.15.03-.3.05-.44.29-3.78,2.14-8.44,4.72-14.29,3.54-8,5.56-12.92,10.57-27.24.32-.92.66-1.88,1.01-2.89,6.24-17.98,7.28-33.9,7.52-35.8.11-.87.27-1.82.46-2.83,1.63-8.91,5.84-22.76,8.58-34.48.43-1.85,1.48-7.31,1.92-9.6,3.19,12.91,4.95,26.8,4.95,39.14,0,1.64-.18,3.26-.51,4.93h0c-1.09,5.58-3.83,11.54-7.23,19.07-5.42,12-9.87,20.05-10.87,22-.12.23-.2.39-.22.45-3.15,9.05-7.88,21.01-8.08,40.93,0,.1-.01.2-.01.3v.29c-.02,4.19.15,8.72.58,13.66,1.1,12.52,9.23,39.26,12.26,52.03,6.75,28.39,10.57,45.42,11.06,55.42.65,12.93-.83,16.97-2.15,24.8-2.56,15.21-.69,28.36,2.35,40.42,5.63,22.28,11.53,32.19,12.13,43.88.15,2.92-1.69,4.14-.68,7.83.53,1.93,1.43,3.77.07,8.05-4.59,14.48-10.56,18.27-9.86,23.56.79,5.86,17.35,5.5,23.84,4.18,5.34-1.09,5.27-10.06,3.73-20.34-.31-2.08-.47-4.4-.35-7.96.06-1.76.46-3.81.67-6.28.19-2.28-.37-4.69-.67-6.6-.23-1.44-.47-2.6-.51-3.21-1.43-22.38-.99-27.75,1.39-48.79,2.39-21.27-.97-25.08-.55-38.08.25-7.71,2.22-15.58,2.75-23.93.66-10.46-.25-20.35-1.18-27.79-2.58-20.57-2.56-23.89-3.39-40.15-.9-17.66,3.85-26.32,1.14-41.55.63.27,2.17.37,3.7.38,1.53,0,3.07-.11,3.7-.38-2.71,15.23,2.04,23.89,1.14,41.55-.83,16.26-.81,19.58-3.39,40.15-.93,7.44-1.84,17.33-1.18,27.79.53,8.35,2.5,16.22,2.75,23.93.42,13-2.94,16.81-.55,38.08,2.37,21.04,2.82,26.41,1.39,48.79-.04.61-.28,1.77-.51,3.21-.3,1.91-.86,4.32-.67,6.6.21,2.47.61,4.52.67,6.28.12,3.56-.04,5.88-.35,7.96-1.54,10.28-1.61,19.25,3.73,20.34,6.48,1.32,23.05,1.68,23.84-4.18.7-5.29-5.27-9.08-9.86-23.56-1.36-4.28-.46-6.12.07-8.05,1.01-3.69-.83-4.91-.68-7.83.6-11.69,6.5-21.6,12.13-43.88,3.04-12.06,4.91-25.21,2.35-40.42-1.32-7.83-2.8-11.87-2.16-24.8.5-10,4.32-27.03,11.07-55.42,3.03-12.77,11.16-39.51,12.26-52.03.43-4.94.6-9.47.58-13.66v-.29c0-.1-.01-.2-.01-.3-.2-19.92-4.94-31.88-8.08-40.93-.02-.06-.1-.22-.22-.45-1-1.95-5.45-10-10.87-22-3.4-7.53-6.14-13.49-7.23-19.07h0c-.33-1.67-.51-3.29-.51-4.93,0-12.34,1.76-26.23,4.95-39.14.44,2.29,1.49,7.75,1.92,9.6,2.74,11.72,6.95,25.57,8.58,34.48.18,1.01.34,1.96.46,2.83.24,1.9,1.28,17.82,7.52,35.8.35,1.01.69,1.97,1.01,2.89,5,14.32,7.03,19.24,10.57,27.24,2.58,5.85,4.43,10.51,4.72,14.29,0,.14.04.29.05.44.07,1.64-1.5,5.14-2.06,7.34-1.75,6.81,1.79,12.51-2.25,21.41-.43.94,2.25,1.07,3.83-.81,2-2.37,2.59-8.84,2.65-7.64.4,7.89,1.62,9.71,2.38,16.17.55,4.71-.99,7.3.21,9.21.93,1.46,1.24,1.33,3.51-1.26,1.6-1.83,2.61-3.52,3.63-4.88,2-2.64,3.07-5.25,3.25-10.7.13-4.11-.4-7.24-1.76-13.22-.6-2.63-1.26-4.1-2.13-11.5Z"/>
  </g>
</svg>