<?xml version="1.0" encoding="UTF-8"?>
<svg id="_레이어_2" data-name="레이어 2" xmlns="http://www.w3.org/2000/svg" viewBox="0 0 169.72 571.62">
  <defs>
    <style>
      .cls-1 {
        fill: #f2a7a9;
        stroke: #221714;
        stroke-miterlimit: 10;
      }
    </style>
  </defs>
  <g id="_레이어_1-2" data-name="레이어 1">
    <path class="cls-1" d="m167.44,312.56c-.4-1.76-.83-3.01-1.33-5.87-.24-1.4-.51-3.18-.79-5.62-.25-2.07-.27-3.34-.28-4.29,0-.1,0-.19,0-.28,0-.33,0-.61-.01-.88,0-.19-.01-.37-.03-.55-.33-3.05-1.73-4.01-2.49-9.76-.9-6.75-1.61-12.42-2.35-18.45-.45-3.71-.91-7.56-1.43-11.89-.04-.33-.08-.67-.12-1-.2-1.66-.4-3.39-.62-5.21-.04-.37-.09-.74-.13-1.12-1.13-9.39-4.9-21.2-8.86-34.19-.1-.31-.19-.62-.28-.93-.13-.43-.26-.86-.39-1.29-.15-.5-.37-2.25-.6-4.51-.38-3.77-.79-8.97-1-12.31-.41-6.67-4.26-67.76-6.9-76.98-1.97-6.87-3.88-9.63-5.71-10.54h0s-.1-.07-.23-.14h.22l-31.59-16.19v.12c-.24-.47-.46-.95-.68-1.46-1.11-2.7-1.56-10.21-1.75-15.34,2.54-2.35,4.51-5.38,5.74-10.41.22-.9.48-1.97.74-3.12.17.06.34.1.5.12,2.37.33,3.04-3.5,3.52-4.66.57-1.36,1.32-1.49,2.07-4.5.51-2-.36-3.32,0-4.61.24-.87.36-3.32-.75-4.16-.06-.04-.12-.08-.2-.11-.07-.03-.14-.05-.22-.08,1.65-6.27,2.7-16.5-.74-24.34-.74-1.7-1.57-3.23-2.46-4.6-.64-1-1.31-1.91-1.99-2.75-.03-.03-.05-.07-.08-.1,0,0-.01-.02-.02-.02-.23-.28-.46-.55-.7-.82-.47-.57-.97-1.11-1.5-1.64-4.23-4.24-10.31-7.05-17.17-7.51-.13,0-.25-.02-.38-.03-.25-.01-.49-.01-.74-.02-.28,0-.56-.02-.84-.02h0c-8.53,0-16.06,3.64-20.63,9.22-1.93,2.16-3.77,4.9-5.25,8.29-3.42,7.79-2.39,17.94-.77,24.21.01.04.02.09.03.13-.16.05-.3.1-.42.19-1.11.84-.99,3.29-.75,4.16.35,1.29-.52,2.6,0,4.61.19.75.38,1.32.56,1.78.43,1.06.85,1.5,1.21,2.11.1.18.21.38.3.61.46,1.09,1.06,4.5,3.07,4.68.29.03.6-.01.95-.14.26,1.14.52,2.22.74,3.12,1.23,5.03,3.2,8.06,5.74,10.41-.18,5.13-.64,12.64-1.75,15.34-.21.52-.44,1-.68,1.47v-.13l-31.59,16.19h.23c-.14.08-.23.13-.23.13h0c-1.83.92-3.74,3.68-5.71,10.55-2.64,9.22-6.49,70.31-6.9,76.98-.3,4.85-1.04,13.64-1.47,16.22-.04.26-.09.48-.12.6-.04.14-.08.28-.12.42-.18.6-.37,1.2-.55,1.8-3.96,12.99-7.73,24.8-8.86,34.19-.31,2.62-.6,5.04-.88,7.33-1.36,11.36-2.32,19.45-3.78,30.34-.52,3.95-1.34,5.64-1.91,7.3-.26.76-.47,1.51-.57,2.46,0,.06,0,.12,0,.18-.03.38-.04.77-.04,1.25,0,.91-.01,2.13-.23,4.14-.02.14-.03.28-.05.43-.04.36-.08.7-.12,1.03-.81,6.5-1.43,7.96-2,10.46-1.36,5.98-1.89,9.11-1.76,13.22.18,5.45,1.25,8.06,3.24,10.7.92,1.21,1.84,2.69,3.16,4.29.16.2.3.39.48.59,2.07,2.37,2.52,2.68,3.28,1.6.07-.1.15-.21.23-.34.07-.11.13-.23.18-.35,0,0,0-.01.01-.02,0,0,0-.02,0-.02.81-1.87-.5-4.42.02-8.82.68-5.86,1.75-7.91,2.24-14.14.05-.64.1-1.3.13-2.03,0-.07,0-.12.02-.13.13-.21.76,5.57,2.63,7.78,1.39,1.65,3.61,1.75,3.85,1.12.04-.09.03-.2-.02-.31-4.04-8.9-.5-14.6-2.25-21.41-.33-1.27-.98-2.97-1.47-4.5-.35-1.12-.62-2.15-.59-2.84,0-.11.02-.22.03-.33,0-.04,0-.07.01-.11.22-2.91,1.38-6.35,3.07-10.45.5-1.22,1.05-2.49,1.64-3.83,3.54-8.01,5.57-12.93,10.57-27.24.23-.66.47-1.33.71-2.03.1-.29.2-.57.3-.87.61-1.77,1.17-3.51,1.69-5.22,4.75-15.74,5.61-28.85,5.84-30.58.11-.82.26-1.74.43-2.7,0-.05.02-.09.02-.13.41-2.24.98-4.79,1.65-7.54,1.72-7.06,4.1-15.43,6.03-23.22.31-1.26.62-2.5.9-3.72.15-.64.37-1.72.62-2.94.45-2.22.97-4.93,1.26-6.46.01-.06.03-.13.04-.19.13.51.24,1.04.36,1.55-.78,5.41-3.46,24.09-5.86,42.53-1.6,12.31-3.06,24.51-3.75,32.58-2.24,4.44-3.85,7.39-4.41,8.47-.12.23-.2.39-.22.45-3.15,9.05-7.88,21.01-8.08,40.93,0,.1-.01.2-.01.3v.29c-.02,4.19.15,8.72.58,13.66,1.1,12.52,9.23,39.26,12.26,52.03,6.75,28.39,10.57,45.42,11.06,55.42.65,12.93-.83,16.97-2.15,24.8-2.56,15.21-.69,28.36,2.35,40.42,5.63,22.28,11.53,32.19,12.13,43.88.15,2.92-1.69,4.14-.68,7.83.53,1.93,1.43,3.77.07,8.05-4.59,14.48-10.56,18.27-9.86,23.56.79,5.86,17.35,5.5,23.84,4.18,5.34-1.09,5.27-10.06,3.73-20.34-.31-2.08-.47-4.4-.35-7.96.06-1.76.46-3.81.67-6.28.19-2.28-.37-4.69-.67-6.6-.23-1.44-.47-2.6-.51-3.21-1.43-22.38-.99-27.75,1.39-48.79,2.39-21.27-.97-25.08-.55-38.08.25-7.71,2.22-15.58,2.75-23.93.66-10.46-.25-20.35-1.18-27.79-2.58-20.57-2.56-23.89-3.39-40.15-.9-17.66,3.85-26.32,1.14-41.55.63.27,2.17.37,3.7.38,1.53,0,3.07-.11,3.7-.38-2.71,15.23,2.04,23.89,1.14,41.55-.83,16.26-.81,19.58-3.39,40.15-.93,7.44-1.84,17.33-1.18,27.79.53,8.35,2.5,16.22,2.75,23.93.42,13-2.94,16.81-.55,38.08,2.37,21.04,2.82,26.41,1.39,48.79-.04.61-.28,1.77-.51,3.21-.3,1.91-.86,4.32-.67,6.6.21,2.47.61,4.52.67,6.28.12,3.56-.04,5.88-.35,7.96-1.54,10.28-1.61,19.25,3.73,20.34,6.48,1.32,23.05,1.68,23.84-4.18.7-5.29-5.27-9.08-9.86-23.56-1.36-4.28-.46-6.12.07-8.05,1.01-3.69-.83-4.91-.68-7.83.6-11.69,6.5-21.6,12.13-43.88,3.04-12.06,4.91-25.21,2.35-40.42-1.32-7.83-2.8-11.87-2.16-24.8.5-10,4.32-27.03,11.07-55.42,3.03-12.77,11.16-39.51,12.26-52.03.43-4.94.6-9.47.58-13.66v-.29c0-.1-.01-.2-.01-.3-.2-19.92-4.94-31.88-8.08-40.93-.02-.06-.1-.22-.22-.45-.55-1.08-2.16-4.02-4.4-8.46-.69-8.07-2.16-20.27-3.75-32.59-2.4-18.44-5.08-37.12-5.86-42.53.12-.51.23-1.03.36-1.54.44,2.3,1.49,7.73,1.92,9.58,2.74,11.72,6.95,25.57,8.58,34.48.15.86.29,1.66.4,2.42.02.14.04.28.06.41.03.22.07.64.13,1.22.43,4.42,1.88,18.69,7.4,34.58.22.64.44,1.25.65,1.86.12.35.24.7.36,1.04.89,2.55,1.69,4.79,2.42,6.82,2.56,7.14,4.28,11.45,6.24,16.02.6,1.41,1.23,2.85,1.92,4.4.55,1.23,1.05,2.4,1.52,3.53,1.76,4.23,2.97,7.77,3.2,10.75,0,.11.02.22.04.33,0,.04,0,.07,0,.11,0,.14-.01.32-.03.48-.18,1.77-1.52,4.85-2.03,6.86-1.75,6.81,1.79,12.51-2.25,21.41-.09.19-.04.34.09.46.51.47,2.47.25,3.75-1.26,1.85-2.19,2.49-7.87,2.63-7.78,0,.02.01.06.02.13.36,7.08,1.38,9.28,2.13,14.33.09.58.17,1.18.25,1.84.33,2.79-.08,4.83-.21,6.44-.09,1.1-.06,2,.43,2.77.29.46.52.76.77.88.55.27,1.19-.35,2.75-2.14,1.59-1.83,2.6-3.52,3.63-4.88,1.84-2.44,2.9-4.86,3.18-9.52.02-.38.04-.77.06-1.18.01-.41.02-.81.02-1.21,0-1.75-.13-3.38-.42-5.22-.29-1.91-.74-4.05-1.36-6.8Z"/>
  </g>
</svg>