<?xml version="1.0" encoding="UTF-8"?>
<svg id="_레이어_2" data-name="레이어 2" xmlns="http://www.w3.org/2000/svg" viewBox="0 0 169.72 571.77">
  <defs>
    <style>
      .cls-1 {
        fill: #f2a7a9;
        stroke: #221714;
        stroke-miterlimit: 10;
      }
    </style>
  </defs>
  <g id="_레이어_1-2" data-name="레이어 1">
    <path class="cls-1" d="m165.32,301.07c-.27-2.28-.27-3.6-.28-4.57,0-.55,0-.99-.04-1.43-.31-3.05-1.73-4.01-2.49-9.76-1.45-10.89-2.42-18.97-3.78-30.33-.27-2.3-.56-4.72-.88-7.33-1.13-9.39-4.92-21.19-8.86-34.19-.22-.74-.45-1.48-.67-2.23-.4-1.34-1.27-11.48-1.6-16.82-.41-6.61-4.19-66.69-6.83-76.68-.11-.42-.23-.82-.34-1.19-1.36-4.51-2.69-7.07-3.99-8.47-.39-.42-.79-.75-1.17-.98,0,0,0-.01,0-.01-.09-.09-.62-.41-1.2-.73,0,0,0,0,0,0-.29-.16-.73-.4-1.13-.6-.44-.21-.91-.41-1.37-.58-.04-.02-.09-.03-.13-.05-.44-.17-.9-.32-1.37-.46-.03-.01-.07-.02-.1-.03-.05-.02-.11-.03-.16-.04l-26.14-13.4c-.33-.61-.65-1.26-.94-1.97-1.11-2.7-1.56-10.21-1.75-15.34,2.54-2.35,4.51-5.38,5.74-10.41.22-.9.48-1.98.74-3.12.35.12.66.16.95.14,2.01-.18,2.62-3.59,3.07-4.68.07-.17.15-.33.22-.47.34-.62.73-1.02,1.14-1.92.23-.5.47-1.17.71-2.11.51-2.01-.36-3.32-.01-4.61.24-.87.36-3.32-.75-4.16-.12-.09-.26-.14-.42-.19,1.65-6.26,2.7-16.5-.74-24.34-1.48-3.39-3.32-6.13-5.25-8.29-4.57-5.58-12.1-9.22-20.63-9.22h0c-1.01,0-2,.05-2.97.15-.06,0-.12,0-.18.02-.27.03-.54.07-.81.11-.24.03-.47.06-.71.1-.06.01-.13.02-.19.03-4.84.81-9.17,2.82-12.59,5.65-1.17.97-2.24,2.02-3.18,3.17-1.93,2.17-3.77,4.9-5.25,8.29-3.44,7.84-2.38,18.07-.74,24.34-.11.03-.21.07-.3.12-.05.03-.1.06-.15.09-1.08.86-.96,3.27-.72,4.13.36,1.29-.51,2.61-.01,4.61.76,3.01,1.51,3.14,2.07,4.5.45,1.09,1.07,4.53,3.1,4.68.28.02.58-.02.92-.14.26,1.15.52,2.22.74,3.12,1.23,5.03,3.2,8.06,5.74,10.41-.18,5.13-.64,12.64-1.75,15.34-.29.7-.6,1.35-.93,1.96l-26.12,13.38c-.18.05-.36.11-.53.17-.27.08-.53.17-.79.26-.19.07-.39.14-.58.21-.5.2-1.15.53-1.41.65-.04.02-.08.03-.12.05-.84.39-2.12,1.19-2.28,1.41,0,0,0,0,0,0-1.5,1-3.06,3.34-4.66,8.29-.23.71-.46,1.51-.69,2.42-2.67,10.53-6.36,69.81-6.77,76.38-.33,5.34-1.18,15.48-1.59,16.82-.23.74-.45,1.48-.68,2.22-4,12.98-7.73,24.8-8.86,34.19-.31,2.62-.6,5.04-.88,7.33-1.36,11.36-2.32,19.45-3.78,30.34-.76,5.74-2.14,6.7-2.48,9.76-.05.43-.05.87-.05,1.43,0,.97-.01,2.29-.27,4.56-.87,7.4-1.53,8.87-2.13,11.5-1.36,5.98-1.89,9.11-1.76,13.22.18,5.45,1.25,8.06,3.24,10.7,1.03,1.36,2.04,3.05,3.64,4.88,1.42,1.63,1.98,2.17,2.58,1.93.43.01.7-.36,1.05-1.06.94-1.86-.41-4.4.1-8.82.75-6.46,1.98-8.27,2.37-16.17,0-.06,0-.1.02-.12.11-.27.53,4.53,2.12,6.97.52.8,1.39,1.01,1.47,1,1.01,1.01,2.91.54,2.49-.52-3.27-8.34-.2-13.78-1.87-20.28-.56-2.2-2.13-5.7-2.05-7.35,0-.14.03-.3.04-.44.29-3.77,2.14-8.44,4.72-14.28,3.54-8.01,5.57-12.93,10.57-27.24.33-.93.66-1.89,1.01-2.9,6.25-17.98,7.28-33.89,7.53-35.8.11-.86.27-1.82.45-2.82,1.63-8.92,5.85-22.77,8.58-34.49.43-1.85,1.49-7.3,1.92-9.59.13.52.24,1.04.36,1.56.21,6.8-1.13,21.92-2.73,37.35-.18,1.72-.39,3.44-.64,5.17,0,0,0,0,0,0-.95,6.66-2.45,13.34-3.99,19.77-.46,1.93-.85,3.75-1.21,5.44-4.22,6.75-5.98,9.47-8.53,15.99-.04.1-.08.2-.12.3-3.47,9.02-8.54,21.07-8.65,41.08,0,.1-.01.19-.01.29v.15c-.03,4.23.15,8.82.61,13.81,1.17,12.52,9.82,39.26,13.04,52.03,7.18,28.39,11.23,45.41,11.76,55.42.68,12.93-.89,16.97-2.29,24.8-2.73,15.21-.74,28.36,2.5,40.42,5.98,22.28,12.26,32.19,12.9,43.88.15,2.92-1.81,4.14-.73,7.83.57,1.93,1.52,3.77.07,8.05-4.88,14.48-11.22,18.27-10.47,23.56.83,5.86,18.44,5.5,25.34,4.18,5.67-1.09,5.6-10.06,3.96-20.34-.33-2.08-.5-4.4-.37-7.96.06-1.76.49-3.81.71-6.28.21-2.28-.39-4.69-.71-6.6-.24-1.44-.5-2.6-.54-3.21-1.52-22.38-1.05-27.75,1.47-48.79,2.55-21.27-1.02-25.08-.57-38.08.26-7.71,2.35-15.58,2.91-23.93.71-10.46-.26-20.35-1.25-27.79-2.74-20.57-2.72-23.89-3.61-40.15-.95-17.66,4.11-26.32,1.22-41.55.67.27,2.31.37,3.93.38,1.63.01,3.27-.11,3.94-.38-2.89,15.23,2.17,23.89,1.21,41.55-.88,16.26-.87,19.58-3.6,40.15-.99,7.44-1.96,17.33-1.26,27.79.56,8.35,2.65,16.22,2.92,23.93.45,13-3.12,16.81-.58,38.08,2.53,21.04,3.16,26.42,1.48,48.79-.05.61-.3,1.77-.54,3.21-.32,1.91-.93,4.32-.72,6.6.22,2.47.65,4.52.72,6.28.13,3.56-.04,5.88-.37,7.96-1.64,10.28-1.72,19.25,3.96,20.34,6.89,1.32,24.51,1.68,25.34-4.18.75-5.29-5.6-9.08-10.48-23.56-1.44-4.28-.49-6.12.08-8.05,1.08-3.69-.89-4.91-.73-7.83.64-11.69,6.91-21.6,12.9-43.88,3.24-12.06,5.22-25.21,2.5-40.42-1.4-7.83-2.97-11.87-2.29-24.8.52-10.01,4.58-27.03,11.76-55.42,3.22-12.77,11.87-39.51,13.04-52.03.46-4.99.64-9.58.61-13.81v-.15c0-.1,0-.19,0-.29-.11-20.01-5.2-32.05-8.65-41.08-.04-.1-.08-.2-.12-.3-2.47-6.34-4.2-9.09-8.15-15.4-.51-2.44-1.08-5.13-1.81-8.06-1.48-5.91-2.9-11.84-3.76-17.75,0,0,0,0,0-.01-.24-1.65-.44-3.29-.61-4.93-1.61-15.64-2.94-31.06-2.67-37.98.11-.27.21-.53.34-.76.46,2.39,1.43,7.43,1.84,9.19,2.74,11.72,6.97,25.57,8.58,34.48.18,1.01.34,1.96.46,2.83.25,1.9,1.28,17.82,7.52,35.8.35,1.01.69,1.97,1.01,2.89,5,14.32,7.03,19.24,10.57,27.24,2.58,5.85,4.43,10.51,4.72,14.29.01.14.04.29.05.44.09,1.64-1.5,5.14-2.06,7.34-1.75,6.81,1.79,12.51-2.25,21.41-.11.24-.02.42.2.53.64.35,2.45.08,3.64-1.34,1.87-2.21,2.5-7.99,2.63-7.74,0,.02.01.06.01.12.4,7.87,1.62,9.69,2.38,16.15.55,4.71-1,7.3.21,9.21.34.55.61.86.92.92.52.1,1.17-.55,2.61-2.18,1.59-1.83,2.6-3.52,3.63-4.88,1.99-2.64,3.07-5.25,3.24-10.69.14-4.12-.4-7.24-1.76-13.22-.6-2.64-1.26-4.11-2.12-11.5Z"/>
  </g>
</svg>