<?xml version="1.0" encoding="UTF-8"?>
<svg id="_레이어_2" data-name="레이어 2" xmlns="http://www.w3.org/2000/svg" viewBox="0 0 169.72 571.77">
  <defs>
    <style>
      .cls-1 {
        fill: #f2a7a9;
        stroke: #221714;
        stroke-miterlimit: 10;
      }
    </style>
  </defs>
  <g id="_레이어_1-2" data-name="레이어 1">
    <path class="cls-1" d="m3.76,336.48c1.03,1.36,2.04,3.05,3.64,4.88,1.7,1.95,2.18,2.35,2.89,1.71.39-.15.61-.57.86-1.22.68-1.82-.5-4.3-.01-8.43.75-6.46,1.98-8.27,2.38-16.17,0-.06,0-.09.01-.11.1-.41.57,4.85,2.29,7.23.85,1.17,2.35,1.26,2.26.94.43.15,1.55-.67,1.16-1.84-2.59-7.74.1-12.96-1.49-19.16-.56-2.2-2.13-5.7-2.05-7.34,0-.15.03-.3.04-.44.29-3.77,2.14-8.44,4.72-14.28,3.54-8.01,5.57-12.93,10.57-27.24.33-.92.66-1.88,1.01-2.9,6.25-17.98,7.28-33.9,7.53-35.8.11-.87.27-1.82.46-2.83,1.63-8.92,5.84-22.77,8.58-34.48.43-1.85,1.48-7.31,1.92-9.59.13.52.25,1.04.37,1.57,1.12,8.68.74,23.19-.3,37.42-.12,1.69-.32,3.38-.6,5.09h0c-1,6.3-3.08,12.68-5.5,19.34-.69,1.9-1.27,3.65-1.81,5.26-4.5,7.21-6.29,9.89-8.91,16.6-.04.1-.08.2-.12.3-3.47,9.02-8.54,21.07-8.65,41.08,0,.1,0,.19,0,.29v.15c-.03,4.23.15,8.82.61,13.81,1.17,12.52,9.82,39.26,13.04,52.03,7.18,28.39,11.23,45.41,11.76,55.42.68,12.93-.89,16.97-2.29,24.8-2.73,15.21-.74,28.36,2.5,40.42,5.98,22.28,12.26,32.19,12.9,43.88.15,2.92-1.81,4.14-.73,7.83.57,1.93,1.52,3.77.07,8.05-4.88,14.48-11.22,18.27-10.47,23.56.83,5.86,18.44,5.5,25.34,4.18,5.67-1.09,5.6-10.06,3.96-20.34-.33-2.08-.5-4.4-.37-7.96.06-1.76.49-3.81.71-6.28.21-2.28-.39-4.69-.71-6.6-.24-1.44-.5-2.6-.54-3.21-1.52-22.38-1.05-27.75,1.47-48.79,2.55-21.27-1.02-25.08-.57-38.08.26-7.71,2.35-15.58,2.91-23.93.71-10.46-.26-20.35-1.25-27.79-2.74-20.57-2.72-23.89-3.61-40.15-.95-17.66,4.11-26.32,1.22-41.55.67.27,2.31.37,3.93.38,1.63,0,3.27-.11,3.94-.38-2.89,15.23,2.17,23.89,1.21,41.55-.88,16.26-.87,19.58-3.6,40.15-.99,7.44-1.96,17.33-1.26,27.79.56,8.35,2.65,16.22,2.92,23.93.45,13-3.12,16.81-.58,38.08,2.53,21.04,3.16,26.42,1.48,48.79-.05.61-.3,1.77-.54,3.21-.32,1.91-.93,4.32-.72,6.6.22,2.47.65,4.52.72,6.28.13,3.56-.04,5.88-.37,7.96-1.64,10.28-1.72,19.25,3.96,20.34,6.89,1.32,24.51,1.68,25.34-4.18.75-5.29-5.6-9.08-10.48-23.56-1.44-4.28-.48-6.12.08-8.05,1.08-3.69-.89-4.91-.73-7.83.64-11.69,6.91-21.6,12.9-43.88,3.24-12.06,5.22-25.21,2.5-40.42-1.4-7.83-2.97-11.87-2.29-24.8.52-10.01,4.58-27.03,11.76-55.42,3.22-12.77,11.87-39.51,13.04-52.03.46-4.99.64-9.58.61-13.81v-.15c0-.1,0-.19,0-.29-.11-20.01-5.2-32.05-8.65-41.08-.04-.1-.08-.2-.12-.3-2.48-6.35-4.21-9.1-8.17-15.43-.76-2.29-1.6-4.87-2.69-7.78-2.37-6.32-4.41-12.2-5.34-18,0,0,0,0,0,0-.27-1.65-.46-3.29-.58-4.93-1.04-14.54-1.37-29.45-.13-38.36.1-.04.2-.04.32,0,.48,2.47,1.38,7.15,1.77,8.82,2.74,11.72,6.97,25.57,8.58,34.48.18,1.01.34,1.96.46,2.83.25,1.9,1.28,17.82,7.52,35.8.35,1.01.69,1.97,1.01,2.89,5,14.32,7.03,19.24,10.57,27.24,2.58,5.85,4.43,10.51,4.72,14.29.01.14.04.29.05.44.09,1.64-1.5,5.14-2.06,7.34-1.75,6.81,1.79,12.51-2.25,21.41-.11.23-.02.41.19.53.64.35,2.45.08,3.65-1.34,1.91-2.26,2.53-8.27,2.63-7.71,0,.03,0,.06.01.11.4,7.85,1.62,9.68,2.38,16.12.55,4.71-1,7.3.21,9.21.34.54.6.86.91.92.52.11,1.17-.54,2.61-2.18,1.59-1.83,2.6-3.52,3.63-4.88,2-2.64,3.07-5.25,3.25-10.69.13-4.12-.4-7.24-1.76-13.22-.6-2.64-1.26-4.11-2.12-11.5-.27-2.28-.27-3.6-.27-4.57,0-.55,0-1-.04-1.43-.32-3.06-1.73-4.02-2.49-9.76-1.45-10.89-2.42-18.97-3.78-30.33-.27-2.29-.56-4.71-.88-7.33-1.13-9.39-4.89-21.2-8.86-34.19-.23-.74-.45-1.48-.68-2.23-.4-1.34-1.27-11.48-1.6-16.82-.4-6.55-4.13-65.62-6.76-76.39-.11-.43-.21-.83-.32-1.19-1.32-4.42-2.6-7.03-3.86-8.51-.37-.44-.75-.78-1.11-1.04,0,0,0,0,0-.01-.19-.18-.66-.48-1.17-.75,0,0,0,0,0,0-.2-.11-.65-.37-1.12-.61-.44-.22-.92-.44-1.35-.61-.04-.02-.09-.03-.13-.05-.44-.17-.9-.34-1.37-.49-.03-.01-.07-.02-.1-.03-.15-.05-.31-.08-.46-.13l-26.19-13.42c-.33-.61-.65-1.26-.94-1.97-1.11-2.7-1.56-10.21-1.75-15.34,2.54-2.35,4.51-5.38,5.74-10.41.22-.9.48-1.97.74-3.12.35.12.66.16.95.14,2.01-.18,2.62-3.59,3.07-4.68.07-.17.14-.32.22-.46.34-.62.73-1.02,1.14-1.91.23-.51.47-1.17.71-2.13.51-2.01-.36-3.32-.01-4.61.24-.87.36-3.32-.75-4.16-.12-.09-.26-.14-.42-.19,1.65-6.26,2.7-16.5-.74-24.34-1.48-3.39-3.32-6.12-5.25-8.29-4.57-5.58-12.1-9.22-20.63-9.22h0c-1.01,0-2,.05-2.98.15-.06,0-.13.01-.19.02-.27.03-.53.07-.8.1-.23.03-.46.06-.69.1-.07.01-.13.02-.19.03-4.85.82-9.2,2.83-12.62,5.67-1.16.96-2.22,2.01-3.15,3.15-1.93,2.17-3.77,4.9-5.25,8.29-3.44,7.84-2.38,18.08-.74,24.35-.12.03-.24.08-.34.14-.05.03-.1.06-.14.1-1.04.88-.92,3.25-.69,4.1.36,1.29-.51,2.61,0,4.61.76,3.01,1.51,3.14,2.07,4.5.46,1.1,1.07,4.56,3.12,4.68.27.02.57-.03.9-.14.26,1.15.52,2.22.74,3.12,1.23,5.03,3.2,8.06,5.74,10.41-.18,5.13-.64,12.64-1.75,15.34-.29.7-.6,1.35-.93,1.96l-26.13,13.39c-.07.02-.15.04-.22.06-.21.06-.41.13-.62.2-.27.09-.53.18-.79.28-.19.07-.38.14-.57.22-.64.27-1.56.79-1.74.87-.03.01-.05.03-.08.04-.77.37-1.85,1.09-2.18,1.53,0,0,0,0,0,0-1.41,1.21-2.86,3.67-4.35,8.45-.21.67-.43,1.48-.64,2.42-2.67,11.84-6.24,69.32-6.64,75.77-.33,5.34-1.18,15.48-1.59,16.82-.23.74-.45,1.48-.68,2.22-4,12.98-7.73,24.8-8.86,34.19-.31,2.62-.6,5.04-.88,7.33-1.36,11.36-2.32,19.45-3.78,30.34-.76,5.74-2.14,6.7-2.48,9.76-.05.43-.05.87-.05,1.43,0,.97-.01,2.29-.27,4.56-.87,7.4-1.53,8.87-2.13,11.5-1.36,5.98-1.89,9.11-1.76,13.22.18,5.45,1.25,8.06,3.24,10.7Z"/>
  </g>
</svg>