<?xml version="1.0" encoding="UTF-8"?>
<svg id="_레이어_2" data-name="레이어 2" xmlns="http://www.w3.org/2000/svg" viewBox="0 0 169.72 571.92">
  <defs>
    <style>
      .cls-1 {
        fill: #f2a7a9;
        stroke: #221714;
        stroke-miterlimit: 10;
      }
    </style>
  </defs>
  <g id="_레이어_1-2" data-name="레이어 1">
    <path class="cls-1" d="m165.73,304.28c-.13-.93-.27-1.98-.41-3.21-.21-1.8-.26-3-.27-3.9,0-.24,0-.46,0-.67,0-.41,0-.74-.03-1.07,0-.12,0-.24-.02-.36-.12-1.13-.39-1.97-.72-2.87-.38-1.04-.83-2.17-1.24-3.91-.19-.84-.38-1.8-.53-2.98-.67-5.05-1.24-9.49-1.79-13.94-.64-5.15-1.25-10.3-1.98-16.4-.07-.56-.14-1.13-.21-1.71-.14-1.2-.29-2.43-.45-3.71-.07-.62-.15-1.26-.23-1.91-1.13-9.39-4.9-21.2-8.86-34.19-.14-.46-.28-.91-.42-1.37-.09-.28-.17-.57-.26-.85-.09-.28-.19-.95-.31-1.87-.43-3.49-1.03-10.72-1.29-14.95-.41-6.67-4.26-67.76-6.9-76.98-1.97-6.87-3.88-9.63-5.71-10.54h0s-.36-.23-.84-.49c-.49-.28-1.09-.61-1.55-.82-.27-.12-.55-.22-.84-.33l-28.35-14.53c-.24-.48-.48-.97-.69-1.5-1.11-2.7-1.56-10.21-1.75-15.34,2.54-2.35,4.51-5.38,5.74-10.41.22-.9.48-1.97.74-3.12.35.12.66.16.94.14,2.01-.17,2.62-3.59,3.08-4.68.57-1.36,1.32-1.49,2.07-4.5.51-2-.36-3.32,0-4.61.24-.87.36-3.32-.75-4.16-.06-.05-.13-.08-.21-.11-.07-.03-.14-.05-.21-.08,1.65-6.27,2.7-16.51-.74-24.34-1.48-3.39-3.32-6.12-5.25-8.29-1-1.22-2.15-2.34-3.42-3.36-3.36-2.71-7.58-4.64-12.28-5.44-.08-.01-.17-.03-.25-.05-.22-.03-.44-.06-.66-.09-.29-.04-.58-.09-.88-.12-.04,0-.09,0-.13-.01-.99-.1-1.99-.16-3.01-.16h0c-8.53,0-16.06,3.64-20.63,9.22-1.93,2.16-3.77,4.9-5.25,8.29-3.44,7.84-2.38,18.08-.74,24.34-.16.05-.3.1-.42.19-1.11.84-.99,3.29-.75,4.16.35,1.29-.52,2.6-.01,4.61.75,3,1.51,3.13,2.07,4.5.46,1.09,1.06,4.5,3.07,4.68.29.03.6-.01.95-.14.26,1.14.52,2.22.74,3.12,1.23,5.03,3.2,8.06,5.74,10.41-.18,5.13-.64,12.64-1.75,15.34-.22.53-.45,1.02-.69,1.5l-28.35,14.53c-.28.11-.57.21-.84.33-.46.21-1.06.54-1.55.82-.47.27-.84.48-.84.48h0c-1.83.92-3.74,3.68-5.71,10.55-2.64,9.22-6.49,70.31-6.9,76.98-.26,4.23-.85,11.46-1.29,14.95-.11.92-.22,1.59-.31,1.87-.08.29-.17.57-.26.85-.14.46-.28.91-.42,1.37-3.96,12.99-7.73,24.8-8.86,34.19-.08.65-.15,1.28-.23,1.91-.16,1.28-.3,2.51-.45,3.71-.07.58-.14,1.15-.21,1.71-1.36,11.36-2.32,19.45-3.78,30.34-.23,1.77-.53,3.08-.83,4.15,0,.01,0,.03-.01.05-.01.05-.03.1-.04.15-.67,2.26-1.37,3.37-1.6,5.42-.01.12-.01.24-.02.37-.02.32-.03.66-.03,1.06,0,.64,0,1.44-.08,2.56-.04.58-.1,1.23-.19,2.01-.14,1.23-.28,2.27-.41,3.21-.67,4.69-1.21,6.09-1.71,8.28-1.36,5.98-1.89,9.11-1.76,13.22.06,1.7.2,3.13.43,4.37,0,.05.02.1.03.15.51,2.63,1.44,4.4,2.78,6.18.8,1.06,1.6,2.33,2.67,3.7.3.39.61.78.96,1.18,1.86,2.13,2.41,2.59,3.05,1.89.14-.16.29-.37.46-.63.2-.32.32-.67.39-1.04.34-1.81-.63-4.26-.18-8.17.56-4.83,1.39-7.06,1.93-11.17.19-1.39.34-3,.44-5,0-.07,0-.11.02-.13.13-.15.77,5.58,2.63,7.78,1.29,1.53,3.3,1.73,3.77,1.24.11-.11.14-.26.06-.44-4.04-8.9-.5-14.6-2.25-21.41-.45-1.73-1.49-4.24-1.89-6.04-.11-.49-.18-.94-.16-1.3,0-.07.01-.15.02-.22,0-.07.01-.15.02-.22.29-3.78,2.14-8.44,4.72-14.29,1.33-3,2.44-5.56,3.58-8.35-1.52,6.17-2.63,13.46-2.74,22.33,0,.1-.01.19-.01.29-.04,4.28.15,8.91.65,13.96,1.24,12.52,10.39,39.26,13.81,52.03,7.6,28.39,11.9,45.42,12.46,55.42.72,12.93-.94,16.97-2.43,24.8-2.89,15.21-.78,28.36,2.65,40.42,6.34,22.28,12.99,32.19,13.66,43.88.17,2.92-1.91,4.14-.76,7.83.59,1.93,1.6,3.77.07,8.05-5.17,14.48-11.89,18.27-11.1,23.56.88,5.86,19.55,5.5,26.85,4.18,6.01-1.09,5.93-10.06,4.2-20.34-.35-2.08-.53-4.4-.39-7.96.06-1.76.51-3.81.75-6.28.22-2.28-.41-4.69-.75-6.6-.26-1.44-.53-2.6-.57-3.21-1.62-22.38-1.12-27.75,1.55-48.79,2.7-21.27-1.08-25.08-.61-38.08.29-7.71,2.5-15.58,3.09-23.93.75-10.46-.28-20.35-1.33-27.79-2.89-20.57-2.88-23.89-3.81-40.15-1.02-17.66,4.34-26.32,1.28-41.55.71.27,2.45.37,4.17.38,1.72.01,3.46-.11,4.17-.38-3.06,15.23,2.3,23.89,1.29,41.55-.94,16.26-.92,19.58-3.82,40.15-1.05,7.44-2.08,17.33-1.33,27.79.59,8.35,2.81,16.22,3.09,23.93.47,13-3.31,16.81-.61,38.08,2.67,21.04,3.17,26.41,1.56,48.79-.05.61-.31,1.77-.57,3.21-.34,1.91-.98,4.32-.76,6.6.24,2.47.69,4.52.76,6.28.13,3.56-.05,5.88-.4,7.96-1.73,10.28-1.81,19.25,4.2,20.34,7.31,1.32,25.97,1.68,26.85-4.18.79-5.29-5.93-9.08-11.1-23.56-1.53-4.28-.52-6.12.07-8.05,1.15-3.69-.93-4.91-.76-7.83.67-11.69,7.32-21.6,13.66-43.88,3.43-12.06,5.54-25.21,2.65-40.42-1.48-7.83-3.15-11.87-2.43-24.8.56-10,4.86-27.03,12.46-55.42,3.42-12.77,12.58-39.51,13.81-52.03.5-5.05.69-9.68.66-13.96,0-.1,0-.19,0-.29-.12-9.9-1.5-17.83-3.29-24.43.48,1.22.95,2.37,1.42,3.51.94,2.27,1.89,4.46,2.99,6.95.88,1.98,1.66,3.81,2.34,5.53,1.31,3.36,2.2,6.25,2.39,8.75,0,.07.02.15.03.22,0,.07.02.15.02.22.01.28-.03.62-.1.98-.34,1.81-1.49,4.53-1.96,6.36-1.75,6.81,1.79,12.51-2.25,21.41-.08.18-.05.33.06.44.47.49,2.48.29,3.77-1.24,1.86-2.2,2.5-7.93,2.63-7.78,0,.02.01.06.02.13.1,2,.26,3.6.44,5,.55,4.11,1.37,6.35,1.93,11.17.46,3.91-.52,6.36-.18,8.17.07.37.19.72.39,1.04.2.32.38.56.55.71.61.57,1.19.06,2.97-1.97.35-.41.67-.8.97-1.19.76-.98,1.39-1.9,1.98-2.74.23-.33.46-.65.69-.95,1.49-1.98,2.47-3.94,2.94-7.1.16-1.05.26-2.24.3-3.6.13-4.11-.4-7.24-1.76-13.22-.5-2.19-1.04-3.59-1.71-8.28Zm-120.73-90.82c-.86,6.67-1.69,13.3-2.38,19.26-5.92,9.14-7.12,11.16-9.9,17.28,1.47-4.47,2.62-8.78,3.52-12.75,2.55-11.2,3.13-19.62,3.31-20.98.09-.68.21-1.44.35-2.22.04-.2.07-.4.11-.61,1.63-8.91,5.84-22.76,8.58-34.48.29-1.24.86-4.1,1.33-6.55.06-.29.11-.58.17-.86.16-.85.31-1.61.42-2.17.13.51.24,1.04.36,1.54-.78,5.41-3.46,24.09-5.86,42.53Zm82.17,19.81c-.7-6.1-1.55-12.93-2.44-19.81-2.4-18.44-5.08-37.12-5.86-42.53.12-.51.23-1.03.36-1.54.11.57.25,1.32.42,2.17.05.28.11.57.17.86.48,2.44,1.04,5.31,1.33,6.55,2.74,11.72,6.95,25.57,8.58,34.48.12.7.23,1.35.33,1.98.04.29.09.58.12.85.18,1.36.75,9.78,3.3,20.98,1.04,4.57,2.41,9.61,4.22,14.82.07.2.13.39.2.58-3.67-8.22-4.37-9.56-10.74-19.39Z"/>
  </g>
</svg>