<?xml version="1.0" encoding="UTF-8"?>
<svg id="_레이어_2" data-name="레이어 2" xmlns="http://www.w3.org/2000/svg" viewBox="0 0 170.53 572.07">
  <defs>
    <style>
      .cls-1 {
        fill: #f2a7a9;
        stroke: #221714;
        stroke-miterlimit: 10;
      }
    </style>
  </defs>
  <g id="_레이어_1-2" data-name="레이어 1">
    <path class="cls-1" d="m166.13,301.07c-.27-2.28-.27-3.6-.28-4.57,0-.55,0-.99-.04-1.43-.33-3.05-1.73-4.01-2.49-9.76-1.45-10.89-2.42-18.97-3.78-30.33-.27-2.3-.56-4.72-.88-7.33-1.13-9.39-4.89-21.2-8.86-34.19-.22-.74-.45-1.48-.67-2.23-.41-1.34-1.27-11.48-1.6-16.82-.41-6.67-4.26-67.76-6.9-76.97-1.97-6.88-3.87-9.63-5.71-10.54v-.02s-1.48-.89-2.38-1.3c-.8-.36-1.67-.67-2.58-.94l-26.42-13.54c-.32-.59-.62-1.21-.9-1.88-1.11-2.7-1.56-10.21-1.75-15.34,2.54-2.35,4.51-5.38,5.74-10.41.21-.86.46-1.9.71-2.99.14,0,.27-.01.39-.04,2.48.5,3.16-3.45,3.66-4.63.56-1.37,1.32-1.5,2.07-4.5.51-2.01-.36-3.32-.01-4.61.24-.87.36-3.32-.75-4.16-.12-.09-.26-.14-.42-.19,1.65-6.26,2.7-16.5-.74-24.34-1.48-3.39-3.32-6.13-5.25-8.29-4.57-5.58-12.1-9.22-20.63-9.22-.14,0-.27,0-.41.01-.14,0-.27-.01-.41-.01-8.53,0-16.06,3.65-20.63,9.22-1.93,2.17-3.77,4.9-5.25,8.29-3.44,7.84-2.38,18.08-.74,24.35-.15.04-.3.09-.42.18-1.11.84-.99,3.29-.75,4.16.36,1.29-.52,2.61-.01,4.61.75,3.01,1.51,3.14,2.07,4.5.5,1.18,1.18,5.13,3.66,4.63.12.03.25.04.39.04.25,1.1.5,2.12.71,2.99,1.23,5.03,3.2,8.06,5.74,10.41-.18,5.13-.64,12.64-1.75,15.34-.28.67-.58,1.29-.89,1.88l-26.44,13.55c-.9.27-1.76.57-2.55.93-.9.41-2.39,1.3-2.39,1.3h0c-1.83.92-3.74,3.68-5.71,10.55-2.64,9.22-6.49,70.31-6.9,76.98-.33,5.34-1.19,15.48-1.59,16.82-.23.74-.45,1.48-.68,2.22-3.96,12.99-7.73,24.8-8.86,34.19-.31,2.62-.6,5.04-.88,7.33-1.36,11.36-2.32,19.45-3.78,30.34-.76,5.74-2.15,6.7-2.48,9.76-.05.43-.05.87-.05,1.43,0,.97-.01,2.29-.27,4.56-.87,7.4-1.53,8.87-2.13,11.5-1.36,5.98-1.89,9.11-1.76,13.22.18,5.45,1.25,8.06,3.24,10.7,1.03,1.36,2.04,3.05,3.64,4.88,1.68,1.92,2.29,2.49,2.87,2.05.6.35.93.03,1.45-.79,1.21-1.9-.33-4.5.22-9.21.66-5.67,1.69-7.76,2.19-13.54.41,1.74,1.04,3.85,2.02,5.01,1.03,1.22,2.51,1.59,3.31,1.44.9.14,1.56-.13,1.33-.63-2.26-4.98-2.15-8.95-1.92-12.68,2.13,13.28,10.87,37.61,14.26,49.61,8.02,28.39,12.56,45.42,13.15,55.42.77,12.93-.99,16.97-2.56,24.8-3.05,15.21-.82,28.36,2.8,40.42,6.69,22.28,13.71,32.19,14.43,43.88.17,2.92-2.02,4.14-.81,7.83.63,1.93,1.69,3.77.08,8.05-5.46,14.48-12.57,18.27-11.73,23.56.93,5.86,20.64,5.5,28.36,4.18,6.35-1.09,6.26-10.06,4.43-20.34-.37-2.08-.56-4.4-.42-7.96.08-1.76.55-3.81.8-6.28.23-2.28-.43-4.69-.8-6.6-.27-1.44-.55-2.6-.6-3.21-1.7-22.38-1.17-27.75,1.65-48.79,2.85-21.27-1.15-25.08-.65-38.08.3-7.71,2.64-15.58,3.27-23.93.79-10.46-.3-20.35-1.41-27.79-3.06-20.57-3.04-23.89-4.03-40.15-1.07-17.66,4.59-26.32,1.36-41.55.75.27,2.58.37,4.4.38,1.82.01,3.65-.11,4.4-.38-3.23,15.23,2.43,23.89,1.36,41.55-.99,16.26-.97,19.58-4.03,40.15-1.11,7.44-2.19,17.33-1.4,27.79.62,8.35,2.96,16.22,3.26,23.93.5,13-3.5,16.81-.64,38.08,2.82,21.04,3.35,26.41,1.64,48.79-.05.61-.33,1.77-.6,3.21-.36,1.91-1.03,4.32-.8,6.6.25,2.47.73,4.52.8,6.28.14,3.56-.05,5.88-.42,7.96-1.83,10.28-1.91,19.25,4.44,20.34,7.71,1.32,27.42,1.68,28.35-4.18.84-5.29-6.26-9.08-11.72-23.56-1.62-4.28-.55-6.12.08-8.05,1.21-3.69-.99-4.91-.81-7.83.71-11.69,7.73-21.6,14.43-43.88,3.62-12.06,5.84-25.21,2.8-40.42-1.57-7.83-3.33-11.87-2.57-24.8.59-10,5.13-27.03,13.16-55.42,3.61-12.77,13.28-39.51,14.59-52.03.52-5.05.72-9.68.68-13.96v-.29c-.04-3.34-.25-6.44-.56-9.36,1.49,3.69,2.49,6.83,2.7,9.52.01.14.04.29.05.44.07,1.64-1.5,5.14-2.06,7.34-1.75,6.81,1.79,12.51-2.25,21.41-.23.49.41.76,1.29.63.79.17,2.31-.19,3.36-1.43.97-1.15,1.6-3.25,2.01-4.99.51,5.75,1.53,7.84,2.2,13.51.55,4.71-.99,7.3.21,9.21.53.83.85,1.14,1.45.79.58.44,1.19-.11,2.88-2.05,1.59-1.83,2.6-3.52,3.63-4.88,1.99-2.64,3.07-5.25,3.24-10.69.14-4.12-.4-7.24-1.76-13.22-.6-2.64-1.26-4.11-2.12-11.5Zm-148.17,1.33c-.67-1.98-1.53-4.23-1.47-5.46,0-.14.03-.3.04-.44.15-1.97.74-4.2,1.63-6.7-.16,2.09-.27,4.26-.3,6.54v.29c-.02,1.85.02,3.78.1,5.77Zm27.85-88.94c-.69,5.36-1.36,10.7-1.96,15.68-.81.98-1.59,1.98-2.32,2.98-1.97,2.72-3.55,4.92-4.87,6.81,2.89-12.03,3.51-21.23,3.7-22.65.11-.86.27-1.82.45-2.82,1.63-8.92,5.85-22.77,8.58-34.49.33-1.44,1.05-5.06,1.55-7.67.14.6.28,1.2.42,1.8-1.04,7.22-3.4,23.88-5.55,40.36Zm82.37,18.66c-.13-.18-.26-.35-.39-.53-.66-5.67-1.43-11.88-2.24-18.13-1.02-7.88-2.1-15.79-3.06-22.7-.96-6.91-1.8-12.81-2.35-16.65.39,1.96.78,3.9,1,4.86,1.37,5.86,3.11,12.25,4.71,18.29,1.6,6.04,3.06,11.73,3.87,16.19.18,1.01.34,1.96.46,2.83.19,1.49.87,11.56,4.14,24.49-1.55-2.28-3.5-5-6.14-8.65Z"/>
  </g>
</svg>