<?xml version="1.0" encoding="UTF-8"?>
<svg id="_레이어_2" data-name="레이어 2" xmlns="http://www.w3.org/2000/svg" viewBox="0 0 169.9 571.62">
  <defs>
    <style>
      .cls-1 {
        fill: #f2a7a9;
        stroke: #221714;
        stroke-miterlimit: 10;
      }
    </style>
  </defs>
  <g id="_레이어_1-2" data-name="레이어 1">
    <path class="cls-1" d="m3.76,336.48c1.03,1.36,2.04,3.05,3.64,4.88,2.11,2.42,2.5,2.66,3.34,1.46.4-.32.58-.84.71-1.55.33-1.77-.57-4.14-.14-7.86.74-6.28,1.91-8.16,2.34-15.55.15-.46.75,4.95,2.5,7.02,1.44,1.71,3.81,1.71,3.69.97.03-.39.02-.88-.19-1.42-3.2-8.19-.07-13.67-1.73-20.15-.57-2.2-2.13-5.7-2.06-7.34,0-.15.03-.3.05-.44.29-3.78,2.14-8.44,4.72-14.29,3.54-8,5.56-12.92,10.57-27.24.32-.92.66-1.88,1.01-2.89,6.24-17.98,7.28-33.9,7.52-35.8.11-.87.27-1.82.46-2.83,1.63-8.91,5.84-22.76,8.58-34.48.41-1.76,1.38-6.79,1.84-9.16.14.57.28,1.15.42,1.75,2.06,11.35,3.92,28.5.06,41.89,0,0,0,0-.01,0-2.02,5.95-3.56,11.98-6.35,19.09-.47,1.2-.89,2.36-1.3,3.47-4.97,11.01-6.17,17.08-6.17,17.08-.15.47-.32.95-.49,1.43-.02.05-.03.1-.05.14-.03.1-.07.2-.1.3-3.15,9.06-7.98,21.02-8.08,40.93,0,.1-.01.19-.01.29v.3c-.02,4.2.15,8.73.58,13.67,1.1,12.52,9.23,39.26,12.26,52.03,6.75,28.38,10.57,45.41,11.06,55.42.65,12.92-.83,16.97-2.15,24.79-2.56,15.21-.69,28.37,2.35,40.42,5.63,22.28,11.53,32.19,12.13,43.89.15,2.91-1.69,4.13-.68,7.83.53,1.92,1.43,3.76.07,8.04-4.59,14.48-10.56,18.28-9.86,23.57.79,5.86,17.35,5.49,23.84,4.17,5.34-1.09,5.27-10.06,3.73-20.34-.31-2.07-.47-4.4-.35-7.96.06-1.75.46-3.8.67-6.28.19-2.28-.37-4.69-.67-6.59-.23-1.45-.47-2.61-.51-3.21-1.43-22.39-.99-27.76,1.39-48.8,2.39-21.26-.97-25.08-.55-38.08.25-7.7,2.22-15.58,2.75-23.92.66-10.47-.25-20.35-1.18-27.79-2.58-20.57-2.56-23.89-3.39-40.16-.9-17.66,3.85-26.31,1.14-41.54.63.26,2.17.35,3.7.37,1.53.02,3.07-.11,3.7-.37-2.71,15.23,2.04,23.88,1.14,41.54-.83,16.27-.81,19.59-3.39,40.16-.93,7.44-1.84,17.32-1.18,27.79.53,8.34,2.5,16.22,2.75,23.92.42,13-2.94,16.82-.55,38.08,2.37,21.04,2.82,26.41,1.39,48.8-.04.6-.28,1.76-.51,3.21-.3,1.9-.86,4.31-.67,6.59.21,2.48.61,4.53.67,6.28.12,3.56-.04,5.89-.35,7.96-1.54,10.28-1.61,19.25,3.73,20.34,6.48,1.32,23.05,1.69,23.84-4.17.7-5.29-5.27-9.09-9.86-23.57-1.36-4.28-.46-6.12.07-8.04,1.01-3.7-.83-4.92-.68-7.83.6-11.7,6.5-21.61,12.13-43.89,3.04-12.05,4.91-25.21,2.35-40.42-1.32-7.82-2.8-11.87-2.16-24.79.5-10.01,4.32-27.04,11.07-55.42,3.03-12.77,11.16-39.51,12.26-52.03.43-4.94.6-9.47.58-13.67v-.3c0-.1,0-.19-.01-.29-.1-19.91-4.94-31.87-8.08-40.93h-.01c-.04-.1-.07-.2-.11-.3-.02-.04-.03-.09-.05-.14-.16-.48-.33-.96-.48-1.43,0,0-.37-1.87-1.54-5.41-.52-1.57-1.21-3.47-2.08-5.69-.9-2.84-2.02-6.15-3.5-9.84-2.8-7.01-4.61-13.19-6.31-18.71,0,0,0,0,0,0-4.02-13.77-1.76-31.64.38-43.13.31,1.59.79,4.06,1.18,5.97.29,1.4.57,2.7.77,3.56,2.54,10.72,6.22,23.05,7.99,31.71.19.92.35,1.79.49,2.62.15.85.29,1.8.41,2.81.33,2.83,1.52,18.04,7.45,35.12.35,1.01.69,1.97,1.01,2.89,5.01,14.32,7.03,19.24,10.57,27.24,2.58,5.85,4.43,10.51,4.72,14.29.02.14.04.29.05.44.09,1.64-1.49,5.14-2.06,7.34-1.75,6.81,1.79,12.51-2.25,21.41-.23.49.4.76,1.27.64.79-.04,1.92-.46,2.75-1.44,1.04-1.23,1.7-3.57,2.1-5.36.29-.99.42-1.65.47-1.04.38,5.38,1.12,7.83,1.76,11.66.23,1.36.4,2.75.51,4.33.16,2.2-.13,3.89-.03,5.26.05.75.09,1.32.24,1.68.1.6.29,1.02.75,1.25.49.55.86.68,1.45.22.51-.39,1.1-1.07,1.92-2.05.83-.98,1.49-1.93,2.11-2.78.52-.73.99-1.42,1.44-2.07,1.58-2.24,2.52-4.56,2.82-8.66.05-.64.08-1.3.09-2.01.07-3.66-.4-6.63-1.54-11.73-.1-.43-.2-.87-.3-1.32-.56-2.41-1.18-4.01-1.98-10.58-.03-.26-.06-.53-.09-.8-.21-1.85-.24-3.04-.25-3.94,0-.2,0-.39,0-.57,0-.34,0-.63-.02-.91,0-.17-.02-.33-.04-.49-.36-2.97-1.72-3.98-2.47-9.65-1.46-10.89-2.42-18.98-3.78-30.34-.28-2.29-.57-4.71-.88-7.33-1.13-9.39-4.9-21.2-8.86-34.19-.23-.74-.45-1.48-.68-2.22-.41-1.34-1.26-11.48-1.59-16.82-.41-6.67-4.26-67.76-6.9-76.98-1.97-6.87-3.88-9.63-5.71-10.54h0s-1.49-.9-2.39-1.31c-.94-.43-1.98-.78-3.07-1.08l-25.84-13.24c-.34-.63-.67-1.31-.97-2.03-1.11-2.7-1.57-10.21-1.75-15.34,2.54-2.35,4.51-5.38,5.74-10.41.22-.89.47-1.95.73-3.09.14.04.27.06.4.07,2.45.46,3.14-3.46,3.62-4.65.56-1.36,1.31-1.49,2.07-4.5.5-2-.37-3.32-.01-4.61.24-.87.36-3.32-.75-4.16-.12-.09-.27-.14-.42-.18,1.64-6.27,2.7-16.51-.74-24.35-1.48-3.39-3.32-6.12-5.25-8.29-4.57-5.57-12.1-9.22-20.63-9.22-.12,0-.23,0-.34,0-.16,0-.31,0-.47,0-8.27.17-15.55,3.78-20.01,9.21-1.93,2.17-3.77,4.9-5.25,8.29-3.44,7.84-2.38,18.08-.74,24.35-.15.04-.3.09-.42.18-1.11.84-.99,3.29-.75,4.16.36,1.29-.52,2.61-.01,4.61.76,3.01,1.51,3.14,2.07,4.5.51,1.23,1.22,5.41,3.92,4.56.06.12.12.24.18.35.23,1.01.46,1.95.66,2.75,1.23,5.03,3.2,8.06,5.74,10.41-.18,5.13-.64,12.64-1.75,15.34-.3.73-.62,1.4-.97,2.03l-25.87,13.26c-1.08.31-2.1.65-3.04,1.08-.9.41-2.39,1.3-2.39,1.3h0c-1.83.92-3.74,3.68-5.71,10.55-2.64,9.22-6.49,70.31-6.9,76.98-.33,5.34-1.18,15.48-1.59,16.82-.23.74-.45,1.48-.68,2.22-4,12.98-7.73,24.8-8.86,34.19-.31,2.62-.6,5.04-.88,7.33-1.36,11.36-2.32,19.45-3.78,30.34-.76,5.74-2.14,6.7-2.48,9.76-.05.43-.05.87-.05,1.43,0,.97,0,2.29-.27,4.56-.87,7.4-1.53,8.87-2.13,11.5-1.36,5.98-1.89,9.11-1.76,13.22.18,5.45,1.25,8.06,3.24,10.7Z"/>
  </g>
</svg>