<?xml version="1.0" encoding="UTF-8"?>
<svg id="_레이어_2" data-name="레이어 2" xmlns="http://www.w3.org/2000/svg" viewBox="0 0 170.09 571.62">
  <defs>
    <style>
      .cls-1 {
        fill: #f2a7a9;
        stroke: #221714;
        stroke-miterlimit: 10;
      }
    </style>
  </defs>
  <g id="_레이어_1-2" data-name="레이어 1">
    <path class="cls-1" d="m3.76,336.48c1.03,1.36,2.04,3.05,3.64,4.88,1.96,2.24,2.42,2.59,3.18,1.67.46-.1.69-.56.95-1.3.63-1.81-.49-4.26-.02-8.31.71-6.09,1.84-8.04,2.29-14.93.23.28.85,4.62,2.35,6.4,1.3,1.54,3.37,1.67,3.56,1.13.32-.22.53-.63.31-1.16-3.46-8.43-.21-13.98-1.91-20.57-.56-2.2-2.13-5.7-2.05-7.34,0-.15.03-.3.04-.44.29-3.77,2.14-8.44,4.72-14.28,3.54-8.01,5.57-12.93,10.57-27.24.32-.92.66-1.88,1.01-2.9,6.25-17.98,7.28-33.9,7.53-35.8.11-.87.27-1.82.45-2.83,1.63-8.92,5.85-22.76,8.58-34.48.39-1.66,1.28-6.27,1.75-8.72.14.57.28,1.15.42,1.74,1.03,9.94,1.48,26.98-1.82,41.46,0,0,0,0,0,0-1.65,6.29-3,12.61-5.06,19.42-.37,1.22-.69,2.41-1,3.55-4.82,10.75-5.98,16.67-5.98,16.67-.15.47-.32.95-.49,1.43-.02.05-.03.1-.05.14-.03.1-.07.2-.1.3-3.15,9.06-7.98,21.02-8.08,40.93,0,.1,0,.19,0,.29v.3c-.02,4.2.15,8.73.58,13.67,1.1,12.52,9.23,39.26,12.26,52.03,6.75,28.38,10.57,45.41,11.06,55.42.65,12.92-.83,16.97-2.15,24.79-2.56,15.21-.69,28.37,2.35,40.42,5.63,22.28,11.53,32.19,12.13,43.89.15,2.91-1.69,4.13-.68,7.83.53,1.92,1.43,3.76.07,8.04-4.59,14.48-10.56,18.28-9.86,23.57.79,5.86,17.35,5.49,23.84,4.17,5.34-1.09,5.27-10.06,3.73-20.34-.31-2.07-.47-4.4-.35-7.96.06-1.75.46-3.8.67-6.28.19-2.28-.37-4.69-.67-6.59-.23-1.45-.47-2.61-.51-3.21-1.43-22.39-.99-27.76,1.39-48.8,2.39-21.26-.97-25.08-.55-38.08.25-7.7,2.22-15.58,2.75-23.92.66-10.47-.25-20.35-1.18-27.79-2.58-20.57-2.56-23.89-3.39-40.16-.9-17.66,3.85-26.31,1.14-41.54.63.26,2.17.35,3.7.37,1.53.02,3.07-.11,3.7-.37-2.71,15.23,2.04,23.88,1.14,41.54-.83,16.27-.81,19.59-3.39,40.16-.93,7.44-1.84,17.32-1.18,27.79.53,8.34,2.5,16.22,2.75,23.92.42,13-2.94,16.82-.55,38.08,2.37,21.04,2.82,26.41,1.39,48.8-.04.6-.28,1.76-.51,3.21-.3,1.9-.86,4.31-.67,6.59.21,2.48.61,4.53.67,6.28.12,3.56-.04,5.89-.35,7.96-1.54,10.28-1.61,19.25,3.73,20.34,6.48,1.32,23.05,1.69,23.84-4.17.7-5.29-5.27-9.09-9.86-23.57-1.36-4.28-.46-6.12.07-8.04,1.01-3.7-.83-4.92-.68-7.83.6-11.7,6.5-21.61,12.13-43.89,3.04-12.05,4.91-25.21,2.35-40.42-1.32-7.82-2.8-11.87-2.16-24.79.5-10.01,4.32-27.04,11.07-55.42,3.03-12.77,11.16-39.51,12.26-52.03.43-4.94.6-9.47.58-13.67v-.3c0-.1,0-.19-.01-.29-.1-19.91-4.94-31.87-8.08-40.93h-.01c-.04-.1-.07-.2-.11-.3-.02-.04-.03-.09-.05-.14-.16-.48-.33-.96-.48-1.43,0,0-.37-1.87-1.54-5.41-.52-1.56-1.2-3.45-2.06-5.64-.7-2.91-1.55-6.26-2.7-9.94-2.05-6.61-3.56-12.84-4.97-18.65,0,0,0,0,0,0-3.39-14.66-2.67-32.13-1.6-42.2.35,1.81.84,4.28,1.18,5.93.28,1.31.56,2.57.79,3.53,2.59,10.78,6.24,23.02,7.91,31.48.19.95.35,1.85.48,2.69.11.7.24,1.64.37,2.78.42,3.77,1.77,18.25,7.38,34.43.35,1.01.69,1.97,1.01,2.89,5.01,14.32,7.03,19.24,10.57,27.24,2.58,5.85,4.43,10.51,4.72,14.29.02.14.04.29.05.44.09,1.64-1.49,5.14-2.06,7.34-1.75,6.81,1.79,12.51-2.25,21.41-.22.49.4.76,1.27.64.79.03,2.05-.38,2.95-1.44,1.03-1.21,1.68-3.51,2.08-5.29.22-.36.34-.53.4.13.45,4.96,1.2,7.34,1.82,11.51.22,1.45.32,2.84.35,4.3.05,2.2-.29,3.85.04,5.17.2.78.34,1.26.63,1.39.2.5.46.72,1.02.61.44.25.83.19,1.4-.32.56-.5,1.13-1.2,1.85-2.08.8-.99,1.44-1.92,2.05-2.76.51-.71.97-1.39,1.4-2.05,1.43-2.2,2.27-4.57,2.52-8.67.04-.65.06-1.3.07-1.98.03-3.53-.48-6.52-1.62-11.59-.1-.43-.2-.86-.3-1.3-.55-2.29-1.15-4.04-1.92-10.47-.03-.27-.06-.53-.09-.8-.2-1.83-.22-3.01-.23-3.89,0-.21,0-.4,0-.57,0-.32,0-.61-.02-.89-.01-.17-.03-.32-.05-.48-.38-2.88-1.72-3.93-2.46-9.53-1.46-10.89-2.42-18.97-3.78-30.33-.27-2.29-.56-4.71-.88-7.33-1.13-9.39-4.9-21.2-8.86-34.19-.23-.74-.45-1.48-.67-2.23-.41-1.34-1.27-11.48-1.6-16.82-.41-6.67-4.26-67.76-6.9-76.98-1.97-6.88-3.88-9.63-5.71-10.54v-.02s-1.48-.89-2.39-1.3c-1-.46-2.11-.82-3.28-1.14l-25.6-13.12c-.36-.65-.7-1.35-1.01-2.1-1.11-2.7-1.56-10.21-1.75-15.34,2.54-2.35,4.51-5.38,5.74-10.41.22-.88.47-1.94.73-3.06.14.03.27.04.4.04,2.46.46,3.14-3.46,3.63-4.64.57-1.36,1.31-1.5,2.07-4.5.51-2.01-.36-3.32-.01-4.61.24-.87.36-3.32-.75-4.16-.12-.09-.26-.14-.42-.18,1.65-6.27,2.7-16.51-.74-24.35-1.48-3.39-3.32-6.12-5.25-8.29-4.57-5.57-12.1-9.22-20.63-9.22-.11,0-.22,0-.34,0-.15,0-.3,0-.46,0-8.36.11-15.72,3.73-20.22,9.21-1.93,2.17-3.77,4.9-5.25,8.29-3.44,7.84-2.38,18.08-.74,24.35-.15.04-.3.09-.42.18-1.11.84-.99,3.29-.75,4.16.36,1.29-.52,2.61-.01,4.61.76,3.01,1.51,3.14,2.07,4.5.5,1.21,1.21,5.31,3.82,4.59.08.09.17.17.26.24.24,1.04.47,2.01.67,2.83,1.23,5.03,3.2,8.06,5.74,10.41-.18,5.13-.64,12.64-1.75,15.34-.31.75-.65,1.44-1,2.09l-25.64,13.14c-1.15.32-2.24.68-3.24,1.13-.9.41-2.39,1.3-2.39,1.3h0c-1.83.92-3.74,3.68-5.71,10.55-2.64,9.22-6.49,70.31-6.9,76.98-.33,5.34-1.18,15.48-1.59,16.82-.23.74-.45,1.48-.68,2.22-4,12.98-7.73,24.8-8.86,34.19-.31,2.62-.6,5.04-.88,7.33-1.36,11.36-2.32,19.45-3.78,30.34-.76,5.74-2.14,6.7-2.48,9.76-.05.43-.05.87-.05,1.43,0,.97,0,2.29-.27,4.56-.87,7.4-1.53,8.87-2.13,11.5-1.36,5.98-1.89,9.11-1.76,13.22.18,5.45,1.25,8.06,3.24,10.7Z"/>
  </g>
</svg>