<?xml version="1.0" encoding="UTF-8"?>
<svg id="_레이어_2" data-name="레이어 2" xmlns="http://www.w3.org/2000/svg" viewBox="0 0 169.72 571.77">
  <defs>
    <style>
      .cls-1 {
        fill: #f2a7a9;
        stroke: #221714;
        stroke-miterlimit: 10;
      }
    </style>
  </defs>
  <g id="_레이어_1-2" data-name="레이어 1">
    <path class="cls-1" d="m167.44,312.56c-.49-2.17-1.03-3.56-1.69-8.12-.14-.96-.28-2.04-.43-3.31-.27-2.28-.27-3.6-.28-4.57,0-.55,0-.99-.04-1.43-.04-.39-.1-.74-.18-1.08-.49-2.34-1.65-3.69-2.32-8.74-.43-3.21-.82-6.17-1.18-9.05-.12-.91-.23-1.82-.34-2.72-.74-5.89-1.42-11.62-2.25-18.57-.05-.42-.1-.85-.16-1.28-.17-1.45-.35-2.95-.54-4.52-.06-.5-.12-1.01-.18-1.53-1.13-9.39-4.9-21.2-8.86-34.19-.23-.74-.45-1.48-.68-2.22-.02-.08-.05-.19-.07-.32-.14-.71-.3-2.09-.48-3.81-.01-.12-.02-.23-.04-.36,0-.06-.01-.13-.02-.19-.37-3.75-.78-8.86-.98-12.15-.41-6.67-4.26-67.76-6.9-76.98-1.97-6.87-3.88-9.63-5.71-10.54h0s-.04-.03-.09-.07h.09l-.85-.43c-.49-.28-1.09-.6-1.55-.81-.05-.02-.12-.04-.17-.07l-29.03-14.88v.06c-.24-.47-.47-.96-.68-1.47-.48-1.17-.84-3.25-1.11-5.65-.34-3.11-.53-6.74-.64-9.63,2.54-2.35,4.51-5.38,5.74-10.41.22-.9.48-1.98.74-3.12,2.78.98,3.5-3.3,4.02-4.54.56-1.37,1.32-1.5,2.07-4.5.2-.77.19-1.44.12-2.05-.02-.17-.04-.32-.06-.48,0-.02,0-.04,0-.05-.03-.19-.06-.37-.08-.55-.07-.52-.11-1,.02-1.48.12-.44.21-1.27.13-2.1-.07-.84-.32-1.69-.88-2.12-.12-.09-.26-.14-.4-.17,1.13-4.3,1.97-10.46,1.28-16.44-.31-2.74-.95-5.45-2.03-7.92-1.48-3.39-3.32-6.12-5.25-8.29-4.57-5.57-12.1-9.22-20.63-9.22s-16.06,3.65-20.63,9.22c-1.93,2.17-3.77,4.9-5.25,8.29-2.15,4.9-2.54,10.74-2.13,15.96.24,3.13.77,6.04,1.39,8.39-.15.04-.29.09-.41.18-.84.63-.97,2.18-.89,3.28.03.38.08.72.14.94.04.16.07.32.08.48,0,.14,0,.28,0,.43,0,0,0,0,0,.01-.05.69-.25,1.42-.25,2.3,0,.09,0,.18.01.27,0,.11,0,.22.02.34.02.25.07.5.13.78.75,3,1.51,3.13,2.07,4.5.52,1.24,1.24,5.52,4.02,4.54.26,1.14.52,2.22.74,3.12,1.23,5.03,3.2,8.05,5.73,10.4-.18,5.13-.64,12.59-1.75,15.29-.21.51-.44,1-.67,1.46v-.05l-29.01,14.86c-.06.03-.13.05-.2.08-.47.22-1.1.56-1.6.84l-.79.4h.09c-.06.03-.09.05-.09.05h0c-1.83.92-3.74,3.68-5.71,10.55-2.64,9.22-6.49,70.31-6.9,76.98-.33,5.34-1.19,15.48-1.59,16.82-.23.74-.45,1.48-.68,2.22-3.96,12.99-7.73,24.8-8.86,34.19-.31,2.62-.6,5.04-.88,7.33-1.36,11.36-2.32,19.45-3.78,30.34-.76,5.74-2.15,6.7-2.48,9.76-.05.43-.05.87-.05,1.43,0,.97-.01,2.29-.27,4.56-.87,7.4-1.53,8.87-2.13,11.5-1.36,5.98-1.89,9.11-1.76,13.22.05,1.37.15,2.57.31,3.63.47,3.17,1.45,5.15,2.95,7.13,1.03,1.36,2.04,3.05,3.63,4.88,2.27,2.6,2.59,2.72,3.51,1.26,1.21-1.9-.33-4.5.22-9.21.75-6.46,1.98-8.27,2.37-16.17.06-1.19.65,5.28,2.65,7.65,1.51,1.78,3.99,1.76,3.87.94,0-.06,0-.13-.04-.2-1.26-2.78-1.78-5.24-1.96-7.53-.27-3.66.34-6.85.22-10.13-.04-1.23-.18-2.47-.51-3.75-.49-1.91-1.73-4.79-2-6.59-.03-.25-.05-.48-.04-.69,0-.14.03-.3.04-.44.29-3.77,2.14-8.44,4.72-14.28,3.54-8.01,5.57-12.93,10.57-27.24.33-.93.66-1.89,1.01-2.9,6.25-17.98,7.28-33.89,7.53-35.8.11-.86.27-1.82.45-2.82,1.63-8.92,5.85-22.77,8.58-34.49.43-1.85,1.49-7.31,1.92-9.59.13.51.24,1.04.36,1.55-.78,5.41-3.46,24.09-5.86,42.53-1.06,8.15-2.05,16.24-2.81,23.12-4.97,9.81-7.82,16.61-8.44,18.03-.07.15-.12.27-.12.29-3.35,9.08-8.44,21.06-8.65,41.08,0,.1-.01.19-.01.29v.15c-.03,4.24.15,8.82.61,13.82,1.17,12.52,9.82,39.25,13.04,52.02,7.18,28.39,11.23,45.42,11.76,55.43.68,12.92-.89,16.96-2.29,24.79-2.73,15.21-.74,28.37,2.5,40.42,5.98,22.28,12.26,32.19,12.9,43.89.15,2.91-1.81,4.13-.73,7.83.57,1.92,1.52,3.76.07,8.04-4.88,14.48-11.22,18.28-10.47,23.57.83,5.86,18.44,5.49,25.34,4.17,5.67-1.09,5.6-10.06,3.96-20.34-.33-2.08-.5-4.4-.37-7.96.06-1.75.49-3.8.71-6.28.21-2.28-.39-4.69-.71-6.59-.24-1.45-.5-2.61-.54-3.22-1.52-22.38-1.05-27.75,1.47-48.79,2.55-21.26-1.02-25.08-.57-38.08.26-7.71,2.35-15.58,2.91-23.92.71-10.47-.26-20.35-1.25-27.79-2.74-20.58-2.72-23.9-3.61-40.16-.95-17.66,4.11-26.31,1.22-41.54.67.26,2.31.36,3.93.37,1.63.02,3.27-.11,3.94-.37-2.89,15.23,2.17,23.88,1.21,41.54-.88,16.26-.87,19.58-3.6,40.16-.99,7.44-1.96,17.32-1.26,27.79.56,8.34,2.65,16.21,2.92,23.92.45,13-3.12,16.82-.58,38.08,2.53,21.04,3,26.41,1.48,48.79-.05.61-.3,1.77-.54,3.22-.32,1.9-.92,4.31-.72,6.59.23,2.48.65,4.53.72,6.28.13,3.56-.04,5.88-.37,7.96-1.64,10.28-1.72,19.25,3.96,20.34,6.89,1.32,24.51,1.69,25.34-4.17.75-5.29-5.6-9.09-10.48-23.57-1.44-4.28-.49-6.12.08-8.04,1.07-3.7-.89-4.92-.73-7.83.64-11.7,6.91-21.61,12.9-43.89,3.24-12.05,5.22-25.21,2.5-40.42-1.4-7.83-2.97-11.87-2.29-24.79.52-10.01,4.58-27.04,11.76-55.43,3.22-12.77,11.87-39.5,13.04-52.02.46-5,.64-9.58.61-13.82v-.15c0-.1,0-.19,0-.29-.21-20.02-5.3-32-8.65-41.08,0-.02-.05-.14-.12-.29-.62-1.42-3.46-8.2-8.42-17.99-.76-6.9-1.76-15-2.81-23.17-2.4-18.44-5.08-37.12-5.86-42.53.12-.51.23-1.04.36-1.55.34,1.8,1.07,5.58,1.58,8.01.01.06.03.13.04.19,0,.03.01.06.02.09.07.33.14.64.19.9.03.15.07.29.09.42,2.56,10.98,6.43,23.84,8.24,32.75.07.32.12.63.18.94.05.24.1.5.14.74.02.09.03.17.05.25.17.93.31,1.82.42,2.63.03.2.06.54.11,1.02.11,1.14.29,2.99.61,5.42.02.18.05.37.07.55.02.13.03.25.05.38.91,6.71,2.78,17.16,6.69,28.43.35,1.01.68,1.97,1,2.9,5.01,14.31,7.04,19.23,10.57,27.24,1.94,4.38,3.47,8.1,4.23,11.27.25,1.04.41,2.02.48,2.94.02.11.03.24.04.36,0,.03,0,.06,0,.1.06,1.64-1.49,5.13-2.06,7.33-1.75,6.81,1.79,12.51-2.25,21.41-.06.12-.06.23-.02.32.14.69,2.43.63,3.86-1.06,1.85-2.2,2.5-7.91,2.63-7.78,0,.02,0,.03,0,.07.1,2.04.26,3.67.45,5.08.55,4.1,1.37,6.33,1.93,11.15.03.29.06.57.08.84.22,3.33-.55,5.52-.28,7.17.06.43.19.83.43,1.2.92,1.46,1.24,1.34,3.51-1.26,1.59-1.83,2.6-3.52,3.63-4.88,1.99-2.64,3.07-5.25,3.24-10.69.06-1.81,0-3.43-.22-5.18-.27-2.25-.77-4.73-1.54-8.11Z"/>
  </g>
</svg>