<?xml version="1.0" encoding="UTF-8"?>
<svg id="_레이어_2" data-name="레이어 2" xmlns="http://www.w3.org/2000/svg" viewBox="0 0 169.39 571.92">
  <defs>
    <style>
      .cls-1 {
        fill: #f2a7a9;
        stroke: #221714;
        stroke-miterlimit: 10;
      }
    </style>
  </defs>
  <g id="_레이어_1-2" data-name="레이어 1">
    <path class="cls-1" d="m67,91.07l-26.56,13.61c-.16.05-.33.1-.49.16-.27.09-.54.18-.8.28-.18.07-.36.14-.53.21-.36.15-.76.33-1.14.52-.02.01-.05.02-.07.03-.51.26-1.04.56-1.25.68,0,0,0,0,0,0-.47.25-.89.52-1.07.67,0,0,0,0,0,0-1.62,1.11-3.3,3.81-5.03,9.64-.1.32-.19.68-.29,1.07-2.63,10.64-6.37,69.89-6.77,76.45-.26,4.23-.86,11.47-1.29,14.96-.09.69-.17,1.22-.24,1.53-.06.27-.12.5-.17.68-.19.62-.38,1.24-.57,1.87-3.99,12.98-7.73,24.8-8.86,34.19-.09.77-.18,1.51-.27,2.25-.13,1.08-.25,2.12-.38,3.14-.08.66-.16,1.31-.24,1.95-1.36,11.36-2.32,19.45-3.78,30.34-.54,4.1-1.41,5.76-1.98,7.49-.23.69-.42,1.4-.51,2.27-.01.11-.02.22-.02.34-.02.33-.02.68-.02,1.09,0,.69,0,1.56-.1,2.83-.04.51-.09,1.08-.17,1.74-.13,1.08-.25,2.02-.36,2.87-.69,4.97-1.25,6.38-1.76,8.62-1.36,5.98-1.89,9.11-1.76,13.22.04,1.28.13,2.39.27,3.39.17,1.22.42,2.27.73,3.21.53,1.57,1.28,2.83,2.23,4.1.66.88,1.33,1.89,2.14,2.99.45.61.93,1.24,1.5,1.89,2.04,2.33,2.5,2.67,3.25,1.65.08-.11.17-.24.27-.39.13-.21.23-.43.3-.66,0-.02.02-.05.02-.07.01-.04.02-.08.03-.12.45-1.83-.61-4.31-.14-8.35.58-5,1.45-7.22,1.99-11.62.16-1.28.29-2.73.38-4.5,0-.05,0-.09.01-.11.09-.68.71,5.42,2.64,7.71,1.37,1.63,3.55,1.74,3.84,1.14.05-.1.05-.21,0-.34-4.04-8.9-.5-14.6-2.25-21.41-.46-1.77-1.54-4.36-1.92-6.16-.08-.4-.14-.77-.13-1.07,0-.07,0-.15.01-.22,0-.11.02-.22.04-.32.17-2.2.87-4.7,1.93-7.55.76-2.05,1.71-4.29,2.79-6.73,1.49-3.37,2.71-6.19,3.99-9.4-1.65,6.38-2.96,13.98-3.01,23.36,0,.1,0,.2,0,.3-.02,4.28.16,8.91.66,13.96,1.23,12.52,10.39,39.26,13.81,52.03,7.6,28.39,11.9,45.42,12.46,55.42.72,12.93-.95,16.97-2.43,24.8-2.89,15.21-.78,28.36,2.65,40.42,6.34,22.28,12.99,32.19,13.66,43.88.17,2.92-1.9,4.14-.76,7.83.6,1.93,1.6,3.77.07,8.05-5.17,14.48-11.89,18.27-11.1,23.56.88,5.86,19.54,5.5,26.85,4.18,6.01-1.09,5.93-10.06,4.2-20.34-.35-2.08-.53-4.4-.4-7.96.07-1.76.52-3.81.76-6.28.22-2.28-.42-4.69-.76-6.6-.26-1.44-.52-2.6-.57-3.21-1.72-22.37-1.11-27.75,1.56-48.79,2.7-21.27-1.08-25.08-.61-38.08.28-7.71,2.5-15.58,3.09-23.92.06-.84.1-1.68.14-2.51.04.83.08,1.67.14,2.51.59,8.34,2.81,16.21,3.09,23.92.47,13-3.31,16.81-.61,38.08,2.67,21.04,3.28,26.42,1.56,48.79-.05.61-.31,1.77-.57,3.21-.34,1.91-.98,4.32-.76,6.6.24,2.47.69,4.52.76,6.28.13,3.56-.05,5.88-.4,7.96-1.73,10.28-1.81,19.25,4.2,20.34,7.31,1.32,25.97,1.68,26.85-4.18.79-5.29-5.93-9.08-11.1-23.56-1.53-4.28-.52-6.12.07-8.05,1.14-3.69-.93-4.91-.76-7.83.67-11.69,7.32-21.6,13.66-43.88,3.43-12.06,5.54-25.21,2.65-40.42-1.48-7.83-3.15-11.87-2.43-24.8.56-10,4.86-27.03,12.46-55.42,3.42-12.77,12.58-39.51,13.81-52.03.5-5.05.68-9.68.66-13.96,0-.1,0-.2,0-.3-.06-9.39-1.36-16.99-3.01-23.36,1.29,3.2,2.51,6.03,3.99,9.4,1.08,2.45,2.03,4.68,2.79,6.73,1.06,2.85,1.76,5.35,1.93,7.55.02.1.03.21.04.32,0,.07.01.15.01.22,0,.3-.05.67-.13,1.07-.38,1.81-1.47,4.4-1.92,6.16-1.75,6.81,1.79,12.51-2.25,21.41-.06.13-.05.24,0,.34.29.6,2.47.49,3.84-1.14,1.93-2.29,2.54-8.39,2.64-7.71,0,.03,0,.06.01.11.09,1.77.22,3.22.38,4.5.54,4.4,1.41,6.63,1.99,11.62.47,4.04-.59,6.53-.14,8.35,0,.04.02.08.03.12,0,.02.02.05.02.07.07.23.17.45.3.66.09.15.18.28.27.39.75,1.01,1.21.68,3.25-1.65.57-.65,1.05-1.28,1.5-1.89.81-1.1,1.47-2.12,2.14-2.99.95-1.27,1.7-2.53,2.23-4.1.32-.94.56-1.98.73-3.21.14-1,.23-2.12.27-3.39.13-4.11-.4-7.24-1.76-13.22-.51-2.25-1.07-3.65-1.76-8.62-.12-.85-.24-1.79-.36-2.87-.08-.65-.13-1.23-.17-1.74-.1-1.26-.1-2.14-.1-2.83,0-.42,0-.76-.02-1.09,0-.11-.01-.23-.02-.34-.09-.88-.28-1.58-.51-2.27-.57-1.73-1.43-3.39-1.98-7.49-1.46-10.89-2.42-18.98-3.78-30.34-.08-.64-.16-1.29-.24-1.95-.12-1.02-.25-2.06-.38-3.14-.09-.73-.18-1.48-.27-2.25-1.13-9.39-4.87-21.21-8.86-34.19-.19-.62-.38-1.24-.57-1.87-.06-.19-.11-.41-.17-.68-.07-.32-.15-.85-.24-1.53-.43-3.48-1.03-10.73-1.29-14.96-.4-6.56-4.14-65.81-6.77-76.45-.1-.39-.19-.75-.29-1.07-1.73-5.83-3.41-8.53-5.03-9.64,0,0,0,0,0,0-.17-.16-.6-.42-1.07-.67,0,0,0,0,0,0-.21-.12-.74-.42-1.25-.68-.02-.01-.05-.02-.07-.03-.38-.19-.77-.37-1.14-.52-.17-.07-.35-.14-.53-.21-.26-.1-.53-.19-.8-.28-.16-.05-.32-.1-.49-.16l-26.56-13.61c-.31-.58-.61-1.19-.88-1.86-1.11-2.7-1.57-10.21-1.75-15.34,2.54-2.35,4.51-5.38,5.74-10.41.22-.9.48-1.97.74-3.12.7.24,1.26.16,1.73-.12,1.4-.85,1.9-3.49,2.29-4.42.56-1.36,1.31-1.49,2.07-4.5.5-2-.37-3.32-.01-4.61.24-.87.36-3.32-.75-4.16-.1-.07-.22-.12-.34-.15-.02-.03-.04-.06-.06-.1,1.63-6.28,2.67-16.47-.76-24.28-1.48-3.39-3.32-6.12-5.25-8.29-4.54-5.53-12-9.17-20.47-9.22-8.46.05-15.93,3.68-20.47,9.22-1.93,2.17-3.77,4.9-5.25,8.29-3.43,7.81-2.39,18.01-.76,24.28-.02.03-.04.06-.06.1-.12.04-.24.08-.34.15-1.11.84-.99,3.29-.75,4.16.36,1.29-.51,2.61-.01,4.61.76,3.01,1.51,3.14,2.07,4.5.39.93.89,3.57,2.29,4.42.47.28,1.03.37,1.73.12.26,1.15.52,2.22.74,3.12,1.23,5.03,3.2,8.06,5.74,10.41-.18,5.13-.64,12.64-1.75,15.34-.27.66-.57,1.27-.88,1.86Zm-18.07,122.38c-.16.6-.28,1.21-.38,1.83-1.2,5.42-3.45,10.89-5.63,16.68-5.63,9.43-8.28,13.96-10.27,18.24,1.03-3.11,1.9-6.14,2.64-9.03,3.37-13.12,4.06-23.39,4.25-24.89.09-.72.22-1.5.36-2.32.03-.17.06-.34.09-.51.94-5.08,2.7-11.76,4.55-18.74.51-1.9,1.02-3.83,1.52-5.75.89-3.39,1.75-6.77,2.51-9.99.24-1.02.66-3.13,1.07-5.21.23-1.16.45-2.3.63-3.24.08-.43.16-.82.22-1.15.13.51.24,1.03.37,1.54,1.16,9.1,1.49,27.12-1.94,42.52,0,0,0,0,0,0Zm87.81,36.75c-1.99-4.28-4.64-8.81-10.27-18.24-2.18-5.79-4.42-11.26-5.63-16.68-.09-.62-.22-1.23-.38-1.83,0,0,0,0,0,0-3.43-15.4-3.1-33.42-1.94-42.52.12-.51.24-1.03.37-1.54.06.33.14.71.22,1.15.18.94.4,2.08.63,3.24.41,2.08.83,4.19,1.07,5.21.75,3.22,1.62,6.6,2.51,9.99.5,1.92,1.02,3.85,1.52,5.75,1.86,6.98,3.61,13.66,4.55,18.74.03.17.06.34.09.51.15.82.27,1.6.36,2.32.19,1.51.88,11.77,4.25,24.89.74,2.89,1.61,5.92,2.64,9.03Zm-56.05,55.73c.69.26,2.34.38,4,.38,1.66,0,3.32-.12,4-.38-3.06,15.23,2.3,23.89,1.29,41.55-.94,16.26-.92,19.58-3.82,40.15-.62,4.39-1.23,9.64-1.47,15.36-.24-5.71-.85-10.96-1.47-15.36-2.9-20.57-2.88-23.89-3.82-40.15-1.01-17.66,4.35-26.32,1.29-41.55Z"/>
  </g>
</svg>