<?xml version="1.0" encoding="UTF-8"?>
<svg id="_레이어_2" data-name="레이어 2" xmlns="http://www.w3.org/2000/svg" viewBox="0 0 169.72 571.92">
  <defs>
    <style>
      .cls-1 {
        fill: #f2a7a9;
        stroke: #221714;
        stroke-miterlimit: 10;
      }
    </style>
  </defs>
  <g id="_레이어_1-2" data-name="레이어 1">
    <path class="cls-1" d="m165.68,303.93c-.12-.84-.24-1.78-.36-2.85-.08-.66-.13-1.22-.17-1.74-.1-1.27-.1-2.15-.1-2.84,0-.41,0-.75-.03-1.08,0-.12,0-.24-.02-.35-.1-.88-.28-1.59-.52-2.29-.57-1.72-1.43-3.39-1.97-7.47-1.46-10.89-2.42-18.98-3.78-30.34-.08-.64-.16-1.29-.24-1.96-.12-1.02-.25-2.07-.38-3.15-.09-.73-.17-1.46-.26-2.22-1.13-9.39-4.9-21.2-8.86-34.19-.16-.5-.31-1.01-.46-1.51-.07-.23-.14-.47-.21-.7-.08-.25-.17-.8-.27-1.57-.44-3.37-1.06-10.9-1.33-15.25-.41-6.67-4.26-67.76-6.9-76.98-1.97-6.87-3.88-9.63-5.71-10.54h0s-1.49-.9-2.39-1.31c-.02-.01-.05-.02-.07-.03-.25-.11-.51-.21-.76-.31l-28.35-14.53c-.24-.48-.48-.97-.69-1.5-1.11-2.7-1.57-10.21-1.75-15.34,2.54-2.35,4.51-5.38,5.74-10.41.22-.9.48-1.97.74-3.12.69.24,1.26.16,1.73-.12,1.4-.85,1.9-3.49,2.29-4.42.56-1.36,1.32-1.49,2.07-4.5.51-2-.37-3.32-.01-4.61.24-.87.36-3.32-.75-4.16-.07-.06-.16-.09-.25-.13-.05-.02-.11-.04-.16-.06,1.64-6.27,2.7-16.51-.74-24.34-1.48-3.39-3.32-6.12-5.25-8.29-4.57-5.57-12.1-9.22-20.63-9.22-2.48,0-4.86.32-7.12.89-5.53,1.4-10.27,4.37-13.51,8.33-1.93,2.16-3.77,4.9-5.25,8.29-3.44,7.84-2.38,18.08-.74,24.34-.16.05-.3.1-.42.19-1.11.84-.99,3.29-.75,4.16.35,1.29-.52,2.6-.01,4.61.75,3,1.51,3.13,2.07,4.5.52,1.24,1.24,5.52,4.02,4.54.26,1.14.52,2.22.74,3.12,1.23,5.03,3.2,8.06,5.74,10.41-.18,5.13-.64,12.64-1.75,15.34-.22.53-.45,1.02-.69,1.5l-28.35,14.53c-.26.1-.52.2-.76.3-.02.01-.05.02-.07.03-.9.41-2.39,1.3-2.39,1.3h0c-1.83.92-3.74,3.68-5.71,10.55-2.64,9.22-6.49,70.31-6.9,76.98-.27,4.35-.89,11.89-1.33,15.25-.1.77-.19,1.32-.27,1.57-.07.24-.14.47-.21.7-.15.5-.31,1.01-.46,1.51-3.96,12.99-7.73,24.8-8.86,34.19-.09.76-.18,1.5-.26,2.22-.13,1.08-.26,2.13-.38,3.15-.08.66-.16,1.32-.24,1.96-1.36,11.36-2.32,19.45-3.78,30.34-.37,2.78-.88,4.43-1.35,5.75-.02.05-.03.1-.05.15,0,0,0,0,0,0-.48,1.34-.91,2.34-1.08,3.87-.01.11-.01.23-.02.35-.02.33-.03.67-.03,1.08,0,.69,0,1.57-.1,2.84-.04.51-.09,1.08-.17,1.74-.12,1.06-.24,1.98-.36,2.81-.7,5.01-1.25,6.42-1.77,8.67-1.36,5.98-1.89,9.11-1.76,13.22.04,1.26.13,2.37.27,3.36.16,1.13.37,2.11.65,2.99,0,.02.01.04.02.06.02.05.03.1.05.14.54,1.59,1.28,2.87,2.25,4.15.66.87,1.33,1.89,2.13,2.98.45.61.93,1.24,1.5,1.9,2.04,2.33,2.5,2.66,3.24,1.65.09-.12.17-.25.27-.4.14-.22.24-.46.31-.7,0-.02.01-.03.02-.05.01-.05.02-.11.03-.16.42-1.82-.62-4.3-.15-8.3.59-5.06,1.47-7.28,2.01-11.79.15-1.25.28-2.67.37-4.39,0-.07,0-.11.02-.13.13-.16.77,5.58,2.63,7.78,1.36,1.61,3.51,1.74,3.83,1.15.06-.1.07-.22,0-.35-4.04-8.9-.5-14.6-2.25-21.41-.46-1.79-1.58-4.44-1.94-6.25-.08-.41-.13-.79-.12-1.09,0-.07.01-.15.02-.23,0-.07.01-.14.02-.21.27-3.5,1.88-7.77,4.17-13.03.18-.41.36-.82.54-1.25.34-.76.66-1.49.97-2.21.81-1.85,1.56-3.6,2.3-5.4,1.87-4.54,3.76-9.55,6.7-17.93.2-.56.39-1.11.6-1.71.12-.35.25-.72.38-1.08.05-.13.09-.26.14-.4.16-.46.33-.93.49-1.41,1.31-3.76,2.38-7.43,3.27-10.9,3.37-13.12,4.06-23.38,4.25-24.9.09-.72.22-1.52.37-2.34.03-.17.06-.32.09-.49.81-4.42,2.25-10.06,3.84-16.05.84-3.18,1.72-6.45,2.56-9.69.77-2.97,1.52-5.91,2.18-8.74.24-1.03.67-3.16,1.08-5.25.22-1.14.44-2.25.62-3.17.08-.43.16-.83.22-1.16.13.51.24,1.04.36,1.54-.78,5.41-3.46,24.09-5.86,42.53-1.95,15.05-3.71,29.94-4.09,37.31-.33,1.22-.5,2.02-.58,2.39-.34,1.11-.56,1.79-.56,1.8-2.96,9.14-7.52,21.21-7.68,41.52-.03,4.28.13,8.91.55,13.96,1.03,12.52,8.64,39.26,11.49,52.03,6.32,28.39,9.89,45.41,10.36,55.42.6,12.93-.79,16.97-2.02,24.8-2.4,15.21-.65,28.36,2.2,40.42,5.28,22.28,10.81,32.19,11.37,43.88.14,2.92-1.59,4.14-.64,7.83.5,1.93,1.34,3.76.06,8.05-4.3,14.48-9.89,18.27-9.23,23.56.73,5.86,16.26,5.5,22.33,4.18,5-1.09,4.94-10.07,3.49-20.34-.29-2.08-.44-4.4-.32-7.96.05-1.76.43-3.81.62-6.28.19-2.28-.34-4.69-.62-6.6-.22-1.44-.44-2.6-.48-3.21-1.34-22.38-.92-27.75,1.3-48.79,2.24-21.27-.91-25.08-.51-38.08.23-7.71,2.08-15.58,2.57-23.93.62-10.46-.23-20.35-1.11-27.79-2.41-20.57-2.39-23.89-3.17-40.15-.85-17.66,3.61-26.32,1.07-41.55.59.27,2.03.39,3.47.38,1.43.01,2.87-.11,3.46-.38-2.54,15.23,1.92,23.89,1.07,41.55-.78,16.26-.76,19.58-3.17,40.15-.87,7.44-1.73,17.33-1.11,27.79.5,8.35,2.34,16.22,2.57,23.93.4,13-2.75,16.81-.51,38.08,2.23,21.04,2.64,26.41,1.3,48.79-.04.61-.26,1.77-.47,3.21-.29,1.91-.81,4.32-.63,6.6.2,2.47.57,4.52.63,6.28.11,3.56-.04,5.88-.33,7.96-1.44,10.27-1.51,19.25,3.49,20.34,6.08,1.32,21.6,1.68,22.33-4.18.66-5.29-4.93-9.08-9.23-23.56-1.27-4.29-.43-6.12.06-8.05.95-3.69-.77-4.91-.64-7.83.57-11.69,6.1-21.6,11.37-43.88,2.85-12.06,4.6-25.21,2.21-40.42-1.24-7.83-2.63-11.87-2.03-24.8.47-10.01,4.04-27.03,10.37-55.42,2.84-12.77,10.46-39.51,11.49-52.03.41-5.05.57-9.68.54-13.96-.16-20.31-4.71-32.38-7.68-41.52,0,0-.23-.76-.59-1.96-.09-.42-.26-1.17-.55-2.24-.38-7.37-2.14-22.26-4.09-37.31-2.4-18.44-5.08-37.12-5.86-42.53.12-.51.23-1.04.36-1.54.06.33.14.72.22,1.16.18.94.4,2.08.63,3.25.41,2.07.83,4.17,1.06,5.18.75,3.22,1.62,6.6,2.51,10,.5,1.92,1.01,3.84,1.52,5.75,1.85,6.98,3.62,13.66,4.55,18.74.03.17.06.33.09.5.14.82.27,1.62.37,2.34.2,1.51.89,11.78,4.25,24.9.89,3.47,1.97,7.14,3.27,10.9.13.37.25.72.37,1.07.21.62.43,1.24.63,1.83,5.01,14.31,7.04,19.23,10.57,27.24,1.08,2.44,2.03,4.67,2.79,6.73,1.06,2.85,1.77,5.36,1.93,7.55,0,.07.02.14.02.21,0,.08.02.16.02.23.01.3-.04.68-.12,1.09-.36,1.81-1.47,4.45-1.94,6.25-1.75,6.81,1.79,12.51-2.25,21.41-.06.14-.05.26,0,.35.32.59,2.47.46,3.83-1.15,1.86-2.2,2.5-7.94,2.63-7.78,0,.02.01.06.02.13.09,1.77.22,3.22.38,4.49.54,4.44,1.41,6.66,2,11.68.47,4.03-.58,6.52-.14,8.34,0,.04.02.08.03.12,0,.02.02.05.02.07.07.24.17.46.31.68.1.15.19.28.27.4.74,1.01,1.21.68,3.24-1.65.57-.65,1.04-1.28,1.49-1.89.81-1.1,1.48-2.12,2.14-3,.96-1.27,1.7-2.54,2.23-4.11.32-.94.57-2,.74-3.23.14-.99.23-2.1.27-3.36.13-4.11-.4-7.24-1.76-13.22-.51-2.25-1.07-3.66-1.76-8.63Z"/>
  </g>
</svg>