<?xml version="1.0" encoding="UTF-8"?>
<svg id="_레이어_2" data-name="레이어 2" xmlns="http://www.w3.org/2000/svg" viewBox="0 0 167.69 571.92">
  <defs>
    <style>
      .cls-1 {
        fill: #f2a7a9;
        stroke: #221714;
        stroke-miterlimit: 10;
      }
    </style>
  </defs>
  <g id="_레이어_1-2" data-name="레이어 1">
    <path class="cls-1" d="m156.42,341.76s.02.08.03.12c0,.02.02.05.02.07.07.23.17.46.3.67.1.15.18.28.27.39.74,1.01,1.21.68,3.25-1.65.57-.65,1.05-1.28,1.5-1.89.81-1.1,1.48-2.12,2.14-2.99.96-1.27,1.7-2.53,2.23-4.1.32-.94.56-1.99.73-3.22.14-1,.23-2.11.27-3.38.13-4.11-.4-7.24-1.76-13.22-.51-2.25-1.07-3.66-1.76-8.63-.12-.85-.24-1.79-.36-2.86-.08-.66-.13-1.23-.17-1.74-.1-1.27-.1-2.14-.1-2.83,0-.41,0-.76-.03-1.08,0-.11,0-.23-.02-.34-.09-.88-.28-1.58-.51-2.28-.57-1.73-1.43-3.39-1.97-7.48-1.46-10.89-2.42-18.98-3.78-30.34-.08-.64-.16-1.29-.24-1.95-.12-1.02-.25-2.07-.38-3.15-.09-.73-.18-1.47-.27-2.23-1.13-9.39-4.87-21.21-8.86-34.19-.17-.56-.35-1.13-.52-1.69-.06-.21-.13-.44-.19-.69-.07-.28-.16-.83-.25-1.55-.44-3.42-1.04-10.81-1.31-15.1-.41-6.62-4.2-66.78-6.83-76.72-.1-.38-.2-.74-.31-1.08-1.7-5.65-3.35-8.28-4.95-9.38h.49l-31.59-16.19v1.42c-.62-.96-1.19-2.04-1.69-3.26-1.11-2.7-1.57-10.21-1.75-15.34,2.54-2.35,4.51-5.38,5.74-10.41.22-.9.48-1.97.74-3.12.69.24,1.26.16,1.73-.12,1.4-.85,1.91-3.49,2.29-4.42.56-1.36,1.31-1.49,2.07-4.5.5-2-.37-3.32-.01-4.61.24-.87.36-3.32-.75-4.16-.09-.06-.19-.11-.3-.14-.04-.03-.07-.05-.11-.08,1.63-6.27,2.68-16.49-.75-24.31-1.48-3.39-3.32-6.12-5.25-8.29-4.57-5.57-12.1-9.22-20.63-9.22-2.48,0-4.88.32-7.14.89-5.52,1.4-10.25,4.38-13.49,8.33-1.93,2.16-3.77,4.9-5.25,8.29-3.44,7.84-2.38,18.08-.74,24.34-.16.05-.3.1-.42.19-1.11.84-.99,3.29-.75,4.16.35,1.29-.52,2.6-.01,4.61.76,3,1.5,3.14,2.07,4.5.51,1.24,1.24,5.52,4.02,4.54.26,1.14.52,2.22.74,3.12,1.23,5.03,3.2,8.06,5.74,10.41-.18,5.13-.64,12.64-1.75,15.34-.41.99-.86,1.88-1.35,2.7l-23.64,12.11c-.09.02-.18.04-.26.06-.12.03-.24.06-.36.09-.46.12-.91.24-1.36.37-.21.06-.41.13-.61.19-.27.09-.54.18-.8.27-.19.07-.37.13-.55.2-.53.21-1.2.55-1.48.68-.02,0-.04.02-.05.02-.84.39-2.12,1.19-2.28,1.41,0,0,0,0,0,0-1.5,1-3.06,3.34-4.66,8.29-.23.71-.46,1.51-.69,2.42-2.67,10.53-6.36,69.81-6.77,76.38-.27,4.35-.89,11.89-1.33,15.26-.1.76-.19,1.31-.27,1.56-.07.24-.14.47-.21.7-.15.5-.31,1.01-.46,1.52-3.99,12.98-7.73,24.8-8.86,34.19-.09.76-.18,1.5-.26,2.22-.13,1.08-.26,2.13-.38,3.15-.08.66-.16,1.32-.24,1.96-1.36,11.36-2.32,19.45-3.78,30.34-.47,3.52-1.26,4.98-1.63,6.75-.03.14-.04.29-.05.47,0,.24,0,.57-.07,1.14-.41,1.39-.78,2.47-.94,3.89-.01.11-.01.23-.03.35-.13,1.21-.32,1.79-.41,2.61-.08.76-.1,1.65-.23,2.81-.06.53-.12,1.1-.21,1.72-.24,1.64-.38,2.95-.47,4.32-.36,5.13-.48,6.83-.52,9.18-.03,2.2-.23,4.1-.04,5.88.25,2.53.22,4.12.51,5.57.15.21.17.36.16.43.01-.04.04-.1.09-.21.15.57.35,1.07.59,1.51,0,0,.01.02.02.03.01.03.03.05.04.07.47.79,1.11,1.4,1.9,2.01.61.09,1.21.25,1.86.08.34.33.69,1.07,1.24,1.9,1.51,2.29,2.15,3.1,2.98,2.67.46.38,1.2.25,1.16-.09.08-.22.14-.45.16-.69,0-.02,0-.03,0-.05,0-.05,0-.11,0-.17.06-2.07-.83-4.55-.52-8.13.43-4.94,1.43-7.58,1.45-12.06,0-1.49-.33-3.43-.24-5.12,0-.09.01-.16.03-.21.14-.66.79,3.03,2.44,3.98,1.21.69,3.04.2,3.58-.85.05-.1.07-.21.03-.34-2.36-8.19.7-13.54.18-20.7-.14-1.95-.75-4.62-.71-6.78.01-.54.06-1.06.16-1.54,0-.07.02-.14.03-.22.01-.06.02-.13.03-.19.56-3.67,2.08-7.88,4.01-12.79.16-.41.32-.82.48-1.24.3-.76.58-1.49.85-2.2.71-1.85,1.38-3.59,1.99-5.37,1.85-5.39,3.49-10.52,5.53-17.14.19-.63.36-1.29.56-1.99.1-.35.22-.7.33-1.06.04-.13.08-.26.12-.39.14-.45.29-.91.44-1.38,1.14-3.58,2.16-7.19,3.07-10.7,2.98-11.59,4.1-21.21,4.59-24.1.11-.66.23-1.45.39-2.28.03-.16.06-.32.09-.48.43-2.29,1.01-4.99,1.6-7.47.64-1.39,1.33-2.87,2.03-4.38.76-1.65,1.52-3.33,2.22-4.99.65-1.54,1.14-3.09,1.73-4.49.15-.37.48-1.55.77-2.71.15-.6.3-1.19.4-1.64.05-.23.1-.43.13-.59.08.5.15,1.02.22,1.52-.31,2.1-.85,5.27-1.52,9.12-.93,5.34-2.6,15.43-3.58,22.43-.39,2.74-1.02,6.29-1.68,9.9-.87,4.78-1.77,9.67-2.16,12.88-1.36,8.92-2.68,17.24-3.28,23.37-.28,1.09-.44,1.88-.53,2.34-.28.97-.46,1.62-.48,1.77-1.31,4.7-2.88,10.13-4.04,16.85-.75,4.34-1.32,9.21-1.56,14.77-.13,2.8-.13,5.89,0,9.22.16,4.17.48,8.72,1.08,13.6,1.09,8.83,4.47,22.17,7.18,33.21,1.65,6.74,3.2,12.98,4.25,17.72,4.07,18.43,6.87,31.67,8.21,41.17.77,5.46,1.14,9.74,1.2,13.2.1,5.66-.2,9.56-.66,13.29-.46,3.84-1.06,7.02-1.59,10.99-1.55,11.81-.63,22.38,1.27,32.17.49,2.53,1.04,4.98,1.62,7.37,4.72,19.35,9.52,29.12,10.69,39.42.14,1.24.14,2.39.12,3.56-.03,1.8-.65,3.02-.69,4.82-.01.81.07,1.71.34,2.84.36,1.51.83,3.06.28,5.8-.13.65-.31,1.35-.53,2.1-4.27,14.08-9.73,17.84-9.08,23.07.73,5.86,16.26,5.5,22.33,4.18,5-1.09,4.94-10.07,3.49-20.34-.29-2.08-.43-4.4-.32-7.96.05-1.76.42-3.81.62-6.28.18-2.28-.33-4.69-.62-6.6-.22-1.44-.44-2.6-.48-3.21-1.4-22.38-.92-27.75,1.3-48.79,2.24-21.27-.91-25.08-.51-38.08.23-7.71,2.08-15.58,2.57-23.93.62-10.46-.23-20.35-1.11-27.79-2.41-20.57-2.39-23.89-3.17-40.15-.85-17.66,3.61-26.32,1.07-41.55.59.27,2.03.36,3.47.38,1.43.02,2.87-.11,3.46-.38-2.54,15.23,1.92,23.89,1.07,41.55-.78,16.26-.76,19.58-3.17,40.15-.87,7.44-1.73,17.33-1.11,27.79.5,8.35,2.34,16.22,2.57,23.93.4,13-2.75,16.81-.51,38.08,2.23,21.04,2.7,26.41,1.3,48.79-.04.61-.26,1.77-.47,3.21-.28,1.91-.81,4.32-.63,6.6.2,2.47.57,4.52.63,6.28.11,3.56-.04,5.88-.33,7.96-1.44,10.27-1.51,19.25,3.49,20.34,6.08,1.32,21.6,1.68,22.33-4.18.66-5.29-4.93-9.08-9.23-23.56-1.27-4.29-.43-6.12.06-8.05.95-3.69-.78-4.91-.64-7.83.54-11.69,6.1-21.6,11.37-43.88,2.85-12.06,4.6-25.21,2.21-40.42-1.24-7.83-2.63-11.87-2.03-24.8.47-10.01,4.04-27.03,10.37-55.42,2.84-12.77,10.46-39.51,11.49-52.03.41-5.05.57-9.68.54-13.96-.16-20.31-4.71-32.38-7.68-41.52,0,0-.23-.75-.59-1.95-.12-.47-.3-1.22-.58-2.23-.59-4.41-1.79-11.46-2.47-17.05-.61-4.93-1.94-13.54-3.06-20.27-2.96-17.05-4.52-35.63-4.3-42.92.11-.28.22-.54.34-.77.06.34.14.73.22,1.16.19.96.41,2.11.63,3.24.38,1.93.77,3.84.99,4.79.75,3.22,1.62,6.6,2.51,10,.5,1.92,1.02,3.84,1.52,5.75,1.85,6.98,3.61,13.66,4.55,18.74.03.17.06.34.09.5.15.82.27,1.61.37,2.33.2,1.51.88,11.77,4.25,24.89.89,3.47,1.97,7.14,3.27,10.91.13.37.25.72.38,1.08.22.62.42,1.23.63,1.82,4.98,14.32,7.04,19.23,10.57,27.24,1.08,2.44,2.03,4.67,2.79,6.73,1.06,2.85,1.76,5.35,1.93,7.55.01.08.02.18.03.27,0,.08.02.15.02.23,0,.3-.04.68-.13,1.08-.37,1.81-1.47,4.43-1.93,6.21-1.75,6.81,1.79,12.51-2.25,21.41-.06.13-.05.25,0,.34.31.6,2.47.47,3.84-1.15,1.89-2.25,2.52-8.17,2.63-7.75,0,.02.01.06.01.12.09,1.77.22,3.22.38,4.5.54,4.42,1.41,6.64,1.99,11.65.47,4.04-.58,6.52-.14,8.35Z"/>
  </g>
</svg>