<?xml version="1.0" encoding="UTF-8"?>
<svg id="_레이어_2" data-name="레이어 2" xmlns="http://www.w3.org/2000/svg" viewBox="0 0 169.72 572.01">
  <defs>
    <style>
      .cls-1 {
        fill: #f2a7a9;
        stroke: #221714;
        stroke-miterlimit: 10;
      }
    </style>
  </defs>
  <g id="_레이어_1-2" data-name="레이어 1">
    <path class="cls-1" d="m3.76,336.43c.9,1.19,1.79,2.65,3.13,4.23,1.84,2.15,2.24,2.47,3.14,1.6,1.12-.23.95-1.28,1.05-3.16.07-1.24-.07-2.71.05-4.56.11-1.7.29-3.18.54-4.64.64-3.77,1.36-6.23,1.74-11.57.06-.9.32.55.86,1.95.32.82.7,2.38,1.44,3.53,1.19,1.85,3.43,2.1,3.32,1.63-.16-.69.13-1.76-.13-2.97-.01-.06-.03-.13-.04-.19-.48-1.71-.68-3.31-.78-4.83-.3-4.66.74-8.57-.27-12.91-.09-.39-.21-.81-.34-1.24-.58-1.86-1.53-4.19-1.59-5.55,0-.15,0-.3,0-.44-.04-1.01.02-2.05.22-3.04.02-.13.05-.26.08-.39.39-1.86,1.07-3.91,1.95-6.17,0,.56.03,1.13.07,1.71-.16,1.98-.27,4.04-.31,6.2,0,.01,0,.14,0,.15-.02.99-.02,2.01-.01,3.04,0,.03,0,.11,0,.14.04,3.38.23,6.98.61,10.82.09.93.22,1.93.38,2.98,2.03,13.17,10.87,37.74,14.28,49.81,8.02,28.39,12.56,45.41,13.15,55.42.77,12.92-.99,16.97-2.56,24.79-3.05,15.22-.82,28.37,2.8,40.42,6.69,22.29,13.71,32.19,14.43,43.89.17,2.92-2.02,4.14-.81,7.83.63,1.92,1.69,3.76.08,8.04-5.46,14.49-12.57,18.28-11.73,23.57.93,5.86,20.64,5.49,28.36,4.17,6.35-1.08,6.26-10.06,4.43-20.33-.37-2.08-.57-4.4-.42-7.96.07-1.76.55-3.81.8-6.28.23-2.28-.44-4.69-.8-6.6-.27-1.44-.55-2.6-.6-3.21-1.76-22.39-1.17-27.75,1.65-48.8,2.85-21.26-1.15-25.07-.65-38.08.3-7.7,2.64-15.58,3.27-23.92.79-10.46-.3-20.35-1.41-27.79-3.06-20.57-3.04-23.89-4.03-40.16-1.07-17.65,4.59-26.31,1.36-41.54.75.27,2.58.36,4.4.38,1.82.01,3.65-.11,4.4-.38-3.23,15.23,2.43,23.89,1.36,41.54-.99,16.27-.97,19.59-4.03,40.16-1.11,7.44-2.19,17.33-1.4,27.79.62,8.34,2.96,16.22,3.26,23.92.5,13.01-3.5,16.82-.64,38.08,2.82,21.05,3.42,26.42,1.64,48.8-.05.61-.33,1.77-.6,3.21-.36,1.91-1.03,4.32-.8,6.6.25,2.47.73,4.52.8,6.28.14,3.56-.05,5.88-.42,7.96-1.83,10.27-1.91,19.25,4.44,20.33,7.71,1.32,27.42,1.69,28.35-4.17.84-5.29-6.26-9.08-11.72-23.57-1.62-4.28-.55-6.12.08-8.04,1.21-3.69-.99-4.91-.81-7.83.71-11.7,7.73-21.6,14.43-43.89,3.62-12.05,5.84-25.2,2.8-40.42-1.57-7.82-3.33-11.87-2.57-24.79.59-10.01,5.13-27.03,13.16-55.42,3.61-12.77,13.28-39.51,14.59-52.03.52-5.05.72-9.69.68-13.96v-.15c-.04-3.4-.24-6.54-.56-9.5,1.49,3.69,2.49,6.83,2.7,9.52.02.14.04.29.05.44.09,1.64-1.49,5.14-2.06,7.34-1.75,6.81,1.79,12.51-2.25,21.41-.05.12-.06.22-.02.31.23.64,2.47.54,3.86-1.11,1.96-2.32,2.56-8.58,2.64-7.67,0,.05,0,.09,0,.15.41,7.79,1.62,9.62,2.37,16.05.55,4.71-1,7.3.21,9.21.06.09.11.18.17.26.81,1.18,1.22.92,3.35-1.51,1.6-1.83,2.61-3.52,3.64-4.88,1.99-2.64,3.06-5.25,3.24-10.7.1-3.16-.19-5.73-.94-9.46-.22-1.09-.48-2.28-.78-3.6-.05-.22-.1-.43-.15-.64-.28-1.15-.57-2.15-.89-3.68-.33-1.56-.68-3.66-1.09-7.03-.05-.44-.09-.85-.13-1.24-.14-1.48-.16-2.48-.17-3.26,0-.56,0-1-.04-1.42-.05-.54-.11-1.01-.21-1.46-.27-1.24-.72-2.22-1.17-3.65-.36-1.12-.74-2.51-1.03-4.53-.09-.63-.18-1.27-.27-1.93-1.35-10.18-2.29-18.04-3.59-28.89-.28-2.29-.57-4.71-.88-7.33,0,0,0-.01,0-.02,0,0,0,0,0,0-1.13-9.39-4.87-21.2-8.86-34.17-.08-.27-.17-.55-.25-.82-.14-.46-.28-.93-.42-1.4-.41-1.34-1.26-11.48-1.59-16.82-.37-5.94-3.46-55.07-6-72.24-.31-2.11-.61-3.74-.9-4.74-1.97-6.87-3.88-9.63-5.71-10.54h0s-1.49-.9-2.39-1.31c-.94-.42-1.96-.77-3.05-1.08l-25.86-13.25c-.34-.63-.67-1.3-.97-2.03-.16-.4-.31-.9-.45-1.48-.78-3.32-1.13-9.28-1.29-13.63.17-.24.33-.47.5-.72,2.23-2.22,3.98-5.06,5.12-9.51.14-.52.28-1.1.42-1.71.1-.43.21-.89.32-1.36.63.06,1.13-.2,1.54-.64,1.38-.56,1.97-2.77,2.4-3.8.35-.85.73-1.35,1.11-2.13.29-.6.61-1.24.93-2.3.29-.98.26-1.85.23-2.76-.02-.63-.07-1.19.02-1.74.13-.75.12-2.05-.1-3.08-.08-.39-.23-.77-.47-1.06-.09-.1-.2-.17-.31-.24.07-.37.14-.76.18-1.15.07-.57.1-1.14.08-1.68,0-.14-.02-.27-.04-.4,1.18-5.91,1.62-14.02-.93-20.67-.59-1.55-1.27-2.99-2.02-4.31-.91-1.58-1.89-2.98-2.9-4.22-.92-1.19-1.94-2.29-3.05-3.28-4.36-3.99-10.47-6.56-17.29-6.79-1.3-.04-2.59,0-3.86.12-7,.68-13.13,3.85-17.18,8.43-.71.76-1.41,1.58-2.06,2.48-1.24,1.64-2.4,3.54-3.42,5.73-.41.89-.77,1.81-1.09,2.76-2.4,7.25-1.53,15.96-.12,21.7-.1.07-.21.15-.29.26-.3.41-.45,1.01-.5,1.63-.06.12-.11.24-.15.38-.21.73-.2,1.57-.12,2.1.1.71.01,1.43-.02,2.12,0,.06,0,.12-.01.18,0,.09,0,.17-.01.26-.04.62-.1,1.31.03,2.09.13.77.29,1.39.49,1.93,0,0,0,.01,0,.02,0,0,0,0,0,0,.5,1.3.95,1.76,1.36,2.64.2.44.43,1.04.69,1.76.52,1.44,1.35,3.47,3.14,3.17.21.51.45.95.72,1.29.12.51.24,1,.35,1.45.1.41.2.81.31,1.19.04.13.07.26.11.39,1.2,4.19,2.97,6.88,5.19,9.01.06.4.13.8.19,1.22-.2,4.93-.65,11.48-1.64,14.14-.11.28-.22.55-.33.81-.23.51-.47.98-.72,1.44l-25.83,13.24c-1.09.31-2.12.66-3.07,1.09-.9.41-2.39,1.3-2.39,1.3h0c-1.83.92-3.74,3.68-5.71,10.55-2.64,9.22-6.49,70.31-6.9,76.98-.33,5.34-1.18,15.48-1.59,16.82-.23.74-.45,1.48-.68,2.22-3.99,12.98-7.73,24.8-8.86,34.19-.31,2.62-.6,5.04-.88,7.33-1.36,11.36-2.32,19.45-3.78,30.34-.76,5.74-2.14,6.7-2.48,9.76-.05.43-.05.87-.05,1.43,0,.97-.01,2.29-.27,4.56-.87,7.4-1.53,8.87-2.13,11.5-1.36,5.98-1.89,9.11-1.76,13.22.18,5.45,1.25,8.06,3.24,10.7Zm130.71-95.14c-2.15-3.25-4.15-5.85-6.67-9.73-.35-.55-.7-1.08-1.03-1.61-2.93-5.66-5.06-10.72-6.22-15.67-.09-.39-.18-.77-.26-1.16,0,0,0,0,0,0-3.92-15.43-3.46-31.44-1.43-42.24.12-.52.24-1.04.37-1.55.44,2.3,1.49,7.74,1.92,9.59,2.74,11.72,6.93,25.57,8.58,34.48.19,1.01.35,1.96.46,2.83.19,1.51.89,11.86,4.29,25.06Zm-94.93-25.06c.11-.87.27-1.82.46-2.83,1.63-8.91,5.84-22.76,8.58-34.48.43-1.85,1.48-7.31,1.92-9.6.13.53.26,1.07.38,1.61,2.02,10.75,2.5,26.55-1.4,41.84,0,0,0,0,0,0-.17.84-.38,1.69-.61,2.54-1.35,4.96-3.64,10.07-6.7,15.84-.32.49-.63.97-.94,1.43-2.21,3.33-4.03,5.74-5.99,8.69,3.4-13.2,4.1-23.55,4.29-25.06Z"/>
  </g>
</svg>