<?xml version="1.0" encoding="UTF-8"?>
<svg id="_레이어_2" data-name="레이어 2" xmlns="http://www.w3.org/2000/svg" viewBox="0 0 169.72 572">
  <defs>
    <style>
      .cls-1 {
        fill: #f2a7a9;
        stroke: #221714;
        stroke-miterlimit: 10;
      }
    </style>
  </defs>
  <g id="_레이어_1-2" data-name="레이어 1">
    <path class="cls-1" d="m3.76,336.41c.77,1.02,1.53,2.25,2.62,3.57,1.42,1.71,1.91,2.22,2.77,1.95,1.5.71,1.48.05,1.87-1.69.27-1.21.09-2.66.12-4.55.02-1.56.11-3.06.35-4.66.62-4.18,1.38-6.56,1.82-11.59.09-1.03.34-.6.7-.21.26.28.49,2.05,1.25,3.55.88,1.76,2.62,2.41,2.81,2.45.42.07,1.4-.59,1.2-1.66,0-.06-.02-.12-.04-.18-.57-1.7-.87-3.28-1.04-4.78-.59-5.07.64-9.19-.32-13.75-.08-.4-.19-.82-.32-1.26-.48-1.61-1.29-3.63-1.48-4.98-.02-.15-.03-.29-.04-.43-.16-1.07-.22-2.13-.07-3.04.02-.13.05-.28.07-.41.3-1.86.94-3.93,1.8-6.23.12.04.27.06.45.08-.18,1.98-.3,4.05-.36,6.21,0,.02,0,.12,0,.15-.03,1-.04,2.02-.04,3.06,0,.02,0,.12,0,.14.02,3.39.18,7,.54,10.85.09.95.21,1.96.35,3,1.79,12.96,10.9,38.25,14.38,50.55,8.02,28.39,12.56,45.41,13.15,55.42.77,12.92-.99,16.97-2.56,24.79-3.05,15.22-.82,28.37,2.8,40.42,6.69,22.29,13.71,32.19,14.43,43.89.17,2.92-2.02,4.14-.81,7.83.63,1.92,1.69,3.76.08,8.04-5.46,14.49-12.57,18.28-11.73,23.57.93,5.86,20.64,5.49,28.36,4.17,6.35-1.08,6.26-10.06,4.43-20.33-.37-2.08-.57-4.4-.42-7.96.07-1.76.55-3.81.8-6.28.23-2.28-.44-4.69-.8-6.6-.27-1.44-.55-2.6-.6-3.21-1.76-22.39-1.17-27.75,1.65-48.8,2.85-21.26-1.15-25.07-.65-38.08.3-7.7,2.64-15.58,3.27-23.92.79-10.46-.3-20.35-1.41-27.79-3.06-20.57-3.04-23.89-4.03-40.16-1.07-17.65,4.59-26.31,1.36-41.54.75.27,2.58.37,4.4.38,1.82.01,3.65-.11,4.4-.38-3.23,15.23,2.43,23.89,1.36,41.54-.99,16.27-.97,19.59-4.03,40.16-1.11,7.44-2.19,17.33-1.4,27.79.62,8.34,2.96,16.22,3.26,23.92.5,13.01-3.5,16.82-.64,38.08,2.82,21.05,3.42,26.42,1.64,48.8-.05.61-.33,1.77-.6,3.21-.36,1.91-1.03,4.32-.8,6.6.25,2.47.73,4.52.8,6.28.14,3.56-.05,5.88-.42,7.96-1.83,10.27-1.91,19.25,4.44,20.33,7.71,1.32,27.42,1.69,28.35-4.17.84-5.29-6.26-9.08-11.72-23.57-1.62-4.28-.55-6.12.08-8.04,1.21-3.69-.99-4.91-.81-7.83.71-11.7,7.73-21.6,14.43-43.89,3.62-12.05,5.84-25.2,2.8-40.42-1.57-7.82-3.33-11.87-2.57-24.79.59-10.01,5.13-27.03,13.16-55.42,3.61-12.77,13.28-39.51,14.59-52.03.52-5.05.72-9.69.68-13.96v-.15c-.04-3.4-.24-6.54-.56-9.5,1.49,3.69,2.49,6.83,2.7,9.52.02.14.04.29.05.44.09,1.64-1.49,5.14-2.06,7.34-1.75,6.81,1.79,12.51-2.25,21.41-.05.12-.06.23-.02.32.23.64,2.46.54,3.86-1.11,1.92-2.27,2.54-8.31,2.64-7.71,0,.04,0,.08.01.14.4,7.82,1.62,9.65,2.38,16.09.55,4.71-1,7.3.21,9.21.06.09.11.17.17.25.81,1.19,1.22.94,3.35-1.5,1.59-1.83,2.6-3.52,3.64-4.88,1.99-2.64,3.06-5.25,3.24-10.69.1-3.13-.18-5.68-.92-9.35-.22-1.08-.47-2.25-.77-3.56-.05-.22-.1-.43-.15-.64-.28-1.17-.57-2.16-.88-3.64-.33-1.54-.69-3.6-1.09-6.94-.05-.42-.09-.82-.13-1.22-.15-1.43-.18-2.44-.2-3.23-.01-.56-.01-1.01-.04-1.42-.03-.55-.08-1.01-.15-1.45-.23-1.29-.65-2.27-1.1-3.61-.37-1.11-.77-2.45-1.09-4.44-.1-.62-.19-1.26-.28-1.93-1.38-10.42-2.33-18.35-3.65-29.37-.27-2.29-.56-4.71-.88-7.33,0,0,0-.02,0-.02,0,0,0,0,0,0-1.13-9.39-4.87-21.2-8.86-34.18-.08-.27-.17-.55-.25-.82-.14-.46-.28-.92-.42-1.39-.41-1.34-1.26-11.48-1.59-16.82-.37-5.94-3.46-55.07-6-72.24-.31-2.11-.61-3.74-.9-4.75-1.97-6.87-3.88-9.63-5.71-10.54h0s-1.49-.9-2.39-1.31c-.96-.43-2-.78-3.11-1.09l-25.79-13.22c-.35-.64-.68-1.32-.98-2.05-.16-.39-.31-.89-.44-1.46-.77-3.26-1.12-9.09-1.29-13.42.11-.26.22-.52.32-.78,2.24-2.17,4-4.95,5.18-9.28.14-.52.29-1.08.43-1.67.1-.42.21-.87.32-1.34.46-.15.85-.53,1.17-1.04,1.51-.17,2.21-2.13,2.69-3.31.35-.86.68-1.48.99-2.15.31-.67.66-1.23,1.01-2.2.3-.83.38-1.66.45-2.68.04-.62.02-1.18.07-1.72.08-.88-.04-2.05-.12-3.03-.03-.35-.1-.74-.26-1.09-.05-.11-.13-.21-.21-.3.05-.37.08-.76.08-1.15,0-.58-.05-1.15-.21-1.61-.04-.12-.1-.23-.16-.32,1.23-5.64,1.84-13.62-.37-20.36-.51-1.57-1.13-3.04-1.85-4.41-.85-1.62-1.79-3.07-2.76-4.36-.91-1.25-1.9-2.38-2.96-3.4-4.19-4.23-10.25-7.05-17.09-7.51-1.29-.09-2.59-.09-3.89,0-7.08.46-13.34,3.44-17.57,7.9-.75.76-1.47,1.57-2.13,2.45-1.29,1.61-2.51,3.5-3.59,5.68-.43.88-.82,1.79-1.17,2.75-2.61,7.15-1.87,15.9-.5,21.82-.06.1-.12.21-.16.33-.16.48-.2,1.08-.19,1.69-.09.09-.18.19-.24.31-.33.61-.4,1.44-.37,2.06.03.76,0,1.54.03,2.14,0,.06,0,.13,0,.19,0,.09,0,.18,0,.27-.01.63-.12,1.31-.05,2.1.06.71.16,1.34.37,1.95,0,0,0,0,0,.01,0,0,0,0,0,0,.46,1.36.88,1.93,1.27,2.7.25.49.52,1.02.79,1.73.48,1.27,1.2,3.51,2.87,3.59.3.43.64.75,1.05.89.12.51.24,1,.35,1.46.1.42.2.82.3,1.2.04.13.07.27.11.4,1.16,4.25,2.88,7.01,5.06,9.17.14.37.29.75.44,1.12-.19,4.84-.62,11.42-1.58,14.25-.1.29-.21.57-.32.82-.26.59-.53,1.13-.82,1.66l-25.76,13.2c-1.11.31-2.17.67-3.13,1.1-.9.41-2.39,1.3-2.39,1.3h0c-1.83.92-3.74,3.68-5.71,10.55-2.64,9.22-6.49,70.31-6.9,76.98-.33,5.34-1.18,15.48-1.59,16.82-.23.74-.45,1.48-.68,2.22-3.99,12.98-7.73,24.8-8.86,34.19-.31,2.62-.6,5.04-.88,7.33-1.36,11.36-2.32,19.45-3.78,30.34-.76,5.74-2.14,6.7-2.48,9.76-.05.43-.05.87-.05,1.43,0,.97-.01,2.29-.27,4.56-.87,7.4-1.53,8.87-2.13,11.5-1.36,5.98-1.89,9.11-1.76,13.22.18,5.45,1.25,8.06,3.24,10.7Zm124.04-104.87c-.35-.54-.69-1.07-1.02-1.6-2.16-5.52-3.8-10.78-4.83-15.97-.08-.38-.15-.77-.22-1.15,0,0,0,0,0,0-3.4-16.31-3.95-32.99-2.86-41.95.12-.51.24-1.03.36-1.54.44,2.3,1.49,7.73,1.92,9.58,2.74,11.72,6.93,25.57,8.58,34.48.19,1.01.35,1.96.46,2.83.19,1.51.89,11.86,4.29,25.06-2.15-3.25-4.15-5.85-6.67-9.73Zm-88.25-15.32c.11-.86.27-1.82.46-2.82,1.63-8.92,5.84-22.77,8.58-34.49.43-1.85,1.49-7.31,1.92-9.59.13.52.25,1.06.38,1.59,1.1,8.89.59,25.18-2.78,41.24,0,0,0,0,0,0-.15.84-.33,1.68-.52,2.52-1.16,5.19-2.9,10.48-5.15,16.07-.32.5-.64,1-.97,1.49-2.31,3.51-4.19,5.98-6.21,9.03,3.4-13.19,4.09-23.53,4.29-25.04Z"/>
  </g>
</svg>