<?xml version="1.0" encoding="UTF-8"?>
<svg id="_레이어_2" data-name="레이어 2" xmlns="http://www.w3.org/2000/svg" viewBox="0 0 169.17 571.4">
  <defs>
    <style>
      .cls-1 {
        fill: #f2a7a9;
        stroke: #221714;
        stroke-miterlimit: 10;
      }
    </style>
  </defs>
  <g id="_레이어_1-2" data-name="레이어 1">
    <path class="cls-1" d="m158.26,342.39c.11.17.21.32.31.45.72.95,1.21.59,3.21-1.7,1.59-1.83,2.6-3.52,3.63-4.88,1.87-2.47,2.93-4.92,3.2-9.7.02-.32.03-.66.04-1,.01-.42.02-.83.02-1.23,0-1.44-.09-2.8-.28-4.26-.28-2.15-.77-4.53-1.49-7.73-.44-1.95-.92-3.26-1.49-6.82-.2-1.24-.41-2.75-.63-4.67-.24-2.06-.27-3.33-.28-4.28,0-.1,0-.2,0-.3,0-.34,0-.63-.01-.9,0-.18-.01-.35-.03-.52-.12-1.13-.39-1.97-.72-2.88-.56-1.54-1.29-3.26-1.77-6.89-.24-1.76-.46-3.44-.67-5.07-.42-3.24-.81-6.29-1.19-9.36-.62-4.99-1.22-10.01-1.92-15.91-.05-.38-.09-.77-.14-1.16-.2-1.64-.4-3.36-.62-5.16-.05-.44-.11-.87-.16-1.32-1.17-9.34-4.87-21.04-8.82-33.87-.15-.49-.3-.98-.45-1.48-.09-.29-.18-.62-.27-.98-.13-.54-.3-1.89-.49-3.63-.4-3.79-.85-9.42-1.06-12.95-.41-6.62-4.2-66.81-6.84-76.72-.1-.37-.2-.71-.3-1.04-1.8-5.99-3.55-8.6-5.23-9.58,0,0,0,0,0,0-.08-.07-.53-.35-1.05-.63,0,0,0,0,0,0-.33-.18-.85-.47-1.3-.69-.08-.04-.16-.07-.24-.1-.32-.14-.64-.28-.95-.4-.22-.09-.45-.17-.68-.25-.21-.07-.41-.14-.62-.21-.31-.1-.64-.19-.96-.28l-25.65-13.14c-.06-.11-.13-.22-.19-.33-.38-.71-.73-1.55-1.04-2.48-.43-1.29-.75-3.34-.99-5.64-.2-1.92-.34-4-.44-5.94.11-.68.22-1.36.32-2.03.09-.64.17-1.26.25-1.88,1.49-1.56,2.74-3.42,3.75-5.89.2-.48.39-1,.58-1.54.14-.4.27-.82.4-1.25.42-.43.76-1.07,1.05-1.82.35-.89.65-2.04.92-3.14.19,0,.38-.03.55-.07,1.13-.23,1.86-1.24,2.42-2.77.08-.23.16-.46.23-.69.21-.66.33-1.25.43-1.65.23-.9.49-1.39.89-2.27.24-.54.49-1.38.64-2.48.07-.56.04-1.06-.08-1.48-.03-.12-.08-.23-.12-.34,0-.92-.13-1.73.02-2.55.01-.07.02-.15.04-.22.26-1.03.42-3.28-.39-4.33-.06-.08-.15-.15-.23-.2-.02-.02-.05-.04-.07-.06.15-.73.3-1.5.42-2.31.6-3.82.81-8.33.13-12.69-.53-3.36-1.48-6.56-2.95-9.36-1.59-3.13-3.58-5.68-5.74-7.69-3.2-3.24-7.5-5.65-12.43-6.79-2.71-.62-5.55-.85-8.44-.67-5.51.37-10.5,2.29-14.41,5.24-1.97,1.44-3.73,3.17-5.19,5.15-.38.51-.75,1.05-1.12,1.6-.68,1.01-1.35,2.09-1.95,3.26-.04.09-.09.17-.13.26,0,0,0,.01-.01.02-.54,1.12-1.06,2.29-1.51,3.55-.35.99-.65,2-.88,3.04-1.09,4.9-.92,10.18-.27,14.59-.02.14-.04.29-.06.44-.12,1.45.12,3.23.42,4.5.11.45.19.89.26,1.32-.04.02-.08.05-.11.07-.08.05-.15.09-.21.16-.22.24-.39.56-.5.92-.2.62-.24,1.37-.18,2.06.04.47.11.89.2,1.17.42,1.46-.06,2.5.43,4.31.67,2.46,1.32,3.17,2.06,4.43.26.44.59,1.11,1.04,1.67.38,1.11.91,2.2,1.7,2.65.31.18.65.28,1.04.24.27,1.12.55,2.17.81,3.07.88,3.06,2.05,5.33,3.48,7.18.57,1.12,1.2,2.16,1.88,3.13-.16,3.97-.48,9.04-1.15,12.17-.19.9-.42,1.7-.66,2.35-.07.19-.14.38-.22.54-.3.66-.61,1.27-.95,1.85l-24.31,12.46c-.76.19-1.5.39-2.21.62-.15.05-.31.1-.46.15-.25.09-.51.18-.75.27-.24.09-.48.19-.73.31-.31.15-.65.32-.75.37,0,0,0,0,0,0-.84.39-2.11,1.19-2.27,1.41,0,0,0,0,0,0-1.5,1-3.06,3.34-4.66,8.3-.23.7-.46,1.51-.69,2.41-2.67,10.52-6.37,69.82-6.77,76.38-.33,5.26-1.16,15.15-1.57,16.73,0,.04-.02.09-.03.12,0,0,0,.01,0,.02-.22.72-.44,1.44-.66,2.17-3.99,12.98-7.73,24.8-8.86,34.19-.31,2.62-.6,5.04-.88,7.33-1.36,11.36-2.32,19.45-3.78,30.34-.69,5.21-1.9,6.47-2.35,8.97-.07.35-.12.73-.14,1.15-.01.27,0,.62-.07,1.22-.04.41-.04.83-.07,1.32-.13,2.29-.35,3.63-.69,5.91,0,.03,0,.06-.01.1,0,.01,0,.03,0,.04-1.04,6.97-1.57,8.87-2.02,11.85-.9,5.86-.98,8.83-.51,12.59.55,4.41,1.42,6.83,3.34,9.24,1.1,1.39,1.76,2.25,2.68,2.83.37.23.71.44,1.04.69,1.82,1.38,1.76,1.03,2.57-.9,1-2.41.03-4.91.57-9.16.35-2.75.73-4.8,1.12-7.15.32-1.91.79-1.96,1.46-4,.35.16.88-.04.99-.44.14.9.61,2.78,1.51,3.51,1.04.84,2.71.58,2.91-.25.03-.09.03-.2-.01-.31-1.06-3.18-1.39-5.99-1.6-8.7-.31-3.94.17-7.74-.69-11.38-.28-1.18-.93-2.82-1.28-4.14-.14-.73-.23-1.41-.18-1.96,0-.12.03-.25.04-.38,0-.02,0-.04,0-.06.09-.84.27-1.73.49-2.66.76-3.12,2.25-6.75,4.14-11.03,3.54-8.01,5.57-12.93,10.57-27.24.33-.93.66-1.89,1.01-2.9,6.25-17.98,7.28-33.89,7.53-35.8.11-.86.27-1.82.45-2.82,1.61-8.8,5.73-22.4,8.47-34.02.05-.2.1-.41.15-.63.07-.3.15-.69.25-1.13.5-2.39,1.28-6.42,1.64-8.3.13.51.24,1.03.36,1.55.13,7.22-1.89,25.13-4.89,42.53-1.22,7.06-2.15,14.54-3.34,21.38-.22,1.25-.41,2.45-.6,3.61-3.93,11.48-5.21,15.93-5.41,16.52-3.13,9.12-7.93,21.14-8.09,41.23v.29c-.02,4.2.15,8.73.58,13.67,1.1,12.52,9.23,39.26,12.26,52.03,6.75,28.39,10.57,45.41,11.06,55.42.65,12.92-.83,16.97-2.15,24.79-2.56,15.22-.69,28.37,2.35,40.42,5.63,22.29,11.53,32.19,12.13,43.89.15,2.92-1.69,4.14-.68,7.83.53,1.92,1.43,3.76.07,8.04-4.59,14.49-10.56,18.28-9.86,23.57.79,5.86,17.35,5.49,23.84,4.17,5.34-1.08,5.27-10.06,3.73-20.33-.31-2.08-.47-4.4-.35-7.96.06-1.76.46-3.81.67-6.28.19-2.28-.37-4.69-.67-6.6-.23-1.44-.47-2.6-.51-3.21-1.43-22.38-.99-27.75,1.39-48.8,2.39-21.26-.97-25.07-.55-38.08.25-7.7,2.22-15.58,2.75-23.92.66-10.46-.25-20.35-1.18-27.79-2.58-20.57-2.56-23.89-3.39-40.16-.9-17.65,3.85-26.31,1.14-41.54.63.27,2.17.37,3.7.38,1.53.02,3.07-.11,3.7-.38-2.71,15.23,2.04,23.89,1.14,41.54-.83,16.27-.81,19.59-3.39,40.16-.93,7.44-1.84,17.33-1.18,27.79.53,8.34,2.5,16.22,2.75,23.92.42,13.01-2.94,16.82-.55,38.08,2.37,21.05,2.82,26.42,1.39,48.8-.04.61-.28,1.77-.51,3.21-.3,1.91-.86,4.32-.67,6.6.21,2.47.61,4.52.67,6.28.12,3.56-.04,5.88-.35,7.96-1.54,10.27-1.61,19.25,3.73,20.33,6.48,1.32,23.05,1.69,23.84-4.17.7-5.29-5.27-9.08-9.86-23.57-1.36-4.28-.46-6.12.07-8.04,1.01-3.69-.83-4.91-.68-7.83.6-11.7,6.5-21.6,12.13-43.89,3.04-12.05,4.91-25.2,2.35-40.42-1.32-7.82-2.8-11.87-2.16-24.79.5-10.01,4.32-27.03,11.07-55.42,3.03-12.77,11.16-39.51,12.26-52.03.43-4.94.6-9.47.58-13.67v-.29c-.16-20.09-4.96-32.11-8.09-41.23-.2-.58-1.47-4.99-5.34-16.32-.22-1.38-.46-2.83-.72-4.33-1.18-6.72-2.25-14.02-3.28-20.85h0c-3.09-17.54-5.01-35.63-4.8-42.92.11-.27.22-.54.34-.77.46,2.39,1.43,7.44,1.84,9.2,2.74,11.72,6.93,25.57,8.58,34.48.09.48.16.94.23,1.37.09.59.19,1.25.27,1.94.04.34.1.95.18,1.79.54,5.26,2.14,18.69,7.29,33.53.22.64.44,1.25.64,1.85.17.48.33.95.49,1.41,4.92,14.04,6.94,18.95,10.45,26.89.82,1.86,1.56,3.59,2.21,5.22,1.38,3.49,2.31,6.49,2.51,9.06.02.11.03.23.04.34,0,.04,0,.08,0,.12,0,.14-.01.3-.03.46-.18,1.77-1.51,4.85-2.03,6.85-1.75,6.81,1.79,12.51-2.25,21.41-.08.16-.05.3.04.41.42.52,2.48.35,3.8-1.21,1.89-2.24,2.52-8.13,2.63-7.75,0,.02.01.06.01.12.33,6.52,1.22,8.89,1.95,13.18.15.89.29,1.86.42,2.97.27,2.28.04,4.06-.12,5.51-.18,1.54-.29,2.71.33,3.7Z"/>
  </g>
</svg>