<?xml version="1.0" encoding="UTF-8"?>
<svg id="_레이어_2" data-name="레이어 2" xmlns="http://www.w3.org/2000/svg" viewBox="0 0 169.12 571.88">
  <defs>
    <style>
      .cls-1 {
        fill: #f2a7a9;
        stroke: #221714;
        stroke-miterlimit: 10;
      }
    </style>
  </defs>
  <g id="_레이어_1-2" data-name="레이어 1">
    <path class="cls-1" d="m40.08,104.79s-.09.03-.13.04c-.27.09-.53.18-.79.28-.18.07-.36.14-.53.21-.36.15-.75.33-1.13.51-.03.01-.05.02-.08.04-.51.26-1.04.56-1.25.68,0,0,0,0,0,0-.47.25-.89.52-1.07.67,0,0,0,0,0,0-1.62,1.11-3.3,3.81-5.03,9.64-.1.32-.19.68-.29,1.07-2.63,10.64-6.37,69.89-6.77,76.45-.26,4.28-.87,11.65-1.31,15.08-.08.63-.16,1.13-.22,1.43-.06.25-.11.47-.16.64-.19.63-.38,1.26-.58,1.89-3.99,12.98-7.73,24.8-8.86,34.19-.1.84-.2,1.66-.29,2.46-.11.93-.22,1.83-.33,2.71-.09.73-.18,1.45-.26,2.16-1.36,11.36-2.32,19.45-3.78,30.34-.55,4.18-1.44,5.83-2.01,7.6-.21.66-.38,1.33-.47,2.16-.01.1-.02.21-.02.32-.02.33-.03.69-.03,1.11,0,.75,0,1.7-.13,3.14-.04.43-.08.9-.15,1.43-.11.96-.22,1.83-.33,2.6-.71,5.19-1.28,6.6-1.8,8.89-1.36,5.98-1.89,9.11-1.76,13.22.05,1.38.15,2.57.31,3.64.14.93.33,1.76.56,2.51.54,1.78,1.33,3.16,2.38,4.55.68.9,1.37,1.96,2.21,3.1.43.58.89,1.17,1.42,1.78,2.05,2.35,2.51,2.67,3.27,1.62.08-.11.16-.23.25-.36.13-.2.22-.42.29-.64.01-.03.02-.06.03-.1,0-.03.01-.06.02-.09.47-1.83-.61-4.32-.14-8.38.61-5.2,1.52-7.39,2.06-12.16.13-1.15.24-2.44.32-3.96,0-.05,0-.09.01-.11.09-.68.71,5.42,2.64,7.71,1.39,1.65,3.61,1.75,3.85,1.12.04-.09.03-.19-.02-.31-4.04-8.9-.5-14.6-2.25-21.41-.45-1.73-1.5-4.26-1.9-6.06-.1-.44-.16-.84-.16-1.17,0-.08,0-.16.01-.23,0-.11.02-.22.04-.32.17-2.19.87-4.68,1.92-7.52.77-2.06,1.72-4.3,2.8-6.76,3.54-8,5.56-12.92,10.57-27.24.21-.61.43-1.23.65-1.88.12-.34.24-.67.36-1.02,1.16-3.33,2.13-6.59,2.96-9.71.01-.04.02-.08.03-.12,0-.02,0-.03.01-.05,3.6-13.61,4.32-24.38,4.52-25.92.09-.73.22-1.53.37-2.37.03-.16.06-.31.08-.47.76-4.08,2.04-9.21,3.48-14.68,1.07-4.05,2.21-8.29,3.29-12.46.64-2.49,1.26-4.96,1.82-7.34.19-.83.52-2.42.85-4.09.26-1.29.52-2.64.74-3.77.07-.35.13-.67.19-.96.12-.04.23-.04.33,0,1.21,9.16.04,26.65-3.73,43.29,0,0,0,0,0,0-.36,2.73-2.26,9.64-3.94,15.85-.54,1.41-1.08,2.81-1.6,4.2-.79,2.12-1.51,4.06-2.16,5.85-3.8,10.34-5.43,15.27-5.61,15.72-3.48,9.08-8.49,21.18-8.66,41.38v.14c-.03,4.24.15,8.82.61,13.82,1.17,12.52,9.82,39.26,13.04,52.03,7.18,28.38,11.24,45.41,11.76,55.42.68,12.92-.89,16.97-2.29,24.79-2.72,15.22-.74,28.37,2.5,40.42,5.99,22.28,12.26,32.19,12.9,43.89.16,2.92-1.81,4.14-.73,7.83.56,1.92,1.52,3.76.08,8.04-4.88,14.49-11.23,18.28-10.48,23.57.83,5.86,18.45,5.49,25.34,4.17,5.68-1.08,5.6-10.06,3.96-20.34-.33-2.07-.5-4.4-.37-7.95.07-1.76.5-3.81.72-6.28.21-2.28-.4-4.69-.72-6.6-.24-1.45-.49-2.61-.54-3.21-1.69-22.38-1.05-27.75,1.48-48.8,2.54-21.26-1.03-25.08-.58-38.08.27-7.64,2.33-15.46,2.9-23.73.58,8.27,2.64,16.09,2.9,23.73.45,13-3.12,16.82-.58,38.08,2.53,21.05,3.17,26.42,1.48,48.8-.05.6-.3,1.76-.54,3.21-.32,1.91-.93,4.32-.72,6.6.22,2.47.65,4.52.72,6.28.13,3.55-.04,5.88-.37,7.95-1.64,10.28-1.72,19.26,3.96,20.34,6.89,1.32,24.51,1.69,25.34-4.17.75-5.29-5.6-9.08-10.48-23.57-1.44-4.28-.48-6.12.08-8.04,1.08-3.69-.89-4.91-.73-7.83.64-11.7,6.91-21.61,12.9-43.89,3.24-12.05,5.22-25.2,2.5-40.42-1.4-7.82-2.97-11.87-2.29-24.79.52-10.01,4.58-27.04,11.76-55.42,3.22-12.77,11.87-39.51,13.04-52.03.46-5,.64-9.58.61-13.82v-.14c-.17-20.2-5.19-32.3-8.66-41.38-.17-.45-1.81-5.38-5.61-15.72-.66-1.79-1.37-3.73-2.16-5.85-.52-1.38-1.06-2.79-1.6-4.2-1.68-6.22-3.58-13.12-3.94-15.85,0,0,0,0,0,0-3.77-16.64-4.94-34.13-3.73-43.29.1-.04.21-.04.33,0,.06.29.12.62.19.96.22,1.13.48,2.48.74,3.77.33,1.67.65,3.26.85,4.09.56,2.38,1.17,4.84,1.82,7.34,1.07,4.17,2.22,8.41,3.29,12.46,1.44,5.48,2.72,10.6,3.48,14.68.03.16.06.31.08.47.15.84.28,1.63.37,2.37.2,1.55.92,12.31,4.52,25.92,0,.02,0,.03.01.05.01.04.02.08.03.12.83,3.11,1.8,6.38,2.96,9.71.12.35.24.69.36,1.02.22.64.44,1.27.65,1.88,5.01,14.31,7.04,19.23,10.57,27.24,1.09,2.46,2.04,4.7,2.8,6.76,1.05,2.84,1.75,5.33,1.92,7.52.01.1.03.21.04.32,0,.08.01.16.01.23,0,.33-.06.73-.16,1.17-.4,1.8-1.45,4.33-1.9,6.06-1.75,6.81,1.79,12.51-2.25,21.41-.05.12-.06.22-.02.31.25.63,2.46.53,3.85-1.12,1.93-2.29,2.54-8.39,2.64-7.71,0,.03,0,.06.01.11.08,1.52.19,2.82.32,3.96.54,4.77,1.45,6.96,2.06,12.16.47,4.06-.61,6.55-.14,8.38,0,.03.01.06.02.09,0,.03.02.06.03.1.07.22.17.43.29.64.09.14.17.26.25.36.76,1.05,1.21.73,3.27-1.62.54-.61,1-1.21,1.42-1.78.85-1.14,1.53-2.19,2.21-3.1,1.04-1.39,1.83-2.77,2.38-4.55.23-.76.42-1.58.56-2.51.16-1.06.26-2.26.31-3.64.13-4.11-.4-7.24-1.76-13.22-.52-2.29-1.09-3.7-1.8-8.89-.11-.78-.22-1.64-.33-2.6-.06-.53-.11-1-.14-1.43-.12-1.43-.13-2.39-.13-3.14,0-.42,0-.78-.02-1.11,0-.11-.01-.21-.02-.32-.09-.83-.26-1.51-.47-2.16-.57-1.77-1.46-3.41-2.01-7.6-1.46-10.89-2.42-18.98-3.78-30.34-.09-.71-.17-1.43-.26-2.16-.11-.88-.21-1.79-.33-2.71-.1-.8-.19-1.62-.29-2.46-1.13-9.39-4.86-21.21-8.86-34.19-.19-.63-.39-1.26-.58-1.89-.05-.17-.11-.39-.16-.64-.07-.3-.14-.8-.22-1.43-.44-3.43-1.04-10.8-1.31-15.08-.4-6.56-4.14-65.81-6.77-76.45-.1-.39-.19-.75-.29-1.07-1.73-5.83-3.41-8.53-5.03-9.64,0,0,0,0,0,0-.17-.16-.6-.42-1.07-.67,0,0,0,0,0,0-.21-.12-.74-.42-1.25-.68-.03-.01-.05-.02-.08-.04-.38-.19-.77-.37-1.13-.51-.17-.07-.35-.14-.53-.21-.26-.1-.53-.19-.79-.28-.04-.01-.09-.03-.13-.04l-26.82-13.74v.21c-.35-.64-.68-1.31-.98-2.05-1.11-2.7-1.57-10.21-1.75-15.34,2.54-2.35,4.51-5.38,5.74-10.41.22-.9.48-1.97.74-3.12.7.24,1.26.16,1.73-.12,1.4-.85,1.91-3.49,2.29-4.42.56-1.36,1.31-1.49,2.07-4.5.5-2-.37-3.32-.01-4.61.24-.87.36-3.32-.75-4.16-.1-.07-.22-.12-.34-.15-.02-.03-.04-.06-.06-.09,1.63-6.28,2.67-16.47-.76-24.28-1.48-3.39-3.32-6.12-5.25-8.29-4.52-5.5-11.92-9.13-20.33-9.21-8.41.09-15.81,3.71-20.33,9.21-1.93,2.17-3.77,4.9-5.25,8.29-3.43,7.81-2.39,18.01-.76,24.28-.02.03-.04.06-.06.09-.12.04-.24.08-.34.15-1.11.84-.99,3.29-.75,4.16.36,1.29-.51,2.61-.01,4.61.76,3.01,1.51,3.14,2.07,4.5.39.93.89,3.57,2.29,4.42.47.28,1.03.37,1.73.12.26,1.15.52,2.22.74,3.12,1.23,5.03,3.2,8.06,5.74,10.41-.18,5.13-.64,12.64-1.75,15.34-.3.73-.63,1.41-.98,2.05v-.21l-26.82,13.74Zm40.84,201.1c.63.24,2.11.38,3.63.38,1.53,0,3.01-.14,3.63-.38-2.89,15.23,2.17,23.89,1.21,41.54-.88,16.27-.87,19.59-3.6,40.16-.48,3.64-.96,7.86-1.24,12.45-.28-4.59-.76-8.81-1.24-12.45-2.73-20.57-2.72-23.89-3.6-40.16-.96-17.65,4.1-26.31,1.21-41.54Z"/>
  </g>
</svg>