<?xml version="1.0" encoding="UTF-8"?>
<svg id="_레이어_2" data-name="레이어 2" xmlns="http://www.w3.org/2000/svg" viewBox="0 0 169.75 571.77">
  <defs>
    <style>
      .cls-1 {
        fill: #f2a7a9;
        stroke: #221714;
        stroke-miterlimit: 10;
      }
    </style>
  </defs>
  <g id="_레이어_1-2" data-name="레이어 1">
    <path class="cls-1" d="m3.76,336.48c1.03,1.36,2.04,3.05,3.63,4.88,1.85,2.11,2.33,2.5,3.06,1.72.29-.21.5-.58.7-1.1.73-1.84-.5-4.35,0-8.58.76-6.46,1.98-8.28,2.38-16.17,0,0,0-.01,0-.02.14-.19.77,5.48,2.61,7.66,1.3,1.54,3.36,1.66,3.55,1.13.17-.2.25-.49.1-.83-3.69-8.61-.32-14.23-2.03-20.9-.57-2.2-2.15-5.7-2.06-7.34,0-.15.03-.3.05-.44.29-3.78,2.14-8.44,4.72-14.29,1.48-3.35,2.7-6.16,3.98-9.34.04-.17.09-.34.14-.5,1.8-5.7,3.92-11.01,6.24-17.39.2-.55.66-1.69,1.29-3.19,0-.01,0-.02.01-.03.08-.19.15-.38.23-.58,5.96-17.6,6.97-33.02,7.21-34.89.11-.87.27-1.82.46-2.83,1.65-8.91,5.84-22.76,8.58-34.48.43-1.83,1.46-7.18,1.9-9.52.05.26.1.53.16.79.04.25.08.49.12.74,2.12,18.76-1.28,26.27-4.84,42.47,0,0,0,0,0,0-.76,3.69-1.55,8.86-2.74,14.27-.47,1.61-1.01,3.27-1.61,4.94-4.64,12.89-4.66,13.1-7.94,22.29-3.27,9.16-8.49,21.17-8.66,41.37v.15c-.03,4.23.15,8.82.61,13.81,1.17,12.52,9.82,39.26,13.04,52.03,7.18,28.39,11.23,45.42,11.76,55.42.68,12.93-.89,16.97-2.29,24.8-2.73,15.21-.74,28.36,2.5,40.42,5.98,22.28,12.26,32.19,12.9,43.88.15,2.92-1.81,4.14-.73,7.83.57,1.93,1.52,3.77.07,8.05-4.88,14.48-11.22,18.27-10.47,23.56.83,5.86,18.44,5.5,25.34,4.18,5.67-1.09,5.6-10.06,3.96-20.34-.33-2.08-.5-4.4-.37-7.96.06-1.76.49-3.81.71-6.28.21-2.28-.39-4.69-.71-6.6-.24-1.44-.5-2.6-.54-3.21-1.52-22.38-1.05-27.75,1.47-48.79,2.55-21.27-1.02-25.08-.57-38.08.26-7.71,2.35-15.58,2.91-23.92.71-10.47-.26-20.36-1.25-27.8-2.74-20.57-2.72-23.89-3.61-40.15-.95-17.66,4.11-26.32,1.22-41.55.67.27,2.31.38,3.93.38,0,0,0,0,0,0h0c1.62-.01,3.26-.11,3.93-.38-2.89,15.23,2.17,23.89,1.22,41.55-.89,16.26-.87,19.58-3.61,40.15-.99,7.44-1.96,17.33-1.25,27.8.56,8.34,2.65,16.21,2.91,23.92.45,13-3.12,16.81-.57,38.08,2.52,21.04,2.99,26.41,1.47,48.79-.04.61-.3,1.77-.54,3.21-.32,1.91-.92,4.32-.71,6.6.22,2.47.65,4.52.71,6.28.13,3.56-.04,5.88-.37,7.96-1.64,10.28-1.71,19.25,3.96,20.34,6.9,1.32,24.51,1.68,25.34-4.18.75-5.29-5.59-9.08-10.47-23.56-1.45-4.28-.5-6.12.07-8.05,1.08-3.69-.88-4.91-.73-7.83.64-11.69,6.92-21.6,12.9-43.88,3.24-12.06,5.23-25.21,2.5-40.42-1.4-7.83-2.97-11.87-2.29-24.8.53-10,4.58-27.03,11.76-55.42,3.22-12.77,11.87-39.51,13.04-52.03.46-4.99.64-9.58.61-13.81v-.15c-.17-20.2-5.39-32.21-8.66-41.37-3.28-9.19-3.3-9.4-7.94-22.29-.67-1.86-1.25-3.71-1.77-5.49-1.14-5.23-1.91-10.2-2.64-13.73,0,0,0,0,0,0-3.56-16.09-6.96-23.21-4.68-43.01.1-.07.21-.05.34-.01.48,2.49,1.34,6.92,1.72,8.55,2.74,11.72,6.95,25.57,8.58,34.48.18,1,.34,1.96.45,2.82.24,1.89,1.27,17.64,7.42,35.5.63,1.5,1.09,2.65,1.29,3.19,2.36,6.59,4.57,12,6.4,17.87,1.28,3.2,2.5,6.02,3.99,9.38,2.58,5.85,4.43,10.51,4.72,14.28.02.14.04.3.05.44.07,1.65-1.49,5.15-2.05,7.34-1.75,6.81,1.78,12.51-2.25,21.41-.24.53.5.8,1.49.6.76-.15,1.67-.59,2.37-1.42,1.85-2.19,2.49-7.92,2.62-7.67,0,.02,0,.04,0,.07.4,7.86,1.62,9.68,2.37,16.13.55,4.71-.99,7.31.21,9.21.41.65.7.98,1.09.93.5-.04,1.16-.71,2.45-2.19,1.6-1.83,2.61-3.52,3.64-4.88,1.99-2.64,3.06-5.25,3.24-10.7.13-4.11-.4-7.24-1.76-13.22-.6-2.63-1.26-4.1-2.13-11.5-.26-2.27-.27-3.59-.27-4.56,0-.56,0-1-.05-1.43-.34-3.06-1.72-4.02-2.48-9.76-1.46-10.89-2.42-18.98-3.78-30.34-.28-2.29-.57-4.71-.88-7.33-1.13-9.39-4.87-21.21-8.86-34.19-.23-.74-.45-1.48-.68-2.22-.41-1.34-1.26-11.48-1.59-16.82-.41-6.67-4.26-67.76-6.9-76.98-1.97-6.87-3.88-9.63-5.71-10.54h0s-1.49-.9-2.39-1.31c-.88-.4-1.84-.73-2.85-1.02l-26.09-13.37c-.33-.62-.65-1.27-.94-1.97-1.11-2.7-1.57-10.21-1.75-15.34,2.54-2.35,4.51-5.38,5.74-10.41.22-.9.48-1.96.74-3.11.33.11.63.15.91.13,2.04-.14,2.66-3.58,3.11-4.68.56-1.36,1.31-1.49,2.07-4.5.5-2-.37-3.32-.01-4.61.24-.87.36-3.32-.75-4.16-.12-.09-.27-.14-.42-.18,1.64-6.27,2.7-16.51-.74-24.35-1.48-3.39-3.32-6.12-5.25-8.29-4.57-5.57-12.1-9.22-20.63-9.22-.54,0-1.08.01-1.61.04-7.88.42-14.77,3.95-19.06,9.18-1.93,2.16-3.77,4.9-5.25,8.29-3.44,7.84-2.38,18.08-.74,24.34-.16.04-.3.09-.42.18-1.11.84-.99,3.29-.75,4.16.35,1.29-.52,2.6-.01,4.61.76,3,1.5,3.14,2.07,4.5.5,1.2,1.2,5.26,3.77,4.6.1.08.2.15.31.21.24,1.04.47,2.02.68,2.84,1.23,5.03,3.2,8.06,5.74,10.41-.18,5.13-.64,12.64-1.75,15.34-.29.71-.61,1.36-.94,1.98l-26.07,13.36c-1.02.29-1.99.63-2.87,1.03-.9.41-2.39,1.3-2.39,1.3v.02c-1.83.91-3.74,3.67-5.71,10.54-2.64,9.21-6.49,70.3-6.9,76.97-.33,5.34-1.19,15.48-1.6,16.82-.23.75-.45,1.48-.67,2.23-3.97,12.99-7.73,24.8-8.86,34.19-.32,2.62-.61,5.04-.88,7.33-1.36,11.36-2.33,19.44-3.78,30.33-.77,5.75-2.16,6.7-2.49,9.76-.05.44-.04.88-.04,1.43,0,.97,0,2.29-.27,4.57-.86,7.39-1.52,8.87-2.12,11.5-1.36,5.98-1.9,9.1-1.76,13.22.17,5.45,1.25,8.06,3.24,10.7Z"/>
  </g>
</svg>