<?xml version="1.0" encoding="UTF-8"?>
<svg id="_레이어_2" data-name="레이어 2" xmlns="http://www.w3.org/2000/svg" viewBox="0 0 181.09 571.49">
  <defs>
    <style>
      .cls-1 {
        fill: #f3a9aa;
        stroke: #231815;
        stroke-miterlimit: 10;
      }
    </style>
  </defs>
  <g id="_레이어_1-2" data-name="레이어 1">
    <path class="cls-1" d="m40.52,105.43c2.67-1.13,5.97-1.75,9.48-2.41,3.66-.67,7.6-1.41,11.19-2.8,5.33-2.05,9.73-4.61,12.37-11.01,1.12-2.7,1.57-10.21,1.75-15.34-2.54-2.35-4.47-5.39-5.73-10.41-.23-.9-.49-1.97-.74-3.12-2.78.98-3.5-3.3-4.02-4.54-.57-1.36-1.33-1.49-2.08-4.5-.5-2,.37-3.32.01-4.61-.24-.87-.35-3.32.75-4.16.12-.09.27-.14.43-.19-1.65-6.26-2.7-16.51.73-24.34,1.49-3.39,3.32-6.12,5.26-8.29,4.56-5.58,12.1-9.22,20.62-9.22,0,0,0,0,.01,0,8.52,0,16.06,3.65,20.62,9.22,1.94,2.16,3.77,4.9,5.26,8.29,3.43,7.84,2.38,18.08.73,24.34.16.05.31.1.43.19,1.1.84.99,3.29.75,4.16-.36,1.29.51,2.6.01,4.61-.75,3.01-1.51,3.14-2.08,4.5-.52,1.24-1.24,5.52-4.02,4.54-.25,1.15-.52,2.22-.74,3.12-1.24,5.03-3.19,8.06-5.73,10.41.18,5.13.63,12.64,1.75,15.34,2.65,6.4,7.04,8.96,12.38,11.01,3.35,1.3,6.89,2.02,10.41,2.66.53.1,1.04.19,1.55.28,3.22.6,6.23,1.21,8.7,2.26.96.41,2.55,1.3,2.55,1.3v.02c1.96.91,3.99,3.67,6.09,10.54,2.82,9.21,6.93,70.31,7.36,76.97.35,5.34,1.27,15.48,1.7,16.82.24.75.49,1.49.73,2.23.03.11.07.22.11.32,4.19,12.86,8.15,24.55,9.35,33.87.34,2.61.65,5.03.94,7.33.02.11.03.21.04.32,1.35,11.2,2.46,19.23,3.99,30.02.81,5.74,2.3,6.7,2.66,9.76.05.44.05.88.05,1.42,0,.49,0,1.3.15,2.44.11,1.31.22,2.63.44,4.23.79,5.66,1.4,7.07,1.97,9.4,1.45,5.98,2.02,9.1,1.88,13.22-.19,5.44-1.34,8.05-3.46,10.69-1.1,1.36-2.18,3.06-3.88,4.88-2.42,2.6-2.76,2.72-3.74,1.26-1.29-1.9.35-4.5-.23-9.21-.8-6.46-2.09-8.28-2.53-16.17-.07-1.2-.69,5.27-2.83,7.64-1.7,1.88-4.55,1.75-4.09.81,4.31-8.9.54-14.6,2.4-21.41.6-2.2,2.28-5.7,2.2-7.34,0-.1-.02-.2-.03-.3,0-.1-.02-.19-.03-.29-.37-3.74-2.31-8.37-5.03-14.14-3.77-7.98-5.93-12.9-11.23-27.09-.19-.51-.38-1.04-.59-1.6-.35-.94-.71-1.9-1.05-2.88-6.21-17.38-7.26-32.51-7.52-34.36-.11-.82-.27-1.73-.45-2.68-.02-.1-.04-.19-.06-.29-1.76-8.92-6.22-22.69-9.13-34.34-.46-1.85-1.58-7.31-2.05-9.6-.13.51-.26,1.03-.39,1.55-1.22,9.13-1.33,27.53-.06,42.68,1.03,6.27,2.93,12.69,4.94,19.56s3.58,12.63,4.68,16.53c.48,1.31.78,2.18.98,2.54,0,.02.02.04.02.05.16.3.3.57.42.79.42.8.73,1.37.87,1.66.09.18.15.34.18.44,3.14,9.02,7.91,20.95,8.01,40.72,0,.1.01.2.01.3v.29c.02,4.19-.15,8.72-.58,13.66-1.1,12.52-9.23,39.26-12.26,52.03-6.75,28.39-10.57,45.42-11.07,55.42-.64,12.93.84,16.97,2.16,24.8,2.56,15.21.69,28.36-2.35,40.42-5.63,22.28-11.53,32.19-12.13,43.88-.15,2.92,1.69,4.14.68,7.83-.53,1.93-1.43,3.77-.07,8.05,4.59,14.48,10.56,18.27,9.86,23.56-.79,5.86-17.36,5.5-23.84,4.18-5.34-1.09-5.27-10.06-3.73-20.34.31-2.08.47-4.4.35-7.96-.06-1.76-.46-3.81-.67-6.28-.19-2.28.37-4.69.67-6.6.23-1.44.47-2.6.51-3.21,1.43-22.38.98-27.75-1.39-48.79-2.39-21.27.97-25.08.55-38.08-.25-7.71-2.22-15.58-2.75-23.93-.66-10.46.25-20.35,1.18-27.79,2.58-20.57,2.56-23.89,3.39-40.15.9-17.66-3.85-26.32-1.14-41.55-.63.27-2.17.39-3.7.38-1.53,0-3.07-.11-3.7-.38,2.71,15.23-2.04,23.89-1.14,41.55.83,16.26.81,19.58,3.39,40.15.93,7.44,1.84,17.33,1.18,27.79-.53,8.35-2.5,16.22-2.75,23.93-.42,13,2.94,16.81.55,38.08-2.38,21.04-2.82,26.41-1.39,48.79.04.61.28,1.77.51,3.21.3,1.91.86,4.32.67,6.6-.21,2.47-.61,4.52-.67,6.28-.12,3.56.04,5.88.35,7.96,1.54,10.28,1.61,19.25-3.73,20.34-6.49,1.32-23.05,1.68-23.84-4.18-.7-5.29,5.27-9.08,9.86-23.56,1.36-4.28.46-6.12-.07-8.05-1.01-3.69.83-4.91.68-7.83-.6-11.69-6.5-21.6-12.13-43.88-3.04-12.06-4.91-25.21-2.35-40.42,1.32-7.83,2.8-11.87,2.15-24.8-.49-10-4.31-27.03-11.06-55.42-3.03-12.77-11.16-39.51-12.26-52.03-.43-4.94-.6-9.47-.58-13.66v-.29c0-.1,0-.2.01-.3.1-19.92,4.99-31.86,8.08-40.93.02-.06.1-.22.22-.45.1-.19.24-.46.4-.77,0-.01,0-.02.01-.03.16-.3.46-1.15.97-2.51,1.11-4.16,3.16-11.16,5.67-19.7,1.68-5.7,3.23-11.08,4.33-16.27.23-1.1.45-2.19.63-3.27,0,0,0,0,0,0,1.22-14.13,1.19-30.66.1-39.47-.13-.53-.25-1.06-.39-1.58-.21-.15-.45-.11-.71,0-.4,1.96-.99,4.78-1.39,6.55-.26,1.11-.51,2.16-.72,2.98-1.28,5-2.8,10.32-4.25,15.45-1.69,5.98-3.28,11.68-4.25,16.27-.2.95-.38,1.86-.52,2.7-.01.08-.03.18-.05.28-.11.68-.23,1.53-.35,2.5-.45,3.72-1.84,17.61-7.49,33.34-.31.87-.62,1.71-.93,2.54-.37,1-.73,1.95-1.07,2.87-.04.11-.08.21-.12.31-4.68,12.26-6.78,17.29-10.08,24.33-.37.78-.73,1.56-1.09,2.34-2.2,4.74-3.81,8.68-4.32,11.97-.02.15-.05.3-.07.45-.07.55-.05,1.16.01,1.8,0,.09.02.19.02.28,0,.05,0,.1.01.14.23,1.44,1.1,3.54,1.66,5.25.23.71.42,1.41.55,2.05,1.24,6.17-1.67,11.57,1.83,19.55.22.51,0,.88-.27,1.15-.29.28-1.61.23-2.78-.62-.41-.3-.8-.7-1.13-1.2-1.43-2.15-2-5.98-2.21-6.38-.13-.24-.19-.28-.22.17-.44,7.01-1.62,9.04-2.4,14.8-.06.42-.1.83-.14,1.25-.35,3.94.81,6.32.03,8.08-.16.36-.34.66-.55.9-.76.86-1.26.61-3.06-1.3-.22-.23-.44-.47-.67-.72-1.38-1.54-2.34-2.97-3.29-4.17-.18-.23-.35-.46-.53-.68-1.91-2.48-2.97-5.03-3.19-10.02,0-.22-.02-.45-.02-.67-.1-3.9.46-6.99,1.83-12.66.03-.14.07-.28.1-.43.63-2.52,1.31-4.1,2.22-11.3.26-2.07.28-3.35.29-4.29,0-.05,0-.24,0-.28,0-.55,0-.99.05-1.42.35-3.06,1.84-4.02,2.65-9.76,1.55-10.84,2.65-18.9,4.02-30.19.01-.1.02-.19.04-.29.28-2.25.59-4.63.92-7.19,1.19-9.36,5.19-21.11,9.4-34.04.04-.1.07-.2.1-.3.22-.69.45-1.38.68-2.08.44-1.33,1.34-11.48,1.7-16.82.43-6.67,4.54-67.76,7.36-76.97,2.1-6.88,4.14-9.63,6.09-10.54v-.02s1.59-.89,2.55-1.3Z"/>
  </g>
</svg>