<?xml version="1.0" encoding="UTF-8"?>
<svg id="_레이어_2" data-name="레이어 2" xmlns="http://www.w3.org/2000/svg" viewBox="0 0 181.09 571.64">
  <defs>
    <style>
      .cls-1 {
        fill: #f3a9aa;
        stroke: #231815;
        stroke-miterlimit: 10;
      }
    </style>
  </defs>
  <g id="_레이어_1-2" data-name="레이어 1">
    <path class="cls-1" d="m40.52,105.43c-.96.41-2.55,1.3-2.55,1.3v.02c-1.95.91-3.99,3.67-6.09,10.54-2.82,9.21-6.93,70.31-7.36,76.97-.36,5.34-1.26,15.48-1.7,16.82-.25.75-.49,1.49-.73,2.23-.03.11-.07.22-.11.32-4.19,12.86-8.15,24.55-9.34,33.87-.34,2.61-.65,5.03-.94,7.33-.02.11-.03.21-.04.32-1.36,11.2-2.46,19.23-4,30.02-.81,5.74-2.3,6.7-2.65,9.76-.05.44-.05.88-.05,1.42,0,.49,0,1.3-.14,2.44-.11,1.31-.22,2.63-.44,4.23-.79,5.66-1.4,7.07-1.97,9.4-1.45,5.98-2.02,9.1-1.88,13.22.19,5.44,1.34,8.05,3.46,10.69,1.1,1.36,2.18,3.06,3.88,4.88,2.42,2.6,2.76,2.72,3.74,1.26,1.29-1.91-.35-4.5.24-9.21.8-6.46,2.09-8.28,2.53-16.17.07-1.2.69,5.27,2.83,7.64,1.69,1.88,4.55,1.75,4.09.81-4.31-8.9-.54-14.6-2.4-21.41-.61-2.2-2.28-5.7-2.2-7.34,0-.1.02-.2.03-.3,0-.1.02-.19.03-.29.36-3.74,2.3-8.37,5.03-14.14,3.76-7.98,5.89-12.91,11.22-27.09.19-.52.39-1.04.59-1.6.35-.94.7-1.9,1.05-2.88,6.21-17.38,7.26-32.51,7.52-34.36.11-.82.27-1.73.46-2.68.02-.1.04-.2.06-.29.87-4.42,2.41-10.03,4.09-15.99,1.71-6.06,3.57-12.48,5.04-18.36.46-1.85,1.59-7.31,2.05-9.6.14.51.26,1.03.4,1.55,1.21,9.13,1.33,27.53.05,42.68,0,0-.01,0-.01.01-1.03,6.27-3.1,12.65-5.57,19.28-1.53,4.11-2.66,7.48-3.58,10.31-2.05,3.36-3.43,5.91-4.99,9.7-.04.1-.08.19-.12.29-.41,1.01-.82,2.09-1.26,3.25-.04.1-.07.19-.11.29-3.25,8.58-7.56,19.88-7.95,37.66,0,.1,0,.19-.01.29,0,.02,0,.12,0,.15-.02.94-.03,1.89-.03,2.86,0,.09,0,.18,0,.28,0,.02,0,.12,0,.14.02,3.32.17,6.86.47,10.63.08.98.19,2.01.32,3.08,1.61,12.96,9.75,38.22,12.85,50.51,7.18,28.39,11.23,45.41,11.76,55.42.68,12.93-.89,16.97-2.29,24.8-2.73,15.21-.74,28.36,2.5,40.42,5.98,22.28,12.26,32.19,12.9,43.88.15,2.92-1.81,4.14-.73,7.83.57,1.93,1.52,3.77.07,8.05-4.88,14.48-11.22,18.27-10.47,23.56.83,5.86,18.44,5.5,25.34,4.18,5.67-1.09,5.6-10.06,3.96-20.34-.33-2.08-.5-4.4-.37-7.96.06-1.76.49-3.81.71-6.28.21-2.28-.39-4.69-.71-6.6-.24-1.44-.5-2.6-.54-3.21-1.52-22.38-1.05-27.75,1.47-48.79,2.55-21.27-1.02-25.08-.57-38.08.26-7.71,2.35-15.58,2.91-23.93.71-10.46-.26-20.35-1.25-27.79-2.74-20.57-2.72-23.89-3.61-40.15-.95-17.66,4.11-26.32,1.22-41.55.67.27,2.31.37,3.93.38,1.63.01,3.27-.11,3.94-.38-2.89,15.23,2.17,23.89,1.21,41.55-.88,16.26-.87,19.58-3.6,40.15-.99,7.44-1.96,17.33-1.26,27.79.56,8.35,2.65,16.22,2.92,23.93.45,13-3.12,16.81-.58,38.08,2.53,21.04,3.16,26.42,1.48,48.79-.05.61-.3,1.77-.54,3.21-.32,1.91-.93,4.32-.72,6.6.22,2.47.65,4.52.72,6.28.13,3.56-.04,5.88-.37,7.96-1.64,10.28-1.72,19.25,3.96,20.34,6.89,1.32,24.51,1.68,25.34-4.18.75-5.29-5.6-9.08-10.48-23.56-1.44-4.28-.49-6.12.08-8.05,1.08-3.69-.89-4.91-.73-7.83.64-11.69,6.91-21.6,12.9-43.88,3.24-12.06,5.22-25.21,2.5-40.42-1.4-7.83-2.97-11.87-2.29-24.8.52-10.01,4.58-27.03,11.76-55.42,3.22-12.77,11.87-39.51,13.04-52.03.46-4.99.64-9.58.61-13.81v-.15c0-.1,0-.19,0-.29-.11-20.01-5.19-32.05-8.65-41.08-.04-.1-.08-.2-.12-.3-1.62-4.15-2.89-6.77-4.71-9.84-1.12-3.63-2.61-7.97-4.81-13.81-2.01-5.37-3.69-10.56-4.86-15.61-.28-1.23-.54-2.44-.74-3.64-1.21-14.01-1.19-30.34-.11-39.11.13-.53.25-1.06.38-1.59.23-.17.5-.12.78,0,.39,1.88.94,4.52,1.32,6.23.28,1.23.56,2.39.79,3.3,2.75,10.74,6.63,22.95,8.43,31.43.21,1,.39,1.95.54,2.83.01.08.03.18.05.28.11.68.23,1.53.35,2.5.45,3.72,1.84,17.62,7.49,33.34.31.87.62,1.71.93,2.54.37,1,.73,1.95,1.07,2.87.04.11.08.21.12.31,4.68,12.26,6.78,17.29,10.09,24.33.36.78.73,1.56,1.09,2.34,2.2,4.74,3.81,8.68,4.32,11.97.02.15.05.3.07.45.08.55.05,1.16,0,1.8,0,.09-.02.19-.02.28,0,.05,0,.1-.01.14-.23,1.44-1.1,3.54-1.65,5.24-.23.72-.42,1.41-.55,2.05-1.24,6.17,1.67,11.57-1.83,19.55-.22.51,0,.89.27,1.15.29.28,1.61.23,2.78-.62.41-.3.8-.71,1.13-1.2,1.42-2.15,2-5.97,2.21-6.37.13-.24.19-.28.22.17.44,7.01,1.62,9.04,2.4,14.79.06.42.1.84.14,1.26.35,3.93-.82,6.31-.03,8.08.16.37.34.66.55.9.77.86,1.26.61,3.07-1.3.22-.23.44-.47.67-.72,1.38-1.54,2.34-2.97,3.28-4.17.18-.23.36-.46.53-.68,1.91-2.48,2.97-5.03,3.19-10.01,0-.22.02-.45.02-.67.1-3.9-.46-6.99-1.83-12.66-.03-.14-.07-.29-.1-.43-.63-2.52-1.32-4.1-2.22-11.3-.26-2.07-.28-3.35-.29-4.29,0-.05,0-.24,0-.28,0-.55,0-.99-.05-1.42-.35-3.06-1.84-4.02-2.65-9.76-1.55-10.84-2.65-18.9-4.02-30.19-.01-.1-.02-.19-.04-.29-.28-2.25-.59-4.63-.92-7.19-1.2-9.36-5.19-21.11-9.41-34.04-.04-.1-.07-.2-.1-.3-.22-.69-.45-1.38-.68-2.08-.43-1.33-1.34-11.48-1.7-16.82-.44-6.67-4.55-67.76-7.37-76.97-2.1-6.88-4.13-9.63-6.09-10.54v-.02s-1.58-.89-2.55-1.3c-2.47-1.05-5.47-1.66-8.69-2.26-.51-.09-1.04-.19-1.57-.29-3.52-.64-7.06-1.36-10.4-2.66-5.33-2.05-9.73-4.61-12.38-11.01-1.11-2.7-1.57-10.21-1.74-15.34,2.54-2.35,4.49-5.38,5.73-10.41.22-.9.49-1.97.74-3.12,2.78.98,3.5-3.3,4.02-4.54.57-1.36,1.33-1.49,2.08-4.5.5-2-.37-3.32,0-4.61.24-.87.35-3.32-.76-4.16-.11-.09-.26-.14-.43-.19,1.65-6.26,2.7-16.51-.73-24.34-1.49-3.39-3.32-6.12-5.26-8.29-4.56-5.58-12.1-9.22-20.62-9.22,0,0,0,0-.01,0-8.52,0-16.06,3.65-20.61,9.22-1.94,2.16-3.77,4.9-5.26,8.29-3.43,7.84-2.38,18.08-.73,24.34-.16.05-.31.09-.43.19-1.1.83-.99,3.29-.75,4.16.36,1.29-.51,2.6,0,4.61.75,3.01,1.51,3.14,2.08,4.5.52,1.24,1.24,5.52,4.02,4.54.25,1.15.51,2.22.74,3.12,1.26,5.02,3.19,8.06,5.73,10.41-.18,5.13-.63,12.64-1.75,15.34-2.64,6.4-7.04,8.96-12.37,11.01-3.35,1.3-6.9,2.02-10.42,2.66-.53.1-1.04.19-1.55.28-3.22.6-6.23,1.21-8.71,2.26Z"/>
  </g>
</svg>