<?xml version="1.0" encoding="UTF-8"?>
<svg id="_레이어_2" data-name="레이어 2" xmlns="http://www.w3.org/2000/svg" viewBox="0 0 181.09 571.71">
  <defs>
    <style>
      .cls-1 {
        fill: #f3a9aa;
        stroke: #231815;
        stroke-miterlimit: 10;
      }
    </style>
  </defs>
  <g id="_레이어_1-2" data-name="레이어 1">
    <path class="cls-1" d="m40.52,105.36c-.96.41-2.55,1.3-2.55,1.3h0c-1.95.92-3.99,3.68-6.09,10.55-2.82,9.22-6.93,70.31-7.36,76.98-.36,5.33-1.26,15.48-1.7,16.81-.25.75-.5,1.49-.73,2.23-.03.1-.06.21-.1.31-4.19,12.87-8.16,24.56-9.35,33.88-.34,2.62-.65,5.04-.94,7.33-.02.1-.03.21-.04.31-1.31,11.21-2.46,19.24-4,30.03-.81,5.74-2.3,6.7-2.65,9.76-.05.43-.05.87-.05,1.42,0,.24,0,.8-.07,1.37-.06,1.12-.12,2.43-.37,4.25-.86,6.53-1.52,7.97-2.12,10.45-1.45,5.98-2.02,9.11-1.88,13.22.19,5.45,1.34,8.05,3.46,10.69,1.1,1.36,2.18,3.06,3.88,4.88,2.42,2.6,2.76,2.73,3.74,1.27,1.29-1.91-.35-4.5.24-9.21.8-6.46,2.09-8.28,2.53-16.17.07-1.2.69,5.27,2.83,7.64,1.69,1.88,4.55,1.75,4.09.81-4.31-8.9-.54-14.6-2.4-21.41-.61-2.2-2.28-5.7-2.2-7.34,0-.07.02-.15.03-.22,0-.1.02-.2.03-.29.36-3.76,2.29-8.4,5.03-14.21,3.76-7.97,5.86-12.9,11.2-27.02.12-.31.23-.62.35-.95.35-.93.71-1.89,1.07-2.89,6.43-17.68,7.51-33.2,7.77-35.08.11-.8.27-1.69.45-2.6.02-.1.04-.2.06-.3.87-4.43,2.41-10.05,4.09-16.03,1.71-6.07,3.58-12.49,5.04-18.38.46-1.85,1.59-7.31,2.05-9.6.14.51.27,1.03.4,1.55,2.24,10.99,3.85,29.25,3.21,42.75,0,0-.02,0-.02,0-1.06,5.93-3.68,12.03-7.04,18.89-2.02,4.12-3.53,7.3-4.76,9.95-2.17,3.51-3.61,6.04-5.14,9.65-.04.09-.08.19-.12.28-.42,1-.84,2.08-1.29,3.26-.04.1-.08.2-.12.29-3.26,8.55-7.68,19.8-8.26,37.71,0,.1,0,.19-.01.29,0,.04,0,.11,0,.15-.03.94-.05,1.9-.05,2.87,0,.1,0,.19,0,.28,0,.01,0,.14,0,.15,0,3.33.12,6.87.41,10.66.08,1,.17,2.03.29,3.1,1.39,12.74,9.78,38.74,12.94,51.27,7.18,28.39,11.23,45.41,11.76,55.42.68,12.93-.89,16.97-2.29,24.8-2.73,15.21-.74,28.36,2.5,40.42,5.98,22.28,12.26,32.19,12.9,43.88.15,2.92-1.81,4.14-.73,7.83.57,1.93,1.52,3.77.07,8.05-4.88,14.48-11.22,18.27-10.47,23.56.83,5.86,18.44,5.5,25.34,4.18,5.67-1.09,5.6-10.06,3.96-20.34-.33-2.08-.5-4.4-.37-7.96.06-1.76.49-3.81.71-6.28.21-2.28-.39-4.69-.71-6.6-.24-1.44-.5-2.6-.54-3.21-1.52-22.38-1.05-27.75,1.47-48.79,2.55-21.27-1.02-25.08-.57-38.08.26-7.71,2.35-15.58,2.91-23.93.71-10.46-.26-20.35-1.25-27.79-2.74-20.57-2.72-23.89-3.61-40.15-.95-17.66,4.11-26.32,1.22-41.55.67.27,2.31.37,3.93.38,1.63.01,3.27-.11,3.94-.38-2.89,15.23,2.17,23.89,1.21,41.55-.88,16.26-.87,19.58-3.6,40.15-.99,7.44-1.96,17.33-1.26,27.79.56,8.35,2.65,16.22,2.92,23.93.45,13-3.12,16.81-.58,38.08,2.53,21.04,3.15,26.42,1.48,48.79-.05.61-.3,1.77-.54,3.21-.32,1.91-.93,4.32-.72,6.6.22,2.47.65,4.52.72,6.28.13,3.56-.04,5.88-.37,7.96-1.64,10.28-1.72,19.25,3.96,20.34,6.89,1.32,24.51,1.68,25.34-4.18.75-5.29-5.6-9.08-10.48-23.56-1.44-4.28-.49-6.12.08-8.05,1.08-3.69-.89-4.91-.73-7.83.64-11.69,6.91-21.6,12.9-43.88,3.24-12.06,5.22-25.21,2.5-40.42-1.4-7.83-2.97-11.87-2.29-24.8.52-10.01,4.58-27.03,11.76-55.42,3.22-12.77,11.87-39.51,13.04-52.03.46-4.99.64-9.58.61-13.81v-.15c0-.1,0-.19,0-.29-.11-20.01-5.18-32.05-8.65-41.08-.04-.1-.08-.2-.12-.3-1.62-4.16-2.9-6.78-4.73-9.86-1.49-3.37-3.41-7.33-6.37-13.32-2.69-5.46-4.85-10.47-6.2-15.24-.35-1.23-.64-2.43-.85-3.63-.6-12.42.7-28.61,2.71-39.24.13-.54.26-1.08.39-1.6.26-.67.54-1.21.82-1.7.34,1.65.88,4.28,1.31,6.25.29,1.31.57,2.51.77,3.32,2.69,10.64,6.57,22.87,8.49,31.53.22,1,.41,1.95.58,2.84.02.09.04.19.05.29.14.79.28,1.64.39,2.52.35,2.77,1.56,17.08,7.37,33.48.28.8.57,1.58.86,2.37.37,1.01.73,1.96,1.08,2.88.04.11.07.2.11.31,4.77,12.43,6.86,17.59,10.08,24.46.36.77.72,1.55,1.1,2.34,2.21,4.73,3.88,8.67,4.5,11.98.03.15.06.31.08.46.1.59.13,1.2.13,1.81,0,.1,0,.19,0,.29,0,.05,0,.1,0,.15-.09,1.31-.95,3.45-1.59,5.27-.25.72-.47,1.42-.62,2.04-1.5,6.27,1.56,11.68-1.76,19.66-.22.52-.22,1-.23,1.4-.01.51,1.41.6,2.75-.2.45-.27.88-.64,1.25-1.11,1.4-1.83,2.05-5.33,2.35-6.43.17-.63.25-.94.28-.49.43,7.18,1.59,9.24,2.38,14.85.06.41.11.83.15,1.25.42,3.93-.7,6.35-.11,8.14.12.36.28.68.49.95.83,1.08,1.25.97,3.06-.93.21-.22.44-.46.67-.72,1.4-1.53,2.38-2.96,3.31-4.18.18-.24.36-.46.54-.69,1.97-2.5,3.07-5.02,3.31-10.01.01-.22.02-.45.03-.68.12-3.95-.43-7.03-1.8-12.71-.04-.15-.07-.29-.11-.44-.63-2.57-1.33-4.1-2.25-11.4-.26-2.06-.28-3.34-.29-4.28,0-.02,0-.27,0-.29,0-.55,0-.99-.05-1.42-.35-3.06-1.84-4.02-2.65-9.76-1.54-10.82-2.68-18.86-4.01-30.11-.01-.1-.02-.2-.04-.3-.29-2.27-.59-4.67-.93-7.26-1.19-9.34-5.18-21.07-9.38-33.96-.04-.1-.07-.2-.1-.3-.23-.72-.47-1.43-.7-2.16-.43-1.33-1.34-11.48-1.7-16.81-.43-6.67-4.54-67.76-7.36-76.98-2.1-6.87-4.14-9.63-6.09-10.54h0s-1.59-.9-2.55-1.31c-2.47-1.05-5.47-1.66-8.69-2.26-.51-.09-1.03-.19-1.57-.29-3.44-.62-7.19-1.34-10.4-2.59-5.33-2.05-9.73-4.61-12.37-11.01-1.12-2.7-1.57-10.21-1.75-15.34,2.54-2.35,4.48-5.38,5.73-10.41.22-.9.49-1.97.74-3.12,2.78.98,3.5-3.3,4.02-4.54.57-1.36,1.33-1.49,2.08-4.5.5-2-.37-3.32,0-4.61.24-.87.35-3.32-.75-4.16-.12-.09-.27-.14-.43-.18,1.65-6.27,2.7-16.51-.73-24.35-1.49-3.39-3.32-6.12-5.26-8.29-4.56-5.57-12.1-9.22-20.62-9.22,0,0,0,0-.01,0-8.52,0-16.06,3.65-20.62,9.22-1.94,2.17-3.77,4.9-5.26,8.29-3.43,7.84-2.38,18.08-.73,24.35-.16.04-.31.09-.43.18-1.1.83-.99,3.29-.75,4.16.36,1.29-.51,2.61,0,4.61.75,3.01,1.51,3.14,2.08,4.5.52,1.24,1.24,5.52,4.02,4.54.25,1.15.51,2.22.74,3.12,1.26,5.02,3.19,8.06,5.73,10.41-.18,5.13-.63,12.64-1.75,15.34-2.64,6.4-7.04,8.96-12.37,11.01-3.22,1.25-6.98,1.97-10.43,2.59-.53.1-1.04.19-1.54.28-3.22.6-6.23,1.21-8.7,2.26Z"/>
  </g>
</svg>