<?xml version="1.0" encoding="UTF-8"?>
<svg id="_레이어_2" data-name="레이어 2" xmlns="http://www.w3.org/2000/svg" viewBox="0 0 181.09 572.09">
  <defs>
    <style>
      .cls-1 {
        fill: #f3a9aa;
        stroke: #231815;
        stroke-miterlimit: 10;
      }
    </style>
  </defs>
  <g id="_레이어_1-2" data-name="레이어 1">
    <path class="cls-1" d="m178.69,312.27c-.6-2.48-1.26-3.94-2.11-10.3-.08-.66-.15-1.33-.23-2.04-.08-.59-.12-1.1-.16-1.55-.05-.76-.06-1.37-.06-1.87v-.3c0-.55,0-.99-.05-1.42-.35-3.06-1.84-4.02-2.65-9.76-1.54-10.79-2.57-18.84-4-30.04,0-.1-.02-.2-.04-.3-.29-2.29-.6-4.71-.94-7.33-1.19-9.32-5.16-21.02-9.35-33.89-.04-.1-.07-.2-.1-.3-.24-.74-.48-1.48-.73-2.23-.43-1.33-1.34-11.48-1.7-16.81-.43-6.67-4.54-67.76-7.36-76.98-2.1-6.87-4.14-9.63-6.09-10.54h0s-1.59-.9-2.55-1.31c-2.47-1.05-5.47-1.66-8.69-2.26-3.66-.67-8.39-1.41-11.98-2.8-5.33-2.05-9.73-4.61-12.37-11.01-1.12-2.7-1.57-10.21-1.75-15.34,2.54-2.35,4.5-5.38,5.73-10.41.23-.9.49-1.97.74-3.12.35.12.66.16.95.14,2.01-.18,2.62-3.59,3.07-4.68.57-1.36,1.33-1.49,2.08-4.5.5-2-.37-3.32,0-4.61.24-.87.35-3.32-.75-4.16-.06-.04-.13-.08-.2-.11-.07-.03-.15-.05-.23-.08,1.65-6.27,2.7-16.51-.73-24.34-.45-1.02-.93-1.97-1.43-2.87-1.08-1.94-2.28-3.63-3.52-5.06-.1-.12-.2-.24-.3-.35-.2-.24-.41-.48-.62-.71-3.64-4.08-8.92-7.02-14.99-8.07-1.62-.28-3.29-.44-5-.44h-.01c-8.52,0-16.06,3.64-20.62,9.22-1.94,2.16-3.77,4.9-5.26,8.29-2.79,6.37-2.62,14.33-1.57,20.44.24,1.41.53,2.72.84,3.9-.16.05-.31.1-.43.19-1.1.83-.99,3.29-.75,4.16.36,1.29-.51,2.6,0,4.61.1.39.2.73.29,1.03.61,1.91,1.22,2.25,1.7,3.27.03.06.06.13.09.19.46,1.09,1.06,4.5,3.07,4.68.29.03.6-.01.95-.14.02.08.03.15.05.23.21.96.43,1.86.63,2.65.02.08.04.16.06.24.02.07.04.12.05.19,1.13,4.52,2.87,7.4,5.09,9.64.19.2.39.4.59.58-.18,5.13-.63,12.64-1.75,15.34-2.64,6.4-7.04,8.96-12.37,11.01,0,0-.02,0-.02,0-3.59,1.38-8.3,2.12-11.96,2.79-3.22.6-6.22,1.21-8.69,2.26-.96.41-2.55,1.3-2.55,1.3h0c-1.95.92-3.99,3.68-6.09,10.55-2.82,9.22-6.93,70.31-7.36,76.98-.36,5.33-1.27,15.48-1.7,16.81-.25.75-.49,1.49-.73,2.23-.03.1-.06.2-.1.3-4.19,12.87-8.16,24.57-9.35,33.89-.34,2.62-.65,5.04-.94,7.33-.02.1-.03.2-.04.3-1.43,11.2-2.46,19.25-4,30.04-.81,5.74-2.3,6.7-2.65,9.76-.05.43-.05.87-.05,1.42v.12s0,.07,0,.1v.14c-.01.93-.04,2.2-.29,4.2-.93,7.4-1.63,8.87-2.27,11.5-1.31,5.42-1.9,8.5-1.9,12.09,0,.12,0,.24,0,.36h0c0,.17,0,.33,0,.49,0,.22.01.44.02.67.2,4.98,1.22,7.56,3.07,10.02.17.22.34.45.52.67.95,1.19,1.9,2.62,3.26,4.16.22.25.44.49.66.73,1.8,1.92,2.37,2.33,3.07,1.68.21-.2.4-.48.61-.85.17-.31.26-.65.32-1,.25-1.22-.14-2.73-.27-4.79-.04-.69-.05-1.42,0-2.23.03-.41.07-.83.12-1.25.76-5.89,1.95-7.9,2.42-14.73.03-.46.09-.69.16-.84.15-.3.64,3.83,2.07,6.33.3.51.64.95,1.02,1.29,1,.9,2.24,1.13,2.81,1.04.08-.01.16-.03.24-.06.56-.05.88-.29.7-.66-1.34-2.77-1.9-5.23-2.09-7.51,0-.03,0-.07,0-.1-.03-.33-.04-.65-.05-.96,0-.3-.02-.59-.02-.88h0c0-2.04.21-3.95.28-5.85.09-2.01.06-4-.52-6.1-.44-1.6-1.44-3.87-1.92-5.63,0,0,0,0,0-.01-.02-.09-.03-.18-.05-.28-.12-.66-.2-1.27-.15-1.78.01-.14.05-.3.06-.45.38-3.27,1.94-7.2,4.14-11.96.35-.77.72-1.55,1.09-2.33,3.4-7.22,5.5-12.11,10.09-24.2.04-.11.08-.21.12-.32.34-.91.7-1.86,1.07-2.85.33-.88.67-1.78,1.01-2.72,5.49-15.05,7.08-28.53,7.61-33.2.12-1.07.23-1.91.31-2.49.01-.1.03-.19.04-.26.14-.89.32-1.88.54-2.9.93-4.54,2.51-10.23,4.2-16.24,1.38-4.88,2.84-9.95,4.09-14.77.29-1.1.6-2.35.9-3.61.32-1.38.84-3.83,1.27-5.87.31-.79.6-1.51.82-1.86.14.51.26,1.04.39,1.56.14,6.87-1.11,23.13-2.91,38.6,0,0,0,0,0,0-.21,1.33-.48,2.67-.78,4.01-1.22,5.45-2.8,10.95-4.19,16.33-.31,1.19-.58,2.32-.85,3.42-7.37,10.23-8.72,12.53-12.4,20.81-.02.05-.04.1-.06.15-3.75,9.09-9.49,21.1-9.75,41.23v.29c-.04,4.28.16,8.91.69,13.96,1.31,12.52,10.98,39.26,14.59,52.03,8.02,28.39,12.56,45.42,13.15,55.42.77,12.93-.99,16.97-2.56,24.8-3.05,15.21-.82,28.36,2.8,40.42,6.69,22.28,13.71,32.19,14.43,43.88.17,2.92-2.02,4.14-.81,7.83.63,1.93,1.69,3.77.08,8.05-5.46,14.48-12.57,18.27-11.73,23.56.93,5.86,20.64,5.5,28.36,4.18,6.35-1.09,6.26-10.06,4.43-20.34-.37-2.08-.56-4.4-.42-7.96.08-1.76.55-3.81.8-6.28.23-2.28-.43-4.69-.8-6.6-.27-1.44-.55-2.6-.6-3.21-1.7-22.38-1.17-27.75,1.65-48.79,2.85-21.27-1.15-25.08-.65-38.08.3-7.71,2.64-15.58,3.27-23.93.79-10.46-.3-20.35-1.41-27.79-3.06-20.57-3.04-23.89-4.03-40.15-1.07-17.66,4.59-26.32,1.36-41.55.75.27,2.58.37,4.4.38,1.82.01,3.65-.11,4.4-.38-3.23,15.23,2.43,23.89,1.36,41.55-.99,16.26-.97,19.58-4.03,40.15-1.11,7.44-2.19,17.33-1.4,27.79.62,8.35,2.96,16.22,3.26,23.93.5,13-3.5,16.81-.64,38.08,2.82,21.04,3.35,26.41,1.64,48.79-.05.61-.33,1.77-.6,3.21-.36,1.91-1.03,4.32-.8,6.6.25,2.47.73,4.52.8,6.28.14,3.56-.05,5.88-.42,7.96-1.83,10.28-1.91,19.25,4.44,20.34,7.71,1.32,27.42,1.68,28.35-4.18.84-5.29-6.26-9.08-11.72-23.56-1.62-4.28-.55-6.12.08-8.05,1.21-3.69-.99-4.91-.81-7.83.71-11.69,7.73-21.6,14.43-43.88,3.62-12.06,5.84-25.21,2.8-40.42-1.57-7.83-3.33-11.87-2.57-24.8.59-10,5.13-27.03,13.16-55.42,3.61-12.77,13.28-39.51,14.59-52.03.52-5.05.72-9.68.68-13.96v-.29c-.25-20.13-6-32.14-9.75-41.23-.02-.05-.04-.1-.06-.15-3.77-8.49-5.1-10.69-12.99-21.62-1.66-6.46-3.79-13.14-4.81-19.89,0,0,0,0,0,0-1.91-16.8-3.29-35.34-3.1-42.6.13-.51.25-1.04.39-1.55.47,2.28,1.59,7.74,2.05,9.59,2.9,11.63,7.35,25.35,9.12,34.28.02.1.04.19.06.29.19.97.35,1.91.47,2.75.26,1.83,1.28,16.57,7.27,33.65.34.97.69,1.92,1.04,2.88.29.78.56,1.53.83,2.25,5.28,14.27,7.49,19.17,11.26,27.17,2.7,5.74,4.66,10.34,5.02,14.07,0,.1.02.19.03.28,0,.11.03.22.03.33-.03,1.7-1.6,5.03-2.19,7.16-.37,1.35-.51,2.65-.54,3.94-.1,2.82.36,5.58.31,8.62-.07,2.65-.55,5.53-2.16,8.85-.06.12-.06.22-.03.31-.24.86,2.47.93,4.12-.89,2.13-2.37,2.76-8.84,2.83-7.65.44,7.9,1.73,9.71,2.53,16.17.1.82.14,1.58.13,2.28-.04,1.98-.39,3.5-.4,4.73-.03.85.07,1.56.5,2.2.99,1.46,1.33,1.34,3.75-1.26,1.7-1.83,2.78-3.52,3.87-4.88,2.13-2.64,3.28-5.25,3.47-10.69.01-.33.02-.66.02-.98.05-3.76-.54-6.86-1.9-12.47Z"/>
  </g>
</svg>