<?xml version="1.0" encoding="UTF-8"?>
<svg id="_레이어_2" data-name="레이어 2" xmlns="http://www.w3.org/2000/svg" viewBox="0 0 181.09 571.79">
  <defs>
    <style>
      .cls-1 {
        fill: #f3a9aa;
        stroke: #231815;
        stroke-miterlimit: 10;
      }
    </style>
  </defs>
  <g id="_레이어_1-2" data-name="레이어 1">
    <path class="cls-1" d="m40.52,105.43c2.67-1.13,5.97-1.75,9.48-2.41,3.66-.67,7.6-1.41,11.19-2.8,5.33-2.05,9.73-4.61,12.37-11.01,1.12-2.7,1.57-10.21,1.75-15.34-2.54-2.35-4.47-5.39-5.73-10.41-.23-.9-.49-1.97-.74-3.12-2.78.98-3.5-3.3-4.02-4.54-.57-1.36-1.33-1.49-2.08-4.5-.5-2,.37-3.32.01-4.61-.24-.87-.35-3.32.75-4.16.12-.09.27-.14.43-.19-1.65-6.26-2.7-16.51.73-24.34,1.49-3.39,3.32-6.12,5.26-8.29,4.56-5.58,12.1-9.22,20.62-9.22,0,0,0,0,.01,0,8.52,0,16.06,3.65,20.62,9.22,1.94,2.16,3.77,4.9,5.26,8.29,3.43,7.84,2.38,18.08.73,24.34.16.05.31.1.43.19,1.1.84.99,3.29.75,4.16-.36,1.29.51,2.6.01,4.61-.75,3.01-1.51,3.14-2.08,4.5-.52,1.24-1.24,5.52-4.02,4.54-.25,1.15-.52,2.22-.74,3.12-1.24,5.03-3.19,8.06-5.73,10.41.18,5.13.63,12.64,1.75,15.34,2.65,6.4,7.04,8.96,12.38,11.01,3.35,1.3,6.89,2.02,10.41,2.66.53.1,1.04.19,1.55.28,3.22.6,6.23,1.21,8.7,2.26.96.41,2.55,1.3,2.55,1.3v.02c1.96.91,3.99,3.67,6.09,10.54,2.82,9.21,6.93,70.31,7.36,76.97.35,5.34,1.27,15.48,1.7,16.82.24.75.49,1.49.73,2.23.03.11.07.22.11.32,4.19,12.86,8.15,24.55,9.35,33.87.34,2.61.65,5.03.94,7.33.02.11.03.21.04.32,1.35,11.2,2.46,19.23,3.99,30.02.81,5.74,2.3,6.7,2.66,9.76.05.44.05.88.05,1.42,0,.49,0,1.3.15,2.44.11,1.31.22,2.63.44,4.23.79,5.66,1.4,7.06,1.97,9.4,1.45,5.98,2.02,9.1,1.88,13.22-.19,5.44-1.34,8.05-3.46,10.69-1.1,1.36-2.18,3.06-3.88,4.88-2.42,2.6-2.76,2.72-3.75,1.26-1.29-1.9.35-4.5-.23-9.21-.8-6.46-2.09-8.28-2.53-16.17-.07-1.2-.69,5.27-2.83,7.64-1.69,1.88-4.55,1.75-4.09.81,4.31-8.9.54-14.6,2.4-21.41.6-2.2,2.28-5.7,2.2-7.34,0-.1-.02-.2-.03-.3,0-.1-.02-.19-.03-.29-.36-3.74-2.31-8.37-5.03-14.14-3.77-7.98-5.93-12.9-11.23-27.09-.19-.51-.38-1.04-.59-1.6-.35-.95-.71-1.9-1.05-2.89-6.21-17.37-7.26-32.51-7.52-34.36-.11-.82-.27-1.73-.46-2.68-.02-.1-.04-.19-.06-.29-1.76-8.92-6.22-22.69-9.13-34.34-.46-1.85-1.58-7.31-2.05-9.6-.13.51-.26,1.03-.39,1.55-1.23,9.16-1.53,28.01.99,42.68.97,5.68,2.55,12.51,4.03,20.05,1.68,8.7,3.73,17.11,4.55,22.09,0,.06.02.11.03.17.23,1.27.46,2.46.68,3.54,2.78,8.55,6.12,19.74,6.2,36.75,0,.1,0,.2.01.3.01,4.28-.13,8.91-.54,13.96-1.03,12.52-8.65,39.26-11.49,52.03-6.33,28.39-9.9,45.42-10.37,55.42-.6,12.93.79,16.97,2.03,24.8,2.39,15.21.64,28.36-2.21,40.42-5.27,22.28-10.82,32.19-11.37,43.88-.14,2.92,1.59,4.14.64,7.83-.49,1.93-1.33,3.77-.06,8.05,4.3,14.48,9.89,18.27,9.23,23.56-.73,5.86-16.25,5.5-22.33,4.18-5-1.09-4.93-10.06-3.49-20.34.29-2.08.44-4.4.33-7.96-.06-1.76-.43-3.81-.63-6.28-.18-2.28.35-4.69.63-6.6.21-1.44.43-2.6.47-3.21,1.4-22.38.93-27.75-1.3-48.79-2.24-21.27.91-25.08.51-38.08-.23-7.71-2.07-15.58-2.57-23.92-.62-10.47.24-20.36,1.11-27.8,2.41-20.57,2.39-23.89,3.17-40.15.85-17.66-3.61-26.32-1.07-41.55-.59.27-2.03.38-3.46.38s-2.88-.11-3.47-.38c2.54,15.23-1.92,23.89-1.07,41.55.78,16.26.76,19.58,3.17,40.15.88,7.44,1.73,17.33,1.11,27.8-.49,8.34-2.34,16.21-2.57,23.92-.4,13,2.75,16.81.51,38.08-2.22,21.04-2.7,26.41-1.3,48.79.04.61.26,1.77.48,3.21.29,1.91.8,4.32.62,6.6-.2,2.47-.57,4.52-.62,6.28-.11,3.56.03,5.88.32,7.96,1.45,10.28,1.51,19.25-3.49,20.34-6.07,1.32-21.6,1.68-22.33-4.18-.66-5.29,4.93-9.08,9.23-23.56,1.28-4.28.44-6.12-.06-8.05-.95-3.69.78-4.91.64-7.83-.56-11.69-6.09-21.6-11.37-43.88-2.85-12.06-4.6-25.21-2.2-40.42,1.23-7.83,2.62-11.87,2.02-24.8-.47-10-4.04-27.03-10.36-55.42-2.85-12.77-10.46-39.51-11.49-52.03-.42-5.05-.57-9.68-.55-13.96,0-.1,0-.2.01-.3.08-16.42,3.2-27.42,5.91-35.86.34-1.61.69-3.4,1.03-5.32,0-.04.02-.09.02-.13.83-5.16,2.87-13.54,4.57-22.11,1.44-7.25,3.01-13.73,3.95-19.17,2.57-14.9,2.07-34.3.79-43.46-.11-.04-.22-.04-.35,0-.5,2.46-1.48,7.14-1.89,8.82-1.46,5.86-3.31,12.26-5.02,18.31-1.7,6.04-3.25,11.72-4.13,16.18-.02.1-.04.21-.06.31-.17.89-.32,1.74-.43,2.52-.26,1.9-1.37,17.82-8.03,35.8-.37,1.01-.73,1.97-1.08,2.89-.04.1-.07.2-.11.29-5.34,14.05-7.42,18.99-11.17,26.95-2.76,5.84-4.73,10.51-5.04,14.28,0,.12-.03.25-.04.37,0,.05-.01.09-.01.14-.04,1.67,1.6,5.11,2.2,7.28,1.86,6.81-1.91,12.51,2.4,21.41.46.94-2.4,1.07-4.09-.81-2.14-2.37-2.76-8.84-2.83-7.64-.44,7.89-1.73,9.71-2.53,16.17-.59,4.71,1.05,7.3-.24,9.21-.98,1.46-1.32,1.33-3.74-1.26-1.7-1.82-2.78-3.52-3.88-4.88-2.12-2.64-3.27-5.24-3.46-10.69-.14-4.12.43-7.24,1.88-13.22.64-2.64,1.34-4.11,2.27-11.5.26-2.07.28-3.35.29-4.29,0-.05,0-.24,0-.28,0-.55,0-.99.05-1.42.35-3.06,1.84-4.02,2.65-9.76,1.55-10.84,2.65-18.9,4.02-30.19.01-.1.02-.19.04-.29.28-2.25.59-4.63.92-7.19,1.2-9.36,5.19-21.11,9.4-34.04.04-.1.07-.2.1-.3.22-.69.45-1.38.68-2.08.44-1.33,1.34-11.48,1.7-16.82.43-6.67,4.54-67.76,7.36-76.97,2.1-6.88,4.14-9.63,6.09-10.54v-.02s1.59-.89,2.55-1.3Z"/>
  </g>
</svg>