<?xml version="1.0" encoding="UTF-8"?>
<svg id="_레이어_2" data-name="레이어 2" xmlns="http://www.w3.org/2000/svg" viewBox="0 0 181.09 572.08">
  <defs>
    <style>
      .cls-1 {
        fill: #f3a9aa;
        stroke: #231815;
        stroke-miterlimit: 10;
      }
    </style>
  </defs>
  <g id="_레이어_1-2" data-name="레이어 1">
    <path class="cls-1" d="m180.59,324c-.03-3.44-.63-6.49-1.9-11.73-.52-2.13-1.08-3.5-1.76-7.88,0-.02,0-.04,0-.06-.02-.15-.05-.32-.07-.49-.09-.6-.18-1.23-.27-1.94-.24-1.82-.31-3.13-.37-4.25-.07-.57-.07-1.13-.07-1.37,0-.28,0-.53,0-.77,0-.25-.02-.5-.04-.73-.35-3.06-1.84-4.02-2.65-9.76-1.54-10.79-2.57-18.84-4-30.04-.01-.1-.02-.2-.04-.3-.29-2.29-.6-4.71-.94-7.33-1.19-9.32-5.16-21.02-9.35-33.89-.04-.1-.07-.2-.1-.3-.24-.74-.48-1.48-.73-2.23-.43-1.33-1.34-11.48-1.7-16.81-.43-6.67-4.54-67.76-7.36-76.98-2.1-6.87-4.14-9.63-6.09-10.54h0s-1.59-.9-2.55-1.31c-2.47-1.05-5.47-1.66-8.69-2.26-3.04-.56-6.8-1.17-10.05-2.15-.66-.2-1.31-.41-1.93-.65-4.11-1.58-7.66-3.47-10.28-7.18-.78-1.1-1.48-2.36-2.09-3.83-.31-.74-.56-1.86-.78-3.18-.57-3.48-.84-8.44-.97-12.16.32-.29.62-.6.92-.91,0,0,0,0,0,0,0,0,0,0,.01-.01,2.04-2.18,3.65-4.98,4.72-9.22.02-.09.05-.17.07-.26.02-.08.04-.16.06-.24.15-.59.31-1.25.47-1.95.07-.3.14-.61.21-.93.35.12.66.16.95.14,2.01-.18,2.62-3.59,3.07-4.68.14-.32.28-.58.44-.82.25-.39.52-.74.81-1.3.27-.54.56-1.26.84-2.39.5-2-.37-3.32,0-4.61.18-.65.29-2.19-.14-3.28-.14-.36-.34-.67-.61-.88-.03-.02-.07-.04-.11-.06-.1-.05-.2-.09-.32-.12,1.65-6.27,2.7-16.51-.73-24.35-1.49-3.39-3.32-6.12-5.26-8.29-3.99-4.88-10.26-8.28-17.48-9.05-.39-.04-.78-.07-1.17-.09-.13,0-.26-.02-.39-.03-.36-.02-.72-.02-1.09-.03-.17,0-.33-.01-.5-.01h-.01c-.2,0-.39.01-.59.02-.33,0-.66,0-.99.03-.07,0-.13.01-.19.02-6.21.37-11.81,2.69-15.97,6.24-1.05.9-2.01,1.88-2.87,2.92-1.94,2.17-3.77,4.9-5.26,8.29-3.43,7.84-2.38,18.08-.73,24.35-.08.02-.16.04-.23.07-.07.03-.14.06-.2.11-.1.07-.17.17-.25.27-.38.46-.57,1.14-.63,1.84-.07.82.01,1.63.13,2.06.36,1.29-.51,2.61,0,4.61.75,3.01,1.51,3.14,2.08,4.5.46,1.09,1.06,4.5,3.07,4.68.29.03.6-.01.95-.14.25,1.15.51,2.22.74,3.12,1.23,5.03,3.19,8.06,5.73,10.41,0,.17-.01.34-.02.51-.15,4.08-.48,9.44-1.15,12.77-.17.83-.36,1.54-.58,2.06-2.64,6.4-7.04,8.96-12.37,11.01-3.59,1.39-8.32,2.13-11.98,2.8-3.22.6-6.22,1.21-8.69,2.26-.96.41-2.55,1.3-2.55,1.3h0c-1.95.92-3.99,3.68-6.08,10.55-2.83,9.22-6.94,70.31-7.37,76.98-.36,5.33-1.27,15.48-1.7,16.81-.25.75-.49,1.49-.73,2.23-.03.1-.06.2-.1.3-4.19,12.87-8.16,24.57-9.35,33.89-.34,2.62-.65,5.04-.94,7.33-.02.1-.03.2-.04.3-1.43,11.2-2.46,19.25-4,30.04-.81,5.74-2.3,6.7-2.65,9.76-.05.43-.05.87-.05,1.42v.3c0,.94-.03,2.22-.29,4.27-.93,7.4-1.63,8.87-2.27,11.5-1.18,4.87-1.77,7.85-1.88,11.01-.03.74-.03,1.49,0,2.28.19,5.45,1.34,8.05,3.46,10.69,1.1,1.36,2.18,3.06,3.88,4.88,2.42,2.6,2.76,2.73,3.74,1.27.41-.61.52-1.28.51-2.07-.01-1.24-.36-2.76-.4-4.74-.01-.73.02-1.53.13-2.4.8-6.46,2.09-8.28,2.53-16.17.07-1.2.69,5.27,2.83,7.64,1.6,1.78,4.25,1.76,4.13.95,0-.07,0-.13-.04-.21-1.61-3.33-2.09-6.21-2.16-8.87-.07-3.09.41-5.88.31-8.73-.04-1.25-.19-2.51-.54-3.81-.6-2.17-2.23-5.6-2.2-7.27,0-.04,0-.07.01-.11,0-.11.02-.23.03-.34.33-3.77,2.28-8.43,5.04-14.28,1.31-2.77,2.41-5.18,3.51-7.74,1.83-4.16,3.67-8.72,6.38-15.89.41-1.05.82-2.14,1.27-3.31.04-.1.07-.19.11-.3.34-.92.71-1.88,1.08-2.89,6.66-17.98,7.77-33.9,8.03-35.8.11-.78.26-1.63.43-2.52.02-.1.04-.2.06-.3.88-4.45,2.43-10.14,4.13-16.17,1.71-6.05,3.56-12.44,5.02-18.31.4-1.59,1.29-5.89,1.81-8.44.13-.32.24-.59.33-.77,2.35,11.03,4.46,30.79,1.94,43.92-1.07,5.59-4.56,11.16-7.81,17.81-.3.62-.58,1.21-.86,1.8-8.48,11.58-12.25,18.26-13.88,21.91-.02.05-.04.1-.06.15-3.75,9.09-9.49,21.1-9.75,41.22v.3c-.04,4.27.16,8.91.69,13.96,1.3,12.52,10.98,39.26,14.59,52.03,8.02,28.39,12.56,45.41,13.15,55.42.77,12.92-.99,16.97-2.56,24.79-3.05,15.22-.83,28.37,2.8,40.42,6.69,22.29,13.71,32.19,14.43,43.89.17,2.92-2.02,4.14-.81,7.83.63,1.92,1.69,3.76.08,8.04-5.46,14.49-12.57,18.28-11.73,23.57.93,5.86,20.64,5.5,28.36,4.17,6.35-1.08,6.26-10.06,4.43-20.33-.37-2.08-.56-4.4-.42-7.96.08-1.76.55-3.81.8-6.28.23-2.28-.44-4.69-.8-6.6-.27-1.44-.55-2.6-.6-3.21-1.7-22.38-1.17-27.75,1.65-48.79,2.85-21.27-1.15-25.08-.65-38.09.3-7.7,2.64-15.58,3.27-23.92.78-10.46-.3-20.35-1.41-27.79-3.06-20.57-3.04-23.89-4.03-40.16-1.07-17.65,4.59-26.31,1.36-41.54.75.27,2.58.36,4.4.38,1.82.01,3.65-.11,4.4-.38-3.23,15.23,2.43,23.89,1.36,41.54-.99,16.27-.97,19.59-4.03,40.16-1.11,7.44-2.19,17.33-1.4,27.79.62,8.34,2.96,16.22,3.26,23.92.5,13.01-3.5,16.82-.65,38.09,2.82,21.04,3.36,26.41,1.65,48.79-.05.61-.33,1.77-.6,3.21-.36,1.91-1.03,4.32-.8,6.6.25,2.47.73,4.52.8,6.28.14,3.56-.05,5.88-.42,7.96-1.83,10.27-1.91,19.25,4.44,20.33,7.71,1.33,27.42,1.69,28.35-4.17.84-5.29-6.26-9.08-11.72-23.57-1.62-4.28-.55-6.12.08-8.04,1.21-3.69-.99-4.91-.81-7.83.71-11.7,7.73-21.6,14.43-43.89,3.62-12.05,5.84-25.2,2.8-40.42-1.57-7.82-3.33-11.87-2.57-24.79.59-10.01,5.13-27.03,13.16-55.42,3.61-12.77,13.28-39.51,14.58-52.03.53-5.05.73-9.69.69-13.96v-.3c-.25-20.12-6-32.13-9.75-41.22-.02-.05-.04-.1-.06-.15-1.67-3.74-5.57-10.66-14.51-22.78-.07-.1-.14-.19-.21-.29-3.27-6.79-6.71-12.62-7.84-18.45,0,0,0,0,0,0-2.37-12.81-.61-31.72,1.65-42.76.13-.52.26-1.04.4-1.55.46,2.29,1.59,7.75,2.05,9.6,2.91,11.69,7.39,25.49,9.14,34.41.02.1.04.2.06.3.18.92.33,1.8.44,2.6.26,1.88,1.34,17.4,7.78,35.08.36,1,.72,1.95,1.07,2.89.12.33.23.64.35.95,5.28,14.14,7.44,19.05,11.2,27.01,2.74,5.81,4.68,10.46,5.03,14.21,0,.1.02.2.03.29,0,.07.02.14.02.2.05,1.66-1.59,5.11-2.2,7.29-.47,1.71-.58,3.34-.55,4.98.03,2.06.27,4.11.32,6.29.05,3.01-.29,6.27-2.17,10.14-.04.08-.05.15-.04.22-.11.81,2.53.83,4.13-.95,2.14-2.37,2.76-8.84,2.83-7.64.05.89.11,1.69.18,2.44,0,.06.01.14.02.2.03.29.06.57.09.84.01.11.02.23.04.33.58,4.9,1.56,7.09,2.21,12.35.07.58.11,1.13.13,1.65.06,2.35-.38,4.1-.4,5.48-.02.79.1,1.47.51,2.07.98,1.46,1.32,1.33,3.74-1.27,1.7-1.82,2.78-3.52,3.88-4.88,2.12-2.64,3.27-5.24,3.46-10.69.02-.54.02-1.05.02-1.57Z"/>
  </g>
</svg>