<?xml version="1.0" encoding="UTF-8"?>
<svg id="_레이어_2" data-name="레이어 2" xmlns="http://www.w3.org/2000/svg" viewBox="0 0 181.09 572.08">
  <defs>
    <style>
      .cls-1 {
        fill: #f3a9aa;
        stroke: #231815;
        stroke-miterlimit: 10;
      }
    </style>
  </defs>
  <g id="_레이어_1-2" data-name="레이어 1">
    <path class="cls-1" d="m180.59,324.05s0-.03,0-.05c0-.07,0-.13,0-.2,0-.2-.01-.41-.02-.61-.11-3.12-.7-6.1-1.87-10.92-.52-2.13-1.08-3.5-1.76-7.88,0-.02,0-.04,0-.06-.02-.15-.05-.32-.07-.49-.07-.45-.14-.94-.21-1.45-.17-1.32-.27-2.47-.36-3.6,0-.06-.01-.11-.02-.16-.02-.34-.04-.67-.05-.98-.07-.57-.07-1.13-.07-1.37,0-.28,0-.53,0-.77,0-.25-.02-.5-.04-.73-.35-3.06-1.84-4.02-2.65-9.76-1.54-10.79-2.57-18.84-4-30.04-.01-.1-.02-.2-.04-.3-.29-2.29-.6-4.71-.94-7.33-1.19-9.32-5.16-21.02-9.35-33.89-.04-.1-.07-.2-.1-.3-.24-.74-.48-1.48-.73-2.23-.43-1.33-1.34-11.48-1.7-16.81-.43-6.67-4.54-67.76-7.36-76.98-2.1-6.87-4.14-9.63-6.09-10.54h0s-1.59-.9-2.55-1.31c-2.47-1.05-5.47-1.66-8.69-2.26-3.04-.56-6.8-1.17-10.05-2.15-.66-.2-1.31-.41-1.93-.65-.46-.18-.91-.36-1.36-.55-.09-.04-.18-.08-.27-.11-.92-.4-1.81-.82-2.67-1.29-.04-.02-.08-.04-.12-.07-2.26-1.26-4.24-2.86-5.87-5.17-.78-1.1-1.48-2.36-2.09-3.83-.31-.74-.56-1.86-.78-3.18-.35-2.16-.59-4.89-.75-7.54,0-.04,0-.07,0-.11-.03-.51-.06-1.03-.08-1.53,0-.01,0-.02,0-.04-.02-.45-.04-.89-.06-1.33,0-.12-.01-.24-.02-.36-.02-.4-.03-.79-.04-1.16,0-.03,0-.07,0-.1.34-.32.67-.65.99-.99.25-.27.5-.56.74-.85.09-.11.17-.22.25-.33.17-.22.34-.45.51-.69.09-.13.18-.27.27-.41.15-.23.3-.46.44-.71.09-.15.18-.31.27-.47.14-.25.27-.5.4-.76.08-.17.17-.34.25-.52.12-.27.24-.55.36-.84.08-.19.16-.37.23-.57.11-.29.21-.6.31-.9.22-.66.43-1.34.62-2.08,0-.01,0-.03.01-.04.02-.09.05-.17.07-.26.02-.08.04-.16.06-.24.15-.59.31-1.25.47-1.95,0-.03.01-.06.02-.08,0-.04.02-.08.03-.11.06-.24.11-.49.17-.74.17.06.34.1.5.12.16.02.32.02.47,0,.13-.01.25-.04.37-.08.04-.01.08-.03.12-.05.08-.03.15-.06.23-.11.04-.03.09-.06.13-.09.06-.04.13-.09.19-.14.04-.04.08-.07.12-.11.06-.05.11-.11.16-.17.04-.04.08-.09.11-.13.05-.07.1-.13.15-.2.03-.05.06-.09.1-.14.05-.08.1-.16.15-.25.02-.04.05-.08.07-.13.07-.13.13-.26.2-.4,0,0,0,0,0,0,.06-.14.12-.27.17-.41.02-.04.03-.09.05-.13.04-.1.07-.19.11-.29.02-.05.03-.09.05-.14.03-.1.07-.19.1-.28.01-.04.03-.08.04-.12.09-.27.17-.53.24-.75.01-.04.02-.07.04-.11.02-.06.04-.13.06-.18.02-.06.04-.11.06-.16.01-.03.02-.06.03-.09.14-.32.28-.58.44-.82.16-.25.33-.48.5-.76.02-.02.03-.05.05-.07.03-.05.06-.1.09-.16.04-.07.08-.15.12-.22.02-.03.03-.05.05-.08.01-.02.02-.05.03-.07.05-.09.09-.19.14-.3.02-.05.04-.1.06-.15.05-.12.1-.25.16-.4.01-.04.03-.08.04-.12.05-.15.11-.32.16-.49.02-.06.04-.13.06-.2.06-.19.11-.4.17-.63,0-.02,0-.03.01-.05.5-2-.37-3.32,0-4.61.03-.1.05-.22.07-.36,0-.04.01-.07.02-.11.02-.11.03-.22.04-.34,0-.05,0-.09.01-.14.02-.33.02-.7-.01-1.08,0-.05-.01-.1-.02-.15-.02-.15-.04-.29-.07-.43,0-.05-.02-.1-.03-.14-.04-.18-.09-.36-.15-.53-.14-.36-.34-.67-.61-.88-.03-.02-.07-.04-.11-.06,0,0,0,0,0,0-.1-.05-.2-.09-.31-.12,1.65-6.27,2.7-16.51-.73-24.35-.47-1.06-.97-2.05-1.49-2.98-1.06-1.89-2.23-3.52-3.44-4.93-.11-.13-.22-.26-.32-.38-.27-.33-.55-.65-.84-.96-.1-.11-.2-.21-.3-.32-.19-.2-.39-.4-.59-.6-.13-.12-.26-.25-.39-.37-.18-.17-.37-.34-.56-.51-.14-.13-.29-.25-.44-.37-.19-.16-.38-.31-.57-.46-.15-.12-.31-.24-.47-.36-.2-.15-.4-.29-.6-.43-.16-.11-.32-.22-.48-.33-.22-.15-.44-.28-.67-.42-.15-.1-.31-.19-.46-.29-.31-.18-.62-.35-.94-.52-.14-.08-.29-.15-.43-.23-.33-.17-.66-.33-.99-.49-.16-.07-.33-.14-.49-.21-.26-.11-.52-.22-.78-.33-.18-.07-.36-.14-.54-.21-.25-.1-.51-.19-.76-.28-.19-.06-.38-.13-.57-.19-.26-.08-.52-.16-.79-.24-.19-.05-.38-.11-.57-.16-.28-.07-.56-.14-.84-.21-.18-.04-.36-.09-.55-.12-.31-.07-.63-.12-.95-.18-.16-.03-.31-.06-.47-.08-.48-.08-.96-.14-1.44-.19-.39-.04-.78-.07-1.17-.09-.13,0-.26-.02-.39-.03-.21-.01-.42-.01-.63-.02-.32-.01-.63-.03-.95-.03h-.01c-.08,0-.17,0-.25,0-.45,0-.89.01-1.34.04h0c-.07,0-.13.01-.19.02,0,0,0,0,0,0-.72.04-1.44.12-2.14.21-.09.01-.18.02-.27.04-1.42.2-2.79.51-4.11.91-.1.03-.19.06-.29.09-1.3.41-2.55.9-3.74,1.48-.11.05-.22.11-.32.16-1.16.58-2.26,1.24-3.29,1.97-.11.08-.23.16-.34.24-1.01.74-1.95,1.54-2.81,2.4-.11.11-.21.21-.32.32-.41.42-.8.86-1.17,1.31-.01.01-.02.03-.04.04-.19.21-.38.44-.57.66-.91,1.08-1.79,2.29-2.61,3.64-.74,1.21-1.44,2.53-2.08,3.98-3.43,7.84-2.38,18.08-.73,24.35-.12.03-.23.08-.33.13-.03.02-.07.03-.1.05-.06.04-.1.11-.15.16-.13.14-.25.29-.34.48,0,0,0,.02-.01.03-.06.13-.12.26-.17.41,0,.03-.02.06-.03.09-.04.13-.08.26-.1.4-.01.07-.02.14-.03.21-.08.51-.09,1.04-.05,1.5.03.36.08.67.14.89.36,1.29-.51,2.61,0,4.61.75,3.01,1.51,3.14,2.08,4.5.16.38.34,1.06.6,1.78,0,0,0,.02,0,.03.05.14.1.28.16.42,0,0,0,.01,0,.02.11.29.24.57.39.84.01.03.03.05.05.08.06.1.11.2.17.3.03.04.05.08.08.12.05.08.11.16.17.23.03.04.07.08.1.12.06.07.12.13.18.19.04.04.07.07.11.1.06.05.13.1.2.15.04.03.08.06.12.08.08.04.16.08.24.11.04.02.07.03.11.05.12.04.25.07.39.08.14.01.29,0,.44-.01.03,0,.06-.01.08-.02.14-.02.28-.05.43-.11.25,1.15.51,2.22.74,3.12,1.23,5.03,3.19,8.06,5.73,10.41,0,.16-.01.34-.02.5,0,0,0,0,0,.01-.04.99-.08,2.05-.14,3.14,0,.06,0,.11,0,.17-.03.53-.06,1.07-.1,1.61v.08c-.04.51-.08,1.02-.12,1.52,0,.07-.01.13-.02.2-.04.52-.09,1.04-.14,1.54,0,.06-.01.12-.02.18-.05.48-.1.95-.16,1.4,0,.04,0,.08-.01.12-.06.48-.12.93-.19,1.37,0,.06-.02.12-.03.18-.07.43-.14.85-.22,1.23,0,0,0,0,0,0-.02.12-.05.23-.07.34-.03.12-.05.23-.08.35-.03.11-.05.21-.08.31-.03.11-.06.22-.09.33-.02.08-.05.17-.07.24-.05.15-.1.3-.16.43,0,.02-.01.04-.02.06-2.64,6.4-7.04,8.96-12.37,11.01-3.59,1.39-8.32,2.13-11.98,2.8-3.22.6-6.22,1.21-8.69,2.26-.96.41-2.55,1.3-2.55,1.3h0c-1.95.92-3.99,3.68-6.08,10.55-2.83,9.22-6.94,70.31-7.37,76.98-.36,5.33-1.27,15.48-1.7,16.81-.25.75-.49,1.49-.73,2.23-.03.1-.06.2-.1.3-4.19,12.87-8.16,24.57-9.35,33.89-.34,2.62-.65,5.04-.94,7.33-.02.1-.03.2-.04.3-1.43,11.2-2.46,19.25-4,30.04-.81,5.74-2.3,6.7-2.65,9.76-.05.43-.05.87-.05,1.42v.3c0,.94-.03,2.22-.29,4.27-.93,7.4-1.63,8.87-2.27,11.5-1.1,4.52-1.68,7.42-1.84,10.34,0,.08,0,.16-.01.24,0,.14-.02.29-.02.43,0,.02,0,.05,0,.07-.03.74-.03,1.5,0,2.29.19,5.44,1.34,8.05,3.46,10.69,1.1,1.36,2.18,3.06,3.88,4.88,2.42,2.6,2.76,2.72,3.74,1.26.41-.61.52-1.28.51-2.07,0-.03,0-.05,0-.08,0-.09-.01-.19-.02-.28,0-.05,0-.1,0-.15-.07-1.16-.34-2.54-.37-4.31h0c0-.3,0-.6.02-.91,0-.15.01-.3.02-.45,0-.15.03-.3.04-.45.02-.17.03-.34.05-.51.8-6.46,2.09-8.28,2.53-16.17.07-1.2.69,5.27,2.83,7.64,1.61,1.79,4.28,1.76,4.13.93,0-.02,0-.04,0-.06,0-.07,0-.13-.04-.21-1.61-3.33-2.09-6.21-2.16-8.87-.02-.7,0-1.38.03-2.05,0-.13,0-.27.01-.4.02-.47.05-.94.08-1.41.06-.9.12-1.79.16-2.67,0-.04,0-.08,0-.13.03-.67.04-1.33.01-2,0-.02,0-.05,0-.07-.04-1.25-.19-2.51-.54-3.81-.6-2.16-2.21-5.55-2.19-7.23,0-.01,0-.03,0-.04,0-.12.03-.25.04-.37.31-3.77,2.28-8.43,5.04-14.28,3.75-7.95,5.83-12.89,11.17-26.95.04-.1.07-.19.11-.29.35-.93.71-1.88,1.08-2.89,6.66-17.98,7.77-33.9,8.03-35.8.11-.77.25-1.63.43-2.52.02-.1.04-.21.06-.31.88-4.46,2.43-10.14,4.13-16.18,1.71-6.05,3.56-12.44,5.02-18.31.4-1.63,1.33-6.07,1.84-8.58.04-.09.07-.17.1-.25.11-.03.2-.03.29,0,0,.02,0,.04.01.05,1.28,9.18,1.76,28.53-.8,43.4-.98,5.67-3.62,11.31-5.96,17.55-.5,1.33-.94,2.6-1.35,3.81-7.58,10.5-11.06,16.7-12.6,20.16-.02.05-.04.1-.06.15-3.75,9.09-9.49,21.1-9.75,41.22v.3c-.04,4.27.16,8.91.69,13.96,1.3,12.52,10.98,39.26,14.59,52.03,8.02,28.39,12.56,45.41,13.15,55.42.77,12.92-.99,16.97-2.56,24.79-3.05,15.22-.83,28.37,2.8,40.42,6.69,22.29,13.71,32.19,14.43,43.89.17,2.92-2.02,4.14-.81,7.83.63,1.92,1.69,3.76.08,8.04-5.46,14.49-12.57,18.28-11.73,23.57.93,5.86,20.64,5.5,28.36,4.17,6.35-1.08,6.26-10.06,4.43-20.33-.37-2.08-.56-4.4-.42-7.96.08-1.76.55-3.81.8-6.28.23-2.28-.44-4.69-.8-6.6-.27-1.44-.55-2.6-.6-3.21-1.7-22.38-1.17-27.75,1.65-48.79,2.85-21.27-1.15-25.08-.65-38.09.3-7.7,2.64-15.58,3.27-23.92.78-10.46-.3-20.35-1.41-27.79-3.06-20.57-3.04-23.89-4.03-40.16-1.07-17.65,4.59-26.31,1.36-41.54.75.27,2.58.36,4.4.38,1.82.01,3.65-.11,4.4-.38-3.23,15.23,2.43,23.89,1.36,41.54-.99,16.27-.97,19.59-4.03,40.16-1.11,7.44-2.19,17.33-1.4,27.79.62,8.34,2.96,16.22,3.26,23.92.5,13.01-3.5,16.82-.65,38.09,2.82,21.04,3.36,26.41,1.65,48.79-.05.61-.33,1.77-.6,3.21-.36,1.91-1.03,4.32-.8,6.6.25,2.47.73,4.52.8,6.28.14,3.56-.05,5.88-.42,7.96-1.83,10.27-1.91,19.25,4.44,20.33,7.71,1.33,27.42,1.69,28.35-4.17.84-5.29-6.26-9.08-11.72-23.57-1.62-4.28-.55-6.12.08-8.04,1.21-3.69-.99-4.91-.81-7.83.71-11.7,7.73-21.6,14.43-43.89,3.62-12.05,5.84-25.2,2.8-40.42-1.57-7.82-3.33-11.87-2.57-24.79.59-10.01,5.13-27.03,13.16-55.42,3.61-12.77,13.28-39.51,14.58-52.03.53-5.05.73-9.69.69-13.96v-.3c-.25-20.12-6-32.13-9.75-41.22-.02-.05-.04-.1-.06-.15-1.6-3.57-5.24-10.06-13.35-21.19-.14-.39-.26-.78-.41-1.18-2.41-6.65-5.08-12.89-6.17-19.15,0,0,0,0,0,0-2.43-14.69-2.21-33.52-.99-42.68.13-.52.26-1.04.39-1.55.47,2.29,1.59,7.74,2.05,9.6,2.9,11.66,7.37,25.42,9.13,34.34.02.1.04.19.06.29.18.94.34,1.85.46,2.68.26,1.85,1.31,16.98,7.52,34.36.35.98.7,1.94,1.05,2.89.21.56.4,1.09.59,1.6,5.3,14.19,7.46,19.11,11.23,27.09,2.72,5.77,4.66,10.4,5.03,14.14,0,.1.02.19.03.29,0,.08.02.17.03.26.01,1.68-1.59,5.08-2.19,7.23-.44,1.6-.56,3.15-.55,4.68,0,1.76.17,3.52.27,5.35,0,.08,0,.16,0,.24.03.71.05,1.43.04,2.16-.06,2.69-.53,5.6-2.16,8.97-.04.08-.05.15-.04.22,0,.02,0,.04,0,.06-.14.82,2.51.86,4.13-.93,2.14-2.37,2.76-8.84,2.83-7.64.44,7.89,1.73,9.71,2.53,16.17.01.09.02.17.02.25.04.4.08.79.09,1.17,0,.08.01.17.01.25.04,2.31-.38,4.03-.4,5.4,0,0,0,.01,0,.02-.02.81.08,1.51.5,2.13.98,1.46,1.32,1.33,3.74-1.26,1.7-1.82,2.78-3.52,3.88-4.88,2.12-2.64,3.27-5.24,3.47-10.69.02-.54.02-1.07.02-1.59Z"/>
  </g>
</svg>