<?xml version="1.0" encoding="UTF-8"?>
<svg id="_레이어_2" data-name="레이어 2" xmlns="http://www.w3.org/2000/svg" viewBox="0 0 181.09 571.78">
  <defs>
    <style>
      .cls-1 {
        fill: #f3a9aa;
        stroke: #231815;
        stroke-miterlimit: 10;
      }
    </style>
  </defs>
  <g id="_레이어_1-2" data-name="레이어 1">
    <path class="cls-1" d="m178.69,312.57c-.64-2.64-1.35-4.11-2.27-11.5-.29-2.28-.29-3.6-.29-4.57,0-.55,0-.99-.05-1.43-.36-3.05-1.84-4.01-2.66-9.76-1.55-10.89-2.58-18.97-4.03-30.33-.29-2.3-.6-4.72-.94-7.33-1.21-9.39-5.22-21.2-9.46-34.19-.24-.74-.48-1.48-.72-2.23-.43-1.34-1.35-11.48-1.7-16.82-.44-6.67-4.55-67.76-7.37-76.97-2.1-6.88-4.13-9.63-6.09-10.54v-.02s-1.58-.89-2.55-1.3c-2.86-1.21-6.46-1.84-10.27-2.55-3.66-.67-6.8-1.41-10.39-2.8-5.33-2.05-9.73-4.61-12.38-11.01-1.11-2.7-1.56-10.21-1.74-15.34,2.54-2.35,4.5-5.38,5.73-10.41.22-.9.49-1.98.74-3.12,2.78.98,3.5-3.3,4.02-4.54.57-1.37,1.33-1.5,2.08-4.5.5-2.01-.37-3.32,0-4.61.24-.87.35-3.32-.76-4.16-.11-.09-.26-.14-.42-.19,1.65-6.26,2.7-16.5-.73-24.34-1.49-3.39-3.32-6.13-5.26-8.29-4.56-5.58-12.1-9.22-20.63-9.22s-16.06,3.64-20.62,9.22c-1.94,2.16-3.77,4.9-5.26,8.29-3.43,7.84-2.38,18.08-.73,24.34-.16.05-.31.1-.43.19-1.1.84-.99,3.29-.75,4.16.36,1.29-.51,2.6,0,4.61.75,3,1.51,3.13,2.08,4.5.52,1.24,1.24,5.52,4.02,4.54.25,1.14.51,2.22.74,3.12,1.23,5.03,3.19,8.06,5.73,10.41-.18,5.13-.63,12.64-1.75,15.34-2.64,6.4-7.04,8.96-12.37,11.01-3.59,1.39-6.74,2.13-10.4,2.8-3.8.71-7.4,1.34-10.27,2.55-.96.41-2.55,1.3-2.55,1.3v.02c-1.95.91-3.99,3.66-6.09,10.54-2.82,9.21-6.93,70.3-7.36,76.97-.36,5.34-1.27,15.48-1.7,16.82-.25.75-.49,1.49-.73,2.23-4.23,12.99-8.25,24.8-9.45,34.19-.34,2.61-.65,5.03-.94,7.33-1.46,11.36-2.49,19.44-4.04,30.33-.81,5.75-2.3,6.71-2.65,9.76-.05.44-.05.88-.05,1.43,0,.97,0,2.29-.29,4.57-.93,7.39-1.63,8.86-2.27,11.5-1.45,5.98-2.02,9.1-1.88,13.22.19,5.44,1.34,8.05,3.46,10.69,1.1,1.36,2.18,3.05,3.88,4.88,2.42,2.6,2.76,2.72,3.74,1.26,1.29-1.9-.35-4.5.24-9.21.8-6.46,2.11-8.27,2.53-16.17.07-1.19.69,5.28,2.83,7.65,1.69,1.88,4.55,1.75,4.09.8-4.31-8.89-.54-14.59-2.4-21.4-.61-2.2-2.28-5.7-2.2-7.35.01-.14.04-.3.05-.44.31-3.77,2.28-8.44,5.04-14.28,2.54-5.39,4.36-9.39,6.9-15.79-2.64,7.53-4.97,16.97-5.13,29.61v.3c-.04,4.27.16,8.91.69,13.96,1.3,12.52,10.98,39.26,14.59,52.03,8.02,28.39,12.56,45.41,13.15,55.42.77,12.92-.99,16.97-2.56,24.79-3.05,15.22-.83,28.37,2.8,40.42,6.69,22.29,13.71,32.19,14.43,43.89.17,2.92-2.02,4.14-.81,7.83.63,1.92,1.69,3.76.08,8.04-5.46,14.49-12.57,18.28-11.73,23.57.93,5.86,20.64,5.5,28.36,4.17,6.35-1.08,6.26-10.06,4.43-20.33-.37-2.08-.56-4.4-.42-7.96.08-1.76.55-3.81.8-6.28.23-2.28-.44-4.69-.8-6.6-.27-1.44-.55-2.6-.6-3.21-1.7-22.38-1.17-27.75,1.65-48.79,2.85-21.27-1.15-25.08-.65-38.09.3-7.7,2.64-15.58,3.27-23.92.78-10.46-.3-20.35-1.41-27.79-3.06-20.57-3.04-23.89-4.03-40.16-1.07-17.65,4.59-26.31,1.36-41.54.75.27,2.58.36,4.4.38,1.82,0,3.65-.11,4.4-.38-3.23,15.23,2.43,23.89,1.36,41.54-.99,16.27-.97,19.59-4.03,40.16-1.11,7.44-2.19,17.33-1.4,27.79.62,8.34,2.96,16.22,3.26,23.92.5,13.01-3.5,16.82-.65,38.09,2.82,21.04,3.36,26.41,1.65,48.79-.05.61-.33,1.77-.6,3.21-.36,1.91-1.03,4.32-.8,6.6.25,2.47.73,4.52.8,6.28.14,3.56-.05,5.88-.42,7.96-1.83,10.27-1.91,19.25,4.44,20.33,7.71,1.33,27.42,1.69,28.35-4.17.84-5.29-6.26-9.08-11.72-23.57-1.62-4.28-.55-6.12.08-8.04,1.21-3.69-.99-4.91-.81-7.83.71-11.7,7.73-21.6,14.43-43.89,3.62-12.05,5.84-25.2,2.8-40.42-1.57-7.82-3.33-11.87-2.57-24.79.59-10.01,5.13-27.03,13.16-55.42,3.61-12.77,13.28-39.51,14.58-52.03.53-5.05.73-9.69.69-13.96v-.3c-.16-12.53-2.44-21.91-5.05-29.4,2.5,6.27,4.3,10.25,6.82,15.58,2.75,5.84,4.73,10.51,5.04,14.28.01.14.04.3.04.44.09,1.65-1.59,5.15-2.19,7.35-1.87,6.81,1.91,12.51-2.4,21.4-.46.95,2.39,1.08,4.09-.8,2.13-2.37,2.76-8.84,2.83-7.65.42,7.9,1.73,9.71,2.53,16.17.59,4.71-1.06,7.31.23,9.21.99,1.46,1.33,1.34,3.75-1.26,1.7-1.83,2.78-3.52,3.87-4.88,2.13-2.64,3.28-5.25,3.47-10.69.14-4.12-.43-7.24-1.88-13.22Zm-145.33-57.89s-.04.1-.06.15c-.57,1.37-1.18,2.82-1.81,4.35.5-1.31,1.02-2.69,1.58-4.2.35-.93.71-1.89,1.08-2.9,6.66-17.98,7.77-33.89,8.03-35.8.12-.86.29-1.82.49-2.82.87-4.46,2.43-10.15,4.13-16.19,1.71-6.05,3.56-12.44,5.02-18.3.46-1.85,1.59-7.31,2.05-9.59.14.51.26,1.04.39,1.55-.84,5.41-3.7,24.09-6.26,42.53-1.08,7.81-2.1,15.56-2.89,22.25-6.99,9.78-10.25,15.64-11.74,18.97Zm114.44.15c-.02-.05-.04-.1-.06-.15-1.49-3.33-4.75-9.18-11.74-18.97-.79-6.69-1.82-14.44-2.9-22.25-2.55-18.44-5.42-37.12-6.25-42.53.13-.51.25-1.04.38-1.55.47,2.28,1.59,7.74,2.05,9.59,2.92,11.72,7.42,25.57,9.16,34.49.19,1,.36,1.96.48,2.82.27,1.91,1.37,17.82,8.04,35.8.37,1.01.73,1.97,1.07,2.9.52,1.39,1,2.68,1.47,3.9-.59-1.42-1.16-2.77-1.69-4.06Z"/>
  </g>
</svg>