<?xml version="1.0" encoding="UTF-8"?>
<svg id="_레이어_2" data-name="레이어 2" xmlns="http://www.w3.org/2000/svg" viewBox="0 0 181.09 571.56">
  <defs>
    <style>
      .cls-1 {
        fill: #f3a9aa;
        stroke: #231815;
        stroke-miterlimit: 10;
      }
    </style>
  </defs>
  <g id="_레이어_1-2" data-name="레이어 1">
    <path class="cls-1" d="m40.52,105.51c2.77-1.18,6.22-1.79,9.88-2.48,3.66-.67,7.21-1.41,10.8-2.8,5.33-2.05,9.73-4.61,12.37-11.01,1.12-2.7,1.57-10.21,1.75-15.34-2.54-2.35-4.47-5.39-5.73-10.41-.23-.9-.49-1.98-.74-3.12-2.78.98-3.5-3.3-4.02-4.54-.57-1.37-1.33-1.5-2.08-4.5-.5-2.01.37-3.32.01-4.61-.24-.87-.35-3.33.75-4.16.12-.09.27-.14.43-.19-1.65-6.26-2.7-16.5.73-24.34,1.49-3.39,3.32-6.13,5.26-8.29,4.56-5.58,12.1-9.22,20.62-9.22,0,0,0,0,.01,0,8.52,0,16.06,3.64,20.62,9.22,1.94,2.16,3.77,4.9,5.26,8.29,3.43,7.84,2.38,18.08.73,24.34.16.05.31.1.42.19,1.11.84,1,3.29.76,4.16-.36,1.29.51,2.6.01,4.61-.75,3-1.51,3.13-2.08,4.5-.52,1.24-1.24,5.52-4.02,4.54-.25,1.14-.52,2.22-.74,3.12-1.23,5.03-3.19,8.06-5.73,10.41.18,5.13.63,12.64,1.74,15.34,2.65,6.4,7.05,8.96,12.38,11.01,3.47,1.34,6.81,2.08,10.4,2.73.52.1,1.04.19,1.55.29,3.23.6,6.24,1.22,8.71,2.26.97.41,2.55,1.3,2.55,1.3v.02c1.96.91,3.99,3.66,6.09,10.54,2.82,9.21,6.93,70.3,7.37,76.97.35,5.34,1.27,15.48,1.7,16.82.24.75.48,1.49.72,2.23.04.11.07.22.11.34,4.2,12.86,8.15,24.55,9.35,33.85.34,2.61.65,5.03.94,7.33.02.11.03.22.04.33,1.39,11.19,2.45,19.22,3.99,30.01.82,5.75,2.3,6.71,2.66,9.76.05.44.05.88.05,1.43,0,.73,0,1.79.22,3.5.16,1.5.31,2.85.52,4.22.71,4.78,1.29,6.16,1.82,8.34,1.45,5.98,2.02,9.1,1.88,13.22-.19,5.44-1.34,8.05-3.47,10.69-1.09,1.36-2.17,3.05-3.87,4.88-2.42,2.6-2.76,2.72-3.75,1.26-1.29-1.9.36-4.5-.23-9.21-.8-6.46-2.09-8.27-2.53-16.17-.07-1.19-.7,5.28-2.83,7.65-1.7,1.88-4.55,1.75-4.09.8,4.31-8.89.53-14.59,2.4-21.4.6-2.2,2.28-5.7,2.19-7.35,0-.12-.02-.25-.04-.37,0-.09-.02-.19-.03-.29-.36-3.73-2.32-8.34-5.02-14.07-3.77-8-5.98-12.9-11.26-27.17-.27-.72-.54-1.47-.83-2.25-.35-.96-.71-1.92-1.04-2.89-5.98-17.07-7.01-31.8-7.26-33.63-.12-.84-.28-1.78-.47-2.75-.02-.1-.04-.19-.06-.29-1.77-8.93-6.22-22.65-9.12-34.28-.46-1.85-1.58-7.31-2.05-9.59-.13.51-.25,1.03-.38,1.55-.19,7.28,1.33,25.92,4.61,42.61,0,0,0,0,0,0,1.09,6.9,2.65,13.94,3.94,20.76.34,1.82.64,3.56.92,5.2,3.69,10.07,5.29,14.87,5.46,15.32,3.48,9.08,8.49,21.18,8.66,41.38v.14c.03,4.24-.15,8.82-.61,13.82-1.17,12.52-9.82,39.26-13.04,52.03-7.18,28.38-11.24,45.41-11.76,55.42-.68,12.92.89,16.97,2.29,24.79,2.72,15.22.74,28.37-2.5,40.42-5.99,22.28-12.26,32.19-12.9,43.89-.16,2.92,1.81,4.14.73,7.83-.56,1.92-1.52,3.76-.08,8.04,4.88,14.49,11.23,18.28,10.48,23.57-.83,5.86-18.45,5.49-25.34,4.17-5.68-1.08-5.6-10.06-3.96-20.34.33-2.07.5-4.4.37-7.95-.07-1.76-.5-3.81-.72-6.28-.21-2.28.4-4.69.72-6.6.24-1.45.49-2.61.54-3.21,1.69-22.38,1.05-27.75-1.48-48.8-2.54-21.26,1.03-25.08.58-38.08-.27-7.7-2.36-15.58-2.92-23.92-.7-10.47.27-20.35,1.26-27.79,2.73-20.57,2.72-23.89,3.6-40.16.96-17.65-4.1-26.31-1.21-41.54-.67.26-2.31.39-3.94.38s-3.26-.12-3.93-.38c2.89,15.23-2.17,23.89-1.22,41.54.89,16.27.87,19.59,3.61,40.16.99,7.44,1.96,17.32,1.25,27.79-.56,8.34-2.65,16.22-2.91,23.92-.45,13,3.12,16.82.57,38.08-2.52,21.05-2.99,26.41-1.47,48.8.04.6.3,1.76.54,3.21.32,1.91.92,4.32.71,6.6-.22,2.47-.65,4.52-.71,6.28-.13,3.55.04,5.88.37,7.95,1.64,10.28,1.71,19.26-3.96,20.34-6.9,1.32-24.51,1.69-25.34-4.17-.75-5.29,5.59-9.08,10.47-23.57,1.45-4.28.5-6.12-.07-8.04-1.08-3.69.88-4.91.73-7.83-.64-11.7-6.92-21.61-12.9-43.89-3.24-12.05-5.23-25.2-2.5-40.42,1.4-7.82,2.97-11.87,2.29-24.79-.53-10.01-4.58-27.04-11.76-55.42-3.22-12.77-11.87-39.51-13.04-52.03-.46-5-.64-9.58-.61-13.82v-.14c.17-20.2,5.18-32.3,8.66-41.38.17-.44,1.73-5.12,5.32-14.93.36-2.1.75-4.37,1.21-6.78,1.26-6.53,2.76-13.13,3.79-19.58,0,0,0,0,0,0,3.34-16.8,4.74-35.7,4.51-42.98-.12-.28-.24-.54-.37-.78-.48,2.37-1.53,7.44-1.97,9.21-1.46,5.86-3.31,12.25-5.02,18.3-1.7,6.04-3.25,11.73-4.13,16.18-.02.11-.04.21-.06.31-.17.89-.32,1.74-.43,2.51-.26,1.91-1.37,17.82-8.03,35.8-.37,1.01-.73,1.97-1.08,2.9-.04.1-.07.19-.11.29-5.3,14.07-7.42,18.99-11.17,26.95-2.76,5.84-4.74,10.51-5.04,14.28-.01.13-.03.28-.04.41,0,.05,0,.09,0,.14-.01,1.68,1.6,5.09,2.2,7.25,1.86,6.81-1.91,12.51,2.4,21.4.46.95-2.4,1.08-4.09-.8-2.14-2.37-2.76-8.84-2.83-7.65-.44,7.9-1.73,9.71-2.53,16.17-.59,4.71,1.05,7.3-.24,9.21-.98,1.46-1.32,1.34-3.74-1.26-1.7-1.83-2.78-3.52-3.88-4.88-2.12-2.64-3.27-5.25-3.46-10.69-.14-4.12.43-7.24,1.88-13.22.64-2.64,1.34-4.11,2.27-11.5.26-2.07.28-3.35.29-4.3,0-.07,0-.21,0-.27,0-.55,0-.99.05-1.43.35-3.05,1.84-4.01,2.65-9.76,1.55-10.87,2.63-18.93,4.03-30.26.01-.1.02-.19.04-.29.28-2.23.58-4.59.91-7.12,1.2-9.37,5.2-21.16,9.42-34.12.03-.1.07-.2.1-.3.21-.67.44-1.33.66-2.01.44-1.34,1.34-11.48,1.7-16.82.43-6.67,4.54-67.76,7.36-76.97,2.1-6.88,4.14-9.63,6.09-10.54v-.02s1.59-.89,2.55-1.3Z"/>
  </g>
</svg>