<?xml version="1.0" encoding="UTF-8"?>
<svg id="_레이어_2" data-name="레이어 2" xmlns="http://www.w3.org/2000/svg" viewBox="0 0 181.09 571.64">
  <defs>
    <style>
      .cls-1 {
        fill: #f3a9aa;
        stroke: #231815;
        stroke-miterlimit: 10;
      }
    </style>
  </defs>
  <g id="_레이어_1-2" data-name="레이어 1">
    <path class="cls-1" d="m178.69,312.57c-.64-2.64-1.35-4.11-2.27-11.5-.29-2.28-.29-3.6-.29-4.57,0-.55,0-.99-.05-1.43-.36-3.05-1.84-4.01-2.66-9.76-1.55-10.89-2.58-18.97-4.03-30.33-.29-2.3-.6-4.72-.94-7.33-1.21-9.39-5.22-21.2-9.46-34.19-.24-.74-.48-1.48-.72-2.23-.43-1.34-1.35-11.48-1.7-16.82-.44-6.67-4.55-67.76-7.37-76.97-2.1-6.88-4.13-9.63-6.09-10.54v-.02s-1.58-.89-2.55-1.3c-2.86-1.21-6.46-1.84-10.27-2.55-3.66-.67-6.8-1.41-10.39-2.8-5.33-2.05-9.73-4.61-12.38-11.01-1.11-2.7-1.56-10.21-1.74-15.34,2.54-2.35,4.5-5.38,5.73-10.41.22-.9.49-1.98.74-3.12,2.78.98,3.5-3.3,4.02-4.54.57-1.37,1.33-1.5,2.08-4.5.5-2.01-.37-3.32-.01-4.61.24-.87.35-3.32-.76-4.16-.11-.09-.26-.14-.42-.19,1.65-6.26,2.7-16.5-.73-24.34-1.49-3.39-3.32-6.13-5.26-8.29-4.56-5.58-12.1-9.22-20.63-9.22s-16.06,3.64-20.62,9.22c-1.94,2.16-3.77,4.9-5.26,8.29-3.43,7.84-2.38,18.08-.73,24.34-.16.05-.31.1-.43.19-1.1.84-.99,3.29-.75,4.16.36,1.29-.51,2.6-.01,4.61.75,3,1.51,3.13,2.08,4.5.52,1.24,1.24,5.52,4.02,4.54.25,1.14.51,2.22.74,3.12,1.23,5.03,3.19,8.06,5.73,10.41-.18,5.13-.63,12.64-1.75,15.34-2.64,6.4-7.04,8.96-12.37,11.01-3.59,1.39-6.74,2.13-10.4,2.8-3.8.71-7.4,1.34-10.27,2.55-.96.41-2.55,1.3-2.55,1.3v.02c-1.95.91-3.99,3.66-6.09,10.54-2.82,9.21-6.93,70.3-7.36,76.97-.36,5.34-1.27,15.48-1.7,16.82-.25.75-.49,1.49-.73,2.23-4.23,12.99-8.25,24.8-9.45,34.19-.34,2.61-.65,5.03-.94,7.33-1.46,11.36-2.49,19.44-4.04,30.33-.81,5.75-2.3,6.71-2.65,9.76-.05.44-.05.88-.05,1.43,0,.97-.01,2.29-.29,4.57-.93,7.39-1.63,8.86-2.27,11.5-1.45,5.98-2.02,9.1-1.88,13.22.19,5.44,1.34,8.05,3.46,10.69,1.1,1.36,2.18,3.05,3.88,4.88,2.42,2.6,2.76,2.72,3.74,1.26,1.29-1.9-.35-4.5.24-9.21.8-6.46,2.11-8.27,2.53-16.17.07-1.19.69,5.28,2.83,7.65,1.69,1.88,4.55,1.75,4.09.8-4.31-8.89-.54-14.59-2.4-21.4-.61-2.2-2.28-5.7-2.2-7.35.01-.14.04-.3.05-.44.31-3.77,2.28-8.44,5.04-14.28,3.78-8.01,5.94-12.93,11.28-27.24.35-.93.71-1.89,1.08-2.9,6.66-17.98,7.77-33.89,8.03-35.8.12-.86.29-1.82.49-2.82.87-4.46,2.43-10.15,4.13-16.19,1.71-6.05,3.56-12.44,5.02-18.3.46-1.85,1.59-7.31,2.05-9.59.14.51.26,1.04.39,1.55-.84,5.41-3.7,24.09-6.26,42.53-1.06,7.67-2.07,15.3-2.85,21.91-3.82,8.38-8.61,18.83-8.8,19.3-3.57,9.14-9.05,21.22-9.23,41.52-.04,4.28.15,8.91.65,13.97,1.24,12.52,10.39,39.26,13.81,52.03,7.6,28.38,11.9,45.41,12.46,55.42.72,12.92-.94,16.97-2.43,24.79-2.89,15.21-.78,28.37,2.65,40.42,6.34,22.28,12.99,32.19,13.66,43.89.17,2.91-1.91,4.14-.76,7.83.59,1.92,1.6,3.76.07,8.04-5.17,14.48-11.89,18.28-11.1,23.57.88,5.86,19.55,5.49,26.85,4.17,6.01-1.09,5.93-10.06,4.2-20.34-.35-2.07-.53-4.4-.39-7.96.06-1.75.51-3.8.75-6.28.22-2.28-.41-4.68-.75-6.59-.26-1.45-.53-2.61-.57-3.21-1.62-22.39-1.12-27.76,1.55-48.8,2.7-21.26-1.08-25.08-.61-38.08.29-7.7,2.5-15.58,3.09-23.92.75-10.47-.28-20.35-1.33-27.79-2.89-20.57-2.88-23.89-3.81-40.16-1.02-17.66,4.34-26.31,1.28-41.54.71.26,2.45.36,4.17.37,1.72.02,3.46-.11,4.17-.37-3.06,15.23,2.3,23.88,1.29,41.54-.94,16.27-.92,19.59-3.82,40.16-1.05,7.44-2.08,17.32-1.33,27.79.59,8.34,2.81,16.22,3.09,23.92.47,13-3.31,16.82-.61,38.08,2.67,21.04,3.17,26.41,1.56,48.8-.05.6-.31,1.76-.57,3.21-.34,1.91-.98,4.31-.76,6.59.24,2.48.69,4.53.76,6.28.13,3.56-.05,5.89-.4,7.96-1.73,10.28-1.81,19.25,4.2,20.34,7.31,1.32,25.97,1.69,26.85-4.17.79-5.29-5.93-9.09-11.1-23.57-1.53-4.28-.52-6.12.07-8.04,1.15-3.69-.93-4.92-.76-7.83.67-11.7,7.32-21.61,13.66-43.89,3.43-12.05,5.54-25.21,2.65-40.42-1.48-7.82-3.15-11.87-2.43-24.79.56-10.01,4.86-27.04,12.46-55.42,3.42-12.77,12.58-39.51,13.81-52.03.5-5.06.69-9.69.66-13.97-.19-20.3-5.67-32.38-9.24-41.52-.19-.48-4.98-10.91-8.8-19.28-.79-6.62-1.8-14.25-2.87-21.93-2.55-18.44-5.42-37.12-6.25-42.53.13-.51.25-1.04.38-1.55.47,2.28,1.59,7.74,2.05,9.59,2.92,11.72,7.42,25.57,9.16,34.49.19,1,.36,1.96.48,2.82.27,1.91,1.37,17.82,8.04,35.8.37,1.01.73,1.97,1.07,2.9,5.34,14.31,7.51,19.23,11.29,27.24,2.75,5.84,4.73,10.51,5.04,14.28.01.14.04.3.04.44.09,1.65-1.59,5.15-2.19,7.35-1.87,6.81,1.91,12.51-2.4,21.4-.46.95,2.39,1.08,4.09-.8,2.13-2.37,2.76-8.84,2.83-7.65.42,7.9,1.73,9.71,2.53,16.17.59,4.71-1.06,7.31.23,9.21.99,1.46,1.33,1.34,3.75-1.26,1.7-1.83,2.78-3.52,3.87-4.88,2.13-2.64,3.28-5.25,3.47-10.69.14-4.12-.43-7.24-1.88-13.22Z"/>
  </g>
</svg>