<?xml version="1.0" encoding="UTF-8"?>
<svg id="_레이어_2" data-name="레이어 2" xmlns="http://www.w3.org/2000/svg" viewBox="0 0 181.09 572.09">
  <defs>
    <style>
      .cls-1 {
        fill: #f3a9aa;
        stroke: #231815;
        stroke-miterlimit: 10;
      }
    </style>
  </defs>
  <g id="_레이어_1-2" data-name="레이어 1">
    <path class="cls-1" d="m180.59,324.16s0-.04,0-.06c0-.02,0-.03,0-.05,0-.08,0-.16,0-.24,0-.09,0-.17,0-.26,0-.03,0-.07,0-.1,0-.07,0-.14,0-.21,0-.15-.02-.3-.02-.44,0-.02,0-.04,0-.06-.15-2.96-.74-5.88-1.85-10.46-.55-2.25-1.14-3.67-1.88-8.67-.06-.38-.11-.78-.17-1.19-.17-1.33-.27-2.49-.36-3.63,0-.06-.01-.11-.02-.17-.02-.34-.04-.67-.05-.98-.07-.57-.07-1.13-.07-1.37h0v-.07c0-.55,0-.99-.05-1.42-.35-3.06-1.84-4.02-2.65-9.76-1.54-10.79-2.57-18.84-4-30.04,0-.1-.02-.2-.04-.3-.29-2.29-.6-4.71-.94-7.33-1.19-9.32-5.16-21.02-9.35-33.89-.04-.1-.07-.2-.1-.3-.24-.74-.48-1.48-.73-2.23-.43-1.33-1.34-11.48-1.7-16.81-.43-6.67-4.54-67.76-7.36-76.98-2.1-6.87-4.14-9.63-6.09-10.54h0s-1.59-.9-2.55-1.31c-2.47-1.05-5.47-1.66-8.69-2.26-3.04-.56-6.81-1.17-10.06-2.15-.65-.2-1.3-.41-1.92-.65-.38-.15-.75-.29-1.12-.45-.11-.05-.22-.09-.34-.14-.26-.11-.52-.22-.77-.33-.13-.06-.25-.11-.38-.17-.25-.12-.5-.24-.74-.36-.11-.05-.22-.11-.33-.16-.35-.18-.69-.36-1.03-.56-.29-.17-.58-.34-.86-.52-.32-.21-.64-.43-.95-.65-.09-.07-.18-.14-.27-.21-.22-.17-.44-.34-.65-.52-.1-.08-.19-.17-.29-.25-.21-.19-.42-.38-.63-.59-.08-.08-.16-.15-.23-.23-.56-.57-1.1-1.2-1.6-1.89-.05-.07-.1-.15-.16-.23-.2-.28-.39-.58-.58-.88-.06-.09-.11-.19-.17-.28-.19-.33-.38-.67-.56-1.03-.03-.06-.06-.12-.1-.18-.22-.44-.43-.89-.63-1.38-.81-1.95-1.27-6.39-1.53-10.64-.1-1.65-.17-3.27-.22-4.7.11-.1.21-.21.32-.31.31-.3.61-.61.9-.93.02-.02.03-.03.04-.05.26-.29.51-.59.75-.9.03-.04.06-.09.1-.13.22-.29.44-.6.65-.92.05-.08.1-.16.15-.23.19-.3.38-.6.55-.92.07-.12.13-.25.2-.38.15-.29.31-.59.45-.9.09-.18.16-.38.25-.58.12-.28.24-.55.35-.84.11-.29.21-.61.32-.92.07-.22.15-.43.22-.66.17-.56.33-1.14.48-1.75.11-.42.22-.9.34-1.4.02-.07.03-.14.05-.21.01-.06.03-.11.04-.17,0-.03.01-.05.02-.08.07-.28.13-.57.2-.86,0-.02,0-.04.01-.06,0-.02.01-.05.02-.07.02-.09.04-.18.06-.27.18.06.35.1.51.12h0c.15.02.3.03.44.01,0,0,0,0,0,0,.11-.01.22-.04.32-.07.07-.02.15-.05.22-.08,0,0,0,0,0,0,.04-.02.08-.04.12-.06,0,0,0,0,0,0,.32-.17.6-.42.84-.74,0,0,0,0,0,0,.03-.04.06-.08.09-.12,0,0,0,0,0,0,.23-.33.43-.7.59-1.09,0,0,0,0,0,0,.02-.05.04-.1.06-.15,0,0,0,0,0,0,.07-.18.15-.37.21-.55,0,0,0-.01,0-.02,0,0,0,0,0,0,0,0,0-.02,0-.02.25-.72.43-1.39.59-1.77,0,0,0-.02.01-.02.56-1.32,1.31-1.49,2.04-4.38,0-.03.02-.06.03-.1.28-1.14.13-2.06,0-2.87-.01-.09-.03-.19-.04-.28-.01-.1-.02-.2-.03-.31,0-.07-.01-.13-.02-.19,0-.07,0-.13,0-.19,0-.08,0-.16,0-.24,0-.01,0-.02,0-.03h0s0-.05.01-.07c.01-.14.03-.28.07-.42.03-.11.06-.24.08-.39,0-.06.01-.12.02-.19.01-.11.03-.21.04-.33,0,0,0,0,0,0,.01-.16.02-.33.02-.51,0,0,0,0,0,0,0-.04,0-.09,0-.13,0,0,0,0,0-.01,0-.14,0-.28-.02-.43,0,0,0,0,0-.01,0-.04,0-.08-.01-.12,0,0,0,0,0,0,0-.04-.01-.07-.02-.11-.03-.28-.09-.54-.17-.8-.02-.06-.03-.13-.05-.19,0,0,0,0,0-.01-.01-.03-.02-.05-.03-.08,0,0,0,0,0-.01-.06-.14-.12-.26-.2-.38,0,0,0,0,0-.01-.01-.02-.03-.05-.04-.07,0,0,0,0,0,0-.1-.14-.2-.26-.33-.36-.05-.04-.11-.07-.18-.1,0,0,0,0,0,0-.08-.03-.16-.06-.25-.09.05-.17.09-.36.13-.54.03-.11.05-.22.08-.33.03-.13.06-.24.09-.37,0,0,0-.01,0-.02.05-.2.09-.41.13-.61,0-.04.02-.07.02-.11.05-.22.09-.43.14-.66,0,0,0-.01,0-.02.04-.21.08-.42.12-.64,0,0,0-.02,0-.03.05-.27.1-.54.14-.82,0,0,0-.01,0-.02.04-.21.07-.43.1-.65,0,0,0-.01,0-.02.04-.29.09-.59.13-.89,0,0,0,0,0-.01.03-.22.06-.43.08-.65,0,0,0,0,0,0,.04-.33.07-.66.11-.99,0,0,0,0,0,0,.02-.21.04-.42.06-.63,0,0,0,0,0,0,.03-.36.06-.72.08-1.09,0,0,0,0,0-.01.01-.19.03-.38.04-.58h0c.1-1.93.07-3.91-.11-5.89,0,0,0,0,0,0,0-.02,0-.04,0-.06-.13-1.44-.34-2.86-.66-4.26h0s0,0,0,0c-.11-.5-.24-1-.38-1.49h0s-.03-.1-.05-.15c-.27-.93-.59-1.84-.97-2.71-.01-.02-.02-.05-.03-.08-.08-.19-.17-.38-.26-.57-1.44-3.12-3.16-5.67-4.99-7.71,0,0,0,0,0,0,0,0,0,0,0,0,0,0,0,0,0,0,0,0,0,0,0,0-3.7-4.52-9.37-7.77-15.93-8.83,0,0,0,0,0,0,0,0,0,0,0,0,0,0,0,0,0,0s0,0,0,0c-.66-.11-1.33-.18-2.01-.24,0,0,0,0,0,0-.15-.01-.3-.03-.45-.04,0,0,0,0,0,0-.72-.05-1.46-.09-2.2-.09h-.01c-.53,0-1.05.01-1.57.04h0c-6.8.36-12.88,3.05-17.16,7.14,0,0,0,0,0,0-.32.31-.63.62-.93.94-.02.02-.03.03-.05.05-.31.34-.61.68-.9,1.04-.28.32-.56.65-.84.99-.07.08-.13.17-.2.25-.22.27-.43.55-.64.83-.07.09-.14.19-.21.29-.23.31-.45.64-.67.97-.04.06-.09.13-.13.19-.86,1.32-1.67,2.79-2.41,4.41-.05.12-.11.23-.16.35-.08.19-.15.38-.22.57-.34.85-.65,1.72-.9,2.62h0c-.02.08-.04.16-.06.24-.7,2.59-1.02,5.33-1.08,8.02h0c0,.32,0,.64,0,.96h0c0,.37,0,.73.02,1.09,0,.26.01.52.02.78h0c.03.68.08,1.36.13,2.02,0,0,0,0,0,0,.02.26.05.52.07.78,0,0,0,0,0,.01.02.19.04.39.06.58,0,0,0,0,0,0,.05.4.1.8.15,1.18,0,0,0,0,0,0h0c.06.47.13.92.21,1.37,0,.03,0,.05.01.08,0,.01,0,.02,0,.03,0,0,0,0,0,.01.06.37.13.73.2,1.08.01.05.02.11.03.16.01.05.02.11.03.17,0,0,0,.01,0,.02.03.16.07.31.1.47.03.13.05.25.08.38.04.16.07.33.1.48,0,.02.01.05.02.07.09.4.19.78.28,1.15-.16.05-.31.1-.43.19,0,0-.01.02-.02.02-.1.08-.19.18-.27.29-.04.05-.08.11-.12.17-.03.05-.06.11-.09.17-.4.8-.45,1.93-.37,2.77,0,0,0,.01,0,.02.03.26.06.49.11.67,0,.02,0,.04.01.05,0,0,0,0,0,0,.04.15.06.29.08.44,0,.05,0,.1,0,.15,0,.1,0,.2,0,.31,0,.06,0,.12-.01.18,0,.11-.02.22-.04.33,0,.05-.01.1-.02.15-.1.69-.25,1.44-.15,2.33,0,0,0,0,0,0,0,.02,0,.03,0,.05.02.22.06.44.12.67.05.19.09.36.14.53,0,0,0,.02,0,.03.08.27.15.51.23.72,0,0,0,0,0,0,.01.04.03.08.04.11,0,0,0,0,0,0,.07.19.14.36.21.52,0,0,0,0,0,.01.02.05.04.1.06.14,0,0,0,0,0,0,.06.13.12.25.18.36,0,0,0,.01,0,.02.03.05.06.11.08.15,0,0,0,0,0,.01.05.08.09.16.14.23,0,0,0,.02.01.02.01.02.03.04.04.06.06.1.13.2.19.29.26.39.51.74.73,1.26.05.13.11.3.17.48,0,.03.02.05.03.08.02.05.04.12.06.18.27.85.63,2.03,1.23,2.88,0,0,0,0,0,0,.03.04.05.08.08.11.32.42.71.75,1.19.88.1.03.2.06.31.07,0,0,0,0,0,0h0c.29.03.6-.01.95-.14,0,.04.02.07.02.11.24,1.09.49,2.11.71,2.98,0,.01,0,.03,0,.04,0,0,0,.02,0,.03.15.62.32,1.2.49,1.76,0,0,0,.02,0,.02.53,1.69,1.15,3.13,1.87,4.38,0,.02.02.03.03.05.21.37.43.72.66,1.06.04.06.08.12.12.18.24.34.48.68.73.99h0c.19.24.39.45.58.67.01.01.02.03.03.04.07.08.14.17.22.25,0,0,0,0,0,0,.3.33.62.64.94.94.01.01.02.02.03.03,0,.03,0,.06,0,.1-.02.58-.04,1.18-.07,1.8,0,.07,0,.14,0,.22-.03.64-.06,1.3-.1,1.97,0,.04,0,.09,0,.13-.06,1.08-.14,2.18-.23,3.25-.01.14-.03.28-.04.42-.02.25-.04.5-.07.74-.02.17-.03.33-.05.49-.02.21-.04.42-.07.63,0,0,0,0,0,0-.02.17-.04.33-.06.49-.02.2-.05.4-.07.59-.02.16-.04.31-.06.46-.03.19-.05.37-.08.56-.02.15-.05.3-.07.44-.03.18-.06.35-.09.52-.02.13-.05.27-.07.39-.03.17-.07.32-.1.48-.03.12-.05.23-.08.34-.04.16-.08.31-.12.46-.02.09-.05.18-.07.26-.06.2-.13.39-.2.56,0,.01,0,.03-.02.04-.66,1.6-1.43,2.97-2.3,4.14-.29.39-.59.75-.9,1.1-.02.02-.04.05-.06.07-.06.07-.12.13-.18.2-.31.34-.63.66-.96.96,0,0,0,0,0,0,0,0,0,0,0,0,0,0,0,0,0,0-.33.31-.68.59-1.03.86-.09.07-.18.14-.27.21-.35.26-.71.52-1.08.76,0,0,0,0,0,0,0,0-.01,0-.01,0,0,0,0,0,0,0-.37.24-.76.46-1.15.68-.04.02-.09.05-.13.07-.06.03-.11.06-.17.09-.39.21-.78.41-1.18.6,0,0,0,0-.01,0,0,0,0,0-.01,0,0,0,0,0,0,0-.41.2-.83.38-1.26.56-.11.05-.22.09-.33.14-.42.18-.85.35-1.28.52,0,0,0,0-.01,0,0,0,0,0,0,0-3.59,1.39-8.32,2.13-11.97,2.8-3.22.6-6.22,1.21-8.69,2.26-.96.41-2.55,1.3-2.55,1.3h0c-1.95.92-3.99,3.68-6.09,10.55-2.82,9.22-6.93,70.31-7.36,76.98-.36,5.33-1.27,15.48-1.7,16.81-.25.75-.49,1.49-.73,2.23-.03.1-.06.2-.1.3-4.19,12.87-8.16,24.57-9.35,33.89-.34,2.62-.65,5.04-.94,7.33-.02.1-.03.2-.04.3-1.43,11.2-2.46,19.25-4,30.04-.81,5.74-2.3,6.7-2.65,9.76-.05.43-.05.87-.05,1.42v.2s0,.01,0,.02c0,.02,0,.06,0,.09-.01.94-.03,2.21-.29,4.25-.93,7.4-1.63,8.87-2.27,11.5-1.11,4.58-1.69,7.49-1.85,10.45,0,.03,0,.06,0,.09,0,.14-.02.28-.02.42,0,.07,0,.13,0,.2,0,.05,0,.11,0,.16,0,.08,0,.15,0,.23,0,.08,0,.15,0,.23,0,.02,0,.03,0,.05,0,.02,0,.04,0,.05,0,.51,0,1.03.02,1.56.19,5.44,1.34,8.05,3.46,10.69,1.1,1.36,2.18,3.05,3.88,4.88,2.42,2.6,2.76,2.72,3.74,1.26.41-.61.52-1.29.5-2.08,0-.02,0-.03,0-.05,0-.02,0-.05,0-.07,0-.09-.01-.2-.02-.3,0-.05,0-.1,0-.15-.07-1.16-.34-2.56-.37-4.34,0-.25,0-.52.01-.79.02-.46.05-.93.12-1.44.8-6.46,2.09-8.27,2.53-16.17.07-1.19.69,5.28,2.83,7.65,1.61,1.79,4.29,1.76,4.12.92,0-.02,0-.04,0-.07,0-.02,0-.04,0-.06,0-.07,0-.14-.04-.21-1.63-3.38-2.11-6.29-2.16-8.98,0-.23,0-.46,0-.68,0-.11,0-.22,0-.33.04-2.22.3-4.31.32-6.41,0,0,0,0,0-.01,0,0,0-.01,0-.02.03-1.64-.09-3.27-.55-4.98-.6-2.15-2.19-5.53-2.19-7.21.01-.12.03-.24.04-.35.31-3.77,2.28-8.44,5.04-14.28,3.75-7.95,5.87-12.88,11.17-26.95.04-.1.07-.19.11-.29.35-.93.71-1.89,1.08-2.9,6.66-17.98,7.77-33.89,8.03-35.8.11-.77.26-1.62.43-2.51.02-.1.04-.21.06-.31.88-4.46,2.43-10.15,4.13-16.18,1.71-6.05,3.56-12.44,5.02-18.3.41-1.65,1.36-6.21,1.87-8.73.02-.06.05-.12.07-.17.06-.02.12,0,.17,0,.06.12.12.23.17.36.02.14.04.29.06.44.18,7.51-1,26.23-3.53,42.66-.89,5.76-2.63,11.49-4.11,17.29-.08.31-.15.6-.22.91-.16.27-.31.54-.48.81-4.88,8.14-11.83,20.02-12.47,22.51-.02.05-.04.1-.06.15-3.76,9.12-9.52,21.16-9.75,41.37v.15c-.04,4.28.16,8.91.69,13.97,1.31,12.52,10.98,39.25,14.59,52.02,8.02,28.39,12.56,45.42,13.15,55.43.77,12.92-.99,16.96-2.56,24.79-3.05,15.21-.82,28.37,2.8,40.42,6.69,22.28,13.71,32.19,14.43,43.89.17,2.91-2.02,4.13-.81,7.83.63,1.92,1.69,3.76.08,8.04-5.46,14.48-12.57,18.28-11.73,23.57.93,5.86,20.64,5.49,28.36,4.17,6.35-1.09,6.26-10.06,4.43-20.34-.37-2.08-.56-4.4-.42-7.96.08-1.75.55-3.8.8-6.28.23-2.28-.43-4.69-.8-6.59-.27-1.45-.55-2.61-.6-3.22-1.7-22.38-1.17-27.75,1.65-48.79,2.85-21.26-1.15-25.08-.65-38.08.3-7.71,2.64-15.58,3.27-23.92.79-10.47-.3-20.35-1.41-27.79-3.06-20.58-3.04-23.9-4.03-40.16-1.07-17.66,4.59-26.31,1.36-41.54.75.26,2.58.36,4.4.37,1.82.02,3.65-.11,4.4-.37-3.23,15.23,2.43,23.88,1.36,41.54-.99,16.26-.97,19.58-4.03,40.16-1.11,7.44-2.19,17.32-1.4,27.79.62,8.34,2.96,16.21,3.26,23.92.5,13-3.5,16.82-.64,38.08,2.82,21.04,3.35,26.41,1.64,48.79-.05.61-.33,1.77-.6,3.22-.36,1.9-1.03,4.31-.8,6.59.25,2.48.73,4.53.8,6.28.14,3.56-.05,5.88-.42,7.96-1.83,10.28-1.91,19.25,4.44,20.34,7.71,1.32,27.42,1.69,28.35-4.17.84-5.29-6.26-9.09-11.72-23.57-1.62-4.28-.55-6.12.08-8.04,1.21-3.7-.99-4.92-.81-7.83.71-11.7,7.73-21.61,14.43-43.89,3.62-12.05,5.84-25.21,2.8-40.42-1.57-7.83-3.33-11.87-2.57-24.79.59-10.01,5.13-27.04,13.16-55.43,3.61-12.77,13.28-39.5,14.59-52.02.52-5.06.72-9.69.68-13.97v-.15c-.22-20.21-5.99-32.25-9.75-41.37-.02-.05-.04-.1-.06-.15-.63-2.49-7.58-14.37-12.46-22.51-.34-.57-.66-1.13-.99-1.7-1.41-5.68-2.92-11.48-3.83-17.3,0,0,0,0,0,0-2.49-16.56-3.82-35.32-3.62-42.61.13-.51.25-1.04.39-1.55.47,2.28,1.59,7.74,2.05,9.59,2.9,11.63,7.35,25.35,9.12,34.28.02.1.04.19.06.29.19.97.35,1.91.47,2.75.26,1.83,1.28,16.57,7.27,33.64.34.97.69,1.93,1.04,2.88.29.78.56,1.53.83,2.25,5.28,14.27,7.49,19.17,11.26,27.17,2.7,5.73,4.65,10.34,5.02,14.07,0,.1.02.19.03.28,0,.1.02.21.03.31-.02,1.69-1.59,5.04-2.19,7.18-.36,1.3-.5,2.56-.54,3.81,0,.02,0,.04,0,.06,0,.02,0,.03,0,.05-.06,1.63.07,3.24.18,4.9.03.5.06,1,.09,1.51,0,.12,0,.24.01.36.02.58.04,1.16.03,1.76,0,.04,0,.07,0,.11,0,.32-.02.64-.04.97,0,0,0,0,0,.01-.16,2.38-.7,4.95-2.12,7.87-.04.08-.05.15-.04.21,0,.02,0,.04,0,.06,0,.02,0,.04,0,.07-.17.83,2.5.87,4.12-.92,2.13-2.37,2.76-8.84,2.83-7.65.44,7.9,1.73,9.71,2.53,16.17.06.52.1,1,.12,1.47,0,.22.01.43.01.64,0,.05,0,.1,0,.15-.03,1.68-.27,3.02-.36,4.14,0,.07,0,.13-.01.19,0,.08-.01.16-.02.24,0,.02,0,.05,0,.07,0,.02,0,.05,0,.07,0,0,0,.01,0,.02,0,0,0,.01,0,.02-.03.84.07,1.56.5,2.19.99,1.46,1.33,1.34,3.75-1.26,1.7-1.83,2.78-3.52,3.87-4.88,2.13-2.64,3.28-5.25,3.47-10.69.02-.53.02-1.05.02-1.56Z"/>
  </g>
</svg>