<?xml version="1.0" encoding="UTF-8"?>
<svg id="_레이어_2" data-name="레이어 2" xmlns="http://www.w3.org/2000/svg" viewBox="0 0 181.09 572.09">
  <defs>
    <style>
      .cls-1 {
        fill: #f3a9aa;
        stroke: #231815;
        stroke-miterlimit: 10;
      }
    </style>
  </defs>
  <g id="_레이어_1-2" data-name="레이어 1">
    <path class="cls-1" d="m180.59,324.1s0-.03,0-.05c0-.08,0-.16,0-.24,0-.19,0-.38-.02-.57-.11-3.14-.7-6.12-1.88-10.97-.55-2.25-1.14-3.67-1.88-8.67-.05-.38-.11-.78-.17-1.19-.17-1.33-.27-2.49-.36-3.63,0-.06-.01-.11-.02-.17-.02-.34-.04-.67-.05-.98-.07-.57-.07-1.13-.07-1.37,0,0,0,0,0-.01v-.06c0-.55,0-.99-.05-1.42-.35-3.06-1.84-4.02-2.65-9.76-1.54-10.79-2.57-18.84-4-30.04-.01-.1-.02-.2-.04-.3-.29-2.29-.6-4.71-.94-7.33-1.19-9.32-5.16-21.02-9.35-33.89-.04-.1-.07-.2-.1-.3-.24-.74-.48-1.48-.73-2.23-.43-1.33-1.34-11.48-1.7-16.81-.43-6.67-4.54-67.76-7.36-76.98-2.1-6.87-4.14-9.63-6.09-10.54h0s-1.59-.9-2.55-1.31c-2.47-1.05-5.47-1.66-8.69-2.26-3.04-.56-6.81-1.17-10.06-2.15-.65-.2-1.3-.41-1.92-.65-.38-.15-.75-.29-1.12-.45-.11-.05-.22-.09-.34-.14-.26-.11-.52-.22-.77-.33-.13-.06-.25-.11-.38-.17-.25-.12-.5-.24-.74-.36-.11-.05-.22-.11-.33-.16-.35-.18-.69-.36-1.03-.56-.29-.17-.58-.34-.86-.52-.32-.21-.64-.43-.95-.65-.09-.07-.18-.14-.27-.21-.22-.17-.44-.34-.65-.52-.1-.08-.19-.17-.29-.25-.21-.19-.42-.38-.63-.59-.08-.08-.16-.15-.23-.23-.56-.57-1.1-1.2-1.6-1.89-.05-.07-.1-.15-.16-.23-.2-.28-.39-.58-.58-.88-.06-.09-.11-.19-.17-.28-.19-.33-.38-.67-.56-1.03-.03-.06-.06-.12-.1-.18-.22-.44-.43-.89-.63-1.38-.81-1.95-1.27-6.39-1.53-10.64-.1-1.65-.17-3.27-.22-4.7.13-.12.25-.24.37-.37,2.36-2.3,4.19-5.27,5.36-10.04.14-.53.28-1.14.43-1.78.08-.33.15-.66.23-1.01,0-.02.01-.05.02-.07.02-.09.04-.18.06-.27.18.06.35.1.51.12.15.02.3.03.44.01,0,0,0,0,0,0,.19-.02.37-.07.54-.15.04-.02.08-.04.12-.06.32-.17.6-.42.84-.74.03-.04.06-.08.09-.12.23-.33.43-.7.6-1.09.02-.05.04-.1.06-.15.08-.19.15-.38.22-.57,0,0,0,0,0,0,.07-.2.14-.4.2-.58.02-.08.05-.15.07-.22.03-.09.06-.18.08-.27.01-.04.03-.09.04-.13.07-.23.14-.44.21-.59.57-1.36,1.33-1.49,2.08-4.5.06-.24.1-.47.12-.69,0-.07,0-.13.01-.2.01-.15.02-.3.02-.44,0-.08,0-.15,0-.23,0-.13-.01-.25-.02-.37,0-.08-.01-.15-.02-.23-.01-.12-.03-.24-.05-.36-.01-.1-.03-.2-.04-.3-.02-.12-.03-.23-.05-.35-.01-.1-.02-.19-.03-.29,0-.07-.02-.14-.02-.21,0-.15-.01-.29,0-.44,0-.01,0-.02,0-.03,0,0,0,0,0,0,0-.02,0-.05.01-.07.01-.14.03-.28.07-.42.03-.11.06-.24.08-.39.02-.15.04-.33.06-.52.01-.16.02-.33.02-.51,0-.05,0-.1,0-.15,0-.14-.01-.28-.02-.43,0-.05,0-.1-.01-.14-.04-.38-.12-.76-.24-1.09-.01-.04-.03-.07-.04-.1-.06-.14-.12-.26-.2-.38-.02-.03-.04-.06-.06-.09-.1-.14-.2-.26-.33-.36-.05-.04-.11-.07-.18-.1-.08-.03-.16-.06-.25-.09.05-.17.09-.37.13-.55.06-.24.12-.47.18-.72.05-.2.09-.41.13-.61.06-.26.11-.52.17-.79.04-.21.08-.42.12-.64.05-.28.1-.57.15-.86.04-.21.07-.43.1-.65.05-.31.09-.61.13-.93.03-.22.06-.43.08-.65.04-.33.08-.66.11-1,.02-.21.04-.42.06-.63.03-.36.06-.73.08-1.1.01-.19.03-.38.04-.58.02-.42.03-.84.04-1.26,0-.15.01-.3.01-.46.02-1.38-.03-2.78-.16-4.17,0-.11-.02-.21-.03-.32-.08-.83-.19-1.65-.33-2.46,0,0,0,0,0,0,0,0,0,0,0,0-.09-.51-.19-1.02-.31-1.53,0-.01,0-.02,0-.03-.11-.49-.24-.98-.38-1.47-.04-.14-.09-.27-.13-.41-.11-.36-.22-.71-.34-1.06-.18-.49-.37-.98-.58-1.46-.19-.42-.38-.84-.57-1.24,0,0,0,0,0,0-.31-.65-.64-1.26-.98-1.85-.05-.08-.09-.17-.14-.25-.33-.57-.67-1.11-1.01-1.63-.06-.09-.12-.18-.18-.26-.35-.51-.7-1.01-1.07-1.48-.05-.06-.1-.12-.15-.18-.38-.48-.76-.94-1.15-1.38,0,0,0,0,0,0,0,0,0,0,0,0-.41-.51-.86-.99-1.32-1.46-.09-.09-.18-.18-.27-.28-.46-.46-.94-.9-1.45-1.32-.08-.07-.17-.13-.25-.2-.49-.4-1-.79-1.53-1.16-.05-.04-.1-.07-.15-.11-.56-.38-1.15-.74-1.74-1.08-.12-.07-.23-.13-.35-.2-.6-.33-1.22-.65-1.86-.94-.06-.03-.13-.05-.19-.08-.6-.27-1.22-.51-1.86-.74-.11-.04-.22-.08-.33-.12-.66-.23-1.34-.43-2.03-.61-.14-.04-.28-.07-.42-.1-.71-.17-1.43-.33-2.17-.45,0,0,0,0,0,0,0,0,0,0,0,0-.66-.11-1.34-.18-2.02-.24-.15-.01-.3-.03-.45-.04-.73-.05-1.46-.09-2.2-.09h-.01c-.53,0-1.05.01-1.57.04-.22.01-.44.04-.66.05-.29.02-.59.04-.88.07-.29.03-.57.07-.85.11-.22.03-.44.05-.66.09-.33.05-.66.12-.98.18-.16.03-.33.06-.49.09-.37.08-.73.17-1.09.26-.12.03-.23.05-.35.09-.39.11-.78.22-1.16.35-.08.03-.16.05-.24.07-.41.13-.81.28-1.21.43-.05.02-.1.03-.15.05-.43.16-.84.34-1.26.52-.02,0-.04.02-.06.02-3.6,1.61-6.69,3.94-9,6.78-1.23,1.37-2.41,2.97-3.49,4.81-.03.05-.05.1-.08.14-.18.31-.36.63-.53.95-.09.18-.18.36-.28.54-.1.2-.21.41-.31.62-.19.4-.38.81-.57,1.23-.19.44-.37.9-.53,1.35-.05.13-.09.26-.14.39-.12.35-.23.7-.33,1.05-.04.13-.08.26-.12.39-.13.47-.25.94-.36,1.42,0,.04-.01.07-.02.11-.1.44-.18.89-.26,1.34-.03.15-.05.31-.07.46-.06.35-.1.71-.15,1.06-.02.15-.04.3-.06.45-.05.48-.1.95-.13,1.43,0,.1-.01.2-.02.3-.02.39-.04.78-.06,1.16,0,.18-.01.36-.01.54,0,.32,0,.64,0,.96,0,.18,0,.35,0,.53,0,.45.02.9.04,1.34,0,.17.02.33.03.5.02.3.03.6.06.9.02.21.03.41.05.62.02.26.05.52.07.78.02.2.04.4.06.6.05.4.09.8.15,1.18,0,0,0,0,0,0,.07.49.14.97.22,1.45,0,.01,0,.02,0,.03.07.43.15.85.23,1.26.01.05.02.11.03.17.06.3.12.58.19.87.04.16.07.33.1.48,0,.02.01.05.02.07.09.4.19.78.28,1.15-.16.04-.31.09-.43.18,0,0,0,0,0,0,0,0-.01.01-.02.02-.33.26-.54.67-.68,1.14-.01.04-.02.07-.03.11-.03.13-.06.26-.09.39,0,.04-.01.08-.02.12-.11.76-.07,1.56.02,2.09.02.11.04.21.06.29,0,0,0,0,0,.01.04.14.06.29.07.43,0,.05,0,.11,0,.16,0,.1,0,.2,0,.3,0,.06,0,.12-.01.18,0,.1-.02.2-.03.31,0,.06-.01.12-.02.18,0,.02,0,.03,0,.05-.04.26-.08.54-.12.83,0,.06-.02.11-.02.17-.01.15-.02.3-.03.46,0,.05,0,.1,0,.15,0,.21,0,.43.03.66,0,.02,0,.03,0,.05.03.22.06.44.12.67.05.19.09.36.14.53,0,.01,0,.02.01.03.08.27.15.5.23.72.01.04.03.08.04.11.07.2.14.37.21.54.02.05.04.1.06.14.06.14.13.27.19.39.03.05.06.11.08.15.05.1.11.19.16.27.35.56.68.94.96,1.61.05.13.11.3.17.49,0,.02.01.04.02.06.06.2.13.42.21.66.07.21.14.43.22.66.01.03.02.07.04.1.21.58.48,1.17.82,1.65.03.04.06.08.09.12.24.32.52.57.84.74.04.02.08.04.12.06.17.07.34.13.54.15h0c.29.03.6-.01.95-.14.25,1.13.5,2.19.73,3.08,0,.01,0,.03,0,.04,0,0,0,.02,0,.03.92,3.74,2.24,6.37,3.91,8.44.2.25.41.48.62.71.07.08.14.17.22.25.32.34.64.67.98.98,0,.03,0,.06,0,.1-.02.58-.04,1.18-.07,1.8,0,.07,0,.14,0,.22-.03.64-.06,1.3-.1,1.97,0,.04,0,.09,0,.13-.06,1.08-.14,2.18-.23,3.25-.01.14-.03.28-.04.42-.02.25-.04.5-.07.74-.02.17-.03.33-.05.49-.02.21-.04.42-.07.63-.02.16-.04.32-.06.48-.02.2-.05.4-.07.6-.02.16-.04.31-.06.46-.03.19-.05.37-.08.56-.02.15-.05.3-.07.44-.03.18-.06.35-.09.52-.02.13-.05.27-.07.39-.03.17-.07.32-.1.48-.03.12-.05.23-.08.34-.04.16-.08.31-.12.46-.02.09-.05.18-.07.26-.06.2-.13.39-.2.56,0,.01,0,.03-.02.04-.66,1.6-1.43,2.97-2.3,4.14-.29.39-.59.75-.9,1.1-.08.09-.16.18-.24.27-.31.34-.63.66-.96.97,0,0,0,0,0,0-.33.31-.68.59-1.04.87-.09.07-.18.14-.27.21-.35.26-.71.52-1.08.76,0,0-.01,0-.02.01-.38.24-.76.47-1.15.68-.1.06-.2.11-.3.17-.39.21-.79.42-1.19.61,0,0-.01,0-.02,0-.41.2-.84.38-1.26.57-.11.05-.22.09-.33.14-.43.18-.85.35-1.29.52-3.59,1.39-8.32,2.13-11.98,2.8-3.22.6-6.22,1.21-8.69,2.26-.96.41-2.55,1.3-2.55,1.3h0c-1.95.92-3.99,3.68-6.09,10.55-2.82,9.22-6.93,70.31-7.36,76.98-.36,5.33-1.27,15.48-1.7,16.81-.25.75-.49,1.49-.73,2.23-.03.1-.06.2-.1.3-4.19,12.87-8.16,24.57-9.35,33.89-.34,2.62-.65,5.04-.94,7.33-.02.1-.03.2-.04.3-1.43,11.2-2.46,19.25-4,30.04-.81,5.74-2.3,6.7-2.65,9.76-.05.43-.05.87-.05,1.42v.3c-.01.94-.03,2.22-.29,4.27-.93,7.4-1.63,8.87-2.27,11.5-1.17,4.85-1.77,7.82-1.88,10.96,0,.2-.01.39-.02.59,0,.08,0,.15,0,.23,0,.02,0,.03,0,.05,0,.5,0,1.01.02,1.54.19,5.44,1.34,8.05,3.46,10.69,1.1,1.36,2.18,3.06,3.88,4.88,2.42,2.6,2.76,2.72,3.74,1.26.41-.6.52-1.27.51-2.06,0-.02,0-.05,0-.07,0-.09-.01-.2-.02-.3,0-.05,0-.1,0-.15-.07-1.16-.34-2.56-.37-4.34,0-.29,0-.59.02-.9,0-.14.01-.29.02-.44,0-.14.03-.29.04-.44.02-.17.03-.35.05-.53.8-6.46,2.09-8.28,2.53-16.17.07-1.2.69,5.27,2.83,7.64,1.61,1.79,4.27,1.76,4.13.93,0-.02,0-.04,0-.06,0-.07,0-.14-.04-.21-1.63-3.38-2.11-6.29-2.16-8.98,0-.23,0-.46,0-.68,0-.13,0-.27,0-.4,0-.28.02-.55.03-.82,0-.18.01-.36.02-.53.09-1.71.25-3.35.27-4.99,0,0,0-.01,0-.02.03-1.64-.09-3.27-.55-4.98-.6-2.16-2.21-5.56-2.19-7.24,0-.01,0-.02,0-.03,0-.12.03-.25.04-.37.31-3.77,2.28-8.43,5.04-14.28,3.75-7.95,5.83-12.89,11.17-26.95.04-.1.07-.19.11-.29.35-.93.71-1.88,1.08-2.89,6.66-17.98,7.77-33.9,8.03-35.8.11-.77.25-1.63.43-2.52.02-.1.04-.21.06-.31.88-4.46,2.43-10.14,4.13-16.18,1.71-6.05,3.56-12.44,5.02-18.31.41-1.63,1.33-6.07,1.84-8.58.04-.09.07-.17.1-.25.11-.03.21-.03.3,0,0,.01,0,.03,0,.04,1.28,9.17,1.76,28.54-.8,43.41-.79,4.61-2.69,9.19-4.62,14.09-.89,1.62-1.83,3.26-2.82,4.92-4.88,8.14-11.83,20.02-12.47,22.51-.02.05-.04.1-.06.15-3.76,9.12-9.52,21.16-9.75,41.37v.15c-.04,4.28.16,8.91.69,13.97,1.31,12.52,10.98,39.25,14.59,52.02,8.02,28.39,12.56,45.42,13.15,55.43.77,12.92-.99,16.96-2.56,24.79-3.05,15.21-.82,28.37,2.8,40.42,6.69,22.28,13.71,32.19,14.43,43.89.17,2.91-2.02,4.13-.81,7.83.63,1.92,1.69,3.76.08,8.04-5.46,14.48-12.57,18.28-11.73,23.57.93,5.86,20.64,5.49,28.36,4.17,6.35-1.09,6.26-10.06,4.43-20.34-.37-2.08-.56-4.4-.42-7.96.08-1.75.55-3.8.8-6.28.23-2.28-.43-4.69-.8-6.59-.27-1.45-.55-2.61-.6-3.22-1.7-22.38-1.17-27.75,1.65-48.79,2.85-21.26-1.15-25.08-.65-38.08.3-7.71,2.64-15.58,3.27-23.92.79-10.47-.3-20.35-1.41-27.79-3.06-20.58-3.04-23.9-4.03-40.16-1.07-17.66,4.59-26.31,1.36-41.54.75.26,2.58.36,4.4.37,1.82.02,3.65-.11,4.4-.37-3.23,15.23,2.43,23.88,1.36,41.54-.99,16.26-.97,19.58-4.03,40.16-1.11,7.44-2.19,17.32-1.4,27.79.62,8.34,2.96,16.21,3.26,23.92.5,13-3.5,16.82-.64,38.08,2.82,21.04,3.35,26.41,1.64,48.79-.05.61-.33,1.77-.6,3.22-.36,1.9-1.03,4.31-.8,6.59.25,2.48.73,4.53.8,6.28.14,3.56-.05,5.88-.42,7.96-1.83,10.28-1.91,19.25,4.44,20.34,7.71,1.32,27.42,1.69,28.35-4.17.84-5.29-6.26-9.09-11.72-23.57-1.62-4.28-.55-6.12.08-8.04,1.21-3.7-.99-4.92-.81-7.83.71-11.7,7.73-21.61,14.43-43.89,3.62-12.05,5.84-25.21,2.8-40.42-1.57-7.83-3.33-11.87-2.57-24.79.59-10.01,5.13-27.04,13.16-55.43,3.61-12.77,13.28-39.5,14.59-52.02.52-5.06.72-9.69.68-13.97v-.15c-.22-20.21-5.99-32.25-9.75-41.37-.02-.05-.04-.1-.06-.15-.63-2.49-7.58-14.37-12.46-22.51-1.42-2.37-2.75-4.71-3.94-7-1.49-4.07-2.82-8.03-3.51-12,0,0,0,0,0,0-2.43-14.69-2.21-33.52-.99-42.68.13-.52.26-1.04.39-1.55.47,2.29,1.59,7.74,2.05,9.6,2.9,11.66,7.37,25.42,9.13,34.34.02.1.04.19.06.29.18.94.34,1.85.46,2.68.26,1.85,1.31,16.98,7.52,34.36.35.98.7,1.94,1.05,2.89.21.56.4,1.09.59,1.6,5.3,14.19,7.46,19.11,11.23,27.09,2.72,5.77,4.66,10.4,5.03,14.14,0,.1.02.19.03.29,0,.08.02.18.03.26.01,1.68-1.59,5.07-2.19,7.23-.36,1.3-.5,2.56-.54,3.81,0,.02,0,.04,0,.06-.03.68-.01,1.37.01,2.05,0,.01,0,.03,0,.04.06,1.49.2,3,.26,4.55.03.65.04,1.31.03,1.99,0,.01,0,.02,0,.03,0,.33-.02.66-.04.99,0,0,0,0,0,.01-.16,2.38-.7,4.95-2.12,7.87-.04.08-.05.15-.04.21,0,.02,0,.04,0,.06-.15.82,2.51.86,4.13-.93,2.14-2.37,2.76-8.84,2.83-7.64.44,7.89,1.73,9.71,2.53,16.17.02.19.04.38.06.57.01.13.03.26.03.38.01.16.02.31.02.47.01.28.02.56.02.82,0,.02,0,.05,0,.07-.03,1.69-.28,3.03-.36,4.16-.02.18-.03.35-.03.51,0,.02,0,.05,0,.07,0,0,0,.01,0,.02-.02.82.08,1.52.5,2.14.98,1.46,1.32,1.33,3.74-1.26,1.7-1.82,2.78-3.52,3.88-4.88,2.12-2.64,3.27-5.24,3.47-10.69.02-.53.02-1.04.02-1.54Z"/>
  </g>
</svg>