<?xml version="1.0" encoding="UTF-8"?>
<svg id="_레이어_2" data-name="레이어 2" xmlns="http://www.w3.org/2000/svg" viewBox="0 0 181.09 571.93">
  <defs>
    <style>
      .cls-1 {
        fill: #f3a9aa;
        stroke: #231815;
        stroke-miterlimit: 10;
      }
    </style>
  </defs>
  <g id="_레이어_1-2" data-name="레이어 1">
    <path class="cls-1" d="m127.22,169.38c.47,2.28,1.59,7.74,2.05,9.59,2.92,11.72,7.42,25.57,9.16,34.49.19,1,.36,1.96.48,2.82.21,1.51.95,11.74,4.53,24.83-1.75-2.76-3.71-5.6-5.88-8.35-.77-.98-1.54-2-2.3-3.04-.65-5.15-1.4-10.7-2.17-16.27-2.55-18.44-5.42-37.12-6.25-42.53.13-.51.25-1.04.38-1.55Zm-85.05,46.9c.12-.86.29-1.82.49-2.82.87-4.46,2.43-10.15,4.13-16.19,1.71-6.05,3.56-12.44,5.02-18.3.46-1.85,1.59-7.31,2.05-9.59.14.51.26,1.04.39,1.55-.84,5.41-3.7,24.09-6.26,42.53-.77,5.58-1.51,11.13-2.16,16.29-.75,1.03-1.51,2.05-2.28,3.02-2.18,2.76-4.15,5.6-5.9,8.37,3.58-13.1,4.32-23.35,4.53-24.86Zm136.52,96.29c-.64-2.64-1.35-4.11-2.27-11.5-.29-2.28-.29-3.6-.29-4.57,0-.55,0-.99-.05-1.43-.36-3.05-1.84-4.01-2.66-9.76-1.55-10.89-2.58-18.97-4.03-30.33-.29-2.3-.6-4.72-.94-7.33-1.21-9.39-5.22-21.2-9.46-34.19-.24-.74-.48-1.48-.72-2.23-.43-1.34-1.35-11.48-1.7-16.82-.44-6.67-4.55-67.76-7.37-76.97-2.1-6.88-4.13-9.63-6.09-10.54v-.02s-1.58-.89-2.55-1.3c-2.86-1.21-6.46-1.84-10.27-2.55-3.66-.67-6.8-1.41-10.39-2.8-5.33-2.05-9.73-4.61-12.38-11.01-1.11-2.7-1.56-10.21-1.74-15.34,2.54-2.35,4.5-5.38,5.73-10.41.22-.9.49-1.98.74-3.12,2.78.98,3.5-3.3,4.02-4.54.57-1.37,1.33-1.5,2.08-4.5.5-2.01-.37-3.32-.01-4.61.24-.87.35-3.32-.76-4.16-.11-.09-.26-.14-.42-.19,1.65-6.26,2.7-16.5-.73-24.34-1.49-3.39-3.32-6.13-5.26-8.29-4.56-5.58-12.1-9.22-20.63-9.22s-16.06,3.64-20.62,9.22c-1.94,2.16-3.77,4.9-5.26,8.29-3.43,7.84-2.38,18.08-.73,24.34-.16.05-.31.1-.43.19-1.1.84-.99,3.29-.75,4.16.36,1.29-.51,2.6-.01,4.61.75,3,1.51,3.13,2.08,4.5.52,1.24,1.24,5.52,4.02,4.54.25,1.14.51,2.22.74,3.12,1.23,5.03,3.19,8.06,5.73,10.41-.18,5.13-.63,12.64-1.75,15.34-2.64,6.4-7.04,8.96-12.37,11.01-3.59,1.39-6.74,2.13-10.4,2.8-3.8.71-7.4,1.34-10.27,2.55-.96.41-2.55,1.3-2.55,1.3v.02c-1.95.91-3.99,3.66-6.09,10.54-2.82,9.21-6.93,70.3-7.36,76.97-.36,5.34-1.27,15.48-1.7,16.82-.25.75-.49,1.49-.73,2.23-4.23,12.99-8.25,24.8-9.45,34.19-.34,2.61-.65,5.03-.94,7.33-1.46,11.36-2.49,19.44-4.04,30.33-.81,5.75-2.3,6.71-2.65,9.76-.05.44-.05.88-.05,1.43,0,.97-.01,2.29-.29,4.57-.93,7.39-1.63,8.86-2.27,11.5-1.45,5.98-2.02,9.1-1.88,13.22.19,5.44,1.34,8.05,3.46,10.69,1.1,1.36,2.18,3.05,3.88,4.88,2.42,2.6,2.76,2.72,3.74,1.26,1.29-1.9-.35-4.5.24-9.21.8-6.46,2.11-8.27,2.53-16.17.07-1.19.69,5.28,2.83,7.65,1.69,1.88,4.55,1.75,4.09.8-4.31-8.89-.54-14.59-2.4-21.4-.61-2.2-2.28-5.7-2.2-7.35.01-.14.04-.3.05-.44.28-3.37,1.89-7.47,4.2-12.48-.54,3.71-.89,7.74-.95,12.18,0,.11-.01.2-.01.3-.04,4.28.17,8.91.73,13.96,1.37,12.52,11.56,39.26,15.36,52.03,8.45,28.39,13.23,45.42,13.85,55.42.81,12.93-1.05,16.97-2.7,24.8-3.21,15.21-.86,28.36,2.95,40.42,7.05,22.28,14.45,32.19,15.2,43.88.18,2.92-2.13,4.14-.86,7.83.67,1.93,1.79,3.77.09,8.05-5.75,14.48-13.23,18.27-12.35,23.56.98,5.86,21.74,5.5,29.86,4.18,6.69-1.09,6.6-10.06,4.67-20.34-.39-2.08-.59-4.4-.44-7.96.08-1.76.58-3.81.84-6.28.25-2.28-.46-4.69-.84-6.6-.29-1.44-.58-2.6-.63-3.21-1.8-22.38-1.24-27.75,1.73-48.79,3-21.27-1.21-25.08-.68-38.08.32-7.71,2.78-15.58,3.44-23.92.83-10.47-.31-20.36-1.48-27.8-3.22-20.57-3.2-23.89-4.25-40.15-1.12-17.66,4.84-26.32,1.44-41.55.78.27,2.72.39,4.63.38,1.92,0,3.85-.11,4.63-.38-3.39,15.23,2.57,23.89,1.44,41.55-1.04,16.26-1.03,19.58-4.25,40.15-1.16,7.44-2.31,17.33-1.48,27.8.66,8.34,3.13,16.21,3.44,23.92.53,13-3.68,16.81-.68,38.08,2.97,21.04,3.53,26.41,1.73,48.79-.05.61-.34,1.77-.63,3.21-.38,1.91-1.08,4.32-.84,6.6.26,2.47.76,4.52.84,6.28.15,3.56-.05,5.88-.44,7.96-1.93,10.28-2.02,19.25,4.67,20.34,8.12,1.32,28.88,1.68,29.86-4.18.88-5.29-6.6-9.08-12.35-23.56-1.7-4.28-.57-6.12.09-8.05,1.27-3.69-1.04-4.91-.85-7.83.75-11.69,8.14-21.6,15.19-43.88,3.82-12.06,6.16-25.21,2.95-40.42-1.65-7.83-3.51-11.87-2.7-24.8.62-10,5.4-27.03,13.85-55.42,3.8-12.77,13.99-39.51,15.37-52.03.55-5.05.76-9.68.72-13.96,0-.1-.01-.19-.01-.3-.06-4.44-.41-8.47-.95-12.17,2.3,5,3.92,9.1,4.2,12.47,0,.14.04.3.04.44.09,1.65-1.59,5.15-2.19,7.35-1.87,6.81,1.91,12.51-2.4,21.4-.46.95,2.39,1.08,4.09-.8,2.13-2.37,2.76-8.84,2.83-7.65.42,7.9,1.73,9.71,2.53,16.17.59,4.71-1.06,7.31.23,9.21.99,1.46,1.33,1.34,3.75-1.26,1.7-1.83,2.78-3.52,3.87-4.88,2.13-2.64,3.28-5.25,3.47-10.69.14-4.12-.43-7.24-1.88-13.22Z"/>
  </g>
</svg>