<?xml version="1.0" encoding="UTF-8"?>
<svg id="_레이어_2" data-name="레이어 2" xmlns="http://www.w3.org/2000/svg" viewBox="0 0 181.09 572.08">
  <defs>
    <style>
      .cls-1 {
        fill: #f3a9aa;
        stroke: #231815;
        stroke-miterlimit: 10;
      }
    </style>
  </defs>
  <g id="_레이어_1-2" data-name="레이어 1">
    <path class="cls-1" d="m180.59,324.1s0-.03,0-.05c0-.08,0-.15,0-.23,0-.2,0-.4-.02-.59-.11-3.14-.7-6.12-1.87-10.96-.55-2.25-1.14-3.66-1.88-8.65-.06-.38-.11-.79-.17-1.22-.17-1.33-.27-2.48-.36-3.62,0-.06-.01-.11-.02-.17-.02-.34-.04-.67-.05-.98-.07-.57-.07-1.13-.07-1.37,0,0,0-.01,0-.02v-.05c0-.55,0-.99-.05-1.42-.35-3.06-1.84-4.02-2.65-9.76-1.54-10.79-2.57-18.84-4-30.04-.01-.1-.02-.2-.04-.3-.29-2.29-.6-4.71-.94-7.33-1.19-9.32-5.16-21.02-9.35-33.89-.04-.1-.07-.2-.1-.3-.24-.74-.48-1.48-.73-2.23-.43-1.33-1.34-11.48-1.7-16.81-.43-6.67-4.54-67.76-7.36-76.98-2.1-6.87-4.14-9.63-6.09-10.54h0s-1.59-.9-2.55-1.31c-2.47-1.05-5.47-1.66-8.69-2.26-3.04-.56-6.81-1.17-10.06-2.15-.65-.2-1.3-.41-1.92-.65-.53-.2-1.05-.41-1.56-.63-.08-.03-.15-.06-.23-.1-.49-.21-.96-.43-1.43-.66-.09-.04-.17-.09-.26-.13-.47-.23-.92-.48-1.37-.74-.07-.04-.13-.08-.2-.12-.46-.28-.92-.57-1.36-.88-.29-.21-.58-.43-.86-.66-.08-.06-.16-.13-.23-.2-.2-.17-.4-.34-.59-.52-.09-.09-.18-.18-.27-.26-.18-.17-.35-.34-.52-.52-.09-.1-.18-.2-.27-.3-.17-.19-.33-.38-.49-.57-.08-.1-.17-.21-.25-.31-.16-.21-.32-.43-.48-.65-.07-.1-.14-.2-.21-.31-.17-.25-.33-.51-.49-.78-.05-.09-.1-.17-.15-.26-.2-.34-.39-.7-.57-1.07,0-.02-.02-.03-.03-.05-.2-.41-.39-.84-.58-1.29-.09-.21-.17-.45-.25-.71,0,0,0,0,0-.01-.07-.25-.15-.53-.21-.82,0-.03-.01-.06-.02-.09-.07-.29-.13-.6-.19-.92,0-.02,0-.03,0-.05-.13-.7-.24-1.47-.34-2.29,0-.05-.01-.09-.02-.14-.04-.35-.08-.7-.12-1.06,0-.09-.02-.18-.03-.27-.03-.33-.07-.67-.1-1.01,0-.09-.02-.18-.02-.27-.04-.42-.07-.85-.1-1.28-.04-.5-.07-1-.1-1.5,0-.12-.01-.23-.02-.35-.06-.98-.11-1.95-.15-2.87,0-.13-.01-.26-.02-.39-.02-.38-.03-.75-.04-1.11,0-.06,0-.12,0-.18.36-.34.71-.69,1.05-1.06.02-.02.03-.04.05-.06.27-.29.52-.59.77-.9.07-.09.13-.18.2-.27.19-.25.39-.51.57-.78.15-.21.28-.45.42-.67.1-.16.2-.32.3-.48.95-1.67,1.74-3.66,2.35-6.15,0,0,0-.01,0-.02,0,0,0-.01,0-.02.14-.54.28-1.15.43-1.79.08-.33.16-.67.23-1.02,0-.03.01-.05.02-.08.02-.07.03-.15.05-.22.18.06.35.1.51.12.15.02.3.03.44.01,0,0,0,0,0,0,.18-.02.34-.06.5-.13.05-.02.09-.04.13-.06.12-.06.23-.13.33-.21.03-.03.07-.05.1-.08.13-.11.25-.23.36-.37.02-.03.04-.06.06-.09.09-.12.18-.25.26-.38.03-.05.06-.1.09-.15.08-.14.15-.28.22-.42.02-.03.03-.06.05-.09.08-.18.16-.36.23-.54.02-.05.04-.1.06-.16.05-.14.1-.27.14-.4.02-.06.04-.11.06-.17.05-.15.1-.29.14-.43,0-.02.01-.03.02-.05.05-.17.1-.32.15-.47.01-.03.02-.07.03-.1.05-.15.1-.29.14-.4.57-1.36,1.33-1.49,2.08-4.5.13-.5.16-.96.16-1.38,0-.2-.02-.38-.03-.57,0-.06-.01-.11-.02-.16-.02-.14-.03-.27-.05-.4-.01-.09-.03-.18-.04-.27-.02-.11-.03-.23-.05-.34-.02-.15-.04-.29-.05-.43,0-.05,0-.1,0-.14,0-.11,0-.22,0-.32,0-.05,0-.09,0-.14.01-.14.03-.29.07-.43,0,0,0,0,0,0,.02-.09.05-.2.07-.32.01-.06.02-.12.03-.18,0-.03,0-.06.01-.09.02-.18.04-.38.04-.6,0,0,0,0,0,0,0,0,0,0,0,0,.01-.34,0-.7-.05-1.05-.01-.11-.03-.23-.05-.34-.01-.06-.02-.12-.04-.18-.04-.18-.09-.35-.15-.51,0,0,0-.02-.01-.02-.06-.16-.14-.3-.22-.43-.02-.03-.03-.05-.05-.07-.1-.14-.2-.26-.33-.36-.05-.04-.11-.07-.17-.09-.08-.04-.17-.07-.26-.09.82-3.13,1.5-7.26,1.54-11.58h0c0-.62,0-1.24-.03-1.86,0-.19-.02-.38-.03-.58-.02-.44-.05-.88-.09-1.31-.02-.22-.04-.44-.06-.65-.04-.44-.1-.87-.16-1.3-.03-.2-.05-.39-.08-.59-.1-.62-.21-1.24-.34-1.84,0,0,0,0,0,0-.24-1.06-.53-2.11-.89-3.12-.18-.51-.38-1.01-.59-1.5-.1-.22-.2-.43-.3-.64,0,0,0,0,0,0-.36-.77-.73-1.5-1.12-2.21,0,0,0,0,0,0-.39-.7-.79-1.37-1.21-2,0,0,0-.01-.01-.02-.41-.63-.84-1.22-1.27-1.79,0-.01-.02-.02-.03-.04-.43-.56-.87-1.09-1.31-1.58,0,0,0,0,0,0,0,0,0,0,0,0-.41-.51-.86-.99-1.32-1.46-.09-.09-.18-.19-.27-.28-.46-.46-.94-.9-1.45-1.32-.08-.07-.17-.13-.25-.2-.49-.4-1-.79-1.53-1.16-.05-.04-.1-.07-.15-.11-.56-.38-1.15-.74-1.74-1.08-.12-.07-.23-.13-.35-.2-.6-.33-1.22-.65-1.86-.94-.06-.03-.13-.05-.19-.08-.6-.27-1.22-.51-1.86-.74-.11-.04-.22-.08-.33-.12-.66-.23-1.34-.43-2.03-.61-.14-.04-.28-.07-.42-.1-.71-.17-1.43-.33-2.17-.45,0,0,0,0,0,0,0,0,0,0,0,0-.66-.11-1.32-.18-2-.24-.13-.01-.26-.02-.39-.03-.67-.05-1.35-.09-2.03-.09h0s-.05,0-.08,0c-.06,0-.11,0-.17,0h-.01c-.52,0-1.04.01-1.56.04-.21.01-.41.03-.61.05-.31.02-.61.04-.92.07-.26.03-.52.07-.78.1-.24.03-.48.06-.72.1-.3.05-.59.11-.88.16-.2.04-.39.07-.59.11-.32.07-.64.15-.95.23-.16.04-.32.07-.48.12-.34.09-.68.19-1.01.3-.13.04-.25.07-.38.11-.36.12-.71.24-1.06.37-.09.03-.19.07-.28.1-.37.14-.74.29-1.1.45-.07.03-.14.06-.2.09-.38.17-.76.35-1.12.53-.04.02-.09.04-.13.06-.39.2-.77.4-1.14.62-.02.01-.05.03-.07.04-.39.22-.76.45-1.14.69,0,0-.02.01-.03.02-2.1,1.36-3.96,3-5.47,4.86-1,1.12-1.97,2.39-2.88,3.82-.02.03-.04.06-.05.09-.19.31-.38.62-.57.94-.05.08-.09.17-.14.25-.16.27-.31.55-.46.83-.1.19-.2.39-.3.58-.1.19-.19.37-.29.57-.19.4-.38.8-.56,1.22-1.27,2.9-1.92,6.13-2.16,9.36-.08,1.14-.12,2.28-.11,3.41h0c.04,4.32.71,8.45,1.54,11.58-.16.05-.31.09-.43.18-.23.17-.39.42-.52.7-.01.03-.03.05-.04.07-.05.11-.09.23-.13.35-.01.05-.03.09-.04.14-.03.12-.06.24-.08.37,0,.04-.01.09-.02.13-.11.77-.08,1.56.02,2.1.02.11.04.21.06.3.04.16.07.32.08.48,0,.07,0,.15,0,.22,0,.09,0,.18,0,.27,0,.09-.02.18-.03.28,0,.08-.01.16-.03.24-.02.16-.05.32-.07.48,0,.03,0,.05-.01.08,0,.03,0,.07-.01.11-.01.1-.03.2-.04.3,0,.05-.02.11-.02.16-.02.19-.03.39-.04.6,0,0,0,.01,0,.02,0,.43.03.88.16,1.38.75,3.01,1.51,3.14,2.08,4.5.01.03.03.07.04.11.02.04.03.08.05.13.02.06.04.12.06.19.01.04.02.07.04.11.07.22.15.47.23.73.02.05.03.1.05.15.03.08.06.17.09.26.02.05.04.11.06.16.03.09.07.18.1.27.02.05.04.1.06.15.05.13.11.26.17.39,0,.01.01.03.02.04.06.13.12.26.19.38.02.04.05.08.07.13.05.08.1.17.15.25.03.05.06.09.1.14.05.07.1.14.15.21.04.05.07.09.11.13.05.06.11.12.17.17.04.04.08.08.12.11.06.05.13.1.19.14.04.03.08.06.13.08.07.04.15.08.23.11.04.02.08.04.12.05.12.04.25.07.39.08.29.03.6-.01.95-.14.25,1.14.51,2.2.74,3.1,0,0,0,.01,0,.02,0,0,0,0,0,.01.92,3.77,2.26,6.41,3.93,8.48.04.05.08.09.12.14.24.28.47.56.72.83.31.33.62.64.95.95,0,.03,0,.06,0,.1-.02.58-.04,1.18-.07,1.8-.02.4-.04.81-.06,1.22-.04.85-.1,1.71-.15,2.58,0,.08-.01.17-.02.25-.06.88-.13,1.75-.21,2.6,0,.03,0,.06,0,.1-.04.44-.09.87-.14,1.3-.01.13-.03.25-.04.38-.05.43-.11.86-.17,1.26,0,.03,0,.06-.01.1-.05.33-.1.65-.16.96-.02.11-.04.21-.06.32-.04.21-.08.42-.13.62-.02.11-.05.22-.07.32-.04.19-.09.37-.14.54-.02.09-.05.18-.07.26-.07.23-.14.45-.22.63,0,0,0,.01,0,.02-1.32,3.2-3.08,5.44-5.18,7.14-.52.42-1.06.81-1.62,1.17,0,0-.01,0-.02.01-.37.24-.76.46-1.15.68-.1.06-.2.11-.3.17-.39.21-.79.42-1.19.61,0,0-.01,0-.02,0-.41.2-.84.38-1.26.57-.11.05-.22.09-.33.14-.43.18-.86.35-1.29.52-3.59,1.39-8.32,2.13-11.98,2.8-3.22.6-6.22,1.21-8.69,2.26-.96.41-2.55,1.3-2.55,1.3h0c-1.95.92-3.99,3.68-6.09,10.55-2.82,9.22-6.93,70.31-7.36,76.98-.36,5.33-1.27,15.48-1.7,16.81-.25.75-.49,1.49-.73,2.23-.03.1-.06.2-.1.3-4.19,12.87-8.16,24.57-9.35,33.89-.34,2.62-.65,5.04-.94,7.33-.02.1-.03.2-.04.3-1.43,11.2-2.46,19.25-4,30.04-.81,5.74-2.3,6.7-2.65,9.76-.05.43-.05.87-.05,1.42v.3c-.01.94-.03,2.22-.29,4.27-.93,7.4-1.63,8.87-2.27,11.5-1.17,4.84-1.76,7.82-1.87,10.95,0,.21-.01.42-.02.62,0,.07,0,.14,0,.2,0,.01,0,.03,0,.04,0,.5,0,1.02.02,1.55.19,5.44,1.34,8.05,3.46,10.69,1.1,1.36,2.18,3.06,3.88,4.88,2.42,2.6,2.76,2.72,3.74,1.26.41-.6.52-1.27.51-2.06,0-.02,0-.05,0-.07,0-.09-.01-.2-.02-.3,0-.05,0-.1,0-.15-.07-1.16-.34-2.56-.37-4.34,0-.29,0-.59.02-.9,0-.14.01-.29.02-.44,0-.14.03-.29.04-.44.02-.17.03-.35.05-.53.8-6.46,2.09-8.28,2.53-16.17.07-1.2.69,5.27,2.83,7.64,1.61,1.79,4.27,1.76,4.13.93,0-.02,0-.04,0-.06,0-.07,0-.14-.04-.21-1.64-3.38-2.11-6.29-2.16-8.98,0-.21,0-.41,0-.61,0-.16,0-.31,0-.47,0-.27.02-.54.03-.8,0-.18.01-.37.02-.55.09-1.7.25-3.34.27-4.99,0,0,0-.01,0-.02.03-1.64-.09-3.27-.55-4.98-.6-2.16-2.21-5.56-2.19-7.24,0-.01,0-.02,0-.03,0-.12.03-.25.04-.37.31-3.77,2.28-8.43,5.04-14.28,3.75-7.95,5.83-12.89,11.17-26.95.04-.1.07-.19.11-.29.35-.93.71-1.88,1.08-2.89,6.66-17.98,7.77-33.9,8.03-35.8.11-.77.25-1.63.43-2.52.02-.1.04-.21.06-.31.88-4.46,2.43-10.14,4.13-16.18,1.71-6.05,3.56-12.44,5.02-18.31.41-1.63,1.33-6.07,1.84-8.58.04-.09.07-.17.1-.25.11-.03.21-.03.3,0,0,.01,0,.02,0,.04,1.25,8.92,1.73,27.5-.6,42.21-.27.41-.56.82-.86,1.21-.02.05-.03.1-.04.15-2.35,5.49-5.29,10.62-8.48,18.26-5.13,12.28-6.17,12.92-10.72,23.11-.02.05-.04.09-.06.15-3.76,9.11-9.52,21.15-9.75,41.37v.15c-.04,4.27.16,8.91.69,13.96,1.31,12.52,10.98,39.26,14.59,52.03,8.02,28.38,12.56,45.41,13.15,55.42.77,12.92-.99,16.97-2.56,24.79-3.05,15.22-.82,28.37,2.8,40.42,6.69,22.28,13.71,32.19,14.43,43.89.17,2.92-2.02,4.14-.81,7.83.63,1.92,1.69,3.76.08,8.04-5.46,14.49-12.57,18.28-11.73,23.57.93,5.86,20.64,5.49,28.36,4.17,6.35-1.08,6.26-10.06,4.43-20.34-.37-2.07-.56-4.4-.42-7.95.08-1.76.55-3.81.8-6.28.23-2.28-.43-4.69-.8-6.6-.27-1.45-.55-2.61-.6-3.21-1.7-22.39-1.17-27.75,1.65-48.8,2.85-21.26-1.15-25.08-.65-38.08.3-7.7,2.64-15.58,3.27-23.92.79-10.47-.3-20.35-1.41-27.79-3.06-20.57-3.04-23.89-4.03-40.16-1.07-17.65,4.59-26.31,1.36-41.54.75.26,2.58.36,4.4.38,1.82-.02,3.65-.12,4.4-.38-3.23,15.23,2.43,23.89,1.36,41.54-.99,16.27-.97,19.59-4.03,40.16-1.11,7.44-2.2,17.32-1.41,27.79.63,8.34,2.97,16.22,3.27,23.92.5,13-3.5,16.82-.65,38.08,2.82,21.05,3.35,26.41,1.65,48.8-.05.6-.33,1.76-.6,3.21-.37,1.91-1.03,4.32-.8,6.6.25,2.47.72,4.52.8,6.28.14,3.55-.05,5.88-.42,7.95-1.83,10.28-1.92,19.26,4.43,20.34,7.72,1.32,27.43,1.69,28.36-4.17.84-5.29-6.27-9.08-11.73-23.57-1.61-4.28-.55-6.12.08-8.04,1.21-3.69-.98-4.91-.81-7.83.72-11.7,7.74-21.61,14.43-43.89,3.62-12.05,5.85-25.2,2.8-40.42-1.57-7.82-3.33-11.87-2.56-24.79.59-10.01,5.13-27.04,13.15-55.42,3.61-12.77,13.28-39.51,14.59-52.03.53-5.05.73-9.69.69-13.96v-.15c-.23-20.22-5.99-32.26-9.75-41.37-.02-.06-.04-.1-.06-.15-4.55-10.19-5.6-10.83-10.73-23.11-3.19-7.64-6.13-12.77-8.47-18.26-.01-.05-.02-.1-.04-.15-.3-.39-.59-.8-.86-1.21-2.23-14.5-2-32.56-.8-41.47.13-.52.26-1.04.39-1.55.47,2.29,1.59,7.74,2.05,9.6,2.9,11.66,7.37,25.42,9.13,34.34.02.1.04.19.06.29.18.94.34,1.85.46,2.68.26,1.85,1.31,16.98,7.52,34.36.35.98.7,1.94,1.05,2.89.21.56.4,1.09.59,1.6,5.3,14.19,7.46,19.11,11.23,27.09,2.72,5.77,4.66,10.4,5.03,14.14,0,.1.02.19.03.29,0,.08.02.18.03.26.01,1.68-1.59,5.07-2.19,7.23-.36,1.3-.5,2.56-.54,3.81,0,.02,0,.04,0,.06-.03.68-.01,1.37.01,2.05,0,.01,0,.03,0,.04.06,1.49.2,2.99.26,4.55.03.65.04,1.3.03,1.98,0,.01,0,.03,0,.04,0,.32-.02.65-.04.98,0,0,0,.02,0,.03-.16,2.38-.7,4.95-2.12,7.87-.04.08-.05.15-.04.21,0,.02,0,.04,0,.06-.15.82,2.51.86,4.13-.93,2.14-2.37,2.76-8.84,2.83-7.64.44,7.89,1.73,9.71,2.53,16.17.02.2.04.38.06.57.01.12.03.25.03.37.01.16.02.32.02.47,0,.28.02.55.02.82,0,.02,0,.05,0,.07-.03,1.69-.28,3.03-.36,4.16-.02.18-.03.35-.03.52,0,.02,0,.04,0,.06,0,0,0,.01,0,.02-.02.82.08,1.52.5,2.14.98,1.46,1.32,1.33,3.74-1.26,1.7-1.82,2.78-3.52,3.88-4.88,2.12-2.64,3.27-5.24,3.47-10.69.02-.53.02-1.04.02-1.54Z"/>
  </g>
</svg>