<?xml version="1.0" encoding="UTF-8"?>
<svg id="_레이어_2" data-name="레이어 2" xmlns="http://www.w3.org/2000/svg" viewBox="0 0 181.09 571.56">
  <defs>
    <style>
      .cls-1 {
        fill: #f2a7a9;
        stroke: #221714;
        stroke-miterlimit: 10;
      }
    </style>
  </defs>
  <g id="_레이어_1-2" data-name="레이어 1">
    <path class="cls-1" d="m37.97,106.67c-1.95.91-3.99,3.67-6.09,10.54-2.82,9.22-6.93,70.31-7.36,76.98-.36,5.33-1.26,15.48-1.7,16.81-.24.73-.48,1.44-.71,2.16-.03.1-.06.2-.1.3-4.2,12.9-8.18,24.63-9.38,33.96-.34,2.59-.64,4.99-.93,7.26-.02.1-.03.2-.04.3-1.33,11.25-2.47,19.3-4.01,30.11-.81,5.74-2.3,6.7-2.65,9.76-.05.43-.05.87-.05,1.42v.29c0,.94-.03,2.22-.29,4.28-.92,7.3-1.61,8.83-2.25,11.4-.04.15-.07.29-.11.44-1.37,5.68-1.92,8.76-1.8,12.71,0,.23.02.45.03.67.24,4.99,1.34,7.51,3.31,10.01.17.22.35.45.53.68.94,1.21,1.91,2.65,3.31,4.18.24.26.46.5.67.72,1.81,1.9,2.24,2.01,3.06.93.21-.27.36-.59.48-.95.59-1.79-.52-4.21-.1-8.15.05-.43.1-.84.15-1.25.79-5.62,1.95-7.68,2.38-14.86.03-.44.11-.14.28.49.3,1.1.95,4.61,2.35,6.43.36.48.8.84,1.24,1.11,1.34.8,2.77.72,2.76.2,0-.4-.01-.88-.23-1.4-3.32-7.98-.26-13.39-1.76-19.66-.15-.62-.36-1.32-.61-2.04-.63-1.82-1.5-3.96-1.59-5.28,0-.05,0-.1,0-.15,0-.1,0-.19,0-.29,0-.61.03-1.22.13-1.81.03-.15.06-.3.09-.46.62-3.31,2.28-7.25,4.5-11.98.37-.8.74-1.57,1.1-2.34,3.21-6.87,5.3-12.04,10.07-24.46.04-.1.07-.2.11-.31.34-.92.71-1.87,1.08-2.88.29-.78.58-1.57.86-2.37,5.8-16.4,7.01-30.7,7.37-33.48.11-.88.25-1.73.39-2.52.02-.1.04-.2.05-.29.15-.83.33-1.72.53-2.64,1.02-4.65,2.62-10.36,4.3-16.31,1.46-5.16,2.99-10.51,4.25-15.49.19-.74.44-1.81.7-3,.45-2.03,1.03-4.85,1.38-6.57.26.44.51.93.74,1.53.13.53.26,1.06.39,1.6,2.03,10.67,3.36,27.05,2.75,39.58,0,0,0,0,0,0-.19,1.07-.44,2.16-.71,3.26-1.24,4.93-3.17,10.15-5.38,16.05-3.19,8.53-5.88,15.3-7.43,19.26-.52,1.18-.89,2.01-1.12,2.46,0,0,0,.02-.01.03-.17.31-.3.57-.4.76-.12.23-.2.39-.22.45-3.09,9.07-7.98,21.01-8.08,40.93,0,.1,0,.2,0,.3v.29c-.02,4.19.15,8.72.58,13.66,1.1,12.52,9.23,39.26,12.26,52.03,6.75,28.39,10.57,45.42,11.06,55.42.65,12.93-.83,16.97-2.15,24.8-2.56,15.21-.69,28.36,2.35,40.42,5.63,22.28,11.53,32.19,12.13,43.88.15,2.92-1.69,4.14-.68,7.83.53,1.93,1.43,3.77.07,8.05-4.59,14.48-10.56,18.27-9.86,23.56.79,5.86,17.35,5.5,23.84,4.18,5.34-1.09,5.27-10.06,3.73-20.34-.31-2.08-.47-4.4-.35-7.96.06-1.76.46-3.81.67-6.28.19-2.28-.37-4.69-.67-6.6-.23-1.44-.47-2.6-.51-3.21-1.43-22.38-.99-27.75,1.39-48.79,2.39-21.27-.97-25.08-.55-38.08.25-7.71,2.22-15.58,2.75-23.93.66-10.46-.25-20.35-1.18-27.79-2.58-20.57-2.56-23.89-3.39-40.15-.9-17.66,3.85-26.32,1.14-41.55.63.27,2.17.37,3.7.38,1.53.01,3.07-.11,3.7-.38-2.71,15.23,2.04,23.89,1.14,41.55-.83,16.26-.81,19.58-3.39,40.15-.93,7.44-1.84,17.33-1.18,27.79.53,8.35,2.5,16.22,2.75,23.93.42,13-2.94,16.81-.55,38.08,2.37,21.04,2.82,26.41,1.39,48.79-.04.61-.28,1.77-.51,3.21-.3,1.91-.86,4.32-.67,6.6.21,2.47.61,4.52.67,6.28.12,3.56-.04,5.88-.35,7.96-1.54,10.28-1.61,19.25,3.73,20.34,6.48,1.32,23.05,1.68,23.84-4.18.7-5.29-5.27-9.08-9.86-23.56-1.36-4.28-.46-6.12.07-8.05,1.01-3.69-.83-4.91-.68-7.83.6-11.69,6.5-21.6,12.13-43.88,3.04-12.06,4.91-25.21,2.35-40.42-1.32-7.83-2.8-11.87-2.16-24.8.5-10,4.32-27.03,11.07-55.42,3.03-12.77,11.16-39.51,12.26-52.03.43-4.94.6-9.47.58-13.66v-.29c0-.1,0-.2,0-.3-.1-19.84-4.93-31.78-8.04-40.82-.03-.08-.1-.24-.2-.44-.21-.41-.62-1.18-1.19-2.27-.13-.24-.27-.51-.42-.8,0-.02-.02-.04-.03-.06-.29-.55-.65-1.39-1.12-2.49-1.54-3.88-3.66-9.47-6.15-16.17-2.68-7.21-5.02-13.39-6.08-19.32-.64-13.51.97-31.77,3.21-42.76.13-.52.26-1.04.4-1.55.46,2.29,1.59,7.75,2.05,9.6,2.91,11.69,7.39,25.49,9.14,34.41.02.1.04.2.06.3.18.92.33,1.8.44,2.6.26,1.88,1.34,17.4,7.78,35.08.36,1,.72,1.95,1.07,2.89.12.33.23.64.35.95,5.28,14.14,7.44,19.05,11.2,27.02,2.74,5.81,4.68,10.46,5.03,14.21,0,.1.02.2.03.29,0,.07.02.15.02.22.08,1.64-1.59,5.14-2.2,7.34-1.86,6.81,1.91,12.51-2.4,21.41-.46.94,2.4,1.07,4.09-.81,2.14-2.37,2.76-8.84,2.83-7.64.44,7.89,1.73,9.71,2.53,16.17.59,4.71-1.05,7.3.24,9.21.98,1.46,1.32,1.33,3.74-1.27,1.7-1.82,2.78-3.52,3.88-4.88,2.12-2.64,3.27-5.24,3.46-10.69.14-4.11-.43-7.24-1.88-13.22-.6-2.48-1.26-3.92-2.12-10.45-.24-1.82-.31-3.13-.37-4.25-.07-.57-.07-1.12-.07-1.37,0-.55,0-.99-.05-1.42-.35-3.06-1.84-4.02-2.65-9.76-1.54-10.79-2.69-18.82-4-30.03-.01-.1-.02-.21-.04-.31-.29-2.29-.6-4.71-.94-7.33-1.19-9.32-5.16-21.01-9.35-33.88-.04-.1-.07-.21-.1-.31-.23-.74-.48-1.48-.73-2.23-.43-1.33-1.34-11.48-1.7-16.81-.43-6.67-4.54-67.76-7.36-76.98-2.1-6.87-4.14-9.63-6.09-10.54h0s-.05-.04-.12-.08h.41l-35.22-16.19v.26c-.23-.46-.46-.94-.67-1.45-1.12-2.7-1.57-10.21-1.75-15.34,2.54-2.35,4.48-5.38,5.73-10.41.22-.9.49-1.97.74-3.12,2.78.98,3.5-3.3,4.02-4.54.57-1.36,1.33-1.49,2.08-4.5.5-2-.37-3.32,0-4.61.24-.87.35-3.32-.75-4.16-.12-.09-.27-.14-.43-.18,1.65-6.27,2.7-16.51-.73-24.35-1.49-3.39-3.32-6.12-5.26-8.29-4.56-5.57-12.1-9.22-20.62-9.22h-.01c-8.52,0-16.06,3.65-20.62,9.22-1.94,2.17-3.77,4.9-5.26,8.29-3.43,7.84-2.38,18.08-.73,24.35-.16.04-.31.09-.43.18-1.1.84-.99,3.29-.75,4.16.36,1.29-.51,2.61-.01,4.61.75,3.01,1.51,3.14,2.08,4.5.52,1.24,1.24,5.52,4.02,4.54.25,1.15.51,2.22.74,3.12,1.26,5.02,3.19,8.06,5.73,10.41-.18,5.13-.63,12.64-1.75,15.34-.21.51-.43.98-.67,1.45v-.26l-35.22,16.19h.41c-.07.04-.12.06-.12.06h0Z"/>
  </g>
</svg>