<?xml version="1.0" encoding="UTF-8"?>
<svg id="_레이어_2" data-name="레이어 2" xmlns="http://www.w3.org/2000/svg" viewBox="0 0 181.09 571.49">
  <defs>
    <style>
      .cls-1 {
        fill: #f2a7a9;
        stroke: #221714;
        stroke-miterlimit: 10;
      }
    </style>
  </defs>
  <g id="_레이어_1-2" data-name="레이어 1">
    <path class="cls-1" d="m.51,325.31c0,.22.01.45.02.67.22,4.99,1.28,7.54,3.19,10.02.17.22.35.45.53.68.94,1.2,1.9,2.63,3.29,4.17.23.25.45.49.67.72,1.81,1.91,2.3,2.17,3.06,1.3.21-.24.38-.53.55-.9.79-1.77-.37-4.15-.03-8.08.04-.42.08-.83.14-1.25.78-5.76,1.95-7.79,2.4-14.8.03-.45.09-.42.22-.17.21.4.78,4.22,2.21,6.38.33.5.72.9,1.13,1.2,1.17.85,2.49.91,2.78.62.28-.27.49-.64.27-1.15-3.5-7.98-.6-13.38-1.83-19.55-.13-.64-.31-1.33-.55-2.05-.55-1.7-1.43-3.81-1.66-5.25,0-.05,0-.1-.01-.14,0-.1-.01-.19-.02-.28-.06-.64-.08-1.25-.01-1.8.02-.15.05-.3.07-.45.5-3.29,2.11-7.22,4.32-11.97.36-.78.73-1.56,1.09-2.34,3.3-7.04,5.4-12.07,10.08-24.33.04-.1.08-.2.12-.31.34-.91.7-1.87,1.07-2.87.31-.83.62-1.68.93-2.54,5.64-15.73,7.04-29.62,7.49-33.34.12-.97.24-1.82.35-2.5.02-.1.03-.19.05-.28.14-.84.32-1.75.52-2.7.97-4.59,2.56-10.29,4.25-16.27,1.45-5.13,2.98-10.45,4.25-15.45.21-.83.46-1.87.72-2.98.4-1.77.99-4.59,1.39-6.55.26-.11.5-.15.71,0,.14.52.26,1.06.39,1.58,1.09,8.81,1.12,25.34-.1,39.47,0,0,0,0,0,0-.18,1.08-.4,2.17-.63,3.27-1.1,5.2-2.65,10.58-4.33,16.27-2.51,8.54-4.55,15.54-5.67,19.7-.51,1.36-.82,2.22-.97,2.51,0,.01,0,.02-.01.03-.17.31-.3.58-.4.77-.12.23-.2.39-.22.45-3.09,9.07-7.98,21.01-8.08,40.93,0,.1,0,.2,0,.3v.29c-.02,4.19.15,8.72.58,13.66,1.1,12.52,9.23,39.26,12.26,52.03,6.75,28.39,10.57,45.42,11.06,55.42.65,12.93-.83,16.97-2.15,24.8-2.56,15.21-.69,28.36,2.35,40.42,5.63,22.28,11.53,32.19,12.13,43.88.15,2.92-1.69,4.14-.68,7.83.53,1.93,1.43,3.77.07,8.05-4.59,14.48-10.56,18.27-9.86,23.56.79,5.86,17.35,5.5,23.84,4.18,5.34-1.09,5.27-10.06,3.73-20.34-.31-2.08-.47-4.4-.35-7.96.06-1.76.46-3.81.67-6.28.19-2.28-.37-4.69-.67-6.6-.23-1.44-.47-2.6-.51-3.21-1.43-22.38-.99-27.75,1.39-48.79,2.39-21.27-.97-25.08-.55-38.08.25-7.71,2.22-15.58,2.75-23.93.66-10.46-.25-20.35-1.18-27.79-2.58-20.57-2.56-23.89-3.39-40.15-.9-17.66,3.85-26.32,1.14-41.55.63.27,2.17.37,3.7.38,1.53.01,3.07-.11,3.7-.38-2.71,15.23,2.04,23.89,1.14,41.55-.83,16.26-.81,19.58-3.39,40.15-.93,7.44-1.84,17.33-1.18,27.79.53,8.35,2.5,16.22,2.75,23.93.42,13-2.94,16.81-.55,38.08,2.37,21.04,2.82,26.41,1.39,48.79-.04.61-.28,1.77-.51,3.21-.3,1.91-.86,4.32-.67,6.6.21,2.47.61,4.52.67,6.28.12,3.56-.04,5.88-.35,7.96-1.54,10.28-1.61,19.25,3.73,20.34,6.48,1.32,23.05,1.68,23.84-4.18.7-5.29-5.27-9.08-9.86-23.56-1.36-4.28-.46-6.12.07-8.05,1.01-3.69-.83-4.91-.68-7.83.6-11.69,6.5-21.6,12.13-43.88,3.04-12.06,4.91-25.21,2.35-40.42-1.32-7.83-2.8-11.87-2.16-24.8.5-10,4.32-27.03,11.07-55.42,3.03-12.77,11.16-39.51,12.26-52.03.43-4.94.6-9.47.58-13.66v-.29c0-.1,0-.2,0-.3-.1-19.76-4.87-31.69-8.01-40.72-.03-.1-.1-.25-.18-.44-.14-.3-.45-.86-.87-1.66-.12-.22-.26-.5-.42-.79,0-.02-.02-.04-.02-.05-.19-.36-.5-1.23-.98-2.54-1.1-3.9-2.68-9.68-4.68-16.53-2-6.87-3.91-13.29-4.94-19.57-1.27-15.15-1.16-33.55.06-42.68.13-.52.26-1.04.39-1.55.47,2.29,1.59,7.74,2.05,9.6,2.9,11.66,7.37,25.42,9.13,34.34.02.1.04.19.06.29.18.94.34,1.85.45,2.68.26,1.85,1.31,16.98,7.52,34.36.35.98.7,1.94,1.05,2.88.21.56.4,1.09.59,1.6,5.3,14.19,7.46,19.11,11.23,27.09,2.72,5.77,4.66,10.4,5.03,14.14,0,.1.02.19.03.29,0,.09.03.2.03.3.08,1.65-1.59,5.15-2.2,7.34-1.86,6.81,1.91,12.51-2.4,21.41-.46.94,2.4,1.07,4.09-.81,2.14-2.37,2.76-8.84,2.83-7.64.44,7.89,1.73,9.71,2.53,16.17.59,4.71-1.06,7.31.23,9.21.98,1.46,1.32,1.33,3.74-1.26,1.7-1.82,2.78-3.52,3.88-4.88,2.12-2.64,3.27-5.24,3.46-10.69.14-4.12-.43-7.24-1.88-13.22-.57-2.34-1.19-3.74-1.97-9.4-.22-1.6-.33-2.93-.44-4.23-.15-1.14-.15-1.95-.15-2.44,0-.55,0-.99-.05-1.42-.35-3.06-1.84-4.02-2.65-9.76-1.54-10.79-2.64-18.82-3.99-30.02-.01-.11-.02-.21-.04-.32-.29-2.29-.6-4.71-.94-7.33-1.19-9.31-5.15-21.01-9.35-33.87-.04-.11-.07-.22-.11-.32-.24-.74-.48-1.48-.73-2.23-.43-1.33-1.34-11.48-1.7-16.82-.44-6.67-4.54-67.76-7.37-76.97-2.1-6.88-4.13-9.63-6.09-10.54v-.02s-.03-.01-.05-.03h.35l-35.22-16.19v.16c-.23-.46-.46-.94-.67-1.46-1.12-2.7-1.56-10.21-1.75-15.34,2.54-2.35,4.49-5.38,5.73-10.41.22-.9.49-1.97.74-3.12,2.78.98,3.5-3.3,4.02-4.54.57-1.36,1.33-1.49,2.08-4.5.5-2-.37-3.32,0-4.61.24-.87.35-3.32-.75-4.16-.12-.09-.27-.14-.43-.19,1.65-6.26,2.7-16.51-.73-24.34-1.49-3.39-3.32-6.12-5.26-8.29-4.56-5.57-12.1-9.22-20.62-9.22h-.01c-8.52,0-16.06,3.64-20.62,9.22-1.94,2.16-3.77,4.9-5.26,8.29-3.43,7.84-2.38,18.08-.73,24.34-.16.05-.31.09-.43.19-1.1.84-.99,3.29-.75,4.16.36,1.29-.51,2.6-.01,4.61.75,3.01,1.51,3.14,2.08,4.5.52,1.24,1.24,5.52,4.02,4.54.25,1.15.51,2.22.74,3.12,1.26,5.02,3.19,8.06,5.73,10.41-.18,5.13-.63,12.64-1.75,15.34-.21.51-.43.98-.67,1.45v-.15l-35.22,16.19h.35s-.05.03-.05.03v.02c-1.95.91-3.99,3.67-6.09,10.54-2.82,9.21-6.93,70.31-7.36,76.97-.36,5.34-1.26,15.48-1.7,16.82-.23.7-.46,1.39-.68,2.08-.03.1-.06.2-.1.3-4.21,12.93-8.21,24.68-9.4,34.04-.33,2.56-.64,4.94-.92,7.19-.02.1-.03.19-.04.29-1.37,11.29-2.48,19.34-4.02,30.19-.81,5.74-2.3,6.7-2.65,9.76-.05.44-.05.88-.05,1.42,0,.04,0,.24,0,.28,0,.94-.03,2.22-.29,4.29-.91,7.21-1.59,8.78-2.22,11.3-.04.14-.07.28-.1.43-1.37,5.67-1.93,8.76-1.83,12.66Z"/>
  </g>
</svg>