<?xml version="1.0" encoding="UTF-8"?>
<svg id="_레이어_2" data-name="레이어 2" xmlns="http://www.w3.org/2000/svg" viewBox="0 0 181.09 571.56">
  <defs>
    <style>
      .cls-1 {
        fill: #f2a7a9;
        stroke: #221714;
        stroke-miterlimit: 10;
      }
    </style>
  </defs>
  <g id="_레이어_1-2" data-name="레이어 1">
    <path class="cls-1" d="m178.62,312.19c-.62-2.46-1.31-4.09-2.2-11.2-.26-2.07-.29-3.35-.29-4.3v-.27c0-.55,0-.99-.05-1.43-.36-3.05-1.84-4.01-2.66-9.76-1.55-10.87-2.62-18.93-4.02-30.26-.01-.1-.02-.19-.04-.29-.28-2.23-.58-4.59-.91-7.12-1.2-9.37-5.21-21.16-9.43-34.12-.03-.1-.07-.2-.1-.3-.21-.67-.43-1.33-.65-2.01-.43-1.34-1.35-11.48-1.7-16.82-.44-6.67-4.55-67.76-7.37-76.97-2.1-6.88-4.13-9.63-6.09-10.54v-.02s-.08-.04-.19-.11h.49l-35.22-16.19v.16c-.23-.47-.46-.94-.67-1.46-1.11-2.7-1.56-10.21-1.74-15.34,2.54-2.35,4.5-5.38,5.73-10.41.22-.9.49-1.98.74-3.12,2.78.98,3.5-3.3,4.02-4.54.57-1.37,1.33-1.5,2.08-4.5.5-2.01-.37-3.32,0-4.61.24-.87.35-3.32-.76-4.16-.11-.09-.26-.14-.42-.19,1.65-6.26,2.7-16.5-.73-24.34-1.49-3.39-3.32-6.13-5.26-8.29-4.56-5.58-12.1-9.22-20.63-9.22h-.01c-8.52,0-16.05,3.64-20.61,9.22-1.94,2.16-3.77,4.9-5.26,8.29-3.43,7.84-2.38,18.08-.73,24.34-.16.05-.31.1-.43.19-1.1.83-.99,3.29-.75,4.16.36,1.29-.51,2.6,0,4.61.75,3,1.51,3.13,2.08,4.5.52,1.24,1.24,5.52,4.02,4.54.25,1.14.51,2.22.74,3.12,1.26,5.02,3.19,8.06,5.73,10.41-.18,5.13-.63,12.64-1.75,15.34-.21.51-.44.99-.67,1.45v-.16l-35.22,16.19h.49c-.11.06-.19.11-.19.11v.02c-1.95.91-3.99,3.66-6.09,10.54-2.82,9.21-6.93,70.3-7.36,76.97-.36,5.34-1.26,15.48-1.7,16.82-.25.75-.49,1.49-.73,2.23-.04.11-.07.22-.11.34-4.19,12.86-8.15,24.55-9.34,33.85-.34,2.61-.65,5.03-.94,7.33-.02.11-.03.22-.04.33-1.4,11.19-2.46,19.22-4,30.01-.81,5.75-2.3,6.71-2.65,9.76-.05.44-.05.88-.05,1.43,0,.73,0,1.79-.22,3.5-.16,1.49-.31,2.84-.52,4.21-.72,4.79-1.29,6.17-1.82,8.35-1.45,5.98-2.02,9.1-1.88,13.22.19,5.44,1.34,8.05,3.46,10.69,1.1,1.36,2.18,3.05,3.88,4.88,2.42,2.6,2.76,2.72,3.74,1.26,1.29-1.91-.35-4.5.24-9.21.8-6.46,2.09-8.27,2.53-16.17.07-1.19.69,5.28,2.83,7.65,1.69,1.88,4.55,1.75,4.09.8-4.31-8.89-.54-14.59-2.4-21.4-.61-2.2-2.28-5.7-2.2-7.35,0-.12.03-.25.04-.37,0-.09.02-.19.03-.28.37-3.73,2.31-8.34,5.02-14.07,3.77-8,5.93-12.91,11.25-27.17.27-.72.55-1.47.84-2.25.35-.96.7-1.91,1.04-2.88,5.98-17.07,7.01-31.81,7.26-33.64.12-.84.28-1.78.48-2.75.02-.1.04-.19.06-.29.88-4.42,2.41-10.01,4.08-15.94,1.71-6.06,3.57-12.46,5.03-18.33.46-1.85,1.59-7.31,2.05-9.59.14.51.26,1.04.39,1.55.19,7.27-1.18,25.81-3.1,42.6,0,0,0,.01,0,.02-.99,6.62-2.51,13.27-4.1,19.67-1.02,4.1-1.79,7.66-2.4,10.68-1.93,3.21-3.25,5.79-4.84,9.74-.04.1-.08.2-.12.29-.41,1.02-.81,2.1-1.24,3.24-.04.09-.07.19-.11.28-3.24,8.62-7.4,19.95-7.65,37.61,0,.1,0,.19-.01.29,0,.01,0,.14,0,.15-.01.93-.02,1.88,0,2.85,0,.09,0,.18,0,.27,0,.03,0,.11,0,.14.04,3.31.21,6.84.53,10.59.08.96.2,1.98.35,3.06,1.83,13.18,9.71,37.7,12.75,49.75,7.18,28.39,11.23,45.41,11.76,55.42.68,12.93-.89,16.97-2.29,24.8-2.73,15.21-.74,28.36,2.5,40.42,5.98,22.28,12.26,32.19,12.9,43.88.15,2.92-1.81,4.14-.73,7.83.57,1.93,1.52,3.77.07,8.05-4.88,14.48-11.22,18.27-10.47,23.56.83,5.86,18.44,5.5,25.34,4.18,5.67-1.09,5.6-10.06,3.96-20.34-.33-2.08-.5-4.4-.37-7.96.06-1.76.49-3.81.71-6.28.21-2.28-.39-4.69-.71-6.6-.24-1.44-.5-2.6-.54-3.21-1.52-22.38-1.05-27.75,1.47-48.79,2.55-21.27-1.02-25.08-.57-38.08.26-7.71,2.35-15.58,2.91-23.93.71-10.46-.26-20.35-1.25-27.79-2.74-20.57-2.72-23.89-3.61-40.15-.95-17.66,4.11-26.32,1.22-41.55.67.27,2.31.37,3.93.38,1.63.01,3.27-.11,3.94-.38-2.89,15.23,2.17,23.89,1.21,41.55-.88,16.26-.87,19.58-3.6,40.15-.99,7.44-1.96,17.33-1.26,27.79.56,8.35,2.65,16.22,2.92,23.93.45,13-3.12,16.81-.58,38.08,2.53,21.04,3.16,26.42,1.48,48.79-.05.61-.3,1.77-.54,3.21-.32,1.91-.93,4.32-.72,6.6.22,2.47.65,4.52.72,6.28.13,3.56-.04,5.88-.37,7.96-1.64,10.28-1.72,19.25,3.96,20.34,6.89,1.32,24.51,1.68,25.34-4.18.75-5.29-5.6-9.08-10.48-23.56-1.44-4.28-.48-6.12.08-8.05,1.08-3.69-.89-4.91-.73-7.83.64-11.69,6.91-21.6,12.9-43.88,3.24-12.06,5.22-25.21,2.5-40.42-1.4-7.83-2.97-11.87-2.29-24.8.52-10.01,4.58-27.03,11.76-55.42,3.22-12.77,11.87-39.51,13.04-52.03.46-4.99.64-9.58.61-13.81v-.15c0-.1,0-.19,0-.29-.11-20.01-5.19-32.05-8.65-41.08-.04-.1-.08-.2-.12-.3-1.61-4.14-2.88-6.76-4.7-9.82-.76-3.9-1.8-8.6-3.25-14.3-1.33-5.27-2.54-10.65-3.52-15.97-.23-1.22-.44-2.44-.63-3.65-1.81-15.6-3.08-32.08-2.92-38.99.13-.52.25-1.05.38-1.57.2.33.46.97.74,1.7.44,2.12,1,4.77,1.34,6.21.27,1.15.55,2.28.82,3.28,2.82,10.84,6.7,23.03,8.38,31.33.2,1,.38,1.96.51,2.83.01.08.02.16.04.26.08.58.18,1.43.31,2.49.54,4.68,2.12,18.15,7.62,33.21.34.94.67,1.84,1,2.72.37,1,.73,1.95,1.07,2.85.04.11.08.21.12.32,4.59,12.09,6.7,16.99,10.09,24.2.37.79.73,1.56,1.09,2.33,2.19,4.76,3.76,8.69,4.14,11.96.02.14.05.3.05.45.05.51-.02,1.11-.14,1.78-.02.09-.03.18-.05.28,0,.05-.02.09-.03.14-.37,1.56-1.25,3.63-1.72,5.22-.21.71-.37,1.4-.48,2.06-1.01,6.06,1.77,11.47-1.91,19.44-.23.49.17.81.76.91.56.09,1.8-.15,2.8-1.04.38-.34.72-.78,1.02-1.29,1.43-2.49,1.92-6.62,2.07-6.32.07.14.12.37.16.84.47,6.83,1.66,8.84,2.42,14.73.06.43.1.85.12,1.26.27,3.93-.94,6.27.04,8.01.21.37.4.65.62.85.7.65,1.26.24,3.07-1.68.22-.24.44-.48.66-.73,1.36-1.54,2.31-2.97,3.25-4.16.18-.23.36-.45.52-.68,1.86-2.45,2.88-5.03,3.07-10.02,0-.22.02-.45.02-.67.08-3.85-.49-6.95-1.87-12.61-.03-.14-.07-.28-.1-.41Z"/>
  </g>
</svg>