<?xml version="1.0" encoding="UTF-8"?>
<svg id="_레이어_2" data-name="레이어 2" xmlns="http://www.w3.org/2000/svg" viewBox="0 0 181.09 571.86">
  <defs>
    <style>
      .cls-1 {
        fill: #f2a7a9;
        stroke: #221714;
        stroke-miterlimit: 10;
      }
    </style>
  </defs>
  <g id="_레이어_1-2" data-name="레이어 1">
    <path class="cls-1" d="m.54,326.07c.24,4.99,1.34,7.51,3.31,10.01.18.22.35.45.53.68.94,1.21,1.91,2.65,3.31,4.18.24.26.46.5.67.72,1.81,1.9,2.24,2.01,3.06.93.21-.27.36-.59.48-.95.59-1.79-.52-4.21-.1-8.15.05-.43.1-.84.15-1.25.79-5.62,1.95-7.68,2.38-14.86.03-.44.11-.14.28.49.3,1.1.95,4.61,2.35,6.43.37.48.8.85,1.25,1.11,1.34.8,2.77.72,2.76.2,0-.4-.01-.88-.23-1.4-3.32-7.98-.26-13.39-1.76-19.66-.15-.62-.36-1.32-.61-2.04-.63-1.82-1.5-3.96-1.59-5.27,0-.05,0-.1,0-.15,0-.1,0-.2,0-.29,0-.61.03-1.22.13-1.81.03-.15.06-.31.09-.46.62-3.31,2.28-7.25,4.5-11.98.37-.8.74-1.57,1.1-2.34,3.21-6.87,5.3-12.04,10.07-24.46.04-.1.07-.2.11-.31.34-.92.71-1.87,1.08-2.88.29-.78.58-1.57.86-2.37,5.8-16.4,7.01-30.7,7.37-33.48.11-.88.25-1.73.39-2.52.02-.1.04-.2.05-.29.18-.96.39-1.99.63-3.07,1.05-4.69,2.66-10.4,4.33-16.34,1.41-4.97,2.86-10.09,4.08-14.88.22-.88.53-2.22.85-3.65.41-1.9.92-4.33,1.24-5.91.32.54.63,1.14.91,1.9.13.52.25,1.04.38,1.57,1.98,10.58,3.26,26.57,2.66,38.88,0,0,0,0,0,0-.24,1.31-.67,2.6-1.22,3.92-1.93,4.69-5.24,9.53-8.06,14.95-.46.89-.88,1.72-1.29,2.52-.81,1.6-1.51,3.04-2.12,4.33-3.95,6.26-4.8,8.23-8.52,16.59-.02.05-.05.1-.07.15-3.59,9.08-9.1,21.11-9.22,41.23,0,.1,0,.19,0,.29-.02,4.28.15,8.91.65,13.96,1.24,12.52,10.39,39.26,13.81,52.03,7.6,28.39,11.9,45.42,12.46,55.42.72,12.93-.94,16.97-2.43,24.8-2.89,15.21-.78,28.36,2.65,40.42,6.34,22.28,12.99,32.19,13.66,43.88.17,2.92-1.9,4.14-.76,7.83.6,1.93,1.6,3.77.07,8.05-5.17,14.48-11.89,18.27-11.1,23.56.88,5.86,19.55,5.5,26.85,4.18,6.01-1.09,5.93-10.06,4.2-20.34-.35-2.08-.52-4.4-.39-7.96.06-1.76.51-3.81.75-6.28.22-2.28-.41-4.69-.75-6.6-.26-1.44-.53-2.6-.57-3.21-1.54-22.39-1.12-27.75,1.55-48.79,2.7-21.27-1.08-25.08-.61-38.08.29-7.71,2.5-15.58,3.09-23.93.75-10.46-.28-20.35-1.33-27.79-2.89-20.57-2.88-23.89-3.81-40.15-1.02-17.66,4.34-26.32,1.28-41.55.71.27,2.45.37,4.17.38,1.72.01,3.46-.11,4.17-.38-3.06,15.23,2.3,23.89,1.29,41.55-.94,16.26-.92,19.58-3.82,40.15-1.05,7.44-2.08,17.33-1.33,27.79.59,8.35,2.81,16.22,3.09,23.93.47,13-3.31,16.81-.61,38.08,2.67,21.04,3.28,26.42,1.56,48.79-.05.61-.31,1.77-.57,3.21-.34,1.91-.98,4.32-.76,6.6.24,2.47.69,4.52.76,6.28.13,3.56-.05,5.88-.4,7.96-1.73,10.28-1.81,19.25,4.2,20.34,7.31,1.32,25.97,1.68,26.85-4.18.79-5.29-5.93-9.08-11.1-23.56-1.53-4.28-.52-6.12.07-8.05,1.14-3.69-.93-4.91-.76-7.83.67-11.69,7.32-21.6,13.66-43.88,3.43-12.06,5.54-25.21,2.65-40.42-1.48-7.83-3.15-11.87-2.43-24.8.56-9.93,4.8-26.78,12.29-54.8.21-.79.44-1.62.68-2.49,3.65-13.06,11.76-37.16,13.18-49.34.13-1.16.25-2.28.33-3.36.3-3.74.42-7.24.43-10.54,0-.1,0-.19,0-.28,0-1.13-.03-2.24-.06-3.32,0-.1,0-.19-.01-.29-.65-17.83-5.4-29.01-8.77-37.55-.02-.05-.04-.09-.06-.14,0,0,0,0,0,0-.6-1.38-1.13-2.61-1.62-3.73-.02-.05-.04-.09-.06-.14,0,0,0,0,0,0-3.08-6.88-4.11-8.84-8.94-16.37-.26-.52-.53-1.07-.81-1.64-.24-.48-.49-.97-.75-1.49-3.59-6.95-8.19-12.86-9.26-18.89,0,0,0,0,0,0-.64-13.51.97-31.77,3.21-42.75.13-.52.26-1.04.4-1.55.46,2.29,1.59,7.75,2.05,9.6,2.91,11.69,7.39,25.49,9.14,34.41.02.1.04.2.06.3.18.92.33,1.8.44,2.6.26,1.88,1.34,17.4,7.78,35.08.36.99.72,1.95,1.07,2.89.12.33.24.64.35.95,5.28,14.14,7.44,19.05,11.2,27.01,2.74,5.81,4.68,10.45,5.03,14.21,0,.1.02.2.03.29,0,.07.02.15.02.22.08,1.64-1.59,5.14-2.2,7.34-1.86,6.81,1.91,12.51-2.4,21.41-.46.94,2.4,1.07,4.09-.81,2.14-2.37,2.76-8.84,2.83-7.64.44,7.89,1.73,9.71,2.53,16.17.59,4.71-1.05,7.3.24,9.21.98,1.46,1.32,1.33,3.74-1.27,1.7-1.82,2.78-3.52,3.88-4.88,2.12-2.64,3.27-5.24,3.46-10.69.14-4.11-.43-7.24-1.88-13.22-.6-2.48-1.26-3.92-2.12-10.45-.24-1.82-.31-3.13-.37-4.25-.07-.57-.07-1.13-.07-1.37,0-.55,0-.99-.05-1.42-.35-3.06-1.84-4.02-2.65-9.76-1.54-10.79-2.67-18.82-4-30.03-.01-.1-.02-.21-.04-.31-.29-2.29-.6-4.71-.94-7.33-1.19-9.32-5.16-21.01-9.35-33.88-.04-.1-.07-.21-.1-.31-.23-.74-.48-1.48-.73-2.23-.43-1.33-1.34-11.48-1.7-16.81-.43-6.67-4.54-67.76-7.36-76.98-2.05-6.71-4.04-9.49-5.95-10.47h.16l-.88-.4c-.55-.3-1.38-.73-1.97-.98-.26-.11-.54-.2-.81-.29l-31.56-14.51v.11c-.23-.46-.46-.94-.67-1.45-1.12-2.7-1.57-10.21-1.75-15.34,2.54-2.35,4.48-5.38,5.73-10.41.22-.9.49-1.97.74-3.12,2.78.98,3.5-3.3,4.02-4.54.57-1.36,1.33-1.49,2.08-4.5.5-2-.37-3.32-.01-4.61.24-.87.35-3.32-.75-4.16-.12-.09-.27-.14-.43-.18,1.65-6.27,2.7-16.51-.73-24.35-1.49-3.39-3.32-6.12-5.26-8.29-4.56-5.57-12.1-9.22-20.62-9.22h0c-8.52,0-16.06,3.65-20.62,9.22-1.94,2.17-3.77,4.9-5.26,8.29-3.43,7.84-2.38,18.08-.73,24.35-.16.04-.31.09-.43.18-1.1.83-.99,3.29-.75,4.16.36,1.29-.51,2.61-.01,4.61.75,3.01,1.51,3.14,2.08,4.5.52,1.24,1.24,5.52,4.02,4.54.25,1.15.51,2.22.74,3.12,1.26,5.02,3.19,8.06,5.73,10.41-.18,5.13-.63,12.64-1.75,15.34-.21.51-.43.98-.67,1.45v-.11l-31.57,14.51c-.26.1-.55.18-.8.29-.59.25-1.43.69-1.98.99l-.86.4h.16c-1.91.98-3.9,3.76-5.95,10.47-2.82,9.22-6.93,70.31-7.36,76.98-.36,5.33-1.26,15.48-1.7,16.81-.24.73-.48,1.44-.71,2.16-.03.1-.06.2-.1.3-4.2,12.9-8.18,24.63-9.37,33.96-.34,2.59-.64,4.99-.93,7.26-.02.1-.03.2-.04.3-1.31,11.26-2.47,19.3-4.01,30.11-.81,5.74-2.3,6.7-2.65,9.76-.05.43-.05.87-.05,1.42v.29c0,.94-.03,2.22-.29,4.28-.92,7.3-1.61,8.83-2.25,11.4-.04.15-.07.29-.11.44-1.37,5.68-1.92,8.76-1.8,12.71,0,.23.02.45.03.67Z"/>
  </g>
</svg>