<?xml version="1.0" encoding="UTF-8"?>
<svg id="_레이어_2" data-name="레이어 2" xmlns="http://www.w3.org/2000/svg" viewBox="0 0 181.09 572.08">
  <defs>
    <style>
      .cls-1 {
        fill: #f2a7a9;
        stroke: #221714;
        stroke-miterlimit: 10;
      }
    </style>
  </defs>
  <g id="_레이어_1-2" data-name="레이어 1">
    <path class="cls-1" d="m169.48,342.55c.99,1.46,1.33,1.34,3.75-1.26,1.7-1.83,2.78-3.52,3.87-4.88,2.13-2.64,3.28-5.25,3.47-10.69.02-.55.02-1.08.02-1.61,0-.02,0-.04,0-.06,0-.02,0-.03,0-.05,0-.07,0-.13,0-.2,0-.08,0-.16,0-.24,0-.04,0-.08,0-.12,0-.08,0-.17,0-.25,0-.14-.02-.28-.02-.42,0-.01,0-.02,0-.03-.15-2.97-.74-5.88-1.85-10.47-.52-2.13-1.08-3.5-1.76-7.88,0-.02,0-.04,0-.06-.02-.15-.05-.32-.07-.49-.07-.45-.14-.94-.21-1.45-.17-1.32-.27-2.47-.36-3.6,0-.06-.01-.11-.02-.16-.02-.34-.04-.67-.05-.98-.07-.57-.07-1.13-.07-1.37,0-.28,0-.53,0-.77,0-.25-.02-.5-.04-.73-.35-3.06-1.84-4.02-2.65-9.76-1.54-10.79-2.57-18.84-4-30.04-.01-.1-.02-.2-.04-.3-.29-2.29-.6-4.71-.94-7.33-1.19-9.32-5.16-21.02-9.35-33.89-.04-.1-.07-.2-.1-.3-.24-.74-.48-1.48-.73-2.23-.43-1.33-1.34-11.48-1.7-16.81-.43-6.67-4.54-67.76-7.36-76.98-2.1-6.87-4.14-9.63-6.09-10.54h0s-1.59-.9-2.55-1.31c-.91-.39-1.91-.7-2.95-.99l-29.35-13.49c-.26-.5-.51-1.03-.74-1.59-.31-.74-.56-1.86-.78-3.18-.35-2.16-.59-4.89-.75-7.54,0-.04,0-.07,0-.11-.03-.51-.06-1.03-.08-1.53,0-.01,0-.02,0-.04-.02-.45-.04-.89-.06-1.33,0-.12-.01-.24-.02-.36-.02-.4-.03-.79-.04-1.16,0-.03,0-.07,0-.1.02-.01.03-.03.04-.04,2.47-2.3,4.39-5.27,5.61-10.1,0,0,0,0,0-.01.02-.09.05-.17.07-.26.02-.08.04-.16.06-.24.15-.59.31-1.25.47-1.95,0-.03.01-.06.02-.08,0-.04.02-.08.03-.11.06-.24.11-.49.17-.74,0,0,0,0,0,0,.35.12.67.16.96.13h0c.13-.01.25-.04.37-.08,0,0,0,0,0,0,.04-.01.08-.03.12-.05,0,0,0,0,0,0,.08-.03.15-.06.23-.11,0,0,0,0,0,0,.04-.03.08-.05.13-.08,0,0,0,0,0,0,.06-.04.13-.09.19-.14,0,0,0,0,0,0,.04-.03.08-.07.12-.11,0,0,0,0,0,0,.06-.05.11-.11.16-.17,0,0,0,0,0,0,.03-.04.07-.08.1-.12,0,0,0,0,0,0,.05-.07.1-.13.15-.2,0,0,0,0,0,0,.03-.04.06-.09.09-.13,0,0,0,0,0,0,.05-.08.1-.16.15-.25,0,0,0,0,0-.01.02-.04.04-.07.06-.11,0,0,0,0,0,0,.07-.13.13-.26.2-.4,0,0,0,0,0,0,.06-.14.12-.27.17-.41,0,0,0,0,0,0,.01-.03.02-.05.03-.08,0-.02.01-.03.02-.05.04-.1.07-.19.11-.29,0,0,0,0,0-.01.01-.03.02-.06.03-.09,0-.01,0-.02.01-.03.03-.1.07-.19.1-.28,0,0,0-.02,0-.03,0-.02.01-.03.02-.05,0-.01,0-.03.01-.04.01-.04.02-.08.04-.12.04-.12.08-.24.11-.36.03-.09.06-.19.09-.27,0,0,0-.01,0-.02.01-.03.02-.06.03-.09.02-.06.04-.13.06-.18,0-.03.02-.05.03-.07.01-.04.03-.07.04-.11,0-.02.02-.04.02-.06.14-.32.28-.58.44-.82.1-.16.21-.32.32-.49.04-.07.09-.14.13-.21.01-.02.03-.04.04-.06.02-.02.03-.05.05-.07.03-.05.06-.1.09-.16,0,0,.01-.02.02-.03.02-.04.04-.08.06-.11.01-.03.03-.05.04-.08.02-.03.03-.05.05-.08.01-.02.02-.05.03-.07,0-.02.02-.04.03-.06.04-.07.07-.15.11-.23,0,0,0,0,0-.01.02-.05.04-.1.06-.15,0,0,0-.01,0-.02.04-.1.09-.22.13-.33,0-.02.01-.03.02-.04,0,0,0-.02,0-.02,0-.02.02-.05.03-.07,0,0,0-.01,0-.02,0-.01,0-.03.01-.04.05-.14.1-.29.15-.44,0,0,0,0,0,0,.02-.06.04-.13.06-.2,0,0,0,0,0-.01.05-.18.11-.38.16-.59,0,0,0-.02,0-.03,0-.02,0-.03.01-.05.5-2-.37-3.32,0-4.61.03-.1.05-.22.07-.36,0,0,0,0,0,0,0-.03,0-.06.01-.09,0,0,0-.01,0-.02.02-.11.03-.22.04-.34,0,0,0,0,0-.01,0-.04,0-.07,0-.11,0,0,0,0,0-.01,0,0,0-.01,0-.01.02-.33.02-.69-.01-1.05,0,0,0,0,0-.01,0,0,0,0,0,0,0-.04,0-.08-.01-.12,0,0,0-.01,0-.02-.02-.15-.04-.29-.07-.43,0,0,0-.02,0-.02,0-.04-.01-.07-.02-.11,0,0,0,0,0-.01-.04-.18-.09-.36-.15-.53-.14-.36-.34-.67-.61-.88-.03-.02-.07-.04-.11-.06,0,0,0,0,0,0,0,0,0,0,0,0-.09-.05-.2-.09-.31-.12,1.65-6.27,2.7-16.5-.73-24.34-.01-.02-.02-.05-.03-.07-.21-.48-.44-.95-.66-1.41-.03-.06-.06-.12-.09-.18-.23-.45-.46-.89-.7-1.32,0,0,0,0,0,0,0,0,0,0,0,0-1.06-1.88-2.22-3.52-3.44-4.92,0,0,0,0,0,0-.11-.13-.22-.26-.32-.38-.26-.32-.53-.62-.81-.93-.11-.12-.22-.23-.33-.34,0,0,0,0,0,0-.07-.07-.14-.14-.21-.21-3.45-3.52-8.17-6.08-13.56-7.16-.22-.04-.44-.09-.66-.12,0,0,0,0,0,0-.15-.03-.31-.06-.46-.08,0,0,0,0,0,0-.48-.08-.96-.14-1.44-.19-.39-.04-.78-.07-1.17-.09-.13,0-.26-.02-.39-.03-.21-.01-.42-.01-.63-.02-.32-.01-.63-.03-.95-.03h-.01c-.08,0-.17,0-.25,0-.03,0-.06,0-.09,0-8.37.1-15.77,3.7-20.27,9.19,0,0-.01.01-.02.02-.06.07-.12.14-.18.21-1.45,1.65-2.83,3.62-4.04,5.94-.03.05-.05.11-.08.16-.32.62-.64,1.27-.94,1.94,0,.01-.01.02-.02.03-3.43,7.84-2.38,18.07-.73,24.34-.15.04-.29.09-.41.17,0,0-.02,0-.02.01-.02.01-.03.03-.04.04-.92.76-.96,2.68-.79,3.72.02.15.05.28.08.39.36,1.29-.51,2.61,0,4.61.75,3.01,1.51,3.14,2.08,4.5.04.09.08.21.12.33,0,.01.01.03.02.05.04.12.08.24.12.37.05.15.1.31.15.48,0,0,0,.02,0,.02.46,1.42,1.18,3.29,2.65,3.42h0c.13.01.27,0,.41-.01.04,0,.07-.01.11-.02h0c.14-.02.28-.05.43-.11.25,1.15.51,2.22.74,3.12,1.23,5.03,3.19,8.06,5.73,10.41,0,.16-.01.34-.02.5,0,0,0,0,0,.01-.04.96-.08,2-.14,3.07,0,.1-.01.21-.02.31-.03.51-.06,1.02-.09,1.54,0,.02,0,.04,0,.06,0,.01,0,.02,0,.04-.03.51-.07,1.02-.11,1.52,0,.04,0,.07,0,.11,0,.03,0,.07,0,.1-.04.51-.09,1.02-.14,1.51,0,.07-.01.14-.02.21-.05.46-.1.92-.15,1.36,0,.05-.01.11-.02.16-.06.47-.12.92-.19,1.36-.01.07-.02.13-.03.2-.07.43-.14.84-.22,1.22,0,0,0,0,0,0,0,0,0,0,0,0-.02.11-.05.22-.07.33-.03.12-.05.24-.08.35-.03.1-.05.2-.08.3-.01.04-.02.08-.03.12-.02.07-.04.15-.06.22-.02.08-.05.17-.07.24-.05.15-.1.3-.16.43,0,.02-.01.04-.02.06-.23.56-.48,1.08-.74,1.59l-29.35,13.49c-1.04.29-2.04.6-2.95.99-.96.41-2.55,1.3-2.55,1.3h0c-1.95.92-3.99,3.68-6.08,10.55-2.83,9.22-6.94,70.31-7.37,76.98-.36,5.33-1.27,15.48-1.7,16.81-.25.75-.49,1.49-.73,2.23-.03.1-.06.2-.1.3-4.19,12.87-8.16,24.57-9.35,33.89-.34,2.62-.65,5.04-.94,7.33-.02.1-.03.2-.04.3-1.43,11.2-2.46,19.25-4,30.04-.81,5.74-2.3,6.7-2.65,9.76-.05.43-.05.87-.05,1.42v.3c0,.94-.03,2.22-.29,4.27-.93,7.4-1.63,8.87-2.27,11.5-1.1,4.52-1.68,7.42-1.84,10.34,0,.08,0,.16-.01.24,0,.14-.02.29-.02.43,0,.02,0,.05,0,.07,0,.02,0,.04,0,.07-.03.75-.03,1.5,0,2.3.19,5.44,1.34,8.05,3.46,10.69,1.1,1.36,2.18,3.05,3.88,4.88,2.42,2.6,2.76,2.72,3.74,1.26.41-.61.52-1.29.5-2.09,0-.02,0-.04,0-.06,0-.03,0-.05,0-.08,0-.09-.01-.19-.02-.28,0-.05,0-.1,0-.15-.07-1.16-.34-2.54-.37-4.31h0c0-.26,0-.54.01-.81.02-.46.05-.94.12-1.45.8-6.46,2.09-8.27,2.53-16.17.07-1.19.69,5.28,2.83,7.65,1.61,1.79,4.29,1.76,4.12.92,0-.02,0-.04,0-.07,0-.02,0-.04,0-.06,0-.07,0-.13-.04-.21-1.61-3.33-2.09-6.21-2.16-8.87-.02-.66,0-1.31.03-1.95.09-2.28.36-4.44.28-6.63,0-.02,0-.05,0-.07s0-.05,0-.07c-.04-1.25-.19-2.51-.54-3.81-.6-2.15-2.19-5.52-2.19-7.2.01-.12.03-.25.04-.36.31-3.77,2.28-8.44,5.04-14.28,3.75-7.95,5.87-12.88,11.17-26.95.04-.1.07-.19.11-.29.35-.93.71-1.89,1.08-2.9,6.66-17.98,7.77-33.89,8.03-35.8.11-.77.26-1.62.43-2.51.02-.1.04-.21.06-.31.88-4.46,2.43-10.15,4.13-16.18,1.71-6.05,3.56-12.44,5.02-18.3.41-1.65,1.36-6.21,1.87-8.73.02-.06.05-.12.07-.18.06-.02.12,0,.17,0,.06.12.12.23.17.36.02.14.04.29.06.44.18,7.51-1,26.23-3.53,42.66-.89,5.76-2.63,11.49-4.11,17.29-.43,1.7-.8,3.32-1.14,4.88-7.17,10-10.52,15.98-12.02,19.35-.02.05-.04.1-.06.15-3.75,9.09-9.49,21.1-9.75,41.22v.3c-.04,4.27.16,8.91.69,13.96,1.3,12.52,10.98,39.26,14.59,52.03,8.02,28.39,12.56,45.41,13.15,55.42.77,12.92-.99,16.97-2.56,24.79-3.05,15.22-.83,28.37,2.8,40.42,6.69,22.29,13.71,32.19,14.43,43.89.17,2.92-2.02,4.14-.81,7.83.63,1.92,1.69,3.76.08,8.04-5.46,14.49-12.57,18.28-11.73,23.57.93,5.86,20.64,5.5,28.36,4.17,6.35-1.08,6.26-10.06,4.43-20.33-.37-2.08-.56-4.4-.42-7.96.08-1.76.55-3.81.8-6.28.23-2.28-.44-4.69-.8-6.6-.27-1.44-.55-2.6-.6-3.21-1.7-22.38-1.17-27.75,1.65-48.79,2.85-21.27-1.15-25.08-.65-38.09.3-7.7,2.64-15.58,3.27-23.92.78-10.46-.3-20.35-1.41-27.79-3.06-20.57-3.04-23.89-4.03-40.16-1.07-17.65,4.59-26.31,1.36-41.54.75.27,2.58.36,4.4.38,1.82.01,3.65-.11,4.4-.38-3.23,15.23,2.43,23.89,1.36,41.54-.99,16.27-.97,19.59-4.03,40.16-1.11,7.44-2.19,17.33-1.4,27.79.62,8.34,2.96,16.22,3.26,23.92.5,13.01-3.5,16.82-.65,38.09,2.82,21.04,3.36,26.41,1.65,48.79-.05.61-.33,1.77-.6,3.21-.36,1.91-1.03,4.32-.8,6.6.25,2.47.73,4.52.8,6.28.14,3.56-.05,5.88-.42,7.96-1.83,10.27-1.91,19.25,4.44,20.33,7.71,1.33,27.42,1.69,28.35-4.17.84-5.29-6.26-9.08-11.72-23.57-1.62-4.28-.55-6.12.08-8.04,1.21-3.69-.99-4.91-.81-7.83.71-11.7,7.73-21.6,14.43-43.89,3.62-12.05,5.84-25.2,2.8-40.42-1.57-7.82-3.33-11.87-2.57-24.79.59-10.01,5.13-27.03,13.16-55.42,3.61-12.77,13.28-39.51,14.58-52.03.53-5.05.73-9.69.69-13.96v-.3c-.25-20.12-6-32.13-9.75-41.22-.02-.05-.04-.1-.06-.15-1.53-3.43-4.97-9.57-12.43-19.92-.14-.63-.29-1.26-.44-1.9-1.56-6.43-3.38-13.04-4.41-19.68,0,0,0,0,0,0-2.49-16.56-3.82-35.32-3.62-42.61.13-.51.25-1.04.39-1.55.47,2.28,1.59,7.74,2.05,9.59,2.9,11.63,7.35,25.35,9.12,34.28.02.1.04.19.06.29.19.97.35,1.91.47,2.75.26,1.83,1.28,16.57,7.27,33.64.34.97.69,1.93,1.04,2.88.29.78.56,1.53.83,2.25,5.28,14.27,7.49,19.17,11.26,27.17,2.7,5.73,4.65,10.34,5.02,14.07,0,.1.02.19.03.28,0,.1.02.21.03.31-.01,1.69-1.59,5.04-2.19,7.18-.36,1.3-.5,2.56-.53,3.81-.1,2.21.16,4.38.26,6.67.03.63.04,1.26.03,1.91,0,.02,0,.04,0,.07-.06,2.68-.53,5.59-2.16,8.95-.04.08-.05.15-.04.22,0,.02,0,.04,0,.06,0,.02,0,.04,0,.06-.16.83,2.5.87,4.13-.92,2.13-2.37,2.76-8.84,2.83-7.65.44,7.9,1.73,9.71,2.53,16.17.02.17.03.34.05.51.02.23.04.45.05.67,0,.16.02.32.02.47.03,2.03-.28,3.59-.36,4.87-.01.12-.02.24-.02.36,0,.03,0,.07,0,.11,0,0,0,.01,0,.02,0,0,0,0,0,.02-.03.84.07,1.55.5,2.18Z"/>
  </g>
</svg>