<?xml version="1.0" encoding="UTF-8"?>
<svg id="_레이어_2" data-name="레이어 2" xmlns="http://www.w3.org/2000/svg" viewBox="0 0 181.09 571.94">
  <defs>
    <style>
      .cls-1 {
        fill: #f2a7a9;
        stroke: #221714;
        stroke-miterlimit: 10;
      }
    </style>
  </defs>
  <g id="_레이어_1-2" data-name="레이어 1">
    <path class="cls-1" d="m3.98,336.18c1.11,1.36,2.19,3.06,3.89,4.88,2.42,2.6,2.76,2.73,3.74,1.27,1.29-1.91-.36-4.5.24-9.21.8-6.46,2.11-8.28,2.53-16.17.06-1.2.69,5.27,2.83,7.64,1.69,1.88,4.54,1.75,4.09.81-4.32-8.9-.55-14.6-2.4-21.41-.61-2.2-2.28-5.7-2.21-7.34,0-.05.02-.1.02-.15.02-.1.02-.2.04-.3.31-3.77,2.27-8.43,5.04-14.28,3.75-7.95,5.9-12.86,11.17-26.94.04-.1.06-.19.11-.3.35-.92.7-1.88,1.08-2.89,6.66-17.98,7.77-33.9,8.02-35.8.12-.78.27-1.64.44-2.53.02-.1.04-.2.06-.3,1.73-8.92,6.23-22.76,9.15-34.48.45-1.85,1.58-7.31,2.05-9.6,3.4,12.9,5.75,33.36,2.68,44.38-1.25,5.53-2.96,14.98-4.81,20.76-3.28,10.23-6.28,20.71-6.29,20.76-2.96,9.14-7.52,21.21-7.68,41.52-.03,4.28.13,8.91.55,13.96,1.03,12.52,8.64,39.26,11.49,52.03,6.32,28.39,9.89,45.41,10.36,55.42.6,12.93-.79,16.97-2.02,24.8-2.4,15.21-.65,28.36,2.2,40.42,5.28,22.28,10.81,32.19,11.37,43.88.14,2.92-1.59,4.14-.64,7.83.5,1.93,1.34,3.76.06,8.05-4.3,14.48-9.89,18.27-9.23,23.56.73,5.86,16.26,5.5,22.33,4.18,5-1.09,4.94-10.07,3.49-20.34-.29-2.08-.44-4.4-.32-7.96.05-1.76.43-3.81.62-6.28.19-2.28-.34-4.69-.62-6.6-.22-1.44-.44-2.6-.48-3.21-1.34-22.38-.92-27.75,1.3-48.79,2.24-21.27-.91-25.08-.51-38.08.23-7.71,2.08-15.58,2.57-23.93.62-10.46-.23-20.35-1.11-27.79-2.41-20.57-2.39-23.89-3.17-40.15-.85-17.66,3.61-26.32,1.07-41.55.59.27,2.03.39,3.47.38,1.43,0,2.87-.11,3.46-.38-2.54,15.23,1.92,23.89,1.07,41.55-.78,16.26-.76,19.58-3.17,40.15-.87,7.44-1.73,17.33-1.11,27.79.5,8.35,2.34,16.22,2.57,23.93.4,13-2.75,16.81-.51,38.08,2.23,21.04,2.64,26.41,1.3,48.79-.04.61-.26,1.77-.47,3.21-.29,1.91-.81,4.32-.63,6.6.2,2.47.57,4.52.63,6.28.11,3.56-.04,5.88-.33,7.96-1.44,10.27-1.51,19.25,3.49,20.34,6.08,1.32,21.6,1.68,22.33-4.18.66-5.29-4.93-9.08-9.23-23.56-1.27-4.29-.43-6.12.06-8.05.95-3.69-.77-4.91-.64-7.83.57-11.69,6.1-21.6,11.37-43.88,2.85-12.06,4.6-25.21,2.21-40.42-1.24-7.83-2.63-11.87-2.03-24.8.47-10.01,4.04-27.03,10.37-55.42,2.84-12.77,10.46-39.51,11.49-52.03.41-5.05.57-9.68.54-13.96-.16-20.31-4.71-32.38-7.68-41.52,0-.05-3.01-10.53-6.28-20.76-1.85-5.78-3.57-15.23-4.82-20.76-3.06-11.02-.72-31.48,2.69-44.38.46,2.29,1.59,7.75,2.05,9.6,2.92,11.72,7.41,25.56,9.15,34.48.02.1.04.2.06.3.17.89.32,1.75.43,2.53.26,1.9,1.37,17.82,8.03,35.8.37,1.01.73,1.97,1.08,2.89.04.11.07.2.11.3,5.26,14.08,7.42,18.99,11.17,26.94,2.76,5.85,4.73,10.51,5.04,14.28.01.1.02.2.03.3,0,.05.02.1.02.15.08,1.64-1.59,5.14-2.2,7.34-1.86,6.81,1.91,12.51-2.4,21.41-.46.94,2.4,1.07,4.09-.81,2.14-2.37,2.76-8.84,2.83-7.64.42,7.89,1.73,9.71,2.53,16.17.59,4.71-1.05,7.3.24,9.21.98,1.46,1.32,1.33,3.74-1.27,1.7-1.82,2.78-3.52,3.88-4.88,2.12-2.64,3.27-5.24,3.46-10.69.14-4.11-.43-7.24-1.88-13.22-.64-2.63-1.34-4.1-2.27-11.5-.26-2.05-.28-3.33-.29-4.27v-.3c0-.55,0-.99-.05-1.42-.35-3.06-1.84-4.02-2.65-9.76-1.54-10.79-2.57-18.84-4-30.04,0-.1-.02-.2-.04-.3-.29-2.29-.6-4.71-.94-7.33-1.19-9.32-5.16-21.02-9.35-33.89-.04-.1-.07-.2-.1-.3-.24-.74-.48-1.48-.73-2.23-.43-1.33-1.34-11.48-1.7-16.81-.43-6.67-4.54-67.76-7.36-76.98-2.1-6.87-4.14-9.63-6.09-10.54h0s-1.59-.9-2.55-1.31c-.63-.27-1.31-.51-2.01-.73l-30.37-13.96v.07c-.23-.46-.46-.94-.67-1.45-1.12-2.7-1.57-10.21-1.75-15.34,2.54-2.35,4.5-5.38,5.73-10.41.23-.9.49-1.97.74-3.12,2.78.98,3.5-3.3,4.02-4.54.57-1.36,1.33-1.49,2.08-4.5.5-2-.37-3.32,0-4.61.24-.87.35-3.32-.75-4.16-.12-.09-.27-.14-.43-.18,1.65-6.27,2.7-16.51-.73-24.35-1.49-3.39-3.32-6.12-5.26-8.29-4.56-5.57-12.1-9.22-20.62-9.22s-16.07,3.65-20.63,9.22c-1.94,2.17-3.77,4.9-5.25,8.29-3.44,7.84-2.38,18.08-.73,24.35-.17.04-.31.09-.44.18-1.1.84-.98,3.29-.75,4.16.37,1.29-.5,2.61,0,4.61.75,3.01,1.5,3.14,2.08,4.5.52,1.24,1.24,5.52,4.02,4.54.25,1.15.51,2.22.74,3.12,1.23,5.03,3.18,8.06,5.73,10.41-.18,5.13-.63,12.64-1.75,15.34-.21.51-.44.99-.68,1.46v-.08l-30.37,13.96c-.7.22-1.37.46-2,.73-.95.41-2.54,1.3-2.54,1.3h0c-1.96.92-4,3.68-6.09,10.55-2.82,9.22-6.93,70.31-7.37,76.98-.35,5.33-1.27,15.48-1.69,16.81-.25.75-.49,1.49-.73,2.23-.03.1-.06.2-.1.3-4.19,12.87-8.16,24.57-9.35,33.89-.34,2.62-.65,5.04-.94,7.33-.02.1-.04.2-.04.3-1.44,11.2-2.46,19.25-4,30.04-.81,5.74-2.3,6.7-2.65,9.76-.06.43-.06.87-.06,1.42v.3c0,.94-.02,2.22-.29,4.27-.92,7.4-1.62,8.87-2.27,11.5-1.44,5.98-2.01,9.11-1.88,13.22.19,5.45,1.35,8.05,3.46,10.69Z"/>
  </g>
</svg>