<?xml version="1.0" encoding="UTF-8"?>
<svg id="_레이어_2" data-name="레이어 2" xmlns="http://www.w3.org/2000/svg" viewBox="0 0 181.09 572.08">
  <defs>
    <style>
      .cls-1 {
        fill: #f2a7a9;
        stroke: #221714;
        stroke-miterlimit: 10;
      }
    </style>
  </defs>
  <g id="_레이어_1-2" data-name="레이어 1">
    <path class="cls-1" d="m176.42,300.77c-.26-2.05-.28-3.33-.29-4.27v-.3c0-.55,0-.99-.05-1.42-.35-3.06-1.84-4.02-2.65-9.76-1.54-10.79-2.57-18.84-4-30.04-.01-.1-.02-.2-.04-.3-.29-2.29-.6-4.71-.94-7.33-1.19-9.32-5.16-21.02-9.35-33.89-.04-.1-.07-.2-.1-.3-.24-.74-.48-1.48-.73-2.23-.43-1.33-1.34-11.48-1.7-16.81-.43-6.67-4.54-67.76-7.36-76.98-2.1-6.87-4.14-9.63-6.09-10.54h0s-1.59-.9-2.55-1.31c-.75-.32-1.56-.59-2.4-.84l-29.97-13.77c-.23-.47-.46-.94-.67-1.46-1.12-2.7-1.57-10.21-1.75-15.34,2.54-2.35,4.5-5.38,5.73-10.41.23-.9.49-1.97.74-3.12,2.78.98,3.5-3.3,4.02-4.54.57-1.36,1.33-1.49,2.08-4.5.5-2-.37-3.32,0-4.61.24-.87.35-3.32-.75-4.16-.12-.09-.27-.14-.43-.18,1.65-6.27,2.7-16.51-.73-24.35-1.49-3.39-3.32-6.12-5.26-8.29-4.56-5.57-12.1-9.22-20.62-9.22h-.01c-8.52,0-16.06,3.65-20.62,9.22-1.94,2.17-3.77,4.9-5.26,8.29-3.43,7.84-2.38,18.08-.73,24.35-.16.04-.31.09-.43.18-1.1.84-.99,3.29-.75,4.16.36,1.29-.51,2.61,0,4.61.75,3.01,1.51,3.14,2.08,4.5.52,1.24,1.24,5.52,4.02,4.54.25,1.15.51,2.22.74,3.12,1.23,5.03,3.19,8.06,5.73,10.41-.18,5.13-.63,12.64-1.75,15.34-.21.51-.44.99-.67,1.46l-29.97,13.77c-.84.25-1.65.52-2.4.84-.96.41-2.55,1.3-2.55,1.3h0c-1.95.92-3.99,3.68-6.09,10.55-2.82,9.22-6.93,70.31-7.36,76.98-.36,5.33-1.27,15.48-1.7,16.81-.25.75-.49,1.49-.73,2.23-.03.1-.06.2-.1.3-4.19,12.87-8.16,24.57-9.35,33.89-.34,2.62-.65,5.04-.94,7.33-.02.1-.03.2-.04.3-1.43,11.2-2.46,19.25-4,30.04-.81,5.74-2.3,6.7-2.65,9.76-.05.43-.05.87-.05,1.42v.3c0,.94-.03,2.22-.29,4.27-.93,7.4-1.63,8.87-2.27,11.5-1.45,5.98-2.02,9.11-1.88,13.22.19,5.45,1.34,8.05,3.46,10.69,1.1,1.36,2.18,3.06,3.88,4.88,2.42,2.6,2.76,2.73,3.74,1.27,1.29-1.91-.35-4.5.24-9.21.8-6.46,2.11-8.28,2.53-16.17.07-1.2.69,5.27,2.83,7.64,1.69,1.88,4.55,1.75,4.09.81-4.31-8.9-.54-14.6-2.4-21.41-.61-2.2-2.28-5.7-2.2-7.34,0-.05.01-.1.02-.15.01-.1.02-.2.03-.3.31-3.77,2.28-8.43,5.04-14.28,3.75-7.95,5.91-12.86,11.17-26.94.04-.1.07-.19.11-.3.35-.92.71-1.88,1.08-2.89,6.66-17.98,7.77-33.9,8.03-35.8.11-.78.26-1.64.43-2.53.02-.1.04-.2.06-.3,1.74-8.92,6.23-22.76,9.15-34.48.46-1.85,1.59-7.31,2.05-9.6,3.41,12.9,5.76,33.36,2.69,44.38-1.25,5.53-4.37,11.14-8.95,18.17-5.03,7.75-7.97,10.36-14.25,23.35l-.06.15c-3.76,9.11-9.52,21.16-9.75,41.37v.15c-.04,4.27.16,8.91.69,13.96,1.31,12.52,10.98,39.26,14.59,52.03,8.02,28.39,12.56,45.41,13.15,55.42.77,12.92-.99,16.97-2.56,24.79-3.05,15.22-.82,28.37,2.8,40.42,6.69,22.29,13.71,32.19,14.43,43.89.17,2.92-2.02,4.14-.81,7.83.63,1.92,1.69,3.76.08,8.04-5.46,14.49-12.57,18.28-11.73,23.57.93,5.86,20.64,5.49,28.36,4.17,6.35-1.08,6.26-10.06,4.43-20.33-.37-2.08-.56-4.4-.42-7.96.08-1.76.55-3.81.8-6.28.23-2.28-.43-4.69-.8-6.6-.27-1.44-.55-2.6-.6-3.21-1.7-22.39-1.17-27.75,1.65-48.8,2.85-21.26-1.15-25.07-.65-38.08.3-7.7,2.64-15.58,3.27-23.92.79-10.46-.3-20.35-1.41-27.79-3.06-20.57-3.04-23.89-4.03-40.16-1.07-17.65,4.59-26.31,1.36-41.54.75.27,2.58.36,4.4.38,1.82.01,3.65-.11,4.4-.38-3.23,15.23,2.43,23.89,1.36,41.54-.99,16.27-.97,19.59-4.03,40.16-1.11,7.44-2.19,17.33-1.4,27.79.62,8.34,2.96,16.22,3.26,23.92.5,13.01-3.5,16.82-.64,38.08,2.82,21.05,3.35,26.41,1.64,48.8-.05.61-.33,1.77-.6,3.21-.36,1.91-1.03,4.32-.8,6.6.25,2.47.73,4.52.8,6.28.14,3.56-.05,5.88-.42,7.96-1.83,10.27-1.91,19.25,4.44,20.33,7.71,1.32,27.42,1.69,28.35-4.17.84-5.29-6.26-9.08-11.72-23.57-1.62-4.28-.55-6.12.08-8.04,1.21-3.69-.99-4.91-.81-7.83.71-11.7,7.73-21.6,14.43-43.89,3.62-12.05,5.84-25.2,2.8-40.42-1.57-7.82-3.33-11.87-2.57-24.79.59-10.01,5.13-27.03,13.16-55.42,3.61-12.77,13.28-39.51,14.59-52.03.52-5.05.72-9.69.68-13.96v-.15c-.22-20.21-5.99-32.26-9.75-41.37-.02-.05-.04-.1-.06-.15-6.27-12.99-9.22-15.6-14.25-23.35-4.57-7.03-7.69-12.64-8.94-18.17-3.07-11.02-.72-31.48,2.69-44.38.46,2.29,1.59,7.75,2.05,9.6,2.92,11.72,7.41,25.56,9.15,34.48.02.1.04.2.06.3.17.89.32,1.75.43,2.53.26,1.9,1.37,17.82,8.03,35.8.37,1.01.73,1.97,1.08,2.89.04.11.07.2.11.3,5.26,14.08,7.42,18.99,11.17,26.94,2.76,5.85,4.73,10.51,5.04,14.28,0,.1.02.2.03.3.01.05.02.1.02.15.08,1.64-1.59,5.14-2.2,7.34-1.86,6.81,1.91,12.51-2.4,21.41-.46.94,2.4,1.07,4.09-.81,2.14-2.37,2.76-8.84,2.83-7.64.42,7.89,1.73,9.71,2.53,16.17.59,4.71-1.05,7.3.24,9.21.98,1.46,1.32,1.33,3.74-1.27,1.7-1.82,2.78-3.52,3.88-4.88,2.12-2.64,3.27-5.24,3.46-10.69.14-4.11-.43-7.24-1.88-13.22-.64-2.63-1.34-4.1-2.27-11.5Z"/>
  </g>
</svg>