<?xml version="1.0" encoding="UTF-8"?>
<svg id="_레이어_2" data-name="레이어 2" xmlns="http://www.w3.org/2000/svg" viewBox="0 0 181.09 572.08">
  <defs>
    <style>
      .cls-1 {
        fill: #f2a7a9;
        stroke: #221714;
        stroke-miterlimit: 10;
      }
    </style>
  </defs>
  <g id="_레이어_1-2" data-name="레이어 1">
    <path class="cls-1" d="m180.57,323.23c-.11-3.14-.7-6.12-1.88-10.96-.55-2.25-1.14-3.66-1.88-8.64-.06-.38-.11-.78-.17-1.2-.17-1.34-.27-2.5-.37-3.64,0-.06-.01-.11-.02-.17-.02-.34-.04-.67-.05-.97-.07-.57-.07-1.12-.07-1.37,0-.01,0-.02,0-.03v-.05c0-.55,0-.99-.05-1.42-.35-3.06-1.84-4.02-2.65-9.76-1.54-10.79-2.57-18.84-4-30.04-.01-.1-.02-.2-.04-.3-.29-2.29-.6-4.71-.94-7.33-1.19-9.32-5.16-21.02-9.35-33.89-.04-.1-.07-.2-.1-.3-.24-.74-.48-1.48-.73-2.23-.43-1.33-1.34-11.48-1.7-16.81-.43-6.67-4.54-67.76-7.36-76.98-2.1-6.87-4.14-9.63-6.09-10.54h0s-1.59-.9-2.55-1.31c-.97-.41-2.05-.75-3.17-1.05l-29.11-13.38s-.03-.05-.04-.08c-.03-.06-.07-.13-.1-.19-.22-.44-.43-.89-.62-1.37-.09-.23-.18-.49-.27-.78,0-.02-.01-.04-.02-.05-.08-.29-.16-.6-.23-.93,0,0,0-.01,0-.02-.15-.69-.28-1.48-.4-2.33,0-.06-.02-.11-.02-.17-.06-.41-.11-.83-.16-1.26,0-.01,0-.02,0-.03-.05-.45-.1-.91-.14-1.38,0-.08-.01-.15-.02-.23-.03-.38-.07-.76-.1-1.15,0-.11-.02-.22-.03-.33-.04-.46-.07-.92-.1-1.38-.03-.42-.05-.84-.08-1.25,0-.15-.02-.31-.02-.46-.01-.26-.03-.52-.04-.77,0-.18-.02-.35-.03-.53-.01-.23-.02-.45-.03-.67,0-.18-.02-.36-.02-.54,0-.2-.01-.39-.02-.58,0-.16-.01-.32-.02-.48.14-.13.28-.28.42-.42,2.33-2.29,4.15-5.25,5.31-9.99.22-.85.46-1.86.7-2.94.01-.06.03-.12.04-.18.35.12.66.16.95.14,0,0,0,0,0,0,.15-.01.3-.05.43-.1.05-.02.09-.04.13-.06.09-.04.18-.08.26-.13.05-.03.09-.07.14-.1.07-.06.14-.11.21-.18.04-.04.09-.09.13-.13.06-.07.12-.14.18-.21.04-.05.08-.1.12-.16.06-.08.11-.16.16-.25.03-.06.07-.11.1-.17.05-.09.1-.19.15-.28.03-.06.06-.11.08-.17.05-.11.1-.21.14-.32.02-.05.04-.1.06-.14.06-.14.11-.29.16-.43,0-.01,0-.02.01-.03.05-.15.1-.29.15-.43.18-.56.33-1.06.46-1.37.57-1.36,1.33-1.49,2.08-4.5.12-.5.16-.96.16-1.38,0-.21-.02-.41-.04-.61-.02-.16-.04-.31-.06-.46,0-.03,0-.06-.01-.09,0,0,0-.02,0-.03-.01-.07-.02-.14-.03-.22-.02-.13-.04-.26-.06-.39-.01-.09-.02-.17-.03-.25,0-.08-.02-.17-.02-.25,0-.09,0-.19,0-.28,0-.06,0-.13,0-.19.01-.15.04-.3.08-.44,0,0,0-.01,0-.02.06-.22.11-.53.14-.9.01-.16.02-.34.02-.52,0-.05,0-.1,0-.15,0-.14-.01-.28-.02-.43,0-.05,0-.1-.01-.15-.04-.38-.12-.75-.24-1.09-.01-.04-.03-.07-.04-.1-.06-.14-.12-.26-.2-.38-.02-.03-.04-.06-.06-.09-.1-.14-.2-.26-.33-.36-.05-.04-.11-.07-.17-.09-.08-.04-.16-.07-.26-.09,0-.03.02-.08.03-.11.12-.47.24-.97.35-1.48.03-.14.06-.28.09-.43.12-.56.23-1.13.34-1.73,0,0,0-.01,0-.02.11-.66.22-1.33.31-2.03,0-.06.01-.12.02-.17.25-1.92.39-3.97.39-6.06,0-.11,0-.22,0-.33,0-.54-.02-1.08-.05-1.62,0-.14-.01-.28-.02-.42-.03-.59-.08-1.18-.15-1.77,0-.06-.01-.12-.02-.18-.07-.65-.16-1.3-.28-1.94-.02-.14-.05-.27-.08-.41-.09-.49-.19-.97-.31-1.45-.05-.2-.1-.4-.15-.59-.11-.44-.24-.87-.38-1.3-.06-.18-.11-.37-.18-.55-.2-.59-.42-1.16-.66-1.73,0,0,0-.01,0-.02-.34-.78-.71-1.52-1.08-2.24-1.21-2.29-2.58-4.24-4.01-5.86-.05-.06-.11-.13-.16-.19,0,0,0,0,0,0-.42-.51-.86-.99-1.33-1.47-.09-.09-.18-.18-.27-.27-.46-.46-.95-.9-1.45-1.32-.08-.07-.16-.13-.24-.2-.5-.4-1.01-.79-1.54-1.16-.05-.04-.1-.07-.15-.11-.56-.38-1.15-.74-1.75-1.08-.11-.07-.23-.13-.35-.19-.61-.33-1.22-.65-1.86-.94-.06-.03-.13-.05-.19-.08-.61-.27-1.23-.51-1.86-.74-.11-.04-.22-.08-.33-.12-.66-.23-1.34-.43-2.03-.61-.14-.04-.28-.07-.42-.1-1.36-.33-2.76-.56-4.19-.69-.14-.01-.28-.02-.43-.03-.74-.06-1.48-.09-2.23-.09h-.01c-.52,0-1.04.01-1.56.04-.2.01-.4.03-.59.05-.31.02-.63.04-.94.08-.25.03-.5.06-.75.1-.25.03-.5.06-.75.1-.28.04-.56.1-.84.15-.21.04-.42.07-.62.12-.31.07-.61.14-.91.22-.17.04-.34.08-.51.13-.33.09-.65.18-.97.28-.14.04-.28.08-.42.13-.34.11-.68.23-1.01.35-.11.04-.22.08-.33.12-.35.13-.7.28-1.05.43-.08.04-.17.07-.25.11-.36.16-.72.33-1.07.51-.06.03-.12.06-.18.09-.37.19-.73.38-1.09.58-.04.02-.08.04-.12.07-.37.21-.73.43-1.09.66-.02.01-.05.03-.07.04-.37.24-.73.48-1.08.74-.01,0-.02.01-.03.02-.36.26-.71.53-1.05.81,0,0,0,0,0,0-1.2.97-2.29,2.04-3.26,3.2-.03.04-.06.07-.09.11,0,0-.02.02-.03.03-.86.96-1.7,2.04-2.49,3.24-.03.04-.06.09-.09.13-.34.52-.67,1.05-1,1.61-.05.09-.1.17-.15.26-.32.57-.63,1.15-.93,1.76,0,0,0,0,0,.01-.2.4-.39.82-.57,1.24,0,.01,0,.02-.01.03-.24.56-.46,1.13-.66,1.71-.06.19-.12.38-.18.56-.13.42-.26.85-.37,1.28-.05.2-.1.4-.15.61-.11.47-.21.95-.3,1.43-.03.14-.06.29-.08.43-.11.64-.2,1.28-.27,1.93,0,.07-.01.14-.02.21-.06.58-.11,1.16-.14,1.74,0,.15-.02.3-.02.45-.03.53-.04,1.06-.05,1.59,0,.12,0,.24,0,.36,0,1.33.06,2.65.17,3.92,0,0,0,0,0,0,0,0,0,.01,0,.02.06.71.14,1.4.22,2.08,0,.06.02.13.02.19.09.69.19,1.37.31,2.02,0,.01,0,.02,0,.03.1.59.22,1.16.33,1.71.03.15.06.29.09.44.11.5.23.99.35,1.46.01.04.02.09.03.13-.16.05-.31.09-.43.18-.22.17-.38.41-.52.68-.02.04-.04.07-.05.11-.05.11-.08.22-.12.34-.02.06-.03.11-.05.17-.03.12-.06.23-.08.35-.01.06-.02.12-.03.18-.02.12-.03.25-.04.37,0,.04,0,.09,0,.13-.03.58,0,1.13.08,1.54.02.11.04.21.06.29,0,0,0,.01,0,.02.04.15.07.3.08.46,0,.07,0,.15,0,.23,0,.09,0,.17,0,.26,0,.09-.02.19-.03.28,0,.08-.01.15-.02.23-.02.16-.05.32-.07.48,0,.03,0,.05-.01.08,0,0,0,.02,0,.03,0,.06-.02.13-.02.19-.02.12-.03.24-.05.36-.02.2-.03.4-.04.61,0,.43.03.88.16,1.38.75,3.01,1.51,3.14,2.08,4.5.12.29.26.75.42,1.27.46,1.41,1.18,3.27,2.65,3.41.29.03.6-.01.95-.14,0,.04.02.09.03.13.24,1.1.49,2.12.71,2.99,1.21,4.94,3.12,7.95,5.6,10.28.04.04.09.09.13.13-.02.62-.05,1.27-.08,1.95,0,.08,0,.16-.01.24-.01.25-.02.49-.04.74,0,.11-.01.22-.02.32-.01.23-.02.46-.04.7,0,.11-.01.22-.02.34-.02.29-.03.57-.05.86,0,.05,0,.11-.01.16-.02.34-.05.69-.07,1.03,0,.08-.01.16-.02.24-.02.26-.04.52-.06.78,0,.11-.02.22-.03.32-.02.23-.04.47-.06.7-.01.11-.02.22-.03.33-.02.25-.05.5-.08.75,0,.08-.02.15-.02.23-.04.32-.07.64-.11.95,0,.05-.01.1-.02.15-.03.25-.07.5-.1.75-.01.09-.03.18-.04.27-.03.2-.06.4-.09.59-.02.09-.03.18-.05.27-.03.19-.07.37-.1.55-.01.07-.03.15-.04.22-.16.77-.34,1.43-.55,1.92-.24.58-.5,1.12-.77,1.64l-29.11,13.38c-1.12.3-2.19.64-3.17,1.05-.96.41-2.55,1.3-2.55,1.3h0c-1.95.92-3.99,3.68-6.09,10.55-2.82,9.22-6.93,70.31-7.36,76.98-.36,5.33-1.27,15.48-1.7,16.81-.25.75-.49,1.49-.73,2.23-.03.1-.06.2-.1.3-4.19,12.87-8.16,24.57-9.35,33.89-.34,2.62-.65,5.04-.94,7.33-.02.1-.03.2-.04.3-1.43,11.2-2.46,19.25-4,30.04-.81,5.74-2.3,6.7-2.65,9.76-.05.43-.05.87-.05,1.42v.3c0,.94-.03,2.22-.29,4.27-.93,7.4-1.63,8.87-2.27,11.5-1.17,4.84-1.76,7.82-1.87,10.96,0,.2-.01.41-.02.61,0,.07,0,.14,0,.21,0,.01,0,.03,0,.04,0,.5,0,1.02.02,1.54.19,5.44,1.34,8.05,3.46,10.69,1.1,1.36,2.18,3.06,3.88,4.88,2.42,2.6,2.76,2.72,3.74,1.26.41-.6.52-1.28.51-2.06,0-.02,0-.05,0-.07,0-.09-.01-.19-.02-.28,0-.06,0-.11-.01-.17-.07-1.16-.34-2.55-.37-4.33,0-.29,0-.59.02-.9,0-.15.01-.29.02-.45,0-.14.02-.28.04-.42.02-.18.03-.35.05-.54.8-6.46,2.09-8.28,2.53-16.17.07-1.2.69,5.27,2.83,7.64,1.61,1.79,4.27,1.76,4.13.93,0-.02,0-.04,0-.06,0-.07,0-.14-.04-.21-1.63-3.38-2.11-6.29-2.16-8.98,0-.26,0-.51,0-.76,0-.11,0-.22,0-.32,0-.28.02-.56.03-.84,0-.17.01-.35.02-.52.09-1.71.25-3.35.27-4.99,0,0,0-.01,0-.02.03-1.64-.09-3.27-.55-4.98-.6-2.16-2.21-5.56-2.19-7.24,0-.01,0-.02,0-.03,0-.12.03-.25.04-.37.31-3.77,2.28-8.43,5.04-14.28,3.75-7.95,5.83-12.89,11.17-26.95.04-.1.07-.19.11-.29.35-.93.71-1.88,1.08-2.89,6.66-17.98,7.77-33.9,8.03-35.8.11-.77.25-1.63.43-2.52.02-.1.04-.21.06-.31.88-4.46,2.43-10.14,4.13-16.18,1.71-6.05,3.56-12.44,5.02-18.31.41-1.63,1.33-6.07,1.84-8.58.04-.09.07-.17.1-.25.11-.03.2-.03.29,0,0,.02,0,.04.01.06,1.28,9.18,1.76,28.53-.8,43.4-.98,5.67-3.62,11.31-5.96,17.55-.3.8-.57,1.57-.84,2.33-4.37,6.5-7.32,9.65-13.12,21.64l-.06.15c-3.76,9.11-9.52,21.16-9.75,41.37v.15c-.04,4.27.16,8.91.69,13.96,1.31,12.52,10.98,39.26,14.59,52.03,8.02,28.39,12.56,45.41,13.15,55.42.77,12.92-.99,16.97-2.56,24.79-3.05,15.22-.82,28.37,2.8,40.42,6.69,22.29,13.71,32.19,14.43,43.89.17,2.92-2.02,4.14-.81,7.83.63,1.92,1.69,3.76.08,8.04-5.46,14.49-12.57,18.28-11.73,23.57.93,5.86,20.64,5.49,28.36,4.17,6.35-1.08,6.26-10.06,4.43-20.33-.37-2.08-.56-4.4-.42-7.96.08-1.76.55-3.81.8-6.28.23-2.28-.43-4.69-.8-6.6-.27-1.44-.55-2.6-.6-3.21-1.7-22.39-1.17-27.75,1.65-48.8,2.85-21.26-1.15-25.07-.65-38.08.3-7.7,2.64-15.58,3.27-23.92.79-10.46-.3-20.35-1.41-27.79-3.06-20.57-3.04-23.89-4.03-40.16-1.07-17.65,4.59-26.31,1.36-41.54.75.27,2.58.36,4.4.38,1.82.01,3.65-.11,4.4-.38-3.23,15.23,2.43,23.89,1.36,41.54-.99,16.27-.97,19.59-4.03,40.16-1.11,7.44-2.19,17.33-1.4,27.79.62,8.34,2.96,16.22,3.26,23.92.5,13.01-3.5,16.82-.64,38.08,2.82,21.05,3.35,26.41,1.64,48.8-.05.61-.33,1.77-.6,3.21-.36,1.91-1.03,4.32-.8,6.6.25,2.47.73,4.52.8,6.28.14,3.56-.05,5.88-.42,7.96-1.83,10.27-1.91,19.25,4.44,20.33,7.71,1.32,27.42,1.69,28.35-4.17.84-5.29-6.26-9.08-11.72-23.57-1.62-4.28-.55-6.12.08-8.04,1.21-3.69-.99-4.91-.81-7.83.71-11.7,7.73-21.6,14.43-43.89,3.62-12.05,5.84-25.2,2.8-40.42-1.57-7.82-3.33-11.87-2.57-24.79.59-10.01,5.13-27.03,13.16-55.42,3.61-12.77,13.28-39.51,14.59-52.03.52-5.05.72-9.69.68-13.96v-.15c-.22-20.21-5.99-32.26-9.75-41.37-.02-.05-.04-.1-.06-.15-6.14-12.71-9.09-15.49-13.93-22.86-2.36-6.47-4.92-12.55-5.98-18.65,0,0,0,0,0,0-2.43-14.69-2.21-33.52-.99-42.68.13-.52.26-1.04.39-1.55.47,2.29,1.59,7.74,2.05,9.6,2.9,11.66,7.37,25.42,9.13,34.34.02.1.04.19.06.29.18.94.34,1.85.46,2.68.26,1.85,1.31,16.98,7.52,34.36.35.98.7,1.94,1.05,2.89.21.56.4,1.09.59,1.6,5.3,14.19,7.46,19.11,11.23,27.09,2.72,5.77,4.66,10.4,5.03,14.14,0,.1.02.19.03.29,0,.08.02.18.03.26.01,1.68-1.59,5.07-2.19,7.23-.36,1.3-.5,2.56-.54,3.81,0,.02,0,.04,0,.06-.02.68-.01,1.37.01,2.05,0,.01,0,.03,0,.04.06,1.49.2,2.99.26,4.55.03.65.04,1.32.03,1.99,0,0,0,.02,0,.03,0,.33-.02.66-.05.99h0c-.16,2.4-.7,4.97-2.12,7.88-.04.08-.05.15-.04.21,0,.02,0,.04,0,.06-.15.82,2.51.86,4.13-.93,2.14-2.37,2.76-8.84,2.83-7.64.44,7.89,1.73,9.71,2.53,16.17.02.19.04.38.06.56.01.13.03.26.03.39.01.16.02.31.02.47.01.29.02.57.02.85,0,.02,0,.03,0,.05-.03,1.69-.28,3.03-.36,4.16-.02.18-.03.35-.03.51,0,.02,0,.05,0,.07,0,0,0,.01,0,.02-.02.82.08,1.52.5,2.14.98,1.46,1.32,1.33,3.74-1.26,1.7-1.82,2.78-3.52,3.88-4.88,2.12-2.64,3.27-5.24,3.47-10.69.02-.53.02-1.04.02-1.54,0-.01,0-.03,0-.04,0-.08,0-.15,0-.22,0-.2,0-.4-.02-.6Z"/>
  </g>
</svg>