<?xml version="1.0" encoding="UTF-8"?>
<svg id="_레이어_2" data-name="레이어 2" xmlns="http://www.w3.org/2000/svg" viewBox="0 0 181.09 572.08">
  <defs>
    <style>
      .cls-1 {
        fill: #f2a7a9;
        stroke: #221714;
        stroke-miterlimit: 10;
      }
    </style>
  </defs>
  <g id="_레이어_1-2" data-name="레이어 1">
    <path class="cls-1" d="m176.81,303.63c-.08-.54-.16-1.11-.24-1.73-.24-1.82-.31-3.13-.37-4.25-.07-.57-.07-1.12-.07-1.37,0-.01,0-.02,0-.03v-.05c0-.55,0-.99-.05-1.42-.35-3.06-1.84-4.02-2.65-9.76-1.54-10.79-2.57-18.84-4-30.04-.01-.1-.02-.2-.04-.3-.29-2.29-.6-4.71-.94-7.33-1.19-9.32-5.16-21.02-9.35-33.89-.04-.1-.07-.2-.1-.3-.24-.74-.48-1.48-.73-2.23-.43-1.33-1.34-11.48-1.7-16.81-.43-6.67-4.54-67.76-7.36-76.98-2.1-6.87-4.14-9.63-6.09-10.54h0s-1.59-.9-2.55-1.31c-.74-.31-1.54-.58-2.37-.83l-30.01-13.79h0c-.23-.45-.46-.94-.67-1.45-.77-1.86-1.22-5.99-1.49-10.05-.12-1.85-.2-3.68-.26-5.29,2.54-2.35,4.5-5.38,5.73-10.41.22-.85.46-1.86.7-2.94.01-.06.03-.12.04-.18.35.12.66.16.95.14,1.29-.12,2-1.57,2.47-2.88.05-.15.1-.29.15-.43.18-.56.33-1.06.46-1.37.57-1.36,1.33-1.49,2.08-4.5.12-.5.16-.96.16-1.38,0-.41-.05-.8-.11-1.16,0,0,0-.02,0-.03-.01-.07-.02-.14-.03-.22-.1-.65-.19-1.24-.02-1.82.06-.22.11-.53.14-.9.08-1.1-.06-2.63-.89-3.26-.05-.04-.12-.07-.18-.1-.08-.03-.16-.06-.25-.08.6-2.27,1.11-5.07,1.37-8.08.45-5.3.09-11.27-2.1-16.27-1.49-3.39-3.32-6.12-5.26-8.29-3.71-4.53-9.38-7.78-15.94-8.85-1.46-.24-2.96-.36-4.5-.37-.06,0-.12,0-.18,0h-.01c-8.23,0-15.53,3.41-20.13,8.65-.17.19-.33.37-.49.57-.08.09-.15.18-.23.27-1.61,1.85-3.14,4.09-4.45,6.78-.2.4-.39.82-.57,1.24-2.19,5-2.55,10.97-2.1,16.27.26,3.01.77,5.81,1.37,8.08-.14.04-.28.09-.39.16-.01,0-.03.01-.04.02-.02.01-.03.03-.04.05-.88.73-.94,2.52-.8,3.59.03.2.06.39.1.52.17.62.06,1.25-.05,1.96,0,.03,0,.05-.01.08,0,0,0,.02,0,.03-.05.36-.1.75-.11,1.16,0,.43.03.88.16,1.38.75,3.01,1.51,3.14,2.08,4.5.52,1.24,1.24,5.52,4.02,4.54.25,1.15.51,2.22.74,3.12,1.23,5.03,3.19,8.06,5.73,10.41-.01.32-.02.65-.04.99-.17,4.39-.54,10.05-1.32,13.13-.12.47-.25.89-.39,1.22-.17.4-.34.79-.52,1.16-.05.1-.1.19-.15.29l-30.01,13.79c-.83.25-1.63.51-2.37.83-.96.41-2.55,1.3-2.55,1.3h0c-1.95.92-3.99,3.68-6.09,10.55-2.82,9.22-6.93,70.31-7.36,76.98-.36,5.33-1.27,15.48-1.7,16.81-.25.75-.49,1.49-.73,2.23-.03.1-.06.2-.1.3-4.19,12.87-8.16,24.57-9.35,33.89-.34,2.62-.65,5.04-.94,7.33-.02.1-.03.2-.04.3-1.43,11.2-2.46,19.25-4,30.04-.81,5.74-2.3,6.7-2.65,9.76-.05.43-.05.87-.05,1.42v.3c0,.94-.03,2.22-.29,4.27-.93,7.4-1.63,8.87-2.27,11.5-1.28,5.27-1.87,8.32-1.9,11.78,0,.49,0,1,.02,1.51.19,5.45,1.34,8.05,3.46,10.69,1.1,1.36,2.18,3.06,3.88,4.88,2.42,2.6,2.76,2.73,3.74,1.27.41-.6.52-1.27.51-2.06,0-1.24-.36-2.77-.4-4.78,0-.73.02-1.51.13-2.37.8-6.46,2.09-8.28,2.53-16.17.07-1.2.69,5.27,2.83,7.64,1.6,1.78,4.25,1.76,4.13.95,0-.07,0-.14-.04-.21-1.87-3.86-2.22-7.12-2.17-10.14.04-2.18.29-4.24.32-6.29.03-1.64-.09-3.27-.55-4.98-.6-2.17-2.24-5.61-2.2-7.28,0-.03,0-.07.01-.1,0-.11.02-.23.03-.34.33-3.77,2.28-8.43,5.04-14.28,1.28-2.72,2.37-5.1,3.45-7.6,1.86-4.22,3.72-8.83,6.49-16.15.39-1.02.79-2.06,1.23-3.19.04-.1.07-.19.11-.3.34-.92.71-1.88,1.08-2.89,6.66-17.98,7.77-33.9,8.03-35.8.11-.78.26-1.63.43-2.52.02-.1.04-.2.06-.3.88-4.45,2.43-10.14,4.13-16.17,1.71-6.05,3.56-12.44,5.02-18.31.4-1.59,1.29-5.89,1.81-8.44.13-.32.24-.59.33-.77,2.35,11.03,4.46,30.79,1.94,43.92-.97,5.05-3.91,10.1-6.87,15.93-.46.73-.93,1.47-1.43,2.24-5.03,7.75-7.97,10.36-14.25,23.35l-.06.15c-3.76,9.11-9.52,21.16-9.75,41.37v.15c-.04,4.27.16,8.91.69,13.96,1.31,12.52,10.98,39.26,14.59,52.03,8.02,28.39,12.56,45.41,13.15,55.42.77,12.92-.99,16.97-2.56,24.79-3.05,15.22-.82,28.37,2.8,40.42,6.69,22.29,13.71,32.19,14.43,43.89.17,2.92-2.02,4.14-.81,7.83.63,1.92,1.69,3.76.08,8.04-5.46,14.49-12.57,18.28-11.73,23.57.93,5.86,20.64,5.49,28.36,4.17,6.35-1.08,6.26-10.06,4.43-20.33-.37-2.08-.56-4.4-.42-7.96.08-1.76.55-3.81.8-6.28.23-2.28-.43-4.69-.8-6.6-.27-1.44-.55-2.6-.6-3.21-1.7-22.39-1.17-27.75,1.65-48.8,2.85-21.26-1.15-25.07-.65-38.08.3-7.7,2.64-15.58,3.27-23.92.79-10.46-.3-20.35-1.41-27.79-3.06-20.57-3.04-23.89-4.03-40.16-1.07-17.65,4.59-26.31,1.36-41.54.75.27,2.58.36,4.4.38,1.82.01,3.65-.11,4.4-.38-3.23,15.23,2.43,23.89,1.36,41.54-.99,16.27-.97,19.59-4.03,40.16-1.11,7.44-2.19,17.33-1.4,27.79.62,8.34,2.96,16.22,3.26,23.92.5,13.01-3.5,16.82-.64,38.08,2.82,21.05,3.35,26.41,1.64,48.8-.05.61-.33,1.77-.6,3.21-.36,1.91-1.03,4.32-.8,6.6.25,2.47.73,4.52.8,6.28.14,3.56-.05,5.88-.42,7.96-1.83,10.27-1.91,19.25,4.44,20.33,7.71,1.32,27.42,1.69,28.35-4.17.84-5.29-6.26-9.08-11.72-23.57-1.62-4.28-.55-6.12.08-8.04,1.21-3.69-.99-4.91-.81-7.83.71-11.7,7.73-21.6,14.43-43.89,3.62-12.05,5.84-25.2,2.8-40.42-1.57-7.82-3.33-11.87-2.57-24.79.59-10.01,5.13-27.03,13.16-55.42,3.61-12.77,13.28-39.51,14.59-52.03.52-5.05.72-9.69.68-13.96v-.15c-.22-20.21-5.99-32.26-9.75-41.37-.02-.05-.04-.1-.06-.15-6.27-12.99-9.22-15.6-14.25-23.35-1.03-1.59-1.98-3.09-2.86-4.55-2.42-4.81-4.59-9.21-5.44-13.61,0,0,0,0,0,0-2.37-12.81-.61-31.72,1.65-42.76.13-.52.26-1.04.4-1.55.46,2.29,1.59,7.75,2.05,9.6,2.91,11.69,7.39,25.49,9.14,34.41.02.1.04.2.06.3.18.92.33,1.8.44,2.6.26,1.88,1.34,17.4,7.78,35.08.36,1,.72,1.95,1.07,2.89.12.33.23.64.35.95,5.28,14.14,7.44,19.05,11.2,27.01,2.74,5.81,4.68,10.46,5.03,14.21,0,.1.02.2.03.29,0,.07.02.14.02.21.04,1.66-1.59,5.11-2.2,7.28-.36,1.3-.5,2.56-.54,3.81-.1,2.84.38,5.63.31,8.72-.07,2.66-.55,5.55-2.16,8.88-.04.08-.05.15-.04.21-.12.81,2.53.83,4.13-.95,2.14-2.37,2.76-8.84,2.83-7.64.44,7.89,1.73,9.71,2.53,16.17.11.86.14,1.65.13,2.37-.03,1.99-.38,3.51-.4,4.75-.02.8.09,1.48.51,2.08.98,1.46,1.32,1.33,3.74-1.27,1.7-1.82,2.78-3.52,3.88-4.88,2.12-2.64,3.27-5.24,3.46-10.69.02-.52.02-1.02.02-1.51-.03-3.46-.62-6.52-1.9-11.78-.55-2.25-1.14-3.66-1.88-8.64Z"/>
  </g>
</svg>