<?xml version="1.0" encoding="UTF-8"?>
<svg id="_레이어_2" data-name="레이어 2" xmlns="http://www.w3.org/2000/svg" viewBox="0 0 181.09 571.71">
  <defs>
    <style>
      .cls-1 {
        fill: #f2a7a9;
        stroke: #221714;
        stroke-miterlimit: 10;
      }
    </style>
  </defs>
  <g id="_레이어_1-2" data-name="레이어 1">
    <path class="cls-1" d="m176.57,301.9c-.24-1.83-.31-3.13-.37-4.25-.07-.57-.07-1.12-.07-1.37,0-.55,0-.99-.05-1.42-.35-3.06-1.84-4.02-2.65-9.76-1.54-10.79-2.68-18.82-4-30.03-.01-.1-.02-.21-.04-.31-.29-2.29-.6-4.71-.94-7.33-1.19-9.32-5.16-21.01-9.35-33.88-.04-.1-.07-.21-.1-.31-.23-.74-.48-1.48-.73-2.23-.43-1.33-1.34-11.48-1.7-16.81-.43-6.67-4.54-67.76-7.36-76.98-2.1-6.87-4.14-9.63-6.09-10.54h0s.3,0,.3,0l-2.17-1c-.24-.12-.47-.23-.67-.31-.01,0-.02,0-.03-.01l-32.34-14.86v.18c-.23-.46-.46-.94-.67-1.45-1.12-2.7-1.57-10.21-1.75-15.34,2.54-2.35,4.48-5.38,5.73-10.41.22-.9.49-1.97.74-3.12,2.78.98,3.5-3.3,4.02-4.54.57-1.36,1.33-1.49,2.08-4.5.5-2-.37-3.32-.01-4.61.24-.87.35-3.32-.75-4.16-.12-.09-.27-.14-.43-.18,1.65-6.27,2.7-16.51-.73-24.35-1.49-3.39-3.32-6.12-5.26-8.29-4.56-5.57-12.1-9.22-20.62-9.22h-.01c-8.52,0-16.06,3.65-20.62,9.22-1.94,2.17-3.77,4.9-5.26,8.29-3.43,7.84-2.38,18.08-.73,24.35-.16.04-.31.09-.43.18-1.1.83-.99,3.29-.75,4.16.36,1.29-.51,2.61-.01,4.61.75,3.01,1.51,3.14,2.08,4.5.52,1.24,1.24,5.52,4.02,4.54.25,1.15.51,2.22.74,3.12,1.26,5.02,3.19,8.06,5.73,10.41-.18,5.13-.63,12.64-1.75,15.34-.21.51-.43.99-.67,1.45v-.18l-32.33,14.86s-.03,0-.04.02c-.21.09-.45.2-.7.33l-2.15.99h.29c-1.95.91-3.99,3.67-6.09,10.54-2.82,9.22-6.93,70.31-7.36,76.98-.36,5.33-1.26,15.48-1.7,16.81-.24.73-.48,1.44-.71,2.16-.03.1-.06.2-.1.3-4.2,12.9-8.18,24.63-9.37,33.96-.34,2.59-.64,4.99-.93,7.26-.02.1-.03.2-.04.3-1.31,11.26-2.47,19.3-4.01,30.11-.81,5.74-2.3,6.7-2.65,9.76-.05.43-.05.87-.05,1.42,0,.02,0,.27,0,.29,0,.94-.03,2.22-.29,4.28-.93,7.4-1.63,8.87-2.27,11.5-1.45,5.98-2.02,9.11-1.88,13.22.19,5.45,1.34,8.05,3.46,10.69,1.1,1.36,2.18,3.06,3.88,4.88,2.42,2.6,2.76,2.73,3.74,1.27,1.29-1.91-.35-4.5.24-9.21.8-6.46,2.09-8.28,2.53-16.17.07-1.2.69,5.27,2.83,7.64,1.69,1.88,4.55,1.75,4.09.81-4.31-8.9-.54-14.6-2.4-21.41-.61-2.19-2.26-5.65-2.2-7.31,0-.05,0-.1.02-.15.01-.11.03-.23.04-.34.33-3.77,2.28-8.43,5.04-14.28,3.75-7.95,5.79-12.91,11.17-26.94.04-.1.07-.19.11-.3.34-.92.71-1.88,1.08-2.89,6.66-17.98,7.77-33.9,8.03-35.8.11-.78.26-1.63.43-2.52.02-.1.04-.2.06-.3.88-4.45,2.43-10.14,4.13-16.17,1.71-6.05,3.56-12.44,5.02-18.31.4-1.59,1.29-5.89,1.81-8.44.13-.32.24-.59.33-.77,2.35,11.03,3.89,30.39-1.02,43.91,0,0,0,0,0,0-1.22,5.87-3.86,12.28-6.25,19.83-.76,2.4-1.42,4.61-2.02,6.63-3.61,9.85-5.17,14.54-5.34,14.98-3.48,9.08-8.49,21.18-8.66,41.38v.14c-.03,4.24.15,8.82.61,13.82,1.17,12.52,9.82,39.26,13.04,52.03,7.18,28.38,11.23,45.41,11.76,55.42.68,12.92-.89,16.97-2.29,24.79-2.73,15.22-.74,28.37,2.5,40.42,5.98,22.28,12.26,32.19,12.9,43.89.15,2.92-1.81,4.14-.73,7.83.57,1.92,1.52,3.76.07,8.04-4.88,14.49-11.22,18.28-10.47,23.57.83,5.86,18.44,5.49,25.34,4.17,5.67-1.08,5.6-10.06,3.96-20.34-.33-2.07-.5-4.4-.37-7.95.06-1.76.49-3.81.71-6.28.21-2.28-.39-4.69-.71-6.6-.24-1.45-.5-2.61-.54-3.21-1.52-22.39-1.05-27.75,1.47-48.8,2.55-21.26-1.02-25.08-.57-38.08.26-7.7,2.35-15.58,2.91-23.92.71-10.47-.26-20.35-1.25-27.79-2.74-20.57-2.72-23.89-3.61-40.16-.95-17.65,4.11-26.31,1.22-41.54.67.26,2.31.36,3.93.38,1.63.02,3.27-.12,3.94-.38-2.89,15.23,2.17,23.89,1.21,41.54-.88,16.27-.87,19.59-3.6,40.16-.99,7.44-1.96,17.32-1.26,27.79.56,8.34,2.65,16.22,2.92,23.92.45,13-3.12,16.82-.58,38.08,2.53,21.05,3.17,26.42,1.48,48.8-.05.6-.3,1.76-.54,3.21-.32,1.91-.93,4.32-.72,6.6.22,2.47.65,4.52.72,6.28.13,3.55-.04,5.88-.37,7.95-1.64,10.28-1.72,19.26,3.96,20.34,6.89,1.32,24.51,1.69,25.34-4.17.75-5.29-5.6-9.08-10.48-23.57-1.44-4.28-.48-6.12.08-8.04,1.08-3.69-.89-4.91-.73-7.83.64-11.7,6.91-21.61,12.9-43.89,3.24-12.05,5.22-25.2,2.5-40.42-1.4-7.82-2.97-11.87-2.29-24.79.52-10.01,4.58-27.04,11.76-55.42,3.22-12.77,11.87-39.51,13.04-52.03.46-5,.64-9.58.61-13.82v-.14c-.17-20.2-5.18-32.3-8.66-41.38-.18-.46-1.85-5.5-5.76-16.14-.48-1.58-.98-3.28-1.55-5.08-2.4-7.64-5.07-14.2-6.31-20.22,0,0,0,0,0,0-4.75-13.18-3.55-31.75-1.33-42.76.13-.52.26-1.04.39-1.54.46,2.29,1.59,7.75,2.05,9.6,2.91,11.69,7.39,25.49,9.14,34.41.02.1.04.2.06.3.18.92.33,1.8.44,2.6.26,1.88,1.34,17.4,7.77,35.08.36,1,.72,1.96,1.07,2.89.12.33.24.64.35.95,5.28,14.14,7.44,19.05,11.2,27.02,2.74,5.81,4.68,10.45,5.03,14.21,0,.1.02.2.03.29.01.07.03.15.03.22.08,1.64-1.59,5.14-2.2,7.34-1.86,6.81,1.91,12.51-2.4,21.41-.46.94,2.4,1.07,4.09-.81,2.14-2.37,2.76-8.84,2.83-7.64.44,7.89,1.73,9.71,2.53,16.17.59,4.71-1.05,7.3.24,9.21.98,1.46,1.32,1.33,3.74-1.27,1.7-1.82,2.78-3.52,3.88-4.88,2.12-2.64,3.27-5.24,3.46-10.69.14-4.11-.43-7.24-1.88-13.22-.6-2.48-1.26-3.92-2.12-10.45Z"/>
  </g>
</svg>