<?xml version="1.0" encoding="UTF-8"?>
<svg id="_레이어_2" data-name="레이어 2" xmlns="http://www.w3.org/2000/svg" viewBox="0 0 181.09 572.15">
  <defs>
    <style>
      .cls-1 {
        fill: #f2a7a9;
        stroke: #221714;
        stroke-miterlimit: 10;
      }
    </style>
  </defs>
  <g id="_레이어_1-2" data-name="레이어 1">
    <path class="cls-1" d="m176.42,300.84c-.26-2.06-.28-3.34-.29-4.28v-.29c0-.55,0-.99-.05-1.42-.35-3.06-1.84-4.02-2.65-9.76-1.54-10.82-2.69-18.86-4.01-30.11-.01-.1-.02-.2-.04-.3-.29-2.27-.59-4.67-.93-7.26-1.2-9.34-5.18-21.07-9.38-33.96-.04-.1-.07-.2-.1-.3-.23-.72-.47-1.43-.7-2.16-.43-1.33-1.34-11.48-1.7-16.81-.43-6.67-4.54-67.76-7.36-76.98-2.1-6.87-4.14-9.63-6.09-10.54h0s-1.59-.9-2.55-1.31c-.68-.29-1.41-.54-2.16-.77l-30.19-13.88c-.24-.48-.48-.97-.69-1.5-1.12-2.7-1.57-10.21-1.75-15.34,2.54-2.35,4.48-5.38,5.73-10.41.22-.9.49-1.97.74-3.12,2.78.98,3.5-3.3,4.02-4.54.57-1.36,1.33-1.49,2.08-4.5.5-2-.37-3.32-.01-4.61.24-.87.35-3.32-.75-4.16-.12-.09-.27-.14-.43-.18,1.65-6.27,2.7-16.51-.73-24.35-1.49-3.39-3.32-6.12-5.26-8.29-4.56-5.57-12.1-9.22-20.62-9.22h-.01c-8.52,0-16.06,3.65-20.62,9.22-1.94,2.17-3.77,4.9-5.26,8.29-3.43,7.84-2.38,18.08-.73,24.35-.16.04-.31.09-.43.18-1.1.84-.99,3.29-.75,4.16.36,1.29-.51,2.61-.01,4.61.75,3.01,1.51,3.14,2.08,4.5.52,1.24,1.24,5.52,4.02,4.54.25,1.15.51,2.22.74,3.12,1.26,5.02,3.19,8.06,5.73,10.41-.18,5.13-.63,12.64-1.75,15.34-.22.53-.45,1.02-.69,1.5l-30.18,13.87c-.76.23-1.48.48-2.16.77-.96.41-2.55,1.3-2.55,1.3h0c-1.95.92-3.99,3.68-6.09,10.55-2.82,9.22-6.93,70.31-7.36,76.98-.36,5.33-1.26,15.48-1.7,16.81-.25.75-.5,1.49-.73,2.23-.03.1-.06.21-.1.31-4.19,12.87-8.16,24.56-9.35,33.88-.34,2.62-.65,5.04-.94,7.33-.02.1-.03.21-.04.31-1.32,11.21-2.46,19.24-4,30.03-.81,5.74-2.3,6.7-2.65,9.76-.05.43-.05.87-.05,1.42,0,.24,0,.8-.07,1.37-.06,1.12-.12,2.43-.37,4.25-.86,6.53-1.52,7.97-2.12,10.45-1.45,5.98-2.02,9.11-1.88,13.22.19,5.45,1.34,8.05,3.46,10.69,1.1,1.36,2.18,3.06,3.88,4.88,2.42,2.6,2.76,2.73,3.74,1.27,1.29-1.91-.35-4.5.24-9.21.8-6.46,2.09-8.28,2.53-16.17.07-1.2.69,5.27,2.83,7.64,1.69,1.88,4.55,1.75,4.09.81-4.31-8.9-.54-14.6-2.4-21.41-.61-2.2-2.28-5.7-2.2-7.34,0-.07.02-.15.03-.22,0-.1.02-.2.03-.3.32-3.41,1.94-7.55,4.29-12.63-.6,3.88-1.01,8.14-1.04,12.85,0,.1,0,.19-.01.29-.02,4.28.17,8.91.73,13.97,1.37,12.52,11.56,39.26,15.36,52.03,8.45,28.38,13.23,45.41,13.85,55.42.81,12.92-1.05,16.97-2.7,24.79-3.21,15.21-.86,28.37,2.95,40.42,7.05,22.28,14.45,32.19,15.2,43.89.18,2.91-2.14,4.14-.86,7.83.67,1.92,1.79,3.76.09,8.04-5.75,14.48-13.23,18.28-12.35,23.57.98,5.86,21.74,5.49,29.86,4.17,6.69-1.09,6.6-10.06,4.67-20.34-.39-2.07-.59-4.4-.44-7.96.08-1.75.57-3.8.84-6.28.24-2.28-.46-4.68-.84-6.59-.29-1.45-.58-2.61-.63-3.21-1.8-22.39-1.24-27.76,1.73-48.8,3-21.26-1.21-25.08-.68-38.08.32-7.7,2.78-15.58,3.44-23.92.83-10.47-.31-20.35-1.48-27.79-3.22-20.57-3.2-23.89-4.25-40.16-1.12-17.66,4.84-26.31,1.44-41.54.78.26,2.72.35,4.63.37,1.91.02,3.85-.11,4.63-.37-3.4,15.23,2.56,23.88,1.44,41.54-1.05,16.27-1.03,19.59-4.25,40.16-1.17,7.44-2.31,17.32-1.48,27.79.66,8.34,3.12,16.22,3.44,23.92.53,13-3.68,16.82-.68,38.08,2.97,21.04,3.53,26.41,1.73,48.8-.05.6-.34,1.76-.63,3.21-.38,1.91-1.09,4.31-.84,6.59.26,2.48.76,4.53.84,6.28.15,3.56-.05,5.89-.44,7.96-1.93,10.28-2.02,19.25,4.67,20.34,8.12,1.32,28.88,1.69,29.86-4.17.88-5.29-6.6-9.09-12.35-23.57-1.7-4.28-.58-6.12.09-8.04,1.27-3.69-1.04-4.92-.86-7.83.75-11.7,8.15-21.61,15.2-43.89,3.81-12.05,6.16-25.21,2.95-40.42-1.65-7.82-3.51-11.87-2.7-24.79.62-10.01,5.4-27.04,13.85-55.42,3.8-12.77,13.99-39.51,15.36-52.03.56-5.06.75-9.69.73-13.97,0-.1,0-.19-.01-.29-.03-4.7-.44-8.94-1.03-12.81,2.35,5.1,3.99,9.25,4.28,12.67,0,.11.02.23.03.34,0,.05.02.1.02.15.06,1.65-1.59,5.12-2.2,7.31-1.86,6.81,1.91,12.51-2.4,21.41-.46.94,2.4,1.07,4.09-.81,2.14-2.37,2.76-8.84,2.83-7.64.44,7.89,1.73,9.71,2.53,16.17.59,4.71-1.05,7.3.24,9.21.98,1.46,1.32,1.33,3.74-1.27,1.7-1.82,2.78-3.52,3.88-4.88,2.12-2.64,3.27-5.24,3.46-10.69.14-4.11-.43-7.24-1.88-13.22-.64-2.63-1.34-4.1-2.27-11.5Zm-123.31-90.06c-.51,1.33-1.12,2.59-1.81,3.79-.02.05-.03.1-.04.15-1.23,3.02-2.43,5.82-3.79,8.73-.71,1.19-1.47,2.41-2.29,3.7-1.11,1.75-2.26,3.52-3.49,5.4-1.31,1.99-2.37,3.7-3.25,5.22,2.83-11.31,3.5-19.94,3.71-21.59.02-.16.04-.3.06-.43.1-.69.23-1.44.38-2.2.02-.11.04-.21.06-.32.88-4.46,2.43-10.15,4.13-16.19,1.71-6.04,3.56-12.43,5.02-18.29.46-1.85,1.59-7.31,2.05-9.6.13.48.25.96.38,1.45.76,4.05,1.34,9.5,1.62,15.46.1,2.09.17,4.22.16,6.37-.04,6.39-.77,12.84-2.9,18.34Zm85.48,20.53c-3.72-5.68-6.02-9.48-8.41-14.07-.16-1.21-.33-2.5-.52-3.79-7.13-12.95-4.86-32.89-2.51-43.92.38,1.59,1.25,5.55,1.63,6.81,2.31,9.36,5.79,21.14,7.38,28.26.67,3.02,1.89,6.54,2.33,8.85.18.92.33,1.8.44,2.6.19,1.38.82,10.14,3.72,21.69-1.06-1.8-2.34-3.84-4.05-6.43Z"/>
  </g>
</svg>