<?xml version="1.0" encoding="UTF-8"?>
<svg id="_레이어_2" data-name="레이어 2" xmlns="http://www.w3.org/2000/svg" viewBox="0 0 192.36 572.01">
  <defs>
    <style>
      .cls-1 {
        fill: #f3a9aa;
        stroke: #231815;
        stroke-miterlimit: 10;
      }
    </style>
  </defs>
  <g id="_레이어_1-2" data-name="레이어 1">
    <path class="cls-1" d="m55.58,180.29c-.23.76-1,3.89-1.21,4.36-1.23,2.72-2.94,6.75-4.46,11.69-.13.21-.25.41-.38.61-.66,2.53-1.42,5.72-1.88,7.79-.01.05-.02.1-.03.15-.21.96-.39,1.9-.57,2.77-.41,2.01-1.12,7.12-2.63,13.81-1.03,4.57-2.35,9.55-3.76,14.52-.24.83-.46,1.66-.7,2.47-.5,1.69-1.09,3.9-1.9,6.45-.33,1.03-.67,2.04-1.01,3.05-.02.05-.03.1-.05.15-3.25,9.07-5.48,15.31-8.22,21.44-.38.86-.77,1.7-1.16,2.54-.69,1.51-1.39,3-2.12,4.53-2.95,6.23-5.02,10.86-5.8,14.8-.01.05-.02.1-.03.15-.02.1-.05.2-.06.29-.25,1.24.12,3.1.41,4.92.15.93.29,1.83.34,2.61.24,3.81-.59,7.19-.78,10.66,0,.13-.02.26-.02.39-.08,1.94.44,4.43,1.09,6.76.39,1.4.85,2.81,1.35,4.31.4,1.19-1.95,1.75-3.34.9-1.7-1.05-1.94-5.06-1.68-3.14.21,1.55-.82,2.7-1.41,3.19-.87,1.58-1.49,1.42-1.87,3.52-.26,1.47-.48,2.93-.71,4.59-.63,4.54.51,7.07-.73,9.67-.83,1.74-.86,1.84-2.94.54-.49-.31-1-.54-1.59-.84-.82-.42-1.43-1.07-2.37-2.09-.25-.27-.5-.56-.75-.86-1.28-1.53-2.12-3.1-2.83-4.96-.53-1.38-.95-2.91-1.15-4.84-.18-1.75-.19-3.44-.03-5.37.2-2.45.71-4.93,1.57-8.35.29-1.15.6-2.17.95-3.5.48-1.84,1.01-3.91,1.63-8.4.1-.76.18-1.46.24-2.11.1-1.05.12-1.83.13-2.47,0-.02,0-.15,0-.16,0-.58.01-1.04.05-1.47.04-.46.1-.86.18-1.25.54-2.44,1.87-3.73,2.65-8.87,1.64-10.85,2.73-18.92,4.28-30.22,0-.05.01-.1.02-.15.31-2.29.64-4.69,1-7.29,1.27-9.36,5.53-21.13,10.01-34.08.01-.05.03-.1.05-.15.26-.73.5-1.46.76-2.19.46-1.33,1.43-11.48,1.81-16.82.46-6.66,4.83-67.75,7.83-76.97,2.23-6.87,4.4-9.63,6.47-10.54v-.02s1.69-.88,2.71-1.29c2.89-1.15,6.49-1.76,10.29-2.44,3.66-.66,9.94-1.41,13.54-2.8,5.33-2.05,9.73-4.61,12.37-11.01,1.12-2.7,1.57-10.21,1.75-15.34-2.54-2.35-4.5-5.38-5.74-10.41-.22-.9-.48-1.97-.73-3.12-2.78.98-3.51-3.3-4.02-4.54-.57-1.36-1.32-1.49-2.08-4.5-.5-2,.37-3.32.01-4.61-.24-.87-.35-3.32.75-4.16.12-.09.27-.14.43-.18-1.65-6.27-2.7-16.51.73-24.35,1.49-3.39,3.32-6.12,5.25-8.29,4.57-5.57,12.1-9.22,20.63-9.22s16.06,3.65,20.63,9.22c1.93,2.17,3.76,4.9,5.25,8.29,3.43,7.84,2.38,18.08.73,24.35.16.04.31.09.43.18,1.1.83.99,3.29.75,4.16-.36,1.29.51,2.61,0,4.61-.76,3.01-1.51,3.14-2.08,4.5-.51,1.24-1.24,5.52-4.02,4.54-.25,1.15-.51,2.22-.73,3.12-1.24,5.03-3.2,8.06-5.74,10.41.18,5.13.63,12.64,1.75,15.34,2.64,6.4,7.04,8.96,12.37,11.01,3.41,1.32,9.21,2.05,12.94,2.69.28.05.55.1.8.14,3.73.66,7.25,1.28,10.09,2.41,1.02.41,2.71,1.29,2.71,1.29v.02c2.07.91,4.24,3.67,6.47,10.54,3,9.22,7.37,70.31,7.83,76.97.38,5.34,1.35,15.49,1.81,16.82.26.75.51,1.49.77,2.23.02.05.04.1.05.16,4.48,12.93,8.73,24.68,10,34.03.36,2.62.69,5.03,1,7.33,0,.05.02.1.02.15,1.54,11.28,2.63,19.34,4.27,30.18.87,5.74,2.42,6.71,2.82,9.76.06.43.06.87.06,1.42,0,.24,0,.69.08,1.26.06,1.16.13,2.48.39,4.4.91,6.5,1.61,7.94,2.25,10.42,1.54,5.98,2.15,9.11,2,13.22-.2,5.45-1.42,8.05-3.69,10.69-1.16,1.36-2.31,3.06-4.12,4.88-2.57,2.6-2.93,2.73-3.98,1.27-1.37-1.91.38-4.51-.25-9.22-.85-6.45-2.24-8.27-2.69-16.17-.07-1.19-.74,5.28-3.01,7.65-1.8,1.88-4.83,1.75-4.34.81,4.6-8.89.56-14.6,2.55-21.41.64-2.2,2.42-5.7,2.33-7.35,0-.1-.02-.22-.03-.33,0-.05,0-.09-.02-.14-.34-3.77-2.43-8.43-5.36-14.25-4-7.99-6.3-12.91-11.95-27.13-.11-.27-.22-.55-.33-.84-.37-.93-.75-1.9-1.13-2.89-6.87-17.67-7.99-33.2-8.27-35.08-.12-.84-.29-1.76-.49-2.71,0-.05-.02-.1-.03-.14-.93-4.46-2.59-10.16-4.41-16.2-1.81-6.03-3.78-12.41-5.33-18.26-.49-1.85-1.69-7.32-2.18-9.6-.14.5-.28,1.02-.43,1.55-2.61,11.27-7.23,33.16-4.82,42.64,0,0,0,0,0,0,1.03,5.64,3.16,11.93,5.76,19.35,2.28,6.5,3.6,11.88,4.51,15.71.76,3.18,1.08,5.04,1.09,5.45.11.47.23.96.34,1.44.02.05.02.11.04.16.22.97.46,1.91.71,2.84,2.86,8.69,6.48,20.13,6.57,37.88,0,.1,0,.19.01.29.01,4.28-.13,8.91-.54,13.96-1.03,12.52-8.65,39.26-11.49,52.03-6.33,28.39-9.9,45.42-10.37,55.42-.6,12.93.79,16.97,2.03,24.8,2.39,15.21.64,28.36-2.21,40.42-5.27,22.28-10.83,32.19-11.37,43.88-.14,2.92,1.59,4.14.64,7.83-.49,1.93-1.33,3.77-.06,8.05,4.3,14.48,9.89,18.27,9.23,23.56-.73,5.86-16.25,5.5-22.33,4.18-5-1.09-4.93-10.06-3.49-20.34.29-2.08.44-4.4.33-7.96-.06-1.76-.43-3.81-.63-6.28-.18-2.28.35-4.69.63-6.6.21-1.44.43-2.6.47-3.21,1.4-22.38.93-27.75-1.3-48.79-2.24-21.27.91-25.08.51-38.08-.23-7.71-2.07-15.58-2.57-23.93-.62-10.46.24-20.35,1.11-27.79,2.41-20.57,2.39-23.89,3.17-40.15.85-17.66-3.61-26.32-1.07-41.55-.59.27-2.03.38-3.46.38-1.44,0-2.88-.11-3.47-.38,2.54,15.23-1.92,23.89-1.07,41.55.78,16.26.76,19.58,3.17,40.15.88,7.44,1.73,17.33,1.11,27.79-.49,8.35-2.34,16.22-2.57,23.93-.4,13,2.75,16.81.51,38.08-2.22,21.04-2.7,26.41-1.3,48.79.04.61.26,1.77.48,3.21.29,1.91.8,4.32.62,6.6-.2,2.47-.57,4.52-.62,6.28-.11,3.56.03,5.88.32,7.96,1.45,10.28,1.51,19.25-3.49,20.34-6.07,1.32-21.6,1.68-22.33-4.18-.66-5.29,4.93-9.08,9.23-23.56,1.28-4.28.44-6.12-.06-8.05-.95-3.69.78-4.91.64-7.83-.56-11.69-6.09-21.6-11.37-43.88-2.85-12.06-4.6-25.21-2.2-40.42,1.19-7.6,2.54-11.61,2.05-23.73-.06-1.48-.18-3.12-.36-4.92-1-9.85-4.16-25.05-9.28-48.16-.94-4.25-2.3-9.74-3.76-15.69-2.78-11.25-6.31-25.09-7.41-34.08-.58-4.76-.87-9.2-1.04-13.3,0-.1,0-.19,0-.29-.2-4.8-.1-9.13.21-12.93.48-6.12,1.35-11.34,2.35-15.91.03-.12.06-.24.08-.36.88-3.89,1.82-7.3,2.65-10.39,0,0,0,0,0,0,.02-.05.03-.1.04-.15.12-.47.25-.93.37-1.38.17-1.78,1.62-8.82,6.4-20.19,1.24-2.95,2.36-5.67,3.36-8.2,0,0,0,0,0,0,1.23-3.37,2.15-6.77,2.63-10.25,1.8-7.74-4.14-30.15-6.45-42.57Z"/>
  </g>
</svg>