<?xml version="1.0" encoding="UTF-8"?>
<svg id="_레이어_2" data-name="레이어 2" xmlns="http://www.w3.org/2000/svg" viewBox="0 0 192.46 571.86">
  <defs>
    <style>
      .cls-1 {
        fill: #f3a9aa;
        stroke: #231815;
        stroke-miterlimit: 10;
      }
    </style>
  </defs>
  <g id="_레이어_1-2" data-name="레이어 1">
    <path class="cls-1" d="m43.05,105.47c-1.02.41-2.71,1.29-2.71,1.29v.02c-2.07.91-4.24,3.67-6.47,10.54-3,9.22-7.37,70.31-7.83,76.97-.38,5.34-1.35,15.49-1.81,16.82-.26.75-.5,1.49-.77,2.23-.02.05-.04.1-.05.16-4.48,12.93-8.73,24.68-10,34.03-.36,2.62-.69,5.03-1,7.33,0,.05-.02.1-.02.15-1.54,11.28-2.63,19.34-4.27,30.18-.87,5.74-2.42,6.71-2.82,9.76-.06.43-.06.87-.06,1.42,0,.24,0,.69-.07,1.26-.06,1.16-.13,2.48-.39,4.4-.91,6.5-1.61,7.94-2.25,10.42-1.54,5.98-2.15,9.11-2,13.22.2,5.45,1.42,8.05,3.69,10.69,1.16,1.36,2.31,3.06,4.12,4.88,2.57,2.6,2.93,2.73,3.98,1.27,1.37-1.91-.38-4.51.25-9.22.85-6.45,2.24-8.27,2.69-16.17.07-1.19.74,5.28,3.01,7.65,1.8,1.88,4.83,1.75,4.34.81-4.6-8.89-.56-14.6-2.55-21.41-.64-2.2-2.42-5.7-2.33-7.35,0-.1.02-.22.03-.33,0-.05,0-.09.02-.14.34-3.77,2.43-8.43,5.36-14.25,4-7.99,6.3-12.91,11.94-27.13.09-.23.23-.59.33-.84.37-.93.75-1.9,1.14-2.89,6.87-17.67,7.99-33.2,8.27-35.08.12-.84.29-1.76.49-2.71,0-.05.02-.1.03-.14.93-4.47,2.59-10.16,4.41-16.21,1.81-6.03,3.78-12.4,5.32-18.25.49-1.85,1.69-7.32,2.18-9.6.14.5.28,1.02.43,1.55,2.61,11.27,7.23,33.16,4.82,42.64,0,0-.02,0-.02,0-1.07,5.92-3.7,12.03-7.08,18.88-3.7,7.49-5.76,11.8-7.34,15.57-.46,1.03-.82,1.86-1.12,2.48-.22.49-.43,1-.65,1.52,0,0,0,0,0,0-.04.09-.08.19-.12.28-.45,1.07-.9,2.22-1.39,3.49-.04.1-.08.2-.12.29-3.25,8.51-7.63,19.71-8.23,37.48,0,.1,0,.19-.01.29,0,.04,0,.11,0,.15-.03,1.01-.05,2.04-.05,3.1,0,.1,0,.19,0,.28,0,.01,0,.14,0,.15,0,3.26.12,6.74.4,10.45.08,1.07.18,2.17.31,3.31,1.4,12.75,9.78,38.7,12.94,51.22,7.18,28.39,11.23,45.41,11.76,55.42.68,12.93-.89,16.97-2.29,24.8-2.73,15.21-.74,28.36,2.5,40.42,5.98,22.28,12.26,32.19,12.9,43.88.15,2.92-1.81,4.14-.73,7.83.57,1.93,1.52,3.77.07,8.05-4.88,14.48-11.22,18.27-10.47,23.56.83,5.86,18.44,5.5,25.34,4.18,5.67-1.09,5.6-10.06,3.96-20.34-.33-2.08-.5-4.4-.37-7.96.06-1.76.49-3.81.71-6.28.21-2.28-.39-4.69-.71-6.6-.24-1.44-.5-2.6-.54-3.21-1.52-22.38-1.05-27.75,1.47-48.79,2.55-21.27-1.02-25.08-.57-38.08.26-7.71,2.35-15.58,2.91-23.93.71-10.46-.26-20.35-1.25-27.79-2.74-20.57-2.72-23.89-3.61-40.15-.95-17.66,4.11-26.32,1.22-41.55.67.27,2.31.37,3.93.38,1.63,0,3.27-.11,3.94-.38-2.89,15.23,2.17,23.89,1.21,41.55-.88,16.26-.87,19.58-3.6,40.15-.99,7.44-1.96,17.33-1.26,27.79.56,8.35,2.65,16.22,2.92,23.93.45,13-3.12,16.81-.58,38.08,2.53,21.04,3.15,26.42,1.48,48.79-.05.61-.3,1.77-.54,3.21-.32,1.91-.93,4.32-.72,6.6.22,2.47.65,4.52.72,6.28.13,3.56-.04,5.88-.37,7.96-1.64,10.28-1.72,19.25,3.96,20.34,6.89,1.32,24.51,1.68,25.34-4.18.75-5.29-5.6-9.08-10.48-23.56-1.44-4.28-.49-6.12.08-8.05,1.08-3.69-.89-4.91-.73-7.83.64-11.69,6.91-21.6,12.9-43.88,3.24-12.06,5.22-25.21,2.5-40.42-1.4-7.83-2.97-11.87-2.29-24.8.52-10.01,4.58-27.03,11.76-55.42,3.22-12.77,11.87-39.51,13.04-52.03.46-4.99.64-9.58.61-13.81v-.15c0-.1,0-.19-.01-.29-.11-20.01-5.18-32.06-8.65-41.08-.04-.1-.08-.2-.12-.3,0,0,0,0,0,0-.2-.54-.38-1.05-.58-1.55-.27-.68-.59-1.54-.99-2.56-1.9-5.22-4-9.56-8.83-19.27-2.67-5.4-4.82-10.35-6.19-15.07-.37-1.28-.68-2.54-.91-3.79-2.22-8.71,1.39-27.41,4.1-38.75.15-.53.29-1.05.44-1.56.35-.81.71-1.43,1.05-1.95.33,1.53.85,3.88,1.28,5.74.35,1.5.69,2.9.94,3.82,2.82,10.48,6.87,22.48,8.92,31.08.27,1.11.5,2.18.7,3.17,0,.05.02.09.03.14.16.81.31,1.72.44,2.67.37,2.77,1.66,17.08,7.84,33.49.3.79.6,1.58.91,2.35.4,1,.78,1.96,1.15,2.88,0,0,.05.13.06.14,5.02,12.62,7.36,17.75,10.8,24.68.37.75.75,1.5,1.13,2.28,2.36,4.75,4.14,8.71,4.8,12.03.03.15.06.31.09.46.1.58.14,1.17.13,1.77,0,.05,0,.1,0,.15,0,.1,0,.19,0,.28-.09,1.33-1.03,3.51-1.71,5.35-.26.7-.48,1.37-.63,1.98-1.6,6.3,1.68,11.71-1.89,19.72-.22.5-.24.96-.25,1.35-.02.54,1.59.62,3.06-.26.43-.26.85-.6,1.21-1.04,1.51-1.84,2.22-5.43,2.53-6.52.17-.6.25-.88.28-.46.45,7.23,1.7,9.27,2.54,14.93.06.39.11.78.15,1.18.46,3.98-.76,6.41-.1,8.22.12.33.28.63.48.89.89,1.13,1.34,1.01,3.34-.97.2-.2.42-.42.64-.65,1.52-1.56,2.57-3.02,3.58-4.25.17-.21.34-.42.51-.62,2.12-2.51,3.29-5.04,3.54-10.07.01-.21.02-.41.03-.63.13-3.97-.46-7.05-1.92-12.75-.04-.14-.07-.27-.11-.41-.68-2.58-1.42-4.1-2.4-11.41-.28-2.19-.3-3.49-.3-4.46,0-.01,0-.14,0-.15,0-.49,0-.89-.05-1.28,0-.04-.01-.08-.02-.12-.4-3.03-1.95-4.01-2.82-9.73-1.64-10.85-2.73-18.92-4.28-30.22,0-.05-.01-.1-.02-.15-.31-2.29-.64-4.69-1-7.29-1.27-9.36-5.53-21.13-10.01-34.08-.01-.05-.03-.1-.05-.15-.26-.73-.5-1.46-.76-2.19-.46-1.33-1.43-11.48-1.81-16.82-.46-6.66-4.83-67.75-7.83-76.97-2.23-6.87-4.4-9.63-6.47-10.54v-.02s-1.69-.88-2.71-1.29c-2.89-1.15-6.48-1.76-10.29-2.44-3.66-.65-9.94-1.41-13.54-2.8-5.33-2.05-9.73-4.61-12.37-11.01-1.12-2.7-1.57-10.21-1.75-15.34,2.54-2.35,4.5-5.38,5.74-10.41.22-.9.48-1.97.73-3.12,2.78.98,3.5-3.3,4.02-4.54.57-1.36,1.33-1.49,2.08-4.5.51-2-.37-3.32-.01-4.61.24-.87.35-3.32-.75-4.16-.12-.09-.27-.14-.43-.18,1.65-6.27,2.7-16.51-.73-24.35-1.49-3.39-3.32-6.12-5.25-8.29-4.57-5.57-12.1-9.22-20.63-9.22s-16.06,3.65-20.63,9.22c-1.93,2.17-3.76,4.9-5.25,8.29-3.43,7.84-2.38,18.08-.73,24.35-.16.04-.31.09-.43.18-1.1.84-.99,3.29-.75,4.16.36,1.29-.52,2.61-.01,4.61.76,3.01,1.51,3.14,2.08,4.5.51,1.24,1.24,5.52,4.02,4.54.25,1.15.51,2.22.73,3.12,1.24,5.03,3.2,8.06,5.74,10.41-.18,5.13-.63,12.64-1.75,15.34-2.64,6.4-7.04,8.96-12.37,11.01-3.41,1.32-9.21,2.05-12.94,2.69-.28.05-.55.1-.8.14-3.73.66-7.25,1.28-10.09,2.41Z"/>
  </g>
</svg>