<?xml version="1.0" encoding="UTF-8"?>
<svg id="_레이어_2" data-name="레이어 2" xmlns="http://www.w3.org/2000/svg" viewBox="0 0 192.46 572.01">
  <defs>
    <style>
      .cls-1 {
        fill: #f3a9aa;
        stroke: #231815;
        stroke-miterlimit: 10;
      }
    </style>
  </defs>
  <g id="_레이어_1-2" data-name="레이어 1">
    <path class="cls-1" d="m43.05,105.47c2.89-1.15,6.49-1.76,10.29-2.44s9.94-1.41,13.54-2.8c5.33-2.05,9.73-4.61,12.37-11.01,1.12-2.7,1.57-10.21,1.75-15.34-2.54-2.35-4.5-5.38-5.74-10.41-.22-.9-.48-1.97-.73-3.12-2.78.98-3.51-3.3-4.02-4.54-.57-1.36-1.32-1.49-2.08-4.5-.5-2,.37-3.32.01-4.61-.24-.87-.35-3.32.75-4.16.12-.09.27-.14.43-.18-1.65-6.27-2.7-16.51.73-24.35,1.49-3.39,3.32-6.12,5.25-8.29,4.57-5.57,12.1-9.22,20.63-9.22s16.06,3.65,20.63,9.22c1.93,2.17,3.76,4.9,5.25,8.29,3.43,7.84,2.38,18.08.73,24.35.16.04.31.09.43.18,1.1.84.99,3.29.75,4.16-.36,1.29.52,2.61,0,4.61-.75,3.01-1.51,3.14-2.08,4.5-.52,1.24-1.24,5.52-4.02,4.54-.25,1.15-.51,2.22-.73,3.12-1.24,5.03-3.2,8.06-5.74,10.41.18,5.13.63,12.64,1.75,15.34,2.64,6.4,7.04,8.96,12.37,11.01,3.41,1.32,9.21,2.05,12.93,2.69.28.05.55.1.81.14,3.73.66,7.25,1.28,10.09,2.41,1.02.41,2.71,1.29,2.71,1.29v.02c2.07.91,4.24,3.67,6.47,10.54,3,9.22,7.37,70.31,7.83,76.97.38,5.34,1.35,15.49,1.81,16.82.26.75.51,1.49.77,2.23.02.05.04.1.05.16,4.48,12.93,8.73,24.68,10,34.03.36,2.62.69,5.03,1,7.33,0,.05.02.1.02.15,1.54,11.28,2.63,19.34,4.27,30.18.87,5.74,2.43,6.7,2.82,9.76.06.43.06.87.06,1.42,0,.24,0,.69.08,1.26.06,1.16.13,2.48.39,4.4.91,6.5,1.61,7.94,2.26,10.42,1.54,5.98,2.15,9.11,2,13.22-.2,5.45-1.42,8.05-3.69,10.69-1.16,1.36-2.31,3.06-4.12,4.88-2.57,2.6-2.93,2.73-3.98,1.27-1.37-1.91.38-4.51-.25-9.22-.85-6.45-2.24-8.27-2.69-16.17-.07-1.19-.74,5.28-3.01,7.65-1.8,1.88-4.83,1.75-4.34.81,4.6-8.89.56-14.6,2.55-21.41.64-2.2,2.42-5.7,2.33-7.35,0-.1-.03-.22-.03-.33,0-.05,0-.09-.02-.14-.34-3.77-2.43-8.43-5.36-14.25-4.01-7.99-6.35-12.89-11.95-27.13-.11-.27-.21-.55-.33-.84-.37-.93-.75-1.9-1.14-2.89-6.88-17.67-7.99-33.2-8.27-35.08-.12-.84-.29-1.76-.49-2.71,0-.05-.02-.09-.03-.14-1.85-8.92-6.63-22.75-9.73-34.45-.49-1.85-1.69-7.32-2.18-9.6-.14.5-.28,1.03-.43,1.55-2.6,11.2-7.06,32.18-3.24,42.64,0,0,0,0,0,0,1.16,5.87,4.64,11.75,7.96,18.59,2.02,4.17,3.55,7.57,4.79,10.39,2.37,4.15,3.8,6.96,5.11,10.05,0,0,0,0,0,0,.02.05.04.1.06.15.42.98.82,1.98,1.24,3.05,0,0,0,0,0,0,.02.05.04.09.06.14,3.55,8.98,8.8,20.86,8.92,40.44,0,.1,0,.2,0,.3.02,4.28-.16,8.91-.66,13.96-1.23,12.52-10.39,39.26-13.81,52.03-7.6,28.39-11.9,45.42-12.46,55.42-.72,12.93.95,16.97,2.43,24.8,2.89,15.21.78,28.36-2.65,40.42-6.34,22.28-12.99,32.19-13.66,43.88-.17,2.92,1.9,4.14.76,7.83-.6,1.93-1.6,3.77-.07,8.05,5.17,14.48,11.89,18.27,11.1,23.56-.88,5.86-19.54,5.5-26.85,4.18-6.01-1.09-5.93-10.06-4.2-20.34.35-2.08.53-4.4.4-7.96-.07-1.76-.52-3.81-.76-6.28-.22-2.28.42-4.69.76-6.6.26-1.44.52-2.6.57-3.21,1.73-22.37,1.11-27.75-1.56-48.79-2.7-21.27,1.08-25.08.61-38.08-.28-7.71-2.5-15.58-3.09-23.92-.75-10.47.28-20.36,1.33-27.8,2.9-20.57,2.88-23.89,3.82-40.15,1.01-17.66-4.35-26.32-1.29-41.55-.71.27-2.45.39-4.17.38-1.72,0-3.46-.11-4.17-.38,3.06,15.23-2.3,23.89-1.28,41.55.93,16.26.92,19.58,3.81,40.15,1.05,7.44,2.08,17.33,1.33,27.8-.59,8.34-2.8,16.21-3.09,23.92-.47,13,3.31,16.81.61,38.08-2.67,21.04-3.1,26.4-1.55,48.79.04.61.31,1.77.57,3.21.34,1.91.97,4.32.75,6.6-.24,2.47-.69,4.52-.75,6.28-.13,3.56.04,5.88.39,7.96,1.73,10.28,1.81,19.25-4.2,20.34-7.3,1.32-25.97,1.68-26.85-4.18-.79-5.29,5.93-9.08,11.1-23.56,1.53-4.28.53-6.12-.07-8.05-1.14-3.69.93-4.91.76-7.83-.67-11.69-7.32-21.6-13.66-43.88-3.43-12.06-5.54-25.21-2.65-40.42,1.49-7.83,3.15-11.87,2.43-24.8-.56-10-4.86-27.03-12.46-55.42-3.42-12.77-12.57-39.51-13.81-52.03-.5-5.05-.67-9.68-.65-13.96,0-.1,0-.2,0-.3.11-20.13,5.63-32.15,9.22-41.22.02-.05.04-.1.06-.15,1.39-3.51,2.64-6.25,4.81-10.18,1.44-3.44,3.37-7.72,6.2-13.53,2.7-5.55,5.43-10.5,7.05-15.27.38-1.11.69-2.21.91-3.3,3.51-9.68.06-28-2.61-39.18-.15-.53-.3-1.05-.44-1.56-.31-.71-.63-1.26-.94-1.74-.35,1.62-.92,4.19-1.37,6.14-.32,1.35-.62,2.59-.84,3.42-1.31,4.87-2.88,10.06-4.4,15.1-1.79,5.94-3.5,11.65-4.61,16.32-.24,1.03-.46,2.01-.63,2.92,0,.05-.02.09-.03.14-.15.81-.31,1.72-.44,2.67-.37,2.77-1.66,17.08-7.84,33.49-.3.79-.6,1.57-.91,2.35-.4,1-.78,1.96-1.15,2.88-.02.05-.04.09-.06.14-5.07,12.59-7.36,17.75-10.8,24.68-.37.75-.75,1.5-1.13,2.28-2.36,4.75-4.14,8.71-4.8,12.03-.03.15-.06.31-.09.46-.1.58-.14,1.17-.13,1.77,0,.05,0,.1,0,.15,0,.1,0,.19,0,.28.09,1.33,1.03,3.51,1.71,5.35.26.7.48,1.37.63,1.98,1.6,6.3-1.67,11.71,1.89,19.72.22.5.24.96.25,1.35.02.54-1.59.62-3.05-.25-.44-.26-.86-.61-1.22-1.05-1.51-1.84-2.21-5.42-2.52-6.5-.17-.61-.25-.89-.28-.46-.45,7.22-1.7,9.27-2.54,14.92-.06.39-.11.79-.16,1.19-.46,3.97.76,6.41.1,8.21-.12.34-.28.64-.49.9-.89,1.11-1.34,1-3.31-.95-.21-.21-.43-.44-.67-.68-1.51-1.55-2.56-3-3.56-4.22-.18-.22-.36-.43-.53-.64-2.12-2.51-3.29-5.03-3.54-10.04-.01-.21-.02-.43-.03-.65-.13-3.96.46-7.04,1.92-12.73.04-.14.07-.28.11-.42.67-2.58,1.42-4.1,2.39-11.4.28-2.19.3-3.49.3-4.46,0-.01,0-.14,0-.15,0-.49,0-.89.05-1.28,0-.04.01-.08.02-.12.4-3.03,1.95-4.01,2.82-9.73,1.64-10.85,2.73-18.92,4.28-30.22,0-.05.01-.1.02-.15.31-2.29.64-4.69,1-7.29,1.27-9.36,5.53-21.13,10.01-34.08.01-.05.03-.1.05-.15.26-.73.5-1.46.76-2.19.46-1.33,1.43-11.48,1.81-16.82.46-6.66,4.83-67.75,7.83-76.97,2.23-6.87,4.4-9.63,6.47-10.54v-.02s1.69-.88,2.71-1.29Z"/>
  </g>
</svg>