<?xml version="1.0" encoding="UTF-8"?>
<svg id="_레이어_2" data-name="레이어 2" xmlns="http://www.w3.org/2000/svg" viewBox="0 0 192.46 572.08">
  <defs>
    <style>
      .cls-1 {
        fill: #f3a9aa;
        stroke: #231815;
        stroke-miterlimit: 10;
      }
    </style>
  </defs>
  <g id="_레이어_1-2" data-name="레이어 1">
    <path class="cls-1" d="m43.05,105.51c2.94-1.18,6.62-1.78,10.5-2.48,3.66-.66,9.73-1.41,13.33-2.8,5.33-2.05,9.73-4.61,12.37-11.01,1.12-2.7,1.57-10.21,1.75-15.34-2.54-2.35-4.5-5.38-5.74-10.41-.22-.9-.48-1.97-.73-3.12-2.78.98-3.51-3.3-4.02-4.54-.57-1.37-1.32-1.5-2.08-4.5-.51-2.01.37-3.32.01-4.61-.24-.87-.35-3.32.75-4.16.12-.09.27-.14.43-.18-1.65-6.26-2.7-16.51.73-24.34,1.49-3.39,3.32-6.12,5.25-8.29,4.57-5.58,12.1-9.22,20.63-9.22s16.06,3.64,20.63,9.22c1.94,2.17,3.76,4.9,5.25,8.29,3.43,7.84,2.38,18.08.73,24.34.16.05.31.1.43.18,1.1.84.99,3.29.75,4.16-.36,1.29.52,2.6.01,4.61-.75,3.01-1.51,3.14-2.08,4.5-.51,1.24-1.24,5.52-4.02,4.54-.25,1.15-.51,2.22-.74,3.12-1.23,5.03-3.19,8.06-5.73,10.41.18,5.13.63,12.64,1.75,15.34,2.64,6.4,7.04,8.96,12.38,11.01,3.47,1.34,9.22,2.08,12.92,2.73.28.05.55.1.81.14,3.74.66,7.26,1.28,10.09,2.41,1.03.41,2.71,1.3,2.71,1.3v.02c2.08.91,4.25,3.66,6.48,10.54,2.99,9.22,7.36,70.3,7.83,76.97.38,5.34,1.35,15.48,1.81,16.82.26.75.51,1.49.77,2.23.02.05.04.11.05.16,4.48,12.93,8.72,24.68,10,34.03.36,2.61.69,5.03,1,7.33,0,.05.02.11.02.16,1.53,11.28,2.63,19.34,4.27,30.18.86,5.74,2.45,6.7,2.82,9.76.05.43.05.88.05,1.42,0,.49,0,1.22.16,2.36.12,1.35.23,2.71.48,4.38.83,5.61,1.49,7.01,2.09,9.33,1.54,5.98,2.15,9.1,2,13.22-.2,5.45-1.42,8.05-3.69,10.69-1.16,1.36-2.31,3.06-4.12,4.88-2.57,2.6-2.93,2.72-3.98,1.26-1.37-1.9.38-4.51-.25-9.21-.85-6.46-2.24-8.27-2.69-16.17-.07-1.19-.74,5.28-3.01,7.65-1.8,1.88-4.84,1.75-4.34.81,4.58-8.9.56-14.6,2.55-21.41.64-2.2,2.42-5.7,2.33-7.35,0-.11-.03-.25-.04-.37,0-.04,0-.09-.02-.13-.35-3.76-2.44-8.41-5.35-14.22-4.01-8-6.37-12.89-11.97-27.17-.19-.49-.39-.99-.6-1.53-.38-.94-.75-1.91-1.12-2.88-6.6-17.38-7.72-32.51-7.99-34.36-.12-.84-.3-1.78-.5-2.75,0-.04-.02-.09-.03-.13-1.86-8.92-6.63-22.73-9.72-34.43-.49-1.85-1.69-7.31-2.18-9.59-.15.51-.28,1.03-.43,1.55-1.44,9.27-3.4,29.49.06,42.6,0,0,0,0,0,0,1.12,6.25,3.79,12.48,6.24,19.11,1.55,4.2,2.71,7.76,3.64,10.74,2.29,4.06,3.67,6.83,4.99,10.06,0,0,0,0,0,0,.02.05.04.1.06.15.41.98.81,1.98,1.22,3.04,0,0,0,0,0,0,.02.04.03.09.05.13,3.52,8.89,8.5,20.64,8.61,39.65,0,.1,0,.2.01.3.02,4.28-.16,8.91-.66,13.96-1.23,12.52-10.39,39.26-13.81,52.03-7.6,28.39-11.9,45.42-12.46,55.42-.72,12.93.95,16.97,2.43,24.8,2.89,15.21.78,28.36-2.65,40.42-6.34,22.28-12.99,32.19-13.66,43.88-.17,2.92,1.9,4.14.76,7.83-.6,1.93-1.6,3.77-.07,8.05,5.17,14.48,11.89,18.27,11.1,23.56-.88,5.86-19.54,5.5-26.85,4.18-6.01-1.09-5.93-10.06-4.2-20.34.35-2.08.53-4.4.4-7.96-.07-1.76-.52-3.81-.76-6.28-.22-2.28.42-4.69.76-6.6.26-1.44.52-2.6.57-3.21,1.73-22.37,1.11-27.75-1.56-48.79-2.7-21.27,1.08-25.08.61-38.08-.28-7.71-2.5-15.58-3.09-23.92-.75-10.47.28-20.36,1.33-27.8,2.9-20.57,2.88-23.89,3.82-40.15,1.01-17.66-4.35-26.32-1.29-41.55-.71.27-2.45.39-4.17.38-1.72-.01-3.46-.11-4.17-.38,3.06,15.23-2.3,23.89-1.28,41.55.93,16.26.92,19.58,3.81,40.15,1.05,7.44,2.08,17.33,1.33,27.8-.59,8.34-2.8,16.21-3.09,23.92-.47,13,3.31,16.81.61,38.08-2.67,21.04-3.09,26.4-1.55,48.79.04.61.31,1.77.57,3.21.34,1.91.97,4.32.75,6.6-.24,2.47-.69,4.52-.75,6.28-.13,3.56.04,5.88.39,7.96,1.73,10.28,1.81,19.25-4.2,20.34-7.3,1.32-25.97,1.68-26.85-4.18-.79-5.29,5.93-9.08,11.1-23.56,1.53-4.28.53-6.12-.07-8.05-1.14-3.69.93-4.91.76-7.83-.67-11.69-7.32-21.6-13.66-43.88-3.43-12.06-5.54-25.21-2.65-40.42,1.49-7.83,3.15-11.87,2.43-24.8-.56-10-4.86-27.03-12.46-55.42-3.42-12.77-12.57-39.51-13.81-52.03-.5-5.05-.67-9.68-.65-13.96,0-.1,0-.2,0-.3.11-20.13,5.63-32.15,9.22-41.22.02-.05.04-.1.06-.15,1.39-3.5,2.63-6.24,4.8-10.15,1.1-3.68,2.6-8.23,4.73-13.97,2.04-5.46,4.11-10.67,5.49-15.76.3-1.12.57-2.22.77-3.32,3.2-12.22,1.81-30.03.31-39.17-.15-.52-.29-1.05-.43-1.56-.27-.19-.58-.13-.88,0-.41,1.86-.98,4.43-1.39,6.12-.31,1.27-.61,2.47-.87,3.4-1.33,4.87-2.9,10.05-4.41,15.05-1.8,5.97-3.5,11.67-4.54,16.28-.23,1.02-.43,1.99-.59,2.89,0,.04-.01.08-.02.13-.12.69-.25,1.59-.39,2.65-.47,3.72-1.96,17.62-7.97,33.35-.33.86-.66,1.71-.99,2.54-.4,1-.78,1.95-1.14,2.87-.02.04-.03.09-.05.13-5,12.42-7.27,17.45-10.8,24.55-.38.76-.75,1.51-1.13,2.27-2.35,4.77-4.08,8.72-4.61,12.02-.03.15-.06.3-.08.45-.08.54-.06,1.13,0,1.75,0,.05,0,.09,0,.14,0,.09.01.19.03.27.24,1.45,1.19,3.59,1.78,5.31.24.69.43,1.36.56,1.98,1.34,6.19-1.78,11.6,1.97,19.61.23.49.04.86-.23,1.13-.31.31-1.8.25-3.08-.66-.41-.29-.79-.67-1.12-1.13-1.54-2.16-2.16-6.06-2.38-6.45-.13-.23-.19-.27-.22.17-.47,7.05-1.73,9.07-2.56,14.85-.06.4-.1.8-.14,1.2-.38,3.97.88,6.37.02,8.14-.16.34-.34.62-.55.85-.82.91-1.34.65-3.31-1.31-.22-.22-.44-.44-.66-.68-1.49-1.55-2.52-3-3.53-4.22-.18-.22-.35-.43-.53-.64-2.05-2.49-3.19-5.04-3.42-10.05,0-.21-.02-.43-.02-.65-.11-3.91.49-7,1.95-12.68.04-.14.07-.27.11-.41.67-2.52,1.4-4.1,2.37-11.31.29-2.22.3-3.53.3-4.5,0-.03,0-.13,0-.16,0-.48,0-.88.05-1.28,0-.04,0-.08.02-.12.4-3.01,1.95-3.99,2.81-9.7,1.65-10.87,2.74-18.94,4.28-30.26,0-.05.01-.1.02-.15.31-2.28.63-4.67.99-7.26,1.28-9.37,5.54-21.16,10.03-34.11.01-.05.03-.1.05-.15.25-.72.49-1.43.74-2.16.46-1.34,1.43-11.48,1.81-16.82.46-6.67,4.83-67.75,7.83-76.97,2.23-6.88,4.4-9.63,6.47-10.54v-.02s1.69-.89,2.71-1.3Z"/>
  </g>
</svg>