<?xml version="1.0" encoding="UTF-8"?>
<svg id="_레이어_2" data-name="레이어 2" xmlns="http://www.w3.org/2000/svg" viewBox="0 0 192.46 572.16">
  <defs>
    <style>
      .cls-1 {
        fill: #f3a9aa;
        stroke: #231815;
        stroke-miterlimit: 10;
      }
    </style>
  </defs>
  <g id="_레이어_1-2" data-name="레이어 1">
    <path class="cls-1" d="m43.05,105.54c3-1.2,6.75-1.81,10.71-2.51,3.66-.66,9.52-1.41,13.12-2.8,5.33-2.05,9.73-4.61,12.37-11.01,1.12-2.7,1.57-10.21,1.75-15.34-2.54-2.35-4.5-5.38-5.74-10.41-.22-.9-.48-1.98-.73-3.12-2.78.98-3.51-3.3-4.02-4.54-.57-1.37-1.33-1.5-2.08-4.5-.51-2.01.37-3.32.01-4.61-.24-.87-.35-3.33.75-4.16.12-.09.27-.14.43-.19-1.65-6.26-2.7-16.5.73-24.34,1.49-3.39,3.32-6.13,5.25-8.29,4.57-5.58,12.1-9.22,20.63-9.22s16.07,3.64,20.63,9.22c1.94,2.16,3.77,4.9,5.26,8.29,3.43,7.84,2.38,18.08.73,24.34.16.05.31.1.42.19,1.11.84,1,3.29.76,4.16-.36,1.29.51,2.6.01,4.61-.75,3-1.51,3.13-2.08,4.5-.52,1.24-1.24,5.52-4.02,4.54-.25,1.14-.52,2.22-.74,3.12-1.23,5.03-3.19,8.06-5.73,10.41.18,5.13.63,12.64,1.74,15.34,2.65,6.4,7.05,8.96,12.38,11.01,3.53,1.37,9.23,2.11,12.91,2.76.27.05.54.09.81.14,3.74.65,7.26,1.28,10.1,2.41,1.03.41,2.71,1.3,2.71,1.3v.02c2.08.91,4.25,3.66,6.48,10.54,2.99,9.21,7.36,70.3,7.83,76.97.37,5.34,1.35,15.48,1.81,16.82.26.75.51,1.49.77,2.23.02.06.04.11.06.17,4.48,12.92,8.72,24.67,9.99,34.02.36,2.61.69,5.03,1,7.33,0,.05.02.11.02.16,1.53,11.27,2.63,19.33,4.27,30.17.86,5.75,2.44,6.71,2.82,9.76.05.44.05.88.05,1.43,0,.73,0,1.76.23,3.47.17,1.55.34,2.93.57,4.35.75,4.71,1.36,6.08,1.93,8.25,1.54,5.98,2.14,9.1,1.99,13.22-.2,5.44-1.42,8.05-3.68,10.69-1.16,1.36-2.31,3.05-4.12,4.88-2.57,2.6-2.93,2.72-3.98,1.26-1.37-1.9.37-4.5-.25-9.21-.85-6.46-2.24-8.27-2.69-16.17-.07-1.19-.74,5.28-3.01,7.65-1.8,1.88-4.84,1.75-4.35.8,4.59-8.89.57-14.59,2.56-21.4.64-2.2,2.42-5.7,2.33-7.35,0-.13-.04-.27-.05-.4,0-.04,0-.08-.01-.12-.35-3.76-2.44-8.4-5.35-14.2-4.02-8-6.37-12.9-11.98-27.2-.28-.71-.56-1.44-.87-2.21-.38-.95-.75-1.92-1.11-2.88-6.36-17.08-7.45-31.81-7.72-33.64-.13-.85-.3-1.8-.51-2.78,0-.04-.02-.08-.03-.12-1.86-8.92-6.62-22.72-9.71-34.4-.49-1.85-1.69-7.31-2.18-9.59-.15.51-.27,1.04-.42,1.55-.27,7.34.27,26.79,3.35,42.57,0,0,0,0,0,0,1.07,6.63,2.92,13.22,4.53,19.64,1.06,4.22,1.86,7.95,2.49,11.08,2.21,3.96,3.54,6.71,4.87,10.06,0,0,0,0,0,0,.02.05.04.1.06.15.39.97.79,1.98,1.21,3.03,0,0,0,0,0,0,.02.04.03.08.05.12,3.48,8.81,8.19,20.41,8.3,38.87,0,.1,0,.2.01.3.01,4.28-.16,8.91-.66,13.96-1.23,12.52-10.39,39.26-13.81,52.03-7.6,28.39-11.9,45.42-12.46,55.42-.72,12.93.95,16.97,2.43,24.8,2.89,15.21.78,28.36-2.65,40.42-6.34,22.28-12.99,32.19-13.66,43.88-.17,2.92,1.9,4.14.76,7.83-.6,1.93-1.6,3.77-.07,8.05,5.17,14.48,11.89,18.27,11.1,23.56-.88,5.86-19.54,5.5-26.85,4.18-6.01-1.09-5.93-10.06-4.2-20.34.35-2.08.53-4.4.4-7.96-.07-1.76-.52-3.81-.76-6.28-.22-2.28.42-4.69.76-6.6.26-1.44.52-2.6.57-3.21,1.73-22.37,1.11-27.75-1.56-48.79-2.7-21.27,1.08-25.08.61-38.08-.28-7.71-2.5-15.58-3.09-23.92-.75-10.47.28-20.36,1.33-27.8,2.9-20.57,2.88-23.89,3.82-40.15,1.01-17.66-4.35-26.32-1.29-41.55-.71.27-2.45.39-4.17.38-1.72-.01-3.46-.11-4.17-.38,3.06,15.23-2.3,23.89-1.28,41.55.93,16.26.92,19.58,3.81,40.15,1.05,7.44,2.08,17.33,1.33,27.8-.59,8.34-2.8,16.21-3.09,23.92-.47,13,3.31,16.81.61,38.08-2.67,21.04-3.09,26.4-1.55,48.79.04.61.31,1.77.57,3.21.34,1.91.97,4.32.75,6.6-.24,2.47-.69,4.52-.75,6.28-.13,3.56.04,5.88.39,7.96,1.73,10.28,1.81,19.25-4.2,20.34-7.3,1.32-25.97,1.68-26.85-4.18-.79-5.29,5.93-9.08,11.1-23.56,1.53-4.28.53-6.12-.07-8.05-1.14-3.69.93-4.91.76-7.83-.67-11.69-7.32-21.6-13.66-43.88-3.43-12.06-5.54-25.21-2.65-40.42,1.49-7.83,3.15-11.87,2.43-24.8-.56-10-4.86-27.03-12.46-55.42-3.42-12.77-12.57-39.51-13.81-52.03-.5-5.05-.67-9.68-.65-13.96,0-.1,0-.2,0-.3.11-20.13,5.63-32.15,9.22-41.22.02-.05.04-.1.06-.15,1.38-3.49,2.63-6.23,4.78-10.12.76-3.91,1.82-8.75,3.26-14.41,1.37-5.37,2.81-10.83,3.93-16.24.23-1.12.45-2.23.64-3.35,2.89-14.76,3.56-32.05,3.23-39.17-.14-.51-.28-1.04-.42-1.55-.23.33-.52,1-.82,1.76-.46,2.09-1.04,4.68-1.4,6.1-.3,1.19-.61,2.35-.89,3.38-1.35,4.88-2.92,10.04-4.42,14.99-1.8,6-3.49,11.7-4.47,16.23-.22,1.01-.41,1.98-.55,2.85,0,.04-.01.07-.02.11-.09.56-.2,1.46-.35,2.64-.57,4.67-2.26,18.15-8.1,33.21-.37.94-.72,1.84-1.07,2.72-.4.99-.77,1.95-1.14,2.85-.02.04-.03.08-.05.12-4.9,12.26-7.18,17.15-10.81,24.42-.38.77-.76,1.52-1.12,2.27-2.35,4.78-4.02,8.73-4.43,12.02-.02.14-.05.3-.06.45-.05.49.01,1.09.15,1.73,0,.05.02.09.02.14.02.09.03.18.05.27.39,1.58,1.34,3.68,1.85,5.28.22.68.38,1.35.5,1.99,1.09,6.08-1.89,11.5,2.04,19.51.23.47-.14.78-.72.9-.61.12-2-.12-3.11-1.06-.37-.32-.72-.73-1.02-1.21-1.55-2.49-2.08-6.71-2.24-6.4-.07.14-.13.36-.16.81-.5,6.88-1.76,8.88-2.57,14.79-.06.41-.1.81-.13,1.2-.31,3.97,1,6.32-.06,8.07-.21.34-.4.61-.61.81-.75.7-1.35.31-3.31-1.66-.22-.22-.44-.45-.66-.68-1.47-1.56-2.49-3.01-3.5-4.21-.18-.21-.35-.42-.52-.63-1.99-2.47-3.09-5.05-3.29-10.06,0-.21-.02-.43-.02-.64-.09-3.86.53-6.96,1.98-12.63.03-.13.07-.27.1-.4.66-2.47,1.39-4.09,2.34-11.21.29-2.25.3-3.57.3-4.53,0-.04,0-.12,0-.16,0-.48,0-.88.06-1.27,0-.04,0-.08.01-.12.4-2.99,1.95-3.98,2.81-9.68,1.65-10.88,2.74-18.95,4.29-30.3,0-.05.01-.1.02-.14.31-2.27.63-4.65.99-7.22,1.28-9.38,5.54-21.18,10.04-34.15.02-.05.03-.1.05-.15.25-.7.48-1.41.73-2.12.46-1.34,1.43-11.48,1.81-16.82.46-6.67,4.83-67.76,7.83-76.97,2.23-6.88,4.4-9.63,6.47-10.54v-.02s1.69-.89,2.71-1.3Z"/>
  </g>
</svg>