<?xml version="1.0" encoding="UTF-8"?>
<svg id="_레이어_2" data-name="레이어 2" xmlns="http://www.w3.org/2000/svg" viewBox="0 0 192.46 572.16">
  <defs>
    <style>
      .cls-1 {
        fill: #f3a9aa;
        stroke: #231815;
        stroke-miterlimit: 10;
      }
    </style>
  </defs>
  <g id="_레이어_1-2" data-name="레이어 1">
    <path class="cls-1" d="m43.05,105.47c2.89-1.15,6.49-1.76,10.29-2.44,3.66-.66,9.94-1.41,13.54-2.8,5.33-2.05,9.73-4.61,12.37-11.01,1.12-2.7,1.57-10.21,1.75-15.34-2.54-2.35-4.5-5.38-5.74-10.41-.22-.9-.48-1.97-.73-3.12-2.78.98-3.51-3.3-4.02-4.54-.57-1.36-1.32-1.49-2.08-4.5-.5-2,.37-3.32.01-4.61-.24-.87-.35-3.33.75-4.16.12-.09.27-.14.43-.18-1.65-6.27-2.7-16.51.73-24.35,1.49-3.39,3.32-6.12,5.25-8.29,4.57-5.57,12.1-9.22,20.63-9.22s16.06,3.65,20.63,9.22c1.93,2.17,3.76,4.9,5.25,8.29,3.43,7.84,2.38,18.08.73,24.35.16.04.31.09.43.18,1.1.84.99,3.29.75,4.16-.36,1.29.52,2.61,0,4.61-.75,3.01-1.51,3.14-2.08,4.5-.52,1.24-1.24,5.52-4.02,4.54-.25,1.15-.51,2.22-.73,3.12-1.24,5.03-3.2,8.06-5.74,10.41.18,5.13.63,12.64,1.75,15.34,2.64,6.4,7.04,8.96,12.37,11.01,3.41,1.32,9.21,2.05,12.93,2.69.28.05.55.1.81.14,3.73.66,7.25,1.28,10.09,2.41,1.02.41,2.71,1.29,2.71,1.29v.02c2.07.91,4.24,3.67,6.47,10.54,3,9.22,7.37,70.31,7.83,76.97.38,5.34,1.35,15.49,1.81,16.82.26.75.51,1.49.77,2.23.02.05.04.1.05.16,4.48,12.93,8.73,24.68,10,34.03.36,2.62.69,5.03,1,7.33,0,.05.02.1.02.15,1.54,11.28,2.63,19.34,4.27,30.18.87,5.74,2.43,6.7,2.82,9.76.06.43.06.87.06,1.42,0,.24,0,.69.08,1.26.06,1.16.13,2.48.39,4.4.91,6.5,1.61,7.94,2.26,10.42,1.54,5.98,2.15,9.11,2,13.22-.2,5.45-1.42,8.05-3.69,10.69-1.16,1.36-2.31,3.06-4.12,4.88-2.57,2.6-2.93,2.73-3.98,1.27-1.37-1.91.38-4.51-.25-9.22-.85-6.45-2.24-8.27-2.69-16.17-.07-1.19-.74,5.28-3.01,7.65-1.8,1.88-4.83,1.75-4.34.81,4.58-8.9.56-14.6,2.55-21.41.64-2.2,2.42-5.7,2.33-7.35,0-.1-.03-.22-.03-.33,0-.05,0-.09-.02-.14-.34-3.77-2.43-8.43-5.36-14.25-4-7.99-6.35-12.89-11.95-27.13-.11-.27-.21-.55-.33-.84-.37-.93-.75-1.9-1.14-2.89-6.88-17.67-7.99-33.2-8.27-35.08-.12-.84-.3-1.76-.49-2.71,0-.05-.02-.09-.03-.14-1.85-8.92-6.63-22.75-9.73-34.45-.49-1.85-1.69-7.32-2.18-9.6-.14.5-.28,1.03-.43,1.55-2.6,11.2-7.06,32.18-3.25,42.64,1.17,5.97,4.98,12.81,8.75,19.36,1.2,2.09,2.26,4.06,3.23,5.87,4.38,6.29,7.02,10.72,8.62,13.79.03.06.06.11.09.17.63,1.22,1.14,2.3,1.55,3.26.02.05.04.09.06.14,3.53,8.63,8.69,19.88,9.33,37.96,0,.07,0,.22,0,.3.03.95.05,1.92.05,2.9,0,.02,0,.27,0,.29,0,3.4-.14,7.04-.48,10.93-.08.96-.19,1.95-.31,2.98-1.54,12.74-10.93,38.76-14.48,51.3-8.03,28.39-12.57,45.41-13.16,55.42-.76,12.92,1,16.97,2.57,24.79,3.04,15.22.82,28.37-2.8,40.42-6.7,22.29-13.72,32.19-14.43,43.89-.18,2.92,2.02,4.14.81,7.83-.63,1.92-1.7,3.76-.08,8.04,5.46,14.49,12.56,18.28,11.72,23.57-.93,5.86-20.64,5.5-28.35,4.17-6.35-1.08-6.27-10.06-4.44-20.33.37-2.08.56-4.4.42-7.96-.07-1.76-.55-3.81-.8-6.28-.23-2.28.44-4.69.8-6.6.27-1.44.55-2.6.6-3.21,1.77-22.38,1.17-27.75-1.65-48.79-2.85-21.27,1.15-25.08.65-38.09-.3-7.7-2.64-15.58-3.26-23.92-.79-10.46.29-20.35,1.4-27.79,3.06-20.57,3.04-23.89,4.03-40.16,1.07-17.65-4.59-26.31-1.36-41.54-.75.27-2.58.4-4.4.38s-3.65-.11-4.4-.38c3.23,15.23-2.43,23.89-1.36,41.54.99,16.27.97,19.59,4.03,40.16,1.11,7.44,2.19,17.33,1.41,27.79-.63,8.34-2.97,16.22-3.27,23.92-.5,13.01,3.5,16.82.65,38.09-2.82,21.04-3.42,26.42-1.65,48.79.05.61.33,1.77.6,3.21.36,1.91,1.03,4.32.8,6.6-.25,2.47-.73,4.52-.8,6.28-.15,3.56.05,5.88.42,7.96,1.83,10.27,1.92,19.25-4.43,20.33-7.72,1.33-27.43,1.69-28.36-4.17-.84-5.29,6.27-9.08,11.73-23.57,1.61-4.28.55-6.12-.08-8.04-1.21-3.69.98-4.91.81-7.83-.72-11.7-7.74-21.6-14.43-43.89-3.63-12.05-5.85-25.2-2.8-40.42,1.57-7.82,3.33-11.87,2.56-24.79-.59-10.01-5.13-27.03-13.15-55.42-3.61-12.77-13.29-39.51-14.59-52.03-.53-5.05-.73-9.69-.69-13.96v-.3c.26-20.12,6.05-32.11,9.75-41.22.02-.05.04-.1.06-.15,1.22-2.72,3.62-7.14,8.28-14.01,1.39-2.7,3.02-5.76,4.97-9.15,3.02-5.26,6.01-10.72,7.75-15.74.43-1.24.78-2.44,1.02-3.61,0,0,0,0,0,0,3.49-9.61.11-27.73-2.56-38.88-.15-.53-.3-1.05-.44-1.56-.34-.77-.69-1.37-1.01-1.89-.34,1.57-.88,4-1.32,5.9-.34,1.44-.66,2.78-.9,3.66-1.29,4.8-2.84,9.91-4.34,14.88-1.79,5.93-3.5,11.64-4.62,16.33-.25,1.08-.49,2.11-.67,3.07,0,.05-.02.09-.03.14-.15.81-.31,1.72-.44,2.67-.37,2.77-1.66,17.08-7.84,33.49-.3.79-.6,1.57-.91,2.35-.4,1-.78,1.96-1.15,2.88-.02.05-.04.09-.06.14-5.02,12.61-7.36,17.75-10.8,24.68-.37.75-.75,1.5-1.13,2.28-2.36,4.75-4.14,8.71-4.8,12.03-.03.15-.06.31-.09.46-.1.58-.14,1.17-.13,1.77,0,.05,0,.1,0,.15,0,.1,0,.19,0,.28.09,1.33,1.03,3.51,1.71,5.35.26.7.48,1.37.63,1.98,1.6,6.3-1.67,11.71,1.89,19.72.22.5.24.96.25,1.35.02.54-1.59.62-3.05-.25-.44-.26-.86-.61-1.22-1.05-1.51-1.84-2.21-5.42-2.52-6.5-.17-.61-.25-.89-.28-.46-.45,7.22-1.7,9.27-2.54,14.92-.06.39-.11.79-.16,1.19-.46,3.97.76,6.41.1,8.21-.12.34-.28.64-.49.9-.89,1.11-1.34,1-3.31-.95-.21-.21-.43-.44-.67-.68-1.51-1.55-2.56-3-3.56-4.22-.18-.22-.36-.43-.53-.64-2.12-2.51-3.29-5.03-3.54-10.04-.01-.21-.02-.43-.03-.65-.13-3.96.46-7.04,1.92-12.73.04-.14.07-.28.11-.42.67-2.58,1.42-4.1,2.39-11.4.28-2.19.3-3.49.3-4.46,0-.01,0-.14,0-.15,0-.49,0-.89.05-1.28,0-.04.01-.08.02-.12.4-3.03,1.95-4.01,2.82-9.73,1.64-10.85,2.73-18.92,4.27-30.22,0-.05.01-.1.02-.15.31-2.29.64-4.69,1-7.29,1.27-9.36,5.53-21.13,10.01-34.08.01-.05.03-.1.05-.15.26-.73.5-1.46.76-2.19.46-1.33,1.43-11.48,1.81-16.82.46-6.66,4.83-67.75,7.83-76.97,2.23-6.87,4.4-9.63,6.47-10.54v-.02s1.69-.88,2.71-1.29Z"/>
  </g>
</svg>