<?xml version="1.0" encoding="UTF-8"?>
<svg id="_레이어_2" data-name="레이어 2" xmlns="http://www.w3.org/2000/svg" viewBox="0 0 192.46 571.71">
  <defs>
    <style>
      .cls-1 {
        fill: #f3a9aa;
        stroke: #231815;
        stroke-miterlimit: 10;
      }
    </style>
  </defs>
  <g id="_레이어_1-2" data-name="레이어 1">
    <path class="cls-1" d="m43.05,105.47c2.89-1.15,6.49-1.76,10.29-2.44s9.94-1.41,13.54-2.8c5.33-2.05,9.73-4.61,12.37-11.01,1.12-2.7,1.57-10.21,1.75-15.34-2.54-2.35-4.5-5.38-5.74-10.41-.22-.9-.48-1.97-.73-3.12-2.78.98-3.51-3.3-4.02-4.54-.57-1.36-1.32-1.49-2.08-4.5-.51-2,.37-3.32,0-4.61-.24-.87-.35-3.33.75-4.16.12-.09.27-.14.43-.18-1.65-6.27-2.7-16.51.73-24.35,1.49-3.39,3.32-6.12,5.25-8.29,4.57-5.57,12.1-9.22,20.63-9.22s16.06,3.65,20.63,9.22c1.93,2.17,3.76,4.9,5.25,8.29,3.43,7.84,2.38,18.08.73,24.35.16.04.31.09.43.18,1.1.83.99,3.29.75,4.16-.36,1.29.51,2.61,0,4.61-.76,3.01-1.51,3.14-2.08,4.5-.51,1.24-1.24,5.52-4.02,4.54-.25,1.15-.51,2.22-.73,3.12-1.24,5.03-3.2,8.06-5.74,10.41.18,5.13.63,12.64,1.75,15.34,2.64,6.4,7.04,8.96,12.37,11.01,3.41,1.32,9.21,2.05,12.94,2.69.28.05.55.1.8.14,3.73.66,7.25,1.28,10.09,2.41,1.02.41,2.71,1.29,2.71,1.29v.02c2.07.91,4.24,3.67,6.47,10.54,3,9.22,7.37,70.31,7.83,76.97.38,5.34,1.35,15.49,1.81,16.82.26.75.51,1.49.77,2.23.02.05.04.1.05.16,4.48,12.93,8.73,24.68,10,34.03.36,2.62.69,5.03,1,7.33,0,.05.02.1.02.15,1.54,11.28,2.63,19.34,4.27,30.18.87,5.74,2.42,6.71,2.82,9.76.06.43.06.87.06,1.42,0,.24,0,.69.07,1.26.06,1.16.13,2.49.39,4.4.91,6.5,1.61,7.94,2.25,10.41,1.54,5.98,2.15,9.11,2,13.22-.2,5.45-1.42,8.05-3.69,10.69-1.16,1.36-2.31,3.06-4.12,4.88-2.57,2.6-2.93,2.73-3.98,1.27-1.37-1.91.38-4.51-.25-9.22-.85-6.45-2.24-8.27-2.69-16.17-.07-1.19-.74,5.28-3.01,7.65-1.8,1.88-4.83,1.75-4.34.81,4.6-8.89.56-14.6,2.55-21.41.64-2.2,2.42-5.7,2.33-7.35,0-.1-.02-.22-.04-.33,0-.05,0-.09-.02-.14-.34-3.77-2.43-8.43-5.36-14.25-4-7.99-6.3-12.91-11.95-27.13-.11-.27-.22-.55-.33-.84-.37-.93-.75-1.9-1.14-2.89-6.87-17.67-7.99-33.2-8.27-35.08-.12-.84-.3-1.76-.49-2.71,0-.05-.02-.1-.03-.14-.91-4.46-2.58-10.13-4.39-16.15-1.82-6.05-3.79-12.44-5.34-18.31-.49-1.85-1.69-7.32-2.18-9.6-.14.5-.28,1.02-.43,1.55-2.49,11.2-5.57,32.19-1.76,42.64,0,0,0,0,0,0,1.15,5.6,3.05,12.13,4.73,17.96,2.82,9.77,4.71,16.62,6.71,23.63,0,0,0,0,0,0,3.16,9.1,7.93,21.13,8.09,41.22v.3c.02,4.2-.15,8.73-.58,13.67-1.1,12.52-9.23,39.25-12.26,52.03-6.75,28.38-10.57,45.41-11.07,55.42-.64,12.92.84,16.97,2.16,24.79,2.56,15.21.69,28.37-2.35,40.42-5.63,22.28-11.53,32.19-12.13,43.89-.15,2.91,1.69,4.13.68,7.83-.53,1.92-1.43,3.76-.07,8.04,4.59,14.48,10.56,18.28,9.86,23.57-.79,5.86-17.36,5.49-23.84,4.17-5.34-1.09-5.27-10.06-3.73-20.34.31-2.07.47-4.4.35-7.96-.06-1.75-.46-3.8-.67-6.28-.19-2.28.37-4.69.67-6.59.23-1.45.47-2.61.51-3.21,1.43-22.39.98-27.76-1.39-48.8-2.39-21.26.97-25.08.55-38.08-.25-7.7-2.22-15.58-2.75-23.92-.66-10.47.25-20.35,1.18-27.79,2.58-20.57,2.56-23.89,3.39-40.16.9-17.66-3.85-26.31-1.14-41.54-.63.26-2.17.38-3.7.37s-3.07-.11-3.7-.37c2.71,15.23-2.04,23.88-1.14,41.54.83,16.27.81,19.59,3.39,40.16.93,7.44,1.84,17.32,1.18,27.79-.53,8.34-2.5,16.22-2.75,23.92-.42,13,2.94,16.82.55,38.08-2.38,21.04-2.82,26.41-1.39,48.8.04.6.28,1.76.51,3.21.3,1.9.86,4.31.67,6.59-.21,2.48-.61,4.53-.67,6.28-.12,3.56.04,5.89.35,7.96,1.54,10.28,1.61,19.25-3.73,20.34-6.49,1.32-23.05,1.69-23.84-4.17-.7-5.29,5.27-9.09,9.86-23.57,1.36-4.28.46-6.12-.07-8.04-1.01-3.7.83-4.92.68-7.83-.6-11.7-6.5-21.61-12.13-43.89-3.04-12.05-4.91-25.21-2.35-40.42,1.32-7.82,2.8-11.87,2.15-24.79-.49-10.01-4.31-27.04-11.06-55.42-3.03-12.78-11.16-39.51-12.26-52.03-.43-4.94-.6-9.47-.58-13.67v-.3c.16-20.09,4.92-32.12,8.09-41.22,0,0,0,0,0,0,2-7.07,3.85-14.14,6.73-24.05,1.66-5.71,3.57-12.07,4.7-17.54,0,0,0,0,0,0,3.94-10.69.4-32.77-2.09-43.8-.1.19-.22.45-.35.77-.55,2.54-1.51,6.84-1.93,8.44-1.55,5.87-3.53,12.26-5.34,18.31-1.81,6.03-3.49,11.71-4.4,16.17-.01.05-.02.1-.03.15-.19.94-.36,1.85-.48,2.67-.28,1.9-1.42,17.83-8.54,35.8-.4,1-.78,1.97-1.15,2.89-.02.05-.04.09-.06.14-5.63,14.2-7.93,19.12-11.93,27.1-2.93,5.84-5.03,10.51-5.36,14.28-.01.07-.02.15-.03.22,0,.1-.02.19-.02.28-.05,1.67,1.7,5.11,2.33,7.28,1.99,6.81-2.05,12.52,2.55,21.41.49.94-2.54,1.07-4.34-.81-2.27-2.37-2.94-8.84-3.01-7.65-.45,7.9-1.84,9.72-2.69,16.17-.63,4.71,1.12,7.31-.25,9.22-1.05,1.46-1.41,1.33-3.98-1.27-1.81-1.82-2.96-3.52-4.12-4.88-2.27-2.64-3.49-5.24-3.69-10.69-.15-4.11.46-7.24,2-13.22.68-2.63,1.43-4.1,2.42-11.5.28-2.19.3-3.49.3-4.46,0-.01,0-.14,0-.15,0-.49,0-.89.05-1.28,0-.04.01-.08.02-.12.4-3.03,1.95-4.01,2.82-9.73,1.64-10.85,2.73-18.92,4.28-30.22,0-.05.01-.1.02-.15.31-2.29.64-4.69,1-7.29,1.27-9.36,5.53-21.13,10.01-34.08.01-.05.03-.1.05-.15.26-.73.5-1.46.76-2.19.46-1.33,1.43-11.48,1.81-16.82.46-6.66,4.83-67.75,7.83-76.97,2.23-6.87,4.4-9.63,6.47-10.54v-.02s1.69-.88,2.71-1.29Z"/>
  </g>
</svg>