<?xml version="1.0" encoding="UTF-8"?>
<svg id="_레이어_2" data-name="레이어 2" xmlns="http://www.w3.org/2000/svg" viewBox="0 0 192.46 572.09">
  <defs>
    <style>
      .cls-1 {
        fill: #f3a9aa;
        stroke: #231815;
        stroke-miterlimit: 10;
      }
    </style>
  </defs>
  <g id="_레이어_1-2" data-name="레이어 1">
    <path class="cls-1" d="m191.94,325.64c-.2,5.45-1.42,8.05-3.69,10.69-1.16,1.36-2.31,3.06-4.12,4.88-2.57,2.6-2.93,2.73-3.98,1.27-1.37-1.91.38-4.51-.25-9.22-.85-6.45-2.24-8.27-2.69-16.17-.07-1.19-.74,5.28-3.01,7.65-1.8,1.88-4.83,1.75-4.34.81,4.58-8.9.56-14.6,2.55-21.41.64-2.2,2.42-5.7,2.33-7.35,0-.09-.02-.19-.03-.29-.01-.05-.01-.1-.02-.15-.33-3.77-2.43-8.44-5.36-14.28-4-7.98-6.3-12.9-11.93-27.09-.02-.05-.04-.1-.06-.15-.37-.92-.75-1.89-1.15-2.89-7.08-17.99-8.26-33.9-8.54-35.8-.12-.83-.29-1.74-.48-2.68l-.03-.15c-1.85-8.92-6.64-22.76-9.74-34.48-.49-1.85-1.69-7.32-2.18-9.6-3.62,12.9-8.79,34.37-3.02,44.23,1.31,5.58,4.67,12.2,8.76,19.01,4.88,8.14,11.83,20.02,12.46,22.51.02.05.04.1.06.15,3.76,9.12,9.53,21.16,9.75,41.37v.15c.04,4.28-.16,8.91-.68,13.97-1.31,12.52-10.98,39.25-14.59,52.02-8.03,28.39-12.57,45.42-13.16,55.43-.76,12.92,1,16.96,2.57,24.79,3.04,15.21.82,28.37-2.8,40.42-6.7,22.28-13.72,32.19-14.43,43.89-.18,2.91,2.02,4.13.81,7.83-.63,1.92-1.7,3.76-.08,8.04,5.46,14.48,12.56,18.28,11.72,23.57-.93,5.86-20.64,5.49-28.35,4.17-6.35-1.09-6.27-10.06-4.44-20.34.37-2.08.56-4.4.42-7.96-.07-1.75-.55-3.8-.8-6.28-.23-2.28.44-4.69.8-6.59.27-1.45.55-2.61.6-3.22,1.71-22.38,1.18-27.75-1.64-48.79-2.86-21.26,1.14-25.08.64-38.08-.3-7.71-2.64-15.58-3.26-23.92-.79-10.47.29-20.35,1.4-27.79,3.06-20.58,3.04-23.9,4.03-40.16,1.07-17.66-4.59-26.31-1.36-41.54-.75.26-2.58.39-4.4.37-1.82-.01-3.65-.11-4.4-.37,3.23,15.23-2.43,23.88-1.36,41.54.99,16.26.97,19.58,4.03,40.16,1.11,7.44,2.2,17.32,1.41,27.79-.63,8.34-2.97,16.21-3.27,23.92-.5,13,3.5,16.82.65,38.08-2.82,21.04-3.35,26.41-1.65,48.79.05.61.33,1.77.6,3.22.37,1.9,1.03,4.31.8,6.59-.25,2.48-.72,4.53-.8,6.28-.14,3.56.05,5.88.42,7.96,1.83,10.28,1.92,19.25-4.43,20.34-7.72,1.32-27.43,1.69-28.36-4.17-.84-5.29,6.27-9.09,11.73-23.57,1.61-4.28.55-6.12-.08-8.04-1.21-3.7.98-4.92.81-7.83-.72-11.7-7.74-21.61-14.43-43.89-3.62-12.05-5.85-25.21-2.8-40.42,1.57-7.83,3.33-11.87,2.56-24.79-.59-10.01-5.13-27.04-13.15-55.43-3.61-12.77-13.28-39.5-14.59-52.02-.53-5.06-.73-9.69-.69-13.97v-.15c.23-20.21,5.99-32.25,9.75-41.37.02-.05.04-.1.06-.15.64-2.49,7.59-14.37,12.47-22.51,4.08-6.81,7.44-13.43,8.75-19.01,5.78-9.86.6-31.33-3.02-44.23-.49,2.28-1.69,7.75-2.18,9.6-3.1,11.72-7.89,25.56-9.74,34.48l-.03.15c-.19.94-.36,1.85-.48,2.68-.28,1.9-1.46,17.81-8.54,35.8-.4,1-.78,1.97-1.15,2.89-.02.05-.04.1-.06.15-5.63,14.19-7.93,19.11-11.93,27.09-2.93,5.84-5.03,10.51-5.36,14.28-.01.05-.01.1-.02.15-.01.1-.03.2-.03.29-.09,1.65,1.69,5.15,2.33,7.35,1.99,6.81-2.03,12.51,2.55,21.41.49.94-2.54,1.07-4.34-.81-2.27-2.37-2.94-8.84-3.01-7.65-.45,7.9-1.84,9.72-2.69,16.17-.63,4.71,1.12,7.31-.25,9.22-1.05,1.46-1.41,1.33-3.98-1.27-1.81-1.82-2.96-3.52-4.12-4.88-2.27-2.64-3.49-5.24-3.69-10.69-.15-4.11.46-7.24,2-13.22.68-2.63,1.43-4.1,2.42-11.5.28-2.16.3-3.46.3-4.42v-.15c0-.55,0-.99.06-1.42.37-3.06,1.95-4.02,2.82-9.76,1.64-10.84,2.73-18.91,4.27-30.19,0-.05.01-.1.02-.15.31-2.3.64-4.71,1-7.33,1.27-9.35,5.52-21.11,10-34.04.01-.05.03-.1.05-.15.26-.74.51-1.48.77-2.23.46-1.33,1.43-11.48,1.81-16.82.46-6.66,4.83-67.75,7.83-76.97,2.23-6.87,4.4-9.63,6.47-10.54v-.02s1.69-.88,2.71-1.29c2.84-1.13,6.35-1.76,10.08-2.41,3.66-.67,10.15-1.41,13.75-2.8,5.33-2.05,9.73-4.61,12.37-11.01,1.12-2.7,1.57-10.21,1.75-15.34-2.54-2.35-4.5-5.38-5.74-10.41-.22-.9-.48-1.97-.73-3.12-2.78.98-3.51-3.3-4.02-4.54-.57-1.36-1.33-1.49-2.08-4.5-.51-2,.37-3.32.01-4.61-.24-.87-.35-3.32.75-4.16.12-.09.27-.14.43-.18-1.65-6.27-2.7-16.51.73-24.35,1.49-3.39,3.32-6.12,5.25-8.29,4.57-5.57,12.1-9.22,20.63-9.22s16.06,3.65,20.63,9.22c1.93,2.17,3.76,4.9,5.25,8.29,3.43,7.84,2.38,18.08.73,24.35.16.04.31.09.43.18,1.1.84.99,3.29.75,4.16-.36,1.29.52,2.61.01,4.61-.75,3.01-1.51,3.14-2.08,4.5-.51,1.24-1.24,5.52-4.02,4.54-.25,1.15-.51,2.22-.73,3.12-1.24,5.03-3.2,8.06-5.74,10.41.18,5.13.63,12.64,1.75,15.34,2.64,6.4,7.04,8.96,12.37,11.01,3.6,1.39,10.09,2.13,13.75,2.8,3.73.65,7.24,1.28,10.08,2.41,1.02.41,2.71,1.29,2.71,1.29v.02c2.07.91,4.24,3.67,6.47,10.54,3,9.22,7.37,70.31,7.83,76.97.38,5.34,1.35,15.49,1.81,16.82.26.75.51,1.49.77,2.23.02.05.04.1.05.15,4.48,12.93,8.73,24.69,10,34.04.36,2.62.69,5.03,1,7.33.01.05.02.1.02.15,1.54,11.28,2.63,19.35,4.27,30.19.87,5.74,2.45,6.7,2.82,9.76.06.43.06.87.06,1.42v.15c0,.96.02,2.26.3,4.42.99,7.4,1.74,8.87,2.42,11.5,1.54,5.98,2.15,9.11,2,13.22Z"/>
  </g>
</svg>