<?xml version="1.0" encoding="UTF-8"?>
<svg id="_레이어_2" data-name="레이어 2" xmlns="http://www.w3.org/2000/svg" viewBox="0 0 192.46 572.46">
  <defs>
    <style>
      .cls-1 {
        fill: #f3a9aa;
        stroke: #231815;
        stroke-miterlimit: 10;
      }
    </style>
  </defs>
  <g id="_레이어_1-2" data-name="레이어 1">
    <path class="cls-1" d="m43.05,105.54c2.99-1.2,6.75-1.81,10.71-2.51,3.66-.66,9.52-1.41,13.12-2.8,5.33-2.05,9.73-4.61,12.37-11.01,1.12-2.7,1.57-10.21,1.75-15.34-2.54-2.35-4.5-5.38-5.74-10.41-.22-.9-.48-1.98-.73-3.12-2.78.98-3.51-3.3-4.02-4.54-.57-1.37-1.32-1.5-2.08-4.5-.51-2.01.37-3.32.01-4.61-.24-.87-.35-3.32.75-4.16.12-.09.27-.14.43-.19-1.65-6.26-2.7-16.5.73-24.34,1.49-3.39,3.32-6.13,5.25-8.29,4.57-5.58,12.1-9.22,20.63-9.22s16.07,3.64,20.63,9.22c1.94,2.16,3.77,4.9,5.26,8.29,3.43,7.84,2.38,18.08.73,24.34.16.05.31.1.42.19,1.11.84,1,3.29.76,4.16-.36,1.29.51,2.6.01,4.61-.75,3-1.51,3.13-2.08,4.5-.52,1.24-1.24,5.52-4.02,4.54-.25,1.14-.52,2.22-.74,3.12-1.23,5.03-3.19,8.06-5.73,10.41.18,5.13.63,12.64,1.74,15.34,2.65,6.4,7.05,8.96,12.38,11.01,3.53,1.37,9.23,2.11,12.91,2.76.27.05.54.09.81.14,3.74.65,7.27,1.28,10.1,2.41,1.03.41,2.71,1.3,2.71,1.3v.02c2.08.91,4.25,3.66,6.48,10.54,2.99,9.21,7.36,70.3,7.83,76.97.37,5.34,1.35,15.48,1.81,16.82.26.75.51,1.49.77,2.23.02.06.04.11.06.17,4.48,12.92,8.72,24.67,9.99,34.02.36,2.61.69,5.03,1,7.33,0,.05.02.11.02.16,1.53,11.27,2.63,19.33,4.27,30.17.86,5.75,2.44,6.71,2.82,9.76.05.44.05.88.05,1.43,0,.73,0,1.76.23,3.47.17,1.55.34,2.94.57,4.36.75,4.71,1.36,6.07,1.93,8.24,1.54,5.98,2.14,9.1,1.99,13.22-.2,5.44-1.42,8.05-3.68,10.69-1.16,1.36-2.31,3.05-4.12,4.88-2.57,2.6-2.93,2.72-3.98,1.26-1.37-1.9.37-4.5-.25-9.21-.85-6.46-2.24-8.27-2.69-16.17-.07-1.19-.74,5.28-3.01,7.65-1.8,1.88-4.84,1.75-4.35.8,4.59-8.89.57-14.59,2.56-21.4.64-2.2,2.42-5.7,2.33-7.35,0-.13-.04-.27-.05-.4,0-.04,0-.08-.01-.12-.35-3.76-2.44-8.4-5.35-14.2-4.02-8-6.37-12.9-11.98-27.2-.28-.71-.57-1.44-.87-2.21-.38-.96-.75-1.92-1.11-2.89-6.36-17.07-7.45-31.8-7.72-33.63-.13-.85-.3-1.8-.51-2.78,0-.04-.02-.08-.03-.12-1.86-8.92-6.62-22.72-9.71-34.4-.49-1.85-1.69-7.31-2.18-9.59-.15.51-.27,1.04-.41,1.55-.23,7.31.91,26.37,4.34,42.57,1.16,7.02,3.15,14.57,5,21.01,5.72,7.49,9.94,15.47,12.24,20.73.05.1.09.2.13.3,3.82,9.15,10.13,21.1,10.26,41.22,0,.11,0,.2.01.3.02,4.28-.17,8.91-.72,13.96-1.38,12.52-11.57,39.26-15.37,52.03-8.45,28.39-13.23,45.42-13.85,55.42-.81,12.93,1.05,16.97,2.7,24.8,3.21,15.21.87,28.36-2.95,40.42-7.05,22.28-14.44,32.19-15.19,43.88-.19,2.92,2.12,4.14.85,7.83-.66,1.93-1.79,3.77-.09,8.05,5.75,14.48,13.23,18.27,12.35,23.56-.98,5.86-21.74,5.5-29.86,4.18-6.69-1.09-6.6-10.06-4.67-20.34.39-2.08.59-4.4.44-7.96-.08-1.76-.58-3.81-.84-6.28-.24-2.28.46-4.69.84-6.6.29-1.44.58-2.6.63-3.21,1.8-22.38,1.24-27.75-1.73-48.79-3-21.27,1.21-25.08.68-38.08-.31-7.71-2.78-15.58-3.44-23.92-.83-10.47.32-20.36,1.48-27.8,3.22-20.57,3.21-23.89,4.25-40.15,1.13-17.66-4.83-26.32-1.44-41.55-.78.27-2.71.38-4.63.38s-3.85-.11-4.63-.38c3.4,15.23-2.56,23.89-1.44,41.55,1.05,16.26,1.03,19.58,4.25,40.15,1.17,7.44,2.31,17.33,1.48,27.8-.66,8.34-3.12,16.21-3.44,23.92-.53,13,3.68,16.81.68,38.08-2.97,21.04-3.53,26.41-1.73,48.79.05.61.34,1.77.63,3.21.38,1.91,1.08,4.32.84,6.6-.27,2.47-.76,4.52-.84,6.28-.15,3.56.05,5.88.44,7.96,1.93,10.28,2.02,19.25-4.67,20.34-8.12,1.32-28.88,1.68-29.86-4.18-.88-5.29,6.6-9.08,12.35-23.56,1.7-4.28.58-6.12-.09-8.05-1.27-3.69,1.04-4.91.86-7.83-.75-11.69-8.15-21.6-15.2-43.88-3.81-12.06-6.16-25.21-2.95-40.42,1.65-7.83,3.51-11.87,2.7-24.8-.62-10-5.4-27.03-13.85-55.42-3.8-12.77-13.99-39.51-15.36-52.03-.56-5.05-.75-9.68-.73-13.96,0-.1,0-.19.01-.3.13-20.12,6.44-32.07,10.26-41.22.04-.1.08-.2.13-.3,2.31-5.25,6.51-13.23,12.25-20.73,1.85-6.44,3.84-13.99,5-21.01,3.48-16.29,4.47-35.67,4.23-42.96-.13-.28-.25-.54-.39-.77-.51,2.37-1.63,7.44-2.1,9.2-1.55,5.86-3.52,12.25-5.34,18.3-1.81,6.04-3.48,11.72-4.4,16.18-.01.05-.02.11-.03.16-.19.94-.36,1.85-.48,2.66-.27,1.91-1.46,17.82-8.54,35.8-.4,1.01-.78,1.97-1.15,2.9-.01.03-.04.1-.05.12-5.64,14.21-7.94,19.13-11.94,27.12-2.93,5.84-5.03,10.51-5.36,14.28-.02.12-.03.25-.04.37,0,.09-.01.18,0,.27.04,1.71,1.71,5.04,2.33,7.15,1.99,6.81-2.03,12.51,2.55,21.4.49.95-2.54,1.08-4.34-.8-2.27-2.37-2.94-8.84-3.01-7.65-.45,7.9-1.84,9.71-2.69,16.17-.63,4.71,1.12,7.31-.25,9.21-1.05,1.46-1.41,1.34-3.98-1.26-1.81-1.83-2.96-3.52-4.12-4.88-2.26-2.64-3.49-5.25-3.69-10.69-.15-4.12.46-7.24,2-13.22.68-2.64,1.43-4.11,2.42-11.5.3-2.25.3-3.57.3-4.53,0-.04,0-.12,0-.16,0-.48,0-.88.06-1.27,0-.04,0-.08.01-.12.4-2.99,1.95-3.98,2.81-9.68,1.65-10.88,2.74-18.95,4.29-30.3,0-.05.01-.1.02-.14.31-2.27.63-4.65.99-7.22,1.28-9.38,5.54-21.18,10.04-34.15.02-.05.03-.1.05-.15.25-.7.48-1.41.73-2.12.46-1.34,1.43-11.48,1.81-16.82.46-6.67,4.83-67.76,7.83-76.97,2.23-6.88,4.4-9.63,6.47-10.54v-.02s1.69-.89,2.71-1.3Z"/>
  </g>
</svg>