<?xml version="1.0" encoding="UTF-8"?>
<svg id="_레이어_2" data-name="레이어 2" xmlns="http://www.w3.org/2000/svg" viewBox="0 0 192.46 571.79">
  <defs>
    <style>
      .cls-1 {
        fill: #f3a9aa;
        stroke: #231815;
        stroke-miterlimit: 10;
      }
    </style>
  </defs>
  <g id="_레이어_1-2" data-name="레이어 1">
    <path class="cls-1" d="m43.05,105.51c2.94-1.18,6.62-1.78,10.5-2.48,3.66-.66,9.73-1.41,13.33-2.8,5.33-2.05,9.73-4.61,12.37-11.01,1.12-2.7,1.57-10.21,1.75-15.34-2.54-2.35-4.5-5.38-5.74-10.41-.22-.9-.48-1.97-.73-3.12-2.78.98-3.51-3.3-4.02-4.54-.57-1.37-1.32-1.5-2.08-4.5-.51-2.01.37-3.32.01-4.61-.24-.87-.35-3.32.75-4.16.12-.09.27-.14.43-.18-1.65-6.26-2.7-16.51.73-24.34,1.49-3.39,3.32-6.12,5.25-8.29,4.57-5.58,12.1-9.22,20.63-9.22s16.06,3.64,20.63,9.22c1.93,2.17,3.76,4.9,5.25,8.29,3.43,7.84,2.38,18.08.73,24.34.16.05.31.09.43.18,1.1.84.99,3.29.75,4.16-.36,1.29.52,2.6.01,4.61-.76,3-1.51,3.13-2.08,4.5-.51,1.24-1.24,5.52-4.02,4.54-.25,1.15-.51,2.22-.73,3.12-1.24,5.03-3.2,8.06-5.74,10.41.18,5.13.63,12.64,1.75,15.34,2.64,6.4,7.04,8.96,12.37,11.01,3.47,1.34,9.23,2.08,12.93,2.73.27.05.54.09.8.14,3.73.66,7.26,1.27,10.1,2.41,1.02.41,2.71,1.3,2.71,1.3v.02c2.07.91,4.24,3.66,6.47,10.54,3,9.22,7.37,70.3,7.83,76.97.38,5.34,1.35,15.48,1.81,16.82.26.75.51,1.49.77,2.23.02.05.04.11.05.16,4.48,12.93,8.72,24.68,10,34.03.36,2.61.69,5.03,1,7.33,0,.05.02.11.02.16,1.54,11.28,2.63,19.34,4.27,30.18.87,5.74,2.42,6.71,2.82,9.76.06.44.06.88.06,1.42,0,.49,0,1.22.15,2.36.12,1.36.24,2.72.48,4.39.83,5.6,1.49,7,2.09,9.32,1.54,5.98,2.15,9.1,2,13.22-.2,5.45-1.42,8.05-3.69,10.69-1.16,1.36-2.31,3.06-4.12,4.88-2.57,2.6-2.93,2.72-3.98,1.26-1.37-1.9.38-4.51-.25-9.21-.85-6.46-2.24-8.27-2.69-16.17-.07-1.19-.74,5.28-3.01,7.65-1.8,1.88-4.83,1.75-4.34.81,4.58-8.9.56-14.6,2.55-21.41.64-2.2,2.42-5.7,2.33-7.35,0-.11-.03-.25-.04-.37,0-.04,0-.09-.02-.13-.35-3.76-2.44-8.41-5.35-14.22-4-8-6.31-12.92-11.96-27.17-.2-.49-.4-.99-.61-1.53-.38-.95-.75-1.91-1.12-2.89-6.59-17.38-7.72-32.5-7.99-34.35-.12-.84-.3-1.78-.5-2.75,0-.05-.02-.09-.03-.14-.92-4.44-2.58-10.09-4.38-16.09-1.82-6.06-3.8-12.46-5.35-18.33-.49-1.85-1.69-7.31-2.18-9.59-.14.51-.28,1.03-.41,1.55-1.27,9.24-.11,28.87,3.01,42.61.76,3.36,2.4,13.2,3.63,20.89,1.78,11.19,1.56,13.73,3.02,20.77,0,0,0,0,0,0,3.16,9.1,7.93,21.13,8.09,41.22v.3c.02,4.19-.15,8.73-.58,13.67-1.1,12.52-9.23,39.25-12.26,52.02-6.75,28.39-10.57,45.42-11.07,55.43-.65,12.92.83,16.96,2.15,24.79,2.56,15.21.69,28.37-2.35,40.42-5.63,22.28-11.53,32.19-12.13,43.89-.15,2.91,1.69,4.13.68,7.83-.53,1.92-1.43,3.76-.07,8.04,4.59,14.48,10.56,18.28,9.86,23.57-.79,5.86-17.35,5.49-23.84,4.17-5.34-1.09-5.27-10.06-3.73-20.34.31-2.08.47-4.4.35-7.96-.06-1.75-.46-3.8-.67-6.28-.19-2.28.37-4.69.67-6.59.23-1.45.47-2.61.51-3.22,1.43-22.38.98-27.75-1.39-48.79-2.39-21.26.97-25.08.55-38.08-.25-7.71-2.22-15.58-2.75-23.92-.66-10.47.25-20.35,1.18-27.8,2.58-20.57,2.56-23.89,3.39-40.15.9-17.66-3.85-26.31-1.14-41.54-.63.26-2.17.38-3.7.37-1.53-.01-3.07-.11-3.7-.37,2.71,15.23-2.04,23.88-1.14,41.54.83,16.26.81,19.58,3.39,40.15.93,7.45,1.84,17.33,1.18,27.8-.53,8.34-2.5,16.21-2.75,23.92-.42,13,2.94,16.82.55,38.08-2.38,21.04-2.82,26.41-1.39,48.79.04.61.28,1.77.51,3.22.3,1.9.86,4.31.67,6.59-.21,2.48-.61,4.53-.67,6.28-.12,3.56.04,5.88.35,7.96,1.54,10.28,1.61,19.25-3.73,20.34-6.49,1.32-23.05,1.69-23.84-4.17-.7-5.29,5.27-9.09,9.86-23.57,1.36-4.28.46-6.12-.07-8.04-1.01-3.7.83-4.92.68-7.83-.6-11.7-6.5-21.61-12.13-43.89-3.04-12.05-4.91-25.21-2.35-40.42,1.32-7.83,2.8-11.87,2.15-24.79-.49-10.01-4.31-27.04-11.06-55.43-3.03-12.77-11.16-39.5-12.26-52.02-.43-4.94-.6-9.48-.58-13.67v-.3c.16-20.09,4.92-32.12,8.09-41.22,0,0,0,0,0,0,1.46-7.09,1.24-9.8,3.05-21.12,1.22-7.6,2.86-17.3,3.6-20.54,3.19-13.92,4.17-34.23,2.8-43.38-.12-.04-.24-.04-.37,0-.53,2.45-1.57,7.14-2.01,8.82-1.55,5.86-3.52,12.26-5.34,18.31-1.81,6.04-3.49,11.72-4.4,16.18-.01.05-.02.1-.03.16-.19.94-.36,1.85-.48,2.67-.28,1.91-1.46,17.81-8.54,35.8-.4,1.01-.78,1.97-1.15,2.89-.02.04-.04.09-.05.13-5.64,14.21-7.94,19.12-11.94,27.11-2.93,5.84-5.03,10.51-5.36,14.28-.02.1-.03.2-.04.3,0,.09-.02.18-.01.28,0,1.69,1.71,5.07,2.33,7.22,1.99,6.81-2.03,12.51,2.55,21.41.49.94-2.54,1.07-4.34-.81-2.27-2.37-2.94-8.84-3.01-7.65-.45,7.9-1.84,9.71-2.69,16.17-.63,4.71,1.12,7.31-.25,9.21-1.05,1.46-1.41,1.33-3.98-1.26-1.81-1.83-2.96-3.52-4.12-4.88-2.27-2.64-3.49-5.24-3.69-10.69-.15-4.11.46-7.24,2-13.22.68-2.64,1.43-4.11,2.42-11.5.29-2.22.3-3.53.3-4.5,0-.03,0-.13,0-.16,0-.48,0-.88.05-1.28,0-.04,0-.08.02-.12.4-3.01,1.95-3.99,2.81-9.7,1.65-10.87,2.74-18.94,4.28-30.26,0-.05.01-.1.02-.15.31-2.28.63-4.67.99-7.26,1.28-9.37,5.54-21.16,10.03-34.11.01-.05.03-.1.05-.15.25-.72.49-1.43.74-2.16.46-1.34,1.43-11.48,1.81-16.82.46-6.67,4.83-67.75,7.83-76.97,2.23-6.88,4.4-9.63,6.47-10.54v-.02s1.69-.89,2.71-1.3Z"/>
  </g>
</svg>