<?xml version="1.0" encoding="UTF-8"?>
<svg id="_레이어_2" data-name="레이어 2" xmlns="http://www.w3.org/2000/svg" viewBox="0 0 192.46 571.93">
  <defs>
    <style>
      .cls-1 {
        fill: #f3a9aa;
        stroke: #231815;
        stroke-miterlimit: 10;
      }
    </style>
  </defs>
  <g id="_레이어_1-2" data-name="레이어 1">
    <path class="cls-1" d="m43.05,105.51c2.94-1.18,6.62-1.78,10.5-2.48,3.66-.66,9.73-1.41,13.33-2.8,5.33-2.05,9.73-4.61,12.37-11.01,1.12-2.7,1.57-10.21,1.75-15.34-2.54-2.35-4.5-5.38-5.74-10.41-.22-.9-.48-1.97-.73-3.12-2.78.98-3.51-3.3-4.02-4.54-.57-1.37-1.32-1.5-2.08-4.5-.51-2.01.37-3.32.01-4.61-.24-.87-.35-3.33.75-4.16.12-.09.27-.14.43-.18-1.65-6.26-2.7-16.51.73-24.34,1.49-3.39,3.32-6.12,5.25-8.29,4.57-5.58,12.1-9.22,20.63-9.22s16.07,3.64,20.63,9.22c1.93,2.17,3.76,4.9,5.25,8.29,3.43,7.84,2.38,18.08.73,24.34.16.05.31.1.42.18,1.1.84.99,3.29.76,4.16-.36,1.29.52,2.6.01,4.61-.75,3.01-1.51,3.14-2.08,4.5-.52,1.24-1.24,5.52-4.02,4.54-.25,1.15-.52,2.22-.73,3.12-1.24,5.03-3.2,8.06-5.74,10.41.18,5.13.63,12.64,1.74,15.34,2.65,6.4,7.05,8.96,12.38,11.01,3.47,1.34,9.22,2.08,12.92,2.73.28.05.55.1.81.14,3.74.66,7.26,1.28,10.09,2.41,1.03.41,2.71,1.3,2.71,1.3v.02c2.08.91,4.24,3.66,6.48,10.54,2.99,9.22,7.36,70.3,7.83,76.97.38,5.34,1.35,15.48,1.81,16.82.26.75.51,1.49.77,2.23.02.05.04.11.06.16,4.48,12.93,8.72,24.68,10,34.03.36,2.61.69,5.03,1,7.33,0,.05.02.11.02.16,1.53,11.28,2.63,19.34,4.27,30.18.86,5.74,2.44,6.7,2.82,9.76.05.43.05.88.05,1.42,0,.49,0,1.22.16,2.36.12,1.36.24,2.72.48,4.39.83,5.6,1.49,7,2.09,9.32,1.54,5.98,2.15,9.1,1.99,13.22-.2,5.45-1.42,8.05-3.68,10.69-1.16,1.36-2.31,3.06-4.12,4.88-2.57,2.6-2.93,2.72-3.98,1.26-1.37-1.9.38-4.51-.25-9.21-.85-6.46-2.24-8.27-2.69-16.17-.07-1.19-.74,5.28-3.01,7.65-1.8,1.88-4.84,1.75-4.34.81,4.58-8.9.56-14.6,2.55-21.41.64-2.2,2.42-5.7,2.33-7.35,0-.11-.03-.25-.04-.37,0-.04,0-.09-.02-.13-.35-3.76-2.44-8.41-5.35-14.22-4.01-8-6.37-12.89-11.97-27.17-.19-.49-.39-.99-.6-1.53-.38-.95-.75-1.91-1.12-2.89-6.6-17.38-7.72-32.5-7.99-34.35-.12-.84-.3-1.78-.5-2.75,0-.04-.02-.09-.03-.13-1.84-8.93-6.63-22.73-9.72-34.43-.49-1.85-1.69-7.31-2.18-9.59-.15.51-.28,1.03-.41,1.55-1.27,9.24-1.03,29.11,3.01,42.61,0,0,0,0,0,0,.01.06.02.11.03.17,1.19,6.18,2.16,12.23,4.02,19.33,2.2,8.46,3.03,12.85,3.93,17.11.4,1.25.64,2.12.81,2.59.25.71.52,1.47.81,2.31,0,0-.02,0-.02.01.03.09.06.18.1.28,3.32,9.12,8.44,21.13,8.61,41.22v.15c.03,4.23-.15,8.82-.61,13.81-1.17,12.52-9.82,39.26-13.04,52.03-7.18,28.39-11.24,45.42-11.76,55.42-.68,12.93.89,16.97,2.29,24.8,2.72,15.21.74,28.36-2.5,40.42-5.99,22.28-12.26,32.19-12.9,43.88-.16,2.92,1.81,4.14.73,7.83-.57,1.93-1.52,3.77-.08,8.05,4.88,14.48,11.23,18.27,10.48,23.56-.83,5.86-18.45,5.5-25.34,4.18-5.68-1.09-5.6-10.06-3.96-20.34.33-2.08.5-4.4.37-7.96-.07-1.76-.5-3.81-.72-6.28-.21-2.28.4-4.69.72-6.6.24-1.44.49-2.6.54-3.21,1.68-22.37,1.05-27.75-1.48-48.79-2.54-21.27,1.03-25.08.58-38.08-.27-7.71-2.36-15.58-2.92-23.92-.7-10.47.27-20.36,1.26-27.8,2.73-20.57,2.72-23.89,3.6-40.15.96-17.66-4.1-26.32-1.21-41.55-.67.27-2.31.39-3.94.38-1.62,0-3.26-.11-3.93-.38,2.89,15.23-2.17,23.89-1.22,41.55.89,16.26.87,19.58,3.61,40.15.99,7.44,1.96,17.33,1.25,27.8-.56,8.34-2.65,16.21-2.91,23.92-.45,13,3.12,16.81.57,38.08-2.52,21.04-2.99,26.41-1.47,48.79.04.61.3,1.77.54,3.21.32,1.91.92,4.32.71,6.6-.22,2.47-.65,4.52-.71,6.28-.13,3.56.04,5.88.37,7.96,1.64,10.28,1.71,19.25-3.96,20.34-6.9,1.32-24.51,1.68-25.34-4.18-.75-5.29,5.59-9.08,10.47-23.56,1.45-4.28.5-6.12-.07-8.05-1.08-3.69.88-4.91.73-7.83-.64-11.69-6.92-21.6-12.9-43.88-3.24-12.06-5.23-25.21-2.5-40.42,1.4-7.83,2.97-11.87,2.29-24.8-.53-10-4.58-27.03-11.76-55.42-3.22-12.77-11.87-39.51-13.04-52.03-.46-4.99-.64-9.58-.61-13.81v-.15c.17-20.2,5.39-32.21,8.66-41.37.03-.1.06-.19.1-.28,0,0-.02-.02-.01-.03.2-.55.39-1.08.56-1.59.17-.48.41-1.36.81-2.61,1.04-4.74,1.82-9.14,4.2-18.22,1.85-6.99,2.79-12.86,3.96-18.86,0-.06.02-.12.03-.17,0,0,0,0,0,0,4.14-13.64,4.16-34.13,2.79-43.27-.12-.04-.24-.04-.37,0-.53,2.45-1.57,7.14-2.01,8.82-1.55,5.86-3.52,12.26-5.34,18.31-1.81,6.04-3.49,11.72-4.4,16.18-.01.05-.02.1-.03.16-.19.94-.36,1.85-.48,2.67-.28,1.91-1.46,17.81-8.54,35.8-.4,1.01-.78,1.97-1.15,2.89-.02.04-.04.09-.05.13-5.64,14.21-7.94,19.12-11.94,27.11-2.93,5.84-5.03,10.51-5.36,14.28-.02.1-.03.2-.04.3,0,.09-.02.18-.01.28,0,1.69,1.71,5.07,2.33,7.22,1.99,6.81-2.03,12.51,2.55,21.41.49.94-2.54,1.07-4.34-.81-2.27-2.37-2.94-8.84-3.01-7.65-.45,7.9-1.84,9.71-2.69,16.17-.63,4.71,1.12,7.31-.25,9.21-1.05,1.46-1.41,1.33-3.98-1.26-1.81-1.83-2.96-3.52-4.12-4.88-2.26-2.64-3.49-5.24-3.69-10.69-.15-4.11.46-7.24,2-13.22.68-2.64,1.43-4.11,2.42-11.5.29-2.22.3-3.53.3-4.5,0-.03,0-.13,0-.16,0-.48,0-.88.05-1.28,0-.04,0-.08.02-.12.4-3.01,1.95-3.99,2.81-9.7,1.65-10.87,2.74-18.94,4.28-30.26,0-.05.01-.1.02-.15.31-2.28.63-4.67.99-7.26,1.28-9.37,5.54-21.16,10.03-34.11.01-.05.03-.1.05-.15.25-.72.49-1.43.74-2.16.46-1.34,1.43-11.48,1.81-16.82.46-6.67,4.83-67.75,7.83-76.97,2.23-6.88,4.4-9.63,6.47-10.54v-.02s1.69-.89,2.71-1.3Z"/>
  </g>
</svg>