<?xml version="1.0" encoding="UTF-8"?>
<svg id="_레이어_2" data-name="레이어 2" xmlns="http://www.w3.org/2000/svg" viewBox="0 0 192.46 572.15">
  <defs>
    <style>
      .cls-1 {
        fill: #f3a9aa;
        stroke: #231815;
        stroke-miterlimit: 10;
      }
    </style>
  </defs>
  <g id="_레이어_1-2" data-name="레이어 1">
    <path class="cls-1" d="m43.05,105.47c2.89-1.15,6.49-1.76,10.29-2.44s9.94-1.41,13.54-2.8c5.33-2.05,9.73-4.61,12.37-11.01,1.12-2.7,1.57-10.21,1.75-15.34-2.54-2.35-4.5-5.38-5.74-10.41-.22-.9-.48-1.97-.73-3.12-2.78.98-3.51-3.3-4.02-4.54-.57-1.36-1.32-1.49-2.08-4.5-.5-2,.37-3.32.01-4.61-.24-.87-.35-3.33.75-4.16.12-.09.27-.14.43-.18-1.65-6.27-2.7-16.51.73-24.35,1.49-3.39,3.32-6.12,5.25-8.29,4.57-5.57,12.1-9.22,20.63-9.22s16.06,3.65,20.63,9.22c1.93,2.17,3.76,4.9,5.25,8.29,3.43,7.84,2.38,18.08.73,24.35.16.04.31.09.43.18,1.1.84.99,3.29.75,4.16-.36,1.29.52,2.61.01,4.61-.75,3.01-1.51,3.14-2.08,4.5-.52,1.24-1.24,5.52-4.02,4.54-.25,1.15-.51,2.22-.73,3.12-1.24,5.03-3.2,8.06-5.74,10.41.18,5.13.63,12.64,1.75,15.34,2.64,6.4,7.04,8.96,12.37,11.01,3.41,1.32,9.21,2.05,12.93,2.69.28.05.55.1.81.14,3.73.66,7.25,1.28,10.09,2.41,1.02.41,2.71,1.29,2.71,1.29v.02c2.07.91,4.24,3.67,6.47,10.54,3,9.22,7.37,70.31,7.83,76.97.38,5.34,1.35,15.49,1.81,16.82.26.75.51,1.49.77,2.23.02.05.04.1.05.16,4.48,12.93,8.73,24.68,10,34.03.36,2.62.69,5.03,1,7.33,0,.05.02.1.02.15,1.54,11.28,2.63,19.34,4.27,30.18.87,5.74,2.43,6.7,2.82,9.76.06.43.06.87.06,1.42,0,.24,0,.69.08,1.26.06,1.16.13,2.49.39,4.4.91,6.5,1.61,7.94,2.25,10.41,1.54,5.98,2.15,9.11,2,13.22-.2,5.45-1.42,8.05-3.69,10.69-1.16,1.36-2.31,3.06-4.12,4.88-2.57,2.6-2.93,2.73-3.98,1.27-1.37-1.91.38-4.51-.25-9.22-.85-6.45-2.24-8.27-2.69-16.17-.07-1.19-.74,5.28-3.01,7.65-1.8,1.88-4.83,1.75-4.34.81,4.58-8.9.56-14.6,2.55-21.41.64-2.2,2.42-5.7,2.33-7.35,0-.1-.03-.22-.04-.33,0-.05,0-.09-.02-.14-.34-3.77-2.43-8.43-5.36-14.25-4.01-7.99-6.35-12.89-11.95-27.13-.11-.27-.22-.55-.33-.84-.37-.93-.75-1.9-1.14-2.89-6.88-17.67-7.99-33.2-8.27-35.08-.12-.84-.29-1.76-.49-2.71,0-.05-.02-.09-.03-.14-1.83-8.93-6.63-22.75-9.73-34.45-.49-1.85-1.69-7.32-2.18-9.6-.14.5-.28,1.02-.42,1.55-2.34,11.16-3.51,31.62,1.2,42.64.02.05.03.1.04.15,1.29,5.89,2.93,11.62,5.93,18.92.97,2.37,1.79,4.37,2.53,6.12,3.49,6.32,5.35,8.39,8.92,16.39.02.05.04.09.06.15,3.76,9.11,9.53,21.15,9.75,41.37v.15c.04,4.27-.16,8.91-.68,13.96-1.31,12.52-10.98,39.26-14.59,52.03-8.03,28.38-12.57,45.41-13.16,55.42-.76,12.92,1,16.97,2.57,24.79,3.04,15.22.82,28.37-2.8,40.42-6.7,22.28-13.72,32.19-14.43,43.89-.18,2.92,2.02,4.14.81,7.83-.63,1.92-1.7,3.76-.08,8.04,5.46,14.49,12.56,18.28,11.72,23.57-.93,5.86-20.64,5.49-28.35,4.17-6.35-1.08-6.27-10.06-4.44-20.34.37-2.07.56-4.4.42-7.95-.07-1.76-.55-3.81-.8-6.28-.23-2.28.44-4.69.8-6.6.27-1.45.55-2.61.6-3.21,1.79-22.38,1.18-27.75-1.64-48.8-2.86-21.26,1.14-25.08.64-38.08-.3-7.7-2.64-15.58-3.26-23.92-.79-10.47.29-20.35,1.4-27.79,3.06-20.57,3.04-23.89,4.03-40.16,1.07-17.65-4.59-26.31-1.36-41.54-.75.26-2.58.4-4.4.38s-3.65-.12-4.4-.38c3.23,15.23-2.43,23.89-1.36,41.54.99,16.27.97,19.59,4.03,40.16,1.11,7.44,2.2,17.32,1.41,27.79-.63,8.34-2.97,16.22-3.27,23.92-.5,13,3.5,16.82.65,38.08-2.82,21.05-3.43,26.42-1.65,48.8.05.6.32,1.76.6,3.21.36,1.91,1.03,4.32.8,6.6-.25,2.47-.73,4.52-.8,6.28-.15,3.55.05,5.88.42,7.95,1.83,10.28,1.92,19.26-4.43,20.34-7.72,1.32-27.43,1.69-28.36-4.17-.84-5.29,6.27-9.08,11.73-23.57,1.61-4.28.55-6.12-.08-8.04-1.21-3.69.98-4.91.81-7.83-.72-11.7-7.74-21.61-14.43-43.89-3.62-12.05-5.85-25.2-2.8-40.42,1.57-7.82,3.33-11.87,2.56-24.79-.59-10.01-5.13-27.04-13.15-55.42-3.61-12.77-13.28-39.51-14.59-52.03-.53-5.05-.73-9.69-.69-13.96v-.15c.23-20.22,5.99-32.26,9.75-41.37.02-.06.04-.1.06-.15,3.39-7.6,5.24-9.85,8.4-15.45.88-2.05,1.87-4.45,3.1-7.42,2.99-7.22,4.62-12.84,5.89-18.61,0-.05.02-.11.04-.16,4.86-11.27,3.37-32.73.88-43.76-.1.19-.22.45-.35.77-.55,2.54-1.51,6.84-1.93,8.44-1.55,5.87-3.53,12.26-5.34,18.31-1.81,6.03-3.49,11.71-4.4,16.17-.01.05-.02.1-.03.15-.19.94-.36,1.85-.48,2.67-.28,1.9-1.42,17.83-8.54,35.8-.4,1-.78,1.97-1.15,2.89-.02.05-.04.09-.06.14-5.63,14.2-7.93,19.12-11.93,27.1-2.93,5.84-5.03,10.51-5.36,14.28-.01.07-.02.15-.03.22,0,.1-.02.19-.02.28-.05,1.67,1.7,5.11,2.33,7.28,1.99,6.81-2.05,12.52,2.55,21.41.49.94-2.54,1.07-4.34-.81-2.27-2.37-2.94-8.84-3.01-7.65-.45,7.9-1.84,9.72-2.69,16.17-.63,4.71,1.12,7.31-.25,9.22-1.05,1.46-1.41,1.33-3.98-1.27-1.81-1.82-2.96-3.52-4.12-4.88-2.27-2.64-3.49-5.24-3.69-10.69-.15-4.11.46-7.24,2-13.22.68-2.63,1.43-4.1,2.42-11.5.29-2.19.3-3.49.3-4.46,0-.01,0-.14,0-.15,0-.49,0-.89.05-1.28,0-.04.01-.08.02-.12.4-3.03,1.95-4.01,2.82-9.73,1.64-10.85,2.73-18.92,4.28-30.22,0-.05.01-.1.02-.15.31-2.29.64-4.69,1-7.29,1.27-9.36,5.53-21.13,10.01-34.08.01-.05.03-.1.05-.15.26-.73.5-1.46.76-2.19.46-1.33,1.43-11.48,1.81-16.82.46-6.66,4.83-67.75,7.83-76.97,2.23-6.87,4.4-9.63,6.47-10.54v-.02s1.69-.88,2.71-1.29Z"/>
  </g>
</svg>