<?xml version="1.0" encoding="UTF-8"?>
<svg id="_레이어_2" data-name="레이어 2" xmlns="http://www.w3.org/2000/svg" viewBox="0 0 192.36 572.01">
  <defs>
    <style>
      .cls-1 {
        fill: #f2a7a9;
        stroke: #221714;
        stroke-miterlimit: 10;
      }
    </style>
  </defs>
  <g id="_레이어_1-2" data-name="레이어 1">
    <path class="cls-1" d="m40.24,106.77v.02c-2.07.91-4.24,3.67-6.47,10.54-3,9.22-7.37,70.31-7.83,76.97-.38,5.34-1.35,15.49-1.81,16.82-.26.74-.5,1.47-.76,2.19-.02.05-.04.1-.05.15-4.48,12.95-8.74,24.72-10.01,34.08-.36,2.6-.69,5.01-1,7.29,0,.05-.02.1-.02.15-1.54,11.3-2.63,19.37-4.27,30.23-.78,5.13-2.12,6.43-2.65,8.87-.08.39-.14.79-.18,1.25-.04.43-.04.89-.05,1.47,0,.02,0,.15,0,.16,0,.64-.03,1.42-.13,2.47-.06.65-.14,1.34-.24,2.11-.62,4.49-1.15,6.56-1.63,8.4-.35,1.33-.66,2.35-.95,3.5-.85,3.42-1.36,5.89-1.56,8.35-.16,1.93-.15,3.62.03,5.37.2,1.93.62,3.46,1.15,4.84.71,1.85,1.55,3.42,2.83,4.96.25.3.5.59.75.86.94,1.03,1.55,1.67,2.37,2.09.59.3,1.1.54,1.59.84,2.08,1.3,2.1,1.21,2.94-.54,1.24-2.6.1-5.13.73-9.67.23-1.66.45-3.12.71-4.59.38-2.11,1-1.94,1.87-3.52.58-.49,1.61-1.63,1.41-3.18.18.85.68,2.51,1.68,3.13,1.39.86,3.73.29,3.34-.9-.5-1.51-.96-2.92-1.35-4.31-.65-2.33-1.17-4.81-1.09-6.76,0-.13.01-.26.02-.39.19-3.46,1.02-6.85.78-10.66-.05-.78-.19-1.68-.34-2.61-.29-1.82-.66-3.68-.41-4.92.01-.09.04-.19.06-.29.01-.05.02-.1.03-.15.78-3.94,2.85-8.56,5.8-14.8.73-1.54,1.43-3.02,2.12-4.53.39-.84.77-1.68,1.16-2.54,2.74-6.13,4.97-12.37,8.22-21.44.02-.05.03-.1.05-.15.34-1,.69-2.02,1.01-3.05.81-2.55,1.4-4.77,1.9-6.45.24-.8.46-1.64.7-2.47,1.41-4.97,2.73-9.95,3.76-14.52,1.51-6.69,2.21-11.8,2.63-13.81.18-.88.36-1.82.57-2.77.01-.05.02-.1.03-.15.46-2.07,1.22-5.26,1.88-7.79.12-.2.25-.4.38-.61,1.52-4.93,3.23-8.96,4.46-11.69.21-.47.98-3.6,1.21-4.36,2.31,12.42,8.25,34.83,6.45,42.57-.48,3.48-1.4,6.88-2.63,10.25t0,0c-1,2.53-2.12,5.25-3.36,8.2-4.78,11.36-6.23,18.4-6.4,20.19-.11.45-.24.91-.37,1.38-.02.05-.03.1-.04.15,0,0,0,0,0,0-.83,3.09-1.78,6.5-2.65,10.39-.03.12-.06.24-.08.36-1,4.57-1.87,9.79-2.35,15.91-.31,3.8-.41,8.13-.21,12.93,0,.1,0,.19,0,.29.17,4.1.46,8.54,1.04,13.3,1.1,8.99,4.63,22.83,7.41,34.08,1.46,5.95,2.82,11.44,3.76,15.69,5.12,23.11,8.28,38.3,9.28,48.16.18,1.8.3,3.44.36,4.92.48,12.11-.86,16.13-2.05,23.73-2.4,15.21-.65,28.36,2.2,40.42,5.28,22.28,10.81,32.19,11.37,43.88.14,2.92-1.59,4.14-.64,7.83.5,1.93,1.34,3.77.06,8.05-4.3,14.48-9.89,18.27-9.23,23.56.73,5.86,16.26,5.5,22.33,4.18,5-1.09,4.94-10.06,3.49-20.34-.29-2.08-.43-4.4-.32-7.96.05-1.76.42-3.81.62-6.28.18-2.28-.33-4.69-.62-6.6-.22-1.44-.44-2.6-.48-3.21-1.4-22.38-.92-27.75,1.3-48.79,2.24-21.27-.91-25.08-.51-38.08.23-7.71,2.08-15.58,2.57-23.93.62-10.46-.23-20.35-1.11-27.79-2.41-20.57-2.39-23.89-3.17-40.15-.85-17.66,3.61-26.32,1.07-41.55.59.27,2.03.38,3.47.38s2.87-.11,3.46-.38c-2.54,15.23,1.92,23.89,1.07,41.55-.78,16.26-.76,19.58-3.17,40.15-.87,7.44-1.73,17.33-1.11,27.79.5,8.35,2.34,16.22,2.57,23.93.4,13-2.75,16.81-.51,38.08,2.23,21.04,2.7,26.41,1.3,48.79-.04.61-.26,1.77-.47,3.21-.28,1.91-.81,4.32-.63,6.6.2,2.47.57,4.52.63,6.28.11,3.56-.04,5.88-.33,7.96-1.44,10.28-1.51,19.25,3.49,20.34,6.08,1.32,21.6,1.68,22.33-4.18.66-5.29-4.93-9.08-9.23-23.56-1.27-4.28-.43-6.12.06-8.05.95-3.69-.78-4.91-.64-7.83.55-11.69,6.1-21.6,11.37-43.88,2.85-12.06,4.6-25.21,2.21-40.42-1.24-7.83-2.63-11.87-2.03-24.8.47-10,4.04-27.03,10.37-55.42,2.84-12.77,10.46-39.51,11.49-52.03.41-5.05.56-9.68.54-13.96,0-.1,0-.19,0-.29-.09-17.75-3.71-29.19-6.57-37.88-.25-.92-.49-1.87-.71-2.84-.02-.05-.02-.11-.04-.16-.11-.48-.23-.96-.34-1.44,0-.41-.33-2.26-1.08-5.45-.91-3.84-2.22-9.21-4.51-15.71-2.6-7.42-4.74-13.71-5.76-19.35,0,0,0,0,0,0-2.41-9.48,2.21-31.37,4.82-42.64.15-.53.29-1.05.43-1.55.49,2.28,1.69,7.75,2.18,9.6,1.55,5.85,3.51,12.22,5.33,18.26,1.81,6.04,3.48,11.73,4.41,16.2,0,.05.02.1.03.14.19.95.37,1.88.49,2.72.28,1.88,1.39,17.41,8.27,35.08.38.99.76,1.96,1.13,2.89.11.29.23.57.33.84,5.64,14.22,7.94,19.14,11.95,27.13,2.92,5.83,5.02,10.49,5.36,14.25,0,.05,0,.09.02.14.01.11.03.23.03.33.09,1.65-1.69,5.15-2.33,7.35-1.99,6.81,2.05,12.52-2.55,21.41-.49.94,2.54,1.07,4.34-.81,2.27-2.37,2.94-8.84,3.01-7.65.45,7.9,1.84,9.72,2.69,16.17.63,4.71-1.12,7.31.25,9.22,1.05,1.46,1.41,1.33,3.98-1.27,1.81-1.82,2.96-3.52,4.12-4.88,2.27-2.64,3.49-5.24,3.69-10.69.15-4.11-.46-7.24-2-13.22-.64-2.48-1.34-3.91-2.25-10.42-.26-1.91-.33-3.24-.39-4.4-.08-.57-.08-1.01-.08-1.26,0-.55,0-.99-.06-1.42-.4-3.05-1.95-4.02-2.82-9.76-1.64-10.84-2.73-18.91-4.27-30.18,0-.05-.01-.1-.02-.15-.31-2.3-.64-4.71-1-7.33-1.27-9.35-5.52-21.11-10-34.03-.01-.05-.03-.1-.05-.16-.26-.74-.51-1.48-.77-2.23-.46-1.33-1.43-11.48-1.81-16.82-.46-6.66-4.83-67.75-7.83-76.97-2.23-6.87-4.4-9.63-6.47-10.54v-.02s-1.69-.88-2.71-1.29c-.14-.06-.29-.1-.43-.16h.27l-36.01-16.03s-.02-.04-.03-.07c-1.12-2.7-1.57-10.21-1.75-15.34,2.54-2.35,4.5-5.38,5.74-10.41.22-.9.48-1.97.73-3.12,2.78.98,3.51-3.3,4.02-4.54.57-1.36,1.32-1.49,2.08-4.5.5-2-.37-3.32,0-4.61.24-.87.35-3.33-.75-4.16-.12-.09-.27-.14-.43-.18,1.65-6.27,2.7-16.51-.73-24.35-1.49-3.39-3.32-6.12-5.25-8.29-4.57-5.57-12.1-9.22-20.63-9.22s-16.06,3.65-20.63,9.22c-1.93,2.17-3.76,4.9-5.25,8.29-3.43,7.84-2.38,18.08-.73,24.35-.16.04-.31.09-.43.18-1.1.84-.99,3.29-.75,4.16.36,1.29-.52,2.61-.01,4.61.76,3.01,1.51,3.14,2.08,4.5.51,1.24,1.24,5.52,4.02,4.54.25,1.15.51,2.22.73,3.12,1.24,5.03,3.2,8.06,5.74,10.41-.18,5.13-.63,12.64-1.75,15.34-.02.04-.04.08-.06.12l-35.88,15.98h.17c-.14.05-.29.1-.43.16-1.02.41-2.71,1.29-2.71,1.29Z"/>
  </g>
</svg>