<?xml version="1.0" encoding="UTF-8"?>
<svg id="_레이어_2" data-name="레이어 2" xmlns="http://www.w3.org/2000/svg" viewBox="0 0 192.46 571.71">
  <defs>
    <style>
      .cls-1 {
        fill: #f2a7a9;
        stroke: #221714;
        stroke-miterlimit: 10;
      }
    </style>
  </defs>
  <g id="_레이어_1-2" data-name="레이어 1">
    <path class="cls-1" d="m187.69,302.04c-.26-1.91-.33-3.24-.39-4.4-.08-.57-.08-1.01-.08-1.26,0-.55,0-.99-.06-1.42-.4-3.05-1.95-4.02-2.82-9.76-1.64-10.84-2.73-18.9-4.27-30.18,0-.05-.01-.1-.02-.15-.31-2.3-.64-4.71-1-7.33-1.27-9.35-5.52-21.11-10-34.03-.01-.05-.03-.1-.05-.16-.26-.74-.51-1.48-.77-2.23-.46-1.33-1.43-11.48-1.81-16.82-.46-6.66-4.83-67.75-7.83-76.97-2.23-6.87-4.4-9.63-6.47-10.54v-.02s-1.69-.88-2.71-1.29c-.27-.11-.56-.21-.84-.31h.63l-36.02-16.04c-1.1-2.77-1.54-10.17-1.72-15.25,2.54-2.35,4.5-5.38,5.74-10.41.22-.9.48-1.97.73-3.12,2.78.98,3.51-3.3,4.02-4.54.57-1.36,1.32-1.49,2.08-4.5.51-2-.37-3.32,0-4.61.24-.87.35-3.33-.75-4.16-.12-.09-.27-.14-.43-.18,1.65-6.27,2.7-16.51-.73-24.35-1.49-3.39-3.32-6.12-5.25-8.29-4.57-5.57-12.1-9.22-20.63-9.22s-16.06,3.65-20.63,9.22c-1.93,2.17-3.76,4.9-5.25,8.29-3.43,7.84-2.38,18.08-.73,24.35-.16.04-.31.09-.43.18-1.1.84-.99,3.29-.75,4.16.36,1.29-.52,2.61-.01,4.61.76,3.01,1.51,3.14,2.08,4.5.51,1.24,1.24,5.52,4.02,4.54.25,1.15.51,2.22.73,3.12,1.24,5.03,3.2,8.06,5.74,10.41-.18,5.08-.62,12.49-1.72,15.25l-36.02,16.04h.63c-.28.1-.57.2-.84.31-1.02.41-2.71,1.29-2.71,1.29v.02c-2.07.91-4.24,3.67-6.47,10.54-3,9.22-7.37,70.31-7.83,76.97-.38,5.34-1.35,15.49-1.81,16.82-.26.74-.5,1.47-.76,2.19-.02.05-.04.1-.05.15-4.48,12.94-8.74,24.72-10.01,34.08-.36,2.6-.69,5.01-1,7.29,0,.05-.02.1-.02.15-1.54,11.3-2.63,19.37-4.28,30.23-.87,5.72-2.42,6.7-2.82,9.73,0,.04-.01.08-.02.12-.05.39-.05.79-.05,1.28,0,.01,0,.14,0,.15,0,.96-.01,2.27-.3,4.46-.99,7.4-1.74,8.87-2.42,11.5-1.54,5.98-2.15,9.11-2,13.22.2,5.45,1.42,8.05,3.69,10.69,1.16,1.36,2.31,3.06,4.12,4.88,2.57,2.6,2.93,2.73,3.98,1.27,1.37-1.91-.38-4.51.25-9.22.85-6.45,2.24-8.27,2.69-16.17.07-1.19.74,5.28,3.01,7.65,1.8,1.88,4.83,1.75,4.34.81-4.6-8.89-.56-14.6-2.55-21.41-.63-2.17-2.38-5.61-2.33-7.28,0-.09.01-.19.02-.28,0-.07.01-.15.03-.22.33-3.77,2.43-8.44,5.36-14.28,4-7.98,6.24-12.93,11.93-27.1.02-.05.04-.09.06-.14.37-.92.75-1.89,1.15-2.89,7.12-17.97,8.26-33.9,8.54-35.8.12-.83.29-1.73.48-2.68.01-.05.02-.1.03-.15.92-4.46,2.58-10.14,4.4-16.17,1.82-6.05,3.79-12.44,5.34-18.31.42-1.59,1.38-5.89,1.93-8.44.13-.32.25-.59.35-.77,2.49,11.03,7.63,34.12,5.15,43.8,0,0,0,0,0,0-1,5.45-3.15,11.46-5.74,18.65-3.09,8.64-5.7,15.65-7.14,19.87-.66,1.24-1.13,2.13-1.38,2.62-.12.23-.2.39-.22.45-3.09,9.07-7.98,21.01-8.08,40.93,0,.1,0,.2,0,.3v.29c-.02,4.19.15,8.72.58,13.66,1.1,12.52,9.23,39.26,12.26,52.03,6.75,28.39,10.57,45.42,11.06,55.42.65,12.93-.83,16.97-2.15,24.8-2.56,15.21-.69,28.36,2.35,40.42,5.63,22.28,11.53,32.19,12.13,43.88.15,2.92-1.69,4.14-.68,7.83.53,1.93,1.43,3.77.07,8.05-4.59,14.48-10.56,18.27-9.86,23.56.79,5.86,17.35,5.5,23.84,4.18,5.34-1.09,5.27-10.06,3.73-20.34-.31-2.08-.47-4.4-.35-7.96.06-1.76.46-3.81.67-6.28.19-2.28-.37-4.69-.67-6.6-.23-1.44-.47-2.6-.51-3.21-1.43-22.38-.99-27.75,1.39-48.79,2.39-21.27-.97-25.08-.55-38.08.25-7.71,2.22-15.58,2.75-23.93.66-10.46-.25-20.35-1.18-27.79-2.58-20.57-2.56-23.89-3.39-40.15-.9-17.66,3.85-26.32,1.14-41.55.63.27,2.17.37,3.7.38,1.53,0,3.07-.11,3.7-.38-2.71,15.23,2.04,23.89,1.14,41.55-.83,16.26-.81,19.58-3.39,40.15-.93,7.44-1.84,17.33-1.18,27.79.53,8.35,2.5,16.22,2.75,23.93.42,13-2.94,16.81-.55,38.08,2.37,21.04,2.82,26.41,1.39,48.79-.04.61-.28,1.77-.51,3.21-.3,1.91-.86,4.32-.67,6.6.21,2.47.61,4.52.67,6.28.12,3.56-.04,5.88-.35,7.96-1.54,10.28-1.61,19.25,3.73,20.34,6.48,1.32,23.05,1.68,23.84-4.18.7-5.29-5.27-9.08-9.86-23.56-1.36-4.28-.46-6.12.07-8.05,1.01-3.69-.83-4.91-.68-7.83.6-11.69,6.5-21.6,12.13-43.88,3.04-12.06,4.91-25.21,2.35-40.42-1.32-7.83-2.8-11.87-2.16-24.8.5-10,4.32-27.03,11.07-55.42,3.03-12.77,11.16-39.51,12.26-52.03.43-4.94.6-9.47.58-13.66v-.29c0-.1,0-.2,0-.3-.1-19.84-4.93-31.78-8.04-40.82-.03-.08-.1-.24-.2-.44-.18-.36-.52-.99-.98-1.87-.36-.69-.83-1.58-1.4-2.66-1.51-4.22-3.69-10.25-6.18-17.39-2.58-7.42-4.73-13.69-5.76-19.33-2.42-9.48,2.2-31.37,4.81-42.64.15-.53.29-1.05.43-1.55.49,2.28,1.69,7.75,2.18,9.6,1.55,5.85,3.51,12.22,5.33,18.25,1.81,6.04,3.48,11.73,4.41,16.2,0,.05.02.1.03.14.19.95.37,1.88.49,2.71.28,1.88,1.39,17.41,8.27,35.08.38.99.76,1.96,1.13,2.89.12.29.23.57.33.84,5.64,14.22,7.94,19.14,11.95,27.13,2.92,5.83,5.02,10.49,5.36,14.25,0,.05,0,.09.02.14.01.11.03.23.03.33.09,1.65-1.69,5.15-2.33,7.35-1.99,6.81,2.05,12.52-2.55,21.41-.49.94,2.54,1.07,4.34-.81,2.27-2.37,2.94-8.84,3.01-7.65.45,7.9,1.84,9.72,2.69,16.17.63,4.71-1.12,7.31.25,9.22,1.05,1.46,1.41,1.33,3.98-1.27,1.81-1.82,2.96-3.52,4.12-4.88,2.27-2.64,3.49-5.24,3.69-10.69.15-4.11-.46-7.24-2-13.22-.64-2.48-1.34-3.91-2.25-10.42Z"/>
  </g>
</svg>