<?xml version="1.0" encoding="UTF-8"?>
<svg id="_레이어_2" data-name="레이어 2" xmlns="http://www.w3.org/2000/svg" viewBox="0 0 192.46 571.93">
  <defs>
    <style>
      .cls-1 {
        fill: #f2a7a9;
        stroke: #221714;
        stroke-miterlimit: 10;
      }
    </style>
  </defs>
  <g id="_레이어_1-2" data-name="레이어 1">
    <path class="cls-1" d="m179.94,342.08c.16.33.33.61.53.84.83.93,1.34.68,3.34-1.31.21-.21.42-.43.64-.65,1.5-1.57,2.54-3.02,3.55-4.24.17-.21.34-.41.5-.61,2.06-2.49,3.2-5.05,3.42-10.07,0-.21.02-.41.02-.62.11-3.92-.49-7.01-1.95-12.7-.03-.13-.07-.27-.1-.4-.67-2.53-1.41-4.1-2.37-11.31-.29-2.22-.31-3.53-.31-4.5v-.16c0-.48,0-.88-.05-1.28,0-.04,0-.08-.02-.12-.4-3.01-1.95-3.99-2.81-9.7-1.65-10.87-2.74-18.94-4.28-30.26,0-.05-.01-.1-.02-.15-.31-2.28-.63-4.67-.99-7.26-1.28-9.37-5.54-21.16-10.03-34.11-.01-.05-.03-.1-.05-.15-.25-.72-.49-1.43-.74-2.16-.46-1.34-1.44-11.48-1.81-16.82-.46-6.67-4.83-67.75-7.83-76.97-2.23-6.88-4.4-9.63-6.48-10.54v-.02s-1.68-.89-2.71-1.3c-.22-.09-.45-.16-.67-.24h.46l-35.97-16.02s0-.02-.01-.03c-1.11-2.7-1.56-10.21-1.75-15.34,2.54-2.35,4.5-5.38,5.73-10.41.22-.9.49-1.98.74-3.12,2.78.98,3.5-3.3,4.02-4.54.57-1.36,1.33-1.5,2.08-4.5.5-2-.37-3.32-.01-4.61.24-.87.35-3.32-.75-4.16-.12-.09-.27-.14-.42-.19,1.65-6.26,2.7-16.5-.73-24.34-1.49-3.39-3.32-6.12-5.25-8.29-4.56-5.58-12.1-9.22-20.63-9.22s-16.06,3.64-20.63,9.22c-1.93,2.17-3.76,4.9-5.25,8.29-3.43,7.84-2.38,18.08-.73,24.34-.16.05-.31.09-.43.19-1.1.83-.99,3.29-.75,4.16.36,1.29-.52,2.6-.01,4.61.76,3,1.51,3.13,2.08,4.5.51,1.24,1.24,5.52,4.02,4.54.25,1.15.51,2.22.73,3.12,1.24,5.03,3.2,8.06,5.74,10.41-.18,5.13-.63,12.64-1.75,15.34,0,0,0,.02-.01.03l-35.98,16.02h.45c-.22.08-.45.16-.67.24-1.02.41-2.71,1.3-2.71,1.3v.02c-2.07.91-4.24,3.66-6.47,10.54-3,9.21-7.37,70.3-7.83,76.97-.38,5.34-1.35,15.49-1.81,16.82-.26.75-.5,1.49-.77,2.23-.02.05-.04.11-.06.16-4.48,12.93-8.72,24.68-10,34.03-.36,2.61-.69,5.03-1,7.33,0,.05-.02.11-.02.16-1.54,11.28-2.63,19.34-4.27,30.18-.87,5.74-2.42,6.71-2.82,9.76-.06.44-.06.88-.06,1.42,0,.49,0,1.22-.15,2.36-.12,1.35-.24,2.71-.48,4.38-.83,5.61-1.49,7.01-2.09,9.33-1.54,5.98-2.15,9.1-2,13.22.2,5.45,1.42,8.05,3.69,10.69,1.16,1.36,2.31,3.06,4.12,4.88,2.57,2.6,2.93,2.72,3.98,1.26,1.37-1.9-.38-4.5.25-9.21.85-6.46,2.24-8.27,2.69-16.17.07-1.19.74,5.28,3.01,7.65,1.8,1.88,4.83,1.75,4.34.81-4.58-8.9-.56-14.6-2.55-21.41-.64-2.2-2.42-5.7-2.33-7.35,0-.12.03-.25.04-.37,0-.04,0-.09.02-.13.35-3.76,2.44-8.41,5.35-14.22,4-8,6.31-12.92,11.96-27.17.19-.46.4-1.02.6-1.52.38-.94.75-1.91,1.12-2.88,6.6-17.38,7.73-32.51,7.99-34.36.12-.84.3-1.78.49-2.75l.03-.14c.93-4.46,2.59-10.14,4.4-16.16,1.82-6.04,3.78-12.41,5.33-18.26.49-1.85,1.69-7.31,2.18-9.59.14.51.28,1.03.43,1.55,1.44,9.32,3.51,30.13,1,42.6,0,0-.01,0-.01.01-1.06,6.27-3.15,12.64-5.66,19.27-2.79,7.37-4.37,12.29-5.5,16.13-.48,1.26-.79,2.11-.99,2.53-.21.5-.39,1.01-.6,1.54h0c-.04.1-.08.19-.12.29-.44,1.08-.88,2.23-1.36,3.48-.04.1-.07.19-.11.29-3.24,8.55-7.5,19.79-7.9,37.43,0,.1,0,.19-.01.29,0,.02,0,.12,0,.15-.02,1.01-.04,2.04-.03,3.09,0,.09,0,.18,0,.28,0,.02,0,.12,0,.14.02,3.26.16,6.72.46,10.41.08,1.04.2,2.14.34,3.29,1.63,12.98,9.74,38.15,12.83,50.41,7.18,28.39,11.23,45.41,11.76,55.42.68,12.93-.89,16.97-2.29,24.8-2.73,15.21-.74,28.36,2.5,40.42,5.98,22.28,12.26,32.19,12.9,43.88.15,2.92-1.81,4.14-.73,7.83.57,1.93,1.52,3.77.07,8.05-4.88,14.48-11.22,18.27-10.47,23.56.83,5.86,18.44,5.5,25.34,4.18,5.67-1.09,5.6-10.06,3.96-20.34-.33-2.08-.5-4.4-.37-7.96.06-1.76.49-3.81.71-6.28.21-2.28-.39-4.69-.71-6.6-.24-1.44-.5-2.6-.54-3.21-1.52-22.38-1.05-27.75,1.47-48.79,2.55-21.27-1.02-25.08-.57-38.08.26-7.71,2.35-15.58,2.91-23.93.71-10.46-.26-20.35-1.25-27.79-2.74-20.57-2.72-23.89-3.61-40.15-.95-17.66,4.11-26.32,1.22-41.55.67.27,2.31.37,3.93.38,1.63,0,3.27-.11,3.94-.38-2.89,15.23,2.17,23.89,1.21,41.55-.88,16.26-.87,19.58-3.6,40.15-.99,7.44-1.96,17.33-1.26,27.79.56,8.35,2.65,16.22,2.92,23.93.45,13-3.12,16.81-.58,38.08,2.53,21.04,3.16,26.42,1.48,48.79-.05.61-.3,1.77-.54,3.21-.32,1.91-.93,4.32-.72,6.6.22,2.47.65,4.52.72,6.28.13,3.56-.04,5.88-.37,7.96-1.64,10.28-1.72,19.25,3.96,20.34,6.89,1.32,24.51,1.68,25.34-4.18.75-5.29-5.6-9.08-10.48-23.56-1.44-4.28-.48-6.12.08-8.05,1.08-3.69-.89-4.91-.73-7.83.64-11.69,6.91-21.6,12.9-43.88,3.24-12.06,5.22-25.21,2.5-40.42-1.4-7.83-2.97-11.87-2.29-24.8.52-10.01,4.58-27.03,11.76-55.42,3.22-12.77,11.87-39.51,13.04-52.03.46-4.99.64-9.58.61-13.81v-.15c0-.1,0-.19,0-.29-.11-20.01-5.18-32.06-8.65-41.08-.04-.1-.08-.2-.12-.3,0,0,0,0,0,0-.2-.54-.36-1.05-.55-1.56-.18-.46-.46-1.33-.9-2.59-1.36-5.04-3.08-10.48-6.67-19.91-2.02-5.3-3.69-10.44-4.89-15.43-.31-1.28-.58-2.54-.79-3.8-2.33-11.52-.82-29.5.71-38.74.15-.52.28-1.05.43-1.56.3-.23.65-.16.99,0,.39,1.76.91,4.12,1.3,5.72.34,1.41.68,2.76.97,3.79,2.89,10.59,6.93,22.57,8.85,30.97.25,1.08.46,2.11.64,3.05,0,.04.01.08.02.13.12.69.25,1.59.39,2.65.47,3.72,1.96,17.62,7.97,33.35.33.86.66,1.71.99,2.54.39,1,.78,1.95,1.14,2.87,0,.02.04.11.05.13,4.96,12.44,7.27,17.45,10.81,24.55.38.76.75,1.51,1.13,2.27,2.35,4.77,4.08,8.72,4.61,12.03.02.15.06.3.08.45.08.53.06,1.13,0,1.75,0,.05,0,.09,0,.14,0,.09-.01.19-.03.27-.24,1.46-1.19,3.59-1.78,5.32-.24.69-.43,1.36-.56,1.98-1.34,6.19,1.78,11.61-1.97,19.62-.23.49-.04.85.23,1.12.31.31,1.8.25,3.09-.66.4-.29.78-.67,1.11-1.12,1.54-2.16,2.17-6.08,2.38-6.46.13-.23.19-.26.22.17.47,7.06,1.73,9.08,2.56,14.87.06.4.1.79.14,1.19.38,3.98-.87,6.37-.02,8.15Z"/>
  </g>
</svg>