<?xml version="1.0" encoding="UTF-8"?>
<svg id="_레이어_2" data-name="레이어 2" xmlns="http://www.w3.org/2000/svg" viewBox="0 0 192.46 572.08">
  <defs>
    <style>
      .cls-1 {
        fill: #f2a7a9;
        stroke: #221714;
        stroke-miterlimit: 10;
      }
    </style>
  </defs>
  <g id="_레이어_1-2" data-name="레이어 1">
    <path class="cls-1" d="m.54,326.04c.23,5.01,1.36,7.56,3.42,10.05.17.21.35.42.53.64,1,1.21,2.04,2.66,3.53,4.22.23.24.45.46.66.68,1.97,1.96,2.49,2.21,3.31,1.31.21-.23.39-.51.55-.85.85-1.77-.41-4.17-.02-8.14.04-.4.09-.8.14-1.2.83-5.78,2.08-7.8,2.56-14.85.03-.44.09-.41.22-.17.22.39.85,4.29,2.38,6.45.33.46.71.84,1.12,1.13,1.28.91,2.77.97,3.08.66.27-.27.46-.64.23-1.13-3.75-8.01-.63-13.42-1.97-19.61-.13-.62-.32-1.29-.56-1.98-.59-1.72-1.54-3.86-1.78-5.31-.01-.09-.02-.18-.03-.27,0-.05,0-.09,0-.14-.07-.62-.08-1.21,0-1.75.02-.15.05-.3.08-.45.54-3.3,2.26-7.26,4.61-12.02.38-.76.75-1.52,1.13-2.27,3.53-7.1,5.8-12.13,10.8-24.55.02-.04.03-.09.05-.13.37-.91.75-1.87,1.14-2.87.33-.83.66-1.67.99-2.54,6-15.74,7.5-29.63,7.97-33.35.14-1.06.27-1.96.39-2.65,0-.04.01-.09.02-.13.16-.9.36-1.87.59-2.89,1.04-4.61,2.74-10.31,4.54-16.28,1.51-5,3.08-10.17,4.41-15.05.25-.93.56-2.14.87-3.4.41-1.69.98-4.26,1.39-6.12.31-.14.61-.2.88,0,.14.51.29,1.04.43,1.56,1.51,9.14,2.89,26.95-.31,39.17-.2,1.1-.47,2.21-.77,3.32-1.38,5.09-3.45,10.29-5.49,15.76-2.13,5.74-3.63,10.3-4.73,13.97-2.16,3.91-3.41,6.65-4.79,10.15-.02.05-.04.1-.06.15-3.59,9.07-9.11,21.09-9.22,41.22,0,.1,0,.2,0,.3-.02,4.28.15,8.91.65,13.96,1.24,12.52,10.39,39.26,13.81,52.03,7.6,28.39,11.9,45.42,12.46,55.42.72,12.93-.94,16.97-2.43,24.8-2.89,15.21-.78,28.36,2.65,40.42,6.34,22.28,12.99,32.19,13.66,43.88.17,2.92-1.9,4.14-.76,7.83.6,1.93,1.6,3.77.07,8.05-5.17,14.48-11.89,18.27-11.1,23.56.88,5.86,19.55,5.5,26.85,4.18,6.01-1.09,5.93-10.06,4.2-20.34-.35-2.08-.52-4.4-.39-7.96.06-1.76.51-3.81.75-6.28.22-2.28-.41-4.69-.75-6.6-.26-1.44-.53-2.6-.57-3.21-1.54-22.39-1.12-27.75,1.55-48.79,2.7-21.27-1.08-25.08-.61-38.08.29-7.71,2.5-15.58,3.09-23.92.75-10.47-.28-20.36-1.33-27.8-2.89-20.57-2.88-23.89-3.81-40.15-1.02-17.66,4.34-26.32,1.28-41.55.71.27,2.45.37,4.17.38,1.72.01,3.46-.11,4.17-.38-3.06,15.23,2.3,23.89,1.29,41.55-.94,16.26-.92,19.58-3.82,40.15-1.05,7.44-2.08,17.33-1.33,27.8.59,8.34,2.81,16.21,3.09,23.92.47,13-3.31,16.81-.61,38.08,2.67,21.04,3.29,26.42,1.56,48.79-.05.61-.31,1.77-.57,3.21-.34,1.91-.98,4.32-.76,6.6.24,2.47.69,4.52.76,6.28.13,3.56-.05,5.88-.4,7.96-1.73,10.28-1.81,19.25,4.2,20.34,7.31,1.32,25.97,1.68,26.85-4.18.79-5.29-5.93-9.08-11.1-23.56-1.53-4.28-.52-6.12.07-8.05,1.14-3.69-.93-4.91-.76-7.83.67-11.69,7.32-21.6,13.66-43.88,3.43-12.06,5.54-25.21,2.65-40.42-1.48-7.83-3.15-11.87-2.43-24.8.56-10,4.86-27.03,12.46-55.42,3.42-12.77,12.58-39.51,13.81-52.03.5-5.05.67-9.68.66-13.96,0-.1,0-.2,0-.3-.11-19.02-5.09-30.76-8.61-39.65-.02-.04-.03-.09-.05-.13,0,0,0,0,0,0-.42-1.06-.82-2.06-1.22-3.04-.02-.05-.04-.1-.06-.15,0,0,0,0,0,0-1.32-3.22-2.7-6-4.99-10.06-.93-2.97-2.09-6.54-3.64-10.74-2.45-6.63-5.13-12.87-6.24-19.11,0,0,0,0,0,0-3.45-13.12-1.49-33.33-.06-42.6.15-.52.28-1.04.43-1.55.49,2.28,1.69,7.74,2.18,9.59,3.09,11.7,7.86,25.51,9.72,34.43,0,.04.02.09.03.13.2.97.38,1.9.5,2.75.27,1.85,1.39,16.98,7.99,34.36.37.98.75,1.94,1.12,2.88.21.53.41,1.04.6,1.53,5.6,14.27,7.96,19.17,11.97,27.17,2.92,5.81,5.01,10.46,5.35,14.22,0,.04,0,.09.02.13.01.12.04.25.04.37.09,1.65-1.69,5.15-2.33,7.35-1.99,6.81,2.03,12.51-2.55,21.41-.49.94,2.54,1.07,4.34-.81,2.27-2.37,2.94-8.84,3.01-7.65.45,7.9,1.84,9.71,2.69,16.17.62,4.71-1.12,7.31.25,9.21,1.05,1.46,1.41,1.33,3.98-1.27,1.81-1.82,2.96-3.52,4.12-4.88,2.27-2.64,3.48-5.25,3.69-10.69.15-4.12-.46-7.24-2-13.22-.6-2.32-1.26-3.73-2.09-9.33-.24-1.67-.36-3.03-.48-4.38-.15-1.14-.15-1.88-.15-2.36,0-.55,0-.99-.06-1.42-.37-3.06-1.95-4.02-2.82-9.76-1.64-10.84-2.73-18.9-4.27-30.18,0-.05-.01-.11-.02-.16-.31-2.3-.64-4.71-1-7.33-1.27-9.35-5.52-21.1-10-34.03-.01-.05-.03-.11-.05-.16-.26-.74-.51-1.48-.77-2.23-.46-1.33-1.44-11.48-1.81-16.82-.46-6.67-4.83-67.75-7.83-76.97-2.23-6.88-4.4-9.63-6.48-10.54v-.02s-1.69-.89-2.71-1.3c-.15-.06-.31-.11-.46-.17h.25l-35.93-16s-.04-.08-.05-.12c-1.12-2.7-1.57-10.21-1.75-15.34,2.54-2.35,4.5-5.38,5.73-10.41.22-.9.48-1.97.73-3.12,2.78.98,3.51-3.3,4.02-4.54.57-1.36,1.33-1.49,2.08-4.5.51-2-.37-3.32,0-4.61.24-.87.35-3.32-.75-4.16-.12-.09-.27-.14-.43-.18,1.65-6.26,2.7-16.51-.73-24.34-1.49-3.39-3.32-6.12-5.25-8.29-4.56-5.57-12.1-9.22-20.63-9.22s-16.06,3.64-20.63,9.22c-1.93,2.17-3.76,4.9-5.25,8.29-3.43,7.84-2.38,18.08-.73,24.34-.16.05-.31.09-.43.18-1.1.84-.99,3.29-.75,4.16.36,1.29-.52,2.6-.01,4.61.76,3,1.51,3.13,2.08,4.5.51,1.24,1.24,5.52,4.02,4.54.25,1.15.51,2.22.73,3.12,1.24,5.03,3.2,8.06,5.74,10.41-.18,5.13-.63,12.64-1.75,15.34-.02.04-.04.08-.05.12l-35.93,16h.25c-.15.06-.31.11-.46.17-1.02.41-2.71,1.3-2.71,1.3v.02c-2.07.91-4.24,3.66-6.47,10.54-3,9.22-7.37,70.3-7.83,76.97-.38,5.34-1.35,15.49-1.81,16.82-.25.72-.49,1.44-.74,2.16-.02.05-.04.1-.05.15-4.49,12.96-8.75,24.74-10.02,34.11-.36,2.59-.68,4.98-.99,7.26,0,.05-.02.1-.02.15-1.54,11.32-2.63,19.39-4.28,30.26-.86,5.71-2.42,6.69-2.81,9.7,0,.04-.01.08-.02.12-.05.39-.05.79-.05,1.28v.16c0,.97-.01,2.28-.3,4.5-.97,7.21-1.7,8.78-2.37,11.31-.04.14-.07.27-.11.41-1.46,5.68-2.06,8.77-1.95,12.68,0,.22.01.43.02.65Z"/>
  </g>
</svg>