<?xml version="1.0" encoding="UTF-8"?>
<svg id="_레이어_2" data-name="레이어 2" xmlns="http://www.w3.org/2000/svg" viewBox="0 0 192.46 572.01">
  <defs>
    <style>
      .cls-1 {
        fill: #f2a7a9;
        stroke: #221714;
        stroke-miterlimit: 10;
      }
    </style>
  </defs>
  <g id="_레이어_1-2" data-name="레이어 1">
    <path class="cls-1" d="m187.69,302.04c-.26-1.91-.33-3.24-.39-4.4-.07-.57-.07-1.01-.07-1.26,0-.55,0-.99-.06-1.42-.4-3.05-1.95-4.02-2.82-9.76-1.64-10.84-2.73-18.9-4.27-30.18,0-.05-.01-.1-.02-.15-.31-2.3-.64-4.71-1-7.33-1.27-9.35-5.52-21.11-10-34.03-.01-.05-.03-.1-.05-.16-.26-.74-.51-1.48-.77-2.23-.46-1.33-1.43-11.48-1.81-16.82-.46-6.66-4.83-67.75-7.83-76.97-2.23-6.87-4.4-9.63-6.47-10.54v-.02s-1.69-.88-2.71-1.29c-.14-.06-.29-.1-.43-.16h.22l-35.94-16s-.03-.06-.04-.1c-1.12-2.7-1.57-10.21-1.75-15.34,2.54-2.35,4.5-5.38,5.74-10.41.22-.9.48-1.97.73-3.12,2.78.98,3.51-3.3,4.02-4.54.57-1.36,1.32-1.49,2.08-4.5.5-2-.37-3.32,0-4.61.24-.87.35-3.33-.75-4.16-.12-.09-.27-.14-.43-.18,1.65-6.27,2.7-16.51-.73-24.35-1.49-3.39-3.32-6.12-5.25-8.29-4.57-5.57-12.1-9.22-20.63-9.22s-16.06,3.65-20.63,9.22c-1.93,2.17-3.76,4.9-5.25,8.29-3.43,7.84-2.38,18.08-.73,24.35-.16.04-.31.09-.43.18-1.1.83-.99,3.29-.75,4.16.36,1.29-.52,2.61,0,4.61.76,3.01,1.51,3.14,2.08,4.5.51,1.24,1.24,5.52,4.02,4.54.25,1.15.51,2.22.73,3.12,1.24,5.03,3.2,8.06,5.74,10.41-.18,5.13-.63,12.64-1.75,15.34-.01.03-.03.06-.04.09l-35.95,16h.22c-.14.05-.29.1-.43.16-1.02.41-2.71,1.29-2.71,1.29v.02c-2.07.91-4.24,3.67-6.47,10.54-3,9.22-7.37,70.31-7.83,76.97-.38,5.34-1.35,15.49-1.81,16.82-.26.74-.5,1.47-.76,2.19-.02.05-.04.1-.05.15-4.48,12.95-8.74,24.72-10.01,34.08-.36,2.6-.69,5.01-1,7.29,0,.05-.02.1-.02.15-1.54,11.3-2.63,19.37-4.27,30.23-.87,5.72-2.42,6.7-2.82,9.73,0,.04-.01.08-.02.12-.05.39-.05.79-.05,1.28v.15c0,.96-.02,2.27-.3,4.46-.99,7.4-1.74,8.87-2.42,11.5-1.54,5.98-2.15,9.11-2,13.22.2,5.45,1.42,8.05,3.69,10.69,1.16,1.36,2.31,3.06,4.12,4.88,2.57,2.6,2.93,2.73,3.98,1.27,1.37-1.91-.38-4.51.25-9.22.85-6.45,2.24-8.27,2.69-16.17.07-1.19.74,5.28,3.01,7.65,1.8,1.88,4.83,1.75,4.34.81-4.58-8.9-.56-14.6-2.55-21.41-.63-2.17-2.38-5.61-2.33-7.28,0-.09.01-.19.02-.28,0-.07.02-.15.03-.22.33-3.77,2.43-8.44,5.36-14.28,4-7.98,6.3-12.9,11.93-27.1.02-.05.04-.09.06-.14.37-.92.75-1.89,1.15-2.89,7.12-17.97,8.26-33.9,8.54-35.8.12-.83.29-1.73.48-2.68.01-.05.02-.1.03-.15.9-4.46,2.58-10.14,4.4-16.17,1.82-6.05,3.79-12.44,5.34-18.31.42-1.59,1.38-5.89,1.93-8.44.13-.32.25-.59.35-.77,2.49,11.03,6.02,33.11,2.08,43.8-1.84,6.54-3.41,14.48-4.57,20.7-1.83,9.76-2.08,12.33-4.11,20.9-.39,1.64-.78,3.27-1.21,4.85h0c-2.77,8.55-5.96,19.75-6.09,36.66-.03,4.28.13,8.91.55,13.96,1.03,12.52,8.64,39.26,11.49,52.03,6.32,28.39,9.89,45.41,10.36,55.42.6,12.93-.79,16.97-2.02,24.8-2.4,15.21-.65,28.36,2.2,40.42,5.28,22.28,10.81,32.19,11.37,43.88.14,2.92-1.59,4.14-.64,7.83.5,1.93,1.34,3.76.06,8.05-4.3,14.48-9.89,18.27-9.23,23.56.73,5.86,16.26,5.5,22.33,4.18,5-1.09,4.94-10.07,3.49-20.34-.29-2.08-.43-4.4-.32-7.96.05-1.76.42-3.81.62-6.28.18-2.28-.33-4.69-.62-6.6-.22-1.44-.44-2.6-.48-3.21-1.4-22.38-.92-27.75,1.3-48.79,2.24-21.27-.91-25.08-.51-38.08.23-7.71,2.08-15.58,2.57-23.93.62-10.46-.23-20.35-1.11-27.79-2.41-20.57-2.39-23.89-3.17-40.15-.85-17.66,3.61-26.32,1.07-41.55.59.27,2.03.38,3.47.38,1.44,0,2.87-.11,3.46-.38-2.54,15.23,1.92,23.89,1.07,41.55-.78,16.26-.76,19.58-3.17,40.15-.88,7.44-1.73,17.33-1.11,27.79.49,8.35,2.34,16.22,2.57,23.93.4,13-2.75,16.81-.51,38.08,2.22,21.04,2.7,26.41,1.3,48.79-.04.61-.26,1.77-.48,3.21-.28,1.91-.8,4.32-.62,6.6.2,2.47.57,4.52.62,6.28.12,3.56-.03,5.88-.32,7.96-1.45,10.27-1.51,19.25,3.49,20.34,6.07,1.32,21.6,1.68,22.33-4.18.66-5.29-4.93-9.08-9.23-23.56-1.28-4.29-.44-6.12.06-8.05.95-3.69-.78-4.91-.64-7.83.56-11.69,6.09-21.6,11.37-43.88,2.85-12.06,4.6-25.21,2.2-40.42-1.23-7.83-2.62-11.87-2.02-24.8.47-10.01,4.04-27.03,10.36-55.42,2.85-12.77,10.46-39.51,11.49-52.03.42-5.05.58-9.68.55-13.96-.14-17.36-3.49-28.7-6.31-37.34-.35-1.29-.67-2.62-.99-3.96-2.02-8.53-2.28-11.1-4.09-20.89-1.16-6.28-2.73-14.32-4.58-20.92-3.81-10.46-.73-31.44,1.76-42.65.14-.52.28-1.04.43-1.55.49,2.28,1.69,7.75,2.18,9.6,1.55,5.87,3.53,12.27,5.35,18.32,1.81,6.02,3.48,11.68,4.39,16.14,0,.05.02.1.03.14.19.96.37,1.88.49,2.72.28,1.88,1.39,17.41,8.27,35.08.39.99.76,1.96,1.14,2.89.11.29.23.57.33.84,5.64,14.22,7.94,19.14,11.95,27.13,2.92,5.83,5.02,10.49,5.36,14.25,0,.05,0,.09.02.14.01.11.03.23.04.33.09,1.65-1.69,5.15-2.33,7.35-1.99,6.81,2.03,12.51-2.55,21.41-.49.94,2.54,1.07,4.34-.81,2.27-2.37,2.94-8.84,3.01-7.65.45,7.9,1.84,9.72,2.69,16.17.63,4.71-1.12,7.31.25,9.22,1.05,1.46,1.41,1.33,3.98-1.27,1.81-1.82,2.96-3.52,4.12-4.88,2.27-2.64,3.49-5.24,3.69-10.69.15-4.11-.46-7.24-2-13.22-.64-2.48-1.34-3.91-2.25-10.41Z"/>
  </g>
</svg>