<?xml version="1.0" encoding="UTF-8"?>
<svg id="_레이어_2" data-name="레이어 2" xmlns="http://www.w3.org/2000/svg" viewBox="0 0 192.46 572.01">
  <defs>
    <style>
      .cls-1 {
        fill: #f2a7a9;
        stroke: #221714;
        stroke-miterlimit: 10;
      }
    </style>
  </defs>
  <g id="_레이어_1-2" data-name="레이어 1">
    <path class="cls-1" d="m188.02,304.29c-.23-1.42-.4-2.81-.57-4.36-.23-1.71-.23-2.74-.23-3.47,0-.55,0-.99-.05-1.43-.38-3.05-1.96-4.01-2.82-9.76-1.64-10.84-2.74-18.89-4.27-30.17,0-.05-.01-.11-.02-.16-.31-2.3-.64-4.72-1-7.33-1.27-9.35-5.51-21.1-9.99-34.02-.02-.06-.04-.11-.06-.17-.26-.74-.51-1.48-.77-2.23-.46-1.34-1.44-11.48-1.81-16.82-.47-6.67-4.84-67.76-7.83-76.97-2.23-6.88-4.4-9.63-6.48-10.54v-.02s-1.68-.89-2.71-1.3c-.25-.1-.51-.19-.77-.28h.56l-35.98-16.02s0-.02-.01-.02c-1.11-2.7-1.56-10.21-1.74-15.34,2.54-2.35,4.5-5.38,5.73-10.41.22-.9.49-1.98.74-3.12,2.78.98,3.5-3.3,4.02-4.54.57-1.37,1.33-1.5,2.08-4.5.5-2.01-.37-3.32,0-4.61.24-.87.35-3.32-.76-4.16-.11-.09-.26-.14-.42-.19,1.65-6.26,2.7-16.5-.73-24.34-1.49-3.39-3.32-6.13-5.26-8.29-4.56-5.58-12.1-9.22-20.63-9.22s-16.06,3.64-20.63,9.22c-1.93,2.16-3.76,4.9-5.25,8.29-3.43,7.84-2.38,18.08-.73,24.34-.16.05-.31.1-.43.19-1.1.83-.99,3.29-.75,4.16.36,1.29-.52,2.6-.01,4.61.76,3,1.51,3.13,2.08,4.5.51,1.24,1.24,5.52,4.02,4.54.25,1.14.51,2.22.73,3.12,1.24,5.03,3.2,8.06,5.74,10.41-.18,5.13-.63,12.64-1.75,15.34,0,0,0,.02-.01.02l-35.98,16.02h.57c-.26.09-.53.18-.78.28-1.02.41-2.71,1.3-2.71,1.3v.02c-2.07.91-4.24,3.66-6.47,10.54-3,9.21-7.37,70.3-7.83,76.97-.38,5.34-1.35,15.48-1.81,16.82-.25.71-.48,1.42-.73,2.12-.02.05-.04.1-.05.15-4.5,12.98-8.76,24.77-10.04,34.15-.35,2.57-.68,4.96-.99,7.22,0,.05-.01.1-.02.14-1.55,11.34-2.64,19.42-4.29,30.29-.86,5.69-2.41,6.69-2.81,9.68,0,.04,0,.08-.01.12-.05.39-.06.79-.06,1.27v.16c0,.97,0,2.28-.3,4.53-.99,7.39-1.74,8.86-2.42,11.5-1.54,5.98-2.15,9.1-2,13.22.2,5.44,1.43,8.05,3.69,10.69,1.16,1.36,2.31,3.05,4.12,4.88,2.57,2.6,2.93,2.72,3.98,1.26,1.37-1.9-.38-4.5.25-9.21.85-6.46,2.24-8.27,2.69-16.17.07-1.19.74,5.28,3.01,7.65,1.8,1.88,4.83,1.75,4.34.8-4.58-8.89-.56-14.59-2.55-21.4-.62-2.12-2.29-5.44-2.33-7.15,0-.09,0-.18,0-.27,0-.12.02-.25.04-.37.33-3.77,2.43-8.44,5.36-14.28,4-7.99,6.3-12.9,11.94-27.12.02-.04.03-.08.05-.12.37-.93.75-1.89,1.15-2.9,7.08-17.98,8.27-33.89,8.54-35.8.12-.82.29-1.72.48-2.67.01-.05.02-.1.03-.16.91-4.46,2.59-10.15,4.4-16.18,1.82-6.05,3.79-12.44,5.34-18.3.47-1.76,1.58-6.84,2.1-9.21.14.23.26.5.39.77.24,7.28-.62,27.1-3.74,42.96-.99,6-2.58,12.03-3.93,18.16-1.74,7.88-2.9,14.81-3.46,19.11-.49,1.54-.72,2.44-.78,2.61-.21.59-.39,1.11-.56,1.58,0,0,.03,0,.03,0-.02.05-.04.11-.05.13-.02.05-.04.1-.05.15-3.37,9.12-8.49,21.17-8.66,41.37v.15c-.03,4.24.15,8.82.61,13.82,1.17,12.51,9.82,39.25,13.04,52.02,7.18,28.39,11.23,45.42,11.76,55.43.68,12.92-.89,16.96-2.29,24.79-2.73,15.21-.74,28.37,2.5,40.42,5.98,22.28,12.26,32.19,12.9,43.89.15,2.91-1.82,4.13-.73,7.83.57,1.92,1.52,3.76.07,8.04-4.88,14.48-11.22,18.28-10.47,23.57.83,5.86,18.44,5.49,25.34,4.17,5.67-1.09,5.6-10.06,3.96-20.34-.33-2.08-.5-4.4-.37-7.96.06-1.75.49-3.8.71-6.28.21-2.28-.39-4.69-.71-6.59-.24-1.45-.5-2.61-.54-3.22-1.52-22.38-1.05-27.75,1.47-48.79,2.55-21.26-1.02-25.08-.57-38.08.26-7.71,2.35-15.58,2.91-23.92.71-10.47-.26-20.35-1.25-27.8-2.74-20.57-2.72-23.89-3.61-40.15-.95-17.66,4.11-26.31,1.22-41.54.67.26,2.31.35,3.93.37,1.63.01,3.27-.11,3.94-.37-2.89,15.23,2.17,23.88,1.21,41.54-.88,16.26-.87,19.58-3.6,40.15-.99,7.45-1.96,17.33-1.26,27.8.56,8.34,2.65,16.21,2.92,23.92.45,13-3.12,16.82-.58,38.08,2.53,21.04,3.15,26.42,1.48,48.79-.05.61-.3,1.77-.54,3.22-.32,1.9-.93,4.31-.72,6.59.22,2.48.65,4.53.72,6.28.13,3.56-.04,5.88-.37,7.96-1.64,10.28-1.72,19.25,3.96,20.34,6.89,1.32,24.51,1.69,25.34-4.17.75-5.29-5.6-9.09-10.48-23.57-1.44-4.28-.48-6.12.08-8.04,1.08-3.7-.89-4.92-.73-7.83.64-11.7,6.91-21.61,12.9-43.89,3.24-12.05,5.22-25.21,2.5-40.42-1.4-7.83-2.97-11.87-2.29-24.79.52-10.01,4.58-27.04,11.76-55.43,3.22-12.77,11.87-39.51,13.04-52.02.46-5,.64-9.58.61-13.82v-.15c-.17-20.16-5.27-32.21-8.64-41.32-.01-.05-.03-.09-.05-.14,0-.02-.03-.08-.05-.13,0-.01.03-.03.02-.04-.16-.45-.43-1.2-.78-2.17-.07-.19-.29-1.09-.78-2.62-.56-3.97-1.56-9.93-3.01-16.73-1.41-6.59-3.08-13.29-4.17-19.97-3.09-15.78-4.08-35.23-3.85-42.57.14-.52.27-1.04.42-1.55.49,2.28,1.69,7.74,2.18,9.59,3.09,11.68,7.85,25.48,9.71,34.4,0,.04.02.08.03.12.2.99.38,1.93.51,2.79.27,1.83,1.36,16.56,7.72,33.63.36.97.73,1.93,1.11,2.89.3.77.59,1.5.87,2.21,5.61,14.3,7.97,19.2,11.98,27.2,2.91,5.8,5,10.44,5.35,14.2,0,.04,0,.08.01.12,0,.13.04.27.04.4.09,1.65-1.69,5.15-2.33,7.35-1.99,6.81,2.03,12.51-2.56,21.4-.49.95,2.55,1.08,4.35-.8,2.27-2.37,2.94-8.84,3.01-7.65.45,7.9,1.84,9.71,2.69,16.17.62,4.71-1.12,7.31.25,9.21,1.05,1.46,1.41,1.34,3.98-1.26,1.81-1.83,2.96-3.52,4.12-4.88,2.26-2.64,3.48-5.25,3.68-10.69.15-4.12-.45-7.24-1.99-13.22-.56-2.17-1.17-3.54-1.93-8.24Z"/>
  </g>
</svg>