<?xml version="1.0" encoding="UTF-8"?>
<svg id="_레이어_2" data-name="레이어 2" xmlns="http://www.w3.org/2000/svg" viewBox="0 0 192.46 571.65">
  <defs>
    <style>
      .cls-1 {
        fill: #f2a7a9;
        stroke: #221714;
        stroke-miterlimit: 10;
      }
    </style>
  </defs>
  <g id="_레이어_1-2" data-name="레이어 1">
    <path class="cls-1" d="m4.21,336.07c1.16,1.36,2.31,3.05,4.12,4.88,2.57,2.6,2.93,2.73,3.98,1.27,1.37-1.91-.38-4.5.25-9.21.85-6.45,2.24-8.26,2.69-16.16.07-1.19.74,5.28,3.01,7.64,1.8,1.88,4.83,1.75,4.34.81-4.6-8.88-.56-14.58-2.55-21.39-.63-2.17-2.38-5.61-2.33-7.28,0-.09.01-.19.02-.28.01-.07.02-.15.03-.22.33-3.77,2.43-8.43,5.36-14.27,4-7.98,6.3-12.89,11.93-27.07.02-.05.04-.09.06-.14.37-.92.75-1.89,1.15-2.89,7.12-17.95,8.26-33.87,8.54-35.77.12-.83.29-1.73.48-2.67.01-.05.02-.1.03-.15.91-4.46,2.58-10.13,4.4-16.16,1.82-6.04,3.79-12.43,5.34-18.29.42-1.59,1.38-5.89,1.93-8.43.13-.32.25-.59.35-.77,2.49,11.02,6.03,33.08,2.09,43.77-1.15,5.61-3.79,11.22-7.32,17.88-1.81,3.42-3.23,6.09-4.7,8.9-2.38,3.49-4.85,7.51-8.37,14.78-.02.05-.04.1-.06.15-3.71,9.12-9.52,21.14-9.75,41.33v.15c-.04,4.27.16,8.9.69,13.95,1.31,12.51,10.98,39.23,14.59,51.98,8.02,28.37,12.56,45.37,13.15,55.37.77,12.91-.99,16.96-2.56,24.77-3.05,15.21-.82,28.35,2.8,40.38,6.69,22.27,13.71,32.16,14.43,43.85.17,2.92-2.02,4.14-.81,7.82.63,1.92,1.69,3.76.08,8.03-5.46,14.48-12.57,18.26-11.73,23.55.93,5.85,20.64,5.49,28.36,4.17,6.35-1.08,6.26-10.05,4.43-20.31-.37-2.08-.57-4.4-.42-7.95.07-1.76.55-3.81.8-6.27.23-2.28-.44-4.68-.8-6.59-.27-1.44-.55-2.6-.6-3.21-1.77-22.36-1.17-27.73,1.65-48.76,2.85-21.24-1.15-25.05-.65-38.05.3-7.69,2.64-15.57,3.27-23.9.79-10.45-.3-20.33-1.41-27.77-3.06-20.55-3.04-23.87-4.03-40.13-1.07-17.63,4.59-26.29,1.36-41.5.75.27,2.58.36,4.4.38,1.82.02,3.65-.11,4.4-.38-3.23,15.22,2.43,23.87,1.36,41.5-.99,16.26-.97,19.57-4.03,40.13-1.11,7.43-2.19,17.31-1.4,27.77.62,8.33,2.96,16.21,3.26,23.9.5,13-3.5,16.81-.64,38.05,2.82,21.03,3.41,26.39,1.64,48.76-.05.61-.33,1.77-.6,3.21-.36,1.91-1.03,4.32-.8,6.59.25,2.47.73,4.52.8,6.27.14,3.56-.05,5.87-.42,7.95-1.83,10.26-1.91,19.23,4.44,20.31,7.71,1.32,27.42,1.69,28.35-4.17.84-5.29-6.26-9.07-11.72-23.55-1.62-4.28-.55-6.11.08-8.03,1.21-3.69-.99-4.91-.81-7.82.71-11.69,7.73-21.58,14.43-43.85,3.62-12.04,5.84-25.18,2.8-40.38-1.57-7.81-3.33-11.86-2.57-24.77.59-10,5.13-27.01,13.16-55.37,3.61-12.76,13.28-39.48,14.59-51.98.52-5.05.72-9.68.68-13.95v-.15c-.22-20.19-6.04-32.21-9.75-41.33-.02-.05-.04-.1-.06-.15-4.16-8.6-6.84-12.61-9.67-16.65-1.03-1.92-2.07-3.94-3.31-6.31-3.57-6.83-6.21-12.73-7.4-18.6-3.82-10.45-.74-31.41,1.76-42.6.15-.53.28-1.05.43-1.55.49,2.28,1.69,7.74,2.18,9.59,3.1,11.7,7.88,25.51,9.73,34.42,0,.05.02.09.03.14.19.95.37,1.88.49,2.71.28,1.88,1.39,17.39,8.27,35.05.39.99.76,1.95,1.14,2.89.11.29.22.57.33.84,5.59,14.23,7.94,19.12,11.95,27.1,2.92,5.82,5.02,10.48,5.36,14.24,0,.05,0,.09.02.14.01.11.03.22.03.33.09,1.65-1.69,5.15-2.33,7.34-1.99,6.8,2.05,12.51-2.55,21.39-.49.94,2.54,1.07,4.34-.81,2.27-2.37,2.94-8.83,3.01-7.64.45,7.89,1.84,9.71,2.69,16.16.63,4.71-1.12,7.3.25,9.21,1.05,1.46,1.41,1.33,3.98-1.27,1.81-1.82,2.96-3.52,4.12-4.88,2.27-2.64,3.49-5.24,3.69-10.68.15-4.11-.46-7.23-2-13.21-.64-2.47-1.34-3.91-2.26-10.41-.26-1.91-.33-3.24-.39-4.4-.07-.57-.08-1.01-.08-1.25,0-.55,0-.99-.06-1.42-.39-3.05-1.95-4.01-2.82-9.75-1.64-10.83-2.73-18.89-4.27-30.16,0-.05-.01-.1-.02-.15-.31-2.3-.64-4.71-1-7.32-1.27-9.34-5.52-21.09-10-34-.01-.05-.03-.1-.05-.16-.26-.74-.51-1.48-.77-2.23-.46-1.33-1.43-11.47-1.81-16.81-.46-6.66-4.83-67.69-7.83-76.9-2.23-6.87-4.4-9.62-6.47-10.53v-.02s-1.69-.88-2.71-1.29c-.08-.03-.16-.06-.23-.09h.02l-35.9-15.97c-.03-.06-.06-.12-.08-.19-1.12-2.7-1.57-10.2-1.75-15.33,2.54-2.35,4.5-5.38,5.74-10.4.22-.9.48-1.97.73-3.12,2.78.98,3.5-3.3,4.02-4.54.57-1.36,1.33-1.49,2.08-4.5.51-2-.37-3.32-.01-4.61.24-.87.35-3.32-.75-4.16-.12-.09-.27-.14-.43-.18,1.65-6.26,2.7-16.49-.73-24.33-1.49-3.39-3.32-6.12-5.25-8.28-4.57-5.57-12.1-9.21-20.63-9.21s-16.06,3.64-20.63,9.21c-1.93,2.17-3.76,4.9-5.25,8.28-3.43,7.83-2.38,18.06-.73,24.33-.16.04-.31.09-.43.18-1.1.83-.99,3.29-.75,4.16.36,1.29-.51,2.6-.01,4.61.76,3,1.51,3.13,2.08,4.5.51,1.24,1.24,5.52,4.02,4.54.25,1.15.51,2.22.73,3.12,1.24,5.03,3.2,8.05,5.74,10.4-.18,5.13-.63,12.63-1.75,15.33-.03.06-.06.12-.08.18l-35.91,15.97h.02c-.08.03-.16.06-.23.09-1.02.41-2.71,1.29-2.71,1.29v.02c-2.07.91-4.24,3.66-6.47,10.53-3,9.21-7.37,70.25-7.83,76.9-.38,5.34-1.35,15.47-1.81,16.81-.26.74-.5,1.46-.76,2.19-.02.05-.04.1-.05.15-4.48,12.93-8.74,24.7-10.01,34.05-.36,2.6-.69,5-1,7.29,0,.05-.02.1-.02.15-1.54,11.29-2.63,19.36-4.28,30.2-.87,5.72-2.42,6.69-2.82,9.72,0,.04-.01.08-.02.12-.05.39-.05.79-.05,1.28v.15c0,.96-.01,2.27-.3,4.45-.99,7.39-1.74,8.86-2.42,11.49-1.54,5.97-2.15,9.1-2,13.21.2,5.44,1.42,8.04,3.69,10.68Z"/>
  </g>
</svg>