<?xml version="1.0" encoding="UTF-8"?>
<svg id="_레이어_2" data-name="레이어 2" xmlns="http://www.w3.org/2000/svg" viewBox="0 0 192.46 571.79">
  <defs>
    <style>
      .cls-1 {
        fill: #f2a7a9;
        stroke: #221714;
        stroke-miterlimit: 10;
      }
    </style>
  </defs>
  <g id="_레이어_1-2" data-name="레이어 1">
    <path class="cls-1" d="m4.21,336.33c1.16,1.36,2.31,3.06,4.12,4.88,2.57,2.6,2.93,2.73,3.98,1.27,1.37-1.91-.38-4.51.25-9.22.85-6.45,2.24-8.27,2.69-16.17.07-1.19.74,5.28,3.01,7.65,1.8,1.88,4.83,1.75,4.34.81-4.58-8.9-.56-14.6-2.55-21.41-.64-2.2-2.42-5.7-2.33-7.35,0-.09.02-.19.03-.29.01-.05.01-.1.02-.15.33-3.77,2.43-8.44,5.36-14.28,4-7.98,6.3-12.9,11.93-27.09l.06-.15c.37-.92.75-1.89,1.15-2.89,7.08-17.99,8.26-33.9,8.54-35.8.12-.83.29-1.74.48-2.68l.03-.15c1.85-8.92,6.64-22.76,9.74-34.48.49-1.85,1.69-7.32,2.18-9.6,3.62,12.9,6.62,35.33,1.04,44.23h-.01c-.02.05-.03.1-.04.15-1.38,5.57-2.35,10.91-5.29,19.08-4.64,12.89-4.76,13.06-7.94,22.29-3.37,9.12-8.49,21.17-8.66,41.37v.15c-.03,4.23.15,8.82.61,13.81,1.17,12.52,9.82,39.26,13.04,52.03,7.18,28.39,11.23,45.42,11.76,55.42.68,12.93-.89,16.97-2.29,24.8-2.73,15.21-.74,28.36,2.5,40.42,5.98,22.28,12.26,32.19,12.9,43.88.15,2.92-1.81,4.14-.73,7.83.57,1.93,1.52,3.77.07,8.05-4.88,14.48-11.22,18.27-10.47,23.56.83,5.86,18.44,5.5,25.34,4.18,5.67-1.09,5.6-10.06,3.96-20.34-.33-2.08-.5-4.4-.37-7.96.06-1.76.49-3.81.71-6.28.21-2.28-.39-4.69-.71-6.6-.24-1.44-.5-2.6-.54-3.21-1.52-22.38-1.05-27.75,1.47-48.79,2.55-21.27-1.02-25.08-.57-38.08.26-7.71,2.35-15.58,2.91-23.92.71-10.47-.26-20.36-1.25-27.8-2.74-20.57-2.72-23.89-3.61-40.15-.95-17.66,4.11-26.32,1.22-41.55.67.27,2.31.37,3.93.38,1.63.01,3.27-.11,3.94-.38-2.89,15.23,2.17,23.89,1.21,41.55-.88,16.26-.87,19.58-3.6,40.15-.99,7.44-1.96,17.33-1.26,27.8.56,8.34,2.65,16.21,2.92,23.92.45,13-3.12,16.81-.58,38.08,2.53,21.04,3,26.41,1.48,48.79-.05.61-.3,1.77-.54,3.21-.32,1.91-.92,4.32-.72,6.6.23,2.47.65,4.52.72,6.28.13,3.56-.04,5.88-.37,7.96-1.64,10.28-1.72,19.25,3.96,20.34,6.89,1.32,24.51,1.68,25.34-4.18.75-5.29-5.6-9.08-10.48-23.56-1.44-4.28-.49-6.12.08-8.05,1.07-3.69-.89-4.91-.73-7.83.64-11.69,6.91-21.6,12.9-43.88,3.24-12.06,5.22-25.21,2.5-40.42-1.4-7.83-2.97-11.87-2.29-24.8.52-10,4.58-27.03,11.76-55.42,3.22-12.77,11.87-39.51,13.04-52.03.46-4.99.64-9.58.61-13.81v-.15c-.17-20.2-5.29-32.25-8.66-41.37-3.18-9.23-3.31-9.4-7.94-22.29-2.94-8.17-3.92-13.51-5.3-19.08-.01-.05-.02-.1-.04-.15h.01c-5.58-8.9-2.58-31.33,1.04-44.23.49,2.28,1.69,7.75,2.18,9.6,3.1,11.72,7.89,25.56,9.74,34.48l.03.15c.19.94.36,1.85.48,2.68.28,1.9,1.46,17.81,8.54,35.8.4,1,.78,1.97,1.15,2.89.02.05.04.1.06.15,5.63,14.19,7.93,19.11,11.93,27.09,2.93,5.84,5.03,10.51,5.36,14.28.01.05.01.1.02.15.01.1.03.2.03.29.09,1.65-1.69,5.15-2.33,7.35-1.99,6.81,2.03,12.51-2.55,21.41-.49.94,2.54,1.07,4.34-.81,2.27-2.37,2.94-8.84,3.01-7.65.45,7.9,1.84,9.72,2.69,16.17.63,4.71-1.12,7.31.25,9.22,1.05,1.46,1.41,1.33,3.98-1.27,1.81-1.82,2.96-3.52,4.12-4.88,2.27-2.64,3.49-5.24,3.69-10.69.15-4.11-.46-7.24-2-13.22-.68-2.63-1.43-4.1-2.42-11.5-.28-2.16-.3-3.46-.3-4.42v-.15c0-.55,0-.99-.06-1.42-.37-3.06-1.95-4.02-2.82-9.76-1.64-10.84-2.73-18.91-4.27-30.19,0-.05-.01-.1-.02-.15-.31-2.3-.64-4.71-1-7.33-1.27-9.35-5.52-21.11-10-34.04-.01-.05-.03-.1-.05-.15-.26-.74-.51-1.48-.77-2.23-.46-1.33-1.43-11.48-1.81-16.82-.46-6.66-4.83-67.75-7.83-76.97-2.23-6.87-4.4-9.63-6.47-10.54v-.02s-1.69-.88-2.71-1.29c-.12-.05-.25-.09-.38-.14h.16l-35.95-16.01s-.02-.05-.03-.07c-1.12-2.7-1.57-10.21-1.75-15.34,2.54-2.35,4.5-5.38,5.74-10.41.22-.9.48-1.97.73-3.12,2.78.98,3.51-3.3,4.02-4.54.57-1.36,1.33-1.49,2.08-4.5.51-2-.37-3.32-.01-4.61.24-.87.35-3.32-.75-4.16-.12-.09-.27-.14-.43-.18,1.65-6.27,2.7-16.51-.73-24.35-1.49-3.39-3.32-6.12-5.25-8.29-4.57-5.57-12.1-9.22-20.63-9.22s-16.06,3.65-20.63,9.22c-1.93,2.17-3.76,4.9-5.25,8.29-3.43,7.84-2.38,18.08-.73,24.35-.16.04-.31.09-.43.18-1.1.84-.99,3.29-.75,4.16.36,1.29-.52,2.61-.01,4.61.75,3.01,1.51,3.14,2.08,4.5.51,1.24,1.24,5.52,4.02,4.54.25,1.15.51,2.22.73,3.12,1.24,5.03,3.2,8.06,5.74,10.41-.18,5.13-.63,12.64-1.75,15.34-.01.02-.02.05-.03.07l-35.96,16.01h.17c-.13.05-.26.09-.38.14-1.02.41-2.71,1.29-2.71,1.29v.02c-2.07.91-4.24,3.67-6.47,10.54-3,9.22-7.37,70.31-7.83,76.97-.38,5.34-1.35,15.49-1.81,16.82-.26.75-.51,1.49-.77,2.23-.02.05-.04.1-.05.15-4.48,12.93-8.73,24.69-10,34.04-.36,2.62-.69,5.03-1,7.33,0,.05-.02.1-.02.15-1.54,11.28-2.63,19.35-4.27,30.19-.87,5.74-2.45,6.7-2.82,9.76-.06.43-.06.87-.06,1.42v.15c0,.96-.02,2.26-.3,4.42-.99,7.4-1.74,8.87-2.42,11.5-1.54,5.98-2.15,9.11-2,13.22.2,5.45,1.42,8.05,3.69,10.69Z"/>
  </g>
</svg>