<?xml version="1.0" encoding="UTF-8"?>
<svg id="_레이어_2" data-name="레이어 2" xmlns="http://www.w3.org/2000/svg" viewBox="0 0 192.46 572.01">
  <defs>
    <style>
      .cls-1 {
        fill: #f2a7a9;
        stroke: #221714;
        stroke-miterlimit: 10;
      }
    </style>
  </defs>
  <g id="_레이어_1-2" data-name="레이어 1">
    <path class="cls-1" d="m4.21,336.37c1.16,1.36,2.31,3.06,4.12,4.88,2.57,2.6,2.93,2.73,3.98,1.27,1.37-1.91-.38-4.51.25-9.22.85-6.45,2.24-8.27,2.69-16.17.07-1.19.74,5.28,3.01,7.65,1.8,1.88,4.83,1.75,4.34.81-4.6-8.89-.56-14.6-2.55-21.41-.63-2.17-2.38-5.61-2.33-7.28,0-.09.01-.19.02-.28.01-.07.02-.15.03-.22.33-3.77,2.43-8.44,5.36-14.28,4-7.98,6.3-12.9,11.93-27.1.02-.05.04-.09.06-.14.37-.92.75-1.89,1.15-2.89,7.12-17.97,8.26-33.9,8.54-35.8.12-.83.29-1.73.48-2.67.01-.05.02-.1.03-.15.91-4.46,2.58-10.14,4.4-16.17,1.82-6.05,3.79-12.44,5.34-18.31.42-1.59,1.38-5.89,1.93-8.44.13-.32.25-.59.35-.77,2.49,11.02,3.99,32.48-.87,43.75,0,0,0,0,0,0-.02.05-.03.11-.04.16-1.27,5.76-2.44,11.41-5.42,18.69-1.87,4.58-3.04,7.85-3.95,10.56-1.75,3.99-2.75,6.54-5.04,12.23-3.67,9.1-9.05,21.21-9.23,41.52-.04,4.27.15,8.91.65,13.96,1.24,12.52,10.39,39.26,13.81,52.03,7.6,28.39,11.9,45.41,12.46,55.42.72,12.92-.94,16.97-2.43,24.79-2.89,15.22-.78,28.37,2.65,40.42,6.34,22.29,12.99,32.19,13.66,43.89.17,2.92-1.91,4.14-.76,7.83.59,1.92,1.6,3.76.07,8.04-5.17,14.49-11.89,18.28-11.1,23.57.88,5.86,19.55,5.5,26.85,4.17,6.01-1.08,5.93-10.06,4.2-20.33-.35-2.08-.52-4.4-.39-7.96.06-1.76.51-3.81.75-6.28.22-2.28-.41-4.69-.75-6.6-.26-1.44-.53-2.6-.57-3.21-1.55-22.39-1.12-27.75,1.55-48.79,2.7-21.27-1.08-25.08-.61-38.09.29-7.7,2.5-15.58,3.09-23.92.75-10.46-.28-20.35-1.33-27.79-2.89-20.57-2.88-23.89-3.81-40.16-1.02-17.65,4.34-26.31,1.28-41.54.71.27,2.45.36,4.17.38s3.46-.11,4.17-.38c-3.06,15.23,2.3,23.89,1.29,41.54-.94,16.27-.92,19.59-3.82,40.16-1.05,7.44-2.08,17.33-1.33,27.79.59,8.34,2.81,16.22,3.09,23.92.47,13.01-3.31,16.82-.61,38.09,2.67,21.04,3.28,26.42,1.56,48.79-.05.61-.31,1.77-.57,3.21-.34,1.91-.98,4.32-.76,6.6.24,2.47.69,4.52.76,6.28.13,3.56-.05,5.88-.4,7.96-1.73,10.27-1.81,19.25,4.2,20.33,7.31,1.33,25.97,1.69,26.85-4.17.79-5.29-5.93-9.08-11.1-23.57-1.53-4.28-.52-6.12.07-8.04,1.15-3.69-.93-4.91-.76-7.83.67-11.7,7.32-21.6,13.66-43.89,3.43-12.05,5.54-25.2,2.65-40.42-1.48-7.82-3.15-11.87-2.43-24.79.56-10.01,4.86-27.03,12.46-55.42,3.42-12.77,12.58-39.51,13.81-52.03.5-5.05.69-9.69.66-13.96-.19-20.31-5.57-32.42-9.24-41.52-2.46-6.1-3.42-8.6-5.45-13.15-.85-2.45-1.92-5.39-3.49-9.28-2.99-7.37-4.17-13.12-5.46-19,0-.05-.02-.1-.04-.15,0,0,0,0,0,0-4.7-11.03-3.54-31.48-1.2-42.65.14-.52.27-1.04.42-1.55.49,2.28,1.69,7.75,2.18,9.6,3.1,11.71,7.9,25.53,9.73,34.45,0,.05.02.09.03.14.2.96.37,1.88.49,2.71.28,1.88,1.39,17.41,8.27,35.08.39.99.76,1.96,1.14,2.89.11.29.22.57.33.84,5.59,14.24,7.94,19.14,11.95,27.13,2.92,5.83,5.02,10.49,5.36,14.25,0,.05,0,.09.02.14.01.11.03.22.04.33.09,1.65-1.69,5.15-2.33,7.35-1.99,6.81,2.03,12.51-2.55,21.41-.49.94,2.54,1.07,4.34-.81,2.27-2.37,2.94-8.84,3.01-7.65.45,7.9,1.84,9.72,2.69,16.17.63,4.71-1.12,7.31.25,9.22,1.05,1.46,1.41,1.33,3.98-1.27,1.81-1.82,2.96-3.52,4.12-4.88,2.27-2.64,3.49-5.24,3.69-10.69.15-4.11-.46-7.24-2-13.22-.64-2.48-1.34-3.91-2.25-10.41-.26-1.92-.33-3.25-.39-4.4-.07-.57-.08-1.01-.08-1.26,0-.55,0-.99-.06-1.42-.39-3.06-1.95-4.02-2.82-9.76-1.64-10.84-2.73-18.9-4.27-30.18,0-.05-.01-.1-.02-.15-.31-2.3-.64-4.71-1-7.33-1.27-9.35-5.52-21.11-10-34.03-.01-.05-.03-.1-.05-.16-.26-.74-.51-1.48-.77-2.23-.46-1.33-1.43-11.48-1.81-16.82-.46-6.66-4.83-67.75-7.83-76.97-2.23-6.87-4.4-9.63-6.47-10.54v-.02s-1.69-.88-2.71-1.29c-.14-.06-.29-.1-.43-.16h.22l-35.94-16s-.03-.06-.04-.1c-1.12-2.7-1.57-10.21-1.75-15.34,2.54-2.35,4.5-5.38,5.74-10.41.22-.9.48-1.97.73-3.12,2.78.98,3.5-3.3,4.02-4.54.57-1.36,1.33-1.49,2.08-4.5.51-2-.37-3.32-.01-4.61.24-.87.35-3.32-.75-4.16-.12-.09-.27-.14-.43-.18,1.65-6.27,2.7-16.51-.73-24.35-1.49-3.39-3.32-6.12-5.25-8.29-4.57-5.57-12.1-9.22-20.63-9.22s-16.06,3.65-20.63,9.22c-1.93,2.17-3.76,4.9-5.25,8.29-3.43,7.84-2.38,18.08-.73,24.35-.16.04-.31.09-.43.18-1.1.84-.99,3.29-.75,4.16.36,1.29-.51,2.61-.01,4.61.76,3.01,1.51,3.14,2.08,4.5.51,1.24,1.24,5.52,4.02,4.54.25,1.15.51,2.22.73,3.12,1.24,5.03,3.2,8.06,5.74,10.41-.18,5.13-.63,12.64-1.75,15.34-.01.03-.03.06-.04.09l-35.95,16.01h.23c-.14.05-.29.1-.43.16-1.02.41-2.71,1.29-2.71,1.29v.02c-2.07.91-4.24,3.67-6.47,10.54-3,9.22-7.37,70.31-7.83,76.97-.38,5.34-1.35,15.49-1.81,16.82-.26.74-.5,1.47-.76,2.19-.02.05-.04.1-.05.15-4.48,12.94-8.74,24.72-10.01,34.08-.36,2.6-.69,5-1,7.29,0,.05-.02.1-.02.15-1.54,11.3-2.63,19.37-4.28,30.22-.87,5.72-2.42,6.7-2.82,9.73,0,.04-.01.08-.02.12-.05.39-.05.79-.05,1.28v.15c0,.96-.02,2.27-.3,4.46-.99,7.4-1.74,8.87-2.42,11.5-1.54,5.98-2.15,9.11-2,13.22.2,5.45,1.42,8.05,3.69,10.69Z"/>
  </g>
</svg>