<?xml version="1.0" encoding="UTF-8"?>
<svg id="_레이어_2" data-name="레이어 2" xmlns="http://www.w3.org/2000/svg" viewBox="0 0 203.66 571.41">
  <defs>
    <style>
      .cls-1 {
        fill: #f3a9aa;
        stroke: #231815;
        stroke-miterlimit: 10;
      }
    </style>
  </defs>
  <g id="_레이어_1-2" data-name="레이어 1">
    <path class="cls-1" d="m45.54,105.52c3.23-1.22,7.28-1.81,11.56-2.56,3.66-.64,11.81-1.41,15.4-2.8,5.33-2.05,9.72-4.61,12.37-11,1.11-2.7,1.56-10.2,1.75-15.33-2.54-2.35-4.51-5.38-5.74-10.4-.22-.9-.48-1.97-.74-3.12-2.78.98-3.5-3.3-4.02-4.54-.57-1.36-1.31-1.49-2.07-4.5-.5-2,.37-3.32.01-4.61-.24-.87-.36-3.32.75-4.16.12-.09.26-.14.42-.18-1.65-6.26-2.7-16.5.74-24.33,1.48-3.39,3.32-6.12,5.25-8.28,4.57-5.57,12.09-9.21,20.61-9.21s16.05,3.65,20.61,9.21c1.93,2.17,3.77,4.9,5.25,8.28,3.44,7.83,2.39,18.07.74,24.33.16.04.3.09.42.18,1.11.84.99,3.29.75,4.16-.36,1.29.51,2.6.01,4.61-.76,3-1.5,3.14-2.07,4.5-.52,1.24-1.24,5.52-4.02,4.54-.26,1.15-.52,2.22-.74,3.12-1.23,5.03-3.2,8.05-5.74,10.4.19,5.13.64,12.63,1.75,15.33,2.65,6.4,7.04,8.95,12.37,11,3.59,1.39,11.73,2.16,15.4,2.8,4.28.75,8.33,1.34,11.56,2.56,1.08.4,2.87,1.29,2.87,1.29v.02c2.2.91,4.49,3.66,6.85,10.53,3.17,9.2,7.79,70.26,8.29,76.92.39,5.34,1.42,15.47,1.91,16.81.27.75.55,1.49.82,2.23,4.76,12.98,9.28,24.78,10.64,34.17.38,2.61.73,5.03,1.06,7.32,1.63,11.35,2.79,19.43,4.54,30.31.92,5.75,2.61,6.7,2.99,9.75.05.44.05.88.06,1.43,0,.97,0,2.29.32,4.57,1.04,7.38,1.84,8.85,2.56,11.49,1.63,5.98,2.27,9.09,2.12,13.21-.21,5.43-1.51,8.04-3.9,10.68-1.24,1.36-2.46,3.05-4.37,4.88-2.73,2.6-3.1,2.72-4.21,1.26-1.44-1.9.4-4.5-.26-9.2-.91-6.46-2.38-8.26-2.86-16.16-.07-1.19-.78,5.28-3.18,7.65-1.91,1.88-5.12,1.75-4.6.8,4.85-8.88.6-14.58,2.7-21.39.68-2.2,2.57-5.7,2.47-7.35,0-.14-.04-.29-.05-.44-.3-3.77-2.58-8.43-5.68-14.27-4.25-8.01-6.68-12.92-12.7-27.22-.39-.93-.79-1.89-1.21-2.9-7.5-17.97-8.74-33.87-9.04-35.78-.13-.86-.32-1.82-.54-2.82-1.96-8.91-7.02-22.75-10.31-34.47-.52-1.84-1.78-7.31-2.31-9.58-.15.51-.3,1.03-.45,1.55-2.61,10.96-5.39,28.99-4.87,42.5,0,0,0,0,0,.02,1.1,5.35,3.3,11.6,6.1,19.06,2.42,6.42,3.88,11.77,4.88,15.73.8,3.15,1.16,5,1.17,5.45.11.48.24.97.36,1.46.01.05.02.1.04.14.03.1.05.2.08.31,0,0,0,0,0,0,.2.79.41,1.6.63,2.41,2.96,8.46,6.65,19.52,7.02,36.51,0,.1,0,.19,0,.29,0,.41.02.89.02,1.31,0,.1,0,.19,0,.28,0,.02,0,.27,0,.29.02,4.16-.16,8.64-.58,13.53-1.1,12.51-9.22,39.23-12.25,51.99-6.74,28.36-10.56,45.38-11.06,55.38-.64,12.91.84,16.96,2.16,24.77,2.56,15.2.69,28.35-2.35,40.39-5.63,22.27-11.52,32.17-12.12,43.86-.15,2.91,1.69,4.13.68,7.82-.53,1.92-1.43,3.76-.07,8.03,4.59,14.47,10.55,18.27,9.85,23.55-.79,5.86-17.35,5.49-23.82,4.17-5.34-1.09-5.27-10.05-3.73-20.33.31-2.07.47-4.4.35-7.95-.06-1.75-.46-3.8-.67-6.28-.19-2.28.37-4.69.67-6.59.23-1.45.47-2.61.51-3.21,1.43-22.37.98-27.74-1.39-48.77-2.39-21.25.97-25.06.55-38.05-.25-7.69-2.22-15.57-2.75-23.9-.66-10.46.25-20.34,1.18-27.77,2.58-20.56,2.56-23.87,3.39-40.13.9-17.65-3.85-26.29-1.14-41.51-.63.26-2.17.38-3.7.37-1.53-.01-3.07-.11-3.7-.37,2.71,15.22-2.04,23.86-1.14,41.51.83,16.26.81,19.58,3.39,40.13.93,7.43,1.84,17.31,1.18,27.77-.53,8.33-2.5,16.21-2.75,23.9-.42,12.99,2.94,16.81.55,38.05-2.38,21.03-2.82,26.39-1.39,48.77.04.6.28,1.76.51,3.21.3,1.9.86,4.31.67,6.59-.21,2.48-.61,4.53-.67,6.28-.12,3.56.04,5.89.35,7.95,1.54,10.27,1.61,19.24-3.73,20.33-6.48,1.32-23.03,1.69-23.82-4.17-.7-5.29,5.27-9.08,9.85-23.55,1.36-4.28.46-6.12-.07-8.03-1.01-3.7.83-4.92.68-7.82-.6-11.69-6.49-21.6-12.12-43.86-3.04-12.04-4.91-25.19-2.35-40.39,1.32-7.81,2.8-11.86,2.15-24.77-.49-10-4.31-27.02-11.05-55.38-3.03-12.76-11.15-39.48-12.25-51.99-.43-4.94-.6-9.46-.58-13.66v-.3c0-.1,0-.19.01-.29.09-16.92,3.61-28.1,6.58-36.63.39-1.45.76-2.87,1.11-4.25.02-.1.05-.2.08-.3.02-.04.02-.09.04-.14.13-.48.26-.97.37-1.45.01-1.74,1.34-9.24,6.06-21.2,2.86-7.25,5.01-13.32,6.09-18.57,0,0,0,0,0,0,.72-13.86-2.57-32.64-5.21-43.66-.11.19-.24.45-.38.77-.59,2.54-1.59,6.84-2.04,8.42-1.64,5.86-3.74,12.25-5.66,18.3-1.92,6.03-3.67,11.72-4.65,16.17-.22,1-.41,1.96-.54,2.82-.29,1.91-1.54,17.81-9.04,35.78-.42,1.01-.82,1.97-1.21,2.9-6.01,14.3-8.45,19.22-12.7,27.22-3.1,5.84-5.38,10.5-5.68,14.27-.01.15-.04.3-.05.44-.1,1.65,1.79,5.15,2.47,7.35,2.1,6.81-2.15,12.5,2.7,21.39.52.95-2.69,1.08-4.6-.8-2.4-2.37-3.11-8.83-3.18-7.65-.48,7.89-1.95,9.7-2.86,16.16-.66,4.71,1.19,7.3-.26,9.2-1.11,1.46-1.49,1.34-4.22-1.26-1.91-1.83-3.13-3.52-4.37-4.88-2.39-2.64-3.69-5.25-3.9-10.68-.15-4.12.49-7.24,2.12-13.21.72-2.64,1.52-4.11,2.56-11.49.32-2.28.31-3.6.32-4.57,0-.55,0-.99.06-1.43.37-3.05,2.07-4.01,2.99-9.75,1.75-10.88,2.91-18.96,4.54-30.31.33-2.3.68-4.71,1.06-7.32,1.36-9.38,5.88-21.19,10.64-34.17.27-.74.54-1.48.82-2.23.49-1.34,1.52-11.47,1.91-16.81.5-6.66,5.12-67.71,8.29-76.92,2.37-6.87,4.66-9.62,6.85-10.53v-.02s1.79-.89,2.87-1.29Z"/>
  </g>
</svg>