<?xml version="1.0" encoding="UTF-8"?>
<svg id="_레이어_2" data-name="레이어 2" xmlns="http://www.w3.org/2000/svg" viewBox="0 0 203.66 571.63">
  <defs>
    <style>
      .cls-1 {
        fill: #f3a9aa;
        stroke: #231815;
        stroke-miterlimit: 10;
      }
    </style>
  </defs>
  <g id="_레이어_1-2" data-name="레이어 1">
    <path class="cls-1" d="m45.54,105.52c3.23-1.22,7.28-1.81,11.56-2.56,3.66-.64,11.81-1.41,15.4-2.8,5.33-2.05,9.72-4.61,12.37-11,1.11-2.7,1.56-10.2,1.75-15.33-2.54-2.35-4.51-5.38-5.74-10.4-.22-.9-.48-1.97-.74-3.12-2.78.98-3.5-3.3-4.02-4.54-.57-1.36-1.31-1.49-2.07-4.5-.5-2,.37-3.32.01-4.61-.24-.87-.36-3.32.75-4.16.12-.09.26-.14.42-.18-1.65-6.26-2.7-16.5.74-24.33,1.48-3.39,3.32-6.12,5.25-8.28,4.57-5.57,12.09-9.21,20.61-9.21s16.05,3.65,20.6,9.21c1.93,2.17,3.77,4.9,5.25,8.28,3.44,7.83,2.39,18.07.74,24.33.16.04.3.09.42.18,1.11.84.99,3.29.75,4.16-.36,1.29.51,2.6,0,4.61-.76,3-1.5,3.14-2.07,4.5-.52,1.24-1.24,5.52-4.02,4.54-.26,1.15-.52,2.22-.74,3.12-1.23,5.03-3.2,8.05-5.74,10.4.19,5.13.64,12.63,1.75,15.33,2.65,6.4,7.04,8.95,12.37,11,3.59,1.39,11.73,2.16,15.4,2.8,4.28.75,8.33,1.34,11.56,2.56,1.08.4,2.87,1.29,2.87,1.29v.02c2.2.91,4.49,3.66,6.85,10.53,3.17,9.2,7.79,70.26,8.29,76.92.39,5.34,1.42,15.47,1.91,16.81.27.75.55,1.49.82,2.23,4.76,12.98,9.28,24.78,10.64,34.17.38,2.61.73,5.03,1.06,7.32,1.63,11.35,2.79,19.43,4.54,30.31.92,5.75,2.61,6.7,2.99,9.75.05.44.05.88.06,1.43,0,.97,0,2.29.32,4.57,1.04,7.38,1.84,8.85,2.56,11.49,1.63,5.98,2.27,9.09,2.12,13.21-.21,5.43-1.51,8.04-3.9,10.68-1.24,1.36-2.46,3.05-4.37,4.88-2.73,2.6-3.1,2.72-4.21,1.26-1.44-1.9.4-4.5-.26-9.2-.91-6.46-2.38-8.26-2.86-16.16-.07-1.19-.78,5.28-3.18,7.65-1.91,1.88-5.12,1.75-4.6.8,4.85-8.88.6-14.58,2.7-21.39.68-2.2,2.57-5.7,2.47-7.35,0-.14-.04-.29-.05-.44-.3-3.77-2.58-8.43-5.68-14.27-4.25-8.01-6.68-12.92-12.7-27.22-.39-.93-.79-1.89-1.21-2.9-7.5-17.97-8.74-33.87-9.04-35.78-.13-.86-.32-1.82-.54-2.82-1.96-8.91-7.02-22.75-10.31-34.47-.52-1.84-1.78-7.31-2.31-9.58-.15.51-.3,1.03-.45,1.55-2.61,10.96-5.39,28.99-4.87,42.5,0,0,0,.01,0,.02,1.1,5.36,4.34,11.38,7.62,18.58,1.94,4.26,3.49,7.75,4.68,10.78,2.19,3.86,3.56,6.55,4.81,9.48,0,0,0,0,0,0,.02.05.04.1.06.15.44,1.04.87,2.1,1.32,3.23,0,0,0,0,0,0,.02.05.04.09.06.14,3.4,8.62,8.24,19.89,8.83,38.03,0,.1,0,.2.01.3.03.92.05,1.85.05,2.8,0,.1,0,.2,0,.29,0,3.43-.14,7.09-.46,11.01-.08.93-.17,1.9-.29,2.88-1.45,12.72-10.35,38.75-13.71,51.29-7.59,28.37-11.89,45.39-12.45,55.38-.72,12.92.95,16.96,2.43,24.78,2.89,15.2.78,28.34-2.65,40.39-6.33,22.26-12.98,32.17-13.65,43.85-.17,2.92,1.9,4.13.76,7.82-.6,1.93-1.6,3.77-.07,8.05,5.17,14.47,11.88,18.26,11.09,23.54-.88,5.86-19.52,5.5-26.83,4.18-6-1.09-5.92-10.06-4.2-20.33.35-2.08.53-4.4.4-7.96-.07-1.76-.52-3.81-.76-6.28-.22-2.28.42-4.68.76-6.59.26-1.44.52-2.6.57-3.21,1.72-22.36,1.11-27.73-1.56-48.76-2.7-21.26,1.08-25.06.61-38.05-.28-7.7-2.5-15.57-3.09-23.9-.75-10.46.28-20.35,1.33-27.78,2.9-20.56,2.88-23.87,3.82-40.12,1.01-17.65-4.35-26.3-1.29-41.52-.71.27-2.45.39-4.17.38-1.72-.01-3.46-.11-4.17-.38,3.06,15.22-2.3,23.87-1.28,41.52.93,16.25.92,19.57,3.81,40.12,1.05,7.43,2.08,17.32,1.33,27.78-.59,8.33-2.8,16.2-3.09,23.9-.47,12.99,3.31,16.8.61,38.05-2.67,21.03-3.09,26.39-1.55,48.76.04.61.31,1.77.57,3.21.34,1.91.97,4.32.75,6.59-.24,2.47-.68,4.52-.75,6.28-.13,3.56.04,5.88.39,7.96,1.73,10.27,1.81,19.24-4.2,20.33-7.29,1.32-25.95,1.68-26.83-4.18-.79-5.29,5.92-9.07,11.09-23.54,1.53-4.28.53-6.12-.07-8.05-1.14-3.69.93-4.9.76-7.82-.67-11.68-7.31-21.59-13.65-43.85-3.43-12.05-5.54-25.19-2.65-40.39,1.49-7.82,3.15-11.86,2.43-24.78-.56-9.99-4.86-27.01-12.45-55.38-3.42-12.76-12.56-39.48-13.8-51.99-.5-5.05-.67-9.67-.65-13.95,0-.1,0-.2.01-.3.11-20.12,5.67-32.11,9.21-41.19.02-.05.04-.1.06-.15,1.31-3.34,2.51-5.98,4.5-9.61,1.37-3.77,3.33-8.16,6.08-14.14,2.63-5.71,5.15-10.67,6.7-15.01.43-1.2.77-2.39,1.02-3.58.68-12.41-1.75-28.42-4.24-38.99-.15-.52-.3-1.05-.45-1.56-.31-.68-.64-1.23-.96-1.72-.38,1.63-.98,4.22-1.47,6.17-.33,1.33-.65,2.55-.88,3.37-1.39,4.88-3.06,10.09-4.68,15.14-1.89,5.93-3.7,11.64-4.87,16.31-.25,1.02-.47,1.99-.66,2.89-.18.85-.35,1.81-.49,2.81-.39,2.79-1.76,17.06-8.29,33.43-.32.8-.64,1.59-.97,2.37-.42,1.01-.82,1.96-1.21,2.89-5.35,12.7-7.84,17.84-11.49,24.79-.4.75-.8,1.52-1.21,2.3-2.49,4.72-4.37,8.66-5.07,11.98-.03.16-.07.31-.1.46-.11.59-.16,1.2-.14,1.81,0,.14-.01.29,0,.43.07,1.33,1.08,3.48,1.8,5.31.27.71.51,1.4.68,2.01,1.68,6.29-1.77,11.69,1.99,19.68.24.5.26.97.28,1.36.03.55-1.7.63-3.26-.26-.45-.26-.89-.6-1.27-1.03-1.59-1.83-2.33-5.4-2.66-6.49-.19-.61-.27-.9-.3-.47-.48,7.21-1.8,9.25-2.69,14.89-.06.39-.12.8-.17,1.21-.48,3.97.8,6.4.11,8.19-.13.34-.3.63-.52.89-.94,1.12-1.42,1.01-3.52-.95-.22-.21-.45-.43-.7-.66-1.6-1.56-2.71-3.01-3.78-4.24-.19-.21-.37-.42-.55-.62-2.23-2.51-3.48-5.04-3.74-10.03-.01-.22-.02-.43-.03-.65-.13-3.97.49-7.04,2.03-12.72.04-.14.08-.28.12-.42.71-2.58,1.5-4.1,2.53-11.4.32-2.28.31-3.6.32-4.57,0-.55,0-.99.06-1.43.37-3.05,2.07-4.01,2.99-9.75,1.75-10.88,2.91-18.96,4.54-30.31.33-2.3.68-4.71,1.06-7.32,1.36-9.38,5.88-21.19,10.64-34.17.27-.74.54-1.48.82-2.23.49-1.34,1.52-11.47,1.91-16.81.5-6.66,5.12-67.71,8.29-76.92,2.37-6.87,4.66-9.62,6.85-10.53v-.02s1.79-.89,2.87-1.29Z"/>
  </g>
</svg>