<?xml version="1.0" encoding="UTF-8"?>
<svg id="_레이어_2" data-name="레이어 2" xmlns="http://www.w3.org/2000/svg" viewBox="0 0 203.66 571.98">
  <defs>
    <style>
      .cls-1 {
        fill: #f3a9aa;
        stroke: #231815;
        stroke-miterlimit: 10;
      }
    </style>
  </defs>
  <g id="_레이어_1-2" data-name="레이어 1">
    <path class="cls-1" d="m45.54,105.54c3.23-1.21,7.28-1.81,11.56-2.55,3.66-.64,11.81-1.41,15.4-2.8,5.33-2.05,9.72-4.61,12.37-11.01,1.11-2.7,1.56-10.21,1.75-15.33-2.54-2.35-4.51-5.38-5.74-10.41-.22-.9-.48-1.98-.74-3.12-2.78.98-3.5-3.3-4.02-4.54-.57-1.37-1.32-1.5-2.07-4.5-.51-2.01.37-3.32.01-4.61-.24-.87-.36-3.32.75-4.16.12-.09.26-.14.42-.19-1.65-6.26-2.7-16.5.74-24.33,1.48-3.39,3.32-6.13,5.25-8.29,4.57-5.58,12.09-9.22,20.61-9.22s16.05,3.64,20.61,9.22c1.93,2.16,3.77,4.9,5.25,8.29,3.44,7.84,2.38,18.07.74,24.33.15.05.3.1.42.19,1.11.84.99,3.29.75,4.16-.36,1.29.52,2.6.01,4.61-.76,3-1.5,3.13-2.07,4.5-.52,1.24-1.24,5.52-4.02,4.54-.26,1.14-.52,2.22-.74,3.12-1.23,5.03-3.2,8.06-5.74,10.41.18,5.13.63,12.64,1.75,15.33,2.64,6.4,7.04,8.96,12.37,11.01,3.59,1.39,11.73,2.16,15.4,2.8,4.28.75,8.33,1.34,11.56,2.55,1.08.41,2.87,1.3,2.87,1.3v.02c2.2.91,4.49,3.66,6.85,10.54,3.17,9.21,7.79,70.28,8.29,76.94.39,5.34,1.42,15.47,1.91,16.81.27.75.54,1.49.82,2.23,4.8,12.97,9.28,24.79,10.64,34.18.37,2.61.72,5.03,1.05,7.32,1.64,11.36,2.8,19.43,4.54,30.33.92,5.75,2.61,6.7,2.99,9.76.05.44.05.88.05,1.42,0,.98,0,2.3.33,4.58,1.04,7.38,1.84,8.86,2.56,11.5,1.63,5.98,2.27,9.09,2.11,13.21-.21,5.43-1.51,8.04-3.9,10.68-1.23,1.36-2.45,3.06-4.37,4.89-2.72,2.59-3.1,2.72-4.21,1.26-1.45-1.9.4-4.5-.26-9.21-.91-6.46-2.38-8.27-2.86-16.16-.07-1.19-.78,5.28-3.18,7.65-1.91,1.87-5.12,1.75-4.6.8,4.85-8.89.6-14.58,2.71-21.39.67-2.2,2.57-5.7,2.47-7.35,0-.14-.04-.3-.05-.45-.3-3.77-2.58-8.43-5.68-14.27-4.25-8.01-6.68-12.93-12.7-27.24-.39-.92-.79-1.88-1.21-2.89-7.5-17.97-8.74-33.88-9.04-35.79-.14-.86-.33-1.82-.55-2.82-1.96-8.92-7.02-22.76-10.3-34.48-.52-1.85-1.79-7.31-2.31-9.59-.15.51-.29,1.04-.44,1.55-.24,7.26,1.17,25.69,3.07,42.51,0,0,0,.01,0,.02.91,5.31,2.36,12.85,3.81,20.65.45,2.4.88,4.78,1.24,7.11,4.12,6.09,6.42,10.19,7.7,12.89.02.05.05.1.07.16.56,1.24,1.1,2.46,1.61,3.66.02.04.03.08.05.12,3.56,8.61,8.16,19.89,8.53,37.47,0,.02,0,.27,0,.3.02,1.06.02,2.14.01,3.25,0,.07,0,.21,0,.28-.04,3.28-.23,6.77-.6,10.48-.1,1.02-.24,2.12-.42,3.28-2.06,13.02-10.55,36.77-14.04,48.96-.24.83-.47,1.65-.7,2.45-7.7,27.28-12.05,43.78-12.63,53.56-.76,12.91,1,16.96,2.57,24.78,3.04,15.21.82,28.36-2.8,40.4-6.69,22.28-13.71,32.18-14.42,43.87-.18,2.92,2.02,4.14.81,7.83-.63,1.92-1.7,3.76-.08,8.04,5.46,14.48,12.55,18.27,11.71,23.56-.93,5.86-20.62,5.5-28.33,4.17-6.34-1.08-6.26-10.06-4.44-20.32.37-2.08.56-4.4.42-7.96-.07-1.76-.55-3.81-.8-6.28-.23-2.28.44-4.69.8-6.6.27-1.44.55-2.6.6-3.21,1.77-22.37,1.17-27.74-1.65-48.77-2.85-21.26,1.15-25.07.65-38.08-.3-7.7-2.64-15.57-3.26-23.91-.79-10.46.29-20.34,1.4-27.78,3.06-20.56,3.04-23.88,4.03-40.14,1.07-17.64-4.59-26.3-1.36-41.52-.75.27-2.58.39-4.4.38-1.82-.01-3.65-.11-4.4-.38,3.23,15.22-2.43,23.88-1.36,41.52.99,16.26.97,19.58,4.03,40.14,1.11,7.44,2.19,17.32,1.41,27.78-.63,8.34-2.97,16.21-3.27,23.91-.5,13.01,3.5,16.81.65,38.08-2.82,21.03-3.41,26.4-1.65,48.77.05.61.33,1.77.6,3.21.36,1.91,1.03,4.32.8,6.6-.25,2.47-.72,4.52-.8,6.28-.15,3.56.05,5.88.42,7.96,1.83,10.27,1.92,19.24-4.43,20.32-7.71,1.33-27.41,1.69-28.34-4.17-.84-5.29,6.26-9.08,11.72-23.56,1.61-4.28.55-6.12-.08-8.04-1.21-3.69.98-4.91.81-7.83-.72-11.7-7.73-21.59-14.42-43.87-3.63-12.05-5.85-25.19-2.8-40.4,1.57-7.82,3.33-11.87,2.56-24.78-.59-10.01-5.13-27.02-13.14-55.4-3.61-12.77-13.28-39.49-14.58-52.01-.53-5.05-.73-9.69-.69-13.95v-.3c.26-20.11,6.05-32.1,9.74-41.2.02-.05.04-.1.06-.15,1.15-2.58,3.37-6.68,7.57-12.96.52-3.65,1.22-7.42,1.96-11.2,1.21-6.19,2.34-12.04,3.35-16.43.32-1.41.61-2.81.85-4.18,2.02-15.41,3.11-31.53,2.87-38.37-.15-.51-.29-1.04-.44-1.55-.26.36-.61,1.13-.97,1.97-.47,1.98-1.03,4.33-1.38,5.67-.35,1.32-.72,2.63-1.06,3.78-1.4,4.76-3.02,9.77-4.56,14.59-1.91,6-3.69,11.69-4.73,16.23-.24,1.04-.45,2.04-.61,2.95-.1.54-.22,1.5-.39,2.79-.61,4.7-2.4,18.13-8.56,33.15-.39.94-.76,1.84-1.13,2.72-.42,1-.82,1.95-1.2,2.86-5.22,12.34-7.64,17.24-11.49,24.53-.41.77-.81,1.53-1.2,2.29-2.47,4.77-4.27,8.7-4.68,11.98-.02.15-.05.31-.07.45-.06.5.02,1.11.16,1.77.03.13.05.27.08.4.39,1.58,1.41,3.65,1.95,5.24.23.7.41,1.38.53,2.03,1.13,6.07-2,11.48,2.16,19.47.24.47-.14.78-.73.9-.65.13-2.15-.1-3.33-1.06-.39-.32-.75-.73-1.06-1.21-1.63-2.49-2.2-6.71-2.36-6.4-.08.14-.13.36-.17.82-.53,6.86-1.87,8.86-2.73,14.77-.06.41-.11.82-.14,1.22-.31,3.96,1.05,6.3-.05,8.05-.21.34-.42.6-.63.8-.8.72-1.42.33-3.52-1.65-.23-.22-.46-.44-.68-.67-1.56-1.57-2.64-3.02-3.72-4.22-.19-.21-.37-.41-.54-.62-2.11-2.46-3.27-5.05-3.49-10.05,0-.22-.02-.43-.02-.65-.08-3.87.56-6.95,2.1-12.62.04-.13.07-.27.11-.4.7-2.47,1.48-4.1,2.48-11.21.32-2.28.31-3.6.32-4.58,0-.54,0-.98.06-1.42.37-3.05,2.07-4.01,2.99-9.76,1.75-10.89,2.91-18.96,4.54-30.33.33-2.29.68-4.71,1.06-7.32,1.36-9.39,5.89-21.19,10.64-34.18.27-.74.54-1.48.82-2.23.49-1.34,1.52-11.48,1.91-16.81.5-6.66,5.12-67.73,8.29-76.94,2.37-6.87,4.66-9.63,6.85-10.54v-.02s1.79-.89,2.87-1.3Z"/>
  </g>
</svg>