<?xml version="1.0" encoding="UTF-8"?>
<svg id="_레이어_2" data-name="레이어 2" xmlns="http://www.w3.org/2000/svg" viewBox="0 0 203.66 571.79">
  <defs>
    <style>
      .cls-1 {
        fill: #f3a9aa;
        stroke: #231815;
        stroke-miterlimit: 10;
      }
    </style>
  </defs>
  <g id="_레이어_1-2" data-name="레이어 1">
    <path class="cls-1" d="m45.54,105.53c3.23-1.21,7.28-1.81,11.57-2.55,3.66-.64,11.81-1.41,15.39-2.8,5.33-2.05,9.74-4.6,12.37-11,1.11-2.7,1.55-10.2,1.75-15.33-2.54-2.35-4.51-5.38-5.74-10.4-.22-.9-.48-1.97-.74-3.12-2.78.98-3.5-3.3-4.01-4.54-.57-1.36-1.31-1.5-2.07-4.5-.51-2.01.37-3.32,0-4.61-.24-.87-.36-3.32.75-4.16.12-.09.26-.14.41-.18-1.64-6.26-2.7-16.5.74-24.33,1.48-3.39,3.32-6.12,5.25-8.29,4.57-5.57,12.09-9.22,20.61-9.22s16.05,3.64,20.61,9.22c1.93,2.16,3.77,4.9,5.25,8.29,3.44,7.84,2.38,18.07.74,24.33.15.05.29.09.42.18,1.1.84.99,3.29.75,4.16-.36,1.29.51,2.6,0,4.61-.76,3-1.5,3.13-2.06,4.5-.52,1.24-1.24,5.52-4.02,4.54-.26,1.14-.52,2.22-.74,3.12-1.23,5.03-3.19,8.06-5.73,10.4.18,5.13.63,12.63,1.75,15.33,2.64,6.4,7.04,8.96,12.36,11,3.59,1.39,11.73,2.16,15.4,2.8,4.28.75,8.33,1.34,11.56,2.55,1.08.4,2.87,1.29,2.87,1.29v.02c2.2.91,4.48,3.66,6.85,10.53,3.17,9.21,7.8,70.27,8.3,76.93.38,5.34,1.42,15.47,1.9,16.81.27.75.55,1.49.82,2.23,4.82,12.96,9.28,24.79,10.64,34.17.37,2.61.72,5.03,1.05,7.32,1.63,11.36,2.8,19.43,4.55,30.32.92,5.75,2.61,6.7,2.98,9.75.05.44.05.88.05,1.42,0,.97,0,2.29.32,4.57,1.04,7.38,1.84,8.86,2.56,11.49,1.63,5.98,2.27,9.09,2.11,13.21-.21,5.43-1.5,8.05-3.9,10.68-1.23,1.36-2.45,3.05-4.36,4.88-2.73,2.59-3.1,2.72-4.21,1.26-1.45-1.9.4-4.5-.26-9.21-.91-6.46-2.37-8.27-2.85-16.16-.07-1.19-.78,5.28-3.18,7.65-1.91,1.87-5.12,1.75-4.6.8,4.85-8.89.61-14.58,2.7-21.39.67-2.2,2.57-5.7,2.46-7.35,0-.14-.04-.3-.05-.44-.3-3.77-2.58-8.43-5.68-14.27-4.25-8.01-6.68-12.92-12.7-27.23-.38-.92-.79-1.88-1.21-2.89-7.5-17.97-8.73-33.87-9.04-35.78-.14-.86-.33-1.82-.55-2.82-1.96-8.92-7.01-22.76-10.3-34.47-.52-1.84-1.78-7.31-2.31-9.58-.15.51-.3,1.03-.45,1.55-1.44,9.15-2.49,27.85.09,42.51,0,0,0,0,0,0,1.02,5.29,2.66,11.99,4.84,19.63,1.31,4.61,2.18,7.93,3.2,11.77,1.33,2.46,2.92,5.51,5.2,10.24,3.57,9.13,9.04,21.2,9.23,41.5.03,4.28-.16,8.91-.66,13.95-1.23,12.51-10.38,39.24-13.8,52-7.59,28.38-11.89,45.39-12.45,55.39-.72,12.92.95,16.96,2.43,24.79,2.89,15.2.78,28.34-2.65,40.4-6.33,22.27-12.98,32.17-13.65,43.86-.17,2.92,1.9,4.13.76,7.83-.59,1.93-1.6,3.76-.07,8.05,5.17,14.47,11.88,18.26,11.09,23.55-.88,5.86-19.52,5.5-26.83,4.18-6-1.09-5.92-10.06-4.2-20.33.35-2.08.53-4.4.4-7.96-.07-1.76-.52-3.81-.76-6.28-.22-2.28.42-4.69.76-6.6.26-1.44.52-2.6.57-3.21,1.72-22.36,1.11-27.74-1.56-48.76-2.7-21.26,1.08-25.07.61-38.06-.28-7.71-2.5-15.57-3.09-23.92-.75-10.45.28-20.34,1.33-27.78,2.9-20.56,2.88-23.88,3.82-40.13,1.01-17.65-4.35-26.31-1.29-41.53-.71.27-2.45.39-4.17.38-1.72,0-3.46-.11-4.17-.38,3.06,15.22-2.3,23.88-1.28,41.53.93,16.25.92,19.57,3.81,40.13,1.05,7.44,2.08,17.32,1.33,27.78-.59,8.35-2.8,16.21-3.09,23.92-.47,12.99,3.31,16.8.61,38.06-2.67,21.03-3.09,26.39-1.55,48.76.04.61.31,1.77.57,3.21.34,1.91.97,4.32.75,6.6-.24,2.47-.68,4.52-.75,6.28-.13,3.56.04,5.88.39,7.96,1.73,10.26,1.81,19.24-4.2,20.33-7.29,1.32-25.95,1.68-26.83-4.18-.79-5.29,5.92-9.08,11.09-23.55,1.53-4.29.52-6.12-.07-8.05-1.14-3.69.93-4.91.76-7.83-.67-11.68-7.31-21.59-13.65-43.86-3.43-12.05-5.54-25.2-2.65-40.4,1.49-7.83,3.15-11.86,2.43-24.79-.56-10-4.86-27.02-12.45-55.39-3.42-12.76-12.56-39.49-13.8-52-.5-5.05-.69-9.68-.65-13.95.18-20.3,5.66-32.36,9.22-41.5,1.9-3.93,3.33-6.74,4.53-8.99,1.41-5.11,2.28-8.87,3.93-14.44,2.11-7.11,3.81-13.22,4.78-18.2,0,0,0,0,0-.01,2.64-14.88,1.31-34.13-.13-43.28-.12-.04-.25-.04-.39,0-.57,2.45-1.66,7.14-2.13,8.81-1.64,5.86-3.74,12.25-5.65,18.3-1.92,6.04-3.68,11.72-4.66,16.18-.22,1-.4,1.96-.53,2.82-.29,1.91-1.54,17.81-9.04,35.78-.42,1.01-.82,1.97-1.21,2.89-6.01,14.31-8.45,19.22-12.7,27.23-3.09,5.84-5.37,10.5-5.68,14.27-.01.15-.04.3-.05.44-.1,1.65,1.79,5.15,2.47,7.35,2.1,6.81-2.15,12.5,2.7,21.39.52.95-2.69,1.07-4.6-.8-2.4-2.37-3.1-8.84-3.17-7.65-.46,7.9-1.95,9.7-2.86,16.16-.66,4.71,1.18,7.3-.26,9.21-1.11,1.46-1.5,1.34-4.22-1.26-1.91-1.82-3.12-3.52-4.36-4.88-2.39-2.63-3.69-5.25-3.9-10.68-.14-4.12.49-7.24,2.12-13.21.71-2.64,1.52-4.11,2.56-11.49.31-2.28.31-3.6.31-4.57,0-.54,0-.99.06-1.42.37-3.05,2.07-4.01,2.99-9.75,1.75-10.88,2.91-18.96,4.54-30.32.33-2.29.68-4.71,1.06-7.32,1.35-9.39,5.88-21.19,10.64-34.17.27-.74.55-1.48.82-2.23.49-1.33,1.51-11.47,1.9-16.81.5-6.66,5.12-67.72,8.29-76.93,2.37-6.87,4.66-9.62,6.85-10.53v-.02s1.79-.89,2.87-1.29Z"/>
  </g>
</svg>