<?xml version="1.0" encoding="UTF-8"?>
<svg id="_레이어_2" data-name="레이어 2" xmlns="http://www.w3.org/2000/svg" viewBox="0 0 203.66 570.03">
  <defs>
    <style>
      .cls-1 {
        fill: #f3a9aa;
        stroke: #231815;
        stroke-miterlimit: 10;
      }
    </style>
  </defs>
  <g id="_레이어_1-2" data-name="레이어 1">
    <path class="cls-1" d="m203.14,325.66c-.21,5.43-1.51,8.04-3.9,10.68-1.23,1.36-2.45,3.06-4.37,4.89-2.72,2.59-3.1,2.72-4.21,1.26-1.45-1.9.4-4.5-.26-9.21-.91-6.46-2.38-8.27-2.86-16.16-.07-1.19-.78,5.28-3.18,7.65-1.91,1.87-5.12,1.75-4.6.8,4.85-8.89.6-14.58,2.71-21.39.67-2.2,2.57-5.7,2.47-7.35,0-.14-.04-.3-.05-.45-.31-3.77-2.58-8.43-5.68-14.27-4.25-8.01-6.68-12.93-12.7-27.24-.39-.92-.79-1.88-1.21-2.89-7.5-17.97-8.74-33.88-9.04-35.79-.14-.86-.33-1.82-.55-2.82-1.96-8.92-7.02-22.76-10.3-34.48-.52-1.85-1.79-7.31-2.31-9.59-.83,2.79-1.94,6.67-2.05,9.76.7,4.97,3.23,19.8,5.67,34.3,1.6,9.55,2.06,27.79,2.81,40.26,3.47,10.03,6.4,19.77,6.55,32.6.79,2.28,1.98,5.5,2.02,10.52.02,3.15-.11,6.62-.43,10.32-.82,10.44-6.95,31.62-9.33,42.42-5.33,24.41-10.1,43.87-11.36,54.55-1.97,16.8-2.08,24.08-1.15,32.43,1.64,14.65.73,25.51-1.22,36.5-3.58,20.51-7.93,31.29-9.68,43.01-1.16,7.82-1.5,11.17-2.52,16.84-.39,2.18-.86,3.9.12,7.98,2.74,11.49,7.29,14.64,7.37,19.68.13,8.03-10.39,8.46-15.4,9.02-4.22.47-8.29-6.17-8.75-14.2-1.1-1.83-.86-5.81-.67-11.05.07-1.84-.22-3.96-.41-6.7-.15-2.15.17-4.47.33-6.52.13-1.65.47-3.12.55-4.06,1.52-17.11.5-21.42-.91-37.39-1.91-21.49,1.05-25.73.06-40.74-.73-11.09-1.4-17.95-1.92-27.45-.54-9.77-.46-19.16.2-26.81,1.55-18.06,1.9-23,2.84-37.05,1.22-18.38-2.25-25.69,0-41.18-.25-4.21-2.59-6.28-3.06-10.1-1.3.05-2.84.01-3.7-.19,1.65,11.41-2.3,17.88-1.78,31.05,1.3,16,.25,20.64,2.26,40.49.98,9.64,1.79,17.89,1.73,30.87-.04,8.11-1.43,16.49-1.77,24.88-.47,11.84,1.54,16.66-.27,34.53-1.93,19.03-.05,24.02-.9,46.1-.22,5.74-.72,7.95.03,14.6.18,1.59.71,3.68.63,5.75-.09,2.33-.25,4.47-.33,6.36-.15,3.29-.14,5.54.1,7.54,1.03,8.6.93,15.25-2.71,17.23-5.02,2.74-16.67,5.98-18.8,1.95-1.97-3.73-1.36-6.27,1.43-18.71,1.01-4.5,2.31-6.8,2.41-11.92.07-3.86.71-5.21.49-7.88-.8-9.69-5-17.34-8.92-34.86-2.66-11.91-5.27-24.29-4.79-41.27.25-8.87.97-15.2,1.02-28.69.03-9.46-2.7-23.19-7.75-47.74-2.48-12.06-9.41-36.38-11.95-52.86-1.07-6.9-3.24-16.97-3.5-23.25-.11-1.23-.15-2.58-.14-3.63.1-12.69,2.65-21.15,4.86-27.57.12-15.52,1.59-34.81,3.45-45.28,2.48-13.94,5.02-29.34,6.98-37.02.56-2.33.83-4.63,1.04-6.4.72-.95-1.72-1.99-3.06-3.83-1.36,4.96-3.27,11.11-4.82,16.12-2.3,7.45-4.85,15.18-6.07,20.76-.22,1-.41,1.96-.54,2.82-.29,1.91-1.54,17.81-9.04,35.79-.42,1.01-.82,1.97-1.21,2.89-6.01,14.31-8.45,19.22-12.7,27.24-3.1,5.84-5.37,10.49-5.68,14.27-.01.15-.04.31-.05.45-.11,1.65,1.79,5.15,2.47,7.35,2.1,6.81-2.15,12.51,2.7,21.39.52.95-2.69,1.07-4.6-.8-2.4-2.37-3.11-8.84-3.18-7.65-.48,7.9-1.95,9.71-2.86,16.16-.66,4.71,1.19,7.31-.26,9.21-1.11,1.46-1.49,1.34-4.22-1.26-1.91-1.83-3.13-3.52-4.37-4.89-2.39-2.63-3.69-5.25-3.9-10.68-.15-4.13.49-7.24,2.12-13.21.72-2.64,1.52-4.12,2.56-11.5.32-2.28.31-3.6.32-4.58,0-.54,0-.98.06-1.42.37-3.05,2.07-4.01,2.99-9.76,1.75-10.89,2.91-18.96,4.54-30.33.33-2.29.68-4.71,1.06-7.32,1.36-9.39,5.89-21.19,10.64-34.18.27-.74.54-1.48.82-2.23.49-1.34,1.52-11.48,1.91-16.81.5-6.66,5.12-67.73,8.29-76.94,2.37-6.87,4.66-9.63,6.85-10.54v-.02s1.79-.89,2.87-1.3c3.23-1.21,7.28-1.81,11.56-2.55,3.66-.64,11.81-1.41,15.4-2.8,5.33-2.05,9.72-4.61,12.37-11.01,1.11-2.7,1.56-10.21,1.75-15.33-2.54-2.35-4.51-5.38-5.74-10.41-.22-.9-.48-1.98-.74-3.12-2.78.98-3.5-3.3-4.02-4.54-.57-1.37-1.31-1.5-2.07-4.5-.51-2.01.37-3.32,0-4.61-.24-.87-.36-3.32.75-4.16.12-.09.26-.14.42-.19-1.65-6.26-2.7-16.5.74-24.33,1.48-3.39,3.32-6.13,5.25-8.29,4.57-5.58,12.09-9.22,20.61-9.22s16.05,3.64,20.61,9.22c1.93,2.16,3.77,4.9,5.25,8.29,3.44,7.84,2.38,18.07.74,24.33.15.05.3.1.42.19,1.11.84.99,3.29.75,4.16-.36,1.29.52,2.6.01,4.61-.75,3-1.5,3.13-2.07,4.5-.52,1.24-1.24,5.52-4.02,4.54-.26,1.14-.52,2.22-.74,3.12-1.23,5.03-3.2,8.06-5.74,10.41.18,5.13.63,12.64,1.75,15.33,2.64,6.4,7.04,8.96,12.37,11.01,3.59,1.39,11.73,2.16,15.4,2.8,4.28.75,8.33,1.34,11.56,2.55,1.08.41,2.87,1.3,2.87,1.3v.02c2.2.91,4.49,3.66,6.85,10.54,3.17,9.21,7.79,70.28,8.29,76.94.39,5.34,1.42,15.47,1.91,16.81.27.75.54,1.49.82,2.23,4.81,12.97,9.28,24.79,10.64,34.18.37,2.61.72,5.03,1.05,7.32,1.64,11.36,2.8,19.43,4.54,30.33.92,5.75,2.61,6.7,2.99,9.76.05.44.05.88.05,1.42,0,.98,0,2.3.33,4.58,1.04,7.38,1.84,8.86,2.56,11.5,1.63,5.98,2.27,9.09,2.11,13.21Z"/>
  </g>
</svg>