<?xml version="1.0" encoding="UTF-8"?>
<svg id="_레이어_2" data-name="레이어 2" xmlns="http://www.w3.org/2000/svg" viewBox="0 0 203.66 571.53">
  <defs>
    <style>
      .cls-1 {
        fill: #f3a9aa;
        stroke: #231815;
        stroke-miterlimit: 10;
      }
    </style>
  </defs>
  <g id="_레이어_1-2" data-name="레이어 1">
    <path class="cls-1" d="m45.54,105.52c3.23-1.22,7.28-1.81,11.56-2.56,3.66-.64,11.81-1.41,15.4-2.8,5.33-2.05,9.72-4.61,12.37-11,1.11-2.7,1.56-10.2,1.75-15.33-2.54-2.35-4.51-5.38-5.74-10.4-.22-.9-.48-1.97-.74-3.12-2.78.98-3.5-3.3-4.02-4.54-.57-1.36-1.31-1.49-2.07-4.5-.5-2,.37-3.32,0-4.61-.24-.87-.36-3.32.75-4.16.12-.09.26-.14.42-.18-1.65-6.26-2.7-16.5.74-24.33,1.48-3.39,3.32-6.12,5.25-8.28,4.57-5.57,12.09-9.21,20.61-9.21s16.04,3.65,20.61,9.21c1.93,2.17,3.77,4.9,5.25,8.28,3.44,7.83,2.39,18.07.74,24.33.16.04.3.09.42.18,1.11.84.99,3.29.75,4.16-.36,1.29.51,2.6.01,4.61-.76,3-1.5,3.14-2.07,4.5-.52,1.24-1.24,5.52-4.02,4.54-.26,1.15-.52,2.22-.74,3.12-1.23,5.03-3.2,8.05-5.74,10.4.19,5.13.64,12.63,1.75,15.33,2.65,6.4,7.04,8.95,12.37,11,3.59,1.39,11.73,2.16,15.4,2.8,4.28.75,8.33,1.34,11.56,2.56,1.08.4,2.87,1.29,2.87,1.29v.02c2.2.91,4.49,3.66,6.85,10.53,3.17,9.2,7.79,70.26,8.29,76.92.39,5.34,1.42,15.47,1.91,16.81.27.75.55,1.49.82,2.23,4.76,12.98,9.28,24.78,10.64,34.17.38,2.61.73,5.03,1.06,7.32,1.63,11.35,2.79,19.43,4.54,30.31.92,5.75,2.61,6.7,2.99,9.75.05.44.05.88.06,1.43,0,.97,0,2.29.32,4.57,1.04,7.38,1.84,8.85,2.56,11.49,1.63,5.98,2.27,9.09,2.12,13.21-.21,5.43-1.51,8.04-3.9,10.68-1.24,1.36-2.46,3.05-4.37,4.88-2.73,2.6-3.1,2.72-4.21,1.26-1.44-1.9.4-4.5-.26-9.2-.91-6.46-2.38-8.26-2.86-16.16-.07-1.19-.78,5.28-3.18,7.64-1.91,1.88-5.12,1.75-4.6.8,4.85-8.88.6-14.58,2.7-21.39.68-2.2,2.57-5.7,2.47-7.35,0-.14-.04-.29-.05-.44-.3-3.77-2.58-8.43-5.68-14.27-4.25-8.01-6.68-12.92-12.7-27.22-.39-.93-.79-1.89-1.21-2.9-7.5-17.97-8.74-33.87-9.04-35.78-.13-.86-.32-1.82-.54-2.82-1.96-8.91-7.02-22.75-10.31-34.47-.52-1.84-1.78-7.31-2.31-9.58-.15.5-.3,1.02-.45,1.54-2.61,11.05-5.54,30.24-.41,42.52,0,0,0,.02,0,.04.02.04.02.07.03.1,1.25,5.4,1.99,11.21,4.34,19.21,2.62,8.92,3.41,12.27,4.67,17.26.48,1.38,1.01,2.97,1.73,4.99,3.26,9.15,8.48,21.16,8.65,41.34v.15c.03,4.23-.15,8.82-.61,13.8-1.17,12.51-9.81,39.24-13.03,52-7.17,28.37-11.23,45.39-11.75,55.38-.68,12.92.89,16.96,2.29,24.78,2.72,15.2.74,28.34-2.5,40.4-5.98,22.26-12.25,32.17-12.89,43.85-.16,2.92,1.81,4.14.73,7.82-.56,1.93-1.52,3.76-.08,8.04,4.88,14.47,11.22,18.26,10.47,23.54-.83,5.85-18.43,5.5-25.32,4.18-5.68-1.09-5.6-10.05-3.96-20.33.33-2.08.5-4.39.37-7.96-.07-1.76-.5-3.81-.72-6.27-.21-2.28.4-4.69.72-6.6.24-1.44.49-2.6.54-3.21,1.68-22.36,1.05-27.73-1.48-48.76-2.54-21.26,1.03-25.06.58-38.05-.27-7.7-2.36-15.57-2.92-23.9-.7-10.47.27-20.35,1.26-27.78,2.73-20.56,2.72-23.87,3.6-40.12.96-17.65-4.1-26.3-1.21-41.52-.67.27-2.31.39-3.94.38-1.62,0-3.26-.11-3.93-.38,2.89,15.22-2.17,23.87-1.22,41.52.89,16.25.87,19.57,3.61,40.12.99,7.44,1.96,17.32,1.25,27.78-.56,8.33-2.65,16.2-2.91,23.9-.45,12.99,3.12,16.8.57,38.05-2.52,21.03-2.99,26.39-1.47,48.76.04.61.3,1.77.54,3.21.32,1.91.92,4.31.71,6.6-.22,2.47-.65,4.52-.71,6.27-.13,3.56.04,5.88.37,7.96,1.64,10.28,1.71,19.24-3.96,20.33-6.89,1.32-24.49,1.68-25.32-4.18-.75-5.29,5.59-9.07,10.46-23.54,1.45-4.28.5-6.12-.07-8.04-1.08-3.69.88-4.91.73-7.82-.64-11.68-6.91-21.59-12.89-43.85-3.24-12.05-5.23-25.2-2.5-40.4,1.4-7.82,2.97-11.86,2.29-24.78-.53-9.99-4.58-27.01-11.75-55.38-3.22-12.76-11.86-39.49-13.03-52-.46-4.98-.64-9.57-.61-13.8v-.15c.17-20.18,5.39-32.19,8.65-41.34.6-1.68,1.06-3.08,1.48-4.29,1.43-5.58,2.12-8.75,4.93-18.23,2.34-7.91,3.14-13.61,4.32-18.97,0-.04.02-.1.04-.14,0-.01,0-.01,0-.02,5.3-12.56,1.87-32.6-.76-43.62-.11.19-.24.45-.38.77-.59,2.54-1.59,6.84-2.04,8.42-1.64,5.86-3.74,12.25-5.66,18.3-1.92,6.03-3.67,11.72-4.65,16.17-.22,1-.41,1.96-.54,2.82-.29,1.91-1.54,17.81-9.04,35.78-.42,1.01-.82,1.97-1.21,2.9-6.01,14.3-8.45,19.22-12.7,27.22-3.1,5.84-5.37,10.5-5.68,14.27-.01.15-.04.3-.05.44-.1,1.65,1.79,5.15,2.47,7.35,2.1,6.81-2.15,12.5,2.7,21.39.52.95-2.69,1.08-4.6-.8-2.4-2.37-3.11-8.83-3.18-7.64-.48,7.89-1.95,9.7-2.86,16.16-.66,4.71,1.18,7.3-.26,9.2-1.11,1.46-1.49,1.34-4.22-1.26-1.91-1.83-3.13-3.52-4.37-4.88-2.39-2.64-3.69-5.25-3.9-10.68-.15-4.12.49-7.23,2.12-13.21.72-2.64,1.52-4.11,2.56-11.49.32-2.28.31-3.6.32-4.57,0-.55,0-.99.06-1.43.37-3.05,2.07-4.01,2.99-9.75,1.75-10.88,2.91-18.96,4.54-30.31.33-2.3.68-4.71,1.06-7.32,1.36-9.38,5.88-21.19,10.64-34.17.27-.74.54-1.48.82-2.23.49-1.34,1.52-11.47,1.91-16.81.5-6.66,5.12-67.71,8.29-76.92,2.37-6.87,4.66-9.62,6.85-10.53v-.02s1.79-.89,2.87-1.29Z"/>
  </g>
</svg>