<?xml version="1.0" encoding="UTF-8"?>
<svg id="_레이어_2" data-name="레이어 2" xmlns="http://www.w3.org/2000/svg" viewBox="0 0 203.66 571.5">
  <defs>
    <style>
      .cls-1 {
        fill: #f3a9aa;
        stroke: #231815;
        stroke-miterlimit: 10;
      }
    </style>
  </defs>
  <g id="_레이어_1-2" data-name="레이어 1">
    <path class="cls-1" d="m106.21,347.24c-.41,8.12-.62,13.01-1.04,18.44-.42,5.43-1.06,11.4-2.35,21.67-.37,2.93-.73,6.23-1,9.8v-91.06c.69-.01,1.36-.05,1.93-.11s1.04-.14,1.32-.26c-1.35,7.61-.84,13.57-.11,19.84.74,6.27,1.7,12.84,1.25,21.66Zm94.81-34.92c-.72-2.64-1.52-4.11-2.56-11.49-.32-2.28-.32-3.6-.32-4.57,0-.55,0-.99-.06-1.43-.4-3.05-2.07-4.01-2.99-9.75-1.75-10.87-2.91-18.95-4.54-30.31-.33-2.3-.68-4.72-1.06-7.32-1.36-9.38-5.88-21.18-10.64-34.16-.27-.74-.54-1.48-.82-2.23-.48-1.34-1.52-11.47-1.91-16.81-.5-6.65-5.12-67.71-8.29-76.91-2.37-6.86-4.66-9.62-6.85-10.53v-.02s-1.79-.89-2.87-1.29c-3.23-1.22-7.27-1.85-11.56-2.56-3.66-.67-11.81-1.41-15.4-2.8-5.33-2.05-9.72-4.61-12.37-11-1.11-2.7-1.56-10.2-1.75-15.33,2.54-2.35,4.51-5.38,5.74-10.4.22-.9.48-1.97.74-3.12,2.78.98,3.5-3.3,4.02-4.54.57-1.36,1.32-1.49,2.07-4.5.51-2-.36-3.32-.01-4.61.25-.87.36-3.32-.75-4.16-.12-.09-.26-.14-.42-.18,1.65-6.26,2.7-16.5-.74-24.33-1.48-3.39-3.32-6.12-5.25-8.28-4.57-5.56-12.09-9.2-20.61-9.21-8.51.01-16.04,3.66-20.6,9.21-1.93,2.17-3.77,4.9-5.25,8.28-3.44,7.83-2.39,18.07-.74,24.33-.16.04-.3.09-.42.18-1.11.84-1,3.29-.75,4.16.35,1.29-.52,2.61,0,4.61.75,3.01,1.5,3.14,2.07,4.5.52,1.24,1.24,5.52,4.02,4.54.26,1.15.52,2.22.74,3.12,1.23,5.03,3.2,8.05,5.74,10.4-.19,5.13-.64,12.63-1.75,15.33-2.65,6.39-7.04,8.95-12.37,11-3.59,1.39-11.74,2.13-15.4,2.8-4.29.71-8.33,1.34-11.56,2.56-1.08.4-2.87,1.29-2.87,1.29v.02c-2.2.91-4.49,3.67-6.85,10.53-3.18,9.2-7.79,70.25-8.29,76.91-.39,5.34-1.43,15.47-1.91,16.81-.28.75-.55,1.49-.82,2.23-4.76,12.98-9.28,24.78-10.64,34.16-.38,2.61-.73,5.03-1.06,7.32-1.63,11.35-2.79,19.43-4.54,30.31-.92,5.75-2.59,6.7-2.99,9.75-.05.44-.05.88-.06,1.43,0,.97,0,2.29-.32,4.57-1.04,7.38-1.84,8.85-2.56,11.49-1.63,5.98-2.27,9.09-2.12,13.21.21,5.44,1.51,8.04,3.9,10.68,1.24,1.36,2.46,3.05,4.37,4.88,2.73,2.6,3.11,2.73,4.22,1.26,1.45-1.9-.4-4.5.26-9.2.91-6.45,2.38-8.26,2.86-16.16.07-1.19.78,5.28,3.18,7.64,1.91,1.88,5.12,1.75,4.6.8-4.85-8.88-.6-14.58-2.7-21.38-.68-2.2-2.56-5.7-2.47-7.34.01-.14.04-.29.05-.44.35-3.77,2.58-8.43,5.67-14.27,4.25-8,6.68-12.92,12.7-27.22.39-.93.79-1.89,1.21-2.9,7.5-17.97,8.74-33.86,9.04-35.77.13-.86.32-1.82.54-2.82,1.96-8.91,7.02-22.75,10.31-34.46.52-1.84,1.78-7.3,2.31-9.58,3.83,12.89,9.44,33.73,1.82,44.36-.5.46-2.24,13.99-4.05,22.6-2.89,13.78-2.16,11.6-4.25,18.89-3.17,9.09-7.92,21.11-8.08,41.19v.3c-.02,4.19.15,8.71.58,13.66,1.1,12.5,9.22,39.22,12.25,51.98,6.74,28.37,10.56,45.38,11.05,55.38.65,12.92-.83,16.96-2.15,24.78-2.56,15.2-.69,28.34,2.35,40.39,5.63,22.26,11.52,32.16,12.12,43.84.15,2.92-1.69,4.14-.68,7.83.53,1.92,1.43,3.76.07,8.03-4.59,14.47-10.55,18.26-9.85,23.54.79,5.87,17.34,5.5,23.82,4.18,5.34-1.09,5.27-10.05,3.73-20.32-.31-2.08-.47-4.4-.35-7.95.06-1.76.46-3.8.67-6.27.19-2.28-.37-4.69-.67-6.59-.23-1.44-.47-2.6-.51-3.21-1.43-22.36-.99-27.73,1.39-48.75,2.39-21.24-.97-25.06-.55-38.05.23-7,1.87-14.15,2.56-21.65.7,7.5,2.34,14.65,2.57,21.65.42,12.99-2.94,16.81-.55,38.05,2.38,21.02,2.82,26.39,1.39,48.75-.04.61-.28,1.77-.51,3.21-.3,1.91-.86,4.32-.67,6.59.21,2.48.61,4.52.67,6.27.12,3.56-.04,5.88-.35,7.95-1.54,10.27-1.61,19.23,3.73,20.32,6.48,1.32,23.03,1.69,23.82-4.18.7-5.29-5.27-9.07-9.85-23.54-1.36-4.28-.46-6.12.07-8.03,1.01-3.7-.83-4.92-.68-7.83.6-11.68,6.49-21.58,12.12-43.84,3.04-12.05,4.91-25.19,2.35-40.39-1.32-7.82-2.8-11.86-2.15-24.78.49-9.99,4.31-27.01,11.05-55.38,3.03-12.76,11.15-39.48,12.25-51.98.43-4.95.6-9.47.58-13.66v-.3c-.16-20.07-4.92-32.09-8.08-41.19-2.09-7.28-1.66-5.09-4.55-18.86-1.81-8.61-3.25-22.16-3.75-22.62-7.62-10.63-2.01-31.47,1.82-44.36.53,2.28,1.79,7.74,2.31,9.58,3.29,11.71,8.35,25.55,10.31,34.46.22,1,.41,1.96.54,2.82.3,1.91,1.54,17.81,9.04,35.77.42,1.01.82,1.97,1.21,2.9,6.01,14.3,8.45,19.21,12.7,27.22,3.1,5.84,5.33,10.5,5.68,14.27,0,.15.04.3.05.44.09,1.65-1.79,5.15-2.47,7.34-2.1,6.8,2.15,12.5-2.7,21.38-.52.95,2.69,1.08,4.6-.8,2.4-2.37,3.11-8.83,3.18-7.64.48,7.89,1.95,9.7,2.86,16.16.66,4.71-1.19,7.3.26,9.2,1.11,1.47,1.49,1.34,4.22-1.26,1.91-1.83,3.13-3.52,4.37-4.88,2.39-2.64,3.69-5.25,3.9-10.68.15-4.12-.49-7.23-2.12-13.21Z"/>
  </g>
</svg>