<?xml version="1.0" encoding="UTF-8"?>
<svg id="_레이어_2" data-name="레이어 2" xmlns="http://www.w3.org/2000/svg" viewBox="0 0 203.66 571.98">
  <defs>
    <style>
      .cls-1 {
        fill: #f3a9aa;
        stroke: #231815;
        stroke-miterlimit: 10;
      }
    </style>
  </defs>
  <g id="_레이어_1-2" data-name="레이어 1">
    <path class="cls-1" d="m201.03,312.45c-.72-2.64-1.52-4.12-2.56-11.5-.32-2.28-.32-3.6-.33-4.58,0-.54,0-.98-.05-1.42-.37-3.05-2.07-4.01-2.99-9.76-1.75-10.89-2.91-18.96-4.54-30.33-.33-2.29-.68-4.71-1.05-7.32-1.36-9.39-5.84-21.21-10.64-34.18-.27-.74-.55-1.48-.82-2.23-.49-1.34-1.52-11.48-1.91-16.81-.5-6.66-5.12-67.73-8.29-76.94-2.37-6.87-4.66-9.63-6.85-10.54v-.02s-1.79-.89-2.87-1.3c-3.23-1.21-7.28-1.8-11.56-2.55-3.66-.64-11.81-1.41-15.4-2.8-5.33-2.05-9.73-4.61-12.37-11.01-1.12-2.7-1.57-10.21-1.75-15.33,2.54-2.35,4.51-5.38,5.73-10.41.22-.9.48-1.98.74-3.12,2.78.98,3.5-3.3,4.02-4.54.57-1.37,1.31-1.5,2.07-4.5.51-2.01-.37-3.32,0-4.61.24-.87.36-3.32-.75-4.16-.12-.09-.27-.14-.42-.19,1.64-6.26,2.7-16.5-.74-24.33-1.48-3.39-3.32-6.13-5.25-8.29-4.57-5.57-12.09-9.21-20.61-9.22-8.52,0-16.05,3.64-20.61,9.22-1.93,2.16-3.77,4.9-5.25,8.29-3.44,7.84-2.39,18.07-.74,24.33-.16.05-.3.1-.42.19-1.11.84-.99,3.29-.75,4.16.36,1.29-.52,2.6-.01,4.61.75,3,1.5,3.13,2.07,4.5.52,1.24,1.24,5.52,4.02,4.54.26,1.14.52,2.22.74,3.12,1.23,5.03,3.2,8.06,5.74,10.41-.19,5.13-.64,12.64-1.75,15.33-2.65,6.4-7.04,8.96-12.37,11.01-3.59,1.39-11.73,2.16-15.4,2.8-4.28.75-8.33,1.34-11.56,2.55-1.08.41-2.87,1.3-2.87,1.3v.02c-2.2.91-4.49,3.66-6.85,10.54-3.17,9.21-7.79,70.28-8.29,76.94-.39,5.34-1.42,15.48-1.91,16.81-.28.75-.55,1.49-.82,2.23-4.76,12.99-9.28,24.79-10.64,34.18-.38,2.61-.73,5.03-1.06,7.32-1.63,11.36-2.79,19.43-4.54,30.33-.92,5.75-2.61,6.7-2.99,9.76-.05.44-.05.88-.06,1.42,0,.98,0,2.3-.32,4.58-1.04,7.38-1.84,8.86-2.56,11.5-1.63,5.98-2.27,9.09-2.12,13.21.21,5.43,1.51,8.05,3.9,10.68,1.24,1.37,2.45,3.06,4.37,4.89,2.72,2.6,3.11,2.72,4.22,1.26,1.45-1.9-.4-4.5.26-9.21.91-6.46,2.38-8.27,2.86-16.16.07-1.19.78,5.28,3.18,7.65,1.91,1.87,5.12,1.75,4.6.8-4.85-8.89-.6-14.58-2.7-21.39-.68-2.2-2.57-5.7-2.47-7.35,0-.14.04-.3.05-.45.3-3.77,2.58-8.43,5.67-14.27,4.25-8.01,6.68-12.92,12.7-27.24.39-.92.79-1.88,1.21-2.89,7.5-17.97,8.75-33.88,9.04-35.79.13-.86.32-1.82.54-2.82.98-4.46,2.74-10.14,4.65-16.18,1.92-6.05,4.02-12.44,5.66-18.3.5-1.76,1.68-6.83,2.22-9.2.15.23.28.5.41.77.25,7.28-.76,26.5-4.83,42.98-1.33,5.79-1.78,12.95-2.66,21.14-.7,6.5-1.04,11.53-1.31,16.28-.43,1.31-.86,2.64-1.44,4.42-3.37,9.12-8.48,21.17-8.65,41.36v.14c-.03,4.23.15,8.82.61,13.8,1.17,12.52,9.81,39.25,13.03,52.02,7.17,28.37,11.22,45.39,11.75,55.4.68,12.91-.89,16.96-2.29,24.78-2.73,15.21-.74,28.36,2.5,40.4,5.97,22.28,12.25,32.19,12.89,43.87.15,2.92-1.81,4.13-.73,7.82.57,1.93,1.52,3.77.07,8.05-4.88,14.47-11.21,18.26-10.46,23.55.83,5.86,18.42,5.5,25.32,4.17,5.67-1.08,5.6-10.06,3.96-20.32-.33-2.09-.5-4.4-.37-7.96.06-1.76.49-3.81.71-6.28.21-2.28-.39-4.69-.71-6.6-.24-1.44-.5-2.6-.54-3.21-1.52-22.37-1.05-27.74,1.47-48.77,2.55-21.26-1.02-25.07-.57-38.07.26-7.71,2.35-15.57,2.91-23.93.71-10.45-.26-20.34-1.25-27.78-2.74-20.55-2.72-23.87-3.61-40.13-.95-17.66,4.11-26.31,1.22-41.53.67.27,2.3.37,3.92.38h.01c1.63,0,3.26-.11,3.93-.38-2.89,15.22,2.17,23.87,1.21,41.53-.88,16.25-.87,19.57-3.6,40.13-.99,7.44-1.96,17.33-1.26,27.78.56,8.35,2.65,16.22,2.92,23.93.45,12.99-3.12,16.8-.58,38.07,2.53,21.03,3.11,26.41,1.48,48.77-.04.61-.3,1.77-.54,3.21-.32,1.91-.92,4.32-.72,6.6.23,2.47.65,4.52.72,6.28.13,3.56-.04,5.87-.37,7.96-1.64,10.27-1.72,19.24,3.96,20.32,6.89,1.33,24.49,1.69,25.32-4.17.75-5.29-5.59-9.08-10.47-23.55-1.44-4.29-.49-6.13.08-8.05,1.08-3.69-.89-4.9-.73-7.82.64-11.69,6.91-21.59,12.89-43.87,3.24-12.05,5.22-25.2,2.5-40.4-1.4-7.82-2.97-11.87-2.29-24.78.52-10.01,4.58-27.03,11.75-55.4,3.22-12.77,11.86-39.49,13.03-52.02.46-4.98.64-9.58.61-13.8v-.14c-.17-20.19-5.29-32.24-8.65-41.36-.58-1.78-1.01-3.1-1.44-4.42-.01-.04-.03-.08-.04-.12-.25-4.53-.6-9.43-1.25-15.61-.88-8.39-1.33-15.78-2.68-21.69-3.99-16.38-5.18-35.3-4.93-42.6.14-.51.29-1.04.44-1.55.52,2.28,1.79,7.74,2.31,9.59,3.29,11.72,8.35,25.56,10.3,34.48.22,1,.41,1.96.55,2.82.3,1.91,1.54,17.81,9.04,35.79.42,1.01.82,1.97,1.21,2.89,6.01,14.31,8.45,19.22,12.7,27.24,3.1,5.84,5.37,10.49,5.68,14.27.01.15.04.31.05.45.1,1.65-1.8,5.15-2.47,7.35-2.11,6.81,2.15,12.51-2.71,21.39-.52.95,2.69,1.07,4.6-.8,2.4-2.37,3.11-8.84,3.18-7.65.48,7.9,1.95,9.71,2.86,16.16.66,4.71-1.19,7.31.26,9.21,1.11,1.46,1.49,1.33,4.21-1.26,1.92-1.83,3.13-3.52,4.37-4.89,2.39-2.64,3.69-5.25,3.9-10.68.16-4.13-.48-7.24-2.11-13.21Z"/>
  </g>
</svg>