<?xml version="1.0" encoding="UTF-8"?>
<svg id="_레이어_2" data-name="레이어 2" xmlns="http://www.w3.org/2000/svg" viewBox="0 0 203.83 572.16">
  <defs>
    <style>
      .cls-1 {
        fill: #f2a7a9;
        stroke: #221714;
        stroke-miterlimit: 10;
      }
    </style>
  </defs>
  <g id="_레이어_1-2" data-name="레이어 1">
    <path class="cls-1" d="m.53,325.95c.22,5.01,1.38,7.59,3.49,10.06.18.2.36.41.54.62,1.08,1.21,2.17,2.66,3.72,4.23.23.23.45.45.68.67,2.1,1.98,2.73,2.37,3.53,1.65.22-.19.42-.46.63-.8,1.11-1.75-.26-4.1.05-8.06.03-.4.08-.8.14-1.22.87-5.91,2.2-7.91,2.73-14.77.04-.45.09-.68.17-.82.16-.31.73,3.91,2.37,6.4.31.48.67.89,1.06,1.21,1.18.96,2.69,1.19,3.33,1.06.59-.12.97-.43.73-.9-4.16-7.99-1.03-13.4-2.16-19.47-.12-.65-.3-1.33-.53-2.03-.54-1.59-1.55-3.67-1.95-5.25-.03-.13-.06-.27-.08-.4-.14-.66-.22-1.26-.16-1.77.02-.14.05-.3.07-.46.41-3.29,2.21-7.22,4.68-11.99.39-.75.79-1.52,1.2-2.29,3.85-7.29,6.28-12.19,11.5-24.54.39-.91.79-1.86,1.2-2.86.37-.87.74-1.78,1.13-2.72,6.17-15.02,7.96-28.46,8.57-33.16.17-1.29.3-2.25.39-2.79.16-.87.35-1.84.58-2.85,1.04-4.53,2.82-10.23,4.73-16.23,1.58-4.97,3.26-10.14,4.7-15.04.3-1.02.62-2.16.93-3.33.38-1.43,1-4.04,1.49-6.14.32-.74.63-1.41.86-1.74.15.51.29,1.04.44,1.55.25,6.9-.86,23.32-2.9,38.92-.21,1.21-.45,2.42-.72,3.63-.96,4.27-1.99,9.85-3.14,16.03-.99,5.36-1.8,10.4-2.31,15.12-1.97,3.6-3.16,6.23-4.47,9.56-.02.05-.04.1-.06.15-3.55,9.08-9.1,21.08-9.22,41.22,0,.09,0,.2-.01.3-.02,4.28.15,8.91.65,13.96,1.24,12.52,10.39,39.26,13.81,52.03,7.6,28.39,11.9,45.42,12.46,55.42.72,12.92-.94,16.97-2.43,24.8-2.89,15.21-.78,28.35,2.65,40.42,6.34,22.28,12.99,32.18,13.66,43.88.17,2.92-1.9,4.14-.76,7.82.6,1.94,1.6,3.78.07,8.06-5.17,14.48-11.89,18.27-11.1,23.56.88,5.86,19.55,5.5,26.85,4.18,6.01-1.09,5.93-10.07,4.2-20.34-.35-2.08-.52-4.4-.39-7.96.06-1.77.51-3.81.75-6.29.22-2.27-.41-4.68-.75-6.59-.26-1.44-.53-2.6-.57-3.21-1.54-22.39-1.12-27.75,1.55-48.79,2.7-21.27-1.08-25.08-.61-38.08.29-7.71,2.5-15.58,3.09-23.92.75-10.47-.28-20.37-1.33-27.8-2.89-20.57-2.88-23.89-3.81-40.15-1.02-17.67,4.34-26.32,1.28-41.55.71.27,2.45.37,4.17.38,1.72,0,3.46-.11,4.17-.38-3.06,15.23,2.3,23.88,1.29,41.55-.94,16.26-.92,19.58-3.82,40.15-1.05,7.43-2.08,17.33-1.33,27.8.59,8.34,2.81,16.21,3.09,23.92.47,13-3.31,16.81-.61,38.08,2.67,21.04,3.28,26.42,1.56,48.79-.05.61-.31,1.77-.57,3.21-.34,1.91-.98,4.32-.76,6.59.24,2.48.69,4.52.76,6.29.13,3.56-.05,5.88-.4,7.96-1.73,10.27-1.81,19.25,4.2,20.34,7.31,1.32,25.97,1.68,26.85-4.18.79-5.29-5.93-9.08-11.1-23.56-1.53-4.28-.53-6.12.07-8.06,1.14-3.69-.93-4.9-.76-7.82.67-11.7,7.32-21.6,13.66-43.88,3.43-12.07,5.54-25.21,2.65-40.42-1.48-7.83-3.15-11.88-2.43-24.8.56-10,4.86-27.03,12.46-55.42,3.24-12.1,11.64-36.76,13.53-49.91.14-1,.26-1.95.34-2.85.36-3.89.55-7.53.58-10.95,0-.09,0-.19,0-.28,0-.94,0-1.87,0-2.78,0-.1,0-.21-.01-.3-.27-17.91-4.81-29.29-8.23-37.96-.02-.04-.03-.08-.05-.12,0,0,0,0,0,0-.44-1.12-.87-2.18-1.28-3.21-.02-.05-.04-.1-.06-.15,0,0,0,0,0,0-1.28-3.19-2.53-5.84-4.57-9.51-.44-3.64-1.04-7.5-1.75-11.54-1.33-7.62-2.65-14.54-3.54-19.68,0,0,0-.01,0-.02-1.9-16.83-3.31-35.27-3.07-42.53.14-.51.29-1.04.44-1.55.52,2.28,1.79,7.74,2.31,9.59,3.29,11.72,8.35,25.57,10.31,34.49.22,1,.41,1.96.55,2.82.3,1.91,1.54,17.82,9.05,35.8.42,1.01.82,1.97,1.21,2.89,6.02,14.32,8.45,19.23,12.71,27.25,3.1,5.84,5.38,10.5,5.68,14.27.01.15.04.31.05.45.1,1.65-1.8,5.15-2.47,7.35-2.11,6.81,2.15,12.51-2.71,21.4-.52.95,2.7,1.07,4.61-.8,2.4-2.37,3.11-8.84,3.18-7.65.48,7.9,1.95,9.71,2.86,16.17.66,4.71-1.19,7.31.26,9.21,1.11,1.46,1.49,1.33,4.21-1.26,1.92-1.83,3.13-3.52,4.37-4.89,2.39-2.64,3.69-5.25,3.9-10.68.16-4.13-.48-7.24-2.11-13.22-.72-2.64-1.52-4.12-2.56-11.5-.32-2.28-.33-3.6-.33-4.58,0-.54,0-.98-.05-1.42-.37-3.05-2.07-4.01-2.99-9.76-1.75-10.9-2.91-18.97-4.55-30.34-.33-2.29-.68-4.71-1.05-7.32-1.36-9.39-5.84-21.22-10.65-34.19-.27-.74-.55-1.48-.82-2.23-.49-1.34-1.52-11.48-1.91-16.82-.5-6.67-5.13-67.76-8.3-76.97-2.37-6.88-4.66-9.63-6.86-10.54v-.02s-1.79-.89-2.87-1.3c-.91-.34-1.88-.63-2.91-.89l-36.28-15.09c-.06-.13-.12-.25-.17-.38-1.12-2.7-1.57-10.21-1.75-15.34,2.54-2.35,4.51-5.38,5.74-10.41.22-.9.48-1.98.74-3.12,2.78.98,3.5-3.3,4.02-4.54.57-1.37,1.31-1.5,2.07-4.5.51-2.01-.37-3.32,0-4.61.24-.87.36-3.32-.75-4.16-.12-.09-.27-.14-.42-.19,1.64-6.26,2.7-16.5-.74-24.34-1.48-3.39-3.32-6.13-5.25-8.29-4.57-5.58-12.1-9.22-20.63-9.22s-16.06,3.64-20.63,9.22c-1.93,2.16-3.77,4.9-5.25,8.29-3.44,7.84-2.39,18.08-.74,24.34-.16.05-.3.1-.42.19-1.11.84-.99,3.29-.75,4.16.36,1.29-.52,2.6-.01,4.61.76,3,1.5,3.13,2.07,4.5.52,1.24,1.24,5.52,4.02,4.54.26,1.14.52,2.22.74,3.12,1.23,5.03,3.2,8.06,5.74,10.41-.19,5.13-.64,12.64-1.75,15.34-.05.13-.11.25-.17.37l-36.33,15.11c-1.01.26-1.97.54-2.86.88-1.08.41-2.87,1.3-2.87,1.3v.02c-2.2.91-4.49,3.66-6.86,10.54-3.17,9.21-7.8,70.3-8.3,76.97-.39,5.34-1.42,15.48-1.91,16.82-.28.75-.55,1.49-.82,2.23-4.76,12.99-9.29,24.8-10.65,34.19-.38,2.61-.73,5.03-1.06,7.32-1.63,11.37-2.79,19.44-4.54,30.34-.92,5.75-2.62,6.71-2.99,9.76-.05.44-.06.88-.06,1.42,0,.98,0,2.3-.32,4.58-1,7.11-1.78,8.74-2.48,11.21-.04.13-.07.26-.11.4-1.54,5.67-2.19,8.76-2.1,12.63,0,.21.01.43.02.65Z"/>
  </g>
</svg>