<?xml version="1.0" encoding="UTF-8"?>
<svg id="_레이어_2" data-name="레이어 2" xmlns="http://www.w3.org/2000/svg" viewBox="0 0 203.83 572.2">
  <defs>
    <style>
      .cls-1 {
        fill: #f2a7a9;
        stroke: #221714;
        stroke-miterlimit: 10;
      }
    </style>
  </defs>
  <g id="_레이어_1-2" data-name="레이어 1">
    <path class="cls-1" d="m.53,325.95c.22,5.01,1.38,7.59,3.49,10.06.18.2.36.41.54.62,1.08,1.21,2.17,2.66,3.72,4.23.23.23.45.45.68.67,2.1,1.98,2.73,2.37,3.53,1.65.22-.19.42-.46.63-.8,1.11-1.75-.26-4.1.05-8.06.03-.4.08-.8.14-1.22.87-5.91,2.2-7.91,2.73-14.77.04-.45.09-.68.17-.82.16-.31.73,3.91,2.37,6.4.31.48.67.89,1.06,1.21,1.18.96,2.69,1.19,3.33,1.06.59-.12.97-.43.73-.9-4.16-7.99-1.03-13.4-2.16-19.47-.12-.65-.3-1.33-.53-2.03-.54-1.59-1.55-3.67-1.95-5.25-.03-.13-.06-.27-.08-.4-.14-.66-.22-1.26-.16-1.77.02-.14.05-.3.07-.46.41-3.29,2.21-7.22,4.68-11.99.39-.75.79-1.52,1.2-2.29,3.85-7.29,6.27-12.19,11.5-24.54.39-.91.79-1.86,1.2-2.86.37-.87.74-1.78,1.13-2.72,6.17-15.02,7.96-28.46,8.57-33.16.17-1.29.3-2.25.39-2.79.16-.9.37-1.9.61-2.95,1.05-4.54,2.83-10.24,4.74-16.24,1.53-4.82,3.16-9.84,4.56-14.6.34-1.15.71-2.46,1.06-3.79.36-1.35.92-3.69,1.38-5.67.36-.84.72-1.61.98-1.97.15.51.29,1.04.44,1.55.24,6.84-.85,22.96-2.87,38.38-.24,1.38-.52,2.78-.85,4.19-1.02,4.4-2.14,10.24-3.35,16.44-.74,3.78-1.44,7.56-1.96,11.21-4.21,6.28-6.43,10.38-7.58,12.96-.02.05-.04.1-.06.15-3.7,9.11-9.49,21.1-9.75,41.22v.3c-.04,4.27.16,8.91.69,13.96,1.3,12.52,10.98,39.26,14.59,52.03,8.02,28.39,12.56,45.41,13.15,55.42.77,12.92-.99,16.97-2.56,24.79-3.05,15.22-.83,28.37,2.8,40.42,6.69,22.29,13.71,32.19,14.43,43.89.17,2.92-2.02,4.14-.81,7.83.63,1.92,1.69,3.76.08,8.04-5.46,14.49-12.57,18.28-11.73,23.57.93,5.86,20.64,5.5,28.36,4.17,6.35-1.08,6.26-10.06,4.43-20.33-.37-2.08-.57-4.4-.42-7.96.07-1.76.55-3.81.8-6.28.23-2.28-.44-4.69-.8-6.6-.27-1.44-.55-2.6-.6-3.21-1.77-22.37-1.17-27.75,1.65-48.79,2.85-21.27-1.15-25.08-.65-38.09.3-7.7,2.64-15.58,3.27-23.92.78-10.46-.3-20.35-1.41-27.79-3.06-20.57-3.04-23.89-4.03-40.16-1.07-17.65,4.59-26.31,1.36-41.54.75.27,2.58.37,4.4.38,1.82.01,3.65-.11,4.4-.38-3.23,15.23,2.43,23.89,1.36,41.54-.99,16.27-.97,19.59-4.03,40.16-1.11,7.44-2.19,17.33-1.4,27.79.62,8.34,2.96,16.22,3.26,23.92.5,13.01-3.5,16.82-.65,38.09,2.82,21.04,3.42,26.41,1.65,48.79-.05.61-.33,1.77-.6,3.21-.36,1.91-1.03,4.32-.8,6.6.25,2.47.73,4.52.8,6.28.14,3.56-.05,5.88-.42,7.96-1.83,10.27-1.91,19.25,4.44,20.33,7.71,1.33,27.42,1.69,28.35-4.17.84-5.29-6.26-9.08-11.72-23.57-1.62-4.28-.55-6.12.08-8.04,1.21-3.69-.99-4.91-.81-7.83.71-11.7,7.73-21.6,14.43-43.89,3.62-12.05,5.84-25.2,2.8-40.42-1.57-7.82-3.33-11.87-2.57-24.79.58-9.79,4.93-26.29,12.64-53.59.22-.8.46-1.61.7-2.45,3.5-12.19,11.99-35.95,14.05-48.97.18-1.16.33-2.26.43-3.28.37-3.72.55-7.21.6-10.49,0-.07,0-.21,0-.28.01-1.11,0-2.19-.01-3.25,0-.02,0-.27,0-.3-.37-17.58-4.98-28.87-8.54-37.49-.02-.04-.03-.08-.05-.12-.51-1.21-1.05-2.42-1.61-3.66-.02-.05-.05-.1-.07-.16-1.28-2.7-3.58-6.8-7.71-12.9-.37-2.33-.8-4.71-1.25-7.11-1.46-7.8-2.9-15.34-3.82-20.66,0,0,0-.01,0-.02-1.9-16.83-3.31-35.27-3.07-42.53.14-.51.29-1.04.44-1.55.52,2.28,1.79,7.74,2.31,9.59,3.29,11.72,8.35,25.57,10.31,34.49.22,1,.41,1.96.55,2.82.3,1.91,1.54,17.82,9.05,35.8.42,1.01.82,1.97,1.21,2.89,6.02,14.32,8.45,19.23,12.71,27.25,3.1,5.84,5.38,10.5,5.68,14.27.01.15.04.31.05.45.1,1.65-1.8,5.15-2.47,7.35-2.11,6.81,2.15,12.51-2.71,21.4-.52.95,2.7,1.07,4.61-.8,2.4-2.37,3.11-8.84,3.18-7.65.48,7.9,1.95,9.71,2.86,16.17.66,4.71-1.19,7.31.26,9.21,1.11,1.46,1.49,1.33,4.21-1.26,1.92-1.83,3.13-3.52,4.37-4.89,2.39-2.64,3.69-5.25,3.9-10.68.16-4.13-.48-7.24-2.11-13.22-.72-2.64-1.52-4.12-2.56-11.5-.32-2.28-.33-3.6-.33-4.58,0-.54,0-.98-.05-1.42-.37-3.05-2.07-4.01-2.99-9.76-1.75-10.9-2.91-18.97-4.55-30.34-.33-2.29-.68-4.71-1.05-7.32-1.36-9.39-5.84-21.22-10.65-34.19-.27-.74-.55-1.48-.82-2.23-.49-1.34-1.52-11.48-1.91-16.82-.5-6.67-5.13-67.76-8.3-76.97-2.37-6.88-4.66-9.63-6.86-10.54v-.02s-1.79-.89-2.87-1.3c-.91-.34-1.88-.63-2.91-.89l-36.28-15.09c-.06-.13-.12-.25-.17-.38-1.12-2.7-1.57-10.21-1.75-15.34,2.54-2.35,4.51-5.38,5.74-10.41.22-.9.48-1.98.74-3.12,2.78.98,3.5-3.3,4.02-4.54.57-1.37,1.31-1.5,2.07-4.5.51-2.01-.37-3.32-.01-4.61.24-.87.36-3.32-.75-4.16-.12-.09-.27-.14-.42-.19,1.64-6.26,2.7-16.5-.74-24.34-1.48-3.39-3.32-6.13-5.25-8.29-4.57-5.58-12.1-9.22-20.63-9.22s-16.06,3.64-20.63,9.22c-1.93,2.16-3.77,4.9-5.25,8.29-3.44,7.84-2.39,18.08-.74,24.34-.16.05-.3.1-.42.19-1.11.84-.99,3.29-.75,4.16.36,1.29-.52,2.6-.01,4.61.75,3,1.5,3.13,2.07,4.5.52,1.24,1.24,5.52,4.02,4.54.26,1.14.52,2.22.74,3.12,1.23,5.03,3.2,8.06,5.74,10.41-.19,5.13-.64,12.64-1.75,15.34-.05.13-.11.25-.17.37l-36.33,15.11c-1.01.26-1.97.54-2.86.88-1.08.41-2.87,1.3-2.87,1.3v.02c-2.2.91-4.49,3.66-6.86,10.54-3.17,9.21-7.8,70.3-8.3,76.97-.39,5.34-1.42,15.48-1.91,16.82-.27.75-.55,1.49-.82,2.23-4.76,12.99-9.29,24.8-10.65,34.19-.38,2.61-.73,5.03-1.06,7.32-1.63,11.37-2.79,19.44-4.54,30.34-.92,5.75-2.62,6.71-2.99,9.76-.05.44-.05.88-.06,1.42,0,.98,0,2.3-.32,4.58-1,7.11-1.78,8.74-2.48,11.21-.04.13-.07.26-.11.4-1.54,5.67-2.19,8.76-2.1,12.63,0,.21.01.43.02.65Z"/>
  </g>
</svg>