<?xml version="1.0" encoding="UTF-8"?>
<svg id="_레이어_2" data-name="레이어 2" xmlns="http://www.w3.org/2000/svg" viewBox="0 0 203.83 569.96">
  <defs>
    <style>
      .cls-1 {
        fill: #f2a7a9;
        stroke: #221714;
        stroke-miterlimit: 10;
      }
    </style>
  </defs>
  <g id="_레이어_1-2" data-name="레이어 1">
    <path class="cls-1" d="m4.42,336.48c1.24,1.36,2.46,3.05,4.37,4.88,2.73,2.6,3.11,2.73,4.22,1.26,1.45-1.9-.4-4.5.26-9.21.91-6.46,2.38-8.27,2.86-16.17.07-1.19.78,5.28,3.18,7.65,1.91,1.88,5.12,1.75,4.6.8-4.85-8.89-.6-14.59-2.7-21.4-.68-2.2-2.58-5.7-2.47-7.35,0-.14.04-.29.05-.44.3-3.77,2.58-8.44,5.68-14.28,4.25-8.01,6.69-12.93,12.71-27.24.39-.93.79-1.89,1.21-2.9,7.51-17.98,8.76-33.89,9.05-35.8.13-.86.32-1.82.54-2.82,1.72-7.8,5.89-19.64,8.91-29.92.85-2.9,2.34-8.59,3.15-11.77,3,9.21,7.79,23.25,4.58,30.66-.94,4.31-2.01,10.15-3.99,16.11-4.01,12.23-5.69,21.01-6.86,26.05-2.26,9.7-6.4,24.02-6.55,42.59-.74,2.14-1.59,5.16-1.62,9.39-.01,3.15.11,6.62.44,10.32.82,10.44,6.96,31.63,9.34,42.44,5.34,24.42,10.11,43.89,11.36,54.57,1.97,16.81,2.09,24.09,1.15,32.45-1.64,14.66-.72,25.52,1.23,36.51,3.58,20.52,7.94,31.3,9.68,43.02,1.17,7.82,1.5,11.17,2.52,16.84.39,2.18.86,3.9-.12,7.99-2.74,11.5-7.3,14.65-7.38,19.69-.13,8.04,10.39,8.46,15.41,9.02,4.23.47,8.29-6.17,8.76-14.2,1.1-1.83.86-5.81.67-11.05-.07-1.84.22-3.96.41-6.7.15-2.15-.17-4.47-.33-6.52-.13-1.65-.47-3.12-.55-4.06-1.52-17.11-.51-21.43.91-37.4,1.91-21.5-1.05-25.75-.06-40.76.73-11.09,1.4-17.95,1.93-27.46.54-9.77.46-19.17-.2-26.82-1.55-18.06-1.91-23.01-2.84-37.07-1.22-18.39,2.25-25.7,0-41.19.25-4.21,2.59-6.31,3.06-10.1,1.3.07,2.84,0,3.7-.19-1.65,11.43,2.3,17.89,1.78,31.06-1.3,16.01-.25,20.65-2.26,40.5-.98,9.64-1.79,17.89-1.73,30.88.04,8.12,1.43,16.5,1.77,24.89.47,11.84-1.54,16.67.28,34.54,1.93,19.04.06,24.03.9,46.12.22,5.74.72,7.95-.03,14.61-.18,1.59-.71,3.68-.63,5.75.09,2.33.25,4.47.33,6.36.15,3.29.14,5.54-.09,7.54-1.03,8.6-.93,15.25,2.71,17.24,5.02,2.74,16.69,5.98,18.81,1.96,1.97-3.74,1.36-6.28-1.43-18.72-1.01-4.5-2.31-6.81-2.41-11.92-.07-3.86-.71-5.21-.49-7.88.8-9.69,5.01-17.35,8.93-34.88,2.66-11.91,5.27-24.3,4.8-41.29-.25-8.88-.98-15.2-1.03-28.7-.03-9.46,2.71-23.2,7.76-47.76,2.48-12.06,9.42-36.39,11.96-52.88,1.07-6.9,3.24-16.98,3.5-23.26.11-1.23.15-2.58.15-3.63-.12-15.07-3.7-24.16-6.07-31-.2-4.71-2.21-11.56-6.72-24.57-2.05-9.35-3.18-20.5-4.58-27.4-1.56-6.62-2.71-13.78-2.95-17.88.03-8.27,3.11-18.84,5.29-26.2.53,2.28,1.79,7.75,2.31,9.59,3.29,11.72,8.36,25.57,10.32,34.49.22,1,.41,1.96.54,2.82.3,1.91,1.54,17.82,9.05,35.8.42,1.01.82,1.97,1.21,2.9,6.02,14.31,8.46,19.23,12.71,27.24,3.1,5.84,5.38,10.5,5.68,14.28.01.15.04.3.05.44.1,1.65-1.79,5.15-2.47,7.35-2.1,6.81,2.15,12.51-2.7,21.4-.52.95,2.69,1.08,4.6-.8,2.4-2.37,3.11-8.84,3.18-7.65.48,7.9,1.95,9.71,2.86,16.17.66,4.71-1.19,7.31.26,9.21,1.11,1.47,1.49,1.34,4.22-1.26,1.91-1.83,3.13-3.52,4.37-4.88,2.39-2.64,3.69-5.25,3.9-10.69.15-4.12-.49-7.24-2.12-13.22-.72-2.64-1.52-4.11-2.56-11.5-.32-2.28-.32-3.6-.32-4.57,0-.55,0-.99-.06-1.43-.37-3.05-2.07-4.01-2.99-9.76-1.75-10.89-2.91-18.97-4.54-30.33-.33-2.3-.68-4.72-1.06-7.33-1.36-9.39-5.89-21.2-10.65-34.19-.27-.74-.55-1.48-.82-2.23-.49-1.34-1.52-11.48-1.91-16.82-.5-6.66-5.12-67.76-8.3-76.97-2.37-6.87-4.66-9.63-6.86-10.54v-.02s-1.79-.89-2.87-1.29c-.58-.22-1.2-.41-1.83-.59l-37.45-15.58c-.03-.07-.06-.13-.09-.19-1.11-2.7-1.56-10.21-1.75-15.34,2.54-2.35,4.51-5.38,5.74-10.41.22-.9.48-1.97.74-3.12,2.78.98,3.5-3.3,4.02-4.54.57-1.36,1.31-1.49,2.07-4.5.51-2-.37-3.32-.01-4.61.24-.87.36-3.32-.75-4.16-.12-.09-.26-.14-.42-.18,1.65-6.27,2.7-16.51-.74-24.35-1.48-3.39-3.32-6.12-5.25-8.29-4.56-5.57-12.09-9.22-20.62-9.22s-16.06,3.65-20.63,9.22c-1.93,2.17-3.77,4.9-5.25,8.29-3.44,7.84-2.39,18.08-.74,24.35-.16.04-.3.09-.42.18-1.11.84-.99,3.29-.75,4.16.36,1.29-.51,2.61,0,4.61.76,3.01,1.5,3.14,2.07,4.5.52,1.24,1.24,5.52,4.02,4.54.26,1.15.52,2.22.74,3.12,1.23,5.03,3.2,8.06,5.74,10.41-.19,5.13-.64,12.64-1.75,15.34-.02.06-.05.11-.08.17l-37.6,15.64c-.58.17-1.15.35-1.68.55-1.08.4-2.87,1.29-2.87,1.29v.02c-2.2.91-4.49,3.67-6.86,10.54-3.18,9.21-7.8,70.31-8.3,76.97-.39,5.34-1.42,15.48-1.91,16.82-.28.75-.55,1.49-.82,2.23-4.76,12.99-9.29,24.8-10.65,34.19-.38,2.61-.73,5.03-1.06,7.33-1.63,11.36-2.79,19.45-4.54,30.33-.92,5.75-2.61,6.71-2.99,9.76-.05.44-.06.88-.06,1.43,0,.97,0,2.29-.32,4.57-1.04,7.39-1.84,8.86-2.56,11.5-1.63,5.98-2.27,9.1-2.12,13.22.21,5.44,1.51,8.05,3.9,10.69Z"/>
  </g>
</svg>