<?xml version="1.0" encoding="UTF-8"?>
<svg id="_레이어_2" data-name="레이어 2" xmlns="http://www.w3.org/2000/svg" viewBox="0 0 203.83 571.96">
  <defs>
    <style>
      .cls-1 {
        fill: #f2a7a9;
        stroke: #221714;
        stroke-miterlimit: 10;
      }
    </style>
  </defs>
  <g id="_레이어_1-2" data-name="레이어 1">
    <path class="cls-1" d="m.53,326.06c.24,5.25,1.54,7.82,3.89,10.42,1,1.1,1.98,2.43,3.44,3.87,2.04,2,2.5,2.3,3.58,1.69.14-.08.27-.14.38-.22,1.44-.37.54-2.02,1.36-5.34.8-3.24.73-5.57,1.36-9.05.41-2.28.77-4.42,1.13-7.21.2-1.58.89,1.92,2.57,2.12.02,0,.03,0,.05,0,1.33,1.16,3.67,2.98,4.07,3.08-.04-.18-.07-.38-.05-.59.07-.54.32-1.26.33-2.11,0-.14,0-.28-.06-.43-.18-.54-.32-1.08-.45-1.6-1.32-5.54.26-9.91-.74-14.67-.43-2.04-1.75-4.94-1.85-6.64,0-.14,0-.28,0-.42-.13-2.09-.14-4.67.58-6.94.04-.12.08-.26.12-.38.67-2.16,1.76-4.53,3.09-7.18,1.14-2.25,2.25-4.39,3.39-6.62,2.9-5.64,5.3-10.77,9.51-20.69.39-.93.8-1.89,1.22-2.91.5-1.18.98-2.38,1.46-3.59.38-.97.75-1.94,1.12-2.92,5.18-14.05,6.58-25.98,7.1-29.31.14-.94.32-1.9.5-2.85.25-1.32.47-2.47.69-3.42.1-.45.21-.91.33-1.38.11-.44.22-.89.34-1.35.39-1.48.84-3.05,1.32-4.69,2.19-7.36,5.13-16.02,7.42-23.91.39-1.34.95-3.49,1.46-5.55.33-1.33.69-2.87.97-4.07.49.42,1,.88,1.44,1.71.14.5.28,1.01.42,1.52,2.32,10.64,3.93,26.96-1.45,38.06-.19.5-.45,1.81-.79,3.57-.97,5.1-1.88,13.16-3.08,19.95-1.77,10-.95,13.47-1.78,16.43-.22.78-.48,1.69-.82,2.86-3.17,9.1-7.93,21.13-8.09,41.22v.3c-.02,4.19.15,8.72.58,13.67,1.1,12.51,9.23,39.25,12.26,52.02,6.75,28.39,10.57,45.42,11.06,55.42.65,12.93-.83,16.97-2.15,24.8-2.56,15.21-.69,28.36,2.35,40.42,5.63,22.28,11.53,32.19,12.13,43.88.15,2.92-1.69,4.14-.68,7.84.53,1.92,1.43,3.76.07,8.04-4.59,14.48-10.56,18.27-9.86,23.56.79,5.87,17.35,5.5,23.84,4.18,5.34-1.09,5.27-10.06,3.73-20.34-.31-2.08-.47-4.4-.35-7.96.06-1.76.46-3.8.67-6.28.19-2.28-.37-4.69-.67-6.6-.23-1.44-.47-2.6-.51-3.21-1.43-22.38-.99-27.75,1.39-48.79,2.39-21.26-.97-25.08-.55-38.08.23-7.01,1.87-14.16,2.56-21.67.7,7.51,2.34,14.66,2.57,21.67.42,13-2.94,16.82-.55,38.08,2.38,21.04,2.82,26.41,1.39,48.79-.04.61-.28,1.77-.51,3.21-.3,1.91-.86,4.32-.67,6.6.21,2.48.61,4.52.67,6.28.12,3.56-.04,5.88-.35,7.96-1.54,10.28-1.61,19.25,3.73,20.34,6.49,1.32,23.05,1.69,23.84-4.18.7-5.29-5.27-9.08-9.86-23.56-1.36-4.28-.46-6.12.07-8.04,1.01-3.7-.83-4.92-.68-7.84.6-11.69,6.5-21.6,12.13-43.88,3.04-12.06,4.91-25.21,2.35-40.42-1.32-7.83-2.8-11.87-2.15-24.8.49-10,4.31-27.03,11.06-55.42,3.03-12.77,11.16-39.51,12.26-52.02.43-4.95.6-9.48.58-13.67v-.3c-.16-20.09-4.92-32.12-8.09-41.22-.42-1.46-.74-2.54-1-3.44-.71-2.42-.09-6.41-1.8-15.83-1.55-8.54-2.61-20.05-3.39-22.33-6.42-12.56-3.07-32.77-.43-43.8.11.11.24.29.38.51.58,2.52,1.62,6.95,2.07,8.56,2.75,9.79,6.74,21.07,9.12,29.72.47,1.7.88,3.31,1.2,4.77.18.82.33,1.62.46,2.34.06.33.12.81.2,1.41.47,3.72,2.07,18.42,8.93,34.87.42,1.01.82,1.97,1.21,2.9,6.02,14.31,8.46,19.23,12.71,27.24,3.1,5.84,5.38,10.51,5.68,14.28.01.15.04.3.05.44.1,1.65-1.79,5.15-2.47,7.35-1.98,6.42,1.68,11.85-1.95,19.89-.22.5-.47,1-.75,1.51-.08.15-.07.29.02.39.36.42,1.93.42,3.37-.32.43-.22.85-.51,1.21-.87,2.34-2.31,3.07-8.53,3.17-7.69,0,.03,0,.06.01.11.48,7.85,1.95,9.66,2.86,16.11.66,4.71-1.18,7.31.26,9.21,1.11,1.47,1.49,1.34,4.22-1.26.17-.16.33-.32.49-.48.9-.9,1.64-1.76,2.31-2.56.56-.66,1.06-1.28,1.58-1.84,2.39-2.64,3.69-5.25,3.9-10.69,0-.13,0-.25.01-.37.1-3.94-.55-7.05-2.13-12.85-.72-2.64-1.52-4.11-2.56-11.5-.3-2.11-.32-3.4-.32-4.35,0-.08,0-.15,0-.22,0-.02,0-.04,0-.06,0-.52,0-.95-.06-1.37-.37-3.05-2.07-4.01-2.99-9.76-1.75-10.88-2.93-18.95-4.54-30.3,0-.02,0-.05-.01-.07-.13-.92-.27-1.86-.41-2.82-.21-1.43-.42-2.91-.65-4.47-1.36-9.39-5.87-21.21-10.65-34.19-.27-.74-.55-1.48-.82-2.23-.49-1.34-1.52-11.48-1.91-16.82-.5-6.66-5.12-67.76-8.3-76.97-2.37-6.87-4.66-9.63-6.86-10.54v-.02s-1.79-.89-2.87-1.29c-.62-.23-1.27-.44-1.95-.63l-37.32-15.52c-.03-.07-.06-.14-.09-.21-1.11-2.7-1.56-10.21-1.75-15.34,2.54-2.35,4.51-5.38,5.74-10.41.22-.9.48-1.97.74-3.12.35.12.66.16.95.14,2.01-.18,2.61-3.59,3.07-4.68.21-.51.45-.85.7-1.23.17-.25.34-.52.52-.86.28-.54.56-1.27.85-2.41.51-2-.37-3.32-.01-4.61.24-.87.36-3.32-.75-4.16-.12-.09-.26-.14-.42-.18,1.65-6.27,2.7-16.51-.74-24.35-1.48-3.39-3.32-6.12-5.25-8.29-4.57-5.56-12.1-9.21-20.63-9.22h-.02c-8.52.01-16.04,3.66-20.61,9.22-1.93,2.17-3.77,4.9-5.25,8.29-3.44,7.84-2.39,18.08-.74,24.35-.16.04-.3.09-.42.18-1.11.84-.99,3.29-.75,4.16.36,1.29-.52,2.61,0,4.61.28,1.12.56,1.85.83,2.38.19.37.37.64.54.9.25.38.49.71.7,1.22.45,1.09,1.06,4.5,3.07,4.68.29.03.6-.01.95-.14.26,1.15.52,2.22.74,3.12,1.23,5.03,3.2,8.06,5.74,10.41-.19,5.13-.64,12.64-1.75,15.34-.02.05-.05.1-.07.16l-37.69,15.68c-.55.17-1.09.34-1.6.53-1.08.4-2.87,1.29-2.87,1.29v.02c-2.2.91-4.49,3.67-6.86,10.54-3.18,9.21-7.8,70.31-8.3,76.97-.39,5.34-1.42,15.48-1.91,16.82-.27.75-.55,1.49-.82,2.23-4.78,12.98-9.29,24.8-10.65,34.19-.23,1.57-.44,3.07-.65,4.51-.14.96-.27,1.9-.41,2.82,0,.03,0,.05-.01.08-1.63,11.32-2.78,19.39-4.53,30.25-.92,5.75-2.62,6.71-2.99,9.76-.05.44-.05.87-.06,1.41,0,.65-.04,1.53-.21,3.06,0,.08-.01.16-.02.23-.15,1.47-.33,2.82-.57,4.29-.81,4.92-1.47,6.3-2.07,8.5-1.61,5.92-2.25,9.03-2.12,13.09,0,.14,0,.27.02.41Zm100.3-19.84c.65.07,1.53.08,2.37.05.84-.05,1.58-.14,1.96-.3-1.35,7.61-.85,13.58-.11,19.85.74,6.27,1.7,12.85,1.25,21.69-.41,8.13-.62,13.02-1.04,18.45-.42,5.44-1.06,11.41-2.35,21.7-.37,2.93-.73,6.24-1,9.81-.09-1.19-.21-8.27-.33-9.25-.86-6.86-.85-32.36-1.13-37.78-.3-5.89,1.28-39.15.38-44.22Z"/>
  </g>
</svg>