<?xml version="1.0" encoding="UTF-8"?>
<svg id="_레이어_2" data-name="레이어 2" xmlns="http://www.w3.org/2000/svg" viewBox="0 0 203.84 571.96">
  <defs>
    <style>
      .cls-1 {
        fill: #f2a7a9;
        stroke: #221714;
        stroke-miterlimit: 10;
      }
    </style>
  </defs>
  <g id="_레이어_1-2" data-name="레이어 1">
    <path class="cls-1" d="m.53,325.93c.23,5.35,1.52,7.94,3.89,10.55.76.83,1.5,1.81,2.51,2.86,1.35,1.4,1.99,1.93,2.94,2.12.16.03.3.07.43.13,2.18.9,1.79.33,2.79-2.04,1.09-2.59.17-5.03.81-9.13.42-2.68.86-4.76,1.32-7.21.37-1.97,1.19-1.36,1.96-3.42.01-.04.02-.06.04-.07.74.52,2.18,4.43,3.61,5.43.15.1.36.12.57.13.77.06,1.62-.27,1.85-.87.05-.13.07-.26,0-.42-.23-.53-.42-1.04-.6-1.55-1.96-5.67-.58-10.08-1.04-14.67-.19-1.88-.92-4.18-1.24-5.93-.02-.13-.04-.27-.07-.41-.44-2.15-1.26-5.03-.88-6.95.03-.13.06-.27.08-.41.41-2.18,1.4-4.61,2.71-7.36,1.03-2.15,2.15-4.34,3.38-6.68,3.21-6.15,5.56-10.97,9.73-20.71.4-.93.81-1.9,1.24-2.92.49-1.15.98-2.35,1.49-3.59.38-.95.77-1.91,1.16-2.91,5.06-12.93,6.87-24.36,7.65-29.35.16-1.01.32-1.98.46-2.88.25-1.58.42-2.77.56-3.46.09-.45.18-.92.29-1.41.1-.44.2-.9.32-1.37.36-1.47.79-3.07,1.26-4.74,2.06-7.2,5.04-15.92,7.44-24.02.49-1.62,1.04-3.63,1.55-5.57.28-1.08.66-2.65,1-4.1.48-.8.99-1.66,1.36-1.87.15.5.29,1.02.43,1.53,1.27,8.7,1.57,25.24-2.78,38.52-.23.86-.5,2.12-.81,3.6-1.16,5.5-1.79,13.24-2.88,20.82-1.17,8.09.39,15.02-.03,16.52-.24.84-.53,1.84-.91,3.15-3.17,9.1-7.93,21.13-8.09,41.22v.3c-.02,4.19.15,8.72.58,13.67,1.1,12.51,9.23,39.25,12.26,52.02,6.75,28.39,10.57,45.42,11.06,55.42.65,12.93-.83,16.97-2.15,24.8-2.56,15.21-.69,28.36,2.35,40.42,5.63,22.28,11.53,32.19,12.13,43.88.15,2.92-1.69,4.14-.68,7.84.53,1.92,1.43,3.76.07,8.04-4.59,14.48-10.56,18.27-9.86,23.56.79,5.87,17.35,5.5,23.84,4.18,5.34-1.09,5.27-10.06,3.73-20.34-.31-2.08-.47-4.4-.35-7.96.06-1.76.46-3.8.67-6.28.19-2.28-.37-4.69-.67-6.6-.23-1.44-.47-2.6-.51-3.21-1.43-22.38-.99-27.75,1.39-48.79,2.39-21.26-.97-25.08-.55-38.08.23-7.01,1.87-14.16,2.57-21.67.7,7.51,2.34,14.66,2.57,21.67.42,13-2.94,16.82-.55,38.08,2.38,21.04,2.82,26.41,1.39,48.79-.04.61-.28,1.77-.51,3.21-.3,1.91-.86,4.32-.67,6.6.21,2.48.61,4.52.67,6.28.12,3.56-.04,5.88-.35,7.96-1.54,10.28-1.61,19.25,3.73,20.34,6.49,1.32,23.05,1.69,23.84-4.18.7-5.29-5.27-9.08-9.86-23.56-1.36-4.28-.46-6.12.07-8.04,1.01-3.7-.83-4.92-.68-7.84.6-11.69,6.5-21.6,12.13-43.88,3.04-12.06,4.91-25.21,2.35-40.42-1.32-7.83-2.8-11.87-2.15-24.8.49-10,4.31-27.03,11.06-55.42,3.03-12.77,11.16-39.51,12.26-52.02.43-4.95.6-9.48.58-13.67v-.3c-.16-20.09-4.92-32.12-8.09-41.22-.42-1.46-.74-2.54-1-3.44-.36-1.23,1.11-8.42-.04-16.22-1.25-8.46-1.97-17.92-3.04-22.01-5.21-14.47-4.12-34.04-2.69-43.21.13-.2.26-.37.41-.51.56,2.4,1.7,7.34,2.19,9.07,2.75,9.79,6.73,21.06,9.12,29.71.47,1.7.88,3.31,1.2,4.78.14.65.27,1.28.37,1.86.08.42.15.89.23,1.42.38,2.81,1.8,18.12,8.99,35.33.42,1.01.82,1.97,1.21,2.9,6.02,14.31,8.46,19.23,12.71,27.24,3.1,5.84,5.38,10.5,5.68,14.28.01.15.04.3.05.44.1,1.65-1.79,5.15-2.47,7.35-1.98,6.42,1.67,11.85-1.95,19.89-.22.49-.47,1-.75,1.51-.09.16-.06.29.03.4.38.41,1.94.41,3.37-.34.42-.22.83-.5,1.2-.86,2.28-2.26,3.03-8.22,3.16-7.74,0,.02.01.06.02.12.48,7.87,1.95,9.69,2.86,16.14.66,4.71-1.18,7.31.26,9.21,1.11,1.47,1.49,1.34,4.22-1.26.17-.16.33-.32.48-.48.89-.9,1.63-1.76,2.3-2.55.56-.66,1.07-1.28,1.58-1.85,2.39-2.64,3.69-5.25,3.9-10.69,0-.13,0-.26.01-.38.1-3.94-.55-7.04-2.13-12.84-.72-2.64-1.52-4.11-2.56-11.5-.29-2.1-.32-3.38-.32-4.34,0-.08,0-.16,0-.23,0-.02,0-.04,0-.05,0-.52,0-.95-.05-1.38-.37-3.05-2.07-4.01-2.99-9.76-1.75-10.87-2.95-18.94-4.54-30.28,0-.03,0-.05-.01-.07-.13-.92-.27-1.86-.41-2.82-.21-1.44-.42-2.93-.65-4.49-1.36-9.39-5.86-21.21-10.65-34.19-.27-.74-.55-1.48-.82-2.23-.49-1.34-1.52-11.48-1.91-16.82-.5-6.67-5.12-67.76-8.3-76.97-2.37-6.88-4.66-9.63-6.86-10.54v-.02s-1.79-.89-2.87-1.29c-.2-.08-.41-.14-.62-.21h.07l-38.8-16.14s0,0,0-.01c-1.11-2.7-1.56-10.21-1.75-15.34,2.54-2.35,4.51-5.38,5.74-10.41.22-.9.48-1.97.74-3.12.35.12.66.16.95.14,2.01-.18,2.62-3.59,3.07-4.68.21-.52.46-.85.71-1.24.17-.25.34-.52.52-.87.27-.54.56-1.26.84-2.39.51-2.01-.37-3.32,0-4.61.24-.87.36-3.32-.75-4.16-.12-.09-.26-.14-.42-.19,1.64-6.27,2.7-16.5-.74-24.34-1.48-3.39-3.32-6.13-5.25-8.29-4.57-5.57-12.1-9.22-20.63-9.22h-.02c-8.52,0-16.05,3.65-20.62,9.22-1.93,2.16-3.77,4.9-5.25,8.29-3.44,7.84-2.38,18.08-.74,24.34-.15.04-.3.09-.42.19-1.11.84-.99,3.29-.75,4.16.36,1.29-.52,2.6,0,4.61.28,1.12.56,1.84.83,2.37.18.36.36.64.53.89.25.38.49.72.71,1.23.45,1.09,1.06,4.5,3.07,4.68.29.03.6-.01.95-.14.26,1.14.52,2.22.74,3.12,1.23,5.03,3.2,8.06,5.74,10.41-.18,5.12-.63,12.61-1.74,15.33v-.02l-38.92,16.19h.17c-.21.07-.42.14-.62.21-1.08.41-2.87,1.29-2.87,1.29v.02c-2.2.91-4.49,3.67-6.86,10.54-3.18,9.21-7.8,70.31-8.3,76.97-.39,5.34-1.42,15.48-1.91,16.82-.27.75-.55,1.49-.82,2.23-4.79,12.98-9.29,24.8-10.65,34.19-.23,1.57-.44,3.06-.65,4.51-.14.96-.28,1.9-.41,2.82,0,.03,0,.05-.01.08-1.59,11.33-2.79,19.39-4.53,30.25-.92,5.75-2.62,6.71-2.99,9.76-.05.43-.05.87-.05,1.4,0,.34-.04.78-.11,1.56,0,.08,0,.16-.01.24-.07,1.21-.18,2.53-.45,4.31-.93,6.15-1.66,7.58-2.32,10-1.59,5.85-2.24,8.96-2.12,12.96,0,.13,0,.27.01.4Zm99.22-19.82c.61.16,1.7.21,2.81.21,1.11-.04,2.13-.13,2.61-.33-1.35,7.61-.85,13.58-.11,19.85.74,6.28,1.7,12.86,1.25,21.69-.42,8.12-.62,13.02-1.04,18.45-.42,5.44-1.06,11.41-2.35,21.7-.37,2.93-.73,6.24-1,9.81-.18-2.38-.42-7.58-.67-9.53-1.72-13.71-1.71-28.13-2.26-38.97-.6-11.77,2.57-32.73.76-42.88Z"/>
  </g>
</svg>