<?xml version="1.0" encoding="UTF-8"?>
<svg id="_레이어_2" data-name="레이어 2" xmlns="http://www.w3.org/2000/svg" viewBox="0 0 212.64 571.25">
  <defs>
    <style>
      .cls-1 {
        fill: #f3a9aa;
        stroke: #231815;
        stroke-miterlimit: 10;
      }
    </style>
  </defs>
  <g id="_레이어_1-2" data-name="레이어 1">
    <path class="cls-1" d="m212.12,325.63c-.22,5.43-1.57,8.04-4.07,10.68-1.28,1.36-2.55,3.05-4.55,4.88-2.85,2.59-3.24,2.72-4.4,1.26-1.52-1.9.41-4.5-.28-9.2-.95-6.45-2.48-8.26-2.97-16.15-.08-1.19-.82,5.28-3.33,7.64-1.99,1.88-5.35,1.75-4.8.8,5.07-8.88.62-14.58,2.83-21.39.7-2.19,2.67-5.69,2.58-7.33,0-.14-.04-.3-.06-.44,0-.05-.02-.1-.02-.15-.42-3.75-2.71-8.35-5.91-14.12-4.44-8-6.98-12.92-13.26-27.21-.02-.05-.04-.1-.06-.15-.39-.88-.79-1.79-1.21-2.75-7.82-17.96-9.13-33.86-9.44-35.77-.14-.87-.35-1.82-.57-2.82,0-.05-.02-.1-.04-.15-2.06-8.91-7.31-22.66-10.72-34.31-.54-1.85-1.87-7.3-2.41-9.58-4,12.89-11.4,31.56-11.4,43.89h-.09c1.19,5.48,4.44,11.34,8.2,18.6,6.35,12.24,9.97,20.96,10.67,22.59.07.15.12.27.12.29,3.31,9.07,8.34,21.04,8.55,41.04,0,.1,0,.19,0,.29v.15c.03,4.24-.15,8.81-.6,13.81-1.16,12.51-9.7,39.21-12.88,51.97-7.09,28.36-11.11,45.38-11.62,55.38-.67,12.91.88,16.94,2.26,24.77,2.69,15.2.73,28.34-2.47,40.38-5.92,22.26-12.11,32.16-12.75,43.85-.16,2.91,1.78,4.13.72,7.82-.56,1.92-1.5,3.76-.08,8.03,4.82,14.47,11.1,18.26,10.35,23.55-.82,5.85-18.23,5.48-25.04,4.17-5.61-1.09-5.53-10.05-3.91-20.32.33-2.08.49-4.4.37-7.95-.07-1.75-.48-3.8-.71-6.27-.2-2.28.4-4.69.71-6.58.24-1.45.48-2.61.53-3.22,1.5-22.36,1.04-27.72-1.46-48.74-2.51-21.24,1.02-25.06.57-38.04-.27-7.7-2.33-15.57-2.88-23.9-.69-10.46.27-20.33,1.24-27.76,2.7-20.56,2.69-23.88,3.56-40.12.95-17.64-4.05-26.28-1.2-41.5-.66.26-2.28.39-3.89.37-1.6-.01-3.22-.11-3.88-.37,2.86,15.22-2.14,23.86-1.21,41.5.88,16.24.86,19.56,3.57,40.12.98,7.43,1.94,17.3,1.24,27.76-.55,8.33-2.62,16.19-2.88,23.9-.44,12.99,3.08,16.8.56,38.04-2.49,21.02-2.95,26.39-1.45,48.74.04.61.3,1.77.53,3.22.32,1.9.91,4.31.7,6.58-.22,2.48-.64,4.53-.7,6.27-.13,3.56.04,5.87.37,7.95,1.62,10.27,1.69,19.23-3.91,20.32-6.82,1.32-24.22,1.69-25.04-4.17-.74-5.28,5.52-9.08,10.34-23.55,1.43-4.28.49-6.11-.07-8.03-1.07-3.7.87-4.92.72-7.82-.63-11.69-6.84-21.59-12.75-43.85-3.2-12.04-5.17-25.19-2.47-40.38,1.38-7.82,2.93-11.86,2.26-24.77-.52-10-4.53-27.01-11.62-55.38-3.18-12.76-11.73-39.46-12.88-51.97-.45-5-.63-9.57-.6-13.81v-.15c0-.1,0-.19,0-.29.21-20,5.24-31.97,8.55-41.04,0-.02.05-.14.12-.29.7-1.63,4.32-10.35,10.67-22.59,3.76-7.26,7.01-13.12,8.2-18.6h-.08c0-12.33-7.4-31-11.4-43.89-.54,2.28-1.87,7.73-2.41,9.58-3.41,11.65-8.65,25.4-10.72,34.31-.02.05-.03.1-.04.15-.23,1-.43,1.95-.57,2.82-.31,1.91-1.61,17.8-9.44,35.77-.41.96-.82,1.87-1.21,2.75-.02.05-.04.1-.06.15-6.28,14.3-8.82,19.21-13.26,27.21-3.2,5.76-5.49,10.37-5.91,14.12,0,.05-.02.1-.02.15-.02.14-.05.3-.06.44-.09,1.64,1.88,5.15,2.58,7.33,2.2,6.81-2.24,12.51,2.83,21.39.54.95-2.82,1.08-4.8-.8-2.51-2.37-3.25-8.83-3.33-7.64-.49,7.89-2.03,9.7-2.97,16.15-.69,4.71,1.24,7.3-.28,9.2-1.16,1.46-1.55,1.33-4.4-1.26-2.01-1.83-3.27-3.52-4.55-4.88-2.5-2.64-3.85-5.25-4.07-10.68-.17-4.12.5-7.23,2.2-13.21.75-2.64,1.58-4.11,2.67-11.49.34-2.28.35-3.6.35-4.57v-.15c0-.48,0-.89.06-1.28.41-3.05,2.15-4.01,3.12-9.75,1.82-10.88,3.02-18.95,4.73-30.3,0-.05.02-.1.02-.15.35-2.25.7-4.62,1.09-7.17,1.41-9.38,6.14-21.18,11.12-34.16.02-.05.03-.1.05-.15.27-.69.53-1.38.8-2.08.5-1.34,1.58-11.47,2-16.8.51-6.66,5.35-67.7,8.65-76.9,2.47-6.87,4.86-9.62,7.16-10.53v-.02s1.86-.89,2.99-1.3c3.37-1.21,7.6-1.84,12.07-2.55.3-.05.61-.1.92-.15,3.62-.67,13.24-1.41,16.79-2.8,5.27-2.05,9.61-4.61,12.23-11,1.1-2.7,1.54-10.2,1.72-15.33-2.5-2.35-4.45-5.37-5.66-10.4-.22-.9-.47-1.97-.73-3.12-2.75.98-3.46-3.3-3.97-4.54-.56-1.36-1.3-1.49-2.05-4.5-.5-2,.36-3.32,0-4.61-.25-.87-.36-3.32.74-4.16.12-.09.26-.14.41-.18-1.63-6.26-2.67-16.49.73-24.33,1.46-3.39,3.28-6.11,5.19-8.28,4.51-5.56,11.95-9.21,20.38-9.21s15.88,3.65,20.38,9.21c1.91,2.17,3.72,4.9,5.19,8.28,3.4,7.83,2.36,18.06.73,24.33.16.04.3.09.42.18,1.1.84.99,3.29.74,4.16-.35,1.29.51,2.61,0,4.61-.74,3.01-1.48,3.14-2.04,4.5-.51,1.24-1.23,5.51-3.97,4.54-.26,1.15-.51,2.22-.73,3.12-1.22,5.03-3.16,8.05-5.66,10.4.18,5.13.62,12.63,1.72,15.33,2.62,6.39,6.97,8.95,12.23,11,3.55,1.39,13.17,2.13,16.79,2.8.31.05.62.1.92.15,4.48.71,8.7,1.34,12.07,2.55,1.14.41,2.99,1.3,2.99,1.3v.02c2.3.91,4.69,3.66,7.16,10.53,3.31,9.2,8.14,70.23,8.65,76.9.41,5.34,1.49,15.47,2,16.8.27.7.53,1.39.8,2.08.02.05.03.1.05.15,4.98,12.98,9.7,24.78,11.12,34.16.39,2.56.74,4.93,1.09,7.17,0,.05,0,.1.02.15,1.71,11.35,2.91,19.42,4.73,30.3.97,5.74,2.71,6.7,3.12,9.75.06.39.06.8.06,1.28v.15c0,.97.01,2.29.35,4.57,1.09,7.38,1.92,8.85,2.67,11.49,1.7,5.97,2.37,9.09,2.2,13.21Z"/>
  </g>
</svg>