<?xml version="1.0" encoding="UTF-8"?>
<svg id="_레이어_2" data-name="레이어 2" xmlns="http://www.w3.org/2000/svg" viewBox="0 0 212.64 571.25">
  <defs>
    <style>
      .cls-1 {
        fill: #f3a9aa;
        stroke: #231815;
        stroke-miterlimit: 10;
      }
    </style>
  </defs>
  <g id="_레이어_1-2" data-name="레이어 1">
    <path class="cls-1" d="m212.12,325.4c-.22,5.43-1.57,8.04-4.07,10.68-1.28,1.36-2.55,3.05-4.55,4.87-2.85,2.6-3.24,2.72-4.4,1.26-1.52-1.9.41-4.49-.28-9.2-.95-6.45-2.48-8.26-2.97-16.15-.08-1.19-.82,5.27-3.33,7.64-1.99,1.88-5.35,1.75-4.8.8,5.07-8.88.62-14.57,2.83-21.37.7-2.2,2.67-5.69,2.58-7.34,0-.14-.04-.3-.06-.44-.37-3.77-2.69-8.43-5.93-14.26-4.44-8-6.98-12.91-13.26-27.21-.4-.93-.82-1.89-1.26-2.9-7.82-17.96-9.13-33.85-9.44-35.76-.14-.86-.35-1.82-.57-2.82-1.02-4.45-2.86-10.14-4.86-16.17-2.01-6.04-4.18-12.42-5.9-18.28-.54-1.85-1.87-7.3-2.41-9.58-.16.51-.3,1.04-.45,1.55.99,5.4,4.35,39.02,7.35,57.44,1.7,10.37-.26,27.45-1.48,39.47,1.92,7.35,3.54,16.48,3.63,28.51.03,4.27-.13,8.9-.53,13.94-1.02,12.5-8.55,39.21-11.35,51.97-6.25,28.36-9.78,45.36-10.25,55.35-.59,12.91.78,16.95,2.01,24.77,2.36,15.19.63,28.33-2.18,40.37-5.21,22.25-10.67,32.15-11.23,43.83-.13,2.92,1.57,4.13.63,7.82-.48,1.93-1.31,3.76-.06,8.04,4.25,14.46,9.77,18.25,9.12,23.53-.72,5.85-16.06,5.49-22.06,4.17-4.94-1.09-4.87-10.06-3.45-20.32.29-2.08.43-4.39.33-7.95-.06-1.76-.42-3.81-.62-6.27-.18-2.28.34-4.68.62-6.59.21-1.44.42-2.6.46-3.21,1.32-22.35.92-27.72-1.28-48.73-2.21-21.24.9-25.05.5-38.03-.23-7.7-2.04-15.56-2.54-23.9-.61-10.45.24-20.33,1.1-27.76,2.38-20.55,2.36-23.86,3.13-40.1.84-17.64-3.57-26.29-1.06-41.5-.58.27-2.01.39-3.42.38-1.42,0-2.85-.11-3.43-.38,2.51,15.21-1.9,23.86-1.06,41.5.77,16.24.75,19.56,3.13,40.1.87,7.43,1.71,17.31,1.1,27.76-.48,8.34-2.31,16.2-2.54,23.9-.4,12.98,2.72,16.79.5,38.03-2.19,21.01-2.61,26.38-1.28,48.73.04.61.26,1.77.47,3.21.28,1.91.8,4.31.61,6.59-.19,2.47-.56,4.51-.61,6.27-.12,3.56.03,5.87.32,7.95,1.43,10.26,1.49,19.23-3.45,20.32-6,1.32-21.34,1.68-22.06-4.17-.65-5.28,4.87-9.07,9.12-23.53,1.26-4.28.43-6.11-.06-8.04-.94-3.69.77-4.9.63-7.82-.55-11.68-6.02-21.57-11.23-43.83-2.82-12.05-4.54-25.18-2.17-40.37,1.22-7.82,2.59-11.86,2-24.77-.46-10-3.99-27-10.24-55.35-2.82-12.75-10.33-39.46-11.35-51.97-.41-5.04-.57-9.67-.54-13.94.09-12.01,1.71-21.13,3.62-28.48-1.23-12.03-3.18-29.12-1.48-39.5,3-18.42,6.36-52.04,7.35-57.44-.16-.51-.3-1.04-.45-1.55-.54,2.28-1.87,7.73-2.41,9.58-1.72,5.85-3.89,12.24-5.9,18.28-2.01,6.03-3.84,11.72-4.86,16.17-.23,1-.43,1.96-.57,2.82-.31,1.91-1.61,17.8-9.44,35.76-.44,1.01-.86,1.97-1.26,2.9-6.28,14.29-8.82,19.21-13.26,27.21-3.24,5.83-5.56,10.5-5.93,14.26-.02.14-.05.3-.06.44-.09,1.65,1.88,5.14,2.58,7.34,2.2,6.8-2.24,12.49,2.83,21.37.54.95-2.82,1.08-4.8-.8-2.51-2.37-3.25-8.83-3.33-7.64-.49,7.89-2.03,9.7-2.97,16.15-.69,4.7,1.24,7.3-.28,9.2-1.16,1.46-1.55,1.34-4.4-1.26-2.01-1.83-3.27-3.52-4.55-4.87-2.5-2.64-3.85-5.24-4.07-10.68-.17-4.12.5-7.23,2.2-13.2.75-2.64,1.58-4.11,2.67-11.49.34-2.28.35-3.6.35-4.56,0-.55,0-.99.06-1.43.41-3.05,2.15-4.01,3.12-9.75,1.82-10.88,3.02-18.95,4.73-30.29.35-2.3.71-4.71,1.11-7.32,1.41-9.38,6.14-21.17,11.12-34.15.28-.74.56-1.48.85-2.23.5-1.34,1.58-11.47,2-16.8.51-6.66,5.35-67.68,8.65-76.88,2.47-6.87,4.86-9.62,7.16-10.53v-.02s1.86-.89,2.99-1.3c3.37-1.21,7.6-1.84,12.07-2.55,3.65-.67,14.17-1.41,17.7-2.8,5.27-2.05,9.61-4.6,12.23-11,1.1-2.7,1.54-10.2,1.72-15.32-2.5-2.35-4.45-5.37-5.66-10.4-.22-.9-.47-1.98-.73-3.12-2.75.98-3.46-3.3-3.97-4.53-.56-1.37-1.3-1.5-2.05-4.49-.5-2.01.36-3.32,0-4.6-.25-.87-.36-3.32.74-4.16.12-.09.26-.14.41-.19-1.63-6.25-2.67-16.48.73-24.31,1.46-3.39,3.28-6.12,5.19-8.28,4.51-5.57,11.95-9.21,20.38-9.21s15.88,3.64,20.38,9.21c1.91,2.16,3.72,4.89,5.19,8.28,3.4,7.83,2.36,18.06.73,24.31.16.05.3.1.42.19,1.1.84.99,3.29.74,4.16-.35,1.29.51,2.6,0,4.6-.74,3-1.48,3.13-2.04,4.49-.51,1.24-1.23,5.51-3.97,4.53-.26,1.14-.51,2.22-.73,3.12-1.22,5.02-3.16,8.05-5.66,10.4.18,5.12.62,12.62,1.72,15.32,2.62,6.39,6.97,8.95,12.23,11,3.54,1.39,14.06,2.13,17.7,2.8,4.48.71,8.7,1.34,12.07,2.55,1.14.41,2.99,1.3,2.99,1.3v.02c2.3.91,4.69,3.66,7.16,10.53,3.31,9.2,8.14,70.22,8.66,76.88.41,5.33,1.49,15.46,2,16.8.29.75.57,1.49.85,2.23,4.98,12.97,9.7,24.77,11.12,34.15.4,2.61.76,5.02,1.11,7.32,1.71,11.35,2.91,19.42,4.73,30.29.97,5.74,2.71,6.7,3.12,9.75.06.44.06.88.06,1.43,0,.97.01,2.29.35,4.56,1.09,7.38,1.92,8.85,2.67,11.49,1.7,5.97,2.37,9.09,2.2,13.2Z"/>
  </g>
</svg>