<?xml version="1.0" encoding="UTF-8"?>
<svg id="_레이어_2" data-name="레이어 2" xmlns="http://www.w3.org/2000/svg" viewBox="0 0 212.64 571.25">
  <defs>
    <style>
      .cls-1 {
        fill: #f3a9aa;
        stroke: #231815;
        stroke-miterlimit: 10;
      }
    </style>
  </defs>
  <g id="_레이어_1-2" data-name="레이어 1">
    <path class="cls-1" d="m44.54,106.83s1.86-.89,2.99-1.3c3.37-1.21,7.6-1.8,12.07-2.55.28-.05.59-.1.91-.15,3.93-.63,13.38-1.39,16.8-2.72,5.27-2.05,9.61-4.6,12.23-11,1.1-2.7,1.54-10.2,1.72-15.32-2.5-2.35-4.45-5.37-5.66-10.4-.22-.9-.47-1.97-.73-3.12-2.75.98-3.46-3.3-3.97-4.53-.56-1.36-1.3-1.49-2.05-4.49-.5-2,.37-3.32,0-4.6-.24-.87-.36-3.32.74-4.15.12-.09.26-.14.41-.18-1.63-6.26-2.67-16.49.73-24.32,1.46-3.39,3.28-6.12,5.19-8.28,4.51-5.57,11.95-9.21,20.38-9.21s15.88,3.64,20.38,9.21c1.91,2.16,3.72,4.89,5.19,8.28,3.4,7.83,2.36,18.06.73,24.32.16.04.3.09.42.18,1.1.84.98,3.28.74,4.15-.36,1.29.51,2.6,0,4.6-.75,3-1.48,3.13-2.04,4.49-.51,1.24-1.23,5.51-3.97,4.53-.26,1.14-.51,2.22-.73,3.12-1.22,5.02-3.16,8.05-5.66,10.4.18,5.12.62,12.62,1.72,15.32,2.62,6.39,6.97,8.95,12.23,11,3.42,1.34,12.87,2.09,16.8,2.72.32.05.62.1.9.15,4.47.75,8.7,1.34,12.07,2.55,1.14.41,2.99,1.3,2.99,1.3v.02c2.3.91,4.69,3.66,7.16,10.53,3.31,9.2,8.14,70.22,8.66,76.88.41,5.33,1.49,15.46,2,16.8.27.72.55,1.44.82,2.15.02.05.04.11.06.16,5,12.93,9.67,24.71,11.08,34.06.39,2.58.75,4.97,1.1,7.25,0,.05.01.11.02.16,1.7,11.3,2.91,19.36,4.72,30.21.97,5.74,2.7,6.7,3.12,9.75.06.41.06.84.06,1.35,0,.48,0,1.22.17,2.36.13,1.39.26,2.78.55,4.52.91,5.54,1.63,6.93,2.29,9.25,1.7,5.97,2.37,9.09,2.2,13.2-.22,5.43-1.57,8.04-4.07,10.68-1.28,1.36-2.55,3.05-4.55,4.87-2.85,2.59-3.24,2.71-4.4,1.26-1.52-1.9.41-4.49-.28-9.2-.95-6.45-2.48-8.26-2.97-16.15-.08-1.19-.82,5.27-3.33,7.64-1.99,1.88-5.35,1.75-4.8.8,5.07-8.88.62-14.57,2.83-21.38.7-2.19,2.68-5.69,2.58-7.34,0-.14-.04-.3-.06-.44,0-.04-.01-.09-.02-.13-.41-3.75-2.71-8.36-5.91-14.13-4.44-8-6.98-12.91-13.26-27.21-.21-.49-.43-.99-.66-1.52-.39-.9-.79-1.81-1.18-2.75-7.31-17.38-8.56-32.52-8.86-34.38-.14-.86-.35-1.82-.57-2.82,0-.05-.02-.09-.03-.14-1.03-4.45-2.85-10.1-4.85-16.09-2-6.02-4.17-12.38-5.88-18.22-.54-1.85-1.87-7.3-2.41-9.58-.16.51-.31,1.03-.47,1.54-1.7,8.5-4.58,27.99-1.86,42.8.75,4.43,1.62,9.61,2.53,14.14.45,2.23.79,4.53,1.18,6.7,1.53,8.41,2.95,17.45,2.62,21.1.33,3.57.73,7.25,1.13,11.02,2.04,7.53,3.82,16.96,3.92,29.59.03,4.27-.13,8.9-.53,13.94-1.02,12.5-8.55,39.21-11.35,51.97-6.25,28.36-9.78,45.36-10.25,55.35-.59,12.91.78,16.95,2.01,24.77,2.36,15.19.63,28.33-2.18,40.37-5.21,22.25-10.7,32.15-11.23,43.83-.13,2.92,1.57,4.13.63,7.82-.48,1.93-1.31,3.76-.06,8.04,4.25,14.46,9.77,18.25,9.12,23.53-.72,5.85-16.06,5.49-22.06,4.17-4.94-1.09-4.87-10.06-3.45-20.32.29-2.08.43-4.39.33-7.95-.06-1.76-.42-3.81-.62-6.27-.18-2.28.34-4.68.62-6.59.21-1.44.43-2.6.46-3.21,1.39-22.35.92-27.72-1.28-48.73-2.21-21.24.9-25.05.5-38.03-.23-7.7-2.04-15.56-2.54-23.9-.61-10.45.24-20.33,1.1-27.76,2.38-20.55,2.36-23.86,3.13-40.1.84-17.64-3.57-26.29-1.06-41.5-.58.27-2.01.38-3.42.38-1.42,0-2.85-.11-3.43-.38,2.51,15.21-1.9,23.86-1.06,41.5.77,16.24.75,19.56,3.13,40.1.87,7.43,1.71,17.31,1.1,27.76-.48,8.34-2.31,16.2-2.54,23.9-.4,12.98,2.72,16.79.5,38.03-2.19,21.01-2.67,26.38-1.28,48.73.04.61.26,1.77.47,3.21.28,1.91.79,4.31.61,6.59-.2,2.47-.56,4.51-.61,6.27-.11,3.56.03,5.87.32,7.95,1.43,10.26,1.49,19.23-3.45,20.32-6,1.32-21.34,1.68-22.06-4.17-.65-5.28,4.87-9.07,9.12-23.53,1.26-4.28.43-6.11-.06-8.04-.94-3.69.77-4.9.63-7.82-.55-11.68-6.02-21.57-11.23-43.83-2.82-12.05-4.54-25.18-2.17-40.37,1.22-7.82,2.59-11.86,2-24.77-.46-10-3.99-27-10.24-55.35-2.82-12.75-10.33-39.46-11.35-51.97-.41-5.04-.57-9.67-.54-13.94.09-12.07,1.73-21.23,3.65-28.59.45-4.47.92-8.81,1.3-12.98-.32-3.73,1.11-12.8,2.76-21.11.31-1.55.57-3.16.9-4.76,1.04-5.01,2.03-11.03,2.88-16.06,2.6-14.33.09-32.61-1.69-40.94-.27-.83-.53-1.65-.77-2.44-.54,2.28-1.87,7.73-2.41,9.58-1.72,5.86-3.89,12.24-5.9,18.28-1.99,6-3.82,11.65-4.84,16.09-.02.05-.03.1-.04.16-.21.97-.42,1.9-.55,2.74-.31,1.91-1.61,17.8-9.44,35.76-.43.98-.84,1.92-1.24,2.82-.02.04-.04.09-.05.13-6.27,14.25-8.8,19.16-13.23,27.15-3.22,5.8-5.53,10.43-5.92,14.19,0,.09-.03.2-.04.29-.01.13-.03.28-.02.42.04,1.7,1.9,5.03,2.57,7.14,2.2,6.81-2.24,12.5,2.83,21.38.54.95-2.82,1.08-4.8-.8-2.51-2.37-3.25-8.83-3.33-7.64-.49,7.89-2.03,9.7-2.97,16.15-.69,4.7,1.24,7.3-.28,9.2-1.16,1.45-1.55,1.33-4.4-1.26-2.01-1.83-3.27-3.52-4.55-4.87-2.5-2.64-3.85-5.24-4.07-10.68-.17-4.12.5-7.23,2.2-13.2.75-2.64,1.58-4.11,2.67-11.49.34-2.28.35-3.6.35-4.56,0-.03,0-.13,0-.16,0-.48,0-.88.06-1.27.43-3.04,2.15-4.01,3.12-9.75,1.82-10.88,3.02-18.95,4.73-30.29,0-.05.02-.1.02-.15.34-2.25.7-4.62,1.09-7.18,1.41-9.38,6.14-21.17,11.12-34.15.02-.05.03-.1.05-.15.26-.69.53-1.38.8-2.08.51-1.34,1.58-11.47,2-16.8.51-6.66,5.35-67.68,8.65-76.88,2.47-6.87,4.86-9.62,7.16-10.53v-.02Z"/>
  </g>
</svg>