<?xml version="1.0" encoding="UTF-8"?>
<svg id="_레이어_2" data-name="레이어 2" xmlns="http://www.w3.org/2000/svg" viewBox="0 0 212.64 571.25">
  <defs>
    <style>
      .cls-1 {
        fill: #f3a9aa;
        stroke: #231815;
        stroke-miterlimit: 10;
      }
    </style>
  </defs>
  <g id="_레이어_1-2" data-name="레이어 1">
    <path class="cls-1" d="m44.54,106.89s1.86-.89,2.99-1.3c3.37-1.21,7.6-1.81,12.07-2.55.29-.05.6-.1.91-.15,3.78-.63,13.31-1.4,16.79-2.76,5.27-2.05,9.61-4.61,12.23-11,1.1-2.7,1.54-10.2,1.72-15.33-2.5-2.35-4.45-5.37-5.66-10.4-.22-.9-.47-1.97-.73-3.12-2.75.98-3.46-3.3-3.97-4.54-.56-1.36-1.3-1.49-2.05-4.5-.5-2,.37-3.32,0-4.61-.24-.87-.36-3.32.74-4.16.12-.09.26-.14.42-.18-1.63-6.26-2.67-16.49.73-24.32,1.46-3.39,3.28-6.12,5.19-8.28,4.51-5.57,11.95-9.21,20.38-9.21s15.88,3.64,20.38,9.21c1.91,2.17,3.72,4.9,5.19,8.28,3.4,7.83,2.36,18.06.73,24.32.16.04.3.09.41.18,1.1.84.98,3.29.74,4.16-.36,1.29.51,2.6,0,4.61-.75,3-1.48,3.13-2.05,4.5-.51,1.24-1.23,5.51-3.97,4.54-.26,1.15-.51,2.22-.73,3.12-1.22,5.03-3.16,8.05-5.66,10.4.18,5.13.62,12.63,1.72,15.33,2.62,6.39,6.97,8.95,12.23,11,3.48,1.36,13.02,2.13,16.79,2.76.31.05.62.1.91.15,4.47.74,8.7,1.34,12.07,2.55,1.14.41,2.99,1.3,2.99,1.3v.02c2.3.91,4.69,3.66,7.16,10.53,3.31,9.2,8.14,70.23,8.65,76.9.41,5.34,1.49,15.47,2,16.8.27.71.54,1.41.81,2.12.02.05.03.1.05.15,5.02,12.94,9.69,24.74,11.1,34.12.39,2.57.75,4.95,1.09,7.21,0,.05.01.1.02.15,1.71,11.33,2.91,19.39,4.73,30.26.97,5.74,2.69,6.71,3.12,9.75.06.4.06.82.06,1.32,0,.24,0,.68.09,1.25.07,1.18.14,2.53.45,4.54,1,6.47,1.77,7.9,2.48,10.37,1.7,5.97,2.37,9.09,2.2,13.21-.22,5.43-1.57,8.04-4.07,10.68-1.28,1.36-2.55,3.05-4.55,4.88-2.85,2.59-3.24,2.71-4.4,1.26-1.52-1.9.42-4.5-.28-9.2-.95-6.45-2.48-8.26-2.97-16.15-.08-1.19-.82,5.28-3.33,7.64-1.99,1.88-5.35,1.75-4.8.8,5.07-8.88.62-14.58,2.83-21.39.7-2.19,2.68-5.7,2.58-7.34,0-.14-.04-.3-.06-.44,0-.05-.02-.09-.02-.14-.41-3.75-2.71-8.36-5.91-14.13-4.44-8-6.98-12.92-13.26-27.21-.12-.27-.23-.55-.36-.84-.39-.89-.79-1.8-1.19-2.74-7.57-17.68-8.85-33.2-9.15-35.08-.14-.87-.36-1.82-.57-2.82-.01-.05-.02-.1-.04-.14-1.04-4.47-2.88-10.17-4.88-16.2-1.99-5.99-4.14-12.31-5.84-18.11-.54-1.85-1.87-7.3-2.41-9.58-.16.51-.32,1.03-.48,1.55-2.94,10.65-8.35,29.23-5.45,42.48.88,4.47,2.72,8.97,4.74,13.92.67,1.65,1.31,3.43,1.98,5.3,2.43,6.81,4.3,13.4,5.31,18.16.27.74.48,1.34.63,1.76.02.05.04.1.05.15.49,1.36.8,2.28.93,2.61.02.05.04.09.05.14,3.22,8.77,7.86,20.28,8.28,38.98,0,.04,0,.11,0,.15.01.69.02,1.39.03,2.09,0,.01,0,.14,0,.15.01,3.65-.13,7.54-.47,11.74-.05.65-.11,1.32-.18,2.01-1.31,12.66-9.69,38.88-12.83,51.48-7.09,28.36-11.11,45.38-11.62,55.38-.67,12.91.88,16.94,2.26,24.77,2.69,15.2.73,28.34-2.47,40.38-5.92,22.26-12.11,32.16-12.75,43.85-.16,2.91,1.79,4.13.72,7.82-.56,1.92-1.5,3.76-.08,8.03,4.82,14.47,11.1,18.26,10.35,23.55-.82,5.85-18.23,5.48-25.04,4.17-5.61-1.09-5.53-10.05-3.91-20.32.33-2.08.49-4.4.37-7.95-.07-1.75-.49-3.8-.71-6.27-.2-2.28.4-4.69.71-6.58.24-1.45.49-2.61.53-3.22,1.66-22.35,1.04-27.72-1.46-48.74-2.51-21.24,1.02-25.06.57-38.04-.27-7.7-2.33-15.57-2.88-23.9-.69-10.46.27-20.33,1.24-27.77,2.7-20.55,2.69-23.87,3.56-40.11.95-17.64-4.05-26.29-1.2-41.5-.66.26-2.28.38-3.89.37s-3.22-.11-3.88-.37c2.86,15.22-2.14,23.86-1.21,41.5.88,16.24.86,19.56,3.57,40.11.98,7.44,1.94,17.31,1.24,27.77-.55,8.33-2.62,16.19-2.88,23.9-.44,12.99,3.08,16.8.56,38.04-2.49,21.02-2.95,26.39-1.45,48.74.04.61.3,1.77.53,3.22.32,1.9.91,4.31.7,6.58-.22,2.48-.64,4.53-.7,6.27-.13,3.56.04,5.87.37,7.95,1.62,10.27,1.69,19.23-3.91,20.32-6.82,1.32-24.22,1.69-25.04-4.17-.74-5.28,5.52-9.08,10.34-23.55,1.43-4.28.49-6.11-.07-8.03-1.08-3.69.87-4.92.72-7.82-.63-11.69-6.84-21.59-12.75-43.85-3.2-12.04-5.17-25.19-2.47-40.38,1.38-7.82,2.93-11.86,2.26-24.77-.52-10-4.53-27.01-11.62-55.38-3.18-12.76-11.73-39.47-12.88-51.97-.45-5-.63-9.57-.6-13.81v-.15c.17-20.18,5.23-32.22,8.56-41.33,0-.05.03-.1.05-.15.04-.12.25-.72.6-1.72.72-4.82,2.85-13.24,6.22-21.7,2.82-7.13,5.6-13.22,6.75-19.18,2.53-11.79-1.29-27.27-4.33-37.3-.18-.52-.35-1.04-.52-1.55-.53-1.04-1.08-1.81-1.58-2.54-.3,1.26-.74,3.02-1.13,4.57-.49,1.9-.99,3.8-1.34,4.95-1.32,4.42-2.87,9.09-4.4,13.67-1.96,5.89-3.87,11.6-5.16,16.36-.37,1.35-.69,2.63-.95,3.81-.02.05-.02.09-.03.14-.17.86-.37,1.81-.52,2.81-.41,2.8-1.84,17.03-8.63,33.35-.34.81-.68,1.62-1.03,2.42-.41.95-.82,1.86-1.2,2.74-.02.05-.04.09-.06.14-5.61,12.74-8.2,17.87-12.03,24.84-.4.73-.81,1.47-1.23,2.23-2.62,4.75-4.58,8.71-5.31,12.03-.03.15-.07.3-.1.45-.1.53-.15,1.07-.14,1.62,0,.05,0,.1,0,.14,0,.14-.02.29-.01.43.07,1.34,1.16,3.53,1.91,5.38.27.68.51,1.34.67,1.92,1.77,6.31-1.86,11.73,2.11,19.75.24.48.27.93.29,1.31.03.56-1.84.64-3.49-.28-.45-.25-.88-.58-1.25-.99-1.67-1.84-2.46-5.44-2.8-6.52-.19-.6-.28-.88-.31-.45-.49,7.22-1.87,9.25-2.81,14.9-.06.39-.12.79-.17,1.19-.5,3.98.85,6.42.11,8.21-.13.33-.3.61-.53.87-.99,1.13-1.48,1.01-3.7-.97-.22-.2-.45-.4-.69-.63-1.7-1.57-2.86-3.03-3.97-4.27-.19-.2-.37-.4-.55-.6-2.34-2.51-3.64-5.04-3.91-10.05-.01-.21-.02-.42-.03-.63-.14-3.97.51-7.04,2.12-12.74.04-.14.08-.27.12-.41.74-2.58,1.57-4.1,2.64-11.4.34-2.28.35-3.6.35-4.57,0-.01,0-.14,0-.15,0-.48,0-.88.06-1.27.43-3.04,2.15-4.01,3.12-9.75,1.82-10.88,3.02-18.95,4.73-30.3,0-.05.02-.1.02-.15.34-2.25.7-4.62,1.09-7.18,1.41-9.38,6.1-21.19,11.12-34.16.02-.05.03-.1.05-.15.27-.69.53-1.38.8-2.08.51-1.34,1.58-11.47,2-16.8.51-6.66,5.35-67.7,8.65-76.9,2.47-6.87,4.86-9.62,7.16-10.53v-.02Z"/>
  </g>
</svg>