<?xml version="1.0" encoding="UTF-8"?>
<svg id="_레이어_2" data-name="레이어 2" xmlns="http://www.w3.org/2000/svg" viewBox="0 0 212.64 571.25">
  <defs>
    <style>
      .cls-1 {
        fill: #f3a9aa;
        stroke: #231815;
        stroke-miterlimit: 10;
      }
    </style>
  </defs>
  <g id="_레이어_1-2" data-name="레이어 1">
    <path class="cls-1" d="m44.54,106.82s1.86-.89,2.99-1.3c3.37-1.21,7.61-1.79,12.07-2.55.27-.05.58-.1.9-.15,4.09-.63,13.45-1.37,16.8-2.69,5.27-2.05,9.61-4.61,12.23-11,1.1-2.7,1.54-10.2,1.72-15.33-2.5-2.35-4.45-5.37-5.66-10.4-.22-.9-.47-1.98-.73-3.12-2.75.98-3.46-3.3-3.97-4.54-.56-1.37-1.3-1.5-2.05-4.5-.5-2.01.37-3.32,0-4.61-.24-.87-.36-3.32.74-4.16.12-.09.26-.14.42-.19-1.63-6.26-2.67-16.49.73-24.32,1.46-3.39,3.28-6.12,5.19-8.28,4.51-5.57,11.95-9.21,20.38-9.21s15.88,3.64,20.38,9.21c1.91,2.16,3.72,4.9,5.19,8.28,3.4,7.83,2.36,18.06.73,24.32.16.05.3.1.41.19,1.1.84.98,3.29.74,4.16-.36,1.29.51,2.6,0,4.61-.75,3-1.48,3.13-2.05,4.5-.51,1.24-1.23,5.51-3.97,4.54-.26,1.14-.51,2.22-.73,3.12-1.22,5.03-3.16,8.05-5.66,10.4.18,5.13.62,12.63,1.72,15.33,2.62,6.39,6.97,8.95,12.23,11,3.35,1.31,12.73,2.06,16.81,2.69.32.05.62.1.9.15,4.47.76,8.7,1.34,12.07,2.55,1.14.41,2.99,1.3,2.99,1.3v.02c2.3.91,4.69,3.66,7.16,10.53,3.31,9.2,8.14,70.23,8.65,76.9.41,5.34,1.49,15.47,2,16.8.28.74.56,1.46.84,2.19.02.06.04.11.06.17,4.96,12.93,9.66,24.68,11.07,34.03.39,2.6.76,5,1.1,7.29,0,.05.02.11.02.16,1.7,11.28,2.9,19.34,4.71,30.18.97,5.74,2.71,6.7,3.12,9.75.06.43.06.86.06,1.39,0,.73,0,1.75.26,3.46.2,1.6.39,3.02.65,4.49.82,4.63,1.49,5.99,2.1,8.14,1.7,5.97,2.37,9.09,2.2,13.21-.22,5.43-1.57,8.04-4.07,10.68-1.28,1.36-2.55,3.05-4.55,4.88-2.85,2.6-3.24,2.71-4.4,1.26-1.52-1.9.41-4.5-.28-9.2-.95-6.45-2.48-8.26-2.97-16.15-.08-1.19-.82,5.27-3.33,7.64-1.99,1.88-5.35,1.75-4.8.8,5.07-8.88.62-14.58,2.83-21.38.7-2.2,2.68-5.7,2.58-7.34,0-.14-.04-.3-.06-.44,0-.04-.01-.08-.01-.12-.4-3.75-2.71-8.37-5.91-14.15-4.44-8-6.98-12.92-13.26-27.21-.31-.71-.62-1.44-.96-2.21-.4-.91-.78-1.82-1.16-2.74-7.06-17.1-8.28-31.88-8.57-33.72-.14-.86-.35-1.82-.57-2.82,0-.04-.02-.09-.03-.13-1.03-4.45-2.86-10.1-4.85-16.1-2-6.03-4.17-12.39-5.88-18.23-.54-1.85-1.87-7.3-2.41-9.58-.16.51-.3,1.04-.46,1.55-.47,6.33-.83,26.47,1.69,42.77.75,5.02,1.86,9.86,2.97,14.34.42,1.69.73,3.54,1.03,5.51.95,6.07,1.39,12.75,1.37,18.72.33.92.53,1.52.61,1.75.02.05.04.1.05.15.36,1,.68,1.88.94,2.57.01.04.03.08.04.12,3.24,8.79,7.57,20.36,7.81,38.77,0,.01,0,.14,0,.15,0,.68.01,1.37,0,2.07,0,.03,0,.11,0,.14-.02,3.62-.19,7.49-.56,11.65-.06.63-.13,1.29-.21,1.97-1.61,12.99-9.65,38.22-12.72,50.5-7.09,28.36-11.11,45.38-11.62,55.38-.67,12.91.88,16.94,2.26,24.77,2.69,15.2.73,28.34-2.47,40.38-5.92,22.26-12.11,32.16-12.75,43.85-.16,2.91,1.79,4.13.72,7.82-.56,1.92-1.5,3.76-.08,8.03,4.82,14.47,11.1,18.26,10.35,23.55-.82,5.85-18.23,5.48-25.04,4.17-5.61-1.09-5.53-10.05-3.91-20.32.33-2.08.49-4.4.37-7.95-.07-1.75-.49-3.8-.71-6.27-.2-2.28.4-4.69.71-6.58.24-1.45.49-2.61.53-3.22,1.66-22.35,1.04-27.72-1.46-48.74-2.51-21.24,1.02-25.06.57-38.04-.27-7.7-2.33-15.57-2.88-23.9-.69-10.46.27-20.33,1.24-27.77,2.7-20.55,2.69-23.87,3.56-40.11.95-17.64-4.05-26.29-1.2-41.5-.66.26-2.28.38-3.89.37-1.6-.01-3.22-.11-3.88-.37,2.86,15.22-2.14,23.86-1.21,41.5.88,16.24.86,19.56,3.57,40.11.98,7.44,1.94,17.31,1.24,27.77-.55,8.33-2.62,16.19-2.88,23.9-.44,12.99,3.08,16.8.56,38.04-2.49,21.02-2.95,26.39-1.45,48.74.04.61.3,1.77.53,3.22.32,1.9.91,4.31.7,6.58-.22,2.48-.64,4.53-.7,6.27-.13,3.56.04,5.87.37,7.95,1.62,10.27,1.69,19.23-3.91,20.32-6.82,1.32-24.22,1.69-25.04-4.17-.74-5.29,5.52-9.08,10.34-23.55,1.43-4.28.49-6.11-.07-8.03-1.08-3.69.87-4.92.72-7.82-.63-11.69-6.84-21.59-12.75-43.85-3.2-12.04-5.17-25.19-2.47-40.38,1.38-7.82,2.93-11.86,2.26-24.77-.52-10-4.52-27.01-11.62-55.38-3.18-12.76-11.73-39.47-12.88-51.97-.45-5-.63-9.57-.6-13.81v-.15c.17-20.18,5.23-32.22,8.56-41.33,0-.05.03-.1.05-.15.04-.12.25-.72.6-1.72-.25-7.55.21-16.49,2.04-23.66,1.55-6.15,3.12-12.9,4.11-19.72,2.21-14.87,2.15-31.56,1.6-37.41-.16-.51-.31-1.04-.48-1.55-.36.43-.87,1.5-1.35,2.54-.41,1.64-.85,3.41-1.16,4.53-.47,1.68-.97,3.4-1.43,4.87-1.37,4.43-2.93,9.06-4.41,13.53-1.99,5.99-3.85,11.68-4.96,16.24-.27,1.12-.52,2.18-.7,3.15,0,.04-.01.07-.02.12-.1.59-.24,1.54-.41,2.78-.64,4.73-2.48,18.12-8.92,33.05-.41.95-.8,1.85-1.19,2.74-.41.94-.81,1.85-1.2,2.71-.02.04-.03.08-.05.12-5.47,12.36-7.99,17.26-12.02,24.55-.41.75-.82,1.49-1.22,2.22-2.6,4.8-4.46,8.75-4.91,12.05-.02.14-.06.3-.07.44-.05.45,0,.99.13,1.58,0,.04.02.09.03.13.03.13.05.27.08.4.41,1.59,1.49,3.7,2.06,5.31.23.67.41,1.32.54,1.95,1.22,6.1-2.1,11.51,2.28,19.53.25.45-.12.76-.71.89-.68.15-2.3-.08-3.56-1.08-.39-.31-.75-.7-1.07-1.16-1.73-2.49-2.33-6.75-2.5-6.44-.08.14-.14.36-.17.81-.55,6.88-1.94,8.87-2.85,14.78-.06.41-.11.81-.14,1.2-.33,3.97,1.11,6.32-.06,8.07-.21.32-.42.58-.64.77-.84.74-1.49.36-3.71-1.65-.23-.21-.45-.42-.68-.63-1.65-1.58-2.78-3.04-3.91-4.25-.19-.2-.37-.4-.54-.59-2.22-2.47-3.43-5.05-3.66-10.08,0-.21-.02-.42-.02-.63-.1-3.87.58-6.96,2.19-12.63.04-.13.07-.26.11-.38.73-2.47,1.54-4.09,2.59-11.21.34-2.28.35-3.6.35-4.57,0-.04,0-.12,0-.16,0-.47,0-.87.06-1.26.42-3.05,2.15-4.01,3.12-9.75,1.82-10.88,3.02-18.95,4.73-30.3,0-.05.02-.1.02-.14.34-2.25.7-4.62,1.09-7.18,1.41-9.38,6.14-21.18,11.12-34.16.02-.05.03-.1.05-.15.26-.69.53-1.38.8-2.08.51-1.34,1.58-11.47,2-16.8.51-6.66,5.35-67.7,8.66-76.9,2.47-6.87,4.86-9.62,7.16-10.53v-.02Z"/>
  </g>
</svg>