<?xml version="1.0" encoding="UTF-8"?>
<svg id="_레이어_2" data-name="레이어 2" xmlns="http://www.w3.org/2000/svg" viewBox="0 0 212.64 571.25">
  <defs>
    <style>
      .cls-1 {
        fill: #f3a9aa;
        stroke: #231815;
        stroke-miterlimit: 10;
      }
    </style>
  </defs>
  <g id="_레이어_1-2" data-name="레이어 1">
    <path class="cls-1" d="m44.54,106.82s1.86-.89,2.99-1.3c3.37-1.21,7.61-1.79,12.07-2.55.27-.05.58-.1.9-.15,4.09-.63,13.45-1.37,16.8-2.69,5.27-2.05,9.61-4.61,12.23-11,1.1-2.7,1.54-10.2,1.72-15.33-2.5-2.35-4.45-5.37-5.66-10.4-.22-.9-.47-1.98-.73-3.12-2.75.98-3.46-3.3-3.97-4.54-.56-1.37-1.3-1.5-2.05-4.5-.5-2.01.37-3.32,0-4.61-.24-.87-.36-3.32.74-4.16.12-.09.26-.14.42-.19-1.63-6.26-2.67-16.49.73-24.32,1.46-3.39,3.28-6.12,5.19-8.28,4.51-5.57,11.95-9.21,20.38-9.21s15.88,3.64,20.38,9.21c1.91,2.16,3.72,4.9,5.19,8.28,3.4,7.83,2.36,18.06.73,24.32.16.05.3.1.41.19,1.1.84.98,3.29.74,4.16-.36,1.29.51,2.6.01,4.61-.74,3-1.48,3.13-2.05,4.5-.51,1.24-1.22,5.51-3.97,4.54-.26,1.14-.51,2.22-.73,3.12-1.22,5.03-3.16,8.05-5.66,10.4.18,5.13.62,12.63,1.72,15.33,2.62,6.39,6.97,8.95,12.23,11,3.35,1.31,12.73,2.05,16.81,2.69.32.05.62.1.9.15,4.47.76,8.7,1.34,12.07,2.55,1.14.41,2.99,1.3,2.99,1.3v.02c2.3.91,4.69,3.66,7.16,10.53,3.31,9.2,8.14,70.23,8.65,76.9.42,5.34,1.49,15.47,2,16.8.28.74.56,1.46.84,2.19.02.06.04.11.06.17,4.96,12.93,9.66,24.68,11.07,34.03.39,2.6.76,5,1.1,7.29,0,.05.01.11.02.16,1.7,11.28,2.9,19.34,4.71,30.18.97,5.74,2.71,6.7,3.12,9.75.06.43.06.86.06,1.39,0,.73,0,1.75.26,3.46.2,1.6.39,3.02.65,4.49.82,4.63,1.49,5.99,2.1,8.14,1.7,5.97,2.37,9.09,2.2,13.21-.22,5.43-1.57,8.04-4.07,10.68-1.28,1.36-2.55,3.05-4.55,4.88-2.85,2.6-3.24,2.71-4.4,1.26-1.52-1.9.41-4.5-.28-9.2-.95-6.45-2.48-8.26-2.97-16.15-.08-1.19-.82,5.27-3.33,7.64-1.99,1.88-5.35,1.75-4.8.8,5.07-8.88.62-14.58,2.83-21.38.7-2.2,2.68-5.7,2.58-7.34,0-.14-.04-.3-.06-.44,0-.04-.01-.08-.01-.12-.4-3.75-2.71-8.37-5.91-14.15-4.44-8-6.98-12.92-13.26-27.21-.31-.71-.62-1.44-.96-2.21-.4-.91-.79-1.82-1.16-2.74-7.06-17.1-8.28-31.88-8.57-33.71-.14-.86-.35-1.82-.57-2.82,0-.04-.02-.09-.03-.13-1.03-4.45-2.85-10.1-4.85-16.09-2-6.03-4.17-12.4-5.88-18.24-.54-1.85-1.87-7.3-2.41-9.58-.16.51-.3,1.03-.46,1.55-.46,6.33-.67,26.53,2.17,42.76.76,5.01,1.8,9.9,2.83,14.4.44,1.91.73,4.02,1.03,6.26.83,6.24,1.18,12.49,1.09,18.09.35,1.02.56,1.64.65,1.88.3.84.55,1.54.77,2.12,3.3,8.92,7.81,20.72,7.97,39.76v.14c.03,4.24-.15,8.81-.6,13.81-1.16,12.51-9.7,39.22-12.88,51.98-7.09,28.35-11.11,45.37-11.62,55.37-.67,12.91.88,16.95,2.26,24.77,2.69,15.21.73,28.34-2.47,40.38-5.92,22.26-12.11,32.16-12.75,43.85-.16,2.92,1.79,4.14.72,7.82-.56,1.92-1.5,3.76-.08,8.03,4.82,14.48,11.1,18.26,10.35,23.55-.82,5.85-18.23,5.48-25.04,4.17-5.61-1.08-5.53-10.05-3.91-20.32.33-2.07.49-4.4.37-7.94-.07-1.76-.49-3.81-.71-6.27-.2-2.28.4-4.69.71-6.59.24-1.45.49-2.61.53-3.21,1.67-22.36,1.04-27.72-1.46-48.75-2.51-21.24,1.02-25.06.57-38.04-.27-7.69-2.33-15.57-2.89-23.9-.69-10.46.27-20.33,1.24-27.76,2.7-20.55,2.69-23.87,3.56-40.12.95-17.63-4.05-26.29-1.2-41.5-.66.26-2.28.39-3.89.38s-3.22-.12-3.88-.38c2.86,15.22-2.14,23.87-1.21,41.5.88,16.25.86,19.57,3.57,40.12.98,7.43,1.94,17.3,1.24,27.76-.55,8.33-2.62,16.2-2.88,23.9-.44,12.99,3.08,16.8.56,38.04-2.49,21.03-2.95,26.39-1.45,48.75.04.6.3,1.76.53,3.21.32,1.91.91,4.32.7,6.59-.22,2.47-.64,4.52-.7,6.27-.13,3.55.04,5.87.37,7.94,1.62,10.27,1.69,19.24-3.91,20.32-6.82,1.32-24.22,1.69-25.04-4.17-.74-5.29,5.52-9.07,10.34-23.55,1.43-4.28.49-6.11-.07-8.03-1.07-3.69.87-4.91.72-7.82-.63-11.69-6.84-21.59-12.75-43.85-3.2-12.04-5.17-25.18-2.47-40.38,1.38-7.81,2.93-11.86,2.26-24.77-.52-10-4.53-27.01-11.62-55.37-3.18-12.76-11.73-39.47-12.88-51.98-.45-5-.63-9.57-.6-13.81v-.14c.17-20.18,5.11-32.27,8.56-41.34.06-.15.27-.77.65-1.91-.2-6.17.21-13.29,1.39-20.43.22-1.36.42-2.66.7-3.87,1.19-5.22,2.42-10.95,3.29-16.75,2.69-15.64,2.64-34.25,2.14-40.39-.23-.72-.44-1.44-.66-2.14-.54,2.28-1.87,7.73-2.41,9.58-1.72,5.86-3.89,12.24-5.9,18.29-2,6.02-3.83,11.69-4.85,16.13-.01.05-.03.11-.04.16-.21.96-.41,1.87-.55,2.7-.31,1.91-1.61,17.8-9.44,35.77-.44,1-.85,1.94-1.25,2.86-.02.04-.03.08-.05.12-6.26,14.23-8.79,19.14-13.22,27.13-3.23,5.82-5.55,10.47-5.92,14.23-.01.12-.04.25-.05.37,0,.13-.01.27,0,.41.11,1.73,1.91,4.97,2.57,7.04,2.2,6.81-2.24,12.5,2.83,21.38.54.95-2.82,1.08-4.8-.8-2.51-2.37-3.25-8.83-3.33-7.64-.49,7.89-2.03,9.7-2.97,16.15-.69,4.71,1.24,7.3-.28,9.2-1.16,1.46-1.55,1.34-4.4-1.26-2.01-1.83-3.27-3.52-4.55-4.88-2.5-2.64-3.85-5.25-4.07-10.68-.17-4.12.5-7.23,2.2-13.21.75-2.64,1.58-4.11,2.67-11.49.34-2.28.35-3.6.35-4.57,0-.04,0-.12,0-.16,0-.47,0-.87.06-1.26.41-3.05,2.15-4.01,3.12-9.75,1.82-10.88,3.02-18.95,4.73-30.3,0-.05.02-.1.02-.14.34-2.25.7-4.62,1.09-7.18,1.41-9.38,6.14-21.18,11.12-34.16.02-.05.03-.1.05-.15.26-.69.53-1.38.8-2.08.51-1.34,1.58-11.47,2-16.8.51-6.66,5.35-67.7,8.66-76.9,2.47-6.87,4.86-9.62,7.16-10.53v-.02Z"/>
  </g>
</svg>