<?xml version="1.0" encoding="UTF-8"?>
<svg id="_레이어_2" data-name="레이어 2" xmlns="http://www.w3.org/2000/svg" viewBox="0 0 212.63 571.25">
  <defs>
    <style>
      .cls-1 {
        fill: #f3a9aa;
        stroke: #231815;
        stroke-miterlimit: 10;
      }
    </style>
  </defs>
  <g id="_레이어_1-2" data-name="레이어 1">
    <path class="cls-1" d="m44.54,106.83s1.86-.89,2.99-1.3c3.37-1.21,7.6-1.8,12.07-2.55.28-.05.59-.1.91-.15,3.93-.63,13.38-1.39,16.8-2.72,5.27-2.05,9.61-4.6,12.23-11,1.1-2.7,1.54-10.2,1.72-15.32-2.5-2.35-4.45-5.37-5.66-10.4-.22-.9-.47-1.97-.73-3.12-2.75.98-3.46-3.3-3.97-4.53-.56-1.36-1.3-1.49-2.05-4.49-.5-2,.37-3.32,0-4.6-.24-.87-.36-3.32.74-4.15.12-.09.26-.14.41-.18-1.63-6.26-2.67-16.49.73-24.32,1.46-3.39,3.28-6.12,5.19-8.28,4.5-5.57,11.95-9.21,20.38-9.21s15.87,3.64,20.38,9.21c1.91,2.16,3.72,4.89,5.19,8.28,3.4,7.83,2.36,18.06.73,24.32.16.04.3.09.41.18,1.1.84.98,3.28.74,4.15-.36,1.29.51,2.6,0,4.6-.75,3-1.48,3.13-2.05,4.49-.51,1.24-1.23,5.51-3.97,4.53-.26,1.14-.51,2.22-.73,3.12-1.22,5.02-3.16,8.05-5.66,10.4.18,5.12.62,12.62,1.72,15.32,2.62,6.39,6.97,8.95,12.23,11,3.41,1.34,12.87,2.09,16.8,2.72.32.05.62.1.9.15,4.47.75,8.7,1.34,12.07,2.55,1.14.41,2.99,1.3,2.99,1.3v.02c2.3.91,4.69,3.66,7.16,10.53,3.31,9.2,8.14,70.22,8.65,76.88.42,5.33,1.49,15.46,2,16.8.27.72.55,1.44.83,2.15.02.05.04.11.06.16,5,12.93,9.67,24.71,11.08,34.06.39,2.58.75,4.97,1.1,7.25,0,.05.01.11.02.16,1.7,11.3,2.91,19.36,4.72,30.21.97,5.74,2.7,6.7,3.12,9.75.06.41.06.84.06,1.35,0,.48,0,1.22.17,2.36.13,1.39.26,2.78.55,4.52.91,5.54,1.63,6.94,2.29,9.25,1.7,5.97,2.37,9.09,2.2,13.2-.22,5.43-1.57,8.04-4.07,10.68-1.28,1.36-2.55,3.05-4.56,4.87-2.85,2.59-3.24,2.71-4.4,1.26-1.52-1.9.42-4.49-.28-9.2-.95-6.45-2.48-8.26-2.97-16.15-.08-1.19-.82,5.27-3.33,7.64-1.99,1.88-5.35,1.75-4.8.8,5.07-8.88.62-14.57,2.83-21.38.7-2.19,2.68-5.69,2.58-7.34,0-.14-.04-.3-.06-.44,0-.04-.01-.09-.02-.13-.41-3.75-2.71-8.36-5.91-14.13-4.44-8-6.98-12.91-13.26-27.21-.2-.46-.44-1.02-.66-1.52-.39-.9-.79-1.81-1.18-2.74-7.32-17.38-8.56-32.53-8.86-34.39-.14-.86-.35-1.82-.57-2.82,0-.05-.02-.09-.03-.14-1.03-4.46-2.86-10.12-4.86-16.13-2-6.01-4.16-12.36-5.87-18.19-.54-1.85-1.87-7.3-2.41-9.58-.16.51-.31,1.03-.47,1.55-1.69,8.49-4.27,27.96-.91,42.6.82,4.69,2.27,9.5,3.78,14.17.61,1.88,1.14,3.91,1.64,6.05.9,3.84,1.84,8.3,2.59,12.53,1.55,3.42,2.81,6.2,3.26,7.23.5,1.15.88,2.06,1.08,2.57,3.5,8.98,8.45,20.83,8.63,40.18.03,4.27-.16,8.9-.65,13.95-1.22,12.5-10.27,39.21-13.64,51.97-7.51,28.35-11.76,45.36-12.31,55.35-.71,12.9.94,16.95,2.4,24.76,2.86,15.19.77,28.34-2.62,40.37-6.26,22.25-12.83,32.15-13.5,43.84-.17,2.91,1.89,4.14.75,7.82-.58,1.92-1.58,3.76-.07,8.03,5.11,14.46,11.75,18.26,10.97,23.54-.87,5.85-19.31,5.48-26.53,4.16-5.94-1.09-5.86-10.05-4.15-20.32.35-2.07.52-4.39.4-7.95-.07-1.75-.51-3.8-.75-6.27-.22-2.28.41-4.67.75-6.58.26-1.45.52-2.61.56-3.21,1.71-22.35,1.1-27.73-1.54-48.74-2.67-21.23,1.07-25.05.6-38.03-.28-7.69-2.47-15.56-3.05-23.89-.74-10.46.28-20.33,1.31-27.76,2.87-20.55,2.85-23.86,3.77-40.11,1-17.64-4.3-26.28-1.27-41.49-.7.26-2.42.38-4.12.37s-3.42-.11-4.12-.37c3.02,15.21-2.27,23.85-1.26,41.49.92,16.25.91,19.57,3.76,40.11,1.04,7.43,2.05,17.3,1.31,27.76-.58,8.33-2.77,16.2-3.05,23.89-.46,12.98,3.27,16.8.6,38.03-2.64,21.01-3.07,26.37-1.53,48.74.04.6.31,1.76.56,3.21.34,1.91.96,4.3.74,6.58-.24,2.48-.68,4.52-.74,6.27-.13,3.56.04,5.88.39,7.95,1.71,10.27,1.79,19.23-4.15,20.32-7.21,1.32-25.66,1.69-26.53-4.16-.78-5.28,5.86-9.08,10.97-23.54,1.51-4.27.51-6.11-.07-8.03-1.14-3.69.92-4.91.75-7.82-.66-11.69-7.23-21.58-13.5-43.84-3.39-12.04-5.47-25.18-2.62-40.37,1.47-7.81,3.11-11.86,2.4-24.76-.55-10-4.8-27.01-12.31-55.35-3.38-12.75-12.42-39.46-13.64-51.97-.49-5.05-.68-9.68-.64-13.95.18-20.28,5.56-32.35,9.12-41.47.1-.25,1.44-3.24,3.25-7.23.78-5.79,1.96-12.11,3.47-16.97,2.07-6.67,4.39-13.57,5.51-20.1,2.91-13.07,1.32-28.93-.38-36.83-.17-.52-.32-1.04-.49-1.56-.47-.34-1.04-.16-1.56-.01-.33,1.34-.72,2.93-1.05,4.17-.51,1.91-1.05,3.87-1.49,5.27-1.32,4.31-2.83,8.84-4.29,13.25-1.97,5.93-3.85,11.64-5.07,16.3-.34,1.29-.64,2.52-.87,3.64-.01.04-.02.08-.03.13-.14.73-.3,1.67-.46,2.79-.53,3.76-2.14,17.58-8.77,33.19-.37.88-.74,1.74-1.11,2.58-.41.95-.81,1.85-1.2,2.72-.02.04-.04.09-.05.13-5.54,12.55-8.09,17.56-12.02,24.69-.41.74-.82,1.48-1.22,2.22-2.61,4.77-4.52,8.73-5.11,12.03-.03.15-.06.3-.09.45-.08.49-.07,1.03,0,1.6,0,.05,0,.09.01.14.01.13.01.28.04.41.23,1.46,1.33,3.62,1.98,5.34.25.68.46,1.33.61,1.93,1.49,6.2-1.98,11.62,2.19,19.64.24.47.07.83-.21,1.1-.34.34-2.07.28-3.52-.68-.42-.28-.82-.64-1.16-1.08-1.71-2.16-2.41-6.09-2.65-6.48-.14-.23-.21-.26-.24.18-.52,7.04-1.91,9.06-2.83,14.84-.06.4-.12.8-.16,1.2-.42,3.97.98,6.37.02,8.14-.17.32-.36.6-.58.82-.92.93-1.48.69-3.7-1.31-.22-.2-.45-.41-.68-.63-1.67-1.57-2.82-3.04-3.94-4.26-.19-.2-.37-.4-.54-.6-2.28-2.49-3.54-5.05-3.79-10.06-.01-.21-.02-.42-.03-.63-.12-3.92.54-7,2.15-12.68.04-.13.08-.26.11-.4.74-2.53,1.55-4.1,2.61-11.3.34-2.28.35-3.6.35-4.56,0-.03,0-.13,0-.16,0-.48,0-.88.06-1.27.43-3.04,2.15-4.01,3.12-9.75,1.82-10.88,3.02-18.95,4.73-30.29,0-.05.02-.1.02-.15.34-2.25.7-4.62,1.09-7.18,1.41-9.38,6.14-21.17,11.12-34.15.02-.05.03-.1.05-.15.26-.69.53-1.38.8-2.08.51-1.34,1.58-11.47,2-16.8.51-6.66,5.35-67.68,8.65-76.88,2.47-6.87,4.86-9.62,7.16-10.53v-.02Z"/>
  </g>
</svg>