<?xml version="1.0" encoding="UTF-8"?>
<svg id="_레이어_2" data-name="레이어 2" xmlns="http://www.w3.org/2000/svg" viewBox="0 0 212.63 571.25">
  <defs>
    <style>
      .cls-1 {
        fill: #f3a9aa;
        stroke: #231815;
        stroke-miterlimit: 10;
      }
    </style>
  </defs>
  <g id="_레이어_1-2" data-name="레이어 1">
    <path class="cls-1" d="m212.11,325.46c-.22,5.43-1.57,8.04-4.07,10.67-1.28,1.36-2.55,3.05-4.56,4.87-2.85,2.59-3.24,2.72-4.4,1.26-1.52-1.9.42-4.49-.28-9.2-.95-6.45-2.48-8.26-2.97-16.15-.08-1.19-.82,5.27-3.33,7.64-1.99,1.88-5.35,1.75-4.8.8,5.07-8.88.62-14.57,2.83-21.38.7-2.19,2.67-5.69,2.58-7.33,0-.14-.04-.3-.06-.44,0-.05-.02-.1-.02-.15-.41-3.74-2.71-8.35-5.91-14.11-4.44-8-6.98-12.91-13.26-27.2-.02-.05-.04-.1-.06-.15-.38-.88-.79-1.79-1.21-2.75-7.82-17.95-9.13-33.84-9.44-35.75-.14-.87-.35-1.82-.57-2.82-.01-.05-.02-.1-.04-.15-2.07-8.91-7.31-22.65-10.72-34.29-.54-1.85-1.87-7.3-2.41-9.58-4,12.88-12.14,31.91-7.56,43.87,1.29,5.57,4.61,12.18,8.66,18.98,4.82,8.13,11.69,19.99,12.31,22.48.02.05.04.1.06.15,3.71,9.11,9.42,21.13,9.63,41.31v.15c.04,4.27-.16,8.9-.67,13.95-1.29,12.5-10.85,39.19-14.41,51.94-7.93,28.35-12.42,45.35-13,55.35-.75,12.9.99,16.94,2.54,24.75,3,15.19.81,28.33-2.77,40.36-6.62,22.25-13.56,32.14-14.26,43.83-.18,2.91,2,4.12.8,7.82-.62,1.92-1.68,3.75-.08,8.03,5.39,14.46,12.41,18.25,11.58,23.54-.92,5.85-20.39,5.48-28.01,4.16-6.27-1.09-6.19-10.05-4.39-20.31.37-2.08.55-4.39.41-7.95-.07-1.75-.54-3.79-.79-6.27-.23-2.28.43-4.68.79-6.58.27-1.45.54-2.61.59-3.22,1.69-22.35,1.17-27.71-1.62-48.72-2.83-21.23,1.13-25.04.63-38.02-.3-7.7-2.61-15.56-3.22-23.88-.78-10.45.29-20.32,1.38-27.75,3.02-20.55,3-23.86,3.98-40.1,1.06-17.63-4.53-26.27-1.34-41.48-.74.26-2.55.39-4.35.37-1.8,0-3.61-.11-4.35-.37,3.19,15.21-2.4,23.85-1.34,41.48.98,16.24.96,19.55,3.98,40.1,1.1,7.43,2.17,17.29,1.39,27.75-.62,8.33-2.93,16.19-3.23,23.88-.49,12.98,3.46,16.8.64,38.02-2.79,21.01-3.31,26.37-1.63,48.72.05.61.33,1.77.59,3.22.37,1.9,1.02,4.3.79,6.58-.25,2.48-.71,4.52-.79,6.27-.14,3.55.05,5.87.41,7.95,1.81,10.26,1.9,19.22-4.38,20.31-7.63,1.32-27.1,1.69-28.02-4.16-.83-5.28,6.2-9.08,11.59-23.54,1.59-4.27.54-6.11-.08-8.03-1.2-3.69.97-4.91.8-7.82-.71-11.68-7.65-21.58-14.26-43.83-3.58-12.03-5.78-25.17-2.77-40.36,1.55-7.82,3.29-11.85,2.53-24.75-.58-10-5.07-27-12.99-55.35-3.57-12.75-13.12-39.44-14.41-51.94-.52-5.05-.72-9.68-.68-13.95v-.15c.23-20.18,5.92-32.2,9.63-41.31.02-.05.04-.1.06-.15.63-2.49,7.5-14.35,12.32-22.48,4.03-6.8,7.35-13.41,8.65-18.98,4.57-11.95-3.57-30.98-7.57-43.87-.54,2.28-1.87,7.73-2.41,9.58-3.41,11.64-8.65,25.38-10.72,34.29-.02.05-.03.1-.04.15-.23,1-.43,1.95-.57,2.82-.31,1.91-1.61,17.79-9.44,35.75-.42.96-.82,1.87-1.21,2.75-.02.05-.04.1-.06.15-6.28,14.29-8.82,19.2-13.26,27.2-3.2,5.76-5.49,10.36-5.91,14.11,0,.05-.02.1-.02.15-.02.14-.05.3-.06.44-.09,1.64,1.88,5.14,2.58,7.33,2.2,6.81-2.24,12.5,2.83,21.38.54.95-2.82,1.08-4.8-.8-2.51-2.37-3.25-8.83-3.33-7.64-.49,7.89-2.03,9.7-2.97,16.15-.69,4.7,1.24,7.3-.28,9.2-1.16,1.46-1.55,1.33-4.4-1.26-2.01-1.83-3.27-3.51-4.55-4.87-2.5-2.64-3.85-5.24-4.07-10.67-.17-4.11.5-7.23,2.2-13.2.75-2.64,1.58-4.1,2.67-11.48.34-2.28.35-3.59.35-4.56v-.15c0-.48,0-.89.06-1.28.41-3.05,2.15-4,3.12-9.75,1.82-10.87,3.02-18.94,4.73-30.29,0-.05.02-.1.02-.15.35-2.25.7-4.61,1.09-7.17,1.41-9.38,6.14-21.17,11.12-34.14.02-.05.03-.1.05-.15.27-.69.53-1.38.8-2.08.5-1.34,1.58-11.46,2-16.8.51-6.66,5.35-67.66,8.65-76.86,2.47-6.87,4.86-9.62,7.16-10.52v-.02s1.86-.89,2.99-1.3c3.37-1.21,7.6-1.84,12.07-2.55.3-.05.61-.1.92-.15,3.62-.67,13.24-1.41,16.79-2.8,5.27-2.05,9.61-4.6,12.23-10.99,1.1-2.7,1.54-10.2,1.72-15.32-2.5-2.35-4.45-5.37-5.66-10.39-.22-.9-.47-1.97-.73-3.12-2.75.98-3.46-3.3-3.97-4.53-.56-1.36-1.3-1.49-2.04-4.49-.5-2,.36-3.31,0-4.6-.25-.87-.36-3.32.74-4.15.12-.09.26-.14.41-.18-1.63-6.26-2.67-16.49.73-24.31,1.46-3.38,3.28-6.11,5.19-8.28,4.5-5.56,11.95-9.21,20.38-9.21s15.88,3.64,20.37,9.21c1.91,2.17,3.72,4.89,5.19,8.28,3.4,7.83,2.36,18.05.73,24.31.16.04.3.09.41.18,1.1.84.99,3.28.74,4.15-.35,1.29.51,2.61.01,4.6-.74,3.01-1.48,3.14-2.05,4.49-.51,1.24-1.22,5.51-3.97,4.53-.26,1.15-.51,2.22-.73,3.12-1.22,5.02-3.16,8.05-5.66,10.39.18,5.12.62,12.62,1.72,15.32,2.62,6.39,6.97,8.95,12.23,10.99,3.55,1.39,13.17,2.13,16.79,2.8.31.05.62.1.92.15,4.48.71,8.7,1.34,12.07,2.55,1.14.41,2.99,1.3,2.99,1.3v.02c2.3.91,4.69,3.65,7.16,10.52,3.31,9.2,8.14,70.2,8.65,76.86.42,5.33,1.49,15.46,2,16.8.27.7.53,1.39.8,2.08.02.05.03.1.05.15,4.98,12.97,9.7,24.76,11.12,34.14.38,2.56.74,4.92,1.09,7.17,0,.05.01.1.02.15,1.71,11.34,2.91,19.41,4.73,30.29.97,5.74,2.71,6.7,3.12,9.75.06.39.06.8.06,1.28v.15c0,.97,0,2.29.35,4.56,1.09,7.38,1.92,8.85,2.67,11.48,1.7,5.97,2.37,9.09,2.2,13.2Z"/>
  </g>
</svg>