<?xml version="1.0" encoding="UTF-8"?>
<svg id="_레이어_2" data-name="레이어 2" xmlns="http://www.w3.org/2000/svg" viewBox="0 0 212.63 571.11">
  <defs>
    <style>
      .cls-1 {
        fill: #f3a9aa;
        stroke: #231815;
        stroke-miterlimit: 10;
      }
    </style>
  </defs>
  <g id="_레이어_1-2" data-name="레이어 1">
    <path class="cls-1" d="m212.11,325.3c-.22,5.43-1.57,8.03-4.07,10.67-1.28,1.36-2.55,3.04-4.55,4.87-2.85,2.58-3.24,2.71-4.4,1.26-1.52-1.9.41-4.49-.28-9.19-.95-6.45-2.48-8.25-2.97-16.14-.08-1.19-.82,5.27-3.33,7.64-1.99,1.88-5.35,1.75-4.8.8,5.07-8.87.62-14.56,2.83-21.37.7-2.19,2.67-5.69,2.58-7.33,0-.14-.04-.3-.06-.44,0-.05-.02-.1-.02-.15-.41-3.74-2.71-8.34-5.91-14.1-4.44-7.99-6.98-12.9-13.26-27.19-.02-.05-.04-.1-.06-.15-.39-.88-.79-1.79-1.21-2.74-7.83-17.94-9.13-33.82-9.44-35.73-.14-.87-.35-1.82-.57-2.81,0-.05-.02-.1-.04-.15-2.06-8.9-7.31-22.64-10.72-34.27-.54-1.85-1.87-7.3-2.41-9.57-4,12.87-12.14,31.9-7.56,43.84,1.29,5.57,6.04,13.35,10.91,19.57,6.12,7.81,10.6,16.35,12.99,21.87.05.1.09.2.13.3,3.9,9.07,9.88,21.06,10.14,41.14,0,.11.01.2.01.3.04,4.27-.17,8.89-.71,13.93-1.36,12.5-11.43,39.18-15.19,51.93-8.35,28.33-13.07,45.33-13.68,55.31-.8,12.9,1.04,16.94,2.67,24.75,3.17,15.18.86,28.3-2.91,40.34-6.97,22.24-14.27,32.13-15.01,43.79-.19,2.91,2.09,4.13.84,7.81-.65,1.93-1.77,3.76-.09,8.03,5.68,14.45,13.07,18.23,12.2,23.51-.97,5.85-21.48,5.49-29.5,4.17-6.61-1.09-6.52-10.04-4.61-20.3.39-2.08.58-4.39.43-7.94-.08-1.76-.57-3.8-.83-6.27-.24-2.28.45-4.68.83-6.59.29-1.44.57-2.59.62-3.2,1.78-22.34,1.22-27.7-1.71-48.69-2.96-21.23,1.2-25.03.67-38-.31-7.69-2.75-15.55-3.4-23.87-.82-10.45.32-20.32,1.46-27.75,3.18-20.53,3.17-23.84,4.2-40.07,1.12-17.62-4.77-26.27-1.42-41.47-.77.27-2.68.39-4.57.38-1.89,0-3.8-.11-4.57-.38,3.36,15.2-2.53,23.84-1.42,41.47,1.04,16.23,1.02,19.54,4.2,40.07,1.16,7.43,2.28,17.3,1.46,27.75-.65,8.32-3.08,16.18-3.4,23.87-.52,12.97,3.64,16.78.67,38-2.93,21-3.49,26.36-1.71,48.69.05.61.34,1.77.62,3.2.38,1.91,1.08,4.31.83,6.59-.26,2.47-.75,4.51-.83,6.27-.15,3.55.05,5.87.43,7.94,1.91,10.26,2,19.21-4.61,20.3-8.02,1.32-28.53,1.68-29.5-4.17-.87-5.28,6.52-9.06,12.2-23.51,1.68-4.27.57-6.11-.09-8.03-1.25-3.68,1.03-4.9.85-7.81-.74-11.67-8.05-21.56-15.02-43.79-3.76-12.04-6.09-25.16-2.91-40.34,1.63-7.81,3.47-11.85,2.67-24.75-.61-9.98-5.34-26.98-13.68-55.31-3.75-12.74-13.82-39.43-15.18-51.93-.55-5.04-.76-9.66-.72-13.93,0-.1,0-.19,0-.3.26-20.08,6.23-32.07,10.14-41.14.04-.1.08-.2.13-.3,2.4-5.52,6.88-14.05,13-21.87,4.86-6.22,9.6-14,10.9-19.57,4.57-11.95-3.57-30.97-7.57-43.84-.54,2.28-1.87,7.72-2.41,9.57-3.41,11.64-8.66,25.37-10.72,34.27-.02.05-.03.1-.04.15-.23,1-.43,1.95-.57,2.81-.31,1.91-1.61,17.78-9.44,35.73-.41.96-.82,1.87-1.21,2.74-.02.05-.04.1-.06.15-6.28,14.28-8.82,19.19-13.26,27.19-3.2,5.76-5.49,10.36-5.91,14.1,0,.05-.02.1-.02.15-.02.14-.05.3-.06.44-.09,1.64,1.88,5.14,2.58,7.33,2.2,6.81-2.24,12.5,2.83,21.37.54.95-2.82,1.08-4.8-.8-2.51-2.37-3.25-8.82-3.33-7.64-.49,7.88-2.03,9.69-2.97,16.14-.69,4.7,1.25,7.3-.28,9.19-1.16,1.46-1.55,1.33-4.4-1.26-2.01-1.83-3.27-3.51-4.55-4.87-2.5-2.63-3.85-5.24-4.07-10.67-.17-4.11.5-7.23,2.2-13.19.75-2.63,1.58-4.1,2.67-11.48.34-2.28.35-3.59.35-4.56v-.15c0-.48,0-.89.06-1.28.42-3.04,2.15-4,3.12-9.74,1.82-10.87,3.02-18.93,4.73-30.27,0-.05.02-.1.02-.15.35-2.25.7-4.61,1.09-7.17,1.41-9.37,6.14-21.16,11.12-34.12.02-.05.03-.1.05-.15.27-.69.53-1.38.8-2.08.5-1.34,1.58-11.46,2-16.79.51-6.66,5.34-67.63,8.65-76.82,2.47-6.87,4.86-9.61,7.16-10.52v-.02s1.86-.89,2.99-1.3c3.37-1.21,7.6-1.84,12.07-2.55.3-.05.61-.1.92-.15,3.62-.67,13.24-1.41,16.79-2.79,5.27-2.05,9.61-4.6,12.23-10.99,1.1-2.69,1.54-10.19,1.72-15.31-2.5-2.35-4.45-5.37-5.66-10.39-.22-.9-.47-1.97-.73-3.11-2.75.98-3.46-3.29-3.97-4.53-.56-1.36-1.3-1.49-2.05-4.49-.5-2,.36-3.31.01-4.6-.25-.87-.36-3.31.74-4.15.12-.09.26-.14.41-.18-1.63-6.26-2.67-16.48.73-24.3,1.46-3.38,3.28-6.11,5.19-8.27,4.51-5.56,11.95-9.2,20.38-9.2s15.88,3.64,20.37,9.2c1.91,2.17,3.73,4.89,5.19,8.27,3.4,7.82,2.36,18.04.73,24.3.16.04.3.09.41.18,1.1.84.99,3.28.74,4.15-.35,1.29.51,2.6.01,4.6-.74,3-1.48,3.13-2.05,4.49-.51,1.24-1.22,5.51-3.97,4.53-.26,1.15-.51,2.22-.73,3.11-1.22,5.02-3.16,8.04-5.66,10.39.18,5.12.62,12.62,1.72,15.31,2.62,6.39,6.97,8.94,12.23,10.99,3.55,1.39,13.17,2.13,16.79,2.79.31.05.62.1.92.15,4.48.71,8.7,1.34,12.07,2.55,1.14.41,2.99,1.3,2.99,1.3v.02c2.3.91,4.69,3.65,7.16,10.52,3.31,9.19,8.14,70.16,8.65,76.82.41,5.33,1.49,15.45,2,16.79.27.7.53,1.39.8,2.08.02.05.03.1.05.15,4.98,12.96,9.7,24.75,11.12,34.12.39,2.55.74,4.92,1.09,7.17,0,.05.01.1.02.15,1.71,11.34,2.91,19.4,4.73,30.27.97,5.74,2.71,6.7,3.12,9.74.06.39.06.8.06,1.28v.15c0,.97,0,2.29.35,4.56,1.09,7.38,1.92,8.84,2.67,11.48,1.7,5.97,2.37,9.08,2.2,13.19Z"/>
  </g>
</svg>