<?xml version="1.0" encoding="UTF-8"?>
<svg id="_레이어_2" data-name="레이어 2" xmlns="http://www.w3.org/2000/svg" viewBox="0 0 212.64 571.25">
  <defs>
    <style>
      .cls-1 {
        fill: #f3a9aa;
        stroke: #231815;
        stroke-miterlimit: 10;
      }
    </style>
  </defs>
  <g id="_레이어_1-2" data-name="레이어 1">
    <path class="cls-1" d="m44.54,106.84s1.86-.89,2.99-1.3c3.37-1.21,7.6-1.79,12.07-2.55.27-.05.58-.1.9-.15,4.09-.63,13.45-1.37,16.8-2.69,5.27-2.05,9.61-4.61,12.23-11,1.1-2.7,1.54-10.2,1.72-15.33-2.5-2.35-4.45-5.38-5.66-10.4-.22-.9-.47-1.98-.73-3.12-2.75.98-3.46-3.3-3.97-4.54-.56-1.37-1.3-1.5-2.04-4.5-.5-2.01.36-3.32,0-4.61-.24-.87-.36-3.32.74-4.16.12-.09.26-.14.41-.19-1.63-6.26-2.67-16.49.73-24.32,1.46-3.39,3.28-6.12,5.19-8.28,4.5-5.57,11.95-9.21,20.38-9.21s15.88,3.64,20.38,9.21c1.91,2.16,3.72,4.9,5.19,8.28,3.4,7.83,2.36,18.07.73,24.32.16.05.3.1.41.19,1.1.84.98,3.29.74,4.16-.36,1.29.51,2.6,0,4.61-.75,3-1.48,3.13-2.04,4.5-.51,1.24-1.23,5.52-3.97,4.54-.26,1.14-.51,2.22-.73,3.12-1.22,5.03-3.16,8.05-5.66,10.4.18,5.13.62,12.63,1.72,15.33,2.62,6.4,6.97,8.95,12.23,11,3.35,1.31,12.73,2.06,16.81,2.69.32.05.62.1.9.15,4.47.75,8.7,1.34,12.07,2.55,1.14.41,2.99,1.3,2.99,1.3v.02c2.3.91,4.69,3.66,7.16,10.53,3.31,9.2,8.14,70.25,8.66,76.91.41,5.34,1.49,15.47,2,16.81.28.74.56,1.46.84,2.19.02.06.04.11.06.17,4.96,12.93,9.66,24.68,11.07,34.04.39,2.6.76,5,1.1,7.29,0,.05.02.11.02.16,1.7,11.29,2.9,19.34,4.71,30.18.97,5.75,2.71,6.7,3.12,9.75.06.43.06.86.06,1.39,0,.73,0,1.75.26,3.46.2,1.61.39,3.03.66,4.51.82,4.62,1.49,5.98,2.1,8.13,1.7,5.98,2.37,9.09,2.2,13.21-.22,5.44-1.57,8.04-4.07,10.68-1.28,1.36-2.55,3.05-4.55,4.88-2.85,2.6-3.24,2.71-4.4,1.26-1.52-1.9.42-4.5-.28-9.2-.95-6.46-2.48-8.26-2.97-16.16-.08-1.19-.82,5.28-3.33,7.64-1.99,1.88-5.34,1.75-4.8.8,5.07-8.88.62-14.58,2.83-21.39.7-2.2,2.68-5.7,2.58-7.34,0-.14-.04-.3-.06-.44,0-.04-.01-.08-.01-.12-.4-3.75-2.71-8.37-5.91-14.15-4.44-8-6.98-12.92-13.26-27.22-.31-.71-.62-1.44-.96-2.21-.4-.91-.79-1.83-1.17-2.75-7.06-17.1-8.27-31.87-8.57-33.71-.14-.86-.35-1.82-.57-2.82,0-.04-.02-.09-.03-.13-1.03-4.44-2.85-10.09-4.84-16.07-2-6.04-4.17-12.41-5.89-18.26-.54-1.85-1.87-7.3-2.41-9.58-.16.51-.3,1.03-.46,1.55-.45,6.36-.48,26.85,2.71,43.08,0,.01,0,.02,0,.03.01.05.02.11.03.16.76,4.86,1.49,9.55,2.31,13.96.34,1.84.57,3.88.8,6.06,1.01,9.19.41,15.73.44,24.37,2.89,8.47,6.41,19.52,6.7,36.38,0,.02,0,.27,0,.3.02,1.36.02,2.77,0,4.21,0,.07,0,.21,0,.28-.05,2.91-.2,5.98-.46,9.23-.1,1.3-.26,2.71-.47,4.22-1.85,13.05-8.64,36-11.52,48.01-.27,1.13-.53,2.23-.78,3.29-6.18,26.35-9.73,42.54-10.32,52.31-.05.85-.09,1.66-.12,2.44-.4,11.21.91,15.31,2.12,22.45.11.65.22,1.31.32,1.97,2.16,14.44.39,27.03-2.47,38.59-.11.45-.22.89-.33,1.33-5.48,21.56-11.15,31.34-11.73,42.85-.15,2.91,1.67,4.13.67,7.82-.52,1.92-1.41,3.76-.07,8.03,4.53,14.47,10.43,18.27,9.74,23.55-.78,5.86-17.15,5.49-23.55,4.17-5.28-1.09-5.21-10.05-3.69-20.32.31-2.08.46-4.4.35-7.95-.06-1.75-.45-3.8-.66-6.28-.19-2.28.37-4.69.66-6.59.23-1.45.46-2.61.5-3.22,1.41-22.36.97-27.73-1.37-48.75-2.36-21.24.96-25.06.54-38.05-.25-7.7-2.19-15.57-2.72-23.9-.65-10.46.25-20.33,1.17-27.78,2.55-20.55,2.53-23.87,3.35-40.12.89-17.65-3.8-26.29-1.13-41.51-.62.26-2.14.38-3.66.37-1.51-.01-3.03-.11-3.66-.37,2.68,15.22-2.02,23.86-1.13,41.51.82,16.25.8,19.57,3.35,40.12.92,7.44,1.82,17.32,1.17,27.78-.52,8.33-2.47,16.2-2.72,23.9-.41,12.99,2.9,16.81.54,38.05-2.35,21.02-2.79,26.39-1.37,48.75.04.61.28,1.77.5,3.22.3,1.9.85,4.31.66,6.59-.21,2.48-.6,4.53-.66,6.28-.12,3.56.04,5.88.35,7.95,1.52,10.27,1.59,19.24-3.69,20.32-6.41,1.32-22.77,1.69-23.55-4.17-.69-5.29,5.21-9.08,9.74-23.55,1.34-4.28.45-6.12-.07-8.03-1-3.7.82-4.92.67-7.82-.59-11.69-6.42-21.59-11.98-43.86-3-12.04-4.85-25.19-2.32-40.39,1.3-7.82,2.77-11.86,2.12-24.77-.48-10-4.26-27.02-10.93-55.39-2.99-12.76-11.03-39.47-12.11-51.98-.42-4.94-.59-9.47-.57-13.66v-.3c.13-16.73,3.42-27.86,6.32-36.37.02-1.6.05-3.21.06-4.81.14-8.08-.23-13.59.85-21.93.2-1.58.39-3.07.65-4.46.91-4.9,1.72-10.12,2.55-15.49,0-.06.02-.12.03-.18,0-.01,0-.02,0-.04,3.08-15.86,3.14-35.29,2.67-41.53-.2-.64-.39-1.29-.58-1.91-.54,2.28-1.87,7.73-2.41,9.58-1.72,5.86-3.89,12.24-5.9,18.29-2,6.02-3.83,11.69-4.85,16.14-.01.05-.03.11-.04.16-.21.96-.41,1.87-.55,2.7-.31,1.91-1.61,17.81-9.44,35.77-.44,1-.85,1.94-1.25,2.86-.02.04-.03.08-.05.12-6.26,14.23-8.79,19.15-13.22,27.13-3.23,5.82-5.55,10.47-5.92,14.23-.01.12-.04.25-.05.37,0,.13-.01.27,0,.41.11,1.73,1.91,4.97,2.57,7.04,2.2,6.81-2.24,12.5,2.83,21.39.54.95-2.82,1.08-4.8-.8-2.51-2.37-3.25-8.83-3.33-7.64-.49,7.89-2.03,9.7-2.97,16.16-.69,4.71,1.24,7.3-.28,9.2-1.16,1.46-1.55,1.34-4.4-1.26-2.01-1.83-3.27-3.52-4.55-4.88-2.5-2.64-3.85-5.25-4.07-10.68-.17-4.12.5-7.23,2.2-13.21.75-2.64,1.58-4.11,2.67-11.49.34-2.28.35-3.6.35-4.57,0-.04,0-.12,0-.16,0-.47,0-.87.06-1.26.41-3.05,2.15-4.01,3.12-9.75,1.82-10.88,3.02-18.96,4.73-30.31,0-.05.02-.1.02-.14.34-2.25.7-4.63,1.09-7.18,1.41-9.38,6.14-21.18,11.12-34.16.02-.05.04-.1.05-.15.26-.69.53-1.38.8-2.08.51-1.34,1.58-11.47,2-16.81.51-6.66,5.35-67.71,8.65-76.91,2.47-6.87,4.86-9.62,7.16-10.53v-.02Z"/>
  </g>
</svg>