<?xml version="1.0" encoding="UTF-8"?>
<svg id="_레이어_2" data-name="레이어 2" xmlns="http://www.w3.org/2000/svg" viewBox="0 0 212.64 571.25">
  <defs>
    <style>
      .cls-1 {
        fill: #f3a9aa;
        stroke: #231815;
        stroke-miterlimit: 10;
      }
    </style>
  </defs>
  <g id="_레이어_1-2" data-name="레이어 1">
    <path class="cls-1" d="m209.91,312.35c-.75-2.64-1.58-4.11-2.67-11.49-.34-2.28-.35-3.6-.35-4.56v-.15c0-.48,0-.89-.06-1.28-.41-3.05-2.15-4.01-3.12-9.75-1.82-10.88-3.02-18.95-4.73-30.29,0-.05-.02-.1-.02-.15-.35-2.25-.7-4.61-1.09-7.17-1.41-9.38-6.14-21.17-11.12-34.15-.02-.05-.03-.1-.05-.15-.27-.69-.53-1.38-.8-2.08-.5-1.34-1.58-11.47-2-16.8-.51-6.66-5.35-67.68-8.65-76.88-2.47-6.87-4.86-9.62-7.16-10.53v-.02s-1.86-.89-2.99-1.3c-3.37-1.21-7.6-1.84-12.07-2.55-.3-.05-.61-.1-.92-.15-3.62-.67-13.24-1.41-16.79-2.8-5.27-2.05-9.61-4.6-12.23-11-1.1-2.7-1.54-10.2-1.72-15.32,2.5-2.35,4.45-5.37,5.66-10.4.22-.9.47-1.97.73-3.12,2.75.98,3.46-3.3,3.97-4.53.56-1.36,1.3-1.49,2.04-4.49.5-2-.36-3.32-.01-4.6.25-.87.36-3.32-.74-4.15-.12-.09-.26-.14-.41-.18,1.63-6.26,2.67-16.49-.73-24.32-1.46-3.39-3.28-6.11-5.19-8.28-4.5-5.56-11.95-9.21-20.38-9.21-8.43,0-15.88,3.65-20.38,9.21-1.91,2.17-3.73,4.89-5.19,8.28-3.4,7.83-2.36,18.06-.73,24.32-.16.04-.3.09-.41.18-1.1.84-.99,3.29-.74,4.15.35,1.29-.51,2.61-.01,4.6.74,3.01,1.48,3.14,2.04,4.49.51,1.24,1.23,5.51,3.97,4.53.26,1.15.51,2.22.73,3.12,1.22,5.02,3.16,8.05,5.66,10.4-.18,5.12-.62,12.63-1.72,15.32-2.62,6.39-6.97,8.95-12.23,11-3.55,1.39-13.17,2.13-16.79,2.8-.31.05-.62.1-.92.15-4.48.71-8.7,1.34-12.07,2.55-1.14.41-2.99,1.3-2.99,1.3v.02c-2.3.91-4.69,3.66-7.16,10.53-3.31,9.2-8.14,70.22-8.65,76.88-.41,5.33-1.49,15.46-2,16.8-.27.7-.53,1.39-.8,2.08-.02.05-.03.1-.05.15-4.98,12.97-9.7,24.77-11.12,34.15-.39,2.56-.74,4.92-1.09,7.17,0,.05,0,.1-.02.15-1.71,11.35-2.91,19.42-4.73,30.29-.97,5.74-2.71,6.7-3.12,9.75-.06.39-.06.8-.06,1.28v.15c0,.97,0,2.29-.35,4.56-1.09,7.38-1.92,8.85-2.67,11.49-1.7,5.97-2.37,9.09-2.2,13.2.22,5.43,1.57,8.04,4.07,10.68,1.28,1.36,2.55,3.05,4.55,4.87,2.85,2.59,3.24,2.72,4.4,1.26,1.52-1.9-.41-4.49.28-9.2.95-6.45,2.48-8.26,2.97-16.15.08-1.19.82,5.27,3.33,7.64,1.99,1.88,5.35,1.75,4.8.8-5.07-8.88-.62-14.57-2.83-21.38-.7-2.19-2.67-5.69-2.58-7.33,0-.14.04-.3.06-.44,0-.05.02-.1.02-.15.42-3.75,2.71-8.35,5.91-14.11,4.44-8,6.97-12.91,13.26-27.21.02-.05.04-.1.06-.15.39-.88.79-1.79,1.21-2.75,7.83-17.96,9.13-33.85,9.44-35.76.14-.87.35-1.82.57-2.82,0-.05.02-.1.04-.15,2.06-8.91,7.31-22.65,10.72-34.3.54-1.85,1.87-7.3,2.41-9.58,4,12.89,11.51,32.35,5.57,44.03h.03s-.03.1-.04.14c-1.36,5.56-2.32,10.9-5.23,19.06-4.58,12.87-4.7,13.04-7.84,22.26-3.33,9.11-8.39,21.14-8.56,41.32v.15c-.03,4.23.15,8.81.6,13.79,1.16,12.51,9.7,39.21,12.88,51.97,7.09,28.36,11.1,45.37,11.62,55.35.67,12.91-.88,16.95-2.26,24.77-2.7,15.19-.73,28.33,2.47,40.37,5.91,22.25,12.11,32.15,12.75,43.83.15,2.92-1.79,4.13-.72,7.82.56,1.93,1.5,3.77.07,8.04-4.82,14.46-11.09,18.25-10.34,23.53.82,5.85,18.22,5.49,25.04,4.18,5.6-1.09,5.53-10.05,3.91-20.32-.33-2.08-.49-4.39-.37-7.95.06-1.76.48-3.81.7-6.27.21-2.28-.39-4.68-.7-6.59-.24-1.44-.49-2.6-.53-3.21-1.5-22.35-1.04-27.72,1.45-48.73,2.52-21.24-1.01-25.05-.56-38.03.26-7.7,2.32-15.56,2.88-23.89.7-10.46-.26-20.34-1.24-27.77-2.71-20.55-2.69-23.86-3.57-40.1-.94-17.64,4.06-26.29,1.21-41.5.66.27,2.28.37,3.88.38,1.61.01,3.23-.11,3.89-.38-2.86,15.21,2.14,23.86,1.2,41.5-.87,16.24-.86,19.56-3.56,40.1-.98,7.43-1.94,17.31-1.25,27.77.55,8.33,2.62,16.19,2.89,23.89.44,12.98-3.08,16.79-.57,38.03,2.5,21.01,2.96,26.38,1.46,48.73-.05.61-.3,1.77-.53,3.21-.32,1.91-.91,4.31-.71,6.59.23,2.47.64,4.51.71,6.27.13,3.56-.04,5.87-.37,7.95-1.62,10.27-1.7,19.23,3.91,20.32,6.81,1.32,24.22,1.68,25.04-4.18.74-5.28-5.53-9.07-10.35-23.53-1.42-4.28-.48-6.11.08-8.04,1.06-3.69-.88-4.9-.72-7.82.63-11.68,6.83-21.57,12.75-43.83,3.2-12.05,5.16-25.18,2.47-40.37-1.38-7.82-2.93-11.86-2.26-24.77.51-9.99,4.53-27,11.62-55.35,3.18-12.75,11.73-39.46,12.88-51.97.45-4.98.63-9.57.6-13.79v-.15c-.17-20.18-5.23-32.21-8.56-41.32-3.14-9.22-3.27-9.39-7.85-22.26-2.9-8.16-3.87-13.49-5.24-19.06,0-.05-.02-.1-.04-.14h.04c-5.94-11.68,1.57-31.14,5.57-44.03.54,2.28,1.87,7.73,2.41,9.58,3.41,11.65,8.65,25.39,10.72,34.3.02.05.03.1.04.15.23,1,.44,1.95.57,2.82.31,1.91,1.61,17.8,9.44,35.76.41.96.82,1.87,1.21,2.75.02.05.04.1.06.15,6.28,14.29,8.82,19.21,13.26,27.21,3.2,5.76,5.49,10.37,5.91,14.11,0,.05.02.1.02.15.02.14.05.3.06.44.09,1.64-1.88,5.14-2.58,7.33-2.2,6.81,2.24,12.5-2.83,21.38-.54.95,2.82,1.08,4.8-.8,2.51-2.37,3.25-8.83,3.33-7.64.49,7.89,2.03,9.7,2.97,16.15.69,4.7-1.24,7.3.28,9.2,1.16,1.46,1.55,1.33,4.4-1.26,2.01-1.83,3.27-3.52,4.55-4.87,2.5-2.64,3.85-5.24,4.07-10.68.17-4.12-.5-7.23-2.2-13.2Z"/>
  </g>
</svg>