<?xml version="1.0" encoding="UTF-8"?>
<svg id="_레이어_2" data-name="레이어 2" xmlns="http://www.w3.org/2000/svg" viewBox="0 0 212.63 571.25">
  <defs>
    <style>
      .cls-1 {
        fill: #f3a9aa;
        stroke: #231815;
        stroke-miterlimit: 10;
      }
    </style>
  </defs>
  <g id="_레이어_1-2" data-name="레이어 1">
    <path class="cls-1" d="m44.54,106.81s1.86-.89,2.99-1.3c3.37-1.21,7.61-1.79,12.07-2.55.27-.05.58-.1.9-.15,4.09-.63,13.45-1.37,16.8-2.69,5.27-2.05,9.61-4.61,12.23-11,1.1-2.7,1.54-10.2,1.72-15.32-2.5-2.35-4.45-5.37-5.66-10.4-.22-.9-.47-1.98-.73-3.12-2.75.98-3.46-3.3-3.97-4.54-.56-1.37-1.3-1.5-2.04-4.5-.5-2.01.37-3.32,0-4.61-.24-.87-.36-3.32.74-4.16.12-.09.26-.14.41-.19-1.63-6.26-2.67-16.49.73-24.32,1.46-3.39,3.28-6.12,5.19-8.28,4.5-5.57,11.95-9.21,20.37-9.21,8.43,0,15.88,3.64,20.38,9.21,1.91,2.16,3.72,4.9,5.19,8.28,3.4,7.83,2.36,18.06.73,24.32.16.05.3.1.41.19,1.1.84.98,3.28.74,4.16-.36,1.29.51,2.6,0,4.61-.75,3-1.48,3.13-2.04,4.5-.51,1.24-1.23,5.51-3.97,4.54-.26,1.14-.51,2.22-.73,3.12-1.22,5.02-3.16,8.05-5.66,10.4.18,5.12.62,12.63,1.72,15.32,2.62,6.39,6.97,8.95,12.23,11,3.35,1.31,12.73,2.05,16.81,2.69.32.05.62.1.9.15,4.47.76,8.7,1.34,12.07,2.55,1.14.41,2.99,1.3,2.99,1.3v.02c2.3.91,4.69,3.66,7.16,10.53,3.31,9.2,8.14,70.23,8.66,76.89.41,5.33,1.49,15.47,2,16.8.28.74.56,1.46.84,2.19.02.06.04.11.06.17,4.96,12.93,9.66,24.68,11.07,34.03.39,2.59.76,5,1.1,7.29,0,.05.01.11.02.16,1.7,11.28,2.9,19.34,4.71,30.17.97,5.74,2.71,6.7,3.12,9.75.06.43.06.86.06,1.39,0,.73,0,1.75.26,3.46.2,1.6.39,3.02.65,4.49.82,4.62,1.49,5.98,2.1,8.14,1.7,5.97,2.37,9.09,2.2,13.21-.22,5.43-1.57,8.04-4.07,10.68-1.28,1.36-2.55,3.05-4.55,4.88-2.85,2.59-3.24,2.71-4.4,1.26-1.52-1.9.41-4.5-.28-9.2-.95-6.45-2.48-8.26-2.97-16.15-.08-1.19-.82,5.27-3.33,7.64-1.99,1.88-5.34,1.75-4.8.8,5.07-8.88.62-14.58,2.83-21.38.7-2.2,2.68-5.7,2.58-7.34,0-.14-.04-.3-.06-.44,0-.04-.01-.08-.01-.12-.4-3.75-2.71-8.37-5.91-14.15-4.44-8-6.98-12.92-13.26-27.21-.31-.71-.62-1.44-.96-2.21-.4-.91-.79-1.82-1.17-2.74-7.06-17.1-8.28-31.87-8.57-33.71-.14-.86-.35-1.82-.57-2.82,0-.04-.02-.09-.03-.13-1.03-4.44-2.85-10.09-4.84-16.08-2-6.03-4.17-12.4-5.89-18.24-.54-1.85-1.87-7.3-2.41-9.58-.16.51-.3,1.03-.46,1.55-.45,6.35-.49,26.73,2.69,42.92,0,.01,0,.02,0,.03,0,.05.02.1.03.16.77,4.96,1.52,9.67,2.42,14.15.32,1.59.55,3.33.82,5.18,1.06,7.05,1.12,12.65,1.2,19.13.2.59.41,1.23.65,1.92.21.61.44,1.23.68,1.88,3.28,8.95,7.88,20.76,8.04,39.93v.15c.03,4.23-.15,8.81-.6,13.8-1.16,12.51-9.7,39.22-12.88,51.98-7.09,28.36-11.1,45.37-11.62,55.36-.67,12.92.88,16.95,2.26,24.78,2.69,15.19.73,28.33-2.47,40.38-5.92,22.26-12.11,32.16-12.75,43.84-.16,2.92,1.79,4.14.72,7.82-.56,1.93-1.5,3.77-.08,8.04,4.82,14.47,11.1,18.25,10.35,23.54-.82,5.85-18.23,5.49-25.04,4.18-5.61-1.09-5.53-10.05-3.91-20.32.33-2.08.49-4.4.37-7.95-.07-1.76-.49-3.81-.71-6.27-.2-2.28.4-4.69.71-6.59.24-1.44.49-2.6.53-3.21,1.65-22.35,1.04-27.72-1.46-48.74-2.51-21.25,1.02-25.05.57-38.04-.27-7.7-2.33-15.56-2.89-23.9-.69-10.46.27-20.34,1.24-27.77,2.7-20.55,2.69-23.87,3.56-40.11.95-17.64-4.05-26.29-1.2-41.51-.66.27-2.28.39-3.89.38-1.6,0-3.22-.11-3.88-.38,2.86,15.21-2.14,23.87-1.21,41.51.88,16.24.86,19.56,3.57,40.11.98,7.43,1.94,17.31,1.24,27.77-.55,8.33-2.62,16.19-2.88,23.9-.44,12.99,3.08,16.79.56,38.04-2.49,21.02-2.95,26.38-1.45,48.74.04.61.3,1.77.53,3.21.32,1.91.91,4.32.7,6.59-.22,2.47-.64,4.52-.7,6.27-.13,3.56.04,5.87.37,7.95,1.62,10.27,1.69,19.23-3.91,20.32-6.82,1.32-24.22,1.68-25.04-4.18-.74-5.28,5.52-9.07,10.34-23.54,1.43-4.28.49-6.11-.07-8.04-1.07-3.69.87-4.91.72-7.82-.63-11.68-6.84-21.58-12.75-43.84-3.2-12.05-5.17-25.18-2.47-40.38,1.38-7.82,2.93-11.86,2.26-24.78-.52-9.99-4.52-27-11.62-55.36-3.18-12.76-11.73-39.47-12.88-51.98-.45-4.98-.63-9.57-.6-13.8v-.15c.17-20.18,5.32-32.18,8.56-41.33.24-.69.46-1.33.66-1.93.08-8.52-.06-15.65,1.77-23.53,1.42-6.12,2.32-12.55,3.32-19.19,0-.06.02-.12.03-.18,0-.01,0-.02,0-.03,2.82-14.91,3.05-32.03,2.57-37.96-.16-.51-.31-1.04-.47-1.55-.32.4-.76,1.33-1.2,2.29-.44,1.8-.95,3.81-1.28,5.03-.43,1.53-.88,3.06-1.29,4.4-1.41,4.57-3.03,9.37-4.56,13.99-1.99,5.99-3.85,11.68-4.95,16.23-.26,1.08-.5,2.11-.67,3.04,0,.04-.01.07-.02.12-.1.59-.24,1.54-.41,2.78-.64,4.73-2.48,18.12-8.92,33.04-.41.95-.8,1.85-1.19,2.74-.41.94-.81,1.85-1.19,2.71-.02.04-.03.08-.05.12-5.47,12.36-7.99,17.26-12.02,24.55-.41.75-.82,1.49-1.22,2.22-2.6,4.8-4.46,8.75-4.91,12.04-.02.14-.06.3-.07.44-.05.45,0,.99.13,1.58,0,.04.02.09.03.13.03.13.05.27.08.4.41,1.59,1.49,3.7,2.06,5.31.23.67.41,1.32.54,1.95,1.22,6.1-2.1,11.51,2.28,19.53.25.45-.12.76-.71.89-.68.15-2.3-.08-3.56-1.08-.39-.31-.75-.7-1.07-1.16-1.73-2.49-2.33-6.75-2.5-6.44-.08.14-.14.36-.17.81-.55,6.88-1.94,8.87-2.85,14.78-.06.41-.11.81-.14,1.2-.33,3.97,1.11,6.32-.06,8.07-.21.32-.42.58-.64.77-.84.74-1.49.36-3.71-1.65-.23-.21-.45-.42-.68-.63-1.65-1.58-2.78-3.04-3.91-4.25-.19-.2-.37-.4-.54-.59-2.22-2.47-3.43-5.05-3.66-10.08,0-.21-.02-.42-.02-.63-.1-3.87.58-6.96,2.19-12.63.04-.13.07-.26.11-.38.73-2.47,1.54-4.09,2.59-11.21.34-2.28.35-3.6.35-4.57,0-.04,0-.12,0-.16,0-.47,0-.87.06-1.26.41-3.05,2.15-4.01,3.12-9.75,1.82-10.88,3.02-18.95,4.73-30.3,0-.05.02-.1.02-.14.34-2.25.7-4.62,1.09-7.18,1.41-9.38,6.17-21.17,11.12-34.16.02-.05.03-.1.05-.15.26-.69.53-1.38.8-2.08.51-1.34,1.58-11.47,2-16.8.51-6.66,5.35-67.69,8.66-76.89,2.47-6.87,4.86-9.62,7.16-10.53v-.02Z"/>
  </g>
</svg>