<?xml version="1.0" encoding="UTF-8"?>
<svg id="_레이어_2" data-name="레이어 2" xmlns="http://www.w3.org/2000/svg" viewBox="0 0 212.64 571.25">
  <defs>
    <style>
      .cls-1 {
        fill: #f3a9aa;
        stroke: #231815;
        stroke-miterlimit: 10;
      }
    </style>
  </defs>
  <g id="_레이어_1-2" data-name="레이어 1">
    <path class="cls-1" d="m44.54,106.79s1.86-.89,2.99-1.3c3.37-1.21,7.6-1.81,12.07-2.55.29-.05.6-.1.91-.15,3.78-.63,13.31-1.4,16.79-2.76,5.27-2.05,9.61-4.6,12.23-10.99,1.1-2.69,1.54-10.19,1.72-15.31-2.5-2.35-4.45-5.37-5.66-10.39-.22-.9-.47-1.97-.73-3.11-2.75.98-3.46-3.29-3.97-4.53-.56-1.36-1.3-1.49-2.05-4.49-.5-2,.37-3.32.01-4.6-.24-.87-.36-3.31.74-4.15.12-.09.26-.14.41-.18-1.63-6.26-2.67-16.48.73-24.3,1.46-3.38,3.28-6.11,5.19-8.27,4.51-5.56,11.95-9.2,20.38-9.2s15.88,3.64,20.38,9.2c1.91,2.16,3.72,4.89,5.19,8.27,3.4,7.83,2.36,18.05.73,24.3.16.04.3.09.42.18,1.1.84.98,3.28.74,4.15-.36,1.28.51,2.6,0,4.6-.75,3-1.48,3.13-2.04,4.49-.51,1.24-1.23,5.51-3.97,4.53-.26,1.15-.51,2.22-.73,3.11-1.22,5.02-3.16,8.04-5.66,10.39.18,5.12.62,12.62,1.72,15.31,2.62,6.39,6.97,8.94,12.23,10.99,3.48,1.36,13.02,2.13,16.79,2.76.31.05.62.1.91.15,4.47.74,8.7,1.34,12.07,2.55,1.14.41,2.99,1.3,2.99,1.3v.02c2.3.91,4.69,3.65,7.16,10.52,3.31,9.19,8.14,70.17,8.66,76.82.41,5.33,1.49,15.45,2,16.79.27.71.54,1.41.81,2.11.02.05.03.1.05.16,5.02,12.93,9.69,24.72,11.1,34.08.39,2.57.75,4.95,1.09,7.2,0,.05.01.1.02.15,1.71,11.32,2.91,19.37,4.73,30.23.97,5.74,2.69,6.7,3.12,9.74.06.4.06.82.06,1.32,0,.24,0,.68.09,1.25.07,1.18.14,2.53.45,4.54,1,6.46,1.77,7.89,2.48,10.36,1.7,5.97,2.37,9.08,2.2,13.19-.22,5.43-1.57,8.03-4.07,10.67-1.28,1.36-2.55,3.04-4.55,4.87-2.85,2.59-3.24,2.71-4.4,1.26-1.52-1.9.41-4.49-.28-9.19-.95-6.45-2.48-8.25-2.97-16.14-.08-1.19-.82,5.27-3.33,7.64-1.99,1.88-5.35,1.75-4.8.8,5.07-8.87.62-14.56,2.83-21.37.7-2.19,2.68-5.69,2.58-7.33,0-.14-.04-.3-.06-.44,0-.05-.02-.09-.02-.14-.41-3.74-2.71-8.35-5.91-14.11-4.44-7.99-6.98-12.91-13.26-27.19-.12-.27-.23-.55-.36-.84-.39-.89-.79-1.8-1.19-2.74-7.57-17.66-8.84-33.16-9.15-35.05-.14-.87-.36-1.81-.57-2.81-.01-.05-.02-.1-.04-.14-1.03-4.46-2.87-10.13-4.87-16.15-1.99-5.99-4.15-12.33-5.85-18.13-.54-1.85-1.87-7.3-2.41-9.57-.16.51-.31,1.02-.48,1.54-2.87,10.68-7.36,29.72-2.5,42.58,0,0-.03,0-.03.01.02.05.03.1.04.15.95,4.46,2.45,8.82,4.68,13.55.75,1.6,1.52,3.31,2.4,5.11.75,1.53,1.42,2.94,2.01,4.26,4.23,6.57,5.85,9.34,9.11,15.98.35.71.72,1.47,1.13,2.31.05.1.08.19.13.28,3.8,9.12,9.98,21.04,10.11,41.09,0,.1,0,.19.01.29.02,4.27-.17,8.89-.71,13.94-1.36,12.5-11.43,39.19-15.19,51.93-8.35,28.33-13.07,45.32-13.68,55.31-.8,12.9,1.04,16.94,2.67,24.74,3.17,15.18.86,28.32-2.91,40.34-6.97,22.24-14.27,32.13-15.01,43.81-.19,2.9,2.09,4.13.84,7.82-.65,1.92-1.77,3.75-.09,8.02,5.68,14.45,13.07,18.25,12.2,23.52-.97,5.85-21.48,5.48-29.5,4.16-6.61-1.09-6.52-10.04-4.61-20.3.39-2.07.58-4.39.43-7.94-.08-1.75-.57-3.79-.83-6.27-.24-2.28.45-4.67.83-6.58.29-1.45.57-2.61.62-3.2,1.78-22.35,1.23-27.71-1.71-48.71-2.96-21.22,1.2-25.03.67-38.01-.31-7.69-2.75-15.55-3.4-23.87-.82-10.45.32-20.31,1.46-27.74,3.18-20.53,3.17-23.84,4.2-40.08,1.12-17.63-4.77-26.26-1.42-41.46-.77.26-2.68.37-4.57.37s-3.8-.11-4.57-.37c3.36,15.2-2.53,23.83-1.42,41.46,1.04,16.24,1.02,19.55,4.2,40.08,1.16,7.43,2.28,17.29,1.46,27.74-.65,8.32-3.08,16.19-3.4,23.87-.52,12.98,3.64,16.79.67,38.01-2.93,21-3.49,26.36-1.71,48.71.05.6.34,1.76.62,3.2.38,1.91,1.07,4.3.83,6.58-.26,2.47-.75,4.52-.83,6.27-.15,3.55.05,5.88.43,7.94,1.91,10.26,2,19.21-4.61,20.3-8.02,1.32-28.53,1.69-29.5-4.16-.87-5.28,6.52-9.07,12.2-23.52,1.68-4.27.57-6.11-.09-8.02-1.26-3.68,1.03-4.91.85-7.82-.74-11.68-8.05-21.57-15.02-43.81-3.76-12.03-6.09-25.16-2.91-40.34,1.63-7.81,3.47-11.85,2.67-24.74-.61-9.99-5.34-26.99-13.68-55.31-3.75-12.75-13.82-39.43-15.18-51.93-.55-5.05-.74-9.67-.72-13.94,0-.1,0-.19,0-.29.13-20.09,6.36-32.01,10.14-41.15.04-.1.08-.19.13-.29,3.67-7.49,5.18-10.35,8.86-16.11.9-2.39,1.99-4.96,3.5-7.79,3.64-6.8,5.86-12.66,7.11-18.61,0-.05.02-.11.04-.16,0,0-.03,0-.03-.01,4.26-11.46,1.33-27.29-1.46-37.44-.17-.52-.33-1.05-.49-1.56-.49-1.02-1.02-1.79-1.5-2.5-.31,1.28-.75,3.09-1.15,4.66-.48,1.86-.98,3.72-1.32,4.85-1.33,4.44-2.89,9.14-4.42,13.75-1.96,5.89-3.87,11.59-5.15,16.34-.36,1.33-.68,2.59-.94,3.75-.02.05-.02.09-.03.14-.17.86-.37,1.81-.52,2.8-.41,2.79-1.84,17.01-8.63,33.32-.34.81-.68,1.62-1.03,2.42-.41.95-.82,1.86-1.2,2.73-.02.05-.04.09-.06.14-5.61,12.72-8.2,17.86-12.03,24.81-.4.73-.81,1.47-1.23,2.23-2.62,4.75-4.58,8.7-5.31,12.02-.03.15-.07.3-.1.45-.1.53-.15,1.07-.14,1.61,0,.05,0,.1,0,.14,0,.14-.02.29-.01.43.07,1.34,1.16,3.53,1.91,5.38.27.68.51,1.34.67,1.92,1.77,6.31-1.86,11.72,2.11,19.73.24.48.27.93.29,1.31.03.56-1.84.64-3.49-.28-.45-.25-.88-.58-1.25-.99-1.67-1.84-2.46-5.44-2.8-6.52-.19-.6-.28-.88-.31-.45-.49,7.21-1.87,9.24-2.81,14.89-.06.39-.12.78-.17,1.19-.5,3.98.85,6.41.11,8.2-.13.32-.3.61-.53.87-.99,1.13-1.48,1.01-3.7-.97-.22-.2-.45-.4-.69-.63-1.7-1.57-2.86-3.03-3.97-4.26-.18-.2-.37-.4-.55-.6-2.34-2.51-3.64-5.04-3.91-10.04-.01-.21-.02-.42-.03-.63-.14-3.96.51-7.04,2.12-12.72.04-.14.08-.27.12-.41.74-2.58,1.57-4.1,2.64-11.39.34-2.28.35-3.59.35-4.56,0-.01,0-.14,0-.15,0-.48,0-.88.06-1.27.43-3.04,2.15-4,3.12-9.74,1.82-10.87,3.02-18.93,4.73-30.27,0-.05.02-.1.02-.15.34-2.25.7-4.61,1.09-7.17,1.41-9.37,6.06-21.19,11.12-34.12.02-.05.03-.1.05-.15.27-.69.53-1.38.8-2.08.51-1.34,1.58-11.46,2-16.79.51-6.66,5.34-67.63,8.65-76.82,2.47-6.87,4.86-9.61,7.16-10.52v-.02Z"/>
  </g>
</svg>