<?xml version="1.0" encoding="UTF-8"?>
<svg id="_레이어_2" data-name="레이어 2" xmlns="http://www.w3.org/2000/svg" viewBox="0 0 212.64 571.25">
  <defs>
    <style>
      .cls-1 {
        fill: #f3a9aa;
        stroke: #231815;
        stroke-miterlimit: 10;
      }
    </style>
  </defs>
  <g id="_레이어_1-2" data-name="레이어 1">
    <path class="cls-1" d="m44.54,106.87s1.86-.89,2.99-1.3c3.37-1.21,7.6-1.8,12.07-2.55.28-.05.59-.1.91-.15,3.93-.63,13.38-1.39,16.8-2.72,5.27-2.05,9.61-4.61,12.23-11,1.1-2.7,1.54-10.2,1.72-15.33-2.5-2.35-4.45-5.38-5.66-10.4-.22-.9-.47-1.97-.73-3.12-2.75.98-3.46-3.3-3.97-4.54-.56-1.36-1.3-1.5-2.05-4.5-.5-2,.37-3.32,0-4.61-.24-.87-.36-3.32.74-4.16.12-.09.26-.14.42-.18-1.63-6.26-2.67-16.49.73-24.33,1.46-3.39,3.28-6.12,5.19-8.28,4.51-5.57,11.95-9.21,20.38-9.21s15.88,3.64,20.38,9.21c1.91,2.16,3.72,4.9,5.19,8.28,3.4,7.83,2.36,18.07.73,24.33.16.05.3.09.42.18,1.1.84.98,3.29.74,4.16-.36,1.29.51,2.6,0,4.61-.75,3-1.48,3.13-2.04,4.5-.51,1.24-1.23,5.52-3.97,4.54-.26,1.14-.51,2.22-.73,3.12-1.22,5.03-3.16,8.05-5.66,10.4.18,5.13.62,12.63,1.72,15.33,2.62,6.39,6.97,8.95,12.23,11,3.41,1.34,12.87,2.09,16.8,2.72.32.05.62.1.9.15,4.47.75,8.7,1.34,12.07,2.55,1.14.41,2.99,1.3,2.99,1.3v.02c2.3.91,4.69,3.66,7.16,10.53,3.31,9.2,8.14,70.24,8.65,76.91.42,5.34,1.49,15.47,2,16.81.27.73.55,1.44.82,2.15.02.05.04.11.06.16,5,12.93,9.67,24.71,11.08,34.08.39,2.58.75,4.98,1.1,7.25,0,.05.01.11.02.16,1.7,11.31,2.91,19.37,4.72,30.22.97,5.75,2.7,6.71,3.12,9.75.06.41.06.84.06,1.35,0,.48,0,1.22.17,2.36.13,1.4.27,2.79.55,4.53.91,5.54,1.63,6.93,2.29,9.24,1.7,5.98,2.37,9.09,2.2,13.21-.22,5.44-1.57,8.04-4.07,10.68-1.28,1.36-2.55,3.05-4.55,4.88-2.85,2.59-3.24,2.71-4.4,1.26-1.52-1.9.41-4.5-.28-9.2-.95-6.45-2.48-8.26-2.97-16.16-.08-1.19-.82,5.28-3.33,7.64-1.99,1.88-5.35,1.75-4.8.8,5.07-8.88.62-14.58,2.83-21.39.7-2.19,2.68-5.7,2.58-7.34,0-.14-.04-.3-.06-.44,0-.04-.01-.09-.02-.13-.41-3.75-2.71-8.37-5.91-14.14-4.44-8-6.98-12.92-13.26-27.22-.21-.49-.43-.99-.66-1.52-.39-.9-.79-1.82-1.18-2.75-7.31-17.39-8.56-32.53-8.86-34.39-.14-.86-.35-1.82-.57-2.82-.01-.05-.02-.09-.03-.14-1.03-4.44-2.85-10.09-4.84-16.07-2-6.03-4.17-12.41-5.89-18.25-.54-1.85-1.87-7.3-2.41-9.58-.16.5-.3,1.03-.46,1.55-1.54,8.73-2.25,31.18,1.04,42.69,0,0,0,0,0,0,.83,4.16,1.41,9.45,2.19,14.56.38,2.43.64,5.09,1.03,7.78,1.41,9.73,1.06,12.44,1.79,19.4.15,1.27.3,2.56.46,3.87,2.94,8.57,6.36,19.81,6.5,36.86v.3c.02,4.19-.15,8.71-.57,13.66-1.09,12.5-9.12,39.22-12.11,51.98-6.67,28.37-10.44,45.38-10.94,55.37-.63,12.92.83,16.96,2.13,24.78,2.53,15.2.68,28.34-2.32,40.39-5.56,22.26-11.39,32.16-11.98,43.84-.15,2.92,1.67,4.14.67,7.83-.52,1.92-1.41,3.76-.07,8.03,4.53,14.47,10.43,18.26,9.74,23.54-.78,5.87-17.15,5.5-23.55,4.18-5.28-1.09-5.21-10.05-3.69-20.32.31-2.08.46-4.4.35-7.95-.06-1.76-.45-3.8-.66-6.27-.19-2.28.37-4.69.66-6.59.23-1.44.46-2.6.5-3.21,1.41-22.36.97-27.73-1.37-48.75-2.36-21.24.96-25.06.54-38.05-.25-7.7-2.19-15.57-2.72-23.9-.65-10.46.25-20.33,1.17-27.78,2.55-20.55,2.53-23.87,3.35-40.12.89-17.65-3.8-26.29-1.13-41.51-.62.26-2.14.38-3.66.37s-3.03-.11-3.66-.37c2.68,15.22-2.02,23.86-1.13,41.51.82,16.25.8,19.56,3.35,40.12.92,7.44,1.82,17.32,1.17,27.78-.52,8.33-2.47,16.2-2.72,23.9-.41,12.99,2.9,16.81.54,38.05-2.35,21.02-2.79,26.39-1.37,48.75.04.61.28,1.77.5,3.21.3,1.91.85,4.32.66,6.59-.21,2.48-.6,4.52-.66,6.27-.12,3.56.04,5.88.35,7.95,1.52,10.27,1.59,19.23-3.68,20.32-6.41,1.32-22.77,1.69-23.55-4.18-.69-5.29,5.21-9.07,9.74-23.54,1.34-4.28.45-6.11-.07-8.03-1-3.7.82-4.92.67-7.83-.59-11.68-6.42-21.58-11.98-43.84-3-12.05-4.85-25.19-2.32-40.39,1.3-7.82,2.77-11.86,2.12-24.78-.48-9.99-4.26-27.01-10.93-55.37-2.99-12.76-11.03-39.48-12.11-51.98-.42-4.95-.59-9.47-.57-13.66v-.3c.13-16.76,3.43-27.9,6.34-36.42.2-1.64.4-3.24.58-4.81.74-6.97.33-9.65,1.64-19.36.32-2.38.57-4.71.93-6.87.88-5.39,1.62-11,2.55-15.48,3.34-11.51,2.37-34.51.75-43-.13-.04-.26-.04-.41,0-.59,2.45-1.73,7.13-2.22,8.81-1.72,5.86-3.89,12.25-5.9,18.29-1.99,6-3.82,11.65-4.84,16.1-.02.05-.03.1-.04.16-.21.97-.42,1.9-.55,2.74-.31,1.91-1.61,17.81-9.44,35.77-.43.98-.84,1.92-1.23,2.82-.02.04-.04.09-.05.13-6.27,14.25-8.8,19.17-13.23,27.16-3.22,5.8-5.53,10.44-5.92,14.19,0,.09-.03.2-.04.29-.01.13-.03.28-.02.42.04,1.7,1.9,5.03,2.57,7.14,2.2,6.81-2.24,12.5,2.83,21.39.54.95-2.82,1.08-4.8-.8-2.51-2.37-3.25-8.83-3.33-7.64-.49,7.89-2.03,9.7-2.97,16.16-.69,4.71,1.24,7.3-.28,9.2-1.16,1.46-1.55,1.33-4.4-1.26-2.01-1.83-3.27-3.52-4.55-4.88-2.5-2.64-3.85-5.25-4.07-10.68-.17-4.12.5-7.23,2.2-13.21.75-2.64,1.58-4.11,2.67-11.49.34-2.28.35-3.6.35-4.57,0-.03,0-.13,0-.16,0-.48,0-.88.06-1.27.43-3.05,2.15-4.01,3.12-9.75,1.82-10.88,3.02-18.95,4.73-30.31,0-.05.02-.1.02-.15.34-2.25.7-4.62,1.09-7.18,1.41-9.38,6.14-21.18,11.12-34.16.02-.05.03-.1.05-.15.26-.69.53-1.38.8-2.08.51-1.34,1.58-11.47,2-16.81.51-6.66,5.35-67.7,8.65-76.91,2.47-6.87,4.86-9.62,7.16-10.53v-.02Z"/>
  </g>
</svg>