<?xml version="1.0" encoding="UTF-8"?>
<svg id="_레이어_2" data-name="레이어 2" xmlns="http://www.w3.org/2000/svg" viewBox="0 0 212.63 571.25">
  <defs>
    <style>
      .cls-1 {
        fill: #f3a9aa;
        stroke: #231815;
        stroke-miterlimit: 10;
      }
    </style>
  </defs>
  <g id="_레이어_1-2" data-name="레이어 1">
    <path class="cls-1" d="m212.11,325.47c-.22,5.43-1.57,8.04-4.07,10.67-1.28,1.36-2.55,3.05-4.55,4.87-2.85,2.59-3.24,2.72-4.4,1.26-1.52-1.9.41-4.49-.28-9.2-.95-6.45-2.48-8.26-2.97-16.15-.08-1.19-.82,5.27-3.33,7.64-1.99,1.88-5.35,1.75-4.8.8,5.07-8.88.62-14.57,2.83-21.38.7-2.19,2.67-5.69,2.58-7.33-.01-.14-.04-.3-.06-.44,0-.05-.02-.1-.02-.15-.41-3.74-2.71-8.35-5.91-14.11-4.44-8-6.98-12.91-13.26-27.2l-.06-.15c-.39-.88-.79-1.79-1.21-2.75-7.82-17.95-9.13-33.84-9.44-35.75-.14-.87-.35-1.82-.57-2.82,0-.05-.02-.1-.04-.15-2.06-8.91-7.31-22.65-10.72-34.29-.54-1.85-1.87-7.3-2.41-9.58-4,12.88-9.57,32.33-3.65,44.02.76,1.34,4.61,12.28,7.19,20.42,4.21,13.26,4.33,13.7,6.91,21.04,3.25,9.22,8.94,21.18,9.13,41.46.03,4.26-.16,8.9-.65,13.94-1.22,12.5-10.27,39.2-13.64,51.95-7.51,28.35-11.76,45.34-12.31,55.34-.71,12.9.94,16.95,2.4,24.75,2.85,15.2.77,28.33-2.62,40.36-6.26,22.26-12.83,32.14-13.5,43.83-.17,2.92,1.89,4.13.75,7.82-.58,1.92-1.58,3.75-.07,8.03,5.11,14.47,11.75,18.25,10.97,23.54-.87,5.85-19.31,5.48-26.53,4.16-5.94-1.08-5.86-10.05-4.15-20.3.35-2.08.52-4.4.4-7.95-.07-1.76-.51-3.8-.75-6.27-.22-2.28.41-4.68.75-6.59.26-1.44.51-2.6.56-3.21,1.59-22.36,1.1-27.71-1.54-48.73-2.67-21.23,1.07-25.03.6-38.02-.28-7.69-2.47-15.56-3.05-23.89-.74-10.45.28-20.32,1.31-27.75,2.87-20.54,2.85-23.86,3.77-40.1,1-17.62-4.3-26.27-1.27-41.48-.7.27-2.42.39-4.12.38-1.69,0-3.41-.11-4.11-.38,3.02,15.21-2.27,23.86-1.27,41.48.93,16.25.91,19.56,3.77,40.1,1.04,7.43,2.06,17.29,1.31,27.75-.58,8.33-2.78,16.2-3.05,23.89-.46,12.99,3.27,16.8.6,38.02-2.64,21.02-3.13,26.37-1.54,48.73.05.61.31,1.77.56,3.21.34,1.91.97,4.31.75,6.59-.24,2.47-.68,4.51-.75,6.27-.13,3.54.05,5.87.4,7.95,1.71,10.25,1.79,19.22-4.15,20.3-7.22,1.32-25.66,1.69-26.53-4.16-.78-5.28,5.86-9.07,10.97-23.54,1.51-4.27.51-6.11-.07-8.03-1.14-3.68.92-4.9.75-7.82-.66-11.68-7.23-21.57-13.5-43.83-3.39-12.03-5.47-25.16-2.62-40.36,1.46-7.81,3.11-11.85,2.4-24.75-.55-10-4.8-26.99-12.31-55.34-3.38-12.75-12.43-39.45-13.64-51.95-.49-5.04-.68-9.68-.65-13.94.19-20.28,5.88-32.24,9.13-41.46,2.58-7.34,2.7-7.78,6.91-21.04,2.58-8.14,6.43-19.08,7.19-20.42h0c5.94-11.68.37-31.13-3.64-44.02-.54,2.28-1.87,7.73-2.41,9.58-3.41,11.64-8.65,25.38-10.72,34.29-.02.05-.03.1-.04.15-.23,1-.43,1.95-.57,2.82-.31,1.91-1.61,17.79-9.44,35.75-.41.96-.82,1.87-1.21,2.75l-.06.15c-6.28,14.29-8.82,19.2-13.26,27.2-3.2,5.76-5.49,10.36-5.91,14.11,0,.05-.02.1-.02.15-.02.14-.05.3-.06.44-.09,1.64,1.88,5.14,2.58,7.33,2.2,6.81-2.24,12.5,2.83,21.38.54.95-2.82,1.08-4.8-.8-2.51-2.37-3.25-8.83-3.33-7.64-.49,7.89-2.03,9.7-2.97,16.15-.69,4.7,1.24,7.3-.28,9.2-1.16,1.46-1.55,1.33-4.4-1.26-2.01-1.83-3.27-3.51-4.56-4.87-2.5-2.64-3.85-5.24-4.07-10.67-.17-4.11.5-7.23,2.2-13.2.75-2.64,1.58-4.1,2.67-11.48.34-2.28.35-3.59.35-4.56v-.15c0-.48,0-.89.06-1.28.41-3.05,2.15-4,3.12-9.75,1.82-10.87,3.02-18.94,4.73-30.29.01-.05.02-.1.02-.15.35-2.25.7-4.61,1.09-7.17,1.41-9.38,6.14-21.17,11.12-34.14.02-.05.03-.1.05-.15.27-.69.53-1.38.8-2.08.5-1.34,1.58-11.46,2-16.8.51-6.66,5.35-67.66,8.66-76.86,2.47-6.87,4.86-9.62,7.16-10.52v-.02s1.86-.89,2.99-1.3c3.37-1.21,7.6-1.84,12.07-2.55.3-.05.61-.1.92-.15,3.62-.67,13.24-1.41,16.79-2.8,5.27-2.05,9.61-4.6,12.23-10.99,1.1-2.7,1.54-10.2,1.72-15.32-2.5-2.35-4.45-5.37-5.66-10.4-.22-.9-.47-1.97-.73-3.12-2.75.98-3.46-3.3-3.97-4.53-.56-1.36-1.3-1.49-2.05-4.49-.5-2,.36-3.32,0-4.6-.25-.87-.36-3.32.74-4.15.12-.09.26-.14.42-.18-1.63-6.26-2.67-16.49.73-24.31,1.46-3.38,3.28-6.11,5.19-8.28,4.51-5.56,11.95-9.21,20.37-9.21s15.88,3.64,20.38,9.21c1.91,2.17,3.72,4.89,5.19,8.28,3.4,7.83,2.36,18.05.73,24.31.16.04.3.09.41.18,1.1.84.99,3.29.74,4.15-.35,1.29.51,2.61,0,4.6-.74,3.01-1.48,3.14-2.04,4.49-.51,1.24-1.22,5.51-3.97,4.53-.26,1.15-.51,2.22-.73,3.12-1.21,5.02-3.16,8.05-5.66,10.4.18,5.12.62,12.62,1.72,15.32,2.62,6.39,6.97,8.95,12.23,10.99,3.55,1.39,13.17,2.13,16.79,2.8.31.05.62.1.92.15,4.48.71,8.7,1.34,12.07,2.55,1.14.41,2.99,1.3,2.99,1.3v.02c2.3.91,4.69,3.65,7.16,10.52,3.31,9.2,8.14,70.2,8.65,76.86.41,5.33,1.49,15.46,2,16.8.27.7.53,1.39.8,2.08.02.05.03.1.05.15,4.98,12.97,9.7,24.76,11.12,34.14.39,2.56.74,4.92,1.09,7.17,0,.05.01.1.02.15,1.71,11.34,2.91,19.41,4.73,30.29.97,5.74,2.71,6.7,3.12,9.75.06.39.06.8.06,1.28v.15c0,.97.01,2.29.35,4.56,1.09,7.38,1.92,8.85,2.67,11.48,1.7,5.97,2.37,9.09,2.2,13.2Z"/>
  </g>
</svg>