<?xml version="1.0" encoding="UTF-8"?>
<svg id="_레이어_2" data-name="레이어 2" xmlns="http://www.w3.org/2000/svg" viewBox="0 0 215.21 571.64">
  <defs>
    <style>
      .cls-1 {
        fill: #f2a7a9;
        stroke: #221714;
        stroke-miterlimit: 10;
      }
    </style>
  </defs>
  <g id="_레이어_1-2" data-name="레이어 1">
    <path class="cls-1" d="m90.41,89.69l-39.77,15.24c-.89.23-1.74.47-2.54.76-1.15.41-3.03,1.3-3.03,1.3v.02c-2.33.91-4.75,3.66-7.25,10.54-3.35,9.21-8.24,70.3-8.76,76.97-.42,5.34-1.51,15.48-2.02,16.82-.27.7-.54,1.39-.81,2.08-.02.05-.03.1-.05.15-5.08,12.98-9.82,24.8-11.25,34.19-.39,2.56-.75,4.93-1.1,7.18,0,.05-.01.1-.02.15-1.73,11.36-2.95,19.44-4.79,30.33-.98,5.75-2.72,6.71-3.16,9.76-.06.39-.06.8-.06,1.28,0,.01,0,.14,0,.15,0,.97-.01,2.29-.35,4.57-1.09,7.3-1.92,8.82-2.67,11.41-.04.14-.08.27-.12.41-1.63,5.7-2.29,8.78-2.14,12.75,0,.21.02.43.03.63.28,5.02,1.59,7.55,3.96,10.06.18.19.37.39.55.6,1.13,1.23,2.3,2.7,4.02,4.27.24.22.48.43.7.63,2.25,1.99,2.75,2.1,3.75.97.23-.26.4-.55.54-.87.74-1.8-.62-4.23-.11-8.22.05-.41.11-.8.18-1.19.95-5.66,2.34-7.7,2.84-14.92.03-.43.12-.15.31.45.35,1.08,1.14,4.69,2.84,6.53.38.41.81.74,1.27,1,1.67.93,3.57.85,3.53.28-.02-.38-.06-.83-.3-1.32-4.02-8.03-.34-13.45-2.14-19.77-.17-.59-.41-1.24-.68-1.93-.76-1.85-1.86-4.05-1.93-5.39,0-.14,0-.29.01-.43,0-.05,0-.1,0-.14,0-.55.04-1.09.15-1.62.03-.15.07-.3.1-.45.74-3.33,2.72-7.28,5.38-12.04.42-.76.83-1.5,1.24-2.23,3.88-6.97,6.49-12.11,12.17-24.86.02-.05.04-.09.06-.14.39-.88.8-1.78,1.22-2.74.35-.8.7-1.61,1.05-2.42,6.87-16.34,8.32-30.58,8.73-33.38.15-.99.35-1.94.52-2.81,0-.05.02-.09.03-.14.26-1.15.58-2.41.94-3.73,1.29-4.75,3.23-10.47,5.21-16.37,1.56-4.62,3.15-9.36,4.49-13.82.34-1.12.84-2.96,1.32-4.81.41-1.59.86-3.42,1.18-4.72.49.71,1.01,1.47,1.51,2.48.17.51.34,1.04.51,1.56,2.9,10.05,6.41,25.58,5.89,37.49,0,0,.06.02.06.03-1.13,5.91-3.47,12.08-6.43,19-5.02,11.74-6.13,19.61-5.94,21.85-.1.48-.22.96-.34,1.45-.01.05-.02.1-.03.14-.02.1-.05.21-.07.31-.33,1.45-.69,2.96-1.07,4.52-2.94,8.5-6.39,19.62-6.48,36.36,0,.1-.01.19-.01.29v.3c-.02,4.2.15,8.73.58,13.67,1.1,12.52,9.23,39.26,12.26,52.03,6.75,28.38,10.57,45.41,11.06,55.42.65,12.92-.83,16.97-2.15,24.79-2.56,15.21-.69,28.37,2.35,40.42,5.63,22.28,11.53,32.19,12.13,43.89.15,2.91-1.69,4.13-.68,7.83.53,1.92,1.43,3.76.07,8.04-4.59,14.48-10.56,18.28-9.86,23.57.79,5.86,17.35,5.49,23.84,4.17,5.34-1.09,5.27-10.06,3.73-20.34-.31-2.07-.47-4.4-.35-7.96.06-1.75.46-3.8.67-6.28.19-2.28-.37-4.69-.67-6.59-.23-1.45-.47-2.61-.51-3.21-1.43-22.39-.99-27.76,1.39-48.8,2.39-21.26-.97-25.08-.55-38.08.25-7.7,2.22-15.58,2.75-23.92.66-10.47-.25-20.35-1.18-27.79-2.58-20.57-2.56-23.89-3.39-40.16-.9-17.66,3.85-26.31,1.14-41.54.63.26,2.17.35,3.7.37,1.53.01,3.07-.11,3.7-.37-2.71,15.23,2.04,23.88,1.14,41.54-.83,16.27-.81,19.59-3.39,40.16-.93,7.44-1.84,17.32-1.18,27.79.53,8.34,2.5,16.22,2.75,23.92.42,13-2.94,16.82-.55,38.08,2.37,21.04,2.82,26.41,1.39,48.8-.04.6-.28,1.76-.51,3.21-.3,1.9-.86,4.31-.67,6.59.21,2.48.61,4.53.67,6.28.12,3.56-.04,5.89-.35,7.96-1.54,10.28-1.61,19.25,3.73,20.34,6.48,1.32,23.05,1.69,23.84-4.17.7-5.29-5.27-9.09-9.86-23.57-1.36-4.28-.46-6.12.07-8.04,1.01-3.7-.83-4.92-.68-7.83.6-11.63,6.44-21.5,12.04-43.52.12-.48.24-.97.36-1.46,2.84-11.61,4.52-24.26,2.16-38.79-.12-.75-.25-1.47-.37-2.17-1.21-6.7-2.41-11.03-1.9-22.5.04-.84.1-1.72.17-2.66.84-10.1,4.52-26.47,10.71-52.53.26-1.11.56-2.31.87-3.57,3.29-13.1,10.14-36.23,11.45-48.22.17-1.61.31-3.15.4-4.62.2-3.16.3-6.14.31-8.97,0-.02,0-.27,0-.29,0-.1,0-.19,0-.29,0-1.49-.03-2.93-.08-4.34,0-.07,0-.22-.01-.3,0-.1,0-.19-.01-.29-.68-16.82-4.64-27.59-7.51-35.91,0,0,0,0,0,0-.04-.1-.07-.2-.11-.29-.02-.04-.03-.08-.05-.13-.09-.65-.19-1.31-.28-1.96.04-.46-.31-2.3-1.04-5.46-.93-4.07-2.29-9.43-4.69-15.74-.72-1.88-1.36-3.68-2.03-5.36-1.93-4.83-3.52-9.31-4.37-13.7,0,0,.07-.02.06-.02-.59-13.36,4.04-31.93,6.95-42.58.17-.52.32-1.04.48-1.55.55,2.28,1.89,7.74,2.44,9.59,1.72,5.82,3.91,12.16,5.93,18.17,2.02,6.03,3.88,11.71,4.93,16.18.02.05.03.1.04.14.22,1,.44,1.95.58,2.82.31,1.89,1.6,17.42,9.26,35.11.41.95.81,1.86,1.21,2.75.13.29.25.57.37.84,6.36,14.31,8.93,19.23,13.42,27.24,3.24,5.77,5.57,10.39,5.98,14.14,0,.05.02.09.02.14.02.14.05.3.06.44.1,1.64-1.9,5.15-2.61,7.34-2.23,6.82,2.27,12.52-2.86,21.41-.55.95,2.85,1.08,4.86-.8,2.54-2.37,3.29-8.84,3.37-7.65.5,7.9,2.05,9.71,3.01,16.17.7,4.71-1.25,7.31.28,9.21,1.17,1.46,1.57,1.33,4.45-1.26,2.03-1.83,3.31-3.52,4.61-4.88,2.53-2.64,3.9-5.25,4.12-10.69.17-4.12-.51-7.24-2.23-13.22-.71-2.48-1.5-3.91-2.51-10.38-.32-2.01-.39-3.37-.45-4.55-.08-.57-.09-1.01-.09-1.26,0-.5,0-.91-.06-1.32-.44-3.05-2.18-4.01-3.16-9.76-1.84-10.88-3.06-18.95-4.78-30.29,0-.05-.02-.1-.02-.15-.35-2.26-.71-4.65-1.11-7.22-1.43-9.38-6.15-21.19-11.23-34.15-.02-.05-.03-.1-.05-.16-.28-.7-.55-1.4-.82-2.12-.51-1.34-1.6-11.48-2.02-16.82-.52-6.67-5.41-67.76-8.76-76.97-2.5-6.88-4.92-9.63-7.25-10.54v-.02s-1.88-.89-3.03-1.3c-.8-.28-1.65-.53-2.54-.76l-39.77-15.25c-.07-.16-.14-.31-.21-.47-1.11-2.7-1.56-10.21-1.74-15.34,2.53-2.35,4.5-5.38,5.73-10.41.22-.9.48-1.97.74-3.12,2.78.98,3.5-3.3,4.02-4.54.57-1.36,1.31-1.49,2.07-4.5.51-2-.37-3.32-.01-4.61.24-.87.36-3.32-.75-4.16-.12-.09-.26-.14-.42-.18,1.65-6.27,2.7-16.51-.74-24.35-1.48-3.39-3.32-6.12-5.25-8.29-4.56-5.57-12.1-9.22-20.63-9.22s-16.07,3.65-20.63,9.22c-1.93,2.17-3.77,4.9-5.25,8.29-3.44,7.84-2.39,18.08-.74,24.35-.16.04-.3.09-.42.18-1.11.84-.99,3.29-.75,4.16.36,1.29-.52,2.61-.01,4.61.76,3.01,1.5,3.14,2.07,4.5.52,1.24,1.24,5.52,4.02,4.54.26,1.15.52,2.22.74,3.12,1.23,5.03,3.2,8.06,5.73,10.41-.18,5.13-.63,12.64-1.74,15.34-.07.16-.14.31-.21.47Z"/>
  </g>
</svg>