<?xml version="1.0" encoding="UTF-8"?>
<svg id="_레이어_2" data-name="레이어 2" xmlns="http://www.w3.org/2000/svg" viewBox="0 0 215.21 571.94">
  <defs>
    <style>
      .cls-1 {
        fill: #f2a7a9;
        stroke: #221714;
        stroke-miterlimit: 10;
      }
    </style>
  </defs>
  <g id="_레이어_1-2" data-name="레이어 1">
    <path class="cls-1" d="m209.76,301.22c-.34-2.28-.35-3.6-.35-4.57v-.15c0-.48,0-.89-.06-1.28-.42-3.05-2.18-4.01-3.16-9.76-1.84-10.89-3.06-18.97-4.79-30.33,0-.05-.02-.1-.02-.15-.35-2.25-.71-4.62-1.1-7.18-1.43-9.39-6.21-21.2-11.25-34.19-.02-.05-.03-.1-.05-.15-.27-.69-.54-1.38-.81-2.08-.51-1.34-1.6-11.48-2.02-16.82-.52-6.67-5.41-67.76-8.76-76.97-2.5-6.88-4.92-9.63-7.25-10.54v-.02s-1.88-.89-3.03-1.3c-.35-.12-.71-.24-1.08-.35h.07l-41.37-15.86c-.04-.1-.09-.2-.13-.3-1.11-2.7-1.56-10.21-1.74-15.34,2.53-2.35,4.5-5.38,5.73-10.41.22-.9.48-1.97.74-3.12,2.78.98,3.5-3.3,4.02-4.54.57-1.36,1.32-1.49,2.07-4.5.51-2-.36-3.32-.01-4.61.25-.87.36-3.32-.75-4.16-.12-.09-.26-.14-.42-.18,1.65-6.27,2.7-16.51-.74-24.35-1.48-3.39-3.32-6.12-5.25-8.29-4.56-5.57-12.1-9.22-20.63-9.22s-16.07,3.65-20.63,9.22c-1.93,2.17-3.77,4.9-5.25,8.29-3.44,7.84-2.39,18.08-.74,24.35-.16.04-.3.09-.42.18-1.11.84-1,3.29-.75,4.16.35,1.29-.52,2.61,0,4.61.75,3.01,1.5,3.14,2.07,4.5.52,1.24,1.24,5.52,4.02,4.54.26,1.15.52,2.22.74,3.12,1.23,5.03,3.2,8.06,5.73,10.41-.18,5.13-.63,12.64-1.74,15.34-.04.11-.09.21-.14.31l-41.35,15.85h.05c-.37.11-.73.23-1.08.35-1.15.41-3.03,1.3-3.03,1.3v.02c-2.33.91-4.75,3.66-7.25,10.54-3.35,9.21-8.24,70.3-8.76,76.97-.42,5.34-1.51,15.48-2.02,16.82-.27.7-.54,1.39-.81,2.08-.02.05-.03.1-.05.15-5.04,12.99-9.82,24.8-11.25,34.19-.39,2.56-.75,4.93-1.1,7.18,0,.05,0,.1-.02.15-1.73,11.36-2.95,19.44-4.79,30.33-.98,5.75-2.74,6.71-3.16,9.76-.06.39-.06.8-.06,1.28v.15c0,.97-.01,2.29-.35,4.57-1.1,7.39-1.94,8.86-2.7,11.5-1.72,5.98-2.4,9.1-2.23,13.22.22,5.44,1.59,8.05,4.12,10.69,1.3,1.36,2.58,3.05,4.61,4.88,2.88,2.59,3.28,2.72,4.45,1.26,1.54-1.9-.42-4.5.28-9.21.96-6.46,2.51-8.27,3.01-16.17.08-1.19.83,5.28,3.37,7.65,2.01,1.88,5.41,1.75,4.86.8-5.13-8.89-.63-14.59-2.86-21.41-.71-2.19-2.7-5.7-2.61-7.34.01-.14.04-.3.06-.44,0-.05.02-.1.02-.15.42-3.75,2.74-8.36,5.98-14.13,4.49-8.01,7.06-12.93,13.42-27.24.02-.05.04-.1.06-.15.39-.88.8-1.79,1.22-2.75,7.92-17.98,9.24-33.89,9.55-35.8.14-.87.35-1.82.58-2.82.01-.05.02-.1.04-.15,2.09-8.92,7.4-22.68,10.85-34.34.55-1.85,1.89-7.31,2.44-9.59,4.05,12.9,12.89,31.7,9.64,43.93-1.25,5.53-4.31,11.47-8.17,18.92-4.59,8.84-5.77,9.61-12.05,22.6-3.57,9.14-9.05,21.21-9.23,41.52-.04,4.28.15,8.91.65,13.96,1.24,12.52,10.39,39.26,13.81,52.03,7.6,28.39,11.9,45.41,12.46,55.42.72,12.93-.94,16.97-2.43,24.8-2.89,15.21-.78,28.36,2.65,40.42,6.34,22.28,12.99,32.19,13.66,43.88.17,2.92-1.91,4.14-.76,7.83.59,1.93,1.6,3.76.07,8.05-5.17,14.48-11.89,18.27-11.1,23.56.88,5.86,19.55,5.5,26.85,4.18,6.01-1.09,5.93-10.07,4.2-20.34-.35-2.08-.53-4.4-.39-7.96.06-1.76.51-3.81.75-6.28.22-2.28-.41-4.69-.75-6.6-.26-1.44-.53-2.6-.57-3.21-1.62-22.38-1.12-27.75,1.55-48.79,2.7-21.27-1.08-25.08-.61-38.08.29-7.71,2.5-15.58,3.09-23.93.75-10.46-.28-20.35-1.33-27.79-2.89-20.57-2.88-23.89-3.81-40.15-1.02-17.66,4.34-26.32,1.28-41.55.71.27,2.45.37,4.17.38,1.72.01,3.46-.11,4.17-.38-3.06,15.23,2.3,23.89,1.29,41.55-.94,16.26-.92,19.58-3.82,40.15-1.05,7.44-2.08,17.33-1.33,27.79.59,8.35,2.81,16.22,3.09,23.93.47,13-3.31,16.81-.61,38.08,2.67,21.04,3.17,26.41,1.56,48.79-.05.61-.31,1.77-.57,3.21-.34,1.91-.98,4.32-.76,6.6.24,2.47.69,4.52.76,6.28.13,3.56-.05,5.88-.4,7.96-1.73,10.27-1.81,19.25,4.2,20.34,7.31,1.32,25.97,1.68,26.85-4.18.79-5.29-5.93-9.08-11.1-23.56-1.53-4.29-.52-6.12.07-8.05,1.15-3.69-.93-4.91-.76-7.83.67-11.69,7.32-21.6,13.66-43.88,3.43-12.06,5.54-25.21,2.65-40.42-1.48-7.83-3.15-11.87-2.43-24.8.56-10.01,4.86-27.03,12.46-55.42,3.42-12.77,12.58-39.51,13.81-52.03.5-5.05.69-9.68.66-13.96-.19-20.31-5.67-32.38-9.24-41.52-6.27-12.99-7.46-13.76-12.04-22.6-3.87-7.45-6.92-13.39-8.17-18.92-3.26-12.23,5.58-31.03,9.63-43.93.55,2.28,1.89,7.74,2.44,9.59,3.45,11.66,8.76,25.42,10.85,34.34.02.05.03.1.04.15.23,1,.44,1.95.58,2.82.31,1.91,1.63,17.82,9.55,35.8.42.96.83,1.87,1.22,2.75.02.05.04.1.06.15,6.36,14.31,8.93,19.23,13.42,27.24,3.24,5.77,5.56,10.38,5.98,14.13,0,.05.02.1.02.15.02.14.05.3.06.44.09,1.64-1.9,5.15-2.61,7.34-2.23,6.82,2.27,12.52-2.86,21.41-.55.95,2.85,1.08,4.86-.8,2.54-2.37,3.29-8.84,3.37-7.65.5,7.9,2.05,9.71,3.01,16.17.7,4.71-1.26,7.31.28,9.21,1.17,1.46,1.57,1.33,4.45-1.26,2.03-1.83,3.31-3.52,4.61-4.88,2.53-2.64,3.9-5.25,4.12-10.69.17-4.12-.51-7.24-2.23-13.22-.76-2.64-1.6-4.11-2.7-11.5Z"/>
  </g>
</svg>