<?xml version="1.0" encoding="UTF-8"?>
<svg id="_레이어_2" data-name="레이어 2" xmlns="http://www.w3.org/2000/svg" viewBox="0 0 215.21 571.79">
  <defs>
    <style>
      .cls-1 {
        fill: #f2a7a9;
        stroke: #221714;
        stroke-miterlimit: 10;
      }
    </style>
  </defs>
  <g id="_레이어_1-2" data-name="레이어 1">
    <path class="cls-1" d="m210.14,303.38c-.29-1.74-.42-3.13-.56-4.52-.17-1.14-.17-1.87-.17-2.36,0-.52,0-.94-.06-1.36-.43-3.05-2.18-4.01-3.16-9.76-1.84-10.86-3.05-18.93-4.78-30.25,0-.05-.02-.11-.02-.16-.35-2.28-.72-4.67-1.11-7.26-1.43-9.37-6.16-21.16-11.22-34.1-.02-.05-.04-.11-.06-.16-.28-.71-.56-1.43-.83-2.16-.51-1.34-1.6-11.48-2.02-16.82-.52-6.67-5.41-67.76-8.76-76.97-2.5-6.88-4.92-9.63-7.25-10.54v-.02s-1.88-.89-3.03-1.3c-.58-.2-1.19-.39-1.81-.56l-40.56-15.55c-.05-.11-.1-.21-.15-.33-1.11-2.7-1.56-10.21-1.74-15.34,2.53-2.35,4.5-5.38,5.73-10.41.22-.9.48-1.97.74-3.12,2.78.98,3.5-3.3,4.02-4.54.57-1.36,1.31-1.5,2.07-4.5.51-2.01-.37-3.32-.01-4.61.24-.87.36-3.32-.75-4.16-.12-.09-.26-.14-.42-.19,1.65-6.27,2.7-16.51-.74-24.34-1.48-3.39-3.32-6.12-5.25-8.29-4.56-5.58-12.1-9.22-20.63-9.22s-16.07,3.64-20.63,9.22c-1.93,2.16-3.77,4.9-5.25,8.29-3.44,7.84-2.39,18.08-.74,24.34-.16.05-.3.1-.42.19-1.11.84-.99,3.29-.75,4.16.36,1.29-.52,2.6-.01,4.61.76,3,1.5,3.14,2.07,4.5.52,1.24,1.24,5.52,4.02,4.54.26,1.15.52,2.22.74,3.12,1.23,5.03,3.2,8.06,5.73,10.41-.18,5.13-.63,12.64-1.74,15.34-.05.12-.1.22-.15.34l-40.48,15.52c-.65.18-1.29.37-1.89.58-1.15.41-3.03,1.3-3.03,1.3v.02c-2.33.91-4.75,3.66-7.25,10.54-3.35,9.21-8.24,70.3-8.76,76.97-.42,5.34-1.51,15.48-2.02,16.82-.27.7-.54,1.39-.81,2.08-.02.05-.03.1-.05.15-5.04,12.99-9.82,24.8-11.25,34.19-.39,2.56-.75,4.93-1.1,7.18,0,.05-.01.1-.02.15-1.73,11.36-2.95,19.44-4.79,30.33-.98,5.75-2.73,6.71-3.16,9.76-.06.39-.06.79-.06,1.27v.16c0,.97-.01,2.29-.35,4.57-1.1,7.39-1.94,8.86-2.7,11.5-1.72,5.98-2.4,9.1-2.23,13.22.22,5.44,1.59,8.05,4.12,10.69,1.3,1.36,2.58,3.05,4.61,4.88,2.88,2.6,3.28,2.72,4.45,1.26,1.53-1.9-.42-4.5.28-9.21.96-6.46,2.51-8.27,3.01-16.17.08-1.19.83,5.28,3.37,7.65,2.01,1.88,5.41,1.75,4.86.8-5.13-8.89-.63-14.59-2.86-21.4-.68-2.11-2.56-5.44-2.6-7.15,0-.14.01-.29.02-.42,0-.1.03-.2.04-.29.4-3.76,2.73-8.4,5.99-14.21,4.48-8,7.05-12.92,13.39-27.18.02-.04.04-.09.06-.13.4-.91.81-1.84,1.25-2.83,7.92-17.98,9.24-33.89,9.55-35.8.14-.84.34-1.77.56-2.74.01-.05.02-.1.04-.16,1.03-4.45,2.88-10.1,4.9-16.11,2.03-6.05,4.23-12.44,5.97-18.31.55-1.85,1.89-7.31,2.44-9.59.28.88.56,1.8.87,2.73,1.76,8.3,3.89,26.25.68,40.29-.95,5.43-2.61,10.98-4.23,16.58-.35,1.21-.63,2.5-.95,3.83-1.99,8.25-3.1,15.1-3.3,20.19-.39,1.13-.6,1.75-.66,1.9-3.48,9.08-8.49,21.18-8.66,41.38v.14c-.03,4.24.15,8.82.61,13.82,1.17,12.52,9.82,39.26,13.04,52.03,7.18,28.38,11.23,45.41,11.76,55.42.68,12.92-.89,16.97-2.29,24.79-2.73,15.22-.74,28.37,2.5,40.42,5.98,22.28,12.26,32.19,12.9,43.89.15,2.92-1.81,4.14-.73,7.83.57,1.92,1.52,3.76.07,8.04-4.88,14.49-11.22,18.28-10.47,23.57.83,5.86,18.44,5.49,25.34,4.17,5.67-1.08,5.6-10.06,3.96-20.34-.33-2.07-.5-4.4-.37-7.95.06-1.76.49-3.81.71-6.28.21-2.28-.39-4.69-.71-6.6-.24-1.45-.5-2.61-.54-3.21-1.52-22.39-1.05-27.75,1.47-48.8,2.55-21.26-1.02-25.08-.57-38.08.26-7.7,2.35-15.58,2.91-23.92.71-10.47-.26-20.35-1.25-27.79-2.74-20.57-2.72-23.89-3.61-40.16-.95-17.65,4.11-26.31,1.22-41.54.67.26,2.31.37,3.93.38,1.63.02,3.27-.12,3.94-.38-2.89,15.23,2.17,23.89,1.21,41.54-.88,16.27-.87,19.59-3.6,40.16-.99,7.44-1.96,17.32-1.26,27.79.56,8.34,2.65,16.22,2.92,23.92.45,13-3.12,16.82-.58,38.08,2.53,21.05,3.17,26.42,1.48,48.8-.05.6-.3,1.76-.54,3.21-.32,1.91-.93,4.32-.72,6.6.22,2.47.65,4.52.72,6.28.13,3.55-.04,5.88-.37,7.95-1.64,10.28-1.72,19.26,3.96,20.34,6.89,1.32,24.51,1.69,25.34-4.17.75-5.29-5.6-9.08-10.48-23.57-1.44-4.28-.48-6.12.08-8.04,1.08-3.69-.89-4.91-.73-7.83.64-11.7,6.91-21.61,12.9-43.89,3.24-12.05,5.22-25.2,2.5-40.42-1.4-7.82-2.97-11.87-2.29-24.79.52-10.01,4.58-27.04,11.76-55.42,3.22-12.77,11.87-39.51,13.04-52.03.46-5,.64-9.58.61-13.82v-.14c-.16-19.44-4.89-31.34-8.27-40.32-.17-.44-.42-1.15-.77-2.14-.12-.34-.34-.97-.67-1.9-.34-4.89-1.32-10.95-2.85-17.9-.48-2.2-.93-4.28-1.49-6.18-1.4-4.78-2.78-9.54-3.62-14.25-3.4-14.66-.79-34.15.92-42.66.17-.52.32-1.04.48-1.55.55,2.28,1.89,7.74,2.44,9.59,1.73,5.83,3.92,12.19,5.94,18.21,2.02,6.01,3.87,11.68,4.92,16.14.01.05.02.09.03.14.22,1,.44,1.95.58,2.82.3,1.86,1.56,17.02,8.97,34.43.4.93.79,1.85,1.19,2.75.23.53.45,1.03.67,1.52,6.36,14.31,8.93,19.23,13.42,27.24,3.24,5.78,5.57,10.4,5.98,14.15,0,.04.01.09.02.13.02.14.05.3.06.44.1,1.64-1.9,5.15-2.61,7.35-2.23,6.82,2.27,12.52-2.86,21.4-.55.95,2.85,1.08,4.86-.8,2.54-2.37,3.29-8.84,3.37-7.65.5,7.9,2.05,9.71,3.01,16.17.7,4.71-1.25,7.31.28,9.21,1.17,1.46,1.57,1.33,4.45-1.26,2.03-1.83,3.31-3.52,4.61-4.88,2.53-2.64,3.9-5.25,4.12-10.69.17-4.12-.51-7.24-2.23-13.22-.67-2.32-1.4-3.71-2.32-9.26Z"/>
  </g>
</svg>