<?xml version="1.0" encoding="UTF-8"?>
<svg id="_레이어_2" data-name="레이어 2" xmlns="http://www.w3.org/2000/svg" viewBox="0 0 215.21 571.68">
  <defs>
    <style>
      .cls-1 {
        fill: #f2a7a9;
        stroke: #221714;
        stroke-miterlimit: 10;
      }
    </style>
  </defs>
  <g id="_레이어_1-2" data-name="레이어 1">
    <path class="cls-1" d="m210.33,304.48c-.27-1.48-.46-2.9-.66-4.51-.25-1.71-.26-2.74-.26-3.47,0-.53,0-.96-.06-1.39-.42-3.05-2.18-4.01-3.16-9.76-1.83-10.85-3.05-18.91-4.77-30.2,0-.05-.02-.11-.02-.16-.35-2.29-.72-4.69-1.12-7.29-1.43-9.36-6.18-21.12-11.2-34.06-.02-.06-.04-.11-.06-.17-.28-.73-.56-1.45-.85-2.19-.51-1.34-1.6-11.48-2.02-16.82-.52-6.67-5.41-67.76-8.76-76.97-2.5-6.88-4.92-9.63-7.25-10.54v-.02s-1.88-.89-3.03-1.3c-.35-.12-.71-.24-1.08-.35h.08l-41.45-15.89c-.02-.06-.05-.11-.07-.16-1.11-2.7-1.56-10.21-1.74-15.34,2.53-2.35,4.5-5.38,5.73-10.41.22-.9.48-1.98.74-3.12,2.78.98,3.5-3.3,4.02-4.54.57-1.37,1.31-1.5,2.07-4.5.51-2.01-.37-3.32,0-4.61.24-.87.36-3.32-.75-4.16-.12-.09-.26-.14-.42-.19,1.65-6.26,2.7-16.5-.74-24.34-1.48-3.39-3.32-6.13-5.25-8.29-4.56-5.58-12.1-9.22-20.63-9.22s-16.07,3.64-20.63,9.22c-1.93,2.16-3.77,4.9-5.25,8.29-3.44,7.84-2.39,18.08-.74,24.34-.16.05-.3.1-.42.19-1.11.84-.99,3.29-.75,4.16.36,1.29-.52,2.6,0,4.61.76,3,1.5,3.13,2.07,4.5.52,1.24,1.24,5.52,4.02,4.54.26,1.14.52,2.22.74,3.12,1.23,5.03,3.2,8.06,5.73,10.41-.18,5.13-.63,12.64-1.74,15.34-.03.06-.05.12-.08.18l-41.4,15.87h.04c-.37.11-.73.22-1.08.35-1.15.41-3.03,1.3-3.03,1.3v.02c-2.33.91-4.75,3.66-7.25,10.54-3.35,9.21-8.24,70.3-8.76,76.97-.42,5.34-1.51,15.48-2.02,16.82-.27.7-.54,1.39-.81,2.08-.02.05-.04.1-.05.15-5.04,12.99-9.82,24.8-11.25,34.19-.39,2.56-.75,4.93-1.1,7.19,0,.05-.01.1-.02.14-1.73,11.36-2.95,19.44-4.79,30.33-.98,5.75-2.74,6.71-3.16,9.76-.05.39-.06.79-.06,1.27v.16c0,.97-.01,2.29-.35,4.57-1.1,7.39-1.94,8.86-2.7,11.5-1.72,5.98-2.4,9.1-2.23,13.22.22,5.44,1.59,8.05,4.12,10.69,1.3,1.36,2.58,3.05,4.61,4.88,2.88,2.6,3.28,2.72,4.45,1.26,1.53-1.9-.42-4.5.28-9.21.96-6.46,2.51-8.27,3.01-16.17.08-1.19.83,5.28,3.37,7.65,2.01,1.88,5.41,1.75,4.86.8-5.13-8.89-.63-14.59-2.86-21.4-.67-2.07-2.49-5.31-2.6-7.05,0-.14,0-.28,0-.41,0-.12.04-.25.05-.37.38-3.77,2.72-8.42,5.99-14.24,4.48-7.99,7.05-12.91,13.38-27.15.02-.04.04-.08.05-.12.41-.92.82-1.87,1.27-2.86,7.92-17.98,9.24-33.89,9.55-35.8.13-.83.34-1.74.55-2.7.01-.05.02-.11.04-.16,1.03-4.45,2.89-10.13,4.91-16.15,2.03-6.05,4.23-12.44,5.97-18.3.55-1.85,1.89-7.31,2.44-9.59.2.62.38,1.27.59,1.92.47,6.25.41,25.7-2.71,41.56,0,.01,0,.02,0,.04-.01.06-.02.12-.03.18-.84,5.38-1.66,10.6-2.58,15.5-.26,1.38-.45,2.88-.65,4.46-1.09,8.34-.71,13.86-.86,21.94-.02,1.6-.04,3.21-.06,4.82-2.94,8.52-6.27,19.66-6.4,36.4v.3c-.02,4.19.15,8.73.58,13.67,1.1,12.52,9.23,39.25,12.26,52.02,6.75,28.39,10.57,45.42,11.06,55.43.65,12.92-.83,16.96-2.15,24.79-2.56,15.21-.69,28.37,2.35,40.42,5.63,22.28,11.53,32.19,12.13,43.89.15,2.91-1.69,4.13-.68,7.83.53,1.92,1.43,3.76.07,8.04-4.59,14.48-10.56,18.28-9.86,23.57.79,5.86,17.35,5.49,23.84,4.17,5.34-1.09,5.27-10.06,3.73-20.34-.31-2.08-.47-4.4-.35-7.96.06-1.75.46-3.8.67-6.28.19-2.28-.37-4.69-.67-6.59-.23-1.45-.47-2.61-.51-3.22-1.43-22.38-.99-27.75,1.39-48.79,2.39-21.26-.97-25.08-.55-38.08.25-7.71,2.22-15.58,2.75-23.92.66-10.47-.25-20.35-1.18-27.8-2.58-20.57-2.56-23.89-3.39-40.15-.9-17.66,3.85-26.31,1.14-41.54.63.26,2.17.35,3.7.37,1.53.01,3.07-.11,3.7-.37-2.71,15.23,2.04,23.88,1.14,41.54-.83,16.26-.81,19.58-3.39,40.15-.93,7.45-1.84,17.33-1.18,27.8.53,8.34,2.5,16.21,2.75,23.92.42,13-2.94,16.82-.55,38.08,2.37,21.04,2.82,26.41,1.39,48.79-.04.61-.28,1.77-.51,3.22-.3,1.9-.86,4.31-.67,6.59.21,2.48.61,4.53.67,6.28.12,3.56-.04,5.88-.35,7.96-1.54,10.28-1.61,19.25,3.73,20.34,6.48,1.32,23.05,1.69,23.84-4.17.7-5.29-5.27-9.09-9.86-23.57-1.36-4.28-.46-6.12.07-8.04,1.01-3.7-.83-4.92-.68-7.83.59-11.52,6.32-21.31,11.87-42.89.11-.44.23-.89.34-1.34,2.89-11.57,4.68-24.17,2.5-38.62-.1-.66-.21-1.32-.32-1.98-1.23-7.14-2.55-11.25-2.15-22.46.03-.77.07-1.59.12-2.44.59-9.78,4.19-25.98,10.44-52.35.25-1.06.52-2.16.79-3.29,2.91-12.02,9.79-34.98,11.65-48.05.21-1.51.38-2.93.48-4.22.26-3.25.41-6.32.46-9.24,0-.07,0-.21,0-.28.02-1.44.03-2.85,0-4.21,0-.02,0-.27,0-.3-.29-16.87-3.85-27.94-6.78-36.41-.03-8.64.57-15.2-.45-24.39-.24-2.18-.47-4.22-.81-6.06-.83-4.41-1.57-9.11-2.34-13.97,0-.05-.02-.11-.03-.16,0-.01,0-.02,0-.03-3.23-16.24-3.19-36.74-2.74-43.11.16-.51.31-1.04.47-1.55.55,2.28,1.89,7.74,2.44,9.59,1.74,5.85,3.93,12.23,5.96,18.28,2.01,5.99,3.86,11.64,4.9,16.09.01.04.02.09.03.13.23,1,.44,1.96.58,2.82.3,1.84,1.53,16.62,8.67,33.73.39.92.78,1.84,1.18,2.76.34.77.66,1.5.98,2.21,6.36,14.31,8.93,19.23,13.42,27.24,3.25,5.78,5.58,10.41,5.99,14.16,0,.04.01.08.01.12.02.14.05.3.06.44.11,1.65-1.9,5.15-2.61,7.35-2.23,6.81,2.27,12.51-2.86,21.4-.55.95,2.85,1.08,4.86-.8,2.54-2.37,3.29-8.84,3.37-7.65.5,7.9,2.05,9.71,3.01,16.17.7,4.71-1.25,7.31.28,9.21,1.17,1.46,1.57,1.34,4.45-1.26,2.03-1.83,3.31-3.52,4.61-4.88,2.53-2.64,3.9-5.25,4.12-10.69.17-4.12-.51-7.24-2.23-13.22-.62-2.15-1.29-3.51-2.12-8.13Z"/>
  </g>
</svg>