<?xml version="1.0" encoding="UTF-8"?>
<svg id="_레이어_2" data-name="레이어 2" xmlns="http://www.w3.org/2000/svg" viewBox="0 0 215.21 572.01">
  <defs>
    <style>
      .cls-1 {
        fill: #f2a7a9;
        stroke: #221714;
        stroke-miterlimit: 10;
      }
    </style>
  </defs>
  <g id="_레이어_1-2" data-name="레이어 1">
    <path class="cls-1" d="m.51,325.55c0,.21.02.42.03.63.25,5.02,1.53,7.58,3.83,10.08.18.2.36.39.55.6,1.14,1.22,2.3,2.68,3.99,4.26.24.22.47.43.69.63,2.25,2,2.82,2.25,3.75,1.31.22-.23.41-.5.59-.82.96-1.78-.45-4.17-.02-8.15.04-.4.1-.8.16-1.2.93-5.79,2.33-7.8,2.86-14.86.03-.44.1-.41.25-.18.25.39.96,4.33,2.68,6.49.35.44.75.8,1.18,1.08,1.47.96,3.23,1.02,3.57.68.28-.27.45-.63.21-1.1-4.23-8.03-.71-13.45-2.22-19.66-.15-.61-.36-1.26-.61-1.94-.67-1.73-1.77-3.89-2.01-5.35-.02-.14-.03-.28-.04-.41,0-.05,0-.09-.01-.14-.07-.57-.07-1.11,0-1.6.02-.15.06-.3.09-.45.6-3.31,2.53-7.27,5.17-12.05.41-.74.82-1.48,1.24-2.23,3.98-7.14,6.56-12.16,12.17-24.72.02-.04.04-.09.05-.13.39-.87.79-1.78,1.21-2.73.37-.84.75-1.7,1.12-2.58,6.71-15.63,8.35-29.46,8.88-33.23.16-1.12.33-2.07.47-2.8,0-.04.02-.09.03-.13.21-1.02.48-2.13.78-3.3,1.2-4.64,3.1-10.35,5.11-16.3,1.57-4.66,3.19-9.46,4.59-14.01.37-1.21.84-2.84,1.28-4.5.39-1.44.88-3.41,1.27-4.98.45-.15.93-.27,1.32,0,.16.51.32,1.04.49,1.56,1.66,8.08,3.08,24.66-.52,37.9,0,0,.02.02.02.03-.01.06-.02.12-.03.17-1.14,6.3-2.2,12.43-4.55,19.06-2.26,6.38-2.97,11.36-3.51,16.63-.89,2.18-1.83,4.47-3.22,7.93-3.66,9.1-9.05,21.21-9.23,41.52-.04,4.27.15,8.91.65,13.96,1.24,12.52,10.39,39.26,13.81,52.03,7.6,28.39,11.9,45.41,12.46,55.42.72,12.92-.94,16.97-2.43,24.79-2.89,15.22-.78,28.37,2.65,40.42,6.34,22.29,12.99,32.19,13.66,43.89.17,2.92-1.91,4.14-.76,7.83.59,1.92,1.6,3.76.07,8.04-5.17,14.49-11.89,18.28-11.1,23.57.88,5.86,19.55,5.5,26.85,4.17,6.01-1.08,5.93-10.06,4.2-20.33-.35-2.08-.52-4.4-.39-7.96.06-1.76.51-3.81.75-6.28.22-2.28-.41-4.69-.75-6.6-.26-1.44-.53-2.6-.57-3.21-1.54-22.39-1.12-27.75,1.55-48.79,2.7-21.27-1.08-25.08-.61-38.09.29-7.7,2.5-15.58,3.09-23.92.75-10.46-.28-20.35-1.33-27.79-2.89-20.57-2.88-23.89-3.81-40.16-1.02-17.65,4.34-26.31,1.28-41.54.71.27,2.45.36,4.17.38,1.72.02,3.46-.11,4.17-.38-3.06,15.23,2.3,23.89,1.29,41.54-.94,16.27-.92,19.59-3.82,40.16-1.05,7.44-2.08,17.33-1.33,27.79.59,8.34,2.81,16.22,3.09,23.92.47,13.01-3.31,16.82-.61,38.09,2.67,21.04,3.28,26.42,1.56,48.79-.05.61-.31,1.77-.57,3.21-.34,1.91-.98,4.32-.76,6.6.24,2.47.69,4.52.76,6.28.13,3.56-.05,5.88-.4,7.96-1.73,10.27-1.81,19.25,4.2,20.33,7.31,1.33,25.97,1.69,26.85-4.17.79-5.29-5.93-9.08-11.1-23.57-1.53-4.28-.52-6.12.07-8.04,1.15-3.69-.93-4.91-.76-7.83.67-11.7,7.32-21.6,13.66-43.89,3.43-12.05,5.54-25.2,2.65-40.42-1.48-7.82-3.15-11.87-2.43-24.79.56-10.01,4.86-27.03,12.46-55.42,3.42-12.77,12.58-39.51,13.81-52.03.5-5.05.69-9.69.66-13.96-.18-19.48-5.19-31.38-8.78-40.36-.33-.82-.64-1.59-.94-2.33-1.37-3.37-2.26-5.6-3.23-7.93-.48-3.8-1.29-7.73-2.75-12.81-.52-1.81-.91-3.53-1.37-5.11-1.37-4.74-2.25-9.3-3.12-14.05,0-.05-.02-.11-.03-.16,0,0,.02-.01.02-.02-4.07-14.55-1.78-34.29-.1-42.81.16-.52.32-1.04.48-1.55.55,2.28,1.89,7.74,2.44,9.59,1.73,5.84,3.92,12.2,5.94,18.22,2.02,6.01,3.87,11.68,4.91,16.14.01.05.02.09.03.14.22,1,.44,1.95.58,2.82.3,1.86,1.56,17.02,8.97,34.43.4.93.8,1.85,1.19,2.75.23.53.45,1.04.67,1.53,6.36,14.31,8.93,19.23,13.42,27.24,3.24,5.78,5.57,10.4,5.98,14.15,0,.04.01.09.02.13.02.14.05.3.06.44.1,1.64-1.9,5.15-2.61,7.34-2.23,6.82,2.27,12.52-2.86,21.41-.55.95,2.85,1.08,4.86-.8,2.54-2.37,3.29-8.84,3.37-7.65.5,7.9,2.05,9.71,3.01,16.17.7,4.71-1.25,7.31.28,9.21,1.17,1.46,1.57,1.34,4.45-1.26,2.03-1.83,3.31-3.52,4.61-4.88,2.53-2.64,3.9-5.25,4.12-10.69.17-4.12-.51-7.24-2.23-13.22-.67-2.32-1.4-3.71-2.32-9.26-.29-1.74-.42-3.13-.56-4.52-.17-1.14-.18-1.88-.18-2.36,0-.52,0-.94-.06-1.36-.43-3.05-2.18-4.01-3.16-9.76-1.84-10.86-3.05-18.93-4.78-30.25,0-.05-.02-.11-.02-.16-.35-2.28-.71-4.67-1.11-7.26-1.43-9.37-6.16-21.16-11.22-34.1-.02-.05-.04-.11-.06-.16-.28-.71-.56-1.43-.84-2.15-.51-1.34-1.6-11.48-2.02-16.82-.52-6.67-5.41-67.76-8.76-76.97-2.5-6.88-4.92-9.63-7.25-10.54v-.02s-1.88-.89-3.03-1.3c-.86-.3-1.77-.57-2.74-.81l-39.58-15.17c-.07-.15-.14-.3-.2-.45-1.11-2.7-1.56-10.21-1.74-15.34,2.53-2.35,4.5-5.38,5.73-10.41.22-.9.48-1.97.74-3.12,2.78.98,3.5-3.3,4.02-4.54.57-1.37,1.31-1.5,2.07-4.5.51-2.01-.37-3.32,0-4.61.24-.87.36-3.32-.75-4.16-.12-.09-.26-.14-.42-.18,1.65-6.27,2.7-16.51-.74-24.34-1.48-3.39-3.32-6.12-5.25-8.29-4.56-5.57-12.1-9.22-20.63-9.22s-16.07,3.65-20.63,9.22c-1.93,2.17-3.77,4.9-5.25,8.29-3.44,7.84-2.39,18.08-.74,24.34-.16.05-.3.09-.42.18-1.11.84-.99,3.29-.75,4.16.36,1.29-.52,2.6,0,4.61.76,3,1.5,3.13,2.07,4.5.52,1.24,1.24,5.52,4.02,4.54.26,1.15.52,2.22.74,3.12,1.23,5.03,3.2,8.06,5.73,10.41-.18,5.13-.63,12.64-1.74,15.34-.07.16-.14.32-.21.48l-39.45,15.12c-1,.25-1.96.52-2.86.84-1.15.41-3.03,1.3-3.03,1.3v.02c-2.33.91-4.75,3.66-7.25,10.54-3.35,9.21-8.24,70.3-8.76,76.97-.42,5.34-1.51,15.48-2.02,16.82-.27.7-.54,1.39-.81,2.08-.02.05-.03.1-.05.15-5.04,12.99-9.82,24.8-11.25,34.19-.39,2.56-.75,4.93-1.1,7.18,0,.05-.01.1-.02.15-1.73,11.36-2.95,19.44-4.79,30.33-.98,5.75-2.73,6.71-3.16,9.76-.06.39-.06.79-.06,1.27v.16c0,.97,0,2.29-.35,4.57-1.07,7.21-1.9,8.78-2.64,11.31-.04.13-.08.26-.12.4-1.63,5.69-2.3,8.77-2.18,12.7Z"/>
  </g>
</svg>