<?xml version="1.0" encoding="UTF-8"?>
<svg id="_레이어_2" data-name="레이어 2" xmlns="http://www.w3.org/2000/svg" viewBox="0 0 215.21 572.31">
  <defs>
    <style>
      .cls-1 {
        fill: #f2a7a9;
        stroke: #221714;
        stroke-miterlimit: 10;
      }
    </style>
  </defs>
  <g id="_레이어_1-2" data-name="레이어 1">
    <path class="cls-1" d="m210.14,303.39c-.29-1.74-.42-3.13-.56-4.53-.17-1.14-.18-1.88-.18-2.36,0-.52,0-.94-.06-1.36-.43-3.05-2.18-4.01-3.16-9.76-1.84-10.86-3.05-18.93-4.78-30.25,0-.05-.02-.11-.02-.16-.35-2.28-.71-4.67-1.11-7.26-1.43-9.37-6.13-21.17-11.22-34.1-.02-.05-.04-.11-.06-.16-.28-.71-.56-1.43-.83-2.15-.51-1.34-1.6-11.48-2.02-16.82-.52-6.67-5.41-67.76-8.76-76.97-2.5-6.88-4.92-9.63-7.25-10.54v-.02s-1.88-.89-3.03-1.3c-1.14-.41-2.39-.74-3.71-1.03l-38.53-14.77c-.09-.21-.19-.41-.28-.63-1.11-2.7-1.56-10.21-1.74-15.34,2.53-2.35,4.5-5.38,5.73-10.41.22-.9.48-1.97.74-3.12,2.78.98,3.5-3.3,4.02-4.54.57-1.37,1.31-1.5,2.07-4.5.51-2.01-.37-3.32,0-4.61.24-.87.36-3.32-.75-4.16-.12-.09-.26-.14-.42-.18,1.65-6.27,2.7-16.51-.74-24.34-1.48-3.39-3.32-6.12-5.25-8.29-4.56-5.57-12.1-9.22-20.63-9.22s-16.07,3.65-20.63,9.22c-1.93,2.17-3.77,4.9-5.25,8.29-3.44,7.84-2.39,18.08-.74,24.34-.16.05-.3.09-.42.18-1.11.84-.99,3.29-.75,4.16.36,1.29-.52,2.6,0,4.61.76,3,1.5,3.13,2.07,4.5.52,1.24,1.24,5.52,4.02,4.54.26,1.15.52,2.22.74,3.12,1.23,5.03,3.2,8.06,5.73,10.41-.18,5.13-.63,12.64-1.74,15.34-.09.23-.19.44-.29.65l-38.4,14.72c-1.36.3-2.65.64-3.83,1.06-1.15.41-3.03,1.3-3.03,1.3v.02c-2.33.91-4.75,3.66-7.25,10.54-3.35,9.21-8.24,70.3-8.76,76.97-.42,5.34-1.51,15.48-2.02,16.82-.27.7-.54,1.39-.81,2.08-.02.05-.03.1-.05.15-5.04,12.99-9.82,24.8-11.25,34.19-.39,2.56-.75,4.93-1.1,7.18,0,.05-.01.1-.02.15-1.73,11.36-2.95,19.44-4.79,30.33-.98,5.75-2.73,6.71-3.16,9.76-.06.39-.06.79-.06,1.27v.16c0,.97,0,2.29-.35,4.57-1.1,7.39-1.94,8.86-2.7,11.5-1.72,5.98-2.4,9.1-2.23,13.22.22,5.44,1.59,8.05,4.12,10.69,1.3,1.36,2.58,3.05,4.61,4.88,2.88,2.6,3.28,2.72,4.45,1.26,1.53-1.9-.42-4.5.28-9.21.96-6.46,2.51-8.27,3.01-16.17.08-1.19.83,5.28,3.37,7.65,2.01,1.88,5.41,1.75,4.86.8-5.13-8.89-.63-14.59-2.86-21.41-.68-2.11-2.56-5.44-2.6-7.15,0-.14.01-.29.02-.42,0-.1.03-.2.04-.3.4-3.76,2.73-8.4,5.99-14.2,4.48-8,7.05-12.92,13.39-27.18l.06-.13c.4-.9.81-1.84,1.25-2.83,7.92-17.98,9.24-33.89,9.55-35.8.14-.84.34-1.77.56-2.74.01-.05.02-.1.04-.16,1.03-4.45,2.88-10.1,4.9-16.11,2.03-6.05,4.23-12.44,5.97-18.31.5-1.68,1.65-6.36,2.25-8.81.15-.04.29-.05.42,0,1.64,8.54,3.36,28.78-.82,43.55,0,0,0,0,0,0-.02.1-.03.19-.05.28-.86,4.59-2.35,9.11-4.06,13.61-.76,2-1.44,4.19-2.12,6.53-7.44,12.59-9.16,19.57-9.16,19.57-.18.42-.36.85-.55,1.28-.05.1-.09.19-.13.29-3.82,9.16-10.13,21.1-10.26,41.23,0,.1,0,.19,0,.29-.02,4.28.17,8.91.73,13.97,1.37,12.52,11.56,39.25,15.36,52.03,8.45,28.38,13.23,45.41,13.85,55.42.81,12.92-1.05,16.96-2.7,24.79-3.21,15.21-.86,28.37,2.95,40.42,7.05,22.28,14.45,32.19,15.2,43.89.18,2.91-2.14,4.13-.86,7.83.67,1.92,1.79,3.76.09,8.04-5.75,14.48-13.23,18.28-12.35,23.57.98,5.86,21.74,5.49,29.86,4.17,6.69-1.09,6.6-10.06,4.67-20.34-.39-2.07-.59-4.4-.44-7.96.08-1.75.57-3.8.84-6.28.24-2.28-.46-4.69-.84-6.59-.29-1.45-.58-2.61-.63-3.21-1.8-22.39-1.24-27.76,1.73-48.8,3-21.26-1.21-25.08-.68-38.08.32-7.7,2.78-15.58,3.44-23.92.83-10.47-.31-20.35-1.48-27.79-3.22-20.57-3.2-23.9-4.25-40.16-1.12-17.66,4.84-26.31,1.44-41.54.78.26,2.72.37,4.63.37,1.92,0,3.85-.11,4.63-.37-3.39,15.23,2.57,23.88,1.44,41.54-1.04,16.26-1.03,19.59-4.25,40.16-1.16,7.44-2.31,17.32-1.48,27.79.66,8.34,3.13,16.22,3.44,23.92.53,13-3.68,16.82-.68,38.08,2.97,21.04,3.53,26.41,1.73,48.8-.05.6-.34,1.76-.63,3.21-.38,1.9-1.08,4.31-.84,6.59.26,2.48.76,4.53.84,6.28.15,3.56-.05,5.89-.44,7.96-1.93,10.28-2.02,19.25,4.67,20.34,8.12,1.32,28.88,1.69,29.86-4.17.88-5.29-6.6-9.09-12.35-23.57-1.7-4.28-.57-6.12.09-8.04,1.27-3.7-1.04-4.92-.85-7.83.75-11.7,8.14-21.61,15.19-43.89,3.82-12.05,6.16-25.21,2.95-40.42-1.65-7.83-3.51-11.87-2.7-24.79.62-10.01,5.4-27.04,13.85-55.42,3.8-12.78,13.99-39.51,15.37-52.03.55-5.06.74-9.69.72-13.97,0-.1,0-.19-.01-.29-.13-20.13-6.44-32.07-10.26-41.23-.04-.1-.08-.19-.13-.29h.01c-.19-.43-.37-.86-.55-1.28,0,0-.46-1.87-1.93-5.41-1.38-3.31-3.64-8.09-7.23-14.17-.67-2.31-1.34-4.48-2.09-6.46-1.72-4.54-3.23-9.09-4.1-13.71-.02-.1-.04-.2-.06-.3-4.07-14.53-2.67-34.21-1.06-42.73.16-.52.31-1.04.47-1.55.55,2.28,1.89,7.74,2.44,9.59,1.73,5.84,3.92,12.2,5.95,18.23,2.02,6.01,3.87,11.67,4.91,16.12.01.05.02.09.03.14.23,1,.44,1.95.58,2.82.3,1.86,1.56,17.02,8.97,34.42.4.94.8,1.85,1.19,2.75.23.53.46,1.04.67,1.53,6.36,14.31,8.93,19.23,13.42,27.24,3.24,5.78,5.57,10.4,5.98,14.15,0,.04.01.09.02.13.02.14.05.3.06.44.1,1.64-1.9,5.15-2.61,7.34-2.23,6.82,2.27,12.52-2.86,21.41-.55.95,2.85,1.08,4.86-.8,2.54-2.37,3.29-8.84,3.37-7.65.5,7.9,2.05,9.71,3.01,16.17.7,4.71-1.25,7.31.28,9.21,1.17,1.46,1.57,1.34,4.45-1.26,2.03-1.83,3.31-3.52,4.61-4.88,2.53-2.64,3.9-5.25,4.12-10.69.17-4.12-.51-7.24-2.23-13.22-.67-2.32-1.4-3.71-2.32-9.26Z"/>
  </g>
</svg>